# Blender 4.4.1
# www.blender.org
mtllib pipe2.mtl
o 立方体.001
v -0.900000 -1.600000 -0.300000
v -0.900000 -0.800000 -0.300000
v -0.900000 -1.600000 -0.700000
v -0.900000 -0.800000 -0.700000
v -0.300000 -1.600000 -0.300000
v -0.300000 -0.800000 -0.300000
v -0.300000 -1.600000 -0.700000
v -0.300000 -0.800000 -0.700000
v -0.900000 -1.200000 -0.060000
v -0.300000 -1.200000 -0.060000
v -0.900000 -0.760000 -0.500000
v -0.300000 -0.760000 -0.500000
v -0.900000 -1.200000 -0.940000
v -0.300000 -1.200000 -0.940000
v -0.900000 -1.640000 -0.500000
v -0.300000 -1.640000 -0.500000
v -0.900000 -1.000000 -0.100000
v -0.300000 -1.400000 -0.100000
v -0.900000 -1.400000 -0.100000
v -0.300000 -1.000000 -0.100000
v -0.900000 -1.600000 -0.300000
v -0.300000 -1.600000 -0.700000
v -0.900000 -1.600000 -0.700000
v -0.300000 -1.600000 -0.300000
v -0.900000 -1.400000 -0.900000
v -0.300000 -1.400000 -0.900000
v -0.900000 -1.000000 -0.900000
v -0.300000 -1.000000 -0.900000
v -0.900000 -0.800000 -0.700000
v -0.300000 -0.800000 -0.300000
v -0.900000 -0.800000 -0.300000
v -0.300000 -0.800000 -0.700000
v -0.900000 -1.600000 -0.300000
v -0.900000 -1.600000 -0.300000
v -0.900000 -1.000000 -0.100000
v -0.900000 -0.800000 -0.300000
v -0.900000 -0.800000 -0.700000
v -0.900000 -0.800000 -0.700000
v -0.900000 -1.400000 -0.900000
v -0.900000 -1.600000 -0.700000
v -0.300000 -1.600000 -0.700000
v -0.300000 -0.800000 -0.700000
v -0.300000 -1.400000 -0.900000
v -0.300000 -1.600000 -0.700000
v -0.300000 -0.800000 -0.300000
v -0.300000 -0.800000 -0.300000
v -0.300000 -1.400000 -0.100000
v -0.300000 -1.600000 -0.300000
v -0.900000 -1.400000 -0.100000
v -0.900000 -1.200000 -0.060000
v -0.300000 -1.000000 -0.100000
v -0.300000 -1.200000 -0.060000
v -0.900000 -0.800000 -0.300000
v -0.900000 -0.760000 -0.500000
v -0.300000 -0.800000 -0.700000
v -0.300000 -0.760000 -0.500000
v -0.900000 -1.000000 -0.900000
v -0.900000 -1.200000 -0.940000
v -0.300000 -1.000000 -0.900000
v -0.300000 -1.200000 -0.940000
v -0.900000 -1.600000 -0.700000
v -0.900000 -1.640000 -0.500000
v -0.300000 -1.600000 -0.300000
v -0.300000 -1.640000 -0.500000
v -0.030541 -1.400000 -0.893923
v -0.065270 -1.600000 -0.696962
v -0.065270 -1.600000 -0.696962
v -0.134730 -0.800000 -0.303038
v -0.134730 -0.800000 -0.303038
v -0.169459 -1.400000 -0.106077
v -0.134730 -1.600000 -0.303038
v -0.169459 -1.000000 -0.106077
v -0.176405 -1.200000 -0.066685
v -0.065270 -0.800000 -0.696962
v -0.100000 -0.760000 -0.500000
v -0.030541 -1.000000 -0.893923
v -0.023595 -1.200000 -0.933316
v -0.134730 -1.600000 -0.303038
v -0.100000 -1.640000 -0.500000
v -0.065270 -0.800000 -0.696962
v 0.266009 -1.400000 -0.827793
v 0.181485 -1.600000 -0.646532
v 0.181485 -1.600000 -0.646532
v 0.012438 -0.800000 -0.284009
v 0.012438 -0.800000 -0.284009
v -0.072086 -1.400000 -0.102747
v 0.012438 -1.600000 -0.284009
v -0.072086 -1.000000 -0.102747
v -0.088990 -1.200000 -0.066495
v 0.181485 -0.800000 -0.646532
v 0.096962 -0.760000 -0.465270
v 0.266009 -1.000000 -0.827793
v 0.282914 -1.200000 -0.864046
v 0.012438 -1.600000 -0.284009
v 0.096962 -1.640000 -0.465270
v 0.181485 -0.800000 -0.646532
v 0.561066 -1.400000 -0.663589
v 0.419644 -1.600000 -0.522168
v 0.419644 -1.600000 -0.522168
v 0.136802 -0.800000 -0.239325
v 0.136802 -0.800000 -0.239325
v -0.004620 -1.400000 -0.097904
v 0.136802 -1.600000 -0.239325
v -0.004620 -1.000000 -0.097904
v -0.032904 -1.200000 -0.069620
v 0.419644 -0.800000 -0.522168
v 0.278223 -0.760000 -0.380747
v 0.561066 -1.000000 -0.663589
v 0.589350 -1.200000 -0.691874
v 0.136802 -1.600000 -0.239325
v 0.278223 -1.640000 -0.380747
v 0.419644 -0.800000 -0.522168
v 0.782168 -1.400000 -0.408373
v 0.600906 -1.600000 -0.323849
v 0.600906 -1.600000 -0.323849
v 0.238383 -0.800000 -0.154802
v 0.238383 -0.800000 -0.154802
v 0.057121 -1.400000 -0.070278
v 0.238383 -1.600000 -0.154802
v 0.057121 -1.000000 -0.070278
v 0.020869 -1.200000 -0.053373
v 0.600906 -0.800000 -0.323849
v 0.419644 -0.760000 -0.239325
v 0.782168 -1.000000 -0.408373
v 0.818420 -1.200000 -0.425277
v 0.238383 -1.600000 -0.154802
v 0.419644 -1.640000 -0.239325
v 0.600906 -0.800000 -0.323849
v 0.848277 -1.400000 -0.252222
v 0.655091 -1.600000 -0.200458
v 0.655091 -1.600000 -0.200458
v 0.268721 -0.800000 -0.096931
v 0.268721 -0.800000 -0.096931
v 0.075536 -1.400000 -0.045167
v 0.268721 -1.600000 -0.096931
v 0.075536 -1.000000 -0.045167
v 0.036899 -1.200000 -0.034814
v 0.655091 -0.800000 -0.200458
v 0.461906 -0.760000 -0.148695
v 0.848277 -1.000000 -0.252222
v 0.886914 -1.200000 -0.262575
v 0.268721 -1.600000 -0.096931
v 0.461906 -1.640000 -0.148695
v 0.655091 -0.800000 -0.200458
v 0.886266 -1.400000 -0.086964
v 0.687027 -1.600000 -0.069533
v 0.687027 -1.600000 -0.069533
v 0.288549 -0.800000 -0.034671
v 0.288549 -0.800000 -0.034671
v 0.089310 -1.400000 -0.017240
v 0.288549 -1.600000 -0.034671
v 0.089310 -1.000000 -0.017240
v 0.049463 -1.200000 -0.013753
v 0.687027 -0.800000 -0.069533
v 0.487788 -0.760000 -0.052102
v 0.886266 -1.000000 -0.086964
v 0.926114 -1.200000 -0.090451
v 0.288549 -1.600000 -0.034671
v 0.487788 -1.640000 -0.052102
v 0.687027 -0.800000 -0.069533
v 0.896504 -1.400000 0.047517
v 0.696504 -1.600000 0.047517
v 0.696504 -1.600000 0.047517
v 0.296504 -0.800000 0.047518
v 0.296504 -0.800000 0.047518
v 0.096504 -1.400000 0.047518
v 0.296504 -1.600000 0.047518
v 0.096504 -1.000000 0.047518
v 0.056504 -1.200000 0.047518
v 0.696504 -0.800000 0.047517
v 0.496504 -0.760000 0.047518
v 0.896504 -1.000000 0.047517
v 0.936504 -1.200000 0.047517
v 0.296504 -1.600000 0.047518
v 0.496504 -1.640000 0.047518
v 0.696504 -0.800000 0.047517
v 0.896504 -1.400000 0.847518
v 0.696504 -1.600000 0.847518
v 0.696504 -1.600000 0.847518
v 0.296504 -0.800000 0.847518
v 0.296504 -0.800000 0.847518
v 0.096504 -1.400000 0.847518
v 0.296504 -1.600000 0.847518
v 0.096504 -1.000000 0.847518
v 0.056504 -1.200000 0.847518
v 0.696504 -0.800000 0.847518
v 0.496504 -0.760000 0.847518
v 0.896504 -1.000000 0.847518
v 0.936504 -1.200000 0.847518
v 0.296504 -1.600000 0.847518
v 0.496504 -1.640000 0.847518
v 0.696504 -0.800000 0.847518
v 0.736504 -0.720000 0.837517
v 0.496504 -1.728000 0.837517
v 0.256504 -1.680000 0.837518
v 1.024504 -1.200000 0.837517
v 0.976504 -0.960000 0.837517
v 0.496504 -0.672000 0.837517
v 0.736504 -0.720000 0.837517
v -0.031496 -1.200000 0.837518
v 0.016504 -0.960000 0.837518
v 0.256504 -1.680000 0.837518
v 0.016504 -1.440000 0.837518
v 0.256504 -0.720000 0.837518
v 0.256504 -0.720000 0.837518
v 0.736504 -1.680000 0.837517
v 0.736504 -1.680000 0.837517
v 0.976504 -1.440000 0.837517
v -0.890000 -1.680000 -0.260000
v -0.890000 -1.680000 -0.260000
v -0.890000 -0.960000 -0.020000
v -0.890000 -0.720000 -0.260000
v -0.890000 -0.720000 -0.740000
v -0.890000 -0.720000 -0.740000
v -0.890000 -1.440000 -0.980000
v -0.890000 -1.680000 -0.740000
v -0.890000 -1.440000 -0.020000
v -0.890000 -1.200000 0.028000
v -0.890000 -0.720000 -0.260000
v -0.890000 -0.672000 -0.500000
v -0.890000 -0.960000 -0.980000
v -0.890000 -1.200000 -1.028000
v -0.890000 -1.680000 -0.740000
v -0.890000 -1.728000 -0.500000
v -0.890000 -1.680000 -0.260000
v -0.890000 -1.680000 -0.260000
v -0.890000 -0.960000 -0.020000
v -0.890000 -0.720000 -0.260000
v -0.890000 -0.720000 -0.740000
v -0.890000 -0.720000 -0.740000
v -0.890000 -1.440000 -0.980000
v -0.890000 -1.680000 -0.740000
v -0.890000 -1.440000 -0.020000
v -0.890000 -1.200000 0.028000
v -0.890000 -0.720000 -0.260000
v -0.890000 -0.672000 -0.500000
v -0.890000 -0.960000 -0.980000
v -0.890000 -1.200000 -1.028000
v -0.890000 -1.680000 -0.740000
v -0.890000 -1.728000 -0.500000
v -1.010000 -1.680000 -0.260000
v -1.010000 -1.680000 -0.260000
v -1.010000 -0.960000 -0.020000
v -1.010000 -0.720000 -0.260000
v -1.010000 -0.720000 -0.740000
v -1.010000 -0.720000 -0.740000
v -1.010000 -1.440000 -0.980000
v -1.010000 -1.680000 -0.740000
v -1.010000 -1.440000 -0.020000
v -1.010000 -1.200000 0.028000
v -1.010000 -0.720000 -0.260000
v -1.010000 -0.672000 -0.500000
v -1.010000 -0.960000 -0.980000
v -1.010000 -1.200000 -1.028000
v -1.010000 -1.680000 -0.740000
v -1.010000 -1.728000 -0.500000
v -1.010000 -1.680000 -0.260000
v -1.010000 -1.680000 -0.260000
v -1.010000 -0.960000 -0.020000
v -1.010000 -0.720000 -0.260000
v -1.010000 -0.720000 -0.740000
v -1.010000 -0.720000 -0.740000
v -1.010000 -1.440000 -0.980000
v -1.010000 -1.680000 -0.740000
v -1.010000 -1.440000 -0.020000
v -1.010000 -1.200000 0.028000
v -1.010000 -0.720000 -0.260000
v -1.010000 -0.672000 -0.500000
v -1.010000 -0.960000 -0.980000
v -1.010000 -1.200000 -1.028000
v -1.010000 -1.680000 -0.740000
v -1.010000 -1.728000 -0.500000
v 0.256504 -0.720000 0.957518
v 0.736504 -1.680000 0.957517
v 0.736504 -1.680000 0.957517
v 0.496504 -1.728000 0.957517
v 0.256504 -0.720000 0.957518
v 0.736504 -0.720000 0.957517
v 0.976504 -0.960000 0.957517
v 0.496504 -0.672000 0.957517
v 0.736504 -0.720000 0.957517
v 1.024504 -1.200000 0.957517
v 0.976504 -1.440000 0.957517
v -0.031496 -1.200000 0.957518
v 0.016504 -0.960000 0.957518
v 0.256504 -1.680000 0.957518
v 0.256504 -1.680000 0.957518
v 0.016504 -1.440000 0.957518
vn -0.0000 0.7071 -0.7071
vn 0.0530 0.1958 0.9792
vn -0.0000 0.7071 0.7071
vn -0.0000 1.0000 -0.0000
vn -0.0000 -0.1961 0.9806
vn -0.0000 0.9806 -0.1961
vn -0.0000 -0.1961 -0.9806
vn -0.0000 -0.9806 -0.1961
vn -0.0000 -0.7071 0.7071
vn -0.0000 0.1961 0.9806
vn -0.0000 -0.9806 0.1961
vn -0.0000 -0.7071 -0.7071
vn -0.0000 0.1961 -0.9806
vn -0.0000 0.9806 0.1961
vn -0.0226 0.1129 -0.9934
vn 1.0000 -0.0000 -0.0000
vn 0.2134 0.1959 -0.9571
vn 0.0036 0.9806 0.1961
vn 0.0092 -0.7071 -0.7071
vn 0.0036 -0.9806 0.1961
vn 0.0221 -0.1961 -0.9803
vn 0.0329 -0.7067 0.7067
vn 0.0092 0.7071 -0.7071
vn 0.0530 -0.1958 0.9792
vn 0.0221 0.1961 -0.9803
vn 0.0329 0.7067 0.7067
vn -0.0252 0.9805 0.1947
vn -0.0252 -0.9805 0.1947
vn 0.1416 -0.7070 -0.6929
vn -0.0021 -0.1933 0.9811
vn -0.0243 0.7036 0.7102
vn 0.0341 -0.9806 -0.1931
vn -0.0243 -0.7036 0.7102
vn -0.0021 0.1933 0.9811
vn 0.2134 -0.1959 -0.9571
vn 0.0341 0.9806 -0.1931
vn 0.1416 0.7070 -0.6929
vn 0.7412 0.1956 -0.6421
vn -0.0523 0.6827 0.7288
vn 0.0829 -0.9806 -0.1777
vn -0.0523 -0.6827 0.7288
vn 0.0548 0.1736 0.9833
vn 0.4769 -0.1956 -0.8569
vn 0.0829 0.9806 -0.1777
vn 0.3275 0.7068 -0.6271
vn 0.4769 0.1956 -0.8569
vn -0.0666 0.9804 0.1853
vn -0.0666 -0.9804 0.1853
vn 0.3275 -0.7068 -0.6271
vn 0.0548 -0.1736 0.9833
vn 0.9030 0.1960 -0.3823
vn -0.1259 0.9804 0.1514
vn -0.1259 -0.9804 0.1514
vn 0.5222 -0.7067 -0.4773
vn -0.2848 -0.1736 0.9427
vn -0.2984 0.6827 0.6670
vn 0.1387 -0.9806 -0.1387
vn -0.2984 -0.6827 0.6670
vn -0.2848 0.1736 0.9427
vn 0.7412 -0.1956 -0.6421
vn 0.1387 0.9806 -0.1387
vn 0.5222 0.7068 -0.4773
vn -0.1739 0.9805 0.0912
vn -0.1739 -0.9805 0.0912
vn 0.6475 -0.7070 -0.2843
vn -0.7432 -0.1890 0.6419
vn -0.5757 0.7002 0.4222
vn 0.1777 -0.9806 -0.0829
vn -0.5757 -0.7002 0.4222
vn -0.7432 0.1890 0.6419
vn 0.9030 -0.1960 -0.3823
vn 0.1777 0.9806 -0.0829
vn 0.6475 0.7070 -0.2843
vn -0.8433 0.1890 0.5031
vn 0.9557 -0.1960 -0.2197
vn 0.1894 0.9806 -0.0508
vn 0.6871 0.7070 -0.1676
vn 0.9557 0.1960 -0.2197
vn -0.1871 0.9805 0.0596
vn -0.1871 -0.9805 0.0596
vn 0.6871 -0.7070 -0.1676
vn -0.8433 -0.1890 0.5031
vn -0.6403 0.7002 0.3158
vn 0.1894 -0.9806 -0.0508
vn -0.6403 -0.7002 0.3158
vn 0.9806 0.1961 -0.0000
vn -0.7029 0.7070 0.0781
vn 0.1954 -0.9806 -0.0171
vn -0.7029 -0.7070 0.0781
vn -0.9742 0.1960 0.1120
vn 0.9778 -0.1961 -0.0744
vn 0.1954 0.9806 -0.0171
vn 0.7048 0.7071 -0.0571
vn 0.9778 0.1961 -0.0744
vn -0.1952 0.9806 0.0189
vn -0.1952 -0.9806 0.0189
vn 0.7048 -0.7071 -0.0571
vn -0.9742 -0.1960 0.1120
vn -0.1961 0.9806 -0.0000
vn -0.1961 -0.9806 -0.0000
vn 0.7071 -0.7071 -0.0000
vn -0.9806 -0.1961 -0.0000
vn -0.7071 0.7071 -0.0000
vn 0.1961 -0.9806 -0.0000
vn -0.7071 -0.7071 -0.0000
vn -0.9806 0.1961 -0.0000
vn 0.9806 -0.1961 -0.0000
vn 0.1961 0.9806 -0.0000
vn 0.7071 0.7071 -0.0000
vn 0.9934 0.1129 0.0226
vn 0.9931 0.0828 -0.0828
vn 0.9934 0.0226 -0.1129
vn 0.9931 -0.0828 0.0828
vn 0.9934 -0.0226 -0.1129
vn 0.9934 -0.0226 0.1129
vn 0.9934 0.0226 0.1129
vn 0.9934 0.1129 -0.0226
vn 0.9931 0.0828 0.0828
vn 0.9934 -0.1129 0.0226
vn 0.9934 -0.1129 -0.0226
vn 0.9931 -0.0828 -0.0828
vn -1.0000 -0.0000 -0.0000
vn 0.0828 -0.0828 -0.9931
vn 0.1129 0.0226 -0.9934
vn -0.0828 0.0828 -0.9931
vn 0.0226 0.1129 -0.9934
vn 0.0226 -0.1129 -0.9934
vn -0.1129 -0.0226 -0.9934
vn -0.0828 -0.0828 -0.9931
vn -0.0226 -0.1129 -0.9934
vn -0.1129 0.0226 -0.9934
vn 0.1129 -0.0226 -0.9934
vn 0.0828 0.0828 -0.9931
vn -0.0000 -0.0000 1.0000
vn 0.0456 0.1915 0.9804
vn 0.2163 0.1918 -0.9573
vn -0.0000 0.9800 0.1990
vn 0.0160 -0.7030 -0.7110
vn -0.0000 -0.9800 0.1990
vn 0.0237 -0.1940 -0.9807
vn 0.0026 0.9801 -0.1986
vn 0.0026 -0.9801 -0.1986
vn 0.0131 -0.7005 0.7136
vn 0.0160 0.7030 -0.7110
vn 0.0456 -0.1915 0.9804
vn 0.0237 0.1940 -0.9807
vn 0.0131 0.7005 0.7136
vn -0.0352 0.9792 0.1997
vn -0.0352 -0.9792 0.1997
vn 0.1557 -0.6987 -0.6983
vn -0.0336 -0.1810 0.9829
vn -0.0928 0.6899 0.7179
vn 0.0403 -0.9795 -0.1973
vn -0.0928 -0.6899 0.7179
vn -0.0336 0.1810 0.9829
vn 0.2163 -0.1918 -0.9573
vn 0.0403 0.9795 -0.1973
vn 0.1557 0.6987 -0.6983
vn 0.7448 0.1891 -0.6400
vn -0.2508 0.6708 0.6979
vn 0.0950 -0.9787 -0.1819
vn -0.2508 -0.6708 0.6979
vn -0.0708 0.1495 0.9862
vn 0.4810 -0.1891 -0.8561
vn 0.0950 0.9787 -0.1819
vn 0.3505 0.6932 -0.6298
vn 0.4810 0.1891 -0.8561
vn -0.0880 0.9781 0.1887
vn -0.0880 -0.9781 0.1887
vn 0.3505 -0.6932 -0.6298
vn -0.0708 -0.1495 0.9862
vn 0.9041 0.1944 -0.3806
vn -0.1472 0.9781 0.1472
vn -0.1472 -0.9781 0.1472
vn 0.5448 -0.6932 -0.4719
vn -0.4038 -0.1495 0.9025
vn -0.4743 0.6708 0.5701
vn 0.1514 -0.9787 -0.1384
vn -0.4743 -0.6708 0.5701
vn -0.4038 0.1495 0.9025
vn 0.7448 -0.1891 -0.6400
vn 0.1514 0.9787 -0.1384
vn 0.5448 0.6932 -0.4719
vn -0.1804 0.9800 0.0841
vn -0.1804 -0.9800 0.0841
vn 0.6543 -0.7037 -0.2770
vn -0.7928 -0.1832 0.5813
vn -0.6339 0.6983 0.3323
vn 0.1816 -0.9801 -0.0797
vn -0.6339 -0.6983 0.3323
vn -0.7928 0.1832 0.5813
vn 0.9041 -0.1944 -0.3806
vn 0.1816 0.9801 -0.0797
vn 0.6543 0.7037 -0.2770
vn -0.8817 0.1832 0.4349
vn 0.9564 -0.1944 -0.2178
vn 0.1927 0.9801 -0.0470
vn 0.6924 0.7037 -0.1592
vn 0.9564 0.1944 -0.2178
vn -0.1922 0.9800 0.0515
vn -0.1922 -0.9800 0.0515
vn 0.6924 -0.7037 -0.1592
vn -0.8817 -0.1832 0.4349
vn -0.6820 0.6983 0.2172
vn 0.1927 -0.9801 -0.0470
vn -0.6820 -0.6983 0.2172
vn -0.7055 0.7055 0.0683
vn 0.1961 -0.9805 -0.0159
vn -0.7055 -0.7055 0.0683
vn -0.9748 0.1950 0.1083
vn 0.9779 -0.1956 -0.0736
vn 0.1961 0.9805 -0.0159
vn 0.7061 0.7061 -0.0538
vn 0.9779 0.1956 -0.0736
vn -0.1961 0.9804 0.0172
vn -0.1961 -0.9804 0.0172
vn 0.7061 -0.7061 -0.0538
vn -0.9748 -0.1950 0.1083
vt 0.511510 0.460787
vt 0.544641 0.434073
vt 0.510422 0.453092
vt 0.427839 0.485281
vt 0.460209 0.510399
vt 0.449029 0.482810
vt 0.507647 0.546550
vt 0.494334 0.466787
vt 0.488804 0.450613
vt 0.466811 0.434182
vt 0.488802 0.450616
vt 0.507725 0.546563
vt 0.501814 0.467870
vt 0.488266 0.457564
vt 0.450958 0.458856
vt 0.511509 0.460790
vt 0.585366 0.559522
vt 0.570464 0.473702
vt 0.507225 0.448840
vt 0.513053 0.418198
vt 0.503190 0.445841
vt 0.492018 0.419277
vt 0.492766 0.447245
vt 0.497079 0.445465
vt 0.490390 0.462521
vt 0.497081 0.445465
vt 0.478990 0.424094
vt 0.492044 0.419273
vt 0.528775 0.422948
vt 0.570445 0.473624
vt 0.507303 0.465712
vt 0.307292 0.268832
vt 0.288591 0.286665
vt 0.297706 0.290412
vt 0.744106 0.817534
vt 0.753228 0.830457
vt 0.742411 0.827815
vt 0.770848 0.834920
vt 0.765685 0.840110
vt 0.761019 0.840716
vt 0.761591 0.821241
vt 0.837530 0.767763
vt 0.769345 0.824825
vt 0.766065 0.884150
vt 0.765695 0.840114
vt 0.766103 0.884160
vt 0.761585 0.821238
vt 0.759762 0.776672
vt 0.771936 0.829474
vt 0.847900 0.887152
vt 0.744109 0.817528
vt 0.757486 0.823450
vt 0.754504 0.825720
vt 0.741418 0.833698
vt 0.754185 0.836508
vt 0.743018 0.839260
vt 0.757134 0.839980
vt 0.751479 0.859838
vt 0.746850 0.847314
vt 0.872870 0.824256
vt 0.746848 0.847309
vt 0.757132 0.839974
vt 0.753838 0.833533
vt 0.754496 0.825724
vt 0.746053 0.807069
vt 0.568678 0.355756
vt 0.536702 0.396423
vt 0.562541 0.403382
vt 0.482533 0.597213
vt 0.488738 0.398958
vt 0.488712 0.398964
vt 0.454337 0.420378
vt 0.466828 0.434164
vt 0.515289 0.394761
vt 0.618204 0.435233
vt 0.682954 0.502300
vt 0.471576 0.407497
vt 0.434544 0.451570
vt 0.454320 0.420392
vt 0.437584 0.528050
vt 0.481858 0.374987
vt 0.468073 0.347649
vt 0.481828 0.375000
vt 0.437424 0.634791
vt 0.545297 0.655414
vt 0.442669 0.405313
vt 0.618276 0.435279
vt 0.641399 0.363210
vt 0.408616 0.485148
vt 0.411626 0.541080
vt 0.482477 0.597168
vt 0.462423 0.387863
vt 0.419371 0.443490
vt 0.442652 0.405328
vt 0.511918 0.363131
vt 0.736020 0.394530
vt 0.522231 0.242872
vt 0.522776 0.311438
vt 0.555250 0.297867
vt 0.388710 0.549002
vt 0.437388 0.634729
vt 0.383367 0.655268
vt 0.449723 0.366685
vt 0.407722 0.435746
vt 0.429957 0.390091
vt 0.394123 0.483652
vt 0.536996 0.357992
vt 0.497677 0.325503
vt 0.735492 0.269967
vt 0.641500 0.363218
vt 0.631146 0.276419
vt 0.469305 0.717861
vt 0.429974 0.390075
vt 0.468105 0.347629
vt 0.496095 0.215363
vt 0.492570 0.266964
vt 0.328895 0.657393
vt 0.382127 0.747130
vt 0.415457 0.376744
vt 0.447734 0.322758
vt 0.631249 0.276389
vt 0.593616 0.198012
vt 0.378338 0.480681
vt 0.447712 0.322779
vt 0.361994 0.551400
vt 0.383354 0.655200
vt 0.431865 0.346818
vt 0.394224 0.427570
vt 0.415446 0.376759
vt 0.471086 0.289852
vt 0.690166 0.148850
vt 0.404259 0.369761
vt 0.392489 0.363876
vt 0.404251 0.369775
vt 0.297511 0.648582
vt 0.292063 0.746776
vt 0.430624 0.309625
vt 0.593683 0.197972
vt 0.559343 0.154192
vt 0.371341 0.478814
vt 0.430610 0.309646
vt 0.349237 0.548823
vt 0.328900 0.657347
vt 0.417953 0.337463
vt 0.387012 0.424310
vt 0.450859 0.273566
vt 0.647701 0.090005
vt 0.412502 0.299537
vt 0.393398 0.291945
vt 0.412492 0.299559
vt 0.364155 0.476596
vt 0.469966 0.246410
vt 0.427765 0.259749
vt 0.596030 0.040583
vt 0.559390 0.154147
vt 0.519611 0.120789
vt 0.464154 0.192473
vt 0.270709 0.633990
vt 0.244461 0.728011
vt 0.392497 0.363860
vt 0.337135 0.544657
vt 0.297525 0.648547
vt 0.402620 0.329927
vt 0.379624 0.421351
vt 0.273444 0.166176
vt 0.419366 0.218319
vt 0.434047 0.177752
vt 0.314810 0.530854
vt 0.270732 0.633958
vt 0.243959 0.609559
vt 0.385604 0.324473
vt 0.363179 0.416963
vt 0.377762 0.357402
vt 0.346738 0.470298
vt 0.443040 0.228962
vt 0.407080 0.250872
vt 0.536456 0.001004
vt 0.519645 0.120738
vt 0.474827 0.098634
vt 0.202203 0.699045
vt 0.377772 0.357382
vt 0.393407 0.291917
vt 0.103299 0.359459
vt 0.108712 0.325353
vt 0.103248 0.359469
vt 0.167700 0.660834
vt 0.300784 0.235427
vt 0.474842 0.098566
vt 0.220234 0.093026
vt 0.262587 0.333337
vt 0.190764 0.362902
vt 0.243996 0.609531
vt 0.287617 0.311026
vt 0.233725 0.346024
vt 0.289593 0.206854
vt 0.204859 0.002858
vt 0.751416 0.907818
vt 0.751392 0.907778
vt 0.493853 0.448879
vt 0.910556 0.821616
vt 0.867567 0.923428
vt 0.739566 0.827521
vt 0.739770 0.816655
vt 0.497349 0.447395
vt 0.505981 0.450076
vt 0.501817 0.467870
vt 0.501615 0.465505
vt 0.738911 0.833883
vt 0.508683 0.459813
vt 0.744410 0.862105
vt 0.742911 0.848292
vt 0.505838 0.463766
vt 0.491010 0.451926
vt 0.742911 0.848286
vt 0.490357 0.457361
vt 0.491962 0.461474
vt 0.740201 0.753179
vt 0.740224 0.753144
vt 0.508307 0.453748
vt 0.740557 0.839907
vt 0.739770 0.816649
vt 0.738402 0.803436
vt 0.759721 0.776687
vt 0.852679 0.734064
vt 0.501859 0.449520
vt 0.502477 0.447856
vt 0.879255 0.653506
vt 0.497384 0.449083
vt 0.495066 0.450516
vt 0.737729 0.841015
vt 0.739251 0.847854
vt 0.735137 0.861178
vt 0.660637 0.724935
vt 0.729394 0.807393
vt 0.735362 0.816474
vt 0.735366 0.816468
vt 0.496327 0.462583
vt 0.495449 0.464451
vt 0.506303 0.454520
vt 0.508684 0.459809
vt 0.660653 0.724812
vt 0.493781 0.460164
vt 0.736855 0.827409
vt 0.492391 0.456949
vt 0.491008 0.451929
vt 0.739256 0.847849
vt 0.492699 0.453200
vt 0.501655 0.463472
vt 0.504316 0.461904
vt 0.501618 0.465505
vt 0.506539 0.458655
vt 0.497386 0.449084
vt 0.734492 0.834224
vt 0.504454 0.451560
vt 0.999874 0.808690
vt 0.497346 0.447396
vt 0.917529 0.999874
vt 0.717772 0.917465
vt 0.717856 0.917393
vt 0.190161 0.340018
vt 0.307295 0.268815
vt 0.295437 0.266403
vt 0.229497 0.333606
vt 0.220224 0.092968
vt 0.183511 0.108764
vt 0.290206 0.238477
vt 0.287625 0.311013
vt 0.000842 0.285640
vt 0.002888 0.345305
vt 0.277880 0.212109
vt 0.156939 0.001005
vt 0.279404 0.304447
vt 0.279414 0.304437
vt 0.273154 0.297606
vt 0.251677 0.312985
vt 0.273169 0.297603
vt 0.277991 0.282758
vt 0.256545 0.322874
vt 0.226731 0.316247
vt 0.263080 0.222239
vt 0.087399 0.020139
vt 0.183485 0.108720
vt 0.132479 0.145853
vt 0.256109 0.179995
vt 0.242864 0.194835
vt 0.041114 0.199443
vt 0.279233 0.244691
vt 0.295441 0.266387
vt 0.284974 0.263215
vt 0.190144 0.318170
vt 0.108758 0.325376
vt 0.130443 0.298603
vt 0.506542 0.458653
vt 0.501658 0.463473
vt 0.492696 0.453201
vt 0.498397 0.999874
vt 0.262027 0.897130
vt 0.431095 0.732171
vt 0.279202 0.244707
vt 0.263049 0.222262
vt 0.242835 0.194875
vt 0.130456 0.298665
vt 0.132431 0.145780
vt 0.284990 0.263202
s 0
usemtl マテリアル.004
f 4/1/1 28/2/1 27/3/1
f 73/4/2 20/5/2 10/6/2
f 6/7/3 17/8/3 20/5/3
f 21/9/4 5/10/4 1/11/4
f 30/12/4 2/13/4 6/7/4
f 10/6/5 19/14/5 18/15/5
f 29/16/6 12/17/6 32/18/6
f 13/19/7 26/20/7 25/21/7
f 22/22/8 15/23/8 23/24/8
f 18/15/9 1/11/9 5/10/9
f 20/5/10 9/25/10 10/6/10
f 3/26/4 22/22/4 23/24/4
f 16/27/11 21/9/11 15/23/11
f 25/21/12 7/28/12 3/26/12
f 27/3/13 14/29/13 13/19/13
f 8/30/4 29/16/4 32/18/4
f 11/31/14 30/12/14 12/17/14
f 179/32/15 194/33/15 191/34/15
f 38/35/1 59/36/1 57/37/1
f 47/38/16 63/39/16 64/40/16
f 46/41/3 35/42/3 51/43/3
f 33/44/4 48/45/4 34/46/4
f 45/47/4 36/48/4 46/41/4
f 52/49/5 49/50/5 47/38/5
f 37/51/6 56/52/6 55/53/6
f 58/54/7 43/55/7 39/56/7
f 44/57/8 62/58/8 61/59/8
f 47/38/9 34/46/9 48/45/9
f 51/43/10 50/60/10 52/49/10
f 40/61/4 44/57/4 61/59/4
f 64/40/11 33/44/11 62/58/11
f 39/56/12 41/62/12 40/61/12
f 57/37/13 60/63/13 58/54/13
f 42/64/4 37/51/4 55/53/4
f 54/65/14 45/47/14 56/52/14
f 92/66/17 77/67/17 76/68/17
f 68/69/18 12/17/18 30/12/18
f 26/20/19 66/70/19 7/28/19
f 7/28/4 67/71/4 22/22/4
f 16/27/20 78/72/20 24/73/20
f 14/29/21 65/74/21 26/20/21
f 32/18/4 80/75/4 8/30/4
f 6/7/4 68/69/4 30/12/4
f 75/76/6 32/18/6 12/17/6
f 22/22/8 79/77/8 16/27/8
f 5/10/22 70/78/22 18/15/22
f 80/75/23 28/2/23 8/30/23
f 18/15/24 73/4/24 10/6/24
f 24/73/4 71/79/4 5/10/4
f 76/68/25 14/29/25 28/2/25
f 72/80/26 6/7/26 20/5/26
f 82/81/4 99/82/4 83/83/4
f 84/84/27 75/85/27 68/69/27
f 79/77/28 94/86/28 78/72/28
f 65/74/29 82/81/29 66/70/29
f 74/87/4 96/88/4 80/75/4
f 70/78/30 89/89/30 73/4/30
f 66/70/4 83/83/4 67/71/4
f 88/90/31 69/91/31 72/80/31
f 69/91/4 84/84/4 68/69/4
f 67/71/32 95/92/32 79/77/32
f 71/79/33 86/93/33 70/78/33
f 78/72/4 87/94/4 71/79/4
f 89/89/34 72/80/34 73/4/34
f 77/67/35 81/95/35 65/74/35
f 91/96/36 74/87/36 75/76/36
f 96/88/37 76/68/37 80/75/37
f 124/97/38 109/98/38 108/99/38
f 104/100/39 85/101/39 88/90/39
f 85/101/4 100/102/4 84/84/4
f 83/83/40 111/103/40 95/92/40
f 87/94/41 102/104/41 86/93/41
f 94/86/4 103/105/4 87/94/4
f 105/106/42 88/90/42 89/89/42
f 93/107/43 97/108/43 81/95/43
f 107/109/44 90/110/44 91/96/44
f 112/111/45 92/66/45 96/88/45
f 108/99/46 93/107/46 92/66/46
f 100/102/47 91/112/47 84/84/47
f 95/92/48 110/113/48 94/86/48
f 81/95/49 98/114/49 82/81/49
f 90/110/4 112/111/4 96/88/4
f 86/93/50 105/106/50 89/89/50
f 140/115/51 125/116/51 124/97/51
f 116/117/52 107/118/52 100/102/52
f 111/103/53 126/119/53 110/113/53
f 97/108/54 114/120/54 98/114/54
f 106/121/4 128/122/4 112/111/4
f 102/104/55 121/123/55 105/106/55
f 98/114/4 115/124/4 99/82/4
f 120/125/56 101/126/56 104/100/56
f 101/126/4 116/117/4 100/102/4
f 99/82/57 127/127/57 111/103/57
f 103/105/58 118/128/58 102/104/58
f 110/113/4 119/129/4 103/105/4
f 121/123/59 104/100/59 105/106/59
f 109/98/60 113/130/60 97/108/60
f 123/131/61 106/121/61 107/109/61
f 128/122/62 108/99/62 112/111/62
f 142/132/4 151/133/4 135/134/4
f 132/135/63 123/136/63 116/117/63
f 127/127/64 142/132/64 126/119/64
f 113/130/65 130/137/65 114/120/65
f 122/138/4 144/139/4 128/122/4
f 118/128/66 137/140/66 121/123/66
f 114/120/4 131/141/4 115/124/4
f 136/142/67 117/143/67 120/125/67
f 117/143/4 132/135/4 116/117/4
f 115/124/68 143/144/68 127/127/68
f 119/129/69 134/145/69 118/128/69
f 126/119/4 135/134/4 119/129/4
f 137/140/70 120/125/70 121/123/70
f 125/116/71 129/146/71 113/130/71
f 139/147/72 122/138/72 123/131/72
f 144/139/73 124/97/73 128/122/73
f 146/148/4 163/149/4 147/150/4
f 153/151/74 136/142/74 137/140/74
f 141/152/75 145/153/75 129/146/75
f 155/154/76 138/155/76 139/147/76
f 160/156/77 140/115/77 144/139/77
f 156/157/78 141/152/78 140/115/78
f 148/158/79 139/159/79 132/135/79
f 143/144/80 158/160/80 142/132/80
f 129/146/81 146/148/81 130/137/81
f 138/155/4 160/156/4 144/139/4
f 134/145/82 153/151/82 137/140/82
f 130/137/4 147/150/4 131/141/4
f 152/161/83 133/162/83 136/142/83
f 133/162/4 148/158/4 132/135/4
f 131/141/84 159/163/84 143/144/84
f 135/134/85 150/164/85 134/145/85
f 188/165/86 173/166/86 172/167/86
f 168/168/87 149/169/87 152/161/87
f 149/169/4 164/170/4 148/158/4
f 147/150/88 175/171/88 159/163/88
f 151/133/89 166/172/89 150/164/89
f 158/160/4 167/173/4 151/133/4
f 169/174/90 152/161/90 153/151/90
f 157/175/91 161/176/91 145/153/91
f 171/177/92 154/178/92 155/154/92
f 176/179/93 156/157/93 160/156/93
f 172/167/94 157/175/94 156/157/94
f 164/170/95 155/180/95 148/158/95
f 159/163/96 174/181/96 158/160/96
f 145/153/97 162/182/97 146/148/97
f 154/178/4 176/179/4 160/156/4
f 150/164/98 169/174/98 153/151/98
f 181/183/4 205/184/4 180/185/4
f 180/185/99 171/186/99 164/170/99
f 191/34/100 174/181/100 175/171/100
f 177/187/101 162/182/101 161/176/101
f 170/188/4 192/189/4 176/179/4
f 182/190/102 169/174/102 166/172/102
f 162/182/4 179/32/4 163/149/4
f 184/191/103 165/192/103 168/168/103
f 165/192/4 180/185/4 164/170/4
f 179/32/104 175/171/104 163/149/104
f 183/193/105 166/172/105 167/173/105
f 174/181/4 183/193/4 167/173/4
f 185/194/106 168/168/106 169/174/106
f 189/195/107 161/176/107 173/166/107
f 187/196/108 170/188/108 171/177/108
f 192/189/109 172/167/109 176/179/109
f 33/44/4 226/197/4 225/198/4
f 224/199/110 23/24/110 15/23/110
f 49/50/111 226/197/111 34/46/111
f 49/50/112 234/200/112 233/201/112
f 38/35/113 237/202/113 230/203/113
f 23/24/4 216/204/4 3/26/4
f 35/42/114 234/200/114 50/60/114
f 222/205/115 27/3/115 13/19/115
f 31/206/4 212/207/4 2/13/4
f 39/56/116 238/208/116 58/54/116
f 21/9/117 224/199/117 15/23/117
f 216/204/118 25/21/118 3/26/118
f 4/1/4 213/209/4 29/16/4
f 61/59/110 240/210/110 239/211/110
f 29/16/119 220/212/119 11/31/119
f 220/212/120 31/206/120 11/31/120
f 212/207/121 17/8/121 2/13/121
f 1/11/4 209/213/4 21/9/4
f 40/61/4 239/211/4 232/214/4
f 217/215/111 1/11/111 19/14/111
f 57/37/115 238/208/115 237/202/115
f 218/216/112 19/14/112 9/25/112
f 36/48/4 235/217/4 228/218/4
f 221/219/113 4/1/113 27/3/113
f 33/44/117 240/210/117 62/58/117
f 40/61/118 231/220/118 39/56/118
f 17/8/114 218/216/114 9/25/114
f 37/51/4 230/203/4 229/221/4
f 37/51/119 236/222/119 54/65/119
f 53/223/120 236/222/120 235/217/120
f 25/21/116 222/205/116 13/19/116
f 35/42/121 228/218/121 227/224/121
f 247/225/7 222/205/7 215/226/7
f 228/218/3 259/227/3 227/224/3
f 247/225/122 255/228/122 256/229/122
f 263/230/122 271/231/122 272/232/122
f 236/222/14 267/233/14 235/217/14
f 229/221/6 268/234/6 236/222/6
f 229/221/4 262/235/4 261/236/4
f 243/237/10 218/216/10 211/238/10
f 232/214/12 263/230/12 231/220/12
f 225/198/11 272/232/11 240/210/11
f 253/239/1 214/240/1 221/219/1
f 228/218/4 267/233/4 260/241/4
f 250/242/5 217/215/5 218/216/5
f 238/208/13 269/243/13 237/202/13
f 249/244/9 210/245/9 217/215/9
f 232/214/4 271/231/4 264/246/4
f 210/245/4 241/247/4 209/213/4
f 244/248/3 211/238/3 212/207/3
f 252/249/14 219/250/14 220/212/14
f 245/251/6 220/212/6 213/209/6
f 240/210/8 271/231/8 239/211/8
f 214/240/4 245/251/4 213/209/4
f 248/252/12 215/226/12 216/204/12
f 241/247/11 224/199/11 209/213/11
f 231/220/7 270/253/7 238/208/7
f 219/250/4 244/248/4 212/207/4
f 254/254/13 221/219/13 222/205/13
f 227/224/10 266/255/10 234/200/10
f 223/256/4 248/252/4 216/204/4
f 237/202/1 262/235/1 230/203/1
f 234/200/5 265/257/5 233/201/5
f 233/201/9 258/258/9 226/197/9
f 256/229/8 223/256/8 224/199/8
f 225/198/4 258/258/4 257/259/4
f 201/260/123 181/183/123 184/191/123
f 178/261/4 206/262/4 179/32/4
f 182/190/124 200/263/124 185/194/124
f 186/264/4 193/265/4 192/189/4
f 208/266/125 178/261/125 177/187/125
f 194/33/126 190/267/126 191/34/126
f 180/185/127 198/268/127 187/269/127
f 188/165/128 196/270/128 189/195/128
f 193/265/129 188/165/129 192/189/129
f 198/271/130 186/264/130 187/196/130
f 196/270/131 177/187/131 189/195/131
f 200/263/132 184/191/132 185/194/132
f 190/267/4 202/272/4 183/193/4
f 202/272/133 182/190/133 183/193/133
f 195/273/4 287/274/4 202/272/4
f 288/275/134 286/276/134 276/277/134
f 287/274/105 203/278/105 202/272/105
f 284/279/106 201/260/106 200/263/106
f 282/280/107 208/266/107 196/270/107
f 280/281/108 199/282/108 198/271/108
f 278/283/109 197/284/109 193/265/109
f 279/285/86 196/270/86 197/284/86
f 205/184/99 280/286/99 198/268/99
f 276/277/100 195/273/100 194/33/100
f 283/287/101 207/288/101 208/266/101
f 199/282/4 278/283/4 193/265/4
f 288/275/102 200/263/102 203/278/102
f 207/288/4 274/289/4 206/262/4
f 285/290/103 204/291/103 201/260/103
f 204/291/4 277/292/4 205/184/4
f 274/289/104 194/33/104 206/262/104
f 4/1/1 8/30/1 28/2/1
f 73/4/135 72/80/135 20/5/135
f 6/7/3 2/13/3 17/8/3
f 21/9/4 24/73/4 5/10/4
f 30/12/4 31/206/4 2/13/4
f 10/6/5 9/25/5 19/14/5
f 29/16/6 11/31/6 12/17/6
f 13/19/7 14/29/7 26/20/7
f 22/22/8 16/27/8 15/23/8
f 18/15/9 19/14/9 1/11/9
f 20/5/10 17/8/10 9/25/10
f 3/26/4 7/28/4 22/22/4
f 16/27/11 24/73/11 21/9/11
f 25/21/12 26/20/12 7/28/12
f 27/3/13 28/2/13 14/29/13
f 8/30/4 4/1/4 29/16/4
f 11/31/14 31/206/14 30/12/14
f 179/32/15 206/262/15 194/33/15
f 38/35/1 42/64/1 59/36/1
f 43/55/16 60/63/16 59/36/16
f 51/43/16 52/49/16 47/38/16
f 56/52/4 45/47/4 46/41/4
f 46/41/16 51/43/16 47/38/16
f 56/52/16 46/41/16 47/38/16
f 59/36/4 42/64/4 55/53/4
f 55/53/16 56/52/16 47/38/16
f 59/36/16 55/53/16 47/38/16
f 43/55/16 59/36/16 47/38/16
f 64/40/4 44/57/4 41/62/4
f 41/62/16 43/55/16 47/38/16
f 64/40/16 41/62/16 47/38/16
f 47/38/4 48/45/4 63/39/4
f 46/41/3 36/48/3 35/42/3
f 33/44/4 63/39/4 48/45/4
f 45/47/4 53/223/4 36/48/4
f 52/49/5 50/60/5 49/50/5
f 37/51/6 54/65/6 56/52/6
f 58/54/7 60/63/7 43/55/7
f 44/57/8 64/40/8 62/58/8
f 47/38/9 49/50/9 34/46/9
f 51/43/10 35/42/10 50/60/10
f 40/61/4 41/62/4 44/57/4
f 64/40/11 63/39/11 33/44/11
f 39/56/12 43/55/12 41/62/12
f 57/37/13 59/36/13 60/63/13
f 42/64/4 38/35/4 37/51/4
f 54/65/14 53/223/14 45/47/14
f 92/66/136 93/107/136 77/67/136
f 68/69/137 75/85/137 12/17/137
f 26/20/138 65/74/138 66/70/138
f 7/28/4 66/70/4 67/71/4
f 16/27/139 79/77/139 78/72/139
f 14/29/140 77/67/140 65/74/140
f 32/18/4 74/87/4 80/75/4
f 6/7/4 69/91/4 68/69/4
f 75/76/141 74/87/141 32/18/141
f 22/22/142 67/71/142 79/77/142
f 5/10/143 71/79/143 70/78/143
f 80/75/144 76/68/144 28/2/144
f 18/15/145 70/78/145 73/4/145
f 24/73/4 78/72/4 71/79/4
f 76/68/146 77/67/146 14/29/146
f 72/80/147 69/91/147 6/7/147
f 82/81/4 98/114/4 99/82/4
f 84/84/148 91/112/148 75/85/148
f 79/77/149 95/92/149 94/86/149
f 65/74/150 81/95/150 82/81/150
f 74/87/4 90/110/4 96/88/4
f 70/78/151 86/93/151 89/89/151
f 66/70/4 82/81/4 83/83/4
f 88/90/152 85/101/152 69/91/152
f 69/91/4 85/101/4 84/84/4
f 67/71/153 83/83/153 95/92/153
f 71/79/154 87/94/154 86/93/154
f 78/72/4 94/86/4 87/94/4
f 89/89/155 88/90/155 72/80/155
f 77/67/156 93/107/156 81/95/156
f 91/96/157 90/110/157 74/87/157
f 96/88/158 92/66/158 76/68/158
f 124/97/159 125/116/159 109/98/159
f 104/100/160 101/126/160 85/101/160
f 85/101/4 101/126/4 100/102/4
f 83/83/161 99/82/161 111/103/161
f 87/94/162 103/105/162 102/104/162
f 94/86/4 110/113/4 103/105/4
f 105/106/163 104/100/163 88/90/163
f 93/107/164 109/98/164 97/108/164
f 107/109/165 106/121/165 90/110/165
f 112/111/166 108/99/166 92/66/166
f 108/99/167 109/98/167 93/107/167
f 100/102/168 107/118/168 91/112/168
f 95/92/169 111/103/169 110/113/169
f 81/95/170 97/108/170 98/114/170
f 90/110/4 106/121/4 112/111/4
f 86/93/171 102/104/171 105/106/171
f 140/115/172 141/152/172 125/116/172
f 116/117/173 123/136/173 107/118/173
f 111/103/174 127/127/174 126/119/174
f 97/108/175 113/130/175 114/120/175
f 106/121/4 122/138/4 128/122/4
f 102/104/176 118/128/176 121/123/176
f 98/114/4 114/120/4 115/124/4
f 120/125/177 117/143/177 101/126/177
f 101/126/4 117/143/4 116/117/4
f 99/82/178 115/124/178 127/127/178
f 103/105/179 119/129/179 118/128/179
f 110/113/4 126/119/4 119/129/4
f 121/123/180 120/125/180 104/100/180
f 109/98/181 125/116/181 113/130/181
f 123/131/182 122/138/182 106/121/182
f 128/122/183 124/97/183 108/99/183
f 142/132/4 158/160/4 151/133/4
f 132/135/184 139/159/184 123/136/184
f 127/127/185 143/144/185 142/132/185
f 113/130/186 129/146/186 130/137/186
f 122/138/4 138/155/4 144/139/4
f 118/128/187 134/145/187 137/140/187
f 114/120/4 130/137/4 131/141/4
f 136/142/188 133/162/188 117/143/188
f 117/143/4 133/162/4 132/135/4
f 115/124/189 131/141/189 143/144/189
f 119/129/190 135/134/190 134/145/190
f 126/119/4 142/132/4 135/134/4
f 137/140/191 136/142/191 120/125/191
f 125/116/192 141/152/192 129/146/192
f 139/147/193 138/155/193 122/138/193
f 144/139/194 140/115/194 124/97/194
f 146/148/4 162/182/4 163/149/4
f 153/151/195 152/161/195 136/142/195
f 141/152/196 157/175/196 145/153/196
f 155/154/197 154/178/197 138/155/197
f 160/156/198 156/157/198 140/115/198
f 156/157/199 157/175/199 141/152/199
f 148/158/200 155/180/200 139/159/200
f 143/144/201 159/163/201 158/160/201
f 129/146/202 145/153/202 146/148/202
f 138/155/4 154/178/4 160/156/4
f 134/145/203 150/164/203 153/151/203
f 130/137/4 146/148/4 147/150/4
f 152/161/204 149/169/204 133/162/204
f 133/162/4 149/169/4 148/158/4
f 131/141/205 147/150/205 159/163/205
f 135/134/206 151/133/206 150/164/206
f 188/165/86 189/195/86 173/166/86
f 168/168/207 165/192/207 149/169/207
f 149/169/4 165/192/4 164/170/4
f 147/150/208 163/149/208 175/171/208
f 151/133/209 167/173/209 166/172/209
f 158/160/4 174/181/4 167/173/4
f 169/174/210 168/168/210 152/161/210
f 157/175/211 173/166/211 161/176/211
f 171/177/212 170/188/212 154/178/212
f 176/179/213 172/167/213 156/157/213
f 172/167/214 173/166/214 157/175/214
f 164/170/215 171/186/215 155/180/215
f 159/163/216 175/171/216 174/181/216
f 145/153/217 161/176/217 162/182/217
f 154/178/4 170/188/4 176/179/4
f 150/164/218 166/172/218 169/174/218
f 181/183/4 204/291/4 205/184/4
f 180/185/99 187/269/99 171/186/99
f 191/34/100 190/267/100 174/181/100
f 177/187/101 178/261/101 162/182/101
f 170/188/4 186/264/4 192/189/4
f 182/190/102 185/194/102 169/174/102
f 162/182/4 178/261/4 179/32/4
f 184/191/103 181/183/103 165/192/103
f 165/192/4 181/183/4 180/185/4
f 179/32/104 191/34/104 175/171/104
f 183/193/105 182/190/105 166/172/105
f 174/181/4 190/267/4 183/193/4
f 185/194/106 184/191/106 168/168/106
f 189/195/107 177/187/107 161/176/107
f 187/196/108 186/264/108 170/188/108
f 192/189/109 188/165/109 172/167/109
f 33/44/4 34/46/4 226/197/4
f 224/199/110 223/256/110 23/24/110
f 49/50/111 233/201/111 226/197/111
f 49/50/112 50/60/112 234/200/112
f 38/35/113 57/37/113 237/202/113
f 23/24/4 223/256/4 216/204/4
f 35/42/114 227/224/114 234/200/114
f 222/205/115 221/219/115 27/3/115
f 31/206/4 219/250/4 212/207/4
f 39/56/116 231/220/116 238/208/116
f 21/9/117 209/213/117 224/199/117
f 216/204/118 215/226/118 25/21/118
f 4/1/4 214/240/4 213/209/4
f 61/59/110 62/58/110 240/210/110
f 29/16/119 213/209/119 220/212/119
f 220/212/120 219/250/120 31/206/120
f 212/207/121 211/238/121 17/8/121
f 1/11/4 210/245/4 209/213/4
f 40/61/4 61/59/4 239/211/4
f 217/215/111 210/245/111 1/11/111
f 57/37/115 58/54/115 238/208/115
f 218/216/112 217/215/112 19/14/112
f 36/48/4 53/223/4 235/217/4
f 221/219/113 214/240/113 4/1/113
f 33/44/117 225/198/117 240/210/117
f 40/61/118 232/214/118 231/220/118
f 17/8/114 211/238/114 218/216/114
f 37/51/4 38/35/4 230/203/4
f 37/51/119 229/221/119 236/222/119
f 53/223/120 54/65/120 236/222/120
f 25/21/116 215/226/116 222/205/116
f 35/42/121 36/48/121 228/218/121
f 247/225/7 254/254/7 222/205/7
f 228/218/3 260/241/3 259/227/3
f 249/244/122 250/242/122 243/237/122
f 253/239/122 254/254/122 247/225/122
f 252/249/4 245/251/4 246/293/4
f 246/293/122 253/239/122 247/225/122
f 252/249/122 246/293/122 247/225/122
f 243/237/4 244/248/4 251/294/4
f 251/294/122 252/249/122 247/225/122
f 243/237/122 251/294/122 247/225/122
f 249/244/122 243/237/122 247/225/122
f 256/229/4 241/247/4 242/295/4
f 242/295/122 249/244/122 247/225/122
f 256/229/122 242/295/122 247/225/122
f 247/225/4 248/252/4 255/228/4
f 265/296/122 266/297/122 259/298/122
f 269/243/122 270/253/122 263/230/122
f 268/234/4 261/236/4 262/235/4
f 262/235/122 269/243/122 263/230/122
f 268/234/122 262/235/122 263/230/122
f 259/298/4 260/241/4 267/233/4
f 267/233/122 268/234/122 263/230/122
f 259/298/122 267/233/122 263/230/122
f 265/296/122 259/298/122 263/230/122
f 272/232/4 257/259/4 258/258/4
f 258/258/122 265/296/122 263/230/122
f 272/232/122 258/258/122 263/230/122
f 263/230/4 264/246/4 271/231/4
f 236/222/14 268/234/14 267/233/14
f 229/221/6 261/236/6 268/234/6
f 229/221/4 230/203/4 262/235/4
f 243/237/10 250/242/10 218/216/10
f 232/214/12 264/246/12 263/230/12
f 225/198/11 257/259/11 272/232/11
f 253/239/1 246/293/1 214/240/1
f 228/218/4 235/217/4 267/233/4
f 250/242/5 249/244/5 217/215/5
f 238/208/13 270/253/13 269/243/13
f 249/244/9 242/295/9 210/245/9
f 232/214/4 239/211/4 271/231/4
f 210/245/4 242/295/4 241/247/4
f 244/248/3 243/237/3 211/238/3
f 252/249/14 251/294/14 219/250/14
f 245/251/6 252/249/6 220/212/6
f 240/210/8 272/232/8 271/231/8
f 214/240/4 246/293/4 245/251/4
f 248/252/12 247/225/12 215/226/12
f 241/247/11 256/229/11 224/199/11
f 231/220/7 263/230/7 270/253/7
f 219/250/4 251/294/4 244/248/4
f 254/254/13 253/239/13 221/219/13
f 227/224/10 259/227/10 266/255/10
f 223/256/4 255/228/4 248/252/4
f 237/202/1 269/243/1 262/235/1
f 234/200/5 266/255/5 265/257/5
f 233/201/9 265/257/9 258/258/9
f 256/229/8 255/228/8 223/256/8
f 225/198/4 226/197/4 258/258/4
f 201/260/123 204/291/123 181/183/123
f 178/261/4 207/288/4 206/262/4
f 182/190/124 203/278/124 200/263/124
f 186/264/4 199/282/4 193/265/4
f 208/266/125 207/288/125 178/261/125
f 194/33/126 195/273/126 190/267/126
f 180/185/127 205/184/127 198/268/127
f 188/165/128 197/284/128 196/270/128
f 193/265/129 197/284/129 188/165/129
f 198/271/130 199/282/130 186/264/130
f 196/270/131 208/266/131 177/187/131
f 200/263/132 201/260/132 184/191/132
f 190/267/4 195/273/4 202/272/4
f 202/272/133 203/278/133 182/190/133
f 195/273/4 286/276/4 287/274/4
f 283/299/134 282/300/134 279/301/134
f 285/290/134 284/279/134 288/275/134
f 280/286/4 277/292/4 273/302/4
f 273/302/134 285/290/134 288/275/134
f 280/286/134 273/302/134 288/275/134
f 279/301/4 278/283/4 281/303/4
f 281/303/134 280/286/134 288/275/134
f 279/301/134 281/303/134 288/275/134
f 283/299/134 279/301/134 288/275/134
f 276/277/4 274/289/4 275/304/4
f 275/304/134 283/299/134 288/275/134
f 276/277/134 275/304/134 288/275/134
f 288/275/4 287/274/4 286/276/4
f 287/274/105 288/275/105 203/278/105
f 284/279/106 285/290/106 201/260/106
f 282/280/107 283/287/107 208/266/107
f 280/281/108 281/303/108 199/282/108
f 278/283/109 279/285/109 197/284/109
f 279/285/86 282/280/86 196/270/86
f 205/184/99 277/292/99 280/286/99
f 276/277/100 286/276/100 195/273/100
f 283/287/101 275/304/101 207/288/101
f 199/282/4 281/303/4 278/283/4
f 288/275/102 284/279/102 200/263/102
f 207/288/4 275/304/4 274/289/4
f 285/290/103 273/302/103 204/291/103
f 204/291/4 273/302/4 277/292/4
f 274/289/104 276/277/104 194/33/104
