# Blender 4.4.1
# www.blender.org
mtllib pipe1.mtl
o 立方体
v -0.900000 1.600000 0.200000
v -0.900000 2.400000 0.200000
v -0.900000 1.600000 -0.200000
v -0.900000 2.400000 -0.200000
v 0.900000 1.600000 0.200000
v 0.900000 2.400000 0.200000
v 0.900000 1.600000 -0.200000
v 0.900000 2.400000 -0.200000
v -0.900000 2.000000 0.440000
v 0.900000 2.000000 0.440000
v -0.900000 2.440000 0.000000
v 0.900000 2.440000 0.000000
v -0.900000 2.000000 -0.440000
v 0.900000 2.000000 -0.440000
v -0.900000 1.560000 0.000000
v 0.900000 1.560000 0.000000
v -0.900000 2.200000 0.400000
v 0.900000 1.800000 0.400000
v -0.900000 1.800000 0.400000
v 0.900000 2.200000 0.400000
v -0.900000 1.600000 0.200000
v 0.900000 1.600000 -0.200000
v -0.900000 1.600000 -0.200000
v 0.900000 1.600000 0.200000
v -0.900000 1.800000 -0.400000
v 0.900000 1.800000 -0.400000
v -0.900000 2.200000 -0.400000
v 0.900000 2.200000 -0.400000
v -0.900000 2.400000 -0.200000
v 0.900000 2.400000 0.200000
v -0.900000 2.400000 0.200000
v 0.900000 2.400000 -0.200000
v 0.890000 2.480000 -0.240000
v 0.890000 1.472000 -0.000000
v 0.890000 1.520000 0.240000
v 0.890000 2.000000 -0.528000
v 0.890000 2.240000 -0.480000
v 0.890000 2.528000 -0.000000
v 0.890000 2.480000 -0.240000
v 0.890000 2.000000 0.528000
v 0.890000 2.240000 0.480000
v 0.890000 1.520000 0.240000
v 0.890000 1.760000 0.480000
v 0.890000 2.480000 0.240000
v 0.890000 2.480000 0.240000
v 0.890000 1.520000 -0.240000
v 0.890000 1.520000 -0.240000
v 0.890000 1.760000 -0.480000
v -0.890000 1.520000 0.240000
v -0.890000 1.520000 0.240000
v -0.890000 2.240000 0.480000
v -0.890000 2.480000 0.240000
v -0.890000 2.480000 -0.240000
v -0.890000 2.480000 -0.240000
v -0.890000 1.760000 -0.480000
v -0.890000 1.520000 -0.240000
v -0.890000 1.760000 0.480000
v -0.890000 2.000000 0.528000
v -0.890000 2.480000 0.240000
v -0.890000 2.528000 0.000000
v -0.890000 2.240000 -0.480000
v -0.890000 2.000000 -0.528000
v -0.890000 1.520000 -0.240000
v -0.890000 1.472000 0.000000
v -1.010000 1.520000 0.240000
v -1.010000 1.520000 0.240000
v -1.010000 2.240000 0.480000
v -1.010000 2.480000 0.240000
v -1.010000 2.480000 -0.240000
v -1.010000 2.480000 -0.240000
v -1.010000 1.760000 -0.480000
v -1.010000 1.520000 -0.240000
v -1.010000 1.760000 0.480000
v -1.010000 2.000000 0.528000
v -1.010000 2.480000 0.240000
v -1.010000 2.528000 0.000000
v -1.010000 2.240000 -0.480000
v -1.010000 2.000000 -0.528000
v -1.010000 1.520000 -0.240000
v -1.010000 1.472000 0.000000
v 1.010000 1.760000 -0.480000
v 1.010000 1.520000 -0.240000
v 1.010000 1.520000 -0.240000
v 1.010000 2.480000 0.240000
v 1.010000 2.480000 0.240000
v 1.010000 1.760000 0.480000
v 1.010000 1.520000 0.240000
v 1.010000 2.240000 0.480000
v 1.010000 2.000000 0.528000
v 1.010000 2.480000 -0.240000
v 1.010000 2.528000 -0.000000
v 1.010000 2.240000 -0.480000
v 1.010000 2.000000 -0.528000
v 1.010000 1.520000 0.240000
v 1.010000 1.472000 -0.000000
v 1.010000 2.480000 -0.240000
vn -0.0000 1.0000 -0.0000
vn -0.0000 0.7071 -0.7071
vn -0.0000 0.7071 0.7071
vn -0.0000 -0.1961 0.9806
vn -0.0000 0.9806 -0.1961
vn -0.0000 -0.1961 -0.9806
vn -0.0000 -0.9806 -0.1961
vn -0.0000 -0.7071 0.7071
vn -0.0000 0.1961 0.9806
vn -0.0000 -0.9806 0.1961
vn -0.0000 -0.7071 -0.7071
vn -0.0000 0.1961 -0.9806
vn -0.0000 0.9806 0.1961
vn 0.9931 0.0828 -0.0828
vn 0.9934 -0.0226 0.1129
vn 0.9931 0.0828 0.0828
vn 0.9934 -0.0226 -0.1129
vn 0.9931 -0.0828 -0.0828
vn 0.9931 -0.0828 0.0828
vn 0.9934 0.1129 -0.0226
vn 0.9934 -0.1129 -0.0226
vn 0.9934 0.0226 0.1129
vn 0.9934 0.1129 0.0226
vn 0.9934 -0.1129 0.0226
vn 0.9934 0.0226 -0.1129
vn -0.9934 -0.0226 0.1129
vn -0.9934 0.0226 -0.1129
vn -0.9931 -0.0828 0.0828
vn -0.9931 0.0828 -0.0828
vn -0.9934 0.1129 0.0226
vn -0.9934 -0.1129 0.0226
vn -0.9934 0.0226 0.1129
vn -0.9934 0.1129 -0.0226
vn -0.9931 0.0828 0.0828
vn -0.9934 -0.1129 -0.0226
vn -0.9934 -0.0226 -0.1129
vn -0.9931 -0.0828 -0.0828
vn -1.0000 -0.0000 -0.0000
vn 1.0000 -0.0000 -0.0000
vt 0.285309 0.611184
vt 0.281723 0.619704
vt 0.281714 0.619691
vt 0.452155 0.230662
vt 0.385435 0.667902
vt 0.387092 0.331897
vt 0.075105 0.769338
vt 0.141825 0.332097
vt 0.140168 0.668103
vt 0.239565 0.398887
vt 0.240268 0.598224
vt 0.239551 0.398885
vt 0.075027 0.769373
vt 0.080205 0.259653
vt 0.179792 0.635036
vt 0.207299 0.385109
vt 0.207135 0.613968
vt 0.452233 0.230627
vt 0.527187 0.808187
vt 0.447117 0.740372
vt 0.347468 0.364964
vt 0.319961 0.614891
vt 0.320125 0.386032
vt 0.287695 0.601113
vt 0.262122 0.400429
vt 0.286976 0.401777
vt 0.179742 0.363813
vt 0.286992 0.401776
vt 0.265138 0.599571
vt 0.287709 0.601115
vt 0.347518 0.636186
vt 0.447055 0.740346
vt 0.000073 0.191813
vt 0.000073 0.918587
vt 0.241938 0.388812
vt 0.337317 0.354144
vt 0.364379 0.318183
vt 0.285428 0.389644
vt 0.313750 0.375906
vt 0.285411 0.389645
vt 0.408381 0.198711
vt 0.408414 0.198637
vt 0.189605 0.353108
vt 0.113277 0.230169
vt 0.159013 0.317123
vt 0.262714 0.390397
vt 0.080143 0.259628
vt 0.032359 0.141126
vt 0.113252 0.230103
vt 0.241951 0.388816
vt 0.444319 0.018468
vt 0.527188 0.081413
vt 0.214517 0.374547
vt 0.337655 0.646892
vt 0.241849 0.610355
vt 0.241833 0.610356
vt 0.189943 0.645856
vt 0.413983 0.769831
vt 0.368247 0.682877
vt 0.213510 0.624094
vt 0.264546 0.609603
vt 0.494901 0.858874
vt 0.414008 0.769896
vt 0.118879 0.801289
vt 0.118846 0.801363
vt 0.312743 0.625453
vt 0.240284 0.598223
vt 0.285322 0.611188
vt 0.082941 0.981532
vt 0.162881 0.681817
vt 0.321008 0.342383
vt 0.304425 0.366191
vt 0.285096 0.378738
vt 0.262983 0.378397
vt 0.163385 0.222750
vt 0.163312 0.222833
vt 0.245537 0.380296
vt 0.245546 0.380309
vt 0.352954 0.182001
vt 0.179820 0.297813
vt 0.205912 0.340336
vt 0.353021 0.181934
vt 0.285112 0.378748
vt 0.343280 0.309188
vt 0.222071 0.365111
vt 0.271511 0.000073
vt 0.222835 0.633809
vt 0.242164 0.621262
vt 0.264277 0.621603
vt 0.305189 0.634889
vt 0.363875 0.777250
vt 0.363948 0.777167
vt 0.174307 0.817999
vt 0.174240 0.818066
vt 0.347440 0.702187
vt 0.206252 0.657617
vt 0.242148 0.621252
vt 0.321348 0.659664
vt 0.183980 0.690812
vt 0.255749 0.999927
vt 0.222094 0.365088
vt 0.205950 0.340312
vt 0.179903 0.297786
vt 0.090016 0.105153
vt 0.305166 0.634912
vt 0.321310 0.659688
vt 0.347357 0.702214
vt 0.437244 0.894846
s 0
usemtl マテリアル.003
f 46/1/1 82/2/1 83/3/1
f 4/4/2 28/5/2 27/6/2
f 6/7/3 17/8/3 20/9/3
f 21/10/1 5/11/1 1/12/1
f 30/13/1 2/14/1 6/7/1
f 10/15/4 19/16/4 18/17/4
f 29/18/5 12/19/5 32/20/5
f 13/21/6 26/22/6 25/23/6
f 22/24/7 15/25/7 23/26/7
f 18/17/8 1/12/8 5/11/8
f 20/9/9 9/27/9 10/15/9
f 3/28/1 22/24/1 23/26/1
f 16/29/10 21/10/10 15/25/10
f 25/23/11 7/30/11 3/28/11
f 27/6/12 14/31/12 13/21/12
f 8/32/1 29/18/1 32/20/1
f 11/33/13 30/13/13 12/34/13
f 19/16/14 50/35/14 1/12/14
f 27/6/15 62/36/15 61/37/15
f 25/23/16 56/38/16 55/39/16
f 3/28/1 63/40/1 56/38/1
f 29/18/1 54/41/1 53/42/1
f 17/8/17 58/43/17 9/27/17
f 17/8/18 52/44/18 51/45/18
f 27/6/19 54/41/19 4/4/19
f 21/10/20 64/46/20 15/25/20
f 31/47/21 60/48/21 59/49/21
f 21/10/1 50/35/1 49/50/1
f 2/14/1 59/49/1 52/44/1
f 25/23/22 62/36/22 13/21/22
f 23/26/23 64/46/23 63/40/23
f 29/18/24 60/51/24 11/52/24
f 19/16/25 58/43/25 57/53/25
f 28/5/26 36/54/26 14/31/26
f 5/11/1 35/55/1 42/56/1
f 18/17/27 40/57/27 10/15/27
f 28/5/28 33/58/28 37/59/28
f 18/17/29 42/56/29 43/60/29
f 22/24/30 34/61/30 16/29/30
f 32/20/31 38/62/31 39/63/31
f 30/13/1 44/64/1 45/65/1
f 8/32/1 39/63/1 33/58/1
f 26/22/32 36/54/32 48/66/32
f 24/67/33 34/61/33 35/55/33
f 22/24/1 47/68/1 46/1/1
f 26/22/34 47/68/34 7/30/34
f 30/13/35 38/69/35 12/34/35
f 20/9/36 40/57/36 41/70/36
f 20/9/37 44/64/37 6/7/37
f 55/39/6 78/71/6 62/36/6
f 71/72/38 79/73/38 80/74/38
f 52/44/1 75/75/1 68/76/1
f 49/50/1 66/77/1 65/78/1
f 60/48/13 75/75/13 59/49/13
f 49/50/10 80/74/10 64/46/10
f 61/37/2 70/79/2 54/41/2
f 52/44/3 67/80/3 51/45/3
f 51/45/9 74/81/9 58/43/9
f 53/42/1 70/79/1 69/82/1
f 56/38/1 79/73/1 72/83/1
f 56/38/11 71/72/11 55/39/11
f 62/36/12 77/84/12 61/37/12
f 57/53/8 66/77/8 50/35/8
f 58/43/4 73/85/4 57/53/4
f 53/42/5 76/86/5 60/51/5
f 64/46/7 79/73/7 63/40/7
f 86/87/39 94/88/39 95/89/39
f 34/61/10 94/88/10 35/55/10
f 36/54/6 81/90/6 48/66/6
f 33/58/1 90/91/1 96/92/1
f 45/65/1 85/93/1 84/94/1
f 38/62/5 90/91/5 39/63/5
f 46/1/7 95/89/7 34/61/7
f 42/56/8 86/87/8 43/60/8
f 33/58/2 92/95/2 37/59/2
f 43/60/4 89/96/4 40/57/4
f 42/56/1 94/88/1 87/97/1
f 37/59/12 93/98/12 36/54/12
f 41/70/3 85/93/3 44/64/3
f 40/57/9 88/99/9 41/70/9
f 38/69/13 84/94/13 91/100/13
f 48/66/11 82/2/11 47/68/11
f 46/1/1 47/68/1 82/2/1
f 4/4/2 8/32/2 28/5/2
f 6/7/3 2/14/3 17/8/3
f 21/10/1 24/67/1 5/11/1
f 30/13/1 31/47/1 2/14/1
f 10/15/4 9/27/4 19/16/4
f 29/18/5 11/52/5 12/19/5
f 13/21/6 14/31/6 26/22/6
f 22/24/7 16/29/7 15/25/7
f 18/17/8 19/16/8 1/12/8
f 20/9/9 17/8/9 9/27/9
f 3/28/1 7/30/1 22/24/1
f 16/29/10 24/67/10 21/10/10
f 25/23/11 26/22/11 7/30/11
f 27/6/12 28/5/12 14/31/12
f 8/32/1 4/4/1 29/18/1
f 11/33/13 31/47/13 30/13/13
f 19/16/14 57/53/14 50/35/14
f 27/6/15 13/21/15 62/36/15
f 25/23/16 3/28/16 56/38/16
f 3/28/1 23/26/1 63/40/1
f 29/18/1 4/4/1 54/41/1
f 17/8/17 51/45/17 58/43/17
f 17/8/18 2/14/18 52/44/18
f 27/6/19 61/37/19 54/41/19
f 21/10/20 49/50/20 64/46/20
f 31/47/21 11/33/21 60/48/21
f 21/10/1 1/12/1 50/35/1
f 2/14/1 31/47/1 59/49/1
f 25/23/22 55/39/22 62/36/22
f 23/26/23 15/25/23 64/46/23
f 29/18/24 53/42/24 60/51/24
f 19/16/25 9/27/25 58/43/25
f 28/5/26 37/59/26 36/54/26
f 5/11/1 24/67/1 35/55/1
f 18/17/27 43/60/27 40/57/27
f 28/5/28 8/32/28 33/58/28
f 18/17/29 5/11/29 42/56/29
f 22/24/30 46/1/30 34/61/30
f 32/20/31 12/19/31 38/62/31
f 30/13/1 6/7/1 44/64/1
f 8/32/1 32/20/1 39/63/1
f 26/22/32 14/31/32 36/54/32
f 24/67/33 16/29/33 34/61/33
f 22/24/1 7/30/1 47/68/1
f 26/22/34 48/66/34 47/68/34
f 30/13/35 45/65/35 38/69/35
f 20/9/36 10/15/36 40/57/36
f 20/9/37 41/70/37 44/64/37
f 55/39/6 71/72/6 78/71/6
f 73/101/38 74/102/38 67/103/38
f 77/84/38 78/71/38 71/72/38
f 76/86/1 69/82/1 70/79/1
f 70/79/38 77/84/38 71/72/38
f 76/86/38 70/79/38 71/72/38
f 67/103/1 68/76/1 75/75/1
f 75/75/38 76/86/38 71/72/38
f 67/103/38 75/75/38 71/72/38
f 73/101/38 67/103/38 71/72/38
f 80/74/1 65/78/1 66/77/1
f 66/77/38 73/101/38 71/72/38
f 80/74/38 66/77/38 71/72/38
f 71/72/1 72/83/1 79/73/1
f 52/44/1 59/49/1 75/75/1
f 49/50/1 50/35/1 66/77/1
f 60/48/13 76/104/13 75/75/13
f 49/50/10 65/78/10 80/74/10
f 61/37/2 77/84/2 70/79/2
f 52/44/3 68/76/3 67/80/3
f 51/45/9 67/80/9 74/81/9
f 53/42/1 54/41/1 70/79/1
f 56/38/1 63/40/1 79/73/1
f 56/38/11 72/83/11 71/72/11
f 62/36/12 78/71/12 77/84/12
f 57/53/8 73/85/8 66/77/8
f 58/43/4 74/81/4 73/85/4
f 53/42/5 69/82/5 76/86/5
f 64/46/7 80/74/7 79/73/7
f 81/105/39 93/106/39 92/107/39
f 88/99/39 89/96/39 86/87/39
f 91/100/1 84/94/1 85/93/1
f 85/93/39 88/99/39 86/87/39
f 91/100/39 85/93/39 86/87/39
f 92/107/1 96/92/1 90/91/1
f 90/91/39 91/100/39 86/87/39
f 92/107/39 90/91/39 86/87/39
f 81/105/39 92/107/39 86/87/39
f 95/89/1 83/3/1 82/2/1
f 82/2/39 81/105/39 86/87/39
f 95/89/39 82/2/39 86/87/39
f 86/87/1 87/97/1 94/88/1
f 34/61/10 95/89/10 94/88/10
f 36/54/6 93/98/6 81/90/6
f 33/58/1 39/63/1 90/91/1
f 45/65/1 44/64/1 85/93/1
f 38/62/5 91/108/5 90/91/5
f 46/1/7 83/3/7 95/89/7
f 42/56/8 87/97/8 86/87/8
f 33/58/2 96/92/2 92/95/2
f 43/60/4 86/87/4 89/96/4
f 42/56/1 35/55/1 94/88/1
f 37/59/12 92/95/12 93/98/12
f 41/70/3 88/99/3 85/93/3
f 40/57/9 89/96/9 88/99/9
f 38/69/13 45/65/13 84/94/13
f 48/66/11 81/90/11 82/2/11
