# Blender 4.4.1
# www.blender.org
o Hill_227
v 0.135140 0.000000 1.056006
v 0.135140 9.106689 1.056006
v 0.135140 9.106689 1.056006
v 0.135140 9.106689 1.056006
v 0.135140 9.106689 1.056006
v 0.135140 9.106689 1.056006
v 0.135140 9.106689 1.056006
v 0.135140 9.106689 1.056006
v 0.135140 9.106689 1.056006
v 2.845008 7.303485 1.056006
v 2.107053 7.056795 3.027919
v 0.135140 7.279582 3.999339
v -1.824862 7.340892 3.016008
v -2.583153 7.557389 1.056006
v -1.824767 7.255910 -0.903901
v 0.135140 7.637564 -1.915759
v 2.147906 7.304061 -0.956760
v 5.347980 4.275602 1.056006
v 3.907686 4.184865 4.828552
v 0.135140 4.557488 7.166800
v -4.061117 4.036029 5.252263
v -5.898402 3.579204 1.056006
v -3.686749 4.657816 -2.765883
v 0.135140 4.020180 -4.749066
v 4.409768 3.756670 -3.218622
v 9.460207 0.510288 1.056006
v 6.933336 -0.437652 7.854202
v 0.135140 -0.864408 9.179688
v -6.044789 0.608771 7.235935
v -9.460207 -0.046871 1.056006
v -6.174232 0.441135 -5.253366
v 0.135140 -0.314414 -9.179688
v 7.120175 -0.129198 -5.929029
vn -0.0000 1.0000 -0.0000
vn 0.5289 0.7949 0.2974
vn 0.3352 0.8005 0.4969
vn -0.2316 0.8265 0.5131
vn -0.4759 0.8350 0.2763
vn -0.4709 0.8262 -0.3093
vn -0.3741 0.8314 -0.4110
vn 0.3385 0.8435 -0.4170
vn 0.5441 0.8177 -0.1882
vn 0.7207 0.6202 0.3097
vn 0.4198 0.6745 0.6073
vn -0.3484 0.6941 0.6300
vn -0.7205 0.6349 0.2790
vn -0.7140 0.6415 -0.2805
vn -0.3351 0.6298 -0.7008
vn 0.3403 0.6139 -0.7122
vn 0.7432 0.6227 -0.2446
vn 0.6634 0.6784 0.3156
vn 0.2820 0.4967 0.8209
vn -0.2756 0.4463 0.8514
vn -0.7106 0.6406 0.2911
vn -0.7122 0.6405 -0.2874
vn -0.3138 0.6507 -0.6915
vn 0.2905 0.6803 -0.6729
vn 0.6706 0.6923 -0.2665
s 0
f 3//1 2//1 1//1
f 4//1 3//1 1//1
f 5//1 4//1 1//1
f 6//1 5//1 1//1
f 7//1 6//1 1//1
f 8//1 7//1 1//1
f 9//1 8//1 1//1
f 2//1 9//1 1//1
f 3//2 11//2 10//2 2//2
f 4//3 12//3 11//3 3//3
f 5//4 13//4 12//4 4//4
f 6//5 14//5 13//5 5//5
f 7//6 15//6 14//6 6//6
f 8//7 16//7 15//7 7//7
f 9//8 17//8 16//8 8//8
f 2//9 10//9 17//9 9//9
f 11//10 19//10 18//10 10//10
f 12//11 20//11 19//11 11//11
f 13//12 21//12 20//12 12//12
f 14//13 22//13 21//13 13//13
f 15//14 23//14 22//14 14//14
f 16//15 24//15 23//15 15//15
f 17//16 25//16 24//16 16//16
f 10//17 18//17 25//17 17//17
f 19//18 27//18 26//18 18//18
f 20//19 28//19 27//19 19//19
f 21//20 29//20 28//20 20//20
f 22//21 30//21 29//21 21//21
f 23//22 31//22 30//22 22//22
f 24//23 32//23 31//23 23//23
f 25//24 33//24 32//24 24//24
f 18//25 26//25 33//25 25//25
