# Blender 4.4.1
# www.blender.org
o Hill_139
v -0.303551 0.000000 -0.227532
v -0.303551 6.094763 -0.227532
v -0.303551 6.094763 -0.227532
v -0.303551 6.094763 -0.227532
v -0.303551 6.094763 -0.227532
v -0.303551 6.094763 -0.227532
v -0.303551 6.094763 -0.227532
v -0.303551 6.094763 -0.227532
v -0.303551 6.094763 -0.227532
v 3.353761 5.049840 -0.227532
v 2.184627 4.910925 2.260645
v -0.303551 5.099627 3.230561
v -2.779270 4.814428 2.248187
v -4.178996 4.918518 -0.227532
v -3.071439 4.957753 -2.995420
v -0.303551 5.063813 -3.869938
v 2.230683 4.966753 -2.761766
v 6.415097 2.500242 -0.227532
v 4.672971 2.677116 4.748990
v -0.303551 2.437590 6.329753
v -5.932617 2.377776 5.401534
v -7.760931 2.771220 -0.227532
v -4.953380 3.159182 -4.877361
v -0.303551 2.897439 -8.211655
v 5.597693 2.372573 -6.128777
v 9.336068 -0.446766 -0.227532
v 9.036031 -0.162405 9.112050
v -0.303551 0.398302 11.661279
v -7.682217 0.087761 7.151134
v -9.336068 0.478902 -0.227532
v -7.597361 -0.562008 -7.521342
v -0.303551 0.595074 -11.661279
v 7.879930 0.391808 -8.411013
vn -0.0000 1.0000 -0.0000
vn 0.2702 0.9459 0.1798
vn 0.1778 0.9457 0.2721
vn -0.2153 0.9385 0.2701
vn -0.2845 0.9375 0.2003
vn -0.2889 0.9519 -0.1021
vn -0.1220 0.9550 -0.2703
vn 0.1541 0.9507 -0.2691
vn 0.2715 0.9504 -0.1515
vn 0.5778 0.7856 0.2214
vn 0.1979 0.7792 0.5947
vn -0.1687 0.8038 0.5704
vn -0.4676 0.8511 0.2385
vn -0.5180 0.8250 -0.2259
vn -0.2469 0.8494 -0.4665
vn 0.2294 0.8698 -0.4369
vn 0.5682 0.8089 -0.1509
vn 0.5988 0.7987 0.0597
vn 0.1347 0.9081 0.3964
vn -0.2203 0.8555 0.4686
vn -0.7413 0.6281 0.2363
vn -0.7112 0.6332 -0.3053
vn -0.3996 0.7327 -0.5509
vn 0.2388 0.8211 -0.5185
vn 0.6694 0.7395 -0.0707
s 0
f 3//1 2//1 1//1
f 4//1 3//1 1//1
f 5//1 4//1 1//1
f 6//1 5//1 1//1
f 7//1 6//1 1//1
f 8//1 7//1 1//1
f 9//1 8//1 1//1
f 2//1 9//1 1//1
f 3//2 11//2 10//2 2//2
f 4//3 12//3 11//3 3//3
f 5//4 13//4 12//4 4//4
f 6//5 14//5 13//5 5//5
f 7//6 15//6 14//6 6//6
f 8//7 16//7 15//7 7//7
f 9//8 17//8 16//8 8//8
f 2//9 10//9 17//9 9//9
f 11//10 19//10 18//10 10//10
f 12//11 20//11 19//11 11//11
f 13//12 21//12 20//12 12//12
f 14//13 22//13 21//13 13//13
f 15//14 23//14 22//14 14//14
f 16//15 24//15 23//15 15//15
f 17//16 25//16 24//16 16//16
f 10//17 18//17 25//17 17//17
f 19//18 27//18 26//18 18//18
f 20//19 28//19 27//19 19//19
f 21//20 29//20 28//20 20//20
f 22//21 30//21 29//21 21//21
f 23//22 31//22 30//22 22//22
f 24//23 32//23 31//23 23//23
f 25//24 33//24 32//24 24//24
f 18//25 26//25 33//25 25//25
