# Blender 4.4.1
# www.blender.org
o Hill_117
v -0.056783 0.000000 -0.539881
v -0.056783 9.610432 -0.539881
v -0.056783 9.610432 -0.539881
v -0.056783 9.610432 -0.539881
v -0.056783 9.610432 -0.539881
v -0.056783 9.610432 -0.539881
v -0.056783 9.610432 -0.539881
v -0.056783 9.610432 -0.539881
v -0.056783 9.610432 -0.539881
v 2.077842 7.711468 -0.539881
v 1.392990 7.993952 0.909893
v -0.056783 7.571819 1.525480
v -1.565566 7.912513 0.968902
v -2.026387 7.882815 -0.539881
v -1.476940 7.705573 -1.960038
v -0.056783 8.017871 -2.510967
v 1.440135 7.753354 -2.036799
v 4.114058 4.541319 -0.539881
v 2.735675 4.630330 2.252577
v -0.056783 4.587995 3.467381
v -2.717109 4.555491 2.120445
v -3.702385 4.894573 -0.539881
v -2.920532 3.973434 -3.403630
v -0.056783 4.947476 -4.415251
v 2.629223 4.610986 -3.225887
v 7.086374 -0.195660 -0.539881
v 4.314507 -0.413816 3.831409
v -0.056783 -0.752512 5.724559
v -3.709608 0.620598 3.112944
v -7.086374 0.865341 -0.539881
v -4.459940 -0.003907 -4.943038
v -0.056783 0.952506 -5.724559
v 4.198509 -0.750875 -4.795173
vn -0.0000 1.0000 -0.0000
vn 0.6554 0.7368 0.1661
vn 0.0907 0.7088 0.6996
vn -0.0980 0.7083 0.6991
vn -0.6482 0.7390 0.1834
vn -0.6226 0.7098 -0.3295
vn -0.3832 0.7185 -0.5805
vn 0.3189 0.7372 -0.5956
vn 0.6429 0.7227 -0.2537
vn 0.8019 0.4861 0.3474
vn 0.3003 0.4877 0.8197
vn -0.3400 0.4615 0.8194
vn -0.8409 0.4335 0.3239
vn -0.8104 0.4554 -0.3686
vn -0.4236 0.4708 -0.7739
vn 0.3837 0.4694 -0.7953
vn 0.7892 0.4763 -0.3878
vn 0.7758 0.4348 0.4573
vn 0.3529 0.3710 0.8590
vn -0.4474 0.3380 0.8280
vn -0.7113 0.4574 0.5338
vn -0.7121 0.5271 -0.4638
vn -0.3144 0.3727 -0.8731
vn 0.3628 0.3291 -0.8718
vn 0.7551 0.4181 -0.5050
s 0
f 3//1 2//1 1//1
f 4//1 3//1 1//1
f 5//1 4//1 1//1
f 6//1 5//1 1//1
f 7//1 6//1 1//1
f 8//1 7//1 1//1
f 9//1 8//1 1//1
f 2//1 9//1 1//1
f 3//2 11//2 10//2 2//2
f 4//3 12//3 11//3 3//3
f 5//4 13//4 12//4 4//4
f 6//5 14//5 13//5 5//5
f 7//6 15//6 14//6 6//6
f 8//7 16//7 15//7 7//7
f 9//8 17//8 16//8 8//8
f 2//9 10//9 17//9 9//9
f 11//10 19//10 18//10 10//10
f 12//11 20//11 19//11 11//11
f 13//12 21//12 20//12 12//12
f 14//13 22//13 21//13 13//13
f 15//14 23//14 22//14 14//14
f 16//15 24//15 23//15 15//15
f 17//16 25//16 24//16 16//16
f 10//17 18//17 25//17 17//17
f 19//18 27//18 26//18 18//18
f 20//19 28//19 27//19 19//19
f 21//20 29//20 28//20 20//20
f 22//21 30//21 29//21 21//21
f 23//22 31//22 30//22 22//22
f 24//23 32//23 31//23 23//23
f 25//24 33//24 32//24 24//24
f 18//25 26//25 33//25 25//25
