# Blender 4.4.1
# www.blender.org
o Hill_262
v -0.390176 0.000000 -0.043146
v -0.390176 8.704502 -0.043146
v -0.390176 8.704502 -0.043146
v -0.390176 8.704502 -0.043146
v -0.390176 8.704502 -0.043146
v -0.390176 8.704502 -0.043146
v -0.390176 8.704502 -0.043146
v -0.390176 8.704502 -0.043146
v -0.390176 8.704502 -0.043146
v 1.832731 6.818456 -0.043146
v 1.159998 7.314372 1.507028
v -0.390176 7.306306 2.209799
v -1.960866 7.124976 1.527543
v -2.585517 6.958396 -0.043146
v -2.076407 6.794650 -1.729377
v -0.390176 7.095445 -2.430403
v 1.161980 6.782998 -1.595303
v 4.604316 3.683215 -0.043146
v 2.743714 3.645613 3.090744
v -0.390176 3.650485 4.132503
v -3.407374 3.596761 2.974051
v -4.911991 4.515170 -0.043146
v -3.955688 3.569822 -3.608658
v -0.390176 3.681053 -5.006204
v 3.206876 3.863914 -3.640199
v 6.011487 -0.650678 -0.043146
v 4.178059 0.001040 4.525089
v -0.390176 0.529507 6.400833
v -5.563337 -0.125002 5.130014
v -6.011487 -0.411359 -0.043146
v -5.370215 -0.122910 -5.023185
v -0.390176 0.427257 -6.400833
v 5.021421 0.145092 -5.454743
vn -0.0000 1.0000 -0.0000
vn 0.6465 0.7620 0.0368
vn 0.2284 0.8272 0.5134
vn -0.3109 0.8076 0.5012
vn -0.6142 0.7722 0.1624
vn -0.6019 0.7567 -0.2552
vn -0.3554 0.7751 -0.5224
vn 0.4236 0.7512 -0.5063
vn 0.6202 0.7310 -0.2847
vn 0.7496 0.5614 0.3505
vn 0.3089 0.4642 0.8301
vn -0.3516 0.4546 0.8184
vn -0.7161 0.5550 0.4233
vn -0.7028 0.6306 -0.3293
vn -0.3394 0.5885 -0.7338
vn 0.3205 0.6236 -0.7130
vn 0.7085 0.6536 -0.2661
vn 0.8488 0.3702 0.3776
vn 0.3360 0.5060 0.7944
vn -0.2771 0.5817 0.7647
vn -0.8867 0.3941 0.2418
vn -0.9319 0.3042 -0.1976
vn -0.3103 0.4100 -0.8577
vn 0.2261 0.4552 -0.8612
vn 0.8950 0.4017 -0.1937
s 0
f 3//1 2//1 1//1
f 4//1 3//1 1//1
f 5//1 4//1 1//1
f 6//1 5//1 1//1
f 7//1 6//1 1//1
f 8//1 7//1 1//1
f 9//1 8//1 1//1
f 2//1 9//1 1//1
f 3//2 11//2 10//2 2//2
f 4//3 12//3 11//3 3//3
f 5//4 13//4 12//4 4//4
f 6//5 14//5 13//5 5//5
f 7//6 15//6 14//6 6//6
f 8//7 16//7 15//7 7//7
f 9//8 17//8 16//8 8//8
f 2//9 10//9 17//9 9//9
f 11//10 19//10 18//10 10//10
f 12//11 20//11 19//11 11//11
f 13//12 21//12 20//12 12//12
f 14//13 22//13 21//13 13//13
f 15//14 23//14 22//14 14//14
f 16//15 24//15 23//15 15//15
f 17//16 25//16 24//16 16//16
f 10//17 18//17 25//17 17//17
f 19//18 27//18 26//18 18//18
f 20//19 28//19 27//19 19//19
f 21//20 29//20 28//20 20//20
f 22//21 30//21 29//21 21//21
f 23//22 31//22 30//22 22//22
f 24//23 32//23 31//23 23//23
f 25//24 33//24 32//24 24//24
f 18//25 26//25 33//25 25//25
