# Blender 4.4.1
# www.blender.org
o Hill_126
v -0.033843 0.000000 0.645177
v -0.033843 7.063209 0.645177
v -0.033843 7.063209 0.645177
v -0.033843 7.063209 0.645177
v -0.033843 7.063209 0.645177
v -0.033843 7.063209 0.645177
v -0.033843 7.063209 0.645177
v -0.033843 7.063209 0.645177
v -0.033843 7.063209 0.645177
v 2.482781 5.865355 0.645177
v 1.789340 5.488416 2.468360
v -0.033843 5.578011 3.221221
v -1.838634 5.878347 2.449968
v -2.710367 5.620524 0.645177
v -1.990870 5.784067 -1.311850
v -0.033843 5.828930 -1.859589
v 1.856637 5.783775 -1.245303
v 5.600159 3.265602 0.645177
v 3.286892 3.302932 3.965912
v -0.033843 3.296406 5.582212
v -3.321293 3.408555 3.932628
v -5.502924 3.094284 0.645177
v -4.221012 2.902222 -3.541992
v -0.033843 3.252605 -4.297484
v 4.170103 3.448514 -3.558768
v 7.293109 0.079479 0.645177
v 5.668188 -0.480491 6.347208
v -0.033843 0.152026 7.715745
v -5.335295 -0.244305 5.946630
v -7.293109 -0.537980 0.645177
v -5.223783 -0.665612 -4.544764
v -0.033843 0.213886 -7.715745
v 5.670290 -0.133225 -5.058955
vn -0.0000 1.0000 -0.0000
vn 0.4056 0.8522 0.3305
vn 0.2415 0.8407 0.4847
vn -0.0691 0.8643 0.4983
vn -0.4720 0.8756 0.1029
vn -0.4721 0.8758 -0.1004
vn -0.1428 0.8878 -0.4375
vn 0.1629 0.8850 -0.4361
vn 0.4229 0.8885 -0.1784
vn 0.5965 0.6988 0.3948
vn 0.3163 0.6786 0.6629
vn -0.2805 0.6551 0.7016
vn -0.6684 0.6687 0.3257
vn -0.6676 0.7110 -0.2208
vn -0.1935 0.6821 -0.7052
vn 0.1332 0.7208 -0.6802
vn 0.6131 0.7657 -0.1941
vn 0.7473 0.5594 0.3586
vn 0.2901 0.5905 0.7531
vn -0.3221 0.5608 0.7627
vn -0.7896 0.5076 0.3446
vn -0.8664 0.3810 -0.3226
vn -0.3824 0.5533 -0.7400
vn 0.2645 0.6130 -0.7445
vn 0.8488 0.4587 -0.2629
s 0
f 3//1 2//1 1//1
f 4//1 3//1 1//1
f 5//1 4//1 1//1
f 6//1 5//1 1//1
f 7//1 6//1 1//1
f 8//1 7//1 1//1
f 9//1 8//1 1//1
f 2//1 9//1 1//1
f 3//2 11//2 10//2 2//2
f 4//3 12//3 11//3 3//3
f 5//4 13//4 12//4 4//4
f 6//5 14//5 13//5 5//5
f 7//6 15//6 14//6 6//6
f 8//7 16//7 15//7 7//7
f 9//8 17//8 16//8 8//8
f 2//9 10//9 17//9 9//9
f 11//10 19//10 18//10 10//10
f 12//11 20//11 19//11 11//11
f 13//12 21//12 20//12 12//12
f 14//13 22//13 21//13 13//13
f 15//14 23//14 22//14 14//14
f 16//15 24//15 23//15 15//15
f 17//16 25//16 24//16 16//16
f 10//17 18//17 25//17 17//17
f 19//18 27//18 26//18 18//18
f 20//19 28//19 27//19 19//19
f 21//20 29//20 28//20 20//20
f 22//21 30//21 29//21 21//21
f 23//22 31//22 30//22 22//22
f 24//23 32//23 31//23 23//23
f 25//24 33//24 32//24 24//24
f 18//25 26//25 33//25 25//25
