# Blender 4.4.1
# www.blender.org
o Hill_154
v -1.668827 0.000000 -0.002940
v -1.668827 5.441899 -0.002940
v -1.668827 5.441899 -0.002940
v -1.668827 5.441899 -0.002940
v -1.668827 5.441899 -0.002940
v -1.668827 5.441899 -0.002940
v -1.668827 5.441899 -0.002940
v -1.668827 5.441899 -0.002940
v -1.668827 5.441899 -0.002940
v 2.274852 4.367204 -0.002940
v 1.018122 4.540599 2.684010
v -1.668827 4.570168 3.827037
v -4.451729 4.318563 2.779962
v -5.670649 4.255230 -0.002940
v -4.264322 4.414388 -2.598435
v -1.668827 4.570613 -3.919672
v 1.095899 4.337504 -2.767667
v 5.341511 2.742971 -0.002940
v 4.248106 2.651420 5.913993
v -1.668827 2.412556 7.592725
v -6.589689 2.585013 4.917921
v -9.437168 2.206983 -0.002940
v -6.434064 2.385786 -4.768177
v -1.668827 2.130011 -7.925259
v 4.119514 2.485073 -5.791282
v 11.869060 0.087989 -0.002940
v 4.934881 -0.229268 6.600769
v -1.668827 0.473403 11.639387
v -10.350748 -0.051036 8.678980
v -11.869060 0.334486 -0.002940
v -9.353565 0.106498 -7.687678
v -1.668827 0.481707 -11.639387
v 6.073103 0.135486 -7.744871
vn -0.0000 1.0000 -0.0000
vn 0.2624 0.9630 0.0606
vn 0.1046 0.9697 0.2207
vn -0.1692 0.9610 0.2187
vn -0.2828 0.9537 0.1022
vn -0.2830 0.9544 -0.0948
vn -0.1669 0.9624 -0.2141
vn 0.1703 0.9619 -0.2140
vn 0.2610 0.9577 -0.1216
vn 0.4399 0.8911 0.1117
vn 0.1268 0.8829 0.4522
vn -0.2373 0.8484 0.4732
vn -0.4754 0.8563 0.2019
vn -0.4838 0.8383 -0.2514
vn -0.2887 0.8209 -0.4927
vn 0.1649 0.8717 -0.4615
vn 0.4324 0.8889 -0.1513
vn 0.5424 0.7531 0.3724
vn 0.3669 0.6779 0.6370
vn -0.1980 0.8843 0.4228
vn -0.5130 0.8424 0.1651
vn -0.5144 0.8257 -0.2313
vn -0.2439 0.8778 -0.4124
vn 0.2259 0.8310 -0.5083
vn 0.4497 0.8584 -0.2466
s 0
f 3//1 2//1 1//1
f 4//1 3//1 1//1
f 5//1 4//1 1//1
f 6//1 5//1 1//1
f 7//1 6//1 1//1
f 8//1 7//1 1//1
f 9//1 8//1 1//1
f 2//1 9//1 1//1
f 3//2 11//2 10//2 2//2
f 4//3 12//3 11//3 3//3
f 5//4 13//4 12//4 4//4
f 6//5 14//5 13//5 5//5
f 7//6 15//6 14//6 6//6
f 8//7 16//7 15//7 7//7
f 9//8 17//8 16//8 8//8
f 2//9 10//9 17//9 9//9
f 11//10 19//10 18//10 10//10
f 12//11 20//11 19//11 11//11
f 13//12 21//12 20//12 12//12
f 14//13 22//13 21//13 13//13
f 15//14 23//14 22//14 14//14
f 16//15 24//15 23//15 15//15
f 17//16 25//16 24//16 16//16
f 10//17 18//17 25//17 17//17
f 19//18 27//18 26//18 18//18
f 20//19 28//19 27//19 19//19
f 21//20 29//20 28//20 20//20
f 22//21 30//21 29//21 21//21
f 23//22 31//22 30//22 22//22
f 24//23 32//23 31//23 23//23
f 25//24 33//24 32//24 24//24
f 18//25 26//25 33//25 25//25
