# Blender 4.4.1
# www.blender.org
o Hill_239
v -0.443315 0.000000 0.221314
v -0.443315 5.796670 0.221314
v -0.443315 5.796670 0.221314
v -0.443315 5.796670 0.221314
v -0.443315 5.796670 0.221314
v -0.443315 5.796670 0.221314
v -0.443315 5.796670 0.221314
v -0.443315 5.796670 0.221314
v -0.443315 5.796670 0.221314
v 1.706320 4.735816 0.221314
v 1.057011 4.594386 1.721641
v -0.443315 4.696495 2.231802
v -1.934812 4.716784 1.712811
v -2.464337 4.719683 0.221314
v -2.029523 4.819672 -1.364893
v -0.443315 4.670376 -1.816517
v 1.041939 4.493890 -1.263940
v 3.288345 2.358075 0.221314
v 2.182226 2.737897 2.846855
v -0.443315 2.746168 4.433991
v -3.701963 3.023375 3.479962
v -4.616199 2.774700 0.221314
v -3.764571 2.471799 -3.099942
v -0.443315 2.875601 -3.720905
v 2.475376 2.758039 -2.697377
v 6.313186 -0.192440 0.221314
v 4.117241 0.372517 4.781870
v -0.443315 -0.572862 6.575350
v -4.383099 0.273353 4.161098
v -6.313186 0.187724 0.221314
v -5.249500 -0.233888 -4.584870
v -0.443315 -0.146151 -6.575350
v 3.910908 -0.558141 -4.132909
vn -0.0000 1.0000 -0.0000
vn 0.4266 0.8644 0.2661
vn 0.2176 0.8562 0.4685
vn -0.1533 0.8669 0.4744
vn -0.4637 0.8702 0.1663
vn -0.4690 0.8802 -0.0731
vn -0.0553 0.8739 -0.4830
vn 0.2732 0.8419 -0.4653
vn 0.4185 0.8480 -0.3253
vn 0.7680 0.5691 0.2939
vn 0.3494 0.6730 0.6519
vn -0.1484 0.7605 0.6321
vn -0.6342 0.7577 0.1536
vn -0.6819 0.7014 -0.2077
vn -0.1883 0.6915 -0.6974
vn 0.2768 0.7171 -0.6396
vn 0.7458 0.6261 -0.2277
vn 0.6487 0.7339 0.2016
vn 0.2664 0.6199 0.7381
vn -0.3272 0.4284 0.8422
vn -0.8507 0.4195 0.3167
vn -0.8016 0.5486 -0.2378
vn -0.2728 0.6249 -0.7315
vn 0.3856 0.5755 -0.7212
vn 0.7172 0.6221 -0.3141
s 0
f 3//1 2//1 1//1
f 4//1 3//1 1//1
f 5//1 4//1 1//1
f 6//1 5//1 1//1
f 7//1 6//1 1//1
f 8//1 7//1 1//1
f 9//1 8//1 1//1
f 2//1 9//1 1//1
f 3//2 11//2 10//2 2//2
f 4//3 12//3 11//3 3//3
f 5//4 13//4 12//4 4//4
f 6//5 14//5 13//5 5//5
f 7//6 15//6 14//6 6//6
f 8//7 16//7 15//7 7//7
f 9//8 17//8 16//8 8//8
f 2//9 10//9 17//9 9//9
f 11//10 19//10 18//10 10//10
f 12//11 20//11 19//11 11//11
f 13//12 21//12 20//12 12//12
f 14//13 22//13 21//13 13//13
f 15//14 23//14 22//14 14//14
f 16//15 24//15 23//15 15//15
f 17//16 25//16 24//16 16//16
f 10//17 18//17 25//17 17//17
f 19//18 27//18 26//18 18//18
f 20//19 28//19 27//19 19//19
f 21//20 29//20 28//20 20//20
f 22//21 30//21 29//21 21//21
f 23//22 31//22 30//22 22//22
f 24//23 32//23 31//23 23//23
f 25//24 33//24 32//24 24//24
f 18//25 26//25 33//25 25//25
