# Blender 4.4.1
# www.blender.org
o Hill_108
v -0.070614 0.000000 0.455849
v -0.070614 8.475351 0.455849
v -0.070614 8.475351 0.455849
v -0.070614 8.475351 0.455849
v -0.070614 8.475351 0.455849
v -0.070614 8.475351 0.455849
v -0.070614 8.475351 0.455849
v -0.070614 8.475351 0.455849
v -0.070614 8.475351 0.455849
v 2.136846 6.842888 0.455849
v 1.521611 6.915073 2.048073
v -0.070614 6.711591 2.893414
v -1.666109 7.004323 2.051344
v -2.330224 7.063962 0.455849
v -1.603595 7.054473 -1.077132
v -0.070614 6.588030 -1.983133
v 1.537078 6.899928 -1.151842
v 4.583492 3.475673 0.455849
v 2.775523 4.310796 3.301986
v -0.070614 4.413633 4.576049
v -3.001720 3.834482 3.386955
v -5.289548 4.264410 0.455849
v -3.371608 3.448815 -2.845145
v -0.070614 4.016607 -4.294498
v 3.033983 3.827473 -2.648748
v 7.981461 -0.630229 0.455849
v 5.139564 -0.227847 5.666027
v -0.070614 0.366670 7.705531
v -4.930518 0.421596 5.315753
v -7.981461 -0.514815 0.455849
v -4.423542 -0.627502 -3.897079
v -0.070614 -0.465209 -7.705531
v 4.013364 -0.686861 -3.628129
vn -0.0000 1.0000 -0.0000
vn 0.5838 0.7894 0.1898
vn 0.2034 0.7932 0.5740
vn -0.1587 0.7999 0.5788
vn -0.5137 0.8224 0.2446
vn -0.5132 0.8216 -0.2483
vn -0.1202 0.7851 -0.6076
vn 0.1609 0.7806 -0.6040
vn 0.5838 0.7894 -0.1898
vn 0.7768 0.5469 0.3123
vn 0.3510 0.5456 0.7610
vn -0.3776 0.5165 0.7686
vn -0.6529 0.5790 0.4884
vn -0.6497 0.6061 -0.4589
vn -0.3656 0.5835 -0.7252
vn 0.3653 0.5853 -0.7239
vn 0.7780 0.5479 -0.3073
vn 0.7385 0.5843 0.3365
vn 0.3540 0.5713 0.7405
vn -0.3707 0.5850 0.7214
vn -0.7220 0.5158 0.4612
vn -0.7312 0.3767 -0.5688
vn -0.5364 0.4411 -0.7195
vn 0.5831 0.4067 -0.7033
vn 0.7249 0.4293 -0.5388
s 0
f 3//1 2//1 1//1
f 4//1 3//1 1//1
f 5//1 4//1 1//1
f 6//1 5//1 1//1
f 7//1 6//1 1//1
f 8//1 7//1 1//1
f 9//1 8//1 1//1
f 2//1 9//1 1//1
f 3//2 11//2 10//2 2//2
f 4//3 12//3 11//3 3//3
f 5//4 13//4 12//4 4//4
f 6//5 14//5 13//5 5//5
f 7//6 15//6 14//6 6//6
f 8//7 16//7 15//7 7//7
f 9//8 17//8 16//8 8//8
f 2//9 10//9 17//9 9//9
f 11//10 19//10 18//10 10//10
f 12//11 20//11 19//11 11//11
f 13//12 21//12 20//12 12//12
f 14//13 22//13 21//13 13//13
f 15//14 23//14 22//14 14//14
f 16//15 24//15 23//15 15//15
f 17//16 25//16 24//16 16//16
f 10//17 18//17 25//17 17//17
f 19//18 27//18 26//18 18//18
f 20//19 28//19 27//19 19//19
f 21//20 29//20 28//20 20//20
f 22//21 30//21 29//21 21//21
f 23//22 31//22 30//22 22//22
f 24//23 32//23 31//23 23//23
f 25//24 33//24 32//24 24//24
f 18//25 26//25 33//25 25//25
