# Blender 4.4.1
# www.blender.org
o Hill_125
v 0.024670 0.000000 0.622187
v 0.024670 9.124184 0.622187
v 0.024670 9.124184 0.622187
v 0.024670 9.124184 0.622187
v 0.024670 9.124184 0.622187
v 0.024670 9.124184 0.622187
v 0.024670 9.124184 0.622187
v 0.024670 9.124184 0.622187
v 0.024670 9.124184 0.622187
v 2.602105 7.545066 0.622187
v 1.882362 7.562023 2.479879
v 0.024670 7.222848 3.103517
v -1.763216 7.079474 2.410073
v -2.683426 7.527830 0.622187
v -1.746862 7.346907 -1.149345
v 0.024670 7.153885 -2.177282
v 1.933140 7.401850 -1.286283
v 5.466383 4.472041 0.622187
v 3.385933 3.882120 3.983450
v 0.024670 4.408579 5.613857
v -3.682544 3.747507 4.329401
v -4.758307 4.712486 0.622187
v -3.352780 4.604981 -2.755263
v 0.024670 3.998022 -4.761101
v 3.593674 4.425860 -2.946817
v 8.147627 0.235204 0.622187
v 5.985147 -0.190627 6.582664
v 0.024670 0.613279 8.033174
v -4.557828 -0.396156 5.204685
v -8.147627 0.125055 0.622187
v -6.469461 -0.810484 -5.871944
v 0.024670 -0.671783 -8.033174
v 4.673261 -0.788522 -4.026404
vn -0.0000 1.0000 -0.0000
vn 0.5128 0.8370 0.1910
vn 0.0592 0.7924 0.6072
vn -0.2870 0.7604 0.5826
vn -0.4583 0.7774 0.4308
vn -0.4783 0.8115 -0.3358
vn -0.2378 0.7943 -0.5590
vn 0.1604 0.8072 -0.5681
vn 0.5072 0.8278 -0.2399
vn 0.7063 0.5547 0.4398
vn 0.3477 0.5499 0.7594
vn -0.3449 0.6173 0.7071
vn -0.7034 0.5837 0.4056
vn -0.7253 0.5852 -0.3627
vn -0.3325 0.6047 -0.7238
vn 0.2950 0.5965 -0.7464
vn 0.7026 0.6210 -0.3475
vn 0.7174 0.5777 0.3895
vn 0.3288 0.5827 0.7432
vn -0.4714 0.3819 0.7950
vn -0.7567 0.4198 0.5011
vn -0.7553 0.5840 -0.2976
vn -0.2950 0.5747 -0.7633
vn 0.5222 0.3908 -0.7580
vn 0.7585 0.3636 -0.5409
s 0
f 3//1 2//1 1//1
f 4//1 3//1 1//1
f 5//1 4//1 1//1
f 6//1 5//1 1//1
f 7//1 6//1 1//1
f 8//1 7//1 1//1
f 9//1 8//1 1//1
f 2//1 9//1 1//1
f 3//2 11//2 10//2 2//2
f 4//3 12//3 11//3 3//3
f 5//4 13//4 12//4 4//4
f 6//5 14//5 13//5 5//5
f 7//6 15//6 14//6 6//6
f 8//7 16//7 15//7 7//7
f 9//8 17//8 16//8 8//8
f 2//9 10//9 17//9 9//9
f 11//10 19//10 18//10 10//10
f 12//11 20//11 19//11 11//11
f 13//12 21//12 20//12 12//12
f 14//13 22//13 21//13 13//13
f 15//14 23//14 22//14 14//14
f 16//15 24//15 23//15 15//15
f 17//16 25//16 24//16 16//16
f 10//17 18//17 25//17 17//17
f 19//18 27//18 26//18 18//18
f 20//19 28//19 27//19 19//19
f 21//20 29//20 28//20 20//20
f 22//21 30//21 29//21 21//21
f 23//22 31//22 30//22 22//22
f 24//23 32//23 31//23 23//23
f 25//24 33//24 32//24 24//24
f 18//25 26//25 33//25 25//25
