# Blender 4.4.1
# www.blender.org
o Hill_097
v -0.433507 0.000000 0.397921
v -0.433507 9.799566 0.397921
v -0.433507 9.799566 0.397921
v -0.433507 9.799566 0.397921
v -0.433507 9.799566 0.397921
v -0.433507 9.799566 0.397921
v -0.433507 9.799566 0.397921
v -0.433507 9.799566 0.397921
v -0.433507 9.799566 0.397921
v 2.355674 7.831491 0.397921
v 1.446152 7.812189 2.277581
v -0.433507 8.035667 3.053835
v -2.368831 8.183345 2.333246
v -3.159682 8.130110 0.397921
v -2.370703 8.085495 -1.539274
v -0.433507 7.670938 -2.124686
v 1.517972 7.674220 -1.553558
v 5.287664 4.985416 0.397921
v 3.658759 4.766365 4.490188
v -0.433507 4.326662 5.623279
v -3.773508 4.450083 3.737922
v -6.107992 4.578287 0.397921
v -3.924374 4.607154 -3.092945
v -0.433507 4.294365 -5.315547
v 3.176169 4.887704 -3.211755
v 7.919139 0.493280 0.397921
v 6.160527 0.285319 6.991956
v -0.433507 -0.611551 7.238822
v -5.436256 -0.126609 5.400670
v -7.919139 0.301915 0.397921
v -5.921499 -0.421452 -5.090070
v -0.433507 0.629671 -7.238822
v 4.170137 0.898645 -4.205723
vn -0.0000 1.0000 -0.0000
vn 0.5541 0.7853 0.2762
vn 0.3112 0.7916 0.5258
vn -0.1410 0.8247 0.5477
vn -0.5131 0.8378 0.1866
vn -0.5087 0.8307 -0.2263
vn -0.0313 0.7639 -0.6446
vn 0.1842 0.7512 -0.6339
vn 0.5502 0.7797 -0.2990
vn 0.6569 0.6888 0.3067
vn 0.2210 0.6107 0.7604
vn -0.3654 0.4912 0.7907
vn -0.7308 0.5216 0.4404
vn -0.7288 0.5553 -0.4007
vn -0.3083 0.5876 -0.7481
vn 0.2766 0.6391 -0.7177
vn 0.6594 0.6490 -0.3794
vn 0.7996 0.5340 0.2748
vn 0.0654 0.4142 0.9078
vn -0.3583 0.3595 0.8616
vn -0.7830 0.3972 0.4787
vn -0.8101 0.4195 -0.4097
vn -0.4203 0.4515 -0.7871
vn 0.4652 0.3674 -0.8054
vn 0.7578 0.3856 -0.5263
s 0
f 3//1 2//1 1//1
f 4//1 3//1 1//1
f 5//1 4//1 1//1
f 6//1 5//1 1//1
f 7//1 6//1 1//1
f 8//1 7//1 1//1
f 9//1 8//1 1//1
f 2//1 9//1 1//1
f 3//2 11//2 10//2 2//2
f 4//3 12//3 11//3 3//3
f 5//4 13//4 12//4 4//4
f 6//5 14//5 13//5 5//5
f 7//6 15//6 14//6 6//6
f 8//7 16//7 15//7 7//7
f 9//8 17//8 16//8 8//8
f 2//9 10//9 17//9 9//9
f 11//10 19//10 18//10 10//10
f 12//11 20//11 19//11 11//11
f 13//12 21//12 20//12 12//12
f 14//13 22//13 21//13 13//13
f 15//14 23//14 22//14 14//14
f 16//15 24//15 23//15 15//15
f 17//16 25//16 24//16 16//16
f 10//17 18//17 25//17 17//17
f 19//18 27//18 26//18 18//18
f 20//19 28//19 27//19 19//19
f 21//20 29//20 28//20 20//20
f 22//21 30//21 29//21 21//21
f 23//22 31//22 30//22 22//22
f 24//23 32//23 31//23 23//23
f 25//24 33//24 32//24 24//24
f 18//25 26//25 33//25 25//25
