# Blender 4.4.1
# www.blender.org
o Hill_156
v 0.297958 0.000000 -0.333351
v 0.297958 5.149700 -0.333351
v 0.297958 5.149700 -0.333351
v 0.297958 5.149700 -0.333351
v 0.297958 5.149700 -0.333351
v 0.297958 5.149700 -0.333351
v 0.297958 5.149700 -0.333351
v 0.297958 5.149700 -0.333351
v 0.297958 5.149700 -0.333351
v 3.012610 4.272143 -0.333351
v 2.429530 4.250129 1.798221
v 0.297958 4.094678 2.652443
v -1.686115 4.304144 1.650722
v -2.425083 4.276502 -0.333351
v -1.805201 4.123852 -2.436510
v 0.297958 4.188717 -3.067393
v 2.400015 4.278718 -2.435408
v 5.685615 2.620518 -0.333351
v 4.737953 2.574882 4.106645
v 0.297958 2.519817 4.889619
v -3.218633 2.461717 3.183240
v -5.459897 2.415490 -0.333351
v -4.199046 2.270539 -4.830354
v 0.297958 2.083432 -6.832442
v 4.873180 2.269098 -4.908574
v 7.877346 -0.431324 -0.333351
v 5.636158 0.115240 5.004849
v 0.297958 0.333005 9.385220
v -4.631730 0.458677 4.596336
v -7.877346 -0.457307 -0.333351
v -6.147519 -0.432467 -6.778827
v 0.297958 -0.439617 -9.385220
v 6.961129 -0.459020 -6.996522
vn -0.0000 1.0000 -0.0000
vn 0.3062 0.9473 0.0936
vn 0.0646 0.9409 0.3325
vn -0.0685 0.9407 0.3324
vn -0.3038 0.9475 0.1000
vn -0.3016 0.9404 -0.1571
vn -0.1275 0.9357 -0.3289
vn 0.0592 0.9418 -0.3310
vn 0.3064 0.9480 -0.0863
vn 0.5094 0.8511 0.1274
vn 0.1081 0.8339 0.5413
vn -0.2671 0.7655 0.5854
vn -0.5444 0.7891 0.2844
vn -0.4999 0.8470 -0.1806
vn -0.1767 0.8578 -0.4827
vn 0.1562 0.8518 -0.5000
vn 0.5223 0.8386 -0.1548
vn 0.8283 0.5042 0.2443
vn 0.3221 0.7431 0.5865
vn -0.3626 0.7989 0.4798
vn -0.6769 0.6381 0.3670
vn -0.7337 0.6470 -0.2076
vn -0.2727 0.6842 -0.6764
vn 0.2486 0.6950 -0.6746
vn 0.7710 0.6213 -0.1396
s 0
f 3//1 2//1 1//1
f 4//1 3//1 1//1
f 5//1 4//1 1//1
f 6//1 5//1 1//1
f 7//1 6//1 1//1
f 8//1 7//1 1//1
f 9//1 8//1 1//1
f 2//1 9//1 1//1
f 3//2 11//2 10//2 2//2
f 4//3 12//3 11//3 3//3
f 5//4 13//4 12//4 4//4
f 6//5 14//5 13//5 5//5
f 7//6 15//6 14//6 6//6
f 8//7 16//7 15//7 7//7
f 9//8 17//8 16//8 8//8
f 2//9 10//9 17//9 9//9
f 11//10 19//10 18//10 10//10
f 12//11 20//11 19//11 11//11
f 13//12 21//12 20//12 12//12
f 14//13 22//13 21//13 13//13
f 15//14 23//14 22//14 14//14
f 16//15 24//15 23//15 15//15
f 17//16 25//16 24//16 16//16
f 10//17 18//17 25//17 17//17
f 19//18 27//18 26//18 18//18
f 20//19 28//19 27//19 19//19
f 21//20 29//20 28//20 20//20
f 22//21 30//21 29//21 21//21
f 23//22 31//22 30//22 22//22
f 24//23 32//23 31//23 23//23
f 25//24 33//24 32//24 24//24
f 18//25 26//25 33//25 25//25
