# Blender 4.4.1
# www.blender.org
o Hill_181
v -0.433007 0.000000 1.141936
v -0.433007 7.284591 1.141936
v -0.433007 7.284591 1.141936
v -0.433007 7.284591 1.141936
v -0.433007 7.284591 1.141936
v -0.433007 7.284591 1.141936
v -0.433007 7.284591 1.141936
v -0.433007 7.284591 1.141936
v -0.433007 7.284591 1.141936
v 2.348275 6.097821 1.141936
v 1.586907 5.925230 3.161850
v -0.433007 6.033783 4.043322
v -2.603673 6.083440 3.312601
v -3.262360 5.995053 1.141936
v -2.434231 5.703902 -0.859288
v -0.433007 5.808179 -1.905129
v 1.575721 5.875924 -0.866792
v 5.931199 3.143522 1.141936
v 4.006019 2.956511 5.580962
v -0.433007 2.971193 7.521586
v -4.943707 3.190346 5.652636
v -6.790197 3.523628 1.141936
v -4.033207 3.546949 -2.458264
v -0.433007 3.221553 -4.020102
v 4.166679 3.706393 -3.457751
v 8.014964 0.656544 1.141936
v 5.662931 -0.420653 7.237874
v -0.433007 0.506451 8.629449
v -6.555330 -0.469674 7.264258
v -8.014964 0.087401 1.141936
v -6.203596 0.322153 -4.628654
v -0.433007 -0.721092 -8.629449
v 4.744835 0.029387 -4.035907
vn -0.0000 1.0000 -0.0000
vn 0.3828 0.8970 0.2209
vn 0.2168 0.8965 0.3865
vn -0.1116 0.9126 0.3934
vn -0.4131 0.9064 0.0884
vn -0.3968 0.8706 -0.2909
vn -0.2649 0.8678 -0.4205
vn 0.1914 0.8833 -0.4280
vn 0.3805 0.8918 -0.2449
vn 0.6086 0.7369 0.2942
vn 0.2869 0.7261 0.6249
vn -0.2244 0.7247 0.6515
vn -0.5965 0.7622 0.2516
vn -0.5487 0.7413 -0.3866
vn -0.3000 0.6487 -0.6994
vn 0.1035 0.7275 -0.6783
vn 0.5815 0.7929 -0.1823
vn 0.7340 0.5718 0.3666
vn 0.3036 0.4766 0.8251
vn -0.2890 0.4510 0.8445
vn -0.8597 0.4122 0.3018
vn -0.7763 0.5144 -0.3643
vn -0.2844 0.7029 -0.6520
vn 0.3352 0.5475 -0.7668
vn 0.8167 0.3924 -0.4231
s 0
f 3//1 2//1 1//1
f 4//1 3//1 1//1
f 5//1 4//1 1//1
f 6//1 5//1 1//1
f 7//1 6//1 1//1
f 8//1 7//1 1//1
f 9//1 8//1 1//1
f 2//1 9//1 1//1
f 3//2 11//2 10//2 2//2
f 4//3 12//3 11//3 3//3
f 5//4 13//4 12//4 4//4
f 6//5 14//5 13//5 5//5
f 7//6 15//6 14//6 6//6
f 8//7 16//7 15//7 7//7
f 9//8 17//8 16//8 8//8
f 2//9 10//9 17//9 9//9
f 11//10 19//10 18//10 10//10
f 12//11 20//11 19//11 11//11
f 13//12 21//12 20//12 12//12
f 14//13 22//13 21//13 13//13
f 15//14 23//14 22//14 14//14
f 16//15 24//15 23//15 15//15
f 17//16 25//16 24//16 16//16
f 10//17 18//17 25//17 17//17
f 19//18 27//18 26//18 18//18
f 20//19 28//19 27//19 19//19
f 21//20 29//20 28//20 20//20
f 22//21 30//21 29//21 21//21
f 23//22 31//22 30//22 22//22
f 24//23 32//23 31//23 23//23
f 25//24 33//24 32//24 24//24
f 18//25 26//25 33//25 25//25
