# Blender 4.4.1
# www.blender.org
o Hill_110
v 0.234769 0.000000 -1.506933
v 0.234769 6.109285 -1.506933
v 0.234769 6.109285 -1.506933
v 0.234769 6.109285 -1.506933
v 0.234769 6.109285 -1.506933
v 0.234769 6.109285 -1.506933
v 0.234769 6.109285 -1.506933
v 0.234769 6.109285 -1.506933
v 0.234769 6.109285 -1.506933
v 3.972784 5.073349 -1.506933
v 2.924062 4.791838 1.182361
v 0.234769 4.978218 2.390064
v -2.491715 4.843307 1.219551
v -3.670502 5.116383 -1.506933
v -2.296796 5.096857 -4.038497
v 0.234769 5.093919 -5.418559
v 2.825839 4.785350 -4.098002
v 8.454755 2.376814 -1.506933
v 5.093999 2.829230 3.352298
v 0.234769 3.128418 5.483360
v -5.126560 3.157925 3.854397
v -6.260177 2.710806 -1.506933
v -4.475219 3.046463 -6.216920
v 0.234769 3.033875 -9.386295
v 6.064896 2.574029 -7.337059
v 12.539212 0.178495 -1.506933
v 7.700917 -0.374656 5.959216
v 0.234769 -0.524749 11.009552
v -9.018626 -0.273430 7.746463
v -12.539212 -0.460064 -1.506933
v -8.320092 0.542921 -10.061793
v 0.234769 -0.069180 -11.009552
v 8.579113 0.318397 -9.851277
vn -0.0000 1.0000 -0.0000
vn 0.2616 0.9440 0.2008
vn 0.1883 0.9432 0.2738
vn -0.1649 0.9472 0.2749
vn -0.2415 0.9497 0.1995
vn -0.2440 0.9596 -0.1398
vn -0.1346 0.9591 -0.2490
vn 0.2364 0.9405 -0.2441
vn 0.2605 0.9401 -0.2198
vn 0.4922 0.8279 0.2688
vn 0.2698 0.8293 0.4894
vn -0.1704 0.8716 0.4596
vn -0.5641 0.8131 0.1438
vn -0.6059 0.7613 -0.2310
vn -0.2872 0.8401 -0.4601
vn 0.2445 0.8784 -0.4107
vn 0.4629 0.8627 -0.2037
vn 0.5056 0.7917 0.3428
vn 0.3272 0.7715 0.5456
vn -0.1675 0.8199 0.5475
vn -0.5064 0.8533 0.1243
vn -0.4520 0.8845 -0.1153
vn -0.1657 0.7444 -0.6468
vn 0.1707 0.6511 -0.7396
vn 0.4942 0.8457 -0.2013
s 0
f 3//1 2//1 1//1
f 4//1 3//1 1//1
f 5//1 4//1 1//1
f 6//1 5//1 1//1
f 7//1 6//1 1//1
f 8//1 7//1 1//1
f 9//1 8//1 1//1
f 2//1 9//1 1//1
f 3//2 11//2 10//2 2//2
f 4//3 12//3 11//3 3//3
f 5//4 13//4 12//4 4//4
f 6//5 14//5 13//5 5//5
f 7//6 15//6 14//6 6//6
f 8//7 16//7 15//7 7//7
f 9//8 17//8 16//8 8//8
f 2//9 10//9 17//9 9//9
f 11//10 19//10 18//10 10//10
f 12//11 20//11 19//11 11//11
f 13//12 21//12 20//12 12//12
f 14//13 22//13 21//13 13//13
f 15//14 23//14 22//14 14//14
f 16//15 24//15 23//15 15//15
f 17//16 25//16 24//16 16//16
f 10//17 18//17 25//17 17//17
f 19//18 27//18 26//18 18//18
f 20//19 28//19 27//19 19//19
f 21//20 29//20 28//20 20//20
f 22//21 30//21 29//21 21//21
f 23//22 31//22 30//22 22//22
f 24//23 32//23 31//23 23//23
f 25//24 33//24 32//24 24//24
f 18//25 26//25 33//25 25//25
