# Blender 4.4.1
# www.blender.org
o Hill_208
v -0.692443 0.000000 -0.407452
v -0.692443 7.399262 -0.407452
v -0.692443 7.399262 -0.407452
v -0.692443 7.399262 -0.407452
v -0.692443 7.399262 -0.407452
v -0.692443 7.399262 -0.407452
v -0.692443 7.399262 -0.407452
v -0.692443 7.399262 -0.407452
v -0.692443 7.399262 -0.407452
v 2.165214 6.022286 -0.407452
v 1.303217 5.967355 1.588208
v -0.692443 6.199566 2.664078
v -2.834128 6.186954 1.734232
v -3.825376 5.913230 -0.407452
v -2.761098 5.747682 -2.476107
v -0.692443 6.112465 -3.269212
v 1.324061 6.177599 -2.423957
v 5.496537 3.308659 -0.407452
v 3.532414 3.189519 3.817405
v -0.692443 3.054196 5.483704
v -5.440073 3.056701 4.340177
v -6.877748 3.205658 -0.407452
v -4.620094 3.505000 -4.335103
v -0.692443 3.312002 -6.674370
v 3.024337 3.370533 -4.124233
v 8.252794 -0.164563 -0.407452
v 5.787798 0.273379 6.072790
v -0.692443 0.143971 7.979808
v -7.324667 -0.257113 6.224771
v -8.252794 0.479605 -0.407452
v -6.383628 -0.406628 -6.098637
v -0.692443 0.488998 -7.642212
v 6.879912 -0.314513 -7.979808
vn -0.0000 1.0000 -0.0000
vn 0.4246 0.8812 0.2077
vn 0.2913 0.8911 0.3480
vn -0.1613 0.9193 0.3591
vn -0.4271 0.9004 0.0826
vn -0.4113 0.8671 -0.2810
vn -0.3031 0.8691 -0.3908
vn 0.1410 0.9029 -0.4060
vn 0.4314 0.8953 -0.1110
vn 0.6081 0.7363 0.2969
vn 0.3040 0.6817 0.6655
vn -0.2101 0.6879 0.6947
vn -0.6510 0.7276 0.2163
vn -0.6092 0.7250 -0.3213
vn -0.3293 0.7372 -0.5900
vn 0.3600 0.6854 -0.6329
vn 0.6391 0.6882 -0.3433
vn 0.7076 0.6515 0.2734
vn 0.2212 0.6663 0.7121
vn -0.2164 0.6049 0.7663
vn -0.8306 0.5146 0.2127
vn -0.7975 0.4757 -0.3712
vn -0.3647 0.4304 -0.8257
vn 0.1868 0.6540 -0.7331
vn 0.6512 0.7240 -0.2275
s 0
f 3//1 2//1 1//1
f 4//1 3//1 1//1
f 5//1 4//1 1//1
f 6//1 5//1 1//1
f 7//1 6//1 1//1
f 8//1 7//1 1//1
f 9//1 8//1 1//1
f 2//1 9//1 1//1
f 3//2 11//2 10//2 2//2
f 4//3 12//3 11//3 3//3
f 5//4 13//4 12//4 4//4
f 6//5 14//5 13//5 5//5
f 7//6 15//6 14//6 6//6
f 8//7 16//7 15//7 7//7
f 9//8 17//8 16//8 8//8
f 2//9 10//9 17//9 9//9
f 11//10 19//10 18//10 10//10
f 12//11 20//11 19//11 11//11
f 13//12 21//12 20//12 12//12
f 14//13 22//13 21//13 13//13
f 15//14 23//14 22//14 14//14
f 16//15 24//15 23//15 15//15
f 17//16 25//16 24//16 16//16
f 10//17 18//17 25//17 17//17
f 19//18 27//18 26//18 18//18
f 20//19 28//19 27//19 19//19
f 21//20 29//20 28//20 20//20
f 22//21 30//21 29//21 21//21
f 23//22 31//22 30//22 22//22
f 24//23 32//23 31//23 23//23
f 25//24 33//24 32//24 24//24
f 18//25 26//25 33//25 25//25
