# Blender 4.4.1
# www.blender.org
o Hill_229
v 0.649808 0.000000 0.364852
v 0.649808 5.401926 0.364852
v 0.649808 5.401926 0.364852
v 0.649808 5.401926 0.364852
v 0.649808 5.401926 0.364852
v 0.649808 5.401926 0.364852
v 0.649808 5.401926 0.364852
v 0.649808 5.401926 0.364852
v 0.649808 5.401926 0.364852
v 4.098447 4.282605 0.364852
v 3.184985 4.534785 2.900029
v 0.649808 4.184179 4.177611
v -1.809995 4.384948 2.824654
v -3.078928 4.454601 0.364852
v -1.845008 4.204180 -2.129965
v 0.649808 4.404021 -3.431096
v 3.242594 4.537578 -2.227934
v 7.537636 2.604735 0.364852
v 5.375740 2.536909 5.090784
v 0.649808 2.606055 6.871534
v -5.128290 2.456632 6.142949
v -6.653920 2.164028 0.364852
v -4.996826 2.186260 -5.281782
v 0.649808 2.352055 -6.643520
v 5.142472 2.803569 -4.127813
v 11.761169 -0.076450 0.364852
v 7.164836 -0.075144 6.879879
v 0.649808 -0.113297 10.854449
v -6.495711 -0.354749 7.510371
v -11.761169 0.057222 0.364852
v -6.411707 0.515593 -6.696663
v 0.649808 -0.254134 -10.854449
v 9.075966 0.093328 -8.061306
vn -0.0000 1.0000 -0.0000
vn 0.3087 0.9510 0.0166
vn 0.0216 0.9524 0.3042
vn -0.0892 0.9488 0.3030
vn -0.2434 0.9578 0.1527
vn -0.2405 0.9468 -0.2140
vn -0.2056 0.9465 -0.2488
vn 0.0680 0.9649 -0.2537
vn 0.3087 0.9511 -0.0084
vn 0.4861 0.8543 0.1842
vn 0.1884 0.8308 0.5237
vn -0.1095 0.8837 0.4550
vn -0.4690 0.8728 0.1355
vn -0.4651 0.8647 -0.1894
vn -0.1896 0.8671 -0.4606
vn 0.2104 0.8214 -0.5301
vn 0.4874 0.8567 -0.1688
vn 0.5615 0.7535 0.3421
vn 0.3057 0.7448 0.5932
vn -0.2324 0.7053 0.6697
vn -0.5391 0.7905 0.2906
vn -0.4535 0.8644 -0.2173
vn -0.2047 0.8033 -0.5592
vn 0.1480 0.8594 -0.4895
vn 0.4864 0.8576 -0.1668
s 0
f 3//1 2//1 1//1
f 4//1 3//1 1//1
f 5//1 4//1 1//1
f 6//1 5//1 1//1
f 7//1 6//1 1//1
f 8//1 7//1 1//1
f 9//1 8//1 1//1
f 2//1 9//1 1//1
f 3//2 11//2 10//2 2//2
f 4//3 12//3 11//3 3//3
f 5//4 13//4 12//4 4//4
f 6//5 14//5 13//5 5//5
f 7//6 15//6 14//6 6//6
f 8//7 16//7 15//7 7//7
f 9//8 17//8 16//8 8//8
f 2//9 10//9 17//9 9//9
f 11//10 19//10 18//10 10//10
f 12//11 20//11 19//11 11//11
f 13//12 21//12 20//12 12//12
f 14//13 22//13 21//13 13//13
f 15//14 23//14 22//14 14//14
f 16//15 24//15 23//15 15//15
f 17//16 25//16 24//16 16//16
f 10//17 18//17 25//17 17//17
f 19//18 27//18 26//18 18//18
f 20//19 28//19 27//19 19//19
f 21//20 29//20 28//20 20//20
f 22//21 30//21 29//21 21//21
f 23//22 31//22 30//22 22//22
f 24//23 32//23 31//23 23//23
f 25//24 33//24 32//24 24//24
f 18//25 26//25 33//25 25//25
