# Blender 4.4.1
# www.blender.org
o Hill_082
v -0.292089 0.000000 -0.809479
v -0.292089 5.364408 -0.809479
v -0.292089 5.364408 -0.809479
v -0.292089 5.364408 -0.809479
v -0.292089 5.364408 -0.809479
v -0.292089 5.364408 -0.809479
v -0.292089 5.364408 -0.809479
v -0.292089 5.364408 -0.809479
v -0.292089 5.364408 -0.809479
v 3.553530 4.221984 -0.809479
v 2.348276 4.378203 1.830886
v -0.292089 4.226005 2.967185
v -3.011817 4.472679 1.910249
v -3.916529 4.299136 -0.809479
v -2.920082 4.178951 -3.437472
v -0.292089 4.414274 -4.348101
v 2.462805 4.382894 -3.564372
v 7.087584 2.682147 -0.809479
v 5.029477 2.425607 4.512087
v -0.292089 2.529137 6.286389
v -5.597395 2.185382 4.495828
v -6.826625 2.392547 -0.809479
v -5.343073 2.137455 -5.860463
v -0.292089 2.646373 -7.365663
v 4.650397 2.171115 -5.751965
v 9.594537 0.108886 -0.809479
v 7.013309 -0.296093 6.495919
v -0.292089 0.453049 12.224292
v -7.348205 0.218088 6.246637
v -9.457927 0.398547 -0.809479
v -9.594537 -0.456214 -10.111927
v -0.292089 0.378937 -12.224292
v 8.896572 0.000050 -9.998140
vn -0.0000 1.0000 -0.0000
vn 0.2840 0.9560 0.0731
vn 0.0688 0.9552 0.2879
vn -0.0253 0.9571 0.2885
vn -0.2818 0.9589 0.0326
vn -0.2788 0.9487 -0.1491
vn -0.1737 0.9511 -0.2554
vn 0.0845 0.9623 -0.2584
vn 0.2843 0.9571 -0.0567
vn 0.4202 0.8887 0.1834
vn 0.1624 0.8736 0.4588
vn -0.1851 0.8503 0.4927
vn -0.5539 0.8188 0.1507
vn -0.5191 0.8290 -0.2082
vn -0.2343 0.8423 -0.4854
vn 0.2197 0.8174 -0.5326
vn 0.4621 0.8507 -0.2505
vn 0.6761 0.6798 0.2840
vn 0.3143 0.8448 0.4330
vn -0.2881 0.8730 0.3935
vn -0.6154 0.7649 0.1902
vn -0.5016 0.8576 -0.1134
vn -0.1838 0.9003 -0.3946
vn 0.1566 0.9146 -0.3728
vn 0.5039 0.8508 -0.1491
s 0
f 3//1 2//1 1//1
f 4//1 3//1 1//1
f 5//1 4//1 1//1
f 6//1 5//1 1//1
f 7//1 6//1 1//1
f 8//1 7//1 1//1
f 9//1 8//1 1//1
f 2//1 9//1 1//1
f 3//2 11//2 10//2 2//2
f 4//3 12//3 11//3 3//3
f 5//4 13//4 12//4 4//4
f 6//5 14//5 13//5 5//5
f 7//6 15//6 14//6 6//6
f 8//7 16//7 15//7 7//7
f 9//8 17//8 16//8 8//8
f 2//9 10//9 17//9 9//9
f 11//10 19//10 18//10 10//10
f 12//11 20//11 19//11 11//11
f 13//12 21//12 20//12 12//12
f 14//13 22//13 21//13 13//13
f 15//14 23//14 22//14 14//14
f 16//15 24//15 23//15 15//15
f 17//16 25//16 24//16 16//16
f 10//17 18//17 25//17 17//17
f 19//18 27//18 26//18 18//18
f 20//19 28//19 27//19 19//19
f 21//20 29//20 28//20 20//20
f 22//21 30//21 29//21 21//21
f 23//22 31//22 30//22 22//22
f 24//23 32//23 31//23 23//23
f 25//24 33//24 32//24 24//24
f 18//25 26//25 33//25 25//25
