# Blender 4.4.1
# www.blender.org
o Hill_231
v 0.000819 0.000000 -1.133398
v 0.000819 8.073940 -1.133398
v 0.000819 8.073940 -1.133398
v 0.000819 8.073940 -1.133398
v 0.000819 8.073940 -1.133398
v 0.000819 8.073940 -1.133398
v 0.000819 8.073940 -1.133398
v 0.000819 8.073940 -1.133398
v 0.000819 8.073940 -1.133398
v 3.156325 6.781697 -1.133398
v 2.157912 6.322266 1.023694
v 0.000819 6.291893 2.045156
v -2.196173 6.510215 1.063595
v -3.107504 6.466705 -1.133398
v -2.413492 6.711177 -3.547709
v 0.000819 6.422416 -4.259751
v 2.331138 6.524790 -3.463717
v 7.166022 3.411931 -1.133398
v 4.076727 4.115797 2.942510
v 0.000819 4.099272 5.659448
v -4.467544 3.623677 3.334965
v -6.904174 3.169255 -1.133398
v -4.644248 3.311237 -5.778465
v 0.000819 3.714619 -7.996055
v 4.278152 4.082267 -5.410730
v 8.783381 -0.498886 -1.133398
v 7.399931 -0.705994 6.265714
v 0.000819 0.581420 9.276112
v -6.439539 -0.294222 5.306960
v -8.783381 0.354923 -1.133398
v -5.851331 0.132230 -6.985548
v 0.000819 -0.423458 -9.276112
v 7.772370 0.028137 -8.904949
vn -0.0000 1.0000 -0.0000
vn 0.3551 0.8672 0.3491
vn 0.2142 0.8520 0.4777
vn -0.1307 0.8648 0.4848
vn -0.4526 0.8753 0.1704
vn -0.4589 0.8875 -0.0420
vn -0.0320 0.8838 -0.4669
vn 0.1198 0.8778 -0.4637
vn 0.3688 0.9006 -0.2299
vn 0.5789 0.7361 0.3508
vn 0.3084 0.7938 0.5242
vn -0.3040 0.7761 0.5525
vn -0.6374 0.7232 0.2661
vn -0.6783 0.6924 -0.2459
vn -0.2754 0.7214 -0.6354
vn 0.2533 0.7584 -0.6005
vn 0.6144 0.7300 -0.2996
vn 0.7850 0.5515 0.2821
vn 0.3877 0.6760 0.6267
vn -0.4515 0.6095 0.6517
vn -0.7672 0.5402 0.3458
vn -0.7837 0.4824 -0.3913
vn -0.3649 0.3530 -0.8615
vn 0.1640 0.5480 -0.8203
vn 0.7842 0.5889 -0.1952
s 0
f 3//1 2//1 1//1
f 4//1 3//1 1//1
f 5//1 4//1 1//1
f 6//1 5//1 1//1
f 7//1 6//1 1//1
f 8//1 7//1 1//1
f 9//1 8//1 1//1
f 2//1 9//1 1//1
f 3//2 11//2 10//2 2//2
f 4//3 12//3 11//3 3//3
f 5//4 13//4 12//4 4//4
f 6//5 14//5 13//5 5//5
f 7//6 15//6 14//6 6//6
f 8//7 16//7 15//7 7//7
f 9//8 17//8 16//8 8//8
f 2//9 10//9 17//9 9//9
f 11//10 19//10 18//10 10//10
f 12//11 20//11 19//11 11//11
f 13//12 21//12 20//12 12//12
f 14//13 22//13 21//13 13//13
f 15//14 23//14 22//14 14//14
f 16//15 24//15 23//15 15//15
f 17//16 25//16 24//16 16//16
f 10//17 18//17 25//17 17//17
f 19//18 27//18 26//18 18//18
f 20//19 28//19 27//19 19//19
f 21//20 29//20 28//20 20//20
f 22//21 30//21 29//21 21//21
f 23//22 31//22 30//22 22//22
f 24//23 32//23 31//23 23//23
f 25//24 33//24 32//24 24//24
f 18//25 26//25 33//25 25//25
