# Blender 4.4.1
# www.blender.org
o Hill_145
v -0.051449 0.000000 0.264571
v -0.051449 7.845076 0.264571
v -0.051449 7.845076 0.264571
v -0.051449 7.845076 0.264571
v -0.051449 7.845076 0.264571
v -0.051449 7.845076 0.264571
v -0.051449 7.845076 0.264571
v -0.051449 7.845076 0.264571
v -0.051449 7.845076 0.264571
v 3.266431 6.104840 0.264571
v 2.190031 6.422571 2.506051
v -0.051449 6.349820 3.426354
v -2.334352 6.285354 2.547474
v -3.388323 6.550113 0.264571
v -2.316757 6.204032 -2.000737
v -0.051449 6.138980 -3.188958
v 2.255064 6.412872 -2.041942
v 6.538409 4.074558 0.264571
v 4.493730 3.251713 4.809751
v -0.051449 3.185842 6.424081
v -4.321613 3.722057 4.534734
v -5.977166 3.753650 0.264571
v -4.257071 3.093809 -3.941050
v -0.051449 3.830905 -7.205303
v 4.898704 3.767295 -4.685582
v 8.387329 -0.442249 0.264571
v 8.227688 0.117009 8.543709
v -0.051449 0.340847 10.756271
v -7.968499 -0.762918 8.181621
v -8.387329 -0.460767 0.264571
v -6.050519 0.351952 -5.734499
v -0.051449 0.578655 -10.756271
v 6.453220 -0.139443 -6.240098
vn -0.0000 1.0000 -0.0000
vn 0.4623 0.8814 0.0971
vn 0.1447 0.8945 0.4230
vn -0.1868 0.8881 0.4200
vn -0.3488 0.8989 0.2653
vn -0.3452 0.8896 -0.2992
vn -0.2023 0.8780 -0.4338
vn 0.1131 0.8908 -0.4401
vn 0.4628 0.8824 -0.0851
vn 0.5724 0.7552 0.3195
vn 0.2466 0.6731 0.6972
vn -0.2418 0.6834 0.6888
vn -0.6651 0.6813 0.3058
vn -0.6662 0.6378 -0.3865
vn -0.4363 0.7318 -0.5236
vn 0.2375 0.8222 -0.5173
vn 0.5506 0.8102 -0.2011
vn 0.7645 0.6282 0.1443
vn 0.1698 0.8276 0.5349
vn -0.2518 0.7673 0.5898
vn -0.7809 0.6064 0.1495
vn -0.7796 0.5489 -0.3017
vn -0.5145 0.6513 -0.5578
vn 0.4546 0.5805 -0.6756
vn 0.8735 0.4033 -0.2727
s 0
f 3//1 2//1 1//1
f 4//1 3//1 1//1
f 5//1 4//1 1//1
f 6//1 5//1 1//1
f 7//1 6//1 1//1
f 8//1 7//1 1//1
f 9//1 8//1 1//1
f 2//1 9//1 1//1
f 3//2 11//2 10//2 2//2
f 4//3 12//3 11//3 3//3
f 5//4 13//4 12//4 4//4
f 6//5 14//5 13//5 5//5
f 7//6 15//6 14//6 6//6
f 8//7 16//7 15//7 7//7
f 9//8 17//8 16//8 8//8
f 2//9 10//9 17//9 9//9
f 11//10 19//10 18//10 10//10
f 12//11 20//11 19//11 11//11
f 13//12 21//12 20//12 12//12
f 14//13 22//13 21//13 13//13
f 15//14 23//14 22//14 14//14
f 16//15 24//15 23//15 15//15
f 17//16 25//16 24//16 16//16
f 10//17 18//17 25//17 17//17
f 19//18 27//18 26//18 18//18
f 20//19 28//19 27//19 19//19
f 21//20 29//20 28//20 20//20
f 22//21 30//21 29//21 21//21
f 23//22 31//22 30//22 22//22
f 24//23 32//23 31//23 23//23
f 25//24 33//24 32//24 24//24
f 18//25 26//25 33//25 25//25
