# Blender 4.4.1
# www.blender.org
o Hill_250
v -0.320429 0.000000 -0.164292
v -0.320429 5.261800 -0.164292
v -0.320429 5.261800 -0.164292
v -0.320429 5.261800 -0.164292
v -0.320429 5.261800 -0.164292
v -0.320429 5.261800 -0.164292
v -0.320429 5.261800 -0.164292
v -0.320429 5.261800 -0.164292
v -0.320429 5.261800 -0.164292
v 2.949762 4.239780 -0.164292
v 1.959639 4.251390 2.115776
v -0.320429 4.221190 2.922819
v -2.486660 4.398602 2.001940
v -3.579529 4.224505 -0.164292
v -2.424550 4.369405 -2.268414
v -0.320429 4.215785 -3.175382
v 1.973228 4.306119 -2.457948
v 5.675611 2.641049 -0.164292
v 4.451612 2.329965 4.607749
v -0.320429 2.230925 6.826484
v -4.624678 2.096645 4.139957
v -6.676956 2.234359 -0.164292
v -4.840253 2.499850 -4.684116
v -0.320429 2.413578 -5.914353
v 3.755733 2.458728 -4.240454
v 10.040836 0.188784 -0.164292
v 6.949193 0.356374 7.105330
v -0.320429 0.360027 9.965039
v -7.192247 -0.444741 6.707527
v -10.040836 0.216855 -0.164292
v -6.740217 0.093952 -6.584080
v -0.320429 -0.194693 -9.965039
v 5.798725 0.385980 -6.283445
vn -0.0000 1.0000 -0.0000
vn 0.2960 0.9471 0.1237
vn 0.1000 0.9429 0.3178
vn -0.0581 0.9460 0.3189
vn -0.3024 0.9501 0.0762
vn -0.3018 0.9481 -0.1003
vn -0.0723 0.9422 -0.3273
vn 0.0653 0.9426 -0.3275
vn 0.2968 0.9498 -0.0989
vn 0.4857 0.8535 0.1887
vn 0.1817 0.8688 0.4606
vn -0.2692 0.8275 0.4927
vn -0.5461 0.7961 0.2610
vn -0.5106 0.8411 -0.1785
vn -0.1407 0.8364 -0.5298
vn 0.1962 0.7994 -0.5679
vn 0.5226 0.8143 -0.2525
vn 0.4846 0.8552 0.1839
vn 0.2000 0.8484 0.4901
vn -0.3250 0.8133 0.4826
vn -0.5058 0.8159 0.2802
vn -0.5662 0.7836 -0.2557
vn -0.2205 0.7794 -0.5864
vn 0.2348 0.8073 -0.5414
vn 0.4873 0.8225 -0.2933
s 0
f 3//1 2//1 1//1
f 4//1 3//1 1//1
f 5//1 4//1 1//1
f 6//1 5//1 1//1
f 7//1 6//1 1//1
f 8//1 7//1 1//1
f 9//1 8//1 1//1
f 2//1 9//1 1//1
f 3//2 11//2 10//2 2//2
f 4//3 12//3 11//3 3//3
f 5//4 13//4 12//4 4//4
f 6//5 14//5 13//5 5//5
f 7//6 15//6 14//6 6//6
f 8//7 16//7 15//7 7//7
f 9//8 17//8 16//8 8//8
f 2//9 10//9 17//9 9//9
f 11//10 19//10 18//10 10//10
f 12//11 20//11 19//11 11//11
f 13//12 21//12 20//12 12//12
f 14//13 22//13 21//13 13//13
f 15//14 23//14 22//14 14//14
f 16//15 24//15 23//15 15//15
f 17//16 25//16 24//16 16//16
f 10//17 18//17 25//17 17//17
f 19//18 27//18 26//18 18//18
f 20//19 28//19 27//19 19//19
f 21//20 29//20 28//20 20//20
f 22//21 30//21 29//21 21//21
f 23//22 31//22 30//22 22//22
f 24//23 32//23 31//23 23//23
f 25//24 33//24 32//24 24//24
f 18//25 26//25 33//25 25//25
