# Blender 4.4.1
# www.blender.org
o Hill_219
v -0.656977 0.000000 -0.751916
v -0.656977 8.991606 -0.751916
v -0.656977 8.991606 -0.751916
v -0.656977 8.991606 -0.751916
v -0.656977 8.991606 -0.751916
v -0.656977 8.991606 -0.751916
v -0.656977 8.991606 -0.751916
v -0.656977 8.991606 -0.751916
v -0.656977 8.991606 -0.751916
v 1.616393 7.194156 -0.751916
v 0.934501 7.400874 0.839562
v -0.656977 7.554292 1.426681
v -2.334800 7.526605 0.925907
v -3.004603 7.289712 -0.751916
v -2.235424 7.116114 -2.330363
v -0.656977 6.991819 -2.914021
v 1.014601 7.450555 -2.423493
v 4.383429 4.115239 -0.751916
v 2.663910 3.796326 2.568971
v -0.656977 3.613784 3.269412
v -4.105097 4.640399 2.696205
v -4.635021 3.612993 -0.751916
v -4.145062 3.879408 -4.240002
v -0.656977 4.163489 -5.421924
v 2.398093 3.808431 -3.806985
v 6.061042 0.466178 -0.751916
v 4.970057 -0.343397 4.875117
v -0.656977 -0.559075 7.232570
v -4.948727 0.625572 3.539835
v -6.061042 -0.246336 -0.751916
v -5.070594 -0.469050 -5.165533
v -0.656977 -0.845263 -7.232570
v 3.752291 0.797465 -5.161183
vn -0.0000 1.0000 -0.0000
vn 0.6121 0.7741 0.1617
vn 0.2729 0.8030 0.5298
vn -0.1754 0.8218 0.5422
vn -0.5828 0.8039 0.1191
vn -0.5496 0.7581 -0.3512
vn -0.1898 0.7208 -0.6667
vn -0.0022 0.7341 -0.6790
vn 0.6170 0.7803 -0.1024
vn 0.7248 0.5827 0.3676
vn 0.2228 0.4584 0.8604
vn -0.0882 0.4837 0.8708
vn -0.8747 0.4768 0.0871
vn -0.8481 0.4900 -0.2018
vn -0.2753 0.6211 -0.7338
vn 0.3333 0.5372 -0.7748
vn 0.7365 0.5390 -0.4088
vn 0.8035 0.5045 0.3160
vn 0.2272 0.6258 0.7462
vn -0.3011 0.5057 0.8085
vn -0.9488 0.2875 0.1308
vn -0.9411 0.2893 -0.1747
vn -0.3605 0.2945 -0.8851
vn 0.3513 0.3944 -0.8491
vn 0.7771 0.4444 -0.4456
s 0
f 3//1 2//1 1//1
f 4//1 3//1 1//1
f 5//1 4//1 1//1
f 6//1 5//1 1//1
f 7//1 6//1 1//1
f 8//1 7//1 1//1
f 9//1 8//1 1//1
f 2//1 9//1 1//1
f 3//2 11//2 10//2 2//2
f 4//3 12//3 11//3 3//3
f 5//4 13//4 12//4 4//4
f 6//5 14//5 13//5 5//5
f 7//6 15//6 14//6 6//6
f 8//7 16//7 15//7 7//7
f 9//8 17//8 16//8 8//8
f 2//9 10//9 17//9 9//9
f 11//10 19//10 18//10 10//10
f 12//11 20//11 19//11 11//11
f 13//12 21//12 20//12 12//12
f 14//13 22//13 21//13 13//13
f 15//14 23//14 22//14 14//14
f 16//15 24//15 23//15 15//15
f 17//16 25//16 24//16 16//16
f 10//17 18//17 25//17 17//17
f 19//18 27//18 26//18 18//18
f 20//19 28//19 27//19 19//19
f 21//20 29//20 28//20 20//20
f 22//21 30//21 29//21 21//21
f 23//22 31//22 30//22 22//22
f 24//23 32//23 31//23 23//23
f 25//24 33//24 32//24 24//24
f 18//25 26//25 33//25 25//25
