# Blender 4.4.1
# www.blender.org
o Hill_255
v 0.184933 0.000000 -0.373221
v 0.184933 8.114287 -0.373221
v 0.184933 8.114287 -0.373221
v 0.184933 8.114287 -0.373221
v 0.184933 8.114287 -0.373221
v 0.184933 8.114287 -0.373221
v 0.184933 8.114287 -0.373221
v 0.184933 8.114287 -0.373221
v 0.184933 8.114287 -0.373221
v 2.647332 6.721768 -0.373221
v 2.106023 6.513968 1.547869
v 0.184933 6.754425 2.364963
v -1.724168 6.621765 1.535880
v -2.421694 6.645249 -0.373221
v -1.684009 6.720344 -2.242163
v 0.184933 6.596469 -3.167578
v 2.091263 6.320408 -2.279550
v 5.842029 3.611655 -0.373221
v 3.712830 3.375589 3.154676
v 0.184933 4.226300 4.911178
v -3.901818 3.745732 3.713531
v -5.238733 3.199527 -0.373221
v -3.480035 3.383818 -4.038189
v 0.184933 3.538110 -5.642720
v 3.466193 3.691059 -3.654480
v 6.667431 0.131502 -0.373221
v 5.462570 0.791251 4.904416
v 0.184933 0.206407 8.326811
v -4.642923 0.530308 4.454636
v -6.776394 -0.383685 -0.373221
v -5.409265 -0.144394 -5.967419
v 0.184933 0.586248 -8.326811
v 6.776394 0.300631 -6.964681
vn -0.0000 1.0000 -0.0000
vn 0.4794 0.8478 0.2268
vn 0.2885 0.8576 0.4259
vn -0.2475 0.8678 0.4310
vn -0.4823 0.8558 0.1868
vn -0.4849 0.8604 -0.1568
vn -0.1753 0.8651 -0.4699
vn 0.3300 0.8295 -0.4506
vn 0.4679 0.8274 -0.3107
vn 0.6815 0.6226 0.3847
vn 0.4351 0.6093 0.6629
vn -0.2934 0.6934 0.6581
vn -0.7364 0.6484 0.1933
vn -0.7463 0.5895 -0.3090
vn -0.3394 0.5865 -0.7354
vn 0.4063 0.5775 -0.7081
vn 0.6618 0.6258 -0.4129
vn 0.8445 0.4447 0.2984
vn 0.4089 0.6270 0.6631
vn -0.4398 0.4808 0.7585
vn -0.8960 0.3324 0.2944
vn -0.8380 0.4793 -0.2610
vn -0.3605 0.6098 -0.7058
vn 0.2287 0.7291 -0.6451
vn 0.8057 0.5672 -0.1707
s 0
f 3//1 2//1 1//1
f 4//1 3//1 1//1
f 5//1 4//1 1//1
f 6//1 5//1 1//1
f 7//1 6//1 1//1
f 8//1 7//1 1//1
f 9//1 8//1 1//1
f 2//1 9//1 1//1
f 3//2 11//2 10//2 2//2
f 4//3 12//3 11//3 3//3
f 5//4 13//4 12//4 4//4
f 6//5 14//5 13//5 5//5
f 7//6 15//6 14//6 6//6
f 8//7 16//7 15//7 7//7
f 9//8 17//8 16//8 8//8
f 2//9 10//9 17//9 9//9
f 11//10 19//10 18//10 10//10
f 12//11 20//11 19//11 11//11
f 13//12 21//12 20//12 12//12
f 14//13 22//13 21//13 13//13
f 15//14 23//14 22//14 14//14
f 16//15 24//15 23//15 15//15
f 17//16 25//16 24//16 16//16
f 10//17 18//17 25//17 17//17
f 19//18 27//18 26//18 18//18
f 20//19 28//19 27//19 19//19
f 21//20 29//20 28//20 20//20
f 22//21 30//21 29//21 21//21
f 23//22 31//22 30//22 22//22
f 24//23 32//23 31//23 23//23
f 25//24 33//24 32//24 24//24
f 18//25 26//25 33//25 25//25
