# Blender 4.4.1
# www.blender.org
o Hill_166
v -0.580070 0.000000 -0.486590
v -0.580070 7.529577 -0.486590
v -0.580070 7.529577 -0.486590
v -0.580070 7.529577 -0.486590
v -0.580070 7.529577 -0.486590
v -0.580070 7.529577 -0.486590
v -0.580070 7.529577 -0.486590
v -0.580070 7.529577 -0.486590
v -0.580070 7.529577 -0.486590
v 2.367328 5.981171 -0.486590
v 1.688586 6.153499 1.782066
v -0.580070 6.258802 2.678090
v -2.748877 5.884480 1.682217
v -3.441728 6.248762 -0.486590
v -2.631229 5.934963 -2.537749
v -0.580070 6.280565 -3.616153
v 1.672850 5.840989 -2.739511
v 4.926202 3.508487 -0.486590
v 4.035071 3.661667 4.128551
v -0.580070 3.278644 5.728639
v -4.330203 3.233007 3.263543
v -6.618879 3.585356 -0.486590
v -5.144472 3.122634 -5.050992
v -0.580070 3.126129 -6.742641
v 3.148165 3.346246 -4.214825
v 8.422685 -0.436087 -0.486590
v 6.103834 -0.613014 6.197314
v -0.580070 -0.534323 10.328739
v -5.859230 -0.525667 4.792569
v -8.422685 -0.440863 -0.486590
v -6.038764 0.281284 -5.945283
v -0.580070 -0.059717 -10.328739
v 5.776706 0.241222 -6.843366
vn -0.0000 1.0000 -0.0000
vn 0.4639 0.8830 0.0717
vn 0.1869 0.9116 0.3661
vn -0.3145 0.8809 0.3537
vn -0.3930 0.8781 0.2730
vn -0.3912 0.8740 -0.2883
vn -0.3315 0.8762 -0.3497
vn 0.3095 0.8832 -0.3525
vn 0.4562 0.8683 -0.1947
vn 0.6772 0.7259 0.1201
vn 0.2065 0.7305 0.6509
vn -0.4197 0.6440 0.6397
vn -0.6227 0.6752 0.3954
vn -0.5927 0.7503 -0.2928
vn -0.3004 0.7190 -0.6268
vn 0.3978 0.6397 -0.6577
vn 0.6878 0.6528 -0.3173
vn 0.7802 0.5844 0.2229
vn 0.3300 0.6494 0.6851
vn -0.5348 0.5943 0.6007
vn -0.7887 0.4249 0.4444
vn -0.8657 0.3822 -0.3233
vn -0.4066 0.5831 -0.7033
vn 0.3218 0.7300 -0.6029
vn 0.6779 0.6868 -0.2623
s 0
f 3//1 2//1 1//1
f 4//1 3//1 1//1
f 5//1 4//1 1//1
f 6//1 5//1 1//1
f 7//1 6//1 1//1
f 8//1 7//1 1//1
f 9//1 8//1 1//1
f 2//1 9//1 1//1
f 3//2 11//2 10//2 2//2
f 4//3 12//3 11//3 3//3
f 5//4 13//4 12//4 4//4
f 6//5 14//5 13//5 5//5
f 7//6 15//6 14//6 6//6
f 8//7 16//7 15//7 7//7
f 9//8 17//8 16//8 8//8
f 2//9 10//9 17//9 9//9
f 11//10 19//10 18//10 10//10
f 12//11 20//11 19//11 11//11
f 13//12 21//12 20//12 12//12
f 14//13 22//13 21//13 13//13
f 15//14 23//14 22//14 14//14
f 16//15 24//15 23//15 15//15
f 17//16 25//16 24//16 16//16
f 10//17 18//17 25//17 17//17
f 19//18 27//18 26//18 18//18
f 20//19 28//19 27//19 19//19
f 21//20 29//20 28//20 20//20
f 22//21 30//21 29//21 21//21
f 23//22 31//22 30//22 22//22
f 24//23 32//23 31//23 23//23
f 25//24 33//24 32//24 24//24
f 18//25 26//25 33//25 25//25
