# Blender 4.4.1
# www.blender.org
o Hill_226
v 1.799663 0.000000 -0.269953
v 1.799663 5.467362 -0.269953
v 1.799663 5.467362 -0.269953
v 1.799663 5.467362 -0.269953
v 1.799663 5.467362 -0.269953
v 1.799663 5.467362 -0.269953
v 1.799663 5.467362 -0.269953
v 1.799663 5.467362 -0.269953
v 1.799663 5.467362 -0.269953
v 5.070841 4.273442 -0.269953
v 4.005071 4.260755 1.935454
v 1.799663 4.412499 2.808885
v -0.482075 4.281759 2.011785
v -1.338378 4.511786 -0.269953
v -0.391641 4.268811 -2.461257
v 1.799663 4.289332 -3.312932
v 4.095109 4.466011 -2.565399
v 8.433331 2.718821 -0.269953
v 6.138998 2.292356 4.069381
v 1.799663 2.238721 5.736998
v -2.919504 2.444019 4.449214
v -4.793861 2.849073 -0.269953
v -2.901891 2.435067 -4.971508
v 1.799663 2.229855 -6.407883
v 6.017701 2.448693 -4.487991
v 9.341040 -0.324133 -0.269953
v 9.235435 -0.039534 7.165819
v 1.799663 0.334066 8.515119
v -5.446168 -0.021121 6.975878
v -9.341040 0.276253 -0.269953
v -4.726650 0.243473 -6.796266
v 1.799663 -0.014569 -8.515119
v 7.867613 -0.297128 -6.337904
vn -0.0000 1.0000 -0.0000
vn 0.3379 0.9259 0.1686
vn 0.1899 0.9288 0.3182
vn -0.1651 0.9330 0.3197
vn -0.2853 0.9370 0.2015
vn -0.2838 0.9319 -0.2259
vn -0.1474 0.9224 -0.3571
vn 0.0457 0.9316 -0.3606
vn 0.3421 0.9373 -0.0668
vn 0.4377 0.8537 0.2820
vn 0.2283 0.7984 0.5571
vn -0.1538 0.8236 0.5459
vn -0.4192 0.8748 0.2429
vn -0.4083 0.8774 -0.2518
vn -0.1494 0.8422 -0.5181
vn 0.1872 0.7963 -0.5752
vn 0.4751 0.8415 -0.2574
vn 0.7453 0.6473 0.1597
vn 0.1566 0.8384 0.5221
vn -0.1484 0.7968 0.5857
vn -0.4871 0.8261 0.2834
vn -0.5051 0.7998 -0.3245
vn -0.1688 0.6918 -0.7021
vn 0.2821 0.6581 -0.6981
vn 0.8122 0.4887 -0.3186
s 0
f 3//1 2//1 1//1
f 4//1 3//1 1//1
f 5//1 4//1 1//1
f 6//1 5//1 1//1
f 7//1 6//1 1//1
f 8//1 7//1 1//1
f 9//1 8//1 1//1
f 2//1 9//1 1//1
f 3//2 11//2 10//2 2//2
f 4//3 12//3 11//3 3//3
f 5//4 13//4 12//4 4//4
f 6//5 14//5 13//5 5//5
f 7//6 15//6 14//6 6//6
f 8//7 16//7 15//7 7//7
f 9//8 17//8 16//8 8//8
f 2//9 10//9 17//9 9//9
f 11//10 19//10 18//10 10//10
f 12//11 20//11 19//11 11//11
f 13//12 21//12 20//12 12//12
f 14//13 22//13 21//13 13//13
f 15//14 23//14 22//14 14//14
f 16//15 24//15 23//15 15//15
f 17//16 25//16 24//16 16//16
f 10//17 18//17 25//17 17//17
f 19//18 27//18 26//18 18//18
f 20//19 28//19 27//19 19//19
f 21//20 29//20 28//20 20//20
f 22//21 30//21 29//21 21//21
f 23//22 31//22 30//22 22//22
f 24//23 32//23 31//23 23//23
f 25//24 33//24 32//24 24//24
f 18//25 26//25 33//25 25//25
