# Blender 4.4.1
# www.blender.org
o Hill_260
v -0.795956 0.000000 0.076528
v -0.795956 9.291734 0.076528
v -0.795956 9.291734 0.076528
v -0.795956 9.291734 0.076528
v -0.795956 9.291734 0.076528
v -0.795956 9.291734 0.076528
v -0.795956 9.291734 0.076528
v -0.795956 9.291734 0.076528
v -0.795956 9.291734 0.076528
v 1.829030 7.430068 0.076528
v 0.991562 7.401240 1.864046
v -0.795956 7.291657 2.594600
v -2.482589 7.618329 1.763160
v -3.245281 7.739424 0.076528
v -2.630333 7.378801 -1.757850
v -0.795956 7.327821 -2.262995
v 1.049322 7.684922 -1.768750
v 4.602863 4.015136 0.076528
v 3.170413 4.534946 4.042897
v -0.795956 3.693233 4.837971
v -4.526759 3.872551 3.807330
v -6.357414 4.814433 0.076528
v -4.580749 4.760932 -3.708266
v -0.795956 4.295065 -4.580370
v 2.708580 3.838211 -3.428008
v 7.903120 -0.504181 0.076528
v 3.432454 -0.057940 4.304938
v -0.795956 -0.495389 6.774919
v -5.556718 -0.257944 4.837289
v -7.903120 0.444028 0.076528
v -5.199561 0.346838 -4.327078
v -0.795956 0.612248 -6.774919
v 3.745282 -0.756728 -4.464710
vn -0.0000 1.0000 -0.0000
vn 0.5565 0.7846 0.2734
vn 0.2019 0.7669 0.6092
vn -0.1531 0.7738 0.6146
vn -0.5124 0.8084 0.2897
vn -0.5060 0.7983 -0.3266
vn -0.1539 0.7568 -0.6353
vn 0.0240 0.7657 -0.6428
vn 0.5735 0.8087 -0.1307
vn 0.7238 0.6505 0.2300
vn 0.1154 0.5870 0.8013
vn -0.2288 0.5375 0.8116
vn -0.6445 0.6307 0.4323
vn -0.6392 0.6977 -0.3235
vn -0.1309 0.6259 -0.7689
vn 0.2586 0.5294 -0.8080
vn 0.7535 0.5443 -0.3687
vn 0.7857 0.3223 0.5280
vn 0.3270 0.2387 0.9144
vn -0.2932 0.3531 0.8884
vn -0.8288 0.3077 0.4673
vn -0.8492 0.2423 -0.4691
vn -0.3475 0.3313 -0.8772
vn 0.4369 0.3740 -0.8180
vn 0.7196 0.4065 -0.5630
s 0
f 3//1 2//1 1//1
f 4//1 3//1 1//1
f 5//1 4//1 1//1
f 6//1 5//1 1//1
f 7//1 6//1 1//1
f 8//1 7//1 1//1
f 9//1 8//1 1//1
f 2//1 9//1 1//1
f 3//2 11//2 10//2 2//2
f 4//3 12//3 11//3 3//3
f 5//4 13//4 12//4 4//4
f 6//5 14//5 13//5 5//5
f 7//6 15//6 14//6 6//6
f 8//7 16//7 15//7 7//7
f 9//8 17//8 16//8 8//8
f 2//9 10//9 17//9 9//9
f 11//10 19//10 18//10 10//10
f 12//11 20//11 19//11 11//11
f 13//12 21//12 20//12 12//12
f 14//13 22//13 21//13 13//13
f 15//14 23//14 22//14 14//14
f 16//15 24//15 23//15 15//15
f 17//16 25//16 24//16 16//16
f 10//17 18//17 25//17 17//17
f 19//18 27//18 26//18 18//18
f 20//19 28//19 27//19 19//19
f 21//20 29//20 28//20 20//20
f 22//21 30//21 29//21 21//21
f 23//22 31//22 30//22 22//22
f 24//23 32//23 31//23 23//23
f 25//24 33//24 32//24 24//24
f 18//25 26//25 33//25 25//25
