# Blender 4.4.1
# www.blender.org
o Hill_159
v -1.009323 0.000000 -0.144783
v -1.009323 9.690972 -0.144783
v -1.009323 9.690972 -0.144783
v -1.009323 9.690972 -0.144783
v -1.009323 9.690972 -0.144783
v -1.009323 9.690972 -0.144783
v -1.009323 9.690972 -0.144783
v -1.009323 9.690972 -0.144783
v -1.009323 9.690972 -0.144783
v 1.855676 7.512494 -0.144783
v 0.930710 8.141788 1.795249
v -1.009323 7.946595 2.824014
v -2.967839 7.600041 1.813733
v -3.654874 7.923694 -0.144783
v -3.108582 7.549914 -2.244042
v -1.009323 7.714428 -2.976516
v 0.947340 7.797986 -2.101447
v 4.742210 3.820765 -0.144783
v 3.053881 4.768072 3.918421
v -1.009323 4.325376 5.119517
v -5.091919 4.142982 3.937812
v -6.689871 3.790699 -0.144783
v -4.615180 4.922618 -3.750640
v -1.009323 4.197352 -5.063873
v 2.464897 4.551764 -3.619004
v 8.179678 0.314595 -0.144783
v 5.042305 0.920660 5.906845
v -1.009323 0.370983 8.601829
v -6.977826 -0.403401 5.823719
v -8.179678 0.741342 -0.144783
v -6.574015 0.456299 -5.709476
v -1.009323 0.251027 -8.601829
v 5.292218 -0.419491 -6.446325
vn -0.0000 1.0000 -0.0000
vn 0.6050 0.7957 0.0304
vn 0.1790 0.8483 0.4984
vn -0.3824 0.7966 0.4681
vn -0.5271 0.7891 0.3153
vn -0.5331 0.7981 -0.2808
vn -0.2552 0.7928 -0.5534
vn 0.2158 0.8007 -0.5589
vn 0.5972 0.7854 -0.1626
vn 0.7763 0.6043 0.1792
vn 0.2326 0.5689 0.7888
vn -0.3240 0.5691 0.7557
vn -0.7547 0.5921 0.2826
vn -0.7682 0.5776 -0.2762
vn -0.2386 0.5332 -0.8116
vn 0.3057 0.5004 -0.8101
vn 0.7582 0.5558 -0.3407
vn 0.7423 0.6178 0.2593
vn 0.2365 0.5975 0.7662
vn -0.3502 0.5544 0.7550
vn -0.8523 0.4465 0.2726
vn -0.8375 0.4608 -0.2936
vn -0.2941 0.5698 -0.7673
vn 0.2899 0.6152 -0.7331
vn 0.6873 0.6290 -0.3633
s 0
f 3//1 2//1 1//1
f 4//1 3//1 1//1
f 5//1 4//1 1//1
f 6//1 5//1 1//1
f 7//1 6//1 1//1
f 8//1 7//1 1//1
f 9//1 8//1 1//1
f 2//1 9//1 1//1
f 3//2 11//2 10//2 2//2
f 4//3 12//3 11//3 3//3
f 5//4 13//4 12//4 4//4
f 6//5 14//5 13//5 5//5
f 7//6 15//6 14//6 6//6
f 8//7 16//7 15//7 7//7
f 9//8 17//8 16//8 8//8
f 2//9 10//9 17//9 9//9
f 11//10 19//10 18//10 10//10
f 12//11 20//11 19//11 11//11
f 13//12 21//12 20//12 12//12
f 14//13 22//13 21//13 13//13
f 15//14 23//14 22//14 14//14
f 16//15 24//15 23//15 15//15
f 17//16 25//16 24//16 16//16
f 10//17 18//17 25//17 17//17
f 19//18 27//18 26//18 18//18
f 20//19 28//19 27//19 19//19
f 21//20 29//20 28//20 20//20
f 22//21 30//21 29//21 21//21
f 23//22 31//22 30//22 22//22
f 24//23 32//23 31//23 23//23
f 25//24 33//24 32//24 24//24
f 18//25 26//25 33//25 25//25
