# Blender 4.4.1
# www.blender.org
o Hill_144
v 0.124212 0.000000 0.427556
v 0.124212 6.467257 0.427556
v 0.124212 6.467257 0.427556
v 0.124212 6.467257 0.427556
v 0.124212 6.467257 0.427556
v 0.124212 6.467257 0.427556
v 0.124212 6.467257 0.427556
v 0.124212 6.467257 0.427556
v 0.124212 6.467257 0.427556
v 4.002387 5.148368 0.427556
v 2.773914 5.381945 3.077258
v 0.124212 5.267001 4.281512
v -2.573514 5.163363 3.125282
v -3.323400 5.120967 0.427556
v -2.395608 5.390095 -2.092264
v 0.124212 5.098595 -3.062555
v 2.804346 5.106877 -2.252579
v 6.978495 3.241375 0.427556
v 5.347076 2.982547 5.650420
v 0.124212 3.215601 8.414473
v -5.096904 3.013637 5.648672
v -7.534676 2.772059 0.427556
v -5.101619 2.772352 -4.798275
v 0.124212 3.164488 -7.629475
v 4.646878 3.308093 -4.095111
v 10.708092 0.204233 0.427556
v 7.140825 -0.579397 7.444170
v 0.124212 0.580739 9.474592
v -7.879642 -0.508548 8.431410
v -10.708092 -0.039808 0.427556
v -7.177143 0.054279 -6.873798
v 0.124212 0.117515 -9.474592
v 8.044222 0.380413 -7.492454
vn -0.0000 1.0000 -0.0000
vn 0.3213 0.9447 0.0657
vn 0.0933 0.9506 0.2961
vn -0.1620 0.9422 0.2934
vn -0.3624 0.9280 0.0862
vn -0.3635 0.9309 -0.0344
vn -0.0329 0.9305 -0.3649
vn 0.1068 0.9256 -0.3630
vn 0.3180 0.9351 -0.1566
vn 0.5414 0.8168 0.1993
vn 0.2485 0.8483 0.4677
vn -0.2538 0.8585 0.4456
vn -0.5019 0.8477 0.1716
vn -0.5199 0.8313 -0.1967
vn -0.2331 0.8610 -0.4521
vn 0.2439 0.8669 -0.4348
vn 0.5263 0.8112 -0.2551
vn 0.6729 0.6561 0.3417
vn 0.3673 0.4747 0.7998
vn -0.2755 0.5955 0.7546
vn -0.6406 0.7198 0.2674
vn -0.6345 0.7137 -0.2967
vn -0.3340 0.6093 -0.7192
vn 0.2630 0.7165 -0.6461
vn 0.5660 0.7968 -0.2117
s 0
f 3//1 2//1 1//1
f 4//1 3//1 1//1
f 5//1 4//1 1//1
f 6//1 5//1 1//1
f 7//1 6//1 1//1
f 8//1 7//1 1//1
f 9//1 8//1 1//1
f 2//1 9//1 1//1
f 3//2 11//2 10//2 2//2
f 4//3 12//3 11//3 3//3
f 5//4 13//4 12//4 4//4
f 6//5 14//5 13//5 5//5
f 7//6 15//6 14//6 6//6
f 8//7 16//7 15//7 7//7
f 9//8 17//8 16//8 8//8
f 2//9 10//9 17//9 9//9
f 11//10 19//10 18//10 10//10
f 12//11 20//11 19//11 11//11
f 13//12 21//12 20//12 12//12
f 14//13 22//13 21//13 13//13
f 15//14 23//14 22//14 14//14
f 16//15 24//15 23//15 15//15
f 17//16 25//16 24//16 16//16
f 10//17 18//17 25//17 17//17
f 19//18 27//18 26//18 18//18
f 20//19 28//19 27//19 19//19
f 21//20 29//20 28//20 20//20
f 22//21 30//21 29//21 21//21
f 23//22 31//22 30//22 22//22
f 24//23 32//23 31//23 23//23
f 25//24 33//24 32//24 24//24
f 18//25 26//25 33//25 25//25
