# Blender 4.4.1
# www.blender.org
o Hill_220
v -0.610629 0.000000 -1.218828
v -0.610629 8.520268 -1.218828
v -0.610629 8.520268 -1.218828
v -0.610629 8.520268 -1.218828
v -0.610629 8.520268 -1.218828
v -0.610629 8.520268 -1.218828
v -0.610629 8.520268 -1.218828
v -0.610629 8.520268 -1.218828
v -0.610629 8.520268 -1.218828
v 2.594075 7.032236 -1.218828
v 1.766314 6.681333 1.158115
v -0.610629 6.676475 2.109998
v -2.857132 6.880995 1.027676
v -3.593247 6.745399 -1.218828
v -2.795647 6.673751 -3.403846
v -0.610629 7.114987 -4.267837
v 1.667583 6.705964 -3.497040
v 5.399425 4.394814 -1.218828
v 3.532561 4.445607 2.924363
v -0.610629 3.649147 4.294812
v -4.678886 3.421988 2.849430
v -7.396947 4.394112 -1.218828
v -5.146856 3.691585 -5.755055
v -0.610629 4.094427 -7.629451
v 4.386908 4.028223 -6.216364
v 9.968433 0.808663 -1.218828
v 5.687667 -0.821526 5.079468
v -0.610629 0.668422 8.901795
v -6.287326 -0.797996 4.457870
v -9.968433 -0.557408 -1.218828
v -6.128816 -0.125298 -6.737015
v -0.610629 -0.706751 -8.901795
v 6.266515 0.038122 -8.095972
vn -0.0000 1.0000 -0.0000
vn 0.4055 0.8733 0.2701
vn 0.1888 0.8590 0.4758
vn -0.1520 0.8646 0.4789
vn -0.5080 0.8537 0.1149
vn -0.5000 0.8402 -0.2101
vn -0.3294 0.8575 -0.3952
vn 0.2914 0.8688 -0.4004
vn 0.4033 0.8685 -0.2884
vn 0.6402 0.7083 0.2972
vn 0.1909 0.6295 0.7532
vn -0.3093 0.5611 0.7678
vn -0.5862 0.6970 0.4130
vn -0.5411 0.7717 -0.3342
vn -0.3390 0.7149 -0.6116
vn 0.2321 0.7594 -0.6078
vn 0.6114 0.7557 -0.2349
vn 0.6438 0.6035 0.4704
vn 0.3744 0.6444 0.6667
vn -0.4781 0.6327 0.6092
vn -0.7308 0.4265 0.5330
vn -0.7887 0.3742 -0.4878
vn -0.3543 0.2742 -0.8940
vn 0.1512 0.3621 -0.9198
vn 0.6763 0.6579 -0.3315
s 0
f 3//1 2//1 1//1
f 4//1 3//1 1//1
f 5//1 4//1 1//1
f 6//1 5//1 1//1
f 7//1 6//1 1//1
f 8//1 7//1 1//1
f 9//1 8//1 1//1
f 2//1 9//1 1//1
f 3//2 11//2 10//2 2//2
f 4//3 12//3 11//3 3//3
f 5//4 13//4 12//4 4//4
f 6//5 14//5 13//5 5//5
f 7//6 15//6 14//6 6//6
f 8//7 16//7 15//7 7//7
f 9//8 17//8 16//8 8//8
f 2//9 10//9 17//9 9//9
f 11//10 19//10 18//10 10//10
f 12//11 20//11 19//11 11//11
f 13//12 21//12 20//12 12//12
f 14//13 22//13 21//13 13//13
f 15//14 23//14 22//14 14//14
f 16//15 24//15 23//15 15//15
f 17//16 25//16 24//16 16//16
f 10//17 18//17 25//17 17//17
f 19//18 27//18 26//18 18//18
f 20//19 28//19 27//19 19//19
f 21//20 29//20 28//20 20//20
f 22//21 30//21 29//21 21//21
f 23//22 31//22 30//22 22//22
f 24//23 32//23 31//23 23//23
f 25//24 33//24 32//24 24//24
f 18//25 26//25 33//25 25//25
