# Blender 4.4.1
# www.blender.org
o Hill_198
v -0.192281 0.000000 -0.543710
v -0.192281 7.393686 -0.543710
v -0.192281 7.393686 -0.543710
v -0.192281 7.393686 -0.543710
v -0.192281 7.393686 -0.543710
v -0.192281 7.393686 -0.543710
v -0.192281 7.393686 -0.543710
v -0.192281 7.393686 -0.543710
v -0.192281 7.393686 -0.543710
v 1.979837 6.182181 -0.543710
v 1.310835 6.025454 0.959405
v -0.192281 6.129961 1.706374
v -1.693935 6.087737 0.957944
v -2.379678 5.791528 -0.543710
v -1.688334 6.086032 -2.039763
v -0.192281 6.147466 -2.762540
v 1.461377 5.984949 -2.197368
v 4.381183 3.063777 -0.543710
v 3.031086 3.495263 2.679657
v -0.192281 3.826340 4.320794
v -3.392960 3.300306 2.656970
v -5.017033 3.785779 -0.543710
v -3.438469 3.807156 -3.789898
v -0.192281 3.231547 -4.720106
v 2.792211 3.131859 -3.528201
v 6.036258 -0.165787 -0.543710
v 3.752824 -0.409873 3.401395
v -0.192281 -0.190777 6.259664
v -5.652065 -0.300741 4.916075
v -6.036258 0.486229 -0.543710
v -4.275401 0.252492 -4.626830
v -0.192281 0.529351 -6.259664
v 3.961488 -0.062818 -4.697479
vn -0.0000 1.0000 -0.0000
vn 0.4655 0.8347 0.2942
vn 0.2908 0.8342 0.4685
vn -0.2594 0.8421 0.4729
vn -0.5873 0.8018 0.1100
vn -0.5871 0.8015 -0.1135
vn -0.2628 0.8412 -0.4725
vn 0.2453 0.8452 -0.4747
vn 0.4718 0.8459 -0.2488
vn 0.7339 0.6200 0.2775
vn 0.3764 0.6892 0.6192
vn -0.4026 0.6662 0.6278
vn -0.6345 0.6944 0.3396
vn -0.6239 0.7407 -0.2493
vn -0.2000 0.6129 -0.7644
vn 0.3275 0.5238 -0.7864
vn 0.7539 0.5509 -0.3579
vn 0.8470 0.3247 0.4208
vn 0.5219 0.3139 0.7931
vn -0.3129 0.5279 0.7896
vn -0.8346 0.4831 0.2645
vn -0.8692 0.2847 -0.4043
vn -0.2926 0.3735 -0.8803
vn 0.3593 0.4474 -0.8189
vn 0.8079 0.4288 -0.4044
s 0
f 3//1 2//1 1//1
f 4//1 3//1 1//1
f 5//1 4//1 1//1
f 6//1 5//1 1//1
f 7//1 6//1 1//1
f 8//1 7//1 1//1
f 9//1 8//1 1//1
f 2//1 9//1 1//1
f 3//2 11//2 10//2 2//2
f 4//3 12//3 11//3 3//3
f 5//4 13//4 12//4 4//4
f 6//5 14//5 13//5 5//5
f 7//6 15//6 14//6 6//6
f 8//7 16//7 15//7 7//7
f 9//8 17//8 16//8 8//8
f 2//9 10//9 17//9 9//9
f 11//10 19//10 18//10 10//10
f 12//11 20//11 19//11 11//11
f 13//12 21//12 20//12 12//12
f 14//13 22//13 21//13 13//13
f 15//14 23//14 22//14 14//14
f 16//15 24//15 23//15 15//15
f 17//16 25//16 24//16 16//16
f 10//17 18//17 25//17 17//17
f 19//18 27//18 26//18 18//18
f 20//19 28//19 27//19 19//19
f 21//20 29//20 28//20 20//20
f 22//21 30//21 29//21 21//21
f 23//22 31//22 30//22 22//22
f 24//23 32//23 31//23 23//23
f 25//24 33//24 32//24 24//24
f 18//25 26//25 33//25 25//25
