# Blender 4.4.1
# www.blender.org
o Hill_101
v -0.922791 0.000000 -0.156777
v -0.922791 8.265521 -0.156777
v -0.922791 8.265521 -0.156777
v -0.922791 8.265521 -0.156777
v -0.922791 8.265521 -0.156777
v -0.922791 8.265521 -0.156777
v -0.922791 8.265521 -0.156777
v -0.922791 8.265521 -0.156777
v -0.922791 8.265521 -0.156777
v 1.933544 6.886149 -0.156777
v 1.073766 6.703506 1.839781
v -0.922791 6.867853 2.744000
v -2.790820 6.602671 1.711252
v -3.827705 6.495851 -0.156777
v -2.993176 6.907019 -2.227161
v -0.922791 6.560747 -2.858088
v 1.136456 6.513372 -2.216024
v 4.553340 3.485365 -0.156777
v 3.097652 4.306039 3.863666
v -0.922791 4.287405 5.814519
v -4.835730 3.337810 3.756161
v -6.609675 3.580377 -0.156777
v -5.273892 3.390829 -4.507878
v -0.922791 4.276020 -5.634432
v 2.475410 3.250928 -3.554978
v 7.964554 0.606793 -0.156777
v 6.109611 0.598703 6.875626
v -0.922791 -0.137060 6.716937
v -6.228501 0.357032 5.148932
v -7.964554 0.457243 -0.156777
v -7.137174 0.056488 -6.371160
v -0.922791 -0.031727 -6.875626
v 5.476919 -0.342254 -6.556487
vn -0.0000 1.0000 -0.0000
vn 0.4199 0.8694 0.2603
vn 0.2613 0.8696 0.4190
vn -0.3452 0.8455 0.4074
vn -0.5059 0.8304 0.2333
vn -0.5198 0.8533 -0.0401
vn -0.0212 0.8455 -0.5336
vn 0.1827 0.8314 -0.5247
vn 0.4128 0.8548 -0.3145
vn 0.7261 0.6548 0.2100
vn 0.3033 0.7390 0.6016
vn -0.4542 0.6714 0.5856
vn -0.6805 0.6459 0.3460
vn -0.7260 0.6505 -0.2229
vn -0.2444 0.6900 -0.6813
vn 0.4483 0.5999 -0.6627
vn 0.7292 0.5221 -0.4423
vn 0.6732 0.7244 0.1484
vn 0.1108 0.4641 0.8788
vn -0.3590 0.3373 0.8703
vn -0.8293 0.4492 0.3325
vn -0.8522 0.4828 -0.2015
vn -0.1693 0.4061 -0.8980
vn 0.2690 0.5330 -0.8022
vn 0.5755 0.7358 -0.3570
s 0
f 3//1 2//1 1//1
f 4//1 3//1 1//1
f 5//1 4//1 1//1
f 6//1 5//1 1//1
f 7//1 6//1 1//1
f 8//1 7//1 1//1
f 9//1 8//1 1//1
f 2//1 9//1 1//1
f 3//2 11//2 10//2 2//2
f 4//3 12//3 11//3 3//3
f 5//4 13//4 12//4 4//4
f 6//5 14//5 13//5 5//5
f 7//6 15//6 14//6 6//6
f 8//7 16//7 15//7 7//7
f 9//8 17//8 16//8 8//8
f 2//9 10//9 17//9 9//9
f 11//10 19//10 18//10 10//10
f 12//11 20//11 19//11 11//11
f 13//12 21//12 20//12 12//12
f 14//13 22//13 21//13 13//13
f 15//14 23//14 22//14 14//14
f 16//15 24//15 23//15 15//15
f 17//16 25//16 24//16 16//16
f 10//17 18//17 25//17 17//17
f 19//18 27//18 26//18 18//18
f 20//19 28//19 27//19 19//19
f 21//20 29//20 28//20 20//20
f 22//21 30//21 29//21 21//21
f 23//22 31//22 30//22 22//22
f 24//23 32//23 31//23 23//23
f 25//24 33//24 32//24 24//24
f 18//25 26//25 33//25 25//25
