# Blender 4.4.1
# www.blender.org
o Hill_257
v -0.047828 0.000000 -1.813512
v -0.047828 7.199892 -1.813512
v -0.047828 7.199892 -1.813512
v -0.047828 7.199892 -1.813512
v -0.047828 7.199892 -1.813512
v -0.047828 7.199892 -1.813512
v -0.047828 7.199892 -1.813512
v -0.047828 7.199892 -1.813512
v -0.047828 7.199892 -1.813512
v 3.397201 5.806303 -1.813512
v 2.302461 6.015747 0.536777
v -0.047828 5.647418 1.534337
v -2.456584 5.885396 0.595244
v -3.499519 5.597900 -1.813512
v -2.514504 6.049699 -4.280189
v -0.047828 5.875607 -5.166748
v 2.416499 6.022778 -4.277838
v 7.086457 2.872435 -1.813512
v 4.335136 3.414080 2.569452
v -0.047828 3.233088 5.970368
v -4.975996 2.852073 3.114656
v -7.839511 3.023607 -1.813512
v -5.678761 3.572887 -7.444445
v -0.047828 3.143643 -9.124556
v 4.968293 3.053639 -6.829633
v 12.578691 0.107286 -1.813512
v 6.831980 0.597561 5.066295
v -0.047828 0.459933 10.869637
v -7.317047 0.512956 5.455707
v -12.578691 0.452734 -1.813512
v -6.246534 -0.406176 -8.012219
v -0.047828 -0.260207 -10.869637
v 6.607553 -0.002003 -8.468892
vn -0.0000 1.0000 -0.0000
vn 0.3734 0.9231 0.0917
vn 0.0364 0.9066 0.4204
vn -0.0742 0.9047 0.4195
vn -0.4198 0.9046 0.0738
vn -0.4210 0.9071 -0.0020
vn -0.0662 0.9281 -0.3665
vn 0.0767 0.9274 -0.3662
vn 0.3741 0.9249 -0.0676
vn 0.6180 0.7382 0.2706
vn 0.2817 0.7991 0.5311
vn -0.2868 0.8019 0.5242
vn -0.5449 0.7912 0.2776
vn -0.5262 0.8444 -0.1000
vn -0.1138 0.8253 -0.5531
vn 0.2425 0.7750 -0.5836
vn 0.6222 0.7520 -0.2178
vn 0.4853 0.8246 0.2906
vn 0.3683 0.7973 0.4782
vn -0.3387 0.8167 0.4672
vn -0.4668 0.8250 0.3185
vn -0.6575 0.5749 -0.4871
vn -0.3347 0.3050 -0.8916
vn 0.3166 0.5020 -0.8048
vn 0.5362 0.7602 -0.3669
s 0
f 3//1 2//1 1//1
f 4//1 3//1 1//1
f 5//1 4//1 1//1
f 6//1 5//1 1//1
f 7//1 6//1 1//1
f 8//1 7//1 1//1
f 9//1 8//1 1//1
f 2//1 9//1 1//1
f 3//2 11//2 10//2 2//2
f 4//3 12//3 11//3 3//3
f 5//4 13//4 12//4 4//4
f 6//5 14//5 13//5 5//5
f 7//6 15//6 14//6 6//6
f 8//7 16//7 15//7 7//7
f 9//8 17//8 16//8 8//8
f 2//9 10//9 17//9 9//9
f 11//10 19//10 18//10 10//10
f 12//11 20//11 19//11 11//11
f 13//12 21//12 20//12 12//12
f 14//13 22//13 21//13 13//13
f 15//14 23//14 22//14 14//14
f 16//15 24//15 23//15 15//15
f 17//16 25//16 24//16 16//16
f 10//17 18//17 25//17 17//17
f 19//18 27//18 26//18 18//18
f 20//19 28//19 27//19 19//19
f 21//20 29//20 28//20 20//20
f 22//21 30//21 29//21 21//21
f 23//22 31//22 30//22 22//22
f 24//23 32//23 31//23 23//23
f 25//24 33//24 32//24 24//24
f 18//25 26//25 33//25 25//25
