# Blender 4.4.1
# www.blender.org
o Hill_247
v -0.001870 0.000000 -0.667949
v -0.001870 8.735833 -0.667949
v -0.001870 8.735833 -0.667949
v -0.001870 8.735833 -0.667949
v -0.001870 8.735833 -0.667949
v -0.001870 8.735833 -0.667949
v -0.001870 8.735833 -0.667949
v -0.001870 8.735833 -0.667949
v -0.001870 8.735833 -0.667949
v 2.600346 6.999961 -0.667949
v 1.954778 7.111182 1.288700
v -0.001870 6.850441 2.035460
v -1.865589 7.051733 1.195771
v -2.574808 7.000693 -0.667949
v -1.745894 7.328057 -2.411972
v -0.001870 7.235662 -3.273771
v 1.948163 6.943733 -2.617981
v 5.165966 3.919666 -0.667949
v 3.526268 4.404269 2.860189
v -0.001870 3.889328 4.121706
v -4.151973 3.416937 3.482154
v -4.851287 4.329822 -0.667949
v -3.297760 3.985270 -3.963839
v -0.001870 3.834420 -5.278792
v 3.429482 3.403347 -4.099300
v 7.726187 0.313426 -0.667949
v 5.896032 -0.716048 5.229954
v -0.001870 -0.709543 7.236851
v -5.426201 -0.267559 4.756382
v -7.726187 -0.765541 -0.667949
v -4.767427 -0.426903 -5.433506
v -0.001870 -0.445012 -7.236851
v 5.205667 -0.100746 -5.875486
vn -0.0000 1.0000 -0.0000
vn 0.5499 0.8243 0.1346
vn 0.1084 0.8154 0.5687
vn -0.1668 0.8087 0.5640
vn -0.5493 0.8145 0.1867
vn -0.5558 0.8241 -0.1095
vn -0.1967 0.8497 -0.4892
vn 0.2852 0.8307 -0.4782
vn 0.5431 0.8142 -0.2051
vn 0.7548 0.6071 0.2485
vn 0.2100 0.5706 0.7939
vn -0.2178 0.5906 0.7770
vn -0.7343 0.6263 0.2617
vn -0.7449 0.5655 -0.3540
vn -0.3233 0.4986 -0.8043
vn 0.3403 0.4790 -0.8092
vn 0.7450 0.5423 -0.3884
vn 0.7852 0.5304 0.3197
vn 0.2543 0.5216 0.8144
vn -0.2727 0.4829 0.8321
vn -0.8499 0.4430 0.2854
vn -0.7883 0.4285 -0.4416
vn -0.3244 0.3940 -0.8600
vn 0.2541 0.4649 -0.8481
vn 0.7261 0.5469 -0.4167
s 0
f 3//1 2//1 1//1
f 4//1 3//1 1//1
f 5//1 4//1 1//1
f 6//1 5//1 1//1
f 7//1 6//1 1//1
f 8//1 7//1 1//1
f 9//1 8//1 1//1
f 2//1 9//1 1//1
f 3//2 11//2 10//2 2//2
f 4//3 12//3 11//3 3//3
f 5//4 13//4 12//4 4//4
f 6//5 14//5 13//5 5//5
f 7//6 15//6 14//6 6//6
f 8//7 16//7 15//7 7//7
f 9//8 17//8 16//8 8//8
f 2//9 10//9 17//9 9//9
f 11//10 19//10 18//10 10//10
f 12//11 20//11 19//11 11//11
f 13//12 21//12 20//12 12//12
f 14//13 22//13 21//13 13//13
f 15//14 23//14 22//14 14//14
f 16//15 24//15 23//15 15//15
f 17//16 25//16 24//16 16//16
f 10//17 18//17 25//17 17//17
f 19//18 27//18 26//18 18//18
f 20//19 28//19 27//19 19//19
f 21//20 29//20 28//20 20//20
f 22//21 30//21 29//21 21//21
f 23//22 31//22 30//22 22//22
f 24//23 32//23 31//23 23//23
f 25//24 33//24 32//24 24//24
f 18//25 26//25 33//25 25//25
