# Blender 4.4.1
# www.blender.org
o Hill_261
v -1.319898 0.000000 -0.167985
v -1.319898 7.585293 -0.167985
v -1.319898 7.585293 -0.167985
v -1.319898 7.585293 -0.167985
v -1.319898 7.585293 -0.167985
v -1.319898 7.585293 -0.167985
v -1.319898 7.585293 -0.167985
v -1.319898 7.585293 -0.167985
v -1.319898 7.585293 -0.167985
v 1.682814 6.143664 -0.167985
v 0.869855 5.916034 2.021768
v -1.319898 5.915293 2.633736
v -3.269664 5.905490 1.781782
v -4.130448 6.116087 -0.167985
v -3.357764 6.191903 -2.205851
v -1.319898 5.880135 -3.257089
v 0.824054 5.911909 -2.311937
v 4.443795 2.996549 -0.167985
v 2.992389 3.588732 4.144302
v -1.319898 3.255314 5.384165
v -5.257501 3.410002 3.769618
v -6.456494 3.600316 -0.167985
v -5.610531 2.953022 -4.458619
v -1.319898 3.782012 -6.565599
v 2.976067 3.197867 -4.463950
v 8.508002 -0.649146 -0.167985
v 5.959621 -0.486664 7.111534
v -1.319898 -0.739964 9.430406
v -6.350721 -0.478350 4.862838
v -8.508002 0.696235 -0.167985
v -7.336717 -0.249950 -6.184804
v -1.319898 0.671118 -9.430406
v 5.880167 -0.729907 -7.368050
vn -0.0000 1.0000 -0.0000
vn 0.4195 0.8737 0.2465
vn 0.1414 0.8504 0.5069
vn -0.2223 0.8375 0.4992
vn -0.4437 0.8488 0.2876
vn -0.4586 0.8773 -0.1413
vn -0.1146 0.8697 -0.4801
vn 0.1962 0.8585 -0.4739
vn 0.4178 0.8701 -0.2614
vn 0.6908 0.6944 0.2016
vn 0.1545 0.7233 0.6730
vn -0.2589 0.7058 0.6594
vn -0.6694 0.6877 0.2810
vn -0.7111 0.6603 -0.2415
vn -0.3465 0.7430 -0.5726
vn 0.3260 0.7693 -0.5495
vn 0.6934 0.6744 -0.2537
vn 0.6878 0.7001 0.1918
vn 0.1828 0.6823 0.7078
vn -0.4653 0.5278 0.7106
vn -0.8177 0.4386 0.3728
vn -0.7932 0.5590 -0.2416
vn -0.4459 0.6029 -0.6615
vn 0.3514 0.6759 -0.6478
vn 0.6701 0.7053 -0.2313
s 0
f 3//1 2//1 1//1
f 4//1 3//1 1//1
f 5//1 4//1 1//1
f 6//1 5//1 1//1
f 7//1 6//1 1//1
f 8//1 7//1 1//1
f 9//1 8//1 1//1
f 2//1 9//1 1//1
f 3//2 11//2 10//2 2//2
f 4//3 12//3 11//3 3//3
f 5//4 13//4 12//4 4//4
f 6//5 14//5 13//5 5//5
f 7//6 15//6 14//6 6//6
f 8//7 16//7 15//7 7//7
f 9//8 17//8 16//8 8//8
f 2//9 10//9 17//9 9//9
f 11//10 19//10 18//10 10//10
f 12//11 20//11 19//11 11//11
f 13//12 21//12 20//12 12//12
f 14//13 22//13 21//13 13//13
f 15//14 23//14 22//14 14//14
f 16//15 24//15 23//15 15//15
f 17//16 25//16 24//16 16//16
f 10//17 18//17 25//17 17//17
f 19//18 27//18 26//18 18//18
f 20//19 28//19 27//19 19//19
f 21//20 29//20 28//20 20//20
f 22//21 30//21 29//21 21//21
f 23//22 31//22 30//22 22//22
f 24//23 32//23 31//23 23//23
f 25//24 33//24 32//24 24//24
f 18//25 26//25 33//25 25//25
