# Blender 4.4.1
# www.blender.org
o Hill_083
v -1.022167 0.000000 0.306907
v -1.022167 5.554372 0.306907
v -1.022167 5.554372 0.306907
v -1.022167 5.554372 0.306907
v -1.022167 5.554372 0.306907
v -1.022167 5.554372 0.306907
v -1.022167 5.554372 0.306907
v -1.022167 5.554372 0.306907
v -1.022167 5.554372 0.306907
v 2.575665 4.635150 0.306907
v 1.443493 4.583773 2.772567
v -1.022167 4.663564 3.491615
v -3.566829 4.521776 2.851570
v -4.468098 4.330130 0.306907
v -3.439281 4.650805 -2.110206
v -1.022167 4.315743 -2.984244
v 1.229837 4.488249 -1.945097
v 6.040118 2.480237 0.306907
v 3.527446 2.790036 4.856520
v -1.022167 2.176544 7.950655
v -5.254174 2.733588 4.538914
v -8.376019 2.556273 0.306907
v -6.284775 2.665698 -4.955701
v -1.022167 2.569833 -6.913970
v 3.205723 2.727714 -3.920982
v 9.959173 -0.078074 0.306907
v 5.969015 -0.402392 7.298089
v -1.022167 0.441180 10.239232
v -9.614203 -0.146959 8.898943
v -9.959173 -0.070513 0.306907
v -6.950596 -0.297677 -5.621522
v -1.022167 -0.303129 -10.239232
v 6.892715 0.431392 -7.607975
vn -0.0000 1.0000 -0.0000
vn 0.2454 0.9603 0.1327
vn 0.1091 0.9573 0.2678
vn -0.1205 0.9560 0.2674
vn -0.3344 0.9412 0.0475
vn -0.3347 0.9422 -0.0175
vn 0.0024 0.9359 -0.3522
vn 0.0905 0.9321 -0.3508
vn 0.2422 0.9480 -0.2066
vn 0.5048 0.8316 0.2316
vn 0.2020 0.8478 0.4903
vn -0.2515 0.8256 0.5052
vn -0.4711 0.8506 0.2334
vn -0.4402 0.8886 -0.1291
vn -0.1132 0.8897 -0.4424
vn 0.2290 0.8687 -0.4392
vn 0.4835 0.8227 -0.2991
vn 0.5651 0.7607 0.3194
vn 0.3263 0.7337 0.5960
vn -0.1795 0.8593 0.4789
vn -0.6064 0.7793 0.1578
vn -0.8389 0.3835 -0.3863
vn -0.4214 0.5442 -0.7255
vn 0.1798 0.8346 -0.5207
vn 0.4686 0.8662 -0.1737
s 0
f 3//1 2//1 1//1
f 4//1 3//1 1//1
f 5//1 4//1 1//1
f 6//1 5//1 1//1
f 7//1 6//1 1//1
f 8//1 7//1 1//1
f 9//1 8//1 1//1
f 2//1 9//1 1//1
f 3//2 11//2 10//2 2//2
f 4//3 12//3 11//3 3//3
f 5//4 13//4 12//4 4//4
f 6//5 14//5 13//5 5//5
f 7//6 15//6 14//6 6//6
f 8//7 16//7 15//7 7//7
f 9//8 17//8 16//8 8//8
f 2//9 10//9 17//9 9//9
f 11//10 19//10 18//10 10//10
f 12//11 20//11 19//11 11//11
f 13//12 21//12 20//12 12//12
f 14//13 22//13 21//13 13//13
f 15//14 23//14 22//14 14//14
f 16//15 24//15 23//15 15//15
f 17//16 25//16 24//16 16//16
f 10//17 18//17 25//17 17//17
f 19//18 27//18 26//18 18//18
f 20//19 28//19 27//19 19//19
f 21//20 29//20 28//20 20//20
f 22//21 30//21 29//21 21//21
f 23//22 31//22 30//22 22//22
f 24//23 32//23 31//23 23//23
f 25//24 33//24 32//24 24//24
f 18//25 26//25 33//25 25//25
