# Blender 4.4.1
# www.blender.org
o Hill_121
v -0.752867 0.000000 -0.354893
v -0.752867 5.674717 -0.354893
v -0.752867 5.674717 -0.354893
v -0.752867 5.674717 -0.354893
v -0.752867 5.674717 -0.354893
v -0.752867 5.674717 -0.354893
v -0.752867 5.674717 -0.354893
v -0.752867 5.674717 -0.354893
v -0.752867 5.674717 -0.354893
v 1.290583 4.715501 -0.354893
v 0.696698 4.499481 1.094672
v -0.752867 4.739968 1.788710
v -2.262412 4.736144 1.154651
v -2.762954 4.483803 -0.354893
v -2.225533 4.563297 -1.827559
v -0.752867 4.408765 -2.473562
v 0.809159 4.680890 -1.916919
v 3.474906 2.268193 -0.354893
v 2.311748 2.306331 2.709722
v -0.752867 2.679743 4.465941
v -3.965314 2.222014 2.857554
v -4.892375 2.891875 -0.354893
v -3.679414 2.234704 -3.281440
v -0.752867 2.734739 -4.826449
v 2.137898 2.815161 -3.245658
v 6.567644 0.322461 -0.354893
v 3.613704 -0.179175 4.011678
v -0.752867 0.248686 7.194650
v -5.382804 -0.012677 4.275043
v -6.567644 0.469137 -0.354893
v -6.047429 -0.471234 -5.649455
v -0.752867 -0.205863 -7.194650
v 3.797996 -0.438627 -4.905756
vn -0.0000 1.0000 -0.0000
vn 0.4060 0.8649 0.2952
vn 0.3248 0.8669 0.3780
vn -0.1678 0.9036 0.3940
vn -0.5096 0.8601 0.0252
vn -0.5048 0.8521 -0.1382
vn -0.1337 0.8507 -0.5083
vn 0.0332 0.8580 -0.5126
vn 0.4202 0.8951 -0.1493
vn 0.6870 0.6647 0.2936
vn 0.4036 0.7213 0.5629
vn -0.3568 0.7120 0.6048
vn -0.6499 0.7143 0.2596
vn -0.6273 0.6999 -0.3415
vn -0.3584 0.7084 -0.6080
vn 0.2417 0.7416 -0.6258
vn 0.7222 0.6559 -0.2195
vn 0.6001 0.7058 0.3765
vn 0.4760 0.6295 0.6141
vn -0.4158 0.6714 0.6134
vn -0.7544 0.5891 0.2897
vn -0.6890 0.6704 -0.2755
vn -0.3116 0.6840 -0.6596
vn 0.3872 0.5733 -0.7221
vn 0.6261 0.6889 -0.3653
s 0
f 3//1 2//1 1//1
f 4//1 3//1 1//1
f 5//1 4//1 1//1
f 6//1 5//1 1//1
f 7//1 6//1 1//1
f 8//1 7//1 1//1
f 9//1 8//1 1//1
f 2//1 9//1 1//1
f 3//2 11//2 10//2 2//2
f 4//3 12//3 11//3 3//3
f 5//4 13//4 12//4 4//4
f 6//5 14//5 13//5 5//5
f 7//6 15//6 14//6 6//6
f 8//7 16//7 15//7 7//7
f 9//8 17//8 16//8 8//8
f 2//9 10//9 17//9 9//9
f 11//10 19//10 18//10 10//10
f 12//11 20//11 19//11 11//11
f 13//12 21//12 20//12 12//12
f 14//13 22//13 21//13 13//13
f 15//14 23//14 22//14 14//14
f 16//15 24//15 23//15 15//15
f 17//16 25//16 24//16 16//16
f 10//17 18//17 25//17 17//17
f 19//18 27//18 26//18 18//18
f 20//19 28//19 27//19 19//19
f 21//20 29//20 28//20 20//20
f 22//21 30//21 29//21 21//21
f 23//22 31//22 30//22 22//22
f 24//23 32//23 31//23 23//23
f 25//24 33//24 32//24 24//24
f 18//25 26//25 33//25 25//25
