# Blender 4.4.1
# www.blender.org
o Hill_167
v 1.316939 0.000000 1.580360
v 1.316939 5.446183 1.580360
v 1.316939 5.446183 1.580360
v 1.316939 5.446183 1.580360
v 1.316939 5.446183 1.580360
v 1.316939 5.446183 1.580360
v 1.316939 5.446183 1.580360
v 1.316939 5.446183 1.580360
v 1.316939 5.446183 1.580360
v 4.842451 4.373175 1.580360
v 3.732624 4.411189 3.996045
v 1.316939 4.381851 5.147056
v -1.276386 4.511076 4.173686
v -2.303912 4.254151 1.580360
v -1.239344 4.318930 -0.975923
v 1.316939 4.319803 -1.725653
v 3.881610 4.464523 -0.984311
v 8.534475 2.220684 1.580360
v 6.040977 2.124926 6.304399
v 1.316939 2.831653 8.871601
v -3.160797 2.326777 6.058096
v -4.975828 2.728544 1.580360
v -3.741923 2.627342 -3.478503
v 1.316939 2.821263 -5.155514
v 6.547231 2.728293 -3.649931
v 9.974483 0.263717 1.580360
v 9.184422 0.332612 9.447844
v 1.316939 0.181849 10.860608
v -6.375859 -0.404975 9.273158
v -9.974483 -0.003749 1.580360
v -4.659888 -0.438779 -4.396467
v 1.316939 -0.415380 -10.860608
v 8.059351 -0.082932 -5.162052
vn -0.0000 1.0000 -0.0000
vn 0.2891 0.9500 0.1179
vn 0.1237 0.9509 0.2838
vn -0.0595 0.9565 0.2854
vn -0.3126 0.9494 0.0298
vn -0.3110 0.9445 -0.1056
vn -0.0945 0.9423 -0.3211
vn 0.0398 0.9458 -0.3222
vn 0.2904 0.9540 -0.0748
vn 0.5066 0.8213 0.2623
vn 0.3028 0.8524 0.4262
vn -0.2912 0.8386 0.4605
vn -0.5520 0.7990 0.2383
vn -0.4704 0.8703 -0.1461
vn -0.1555 0.8959 -0.4162
vn 0.1166 0.8975 -0.4253
vn 0.4825 0.8682 -0.1158
vn 0.5631 0.8129 0.1486
vn 0.2128 0.7995 0.5616
vn -0.2838 0.7488 0.5990
vn -0.4617 0.8477 0.2613
vn -0.6107 0.6858 -0.3957
vn -0.4445 0.6789 -0.5844
vn 0.3256 0.7572 -0.5663
vn 0.7863 0.5657 -0.2487
s 0
f 3//1 2//1 1//1
f 4//1 3//1 1//1
f 5//1 4//1 1//1
f 6//1 5//1 1//1
f 7//1 6//1 1//1
f 8//1 7//1 1//1
f 9//1 8//1 1//1
f 2//1 9//1 1//1
f 3//2 11//2 10//2 2//2
f 4//3 12//3 11//3 3//3
f 5//4 13//4 12//4 4//4
f 6//5 14//5 13//5 5//5
f 7//6 15//6 14//6 6//6
f 8//7 16//7 15//7 7//7
f 9//8 17//8 16//8 8//8
f 2//9 10//9 17//9 9//9
f 11//10 19//10 18//10 10//10
f 12//11 20//11 19//11 11//11
f 13//12 21//12 20//12 12//12
f 14//13 22//13 21//13 13//13
f 15//14 23//14 22//14 14//14
f 16//15 24//15 23//15 15//15
f 17//16 25//16 24//16 16//16
f 10//17 18//17 25//17 17//17
f 19//18 27//18 26//18 18//18
f 20//19 28//19 27//19 19//19
f 21//20 29//20 28//20 20//20
f 22//21 30//21 29//21 21//21
f 23//22 31//22 30//22 22//22
f 24//23 32//23 31//23 23//23
f 25//24 33//24 32//24 24//24
f 18//25 26//25 33//25 25//25
