# Blender 4.4.1
# www.blender.org
o Hill_086
v -0.763438 0.000000 -0.730181
v -0.763438 5.572233 -0.730181
v -0.763438 5.572233 -0.730181
v -0.763438 5.572233 -0.730181
v -0.763438 5.572233 -0.730181
v -0.763438 5.572233 -0.730181
v -0.763438 5.572233 -0.730181
v -0.763438 5.572233 -0.730181
v -0.763438 5.572233 -0.730181
v 1.217463 4.478983 -0.730181
v 0.723076 4.402148 0.756333
v -0.763438 4.452068 1.320219
v -2.311632 4.468640 0.818013
v -2.902310 4.639479 -0.730181
v -2.177129 4.435419 -2.143872
v -0.763438 4.438556 -2.909994
v 0.702711 4.556314 -2.196330
v 3.402061 2.890888 -0.730181
v 2.301736 2.286718 2.334993
v -0.763438 2.858797 2.958306
v -4.058154 2.186583 2.564535
v -5.083830 2.767952 -0.730181
v -3.740644 2.747773 -3.707387
v -0.763438 2.599635 -4.937660
v 2.081767 2.327251 -3.575386
v 6.367138 -0.520893 -0.730181
v 4.092565 -0.132519 4.125822
v -0.763438 -0.469801 6.821303
v -4.463536 0.485361 2.969918
v -6.367138 0.003896 -0.730181
v -5.349018 0.053753 -5.315761
v -0.763438 0.259717 -6.821303
v 4.308686 0.030933 -5.802305
vn -0.0000 1.0000 -0.0000
vn 0.4733 0.8575 0.2017
vn 0.2068 0.8586 0.4691
vn -0.1446 0.8684 0.4744
vn -0.3875 0.8885 0.2459
vn -0.3788 0.8685 -0.3197
vn -0.2444 0.8603 -0.4474
vn 0.1516 0.8769 -0.4561
vn 0.4796 0.8689 -0.1225
vn 0.5936 0.7390 0.3186
vn 0.2690 0.6939 0.6680
vn -0.2206 0.6961 0.6832
vn -0.6185 0.7186 0.3180
vn -0.5825 0.7503 -0.3127
vn -0.2565 0.7431 -0.6181
vn 0.3419 0.6688 -0.6602
vn 0.6212 0.7042 -0.3438
vn 0.6876 0.6562 0.3108
vn 0.2878 0.7157 0.6364
vn -0.3914 0.6135 0.6858
vn -0.8594 0.3581 0.3650
vn -0.8215 0.5102 -0.2545
vn -0.2747 0.6058 -0.7467
vn 0.2445 0.7064 -0.6643
vn 0.6533 0.7034 -0.2799
s 0
f 3//1 2//1 1//1
f 4//1 3//1 1//1
f 5//1 4//1 1//1
f 6//1 5//1 1//1
f 7//1 6//1 1//1
f 8//1 7//1 1//1
f 9//1 8//1 1//1
f 2//1 9//1 1//1
f 3//2 11//2 10//2 2//2
f 4//3 12//3 11//3 3//3
f 5//4 13//4 12//4 4//4
f 6//5 14//5 13//5 5//5
f 7//6 15//6 14//6 6//6
f 8//7 16//7 15//7 7//7
f 9//8 17//8 16//8 8//8
f 2//9 10//9 17//9 9//9
f 11//10 19//10 18//10 10//10
f 12//11 20//11 19//11 11//11
f 13//12 21//12 20//12 12//12
f 14//13 22//13 21//13 13//13
f 15//14 23//14 22//14 14//14
f 16//15 24//15 23//15 15//15
f 17//16 25//16 24//16 16//16
f 10//17 18//17 25//17 17//17
f 19//18 27//18 26//18 18//18
f 20//19 28//19 27//19 19//19
f 21//20 29//20 28//20 20//20
f 22//21 30//21 29//21 21//21
f 23//22 31//22 30//22 22//22
f 24//23 32//23 31//23 23//23
f 25//24 33//24 32//24 24//24
f 18//25 26//25 33//25 25//25
