# Blender 4.4.1
# www.blender.org
o Hill_171
v 0.041817 0.000000 0.824589
v 0.041817 7.336342 0.824589
v 0.041817 7.336342 0.824589
v 0.041817 7.336342 0.824589
v 0.041817 7.336342 0.824589
v 0.041817 7.336342 0.824589
v 0.041817 7.336342 0.824589
v 0.041817 7.336342 0.824589
v 0.041817 7.336342 0.824589
v 2.021963 6.014625 0.824589
v 1.541794 5.959463 2.324566
v 0.041817 6.112738 2.903332
v -1.463794 5.899314 2.330200
v -1.914080 5.734675 0.824589
v -1.501719 6.150676 -0.718947
v 0.041817 5.942804 -1.291234
v 1.517610 6.151685 -0.651205
v 4.615373 3.350981 0.824589
v 3.188736 3.686676 3.971508
v 0.041817 3.761678 5.444895
v -3.166136 3.151332 4.032541
v -3.667383 3.595150 0.824589
v -2.823313 3.714825 -2.040541
v 0.041817 3.355802 -3.123054
v 3.275266 3.412480 -2.408861
v 6.052741 0.010048 0.824589
v 4.287504 -0.716711 5.070277
v 0.041817 0.457597 6.175938
v -3.893557 -0.664933 4.759963
v -6.052741 -0.039212 0.824589
v -3.604777 0.502675 -2.822005
v 0.041817 -0.175706 -6.175938
v 3.673486 0.140389 -2.807080
vn -0.0000 1.0000 -0.0000
vn 0.5435 0.8143 0.2039
vn 0.2730 0.8290 0.4880
vn -0.3007 0.8219 0.4838
vn -0.6301 0.7695 0.1043
vn -0.6331 0.7731 0.0392
vn -0.0911 0.8317 -0.5478
vn 0.1195 0.8292 -0.5461
vn 0.5517 0.8265 -0.1118
vn 0.6940 0.6775 0.2439
vn 0.3183 0.6962 0.6434
vn -0.3861 0.6628 0.6415
vn -0.7688 0.6102 0.1913
vn -0.7982 0.5817 -0.1568
vn -0.2271 0.5600 -0.7968
vn 0.1919 0.5912 -0.7833
vn 0.7123 0.6554 -0.2513
vn 0.8581 0.3361 0.3883
vn 0.3572 0.2636 0.8961
vn -0.4052 0.2230 0.8866
vn -0.8430 0.3885 0.3721
vn -0.8248 0.4242 -0.3739
vn -0.4396 0.4819 -0.7580
vn 0.4454 0.4256 -0.7877
vn 0.8512 0.2636 -0.4538
s 0
f 3//1 2//1 1//1
f 4//1 3//1 1//1
f 5//1 4//1 1//1
f 6//1 5//1 1//1
f 7//1 6//1 1//1
f 8//1 7//1 1//1
f 9//1 8//1 1//1
f 2//1 9//1 1//1
f 3//2 11//2 10//2 2//2
f 4//3 12//3 11//3 3//3
f 5//4 13//4 12//4 4//4
f 6//5 14//5 13//5 5//5
f 7//6 15//6 14//6 6//6
f 8//7 16//7 15//7 7//7
f 9//8 17//8 16//8 8//8
f 2//9 10//9 17//9 9//9
f 11//10 19//10 18//10 10//10
f 12//11 20//11 19//11 11//11
f 13//12 21//12 20//12 12//12
f 14//13 22//13 21//13 13//13
f 15//14 23//14 22//14 14//14
f 16//15 24//15 23//15 15//15
f 17//16 25//16 24//16 16//16
f 10//17 18//17 25//17 17//17
f 19//18 27//18 26//18 18//18
f 20//19 28//19 27//19 19//19
f 21//20 29//20 28//20 20//20
f 22//21 30//21 29//21 21//21
f 23//22 31//22 30//22 22//22
f 24//23 32//23 31//23 23//23
f 25//24 33//24 32//24 24//24
f 18//25 26//25 33//25 25//25
