# Blender 4.4.1
# www.blender.org
o Hill_213
v -0.369302 0.000000 0.251938
v -0.369302 6.044929 0.251938
v -0.369302 6.044929 0.251938
v -0.369302 6.044929 0.251938
v -0.369302 6.044929 0.251938
v -0.369302 6.044929 0.251938
v -0.369302 6.044929 0.251938
v -0.369302 6.044929 0.251938
v -0.369302 6.044929 0.251938
v 2.658412 4.876482 0.251938
v 1.755802 4.819809 2.377042
v -0.369302 4.720892 3.546402
v -2.525232 4.838416 2.407868
v -3.580798 4.697247 0.251938
v -2.479053 4.884829 -1.857814
v -0.369302 4.876004 -2.776017
v 1.835945 5.024750 -1.953309
v 5.978881 2.691478 0.251938
v 4.380976 2.656325 5.002215
v -0.369302 3.088257 5.696723
v -4.562748 2.771606 4.445385
v -6.438123 2.556928 0.251938
v -4.295056 2.919549 -3.673817
v -0.369302 2.379670 -5.874595
v 3.599221 3.156817 -3.716585
v 8.897114 0.542580 0.251938
v 6.642908 -0.356968 7.264147
v -0.369302 0.384621 9.795334
v -8.138571 -0.109299 8.021207
v -8.897114 0.574647 0.251938
v -8.256448 -0.559188 -7.635209
v -0.369302 0.056657 -9.795334
v 5.314149 0.580469 -5.431513
vn -0.0000 1.0000 -0.0000
vn 0.3545 0.9185 0.1751
vn 0.1599 0.9159 0.3681
vn -0.1448 0.9181 0.3690
vn -0.3838 0.9145 0.1280
vn -0.3842 0.9155 -0.1192
vn -0.1511 0.9222 -0.3560
vn 0.0713 0.9305 -0.3592
vn 0.3591 0.9306 -0.0714
vn 0.5194 0.8308 0.2000
vn 0.1876 0.8165 0.5460
vn -0.2407 0.7825 0.5742
vn -0.5800 0.7832 0.2238
vn -0.5848 0.7736 -0.2439
vn -0.2418 0.7612 -0.6017
vn 0.1842 0.7637 -0.6187
vn 0.5630 0.7987 -0.2126
vn 0.6213 0.7384 0.2622
vn 0.2407 0.7629 0.6001
vn -0.1878 0.8338 0.5192
vn -0.5623 0.8122 0.1557
vn -0.5674 0.8021 -0.1861
vn -0.1957 0.8342 -0.5156
vn 0.2870 0.7645 -0.5773
vn 0.6078 0.7186 -0.3380
s 0
f 3//1 2//1 1//1
f 4//1 3//1 1//1
f 5//1 4//1 1//1
f 6//1 5//1 1//1
f 7//1 6//1 1//1
f 8//1 7//1 1//1
f 9//1 8//1 1//1
f 2//1 9//1 1//1
f 3//2 11//2 10//2 2//2
f 4//3 12//3 11//3 3//3
f 5//4 13//4 12//4 4//4
f 6//5 14//5 13//5 5//5
f 7//6 15//6 14//6 6//6
f 8//7 16//7 15//7 7//7
f 9//8 17//8 16//8 8//8
f 2//9 10//9 17//9 9//9
f 11//10 19//10 18//10 10//10
f 12//11 20//11 19//11 11//11
f 13//12 21//12 20//12 12//12
f 14//13 22//13 21//13 13//13
f 15//14 23//14 22//14 14//14
f 16//15 24//15 23//15 15//15
f 17//16 25//16 24//16 16//16
f 10//17 18//17 25//17 17//17
f 19//18 27//18 26//18 18//18
f 20//19 28//19 27//19 19//19
f 21//20 29//20 28//20 20//20
f 22//21 30//21 29//21 21//21
f 23//22 31//22 30//22 22//22
f 24//23 32//23 31//23 23//23
f 25//24 33//24 32//24 24//24
f 18//25 26//25 33//25 25//25
