# Blender 4.4.1
# www.blender.org
o Hill_215
v -0.551391 0.000000 -0.942184
v -0.551391 7.247536 -0.942184
v -0.551391 7.247536 -0.942184
v -0.551391 7.247536 -0.942184
v -0.551391 7.247536 -0.942184
v -0.551391 7.247536 -0.942184
v -0.551391 7.247536 -0.942184
v -0.551391 7.247536 -0.942184
v -0.551391 7.247536 -0.942184
v 2.754331 5.737736 -0.942184
v 1.990549 5.693487 1.599756
v -0.551391 6.043327 2.753476
v -3.078723 5.961054 1.585148
v -4.005778 5.834302 -0.942184
v -2.878199 5.977386 -3.268992
v -0.551391 5.638508 -4.260476
v 2.002149 5.944292 -3.495724
v 7.129051 3.082259 -0.942184
v 4.515784 2.973498 4.124990
v -0.551391 3.573808 5.859863
v -5.984041 3.440902 4.490466
v -6.767884 3.285780 -0.942184
v -5.686437 2.914773 -6.077230
v -0.551391 2.958889 -8.238359
v 4.762336 3.344982 -6.255911
v 9.869176 0.126660 -0.942184
v 7.623243 -0.036717 7.232450
v -0.551391 0.700059 10.656659
v -9.115042 0.107751 7.621466
v -9.869176 -0.467530 -0.942184
v -6.761845 -0.005785 -7.152638
v -0.551391 -0.515803 -10.656659
v 6.291079 -0.340613 -7.784654
vn -0.0000 1.0000 -0.0000
vn 0.4114 0.9008 0.1393
vn 0.2620 0.9176 0.2990
vn -0.1716 0.9367 0.3052
vn -0.3770 0.9216 0.0921
vn -0.3757 0.9182 -0.1256
vn -0.0548 0.8984 -0.4357
vn 0.0229 0.8996 -0.4362
vn 0.4150 0.9085 -0.0487
vn 0.5350 0.8059 0.2536
vn 0.3101 0.7644 0.5653
vn -0.2020 0.7994 0.5659
vn -0.6312 0.7680 0.1085
vn -0.6386 0.7399 -0.2116
vn -0.2132 0.7876 -0.5782
vn 0.1309 0.8057 -0.5776
vn 0.5424 0.8236 -0.1659
vn 0.6256 0.7407 0.2448
vn 0.2779 0.8197 0.5009
vn -0.2144 0.8084 0.5482
vn -0.7399 0.6711 0.0463
vn -0.7904 0.5410 -0.2875
vn -0.3726 0.4924 -0.7866
vn 0.2989 0.5088 -0.8073
vn 0.7399 0.5610 -0.3713
s 0
f 3//1 2//1 1//1
f 4//1 3//1 1//1
f 5//1 4//1 1//1
f 6//1 5//1 1//1
f 7//1 6//1 1//1
f 8//1 7//1 1//1
f 9//1 8//1 1//1
f 2//1 9//1 1//1
f 3//2 11//2 10//2 2//2
f 4//3 12//3 11//3 3//3
f 5//4 13//4 12//4 4//4
f 6//5 14//5 13//5 5//5
f 7//6 15//6 14//6 6//6
f 8//7 16//7 15//7 7//7
f 9//8 17//8 16//8 8//8
f 2//9 10//9 17//9 9//9
f 11//10 19//10 18//10 10//10
f 12//11 20//11 19//11 11//11
f 13//12 21//12 20//12 12//12
f 14//13 22//13 21//13 13//13
f 15//14 23//14 22//14 14//14
f 16//15 24//15 23//15 15//15
f 17//16 25//16 24//16 16//16
f 10//17 18//17 25//17 17//17
f 19//18 27//18 26//18 18//18
f 20//19 28//19 27//19 19//19
f 21//20 29//20 28//20 20//20
f 22//21 30//21 29//21 21//21
f 23//22 31//22 30//22 22//22
f 24//23 32//23 31//23 23//23
f 25//24 33//24 32//24 24//24
f 18//25 26//25 33//25 25//25
