# Blender 4.4.1
# www.blender.org
o Hill_268
v 0.962154 0.000000 -0.978033
v 0.962154 9.258689 -0.978033
v 0.962154 9.258689 -0.978033
v 0.962154 9.258689 -0.978033
v 0.962154 9.258689 -0.978033
v 0.962154 9.258689 -0.978033
v 0.962154 9.258689 -0.978033
v 0.962154 9.258689 -0.978033
v 0.962154 9.258689 -0.978033
v 4.905636 7.171374 -0.978033
v 3.743353 7.482559 1.803165
v 0.962154 7.428078 3.024252
v -1.591958 7.193244 1.576078
v -2.911704 7.442954 -0.978033
v -1.815350 7.709524 -3.755538
v 0.962154 7.562139 -4.501249
v 3.741332 7.420794 -3.757211
v 8.708437 4.431620 -0.978033
v 6.992784 4.594438 5.052596
v 0.962154 3.769018 5.763690
v -3.862489 4.183976 3.846610
v -5.916827 4.220751 -0.978033
v -3.820659 4.035173 -5.760846
v 0.962154 3.800821 -9.113166
v 5.912937 4.283355 -5.928816
v 10.836831 0.103820 -0.978033
v 8.274129 0.066755 6.333941
v 0.962154 0.678344 10.209934
v -7.124909 -0.263103 7.109030
v -10.836831 0.176833 -0.978033
v -5.543170 -0.420493 -7.483357
v 0.962154 0.465359 -10.209934
v 8.223123 0.195061 -8.239001
vn -0.0000 1.0000 -0.0000
vn 0.4656 0.8797 0.0962
vn 0.1626 0.8973 0.4104
vn -0.3043 0.8663 0.3962
vn -0.4056 0.8654 0.2942
vn -0.4230 0.9025 -0.0804
vn -0.0685 0.8989 -0.4328
vn 0.1599 0.8894 -0.4283
vn 0.4647 0.8779 -0.1159
vn 0.5756 0.8048 0.1447
vn 0.0869 0.6955 0.7132
vn -0.3072 0.6363 0.7077
vn -0.6589 0.6772 0.3276
vn -0.7279 0.6163 -0.3008
vn -0.3244 0.6762 -0.6615
vn 0.2910 0.7158 -0.6348
vn 0.6101 0.7321 -0.3030
vn 0.8819 0.3800 0.2792
vn 0.2493 0.6084 0.7535
vn -0.2685 0.7431 0.6130
vn -0.6243 0.7190 0.3054
vn -0.6487 0.6014 -0.4664
vn -0.4539 0.3902 -0.8011
vn 0.3348 0.4771 -0.8126
vn 0.7854 0.5104 -0.3503
s 0
f 3//1 2//1 1//1
f 4//1 3//1 1//1
f 5//1 4//1 1//1
f 6//1 5//1 1//1
f 7//1 6//1 1//1
f 8//1 7//1 1//1
f 9//1 8//1 1//1
f 2//1 9//1 1//1
f 3//2 11//2 10//2 2//2
f 4//3 12//3 11//3 3//3
f 5//4 13//4 12//4 4//4
f 6//5 14//5 13//5 5//5
f 7//6 15//6 14//6 6//6
f 8//7 16//7 15//7 7//7
f 9//8 17//8 16//8 8//8
f 2//9 10//9 17//9 9//9
f 11//10 19//10 18//10 10//10
f 12//11 20//11 19//11 11//11
f 13//12 21//12 20//12 12//12
f 14//13 22//13 21//13 13//13
f 15//14 23//14 22//14 14//14
f 16//15 24//15 23//15 15//15
f 17//16 25//16 24//16 16//16
f 10//17 18//17 25//17 17//17
f 19//18 27//18 26//18 18//18
f 20//19 28//19 27//19 19//19
f 21//20 29//20 28//20 20//20
f 22//21 30//21 29//21 21//21
f 23//22 31//22 30//22 22//22
f 24//23 32//23 31//23 23//23
f 25//24 33//24 32//24 24//24
f 18//25 26//25 33//25 25//25
