# Blender 4.4.1
# www.blender.org
o Hill_133
v -0.694595 0.000000 0.048515
v -0.694595 7.869941 0.048515
v -0.694595 7.869941 0.048515
v -0.694595 7.869941 0.048515
v -0.694595 7.869941 0.048515
v -0.694595 7.869941 0.048515
v -0.694595 7.869941 0.048515
v -0.694595 7.869941 0.048515
v -0.694595 7.869941 0.048515
v 2.541647 6.526271 0.048515
v 1.659961 6.308958 2.403071
v -0.694595 6.315416 3.265960
v -3.093450 6.496144 2.447370
v -4.189601 6.166112 0.048515
v -3.128153 6.247822 -2.385043
v -0.694595 6.282697 -3.356378
v 1.667824 6.261530 -2.313904
v 6.477474 3.671869 0.048515
v 3.594299 3.821758 4.337409
v -0.694595 3.731519 7.358984
v -5.023977 3.890334 4.377897
v -7.923995 3.253533 0.048515
v -5.577399 3.582893 -4.834289
v -0.694595 3.569659 -6.144849
v 3.716228 3.657640 -4.362309
v 9.420585 -0.556657 0.048515
v 6.651218 -0.389506 7.394328
v -0.694595 0.492839 11.874288
v -9.105597 -0.781852 8.459517
v -9.420585 0.683303 0.048515
v -8.947568 -0.071206 -8.204458
v -0.694595 0.131560 -11.874288
v 5.724129 0.106171 -6.370209
vn -0.0000 1.0000 -0.0000
vn 0.3738 0.9003 0.2231
vn 0.1598 0.8888 0.4294
vn -0.0804 0.8975 0.4336
vn -0.4369 0.8963 0.0763
vn -0.4326 0.8875 -0.1589
vn -0.1787 0.8918 -0.4157
vn 0.1910 0.8897 -0.4147
vn 0.3724 0.8970 -0.2383
vn 0.5726 0.7495 0.3321
vn 0.3124 0.7739 0.5509
vn -0.2842 0.7695 0.5719
vn -0.6248 0.7343 0.2656
vn -0.5979 0.7662 -0.2354
vn -0.2057 0.7293 -0.6526
vn 0.2679 0.7028 -0.6590
vn 0.5692 0.7503 -0.3364
vn 0.7098 0.6234 0.3279
vn 0.4058 0.7281 0.5525
vn -0.3403 0.7669 0.5441
vn -0.7079 0.6705 0.2222
vn -0.7264 0.6640 -0.1774
vn -0.2194 0.8073 -0.5479
vn 0.3762 0.7340 -0.5654
vn 0.7240 0.5634 -0.3980
s 0
f 3//1 2//1 1//1
f 4//1 3//1 1//1
f 5//1 4//1 1//1
f 6//1 5//1 1//1
f 7//1 6//1 1//1
f 8//1 7//1 1//1
f 9//1 8//1 1//1
f 2//1 9//1 1//1
f 3//2 11//2 10//2 2//2
f 4//3 12//3 11//3 3//3
f 5//4 13//4 12//4 4//4
f 6//5 14//5 13//5 5//5
f 7//6 15//6 14//6 6//6
f 8//7 16//7 15//7 7//7
f 9//8 17//8 16//8 8//8
f 2//9 10//9 17//9 9//9
f 11//10 19//10 18//10 10//10
f 12//11 20//11 19//11 11//11
f 13//12 21//12 20//12 12//12
f 14//13 22//13 21//13 13//13
f 15//14 23//14 22//14 14//14
f 16//15 24//15 23//15 15//15
f 17//16 25//16 24//16 16//16
f 10//17 18//17 25//17 17//17
f 19//18 27//18 26//18 18//18
f 20//19 28//19 27//19 19//19
f 21//20 29//20 28//20 20//20
f 22//21 30//21 29//21 21//21
f 23//22 31//22 30//22 22//22
f 24//23 32//23 31//23 23//23
f 25//24 33//24 32//24 24//24
f 18//25 26//25 33//25 25//25
