# Blender 4.4.1
# www.blender.org
o Hill_249
v -0.025631 0.000000 -0.131922
v -0.025631 7.366989 -0.131922
v -0.025631 7.366989 -0.131922
v -0.025631 7.366989 -0.131922
v -0.025631 7.366989 -0.131922
v -0.025631 7.366989 -0.131922
v -0.025631 7.366989 -0.131922
v -0.025631 7.366989 -0.131922
v -0.025631 7.366989 -0.131922
v 2.310100 5.847711 -0.131922
v 1.559213 5.849473 1.452922
v -0.025631 6.000608 2.248426
v -1.679220 6.140487 1.521668
v -2.203754 6.034014 -0.131922
v -1.636619 5.861339 -1.742911
v -0.025631 6.117542 -2.333355
v 1.664166 5.765939 -1.821718
v 4.497750 3.764390 -0.131922
v 3.219960 3.294453 3.113669
v -0.025631 3.477074 4.765265
v -3.059547 3.808159 2.901994
v -4.219998 2.869488 -0.131922
v -3.613814 3.640392 -3.720105
v -0.025631 3.075434 -5.395746
v 2.966963 3.625515 -3.124515
v 6.777601 0.184789 -0.131922
v 5.470406 0.609413 5.364114
v -0.025631 -0.047975 6.839865
v -4.412725 0.647166 4.255173
v -6.777601 0.332953 -0.131922
v -5.364960 -0.686942 -5.471251
v -0.025631 0.631468 -6.839865
v 5.373561 -0.695035 -5.531114
vn -0.0000 1.0000 -0.0000
vn 0.5280 0.8118 0.2493
vn 0.3156 0.8229 0.4724
vn -0.1439 0.8582 0.4927
vn -0.5188 0.8478 0.1100
vn -0.5033 0.8224 -0.2653
vn -0.3041 0.8285 -0.4702
vn 0.3137 0.8258 -0.4687
vn 0.5291 0.8134 -0.2416
vn 0.6594 0.6695 0.3418
vn 0.3757 0.6589 0.6517
vn -0.3180 0.6468 0.6932
vn -0.8182 0.5487 0.1718
vn -0.7800 0.6169 -0.1050
vn -0.2423 0.7169 -0.6537
vn 0.3670 0.6515 -0.6640
vn 0.6697 0.6590 -0.3424
vn 0.7494 0.6227 0.2248
vn 0.2369 0.6116 0.7549
vn -0.4009 0.4809 0.7798
vn -0.7648 0.5877 0.2641
vn -0.8067 0.5569 -0.1979
vn -0.3201 0.4707 -0.8222
vn 0.3692 0.5555 -0.7451
vn 0.7625 0.5541 -0.3339
s 0
f 3//1 2//1 1//1
f 4//1 3//1 1//1
f 5//1 4//1 1//1
f 6//1 5//1 1//1
f 7//1 6//1 1//1
f 8//1 7//1 1//1
f 9//1 8//1 1//1
f 2//1 9//1 1//1
f 3//2 11//2 10//2 2//2
f 4//3 12//3 11//3 3//3
f 5//4 13//4 12//4 4//4
f 6//5 14//5 13//5 5//5
f 7//6 15//6 14//6 6//6
f 8//7 16//7 15//7 7//7
f 9//8 17//8 16//8 8//8
f 2//9 10//9 17//9 9//9
f 11//10 19//10 18//10 10//10
f 12//11 20//11 19//11 11//11
f 13//12 21//12 20//12 12//12
f 14//13 22//13 21//13 13//13
f 15//14 23//14 22//14 14//14
f 16//15 24//15 23//15 15//15
f 17//16 25//16 24//16 16//16
f 10//17 18//17 25//17 17//17
f 19//18 27//18 26//18 18//18
f 20//19 28//19 27//19 19//19
f 21//20 29//20 28//20 20//20
f 22//21 30//21 29//21 21//21
f 23//22 31//22 30//22 22//22
f 24//23 32//23 31//23 23//23
f 25//24 33//24 32//24 24//24
f 18//25 26//25 33//25 25//25
