# Blender 4.4.1
# www.blender.org
o Hill_242
v 0.702978 0.000000 -0.595041
v 0.702978 7.478531 -0.595041
v 0.702978 7.478531 -0.595041
v 0.702978 7.478531 -0.595041
v 0.702978 7.478531 -0.595041
v 0.702978 7.478531 -0.595041
v 0.702978 7.478531 -0.595041
v 0.702978 7.478531 -0.595041
v 0.702978 7.478531 -0.595041
v 4.397994 5.817729 -0.595041
v 3.156463 5.957937 1.858445
v 0.702978 6.074300 2.898612
v -1.853607 6.002705 1.961544
v -2.972554 6.189057 -0.595041
v -1.900713 5.920138 -3.198732
v 0.702978 5.989769 -4.414100
v 3.406750 6.073381 -3.298813
v 8.870338 3.683730 -0.595041
v 6.402277 3.885360 5.104258
v 0.702978 3.894075 5.750533
v -4.243200 3.441585 4.351138
v -7.276142 2.994097 -0.595041
v -4.637882 3.154466 -5.935900
v 0.702978 3.356451 -8.682168
v 5.701719 3.009382 -5.593781
v 11.686018 0.107498 -0.595041
v 9.858661 -0.519107 8.560642
v 0.702978 0.621244 11.424000
v -7.419090 0.405701 7.527027
v -11.686018 -0.737791 -0.595041
v -6.207687 0.657178 -7.505705
v 0.702978 -0.567597 -11.424000
v 7.353739 -0.410514 -7.245801
vn -0.0000 1.0000 -0.0000
vn 0.4051 0.9013 0.1535
vn 0.1981 0.9095 0.3655
vn -0.1606 0.9158 0.3681
vn -0.3237 0.9228 0.2090
vn -0.3224 0.9188 -0.2276
vn -0.1909 0.9146 -0.3565
vn 0.1201 0.9250 -0.3606
vn 0.4091 0.9102 -0.0639
vn 0.4219 0.8934 0.1545
vn 0.1212 0.8433 0.5236
vn -0.2376 0.7718 0.5898
vn -0.5643 0.7747 0.2853
vn -0.5582 0.7840 -0.2714
vn -0.2837 0.8099 -0.5134
vn 0.3273 0.7672 -0.5516
vn 0.5075 0.8010 -0.3176
vn 0.7160 0.6605 0.2259
vn 0.1991 0.7859 0.5855
vn -0.2460 0.8288 0.5026
vn -0.5902 0.7721 0.2357
vn -0.6367 0.6952 -0.3335
vn -0.3515 0.5796 -0.7352
vn 0.4549 0.5304 -0.7154
vn 0.6766 0.5482 -0.4917
s 0
f 3//1 2//1 1//1
f 4//1 3//1 1//1
f 5//1 4//1 1//1
f 6//1 5//1 1//1
f 7//1 6//1 1//1
f 8//1 7//1 1//1
f 9//1 8//1 1//1
f 2//1 9//1 1//1
f 3//2 11//2 10//2 2//2
f 4//3 12//3 11//3 3//3
f 5//4 13//4 12//4 4//4
f 6//5 14//5 13//5 5//5
f 7//6 15//6 14//6 6//6
f 8//7 16//7 15//7 7//7
f 9//8 17//8 16//8 8//8
f 2//9 10//9 17//9 9//9
f 11//10 19//10 18//10 10//10
f 12//11 20//11 19//11 11//11
f 13//12 21//12 20//12 12//12
f 14//13 22//13 21//13 13//13
f 15//14 23//14 22//14 14//14
f 16//15 24//15 23//15 15//15
f 17//16 25//16 24//16 16//16
f 10//17 18//17 25//17 17//17
f 19//18 27//18 26//18 18//18
f 20//19 28//19 27//19 19//19
f 21//20 29//20 28//20 20//20
f 22//21 30//21 29//21 21//21
f 23//22 31//22 30//22 22//22
f 24//23 32//23 31//23 23//23
f 25//24 33//24 32//24 24//24
f 18//25 26//25 33//25 25//25
