# Blender 4.4.1
# www.blender.org
o Mountain_001
v 2.210497 0.000000 0.842342
v 2.210497 23.007381 0.842342
v 2.210497 23.007381 0.842342
v 2.210497 23.007381 0.842342
v 2.210497 23.007381 0.842342
v 2.210497 23.007381 0.842342
v 2.210497 23.007381 0.842342
v 2.210497 23.007381 0.842342
v 2.210497 23.007381 0.842342
v 2.210497 23.007381 0.842342
v 2.210497 23.007381 0.842342
v 2.210497 23.007381 0.842342
v 2.210497 23.007381 0.842342
v 6.009870 20.151676 0.842342
v 5.395865 19.814758 2.681415
v 4.091065 20.233046 4.099582
v 2.210497 19.809605 4.562201
v 0.380983 20.282274 4.011152
v -1.010608 20.597841 2.702047
v -1.750031 19.637785 0.842342
v -1.013608 20.325846 -1.019096
v 0.353602 19.708481 -2.373894
v 2.210497 20.213184 -3.147195
v 4.116792 20.458876 -2.459458
v 5.623152 19.775314 -1.127956
v 9.240192 14.714410 0.842342
v 8.730985 14.797175 4.606947
v 6.208688 15.271910 7.767412
v 2.210497 13.949108 9.228810
v -1.538085 14.503321 7.335075
v -4.890176 14.294767 4.941917
v -4.961842 14.754816 0.842342
v -4.307744 14.363534 -2.920966
v -1.421241 15.846867 -5.448013
v 2.210497 15.704412 -6.716768
v 6.072013 13.839065 -5.846002
v 9.493412 15.646154 -3.362451
v 15.293302 9.535087 0.842342
v 13.182071 6.912053 7.176783
v 7.920351 7.075760 10.732100
v 2.210497 6.540452 11.970962
v -3.315849 9.738502 10.414254
v -7.022408 9.044006 6.172962
v -9.103812 7.797939 0.842342
v -9.084745 9.773405 -5.678969
v -3.620002 8.817399 -9.256378
v 2.210497 7.362065 -9.439019
v 8.751406 8.336908 -10.486845
v 12.268772 8.919438 -4.964806
v 14.793890 0.387341 0.842342
v 15.468987 1.623032 8.497135
v 8.808854 2.120263 12.271032
v 2.210497 -1.445669 13.566093
v -5.726237 0.806236 14.589168
v -9.630176 -1.749083 7.678557
v -15.468987 -1.167784 0.842342
v -11.533596 0.549331 -7.092814
v -5.188534 0.385016 -11.973155
v 2.210497 2.000290 -14.589168
v 8.952069 0.994801 -10.834405
v 14.069614 -0.479539 -6.004523
vn -0.0000 1.0000 -0.0000
vn 0.5676 0.7552 0.3279
vn 0.5782 0.7550 0.3093
vn -0.0104 0.7583 0.6519
vn -0.0004 0.7583 0.6519
vn -0.3026 0.8020 0.5150
vn -0.6421 0.7547 -0.1343
vn -0.6478 0.7614 0.0252
vn -0.2679 0.7456 -0.6101
vn -0.4191 0.7437 -0.5209
vn 0.1009 0.8149 -0.5707
vn 0.5804 0.7716 -0.2605
vn 0.5800 0.7716 -0.2612
vn 0.8157 0.5469 0.1883
vn 0.6638 0.6074 0.4364
vn 0.0729 0.6175 0.7832
vn -0.2368 0.5761 0.7823
vn -0.5064 0.5492 0.6648
vn -0.8364 0.5439 0.0682
vn -0.8299 0.5290 -0.1773
vn -0.6083 0.5854 -0.5360
vn -0.3068 0.6308 -0.7127
vn 0.3575 0.5394 -0.7624
vn 0.4078 0.5868 -0.6995
vn 0.8064 0.5902 0.0357
vn 0.6993 0.6290 0.3397
vn 0.6024 0.4563 0.6549
vn 0.1867 0.3554 0.9159
vn -0.1489 0.4442 0.8835
vn -0.6257 0.5014 0.5975
vn -0.8712 0.4639 0.1603
vn -0.7955 0.6046 0.0411
vn -0.4828 0.6323 -0.6059
vn -0.0729 0.3988 -0.9141
vn 0.0255 0.4733 -0.8806
vn 0.5352 0.5611 -0.6314
vn 0.7750 0.6010 -0.1955
vn 0.9846 0.1324 0.1142
vn 0.5008 0.3732 0.7810
vn 0.1179 0.2414 0.9632
vn 0.0881 0.3103 0.9466
vn -0.8198 0.3410 0.4601
vn -0.7808 0.3917 0.4868
vn -0.8882 0.4405 -0.1304
vn -0.5350 0.3060 -0.7875
vn -0.1847 0.5026 -0.8445
vn 0.1845 0.3928 -0.9009
vn 0.7660 0.1435 -0.6266
vn 0.9528 0.0832 -0.2920
s 0
f 3//1 2//1 1//1
f 4//1 3//1 1//1
f 5//1 4//1 1//1
f 6//1 5//1 1//1
f 7//1 6//1 1//1
f 8//1 7//1 1//1
f 9//1 8//1 1//1
f 10//1 9//1 1//1
f 11//1 10//1 1//1
f 12//1 11//1 1//1
f 13//1 12//1 1//1
f 2//1 13//1 1//1
f 3//2 15//2 14//2 2//2
f 4//3 16//3 15//3 3//3
f 5//4 17//4 16//4 4//4
f 6//5 18//5 17//5 5//5
f 7//6 19//6 18//6 6//6
f 8//7 20//7 19//7 7//7
f 9//8 21//8 20//8 8//8
f 10//9 22//9 21//9 9//9
f 11//10 23//10 22//10 10//10
f 12//11 24//11 23//11 11//11
f 13//12 25//12 24//12 12//12
f 2//13 14//13 25//13 13//13
f 15//14 27//14 26//14 14//14
f 16//15 28//15 27//15 15//15
f 17//16 29//16 28//16 16//16
f 18//17 30//17 29//17 17//17
f 19//18 31//18 30//18 18//18
f 20//19 32//19 31//19 19//19
f 21//20 33//20 32//20 20//20
f 22//21 34//21 33//21 21//21
f 23//22 35//22 34//22 22//22
f 24//23 36//23 35//23 23//23
f 25//24 37//24 36//24 24//24
f 14//25 26//25 37//25 25//25
f 27//26 39//26 38//26 26//26
f 28//27 40//27 39//27 27//27
f 29//28 41//28 40//28 28//28
f 30//29 42//29 41//29 29//29
f 31//30 43//30 42//30 30//30
f 32//31 44//31 43//31 31//31
f 33//32 45//32 44//32 32//32
f 34//33 46//33 45//33 33//33
f 35//34 47//34 46//34 34//34
f 36//35 48//35 47//35 35//35
f 37//36 49//36 48//36 36//36
f 26//37 38//37 49//37 37//37
f 39//38 51//38 50//38 38//38
f 40//39 52//39 51//39 39//39
f 41//40 53//40 52//40 40//40
f 42//41 54//41 53//41 41//41
f 43//42 55//42 54//42 42//42
f 44//43 56//43 55//43 43//43
f 45//44 57//44 56//44 44//44
f 46//45 58//45 57//45 45//45
f 47//46 59//46 58//46 46//46
f 48//47 60//47 59//47 47//47
f 49//48 61//48 60//48 48//48
f 38//49 50//49 61//49 49//49
