# Blender 4.4.1
# www.blender.org
o Mountain_057
v 1.493937 0.000000 -1.648756
v 1.493937 18.192228 -1.648756
v 1.493937 18.192228 -1.648756
v 1.493937 18.192228 -1.648756
v 1.493937 18.192228 -1.648756
v 1.493937 18.192228 -1.648756
v 1.493937 18.192228 -1.648756
v 1.493937 18.192228 -1.648756
v 1.493937 18.192228 -1.648756
v 1.493937 18.192228 -1.648756
v 1.493937 18.192228 -1.648756
v 1.493937 18.192228 -1.648756
v 1.493937 18.192228 -1.648756
v 7.318391 16.092705 -1.648756
v 6.872311 15.465257 1.456450
v 4.547143 16.283360 3.639550
v 1.493937 15.839211 4.577730
v -1.687418 16.103123 3.861514
v -3.945936 15.952885 1.491957
v -4.802692 16.053820 -1.648756
v -3.582866 15.491545 -4.579849
v -1.668081 16.074301 -7.125533
v 1.493937 15.784482 -7.874959
v 4.650049 16.216068 -7.115301
v 6.719396 15.624565 -4.665676
v 14.391553 12.118746 -1.648756
v 11.053160 11.692433 3.870264
v 8.148748 11.659479 9.877715
v 1.493937 10.886681 9.910993
v -4.358913 12.526922 8.488679
v -8.806096 11.014362 4.297971
v -11.025357 11.402243 -1.648756
v -9.569379 11.276860 -8.036164
v -4.619259 11.511069 -12.237123
v 1.493937 12.496194 -13.353531
v 7.868074 11.231068 -12.689085
v 11.451046 12.344500 -7.397495
v 19.283836 7.385469 -1.648756
v 17.725843 6.359687 7.722740
v 10.817736 6.812202 14.500537
v 1.493937 6.873724 17.075533
v -7.866645 5.189970 14.564250
v -12.634790 5.189121 6.508469
v -15.544234 6.566784 -1.648756
v -13.110516 6.439011 -10.080641
v -8.464649 5.535143 -18.897533
v 1.493937 7.718483 -20.991514
v 11.206652 6.465921 -18.471670
v 16.217447 6.540076 -10.149378
v 25.525829 1.593240 -1.648756
v 23.892490 1.612101 11.283055
v 11.541132 1.596402 15.753495
v 1.493937 1.801418 22.173777
v -9.641152 0.655551 17.637787
v -19.425669 -0.504027 10.429184
v -25.525829 1.396444 -1.648756
v -17.372892 -0.807979 -12.541525
v -10.356189 -0.186065 -22.173777
v 1.493937 -1.111152 -21.285765
v 11.687766 0.261312 -19.304985
v 18.671515 0.863928 -11.566234
vn -0.0000 1.0000 -0.0000
vn 0.3298 0.9150 0.2323
vn 0.4070 0.9087 0.0930
vn -0.0274 0.9351 0.3534
vn -0.0020 0.9354 0.3535
vn -0.2722 0.9413 0.1997
vn -0.3194 0.9403 0.1173
vn -0.3067 0.9030 -0.3009
vn -0.4177 0.9022 -0.1077
vn -0.0000 0.9327 -0.3607
vn -0.0407 0.9319 -0.3604
vn 0.3881 0.9154 -0.1068
vn 0.3316 0.9200 -0.2086
vn 0.4914 0.8120 0.3149
vn 0.5480 0.7903 0.2741
vn -0.0316 0.7652 0.6431
vn 0.0058 0.7588 0.6513
vn -0.5312 0.7729 0.3471
vn -0.5986 0.7631 0.2437
vn -0.5337 0.8182 -0.2136
vn -0.4529 0.8147 -0.3622
vn -0.1727 0.8137 -0.5551
vn 0.1551 0.8120 -0.5627
vn 0.4456 0.8105 -0.3800
vn 0.4746 0.8535 -0.2153
vn 0.5809 0.7693 0.2660
vn 0.5122 0.7762 0.3677
vn 0.0607 0.8044 0.5909
vn -0.1618 0.7700 0.6172
vn -0.6569 0.6284 0.4166
vn -0.7069 0.6230 0.3350
vn -0.7308 0.6518 -0.2029
vn -0.5406 0.7198 -0.4355
vn -0.2649 0.8035 -0.5331
vn 0.2320 0.8191 -0.5247
vn 0.5384 0.7393 -0.4044
vn 0.6599 0.6853 -0.3080
vn 0.6215 0.7736 0.1239
vn 0.4096 0.6107 0.6777
vn 0.3688 0.5069 0.7791
vn -0.3263 0.6467 0.6894
vn -0.5185 0.7341 0.4385
vn -0.4553 0.8244 0.3363
vn -0.5635 0.7249 -0.3962
vn -0.7087 0.5381 -0.4562
vn -0.0677 0.2461 -0.9669
vn 0.2194 0.0799 -0.9724
vn 0.7590 0.2972 -0.5793
vn 0.6956 0.5798 -0.4242
s 0
f 3//1 2//1 1//1
f 4//1 3//1 1//1
f 5//1 4//1 1//1
f 6//1 5//1 1//1
f 7//1 6//1 1//1
f 8//1 7//1 1//1
f 9//1 8//1 1//1
f 10//1 9//1 1//1
f 11//1 10//1 1//1
f 12//1 11//1 1//1
f 13//1 12//1 1//1
f 2//1 13//1 1//1
f 3//2 15//2 14//2 2//2
f 4//3 16//3 15//3 3//3
f 5//4 17//4 16//4 4//4
f 6//5 18//5 17//5 5//5
f 7//6 19//6 18//6 6//6
f 8//7 20//7 19//7 7//7
f 9//8 21//8 20//8 8//8
f 10//9 22//9 21//9 9//9
f 11//10 23//10 22//10 10//10
f 12//11 24//11 23//11 11//11
f 13//12 25//12 24//12 12//12
f 2//13 14//13 25//13 13//13
f 15//14 27//14 26//14 14//14
f 16//15 28//15 27//15 15//15
f 17//16 29//16 28//16 16//16
f 18//17 30//17 29//17 17//17
f 19//18 31//18 30//18 18//18
f 20//19 32//19 31//19 19//19
f 21//20 33//20 32//20 20//20
f 22//21 34//21 33//21 21//21
f 23//22 35//22 34//22 22//22
f 24//23 36//23 35//23 23//23
f 25//24 37//24 36//24 24//24
f 14//25 26//25 37//25 25//25
f 27//26 39//26 38//26 26//26
f 28//27 40//27 39//27 27//27
f 29//28 41//28 40//28 28//28
f 30//29 42//29 41//29 29//29
f 31//30 43//30 42//30 30//30
f 32//31 44//31 43//31 31//31
f 33//32 45//32 44//32 32//32
f 34//33 46//33 45//33 33//33
f 35//34 47//34 46//34 34//34
f 36//35 48//35 47//35 35//35
f 37//36 49//36 48//36 36//36
f 26//37 38//37 49//37 37//37
f 39//38 51//38 50//38 38//38
f 40//39 52//39 51//39 39//39
f 41//40 53//40 52//40 40//40
f 42//41 54//41 53//41 41//41
f 43//42 55//42 54//42 42//42
f 44//43 56//43 55//43 43//43
f 45//44 57//44 56//44 44//44
f 46//45 58//45 57//45 45//45
f 47//46 59//46 58//46 46//46
f 48//47 60//47 59//47 47//47
f 49//48 61//48 60//48 48//48
f 38//49 50//49 61//49 49//49
