# Blender 4.4.1
# www.blender.org
o Mountain_039
v -0.513512 0.000000 1.666631
v -0.513512 19.968664 1.666631
v -0.513512 19.968664 1.666631
v -0.513512 19.968664 1.666631
v -0.513512 19.968664 1.666631
v -0.513512 19.968664 1.666631
v -0.513512 19.968664 1.666631
v -0.513512 19.968664 1.666631
v -0.513512 19.968664 1.666631
v -0.513512 19.968664 1.666631
v -0.513512 19.968664 1.666631
v -0.513512 19.968664 1.666631
v -0.513512 19.968664 1.666631
v 3.932679 17.797325 1.666631
v 3.142275 17.121389 3.777301
v 1.730743 17.010029 5.553795
v -0.513512 17.639317 6.243801
v -2.798601 17.271339 5.624522
v -4.502937 17.022320 3.969927
v -4.897551 17.151335 1.666631
v -4.407878 17.583498 -0.581782
v -2.766219 17.567402 -2.235172
v -0.513512 17.150507 -2.881131
v 1.686991 17.551424 -2.144752
v 3.480162 17.066345 -0.639117
v 7.973081 12.646226 1.666631
v 6.958061 12.045363 5.980346
v 3.842982 13.009459 9.212299
v -0.513512 12.178912 10.141798
v -5.106335 12.458220 9.621634
v -8.211905 12.957891 6.111300
v -9.701298 13.132432 1.666631
v -7.572164 13.367413 -2.408684
v -5.048299 13.881528 -6.187850
v -0.513512 13.285393 -7.145981
v 4.290864 13.879709 -6.654792
v 6.817553 13.126024 -2.565961
v 12.018607 7.074691 1.666631
v 12.677608 6.560884 9.282527
v 5.380988 7.186245 11.876204
v -0.513512 7.393589 15.007285
v -7.129726 6.039863 13.126250
v -12.375931 7.623417 8.515402
v -15.682573 5.505722 1.666631
v -10.358791 7.374429 -4.017543
v -6.384562 8.041210 -8.502327
v -0.513512 8.493252 -12.787489
v 5.946612 6.500794 -9.522633
v 11.180104 7.410501 -5.084681
v 13.712797 -1.193379 1.666631
v 13.462755 1.158963 9.735833
v 7.648157 0.026717 15.803057
v -0.513512 -1.972380 18.104210
v -10.012239 -0.633559 18.118910
v -17.201998 0.463246 11.301733
v -14.865866 -1.295451 1.666631
v -14.789247 -0.647237 -6.575468
v -9.964980 1.662044 -14.703793
v -0.513512 0.581696 -18.118910
v 8.262546 0.508005 -13.533947
v 17.201998 0.147638 -8.561423
vn -0.0000 1.0000 -0.0000
vn 0.3999 0.8188 0.4120
vn 0.4188 0.8227 0.3844
vn 0.3628 0.8305 0.4226
vn -0.2575 0.8612 0.4383
vn -0.4352 0.8409 0.3218
vn -0.5354 0.8332 0.1384
vn -0.5401 0.8405 0.0439
vn -0.3379 0.8760 -0.3440
vn 0.0063 0.8500 -0.5267
vn 0.0214 0.8498 -0.5266
vn 0.4577 0.8463 -0.2725
vn 0.4114 0.8425 -0.3478
vn 0.7152 0.6192 0.3241
vn 0.6029 0.6717 0.4305
vn 0.1651 0.6378 0.7523
vn -0.1357 0.6227 0.7706
vn -0.5086 0.6956 0.5074
vn -0.6441 0.7347 0.2129
vn -0.6797 0.7036 -0.2072
vn -0.5968 0.6992 -0.3935
vn -0.0473 0.7420 -0.6687
vn 0.0061 0.7595 -0.6505
vn 0.6072 0.7331 -0.3065
vn 0.7380 0.6426 -0.2062
vn 0.7341 0.6737 0.0849
vn 0.4515 0.6255 0.6363
vn 0.2683 0.5831 0.7668
vn -0.2215 0.6090 0.7616
vn -0.4868 0.5832 0.6503
vn -0.7504 0.6265 0.2109
vn -0.7286 0.5215 -0.4440
vn -0.7387 0.4296 -0.5194
vn -0.3575 0.5879 -0.7256
vn 0.3225 0.5715 -0.7546
vn 0.6247 0.5249 -0.5781
vn 0.7875 0.6085 -0.0978
vn 0.9832 0.1768 -0.0464
vn 0.4967 0.3909 0.7749
vn 0.2835 0.4078 0.8680
vn -0.1024 0.4626 0.8806
vn -0.4571 0.6157 0.6419
vn -0.9615 0.2745 -0.0080
vn -0.9121 0.2748 -0.3040
vn -0.7106 0.6093 -0.3519
vn -0.3231 0.6420 -0.6953
vn 0.4402 0.5501 -0.7096
vn 0.4121 0.6307 -0.6575
vn 0.8964 0.4051 0.1799
s 0
f 3//1 2//1 1//1
f 4//1 3//1 1//1
f 5//1 4//1 1//1
f 6//1 5//1 1//1
f 7//1 6//1 1//1
f 8//1 7//1 1//1
f 9//1 8//1 1//1
f 10//1 9//1 1//1
f 11//1 10//1 1//1
f 12//1 11//1 1//1
f 13//1 12//1 1//1
f 2//1 13//1 1//1
f 3//2 15//2 14//2 2//2
f 4//3 16//3 15//3 3//3
f 5//4 17//4 16//4 4//4
f 6//5 18//5 17//5 5//5
f 7//6 19//6 18//6 6//6
f 8//7 20//7 19//7 7//7
f 9//8 21//8 20//8 8//8
f 10//9 22//9 21//9 9//9
f 11//10 23//10 22//10 10//10
f 12//11 24//11 23//11 11//11
f 13//12 25//12 24//12 12//12
f 2//13 14//13 25//13 13//13
f 15//14 27//14 26//14 14//14
f 16//15 28//15 27//15 15//15
f 17//16 29//16 28//16 16//16
f 18//17 30//17 29//17 17//17
f 19//18 31//18 30//18 18//18
f 20//19 32//19 31//19 19//19
f 21//20 33//20 32//20 20//20
f 22//21 34//21 33//21 21//21
f 23//22 35//22 34//22 22//22
f 24//23 36//23 35//23 23//23
f 25//24 37//24 36//24 24//24
f 14//25 26//25 37//25 25//25
f 27//26 39//26 38//26 26//26
f 28//27 40//27 39//27 27//27
f 29//28 41//28 40//28 28//28
f 30//29 42//29 41//29 29//29
f 31//30 43//30 42//30 30//30
f 32//31 44//31 43//31 31//31
f 33//32 45//32 44//32 32//32
f 34//33 46//33 45//33 33//33
f 35//34 47//34 46//34 34//34
f 36//35 48//35 47//35 35//35
f 37//36 49//36 48//36 36//36
f 26//37 38//37 49//37 37//37
f 39//38 51//38 50//38 38//38
f 40//39 52//39 51//39 39//39
f 41//40 53//40 52//40 40//40
f 42//41 54//41 53//41 41//41
f 43//42 55//42 54//42 42//42
f 44//43 56//43 55//43 43//43
f 45//44 57//44 56//44 44//44
f 46//45 58//45 57//45 45//45
f 47//46 59//46 58//46 46//46
f 48//47 60//47 59//47 47//47
f 49//48 61//48 60//48 48//48
f 38//49 50//49 61//49 49//49
