# Blender 4.4.1
# www.blender.org
o Mountain_012
v 0.918619 0.000000 0.108228
v 0.918619 18.471327 0.108228
v 0.918619 18.471327 0.108228
v 0.918619 18.471327 0.108228
v 0.918619 18.471327 0.108228
v 0.918619 18.471327 0.108228
v 0.918619 18.471327 0.108228
v 0.918619 18.471327 0.108228
v 0.918619 18.471327 0.108228
v 0.918619 18.471327 0.108228
v 0.918619 18.471327 0.108228
v 0.918619 18.471327 0.108228
v 0.918619 18.471327 0.108228
v 7.030097 16.111719 0.108228
v 5.798590 16.330435 2.925680
v 3.958737 15.995789 5.373867
v 0.918619 15.760604 5.895725
v -2.032357 16.523832 5.219469
v -4.349993 16.358032 3.150062
v -5.209694 16.289587 0.108228
v -4.320642 16.170498 -2.916661
v -1.908699 15.886248 -4.788830
v 0.918619 16.430590 -5.556701
v 3.717997 16.212303 -4.740438
v 5.941674 16.442863 -2.791834
v 12.794369 12.147511 0.108228
v 10.255743 11.588462 5.499019
v 7.383027 12.345009 11.304912
v 0.918619 12.437910 11.922970
v -5.338612 11.153388 10.946071
v -10.222656 12.203646 6.540646
v -10.718112 12.273413 0.108228
v -8.944380 12.638869 -5.586177
v -5.287979 12.198945 -10.641915
v 0.918619 12.801980 -10.898444
v 6.716584 12.699368 -9.934141
v 10.193032 11.246503 -5.246357
v 16.714764 5.544714 0.108228
v 15.375592 7.053845 8.454966
v 9.327144 7.695461 14.672219
v 0.918619 7.432327 19.828671
v -7.237552 6.848051 14.235130
v -14.583604 5.435308 9.058440
v -15.669933 6.566606 0.108228
v -14.362496 5.555738 -8.714329
v -9.065062 5.515725 -17.184013
v 0.918619 7.085155 -18.362885
v 10.012434 7.422896 -15.642721
v 16.479370 7.374980 -8.875775
v 19.992363 -1.679185 0.108228
v 22.429672 0.283613 12.527640
v 13.383527 0.986217 21.698082
v 0.918619 0.513470 22.832523
v -10.826491 0.469778 20.451355
v -17.727648 1.686987 10.873654
v -22.429672 1.125599 0.108228
v -20.946985 -0.748333 -12.515884
v -8.827949 -1.625798 -16.773323
v 0.918619 -0.058181 -22.832523
v 11.281349 0.394031 -17.840546
v 19.751463 0.806690 -10.764919
vn -0.0000 1.0000 -0.0000
vn 0.3589 0.9295 0.0847
vn 0.2321 0.9250 0.3009
vn 0.0028 0.9056 0.4242
vn 0.1357 0.8972 0.4202
vn -0.2563 0.9432 0.2114
vn -0.3345 0.9395 0.0734
vn -0.3323 0.9335 -0.1344
vn -0.1832 0.9091 -0.3741
vn -0.2635 0.9076 -0.3269
vn 0.1697 0.9272 -0.3340
vn 0.1876 0.9274 -0.3238
vn 0.3600 0.9325 -0.0286
vn 0.5752 0.7627 0.2958
vn 0.5481 0.7908 0.2725
vn 0.0462 0.8686 0.4933
vn -0.1469 0.8146 0.5612
vn -0.3431 0.8007 0.4910
vn -0.5652 0.8209 0.0810
vn -0.5650 0.8114 -0.1496
vn -0.3480 0.8508 -0.3938
vn -0.1648 0.8477 -0.5042
vn 0.1406 0.8377 -0.5278
vn 0.5560 0.7594 -0.3377
vn 0.5964 0.7372 -0.3175
vn 0.7438 0.6476 0.1652
vn 0.6009 0.7121 0.3630
vn 0.2283 0.7586 0.6103
vn -0.3532 0.7479 0.5621
vn -0.5013 0.6068 0.6168
vn -0.7822 0.6097 0.1280
vn -0.7405 0.6458 -0.1859
vn -0.5929 0.6889 -0.4170
vn -0.1579 0.7601 -0.6303
vn 0.1396 0.7772 -0.6136
vn 0.4809 0.8201 -0.3100
vn 0.6971 0.7111 -0.0918
vn 0.8156 0.5622 -0.1371
vn 0.4977 0.7577 0.4220
vn 0.2065 0.6191 0.7577
vn -0.3146 0.5968 0.7382
vn -0.5063 0.7168 0.4794
vn -0.6440 0.7356 0.2103
vn -0.6196 0.7632 -0.1833
vn -0.5176 0.4308 -0.7393
vn -0.3682 0.2485 -0.8959
vn 0.3182 0.4268 -0.8465
vn 0.6151 0.4082 -0.6745
vn 0.9048 0.4201 0.0696
s 0
f 3//1 2//1 1//1
f 4//1 3//1 1//1
f 5//1 4//1 1//1
f 6//1 5//1 1//1
f 7//1 6//1 1//1
f 8//1 7//1 1//1
f 9//1 8//1 1//1
f 10//1 9//1 1//1
f 11//1 10//1 1//1
f 12//1 11//1 1//1
f 13//1 12//1 1//1
f 2//1 13//1 1//1
f 3//2 15//2 14//2 2//2
f 4//3 16//3 15//3 3//3
f 5//4 17//4 16//4 4//4
f 6//5 18//5 17//5 5//5
f 7//6 19//6 18//6 6//6
f 8//7 20//7 19//7 7//7
f 9//8 21//8 20//8 8//8
f 10//9 22//9 21//9 9//9
f 11//10 23//10 22//10 10//10
f 12//11 24//11 23//11 11//11
f 13//12 25//12 24//12 12//12
f 2//13 14//13 25//13 13//13
f 15//14 27//14 26//14 14//14
f 16//15 28//15 27//15 15//15
f 17//16 29//16 28//16 16//16
f 18//17 30//17 29//17 17//17
f 19//18 31//18 30//18 18//18
f 20//19 32//19 31//19 19//19
f 21//20 33//20 32//20 20//20
f 22//21 34//21 33//21 21//21
f 23//22 35//22 34//22 22//22
f 24//23 36//23 35//23 23//23
f 25//24 37//24 36//24 24//24
f 14//25 26//25 37//25 25//25
f 27//26 39//26 38//26 26//26
f 28//27 40//27 39//27 27//27
f 29//28 41//28 40//28 28//28
f 30//29 42//29 41//29 29//29
f 31//30 43//30 42//30 30//30
f 32//31 44//31 43//31 31//31
f 33//32 45//32 44//32 32//32
f 34//33 46//33 45//33 33//33
f 35//34 47//34 46//34 34//34
f 36//35 48//35 47//35 35//35
f 37//36 49//36 48//36 36//36
f 26//37 38//37 49//37 37//37
f 39//38 51//38 50//38 38//38
f 40//39 52//39 51//39 39//39
f 41//40 53//40 52//40 40//40
f 42//41 54//41 53//41 41//41
f 43//42 55//42 54//42 42//42
f 44//43 56//43 55//43 43//43
f 45//44 57//44 56//44 44//44
f 46//45 58//45 57//45 45//45
f 47//46 59//46 58//46 46//46
f 48//47 60//47 59//47 47//47
f 49//48 61//48 60//48 48//48
f 38//49 50//49 61//49 49//49
