# Blender 4.4.1
# www.blender.org
o Mountain_011
v 1.505620 0.000000 -2.532484
v 1.505620 19.745008 -2.532484
v 1.505620 19.745008 -2.532484
v 1.505620 19.745008 -2.532484
v 1.505620 19.745008 -2.532484
v 1.505620 19.745008 -2.532484
v 1.505620 19.745008 -2.532484
v 1.505620 19.745008 -2.532484
v 1.505620 19.745008 -2.532484
v 1.505620 19.745008 -2.532484
v 1.505620 19.745008 -2.532484
v 1.505620 19.745008 -2.532484
v 1.505620 19.745008 -2.532484
v 8.318672 17.390228 -2.532484
v 7.293780 17.194513 0.809312
v 4.992815 16.867779 3.507516
v 1.505620 16.850073 4.654812
v -1.934123 17.284117 3.425327
v -4.726887 17.330343 1.065856
v -5.280819 17.247398 -2.532484
v -4.517325 17.751789 -6.009832
v -1.840665 16.799292 -8.328420
v 1.505620 17.123663 -9.592060
v 5.016341 17.403503 -8.613230
v 7.609280 17.509069 -6.056433
v 14.769156 11.864384 -2.532484
v 13.499641 13.383117 4.392268
v 7.921344 13.315261 8.579876
v 1.505620 13.149890 11.093631
v -5.536770 13.379146 9.665294
v -9.340550 13.309431 3.729556
v -12.101438 12.356246 -2.532484
v -9.294689 12.170696 -8.768045
v -4.727334 13.619784 -13.328276
v 1.505620 13.729867 -16.297918
v 8.426278 12.277011 -14.519415
v 13.992325 12.154177 -9.741686
v 21.207190 7.752032 -2.532484
v 21.288918 6.422452 8.889409
v 10.638512 6.529355 13.286149
v 1.505620 7.640866 20.457586
v -10.005320 6.584519 17.405050
v -18.854872 6.909004 9.222652
v -19.063904 8.176951 -2.532484
v -16.424444 7.812175 -12.884411
v -9.487953 5.673136 -21.573910
v 1.505620 7.874944 -23.749996
v 11.938441 6.390722 -20.602659
v 17.086765 7.396852 -11.528261
v 26.827644 0.405253 -2.532484
v 24.572453 0.749382 10.785158
v 14.413931 -1.807240 19.825367
v 1.505620 -0.582244 28.976419
v -14.952083 -0.890281 25.973093
v -26.827644 1.768775 13.825735
v -21.275364 0.543037 -2.532484
v -20.964081 1.189029 -15.505371
v -13.202428 1.788066 -28.007570
v 1.505620 0.424806 -26.057137
v 16.773033 -1.837080 -28.976419
v 21.160295 1.099858 -13.880116
vn -0.0000 1.0000 -0.0000
vn 0.3228 0.9339 0.1537
vn 0.2294 0.9235 0.3075
vn 0.1174 0.9212 0.3710
vn -0.0165 0.9275 0.3736
vn -0.2101 0.9405 0.2671
vn -0.3452 0.9380 0.0315
vn -0.3448 0.9368 0.0602
vn -0.0507 0.9018 -0.4291
vn -0.2170 0.9151 -0.3398
vn 0.0223 0.9372 -0.3480
vn 0.2046 0.9473 -0.2466
vn 0.3265 0.9446 -0.0339
vn 0.5884 0.8081 0.0274
vn 0.3103 0.8603 0.4044
vn 0.1672 0.8528 0.4948
vn -0.0716 0.8642 0.4980
vn -0.4334 0.8337 0.3423
vn -0.5937 0.7963 0.1159
vn -0.6283 0.7501 -0.2063
vn -0.4588 0.7793 -0.4268
vn -0.2307 0.8716 -0.4326
vn 0.2266 0.8344 -0.5024
vn 0.4075 0.7938 -0.4514
vn 0.6357 0.7697 -0.0587
vn 0.6077 0.7935 0.0312
vn 0.3403 0.6887 0.6402
vn 0.3936 0.7286 0.5606
vn -0.1685 0.8205 0.5462
vn -0.4135 0.8248 0.3855
vn -0.5139 0.8521 0.0996
vn -0.4698 0.8636 -0.1829
vn -0.4187 0.8124 -0.4059
vn -0.2772 0.7617 -0.5856
vn 0.2935 0.7585 -0.5818
vn 0.5509 0.6896 -0.4701
vn 0.6474 0.7358 -0.1986
vn 0.8153 0.5713 0.0944
vn 0.3780 0.6098 0.6966
vn 0.4988 0.6426 0.5816
vn -0.1748 0.7498 0.6382
vn -0.3335 0.8225 0.4607
vn -0.7988 0.5824 -0.1509
vn -0.8908 0.4416 -0.1074
vn -0.5117 0.7551 -0.4098
vn -0.0270 0.6160 -0.7873
vn 0.0917 0.5798 -0.8096
vn 0.6490 0.6675 -0.3649
vn 0.7362 0.5825 -0.3445
s 0
f 3//1 2//1 1//1
f 4//1 3//1 1//1
f 5//1 4//1 1//1
f 6//1 5//1 1//1
f 7//1 6//1 1//1
f 8//1 7//1 1//1
f 9//1 8//1 1//1
f 10//1 9//1 1//1
f 11//1 10//1 1//1
f 12//1 11//1 1//1
f 13//1 12//1 1//1
f 2//1 13//1 1//1
f 3//2 15//2 14//2 2//2
f 4//3 16//3 15//3 3//3
f 5//4 17//4 16//4 4//4
f 6//5 18//5 17//5 5//5
f 7//6 19//6 18//6 6//6
f 8//7 20//7 19//7 7//7
f 9//8 21//8 20//8 8//8
f 10//9 22//9 21//9 9//9
f 11//10 23//10 22//10 10//10
f 12//11 24//11 23//11 11//11
f 13//12 25//12 24//12 12//12
f 2//13 14//13 25//13 13//13
f 15//14 27//14 26//14 14//14
f 16//15 28//15 27//15 15//15
f 17//16 29//16 28//16 16//16
f 18//17 30//17 29//17 17//17
f 19//18 31//18 30//18 18//18
f 20//19 32//19 31//19 19//19
f 21//20 33//20 32//20 20//20
f 22//21 34//21 33//21 21//21
f 23//22 35//22 34//22 22//22
f 24//23 36//23 35//23 23//23
f 25//24 37//24 36//24 24//24
f 14//25 26//25 37//25 25//25
f 27//26 39//26 38//26 26//26
f 28//27 40//27 39//27 27//27
f 29//28 41//28 40//28 28//28
f 30//29 42//29 41//29 29//29
f 31//30 43//30 42//30 30//30
f 32//31 44//31 43//31 31//31
f 33//32 45//32 44//32 32//32
f 34//33 46//33 45//33 33//33
f 35//34 47//34 46//34 34//34
f 36//35 48//35 47//35 35//35
f 37//36 49//36 48//36 36//36
f 26//37 38//37 49//37 37//37
f 39//38 51//38 50//38 38//38
f 40//39 52//39 51//39 39//39
f 41//40 53//40 52//40 40//40
f 42//41 54//41 53//41 41//41
f 43//42 55//42 54//42 42//42
f 44//43 56//43 55//43 43//43
f 45//44 57//44 56//44 44//44
f 46//45 58//45 57//45 45//45
f 47//46 59//46 58//46 46//46
f 48//47 60//47 59//47 47//47
f 49//48 61//48 60//48 48//48
f 38//49 50//49 61//49 49//49
