# Blender 4.4.1
# www.blender.org
o Mountain_073
v 3.068626 0.000000 -4.497724
v 3.068626 19.853689 -4.497724
v 3.068626 19.853689 -4.497724
v 3.068626 19.853689 -4.497724
v 3.068626 19.853689 -4.497724
v 3.068626 19.853689 -4.497724
v 3.068626 19.853689 -4.497724
v 3.068626 19.853689 -4.497724
v 3.068626 19.853689 -4.497724
v 3.068626 19.853689 -4.497724
v 3.068626 19.853689 -4.497724
v 3.068626 19.853689 -4.497724
v 3.068626 19.853689 -4.497724
v 9.685386 17.515356 -4.497724
v 9.174845 17.671106 -0.972297
v 6.508483 17.003563 1.460284
v 3.068626 17.845842 2.421871
v -0.233288 17.773193 1.221359
v -2.853569 17.309837 -1.078543
v -3.484591 17.670946 -4.497724
v -2.845871 17.502459 -7.912461
v -0.441691 17.712500 -10.577771
v 3.068626 17.133963 -11.411206
v 6.499968 17.817396 -10.440983
v 8.805472 16.968220 -7.809894
v 16.550880 13.090253 -4.497724
v 15.113194 11.896895 2.456211
v 10.178599 13.669385 7.817111
v 3.068626 12.600881 8.005196
v -4.088811 12.100852 7.899320
v -8.645861 13.095429 2.265638
v -10.197091 12.317602 -4.497724
v -9.696308 12.431167 -11.867562
v -3.806297 12.328587 -16.405439
v 3.068626 13.402262 -18.915514
v 10.264362 13.150536 -16.961105
v 14.360426 13.697938 -11.017048
v 24.331297 7.370462 -4.497724
v 21.226797 5.777301 5.985901
v 13.182920 7.243918 13.020746
v 3.068626 6.310503 13.567892
v -8.383433 5.745608 15.337825
v -14.636696 6.545574 5.724448
v -19.489658 6.633137 -4.497724
v -14.619626 5.534702 -14.710041
v -5.861269 8.325913 -19.964756
v 3.068626 7.516238 -22.374329
v 12.925264 6.403186 -21.569921
v 22.977057 7.877215 -15.991862
v 26.877579 -1.945104 -4.497724
v 23.677101 0.267206 7.400585
v 17.304230 -1.860487 20.159065
v 3.068626 1.960510 28.006741
v -10.496642 0.452684 18.998011
v -21.018986 -1.356451 9.409265
v -26.877579 1.693850 -4.497724
v -17.673868 -1.868013 -16.473410
v -7.979699 0.046635 -23.633986
v 3.068626 1.456761 -28.006741
v 14.618023 -1.123886 -24.501865
v 25.085218 -1.112755 -17.209009
vn -0.0000 1.0000 -0.0000
vn 0.3332 0.9428 0.0066
vn 0.1121 0.9201 0.3754
vn 0.2988 0.9165 0.2659
vn -0.1215 0.9533 0.2766
vn -0.3086 0.9372 0.1628
vn -0.3121 0.9371 0.1566
vn -0.3143 0.9435 -0.1053
vn -0.2754 0.9455 -0.1739
vn 0.0663 0.9285 -0.3653
vn -0.0816 0.9275 -0.3649
vn 0.4152 0.9070 -0.0711
vn 0.3237 0.9159 -0.2373
vn 0.5811 0.7922 0.1865
vn 0.4544 0.8292 0.3256
vn 0.0450 0.8178 0.5738
vn -0.1214 0.7600 0.6385
vn -0.4014 0.8151 0.4177
vn -0.5891 0.8026 0.0934
vn -0.5957 0.8004 -0.0670
vn -0.3964 0.8033 -0.4445
vn -0.2059 0.8312 -0.5164
vn 0.1001 0.8652 -0.4913
vn 0.4277 0.8565 -0.2891
vn 0.4928 0.8573 -0.1486
vn 0.5825 0.7653 0.2740
vn 0.5733 0.7061 0.4157
vn -0.0416 0.6399 0.7674
vn 0.0219 0.7131 0.7008
vn -0.4882 0.7565 0.4352
vn -0.5871 0.7870 0.1894
vn -0.6185 0.7511 -0.2310
vn -0.4998 0.6537 -0.5682
vn -0.2480 0.5944 -0.7649
vn 0.1759 0.5559 -0.8124
vn 0.3527 0.7466 -0.5641
vn 0.5624 0.8247 -0.0596
vn 0.9108 0.3306 0.2474
vn 0.6492 0.5800 0.4922
vn 0.2630 0.8404 0.4738
vn -0.2004 0.8742 0.4423
vn -0.5901 0.6480 0.4815
vn -0.5852 0.7293 0.3546
vn -0.6162 0.5951 -0.5159
vn -0.5768 0.4307 -0.6941
vn -0.2831 0.5511 -0.7850
vn 0.2546 0.5382 -0.8035
vn 0.4875 0.3166 -0.8137
vn 0.9614 0.2518 -0.1110
s 0
f 3//1 2//1 1//1
f 4//1 3//1 1//1
f 5//1 4//1 1//1
f 6//1 5//1 1//1
f 7//1 6//1 1//1
f 8//1 7//1 1//1
f 9//1 8//1 1//1
f 10//1 9//1 1//1
f 11//1 10//1 1//1
f 12//1 11//1 1//1
f 13//1 12//1 1//1
f 2//1 13//1 1//1
f 3//2 15//2 14//2 2//2
f 4//3 16//3 15//3 3//3
f 5//4 17//4 16//4 4//4
f 6//5 18//5 17//5 5//5
f 7//6 19//6 18//6 6//6
f 8//7 20//7 19//7 7//7
f 9//8 21//8 20//8 8//8
f 10//9 22//9 21//9 9//9
f 11//10 23//10 22//10 10//10
f 12//11 24//11 23//11 11//11
f 13//12 25//12 24//12 12//12
f 2//13 14//13 25//13 13//13
f 15//14 27//14 26//14 14//14
f 16//15 28//15 27//15 15//15
f 17//16 29//16 28//16 16//16
f 18//17 30//17 29//17 17//17
f 19//18 31//18 30//18 18//18
f 20//19 32//19 31//19 19//19
f 21//20 33//20 32//20 20//20
f 22//21 34//21 33//21 21//21
f 23//22 35//22 34//22 22//22
f 24//23 36//23 35//23 23//23
f 25//24 37//24 36//24 24//24
f 14//25 26//25 37//25 25//25
f 27//26 39//26 38//26 26//26
f 28//27 40//27 39//27 27//27
f 29//28 41//28 40//28 28//28
f 30//29 42//29 41//29 29//29
f 31//30 43//30 42//30 30//30
f 32//31 44//31 43//31 31//31
f 33//32 45//32 44//32 32//32
f 34//33 46//33 45//33 33//33
f 35//34 47//34 46//34 34//34
f 36//35 48//35 47//35 35//35
f 37//36 49//36 48//36 36//36
f 26//37 38//37 49//37 37//37
f 39//38 51//38 50//38 38//38
f 40//39 52//39 51//39 39//39
f 41//40 53//40 52//40 40//40
f 42//41 54//41 53//41 41//41
f 43//42 55//42 54//42 42//42
f 44//43 56//43 55//43 43//43
f 45//44 57//44 56//44 44//44
f 46//45 58//45 57//45 45//45
f 47//46 59//46 58//46 46//46
f 48//47 60//47 59//47 47//47
f 49//48 61//48 60//48 48//48
f 38//49 50//49 61//49 49//49
