# Blender 4.4.1
# www.blender.org
o Mountain_018
v -3.230963 0.000000 0.039223
v -3.230963 21.257071 0.039223
v -3.230963 21.257071 0.039223
v -3.230963 21.257071 0.039223
v -3.230963 21.257071 0.039223
v -3.230963 21.257071 0.039223
v -3.230963 21.257071 0.039223
v -3.230963 21.257071 0.039223
v -3.230963 21.257071 0.039223
v -3.230963 21.257071 0.039223
v -3.230963 21.257071 0.039223
v -3.230963 21.257071 0.039223
v -3.230963 21.257071 0.039223
v 2.955162 18.653185 0.039223
v 2.269125 18.559147 3.214700
v -0.129803 18.534523 5.410588
v -3.230963 18.804892 5.988162
v -6.365720 18.914177 5.468782
v -8.444883 18.599195 3.049481
v -9.387694 18.325743 0.039223
v -8.576175 18.828701 -3.046837
v -6.356640 18.147123 -5.374610
v -3.230963 18.577866 -6.334634
v -0.223236 18.606964 -5.170312
v 2.251965 18.803696 -3.126347
v 9.026549 14.359549 0.039223
v 6.996848 14.582281 5.944252
v 2.889604 14.035292 10.640355
v -3.230963 14.313278 11.182051
v -9.498192 13.433352 10.894382
v -14.063808 12.772869 6.293570
v -16.557711 14.118814 0.039223
v -13.543146 14.278690 -5.914519
v -9.872596 13.593730 -11.464424
v -3.230963 13.228709 -10.922709
v 2.857731 13.781520 -10.506704
v 7.461961 13.901489 -6.134339
v 14.699709 7.103073 0.039223
v 13.843915 7.732673 9.897408
v 5.883892 6.955867 15.826613
v -3.230963 6.189280 15.666623
v -12.114814 8.922445 15.426505
v -17.198023 8.855321 8.103108
v -19.498751 6.850399 0.039223
v -18.804623 6.515527 -8.952234
v -12.297862 7.374191 -15.665108
v -3.230963 8.077590 -17.849821
v 5.387504 6.813328 -14.888398
v 14.023126 6.222874 -9.922430
v 24.466352 0.629081 0.039223
v 19.307245 -1.426970 13.051663
v 11.272514 -1.088732 25.159981
v -3.230963 -1.444904 21.177416
v -15.673305 1.949114 21.589991
v -22.020432 -0.403683 10.887327
v -24.466352 0.597234 0.039223
v -23.706532 -2.001599 -11.782353
v -15.937030 -1.286799 -21.968330
v -3.230963 -0.472605 -25.159981
v 9.915612 -1.250832 -22.731312
v 19.940220 1.312538 -13.338666
vn -0.0000 1.0000 -0.0000
vn 0.3856 0.9160 0.1104
vn 0.2709 0.9126 0.3062
vn 0.1499 0.9141 0.3768
vn -0.0309 0.9241 0.3809
vn -0.3576 0.9147 0.1882
vn -0.4293 0.9016 0.0525
vn -0.4296 0.9024 0.0341
vn -0.1644 0.8933 -0.4183
vn -0.2389 0.8952 -0.3763
vn 0.1397 0.9128 -0.3837
vn 0.2110 0.9151 -0.3437
vn 0.3876 0.9209 -0.0423
vn 0.5743 0.8028 0.1604
vn 0.4070 0.7948 0.4502
vn 0.1219 0.7688 0.6278
vn -0.1175 0.7410 0.6612
vn -0.5414 0.7338 0.4105
vn -0.5432 0.7870 0.2926
vn -0.5492 0.8177 -0.1725
vn -0.4001 0.8046 -0.4388
vn -0.0338 0.7383 -0.6736
vn 0.0767 0.7080 -0.7020
vn 0.4097 0.7695 -0.4900
vn 0.5949 0.7855 -0.1703
vn 0.7307 0.6758 0.0972
vn 0.4354 0.6883 0.5802
vn 0.0039 0.5373 0.8434
vn 0.0418 0.5746 0.8173
vn -0.5714 0.7054 0.4193
vn -0.8316 0.4930 0.2558
vn -0.8386 0.5009 -0.2140
vn -0.6188 0.6016 -0.5051
vn -0.0887 0.7063 -0.7024
vn 0.1934 0.6906 -0.6969
vn 0.4611 0.6330 -0.6218
vn 0.7440 0.6494 -0.1572
vn 0.6758 0.7030 0.2216
vn 0.5325 0.6909 0.4890
vn -0.1613 0.6487 0.7437
vn 0.1754 0.5882 0.7895
vn -0.7205 0.5808 0.3789
vn -0.8179 0.5478 0.1762
vn -0.8113 0.5683 -0.1368
vn -0.6466 0.5830 -0.4919
vn -0.2269 0.6332 -0.7400
vn 0.2345 0.6892 -0.6856
vn 0.3455 0.7581 -0.5531
vn 0.5632 0.8156 -0.1324
s 0
f 3//1 2//1 1//1
f 4//1 3//1 1//1
f 5//1 4//1 1//1
f 6//1 5//1 1//1
f 7//1 6//1 1//1
f 8//1 7//1 1//1
f 9//1 8//1 1//1
f 10//1 9//1 1//1
f 11//1 10//1 1//1
f 12//1 11//1 1//1
f 13//1 12//1 1//1
f 2//1 13//1 1//1
f 3//2 15//2 14//2 2//2
f 4//3 16//3 15//3 3//3
f 5//4 17//4 16//4 4//4
f 6//5 18//5 17//5 5//5
f 7//6 19//6 18//6 6//6
f 8//7 20//7 19//7 7//7
f 9//8 21//8 20//8 8//8
f 10//9 22//9 21//9 9//9
f 11//10 23//10 22//10 10//10
f 12//11 24//11 23//11 11//11
f 13//12 25//12 24//12 12//12
f 2//13 14//13 25//13 13//13
f 15//14 27//14 26//14 14//14
f 16//15 28//15 27//15 15//15
f 17//16 29//16 28//16 16//16
f 18//17 30//17 29//17 17//17
f 19//18 31//18 30//18 18//18
f 20//19 32//19 31//19 19//19
f 21//20 33//20 32//20 20//20
f 22//21 34//21 33//21 21//21
f 23//22 35//22 34//22 22//22
f 24//23 36//23 35//23 23//23
f 25//24 37//24 36//24 24//24
f 14//25 26//25 37//25 25//25
f 27//26 39//26 38//26 26//26
f 28//27 40//27 39//27 27//27
f 29//28 41//28 40//28 28//28
f 30//29 42//29 41//29 29//29
f 31//30 43//30 42//30 30//30
f 32//31 44//31 43//31 31//31
f 33//32 45//32 44//32 32//32
f 34//33 46//33 45//33 33//33
f 35//34 47//34 46//34 34//34
f 36//35 48//35 47//35 35//35
f 37//36 49//36 48//36 36//36
f 26//37 38//37 49//37 37//37
f 39//38 51//38 50//38 38//38
f 40//39 52//39 51//39 39//39
f 41//40 53//40 52//40 40//40
f 42//41 54//41 53//41 41//41
f 43//42 55//42 54//42 42//42
f 44//43 56//43 55//43 43//43
f 45//44 57//44 56//44 44//44
f 46//45 58//45 57//45 45//45
f 47//46 59//46 58//46 46//46
f 48//47 60//47 59//47 47//47
f 49//48 61//48 60//48 48//48
f 38//49 50//49 61//49 49//49
