# Blender 4.4.1
# www.blender.org
o Mountain_044
v -1.260748 0.000000 0.779846
v -1.260748 19.342430 0.779846
v -1.260748 19.342430 0.779846
v -1.260748 19.342430 0.779846
v -1.260748 19.342430 0.779846
v -1.260748 19.342430 0.779846
v -1.260748 19.342430 0.779846
v -1.260748 19.342430 0.779846
v -1.260748 19.342430 0.779846
v -1.260748 19.342430 0.779846
v -1.260748 19.342430 0.779846
v -1.260748 19.342430 0.779846
v -1.260748 19.342430 0.779846
v 5.718632 16.654387 0.779846
v 4.786670 16.853264 4.271325
v 2.233125 17.390965 6.831411
v -1.260748 16.754641 7.677379
v -4.810301 16.998095 6.927854
v -6.916647 17.249992 4.045281
v -8.236011 17.180166 0.779846
v -7.184118 16.765539 -2.640013
v -4.520564 16.577658 -4.866320
v -1.260748 17.114468 -5.939296
v 2.145668 16.865305 -5.120239
v 4.857812 16.480427 -2.752705
v 11.208181 13.175740 0.779846
v 10.740691 13.040914 7.708880
v 4.859412 12.478641 11.380273
v -1.260748 11.883755 12.995008
v -7.480538 12.797380 11.552840
v -13.906512 12.341802 8.080882
v -15.647313 13.031051 0.779846
v -13.449791 11.935491 -6.257501
v -8.226896 12.548504 -11.285876
v -1.260748 13.351220 -12.534979
v 5.665707 11.609495 -11.217124
v 9.725537 12.503631 -5.563088
v 21.815525 7.148182 0.779846
v 17.838043 6.337721 11.806539
v 7.393404 6.012146 15.769276
v -1.260748 6.866772 18.776953
v -10.192749 6.378479 16.250526
v -20.246216 6.894403 11.741112
v -19.878536 7.563483 0.779846
v -19.708517 6.130485 -9.870978
v -10.491706 7.639736 -15.208642
v -1.260748 8.138657 -20.679867
v 8.826183 5.840051 -16.691231
v 17.244148 5.453565 -9.903959
v 27.416479 -0.831475 0.779846
v 21.600786 -0.641029 13.978959
v 13.946863 0.999648 27.120201
v -1.260748 0.930049 22.934767
v -17.117331 -1.253824 28.244255
v -27.416479 -0.057790 15.880865
v -24.204441 1.528358 0.779846
v -26.814686 0.358634 -13.973726
v -13.870567 -1.165376 -21.061001
v -1.260748 -0.674335 -28.244255
v 13.804942 -0.672605 -25.314693
v 18.440046 0.919724 -10.594412
vn -0.0000 1.0000 -0.0000
vn 0.3591 0.9323 0.0427
vn 0.3180 0.9405 0.1197
vn -0.0852 0.9329 0.3500
vn -0.0100 0.9362 0.3513
vn -0.2129 0.9475 0.2384
vn -0.2946 0.9505 0.0987
vn -0.2900 0.9354 -0.2026
vn -0.2103 0.9205 -0.3293
vn -0.2515 0.9187 -0.3046
vn 0.1436 0.9393 -0.3115
vn 0.3132 0.9266 -0.2082
vn 0.3562 0.9250 -0.1324
vn 0.5223 0.8503 0.0649
vn 0.3573 0.7971 0.4868
vn 0.0846 0.7187 0.6901
vn -0.0606 0.7454 0.6638
vn -0.3591 0.8143 0.4560
vn -0.4839 0.8542 0.1902
vn -0.4778 0.8362 -0.2692
vn -0.3834 0.8475 -0.3671
vn -0.2165 0.8636 -0.4554
vn 0.2632 0.8194 -0.5092
vn 0.4347 0.7979 -0.4176
vn 0.5368 0.8202 -0.1977
vn 0.5469 0.8180 0.1784
vn 0.2889 0.6589 0.6945
vn 0.2316 0.6731 0.7023
vn -0.1659 0.6873 0.7071
vn -0.3116 0.6945 0.6486
vn -0.6965 0.7098 0.1052
vn -0.6869 0.7008 -0.1921
vn -0.4681 0.7264 -0.5033
vn -0.3011 0.7577 -0.5790
vn 0.3499 0.7673 -0.5375
vn 0.4528 0.7483 -0.4847
vn 0.5119 0.8071 -0.2942
vn 0.7784 0.5350 0.3284
vn 0.4301 0.8129 0.3927
vn -0.0016 0.8166 0.5772
vn -0.0109 0.7679 0.6405
vn -0.3182 0.8247 0.4675
vn -0.7554 0.6536 -0.0472
vn -0.7180 0.6960 -0.0023
vn -0.3547 0.6877 -0.6334
vn -0.4215 0.5992 -0.6807
vn 0.2402 0.7407 -0.6274
vn 0.6073 0.6824 -0.4068
vn 0.7651 0.4414 -0.4688
s 0
f 3//1 2//1 1//1
f 4//1 3//1 1//1
f 5//1 4//1 1//1
f 6//1 5//1 1//1
f 7//1 6//1 1//1
f 8//1 7//1 1//1
f 9//1 8//1 1//1
f 10//1 9//1 1//1
f 11//1 10//1 1//1
f 12//1 11//1 1//1
f 13//1 12//1 1//1
f 2//1 13//1 1//1
f 3//2 15//2 14//2 2//2
f 4//3 16//3 15//3 3//3
f 5//4 17//4 16//4 4//4
f 6//5 18//5 17//5 5//5
f 7//6 19//6 18//6 6//6
f 8//7 20//7 19//7 7//7
f 9//8 21//8 20//8 8//8
f 10//9 22//9 21//9 9//9
f 11//10 23//10 22//10 10//10
f 12//11 24//11 23//11 11//11
f 13//12 25//12 24//12 12//12
f 2//13 14//13 25//13 13//13
f 15//14 27//14 26//14 14//14
f 16//15 28//15 27//15 15//15
f 17//16 29//16 28//16 16//16
f 18//17 30//17 29//17 17//17
f 19//18 31//18 30//18 18//18
f 20//19 32//19 31//19 19//19
f 21//20 33//20 32//20 20//20
f 22//21 34//21 33//21 21//21
f 23//22 35//22 34//22 22//22
f 24//23 36//23 35//23 23//23
f 25//24 37//24 36//24 24//24
f 14//25 26//25 37//25 25//25
f 27//26 39//26 38//26 26//26
f 28//27 40//27 39//27 27//27
f 29//28 41//28 40//28 28//28
f 30//29 42//29 41//29 29//29
f 31//30 43//30 42//30 30//30
f 32//31 44//31 43//31 31//31
f 33//32 45//32 44//32 32//32
f 34//33 46//33 45//33 33//33
f 35//34 47//34 46//34 34//34
f 36//35 48//35 47//35 35//35
f 37//36 49//36 48//36 36//36
f 26//37 38//37 49//37 37//37
f 39//38 51//38 50//38 38//38
f 40//39 52//39 51//39 39//39
f 41//40 53//40 52//40 40//40
f 42//41 54//41 53//41 41//41
f 43//42 55//42 54//42 42//42
f 44//43 56//43 55//43 43//43
f 45//44 57//44 56//44 44//44
f 46//45 58//45 57//45 45//45
f 47//46 59//46 58//46 46//46
f 48//47 60//47 59//47 47//47
f 49//48 61//48 60//48 48//48
f 38//49 50//49 61//49 49//49
