# Blender 4.4.1
# www.blender.org
o Mountain_046
v -2.236497 0.000000 -0.852509
v -2.236497 17.459976 -0.852509
v -2.236497 17.459976 -0.852509
v -2.236497 17.459976 -0.852509
v -2.236497 17.459976 -0.852509
v -2.236497 17.459976 -0.852509
v -2.236497 17.459976 -0.852509
v -2.236497 17.459976 -0.852509
v -2.236497 17.459976 -0.852509
v -2.236497 17.459976 -0.852509
v -2.236497 17.459976 -0.852509
v -2.236497 17.459976 -0.852509
v -2.236497 17.459976 -0.852509
v 3.960678 15.228469 -0.852509
v 3.292829 15.095474 2.339849
v 0.772799 15.602055 4.359744
v -2.236497 15.668101 5.272684
v -5.428851 15.200386 4.676810
v -7.601277 15.404982 2.244848
v -8.420836 15.358980 -0.852509
v -7.794263 15.575965 -4.061287
v -5.366098 15.106443 -6.273138
v -2.236497 15.530080 -6.914530
v 0.807033 15.067966 -6.124057
v 3.205381 15.688421 -3.994379
v 11.029901 10.496563 -0.852509
v 8.344212 11.209991 5.256266
v 3.637200 12.027475 9.321033
v -2.236497 10.911983 12.268032
v -9.125793 11.879415 11.080100
v -13.557899 11.577400 5.683905
v -13.951470 10.829326 -0.852509
v -12.137053 10.966772 -6.568598
v -8.059983 10.868614 -10.939084
v -2.236497 11.396045 -12.645554
v 3.471458 10.967327 -10.738976
v 8.323993 11.065052 -6.949611
v 16.870287 5.235734 -0.852509
v 13.141469 7.220504 8.025964
v 6.933694 6.117862 15.030727
v -2.236497 6.009498 16.019810
v -11.167812 4.821137 14.616982
v -19.757812 7.364986 9.263428
v -20.161789 6.657465 -0.852509
v -18.459915 5.568947 -10.219105
v -12.934481 7.378314 -19.381960
v -2.236497 5.195102 -20.151093
v 7.388732 7.185009 -17.523895
v 13.830905 6.614764 -10.129027
v 25.270712 1.397407 -0.852509
v 16.420870 0.177952 9.919327
v 9.384523 -0.343508 19.275688
v -2.236497 -0.188663 27.754694
v -12.771982 -1.553820 17.395487
v -25.270712 0.291342 12.446301
v -24.613152 1.521340 -0.852509
v -22.101721 -1.667258 -12.321701
v -15.017212 -0.190460 -22.989357
v -2.236497 -1.440878 -27.754694
v 10.410165 -1.066979 -22.757170
v 17.976080 0.366931 -12.522245
vn -0.0000 1.0000 -0.0000
vn 0.3368 0.9352 0.1094
vn 0.3120 0.9375 0.1541
vn 0.1057 0.9544 0.2792
vn -0.1895 0.9424 0.2757
vn -0.2078 0.9416 0.2648
vn -0.3209 0.9445 0.0709
vn -0.3217 0.9469 0.0012
vn -0.1238 0.9343 -0.3342
vn -0.1878 0.9359 -0.2980
vn 0.2181 0.9299 -0.2961
vn 0.0882 0.9253 -0.3689
vn 0.3383 0.9394 0.0562
vn 0.5495 0.8225 0.1468
vn 0.4407 0.8296 0.3429
vn 0.1384 0.8278 0.5436
vn -0.0469 0.8611 0.5062
vn -0.3590 0.8866 0.2918
vn -0.5869 0.8096 0.0072
vn -0.6512 0.7443 -0.1485
vn -0.4369 0.7501 -0.4965
vn -0.2336 0.7860 -0.5724
vn 0.2533 0.7876 -0.5617
vn 0.3537 0.7728 -0.5270
vn 0.5838 0.8015 -0.1295
vn 0.6306 0.7648 0.1322
vn 0.4495 0.7640 0.4629
vn 0.1347 0.6755 0.7250
vn -0.1440 0.5328 0.8339
vn -0.3942 0.6792 0.6191
vn -0.5681 0.8218 -0.0446
vn -0.5627 0.8064 -0.1820
vn -0.4552 0.8643 -0.2137
vn 0.0075 0.8536 -0.5210
vn 0.0802 0.8273 -0.5560
vn 0.3805 0.8568 -0.3480
vn 0.6222 0.7712 -0.1348
vn 0.6043 0.7112 0.3591
vn 0.6345 0.5265 0.5659
vn 0.2631 0.7755 0.5740
vn -0.4324 0.7046 0.5626
vn -0.2889 0.5116 0.8092
vn -0.7740 0.6332 0.0057
vn -0.7831 0.5587 -0.2730
vn -0.7805 0.4636 -0.4195
vn -0.0913 0.6252 -0.7751
vn 0.1785 0.6631 -0.7270
vn 0.6222 0.5826 -0.5229
vn 0.5717 0.7750 -0.2692
s 0
f 3//1 2//1 1//1
f 4//1 3//1 1//1
f 5//1 4//1 1//1
f 6//1 5//1 1//1
f 7//1 6//1 1//1
f 8//1 7//1 1//1
f 9//1 8//1 1//1
f 10//1 9//1 1//1
f 11//1 10//1 1//1
f 12//1 11//1 1//1
f 13//1 12//1 1//1
f 2//1 13//1 1//1
f 3//2 15//2 14//2 2//2
f 4//3 16//3 15//3 3//3
f 5//4 17//4 16//4 4//4
f 6//5 18//5 17//5 5//5
f 7//6 19//6 18//6 6//6
f 8//7 20//7 19//7 7//7
f 9//8 21//8 20//8 8//8
f 10//9 22//9 21//9 9//9
f 11//10 23//10 22//10 10//10
f 12//11 24//11 23//11 11//11
f 13//12 25//12 24//12 12//12
f 2//13 14//13 25//13 13//13
f 15//14 27//14 26//14 14//14
f 16//15 28//15 27//15 15//15
f 17//16 29//16 28//16 16//16
f 18//17 30//17 29//17 17//17
f 19//18 31//18 30//18 18//18
f 20//19 32//19 31//19 19//19
f 21//20 33//20 32//20 20//20
f 22//21 34//21 33//21 21//21
f 23//22 35//22 34//22 22//22
f 24//23 36//23 35//23 23//23
f 25//24 37//24 36//24 24//24
f 14//25 26//25 37//25 25//25
f 27//26 39//26 38//26 26//26
f 28//27 40//27 39//27 27//27
f 29//28 41//28 40//28 28//28
f 30//29 42//29 41//29 29//29
f 31//30 43//30 42//30 30//30
f 32//31 44//31 43//31 31//31
f 33//32 45//32 44//32 32//32
f 34//33 46//33 45//33 33//33
f 35//34 47//34 46//34 34//34
f 36//35 48//35 47//35 35//35
f 37//36 49//36 48//36 36//36
f 26//37 38//37 49//37 37//37
f 39//38 51//38 50//38 38//38
f 40//39 52//39 51//39 39//39
f 41//40 53//40 52//40 40//40
f 42//41 54//41 53//41 41//41
f 43//42 55//42 54//42 42//42
f 44//43 56//43 55//43 43//43
f 45//44 57//44 56//44 44//44
f 46//45 58//45 57//45 45//45
f 47//46 59//46 58//46 46//46
f 48//47 60//47 59//47 47//47
f 49//48 61//48 60//48 48//48
f 38//49 50//49 61//49 49//49
