# Blender 4.4.1
# www.blender.org
o Mountain_070
v 0.124861 0.000000 -0.194530
v 0.124861 14.470421 -0.194530
v 0.124861 14.470421 -0.194530
v 0.124861 14.470421 -0.194530
v 0.124861 14.470421 -0.194530
v 0.124861 14.470421 -0.194530
v 0.124861 14.470421 -0.194530
v 0.124861 14.470421 -0.194530
v 0.124861 14.470421 -0.194530
v 0.124861 14.470421 -0.194530
v 0.124861 14.470421 -0.194530
v 0.124861 14.470421 -0.194530
v 0.124861 14.470421 -0.194530
v 5.348995 12.992713 -0.194530
v 4.812159 12.342963 2.511682
v 2.682646 12.913947 4.235682
v 0.124861 12.892429 5.189780
v -2.418731 12.404146 4.211101
v -4.532034 13.002990 2.494129
v -5.283435 12.475309 -0.194530
v -4.520568 12.340278 -2.876570
v -2.377987 12.995923 -4.529590
v 0.124861 12.572959 -5.494280
v 2.598765 12.997993 -4.479458
v 4.565121 12.807337 -2.758116
v 10.850603 8.737582 -0.194530
v 9.727927 9.890450 5.349802
v 4.830651 9.159357 7.956136
v 0.124861 8.742351 9.318447
v -5.140819 9.808308 8.925895
v -8.240866 8.894810 4.635424
v -10.768767 9.713376 -0.194530
v -9.228345 9.064234 -5.594606
v -4.977047 9.118975 -9.031295
v 0.124861 9.636886 -11.166770
v 5.097180 8.856409 -8.806839
v 9.806587 8.677311 -5.784278
v 16.880211 5.078760 -0.194530
v 11.638694 5.793710 6.452984
v 8.336058 5.887688 14.027679
v 0.124861 5.786847 15.640063
v -8.645507 5.075671 14.996192
v -14.216564 4.905928 8.085495
v -13.852322 6.098549 -0.194530
v -13.456107 6.108976 -8.035506
v -6.789717 4.446190 -12.170931
v 0.124861 4.461475 -16.332438
v 7.176308 5.605556 -12.407994
v 13.858823 5.813316 -8.123837
v 23.530760 -0.091349 -0.194530
v 16.772335 0.410644 9.416893
v 11.872248 -0.970026 20.152540
v 0.124861 0.424409 23.101511
v -8.994359 -1.133321 15.600422
v -14.828631 0.298641 8.438872
v -23.530760 -1.365866 -0.194530
v -16.299639 0.120301 -9.677219
v -8.456648 0.281047 -15.058140
v 0.124861 -0.552422 -23.101511
v 10.727272 0.400509 -18.558445
v 14.751320 -0.668047 -8.639121
vn -0.0000 1.0000 -0.0000
vn 0.2618 0.9254 0.2741
vn 0.3497 0.9286 0.1244
vn 0.0964 0.9552 0.2799
vn -0.2807 0.9211 0.2699
vn -0.0610 0.9168 0.3948
vn -0.3448 0.9346 -0.0871
vn -0.3425 0.9284 -0.1442
vn -0.3640 0.9255 -0.1047
vn 0.0292 0.9411 -0.3369
vn -0.0235 0.9412 -0.3370
vn 0.2512 0.9507 -0.1817
vn 0.2691 0.9512 -0.1511
vn 0.5299 0.8463 0.0550
vn 0.2794 0.8293 0.4840
vn 0.1720 0.7172 0.6752
vn -0.0456 0.8010 0.5970
vn -0.4625 0.8107 0.3589
vn -0.5368 0.8010 0.2651
vn -0.4551 0.8644 -0.2136
vn -0.4089 0.8206 -0.3992
vn -0.2161 0.8359 -0.5045
vn 0.2703 0.8164 -0.5103
vn 0.3852 0.7878 -0.4807
vn 0.5806 0.7995 -0.1542
vn 0.6619 0.7113 0.2365
vn 0.4746 0.7678 0.4303
vn 0.0638 0.8988 0.4336
vn -0.0171 0.8518 0.5236
vn -0.4756 0.8312 0.2878
vn -0.5781 0.7868 0.2161
vn -0.6384 0.7587 -0.1300
vn -0.3259 0.7126 -0.6213
vn -0.3801 0.6362 -0.6714
vn 0.3032 0.7219 -0.6220
vn 0.3187 0.8053 -0.5000
vn 0.5208 0.8460 -0.1144
vn 0.5687 0.7374 0.3645
vn 0.6348 0.6971 0.3334
vn 0.1924 0.7540 0.6281
vn -0.4060 0.5308 0.7439
vn -0.7654 0.1239 0.6315
vn -0.7125 0.6171 0.3340
vn -0.6940 0.6762 -0.2472
vn -0.4301 0.5202 -0.7379
vn -0.4238 0.6919 -0.5845
vn 0.1830 0.7949 -0.5785
vn 0.6881 0.5388 -0.4860
vn 0.7123 0.4836 -0.5087
s 0
f 3//1 2//1 1//1
f 4//1 3//1 1//1
f 5//1 4//1 1//1
f 6//1 5//1 1//1
f 7//1 6//1 1//1
f 8//1 7//1 1//1
f 9//1 8//1 1//1
f 10//1 9//1 1//1
f 11//1 10//1 1//1
f 12//1 11//1 1//1
f 13//1 12//1 1//1
f 2//1 13//1 1//1
f 3//2 15//2 14//2 2//2
f 4//3 16//3 15//3 3//3
f 5//4 17//4 16//4 4//4
f 6//5 18//5 17//5 5//5
f 7//6 19//6 18//6 6//6
f 8//7 20//7 19//7 7//7
f 9//8 21//8 20//8 8//8
f 10//9 22//9 21//9 9//9
f 11//10 23//10 22//10 10//10
f 12//11 24//11 23//11 11//11
f 13//12 25//12 24//12 12//12
f 2//13 14//13 25//13 13//13
f 15//14 27//14 26//14 14//14
f 16//15 28//15 27//15 15//15
f 17//16 29//16 28//16 16//16
f 18//17 30//17 29//17 17//17
f 19//18 31//18 30//18 18//18
f 20//19 32//19 31//19 19//19
f 21//20 33//20 32//20 20//20
f 22//21 34//21 33//21 21//21
f 23//22 35//22 34//22 22//22
f 24//23 36//23 35//23 23//23
f 25//24 37//24 36//24 24//24
f 14//25 26//25 37//25 25//25
f 27//26 39//26 38//26 26//26
f 28//27 40//27 39//27 27//27
f 29//28 41//28 40//28 28//28
f 30//29 42//29 41//29 29//29
f 31//30 43//30 42//30 30//30
f 32//31 44//31 43//31 31//31
f 33//32 45//32 44//32 32//32
f 34//33 46//33 45//33 33//33
f 35//34 47//34 46//34 34//34
f 36//35 48//35 47//35 35//35
f 37//36 49//36 48//36 36//36
f 26//37 38//37 49//37 37//37
f 39//38 51//38 50//38 38//38
f 40//39 52//39 51//39 39//39
f 41//40 53//40 52//40 40//40
f 42//41 54//41 53//41 41//41
f 43//42 55//42 54//42 42//42
f 44//43 56//43 55//43 43//43
f 45//44 57//44 56//44 44//44
f 46//45 58//45 57//45 45//45
f 47//46 59//46 58//46 46//46
f 48//47 60//47 59//47 47//47
f 49//48 61//48 60//48 48//48
f 38//49 50//49 61//49 49//49
