# Blender 4.4.1
# www.blender.org
o Mountain_029
v -1.670317 0.000000 -0.755067
v -1.670317 23.393827 -0.755067
v -1.670317 23.393827 -0.755067
v -1.670317 23.393827 -0.755067
v -1.670317 23.393827 -0.755067
v -1.670317 23.393827 -0.755067
v -1.670317 23.393827 -0.755067
v -1.670317 23.393827 -0.755067
v -1.670317 23.393827 -0.755067
v -1.670317 23.393827 -0.755067
v -1.670317 23.393827 -0.755067
v -1.670317 23.393827 -0.755067
v -1.670317 23.393827 -0.755067
v 3.495813 20.535803 -0.755067
v 2.669199 20.567837 1.750354
v 0.867611 20.271410 3.640754
v -1.670317 20.065828 4.557372
v -4.181888 20.262131 3.595100
v -5.974139 20.975353 1.729746
v -6.933802 20.658960 -0.755067
v -6.172275 20.554609 -3.354273
v -4.235061 20.801828 -5.197333
v -1.670317 20.142040 -5.863623
v 0.849101 19.964499 -5.118827
v 2.838215 20.371265 -3.358069
v 8.813427 14.168265 -0.755067
v 6.839578 14.452286 4.158123
v 3.358059 14.797214 7.954338
v -1.670317 15.713919 9.065584
v -6.905386 16.284670 8.312339
v -11.266193 16.248415 4.785115
v -11.054635 15.518072 -0.755067
v -10.584815 16.069132 -5.901855
v -6.991972 15.406234 -9.972444
v -1.670317 15.549918 -12.116843
v 3.346668 16.095886 -9.444740
v 8.144198 14.855881 -6.421480
v 14.128103 7.437022 -0.755067
v 13.516542 9.329395 8.013071
v 5.841892 9.261697 12.256461
v -1.670317 6.598433 14.599966
v -10.407888 7.120094 14.378850
v -15.245317 9.771899 7.082463
v -15.722718 9.800198 -0.755067
v -15.342976 6.470277 -8.648979
v -8.457865 8.796809 -12.511444
v -1.670317 9.479731 -17.646242
v 5.957214 6.809241 -13.966339
v 12.001446 8.910531 -8.648463
v 23.107723 1.287628 -0.755067
v 17.411243 2.057492 10.261678
v 9.764066 -1.620001 19.049866
v -1.670317 -0.787364 19.718790
v -10.359965 -2.085475 14.295845
v -21.816454 0.271762 10.876310
v -23.107723 -1.274282 -0.755067
v -17.955046 -0.523869 -10.157059
v -12.619028 -0.313360 -19.718790
v -1.670317 0.810824 -17.546345
v 8.881347 0.661684 -19.031084
v 17.207838 1.197580 -11.654375
vn -0.0000 1.0000 -0.0000
vn 0.4788 0.8655 0.1469
vn 0.3076 0.8505 0.4265
vn 0.1222 0.8411 0.5269
vn -0.1359 0.8396 0.5260
vn -0.1855 0.8451 0.5013
vn -0.4601 0.8855 0.0649
vn -0.4545 0.8747 -0.1683
vn -0.3861 0.8762 -0.2883
vn 0.0773 0.8411 -0.5354
vn 0.2132 0.8242 -0.5246
vn 0.2687 0.8266 -0.4945
vn 0.4766 0.8615 -0.1749
vn 0.7454 0.6158 0.2552
vn 0.5704 0.6320 0.5246
vn 0.2486 0.6812 0.6886
vn -0.0711 0.7507 0.6568
vn -0.3586 0.7834 0.5075
vn -0.7268 0.6865 -0.0218
vn -0.7357 0.6728 -0.0781
vn -0.4810 0.7199 -0.5004
vn -0.1775 0.7511 -0.6359
vn 0.2228 0.7863 -0.5763
vn 0.4389 0.7521 -0.4916
vn 0.7337 0.6753 -0.0750
vn 0.6999 0.7140 0.0187
vn 0.3998 0.7485 0.5290
vn 0.1440 0.5683 0.8101
vn -0.0167 0.5380 0.8428
vn -0.5442 0.5829 0.6033
vn -0.8169 0.5766 -0.0140
vn -0.8257 0.5384 -0.1685
vn -0.5843 0.4456 -0.6783
vn -0.4679 0.5123 -0.7201
vn 0.4482 0.5416 -0.7111
vn 0.4950 0.5189 -0.6969
vn 0.8022 0.5929 -0.0709
vn 0.7044 0.6976 0.1307
vn 0.4609 0.5467 0.6991
vn 0.0778 0.5562 0.8274
vn -0.3073 0.2756 0.9108
vn -0.4491 0.3220 0.8334
vn -0.8245 0.5650 0.0309
vn -0.8135 0.4778 -0.3315
vn -0.6660 0.5518 -0.5020
vn -0.1906 0.4025 -0.8954
vn 0.1648 0.3425 -0.9250
vn 0.4453 0.6311 -0.6352
vn 0.6556 0.7202 -0.2270
s 0
f 3//1 2//1 1//1
f 4//1 3//1 1//1
f 5//1 4//1 1//1
f 6//1 5//1 1//1
f 7//1 6//1 1//1
f 8//1 7//1 1//1
f 9//1 8//1 1//1
f 10//1 9//1 1//1
f 11//1 10//1 1//1
f 12//1 11//1 1//1
f 13//1 12//1 1//1
f 2//1 13//1 1//1
f 3//2 15//2 14//2 2//2
f 4//3 16//3 15//3 3//3
f 5//4 17//4 16//4 4//4
f 6//5 18//5 17//5 5//5
f 7//6 19//6 18//6 6//6
f 8//7 20//7 19//7 7//7
f 9//8 21//8 20//8 8//8
f 10//9 22//9 21//9 9//9
f 11//10 23//10 22//10 10//10
f 12//11 24//11 23//11 11//11
f 13//12 25//12 24//12 12//12
f 2//13 14//13 25//13 13//13
f 15//14 27//14 26//14 14//14
f 16//15 28//15 27//15 15//15
f 17//16 29//16 28//16 16//16
f 18//17 30//17 29//17 17//17
f 19//18 31//18 30//18 18//18
f 20//19 32//19 31//19 19//19
f 21//20 33//20 32//20 20//20
f 22//21 34//21 33//21 21//21
f 23//22 35//22 34//22 22//22
f 24//23 36//23 35//23 23//23
f 25//24 37//24 36//24 24//24
f 14//25 26//25 37//25 25//25
f 27//26 39//26 38//26 26//26
f 28//27 40//27 39//27 27//27
f 29//28 41//28 40//28 28//28
f 30//29 42//29 41//29 29//29
f 31//30 43//30 42//30 30//30
f 32//31 44//31 43//31 31//31
f 33//32 45//32 44//32 32//32
f 34//33 46//33 45//33 33//33
f 35//34 47//34 46//34 34//34
f 36//35 48//35 47//35 35//35
f 37//36 49//36 48//36 36//36
f 26//37 38//37 49//37 37//37
f 39//38 51//38 50//38 38//38
f 40//39 52//39 51//39 39//39
f 41//40 53//40 52//40 40//40
f 42//41 54//41 53//41 41//41
f 43//42 55//42 54//42 42//42
f 44//43 56//43 55//43 43//43
f 45//44 57//44 56//44 44//44
f 46//45 58//45 57//45 45//45
f 47//46 59//46 58//46 46//46
f 48//47 60//47 59//47 47//47
f 49//48 61//48 60//48 48//48
f 38//49 50//49 61//49 49//49
