# Blender 4.4.1
# www.blender.org
o Mountain_059
v -0.709794 0.000000 -0.183187
v -0.709794 12.721648 -0.183187
v -0.709794 12.721648 -0.183187
v -0.709794 12.721648 -0.183187
v -0.709794 12.721648 -0.183187
v -0.709794 12.721648 -0.183187
v -0.709794 12.721648 -0.183187
v -0.709794 12.721648 -0.183187
v -0.709794 12.721648 -0.183187
v -0.709794 12.721648 -0.183187
v -0.709794 12.721648 -0.183187
v -0.709794 12.721648 -0.183187
v -0.709794 12.721648 -0.183187
v 4.343375 11.434918 -0.183187
v 3.690073 11.374212 2.357077
v 1.801600 10.854986 4.166675
v -0.709794 11.401240 4.484391
v -3.200984 10.935326 4.131682
v -4.850011 11.051458 2.207169
v -5.597633 11.434842 -0.183187
v -4.793997 10.842785 -2.541203
v -3.157701 10.933685 -4.423087
v -0.709794 11.315644 -5.040013
v 1.668338 10.847278 -4.302232
v 3.605375 11.368607 -2.674550
v 9.649989 8.819729 -0.183187
v 8.319599 7.853969 5.029935
v 3.724698 8.186550 7.497579
v -0.709794 7.670313 9.812653
v -5.557792 8.543571 8.213793
v -9.335546 8.235518 4.796894
v -10.386381 8.178409 -0.183187
v -8.793617 8.063419 -4.850385
v -5.737727 8.498209 -8.891822
v -0.709794 7.929151 -9.852427
v 4.033990 8.759684 -8.399660
v 7.813542 7.634351 -5.104137
v 12.587531 3.891947 -0.183187
v 13.233936 4.260047 7.867229
v 6.127193 5.200448 11.658821
v -0.709794 5.289735 14.646664
v -7.695110 4.555161 11.915736
v -11.904243 3.664918 6.279932
v -14.987058 4.175464 -0.183187
v -13.600319 4.392390 -7.625535
v -8.233078 4.317680 -13.213899
v -0.709794 4.284955 -14.560831
v 7.212862 4.109525 -13.905628
v 11.420300 3.847228 -7.186500
v 16.587467 0.369831 -0.183187
v 15.110356 -1.062465 8.950581
v 10.295996 0.032544 18.879398
v -0.709794 0.727356 20.287838
v -12.040817 -1.021780 19.442722
v -14.600322 -1.174764 7.836513
v -17.747774 -0.771832 -0.183187
v -16.329758 -0.501957 -9.201377
v -11.610896 0.466985 -19.064451
v -0.709794 0.523223 -17.795406
v 10.897633 1.268107 -20.287838
v 17.747774 0.610184 -10.839668
vn -0.0000 1.0000 -0.0000
vn 0.2458 0.9655 0.0863
vn 0.0818 0.9321 0.3528
vn 0.2368 0.9349 0.2645
vn -0.2135 0.9401 0.2659
vn -0.2315 0.9388 0.2550
vn -0.2479 0.9415 0.2285
vn -0.2418 0.9185 -0.3130
vn -0.3016 0.9283 -0.2174
vn -0.2148 0.9381 -0.2716
vn 0.2656 0.9261 -0.2681
vn 0.0703 0.9226 -0.3792
vn 0.2456 0.9644 -0.0984
vn 0.4651 0.8543 0.2321
vn 0.3066 0.8098 0.5001
vn 0.2119 0.8079 0.5500
vn -0.0931 0.8451 0.5265
vn -0.3512 0.8780 0.3252
vn -0.5086 0.8457 0.1615
vn -0.5013 0.8271 -0.2542
vn -0.4229 0.8687 -0.2579
vn -0.0867 0.8546 -0.5120
vn 0.1098 0.8596 -0.4990
vn 0.3961 0.8464 -0.3560
vn 0.4738 0.8264 -0.3041
vn 0.7223 0.6882 0.0683
vn 0.3275 0.8348 0.4425
vn 0.1865 0.8648 0.4661
vn -0.1936 0.8089 0.5551
vn -0.6239 0.6263 0.4675
vn -0.7113 0.6437 0.2824
vn -0.6005 0.7871 -0.1411
vn -0.4751 0.7908 -0.3860
vn -0.0810 0.7642 -0.6398
vn 0.0622 0.7842 -0.6174
vn 0.5588 0.7560 -0.3409
vn 0.7442 0.6189 -0.2513
vn 0.8264 0.5582 0.0745
vn 0.6007 0.6795 0.4211
vn 0.1731 0.8116 0.5579
vn -0.2167 0.8068 0.5497
vn -0.6989 0.6760 0.2335
vn -0.7855 0.4967 0.3692
vn -0.8567 0.4989 -0.1312
vn -0.6012 0.7179 -0.3509
vn -0.0037 0.7672 -0.6414
vn -0.0785 0.8075 -0.5846
vn 0.3596 0.9127 -0.1940
vn 0.5498 0.8352 0.0090
s 0
f 3//1 2//1 1//1
f 4//1 3//1 1//1
f 5//1 4//1 1//1
f 6//1 5//1 1//1
f 7//1 6//1 1//1
f 8//1 7//1 1//1
f 9//1 8//1 1//1
f 10//1 9//1 1//1
f 11//1 10//1 1//1
f 12//1 11//1 1//1
f 13//1 12//1 1//1
f 2//1 13//1 1//1
f 3//2 15//2 14//2 2//2
f 4//3 16//3 15//3 3//3
f 5//4 17//4 16//4 4//4
f 6//5 18//5 17//5 5//5
f 7//6 19//6 18//6 6//6
f 8//7 20//7 19//7 7//7
f 9//8 21//8 20//8 8//8
f 10//9 22//9 21//9 9//9
f 11//10 23//10 22//10 10//10
f 12//11 24//11 23//11 11//11
f 13//12 25//12 24//12 12//12
f 2//13 14//13 25//13 13//13
f 15//14 27//14 26//14 14//14
f 16//15 28//15 27//15 15//15
f 17//16 29//16 28//16 16//16
f 18//17 30//17 29//17 17//17
f 19//18 31//18 30//18 18//18
f 20//19 32//19 31//19 19//19
f 21//20 33//20 32//20 20//20
f 22//21 34//21 33//21 21//21
f 23//22 35//22 34//22 22//22
f 24//23 36//23 35//23 23//23
f 25//24 37//24 36//24 24//24
f 14//25 26//25 37//25 25//25
f 27//26 39//26 38//26 26//26
f 28//27 40//27 39//27 27//27
f 29//28 41//28 40//28 28//28
f 30//29 42//29 41//29 29//29
f 31//30 43//30 42//30 30//30
f 32//31 44//31 43//31 31//31
f 33//32 45//32 44//32 32//32
f 34//33 46//33 45//33 33//33
f 35//34 47//34 46//34 34//34
f 36//35 48//35 47//35 35//35
f 37//36 49//36 48//36 36//36
f 26//37 38//37 49//37 37//37
f 39//38 51//38 50//38 38//38
f 40//39 52//39 51//39 39//39
f 41//40 53//40 52//40 40//40
f 42//41 54//41 53//41 41//41
f 43//42 55//42 54//42 42//42
f 44//43 56//43 55//43 43//43
f 45//44 57//44 56//44 44//44
f 46//45 58//45 57//45 45//45
f 47//46 59//46 58//46 46//46
f 48//47 60//47 59//47 47//47
f 49//48 61//48 60//48 48//48
f 38//49 50//49 61//49 49//49
