# Blender 4.4.1
# www.blender.org
o Mountain_009
v 3.684249 0.000000 2.868514
v 3.684249 10.429199 2.868514
v 3.684249 10.429199 2.868514
v 3.684249 10.429199 2.868514
v 3.684249 10.429199 2.868514
v 3.684249 10.429199 2.868514
v 3.684249 10.429199 2.868514
v 3.684249 10.429199 2.868514
v 3.684249 10.429199 2.868514
v 3.684249 10.429199 2.868514
v 3.684249 10.429199 2.868514
v 3.684249 10.429199 2.868514
v 3.684249 10.429199 2.868514
v 9.911003 8.888503 2.868514
v 8.932580 9.177343 5.898640
v 6.595691 9.021997 7.911279
v 3.684249 8.936382 8.816057
v 0.696916 9.035922 8.042727
v -1.358538 9.254357 5.779969
v -2.241529 9.063083 2.868514
v -1.727657 9.125687 -0.256051
v 0.519972 9.285220 -2.612175
v 3.684249 9.314195 -2.993803
v 6.606290 8.874593 -2.192610
v 9.211511 9.314375 -0.322651
v 16.118631 6.818470 2.868514
v 14.736476 6.656082 9.249520
v 9.337278 6.242212 12.659848
v 3.684249 7.056175 14.688029
v -2.584835 7.088197 13.726887
v -7.814078 6.312373 9.507076
v -9.408444 6.474220 2.868514
v -7.112060 6.766912 -3.364737
v -2.312473 6.544052 -7.518113
v 3.684249 6.567824 -8.987123
v 9.402147 6.752854 -7.035175
v 13.473149 6.752300 -2.783110
v 24.294863 3.419601 2.868514
v 20.681288 4.154192 12.681759
v 13.739077 3.242660 20.283987
v 3.684249 3.181654 19.292915
v -5.784553 4.062311 19.268961
v -12.969717 3.150170 12.483686
v -16.192863 3.646033 2.868514
v -13.441992 4.061782 -7.019325
v -5.361527 4.318774 -12.799231
v 3.684249 3.866894 -15.860147
v 13.214021 4.225056 -13.637535
v 20.203165 3.109200 -6.668686
v 23.951452 -0.120545 2.868514
v 23.226469 -0.469995 14.151220
v 13.758497 0.015304 20.317625
v 3.684249 -0.100300 25.508274
v -6.393517 0.691866 20.323717
v -13.939328 0.759767 13.043491
v -24.294863 0.239889 2.868514
v -17.591257 -0.077778 -9.414905
v -8.830665 0.608685 -18.807953
v 3.684249 -0.104847 -25.508274
v 17.450987 0.316709 -20.976175
v 23.385214 -0.050834 -8.505843
vn -0.0000 1.0000 -0.0000
vn 0.2402 0.9706 -0.0150
vn 0.1129 0.9720 0.2061
vn 0.0471 0.9688 0.2432
vn -0.0307 0.9695 0.2433
vn -0.1132 0.9739 0.1969
vn -0.2246 0.9744 0.0041
vn -0.2246 0.9743 -0.0174
vn -0.1767 0.9789 -0.1023
vn -0.0315 0.9819 -0.1868
vn 0.1952 0.9635 -0.1833
vn 0.0351 0.9608 -0.2749
vn 0.2395 0.9679 0.0767
vn 0.3385 0.9382 0.0723
vn 0.2000 0.9031 0.3801
vn 0.1979 0.9154 0.3506
vn -0.0433 0.9520 0.3031
vn -0.2638 0.9402 0.2156
vn -0.3537 0.9311 0.0889
vn -0.3508 0.9338 -0.0699
vn -0.2716 0.9135 -0.3029
vn -0.0918 0.8988 -0.4287
vn 0.1461 0.9159 -0.3738
vn 0.2511 0.9067 -0.3389
vn 0.3812 0.9183 -0.1068
vn 0.3676 0.9265 0.0806
vn 0.1718 0.9366 0.3053
vn 0.0731 0.8804 0.4686
vn 0.0125 0.8250 0.5650
vn -0.3695 0.8857 0.2810
vn -0.4110 0.8978 0.1582
vn -0.3698 0.9261 -0.0751
vn -0.2208 0.9333 -0.2832
vn -0.0810 0.9306 -0.3569
vn 0.0614 0.9363 -0.3459
vn 0.3184 0.9215 -0.2222
vn 0.3784 0.9059 -0.1903
vn 0.9393 0.2871 0.1879
vn 0.6005 0.3351 0.7260
vn 0.1429 0.6856 0.7138
vn -0.1142 0.7377 0.6654
vn -0.6538 0.3649 0.6628
vn -0.4922 0.8027 0.3367
vn -0.4845 0.8510 -0.2028
vn -0.4060 0.8219 -0.3996
vn -0.1376 0.9009 -0.4115
vn 0.0859 0.9118 -0.4016
vn 0.4816 0.8381 -0.2562
vn 0.8809 0.4284 -0.2012
s 0
f 3//1 2//1 1//1
f 4//1 3//1 1//1
f 5//1 4//1 1//1
f 6//1 5//1 1//1
f 7//1 6//1 1//1
f 8//1 7//1 1//1
f 9//1 8//1 1//1
f 10//1 9//1 1//1
f 11//1 10//1 1//1
f 12//1 11//1 1//1
f 13//1 12//1 1//1
f 2//1 13//1 1//1
f 3//2 15//2 14//2 2//2
f 4//3 16//3 15//3 3//3
f 5//4 17//4 16//4 4//4
f 6//5 18//5 17//5 5//5
f 7//6 19//6 18//6 6//6
f 8//7 20//7 19//7 7//7
f 9//8 21//8 20//8 8//8
f 10//9 22//9 21//9 9//9
f 11//10 23//10 22//10 10//10
f 12//11 24//11 23//11 11//11
f 13//12 25//12 24//12 12//12
f 2//13 14//13 25//13 13//13
f 15//14 27//14 26//14 14//14
f 16//15 28//15 27//15 15//15
f 17//16 29//16 28//16 16//16
f 18//17 30//17 29//17 17//17
f 19//18 31//18 30//18 18//18
f 20//19 32//19 31//19 19//19
f 21//20 33//20 32//20 20//20
f 22//21 34//21 33//21 21//21
f 23//22 35//22 34//22 22//22
f 24//23 36//23 35//23 23//23
f 25//24 37//24 36//24 24//24
f 14//25 26//25 37//25 25//25
f 27//26 39//26 38//26 26//26
f 28//27 40//27 39//27 27//27
f 29//28 41//28 40//28 28//28
f 30//29 42//29 41//29 29//29
f 31//30 43//30 42//30 30//30
f 32//31 44//31 43//31 31//31
f 33//32 45//32 44//32 32//32
f 34//33 46//33 45//33 33//33
f 35//34 47//34 46//34 34//34
f 36//35 48//35 47//35 35//35
f 37//36 49//36 48//36 36//36
f 26//37 38//37 49//37 37//37
f 39//38 51//38 50//38 38//38
f 40//39 52//39 51//39 39//39
f 41//40 53//40 52//40 40//40
f 42//41 54//41 53//41 41//41
f 43//42 55//42 54//42 42//42
f 44//43 56//43 55//43 43//43
f 45//44 57//44 56//44 44//44
f 46//45 58//45 57//45 45//45
f 47//46 59//46 58//46 46//46
f 48//47 60//47 59//47 47//47
f 49//48 61//48 60//48 48//48
f 38//49 50//49 61//49 49//49
