# Blender 4.4.1
# www.blender.org
o Mountain_050
v 0.092718 0.000000 -0.427877
v 0.092718 23.469639 -0.427877
v 0.092718 23.469639 -0.427877
v 0.092718 23.469639 -0.427877
v 0.092718 23.469639 -0.427877
v 0.092718 23.469639 -0.427877
v 0.092718 23.469639 -0.427877
v 0.092718 23.469639 -0.427877
v 0.092718 23.469639 -0.427877
v 0.092718 23.469639 -0.427877
v 0.092718 23.469639 -0.427877
v 0.092718 23.469639 -0.427877
v 0.092718 23.469639 -0.427877
v 4.687337 20.425470 -0.427877
v 3.879672 20.174402 1.758522
v 2.309144 20.919931 3.411085
v 0.092718 20.606138 4.104394
v -2.167043 20.708345 3.486145
v -3.664079 20.136198 1.741111
v -4.290483 20.252417 -0.427877
v -3.966031 20.722132 -2.771196
v -2.107878 20.949612 -4.239421
v 0.092718 20.519320 -5.187407
v 2.257818 20.957899 -4.177940
v 3.868000 20.655159 -2.607537
v 9.857907 16.112003 -0.427877
v 7.824551 14.851354 4.036099
v 4.784508 14.210332 7.698542
v 0.092718 15.698139 9.475572
v -4.128867 14.261087 6.884124
v -8.155106 16.187952 4.334007
v -9.044378 15.943976 -0.427877
v -8.494181 16.184713 -5.385525
v -4.230071 16.074429 -7.915167
v 0.092718 14.285366 -9.048471
v 4.920289 14.771209 -8.789474
v 8.103948 14.913587 -5.053162
v 14.755211 7.296046 -0.427877
v 11.636807 6.973361 6.237107
v 6.250664 9.880001 10.238000
v 0.092718 7.360709 12.970072
v -6.913296 8.191719 11.706896
v -11.280618 9.805324 6.138522
v -12.801764 7.957337 -0.427877
v -12.372677 9.856738 -7.624776
v -7.506788 9.763999 -13.590607
v 0.092718 8.984921 -13.512749
v 7.573367 6.539629 -13.384740
v 13.565204 8.598176 -8.206220
v 20.772154 0.761465 -0.427877
v 18.627966 0.895050 10.273454
v 10.240776 -1.221943 17.149076
v 0.092718 -0.895280 18.150154
v -10.672785 -0.643748 18.218521
v -17.632017 -1.774052 9.805504
v -20.772154 1.678770 -0.427877
v -14.961069 1.923520 -9.119184
v -8.614982 2.243664 -15.510054
v 0.092718 -1.923335 -16.843012
v 10.364152 -1.241729 -18.218521
v 14.024094 1.831790 -8.471160
vn -0.0000 1.0000 -0.0000
vn 0.5291 0.7985 0.2871
vn 0.5786 0.7926 0.1923
vn 0.0473 0.8445 0.5335
vn -0.1073 0.8405 0.5310
vn -0.5688 0.7900 0.2289
vn -0.5786 0.7883 0.2093
vn -0.5898 0.8036 0.0794
vn -0.3796 0.8573 -0.3476
vn -0.0607 0.8484 -0.5259
vn 0.0733 0.8477 -0.5254
vn 0.4519 0.8396 -0.3015
vn 0.5484 0.8277 -0.1189
vn 0.6103 0.6752 0.4142
vn 0.6073 0.6050 0.5149
vn 0.3526 0.6415 0.6813
vn -0.4521 0.5928 0.6665
vn -0.3766 0.6269 0.6821
vn -0.6409 0.7572 0.1262
vn -0.6881 0.7255 -0.0118
vn -0.4058 0.6884 -0.6012
vn -0.0679 0.5690 -0.8195
vn 0.0724 0.5726 -0.8166
vn 0.5820 0.6362 -0.5065
vn 0.6437 0.6851 -0.3410
vn 0.7779 0.4620 0.4259
vn 0.6518 0.5024 0.5681
vn 0.3092 0.4379 0.8442
vn -0.3024 0.5197 0.7990
vn -0.4306 0.5747 0.6959
vn -0.8912 0.4405 0.1083
vn -0.8830 0.4692 0.0115
vn -0.5128 0.6451 -0.5665
vn 0.0715 0.6446 -0.7612
vn 0.1161 0.5682 -0.8147
vn 0.4753 0.6052 -0.6386
vn 0.7930 0.5810 -0.1833
vn 0.6480 0.7337 0.2044
vn 0.4839 0.6689 0.5643
vn 0.1172 0.5434 0.8313
vn -0.0208 0.5676 0.8231
vn -0.6268 0.5735 0.5276
vn -0.7258 0.6359 0.2621
vn -0.7713 0.5964 -0.2224
vn -0.7070 0.3096 -0.6358
vn 0.0089 0.2735 -0.9618
vn -0.0250 0.3970 -0.9175
vn 0.7182 0.3675 -0.5908
vn 0.8368 0.4145 -0.3577
s 0
f 3//1 2//1 1//1
f 4//1 3//1 1//1
f 5//1 4//1 1//1
f 6//1 5//1 1//1
f 7//1 6//1 1//1
f 8//1 7//1 1//1
f 9//1 8//1 1//1
f 10//1 9//1 1//1
f 11//1 10//1 1//1
f 12//1 11//1 1//1
f 13//1 12//1 1//1
f 2//1 13//1 1//1
f 3//2 15//2 14//2 2//2
f 4//3 16//3 15//3 3//3
f 5//4 17//4 16//4 4//4
f 6//5 18//5 17//5 5//5
f 7//6 19//6 18//6 6//6
f 8//7 20//7 19//7 7//7
f 9//8 21//8 20//8 8//8
f 10//9 22//9 21//9 9//9
f 11//10 23//10 22//10 10//10
f 12//11 24//11 23//11 11//11
f 13//12 25//12 24//12 12//12
f 2//13 14//13 25//13 13//13
f 15//14 27//14 26//14 14//14
f 16//15 28//15 27//15 15//15
f 17//16 29//16 28//16 16//16
f 18//17 30//17 29//17 17//17
f 19//18 31//18 30//18 18//18
f 20//19 32//19 31//19 19//19
f 21//20 33//20 32//20 20//20
f 22//21 34//21 33//21 21//21
f 23//22 35//22 34//22 22//22
f 24//23 36//23 35//23 23//23
f 25//24 37//24 36//24 24//24
f 14//25 26//25 37//25 25//25
f 27//26 39//26 38//26 26//26
f 28//27 40//27 39//27 27//27
f 29//28 41//28 40//28 28//28
f 30//29 42//29 41//29 29//29
f 31//30 43//30 42//30 30//30
f 32//31 44//31 43//31 31//31
f 33//32 45//32 44//32 32//32
f 34//33 46//33 45//33 33//33
f 35//34 47//34 46//34 34//34
f 36//35 48//35 47//35 35//35
f 37//36 49//36 48//36 36//36
f 26//37 38//37 49//37 37//37
f 39//38 51//38 50//38 38//38
f 40//39 52//39 51//39 39//39
f 41//40 53//40 52//40 40//40
f 42//41 54//41 53//41 41//41
f 43//42 55//42 54//42 42//42
f 44//43 56//43 55//43 43//43
f 45//44 57//44 56//44 44//44
f 46//45 58//45 57//45 45//45
f 47//46 59//46 58//46 46//46
f 48//47 60//47 59//47 47//47
f 49//48 61//48 60//48 48//48
f 38//49 50//49 61//49 49//49
