# Blender 4.4.1
# www.blender.org
mtllib Misile.mtl
o Cube
v 0.755166 2.000000 -0.755166
v 1.000000 -2.000000 -1.000000
v 0.755166 2.000000 0.755166
v 1.000000 -2.000000 1.000000
v -0.755166 2.000000 -0.755166
v -1.000000 -2.000000 -1.000000
v -0.755166 2.000000 0.755166
v -1.000000 -2.000000 1.000000
v 1.000000 1.398587 1.000000
v -1.000000 1.398587 1.000000
v 1.000000 1.398587 -1.000000
v -1.000000 1.398587 -1.000000
v 0.000000 3.182994 0.000000
v 1.000000 -0.300707 1.000000
v -1.000000 -0.300707 1.000000
v 1.000000 -0.300707 -1.000000
v -1.000000 -0.300707 -1.000000
v 0.000000 -2.000000 -1.000000
v 0.000000 1.398587 1.000000
v 0.000000 -2.000000 1.000000
v 0.000000 1.398587 -1.000000
v 0.000000 2.000000 0.755166
v 0.000000 2.000000 -0.755166
v 0.000000 -0.300707 1.000000
v 0.000000 -0.300707 -1.000000
v -1.000000 0.548940 1.000000
v -1.000000 0.548940 -1.000000
v 1.000000 0.548940 1.000000
v 1.000000 0.548940 -1.000000
v 0.000000 0.548940 -1.000000
v 0.000000 0.548940 1.000000
v -0.500000 -2.000000 -1.000000
v -0.500000 1.398587 1.000000
v -0.377583 2.000000 0.755166
v -0.500000 -0.300707 1.000000
v 0.377583 2.591497 0.377583
v 0.377583 2.591497 -0.377583
v -0.500000 -2.000000 1.000000
v -0.500000 1.398587 -1.000000
v -0.377583 2.000000 -0.755166
v -0.500000 -0.300707 -1.000000
v -0.500000 0.548940 -1.000000
v -0.500000 0.548940 1.000000
v 0.500000 -2.000000 1.000000
v 0.500000 1.398587 -1.000000
v 0.377583 2.000000 -0.755166
v 0.500000 -0.300707 -1.000000
v -0.377583 2.591497 0.377583
v -0.377583 2.591497 -0.377583
v 0.500000 -2.000000 -1.000000
v 0.500000 1.398587 1.000000
v 0.377583 2.000000 0.755166
v 0.500000 -0.300707 1.000000
v 0.500000 0.548940 1.000000
v 0.500000 0.548940 -1.000000
v 0.000000 2.295749 -0.566374
v 0.000000 2.295749 0.566374
v -1.000000 -2.000000 0.000000
v 1.000000 1.398587 0.000000
v -1.000000 1.398587 0.000000
v 1.000000 -2.000000 0.000000
v 0.755166 2.000000 0.000000
v -0.755166 2.000000 0.000000
v -1.000000 -0.300707 0.000000
v 1.000000 -0.300707 0.000000
v 0.000000 -2.000000 0.000000
v 1.000000 0.548940 0.000000
v -1.000000 0.548940 0.000000
v -0.500000 -2.000000 0.000000
v 0.377583 2.591497 0.000000
v 0.500000 -2.000000 0.000000
v -0.377583 2.591497 0.000000
v -1.000000 -2.000000 0.500000
v -0.750000 -2.000000 -1.000000
v -0.750000 1.398587 1.000000
v 1.000000 1.398587 0.500000
v 0.750000 -2.000000 1.000000
v -1.000000 1.398587 -0.500000
v 0.750000 1.398587 -1.000000
v 1.000000 -2.000000 -0.500000
v -0.566374 2.000000 0.755166
v 0.755166 2.000000 0.377583
v -0.755166 2.000000 -0.377583
v 0.566374 2.000000 -0.755166
v -0.750000 -0.300707 1.000000
v -1.000000 -0.300707 -0.500000
v 1.000000 -0.300707 0.500000
v 0.750000 -0.300707 -1.000000
v 0.188791 2.887246 0.188791
v -0.188791 2.887246 0.188791
v 0.000000 -2.000000 0.500000
v 0.750000 0.548940 -1.000000
v 1.000000 0.548940 0.500000
v -1.000000 0.548940 -0.500000
v -0.750000 0.548940 1.000000
v 0.188791 2.887246 -0.188791
v -0.750000 -2.000000 1.000000
v -0.750000 1.398587 -1.000000
v -0.566374 2.000000 -0.755166
v -0.750000 -0.300707 -1.000000
v -0.750000 0.548940 -1.000000
v -0.500000 -2.000000 0.500000
v 0.377583 2.591497 0.188791
v 0.188791 2.443623 -0.471979
v 0.188791 2.443623 0.471979
v -0.188791 2.887246 -0.188791
v 0.750000 -2.000000 -1.000000
v 0.750000 1.398587 1.000000
v 0.566374 2.000000 0.755166
v 0.750000 -0.300707 1.000000
v 0.750000 0.548940 1.000000
v -0.188791 2.443623 0.471979
v -0.188791 2.443623 -0.471979
v 0.500000 -2.000000 0.500000
v -0.377583 2.591497 -0.188791
v -1.000000 -2.000000 -0.500000
v 1.000000 1.398587 -0.500000
v -1.000000 1.398587 0.500000
v 1.000000 -2.000000 0.500000
v 0.755166 2.000000 -0.377583
v -0.755166 2.000000 0.377583
v -1.000000 -0.300707 0.500000
v 1.000000 -0.300707 -0.500000
v 0.000000 -2.000000 -0.500000
v 1.000000 0.548940 -0.500000
v -1.000000 0.548940 0.500000
v -0.500000 -2.000000 -0.500000
v 0.377583 2.591497 -0.188791
v 0.500000 -2.000000 -0.500000
v -0.377583 2.591497 0.188791
v -0.750000 -2.000000 0.000000
v 0.750000 -2.000000 0.000000
v 0.750000 -2.000000 -0.500000
v -0.750000 -2.000000 -0.500000
v 0.000000 2.665434 -0.330385
v 0.000000 2.665434 0.330385
v -0.750000 -2.000000 0.500000
v 0.283187 2.739371 0.000000
v 0.750000 -2.000000 0.500000
v -0.283187 2.739371 0.000000
v 0.000000 0.124117 2.000000
v 2.000000 0.124117 0.000000
v 0.000000 0.124117 -2.000000
v -2.000000 0.124117 0.000000
vn -0.8429 0.5381 -0.0000
vn -0.0000 -0.0000 1.0000
vn -1.0000 -0.0000 -0.0000
vn -0.0000 -1.0000 -0.0000
vn 1.0000 -0.0000 -0.0000
vn -0.0000 -0.0000 -1.0000
vn -0.0000 0.3771 0.9262
vn 0.9262 0.3771 -0.0000
vn -0.9262 0.3771 -0.0000
vn -0.0000 0.3771 -0.9262
vn -0.0000 0.5381 0.8429
vn -0.0000 0.5381 -0.8429
vn 0.8429 0.5381 -0.0000
vn -0.0000 0.9204 0.3910
vn -0.0000 0.9204 -0.3910
vn -0.4472 -0.0000 -0.8944
vn 0.3910 -0.9204 -0.0000
vn -0.3910 -0.9204 -0.0000
vn 0.3910 0.9204 -0.0000
vn -0.0000 -0.9204 0.3910
vn -0.8944 -0.0000 0.4472
vn 0.8944 -0.0000 0.4472
vn 0.4472 -0.0000 -0.8944
vn 0.4472 -0.0000 0.8944
vn -0.0000 -0.9204 -0.3910
vn -0.8944 -0.0000 -0.4472
vn 0.8944 -0.0000 -0.4472
vn -0.3910 0.9204 -0.0000
vn -0.4472 -0.0000 0.8944
vt 0.716748 0.887530
vt 0.705317 0.920047
vt 0.682456 0.938045
vt 0.682456 0.891008
vt 0.954884 0.554027
vt 0.954884 0.619499
vt 0.916355 0.619499
vt 0.916355 0.554027
vt 0.900896 0.433284
vt 0.835424 0.433284
vt 0.835424 0.356227
vt 0.900896 0.356227
vt 0.204045 0.765022
vt 0.242574 0.765022
vt 0.242574 0.842080
vt 0.204045 0.842080
vt 0.316509 0.762595
vt 0.381981 0.762595
vt 0.381981 0.839652
vt 0.316509 0.839652
vt 0.792049 0.554027
vt 0.792049 0.619499
vt 0.753520 0.619499
vt 0.753520 0.554027
vt 0.634601 0.353548
vt 0.609999 0.338014
vt 0.609999 0.267337
vt 0.642578 0.287907
vt 0.186915 0.762842
vt 0.186915 0.704651
vt 0.246677 0.666918
vt 0.246677 0.743976
vt 0.063032 0.762842
vt 0.063032 0.704651
vt 0.122794 0.666918
vt 0.122794 0.743976
vt 0.704118 0.353548
vt 0.679516 0.338014
vt 0.679516 0.267337
vt 0.712095 0.287907
vt 0.078148 0.533795
vt 0.078148 0.664738
vt 0.001090 0.664738
vt 0.001090 0.533795
vt 0.481392 0.613512
vt 0.492822 0.533958
vt 0.515684 0.515960
vt 0.515684 0.610034
vt 0.530195 0.649084
vt 0.518764 0.728638
vt 0.495903 0.746636
vt 0.495903 0.652562
vt 0.434389 0.921811
vt 0.422959 0.954328
vt 0.400097 0.972326
vt 0.400097 0.925289
vt 0.597101 0.622474
vt 0.597101 0.753417
vt 0.558573 0.753417
vt 0.558573 0.622474
vt 0.635630 0.489350
vt 0.635630 0.620294
vt 0.558573 0.620294
vt 0.558573 0.489350
vt 0.556393 0.515960
vt 0.556393 0.646904
vt 0.517864 0.646904
vt 0.517864 0.515960
vt 0.157385 0.533795
vt 0.157385 0.664738
vt 0.080328 0.664738
vt 0.080328 0.533795
vt 0.637810 0.487170
vt 0.637810 0.356227
vt 0.714868 0.356227
vt 0.714868 0.487170
vt 0.467749 0.900764
vt 0.467749 0.842573
vt 0.527511 0.842573
vt 0.527511 0.919631
vt 0.920926 0.286204
vt 0.920926 0.344395
vt 0.861164 0.344395
vt 0.861164 0.267337
vt 0.136394 0.765022
vt 0.201865 0.765022
vt 0.201865 0.842080
vt 0.136394 0.842080
vt 0.791332 0.344395
vt 0.714275 0.344395
vt 0.714275 0.267337
vt 0.791332 0.267337
vt 0.858984 0.344395
vt 0.793512 0.344395
vt 0.793512 0.267337
vt 0.858984 0.267337
vt 0.143894 0.001090
vt 0.213116 0.034946
vt 0.143894 0.176478
vt 0.427322 0.320191
vt 0.358100 0.354046
vt 0.358100 0.178658
vt 0.368804 0.921070
vt 0.368804 0.986542
vt 0.330275 0.986542
vt 0.330275 0.921070
vt 0.795934 0.722206
vt 0.861406 0.722206
vt 0.861406 0.799263
vt 0.795934 0.799263
vt 0.465569 0.840393
vt 0.400097 0.840393
vt 0.400097 0.763336
vt 0.465569 0.763336
vt 0.287386 0.921070
vt 0.287386 0.986542
vt 0.248857 0.986542
vt 0.248857 0.921070
vt 0.070312 0.320191
vt 0.001090 0.354046
vt 0.001090 0.178658
vt 0.938198 0.687945
vt 0.938198 0.622474
vt 0.976727 0.622474
vt 0.976727 0.687945
vt 0.903076 0.356227
vt 0.941605 0.356227
vt 0.941605 0.433284
vt 0.903076 0.433284
vt 0.875646 0.619499
vt 0.875646 0.554027
vt 0.914175 0.554027
vt 0.914175 0.619499
vt 0.950852 0.332846
vt 0.923106 0.341605
vt 0.923106 0.278936
vt 0.959847 0.267337
vt 0.637810 0.622474
vt 0.637810 0.753417
vt 0.599281 0.753417
vt 0.599281 0.622474
vt 0.652298 0.001090
vt 0.652298 0.132034
vt 0.575241 0.132034
vt 0.575241 0.001090
vt 0.445820 0.725160
vt 0.400097 0.761155
vt 0.400097 0.667081
vt 0.422959 0.649084
vt 0.717048 0.472609
vt 0.717048 0.414418
vt 0.717048 0.356227
vt 0.754006 0.414418
vt 0.146470 0.966753
vt 0.152186 0.926975
vt 0.186478 0.923497
vt 0.186478 0.970535
vt 0.618334 0.834835
vt 0.618334 0.893026
vt 0.558573 0.911892
vt 0.558573 0.834835
vt 0.811993 0.001090
vt 0.877464 0.001090
vt 0.877464 0.078148
vt 0.811993 0.078148
vt 0.331212 0.760415
vt 0.315613 0.735854
vt 0.315613 0.666918
vt 0.346811 0.681572
vt 0.364590 0.666918
vt 0.380189 0.691479
vt 0.380189 0.760415
vt 0.348991 0.745761
vt 0.072492 0.001090
vt 0.141714 0.034946
vt 0.072492 0.176478
vt 0.982313 0.356227
vt 0.982313 0.421698
vt 0.943785 0.421698
vt 0.943785 0.356227
vt 0.597101 0.914072
vt 0.597101 0.979544
vt 0.558573 0.979544
vt 0.558573 0.914072
vt 0.951240 0.156066
vt 0.923494 0.164825
vt 0.923494 0.102156
vt 0.960236 0.090557
vt 0.693007 0.001090
vt 0.693007 0.132034
vt 0.654478 0.132034
vt 0.654478 0.001090
vt 0.236623 0.533795
vt 0.236623 0.664738
vt 0.159565 0.664738
vt 0.159565 0.533795
vt 0.228665 0.927279
vt 0.222950 0.967057
vt 0.188658 0.970535
vt 0.188658 0.923497
vt 0.680699 0.738856
vt 0.680699 0.680665
vt 0.680699 0.622474
vt 0.717658 0.680665
vt 0.248857 0.918890
vt 0.248857 0.860699
vt 0.308619 0.841832
vt 0.308619 0.918890
vt 0.533221 0.840393
vt 0.467749 0.840393
vt 0.467749 0.763336
vt 0.533221 0.763336
vt 0.812953 0.167615
vt 0.735896 0.167615
vt 0.735896 0.090557
vt 0.812953 0.090557
vt 0.448000 0.685079
vt 0.493723 0.649084
vt 0.493723 0.743158
vt 0.470861 0.761155
vt 0.916677 0.880681
vt 0.974868 0.880681
vt 0.974868 0.954598
vt 0.945773 0.954598
vt 0.635630 0.832655
vt 0.558573 0.832655
vt 0.558573 0.755597
vt 0.635630 0.755597
vt 0.795934 0.880681
vt 0.854126 0.880681
vt 0.854126 0.954598
vt 0.825030 0.954598
vt 0.082508 0.844260
vt 0.121036 0.844260
vt 0.121036 0.921317
vt 0.082508 0.921317
vt 0.067591 0.356226
vt 0.131912 0.368447
vt 0.067591 0.531615
vt 0.213116 0.320191
vt 0.143894 0.354046
vt 0.143894 0.178658
vt 0.717048 0.832655
vt 0.639990 0.832655
vt 0.639990 0.755597
vt 0.717048 0.755597
vt 0.637810 0.620294
vt 0.637810 0.489350
vt 0.714868 0.489350
vt 0.714868 0.620294
vt 0.315861 0.533795
vt 0.315861 0.664738
vt 0.238803 0.664738
vt 0.238803 0.533795
vt 0.459859 0.861439
vt 0.459859 0.919631
vt 0.400097 0.919631
vt 0.400097 0.842573
vt 0.835547 0.680665
vt 0.835547 0.622474
vt 0.895309 0.622474
vt 0.895309 0.699531
vt 0.861406 0.878501
vt 0.795934 0.878501
vt 0.795934 0.801443
vt 0.861406 0.801443
vt 0.902115 0.799263
vt 0.863586 0.799263
vt 0.863586 0.722206
vt 0.902115 0.722206
vt 0.815133 0.090557
vt 0.880605 0.090557
vt 0.880605 0.167615
vt 0.815133 0.167615
vt 0.880605 0.246852
vt 0.815133 0.246852
vt 0.815133 0.169795
vt 0.880605 0.169795
vt 0.902115 0.878501
vt 0.863586 0.878501
vt 0.863586 0.801443
vt 0.902115 0.801443
vt 0.136394 0.844260
vt 0.174922 0.844260
vt 0.174922 0.921317
vt 0.136394 0.921317
vt 0.177102 0.844260
vt 0.215631 0.844260
vt 0.215631 0.921317
vt 0.177102 0.921317
vt 0.001090 0.765022
vt 0.066562 0.765022
vt 0.066562 0.842080
vt 0.001090 0.842080
vt 0.184735 0.704651
vt 0.184735 0.762842
vt 0.124974 0.743976
vt 0.124974 0.666918
vt 0.060852 0.704651
vt 0.060852 0.762842
vt 0.001090 0.743976
vt 0.001090 0.666918
vt 0.477155 0.515960
vt 0.477155 0.646904
vt 0.400097 0.646904
vt 0.400097 0.515960
vt 0.635630 0.356227
vt 0.635630 0.487170
vt 0.558573 0.487170
vt 0.558573 0.356226
vt 0.735896 0.246852
vt 0.735896 0.169795
vt 0.812953 0.169795
vt 0.812953 0.246852
vt 0.719838 0.811673
vt 0.785309 0.811673
vt 0.785309 0.888730
vt 0.719838 0.888730
vt 0.314329 0.839652
vt 0.248857 0.839652
vt 0.248857 0.762595
vt 0.314329 0.762595
vt 0.918173 0.078148
vt 0.879644 0.078148
vt 0.879645 0.001090
vt 0.918173 0.001090
vt 0.897489 0.622474
vt 0.936018 0.622474
vt 0.936018 0.699531
vt 0.897489 0.699531
vt 0.900409 0.474789
vt 0.938938 0.474789
vt 0.938938 0.551847
vt 0.900409 0.551847
vt 0.719838 0.809493
vt 0.719838 0.751301
vt 0.793754 0.722206
vt 0.793754 0.751301
vt 0.753520 0.551847
vt 0.753520 0.474789
vt 0.830577 0.474789
vt 0.830577 0.551847
vt 0.809813 0.001090
vt 0.809813 0.059281
vt 0.735896 0.088377
vt 0.735896 0.059281
vt 0.719838 0.890910
vt 0.778029 0.890910
vt 0.748933 0.964827
vt 0.719838 0.964827
vt 0.833244 0.433284
vt 0.756186 0.433284
vt 0.756186 0.356227
vt 0.833244 0.356227
vt 0.091125 0.970326
vt 0.050939 0.970326
vt 0.048993 0.930187
vt 0.095552 0.923498
vt 0.979544 0.470706
vt 0.945731 0.464017
vt 0.943785 0.423878
vt 0.983970 0.423878
vt 0.878392 0.956778
vt 0.871702 0.990590
vt 0.838253 0.998910
vt 0.838253 0.958724
vt 0.693007 0.134214
vt 0.693007 0.265157
vt 0.654478 0.265157
vt 0.654478 0.134214
vt 0.677336 0.338014
vt 0.652734 0.353548
vt 0.644758 0.287907
vt 0.677336 0.267337
vt 0.637810 0.914072
vt 0.637810 0.979544
vt 0.599281 0.979544
vt 0.599281 0.914072
vt 0.328095 0.921070
vt 0.328095 0.986542
vt 0.289566 0.986542
vt 0.289566 0.921070
vt 0.754130 0.720026
vt 0.731268 0.702028
vt 0.719838 0.622474
vt 0.754130 0.625952
vt 0.717048 0.474789
vt 0.739909 0.492787
vt 0.751340 0.572341
vt 0.717048 0.568863
vt 0.097732 0.963636
vt 0.099678 0.923497
vt 0.139864 0.923497
vt 0.144290 0.970326
vt 0.961491 0.554027
vt 0.995303 0.560717
vt 0.997250 0.600855
vt 0.957064 0.600855
vt 0.836073 0.956778
vt 0.829383 0.990590
vt 0.795934 0.998910
vt 0.795934 0.958724
vt 0.856306 0.880681
vt 0.914497 0.880681
vt 0.885401 0.954598
vt 0.856306 0.954598
vt 0.678519 0.622474
vt 0.678519 0.753417
vt 0.639990 0.753417
vt 0.639990 0.622474
vt 0.607819 0.338014
vt 0.583217 0.353548
vt 0.575240 0.287907
vt 0.607819 0.267337
vt 0.945004 0.787677
vt 0.945004 0.722206
vt 0.983533 0.722206
vt 0.983533 0.787677
vt 0.904295 0.722206
vt 0.942824 0.722206
vt 0.942824 0.799263
vt 0.904295 0.799263
vt 0.039619 0.921318
vt 0.001090 0.921318
vt 0.001090 0.844260
vt 0.039619 0.844260
vt 0.080328 0.921318
vt 0.041799 0.921318
vt 0.041799 0.844260
vt 0.080328 0.844260
vt 0.979647 0.474789
vt 0.979647 0.540261
vt 0.941118 0.540261
vt 0.941118 0.474789
vt 0.983533 0.789857
vt 0.983533 0.855329
vt 0.945004 0.855329
vt 0.945004 0.789857
vt 0.556393 0.513780
vt 0.479335 0.513780
vt 0.479335 0.356226
vt 0.496003 0.160824
vt 0.573061 0.160824
vt 0.573061 0.318377
vt 0.832758 0.554027
vt 0.832758 0.619499
vt 0.794229 0.619499
vt 0.794229 0.554027
vt 0.833367 0.699531
vt 0.756310 0.699531
vt 0.756310 0.622474
vt 0.833367 0.622474
vt 0.733716 0.001090
vt 0.733716 0.132034
vt 0.695187 0.132034
vt 0.695187 0.001090
vt 0.395098 0.533795
vt 0.395098 0.664738
vt 0.318041 0.664738
vt 0.318041 0.533795
vt 0.733716 0.134214
vt 0.733716 0.265157
vt 0.695187 0.265157
vt 0.695187 0.134214
vt 0.473041 0.957806
vt 0.484472 0.925289
vt 0.518764 0.921811
vt 0.518764 0.968848
vt 0.682456 0.834835
vt 0.705317 0.852832
vt 0.716748 0.885350
vt 0.682456 0.881872
vt 0.537913 0.813788
vt 0.537913 0.784693
vt 0.537913 0.755597
vt 0.556393 0.784693
vt 0.248857 0.760415
vt 0.248857 0.691479
vt 0.264456 0.666918
vt 0.280055 0.745761
vt 0.313433 0.666918
vt 0.313433 0.735854
vt 0.297834 0.760415
vt 0.282235 0.681572
vt 0.652298 0.134214
vt 0.652298 0.265157
vt 0.575241 0.265157
vt 0.575241 0.134214
vt 0.923494 0.169795
vt 0.951240 0.178554
vt 0.960236 0.244063
vt 0.923494 0.232464
vt 0.316509 0.918890
vt 0.316509 0.860699
vt 0.376271 0.841832
vt 0.376271 0.918890
vt 0.680276 0.834835
vt 0.680276 0.893026
vt 0.620514 0.911892
vt 0.620514 0.834835
vt 0.957095 0.075358
vt 0.929349 0.066599
vt 0.920353 0.001090
vt 0.957095 0.012689
vt 0.873466 0.554027
vt 0.873466 0.619499
vt 0.834938 0.619499
vt 0.834938 0.554027
vt 0.898229 0.551847
vt 0.832757 0.551847
vt 0.832757 0.474789
vt 0.898229 0.474789
vt 0.904295 0.801443
vt 0.942824 0.801443
vt 0.942824 0.878501
vt 0.904295 0.878501
vt 0.882785 0.090557
vt 0.921314 0.090557
vt 0.921314 0.167615
vt 0.882785 0.167615
vt 0.882785 0.169795
vt 0.921314 0.169795
vt 0.921314 0.246852
vt 0.882785 0.246852
vt 0.134214 0.842080
vt 0.068742 0.842080
vt 0.068742 0.765022
vt 0.134214 0.765022
vt 0.678519 0.914072
vt 0.678519 0.979544
vt 0.639990 0.979544
vt 0.639990 0.914072
vt 0.046813 0.934539
vt 0.035382 0.967057
vt 0.001090 0.970535
vt 0.001090 0.923497
vt 0.470861 0.972326
vt 0.448000 0.954328
vt 0.436569 0.921811
vt 0.470861 0.925289
vt 0.532375 0.707275
vt 0.532375 0.678179
vt 0.532375 0.649084
vt 0.550854 0.678179
vt 0.573061 0.158644
vt 0.496003 0.158644
vt 0.496003 0.001090
vt 0.493823 0.164258
vt 0.429502 0.176478
vt 0.429502 0.001090
vt 0.284518 0.320191
vt 0.215296 0.354046
vt 0.215296 0.178658
vt 0.134092 0.356226
vt 0.198414 0.368447
vt 0.134092 0.531615
vt 0.070312 0.142623
vt 0.001090 0.176478
vt 0.001090 0.001090
vt 0.065411 0.519395
vt 0.001090 0.531615
vt 0.001090 0.356226
vt 0.400097 0.356227
vt 0.477155 0.356227
vt 0.477155 0.513780
vt 0.264915 0.531615
vt 0.200594 0.519394
vt 0.264915 0.356226
vt 0.355920 0.142623
vt 0.286698 0.176478
vt 0.286698 0.001090
vt 0.397917 0.519395
vt 0.333596 0.531615
vt 0.333596 0.356226
vt 0.331416 0.519395
vt 0.267095 0.531615
vt 0.267095 0.356226
vt 0.358100 0.001090
vt 0.427322 0.034946
vt 0.358100 0.176478
vt 0.215296 0.001090
vt 0.284518 0.034946
vt 0.215296 0.176478
vt 0.141714 0.320191
vt 0.072492 0.354046
vt 0.072492 0.178658
vt 0.355920 0.320191
vt 0.286698 0.354046
vt 0.286698 0.178658
vt 0.493823 0.341826
vt 0.429502 0.354047
vt 0.429502 0.178658
s 0
usemtl Material
f 140/1/1 130/2/1 48/3/1 90/4/1
f 95/5/2 75/6/2 10/7/2 26/8/2
f 94/9/3 78/10/3 12/11/3 27/12/3
f 139/13/4 119/14/4 4/15/4 77/16/4
f 93/17/5 76/18/5 9/19/5 28/20/5
f 92/21/6 79/22/6 11/23/6 29/24/6
f 81/25/7 7/26/7 10/27/7 75/28/7
f 82/29/8 3/30/8 9/31/8 76/32/8
f 83/33/9 5/34/9 12/35/9 78/36/9
f 84/37/10 1/38/10 11/39/10 79/40/10
f 119/41/5 87/42/5 14/43/5 4/44/5
f 105/45/11 109/46/11 3/47/11 36/48/11
f 113/49/12 99/50/12 5/51/12 49/52/12
f 138/53/13 128/54/13 37/55/13 96/56/13
f 107/57/6 88/58/6 16/59/6 2/60/6
f 116/61/3 86/62/3 17/63/3 6/64/3
f 97/65/2 85/66/2 15/67/2 8/68/2
f 44/69/2 53/70/2 24/71/2 20/72/2
f 32/73/6 41/74/6 25/75/6 18/76/6
f 40/77/10 23/78/10 21/79/10 39/80/10
f 52/81/7 22/82/7 19/83/7 51/84/7
f 42/85/6 39/86/6 21/87/6 30/88/6
f 102/89/4 91/90/4 20/91/4 38/92/4
f 54/93/2 51/94/2 19/95/2 31/96/2
f 54/97/14 31/98/14 141/99/14
f 30/100/15 55/101/15 143/102/15
f 88/103/6 92/104/6 29/105/6 16/106/6
f 87/107/5 93/108/5 28/109/5 14/110/5
f 86/111/3 94/112/3 27/113/3 17/114/3
f 85/115/2 95/116/2 26/117/2 15/118/2
f 31/119/14 43/120/14 141/121/14
f 100/122/6 101/123/6 42/124/6 41/125/6
f 137/126/4 102/127/4 38/128/4 97/129/4
f 101/130/6 98/131/6 39/132/6 42/133/6
f 99/134/10 40/135/10 39/136/10 98/137/10
f 74/138/6 100/139/6 41/140/6 32/141/6
f 20/142/2 24/143/2 35/144/2 38/145/2
f 120/146/13 1/147/13 37/148/13 128/149/13
f 46/150/12 23/151/12 40/152/12 56/153/12
f 136/154/11 105/155/11 36/156/11 89/157/11
f 22/158/7 34/159/7 33/160/7 19/161/7
f 31/162/2 19/163/2 33/164/2 43/165/2
f 81/166/11 34/167/11 57/168/11 112/169/11
f 84/170/12 46/171/12 56/172/12 104/173/12
f 42/174/15 30/175/15 143/176/15
f 110/177/2 111/178/2 54/179/2 53/180/2
f 111/181/2 108/182/2 51/183/2 54/184/2
f 109/185/7 52/186/7 51/187/7 108/188/7
f 77/189/2 110/190/2 53/191/2 44/192/2
f 18/193/6 25/194/6 47/195/6 50/196/6
f 135/197/12 113/198/12 49/199/12 106/200/12
f 34/201/11 22/202/11 52/203/11 57/204/11
f 23/205/10 46/206/10 45/207/10 21/208/10
f 30/209/6 21/210/6 45/211/6 55/212/6
f 91/213/4 114/214/4 44/215/4 20/216/4
f 121/217/1 7/218/1 48/219/1 130/220/1
f 83/221/1 63/222/1 72/223/1 115/224/1
f 124/225/4 129/226/4 71/227/4 66/228/4
f 82/229/13 62/230/13 70/231/13 103/232/13
f 134/233/4 127/234/4 69/235/4 131/236/4
f 94/237/16 86/238/16 144/239/16
f 65/240/17 123/241/17 142/242/17
f 127/243/4 124/244/4 66/245/4 69/246/4
f 73/247/3 122/248/3 64/249/3 58/250/3
f 80/251/5 123/252/5 65/253/5 61/254/5
f 121/255/9 63/256/9 60/257/9 118/258/9
f 120/259/8 62/260/8 59/261/8 117/262/8
f 125/263/5 117/264/5 59/265/5 67/266/5
f 133/267/4 80/268/4 61/269/4 132/270/4
f 126/271/3 118/272/3 60/273/3 68/274/3
f 26/275/3 10/276/3 118/277/3 126/278/3
f 129/279/4 133/280/4 132/281/4 71/282/4
f 50/283/4 107/284/4 133/285/4 129/286/4
f 107/287/4 2/288/4 80/289/4 133/290/4
f 29/291/5 11/292/5 117/293/5 125/294/5
f 1/295/8 120/296/8 117/297/8 11/298/8
f 7/299/9 121/300/9 118/301/9 10/302/9
f 2/303/5 16/304/5 123/305/5 80/306/5
f 8/307/3 15/308/3 122/309/3 73/310/3
f 32/311/4 18/312/4 124/313/4 127/314/4
f 16/315/5 29/316/5 125/317/5 123/318/5
f 15/319/3 26/320/3 126/321/3 122/322/3
f 116/323/4 134/324/4 131/325/4 58/326/4
f 6/327/4 74/328/4 134/329/4 116/330/4
f 74/331/4 32/332/4 127/333/4 134/334/4
f 3/335/13 82/336/13 103/337/13 36/338/13
f 18/339/4 50/340/4 129/341/4 124/342/4
f 5/343/1 83/344/1 115/345/1 49/346/1
f 63/347/1 121/348/1 130/349/1 72/350/1
f 66/351/4 71/352/4 114/353/4 91/354/4
f 96/355/12 135/356/12 106/357/12 13/358/12
f 37/359/12 104/360/12 135/361/12 96/362/12
f 104/363/12 56/364/12 113/365/12 135/366/12
f 4/367/2 14/368/2 110/369/2 77/370/2
f 3/371/7 109/372/7 108/373/7 9/374/7
f 28/375/2 9/376/2 108/377/2 111/378/2
f 14/379/2 28/380/2 111/381/2 110/382/2
f 1/383/12 84/384/12 104/385/12 37/386/12
f 7/387/11 81/388/11 112/389/11 48/390/11
f 90/391/11 136/392/11 89/393/11 13/394/11
f 48/395/11 112/396/11 136/397/11 90/398/11
f 112/399/11 57/400/11 105/401/11 136/402/11
f 62/403/13 120/404/13 128/405/13 70/406/13
f 6/407/6 17/408/6 100/409/6 74/410/6
f 5/411/10 99/412/10 98/413/10 12/414/10
f 27/415/6 12/416/6 98/417/6 101/418/6
f 73/419/4 137/420/4 97/421/4 8/422/4
f 58/423/4 131/424/4 137/425/4 73/426/4
f 131/427/4 69/428/4 102/429/4 137/430/4
f 17/431/6 27/432/6 101/433/6 100/434/6
f 35/435/2 43/436/2 95/437/2 85/438/2
f 86/439/18 64/440/18 144/441/18
f 125/442/19 67/443/19 142/444/19
f 47/445/6 55/446/6 92/447/6 88/448/6
f 69/449/4 66/450/4 91/451/4 102/452/4
f 38/453/2 35/454/2 85/455/2 97/456/2
f 58/457/3 64/458/3 86/459/3 116/460/3
f 50/461/6 47/462/6 88/463/6 107/464/6
f 89/465/13 138/466/13 96/467/13 13/468/13
f 36/469/13 103/470/13 138/471/13 89/472/13
f 103/473/13 70/474/13 128/475/13 138/476/13
f 56/477/12 40/478/12 99/479/12 113/480/12
f 57/481/11 52/482/11 109/483/11 105/484/11
f 61/485/5 65/486/5 87/487/5 119/488/5
f 46/489/10 84/490/10 79/491/10 45/492/10
f 63/493/9 83/494/9 78/495/9 60/496/9
f 62/497/8 82/498/8 76/499/8 59/500/8
f 34/501/7 81/502/7 75/503/7 33/504/7
f 55/505/6 45/506/6 79/507/6 92/508/6
f 67/509/5 59/510/5 76/511/5 93/512/5
f 114/513/4 139/514/4 77/515/4 44/516/4
f 71/517/4 132/518/4 139/519/4 114/520/4
f 132/521/4 61/522/4 119/523/4 139/524/4
f 68/525/3 60/526/3 78/527/3 94/528/3
f 43/529/2 33/530/2 75/531/2 95/532/2
f 106/533/1 140/534/1 90/535/1 13/536/1
f 49/537/1 115/538/1 140/539/1 106/540/1
f 115/541/1 72/542/1 130/543/1 140/544/1
f 35/545/20 24/546/20 141/547/20
f 43/548/21 35/549/21 141/550/21
f 24/551/20 53/552/20 141/553/20
f 53/554/22 54/555/22 141/556/22
f 67/557/19 93/558/19 142/559/19
f 123/560/23 125/561/23 142/562/23
f 87/563/17 65/564/17 142/565/17
f 93/566/24 87/567/24 142/568/24
f 25/569/25 41/570/25 143/571/25
f 41/572/26 42/573/26 143/574/26
f 55/575/27 47/576/27 143/577/27
f 47/578/25 25/579/25 143/580/25
f 126/581/28 68/582/28 144/583/28
f 64/584/18 122/585/18 144/586/18
f 68/587/28 94/588/28 144/589/28
f 122/590/29 126/591/29 144/592/29
