# Blender 4.4.1
# www.blender.org
mtllib Trap.mtl
o Cube
v 0.367770 1.000000 -0.367770
v 1.000000 -1.000000 -1.000000
v 0.367770 1.000000 0.367770
v 1.000000 -1.000000 1.000000
v -0.367770 1.000000 -0.367770
v -1.000000 -1.000000 -1.000000
v -0.367770 1.000000 0.367770
v -1.000000 -1.000000 1.000000
v 1.000000 1.000000 1.000000
v -1.000000 1.000000 1.000000
v 1.000000 1.000000 -1.000000
v -1.000000 1.000000 -1.000000
v 0.365768 2.794130 0.365768
v -0.365768 2.794130 0.365768
v 0.365768 2.794130 -0.365768
v -0.365768 2.794130 -0.365768
v 0.367770 2.794130 0.367770
v -0.367770 2.794130 0.367770
v 0.367770 2.794130 -0.367770
v -0.367770 2.794130 -0.367770
v 0.367770 2.794130 0.367770
v -0.367770 2.794130 0.367770
v 0.367770 2.794130 -0.367770
v -0.367770 2.794130 -0.367770
v 0.367770 2.794130 0.367770
v -0.367770 2.794130 0.367770
v 0.367770 2.794130 -0.367770
v -0.367770 2.794130 -0.367770
v 0.365768 2.794130 0.365768
v -0.365768 2.794130 0.365768
v 0.365768 2.794130 -0.365768
v -0.365768 2.794130 -0.365768
v 0.365768 2.794130 0.365768
v -0.365768 2.794130 0.365768
v 0.365768 2.794130 -0.365768
v -0.365768 2.794130 -0.365768
v 0.365768 3.954456 0.365768
v -0.365768 3.954456 0.365768
v 0.365768 3.954456 -0.365768
v -0.365768 3.954456 -0.365768
v 2.000000 2.794130 -0.365768
v 2.000000 2.794130 0.365768
v 2.000000 3.954456 -0.365768
v 2.000000 3.954456 0.365768
v -0.365768 2.794130 -2.000000
v 0.365768 2.794130 -2.000000
v -0.365768 3.954456 -2.000000
v 0.365768 3.954456 -2.000000
v -2.000000 2.794130 0.365768
v -2.000000 2.794130 -0.365768
v -2.000000 3.954456 0.365768
v -2.000000 3.954456 -0.365768
v 0.365768 2.794130 2.000000
v -0.365768 2.794130 2.000000
v 0.365768 3.954456 2.000000
v -0.365768 3.954456 2.000000
vn -0.0000 -0.0000 -1.0000
vn -0.0000 -0.0000 1.0000
vn -1.0000 -0.0000 -0.0000
vn -0.0000 -1.0000 -0.0000
vn 1.0000 -0.0000 -0.0000
vn -0.0000 1.0000 -0.0000
vn 0.0002 1.0000 -0.0000
vn -0.0002 1.0000 -0.0000
vt 0.237606 0.474695
vt 0.324420 0.474695
vt 0.324420 0.686452
vt 0.237606 0.686452
vt 0.236572 0.237606
vt 0.236572 0.473661
vt 0.000517 0.473661
vt 0.000517 0.237606
vt 0.237606 0.236572
vt 0.237606 0.000517
vt 0.473661 0.000517
vt 0.473661 0.236572
vt 0.000517 0.236572
vt 0.000517 0.000517
vt 0.236572 0.000517
vt 0.236572 0.236572
vt 0.473661 0.237606
vt 0.473661 0.473661
vt 0.237606 0.473661
vt 0.237606 0.237606
vt 0.000517 0.710751
vt 0.000517 0.474695
vt 0.236572 0.474695
vt 0.236572 0.710751
vt 0.624971 0.075138
vt 0.624971 0.161952
vt 0.550350 0.236572
vt 0.550350 0.000517
vt 0.624971 0.312227
vt 0.624971 0.399041
vt 0.550350 0.473661
vt 0.550350 0.237606
vt 0.549316 0.075138
vt 0.549316 0.161952
vt 0.474695 0.236572
vt 0.474696 0.000517
vt 0.549316 0.312227
vt 0.549316 0.399041
vt 0.474695 0.473661
vt 0.474695 0.237606
vt 0.237606 0.687486
vt 0.374557 0.687486
vt 0.374557 0.880371
vt 0.237606 0.880371
vt 0.325454 0.474695
vt 0.412268 0.474695
vt 0.412268 0.686452
vt 0.325454 0.686452
vt 0.413302 0.474695
vt 0.500116 0.474695
vt 0.500116 0.686452
vt 0.413302 0.686452
vt 0.501150 0.474695
vt 0.587964 0.474695
vt 0.587964 0.686452
vt 0.501150 0.686452
vt 0.513664 0.687486
vt 0.513664 0.776009
vt 0.513575 0.776060
vt 0.513575 0.687537
vt 0.514786 0.687486
vt 0.514786 0.776009
vt 0.514698 0.776060
vt 0.514698 0.687537
vt 0.515820 0.776060
vt 0.515820 0.687537
vt 0.515909 0.687486
vt 0.515909 0.776009
vt 0.516943 0.776060
vt 0.516943 0.687537
vt 0.517031 0.687486
vt 0.517031 0.776009
vt 0.518154 0.687486
vt 0.518154 0.776009
vt 0.518065 0.776060
vt 0.518065 0.687537
vt 0.519277 0.687486
vt 0.519277 0.776009
vt 0.519188 0.776060
vt 0.519188 0.687537
vt 0.520311 0.776060
vt 0.520311 0.687537
vt 0.520399 0.687486
vt 0.520399 0.776009
vt 0.521433 0.776060
vt 0.521433 0.687537
vt 0.521522 0.687486
vt 0.521522 0.776009
vt 0.534309 0.687723
vt 0.534309 0.774066
vt 0.534073 0.774302
vt 0.534073 0.687486
vt 0.535580 0.687723
vt 0.535580 0.774066
vt 0.535343 0.774302
vt 0.535343 0.687486
vt 0.531532 0.774066
vt 0.531532 0.687723
vt 0.531769 0.687486
vt 0.531769 0.774302
vt 0.532803 0.774066
vt 0.532803 0.687723
vt 0.533039 0.687486
vt 0.533039 0.774302
vt 0.522644 0.687486
vt 0.522644 0.775527
vt 0.522556 0.775578
vt 0.522556 0.687537
vt 0.523766 0.687486
vt 0.523766 0.775527
vt 0.523678 0.775578
vt 0.523678 0.687537
vt 0.524800 0.775578
vt 0.524800 0.687537
vt 0.524888 0.687486
vt 0.524888 0.775527
vt 0.525922 0.775578
vt 0.525922 0.687537
vt 0.526010 0.687486
vt 0.526010 0.775527
vt 0.527132 0.687486
vt 0.527132 0.775527
vt 0.527044 0.775578
vt 0.527044 0.687537
vt 0.528254 0.687486
vt 0.528254 0.775527
vt 0.528166 0.775578
vt 0.528166 0.687537
vt 0.529288 0.775578
vt 0.529288 0.687537
vt 0.529376 0.687486
vt 0.529376 0.775527
vt 0.530410 0.775578
vt 0.530410 0.687537
vt 0.530498 0.687486
vt 0.530498 0.775527
vt 0.323948 0.967746
vt 0.237606 0.967746
vt 0.237606 0.881405
vt 0.323948 0.881405
vt 0.726983 0.668614
vt 0.863933 0.668614
vt 0.863933 0.861498
vt 0.726983 0.861498
vt 0.375591 0.687486
vt 0.512541 0.687486
vt 0.512541 0.880371
vt 0.375591 0.880371
vt 0.725949 0.667580
vt 0.588998 0.667580
vt 0.588998 0.474695
vt 0.725949 0.474695
vt 0.588998 0.862533
vt 0.675340 0.862533
vt 0.675340 0.999483
vt 0.588998 0.999483
vt 0.086858 0.904669
vt 0.000517 0.904669
vt 0.000517 0.711785
vt 0.086858 0.711785
vt 0.174234 0.904669
vt 0.087892 0.904669
vt 0.087892 0.711785
vt 0.174234 0.711785
vt 0.762955 0.193401
vt 0.626005 0.193402
vt 0.626005 0.000517
vt 0.762955 0.000517
vt 0.851124 0.862533
vt 0.937466 0.862533
vt 0.937466 0.999483
vt 0.851124 0.999483
vt 0.937706 0.193401
vt 0.851365 0.193401
vt 0.851365 0.000517
vt 0.937706 0.000517
vt 0.937706 0.387320
vt 0.851365 0.387320
vt 0.851365 0.194436
vt 0.937706 0.194436
vt 0.725949 0.861498
vt 0.588998 0.861499
vt 0.588998 0.668614
vt 0.725948 0.668614
vt 0.763749 0.862533
vt 0.850090 0.862533
vt 0.850090 0.999483
vt 0.763749 0.999483
vt 0.763989 0.000517
vt 0.850331 0.000517
vt 0.850331 0.193401
vt 0.763989 0.193401
vt 0.726983 0.474695
vt 0.863933 0.474695
vt 0.863933 0.667580
vt 0.726983 0.667580
vt 0.864967 0.474695
vt 0.951308 0.474695
vt 0.951308 0.667580
vt 0.864967 0.667580
vt 0.676374 0.862533
vt 0.762715 0.862533
vt 0.762715 0.999483
vt 0.676374 0.999483
vt 0.763989 0.194436
vt 0.850331 0.194436
vt 0.850331 0.387320
vt 0.763989 0.387320
vt 0.626005 0.194436
vt 0.762955 0.194436
vt 0.762955 0.387320
vt 0.626005 0.387320
vt 0.864967 0.668614
vt 0.951308 0.668614
vt 0.951308 0.861498
vt 0.864967 0.861498
s 0
usemtl Material
f 1/1/1 5/2/1 20/3/1 19/4/1
f 4/5/2 9/6/2 10/7/2 8/8/2
f 8/9/3 10/10/3 12/11/3 6/12/3
f 6/13/4 2/14/4 4/15/4 8/16/4
f 2/17/5 11/18/5 9/19/5 4/20/5
f 6/21/1 12/22/1 11/23/1 2/24/1
f 3/25/6 7/26/6 10/27/6 9/28/6
f 1/29/6 3/30/6 9/31/6 11/32/6
f 7/33/6 5/34/6 12/35/6 10/36/6
f 5/37/6 1/38/6 11/39/6 12/40/6
f 37/41/2 13/42/2 42/43/2 44/44/2
f 3/45/5 1/46/5 19/47/5 17/48/5
f 5/49/3 7/50/3 18/51/3 20/52/3
f 7/53/2 3/54/2 17/55/2 18/56/2
f 21/57/6 22/58/6 18/59/6 17/60/6
f 23/61/6 21/62/6 17/63/6 19/64/6
f 22/65/6 24/66/6 20/67/6 18/68/6
f 24/69/6 23/70/6 19/71/6 20/72/6
f 25/73/6 26/74/6 22/75/6 21/76/6
f 27/77/6 25/78/6 21/79/6 23/80/6
f 26/81/6 28/82/6 24/83/6 22/84/6
f 28/85/6 27/86/6 23/87/6 24/88/6
f 29/89/6 30/90/6 26/91/6 25/92/6
f 31/93/7 29/94/7 25/95/7 27/96/7
f 30/97/8 32/98/8 28/99/8 26/100/8
f 32/101/6 31/102/6 27/103/6 28/104/6
f 33/105/6 34/106/6 30/107/6 29/108/6
f 35/109/6 33/110/6 29/111/6 31/112/6
f 34/113/6 36/114/6 32/115/6 30/116/6
f 36/117/6 35/118/6 31/119/6 32/120/6
f 13/121/6 14/122/6 34/123/6 33/124/6
f 15/125/6 13/126/6 33/127/6 35/128/6
f 14/129/6 16/130/6 36/131/6 34/132/6
f 16/133/6 15/134/6 35/135/6 36/136/6
f 39/137/6 40/138/6 38/139/6 37/140/6
f 40/141/1 16/142/1 50/143/1 52/144/1
f 13/145/5 37/146/5 55/147/5 53/148/5
f 16/149/3 40/150/3 47/151/3 45/152/3
f 42/153/5 41/154/5 43/155/5 44/156/5
f 39/157/6 37/158/6 44/159/6 43/160/6
f 13/161/4 15/162/4 41/163/4 42/164/4
f 15/165/1 39/166/1 43/167/1 41/168/1
f 46/169/1 45/170/1 47/171/1 48/172/1
f 40/173/6 39/174/6 48/175/6 47/176/6
f 15/177/4 16/178/4 45/179/4 46/180/4
f 39/181/5 15/182/5 46/183/5 48/184/5
f 50/185/3 49/186/3 51/187/3 52/188/3
f 16/189/4 14/190/4 49/191/4 50/192/4
f 14/193/2 38/194/2 51/195/2 49/196/2
f 38/197/6 40/198/6 52/199/6 51/200/6
f 54/201/2 53/202/2 55/203/2 56/204/2
f 14/205/4 13/206/4 53/207/4 54/208/4
f 38/209/3 14/210/3 54/211/3 56/212/3
f 37/213/6 38/214/6 56/215/6 55/216/6
