# Blender 4.4.1
# www.blender.org
mtllib Base.mtl
o 立方体.012
v -1.201240 3.460567 -0.091804
v 1.257086 3.460567 -0.055575
v -1.201240 3.608719 -0.091804
v -1.203731 3.460567 0.077220
v 1.254594 3.460567 0.113449
v -1.203731 3.608719 0.077220
v 1.254594 3.608719 0.113449
v 1.257086 3.608719 -0.055575
v -0.039526 5.141446 0.065712
v -0.039526 5.141446 -0.066694
v -0.039526 5.885967 0.065712
v 0.092880 5.141446 0.065712
v 0.092880 5.141446 -0.066694
v 0.092880 5.885967 0.065712
v 0.092880 5.885967 -0.066694
v -0.039526 5.885967 -0.066694
v -0.697622 5.558449 0.029421
v -0.697622 5.908412 0.029421
v -0.697622 5.558449 -0.030403
v -0.697622 5.908412 -0.030403
v 0.080181 5.558449 0.029421
v 0.080181 5.908412 0.029421
v 0.080181 5.558449 -0.030403
v 0.080181 5.908412 -0.030403
v -0.604783 2.943650 0.630968
v -0.604783 2.943650 -0.631950
v -0.604783 4.012024 0.630968
v 0.658137 2.943650 0.630968
v 0.658137 2.943650 -0.631950
v 0.658137 4.012024 0.630968
v 0.658137 4.012024 -0.631950
v -0.604783 4.012024 -0.631950
v -0.385363 3.876466 0.411549
v -0.385363 3.876466 -0.412531
v -0.385363 4.573601 0.411549
v 0.438717 3.876466 0.411549
v 0.438717 3.876466 -0.412531
v 0.438717 4.573601 0.411549
v 0.438717 4.573601 -0.412531
v -0.385363 4.573601 -0.412531
v -0.273484 4.529415 0.299670
v -0.273484 4.529415 -0.300652
v -0.273484 5.223342 0.299670
v 0.326839 4.529415 0.299670
v 0.326839 4.529415 -0.300652
v 0.326839 5.223342 0.299670
v 0.326839 5.223342 -0.300652
v -0.273484 5.223342 -0.300652
v 0.001494 2.758929 0.630148
v -0.309112 2.630272 0.630148
v 0.312100 2.630272 0.630148
v 0.001494 3.021243 0.630148
v 0.001494 2.758929 1.199148
v -0.309112 2.630272 1.199148
v 0.312100 2.630272 1.199148
v 0.001494 3.021243 1.199148
v -0.494595 2.815756 1.199148
v 0.497583 2.815756 1.199148
v -0.181093 3.478218 1.199148
v -0.688618 3.267994 1.199148
v -0.181093 3.478218 0.630148
v -0.688618 3.267994 0.630148
v -0.494595 2.815756 0.630148
v -0.700082 2.319666 0.630148
v -0.494595 1.823577 0.630148
v -0.437768 2.319666 0.630148
v -1.157058 2.137080 0.630148
v -0.700082 2.319666 1.199148
v -0.494595 1.823577 1.199148
v -0.437768 2.319666 1.199148
v -1.157058 2.137080 1.199148
v -0.946834 1.629555 1.199147
v -0.946834 1.629555 0.630148
v -0.309112 2.009061 1.199148
v 0.001494 1.880404 1.199148
v -0.309112 2.009061 0.630148
v 0.001494 1.880404 0.630148
v 0.312100 2.009061 0.630148
v 0.001494 1.618091 0.630148
v 0.497583 1.823577 0.630148
v 0.184081 1.161115 0.630148
v 0.001494 1.618091 1.199147
v 0.497583 1.823577 1.199148
v 0.184081 1.161115 1.199147
v 0.691606 1.371339 1.199147
v 0.691606 1.371339 0.630148
v 0.703070 2.319666 1.199148
v 0.312100 2.009061 1.199148
v 0.440757 2.319666 1.199148
v 0.440757 2.319666 0.630148
v 0.703070 2.319666 0.630148
v 0.497583 2.815756 0.630148
v 1.160046 2.502253 0.630148
v 0.949822 3.009778 0.630148
v 1.160046 2.502253 1.199148
v 0.949822 3.009778 1.199148
v -0.778107 0.680395 0.804292
v -0.778107 0.680395 -0.805274
v -0.778107 3.031037 0.804292
v 0.831461 0.680395 0.804292
v 0.831461 0.680395 -0.805274
v 0.831461 3.031037 0.804292
v 0.831461 3.031037 -0.805274
v -0.778107 3.031037 -0.805274
v 0.778431 0.896134 0.459687
v 0.778431 0.896134 -0.422665
v 0.778431 3.005125 0.459687
v 0.910838 0.896134 0.459687
v 0.910838 0.896134 -0.422665
v 0.910838 3.005125 0.459687
v 0.910838 3.005125 -0.422665
v 0.778431 3.005125 -0.422665
v -0.868888 0.896134 0.459687
v -0.868888 0.896134 -0.422665
v -0.868888 3.005125 0.459687
v -0.736482 0.896134 0.459687
v -0.736482 0.896134 -0.422665
v -0.736482 3.005125 0.459687
v -0.736482 3.005125 -0.422665
v -0.868888 3.005125 -0.422665
v 0.707739 2.319666 -0.529296
v 0.707739 2.630272 -0.400639
v 0.707739 2.009061 -0.400639
v 0.707739 2.319666 -0.791610
v 1.276740 2.319666 -0.529296
v 1.276740 2.630272 -0.400639
v 1.276740 2.009061 -0.400639
v 1.276740 2.319666 -0.791610
v 1.276740 2.815756 -0.586123
v 1.276740 1.823577 -0.586123
v 1.276740 2.502253 -1.248585
v 1.276740 3.009778 -1.038362
v 0.707739 2.502253 -1.248585
v 0.707739 3.009778 -1.038362
v 0.707739 2.815756 -0.586123
v 0.707739 3.021243 -0.090034
v 0.707739 2.815756 0.406055
v 0.707739 2.758929 -0.090034
v 0.707739 3.478218 0.092552
v 1.276740 3.021243 -0.090034
v 1.276740 2.815756 0.406055
v 1.276740 2.758929 -0.090034
v 1.276740 3.478218 0.092552
v 1.276740 3.267994 0.600077
v 0.707739 3.267994 0.600077
v 1.276740 2.630272 0.220571
v 1.276740 2.319666 0.349228
v 0.707739 2.630272 0.220571
v 0.707739 2.319666 0.349228
v 0.707739 2.009061 0.220571
v 0.707739 2.319667 0.611542
v 0.707739 1.823577 0.406055
v 0.707739 2.137080 1.068517
v 1.276740 2.319667 0.611542
v 1.276740 1.823577 0.406055
v 1.276740 2.137080 1.068517
v 1.276740 1.629555 0.858293
v 0.707739 1.629555 0.858293
v 1.276740 1.618091 -0.090034
v 1.276740 2.009061 0.220571
v 1.276740 1.880404 -0.090034
v 0.707739 1.880404 -0.090034
v 0.707739 1.618091 -0.090034
v 0.707739 1.823577 -0.586123
v 0.707739 1.161115 -0.272621
v 0.707739 1.371339 -0.780145
v 1.276740 1.161115 -0.272621
v 1.276740 1.371339 -0.780145
v -0.973323 0.341770 0.999508
v -0.973323 0.341770 -1.000491
v -0.973323 0.984290 0.999508
v 1.026678 0.341770 0.999508
v 1.026678 0.341770 -1.000491
v 1.026678 0.984290 0.999508
v 1.026678 0.984290 -1.000491
v -0.973323 0.984290 -1.000491
v 0.026677 -0.008672 -1.716186
v 1.239858 -0.008672 -1.213671
v 0.026677 0.500981 -1.716186
v -1.186504 -0.008672 -1.213671
v -1.689020 -0.008672 -0.000491
v -1.186504 0.500981 -1.213671
v -1.689020 0.500981 -0.000491
v -1.186504 0.500981 1.212689
v 0.026677 0.500981 1.715204
v -1.186504 -0.008672 1.212689
v 0.026677 -0.008672 1.715204
v 1.239858 -0.008672 1.212689
v 1.742374 -0.008672 -0.000491
v 1.239858 0.500981 1.212689
v 1.742374 0.500981 -0.000491
v 1.239858 0.500981 -1.213671
v -0.289936 4.314698 -1.330458
v -0.289936 4.314698 -1.872962
v -0.289936 4.687822 -1.330458
v 0.289936 4.314698 -1.330458
v 0.289936 4.314698 -1.872962
v 0.289936 4.687822 -1.330458
v 0.289936 4.687822 -1.872962
v -0.289936 4.687822 -1.872962
v -0.245499 2.088818 -0.704429
v -0.245499 2.088818 -1.825775
v -0.245499 2.342203 -0.704429
v 0.245499 2.088818 -0.704429
v 0.245499 2.088818 -1.825775
v 0.245499 2.342203 -0.704429
v 0.245499 2.342203 -1.825775
v -0.245499 2.342203 -1.825775
v -0.203752 2.184165 -1.411088
v -0.203752 2.184165 -1.792332
v -0.203752 4.490201 -1.411088
v 0.203752 2.184165 -1.411088
v 0.203752 2.184165 -1.792332
v 0.203752 4.490201 -1.411088
v 0.203752 4.490201 -1.792332
v -0.203752 4.490201 -1.792332
v -0.057844 3.460567 1.185871
v -0.057844 3.460567 -1.272721
v -0.057844 3.608719 1.185871
v 0.111198 3.460567 1.185871
v 0.111198 3.460567 -1.272721
v 0.111198 3.608719 1.185871
v 0.111198 3.608719 -1.272721
v -0.057844 3.608719 -1.272721
vn -0.0000 -1.0000 -0.0000
vn 0.0147 -0.0000 -0.9999
vn -0.9999 -0.0000 -0.0147
vn -0.0147 -0.0000 0.9999
vn -0.0000 1.0000 -0.0000
vn 0.9999 -0.0000 0.0147
vn -1.0000 -0.0000 -0.0000
vn -0.0000 -0.0000 1.0000
vn 1.0000 -0.0000 -0.0000
vn -0.0000 -0.0000 -1.0000
vn 0.3827 -0.9239 -0.0000
vn -0.3827 -0.9239 -0.0000
vn 0.3827 0.9239 -0.0000
vn 0.9286 0.3710 -0.0000
vn -0.3827 0.9239 -0.0000
vn -0.9190 -0.3943 -0.0000
vn -0.9239 0.3827 -0.0000
vn -0.3710 0.9286 -0.0000
vn -0.9239 -0.3827 -0.0000
vn 0.3943 -0.9190 -0.0000
vn 0.9239 -0.3827 -0.0000
vn 0.9239 0.3827 -0.0000
vn -0.9286 -0.3710 -0.0000
vn 0.9190 0.3943 -0.0000
vn 0.3710 -0.9286 -0.0000
vn -0.3943 0.9190 -0.0000
vn -0.0000 -0.3827 0.9239
vn -0.0000 0.3827 0.9239
vn -0.0000 -0.3827 -0.9239
vn -0.0000 -0.9286 -0.3710
vn -0.0000 0.3827 -0.9239
vn -0.0000 0.9190 0.3943
vn -0.0000 0.9239 -0.3827
vn -0.0000 0.3710 -0.9286
vn -0.0000 0.9239 0.3827
vn -0.0000 -0.3943 0.9190
vn -0.0000 -0.9239 0.3827
vn -0.0000 -0.9239 -0.3827
vn -0.0000 0.9286 0.3710
vn -0.0000 -0.9190 -0.3943
vn -0.0000 -0.3710 0.9286
vn -0.0000 0.3943 -0.9190
vn 0.3827 -0.0000 -0.9239
vn -0.3827 -0.0000 -0.9239
vn -0.9239 -0.0000 -0.3827
vn -0.9239 -0.0000 0.3827
vn -0.3827 -0.0000 0.9239
vn 0.3827 -0.0000 0.9239
vn 0.9239 -0.0000 0.3827
vn 0.9239 -0.0000 -0.3827
vt 0.561863 0.421865
vt 0.555952 0.390863
vt 0.591909 0.390863
vt 0.597814 0.421865
vt 0.488447 0.390863
vt 0.488447 0.386137
vt 0.524397 0.386137
vt 0.524397 0.390863
vt 0.591909 0.386137
vt 0.623464 0.386137
vt 0.623464 0.390863
vt 0.555952 0.386137
vt 0.561863 0.355128
vt 0.597814 0.355128
vt 0.360655 0.450146
vt 0.361129 0.451611
vt 0.361129 0.476888
vt 0.360152 0.477865
vt 0.361129 0.424388
vt 0.385421 0.424388
vt 0.386212 0.450440
vt 0.385421 0.476888
vt 0.386398 0.477857
vt 0.385421 0.451611
vt 0.369659 0.567572
vt 0.380822 0.567572
vt 0.380822 0.578748
vt 0.369659 0.578748
vt 0.380822 0.589918
vt 0.369659 0.589918
vt 0.380822 0.601094
vt 0.369659 0.601094
vt 0.380822 0.612264
vt 0.369659 0.612264
vt 0.358483 0.589918
vt 0.358483 0.601094
vt 0.391998 0.589918
vt 0.391998 0.601094
vt 0.153066 0.414283
vt 0.134922 0.414283
vt 0.134922 0.178454
vt 0.153066 0.178454
vt 0.134922 0.668264
vt 0.100825 0.668264
vt 0.100825 0.432427
vt 0.134922 0.432427
vt 0.100825 0.178454
vt 0.100825 0.160309
vt 0.134922 0.160309
vt 0.100825 0.414283
vt 0.082688 0.414283
vt 0.082688 0.178454
vt 0.536139 0.300532
vt 0.536139 0.288702
vt 0.690026 0.288702
vt 0.690026 0.300532
vt 0.370415 0.288702
vt 0.370415 0.266442
vt 0.524302 0.266442
vt 0.524302 0.288702
vt 0.690026 0.266442
vt 0.701864 0.266442
vt 0.701864 0.288702
vt 0.536139 0.266442
vt 0.536139 0.254619
vt 0.690026 0.254619
vt 0.765330 0.288082
vt 0.756718 0.288082
vt 0.756718 0.175986
vt 0.765330 0.175986
vt 0.756718 0.408798
vt 0.734558 0.408798
vt 0.734558 0.296702
vt 0.756718 0.296702
vt 0.734558 0.175986
vt 0.734558 0.167373
vt 0.756718 0.167373
vt 0.734558 0.288082
vt 0.725946 0.288082
vt 0.725946 0.175986
vt 0.730600 0.435080
vt 0.730600 0.541331
vt 0.736663 0.541331
vt 0.736663 0.435080
vt 0.359270 0.674922
vt 0.366221 0.686906
vt 0.372809 0.680504
vt 0.376909 0.648922
vt 0.789133 0.435080
vt 0.789133 0.541331
vt 0.795196 0.541331
vt 0.795196 0.435080
vt 0.364334 0.819956
vt 0.359730 0.829753
vt 0.365936 0.841019
vt 0.371049 0.829205
vt 0.495749 0.698552
vt 0.487595 0.669742
vt 0.481204 0.699996
vt 0.486065 0.707966
vt 0.498546 0.816798
vt 0.491821 0.830026
vt 0.498382 0.843730
vt 0.505865 0.829257
vt 0.457392 0.673397
vt 0.459400 0.681691
vt 0.402436 0.667532
vt 0.398052 0.673114
vt 0.370947 0.702281
vt 0.478786 0.721211
vt 0.364876 0.702666
vt 0.380556 0.741919
vt 0.394471 0.733243
vt 0.385864 0.715210
vt 0.366542 0.731021
vt 0.468283 0.727527
vt 0.483882 0.722541
vt 0.460090 0.739361
vt 0.468656 0.745559
vt 0.478518 0.740124
vt 0.746749 0.541331
vt 0.746749 0.435080
vt 0.756835 0.541331
vt 0.756835 0.435080
vt 0.762898 0.541331
vt 0.762898 0.435080
vt 0.464527 0.753116
vt 0.480507 0.755430
vt 0.359270 0.756447
vt 0.385250 0.750534
vt 0.768962 0.541331
vt 0.768962 0.435080
vt 0.369246 0.782859
vt 0.376759 0.778584
vt 0.405392 0.765645
vt 0.407756 0.761071
vt 0.448656 0.758399
vt 0.451278 0.763967
vt 0.471521 0.770230
vt 0.481305 0.772596
vt 0.371183 0.798820
vt 0.484468 0.790547
vt 0.490940 0.788335
vt 0.779047 0.541331
vt 0.779047 0.435080
vt 0.365432 0.798253
vt 0.384883 0.822488
vt 0.379221 0.808141
vt 0.477900 0.799228
vt 0.471574 0.818489
vt 0.618634 0.756152
vt 0.636579 0.763696
vt 0.874708 0.972435
vt 0.875880 0.989787
vt 0.379572 0.538409
vt 0.431523 0.479144
vt 0.683905 0.687282
vt 0.926659 0.913171
vt 0.944009 0.912065
vt 0.688530 0.704431
vt 0.214666 0.722385
vt 0.213301 0.722859
vt 0.046966 0.723477
vt 0.112920 0.722450
vt 0.213481 0.791319
vt 0.214651 0.791463
vt 0.047225 0.791463
vt 0.213552 0.790860
vt 0.268629 0.546591
vt 0.269103 0.548028
vt 0.269103 0.713975
vt 0.268148 0.714930
vt 0.269103 0.380178
vt 0.336910 0.380178
vt 0.337678 0.546886
vt 0.336910 0.713975
vt 0.337865 0.714930
vt 0.336910 0.548028
vt 0.321065 0.171733
vt 0.321065 0.163560
vt 0.295075 0.163560
vt 0.295075 0.171733
vt 0.603600 0.082959
vt 0.513918 0.090194
vt 0.620372 0.126730
vt 0.680924 0.128374
vt 0.646007 0.324093
vt 0.646007 0.332265
vt 0.671997 0.332265
vt 0.671997 0.324093
vt 0.208539 0.103784
vt 0.207933 0.103698
vt 0.206837 0.104047
vt 0.207799 0.104118
vt 0.596718 0.181066
vt 0.679657 0.146599
vt 0.619403 0.140058
vt 0.508889 0.161300
vt 0.208471 0.104745
vt 0.207785 0.104308
vt 0.206823 0.104242
vt 0.207858 0.104744
vt 0.767197 0.144245
vt 0.728321 0.139012
vt 0.765088 0.140864
vt 0.727899 0.141700
vt 0.307299 0.101428
vt 0.305903 0.121111
vt 0.309102 0.082959
vt 0.225894 0.104324
vt 0.205798 0.105465
vt 0.274526 0.108540
vt 0.249772 0.096135
vt 0.274466 0.109406
vt 0.305085 0.139648
vt 0.205998 0.102665
vt 0.225728 0.106656
vt 0.248206 0.118179
vt 0.236930 0.163560
vt 0.236930 0.171733
vt 0.419591 0.324093
vt 0.419591 0.332265
vt 0.477736 0.332265
vt 0.477736 0.324093
vt 0.503726 0.332265
vt 0.503726 0.324093
vt 0.209726 0.103374
vt 0.226190 0.112215
vt 0.227157 0.098921
vt 0.209607 0.105086
vt 0.529716 0.332265
vt 0.529716 0.324093
vt 0.219641 0.100074
vt 0.223969 0.102833
vt 0.184182 0.101158
vt 0.158317 0.100696
vt 0.160813 0.098619
vt 0.184306 0.102669
vt 0.223565 0.107894
vt 0.218909 0.110009
vt 0.210129 0.103809
vt 0.210048 0.104948
vt 0.209793 0.105740
vt 0.587862 0.332265
vt 0.587862 0.324093
vt 0.209991 0.102988
vt 0.207244 0.104206
vt 0.209165 0.104251
vt 0.209156 0.104372
vt 0.207249 0.104143
vt 0.197164 0.677620
vt 0.176654 0.677620
vt 0.176654 0.304155
vt 0.197164 0.304155
vt 0.225889 0.304155
vt 0.225889 0.677620
vt 0.225889 0.698130
vt 0.197164 0.698130
vt 0.246399 0.304155
vt 0.246399 0.677620
vt 0.309732 0.233332
vt 0.309732 0.204607
vt 0.683197 0.204607
vt 0.683197 0.233332
vt 0.197164 0.283645
vt 0.225889 0.283645
vt 0.024902 0.722397
vt 0.010475 0.628054
vt 0.010475 0.401398
vt 0.024902 0.175203
vt 0.045306 0.081969
vt 0.059733 0.176312
vt 0.059733 0.402968
vt 0.045306 0.629163
vt 0.747572 0.647167
vt 0.736848 0.659401
vt 0.665078 0.596489
vt 0.675802 0.584255
vt 0.819342 0.710079
vt 0.808618 0.722313
vt 0.989784 0.859485
vt 0.979060 0.871719
vt 0.164003 0.045306
vt 0.070769 0.024902
vt 0.165112 0.010475
vt 0.391768 0.010475
vt 0.617963 0.024902
vt 0.711197 0.045306
vt 0.616854 0.059733
vt 0.390198 0.059733
vt 0.191379 0.159619
vt 0.180655 0.171853
vt 0.010213 0.022447
vt 0.020937 0.010213
vt 0.263149 0.222531
vt 0.252425 0.234765
vt 0.334919 0.285443
vt 0.324195 0.297677
vt 0.505360 0.434849
vt 0.494637 0.447083
vt 0.644842 0.405044
vt 0.647011 0.411789
vt 0.649066 0.522664
vt 0.644842 0.480235
vt 0.663489 0.409146
vt 0.664530 0.406007
vt 0.663417 0.522391
vt 0.661355 0.411530
vt 0.694792 0.321748
vt 0.697011 0.328148
vt 0.698743 0.573064
vt 0.694792 0.476748
vt 0.708102 0.326029
vt 0.709330 0.322739
vt 0.707498 0.572999
vt 0.705767 0.328084
vt 0.813863 0.012023
vt 0.809524 0.013639
vt 0.735777 0.014501
vt 0.764287 0.011750
vt 0.811830 0.090547
vt 0.813863 0.091466
vt 0.736683 0.090037
vt 0.810415 0.089161
vt 0.588587 0.562229
vt 0.586676 0.561423
vt 0.213495 0.234299
vt 0.213363 0.232455
vt 0.961829 0.890275
vt 0.958453 0.894126
vt 0.583797 0.567094
vt 0.210119 0.238150
vt 0.208273 0.238262
vt 0.583300 0.565274
s 0
usemtl マテリアル.001
f 2/1/1 5/2/1 4/3/1 1/4/1
f 1/5/2 3/6/2 8/7/2 2/8/2
f 4/3/3 6/9/3 3/10/3 1/11/3
f 5/2/4 7/12/4 6/9/4 4/3/4
f 7/12/5 8/13/5 3/14/5 6/9/5
f 2/8/6 8/7/6 7/12/6 5/2/6
f 10/15/1 13/16/1 12/17/1 9/18/1
f 9/19/7 11/20/7 16/21/7 10/15/7
f 12/17/8 14/22/8 11/23/8 9/18/8
f 13/16/9 15/24/9 14/22/9 12/17/9
f 15/24/5 16/21/5 11/23/5 14/22/5
f 10/15/10 16/21/10 15/24/10 13/16/10
f 17/25/7 18/26/7 20/27/7 19/28/7
f 19/28/10 20/27/10 24/29/10 23/30/10
f 23/30/9 24/29/9 22/31/9 21/32/9
f 21/32/8 22/31/8 18/33/8 17/34/8
f 19/35/1 23/30/1 21/32/1 17/36/1
f 24/29/5 20/37/5 18/38/5 22/31/5
f 26/39/1 29/40/1 28/41/1 25/42/1
f 25/43/7 27/44/7 32/45/7 26/46/7
f 28/41/8 30/47/8 27/48/8 25/49/8
f 29/40/9 31/50/9 30/47/9 28/41/9
f 31/50/5 32/51/5 27/52/5 30/47/5
f 26/46/10 32/45/10 31/50/10 29/40/10
f 34/53/1 37/54/1 36/55/1 33/56/1
f 33/57/7 35/58/7 40/59/7 34/60/7
f 36/55/8 38/61/8 35/62/8 33/63/8
f 37/54/9 39/64/9 38/61/9 36/55/9
f 39/64/5 40/65/5 35/66/5 38/61/5
f 34/60/10 40/59/10 39/64/10 37/54/10
f 42/67/1 45/68/1 44/69/1 41/70/1
f 41/71/7 43/72/7 48/73/7 42/74/7
f 44/69/8 46/75/8 43/76/8 41/77/8
f 45/68/9 47/78/9 46/75/9 44/69/9
f 47/78/5 48/79/5 43/80/5 46/75/5
f 42/74/10 48/73/10 47/78/10 45/68/10
f 49/81/11 53/82/11 54/83/11 50/84/11
f 49/85/10 50/86/10 63/87/10 52/88/10
f 51/89/12 55/90/12 53/91/12 49/92/12
f 51/93/10 49/94/10 52/95/10 92/96/10
f 53/97/8 56/98/8 57/99/8 54/100/8
f 55/101/8 58/102/8 56/103/8 53/104/8
f 56/98/8 59/105/8 60/106/8 57/99/8
f 52/95/13 56/103/13 58/102/13 92/96/13
f 61/107/14 59/105/14 56/98/14 52/88/14
f 62/108/15 60/106/15 59/105/15 61/107/15
f 52/88/10 63/87/10 62/108/10 61/107/10
f 63/87/16 57/99/16 60/106/16 62/108/16
f 64/109/17 68/110/17 57/99/17 63/87/17
f 50/86/10 66/111/10 64/109/10 63/87/10
f 64/109/10 65/112/10 73/113/10 67/114/10
f 66/111/10 76/115/10 65/112/10 64/109/10
f 67/114/18 71/116/18 68/110/18 64/109/18
f 54/100/8 57/99/8 68/110/8 70/117/8
f 68/110/8 71/116/8 72/118/8 69/119/8
f 70/117/8 68/110/8 69/119/8 74/120/8
f 73/113/19 72/118/19 71/116/19 67/114/19
f 65/112/20 69/119/20 72/118/20 73/113/20
f 50/84/21 54/83/21 70/121/21 66/122/21
f 66/122/22 70/121/22 74/123/22 76/124/22
f 76/124/13 74/123/13 75/125/13 77/126/13
f 74/120/8 69/119/8 82/127/8 75/128/8
f 76/115/10 77/129/10 79/130/10 65/112/10
f 77/126/15 75/125/15 88/131/15 78/132/15
f 77/129/10 78/133/10 80/134/10 79/130/10
f 79/130/12 82/127/12 69/119/12 65/112/12
f 79/130/10 80/134/10 86/135/10 81/136/10
f 81/136/23 84/137/23 82/127/23 79/130/23
f 82/127/8 84/137/8 85/138/8 83/139/8
f 75/128/8 82/127/8 83/139/8 88/140/8
f 86/135/11 85/138/11 84/137/11 81/136/11
f 80/134/24 83/139/24 85/138/24 86/135/24
f 91/141/21 87/142/21 83/139/21 80/134/21
f 88/140/8 83/139/8 87/142/8 89/143/8
f 78/132/17 88/131/17 89/144/17 90/145/17
f 90/145/19 89/144/19 55/90/19 51/89/19
f 89/143/8 87/142/8 58/102/8 55/101/8
f 78/133/10 90/146/10 91/141/10 80/134/10
f 90/146/10 51/93/10 92/96/10 91/141/10
f 91/141/10 92/96/10 94/147/10 93/148/10
f 93/148/25 95/149/25 87/142/25 91/141/25
f 94/147/22 96/150/22 95/149/22 93/148/22
f 87/142/8 95/149/8 96/150/8 58/102/8
f 92/96/26 58/102/26 96/150/26 94/147/26
f 98/151/1 101/152/1 100/153/1 97/154/1
f 97/155/7 99/156/7 104/157/7 98/151/7
f 100/153/8 102/158/8 99/159/8 97/154/8
f 101/152/9 103/160/9 102/158/9 100/153/9
f 103/160/5 104/157/5 99/159/5 102/158/5
f 98/151/10 104/157/10 103/160/10 101/152/10
f 106/161/1 109/162/1 108/163/1 105/164/1
f 105/164/7 107/165/7 112/166/7 106/161/7
f 108/163/8 110/167/8 107/165/8 105/164/8
f 109/162/9 111/168/9 110/167/9 108/163/9
f 111/168/5 112/166/5 107/165/5 110/167/5
f 106/161/10 112/166/10 111/168/10 109/162/10
f 114/169/1 117/170/1 116/171/1 113/172/1
f 113/173/7 115/174/7 120/175/7 114/169/7
f 116/171/8 118/176/8 115/177/8 113/172/8
f 117/170/9 119/178/9 118/176/9 116/171/9
f 119/178/5 120/175/5 115/177/5 118/176/5
f 114/169/10 120/175/10 119/178/10 117/170/10
f 121/179/27 125/180/27 126/181/27 122/182/27
f 121/183/7 122/184/7 135/185/7 124/186/7
f 123/187/28 127/188/28 125/189/28 121/190/28
f 123/191/7 121/192/7 124/193/7 164/194/7
f 125/195/9 128/196/9 129/197/9 126/198/9
f 127/199/9 130/200/9 128/201/9 125/202/9
f 128/196/9 131/203/9 132/204/9 129/197/9
f 124/193/29 128/201/29 130/200/29 164/194/29
f 133/205/30 131/203/30 128/196/30 124/186/30
f 134/206/31 132/204/31 131/203/31 133/205/31
f 124/186/7 135/185/7 134/206/7 133/205/7
f 135/185/32 129/197/32 132/204/32 134/206/32
f 136/207/33 140/208/33 129/197/33 135/185/33
f 122/184/7 138/209/7 136/207/7 135/185/7
f 136/207/7 137/210/7 145/211/7 139/212/7
f 138/209/7 148/213/7 137/210/7 136/207/7
f 139/212/34 143/214/34 140/208/34 136/207/34
f 126/198/9 129/197/9 140/208/9 142/215/9
f 140/208/9 143/214/9 144/216/9 141/217/9
f 142/215/9 140/208/9 141/217/9 146/218/9
f 145/211/35 144/216/35 143/214/35 139/212/35
f 137/210/36 141/217/36 144/216/36 145/211/36
f 122/182/37 126/181/37 142/219/37 138/220/37
f 138/221/38 142/222/38 146/223/38 148/224/38
f 148/224/29 146/223/29 147/225/29 149/226/29
f 146/218/9 141/217/9 154/227/9 147/228/9
f 148/213/7 149/229/7 151/230/7 137/210/7
f 149/226/31 147/225/31 160/231/31 150/232/31
f 149/229/7 150/233/7 152/234/7 151/230/7
f 151/230/28 154/227/28 141/217/28 137/210/28
f 151/230/7 152/234/7 158/235/7 153/236/7
f 153/236/39 156/237/39 154/227/39 151/230/39
f 154/227/9 156/237/9 157/238/9 155/239/9
f 147/228/9 154/227/9 155/239/9 160/240/9
f 158/235/27 157/238/27 156/237/27 153/236/27
f 152/234/40 155/239/40 157/238/40 158/235/40
f 163/241/37 159/242/37 155/239/37 152/234/37
f 160/240/9 155/239/9 159/242/9 161/243/9
f 150/232/33 160/231/33 161/244/33 162/245/33
f 162/245/35 161/244/35 127/188/35 123/187/35
f 161/243/9 159/242/9 130/200/9 127/199/9
f 150/233/7 162/246/7 163/241/7 152/234/7
f 162/246/7 123/191/7 164/194/7 163/241/7
f 163/241/7 164/194/7 166/247/7 165/248/7
f 165/248/41 167/249/41 159/242/41 163/241/41
f 166/247/38 168/250/38 167/249/38 165/248/38
f 159/242/9 167/249/9 168/250/9 130/200/9
f 164/194/42 130/200/42 168/250/42 166/247/42
f 169/251/7 171/252/7 176/253/7 170/254/7
f 170/254/1 173/255/1 172/256/1 169/251/1
f 172/256/8 174/257/8 171/258/8 169/251/8
f 173/255/9 175/259/9 174/260/9 172/256/9
f 175/261/5 176/262/5 171/263/5 174/264/5
f 170/254/10 176/265/10 175/266/10 173/255/10
f 177/267/1 178/268/1 189/269/1 188/270/1 187/271/1 186/272/1 181/273/1 180/274/1
f 177/275/43 179/276/43 192/277/43 178/278/43
f 180/279/44 182/280/44 179/276/44 177/275/44
f 181/281/45 183/282/45 182/280/45 180/279/45
f 192/283/5 179/284/5 182/285/5 183/286/5 184/287/5 185/288/5 190/289/5 191/290/5
f 186/291/46 184/292/46 183/293/46 181/294/46
f 187/295/47 185/296/47 184/292/47 186/291/47
f 188/297/48 190/298/48 185/296/48 187/295/48
f 189/299/49 191/300/49 190/298/49 188/297/49
f 178/278/50 192/277/50 191/300/50 189/299/50
f 194/301/1 197/302/1 196/303/1 193/304/1
f 193/304/7 195/305/7 200/306/7 194/301/7
f 196/303/8 198/307/8 195/305/8 193/304/8
f 197/302/9 199/308/9 198/307/9 196/303/9
f 199/308/5 200/306/5 195/305/5 198/307/5
f 194/301/10 200/306/10 199/308/10 197/302/10
f 202/309/1 205/310/1 204/311/1 201/312/1
f 201/312/7 203/313/7 208/314/7 202/309/7
f 204/311/8 206/315/8 203/313/8 201/312/8
f 205/310/9 207/316/9 206/315/9 204/311/9
f 207/316/5 208/314/5 203/313/5 206/315/5
f 202/309/10 208/314/10 207/316/10 205/310/10
f 210/317/1 213/318/1 212/319/1 209/320/1
f 209/320/7 211/321/7 216/322/7 210/317/7
f 212/319/8 214/323/8 211/321/8 209/320/8
f 213/318/9 215/324/9 214/323/9 212/319/9
f 215/324/5 216/322/5 211/321/5 214/323/5
f 210/317/10 216/322/10 215/324/10 213/318/10
f 218/325/1 221/326/1 220/327/1 217/328/1
f 217/329/7 219/330/7 224/331/7 218/325/7
f 220/327/8 222/332/8 219/333/8 217/328/8
f 221/326/9 223/334/9 222/332/9 220/327/9
f 223/334/5 224/331/5 219/333/5 222/332/5
f 218/325/10 224/331/10 223/334/10 221/326/10
l 183 191
