# Blender 4.4.1
# www.blender.org
mtllib Boss.mtl
o 円柱.027
v 1.015929 1.654684 -0.197847
v 1.016197 1.689371 -0.298676
v 1.129466 1.654424 -0.198281
v 1.015499 1.711124 -0.103427
v 1.129037 1.710865 -0.103861
v 1.015230 1.816358 -0.086238
v 1.015235 1.885664 -0.129154
v 1.128773 1.815443 -0.087769
v 1.128773 1.885404 -0.129588
v 1.129037 1.920748 -0.229321
v 1.015499 1.921007 -0.228887
v 1.129466 1.864308 -0.323740
v 1.015929 1.864567 -0.323306
v 1.129730 1.759729 -0.339833
v 1.129730 1.689768 -0.298013
v 1.016192 1.759988 -0.339399
v -0.934198 0.849192 0.904171
v -1.113950 0.849192 0.541677
v -0.560709 0.849192 1.083922
v -0.560709 0.708108 0.541677
v 0.523782 0.849192 1.083922
v 0.875281 0.849192 0.904171
v 0.523782 0.708108 0.541677
v 1.055032 0.849192 0.541677
v 0.523782 0.708108 -0.542815
v 1.055032 0.849192 -0.542815
v -0.560709 0.708108 -0.542815
v 0.523782 0.849192 -1.085061
v 0.875281 0.849192 -0.905309
v -0.560709 0.849192 -1.085061
v 0.523782 2.536326 -1.085061
v 0.875281 2.536326 -0.905309
v -0.560709 2.536326 -1.085061
v 0.523782 2.625678 -0.542815
v 1.055032 2.536326 -0.542815
v -0.560709 2.625678 -0.542815
v 0.523782 2.625678 0.541677
v 1.055032 2.536326 0.541677
v -0.560709 2.625678 0.541677
v 0.523782 2.536326 1.083922
v 0.875281 2.536326 0.904171
v -0.560709 2.536326 1.083922
v -0.934198 2.536326 0.904171
v -1.113950 2.536326 0.541677
v -1.113950 2.536326 -0.542815
v -0.934198 2.536326 -0.905309
v -0.934198 0.849192 -0.905309
v -1.113950 0.849192 -0.542815
v 0.912152 1.908007 0.712647
v 0.912864 1.670268 0.559982
v 1.212994 1.906727 0.713042
v 0.911013 2.186526 0.626714
v 1.211855 2.185246 0.627109
v 0.910301 2.296920 0.366637
v 0.910314 2.230011 0.161264
v 1.211157 2.292404 0.368030
v 1.211157 2.228731 0.161659
v 1.211855 1.994227 0.007995
v 0.911013 1.995507 0.007600
v 1.212994 1.715708 0.093928
v 0.912152 1.716988 0.093533
v 1.213693 1.608550 0.353007
v 1.213693 1.672223 0.559378
v 0.912851 1.609830 0.352612
v 0.970792 2.314953 -0.014721
v 0.971275 2.127590 -0.055415
v 1.174946 2.314233 -0.014166
v 0.970019 2.471666 -0.135405
v 1.174173 2.470945 -0.134850
v 0.969536 2.480185 -0.326947
v 0.969545 2.388942 -0.441662
v 1.173699 2.477644 -0.324990
v 1.173699 2.388222 -0.441108
v 1.174173 2.202680 -0.483204
v 0.970019 2.203400 -0.483759
v 1.174946 2.045967 -0.362520
v 0.970792 2.046687 -0.363075
v 1.175420 2.039269 -0.172380
v 1.175420 2.128690 -0.056263
v 0.971266 2.039989 -0.172935
vn 0.0009 -0.9441 -0.3297
vn -0.0000 -0.8583 0.5131
vn 0.0077 -0.1566 0.9876
vn 0.0101 0.5198 0.8542
vn 1.0000 0.0020 0.0034
vn 0.0034 0.9426 0.3340
vn -0.0000 0.8583 -0.5131
vn -0.0034 0.1521 -0.9884
vn 0.0012 -0.5063 -0.8623
vn -0.1832 -0.9651 0.1869
vn 0.8959 -0.0000 0.4443
vn 0.4553 -0.0000 0.8903
vn -0.0000 -0.9678 0.2518
vn -0.8959 -0.0000 0.4443
vn 0.1923 -0.9631 0.1884
vn 0.2567 -0.9665 -0.0000
vn -0.0000 -1.0000 -0.0000
vn 0.1923 -0.9631 -0.1884
vn -0.0000 -0.9678 -0.2518
vn 0.1245 0.9847 -0.1220
vn -0.0000 0.9867 -0.1626
vn 0.1659 0.9861 -0.0000
vn -0.0000 1.0000 -0.0000
vn 0.1245 0.9847 0.1220
vn -0.0000 0.9867 0.1626
vn -0.1185 0.9856 0.1209
vn -0.1594 0.9872 -0.0000
vn -0.1185 0.9856 -0.1209
vn -0.1832 -0.9651 -0.1869
vn -0.2471 -0.9690 -0.0000
vn -0.4337 -0.0000 0.9011
vn -0.0000 -0.0000 1.0000
vn -1.0000 -0.0000 -0.0000
vn -0.0000 -0.0000 -1.0000
vn -0.8959 -0.0000 -0.4443
vn 0.4553 -0.0000 -0.8903
vn -0.4337 -0.0000 -0.9011
vn 0.8959 -0.0000 -0.4443
vn 1.0000 -0.0000 -0.0000
vn 0.0009 -0.5442 0.8390
vn -0.0000 0.2948 0.9556
vn 0.0077 0.9223 0.3865
vn 0.0101 0.9532 -0.3023
vn 1.0000 0.0037 -0.0012
vn 0.0034 0.5481 -0.8364
vn -0.0000 -0.2948 -0.9556
vn -0.0034 -0.9241 -0.3822
vn 0.0012 -0.9578 0.2873
vn 0.0009 -0.2167 0.9762
vn -0.0000 0.6101 0.7923
vn 0.0077 0.9992 0.0398
vn 0.0101 0.7874 -0.6163
vn 1.0000 0.0031 -0.0024
vn 0.0034 0.2213 -0.9752
vn -0.0000 -0.6101 -0.7923
vn -0.0034 -0.9994 -0.0352
vn 0.0012 -0.7971 0.6039
vt 0.101693 0.150268
vt 0.112571 0.163459
vt 0.100297 0.173620
vt 0.089323 0.160508
vt 0.100297 0.190186
vt 0.083199 0.190329
vt 0.083199 0.173763
vt 0.112571 0.200347
vt 0.101833 0.213656
vt 0.089464 0.203416
vt 0.124846 0.200347
vt 0.124846 0.217446
vt 0.112570 0.217449
vt 0.137121 0.173620
vt 0.137121 0.190186
vt 0.124846 0.163459
vt 0.147954 0.203416
vt 0.135679 0.213577
vt 0.154219 0.173763
vt 0.154219 0.190329
vt 0.148094 0.160507
vt 0.135819 0.150346
vt 0.124848 0.146361
vt 0.112571 0.146361
vt 0.172121 0.178767
vt 0.236151 0.236153
vt 0.176486 0.295818
vt 0.154947 0.237230
vt 0.589829 0.589830
vt 0.546743 0.632916
vt 0.367083 0.453257
vt 0.410169 0.410170
vt 0.325042 0.495298
vt 0.504702 0.674957
vt 0.351636 0.351638
vt 0.291971 0.411303
vt 0.122332 0.698009
vt 0.165418 0.654922
vt 0.345078 0.834581
vt 0.301992 0.877668
vt 0.406723 0.413425
vt 0.348235 0.430518
vt 0.467122 0.236152
vt 0.525654 0.294685
vt 0.351636 0.120667
vt 0.526787 0.176487
vt 0.546002 0.232751
vt 0.528909 0.291238
vt 0.411301 0.061002
vt 0.764756 0.454516
vt 0.821202 0.473189
vt 0.762681 0.531710
vt 0.706693 0.472998
vt 0.936687 0.588674
vt 0.878166 0.647196
vt 0.647196 0.647196
vt 0.705314 0.474344
vt 0.762681 0.762681
vt 0.588483 0.591208
vt 0.588674 0.705717
vt 0.570001 0.649271
vt 0.704160 0.821203
vt 0.820992 0.823693
vt 0.762940 0.842209
vt 0.822358 0.822358
vt 0.937843 0.706872
vt 0.957695 0.647455
vt 0.939178 0.705507
vt 0.352713 0.039463
vt 0.294250 0.056637
vt 0.290837 0.059868
vt 0.175352 0.175354
vt 0.209557 0.610783
vt 0.389217 0.790443
vt 0.186506 0.993153
vt 0.006847 0.813494
vt 0.610782 0.209557
vt 0.726267 0.094072
vt 0.905927 0.273731
vt 0.790441 0.389217
vt 0.993152 0.186506
vt 0.950065 0.229593
vt 0.770405 0.049933
vt 0.813492 0.006847
vt 0.568741 0.251598
vt 0.748401 0.431258
vt 0.171812 0.492868
vt 0.145753 0.455807
vt 0.180247 0.431458
vt 0.206573 0.468330
vt 0.183613 0.387691
vt 0.228814 0.390789
vt 0.225447 0.434555
vt 0.153250 0.358353
vt 0.184325 0.325373
vt 0.214921 0.354942
vt 0.120821 0.355858
vt 0.124296 0.310685
vt 0.156729 0.313173
vt 0.082960 0.423974
vt 0.086327 0.380208
vt 0.113324 0.453313
vt 0.060396 0.343056
vt 0.094890 0.318706
vt 0.037818 0.420122
vt 0.041185 0.376356
vt 0.051305 0.456388
vt 0.081669 0.485726
vt 0.109846 0.498485
vt 0.142278 0.500979
vt 0.102458 0.128686
vt 0.082897 0.104967
vt 0.104968 0.086697
vt 0.124700 0.110275
vt 0.104968 0.056909
vt 0.135713 0.056652
vt 0.135713 0.086440
vt 0.082897 0.038639
vt 0.102206 0.014707
vt 0.124447 0.033122
vt 0.060826 0.038639
vt 0.060826 0.007894
vt 0.082900 0.007889
vt 0.038754 0.086697
vt 0.038754 0.056909
vt 0.060826 0.104967
vt 0.019276 0.033121
vt 0.041347 0.014851
vt 0.008010 0.086440
vt 0.008010 0.056652
vt 0.019023 0.110276
vt 0.041095 0.128546
vt 0.060823 0.135713
vt 0.082897 0.135712
s 0
usemtl マテリアル.022
f 2/1/1 15/2/1 3/3/1 1/4/1
f 3/3/2 5/5/2 4/6/2 1/7/2
f 8/8/3 6/9/3 4/10/3 5/5/3
f 9/11/4 7/12/4 6/13/4 8/8/4
f 12/14/5 10/15/5 9/11/5 8/8/5 5/5/5 3/3/5 15/2/5 14/16/5
f 10/15/6 11/17/6 7/18/6 9/11/6
f 13/19/7 11/20/7 10/15/7 12/14/7
f 13/21/8 12/14/8 14/16/8 16/22/8
f 16/23/9 14/16/9 15/2/9 2/24/9
f 18/25/10 20/26/10 19/27/10 17/28/10
f 38/29/11 41/30/11 22/31/11 24/32/11
f 21/33/12 22/31/12 41/30/12 40/34/12
f 20/26/13 23/35/13 21/36/13 19/27/13
f 18/37/14 17/38/14 43/39/14 44/40/14
f 23/35/15 24/41/15 22/42/15 21/36/15
f 25/43/16 26/44/16 24/32/16 23/35/16
f 27/45/17 25/43/17 23/35/17 20/26/17
f 28/46/18 29/47/18 26/48/18 25/43/18
f 30/49/19 28/46/19 25/43/19 27/45/19
f 32/50/20 31/51/20 34/52/20 35/53/20
f 31/51/21 33/54/21 36/55/21 34/52/21
f 34/52/22 37/56/22 38/29/22 35/57/22
f 39/58/23 37/56/23 34/52/23 36/55/23
f 38/59/24 37/56/24 40/60/24 41/61/24
f 37/56/25 39/58/25 42/62/25 40/60/25
f 39/58/26 44/63/26 43/64/26 42/62/26
f 44/65/27 39/58/27 36/55/27 45/66/27
f 33/54/28 46/67/28 45/68/28 36/55/28
f 47/69/29 30/49/29 27/45/29 48/70/29
f 48/71/30 27/45/30 20/26/30 18/72/30
f 17/38/31 19/73/31 42/74/31 43/39/31
f 19/73/32 21/33/32 40/34/32 42/74/32
f 44/40/33 45/75/33 48/76/33 18/37/33
f 28/77/34 30/78/34 33/79/34 31/80/34
f 45/81/35 46/82/35 47/83/35 48/84/35
f 29/85/36 28/77/36 31/80/36 32/86/36
f 46/82/37 33/79/37 30/78/37 47/83/37
f 29/85/38 32/86/38 35/57/38 26/44/38
f 26/44/39 35/57/39 38/29/39 24/32/39
f 50/87/40 63/88/40 51/89/40 49/90/40
f 51/89/41 53/91/41 52/92/41 49/93/41
f 56/94/42 54/95/42 52/96/42 53/91/42
f 57/97/43 55/98/43 54/99/43 56/94/43
f 60/100/44 58/101/44 57/97/44 56/94/44 53/91/44 51/89/44 63/88/44 62/102/44
f 58/101/45 59/103/45 55/104/45 57/97/45
f 61/105/46 59/106/46 58/101/46 60/100/46
f 61/107/47 60/100/47 62/102/47 64/108/47
f 64/109/48 62/102/48 63/88/48 50/110/48
f 66/111/49 79/112/49 67/113/49 65/114/49
f 67/113/50 69/115/50 68/116/50 65/117/50
f 72/118/51 70/119/51 68/120/51 69/115/51
f 73/121/52 71/122/52 70/123/52 72/118/52
f 76/124/53 74/125/53 73/121/53 72/118/53 69/115/53 67/113/53 79/112/53 78/126/53
f 74/125/54 75/127/54 71/128/54 73/121/54
f 77/129/55 75/130/55 74/125/55 76/124/55
f 77/131/56 76/124/56 78/126/56 80/132/56
f 80/133/57 78/126/57 79/112/57 66/134/57
