# Blender 4.4.3
# www.blender.org
mtllib Enchanter.mtl
o 円柱.007
v 0.390470 0.929656 -0.067237
v 0.390470 0.929656 0.067237
v 0.460502 0.929656 -0.067237
v 0.390470 1.062715 -0.067237
v 0.460502 1.062715 -0.067237
v 0.390470 1.062715 -0.201712
v 0.390470 1.197190 -0.201712
v 0.460502 1.062715 -0.201712
v 0.460502 1.197190 -0.201712
v 0.460502 1.197190 -0.067237
v 0.390470 1.197190 -0.067237
v 0.460502 1.333080 -0.067237
v 0.460502 1.333080 0.067237
v 0.390470 1.333080 -0.067237
v 0.390470 1.333080 0.067237
v 0.390470 1.197190 0.067237
v 0.460502 1.197190 0.067237
v 0.390470 1.197190 0.201712
v 0.390470 1.062715 0.201712
v 0.460502 1.197190 0.201712
v 0.460502 1.062715 0.201712
v 0.460502 1.062715 0.067237
v 0.460502 0.929656 0.067237
v 0.390470 1.062715 0.067237
v 0.372703 1.468190 0.130392
v 0.397715 1.399401 0.043464
v 0.483977 1.508650 0.130392
v 0.332682 1.578256 0.130392
v 0.443955 1.618716 0.130392
v 0.307669 1.647044 0.043464
v 0.308134 1.645765 -0.043464
v 0.419408 1.686226 0.043464
v 0.419408 1.686226 -0.043464
v 0.443955 1.618716 -0.130392
v 0.332682 1.578256 -0.130392
v 0.483977 1.508650 -0.130392
v 0.372703 1.468190 -0.130392
v 0.508524 1.441141 -0.043464
v 0.508524 1.441141 0.043464
v 0.397251 1.400680 -0.043464
v 0.003835 0.285089 -0.211296
v 0.003835 0.285089 -0.228704
v 0.040841 0.249202 -0.211296
v 0.040841 0.249202 -0.228704
v 0.080113 0.261115 -0.211296
v 0.080113 0.261115 -0.228704
v 0.091564 0.311521 -0.211296
v 0.091564 0.311521 -0.228704
v 0.123288 0.337556 -0.211296
v 0.123288 0.337556 -0.228704
v 0.174066 0.338219 -0.211296
v 0.174066 0.338219 -0.228704
v 0.193411 0.374412 -0.211296
v 0.193411 0.374412 -0.228704
v 0.165358 0.416818 -0.211296
v 0.165358 0.416818 -0.228704
v 0.169381 0.457660 -0.211296
v 0.169381 0.457660 -0.228704
v 0.205324 0.495367 -0.211296
v 0.205324 0.495367 -0.228704
v 0.193411 0.534639 -0.211296
v 0.193411 0.534639 -0.228704
v 0.143473 0.545594 -0.211296
v 0.143473 0.545594 -0.228704
v 0.117438 0.577318 -0.211296
v 0.117438 0.577318 -0.228704
v 0.116307 0.628591 -0.211296
v 0.116307 0.628591 -0.228704
v 0.080113 0.647937 -0.211296
v 0.080113 0.647937 -0.228704
v 0.037014 0.620219 -0.211296
v 0.037014 0.620219 -0.228704
v -0.003827 0.624241 -0.211296
v -0.003827 0.624241 -0.228704
v -0.040841 0.659849 -0.211296
v -0.040841 0.659849 -0.228704
v -0.080113 0.647937 -0.211296
v -0.080113 0.647937 -0.228704
v -0.091049 0.597730 -0.211296
v -0.091049 0.597730 -0.228704
v -0.122773 0.571695 -0.211296
v -0.122773 0.571695 -0.228704
v -0.174065 0.570832 -0.211296
v -0.174065 0.570832 -0.228704
v -0.193411 0.534639 -0.211296
v -0.193411 0.534639 -0.228704
v -0.165542 0.491342 -0.211296
v -0.165542 0.491342 -0.228704
v -0.169565 0.450500 -0.211145
v -0.169565 0.450500 -0.228855
v -0.205324 0.413684 -0.211296
v -0.205324 0.413684 -0.228704
v -0.193411 0.374412 -0.211296
v -0.193411 0.374412 -0.228704
v -0.142576 0.363603 -0.211296
v -0.142576 0.363603 -0.228704
v -0.116541 0.331880 -0.211296
v -0.116541 0.331880 -0.228704
v -0.116307 0.280461 -0.211296
v -0.116307 0.280461 -0.228704
v -0.080113 0.261115 -0.211296
v -0.080113 0.261115 -0.228704
v -0.037007 0.289111 -0.211296
v -0.037007 0.289111 -0.228704
v -0.065107 0.410214 -0.228704
v -0.043789 0.388990 -0.228704
v -0.055733 0.398793 -0.228704
v -0.015377 0.377222 -0.228704
v 0.015377 0.377222 -0.228704
v 0.000000 0.375707 -0.228704
v -0.030163 0.381707 -0.228704
v -0.072819 0.424363 -0.228704
v -0.077304 0.439149 -0.228704
v 0.030163 0.381707 -0.228704
v -0.065535 0.410737 -0.228704
v -0.078819 0.454526 -0.228704
v -0.077304 0.469902 -0.228704
v 0.043789 0.388990 -0.228704
v -0.072819 0.484688 -0.228704
v -0.065535 0.498315 -0.228704
v 0.055733 0.398793 -0.228704
v -0.055733 0.510259 -0.228704
v -0.030163 0.527344 -0.228704
v -0.015377 0.531830 -0.228704
v -0.043789 0.520061 -0.228704
v 0.000000 0.533344 -0.228704
v 0.043789 0.520061 -0.228704
v 0.030163 0.527344 -0.228704
v 0.015377 0.531830 -0.228704
v 0.065535 0.498315 -0.228704
v 0.065535 0.410737 -0.228704
v 0.078819 0.454526 -0.228704
v 0.077304 0.469902 -0.228704
v 0.077304 0.439149 -0.228704
v 0.072819 0.424363 -0.228704
v 0.055733 0.510259 -0.228704
v 0.072819 0.484688 -0.228704
v -0.077304 0.439149 -0.211296
v -0.065535 0.410737 -0.211296
v -0.072819 0.424363 -0.211296
v -0.043789 0.388990 -0.211296
v -0.015377 0.377222 -0.211296
v -0.030163 0.381707 -0.211296
v -0.055733 0.398793 -0.211296
v 0.015377 0.377222 -0.211296
v 0.043789 0.388990 -0.211296
v 0.030163 0.381707 -0.211296
v 0.072819 0.424363 -0.211296
v 0.065535 0.410737 -0.211296
v 0.078819 0.454526 -0.211296
v 0.077304 0.439149 -0.211296
v 0.055733 0.398793 -0.211296
v 0.000000 0.375707 -0.211296
v -0.077304 0.469902 -0.211296
v -0.078819 0.454526 -0.211296
v -0.072819 0.484688 -0.211296
v -0.055733 0.510259 -0.211296
v -0.065535 0.498315 -0.211296
v -0.030163 0.527344 -0.211296
v 0.000000 0.533344 -0.211296
v -0.015377 0.531830 -0.211296
v -0.043789 0.520061 -0.211296
v 0.030163 0.527344 -0.211296
v 0.055733 0.510259 -0.211296
v 0.043789 0.520061 -0.211296
v 0.072819 0.484688 -0.211296
v 0.077304 0.469902 -0.211296
v 0.065535 0.498315 -0.211296
v 0.015377 0.531830 -0.211296
v -0.000000 0.730961 -0.139888
v -0.000000 0.730961 0.139888
v 0.258389 0.623933 -0.139888
v -0.258389 0.623933 -0.139888
v -0.365417 0.365543 -0.139888
v -0.258389 0.623933 0.139888
v -0.365417 0.365543 0.139888
v -0.258389 0.107154 0.139888
v -0.000000 0.000126 0.139888
v -0.258389 0.107154 -0.139888
v -0.000000 0.000126 -0.139888
v 0.258389 0.107154 -0.139888
v 0.365417 0.365543 -0.139888
v 0.258389 0.107154 0.139888
v 0.365417 0.365543 0.139888
v 0.258389 0.623933 0.139888
v -0.081932 0.364062 0.208511
v -0.081932 0.364062 0.151489
v -0.081932 0.814450 0.208511
v 0.081932 0.364062 0.208511
v 0.081932 0.364062 0.151489
v 0.081932 0.814450 0.208511
v 0.081932 0.814450 0.151489
v -0.081932 0.814450 0.151489
v -0.081932 0.364062 -0.151489
v -0.081932 0.364062 -0.208511
v -0.081932 0.814450 -0.151489
v 0.081932 0.364062 -0.151489
v 0.081932 0.364062 -0.208511
v 0.081932 0.814450 -0.151489
v 0.081932 0.814450 -0.208511
v -0.081932 0.814450 -0.208511
v -0.336795 0.864046 0.336796
v -0.403709 0.864046 0.201855
v -0.336795 0.966802 0.336796
v -0.197762 0.864046 0.403709
v -0.197762 0.966802 0.403709
v -0.197762 0.811527 0.201855
v -0.197762 0.811527 -0.201855
v -0.403709 0.864046 -0.201855
v -0.197762 0.864046 -0.403709
v -0.336795 0.864046 -0.336796
v -0.197915 0.966802 -0.402391
v -0.336795 0.966802 -0.336796
v -0.197915 1.370511 -0.402391
v -0.336795 1.370511 -0.336796
v -0.197762 1.492094 -0.403709
v -0.336795 1.492094 -0.336796
v -0.197762 1.525355 -0.201855
v -0.403709 1.492094 -0.201855
v -0.197762 1.525355 0.201855
v -0.403709 1.492094 0.201855
v -0.197762 1.492094 0.403709
v -0.336795 1.492094 0.336796
v -0.197762 1.370511 0.403709
v -0.336795 1.370511 0.336796
v 0.205948 0.966802 0.403709
v 0.336795 0.966802 0.336796
v 0.205948 0.864046 0.403709
v 0.336795 0.864046 0.336796
v 0.205948 0.811527 0.201855
v 0.403709 0.864046 0.201855
v 0.205948 0.811527 -0.201855
v 0.403709 0.864046 -0.201855
v 0.205948 0.864046 -0.403709
v 0.336795 0.864046 -0.336796
v 0.205795 0.966802 -0.402391
v 0.336795 0.966802 -0.336796
v 0.205795 1.370511 -0.402391
v 0.336795 1.370511 -0.336796
v 0.205948 1.492094 -0.403709
v 0.336795 1.492094 -0.336796
v 0.205948 1.525355 -0.201855
v 0.403709 1.492094 -0.201855
v 0.205948 1.525355 0.201855
v 0.403709 1.492094 0.201855
v 0.205948 1.492094 0.403709
v 0.336795 1.492094 0.336796
v 0.205948 1.370511 0.403709
v 0.336795 1.370511 0.336796
v 0.403556 1.370511 0.203173
v 0.403556 1.370511 -0.200536
v 0.403556 0.966802 -0.200536
v 0.403556 0.966802 0.203173
v -0.403709 1.370511 0.201855
v -0.403709 0.966802 0.201855
v -0.403709 1.370511 -0.201855
v -0.403862 0.966802 -0.200536
v 0.003835 0.285089 0.228704
v 0.040841 0.249202 0.228704
v 0.003835 0.285089 0.211296
v -0.037007 0.289111 0.228704
v -0.080113 0.261115 0.228704
v -0.037007 0.289111 0.211296
v -0.015377 0.377222 0.228704
v 0.000000 0.375707 0.228704
v -0.030163 0.381707 0.228704
v -0.015377 0.377222 0.211296
v -0.030163 0.381707 0.211296
v 0.000000 0.375707 0.211296
v 0.015377 0.377222 0.211296
v 0.030163 0.381707 0.211296
v 0.015377 0.377222 0.228704
v 0.030163 0.381707 0.228704
v 0.043789 0.388990 0.228704
v 0.055733 0.398793 0.228704
v 0.043789 0.388990 0.211296
v 0.055733 0.398793 0.211296
v 0.065535 0.410737 0.211296
v 0.072819 0.424363 0.211296
v 0.065535 0.410737 0.228704
v 0.072819 0.424363 0.228704
v 0.077304 0.439149 0.228704
v 0.078819 0.454526 0.228704
v 0.077304 0.439149 0.211296
v 0.078819 0.454526 0.211296
v 0.077304 0.469902 0.211296
v 0.072819 0.484688 0.211296
v 0.077304 0.469902 0.228704
v 0.072819 0.484688 0.228704
v 0.065535 0.498315 0.228704
v 0.055733 0.510259 0.228704
v 0.065535 0.498315 0.211296
v 0.055733 0.510259 0.211296
v 0.043789 0.520061 0.211296
v 0.030163 0.527344 0.211296
v 0.043789 0.520061 0.228704
v 0.030163 0.527344 0.228704
v 0.015377 0.531830 0.228704
v 0.000000 0.533344 0.228704
v 0.015377 0.531830 0.211296
v 0.000000 0.533344 0.211296
v -0.015377 0.531830 0.211296
v -0.030163 0.527344 0.211296
v -0.015377 0.531830 0.228704
v -0.030163 0.527344 0.228704
v -0.043789 0.520061 0.228704
v -0.055733 0.510259 0.228704
v -0.043789 0.520061 0.211296
v -0.055733 0.510259 0.211296
v -0.065535 0.498315 0.211296
v -0.072819 0.484688 0.211296
v -0.065535 0.498315 0.228704
v -0.072819 0.484688 0.228704
v -0.077304 0.469902 0.228704
v -0.078819 0.454526 0.228704
v -0.077304 0.469902 0.211296
v -0.165542 0.491342 0.211296
v -0.078819 0.454526 0.211296
v -0.077304 0.439149 0.211296
v -0.072819 0.424363 0.211296
v -0.077304 0.439149 0.228704
v -0.072819 0.424363 0.228704
v -0.065535 0.410737 0.228704
v -0.055733 0.398793 0.228704
v -0.065535 0.410737 0.211296
v -0.065107 0.410214 0.211296
v -0.142576 0.363603 0.211296
v -0.055733 0.398793 0.211296
v -0.043789 0.388990 0.211296
v -0.043789 0.388990 0.228704
v -0.193411 0.374412 0.211296
v -0.142576 0.363603 0.228704
v -0.116541 0.331880 0.211296
v -0.116541 0.331880 0.228704
v -0.116307 0.280461 0.211296
v -0.116307 0.280461 0.228704
v -0.080113 0.261115 0.211296
v -0.193411 0.374412 0.228704
v -0.205324 0.413684 0.228704
v -0.169565 0.450500 0.228855
v -0.205324 0.413684 0.211296
v -0.169565 0.450500 0.211145
v -0.165542 0.491342 0.228704
v -0.193411 0.534639 0.228704
v -0.174065 0.570832 0.228704
v -0.193411 0.534639 0.211296
v -0.174065 0.570832 0.211296
v -0.122773 0.571695 0.211296
v -0.091049 0.597730 0.211296
v -0.122773 0.571695 0.228704
v -0.091049 0.597730 0.228704
v -0.080113 0.647937 0.228704
v -0.040841 0.659849 0.228704
v -0.080113 0.647937 0.211296
v -0.040841 0.659849 0.211296
v -0.003827 0.624241 0.211296
v 0.037014 0.620219 0.211296
v -0.003827 0.624241 0.228704
v 0.037014 0.620219 0.228704
v 0.080113 0.647937 0.228704
v 0.116307 0.628591 0.228704
v 0.080113 0.647937 0.211296
v 0.116307 0.628591 0.211296
v 0.117438 0.577318 0.211296
v 0.143473 0.545594 0.211296
v 0.117438 0.577318 0.228704
v 0.143473 0.545594 0.228704
v 0.193411 0.534639 0.228704
v 0.205324 0.495367 0.228704
v 0.193411 0.534639 0.211296
v 0.205324 0.495367 0.211296
v 0.169381 0.457660 0.211296
v 0.165358 0.416818 0.211296
v 0.169381 0.457660 0.228704
v 0.165358 0.416818 0.228704
v 0.193411 0.374412 0.228704
v 0.174066 0.338219 0.228704
v 0.193411 0.374412 0.211296
v 0.174066 0.338219 0.211296
v 0.123288 0.337556 0.211296
v 0.091564 0.311521 0.211296
v 0.123288 0.337556 0.228704
v 0.091564 0.311521 0.228704
v 0.080113 0.261115 0.228704
v 0.080113 0.261115 0.211296
v 0.040841 0.249202 0.211296
vn -1.0000 -0.0000 -0.0000
vn -0.0000 -1.0000 -0.0000
vn -0.0000 -0.0000 -1.0000
vn 1.0000 -0.0000 -0.0000
vn -0.0000 1.0000 -0.0000
vn -0.0000 -0.0000 1.0000
vn 0.2666 -0.7202 0.6406
vn -0.9398 -0.3417 -0.0000
vn -0.2583 0.7232 0.6406
vn -0.3363 0.9417 -0.0078
vn 0.9398 0.3417 -0.0000
vn -0.2634 0.7245 -0.6370
vn 0.2634 -0.7245 -0.6370
vn 0.3471 -0.9378 -0.0078
vn -0.6962 -0.7179 -0.0000
vn 0.2903 -0.9569 -0.0000
vn 0.9752 -0.2215 -0.0000
vn 0.6344 -0.7730 -0.0000
vn 0.0131 -0.9999 -0.0000
vn 0.8819 -0.4714 -0.0000
vn 0.8340 0.5517 -0.0000
vn 0.9952 -0.0980 -0.0000
vn 0.7238 -0.6900 -0.0000
vn 0.9569 0.2903 -0.0000
vn 0.2143 0.9768 -0.0000
vn 0.7730 0.6344 -0.0000
vn 0.9998 0.0221 -0.0000
vn 0.4714 0.8819 -0.0000
vn -0.5409 0.8411 -0.0000
vn 0.0980 0.9952 -0.0000
vn 0.6933 0.7207 -0.0000
vn -0.2903 0.9569 -0.0000
vn -0.9771 0.2128 -0.0000
vn -0.6344 0.7730 -0.0000
vn -0.0168 0.9999 -0.0000
vn -0.8819 0.4714 -0.0000
vn -0.8409 -0.5412 -0.0000
vn -0.9952 0.0980 -0.0000
vn -0.7173 0.6967 -0.0000
vn -0.9569 -0.2903 -0.0000
vn -0.2080 -0.9781 -0.0000
vn -0.7730 -0.6344 -0.0000
vn -1.0000 -0.0046 -0.0000
vn -0.4714 -0.8819 -0.0000
vn 0.0003 -0.0002 -1.0000
vn 0.0002 -0.0001 -1.0000
vn 0.0003 -0.0001 -1.0000
vn 0.0005 -0.0003 -1.0000
vn 0.5447 -0.8386 -0.0000
vn -0.0980 -0.9952 -0.0000
vn 0.0001 -0.0000 1.0000
vn -0.1951 0.9808 -0.0000
vn -0.3827 0.9239 -0.0000
vn -0.5556 0.8315 -0.0000
vn -0.7071 0.7071 -0.0000
vn -0.8315 0.5556 -0.0000
vn -0.9239 0.3827 -0.0000
vn -0.9808 0.1951 -0.0000
vn -0.9808 -0.1951 -0.0000
vn -0.9239 -0.3827 -0.0000
vn -0.8315 -0.5556 -0.0000
vn -0.7071 -0.7071 -0.0000
vn -0.5556 -0.8315 -0.0000
vn -0.3827 -0.9239 -0.0000
vn -0.1951 -0.9808 -0.0000
vn 0.1951 -0.9808 -0.0000
vn 0.3827 -0.9239 -0.0000
vn 0.5556 -0.8315 -0.0000
vn 0.7071 -0.7071 -0.0000
vn 0.8315 -0.5556 -0.0000
vn 0.9239 -0.3827 -0.0000
vn 0.9808 -0.1951 -0.0000
vn 0.9808 0.1951 -0.0000
vn 0.9239 0.3827 -0.0000
vn 0.8315 0.5556 -0.0000
vn 0.7071 0.7071 -0.0000
vn 0.5556 0.8315 -0.0000
vn 0.3827 0.9239 -0.0000
vn 0.1951 0.9808 -0.0000
vn -0.1832 -0.9651 0.1869
vn -0.8959 -0.0000 0.4443
vn -0.4337 -0.0000 0.9011
vn 0.2567 -0.9665 -0.0000
vn -0.4271 -0.0000 -0.9042
vn -0.1832 -0.9651 -0.1869
vn -0.0000 -0.9678 0.2518
vn -0.4304 0.0055 -0.9026
vn -0.0000 -0.9678 -0.2518
vn -0.4304 -0.0046 -0.9026
vn -0.1594 0.9872 -0.0000
vn -0.1185 0.9856 -0.1209
vn -0.0000 -0.0108 -0.9999
vn -0.1185 0.9856 0.1209
vn -0.0000 0.9867 -0.1626
vn -0.0000 0.9867 0.1626
vn 0.4553 -0.0000 0.8903
vn 0.1923 -0.9631 0.1884
vn 0.4477 -0.0000 -0.8942
vn 0.1923 -0.9631 -0.1884
vn 0.4515 0.0061 -0.8922
vn 0.1659 0.9861 -0.0000
vn 0.4515 -0.0051 -0.8922
vn 0.1245 0.9847 -0.1220
vn 1.0000 -0.0013 -0.0000
vn 0.1245 0.9847 0.1220
vn 0.8952 0.0019 0.4456
vn 0.8980 -0.0000 -0.4400
vn 0.8970 -0.0030 -0.4421
vn 1.0000 0.0015 -0.0000
vn 0.8970 0.0035 -0.4421
vn 0.8946 -0.0000 0.4469
vn 0.8952 -0.0022 0.4456
vn -0.8972 -0.0000 -0.4417
vn -0.8966 -0.0010 -0.4429
vn -1.0000 0.0002 0.0002
vn -1.0000 0.0001 -0.0000
vn -1.0000 -0.0008 0.0008
vn -1.0000 -0.0007 0.0008
vn -0.8966 0.0022 -0.4429
vn -0.0000 0.0128 -0.9999
vn -0.2471 -0.9690 -0.0000
vn -0.8959 -0.0000 -0.4443
vt 0.000000 0.000000
vt 1.000000 0.500000
vt 1.000000 1.000000
vt 0.968750 1.000000
vt 0.968750 0.500000
vt 0.937500 1.000000
vt 0.937500 0.500000
vt 0.906250 1.000000
vt 0.906250 0.500000
vt 0.875000 1.000000
vt 0.875000 0.500000
vt 0.843750 1.000000
vt 0.843750 0.500000
vt 0.812500 1.000000
vt 0.812500 0.500000
vt 0.781250 1.000000
vt 0.781250 0.500000
vt 0.750000 1.000000
vt 0.750000 0.500000
vt 0.718750 1.000000
vt 0.718750 0.500000
vt 0.687500 1.000000
vt 0.687500 0.500000
vt 0.656250 1.000000
vt 0.656250 0.500000
vt 0.625000 1.000000
vt 0.625000 0.500000
vt 0.593750 1.000000
vt 0.593750 0.500000
vt 0.562500 1.000000
vt 0.562500 0.500000
vt 0.531250 1.000000
vt 0.531250 0.500000
vt 0.500000 1.000000
vt 0.500000 0.500000
vt 0.468750 1.000000
vt 0.468750 0.500000
vt 0.437500 1.000000
vt 0.437500 0.500000
vt 0.406250 1.000000
vt 0.406250 0.500000
vt 0.375000 1.000000
vt 0.375000 0.500000
vt 0.343750 1.000000
vt 0.343750 0.500000
vt 0.312500 1.000000
vt 0.312500 0.500000
vt 0.281250 1.000000
vt 0.281250 0.500000
vt 0.250000 1.000000
vt 0.250000 0.500000
vt 0.218750 1.000000
vt 0.218750 0.500000
vt 0.187500 1.000000
vt 0.187500 0.500000
vt 0.156250 1.000000
vt 0.156250 0.500000
vt 0.125000 1.000000
vt 0.125000 0.500000
vt 0.093750 1.000000
vt 0.093750 0.500000
vt 0.062500 1.000000
vt 0.062500 0.500000
vt 0.471731 0.341844
vt 0.449553 0.383337
vt 0.419706 0.419706
vt 0.383337 0.449553
vt 0.341844 0.471731
vt 0.296822 0.485388
vt 0.250000 0.490000
vt 0.203178 0.485388
vt 0.158156 0.471731
vt 0.116663 0.449553
vt 0.080294 0.419706
vt 0.050447 0.383337
vt 0.165393 0.307535
vt 0.177486 0.322282
vt 0.193048 0.334900
vt 0.210800 0.344377
vt 0.229944 0.350293
vt 0.249795 0.352237
vt 0.269707 0.350145
vt 0.288942 0.344290
vt 0.306658 0.334934
vt 0.322092 0.322264
vt 0.334736 0.306690
vt 0.344243 0.288932
vt 0.350178 0.269786
vt 0.352127 0.249941
vt 0.350035 0.230044
vt 0.344181 0.210833
vt 0.334829 0.193150
vt 0.322175 0.177758
vt 0.306631 0.165159
vt 0.288910 0.155691
vt 0.269794 0.149776
vt 0.249961 0.147824
vt 0.230055 0.149898
vt 0.210824 0.155729
vt 0.193116 0.165062
vt 0.177700 0.177706
vt 0.165078 0.193251
vt 0.155587 0.210978
vt 0.149648 0.230105
vt 0.014612 0.203178
vt 0.028269 0.158156
vt 0.050447 0.116663
vt 0.080294 0.080294
vt 0.116663 0.050447
vt 0.158156 0.028269
vt 0.203178 0.014612
vt 0.250000 0.010000
vt 0.296822 0.014612
vt 0.341844 0.028269
vt 0.383337 0.050447
vt 0.419706 0.080294
vt 0.449553 0.116663
vt 0.471731 0.158156
vt 0.485388 0.203178
vt 0.490000 0.250000
vt 0.485388 0.296822
vt 0.028269 0.341844
vt 0.014612 0.296822
vt 0.010000 0.250000
vt 0.147671 0.249953
vt 0.149720 0.269879
vt 0.155527 0.289132
vt 0.164842 0.306859
vt 0.031250 1.000000
vt 0.031250 0.500000
vt 0.000000 1.000000
vt 0.000000 0.500000
vt 0.729944 0.350293
vt 0.703178 0.485388
vt 0.750000 0.490000
vt 0.796822 0.485388
vt 0.841844 0.471731
vt 0.883337 0.449553
vt 0.919706 0.419706
vt 0.949553 0.383337
vt 0.971731 0.341844
vt 0.985388 0.296822
vt 0.990000 0.250000
vt 0.852127 0.249941
vt 0.850178 0.269786
vt 0.844243 0.288932
vt 0.834736 0.306690
vt 0.822091 0.322264
vt 0.806658 0.334934
vt 0.788942 0.344290
vt 0.769707 0.350145
vt 0.749795 0.352237
vt 0.985388 0.203178
vt 0.971731 0.158156
vt 0.949553 0.116663
vt 0.919706 0.080294
vt 0.883337 0.050447
vt 0.841844 0.028269
vt 0.796822 0.014612
vt 0.750000 0.010000
vt 0.703178 0.014612
vt 0.658156 0.028269
vt 0.616663 0.050447
vt 0.580294 0.080294
vt 0.550447 0.116663
vt 0.528269 0.158156
vt 0.514612 0.203178
vt 0.510000 0.250000
vt 0.514612 0.296822
vt 0.528269 0.341844
vt 0.550447 0.383337
vt 0.580294 0.419706
vt 0.616663 0.449553
vt 0.658156 0.471731
vt 0.710800 0.344377
vt 0.693048 0.334900
vt 0.677485 0.322282
vt 0.664842 0.306859
vt 0.655527 0.289132
vt 0.649720 0.269879
vt 0.647671 0.249953
vt 0.649648 0.230105
vt 0.655587 0.210978
vt 0.665078 0.193251
vt 0.677700 0.177706
vt 0.693115 0.165062
vt 0.710824 0.155729
vt 0.730056 0.149898
vt 0.749961 0.147824
vt 0.769794 0.149776
vt 0.788910 0.155691
vt 0.806630 0.165159
vt 0.822175 0.177758
vt 0.834829 0.193150
vt 0.844181 0.210833
vt 0.850035 0.230044
vt 0.968750 0.732435
vt 0.968750 0.767565
vt 1.000000 0.767565
vt 1.000000 0.732435
vt 0.937500 0.732435
vt 0.937500 0.767565
vt 0.906250 0.732435
vt 0.906250 0.767565
vt 0.875000 0.732435
vt 0.875000 0.767565
vt 0.843750 0.767565
vt 0.843750 0.732435
vt 0.812500 0.767565
vt 0.812500 0.732435
vt 0.781250 0.767565
vt 0.781250 0.732435
vt 0.750000 0.767565
vt 0.750000 0.732435
vt 0.718750 0.767565
vt 0.718750 0.732435
vt 0.687500 0.767565
vt 0.687500 0.732435
vt 0.656250 0.767565
vt 0.656250 0.732435
vt 0.625000 0.767565
vt 0.625000 0.732435
vt 0.593750 0.767565
vt 0.593750 0.732435
vt 0.562500 0.767565
vt 0.562500 0.732435
vt 0.531250 0.767565
vt 0.531250 0.732435
vt 0.500000 0.767565
vt 0.500000 0.732435
vt 0.468750 0.767565
vt 0.468750 0.732435
vt 0.437500 0.767565
vt 0.437500 0.732435
vt 0.406250 0.767565
vt 0.406250 0.732435
vt 0.375000 0.767565
vt 0.375000 0.732435
vt 0.343750 0.732435
vt 0.343750 0.767565
vt 0.312500 0.732435
vt 0.312500 0.767565
vt 0.281250 0.732435
vt 0.281250 0.767565
vt 0.250000 0.732435
vt 0.250000 0.767565
vt 0.218750 0.732435
vt 0.218750 0.767565
vt 0.187500 0.732435
vt 0.187500 0.767565
vt 0.156250 0.732435
vt 0.156250 0.767565
vt 0.125000 0.732435
vt 0.125000 0.767565
vt 0.154883 0.767565
vt 0.093750 0.732435
vt 0.093750 0.767565
vt 0.062500 0.732435
vt 0.062500 0.767565
vt 0.031250 0.732435
vt 0.031250 0.767565
vt 0.000000 0.732435
vt 0.000000 0.767565
s 0
f 19/1/1 18/1/1 16/1/1 15/1/1 14/1/1 11/1/1 7/1/1 6/1/1 4/1/1 1/1/1 2/1/1 24/1/1
f 1/1/2 3/1/2 23/1/2 2/1/2
f 3/1/3 1/1/3 4/1/3 5/1/3
f 5/1/2 4/1/2 6/1/2 8/1/2
f 6/1/3 7/1/3 9/1/3 8/1/3
f 8/1/4 9/1/4 10/1/4 12/1/4 13/1/4 17/1/4 20/1/4 21/1/4 22/1/4 23/1/4 3/1/4 5/1/4
f 11/1/5 10/1/5 9/1/5 7/1/5
f 14/1/3 12/1/3 10/1/3 11/1/3
f 12/1/5 14/1/5 15/1/5 13/1/5
f 13/1/6 15/1/6 16/1/6 17/1/6
f 17/1/5 16/1/5 18/1/5 20/1/5
f 21/1/6 20/1/6 18/1/6 19/1/6
f 24/1/2 22/1/2 21/1/2 19/1/2
f 2/1/6 23/1/6 22/1/6 24/1/6
f 26/1/7 39/1/7 27/1/7 25/1/7
f 25/1/8 28/1/8 30/1/8 31/1/8 35/1/8 37/1/8 40/1/8 26/1/8
f 27/1/6 29/1/6 28/1/6 25/1/6
f 32/1/9 30/1/9 28/1/9 29/1/9
f 33/1/10 31/1/10 30/1/10 32/1/10
f 36/1/11 34/1/11 33/1/11 32/1/11 29/1/11 27/1/11 39/1/11 38/1/11
f 34/1/12 35/1/12 31/1/12 33/1/12
f 37/1/3 35/1/3 34/1/3 36/1/3
f 37/1/13 36/1/13 38/1/13 40/1/13
f 40/1/14 38/1/14 39/1/14 26/1/14
s 1
f 41/2/15 42/3/15 44/4/15 43/5/15
f 43/5/16 44/4/16 46/6/16 45/7/16
f 45/7/17 46/6/17 48/8/17 47/9/17
f 47/9/18 48/8/18 50/10/18 49/11/18
f 49/11/19 50/10/19 52/12/19 51/13/19
f 51/13/20 52/12/20 54/14/20 53/15/20
f 53/15/21 54/14/21 56/16/21 55/17/21
f 55/17/22 56/16/22 58/18/22 57/19/22
f 57/19/23 58/18/23 60/20/23 59/21/23
f 59/21/24 60/20/24 62/22/24 61/23/24
f 61/23/25 62/22/25 64/24/25 63/25/25
f 63/25/26 64/24/26 66/26/26 65/27/26
f 65/27/27 66/26/27 68/28/27 67/29/27
f 67/29/28 68/28/28 70/30/28 69/31/28
f 69/31/29 70/30/29 72/32/29 71/33/29
f 71/33/30 72/32/30 74/34/30 73/35/30
f 73/35/31 74/34/31 76/36/31 75/37/31
f 75/37/32 76/36/32 78/38/32 77/39/32
f 77/39/33 78/38/33 80/40/33 79/41/33
f 79/41/34 80/40/34 82/42/34 81/43/34
f 81/43/35 82/42/35 84/44/35 83/45/35
f 83/45/36 84/44/36 86/46/36 85/47/36
f 85/47/37 86/46/37 88/48/37 87/49/37
f 87/49/38 88/48/38 90/50/38 89/51/38
f 89/51/39 90/50/39 92/52/39 91/53/39
f 91/53/40 92/52/40 94/54/40 93/55/40
f 93/55/41 94/54/41 96/56/41 95/57/41
f 95/57/42 96/56/42 98/58/42 97/59/42
f 97/59/43 98/58/43 100/60/43 99/61/43
f 99/61/44 100/60/44 102/62/44 101/63/44
f 54/64/3 52/65/3 50/66/3 48/67/3 46/68/3 44/69/3 42/70/3 104/71/3 102/72/3 100/73/3 98/74/3 96/75/45 105/76/46 107/77/3 106/78/3 111/79/3 108/80/3 110/81/3 109/82/3 114/83/3 118/84/3 121/85/3 131/86/3 135/87/3 134/88/3 132/89/3 133/90/3 137/91/3 130/92/3 136/93/3 127/94/3 128/95/3 129/96/3 126/97/3 124/98/3 123/99/3 125/100/3 122/101/3 120/102/3 119/103/3 117/104/47 88/105/46 86/106/3 84/107/3 82/108/3 80/109/3 78/110/3 76/111/3 74/112/3 72/113/3 70/114/3 68/115/3 66/116/3 64/117/3 62/118/3 60/119/3 58/120/3 56/121/3
f 96/75/45 94/122/48 92/123/48 90/124/48 88/105/46 117/104/47 116/125/48 113/126/48 112/127/48 115/128/48 105/76/46
f 101/63/49 102/62/49 104/129/49 103/130/49
f 103/130/50 104/129/50 42/131/50 41/132/50
f 142/133/6 103/134/51 41/135/6 43/136/6 45/137/6 47/138/6 49/139/6 51/140/6 53/141/6 55/142/6 57/143/51 150/144/6 151/145/6 148/146/6 149/147/6 152/148/6 146/149/6 147/150/6 145/151/6 153/152/6
f 150/144/6 57/143/51 59/153/51 61/154/51 63/155/51 65/156/51 67/157/51 69/158/51 71/159/51 73/160/51 75/161/51 77/162/51 79/163/51 81/164/51 83/165/51 85/166/51 87/167/51 89/168/51 91/169/51 93/170/51 95/171/51 97/172/51 99/173/51 101/174/51 103/134/51 142/133/6 143/175/51 141/176/51 144/177/51 139/178/51 140/179/51 138/180/51 155/181/51 154/182/51 156/183/51 158/184/51 157/185/51 162/186/51 159/187/51 161/188/51 160/189/51 169/190/51 163/191/51 165/192/51 164/193/51 168/194/51 166/195/51 167/196/51
f 145/197/52 109/198/52 110/199/5 153/200/5
f 147/201/53 114/202/53 109/198/52 145/197/52
f 146/203/54 118/204/54 114/202/53 147/201/53
f 152/205/55 121/206/55 118/204/54 146/203/54
f 131/207/56 121/206/55 152/205/55 149/208/56
f 135/209/57 131/207/56 149/208/56 148/210/57
f 134/211/58 135/209/57 148/210/57 151/212/58
f 132/213/1 134/211/58 151/212/58 150/214/1
f 133/215/59 132/213/1 150/214/1 167/216/59
f 137/217/60 133/215/59 167/216/59 166/218/60
f 130/219/61 137/217/60 166/218/60 168/220/61
f 136/221/62 130/219/61 168/220/61 164/222/62
f 127/223/63 136/221/62 164/222/62 165/224/63
f 128/225/64 127/223/63 165/224/63 163/226/64
f 129/227/65 128/225/64 163/226/64 169/228/65
f 126/229/2 129/227/65 169/228/65 160/230/2
f 124/231/66 126/229/2 160/230/2 161/232/66
f 123/233/67 124/231/66 161/232/66 159/234/67
f 125/235/68 123/233/67 159/234/67 162/236/68
f 122/237/69 125/235/68 162/236/68 157/238/69
f 158/239/70 120/240/70 122/237/69 157/238/69
f 156/241/71 119/242/71 120/240/70 158/239/70
f 154/243/72 117/244/72 119/242/71 156/241/71
f 155/245/4 116/246/4 117/244/72 154/243/72
f 138/247/73 113/248/73 116/246/4 155/245/4
f 140/249/74 112/250/74 113/248/73 138/247/73
f 139/251/75 115/252/75 112/250/74 140/249/74
f 144/253/76 107/254/76 105/255/26 115/252/75 139/251/75
f 141/256/77 106/257/77 107/254/76 144/253/76
f 143/258/78 111/259/78 106/257/77 141/256/77
f 142/260/79 108/261/79 111/259/78 143/258/78
f 153/262/5 110/263/5 108/261/79 142/260/79
s 0
f 171/1/78 185/1/78 172/1/78 170/1/78
f 175/1/53 171/1/53 170/1/53 173/1/53
f 170/1/3 172/1/3 182/1/3 181/1/3 180/1/3 179/1/3 174/1/3 173/1/3
f 176/1/57 175/1/57 173/1/57 174/1/57
f 171/1/6 175/1/6 176/1/6 177/1/6 178/1/6 183/1/6 184/1/6 185/1/6
f 177/1/60 176/1/60 174/1/60 179/1/60
f 178/1/64 177/1/64 179/1/64 180/1/64
f 183/1/67 178/1/67 180/1/67 181/1/67
f 184/1/71 183/1/71 181/1/71 182/1/71
f 185/1/74 184/1/74 182/1/74 172/1/74
f 187/1/2 190/1/2 189/1/2 186/1/2
f 186/1/1 188/1/1 193/1/1 187/1/1
f 189/1/6 191/1/6 188/1/6 186/1/6
f 190/1/4 192/1/4 191/1/4 189/1/4
f 192/1/5 193/1/5 188/1/5 191/1/5
f 187/1/3 193/1/3 192/1/3 190/1/3
f 195/1/2 198/1/2 197/1/2 194/1/2
f 194/1/1 196/1/1 201/1/1 195/1/1
f 197/1/6 199/1/6 196/1/6 194/1/6
f 198/1/4 200/1/4 199/1/4 197/1/4
f 200/1/5 201/1/5 196/1/5 199/1/5
f 195/1/3 201/1/3 200/1/3 198/1/3
f 203/1/80 207/1/80 205/1/80 202/1/80
f 202/1/81 204/1/81 255/1/81 203/1/81
f 205/1/82 206/1/82 204/1/82 202/1/82
f 232/1/83 233/1/83 231/1/83 230/1/83
f 215/1/84 214/1/84 212/1/84 213/1/84
f 208/1/2 232/1/2 230/1/2 207/1/2
f 211/1/85 210/1/85 208/1/85 209/1/85
f 207/1/86 230/1/86 228/1/86 205/1/86
f 211/1/87 213/1/87 212/1/87 210/1/87
f 210/1/88 234/1/88 232/1/88 208/1/88
f 206/1/82 224/1/82 225/1/82 204/1/82
f 215/1/89 217/1/89 216/1/89 214/1/89
f 221/1/90 220/1/90 218/1/90 219/1/90
f 216/1/91 217/1/91 219/1/91 218/1/91
f 216/1/92 240/1/92 238/1/92 214/1/92
f 254/1/1 221/1/1 219/1/1 256/1/1
f 220/1/93 221/1/93 223/1/93 222/1/93
f 240/1/94 216/1/94 218/1/94 242/1/94
f 224/1/82 222/1/82 223/1/82 225/1/82
f 244/1/95 220/1/95 222/1/95 246/1/95
f 228/1/6 226/1/6 206/1/6 205/1/6
f 226/1/6 248/1/6 224/1/6 206/1/6
f 229/1/96 227/1/96 226/1/96 228/1/96
f 204/1/81 225/1/81 254/1/81 255/1/81
f 230/1/97 231/1/97 229/1/97 228/1/97
f 236/1/98 238/1/98 239/1/98 237/1/98
f 234/1/99 235/1/99 233/1/99 232/1/99
f 234/1/100 236/1/100 237/1/100 235/1/100
f 242/1/101 244/1/101 245/1/101 243/1/101
f 214/1/3 238/1/3 236/1/3 212/1/3
f 238/1/102 240/1/102 241/1/102 239/1/102
f 241/1/103 240/1/103 242/1/103 243/1/103
f 251/1/104 243/1/104 245/1/104 250/1/104
f 220/1/5 244/1/5 242/1/5 218/1/5
f 245/1/105 244/1/105 246/1/105 247/1/105
f 249/1/96 247/1/96 246/1/96 248/1/96
f 250/1/106 245/1/106 247/1/106 249/1/106
f 249/1/96 248/1/96 226/1/96 227/1/96
f 237/1/107 239/1/107 251/1/107 252/1/107
f 239/1/108 241/1/108 243/1/108 251/1/108
f 252/1/109 253/1/109 231/1/109 233/1/109
f 251/1/4 250/1/4 253/1/4 252/1/4
f 235/1/110 237/1/110 252/1/110 233/1/110
f 253/1/111 250/1/111 249/1/111 227/1/111
f 231/1/112 253/1/112 227/1/112 229/1/112
f 257/1/113 256/1/114 215/1/114 213/1/113
f 255/1/115 254/1/115 256/1/115 257/1/115
f 248/1/6 246/1/6 222/1/6 224/1/6
f 203/1/116 255/1/116 257/1/117 209/1/118
f 209/1/119 257/1/119 213/1/119 211/1/119
f 212/1/120 236/1/120 234/1/120 210/1/120
f 209/1/121 208/1/121 207/1/121 203/1/121
f 256/1/122 219/1/122 217/1/122 215/1/122
f 225/1/81 223/1/81 221/1/81 254/1/81
s 1
f 264/133/6 261/134/51 258/135/6 259/136/6 384/137/6 383/138/6 382/139/6 377/140/6 376/141/6 375/142/6 374/143/51 283/144/6 282/145/6 281/146/6 280/147/6 275/148/6 274/149/6 273/150/6 272/151/6 265/152/6
f 258/2/15 260/3/15 386/4/15 259/5/15
f 261/130/50 263/129/50 260/131/50 258/132/50
f 283/144/6 374/143/51 369/153/51 368/154/51 367/155/51 366/156/51 361/157/51 360/158/51 359/159/51 358/160/51 353/161/51 352/162/51 351/163/51 350/164/51 345/165/51 344/166/51 343/167/51 340/168/51 339/169/51 338/170/51 332/171/51 334/172/51 336/173/51 262/174/51 261/134/51 264/133/6 266/175/51 330/176/51 324/177/51 323/178/51 322/179/51 321/180/51 315/181/51 314/182/51 313/183/51 312/184/51 307/185/51 306/186/51 305/187/51 304/188/51 299/189/51 298/190/51 297/191/51 296/192/51 291/193/51 290/194/51 289/195/51 288/196/51
f 262/63/49 337/62/49 263/129/49 261/130/49
f 265/262/5 269/263/5 267/261/79 264/260/79
f 264/260/79 267/261/79 268/259/78 266/258/78
f 378/64/3 379/65/3 380/66/3 381/67/3 385/68/3 386/69/3 260/70/3 263/71/3 337/72/3 335/73/3 333/74/3 327/75/45 326/76/46 328/77/3 329/78/3 268/79/3 267/80/3 269/81/3 270/82/3 271/83/3 276/84/3 277/85/3 278/86/3 279/87/3 284/88/3 285/89/3 286/90/3 287/91/3 292/92/3 293/93/3 294/94/3 295/95/3 300/96/3 301/97/3 302/98/3 303/99/3 308/100/3 309/101/3 310/102/3 311/103/3 316/104/47 317/105/46 346/106/3 347/107/3 348/108/3 349/109/3 354/110/3 355/111/3 356/112/3 357/113/3 362/114/3 363/115/3 364/116/3 365/117/3 370/118/3 371/119/3 372/120/3 373/121/3
f 272/197/52 270/198/52 269/199/5 265/200/5
f 273/201/53 271/202/53 270/198/52 272/197/52
f 274/203/54 276/204/54 271/202/53 273/201/53
f 275/205/55 277/206/55 276/204/54 274/203/54
f 278/207/56 277/206/55 275/205/55 280/208/56
f 279/209/57 278/207/56 280/208/56 281/210/57
f 284/211/58 279/209/57 281/210/57 282/212/58
f 285/213/1 284/211/58 282/212/58 283/214/1
f 286/215/59 285/213/1 283/214/1 288/216/59
f 287/217/60 286/215/59 288/216/59 289/218/60
f 292/219/61 287/217/60 289/218/60 290/220/61
f 293/221/62 292/219/61 290/220/61 291/222/62
f 294/223/63 293/221/62 291/222/62 296/224/63
f 295/225/64 294/223/63 296/224/63 297/226/64
f 300/227/65 295/225/64 297/226/64 298/228/65
f 301/229/2 300/227/65 298/228/65 299/230/2
f 302/231/66 301/229/2 299/230/2 304/232/66
f 303/233/67 302/231/66 304/232/66 305/234/67
f 308/235/68 303/233/67 305/234/67 306/236/68
f 309/237/69 308/235/68 306/236/68 307/238/69
f 312/239/70 310/240/70 309/237/69 307/238/69
f 313/241/71 311/242/71 310/240/70 312/239/70
f 314/243/72 316/244/72 311/242/71 313/241/71
f 315/245/4 318/246/4 316/244/72 314/243/72
f 327/75/45 331/122/48 341/123/48 342/124/48 317/105/46 316/104/47 318/125/48 319/126/48 320/127/48 325/128/48 326/76/46
f 321/247/73 319/248/73 318/246/4 315/245/4
f 322/249/74 320/250/74 319/248/73 321/247/73
f 323/251/75 325/252/75 320/250/74 322/249/74
f 324/253/76 328/254/76 326/255/26 325/252/75 323/251/75
f 330/256/77 329/257/77 328/254/76 324/253/76
f 266/258/78 268/259/78 329/257/77 330/256/77
f 338/55/41 331/54/41 327/56/41 332/57/41
f 332/57/42 327/56/42 333/58/42 334/59/42
f 334/59/43 333/58/43 335/60/43 336/61/43
f 336/61/44 335/60/44 337/62/44 262/63/44
f 339/53/40 341/52/40 331/54/40 338/55/40
f 340/51/39 342/50/39 341/52/39 339/53/39
f 343/49/38 317/48/38 342/50/38 340/51/38
f 344/47/37 346/46/37 317/48/37 343/49/37
f 345/45/36 347/44/36 346/46/36 344/47/36
f 350/43/35 348/42/35 347/44/35 345/45/35
f 351/41/34 349/40/34 348/42/34 350/43/34
f 352/39/33 354/38/33 349/40/33 351/41/33
f 353/37/32 355/36/32 354/38/32 352/39/32
f 358/35/31 356/34/31 355/36/31 353/37/31
f 359/33/30 357/32/30 356/34/30 358/35/30
f 360/31/29 362/30/29 357/32/29 359/33/29
f 361/29/28 363/28/28 362/30/28 360/31/28
f 366/27/27 364/26/27 363/28/27 361/29/27
f 367/25/26 365/24/26 364/26/26 366/27/26
f 368/23/25 370/22/25 365/24/25 367/25/25
f 369/21/24 371/20/24 370/22/24 368/23/24
f 374/19/23 372/18/23 371/20/23 369/21/23
f 375/17/22 373/16/22 372/18/22 374/19/22
f 376/15/21 378/14/21 373/16/21 375/17/21
f 377/13/20 379/12/20 378/14/20 376/15/20
f 382/11/19 380/10/19 379/12/19 377/13/19
f 383/9/18 381/8/18 380/10/18 382/11/18
f 384/7/17 385/6/17 381/8/17 383/9/17
f 259/5/16 386/4/16 385/6/16 384/7/16
