# Blender 4.4.3
# www.blender.org
mtllib Guardian.mtl
o 立方体.016
v -0.673380 0.381640 0.139033
v -0.612455 0.367614 0.139033
v -0.604021 0.773804 0.326851
v -0.543097 0.759779 0.326851
v -0.517435 1.263379 0.198089
v -0.527013 1.209227 0.326851
v -0.517435 1.263379 -0.198089
v -0.456511 1.249354 0.198089
v -0.466088 1.195202 0.326851
v -0.456511 1.249354 -0.198089
v -0.612455 0.367614 -0.139033
v -0.673380 0.381640 -0.139033
v -0.604021 0.773804 -0.326851
v -0.543097 0.759779 -0.326851
v -0.466088 1.195202 -0.326851
v -0.527013 1.209227 -0.326851
v 0.349110 0.732092 0.121791
v 0.349087 0.658898 0.034863
v 0.467511 0.732055 0.121791
v 0.349147 0.849209 0.121791
v 0.467548 0.849172 0.121791
v 0.349170 0.922403 0.034863
v 0.349170 0.921043 -0.052065
v 0.467571 0.921005 0.034863
v 0.467571 0.921005 -0.052065
v 0.467548 0.849172 -0.138993
v 0.349147 0.849209 -0.138993
v 0.467511 0.732055 -0.138993
v 0.349110 0.732092 -0.138993
v 0.467488 0.660221 -0.052065
v 0.467488 0.660221 0.034863
v 0.349087 0.660259 -0.052065
v 0.017745 0.401614 0.103295
v 0.017745 0.401614 0.256750
v 0.159470 0.342909 0.103295
v -0.123980 0.342909 0.103295
v -0.182684 0.201185 0.103295
v -0.123980 0.342909 0.256750
v -0.182684 0.201185 0.256750
v -0.123980 0.059460 0.256750
v 0.017745 0.000756 0.256750
v -0.123980 0.059460 0.103295
v 0.017745 0.000756 0.103295
v 0.159469 0.059460 0.103295
v 0.218174 0.201185 0.103295
v 0.159469 0.059460 0.256750
v 0.218174 0.201185 0.256750
v 0.159470 0.342909 0.256750
v 0.019848 0.157056 0.064128
v 0.040146 0.137372 0.064128
v 0.019848 0.157056 0.054580
v -0.002553 0.159262 0.064128
v -0.026197 0.143906 0.064128
v -0.002553 0.159262 0.054580
v 0.009311 0.207590 0.064128
v 0.017745 0.206759 0.064128
v 0.001201 0.210050 0.064128
v 0.009311 0.207590 0.054580
v 0.001201 0.210050 0.054580
v 0.017745 0.206759 0.054580
v 0.026179 0.207590 0.054580
v 0.034289 0.210050 0.054580
v 0.026179 0.207590 0.064128
v 0.034289 0.210050 0.064128
v 0.041763 0.214045 0.064128
v 0.048314 0.219422 0.064128
v 0.041763 0.214045 0.054580
v 0.048314 0.219422 0.054580
v 0.053691 0.225973 0.054580
v 0.057686 0.233447 0.054580
v 0.053691 0.225973 0.064128
v 0.057686 0.233447 0.064128
v 0.060146 0.241557 0.064128
v 0.060976 0.249991 0.064128
v 0.060146 0.241557 0.054580
v 0.060976 0.249991 0.054580
v 0.060146 0.258425 0.054580
v 0.057686 0.266535 0.054580
v 0.060146 0.258425 0.064128
v 0.057686 0.266535 0.064128
v 0.053691 0.274009 0.064128
v 0.048314 0.280560 0.064128
v 0.053691 0.274009 0.054580
v 0.048314 0.280560 0.054580
v 0.041763 0.285937 0.054580
v 0.034289 0.289931 0.054580
v 0.041763 0.285937 0.064128
v 0.034289 0.289931 0.064128
v 0.026179 0.292392 0.064128
v 0.017745 0.293222 0.064128
v 0.026179 0.292392 0.054580
v 0.017745 0.293222 0.054580
v 0.009311 0.292392 0.054580
v 0.001201 0.289931 0.054580
v 0.009311 0.292392 0.064128
v 0.001201 0.289931 0.064128
v -0.006273 0.285937 0.064128
v -0.012824 0.280560 0.064128
v -0.006273 0.285937 0.054580
v -0.012824 0.280560 0.054580
v -0.018201 0.274009 0.054580
v -0.022196 0.266535 0.054580
v -0.018201 0.274009 0.064128
v -0.022196 0.266535 0.064128
v -0.024656 0.258425 0.064128
v -0.025487 0.249991 0.064128
v -0.024656 0.258425 0.054580
v -0.073054 0.270184 0.054580
v -0.025487 0.249991 0.054580
v -0.024656 0.241557 0.054580
v -0.022196 0.233447 0.054580
v -0.024656 0.241557 0.064128
v -0.022196 0.233447 0.064128
v -0.018201 0.225973 0.064128
v -0.012824 0.219422 0.064128
v -0.018201 0.225973 0.054580
v -0.017966 0.225686 0.054580
v -0.060457 0.200121 0.054580
v -0.012824 0.219422 0.054580
v -0.006273 0.214045 0.054580
v -0.006273 0.214045 0.064128
v -0.088340 0.206049 0.054580
v -0.060457 0.200121 0.064128
v -0.046177 0.182720 0.054580
v -0.046177 0.182720 0.064128
v -0.046049 0.154517 0.054580
v -0.046049 0.154517 0.064128
v -0.026197 0.143906 0.054580
v -0.088340 0.206049 0.064128
v -0.094874 0.227590 0.064128
v -0.075260 0.247783 0.064211
v -0.094874 0.227590 0.054580
v -0.075260 0.247783 0.054497
v -0.073054 0.270184 0.064128
v -0.088340 0.293932 0.064128
v -0.077729 0.313784 0.064128
v -0.088340 0.293932 0.054580
v -0.077729 0.313784 0.054580
v -0.049595 0.314258 0.054580
v -0.032195 0.328538 0.054580
v -0.049595 0.314258 0.064128
v -0.032195 0.328538 0.064128
v -0.026197 0.356075 0.064128
v -0.004656 0.362609 0.064128
v -0.026197 0.356075 0.054580
v -0.004656 0.362609 0.054580
v 0.015646 0.343079 0.054580
v 0.038047 0.340872 0.054580
v 0.015646 0.343079 0.064128
v 0.038047 0.340872 0.064128
v 0.061687 0.356075 0.064128
v 0.081538 0.345464 0.064128
v 0.061687 0.356075 0.054580
v 0.081538 0.345464 0.054580
v 0.082159 0.317342 0.054580
v 0.096439 0.299941 0.054580
v 0.082159 0.317342 0.064128
v 0.096439 0.299941 0.064128
v 0.123830 0.293932 0.064128
v 0.130364 0.272392 0.064128
v 0.123830 0.293932 0.054580
v 0.130364 0.272392 0.054580
v 0.110649 0.251710 0.054580
v 0.108443 0.229309 0.054580
v 0.110649 0.251710 0.064128
v 0.108443 0.229309 0.064128
v 0.123830 0.206049 0.064128
v 0.113219 0.186198 0.064128
v 0.123830 0.206049 0.054580
v 0.113219 0.186198 0.054580
v 0.085368 0.185834 0.054580
v 0.067967 0.171554 0.054580
v 0.085368 0.185834 0.064128
v 0.067967 0.171554 0.064128
v 0.061687 0.143906 0.064128
v 0.061687 0.143906 0.054580
v 0.040146 0.137372 0.054580
v -0.027194 0.200372 0.294389
v -0.027194 0.200372 0.263113
v -0.027194 0.447407 0.294389
v 0.062684 0.200372 0.294389
v 0.062684 0.200372 0.263113
v 0.062684 0.447407 0.294389
v 0.062684 0.447407 0.263113
v -0.027194 0.447407 0.263113
v -0.027194 0.200372 0.096931
v -0.027194 0.200372 0.065656
v -0.027194 0.447407 0.096931
v 0.062684 0.200372 0.096931
v 0.062684 0.200372 0.065656
v 0.062684 0.447407 0.096931
v 0.062684 0.447407 0.065656
v -0.027194 0.447407 0.065656
v 0.019848 0.157056 0.305465
v 0.040146 0.137372 0.305465
v 0.019848 0.157056 0.295916
v -0.002553 0.159262 0.305465
v -0.026197 0.143906 0.305465
v -0.002553 0.159262 0.295916
v 0.009311 0.207590 0.305465
v 0.017745 0.206759 0.305465
v 0.001201 0.210050 0.305465
v 0.009311 0.207590 0.295916
v 0.001201 0.210050 0.295916
v 0.017745 0.206759 0.295916
v 0.026179 0.207590 0.295916
v 0.034289 0.210050 0.295916
v 0.026179 0.207590 0.305465
v 0.034289 0.210050 0.305465
v 0.041763 0.214045 0.305465
v 0.048314 0.219422 0.305465
v 0.041763 0.214045 0.295916
v 0.048314 0.219422 0.295916
v 0.053691 0.225973 0.295916
v 0.057686 0.233447 0.295916
v 0.053691 0.225973 0.305465
v 0.057686 0.233447 0.305465
v 0.060146 0.241557 0.305465
v 0.060976 0.249991 0.305465
v 0.060146 0.241557 0.295916
v 0.060976 0.249991 0.295916
v 0.060146 0.258425 0.295916
v 0.057686 0.266535 0.295916
v 0.060146 0.258425 0.305465
v 0.057686 0.266535 0.305465
v 0.053691 0.274009 0.305465
v 0.048314 0.280560 0.305465
v 0.053691 0.274009 0.295916
v 0.048314 0.280560 0.295916
v 0.041763 0.285937 0.295916
v 0.034289 0.289931 0.295916
v 0.041763 0.285937 0.305465
v 0.034289 0.289931 0.305465
v 0.026179 0.292392 0.305465
v 0.017745 0.293222 0.305465
v 0.026179 0.292392 0.295916
v 0.017745 0.293222 0.295916
v 0.009311 0.292392 0.295916
v 0.001201 0.289931 0.295916
v 0.009311 0.292392 0.305465
v 0.001201 0.289931 0.305465
v -0.006273 0.285937 0.305465
v -0.012824 0.280560 0.305465
v -0.006273 0.285937 0.295916
v -0.012824 0.280560 0.295916
v -0.018201 0.274009 0.295916
v -0.022196 0.266535 0.295916
v -0.018201 0.274009 0.305465
v -0.022196 0.266535 0.305465
v -0.024656 0.258425 0.305465
v -0.025487 0.249991 0.305465
v -0.024656 0.258425 0.295916
v -0.073054 0.270184 0.295916
v -0.025487 0.249991 0.295916
v -0.024656 0.241557 0.295916
v -0.022196 0.233447 0.295916
v -0.024656 0.241557 0.305465
v -0.022196 0.233447 0.305465
v -0.018201 0.225973 0.305465
v -0.012824 0.219422 0.305465
v -0.018201 0.225973 0.295916
v -0.017966 0.225686 0.295916
v -0.060457 0.200121 0.295916
v -0.012824 0.219422 0.295916
v -0.006273 0.214045 0.295916
v -0.006273 0.214045 0.305465
v -0.088340 0.206049 0.295916
v -0.060457 0.200121 0.305465
v -0.046177 0.182720 0.295916
v -0.046177 0.182720 0.305465
v -0.046048 0.154517 0.295916
v -0.046048 0.154517 0.305465
v -0.026197 0.143906 0.295916
v -0.088340 0.206049 0.305465
v -0.094874 0.227590 0.305465
v -0.075260 0.247783 0.305547
v -0.094874 0.227590 0.295916
v -0.075260 0.247783 0.295834
v -0.073054 0.270184 0.305465
v -0.088340 0.293932 0.305465
v -0.077729 0.313784 0.305465
v -0.088340 0.293932 0.295916
v -0.077729 0.313784 0.295916
v -0.049595 0.314258 0.295916
v -0.032195 0.328538 0.295916
v -0.049595 0.314258 0.305465
v -0.032195 0.328538 0.305465
v -0.026197 0.356075 0.305465
v -0.004656 0.362609 0.305465
v -0.026197 0.356075 0.295916
v -0.004656 0.362609 0.295916
v 0.015646 0.343079 0.295916
v 0.038047 0.340872 0.295916
v 0.015646 0.343079 0.305465
v 0.038047 0.340872 0.305465
v 0.061687 0.356075 0.305465
v 0.081538 0.345464 0.305465
v 0.061687 0.356075 0.295916
v 0.081538 0.345464 0.295916
v 0.082159 0.317342 0.295916
v 0.096439 0.299941 0.295916
v 0.082159 0.317342 0.305465
v 0.096439 0.299941 0.305465
v 0.123830 0.293932 0.305465
v 0.130364 0.272392 0.305465
v 0.123830 0.293932 0.295916
v 0.130364 0.272392 0.295916
v 0.110649 0.251710 0.295916
v 0.108443 0.229309 0.295916
v 0.110649 0.251710 0.305465
v 0.108443 0.229309 0.305465
v 0.123830 0.206049 0.305465
v 0.113219 0.186198 0.305465
v 0.123830 0.206049 0.295916
v 0.113219 0.186198 0.295916
v 0.085368 0.185834 0.295916
v 0.067967 0.171554 0.295916
v 0.085368 0.185834 0.305465
v 0.067967 0.171554 0.305465
v 0.061687 0.143906 0.305465
v 0.061687 0.143906 0.295916
v 0.040146 0.137372 0.295916
v -0.376097 0.471978 0.336836
v -0.443011 0.471978 0.201895
v -0.376097 0.574733 0.336836
v -0.237063 0.471978 0.403750
v -0.237063 0.574733 0.403750
v -0.237063 0.419459 0.201895
v 0.166646 0.471978 0.403750
v 0.166646 0.574733 0.403750
v 0.297494 0.471978 0.336836
v 0.166646 0.419459 0.201895
v 0.364408 0.471978 0.201895
v 0.166646 0.419459 -0.201814
v 0.364408 0.471978 -0.201814
v -0.237063 0.419459 -0.201814
v 0.166646 0.471978 -0.403669
v 0.297494 0.471978 -0.336755
v -0.237063 0.471978 -0.403669
v 0.166493 0.574733 -0.402350
v 0.297494 0.574733 -0.336755
v -0.237216 0.574733 -0.402350
v 0.166493 0.978443 -0.402350
v 0.297494 0.978443 -0.336755
v -0.237216 0.978443 -0.402351
v 0.166646 1.100025 -0.403669
v 0.297494 1.100025 -0.336755
v -0.237063 1.100025 -0.403669
v 0.166646 1.133287 -0.201814
v 0.364408 1.100025 -0.201814
v -0.237063 1.133287 -0.201814
v 0.166646 1.133287 0.201895
v 0.364408 1.100025 0.201895
v -0.237063 1.133287 0.201895
v 0.166646 1.100025 0.403750
v 0.297494 1.100025 0.336836
v -0.237063 1.100025 0.403750
v 0.166646 0.978443 0.403750
v 0.297494 0.978443 0.336836
v -0.237063 0.978443 0.403750
v -0.376097 0.978443 0.336836
v -0.443011 0.978443 0.201895
v -0.376097 1.100025 0.336836
v -0.443011 1.100025 0.201895
v -0.443011 1.100025 -0.201814
v -0.443011 0.978443 -0.201814
v -0.376097 1.100025 -0.336755
v -0.376097 0.978443 -0.336755
v -0.376097 0.574733 -0.336755
v -0.443164 0.574733 -0.200496
v -0.376097 0.471978 -0.336755
v -0.443011 0.471978 -0.201814
v -0.443011 0.574733 0.201895
v 0.364254 0.978443 0.203213
v 0.297494 0.574733 0.336836
v 0.364255 0.574733 0.203213
v 0.364255 0.574733 -0.200496
v 0.364255 0.978443 -0.200496
v 0.017745 0.401614 -0.256705
v 0.017745 0.401614 -0.103250
v 0.159470 0.342909 -0.256705
v -0.123980 0.342909 -0.256705
v -0.182684 0.201185 -0.256705
v -0.123980 0.342909 -0.103250
v -0.182684 0.201185 -0.103250
v -0.123980 0.059460 -0.103250
v 0.017745 0.000756 -0.103250
v -0.123980 0.059460 -0.256705
v 0.017745 0.000756 -0.256705
v 0.159470 0.059460 -0.256705
v 0.218174 0.201185 -0.256705
v 0.159469 0.059460 -0.103250
v 0.218174 0.201185 -0.103250
v 0.159470 0.342909 -0.103250
v 0.019848 0.157056 -0.295872
v 0.040146 0.137372 -0.295872
v 0.019848 0.157056 -0.305420
v -0.002553 0.159262 -0.295872
v -0.026197 0.143906 -0.295872
v -0.002553 0.159262 -0.305420
v 0.009311 0.207590 -0.295872
v 0.017745 0.206759 -0.295872
v 0.001201 0.210050 -0.295872
v 0.009311 0.207590 -0.305420
v 0.001201 0.210050 -0.305420
v 0.017745 0.206759 -0.305420
v 0.026179 0.207590 -0.305420
v 0.034289 0.210050 -0.305420
v 0.026179 0.207590 -0.295872
v 0.034289 0.210050 -0.295872
v 0.041763 0.214045 -0.295872
v 0.048314 0.219422 -0.295872
v 0.041763 0.214045 -0.305420
v 0.048314 0.219422 -0.305420
v 0.053691 0.225973 -0.305420
v 0.057686 0.233447 -0.305420
v 0.053691 0.225973 -0.295872
v 0.057686 0.233447 -0.295872
v 0.060146 0.241557 -0.295872
v 0.060976 0.249991 -0.295872
v 0.060146 0.241557 -0.305420
v 0.060976 0.249991 -0.305420
v 0.060146 0.258425 -0.305420
v 0.057686 0.266535 -0.305420
v 0.060146 0.258425 -0.295872
v 0.057686 0.266535 -0.295872
v 0.053691 0.274009 -0.295872
v 0.048314 0.280560 -0.295872
v 0.053691 0.274009 -0.305420
v 0.048314 0.280560 -0.305420
v 0.041763 0.285937 -0.305420
v 0.034289 0.289931 -0.305420
v 0.041763 0.285937 -0.295872
v 0.034289 0.289931 -0.295872
v 0.026179 0.292392 -0.295872
v 0.017745 0.293222 -0.295872
v 0.026179 0.292392 -0.305420
v 0.017745 0.293222 -0.305420
v 0.009311 0.292392 -0.305420
v 0.001201 0.289931 -0.305420
v 0.009311 0.292392 -0.295872
v 0.001201 0.289931 -0.295872
v -0.006273 0.285937 -0.295872
v -0.012824 0.280560 -0.295872
v -0.006273 0.285937 -0.305420
v -0.012824 0.280560 -0.305420
v -0.018201 0.274009 -0.305420
v -0.022196 0.266535 -0.305420
v -0.018201 0.274009 -0.295872
v -0.022196 0.266535 -0.295872
v -0.024656 0.258425 -0.295872
v -0.025487 0.249991 -0.295872
v -0.024656 0.258425 -0.305420
v -0.073054 0.270184 -0.305420
v -0.025487 0.249991 -0.305420
v -0.024656 0.241557 -0.305420
v -0.022196 0.233447 -0.305420
v -0.024656 0.241557 -0.295872
v -0.022196 0.233447 -0.295872
v -0.018201 0.225973 -0.295872
v -0.012824 0.219422 -0.295872
v -0.018201 0.225973 -0.305420
v -0.017966 0.225686 -0.305420
v -0.060457 0.200121 -0.305420
v -0.012824 0.219422 -0.305420
v -0.006273 0.214045 -0.305420
v -0.006273 0.214045 -0.295872
v -0.088340 0.206049 -0.305420
v -0.060457 0.200121 -0.295872
v -0.046177 0.182720 -0.305420
v -0.046177 0.182720 -0.295872
v -0.046049 0.154517 -0.305420
v -0.046049 0.154517 -0.295872
v -0.026197 0.143906 -0.305420
v -0.088340 0.206049 -0.295872
v -0.094874 0.227590 -0.295872
v -0.075260 0.247783 -0.295789
v -0.094874 0.227590 -0.305420
v -0.075260 0.247783 -0.305503
v -0.073054 0.270184 -0.295872
v -0.088340 0.293932 -0.295872
v -0.077729 0.313784 -0.295872
v -0.088340 0.293932 -0.305420
v -0.077729 0.313784 -0.305420
v -0.049595 0.314258 -0.305420
v -0.032195 0.328538 -0.305420
v -0.049595 0.314258 -0.295872
v -0.032195 0.328538 -0.295872
v -0.026197 0.356075 -0.295872
v -0.004656 0.362609 -0.295872
v -0.026197 0.356075 -0.305420
v -0.004656 0.362609 -0.305420
v 0.015646 0.343079 -0.305420
v 0.038047 0.340872 -0.305420
v 0.015646 0.343079 -0.295872
v 0.038047 0.340872 -0.295872
v 0.061687 0.356075 -0.295872
v 0.081538 0.345464 -0.295872
v 0.061687 0.356075 -0.305420
v 0.081538 0.345464 -0.305420
v 0.082159 0.317342 -0.305420
v 0.096439 0.299941 -0.305420
v 0.082159 0.317342 -0.295872
v 0.096439 0.299941 -0.295872
v 0.123830 0.293932 -0.295872
v 0.130364 0.272392 -0.295872
v 0.123830 0.293932 -0.305420
v 0.130364 0.272392 -0.305420
v 0.110649 0.251710 -0.305420
v 0.108443 0.229309 -0.305420
v 0.110649 0.251710 -0.295872
v 0.108443 0.229309 -0.295872
v 0.123830 0.206049 -0.295872
v 0.113219 0.186198 -0.295872
v 0.123830 0.206049 -0.305420
v 0.113219 0.186198 -0.305420
v 0.085368 0.185834 -0.305420
v 0.067967 0.171554 -0.305420
v 0.085368 0.185834 -0.295872
v 0.067967 0.171554 -0.295872
v 0.061687 0.143906 -0.295872
v 0.061687 0.143906 -0.305420
v 0.040146 0.137372 -0.305420
v -0.027194 0.200372 -0.065611
v -0.027194 0.200372 -0.096887
v -0.027194 0.447407 -0.065611
v 0.062684 0.200372 -0.065611
v 0.062684 0.200372 -0.096887
v 0.062684 0.447407 -0.065611
v 0.062684 0.447407 -0.096887
v -0.027194 0.447407 -0.096887
v -0.027194 0.200372 -0.263069
v -0.027194 0.200372 -0.294344
v -0.027194 0.447407 -0.263069
v 0.062684 0.200372 -0.263069
v 0.062684 0.200372 -0.294344
v 0.062684 0.447407 -0.263069
v 0.062684 0.447407 -0.294344
v -0.027194 0.447407 -0.294344
v 0.019848 0.157056 -0.054535
v 0.040146 0.137372 -0.054535
v 0.019848 0.157056 -0.064084
v -0.002553 0.159262 -0.054535
v -0.026197 0.143906 -0.054535
v -0.002553 0.159262 -0.064084
v 0.009311 0.207590 -0.054535
v 0.017745 0.206759 -0.054535
v 0.001201 0.210050 -0.054535
v 0.009311 0.207590 -0.064084
v 0.001201 0.210050 -0.064084
v 0.017745 0.206759 -0.064084
v 0.026179 0.207590 -0.064084
v 0.034289 0.210050 -0.064084
v 0.026179 0.207590 -0.054535
v 0.034289 0.210050 -0.054535
v 0.041763 0.214045 -0.054535
v 0.048314 0.219422 -0.054535
v 0.041763 0.214045 -0.064084
v 0.048314 0.219422 -0.064084
v 0.053691 0.225973 -0.064084
v 0.057686 0.233447 -0.064084
v 0.053691 0.225973 -0.054535
v 0.057686 0.233447 -0.054535
v 0.060146 0.241557 -0.054535
v 0.060976 0.249991 -0.054535
v 0.060146 0.241557 -0.064084
v 0.060976 0.249991 -0.064084
v 0.060146 0.258425 -0.064084
v 0.057686 0.266535 -0.064084
v 0.060146 0.258425 -0.054535
v 0.057686 0.266535 -0.054535
v 0.053691 0.274009 -0.054535
v 0.048314 0.280560 -0.054535
v 0.053691 0.274009 -0.064084
v 0.048314 0.280560 -0.064084
v 0.041763 0.285937 -0.064084
v 0.034289 0.289931 -0.064084
v 0.041763 0.285937 -0.054535
v 0.034289 0.289931 -0.054535
v 0.026179 0.292392 -0.054535
v 0.017745 0.293222 -0.054535
v 0.026179 0.292392 -0.064084
v 0.017745 0.293222 -0.064084
v 0.009311 0.292392 -0.064084
v 0.001201 0.289931 -0.064084
v 0.009311 0.292392 -0.054535
v 0.001201 0.289931 -0.054535
v -0.006273 0.285937 -0.054535
v -0.012824 0.280560 -0.054535
v -0.006273 0.285937 -0.064084
v -0.012824 0.280560 -0.064084
v -0.018201 0.274009 -0.064084
v -0.022196 0.266535 -0.064084
v -0.018201 0.274009 -0.054535
v -0.022196 0.266535 -0.054535
v -0.024656 0.258425 -0.054535
v -0.025487 0.249991 -0.054535
v -0.024656 0.258425 -0.064084
v -0.073054 0.270184 -0.064084
v -0.025487 0.249991 -0.064084
v -0.024656 0.241557 -0.064084
v -0.022196 0.233447 -0.064084
v -0.024656 0.241557 -0.054535
v -0.022196 0.233447 -0.054535
v -0.018201 0.225973 -0.054535
v -0.012824 0.219422 -0.054535
v -0.018201 0.225973 -0.064084
v -0.017966 0.225686 -0.064084
v -0.060457 0.200121 -0.064084
v -0.012824 0.219422 -0.064084
v -0.006273 0.214045 -0.064084
v -0.006273 0.214045 -0.054535
v -0.088340 0.206049 -0.064084
v -0.060457 0.200121 -0.054535
v -0.046177 0.182720 -0.064084
v -0.046177 0.182720 -0.054535
v -0.046048 0.154517 -0.064084
v -0.046048 0.154517 -0.054535
v -0.026197 0.143906 -0.064084
v -0.088340 0.206049 -0.054535
v -0.094874 0.227590 -0.054535
v -0.075260 0.247783 -0.054453
v -0.094874 0.227590 -0.064084
v -0.075260 0.247783 -0.064166
v -0.073054 0.270184 -0.054535
v -0.088340 0.293932 -0.054535
v -0.077729 0.313784 -0.054535
v -0.088340 0.293932 -0.064084
v -0.077729 0.313784 -0.064084
v -0.049595 0.314258 -0.064084
v -0.032195 0.328538 -0.064084
v -0.049595 0.314258 -0.054535
v -0.032195 0.328538 -0.054535
v -0.026197 0.356075 -0.054535
v -0.004656 0.362609 -0.054535
v -0.026197 0.356075 -0.064084
v -0.004656 0.362609 -0.064084
v 0.015646 0.343079 -0.064084
v 0.038047 0.340872 -0.064084
v 0.015646 0.343079 -0.054535
v 0.038047 0.340872 -0.054535
v 0.061687 0.356075 -0.054535
v 0.081538 0.345464 -0.054535
v 0.061687 0.356075 -0.064084
v 0.081538 0.345464 -0.064084
v 0.082159 0.317342 -0.064084
v 0.096439 0.299941 -0.064084
v 0.082159 0.317342 -0.054535
v 0.096439 0.299941 -0.054535
v 0.123830 0.293932 -0.054535
v 0.130364 0.272392 -0.054535
v 0.123830 0.293932 -0.064084
v 0.130364 0.272392 -0.064084
v 0.110649 0.251710 -0.064084
v 0.108443 0.229309 -0.064084
v 0.110649 0.251710 -0.054535
v 0.108443 0.229309 -0.054535
v 0.123830 0.206049 -0.054535
v 0.113219 0.186198 -0.054535
v 0.123830 0.206049 -0.064084
v 0.113219 0.186198 -0.064084
v 0.085368 0.185834 -0.064084
v 0.067967 0.171554 -0.064084
v 0.085368 0.185834 -0.054535
v 0.067967 0.171554 -0.054535
v 0.061687 0.143906 -0.054535
v 0.061687 0.143906 -0.064084
v 0.040146 0.137372 -0.064084
v 0.139033 0.381639 0.673380
v 0.139033 0.367614 0.612455
v 0.326851 0.773804 0.604021
v 0.326851 0.759779 0.543097
v 0.198089 1.263379 0.517435
v 0.326851 1.209227 0.527013
v -0.198089 1.263379 0.517435
v 0.198089 1.249354 0.456511
v 0.326851 1.195202 0.466088
v -0.198089 1.249354 0.456511
v -0.139033 0.367614 0.612455
v -0.139033 0.381639 0.673380
v -0.326851 0.773804 0.604021
v -0.326851 0.759779 0.543097
v -0.326851 1.195202 0.466088
v -0.326851 1.209227 0.527013
v 0.139033 0.373165 -0.629785
v 0.139033 0.382984 -0.691528
v 0.326851 0.762757 -0.547186
v 0.326851 0.772575 -0.608928
v 0.198089 1.249118 -0.444069
v 0.326851 1.195322 -0.455475
v -0.198089 1.249119 -0.444069
v 0.198089 1.258937 -0.505812
v 0.326851 1.205140 -0.517218
v -0.198089 1.258937 -0.505812
v -0.139033 0.382984 -0.691528
v -0.139033 0.373165 -0.629785
v -0.326851 0.762757 -0.547186
v -0.326851 0.772575 -0.608928
v -0.326851 1.205140 -0.517218
v -0.326851 1.195321 -0.455475
vn -0.9847 0.1742 -0.0000
vn -0.0958 -0.4161 0.9042
vn -0.0000 -0.0000 1.0000
vn -0.0000 -0.0000 -1.0000
vn 0.2064 0.8964 0.3923
vn 0.2243 0.9745 -0.0000
vn 0.9847 -0.1742 -0.0000
vn -0.2243 -0.9745 -0.0000
vn -0.0958 -0.4161 -0.9042
vn 0.2064 0.8964 -0.3923
vn -1.0000 0.0003 -0.0000
vn 0.0042 -0.7679 0.6406
vn 0.0047 0.7679 0.6406
vn 0.0061 1.0000 -0.0078
vn 1.0000 -0.0003 -0.0000
vn 0.0002 0.7709 -0.6370
vn -0.0002 -0.7709 -0.6370
vn 0.0054 -1.0000 -0.0078
vn -0.3827 0.9239 -0.0000
vn 0.3827 0.9239 -0.0000
vn -0.9239 0.3827 -0.0000
vn -0.9239 -0.3827 -0.0000
vn -0.3827 -0.9239 -0.0000
vn 0.3827 -0.9239 -0.0000
vn 0.9239 -0.3827 -0.0000
vn 0.9239 0.3827 -0.0000
vn 0.0001 -0.0000 1.0000
vn -0.6962 -0.7179 -0.0000
vn -0.0980 -0.9952 -0.0000
vn 0.5447 -0.8386 -0.0000
vn -0.0000 1.0000 -0.0000
vn 0.1951 0.9808 -0.0000
vn 0.0003 -0.0002 -1.0000
vn 0.0002 -0.0001 -1.0000
vn 0.0003 -0.0001 -1.0000
vn -0.1951 0.9808 -0.0000
vn -0.5556 0.8315 -0.0000
vn -0.7071 0.7071 -0.0000
vn -0.8315 0.5556 -0.0000
vn -0.9808 0.1951 -0.0000
vn -1.0000 -0.0000 -0.0000
vn -0.9808 -0.1951 -0.0000
vn -0.8315 -0.5556 -0.0000
vn -0.7071 -0.7071 -0.0000
vn -0.5556 -0.8315 -0.0000
vn -0.1951 -0.9808 -0.0000
vn -0.0000 -1.0000 -0.0000
vn 0.1951 -0.9808 -0.0000
vn 0.5556 -0.8315 -0.0000
vn 0.7071 -0.7071 -0.0000
vn 0.8315 -0.5556 -0.0000
vn 0.9808 -0.1951 -0.0000
vn 1.0000 -0.0000 -0.0000
vn 0.0005 -0.0003 -1.0000
vn 0.9808 0.1951 -0.0000
vn 0.8315 0.5556 -0.0000
vn 0.7071 0.7071 -0.0000
vn 0.7730 0.6344 -0.0000
vn 0.5556 0.8315 -0.0000
vn -0.2080 -0.9781 -0.0000
vn -0.7730 -0.6344 -0.0000
vn -1.0000 -0.0046 -0.0000
vn -0.4714 -0.8819 -0.0000
vn -0.9569 -0.2903 -0.0000
vn -0.7173 0.6967 -0.0000
vn -0.9952 0.0980 -0.0000
vn -0.8409 -0.5412 -0.0000
vn -0.8819 0.4714 -0.0000
vn -0.0168 0.9999 -0.0000
vn -0.6344 0.7730 -0.0000
vn -0.9771 0.2128 -0.0000
vn -0.2903 0.9569 -0.0000
vn 0.6933 0.7207 -0.0000
vn 0.0980 0.9952 -0.0000
vn -0.5409 0.8411 -0.0000
vn 0.4714 0.8819 -0.0000
vn 0.9998 0.0221 -0.0000
vn 0.2143 0.9768 -0.0000
vn 0.9569 0.2903 -0.0000
vn 0.7238 -0.6900 -0.0000
vn 0.9952 -0.0980 -0.0000
vn 0.8340 0.5517 -0.0000
vn 0.8819 -0.4714 -0.0000
vn 0.0131 -0.9999 -0.0000
vn 0.6344 -0.7730 -0.0000
vn 0.9752 -0.2215 -0.0000
vn 0.2903 -0.9569 -0.0000
vn -0.8959 -0.0000 0.4443
vn -0.1832 -0.9651 0.1869
vn -0.4337 -0.0000 0.9011
vn -0.0000 -0.9678 0.2518
vn 0.4553 -0.0000 0.8903
vn 0.1923 -0.9631 0.1884
vn 0.2567 -0.9665 -0.0000
vn 0.1923 -0.9631 -0.1884
vn -0.0000 -0.9678 -0.2518
vn 0.4515 0.0061 -0.8922
vn -0.0000 0.0128 -0.9999
vn 0.4477 -0.0000 -0.8942
vn 0.4515 -0.0051 -0.8922
vn -0.0000 -0.0108 -0.9999
vn 0.1245 0.9847 -0.1220
vn -0.0000 0.9867 -0.1626
vn 0.1659 0.9861 -0.0000
vn 0.1245 0.9847 0.1220
vn -0.0000 0.9867 0.1626
vn -0.1185 0.9856 0.1209
vn -0.1594 0.9872 -0.0000
vn -0.1185 0.9856 -0.1209
vn -0.8959 -0.0000 -0.4443
vn -0.4304 -0.0046 -0.9026
vn -0.4271 -0.0000 -0.9042
vn -0.8970 -0.0000 -0.4421
vn -0.8966 -0.0009 -0.4429
vn -0.4304 0.0055 -0.9026
vn -0.8966 0.0022 -0.4429
vn -0.1832 -0.9651 -0.1869
vn -0.2471 -0.9690 -0.0000
vn -1.0000 0.0002 0.0001
vn -1.0000 -0.0008 0.0007
vn -1.0000 -0.0007 0.0007
vn -1.0000 0.0002 0.0002
vn 0.8952 0.0019 0.4456
vn 0.8946 -0.0000 0.4469
vn 0.8952 -0.0022 0.4456
vn 1.0000 0.0015 -0.0000
vn 0.8980 -0.0000 -0.4400
vn 0.8970 0.0035 -0.4421
vn 1.0000 -0.0013 -0.0000
vn 0.8970 -0.0030 -0.4421
vn -0.0000 0.1742 0.9847
vn 0.9042 -0.4161 0.0958
vn 0.3923 0.8964 -0.2064
vn -0.0000 0.9745 -0.2243
vn -0.0000 -0.1742 -0.9847
vn -0.0000 -0.9745 0.2243
vn -0.9042 -0.4161 0.0958
vn -0.3923 0.8964 -0.2064
vn -0.0000 -0.2074 0.9783
vn 0.9042 -0.4217 -0.0671
vn 0.3923 0.9084 0.1445
vn -0.0000 0.9876 0.1571
vn -0.0000 0.2074 -0.9783
vn -0.0000 -0.9876 -0.1571
vn -0.9042 -0.4217 -0.0671
vn -0.3923 0.9084 0.1445
vt 0.752716 0.491963
vt 0.669787 0.592256
vt 0.686950 0.571499
vt 0.735553 0.512720
vt 0.554016 0.715937
vt 0.607803 0.650887
vt 0.615824 0.657519
vt 0.562036 0.722569
vt 0.661767 0.585624
vt 0.000000 0.000000
vt 0.806679 0.426700
vt 0.744695 0.485331
vt 0.798659 0.420068
vt 0.678930 0.564867
vt 0.727532 0.506088
vt 0.852447 0.355018
vt 0.860467 0.361650
vt 0.375000 0.000000
vt 0.625000 0.000000
vt 0.625000 0.083333
vt 0.625000 0.166667
vt 0.625000 0.250000
vt 0.375000 0.250000
vt 0.375000 0.166667
vt 0.375000 0.083333
vt 0.125000 0.666667
vt 0.375000 0.666667
vt 0.375000 0.750000
vt 0.125000 0.750000
vt 0.625000 0.750000
vt 0.625000 1.000000
vt 0.375000 1.000000
vt 0.625000 0.666667
vt 0.875000 0.666667
vt 0.875000 0.750000
vt 0.625000 0.583333
vt 0.875000 0.583333
vt 0.375000 0.500000
vt 0.625000 0.500000
vt 0.375000 0.583333
vt 0.875000 0.500000
vt 0.125000 0.500000
vt 0.125000 0.583333
vt 0.125000 1.000000
vt 0.000000 1.000000
vt 0.000000 0.500000
vt 1.000000 1.000000
vt 0.875000 1.000000
vt 1.000000 0.500000
vt 0.750000 0.490000
vt 0.919706 0.419706
vt 0.990000 0.250000
vt 0.919706 0.080294
vt 0.750000 0.010000
vt 0.580294 0.080294
vt 0.510000 0.250000
vt 0.580294 0.419706
vt 0.250000 1.000000
vt 0.250000 0.500000
vt 0.250000 0.490000
vt 0.080294 0.419706
vt 0.010000 0.250000
vt 0.080294 0.080294
vt 0.250000 0.010000
vt 0.419706 0.080294
vt 0.490000 0.250000
vt 0.419706 0.419706
vt 0.500000 1.000000
vt 0.500000 0.500000
vt 0.750000 1.000000
vt 0.750000 0.500000
vt 0.437500 0.000000
vt 0.437500 0.062500
vt 0.375000 0.062500
vt 0.125000 0.687500
vt 0.188767 0.687500
vt 0.188767 0.750000
vt 0.375000 0.936233
vt 0.437500 0.936233
vt 0.437500 1.000000
vt 0.375000 0.811233
vt 0.437500 0.811233
vt 0.313767 0.687500
vt 0.313767 0.750000
vt 0.437500 0.750000
vt 0.375000 0.687500
vt 0.313767 0.562500
vt 0.375000 0.562500
vt 0.188767 0.562500
vt 0.313767 0.500000
vt 0.188767 0.500000
vt 0.375000 0.438767
vt 0.437500 0.438767
vt 0.437500 0.500000
vt 0.437500 0.313767
vt 0.375000 0.313767
vt 0.562500 0.438767
vt 0.562500 0.500000
vt 0.562500 0.313767
vt 0.625000 0.438767
vt 0.625000 0.313767
vt 0.686233 0.500000
vt 0.686233 0.562500
vt 0.625000 0.562500
vt 0.811233 0.500000
vt 0.811233 0.562500
vt 0.686233 0.687500
vt 0.625000 0.687500
vt 0.811233 0.687500
vt 0.686233 0.750000
vt 0.811233 0.750000
vt 0.562500 0.750000
vt 0.625000 0.811233
vt 0.562500 0.811233
vt 0.625000 0.936233
vt 0.562500 0.936233
vt 0.562500 1.000000
vt 0.562500 0.000000
vt 0.562500 0.062500
vt 0.625000 0.062500
vt 0.875000 0.687500
vt 0.875000 0.562500
vt 0.625000 0.187500
vt 0.562500 0.187500
vt 0.562500 0.250000
vt 0.437500 0.250000
vt 0.437500 0.187500
vt 0.375000 0.187500
vt 0.125000 0.562500
vt 0.562500 0.687500
vt 0.437500 0.687500
vt 0.562500 0.562500
vt 0.437500 0.562500
s 0
f 16/1/1 6/2/1 5/3/1 7/4/1
f 2/5/2 4/6/2 3/7/2 1/8/2
f 3/7/3 4/6/3 9/9/3 6/10/3
f 3/7/1 6/10/1 16/10/1 13/11/1
f 13/11/4 16/1/4 15/12/4 14/13/4
f 8/14/5 5/3/5 6/2/5 9/9/5
f 10/15/6 7/4/6 5/3/6 8/14/6
f 4/6/1 9/9/1 15/12/1 14/13/1
f 14/13/7 4/6/7 2/5/7 11/16/7
f 1/8/8 12/17/8 11/16/8 2/5/8
f 1/8/1 3/7/1 13/11/1 12/17/1
f 12/17/9 13/11/9 14/13/9 11/16/9
f 15/12/10 16/1/10 7/4/10 10/15/10
f 8/14/7 9/9/7 15/12/7 10/15/7
f 17/18/11 20/19/11 22/20/11 23/21/11 27/22/11 29/23/11 32/24/11 18/25/11
f 18/26/12 31/27/12 19/28/12 17/29/12
f 19/28/3 21/30/3 20/31/3 17/32/3
f 24/33/13 22/34/13 20/35/13 21/30/13
f 25/36/14 23/37/14 22/34/14 24/33/14
f 28/38/15 26/39/15 25/36/15 24/33/15 21/30/15 19/28/15 31/27/15 30/40/15
f 26/39/16 27/41/16 23/37/16 25/36/16
f 29/23/4 27/22/4 26/39/4 28/38/4
f 29/42/17 28/38/17 30/40/17 32/43/17
f 32/43/18 30/40/18 31/27/18 18/26/18
f 38/44/19 34/45/19 33/46/19 36/42/19
f 34/47/20 48/48/20 35/41/20 33/49/20
f 33/50/4 35/51/4 45/52/4 44/53/4 43/54/4 42/55/4 37/56/4 36/57/4
f 39/58/21 38/44/21 36/42/21 37/59/21
f 34/60/3 38/61/3 39/62/3 40/63/3 41/64/3 46/65/3 47/66/3 48/67/3
f 40/32/22 39/58/22 37/59/22 42/38/22
f 41/68/23 40/32/23 42/38/23 43/69/23
f 46/31/24 41/68/24 43/69/24 44/39/24
f 47/70/25 46/31/25 44/39/25 45/71/25
f 48/48/26 47/70/26 45/71/26 35/41/26
s 1
f 55/10/3 52/10/27 49/10/3 50/10/3 175/10/3 174/10/3 173/10/3 168/10/3 167/10/3 166/10/3 165/10/27 74/10/3 73/10/3 72/10/3 71/10/3 66/10/3 65/10/3 64/10/3 63/10/3 56/10/3
f 49/10/28 51/10/28 177/10/28 50/10/28
f 52/10/29 54/10/29 51/10/29 49/10/29
f 74/10/3 165/10/27 160/10/27 159/10/27 158/10/27 157/10/27 152/10/27 151/10/27 150/10/27 149/10/27 144/10/27 143/10/27 142/10/27 141/10/27 136/10/27 135/10/27 134/10/27 131/10/27 130/10/27 129/10/27 123/10/27 125/10/27 127/10/27 53/10/27 52/10/27 55/10/3 57/10/27 121/10/27 115/10/27 114/10/27 113/10/27 112/10/27 106/10/27 105/10/27 104/10/27 103/10/27 98/10/27 97/10/27 96/10/27 95/10/27 90/10/27 89/10/27 88/10/27 87/10/27 82/10/27 81/10/27 80/10/27 79/10/27
f 53/10/30 128/10/30 54/10/30 52/10/30
f 56/10/31 60/10/31 58/10/32 55/10/32
f 55/10/32 58/10/32 59/10/20 57/10/20
f 169/10/4 170/10/4 171/10/4 172/10/4 176/10/4 177/10/4 51/10/4 54/10/4 128/10/4 126/10/4 124/10/4 118/10/33 117/10/34 119/10/4 120/10/4 59/10/4 58/10/4 60/10/4 61/10/4 62/10/4 67/10/4 68/10/4 69/10/4 70/10/4 75/10/4 76/10/4 77/10/4 78/10/4 83/10/4 84/10/4 85/10/4 86/10/4 91/10/4 92/10/4 93/10/4 94/10/4 99/10/4 100/10/4 101/10/4 102/10/4 107/10/35 108/10/34 137/10/4 138/10/4 139/10/4 140/10/4 145/10/4 146/10/4 147/10/4 148/10/4 153/10/4 154/10/4 155/10/4 156/10/4 161/10/4 162/10/4 163/10/4 164/10/4
f 63/10/36 61/10/36 60/10/31 56/10/31
f 64/10/19 62/10/19 61/10/36 63/10/36
f 65/10/37 67/10/37 62/10/19 64/10/19
f 66/10/38 68/10/38 67/10/37 65/10/37
f 69/10/39 68/10/38 66/10/38 71/10/39
f 70/10/21 69/10/39 71/10/39 72/10/21
f 75/10/40 70/10/21 72/10/21 73/10/40
f 76/10/41 75/10/40 73/10/40 74/10/41
f 77/10/42 76/10/41 74/10/41 79/10/42
f 78/10/22 77/10/42 79/10/42 80/10/22
f 83/10/43 78/10/22 80/10/22 81/10/43
f 84/10/44 83/10/43 81/10/43 82/10/44
f 85/10/45 84/10/44 82/10/44 87/10/45
f 86/10/23 85/10/45 87/10/45 88/10/23
f 91/10/46 86/10/23 88/10/23 89/10/46
f 92/10/47 91/10/46 89/10/46 90/10/47
f 93/10/48 92/10/47 90/10/47 95/10/48
f 94/10/24 93/10/48 95/10/48 96/10/24
f 99/10/49 94/10/24 96/10/24 97/10/49
f 100/10/50 99/10/49 97/10/49 98/10/50
f 103/10/51 101/10/51 100/10/50 98/10/50
f 104/10/25 102/10/25 101/10/51 103/10/51
f 105/10/52 107/10/52 102/10/25 104/10/25
f 106/10/53 109/10/53 107/10/52 105/10/52
f 118/10/33 122/10/54 132/10/54 133/10/54 108/10/34 107/10/35 109/10/54 110/10/54 111/10/54 116/10/54 117/10/34
f 112/10/55 110/10/55 109/10/53 106/10/53
f 113/10/26 111/10/26 110/10/55 112/10/55
f 114/10/56 116/10/56 111/10/26 113/10/26
f 115/10/57 119/10/57 117/10/58 116/10/56 114/10/56
f 121/10/59 120/10/59 119/10/57 115/10/57
f 57/10/20 59/10/20 120/10/59 121/10/59
f 129/10/60 122/10/60 118/10/60 123/10/60
f 123/10/61 118/10/61 124/10/61 125/10/61
f 125/10/62 124/10/62 126/10/62 127/10/62
f 127/10/63 126/10/63 128/10/63 53/10/63
f 130/10/64 132/10/64 122/10/64 129/10/64
f 131/10/65 133/10/65 132/10/65 130/10/65
f 134/10/66 108/10/66 133/10/66 131/10/66
f 135/10/67 137/10/67 108/10/67 134/10/67
f 136/10/68 138/10/68 137/10/68 135/10/68
f 141/10/69 139/10/69 138/10/69 136/10/69
f 142/10/70 140/10/70 139/10/70 141/10/70
f 143/10/71 145/10/71 140/10/71 142/10/71
f 144/10/72 146/10/72 145/10/72 143/10/72
f 149/10/73 147/10/73 146/10/73 144/10/73
f 150/10/74 148/10/74 147/10/74 149/10/74
f 151/10/75 153/10/75 148/10/75 150/10/75
f 152/10/76 154/10/76 153/10/76 151/10/76
f 157/10/77 155/10/77 154/10/77 152/10/77
f 158/10/58 156/10/58 155/10/58 157/10/58
f 159/10/78 161/10/78 156/10/78 158/10/78
f 160/10/79 162/10/79 161/10/79 159/10/79
f 165/10/80 163/10/80 162/10/80 160/10/80
f 166/10/81 164/10/81 163/10/81 165/10/81
f 167/10/82 169/10/82 164/10/82 166/10/82
f 168/10/83 170/10/83 169/10/83 167/10/83
f 173/10/84 171/10/84 170/10/84 168/10/84
f 174/10/85 172/10/85 171/10/85 173/10/85
f 175/10/86 176/10/86 172/10/86 174/10/86
f 50/10/87 177/10/87 176/10/87 175/10/87
s 0
f 178/18/41 180/19/41 185/22/41 179/23/41
f 179/42/47 182/38/47 181/28/47 178/29/47
f 181/28/3 183/30/3 180/31/3 178/32/3
f 182/38/53 184/39/53 183/30/53 181/28/53
f 184/39/31 185/41/31 180/35/31 183/30/31
f 179/23/4 185/22/4 184/39/4 182/38/4
f 186/18/41 188/19/41 193/22/41 187/23/41
f 187/42/47 190/38/47 189/28/47 186/29/47
f 189/28/3 191/30/3 188/31/3 186/32/3
f 190/38/53 192/39/53 191/30/53 189/28/53
f 192/39/31 193/41/31 188/35/31 191/30/31
f 187/23/4 193/22/4 192/39/4 190/38/4
s 1
f 194/10/28 196/10/28 322/10/28 195/10/28
f 200/10/3 197/10/27 194/10/3 195/10/3 320/10/3 319/10/3 318/10/3 313/10/3 312/10/3 311/10/3 310/10/27 219/10/3 218/10/3 217/10/3 216/10/3 211/10/3 210/10/3 209/10/3 208/10/3 201/10/3
f 197/10/29 199/10/29 196/10/29 194/10/29
f 198/10/30 273/10/30 199/10/30 197/10/30
f 219/10/3 310/10/27 305/10/27 304/10/27 303/10/27 302/10/27 297/10/27 296/10/27 295/10/27 294/10/27 289/10/27 288/10/27 287/10/27 286/10/27 281/10/27 280/10/27 279/10/27 276/10/27 275/10/27 274/10/27 268/10/27 270/10/27 272/10/27 198/10/27 197/10/27 200/10/3 202/10/27 266/10/27 260/10/27 259/10/27 258/10/27 257/10/27 251/10/27 250/10/27 249/10/27 248/10/27 243/10/27 242/10/27 241/10/27 240/10/27 235/10/27 234/10/27 233/10/27 232/10/27 227/10/27 226/10/27 225/10/27 224/10/27
f 201/10/31 205/10/31 203/10/32 200/10/32
f 200/10/32 203/10/32 204/10/20 202/10/20
f 314/10/4 315/10/4 316/10/4 317/10/4 321/10/4 322/10/4 196/10/4 199/10/4 273/10/4 271/10/4 269/10/4 263/10/33 262/10/34 264/10/4 265/10/4 204/10/4 203/10/4 205/10/4 206/10/4 207/10/4 212/10/4 213/10/4 214/10/4 215/10/4 220/10/4 221/10/4 222/10/4 223/10/4 228/10/4 229/10/4 230/10/4 231/10/4 236/10/4 237/10/4 238/10/4 239/10/4 244/10/4 245/10/4 246/10/4 247/10/4 252/10/35 253/10/34 282/10/4 283/10/4 284/10/4 285/10/4 290/10/4 291/10/4 292/10/4 293/10/4 298/10/4 299/10/4 300/10/4 301/10/4 306/10/4 307/10/4 308/10/4 309/10/4
f 208/10/36 206/10/36 205/10/31 201/10/31
f 209/10/19 207/10/19 206/10/36 208/10/36
f 210/10/37 212/10/37 207/10/19 209/10/19
f 211/10/38 213/10/38 212/10/37 210/10/37
f 214/10/39 213/10/38 211/10/38 216/10/39
f 215/10/21 214/10/39 216/10/39 217/10/21
f 220/10/40 215/10/21 217/10/21 218/10/40
f 221/10/41 220/10/40 218/10/40 219/10/41
f 222/10/42 221/10/41 219/10/41 224/10/42
f 223/10/22 222/10/42 224/10/42 225/10/22
f 228/10/43 223/10/22 225/10/22 226/10/43
f 229/10/44 228/10/43 226/10/43 227/10/44
f 230/10/45 229/10/44 227/10/44 232/10/45
f 231/10/23 230/10/45 232/10/45 233/10/23
f 236/10/46 231/10/23 233/10/23 234/10/46
f 237/10/47 236/10/46 234/10/46 235/10/47
f 238/10/48 237/10/47 235/10/47 240/10/48
f 239/10/24 238/10/48 240/10/48 241/10/24
f 244/10/49 239/10/24 241/10/24 242/10/49
f 245/10/50 244/10/49 242/10/49 243/10/50
f 248/10/51 246/10/51 245/10/50 243/10/50
f 249/10/25 247/10/25 246/10/51 248/10/51
f 250/10/52 252/10/52 247/10/25 249/10/25
f 251/10/53 254/10/53 252/10/52 250/10/52
f 263/10/33 267/10/54 277/10/54 278/10/54 253/10/34 252/10/35 254/10/54 255/10/54 256/10/54 261/10/54 262/10/34
f 257/10/55 255/10/55 254/10/53 251/10/53
f 258/10/26 256/10/26 255/10/55 257/10/55
f 259/10/56 261/10/56 256/10/26 258/10/26
f 260/10/57 264/10/57 262/10/58 261/10/56 259/10/56
f 266/10/59 265/10/59 264/10/57 260/10/57
f 202/10/20 204/10/20 265/10/59 266/10/59
f 274/10/60 267/10/60 263/10/60 268/10/60
f 268/10/61 263/10/61 269/10/61 270/10/61
f 270/10/62 269/10/62 271/10/62 272/10/62
f 272/10/63 271/10/63 273/10/63 198/10/63
f 275/10/64 277/10/64 267/10/64 274/10/64
f 276/10/65 278/10/65 277/10/65 275/10/65
f 279/10/66 253/10/66 278/10/66 276/10/66
f 280/10/67 282/10/67 253/10/67 279/10/67
f 281/10/68 283/10/68 282/10/68 280/10/68
f 286/10/69 284/10/69 283/10/69 281/10/69
f 287/10/70 285/10/70 284/10/70 286/10/70
f 288/10/71 290/10/71 285/10/71 287/10/71
f 289/10/72 291/10/72 290/10/72 288/10/72
f 294/10/73 292/10/73 291/10/73 289/10/73
f 295/10/74 293/10/74 292/10/74 294/10/74
f 296/10/75 298/10/75 293/10/75 295/10/75
f 297/10/76 299/10/76 298/10/76 296/10/76
f 302/10/77 300/10/77 299/10/77 297/10/77
f 303/10/58 301/10/58 300/10/58 302/10/58
f 304/10/78 306/10/78 301/10/78 303/10/78
f 305/10/79 307/10/79 306/10/79 304/10/79
f 310/10/80 308/10/80 307/10/80 305/10/80
f 311/10/81 309/10/81 308/10/81 310/10/81
f 312/10/82 314/10/82 309/10/82 311/10/82
f 313/10/83 315/10/83 314/10/83 312/10/83
f 318/10/84 316/10/84 315/10/84 313/10/84
f 319/10/85 317/10/85 316/10/85 318/10/85
f 320/10/86 321/10/86 317/10/86 319/10/86
f 195/10/87 322/10/87 321/10/87 320/10/87
s 0
f 323/18/88 325/72/88 373/73/88 324/74/88
f 324/75/89 328/76/89 326/77/89 323/29/89
f 326/78/90 327/79/90 325/80/90 323/32/90
f 329/81/3 330/82/3 327/79/3 326/78/3
f 328/76/91 332/83/91 329/84/91 326/77/91
f 331/28/92 375/85/92 330/82/92 329/81/92
f 332/83/93 333/86/93 331/28/93 329/84/93
f 334/87/94 335/88/94 333/86/94 332/83/94
f 336/89/47 334/87/47 332/83/47 328/76/47
f 337/90/95 338/38/95 335/88/95 334/87/95
f 339/91/96 337/90/96 334/87/96 336/89/96
f 337/92/97 340/93/97 341/94/97 338/38/97
f 342/95/98 340/93/98 337/92/98 339/96/98
f 340/93/99 343/97/99 344/98/99 341/94/99
f 345/99/4 343/97/4 340/93/4 342/95/4
f 343/97/100 346/100/100 347/39/100 344/98/100
f 348/101/101 346/100/101 343/97/101 345/99/101
f 347/39/102 346/102/102 349/103/102 350/104/102
f 346/102/103 348/105/103 351/106/103 349/103/103
f 349/103/104 352/107/104 353/108/104 350/104/104
f 354/109/31 352/107/31 349/103/31 351/106/31
f 353/108/105 352/107/105 355/110/105 356/30/105
f 352/107/106 354/109/106 357/111/106 355/110/106
f 359/112/92 356/30/92 355/113/92 358/114/92
f 358/114/3 355/113/3 357/115/3 360/116/3
f 359/112/92 358/114/92 330/82/92 375/85/92
f 330/82/3 358/114/3 360/116/3 327/79/3
f 360/116/90 357/115/90 363/31/90 361/117/90
f 327/79/90 360/116/90 361/117/90 325/80/90
f 325/72/88 361/118/88 362/119/88 373/73/88
f 361/118/88 363/19/88 364/120/88 362/119/88
f 354/109/107 364/121/107 363/35/107 357/111/107
f 364/121/108 354/109/108 351/106/108 365/122/108
f 362/119/41 364/120/41 365/123/41 366/124/41
f 348/105/109 367/41/109 365/122/109 351/106/109
f 366/124/110 365/123/110 367/22/110 368/125/110
f 368/125/111 367/22/111 348/101/111 345/99/111
f 368/125/112 345/99/112 342/95/112 369/126/112
f 370/127/113 366/124/114 368/125/114 369/126/113
f 371/23/115 369/126/115 342/95/115 339/96/115
f 372/128/116 370/127/116 369/126/116 371/23/116
f 371/42/117 339/91/117 336/89/117 372/129/117
f 372/129/118 336/89/118 328/76/118 324/75/118
f 324/74/119 373/73/119 370/127/120 372/128/121
f 373/73/122 362/119/122 366/124/122 370/127/122
f 374/130/123 353/108/123 356/30/123 359/112/123
f 376/131/124 374/130/124 359/112/124 375/85/124
f 333/86/125 376/131/125 375/85/125 331/28/125
f 378/132/53 374/130/53 376/131/53 377/133/53
f 377/133/126 376/131/126 333/86/126 335/88/126
f 341/94/127 344/98/127 378/132/127 377/133/127
f 338/38/128 341/94/128 377/133/128 335/88/128
f 378/132/129 350/104/129 353/108/129 374/130/129
f 344/98/130 347/39/130 350/104/130 378/132/130
f 384/44/19 380/45/19 379/46/19 382/42/19
f 380/47/20 394/48/20 381/41/20 379/49/20
f 379/50/4 381/51/4 391/52/4 390/53/4 389/54/4 388/55/4 383/56/4 382/57/4
f 385/58/21 384/44/21 382/42/21 383/59/21
f 380/60/3 384/61/3 385/62/3 386/63/3 387/64/3 392/65/3 393/66/3 394/67/3
f 386/32/22 385/58/22 383/59/22 388/38/22
f 387/68/23 386/32/23 388/38/23 389/69/23
f 392/31/24 387/68/24 389/69/24 390/39/24
f 393/70/25 392/31/25 390/39/25 391/71/25
f 394/48/26 393/70/26 391/71/26 381/41/26
s 1
f 401/10/3 398/10/27 395/10/3 396/10/3 521/10/3 520/10/3 519/10/3 514/10/3 513/10/3 512/10/3 511/10/27 420/10/3 419/10/3 418/10/3 417/10/3 412/10/3 411/10/3 410/10/3 409/10/3 402/10/3
f 395/10/28 397/10/28 523/10/28 396/10/28
f 398/10/29 400/10/29 397/10/29 395/10/29
f 420/10/3 511/10/27 506/10/27 505/10/27 504/10/27 503/10/27 498/10/27 497/10/27 496/10/27 495/10/27 490/10/27 489/10/27 488/10/27 487/10/27 482/10/27 481/10/27 480/10/27 477/10/27 476/10/27 475/10/27 469/10/27 471/10/27 473/10/27 399/10/27 398/10/27 401/10/3 403/10/27 467/10/27 461/10/27 460/10/27 459/10/27 458/10/27 452/10/27 451/10/27 450/10/27 449/10/27 444/10/27 443/10/27 442/10/27 441/10/27 436/10/27 435/10/27 434/10/27 433/10/27 428/10/27 427/10/27 426/10/27 425/10/27
f 399/10/30 474/10/30 400/10/30 398/10/30
f 402/10/31 406/10/31 404/10/32 401/10/32
f 401/10/32 404/10/32 405/10/20 403/10/20
f 515/10/4 516/10/4 517/10/4 518/10/4 522/10/4 523/10/4 397/10/4 400/10/4 474/10/4 472/10/4 470/10/4 464/10/33 463/10/34 465/10/4 466/10/4 405/10/4 404/10/4 406/10/4 407/10/4 408/10/4 413/10/4 414/10/4 415/10/4 416/10/4 421/10/4 422/10/4 423/10/4 424/10/4 429/10/4 430/10/4 431/10/4 432/10/4 437/10/4 438/10/4 439/10/4 440/10/4 445/10/4 446/10/4 447/10/4 448/10/4 453/10/35 454/10/34 483/10/4 484/10/4 485/10/4 486/10/4 491/10/4 492/10/4 493/10/4 494/10/4 499/10/4 500/10/4 501/10/4 502/10/4 507/10/4 508/10/4 509/10/4 510/10/4
f 409/10/36 407/10/36 406/10/31 402/10/31
f 410/10/19 408/10/19 407/10/36 409/10/36
f 411/10/37 413/10/37 408/10/19 410/10/19
f 412/10/38 414/10/38 413/10/37 411/10/37
f 415/10/39 414/10/38 412/10/38 417/10/39
f 416/10/21 415/10/39 417/10/39 418/10/21
f 421/10/40 416/10/21 418/10/21 419/10/40
f 422/10/41 421/10/40 419/10/40 420/10/41
f 423/10/42 422/10/41 420/10/41 425/10/42
f 424/10/22 423/10/42 425/10/42 426/10/22
f 429/10/43 424/10/22 426/10/22 427/10/43
f 430/10/44 429/10/43 427/10/43 428/10/44
f 431/10/45 430/10/44 428/10/44 433/10/45
f 432/10/23 431/10/45 433/10/45 434/10/23
f 437/10/46 432/10/23 434/10/23 435/10/46
f 438/10/47 437/10/46 435/10/46 436/10/47
f 439/10/48 438/10/47 436/10/47 441/10/48
f 440/10/24 439/10/48 441/10/48 442/10/24
f 445/10/49 440/10/24 442/10/24 443/10/49
f 446/10/50 445/10/49 443/10/49 444/10/50
f 449/10/51 447/10/51 446/10/50 444/10/50
f 450/10/25 448/10/25 447/10/51 449/10/51
f 451/10/52 453/10/52 448/10/25 450/10/25
f 452/10/53 455/10/53 453/10/52 451/10/52
f 464/10/33 468/10/54 478/10/54 479/10/54 454/10/34 453/10/35 455/10/54 456/10/54 457/10/54 462/10/54 463/10/34
f 458/10/55 456/10/55 455/10/53 452/10/53
f 459/10/26 457/10/26 456/10/55 458/10/55
f 460/10/56 462/10/56 457/10/26 459/10/26
f 461/10/57 465/10/57 463/10/58 462/10/56 460/10/56
f 467/10/59 466/10/59 465/10/57 461/10/57
f 403/10/20 405/10/20 466/10/59 467/10/59
f 475/10/60 468/10/60 464/10/60 469/10/60
f 469/10/61 464/10/61 470/10/61 471/10/61
f 471/10/62 470/10/62 472/10/62 473/10/62
f 473/10/63 472/10/63 474/10/63 399/10/63
f 476/10/64 478/10/64 468/10/64 475/10/64
f 477/10/65 479/10/65 478/10/65 476/10/65
f 480/10/66 454/10/66 479/10/66 477/10/66
f 481/10/67 483/10/67 454/10/67 480/10/67
f 482/10/68 484/10/68 483/10/68 481/10/68
f 487/10/69 485/10/69 484/10/69 482/10/69
f 488/10/70 486/10/70 485/10/70 487/10/70
f 489/10/71 491/10/71 486/10/71 488/10/71
f 490/10/72 492/10/72 491/10/72 489/10/72
f 495/10/73 493/10/73 492/10/73 490/10/73
f 496/10/74 494/10/74 493/10/74 495/10/74
f 497/10/75 499/10/75 494/10/75 496/10/75
f 498/10/76 500/10/76 499/10/76 497/10/76
f 503/10/77 501/10/77 500/10/77 498/10/77
f 504/10/58 502/10/58 501/10/58 503/10/58
f 505/10/78 507/10/78 502/10/78 504/10/78
f 506/10/79 508/10/79 507/10/79 505/10/79
f 511/10/80 509/10/80 508/10/80 506/10/80
f 512/10/81 510/10/81 509/10/81 511/10/81
f 513/10/82 515/10/82 510/10/82 512/10/82
f 514/10/83 516/10/83 515/10/83 513/10/83
f 519/10/84 517/10/84 516/10/84 514/10/84
f 520/10/85 518/10/85 517/10/85 519/10/85
f 521/10/86 522/10/86 518/10/86 520/10/86
f 396/10/87 523/10/87 522/10/87 521/10/87
s 0
f 524/18/41 526/19/41 531/22/41 525/23/41
f 525/42/47 528/38/47 527/28/47 524/29/47
f 527/28/3 529/30/3 526/31/3 524/32/3
f 528/38/53 530/39/53 529/30/53 527/28/53
f 530/39/31 531/41/31 526/35/31 529/30/31
f 525/23/4 531/22/4 530/39/4 528/38/4
f 532/18/41 534/19/41 539/22/41 533/23/41
f 533/42/47 536/38/47 535/28/47 532/29/47
f 535/28/3 537/30/3 534/31/3 532/32/3
f 536/38/53 538/39/53 537/30/53 535/28/53
f 538/39/31 539/41/31 534/35/31 537/30/31
f 533/23/4 539/22/4 538/39/4 536/38/4
s 1
f 540/10/28 542/10/28 668/10/28 541/10/28
f 546/10/3 543/10/27 540/10/3 541/10/3 666/10/3 665/10/3 664/10/3 659/10/3 658/10/3 657/10/3 656/10/27 565/10/3 564/10/3 563/10/3 562/10/3 557/10/3 556/10/3 555/10/3 554/10/3 547/10/3
f 543/10/29 545/10/29 542/10/29 540/10/29
f 544/10/30 619/10/30 545/10/30 543/10/30
f 565/10/3 656/10/27 651/10/27 650/10/27 649/10/27 648/10/27 643/10/27 642/10/27 641/10/27 640/10/27 635/10/27 634/10/27 633/10/27 632/10/27 627/10/27 626/10/27 625/10/27 622/10/27 621/10/27 620/10/27 614/10/27 616/10/27 618/10/27 544/10/27 543/10/27 546/10/3 548/10/27 612/10/27 606/10/27 605/10/27 604/10/27 603/10/27 597/10/27 596/10/27 595/10/27 594/10/27 589/10/27 588/10/27 587/10/27 586/10/27 581/10/27 580/10/27 579/10/27 578/10/27 573/10/27 572/10/27 571/10/27 570/10/27
f 547/10/31 551/10/31 549/10/32 546/10/32
f 546/10/32 549/10/32 550/10/20 548/10/20
f 660/10/4 661/10/4 662/10/4 663/10/4 667/10/4 668/10/4 542/10/4 545/10/4 619/10/4 617/10/4 615/10/4 609/10/33 608/10/34 610/10/4 611/10/4 550/10/4 549/10/4 551/10/4 552/10/4 553/10/4 558/10/4 559/10/4 560/10/4 561/10/4 566/10/4 567/10/4 568/10/4 569/10/4 574/10/4 575/10/4 576/10/4 577/10/4 582/10/4 583/10/4 584/10/4 585/10/4 590/10/4 591/10/4 592/10/4 593/10/4 598/10/35 599/10/34 628/10/4 629/10/4 630/10/4 631/10/4 636/10/4 637/10/4 638/10/4 639/10/4 644/10/4 645/10/4 646/10/4 647/10/4 652/10/4 653/10/4 654/10/4 655/10/4
f 554/10/36 552/10/36 551/10/31 547/10/31
f 555/10/19 553/10/19 552/10/36 554/10/36
f 556/10/37 558/10/37 553/10/19 555/10/19
f 557/10/38 559/10/38 558/10/37 556/10/37
f 560/10/39 559/10/38 557/10/38 562/10/39
f 561/10/21 560/10/39 562/10/39 563/10/21
f 566/10/40 561/10/21 563/10/21 564/10/40
f 567/10/41 566/10/40 564/10/40 565/10/41
f 568/10/42 567/10/41 565/10/41 570/10/42
f 569/10/22 568/10/42 570/10/42 571/10/22
f 574/10/43 569/10/22 571/10/22 572/10/43
f 575/10/44 574/10/43 572/10/43 573/10/44
f 576/10/45 575/10/44 573/10/44 578/10/45
f 577/10/23 576/10/45 578/10/45 579/10/23
f 582/10/46 577/10/23 579/10/23 580/10/46
f 583/10/47 582/10/46 580/10/46 581/10/47
f 584/10/48 583/10/47 581/10/47 586/10/48
f 585/10/24 584/10/48 586/10/48 587/10/24
f 590/10/49 585/10/24 587/10/24 588/10/49
f 591/10/50 590/10/49 588/10/49 589/10/50
f 594/10/51 592/10/51 591/10/50 589/10/50
f 595/10/25 593/10/25 592/10/51 594/10/51
f 596/10/52 598/10/52 593/10/25 595/10/25
f 597/10/53 600/10/53 598/10/52 596/10/52
f 609/10/33 613/10/54 623/10/54 624/10/54 599/10/34 598/10/35 600/10/54 601/10/54 602/10/54 607/10/54 608/10/34
f 603/10/55 601/10/55 600/10/53 597/10/53
f 604/10/26 602/10/26 601/10/55 603/10/55
f 605/10/56 607/10/56 602/10/26 604/10/26
f 606/10/57 610/10/57 608/10/58 607/10/56 605/10/56
f 612/10/59 611/10/59 610/10/57 606/10/57
f 548/10/20 550/10/20 611/10/59 612/10/59
f 620/10/60 613/10/60 609/10/60 614/10/60
f 614/10/61 609/10/61 615/10/61 616/10/61
f 616/10/62 615/10/62 617/10/62 618/10/62
f 618/10/63 617/10/63 619/10/63 544/10/63
f 621/10/64 623/10/64 613/10/64 620/10/64
f 622/10/65 624/10/65 623/10/65 621/10/65
f 625/10/66 599/10/66 624/10/66 622/10/66
f 626/10/67 628/10/67 599/10/67 625/10/67
f 627/10/68 629/10/68 628/10/68 626/10/68
f 632/10/69 630/10/69 629/10/69 627/10/69
f 633/10/70 631/10/70 630/10/70 632/10/70
f 634/10/71 636/10/71 631/10/71 633/10/71
f 635/10/72 637/10/72 636/10/72 634/10/72
f 640/10/73 638/10/73 637/10/73 635/10/73
f 641/10/74 639/10/74 638/10/74 640/10/74
f 642/10/75 644/10/75 639/10/75 641/10/75
f 643/10/76 645/10/76 644/10/76 642/10/76
f 648/10/77 646/10/77 645/10/77 643/10/77
f 649/10/58 647/10/58 646/10/58 648/10/58
f 650/10/78 652/10/78 647/10/78 649/10/78
f 651/10/79 653/10/79 652/10/79 650/10/79
f 656/10/80 654/10/80 653/10/80 651/10/80
f 657/10/81 655/10/81 654/10/81 656/10/81
f 658/10/82 660/10/82 655/10/82 657/10/82
f 659/10/83 661/10/83 660/10/83 658/10/83
f 664/10/84 662/10/84 661/10/84 659/10/84
f 665/10/85 663/10/85 662/10/85 664/10/85
f 666/10/86 667/10/86 663/10/86 665/10/86
f 541/10/87 668/10/87 667/10/87 666/10/87
s 0
f 684/1/131 674/2/131 673/3/131 675/4/131
f 670/5/132 672/6/132 671/7/132 669/8/132
f 671/7/53 672/6/53 677/9/53 674/10/53
f 671/7/131 674/10/131 684/10/131 681/11/131
f 681/11/41 684/1/41 683/12/41 682/13/41
f 676/14/133 673/3/133 674/2/133 677/9/133
f 678/15/134 675/4/134 673/3/134 676/14/134
f 672/6/131 677/9/131 683/12/131 682/13/131
f 682/13/135 672/6/135 670/5/135 679/16/135
f 669/8/136 680/17/136 679/16/136 670/5/136
f 669/8/131 671/7/131 681/11/131 680/17/131
f 680/17/137 681/11/137 682/13/137 679/16/137
f 683/12/138 684/1/138 675/4/138 678/15/138
f 676/14/135 677/9/135 683/12/135 678/15/135
f 700/1/139 690/2/139 689/3/139 691/4/139
f 686/5/140 688/6/140 687/7/140 685/8/140
f 687/7/53 688/6/53 693/9/53 690/10/53
f 687/7/139 690/10/139 700/10/139 697/11/139
f 697/11/41 700/1/41 699/12/41 698/13/41
f 692/14/141 689/3/141 690/2/141 693/9/141
f 694/15/142 691/4/142 689/3/142 692/14/142
f 688/6/139 693/9/139 699/12/139 698/13/139
f 698/13/143 688/6/143 686/5/143 695/16/143
f 685/8/144 696/17/144 695/16/144 686/5/144
f 685/8/139 687/7/139 697/11/139 696/17/139
f 696/17/145 697/11/145 698/13/145 695/16/145
f 699/12/146 700/1/146 691/4/146 694/15/146
f 692/14/143 693/9/143 699/12/143 694/15/143
