# Blender 4.4.3
# www.blender.org
mtllib Gunner.mtl
o 立方体.004
v -0.062559 1.458490 -0.186530
v -0.062559 1.478722 -0.262037
v -0.023474 1.793398 -0.137253
v 0.015611 1.458490 -0.186530
v 0.015611 1.478722 -0.262037
v -0.062559 1.478722 0.260497
v -0.062559 1.458490 0.184991
v -0.023474 1.793400 0.135719
v 0.015611 1.478722 0.260497
v 0.015611 1.458490 0.184991
v 0.325636 1.124103 0.129863
v 0.325613 1.050908 0.042936
v 0.444037 1.124066 0.129863
v 0.325673 1.241220 0.129863
v 0.444074 1.241183 0.129863
v 0.325696 1.314414 0.042936
v 0.325696 1.313053 -0.043992
v 0.444097 1.313016 0.042936
v 0.444097 1.313016 -0.043992
v 0.444074 1.241183 -0.130921
v 0.325673 1.241220 -0.130921
v 0.444037 1.124066 -0.130921
v 0.325636 1.124103 -0.130921
v 0.444014 1.052232 -0.043992
v 0.444014 1.052232 0.042936
v 0.325613 1.052269 -0.043992
v -0.399572 0.863988 0.344910
v -0.466485 0.863988 0.209970
v -0.260537 0.863988 0.411823
v -0.399572 1.492036 0.344910
v -0.466485 1.492036 0.209970
v -0.260538 1.492036 0.411823
v -0.260537 1.525297 0.209970
v 0.143172 1.492036 0.411823
v 0.143172 0.863988 0.411823
v 0.274020 1.492036 0.344910
v 0.143172 1.525297 0.209970
v 0.143172 1.525297 -0.193741
v 0.340934 1.492036 0.209970
v 0.340934 1.492036 -0.193741
v 0.340934 0.863988 0.209970
v 0.143172 0.811469 0.209970
v 0.274020 0.863988 0.344910
v 0.340934 0.863988 -0.193741
v 0.274020 0.863988 -0.328681
v 0.143172 0.811469 -0.193741
v -0.260537 0.811469 -0.193741
v 0.143172 0.863988 -0.395594
v 0.143172 1.492036 -0.395594
v -0.260537 0.863988 -0.395594
v -0.399572 0.863988 -0.328681
v -0.260537 1.492036 -0.395594
v -0.260537 1.525297 -0.193741
v -0.399572 1.492036 -0.328681
v -0.466485 1.492036 -0.193741
v -0.466485 0.863988 -0.193741
v 0.274020 1.492036 -0.328681
v -0.260537 0.811469 0.209970
v -0.001819 0.309349 -0.207623
v 0.034215 0.274406 -0.207623
v -0.001819 0.309349 -0.224573
v -0.041586 0.313265 -0.207623
v -0.020525 0.399059 -0.207623
v -0.041586 0.313265 -0.224573
v -0.083559 0.286005 -0.207623
v -0.083559 0.286005 -0.224573
v -0.118801 0.304842 -0.207623
v -0.119029 0.354909 -0.207623
v -0.118801 0.304842 -0.224573
v -0.119029 0.354909 -0.224573
v -0.144380 0.385798 -0.224573
v -0.068947 0.431183 -0.224573
v -0.193877 0.396323 -0.224573
v -0.144380 0.385798 -0.207623
v -0.193877 0.396323 -0.207623
v -0.205477 0.434562 -0.207623
v -0.170658 0.470410 -0.207476
v -0.205477 0.434562 -0.224573
v -0.170658 0.470410 -0.224719
v -0.166741 0.510178 -0.224573
v -0.080824 0.489302 -0.224573
v -0.193877 0.552336 -0.224573
v -0.166741 0.510178 -0.207623
v -0.193877 0.552336 -0.207623
v -0.175041 0.587577 -0.207623
v -0.125097 0.588418 -0.207623
v -0.175041 0.587577 -0.224573
v -0.125097 0.588418 -0.224573
v -0.094207 0.613768 -0.224573
v -0.083559 0.662654 -0.224573
v -0.094207 0.613768 -0.207623
v -0.083559 0.662654 -0.207623
v -0.045320 0.674253 -0.207623
v -0.009279 0.639582 -0.207623
v -0.045320 0.674253 -0.224573
v -0.009279 0.639582 -0.224573
v 0.030488 0.635665 -0.224573
v 0.072454 0.662654 -0.224573
v 0.030488 0.635665 -0.207623
v 0.072454 0.662654 -0.207623
v 0.107695 0.643817 -0.207623
v 0.108797 0.593893 -0.207623
v 0.107695 0.643817 -0.224573
v 0.108797 0.593893 -0.224573
v 0.134147 0.563004 -0.224573
v 0.182772 0.552336 -0.224573
v 0.134147 0.563004 -0.207623
v 0.182772 0.552336 -0.207623
v 0.194371 0.514097 -0.207623
v 0.159373 0.477381 -0.207623
v 0.194371 0.514097 -0.224573
v 0.159373 0.477381 -0.224573
v 0.155457 0.437614 -0.224573
v 0.182772 0.396323 -0.224573
v 0.155457 0.437614 -0.207623
v 0.182772 0.396323 -0.207623
v 0.163935 0.361082 -0.207623
v 0.114493 0.360436 -0.207623
v 0.163935 0.361082 -0.224573
v 0.114493 0.360436 -0.224573
v 0.083603 0.335086 -0.224573
v 0.072454 0.286005 -0.224573
v 0.083603 0.335086 -0.207623
v 0.072454 0.286005 -0.207623
v 0.034215 0.274406 -0.224573
v 0.071193 0.474330 -0.207623
v 0.069718 0.459357 -0.207623
v 0.069718 0.489302 -0.207623
v 0.071193 0.474330 -0.224573
v 0.069718 0.459357 -0.224573
v 0.069718 0.489302 -0.224573
v 0.065351 0.503699 -0.224573
v 0.058259 0.516967 -0.224573
v 0.065351 0.503699 -0.207623
v 0.058259 0.516967 -0.207623
v 0.048715 0.528597 -0.207623
v 0.037085 0.538142 -0.207623
v 0.048715 0.528597 -0.224573
v 0.037085 0.538142 -0.224573
v 0.023817 0.545234 -0.224573
v 0.009419 0.549601 -0.224573
v 0.023817 0.545234 -0.207623
v 0.009419 0.549601 -0.207623
v -0.005553 0.551075 -0.207623
v -0.020525 0.549601 -0.207623
v -0.005553 0.551075 -0.224573
v -0.020525 0.549601 -0.224573
v -0.034922 0.545234 -0.224573
v -0.048191 0.538142 -0.224573
v -0.034922 0.545234 -0.207623
v -0.048191 0.538142 -0.207623
v -0.059820 0.528597 -0.207623
v -0.069365 0.516967 -0.207623
v -0.059820 0.528597 -0.224573
v -0.069365 0.516967 -0.224573
v -0.076457 0.503699 -0.224573
v -0.076457 0.503699 -0.207623
v -0.080824 0.489302 -0.207623
v -0.082299 0.474330 -0.207623
v -0.080824 0.459357 -0.207623
v -0.082299 0.474330 -0.224573
v -0.080824 0.459357 -0.224573
v -0.076457 0.444960 -0.224573
v -0.069365 0.431692 -0.224573
v -0.076457 0.444960 -0.207623
v -0.069365 0.431692 -0.207623
v -0.059820 0.420062 -0.207623
v -0.048190 0.410518 -0.207623
v -0.059820 0.420062 -0.224573
v -0.048190 0.410518 -0.224573
v -0.034922 0.403426 -0.224573
v -0.020525 0.399059 -0.224573
v -0.034922 0.403426 -0.207623
v -0.005553 0.397584 -0.224573
v -0.005553 0.397584 -0.207623
v 0.009419 0.399059 -0.224573
v 0.023817 0.403426 -0.224573
v 0.009419 0.399059 -0.207623
v 0.023817 0.403426 -0.207623
v 0.037085 0.410518 -0.207623
v 0.048715 0.420062 -0.207623
v 0.037085 0.410518 -0.224573
v 0.048715 0.420062 -0.224573
v 0.058259 0.431692 -0.224573
v 0.065351 0.444960 -0.224573
v 0.058259 0.431692 -0.207623
v 0.065351 0.444960 -0.207623
v -0.005553 0.743495 -0.138090
v -0.005553 0.743495 0.134327
v 0.246041 0.639281 -0.138090
v -0.257147 0.639281 -0.138090
v -0.257147 0.639281 0.134327
v -0.361360 0.387687 -0.138090
v -0.257147 0.136093 -0.138090
v -0.361360 0.387687 0.134327
v -0.257147 0.136093 0.134327
v -0.005553 0.031880 0.134327
v 0.246041 0.136093 0.134327
v -0.005553 0.031880 -0.138090
v 0.246041 0.136093 -0.138090
v 0.350254 0.387687 -0.138090
v 0.350254 0.387687 0.134327
v 0.246041 0.639281 0.134327
v -0.085331 0.386245 0.201143
v -0.085331 0.386245 0.145622
v 0.074225 0.386245 0.201143
v -0.085331 0.824788 0.201143
v -0.085331 0.824788 0.145621
v 0.074225 0.824788 0.201143
v 0.074225 0.824788 0.145621
v 0.074225 0.386245 0.145622
v -0.085331 0.386245 -0.149389
v -0.085331 0.386245 -0.204910
v 0.074225 0.386245 -0.149389
v -0.085331 0.824788 -0.149389
v -0.085331 0.824788 -0.204910
v 0.074225 0.824788 -0.149389
v 0.074225 0.824788 -0.204910
v 0.074225 0.386245 -0.204910
v -0.001819 0.309348 0.220808
v -0.041586 0.313265 0.220808
v 0.034214 0.274405 0.220808
v -0.001819 0.309348 0.203857
v 0.034214 0.274405 0.203857
v -0.041586 0.313265 0.203857
v -0.083560 0.286005 0.203857
v -0.083560 0.286005 0.220808
v -0.118801 0.304842 0.203857
v -0.119029 0.354909 0.203857
v -0.118801 0.304842 0.220808
v -0.119029 0.354909 0.220808
v -0.144380 0.385798 0.220808
v -0.193878 0.396323 0.220808
v -0.144380 0.385798 0.203857
v -0.068947 0.431183 0.203857
v -0.193878 0.396323 0.203857
v -0.205477 0.434562 0.203857
v -0.170658 0.470410 0.203710
v -0.205477 0.434562 0.220808
v -0.170658 0.470410 0.220954
v -0.166741 0.510177 0.220808
v -0.193878 0.552336 0.220808
v -0.166741 0.510177 0.203857
v -0.080824 0.489302 0.203857
v -0.193878 0.552336 0.203857
v -0.175041 0.587577 0.203857
v -0.125097 0.588417 0.203857
v -0.175041 0.587577 0.220808
v -0.125097 0.588417 0.220808
v -0.094208 0.613768 0.220808
v -0.083559 0.662654 0.220808
v -0.094208 0.613768 0.203857
v -0.083559 0.662654 0.203857
v -0.045320 0.674253 0.203857
v -0.009280 0.639582 0.203857
v -0.045320 0.674253 0.220808
v -0.009280 0.639582 0.220808
v 0.030488 0.635665 0.220808
v 0.072454 0.662654 0.220808
v 0.030488 0.635665 0.203857
v 0.072454 0.662654 0.203857
v 0.107695 0.643817 0.203857
v 0.108797 0.593892 0.203857
v 0.107695 0.643817 0.220808
v 0.108797 0.593892 0.220808
v 0.134147 0.563003 0.220808
v 0.182772 0.552336 0.220808
v 0.134147 0.563003 0.203857
v 0.182772 0.552336 0.203857
v 0.194371 0.514097 0.203857
v 0.159373 0.477381 0.203857
v 0.194371 0.514097 0.220808
v 0.159373 0.477381 0.220808
v 0.155456 0.437614 0.220808
v 0.071193 0.474329 0.220808
v 0.069718 0.459357 0.220808
v 0.069718 0.489302 0.220808
v 0.071193 0.474329 0.203857
v 0.069718 0.459357 0.203857
v 0.069718 0.489302 0.203857
v 0.065351 0.503699 0.203857
v 0.058259 0.516967 0.203857
v 0.065351 0.503699 0.220808
v 0.058259 0.516967 0.220808
v 0.048714 0.528596 0.220808
v 0.037085 0.538141 0.220808
v 0.048714 0.528596 0.203857
v 0.037085 0.538141 0.203857
v 0.023816 0.545233 0.203857
v 0.009419 0.549601 0.203857
v 0.023816 0.545233 0.220808
v 0.009419 0.549601 0.220808
v -0.005553 0.551075 0.220808
v -0.020525 0.549601 0.220808
v -0.005553 0.551075 0.203857
v -0.020525 0.549601 0.203857
v -0.034922 0.545233 0.203857
v -0.048191 0.538141 0.203857
v -0.034922 0.545233 0.220808
v -0.048191 0.538141 0.220808
v -0.059820 0.528596 0.220808
v -0.069365 0.516967 0.220808
v -0.059820 0.528596 0.203857
v -0.069365 0.516967 0.203857
v -0.076457 0.503698 0.203857
v -0.076457 0.503698 0.220808
v -0.080824 0.489302 0.220808
v -0.082299 0.474329 0.220808
v -0.080824 0.459357 0.220808
v -0.082299 0.474329 0.203857
v -0.080824 0.459357 0.203857
v -0.076457 0.444960 0.203857
v -0.069365 0.431692 0.203857
v -0.076457 0.444960 0.220808
v -0.069365 0.431692 0.220808
v -0.059820 0.420062 0.220808
v -0.048191 0.410518 0.220808
v -0.059820 0.420062 0.203857
v -0.048191 0.410518 0.203857
v -0.034922 0.403426 0.203857
v -0.020525 0.399058 0.203857
v -0.034922 0.403426 0.220808
v -0.020525 0.399058 0.220808
v -0.005553 0.397584 0.220808
v 0.009419 0.399059 0.220808
v -0.005553 0.397584 0.203857
v 0.009419 0.399059 0.203857
v 0.023816 0.403426 0.203857
v 0.037085 0.410518 0.203857
v 0.023816 0.403426 0.220808
v 0.037085 0.410518 0.220808
v 0.048714 0.420062 0.220808
v 0.058259 0.431692 0.220808
v 0.048714 0.420062 0.203857
v 0.058259 0.431692 0.203857
v 0.065351 0.444960 0.203857
v 0.065351 0.444960 0.220808
v 0.182772 0.396323 0.220808
v 0.155456 0.437614 0.203857
v 0.182772 0.396323 0.203857
v 0.163935 0.361081 0.203857
v 0.114493 0.360436 0.203857
v 0.163935 0.361081 0.220808
v 0.114493 0.360436 0.220808
v 0.083603 0.335086 0.220808
v 0.072454 0.286005 0.220808
v 0.083603 0.335086 0.203857
v 0.072454 0.286005 0.203857
vn -0.9933 0.1115 0.0299
vn -0.0000 -0.1456 0.9893
vn 0.9933 0.1115 0.0299
vn -0.0000 0.3686 -0.9296
vn -0.9933 0.1115 -0.0299
vn -0.0000 0.3686 0.9296
vn 0.9933 0.1115 -0.0299
vn -0.0000 -0.1456 -0.9894
vn 0.0042 -0.7679 0.6406
vn -0.0000 -0.0000 1.0000
vn 0.0047 0.7679 0.6406
vn 0.0061 1.0000 -0.0078
vn 1.0000 -0.0003 -0.0000
vn 0.0002 0.7709 -0.6370
vn -0.0000 -0.0000 -1.0000
vn -0.0002 -0.7709 -0.6370
vn 0.0054 -1.0000 -0.0078
vn -0.8959 -0.0000 0.4443
vn -0.1832 -0.9651 0.1869
vn -0.4337 -0.0000 0.9011
vn -0.1185 0.9856 0.1209
vn -0.0000 0.9867 0.1626
vn 0.4553 -0.0000 0.8903
vn 0.1245 0.9847 0.1220
vn -0.0000 1.0000 -0.0000
vn 0.1659 0.9861 -0.0000
vn 1.0000 -0.0000 -0.0000
vn 0.8959 -0.0000 0.4443
vn 0.2567 -0.9665 -0.0000
vn 0.1923 -0.9631 0.1884
vn 0.8959 -0.0000 -0.4443
vn 0.1923 -0.9631 -0.1884
vn -0.0000 -1.0000 -0.0000
vn -0.0000 -0.9678 -0.2518
vn 0.4553 -0.0000 -0.8903
vn -0.1832 -0.9651 -0.1869
vn -0.4337 -0.0000 -0.9011
vn -0.0000 0.9867 -0.1626
vn -0.1185 0.9856 -0.1209
vn -0.8959 -0.0000 -0.4443
vn -1.0000 -0.0000 -0.0000
vn -0.1594 0.9872 -0.0000
vn -0.2471 -0.9690 -0.0000
vn 0.1245 0.9847 -0.1220
vn -0.0000 -0.9678 0.2518
vn 0.0001 -0.0000 1.0000
vn -0.6962 -0.7179 -0.0000
vn -0.0980 -0.9952 -0.0000
vn 0.5447 -0.8386 -0.0000
vn -0.4714 -0.8819 -0.0000
vn -1.0000 -0.0046 -0.0000
vn 0.0003 -0.0002 -1.0000
vn 0.0002 -0.0001 -1.0000
vn 0.0003 -0.0001 -1.0000
vn -0.7730 -0.6344 -0.0000
vn 0.0005 -0.0003 -1.0000
vn -0.2080 -0.9781 -0.0000
vn -0.9569 -0.2903 -0.0000
vn -0.7173 0.6967 -0.0000
vn -0.9952 0.0980 -0.0000
vn -0.8409 -0.5412 -0.0000
vn -0.8819 0.4714 -0.0000
vn -0.0168 0.9999 -0.0000
vn -0.6344 0.7730 -0.0000
vn -0.9771 0.2128 -0.0000
vn -0.2903 0.9569 -0.0000
vn 0.6933 0.7207 -0.0000
vn 0.0980 0.9952 -0.0000
vn -0.5409 0.8411 -0.0000
vn 0.4714 0.8819 -0.0000
vn 0.9998 0.0221 -0.0000
vn 0.7730 0.6344 -0.0000
vn 0.2143 0.9768 -0.0000
vn 0.9569 0.2903 -0.0000
vn 0.7238 -0.6900 -0.0000
vn 0.9952 -0.0980 -0.0000
vn 0.8340 0.5517 -0.0000
vn 0.8819 -0.4714 -0.0000
vn 0.0131 -0.9999 -0.0000
vn 0.6344 -0.7730 -0.0000
vn 0.9752 -0.2215 -0.0000
vn 0.2903 -0.9569 -0.0000
vn -0.9808 0.1951 -0.0000
vn -0.9808 -0.1951 -0.0000
vn -0.9239 -0.3827 -0.0000
vn -0.8315 -0.5556 -0.0000
vn -0.7071 -0.7071 -0.0000
vn -0.5556 -0.8315 -0.0000
vn -0.3827 -0.9239 -0.0000
vn -0.1951 -0.9808 -0.0000
vn 0.1951 -0.9808 -0.0000
vn 0.3827 -0.9239 -0.0000
vn 0.5556 -0.8315 -0.0000
vn 0.7071 -0.7071 -0.0000
vn 0.8315 -0.5556 -0.0000
vn 0.9239 -0.3827 -0.0000
vn 0.9808 -0.1951 -0.0000
vn 0.9808 0.1951 -0.0000
vn 0.9239 0.3827 -0.0000
vn 0.8315 0.5556 -0.0000
vn 0.7071 0.7071 -0.0000
vn 0.5556 0.8315 -0.0000
vn 0.3827 0.9239 -0.0000
vn 0.1951 0.9808 -0.0000
vn -0.1951 0.9808 -0.0000
vn -0.3827 0.9239 -0.0000
vn -0.5556 0.8315 -0.0000
vn -0.7071 0.7071 -0.0000
vn -0.8315 0.5556 -0.0000
vn -0.9239 0.3827 -0.0000
vn 0.5447 -0.8387 -0.0000
vn -0.8314 -0.5556 -0.0000
vn 0.0130 -0.9999 -0.0000
vt 0.125000 0.750000
vt 0.000000 0.000000
vt 0.125000 0.500000
vt 0.375000 0.750000
vt 0.375000 0.500000
vt 0.056935 0.016636
vt 0.085899 0.052215
vt 0.052218 0.080047
vt 0.022996 0.044685
vt 0.052219 0.125424
vt 0.006344 0.125424
vt 0.006344 0.080048
vt 0.085899 0.153256
vt 0.056935 0.188835
vt 0.022996 0.160787
vt 0.119579 0.153256
vt 0.119579 0.199131
vt 0.085895 0.199134
vt 0.153259 0.080047
vt 0.153259 0.125424
vt 0.119579 0.052215
vt 0.182482 0.160787
vt 0.148801 0.188619
vt 0.199134 0.080047
vt 0.199134 0.125424
vt 0.182481 0.044685
vt 0.148801 0.016853
vt 0.119579 0.006341
vt 0.085894 0.006338
vt 0.800321 0.283568
vt 0.762343 0.327877
vt 0.577587 0.169515
vt 0.615566 0.125206
vt 0.790917 0.783054
vt 0.725559 0.732959
vt 0.778151 0.671601
vt 0.803022 0.725965
vt 0.723436 0.373267
vt 0.538681 0.214906
vt 0.184096 0.268848
vt 0.123933 0.214870
vt 0.178007 0.192925
vt 0.235680 0.208667
vt 0.302857 0.370643
vt 0.354441 0.310462
vt 0.621641 0.492028
vt 0.436886 0.333667
vt 0.584584 0.535261
vt 0.399829 0.376900
vt 0.363034 0.419794
vt 0.376418 0.362991
vt 0.201062 0.489404
vt 0.082301 0.387609
vt 0.361850 0.421209
vt 0.260055 0.539970
vt 0.546605 0.579570
vt 0.444810 0.698331
vt 0.505003 0.749925
vt 0.606798 0.631164
vt 0.549658 0.576209
vt 0.604252 0.555591
vt 0.659390 0.569807
vt 0.222076 0.584278
vt 0.406832 0.742640
vt 0.452412 0.811282
vt 0.429930 0.758967
vt 0.441956 0.701861
vt 0.623764 0.851720
vt 0.571172 0.913077
vt 0.369775 0.785873
vt 0.185020 0.627511
vt 0.267980 0.904633
vt 0.083225 0.746272
vt 0.628700 0.929341
vt 0.683266 0.908647
vt 0.044319 0.791663
vt 0.229074 0.950024
vt 0.149478 0.549585
vt 0.030717 0.447790
vt 0.006340 0.393203
vt 0.019757 0.336408
vt 0.006340 0.835971
vt 0.191095 0.994333
vt 0.717361 0.006446
vt 0.902116 0.164807
vt 0.122727 0.216245
vt 0.020931 0.335006
vt 0.686288 0.905311
vt 0.788083 0.786550
vt 0.204750 0.563270
vt 0.258838 0.541356
vt 0.775709 0.073917
vt 0.746710 0.052197
vt 0.758299 0.040608
vt 0.760631 0.020154
vt 0.775772 0.013882
vt 0.792078 0.026542
vt 0.808466 0.026542
vt 0.824310 0.013882
vt 0.839451 0.020154
vt 0.841534 0.040352
vt 0.853123 0.051941
vt 0.824373 0.073917
vt 0.820010 0.069554
vt 0.814879 0.066126
vt 0.809178 0.063764
vt 0.803126 0.062561
vt 0.796956 0.062560
vt 0.790904 0.063764
vt 0.785203 0.066126
vt 0.780073 0.069554
vt 0.403031 0.034085
vt 0.398246 0.038146
vt 0.388922 0.024886
vt 0.391937 0.020010
vt 0.412065 0.044932
vt 0.406896 0.047153
vt 0.873772 0.054475
vt 0.880044 0.069616
vt 0.867404 0.085650
vt 0.867404 0.102039
vt 0.880044 0.118154
vt 0.873772 0.133295
vt 0.853445 0.135658
vt 0.841856 0.147247
vt 0.839451 0.167616
vt 0.824310 0.173888
vt 0.808214 0.161160
vt 0.791825 0.161160
vt 0.775772 0.173888
vt 0.760631 0.167617
vt 0.758265 0.147190
vt 0.746676 0.135601
vt 0.726310 0.133295
vt 0.720038 0.118154
vt 0.732992 0.101938
vt 0.732992 0.085549
vt 0.720038 0.069617
vt 0.726310 0.054475
vt 0.772281 0.079047
vt 0.769920 0.084748
vt 0.768716 0.090800
vt 0.768716 0.096971
vt 0.769920 0.103022
vt 0.772281 0.108723
vt 0.775710 0.113854
vt 0.780073 0.118217
vt 0.785203 0.121645
vt 0.790904 0.124006
vt 0.796956 0.125210
vt 0.803126 0.125210
vt 0.809178 0.124006
vt 0.814879 0.121645
vt 0.820010 0.118217
vt 0.824373 0.113854
vt 0.827801 0.108723
vt 0.830162 0.103022
vt 0.831366 0.096970
vt 0.831366 0.090800
vt 0.830162 0.084748
vt 0.827801 0.079047
vt 0.415410 0.062940
vt 0.409336 0.063654
vt 0.415635 0.076409
vt 0.410591 0.075219
vt 0.408557 0.092307
vt 0.402038 0.091203
vt 0.775772 0.549232
vt 0.760631 0.542961
vt 0.758380 0.522806
vt 0.746791 0.511217
vt 0.726310 0.508639
vt 0.720038 0.493498
vt 0.732852 0.477386
vt 0.732852 0.460997
vt 0.720038 0.444961
vt 0.726310 0.429819
vt 0.746736 0.427713
vt 0.758325 0.416124
vt 0.779882 0.445088
vt 0.775710 0.449261
vt 0.772281 0.454391
vt 0.769920 0.460092
vt 0.768716 0.466144
vt 0.768716 0.472314
vt 0.769920 0.478366
vt 0.772281 0.484067
vt 0.775710 0.489198
vt 0.780073 0.493561
vt 0.785203 0.496989
vt 0.790904 0.499350
vt 0.796956 0.500554
vt 0.803126 0.500554
vt 0.809178 0.499350
vt 0.814879 0.496989
vt 0.820009 0.493561
vt 0.824372 0.489198
vt 0.827801 0.484067
vt 0.830162 0.478366
vt 0.831366 0.472314
vt 0.831366 0.466144
vt 0.830162 0.460092
vt 0.827801 0.454391
vt 0.824373 0.449261
vt 0.820009 0.444898
vt 0.814879 0.441469
vt 0.809178 0.439108
vt 0.803126 0.437904
vt 0.808193 0.401997
vt 0.824310 0.389226
vt 0.839451 0.395498
vt 0.841802 0.415849
vt 0.853391 0.427438
vt 0.873772 0.429819
vt 0.880044 0.444961
vt 0.867341 0.461065
vt 0.867341 0.477454
vt 0.880044 0.493498
vt 0.873772 0.508639
vt 0.853439 0.511096
vt 0.841851 0.522685
vt 0.839451 0.542961
vt 0.824310 0.549232
vt 0.807917 0.536424
vt 0.791528 0.536423
vt 0.409525 0.106750
vt 0.402840 0.108323
vt 0.760631 0.395498
vt 0.775772 0.389226
vt 0.791804 0.401997
vt 0.796956 0.437904
vt 0.790904 0.439108
vt 0.785203 0.441469
vt 0.780073 0.444898
vt 0.415502 0.122867
vt 0.410356 0.123656
vt 0.415147 0.135204
vt 0.409459 0.135181
vt 0.415635 0.151584
vt 0.410400 0.150518
vt 0.410214 0.164486
vt 0.405667 0.160357
vt 0.393741 0.173780
vt 0.390551 0.168054
vt 0.380866 0.180153
vt 0.379910 0.174520
vt 0.360215 0.179815
vt 0.359119 0.172532
vt 0.344312 0.184900
vt 0.339927 0.177800
vt 0.327782 0.199335
vt 0.327038 0.191483
vt 0.308118 0.194364
vt 0.311851 0.188056
vt 0.292816 0.177705
vt 0.297944 0.171391
vt 0.276570 0.167903
vt 0.279956 0.159397
vt 0.253005 0.161062
vt 0.259239 0.155152
vt 0.243745 0.141596
vt 0.251207 0.140774
vt 0.249624 0.120526
vt 0.257749 0.121399
vt 0.248567 0.101219
vt 0.257706 0.099586
vt 0.242343 0.076914
vt 0.250877 0.078498
vt 0.251739 0.057707
vt 0.256637 0.063302
vt 0.272479 0.051871
vt 0.276416 0.059175
vt 0.287218 0.039261
vt 0.294059 0.045583
vt 0.302221 0.020085
vt 0.306677 0.026655
vt 0.320072 0.013673
vt 0.320350 0.020482
vt 0.339019 0.019511
vt 0.337601 0.026330
vt 0.355333 0.021311
vt 0.355625 0.029219
vt 0.376913 0.017614
vt 0.377153 0.024516
vt 0.055181 0.202596
vt 0.049821 0.201630
vt 0.050226 0.194755
vt 0.056962 0.195877
vt 0.060279 0.204613
vt 0.063374 0.198343
vt 0.064903 0.207610
vt 0.069190 0.202046
vt 0.068871 0.211474
vt 0.074179 0.206830
vt 0.072032 0.216063
vt 0.078163 0.212498
vt 0.074273 0.221216
vt 0.081021 0.218832
vt 0.075629 0.226639
vt 0.082703 0.225619
vt 0.075949 0.232064
vt 0.082703 0.232457
vt 0.075142 0.237438
vt 0.081760 0.239016
vt 0.073293 0.242526
vt 0.079575 0.245382
vt 0.070437 0.247176
vt 0.076144 0.251289
vt 0.066666 0.251199
vt 0.071552 0.256523
vt 0.062111 0.254413
vt 0.065831 0.260914
vt 0.059125 0.263712
vt 0.056980 0.256749
vt 0.052183 0.265074
vt 0.051526 0.257951
vt 0.045206 0.265047
vt 0.045978 0.258014
vt 0.038418 0.263661
vt 0.040551 0.256969
vt 0.032070 0.260974
vt 0.035452 0.254877
vt 0.026422 0.257103
vt 0.030874 0.251844
vt 0.021727 0.252248
vt 0.026977 0.248020
vt 0.017683 0.246734
vt 0.023995 0.243348
vt 0.026825 0.247818
vt 0.014977 0.240263
vt 0.021789 0.238228
vt 0.013604 0.233434
vt 0.020643 0.232780
vt 0.013587 0.226506
vt 0.020582 0.227224
vt 0.014904 0.219745
vt 0.021590 0.221774
vt 0.017471 0.213413
vt 0.023611 0.216632
vt 0.021153 0.207754
vt 0.026446 0.212007
vt 0.025814 0.203027
vt 0.030079 0.208103
vt 0.031173 0.199410
vt 0.034381 0.205032
vt 0.039214 0.202891
vt 0.037015 0.196631
vt 0.044423 0.201738
vt 0.043467 0.195019
vt 0.309385 0.273138
vt 0.379409 0.360152
vt 0.292365 0.430199
vt 0.222341 0.343186
vt 0.449432 0.447167
vt 0.362388 0.517214
vt 0.350374 0.628257
vt 0.263360 0.698279
vt 0.152318 0.686265
vt 0.082294 0.599251
vt 0.094309 0.488209
vt 0.181324 0.418185
vt 0.239362 0.186124
vt 0.152318 0.256172
vt 0.169340 0.099110
vt 0.082295 0.169157
vt 0.391423 0.249110
vt 0.478437 0.179086
vt 0.589480 0.191101
vt 0.659503 0.278115
vt 0.647488 0.389157
vt 0.560474 0.459180
vt 0.099316 0.012096
vt 0.012271 0.082144
vt 0.589479 0.621194
vt 0.659503 0.708208
vt 0.572459 0.778256
vt 0.502435 0.691241
vt 0.519456 0.534180
vt 0.432412 0.604228
vt 0.807997 0.772809
vt 0.935179 0.899992
vt 0.919078 0.916094
vt 0.791895 0.788912
vt 0.745622 0.742638
vt 0.761724 0.726537
vt 0.888906 0.599354
vt 0.935179 0.645627
vt 0.618439 0.615456
vt 0.634541 0.599354
vt 0.664712 0.916094
vt 0.618439 0.869821
vt 0.192149 0.814739
vt 0.064966 0.687556
vt 0.081068 0.671454
vt 0.208250 0.798636
vt 0.254524 0.844910
vt 0.238421 0.861011
vt 0.111238 0.988194
vt 0.064966 0.941921
vt 0.381706 0.972093
vt 0.365603 0.988194
vt 0.335433 0.671454
vt 0.381706 0.717727
vt 0.685360 0.291828
vt 0.692312 0.291828
vt 0.692312 0.308217
vt 0.685359 0.308217
vt 0.824373 0.300465
vt 0.853372 0.322185
vt 0.841784 0.333774
vt 0.839451 0.354228
vt 0.824310 0.360500
vt 0.808004 0.347840
vt 0.791615 0.347840
vt 0.775772 0.360500
vt 0.760631 0.354228
vt 0.758548 0.334030
vt 0.746959 0.322441
vt 0.775709 0.300465
vt 0.780073 0.304828
vt 0.785203 0.308257
vt 0.790904 0.310618
vt 0.796956 0.311822
vt 0.803126 0.311822
vt 0.809178 0.310618
vt 0.814879 0.308256
vt 0.820009 0.304828
vt 0.692312 0.328803
vt 0.685360 0.328803
vt 0.412690 0.724255
vt 0.427806 0.718005
vt 0.443609 0.730651
vt 0.459973 0.730658
vt 0.476254 0.718005
vt 0.491381 0.724263
vt 0.493720 0.744693
vt 0.505320 0.756263
vt 0.525764 0.758467
vt 0.532105 0.773612
vt 0.519189 0.789622
vt 0.519449 0.806126
vt 0.483288 0.800580
vt 0.483268 0.794924
vt 0.482068 0.788853
vt 0.479710 0.783140
vt 0.476287 0.778003
vt 0.471930 0.773635
vt 0.466806 0.770202
vt 0.461114 0.767837
vt 0.455073 0.766628
vt 0.448913 0.766621
vt 0.442870 0.767816
vt 0.437178 0.770166
vt 0.432053 0.773582
vt 0.427693 0.777932
vt 0.424266 0.783049
vt 0.421902 0.788736
vt 0.420693 0.794776
vt 0.420686 0.800936
vt 0.421880 0.806979
vt 0.424231 0.812674
vt 0.427648 0.817802
vt 0.431999 0.822165
vt 0.437120 0.825596
vt 0.442812 0.827962
vt 0.448858 0.829172
vt 0.455026 0.829179
vt 0.461077 0.827982
vt 0.466782 0.825626
vt 0.471919 0.822197
vt 0.493708 0.851282
vt 0.491270 0.871704
vt 0.476104 0.877924
vt 0.460093 0.865137
vt 0.443715 0.865099
vt 0.427610 0.877781
vt 0.412497 0.871484
vt 0.410136 0.851130
vt 0.398582 0.839537
vt 0.378292 0.837145
vt 0.372055 0.822018
vt 0.384701 0.805950
vt 0.384724 0.789590
vt 0.372129 0.773571
vt 0.378408 0.758468
vt 0.399020 0.755965
vt 0.410598 0.744411
vt 0.685360 0.271301
vt 0.692312 0.271301
vt 0.685359 0.254912
vt 0.692312 0.254912
vt 0.685360 0.234378
vt 0.692312 0.234378
vt 0.726310 0.319907
vt 0.720038 0.304766
vt 0.732679 0.288732
vt 0.732679 0.272343
vt 0.720038 0.256228
vt 0.726310 0.241086
vt 0.746637 0.238724
vt 0.758226 0.227135
vt 0.760631 0.206765
vt 0.775772 0.200494
vt 0.791868 0.213222
vt 0.808257 0.213222
vt 0.824310 0.200494
vt 0.839451 0.206766
vt 0.841817 0.227192
vt 0.853406 0.238781
vt 0.873772 0.241087
vt 0.880044 0.256228
vt 0.867090 0.272444
vt 0.867090 0.288833
vt 0.880044 0.304765
vt 0.873773 0.319907
vt 0.827801 0.295334
vt 0.830162 0.289634
vt 0.831366 0.283582
vt 0.831366 0.277411
vt 0.830162 0.271360
vt 0.827801 0.265659
vt 0.824373 0.260528
vt 0.820010 0.256165
vt 0.814879 0.252737
vt 0.809178 0.250376
vt 0.803127 0.249172
vt 0.796956 0.249172
vt 0.790904 0.250376
vt 0.785203 0.252737
vt 0.780073 0.256165
vt 0.775710 0.260528
vt 0.772281 0.265659
vt 0.769920 0.271360
vt 0.768716 0.277412
vt 0.768716 0.283582
vt 0.769920 0.289634
vt 0.772281 0.295335
vt 0.685360 0.217989
vt 0.692312 0.217989
vt 0.685359 0.197234
vt 0.692312 0.197234
vt 0.532268 0.822529
vt 0.525815 0.837648
vt 0.505363 0.839742
vt 0.476290 0.817825
vt 0.479726 0.812678
vt 0.482089 0.806955
vt 0.483283 0.800872
vt 0.685360 0.180845
vt 0.692312 0.180845
vt 0.685300 0.160349
vt 0.692372 0.160349
vt 0.685360 0.143960
vt 0.692312 0.143960
vt 0.685360 0.123397
vt 0.692312 0.123397
vt 0.685360 0.107008
vt 0.692312 0.107008
vt 0.685360 0.086522
vt 0.692312 0.086522
vt 0.685360 0.070133
vt 0.692312 0.070133
vt 0.685360 0.049613
vt 0.692312 0.049613
vt 0.685360 0.033224
vt 0.692312 0.033224
vt 0.685360 0.012713
vt 0.692312 0.012713
vt 0.685359 0.586919
vt 0.692312 0.586919
vt 0.692312 0.603307
vt 0.685359 0.603307
vt 0.685359 0.566455
vt 0.692312 0.566455
vt 0.685359 0.550066
vt 0.692312 0.550066
vt 0.685359 0.529585
vt 0.692312 0.529585
vt 0.685359 0.513196
vt 0.692312 0.513196
vt 0.685359 0.492779
vt 0.692312 0.492779
vt 0.685359 0.476390
vt 0.692312 0.476390
vt 0.685359 0.455586
vt 0.692312 0.455586
vt 0.685359 0.439198
vt 0.692312 0.439198
vt 0.133940 0.341270
vt 0.138416 0.338040
vt 0.143113 0.343203
vt 0.137554 0.347268
vt 0.128923 0.343568
vt 0.131295 0.350163
vt 0.123560 0.344840
vt 0.124590 0.351766
vt 0.118062 0.345035
vt 0.117711 0.352018
vt 0.112646 0.344147
vt 0.110930 0.350911
vt 0.107523 0.342213
vt 0.104512 0.348494
vt 0.102894 0.339310
vt 0.098707 0.344865
vt 0.098938 0.335552
vt 0.093738 0.340169
vt 0.095809 0.331085
vt 0.089790 0.334588
vt 0.093632 0.326073
vt 0.087008 0.328330
vt 0.092503 0.320698
vt 0.085485 0.321614
vt 0.092477 0.315165
vt 0.085275 0.314641
vt 0.093576 0.309701
vt 0.086448 0.307561
vt 0.089333 0.300989
vt 0.095759 0.304476
vt 0.093229 0.295158
vt 0.098771 0.299678
vt 0.098068 0.290194
vt 0.102596 0.295608
vt 0.103723 0.286263
vt 0.107089 0.292392
vt 0.110001 0.283527
vt 0.112078 0.290136
vt 0.116653 0.282116
vt 0.117358 0.288914
vt 0.123367 0.282118
vt 0.122691 0.288747
vt 0.130063 0.283026
vt 0.128146 0.289778
vt 0.122936 0.288790
vt 0.136478 0.285588
vt 0.133204 0.291753
vt 0.142197 0.289360
vt 0.137766 0.294710
vt 0.147032 0.294170
vt 0.141636 0.298520
vt 0.150824 0.299824
vt 0.144666 0.303036
vt 0.153459 0.306128
vt 0.146806 0.308096
vt 0.154803 0.312819
vt 0.147936 0.313469
vt 0.154803 0.319587
vt 0.148032 0.318945
vt 0.153517 0.326100
vt 0.147138 0.324320
vt 0.145112 0.329375
vt 0.151245 0.332340
vt 0.142182 0.334016
vt 0.147739 0.338145
vt 0.685359 0.418893
vt 0.692312 0.418893
vt 0.685360 0.402504
vt 0.692312 0.402504
vt 0.685359 0.382224
vt 0.692312 0.382224
vt 0.685359 0.365835
vt 0.692312 0.365835
vt 0.685360 0.345192
vt 0.692312 0.345192
s 1
usemtl マテリアル.012
f 12/6/9 25/7/9 13/8/9 11/9/9
f 13/8/10 15/10/10 14/11/10 11/12/10
f 18/13/11 16/14/11 14/15/11 15/10/11
f 19/16/12 17/17/12 16/18/12 18/13/12
f 22/19/13 20/20/13 19/16/13 18/13/13 15/10/13 13/8/13 25/7/13 24/21/13
f 20/20/14 21/22/14 17/23/14 19/16/14
f 23/24/15 21/25/15 20/20/15 22/19/15
f 23/26/16 22/19/16 24/21/16 26/27/16
f 26/28/17 24/21/17 25/7/17 12/29/17
f 28/30/18 27/31/18 30/32/18 31/33/18
f 28/34/19 58/35/19 29/36/19 27/37/19
f 27/31/20 29/38/20 32/39/20 30/32/20
f 33/40/21 31/41/21 30/42/21 32/43/21
f 37/44/22 33/40/22 32/43/22 34/45/22
f 29/38/10 35/46/10 34/47/10 32/39/10
f 35/46/23 43/48/23 36/49/23 34/47/23
f 39/50/24 37/44/24 34/45/24 36/51/24
f 33/40/25 37/44/25 38/52/25 53/53/25
f 38/52/26 37/44/26 39/54/26 40/55/26
f 41/56/27 44/57/27 40/55/27 39/54/27
f 39/54/28 36/49/28 43/48/28 41/56/28
f 46/58/29 44/57/29 41/56/29 42/59/29
f 42/59/30 41/60/30 43/61/30 35/62/30
f 57/63/31 40/55/31 44/57/31 45/64/31
f 48/65/32 45/66/32 44/67/32 46/58/32
f 47/68/33 46/58/33 42/59/33 58/35/33
f 50/69/34 48/65/34 46/58/34 47/68/34
f 45/64/35 48/70/35 49/71/35 57/63/35
f 48/70/15 50/72/15 52/73/15 49/71/15
f 51/74/36 50/69/36 47/68/36 56/75/36
f 54/76/37 52/73/37 50/72/37 51/77/37
f 49/78/38 52/79/38 53/53/38 38/52/38
f 52/79/39 54/80/39 55/81/39 53/53/39
f 55/82/40 54/76/40 51/77/40 56/83/40
f 31/33/41 55/84/41 56/85/41 28/30/41
f 31/86/42 33/40/42 53/53/42 55/87/42
f 56/88/43 47/68/43 58/35/43 28/89/43
f 57/90/44 49/78/44 38/52/44 40/91/44
f 58/35/45 42/59/45 35/62/45 29/36/45
usemtl マテリアル.014
f 1/1/1 3/2/1 2/3/1
f 3/2/2 1/1/2 4/4/2
f 3/2/3 4/4/3 5/5/3
f 5/5/4 2/3/4 3/2/4
f 6/1/5 8/2/5 7/3/5
f 8/2/6 6/1/6 9/4/6
f 8/2/7 9/4/7 10/5/7
f 10/5/8 7/3/8 8/2/8
usemtl マテリアル.011
f 63/92/10 62/93/46 59/94/10 60/95/10 124/96/10 123/97/10 118/98/10 117/99/10 116/100/10 115/101/10 110/102/46 126/103/10 127/104/10 187/105/10 186/106/10 181/107/10 180/108/10 179/109/10 178/110/10 175/111/10
f 59/112/47 61/113/47 125/114/47 60/115/47
f 62/116/48 64/117/48 61/113/48 59/112/48
f 126/103/10 110/102/46 109/118/46 108/119/46 107/120/46 102/121/46 101/122/46 100/123/46 99/124/46 94/125/46 93/126/46 92/127/46 91/128/46 86/129/46 85/130/46 84/131/46 83/132/46 77/133/46 76/134/46 75/135/46 74/136/46 68/137/46 67/138/46 65/139/46 62/93/46 63/92/10 173/140/46 168/141/46 167/142/46 166/143/46 165/144/46 160/145/46 159/146/46 158/147/46 157/148/46 153/149/46 152/150/46 151/151/46 150/152/46 145/153/46 144/154/46 143/155/46 142/156/46 137/157/46 136/158/46 135/159/46 134/160/46 128/161/46
f 65/162/49 66/163/49 64/117/49 62/116/49
f 67/164/50 69/165/50 66/163/50 65/162/50
f 68/166/51 70/167/51 69/165/51 67/164/51
f 114/168/15 119/169/15 120/170/15 121/171/15 122/172/15 125/173/15 61/174/15 64/175/15 66/176/15 69/177/15 70/178/15 71/179/52 72/180/53 169/181/15 170/182/15 171/183/15 172/184/15 174/185/15 176/186/15 177/187/15 182/188/15 183/189/15 184/190/15 185/191/15 130/192/15 129/193/15 131/194/15 132/195/15 133/196/15 138/197/15 139/198/15 140/199/15 141/200/15 146/201/15 147/202/15 148/203/15 149/204/15 154/205/15 155/206/15 156/207/15 81/208/54 80/209/53 82/210/15 87/211/15 88/212/15 89/213/15 90/214/15 95/215/15 96/216/15 97/217/15 98/218/15 103/219/15 104/220/15 105/221/15 106/222/15 111/223/15 112/224/15 113/225/15
f 74/226/55 71/227/55 70/167/55 68/166/55
f 71/179/52 73/228/56 78/229/56 79/230/56 80/209/53 81/208/54 161/231/56 162/232/56 163/233/56 164/234/56 72/180/53
f 75/235/57 73/236/57 71/227/57 74/226/57
f 76/237/58 78/238/58 73/236/58 75/235/58
f 77/239/59 79/240/59 78/238/59 76/237/59
f 83/241/60 80/242/60 79/240/60 77/239/60
f 84/243/61 82/244/61 80/242/61 83/241/61
f 85/245/62 87/246/62 82/244/62 84/243/62
f 86/247/63 88/248/63 87/246/63 85/245/63
f 91/249/64 89/250/64 88/248/64 86/247/64
f 92/251/65 90/252/65 89/250/65 91/249/65
f 93/253/66 95/254/66 90/252/66 92/251/66
f 94/255/67 96/256/67 95/254/67 93/253/67
f 99/257/68 97/258/68 96/256/68 94/255/68
f 100/259/69 98/260/69 97/258/69 99/257/69
f 101/261/70 103/262/70 98/260/70 100/259/70
f 102/263/71 104/264/71 103/262/71 101/261/71
f 107/265/72 105/266/72 104/264/72 102/263/72
f 108/267/73 106/268/73 105/266/73 107/265/73
f 109/269/74 111/270/74 106/268/74 108/267/74
f 110/271/75 112/272/75 111/270/75 109/269/75
f 115/273/76 113/274/76 112/272/76 110/271/76
f 116/275/77 114/276/77 113/274/77 115/273/77
f 117/277/78 119/278/78 114/276/78 116/275/78
f 118/279/79 120/280/79 119/278/79 117/277/79
f 123/281/80 121/282/80 120/280/80 118/279/80
f 124/283/81 122/284/81 121/282/81 123/281/81
f 60/115/82 125/114/82 122/284/82 124/283/82
f 129/285/41 130/286/83 127/287/83 126/288/41
f 131/289/84 129/285/41 126/288/41 128/290/84
f 132/291/85 131/289/84 128/290/84 134/292/85
f 133/293/86 132/291/85 134/292/85 135/294/86
f 138/295/87 133/293/86 135/294/86 136/296/87
f 139/297/88 138/295/87 136/296/87 137/298/88
f 140/299/89 139/297/88 137/298/88 142/300/89
f 141/301/90 140/299/89 142/300/89 143/302/90
f 146/303/33 141/301/90 143/302/90 144/304/33
f 147/305/91 146/303/33 144/304/33 145/306/91
f 148/307/92 147/305/91 145/306/91 150/308/92
f 149/309/93 148/307/92 150/308/92 151/310/93
f 154/311/94 149/309/93 151/310/93 152/312/94
f 153/313/95 155/314/95 154/311/94 152/312/94
f 157/315/96 156/316/96 155/314/95 153/313/95
f 158/317/97 81/318/97 156/316/96 157/315/96
f 159/319/27 161/320/27 81/318/97 158/317/97
f 160/321/98 162/322/98 161/320/27 159/319/27
f 165/323/99 163/324/99 162/322/98 160/321/98
f 166/325/100 164/326/100 163/324/99 165/323/99
f 167/327/101 169/328/101 72/329/72 164/326/100 166/325/100
f 168/330/102 170/331/102 169/328/101 167/327/101
f 173/332/103 171/333/103 170/331/102 168/330/102
f 63/334/104 172/335/104 171/333/103 173/332/103
f 175/336/25 174/337/25 172/335/104 63/334/104
f 178/338/105 176/339/105 174/337/25 175/336/25
f 179/340/106 177/341/106 176/339/105 178/338/105
f 180/342/107 182/343/107 177/341/106 179/340/106
f 181/344/108 183/345/108 182/343/107 180/342/107
f 184/346/109 183/345/108 181/344/108 186/347/109
f 185/348/110 184/346/109 186/347/109 187/349/110
f 130/286/83 185/348/110 187/349/110 127/287/83
f 192/350/106 189/351/106 188/352/106 191/353/106
f 189/351/103 203/354/103 190/355/103 188/352/103
f 188/352/15 190/355/15 201/356/15 200/357/15 199/358/15 194/359/15 193/360/15 191/361/15
f 195/362/110 192/350/110 191/353/110 193/363/110
f 196/364/85 195/362/85 193/363/85 194/365/85
f 189/351/10 192/366/10 195/367/10 196/368/10 197/369/10 198/370/10 202/371/10 203/354/10
f 197/372/89 196/364/89 194/365/89 199/373/89
f 198/374/92 197/375/92 199/376/92 200/377/92
f 202/378/96 198/374/96 200/377/96 201/379/96
f 203/354/99 202/378/99 201/379/99 190/355/99
f 204/380/41 207/381/41 208/382/41 205/383/41
f 205/383/33 211/384/33 206/385/33 204/380/33
f 206/385/10 209/386/10 207/387/10 204/380/10
f 211/384/27 210/388/27 209/389/27 206/385/27
f 205/383/15 208/390/15 210/391/15 211/384/15
f 212/392/41 215/393/41 216/394/41 213/395/41
f 213/395/33 219/396/33 214/397/33 212/392/33
f 214/397/10 217/398/10 215/399/10 212/392/10
f 219/396/27 218/400/27 217/401/27 214/397/27
f 213/395/15 216/402/15 218/403/15 219/396/15
f 221/404/48 225/405/48 223/406/48 220/407/48
f 323/408/10 221/409/46 220/410/10 222/411/10 346/412/10 345/413/10 344/414/10 343/415/10 338/416/10 274/417/10 273/418/46 275/419/10 276/420/10 337/421/10 333/422/10 332/423/10 331/424/10 330/425/10 325/426/10 324/427/10
f 220/407/47 223/406/47 224/428/47 222/429/47
f 340/430/15 341/431/15 342/432/15 347/433/15 348/434/15 224/435/15 223/436/15 225/437/15 226/438/15 228/439/15 229/440/15 234/441/52 235/442/53 318/443/15 319/444/15 320/445/15 321/446/15 326/447/15 327/448/15 328/449/15 329/450/15 334/451/15 335/452/15 336/453/15 279/454/15 278/455/15 280/456/15 281/457/15 282/458/15 287/459/15 288/460/15 289/461/15 290/462/15 295/463/15 296/464/15 297/465/15 298/466/15 303/467/15 304/468/15 305/469/15 244/470/54 243/471/53 245/472/15 246/473/15 247/474/15 252/475/15 253/476/15 254/477/15 255/478/15 260/479/15 261/480/15 262/481/15 263/482/15 268/483/15 269/484/15 270/485/15 271/486/15 339/487/15
f 227/488/111 226/489/111 225/405/111 221/404/111
f 230/490/50 228/491/50 226/489/50 227/488/50
f 231/492/51 229/493/51 228/491/51 230/490/51
f 275/419/10 273/418/46 272/494/46 267/495/46 266/496/46 265/497/46 264/498/46 259/499/46 258/500/46 257/501/46 256/502/46 251/503/46 250/504/46 249/505/46 248/506/46 242/507/46 241/508/46 240/509/46 239/510/46 233/511/46 232/512/46 231/513/46 230/514/46 227/515/46 221/409/46 323/408/10 322/516/46 317/517/46 316/518/46 315/519/46 314/520/46 309/521/46 308/522/46 307/523/46 306/524/46 302/525/46 301/526/46 300/527/46 299/528/46 294/529/46 293/530/46 292/531/46 291/532/46 286/533/46 285/534/46 284/535/46 283/536/46 277/537/46
f 232/538/55 234/539/55 229/493/55 231/492/55
f 233/540/57 236/541/57 234/539/57 232/538/57
f 234/441/52 236/542/56 237/543/56 238/544/56 243/471/53 244/470/54 310/545/56 311/546/56 312/547/56 313/548/56 235/442/53
f 239/549/58 237/550/58 236/541/58 233/540/58
f 240/551/59 238/552/59 237/550/59 239/549/59
f 241/553/60 243/554/60 238/552/60 240/551/60
f 242/555/61 245/556/61 243/554/61 241/553/61
f 248/557/62 246/558/62 245/556/62 242/555/62
f 249/559/63 247/560/63 246/558/63 248/557/63
f 250/561/64 252/562/64 247/560/64 249/559/64
f 251/563/65 253/564/65 252/562/65 250/561/65
f 256/565/66 254/566/66 253/564/66 251/563/66
f 257/567/67 255/568/67 254/566/67 256/565/67
f 258/569/68 260/570/68 255/571/68 257/572/68
f 259/573/69 261/574/69 260/570/69 258/569/69
f 264/575/70 262/576/70 261/574/70 259/573/70
f 265/577/71 263/578/71 262/576/71 264/575/71
f 266/579/72 268/580/72 263/578/72 265/577/72
f 267/581/73 269/582/73 268/580/73 266/579/73
f 272/583/74 270/584/74 269/582/74 267/581/74
f 273/585/75 271/586/75 270/584/75 272/583/75
f 274/587/76 339/588/76 271/586/76 273/585/76
f 278/589/41 279/590/83 276/591/83 275/592/41
f 280/593/84 278/589/41 275/592/41 277/594/84
f 281/595/85 280/593/84 277/594/84 283/596/85
f 282/597/112 281/595/85 283/596/85 284/598/112
f 287/599/87 282/597/112 284/598/112 285/600/87
f 288/601/88 287/599/87 285/600/87 286/602/88
f 289/603/89 288/601/88 286/602/88 291/604/89
f 290/605/90 289/603/89 291/604/89 292/606/90
f 295/607/33 290/605/90 292/606/90 293/608/33
f 296/609/91 295/607/33 293/608/33 294/610/91
f 297/611/92 296/609/91 294/610/91 299/612/92
f 298/613/93 297/611/92 299/612/92 300/614/93
f 303/615/94 298/613/93 300/614/93 301/616/94
f 302/617/95 304/618/95 303/615/94 301/616/94
f 306/619/96 305/620/96 304/618/95 302/617/95
f 307/621/97 244/622/97 305/620/96 306/619/96
f 308/623/27 310/624/27 244/622/97 307/621/97
f 309/625/98 311/626/98 310/624/27 308/623/27
f 314/627/99 312/628/99 311/626/98 309/625/98
f 315/629/100 313/630/100 312/628/99 314/627/99
f 316/631/101 318/632/101 235/633/72 313/630/100 315/629/100
f 317/634/102 319/635/102 318/632/101 316/631/101
f 322/636/103 320/637/103 319/635/102 317/634/102
f 323/638/104 321/639/104 320/637/103 322/636/103
f 324/640/25 326/641/25 321/639/104 323/638/104
f 325/642/105 327/643/105 326/641/25 324/640/25
f 330/644/106 328/645/106 327/643/105 325/642/105
f 331/646/107 329/647/107 328/645/106 330/644/106
f 332/648/108 334/649/108 329/647/107 331/646/107
f 335/650/109 334/649/108 332/648/108 333/651/109
f 336/652/110 335/650/109 333/651/109 337/653/110
f 279/590/83 336/652/110 337/653/110 276/591/83
f 338/654/77 340/655/77 339/588/77 274/587/77
f 343/656/78 341/657/78 340/655/78 338/654/78
f 344/658/113 342/659/113 341/657/113 343/656/113
f 345/660/80 347/661/80 342/659/80 344/658/80
f 346/662/81 348/663/81 347/661/81 345/660/81
f 222/429/82 224/428/82 348/663/82 346/662/82
