# Blender 4.4.3
# www.blender.org
mtllib SkyGunner.mtl
o 立方体.009
v -0.024453 1.125855 -0.157941
v -0.024453 1.372644 -0.157941
v -0.024453 1.125855 -0.206847
v -0.024453 1.372644 -0.206847
v 0.024453 1.125855 -0.157941
v 0.024453 1.372644 -0.157941
v 0.024453 1.125855 -0.206847
v 0.024453 1.372644 -0.206847
v 0.343042 0.728810 0.118757
v 0.343019 0.655615 0.031829
v 0.461443 0.728772 0.118757
v 0.343079 0.845926 0.118757
v 0.461480 0.845889 0.118757
v 0.343102 0.919121 0.031829
v 0.343102 0.917760 -0.055099
v 0.461503 0.917723 0.031829
v 0.461503 0.917723 -0.055099
v 0.461480 0.845889 -0.142027
v 0.343079 0.845926 -0.142027
v 0.461443 0.728772 -0.142027
v 0.343042 0.728810 -0.142027
v 0.461420 0.656938 -0.055099
v 0.461420 0.656938 0.031829
v 0.343019 0.656976 -0.055099
v -0.180676 0.452919 0.178282
v -0.180676 0.452919 -0.183070
v 0.180676 0.452919 0.178282
v 0.180676 0.452919 -0.183070
v 0.000000 -0.015424 -0.002394
v 0.018318 0.415488 -0.811757
v 0.018318 0.449066 -0.811757
v 0.195090 0.415488 -0.983179
v 0.195090 0.449066 -0.983179
v 0.382683 0.415488 -0.926274
v 0.382683 0.449066 -0.926274
v 0.437381 0.415488 -0.685493
v 0.437381 0.449066 -0.685493
v 0.588918 0.415488 -0.561130
v 0.588918 0.449066 -0.561130
v 0.831470 0.415488 -0.557964
v 0.831470 0.449066 -0.557964
v 0.923880 0.415488 -0.385077
v 0.923880 0.449066 -0.385077
v 0.789877 0.415488 -0.182514
v 0.789877 0.449066 -0.182514
v 0.809092 0.415488 0.012576
v 0.809092 0.449066 0.012576
v 0.980785 0.415488 0.192696
v 0.980785 0.449066 0.192696
v 0.923880 0.415488 0.380289
v 0.923880 0.449066 0.380289
v 0.685336 0.415488 0.432621
v 0.685336 0.449066 0.432621
v 0.560974 0.415488 0.584157
v 0.560974 0.449066 0.584157
v 0.555570 0.415488 0.829076
v 0.555570 0.449066 0.829076
v 0.382683 0.415488 0.921486
v 0.382683 0.449066 0.921486
v 0.176808 0.415488 0.789085
v 0.176808 0.449066 0.789085
v -0.018282 0.415488 0.808300
v -0.018282 0.449066 0.808300
v -0.195090 0.415488 0.978391
v -0.195090 0.449066 0.978391
v -0.382683 0.415488 0.921486
v -0.382683 0.449066 0.921486
v -0.434920 0.415488 0.681662
v -0.434920 0.449066 0.681662
v -0.586456 0.415488 0.557299
v -0.586456 0.449066 0.557299
v -0.831470 0.415488 0.553176
v -0.831470 0.449066 0.553176
v -0.923880 0.415488 0.380289
v -0.923880 0.449066 0.380289
v -0.790755 0.415488 0.173468
v -0.790755 0.449066 0.173468
v -0.809970 0.415488 -0.021623
v -0.809970 0.449066 -0.021623
v -0.980785 0.415488 -0.197484
v -0.980785 0.449066 -0.197484
v -0.923880 0.415488 -0.385077
v -0.923880 0.449066 -0.385077
v -0.681054 0.415488 -0.436710
v -0.681054 0.449066 -0.436710
v -0.556691 0.415488 -0.588247
v -0.556691 0.449066 -0.588247
v -0.555570 0.415488 -0.833864
v -0.555570 0.449066 -0.833864
v -0.382683 0.415488 -0.926274
v -0.382683 0.449066 -0.926274
v -0.176772 0.415488 -0.792542
v -0.176772 0.449066 -0.792542
v -0.310999 0.449066 -0.214060
v -0.209171 0.449066 -0.315441
v -0.266224 0.449066 -0.268618
v -0.073451 0.449066 -0.371658
v 0.073451 0.449066 -0.371658
v 0.000000 0.449066 -0.378892
v -0.144080 0.449066 -0.350233
v -0.347839 0.449066 -0.146474
v -0.369264 0.449066 -0.075845
v 0.144080 0.449066 -0.350233
v -0.313047 0.449066 -0.211565
v -0.376498 0.449066 -0.002394
v -0.369264 0.449066 0.071057
v 0.209171 0.449066 -0.315441
v -0.347839 0.449066 0.141686
v -0.313047 0.449066 0.206777
v 0.266224 0.449066 -0.268618
v -0.266224 0.449066 0.263830
v -0.144080 0.449066 0.345445
v -0.073451 0.449066 0.366870
v -0.209171 0.449066 0.310653
v 0.000000 0.449066 0.374104
v 0.209171 0.449066 0.310653
v 0.144080 0.449066 0.345445
v 0.073451 0.449066 0.366870
v 0.313047 0.449066 0.206777
v 0.313047 0.449066 -0.211565
v 0.376498 0.449066 -0.002394
v 0.369264 0.449066 0.071057
v 0.369264 0.449066 -0.075845
v 0.347839 0.449066 -0.146474
v 0.266224 0.449066 0.263830
v 0.347839 0.449066 0.141686
v -0.369264 0.415488 -0.075845
v -0.313047 0.415488 -0.211565
v -0.347839 0.415488 -0.146474
v -0.209171 0.415488 -0.315441
v -0.073451 0.415488 -0.371658
v -0.144080 0.415488 -0.350233
v -0.266224 0.415488 -0.268618
v 0.073451 0.415488 -0.371658
v 0.209171 0.415488 -0.315441
v 0.144080 0.415488 -0.350233
v 0.347839 0.415488 -0.146474
v 0.313047 0.415488 -0.211565
v 0.376498 0.415488 -0.002394
v 0.369264 0.415488 -0.075845
v 0.266224 0.415488 -0.268618
v 0.000000 0.415488 -0.378892
v -0.369264 0.415488 0.071057
v -0.376498 0.415488 -0.002394
v -0.347839 0.415488 0.141686
v -0.266224 0.415488 0.263830
v -0.313047 0.415488 0.206777
v -0.144080 0.415488 0.345445
v 0.000000 0.415488 0.374104
v -0.073451 0.415488 0.366870
v -0.209171 0.415488 0.310653
v 0.144080 0.415488 0.345445
v 0.266224 0.415488 0.263830
v 0.209171 0.415488 0.310653
v 0.347839 0.415488 0.141686
v 0.369264 0.415488 0.071057
v 0.313047 0.415488 0.206777
v 0.073451 0.415488 0.366870
v -0.376097 0.501105 0.334442
v -0.443011 0.501105 0.199502
v -0.376097 0.603861 0.334442
v -0.237063 0.501105 0.401356
v -0.237063 0.603861 0.401356
v -0.237063 0.448586 0.199502
v 0.166646 0.501105 0.401356
v 0.166646 0.603861 0.401356
v 0.297494 0.501105 0.334442
v 0.166646 0.448586 0.199502
v 0.364408 0.501105 0.199502
v 0.166646 0.448586 -0.204208
v 0.364408 0.501105 -0.204208
v -0.237063 0.448586 -0.204208
v 0.166646 0.501105 -0.406062
v 0.297494 0.501105 -0.339149
v -0.237063 0.501105 -0.406062
v 0.166493 0.603861 -0.404744
v 0.297494 0.603861 -0.339149
v -0.237216 0.603861 -0.404744
v 0.166493 1.007570 -0.404744
v 0.297494 1.007570 -0.339149
v -0.237216 1.007570 -0.404744
v 0.166646 1.129153 -0.406062
v 0.297494 1.129153 -0.339149
v -0.237063 1.129153 -0.406062
v 0.166646 1.162414 -0.204208
v 0.364408 1.129153 -0.204208
v -0.237063 1.162414 -0.204208
v 0.166646 1.162414 0.199502
v 0.364408 1.129153 0.199502
v -0.237063 1.162414 0.199502
v 0.166646 1.129153 0.401356
v 0.297494 1.129153 0.334442
v -0.237063 1.129153 0.401356
v 0.166646 1.007570 0.401356
v 0.297494 1.007570 0.334442
v -0.237063 1.007570 0.401356
v -0.376097 1.007570 0.334442
v -0.443011 1.007570 0.199502
v -0.376097 1.129153 0.334442
v -0.443011 1.129153 0.199502
v -0.443011 1.129153 -0.204208
v -0.443011 1.007570 -0.204208
v -0.376097 1.129153 -0.339149
v -0.376097 1.007570 -0.339149
v -0.376097 0.603861 -0.339149
v -0.443164 0.603861 -0.202890
v -0.376097 0.501105 -0.339149
v -0.443011 0.501105 -0.204208
v -0.443011 0.603861 0.199502
v 0.364255 1.007570 0.200820
v 0.297494 0.603861 0.334442
v 0.364255 0.603861 0.200820
v 0.364255 0.603861 -0.202890
v 0.364255 1.007570 -0.202890
v -0.024453 1.125855 0.202059
v -0.024453 1.372644 0.202059
v -0.024453 1.125855 0.153153
v -0.024453 1.372644 0.153153
v 0.024453 1.125855 0.202059
v 0.024453 1.372644 0.202059
v 0.024453 1.125855 0.153153
v 0.024453 1.372644 0.153153
vn -1.0000 -0.0000 -0.0000
vn -0.0000 -0.0000 -1.0000
vn 1.0000 -0.0000 -0.0000
vn -0.0000 -0.0000 1.0000
vn -0.0000 -1.0000 -0.0000
vn -0.0000 1.0000 -0.0000
vn -1.0000 0.0003 -0.0000
vn 0.0042 -0.7679 0.6406
vn 0.0047 0.7679 0.6406
vn 0.0061 1.0000 -0.0078
vn 1.0000 -0.0003 -0.0000
vn 0.0002 0.7709 -0.6370
vn -0.0002 -0.7709 -0.6370
vn 0.0054 -1.0000 -0.0078
vn -0.0000 -0.3599 0.9330
vn -0.0000 -0.3599 -0.9330
vn 0.9330 -0.3599 -0.0000
vn -0.9330 -0.3599 -0.0000
vn -0.6962 -0.0000 -0.7179
vn 0.2903 -0.0000 -0.9569
vn 0.9752 -0.0000 -0.2215
vn 0.6344 -0.0000 -0.7730
vn 0.0131 -0.0000 -0.9999
vn 0.8819 -0.0000 -0.4714
vn 0.8340 -0.0000 0.5517
vn 0.9952 -0.0000 -0.0980
vn 0.7238 -0.0000 -0.6900
vn 0.9569 -0.0000 0.2903
vn 0.2143 -0.0000 0.9768
vn 0.7730 -0.0000 0.6344
vn 0.9998 -0.0000 0.0221
vn 0.4714 -0.0000 0.8819
vn -0.5409 -0.0000 0.8411
vn 0.0980 -0.0000 0.9952
vn 0.6933 -0.0000 0.7207
vn -0.2903 -0.0000 0.9569
vn -0.9771 -0.0000 0.2128
vn -0.6344 -0.0000 0.7730
vn -0.0168 -0.0000 0.9999
vn -0.8819 -0.0000 0.4714
vn -0.8409 -0.0000 -0.5412
vn -0.9952 -0.0000 0.0980
vn -0.7173 -0.0000 0.6967
vn -0.9569 -0.0000 -0.2903
vn -0.2080 -0.0000 -0.9781
vn -0.7730 -0.0000 -0.6344
vn -1.0000 -0.0000 -0.0046
vn -0.4714 -0.0000 -0.8819
vn 0.5447 -0.0000 -0.8386
vn -0.0980 -0.0000 -0.9952
vn -0.0980 -0.0000 0.9952
vn -0.4714 -0.0000 0.8819
vn -0.7730 -0.0000 0.6344
vn -0.9569 -0.0000 0.2903
vn -0.9952 -0.0000 -0.0980
vn -0.8819 -0.0000 -0.4714
vn -0.6344 -0.0000 -0.7730
vn -0.2903 -0.0000 -0.9569
vn 0.0980 -0.0000 -0.9952
vn 0.4714 -0.0000 -0.8819
vn 0.7730 -0.0000 -0.6344
vn 0.9569 -0.0000 -0.2903
vn 0.9952 -0.0000 0.0980
vn 0.8819 -0.0000 0.4714
vn 0.6344 -0.0000 0.7730
vn 0.2903 -0.0000 0.9569
vn -0.8959 -0.0000 0.4443
vn -0.1832 -0.9651 0.1869
vn -0.4337 -0.0000 0.9011
vn -0.0000 -0.9678 0.2518
vn 0.4553 -0.0000 0.8903
vn 0.1923 -0.9631 0.1884
vn 0.2567 -0.9665 -0.0000
vn 0.1923 -0.9631 -0.1884
vn -0.0000 -0.9678 -0.2518
vn 0.4515 0.0061 -0.8922
vn -0.0000 0.0128 -0.9999
vn 0.4477 -0.0000 -0.8942
vn 0.4515 -0.0051 -0.8922
vn -0.0000 -0.0108 -0.9999
vn 0.1245 0.9847 -0.1220
vn -0.0000 0.9867 -0.1626
vn 0.1659 0.9861 -0.0000
vn 0.1245 0.9847 0.1220
vn -0.0000 0.9867 0.1626
vn -0.1185 0.9856 0.1209
vn -0.1594 0.9872 -0.0000
vn -0.1185 0.9856 -0.1209
vn -0.8959 -0.0000 -0.4443
vn -0.4304 -0.0046 -0.9026
vn -0.4271 -0.0000 -0.9042
vn -0.8970 -0.0004 -0.4421
vn -0.8966 -0.0006 -0.4429
vn -0.4304 0.0055 -0.9026
vn -0.8966 0.0022 -0.4429
vn -0.1832 -0.9651 -0.1869
vn -0.2471 -0.9690 -0.0000
vn -1.0000 -0.0006 0.0001
vn -1.0000 -0.0007 0.0007
vn -1.0000 0.0002 0.0002
vn 0.8952 0.0019 0.4456
vn 0.8946 -0.0000 0.4469
vn 0.8952 -0.0022 0.4456
vn 1.0000 0.0015 -0.0000
vn 0.8980 -0.0000 -0.4400
vn 0.8970 0.0035 -0.4421
vn 1.0000 -0.0013 -0.0000
vn 0.8970 -0.0030 -0.4421
vt 0.375000 0.000000
vt 0.625000 0.000000
vt 0.625000 0.250000
vt 0.375000 0.250000
vt 0.625000 0.500000
vt 0.375000 0.500000
vt 0.625000 0.750000
vt 0.375000 0.750000
vt 0.625000 1.000000
vt 0.375000 1.000000
vt 0.125000 0.500000
vt 0.125000 0.750000
vt 0.875000 0.500000
vt 0.875000 0.750000
vt 0.625000 0.083333
vt 0.625000 0.166667
vt 0.375000 0.166667
vt 0.375000 0.083333
vt 0.125000 0.666667
vt 0.375000 0.666667
vt 0.625000 0.666667
vt 0.875000 0.666667
vt 0.625000 0.583333
vt 0.875000 0.583333
vt 0.375000 0.583333
vt 0.125000 0.583333
vt 0.000000 0.000000
vt 0.437500 0.000000
vt 0.437500 0.062500
vt 0.375000 0.062500
vt 0.125000 0.687500
vt 0.188767 0.687500
vt 0.188767 0.750000
vt 0.375000 0.936233
vt 0.437500 0.936233
vt 0.437500 1.000000
vt 0.375000 0.811233
vt 0.437500 0.811233
vt 0.313767 0.687500
vt 0.313767 0.750000
vt 0.437500 0.750000
vt 0.375000 0.687500
vt 0.313767 0.562500
vt 0.375000 0.562500
vt 0.188767 0.562500
vt 0.313767 0.500000
vt 0.188767 0.500000
vt 0.375000 0.438767
vt 0.437500 0.438767
vt 0.437500 0.500000
vt 0.437500 0.313767
vt 0.375000 0.313767
vt 0.562500 0.438767
vt 0.562500 0.500000
vt 0.562500 0.313767
vt 0.625000 0.438767
vt 0.625000 0.313767
vt 0.686233 0.500000
vt 0.686233 0.562500
vt 0.625000 0.562500
vt 0.811233 0.500000
vt 0.811233 0.562500
vt 0.686233 0.687500
vt 0.625000 0.687500
vt 0.811233 0.687500
vt 0.686233 0.750000
vt 0.811233 0.750000
vt 0.562500 0.750000
vt 0.625000 0.811233
vt 0.562500 0.811233
vt 0.625000 0.936233
vt 0.562500 0.936233
vt 0.562500 1.000000
vt 0.562500 0.000000
vt 0.562500 0.062500
vt 0.625000 0.062500
vt 0.875000 0.687500
vt 0.875000 0.562500
vt 0.625000 0.187500
vt 0.562500 0.187500
vt 0.562500 0.250000
vt 0.437500 0.250000
vt 0.437500 0.187500
vt 0.375000 0.187500
vt 0.125000 0.562500
vt 0.562500 0.687500
vt 0.437500 0.687500
vt 0.562500 0.562500
vt 0.437500 0.562500
s 0
f 1/1/1 2/2/1 4/3/1 3/4/1
f 3/4/2 4/3/2 8/5/2 7/6/2
f 7/6/3 8/5/3 6/7/3 5/8/3
f 5/8/4 6/7/4 2/9/4 1/10/4
f 3/11/5 7/6/5 5/8/5 1/12/5
f 8/5/6 4/13/6 2/14/6 6/7/6
f 9/1/7 12/2/7 14/15/7 15/16/7 19/3/7 21/4/7 24/17/7 10/18/7
f 10/19/8 23/20/8 11/8/8 9/12/8
f 11/8/4 13/7/4 12/9/4 9/10/4
f 16/21/9 14/22/9 12/14/9 13/7/9
f 17/23/10 15/24/10 14/22/10 16/21/10
f 20/6/11 18/5/11 17/23/11 16/21/11 13/7/11 11/8/11 23/20/11 22/25/11
f 18/5/12 19/13/12 15/24/12 17/23/12
f 21/4/2 19/3/2 18/5/2 20/6/2
f 21/11/13 20/6/13 22/25/13 24/26/13
f 24/26/14 22/25/14 23/20/14 10/19/14
f 25/27/15 29/27/15 27/27/15
f 26/27/16 28/27/16 29/27/16
f 27/27/17 29/27/17 28/27/17
f 29/27/18 25/27/18 26/27/18
f 26/27/6 25/27/6 27/27/6 28/27/6
s 1
f 30/27/19 31/27/19 33/27/19 32/27/19
f 32/27/20 33/27/20 35/27/20 34/27/20
f 34/27/21 35/27/21 37/27/21 36/27/21
f 36/27/22 37/27/22 39/27/22 38/27/22
f 38/27/23 39/27/23 41/27/23 40/27/23
f 40/27/24 41/27/24 43/27/24 42/27/24
f 42/27/25 43/27/25 45/27/25 44/27/25
f 44/27/26 45/27/26 47/27/26 46/27/26
f 46/27/27 47/27/27 49/27/27 48/27/27
f 48/27/28 49/27/28 51/27/28 50/27/28
f 50/27/29 51/27/29 53/27/29 52/27/29
f 52/27/30 53/27/30 55/27/30 54/27/30
f 54/27/31 55/27/31 57/27/31 56/27/31
f 56/27/32 57/27/32 59/27/32 58/27/32
f 58/27/33 59/27/33 61/27/33 60/27/33
f 60/27/34 61/27/34 63/27/34 62/27/34
f 62/27/35 63/27/35 65/27/35 64/27/35
f 64/27/36 65/27/36 67/27/36 66/27/36
f 66/27/37 67/27/37 69/27/37 68/27/37
f 68/27/38 69/27/38 71/27/38 70/27/38
f 70/27/39 71/27/39 73/27/39 72/27/39
f 72/27/40 73/27/40 75/27/40 74/27/40
f 74/27/41 75/27/41 77/27/41 76/27/41
f 76/27/42 77/27/42 79/27/42 78/27/42
f 78/27/43 79/27/43 81/27/43 80/27/43
f 80/27/44 81/27/44 83/27/44 82/27/44
f 82/27/45 83/27/45 85/27/45 84/27/45
f 84/27/46 85/27/46 87/27/46 86/27/46
f 86/27/47 87/27/47 89/27/47 88/27/47
f 88/27/48 89/27/48 91/27/48 90/27/48
f 43/27/6 41/27/6 39/27/6 37/27/6 35/27/6 33/27/6 31/27/6 93/27/6 91/27/6 89/27/6 87/27/6 85/27/6 94/27/6 96/27/6 95/27/6 100/27/6 97/27/6 99/27/6 98/27/6 103/27/6 107/27/6 110/27/6 120/27/6 124/27/6 123/27/6 121/27/6 122/27/6 126/27/6 119/27/6 125/27/6 116/27/6 117/27/6 118/27/6 115/27/6 113/27/6 112/27/6 114/27/6 111/27/6 109/27/6 108/27/6 106/27/6 77/27/6 75/27/6 73/27/6 71/27/6 69/27/6 67/27/6 65/27/6 63/27/6 61/27/6 59/27/6 57/27/6 55/27/6 53/27/6 51/27/6 49/27/6 47/27/6 45/27/6
f 85/27/6 83/27/6 81/27/6 79/27/6 77/27/6 106/27/6 105/27/6 102/27/6 101/27/6 104/27/6 94/27/6
f 90/27/49 91/27/49 93/27/49 92/27/49
f 92/27/50 93/27/50 31/27/50 30/27/50
f 131/27/5 92/27/5 30/27/5 32/27/5 34/27/5 36/27/5 38/27/5 40/27/5 42/27/5 44/27/5 46/27/5 139/27/5 140/27/5 137/27/5 138/27/5 141/27/5 135/27/5 136/27/5 134/27/5 142/27/5
f 139/27/5 46/27/5 48/27/5 50/27/5 52/27/5 54/27/5 56/27/5 58/27/5 60/27/5 62/27/5 64/27/5 66/27/5 68/27/5 70/27/5 72/27/5 74/27/5 76/27/5 78/27/5 80/27/5 82/27/5 84/27/5 86/27/5 88/27/5 90/27/5 92/27/5 131/27/5 132/27/5 130/27/5 133/27/5 128/27/5 129/27/5 127/27/5 144/27/5 143/27/5 145/27/5 147/27/5 146/27/5 151/27/5 148/27/5 150/27/5 149/27/5 158/27/5 152/27/5 154/27/5 153/27/5 157/27/5 155/27/5 156/27/5
f 134/27/51 98/27/51 99/27/51 142/27/51
f 136/27/36 103/27/36 98/27/36 134/27/36
f 135/27/52 107/27/52 103/27/52 136/27/52
f 141/27/38 110/27/38 107/27/38 135/27/38
f 120/27/53 110/27/53 141/27/53 138/27/53
f 124/27/40 120/27/40 138/27/40 137/27/40
f 123/27/54 124/27/54 137/27/54 140/27/54
f 121/27/42 123/27/42 140/27/42 139/27/42
f 122/27/55 121/27/55 139/27/55 156/27/55
f 126/27/44 122/27/44 156/27/44 155/27/44
f 119/27/56 126/27/56 155/27/56 157/27/56
f 125/27/46 119/27/46 157/27/46 153/27/46
f 116/27/57 125/27/57 153/27/57 154/27/57
f 117/27/48 116/27/48 154/27/48 152/27/48
f 118/27/58 117/27/58 152/27/58 158/27/58
f 115/27/50 118/27/50 158/27/50 149/27/50
f 113/27/59 115/27/59 149/27/59 150/27/59
f 112/27/20 113/27/20 150/27/20 148/27/20
f 114/27/60 112/27/60 148/27/60 151/27/60
f 111/27/22 114/27/22 151/27/22 146/27/22
f 147/27/61 109/27/61 111/27/61 146/27/61
f 145/27/24 108/27/24 109/27/24 147/27/24
f 143/27/62 106/27/62 108/27/62 145/27/62
f 144/27/26 105/27/26 106/27/26 143/27/26
f 127/27/63 102/27/63 105/27/63 144/27/63
f 129/27/28 101/27/28 102/27/28 127/27/28
f 128/27/64 104/27/64 101/27/64 129/27/64
f 133/27/30 96/27/30 94/27/30 104/27/30 128/27/30
f 130/27/65 95/27/65 96/27/65 133/27/65
f 132/27/32 100/27/32 95/27/32 130/27/32
f 131/27/66 97/27/66 100/27/66 132/27/66
f 142/27/34 99/27/34 97/27/34 131/27/34
s 0
f 159/1/67 161/28/67 209/29/67 160/30/67
f 160/31/68 164/32/68 162/33/68 159/12/68
f 162/34/69 163/35/69 161/36/69 159/10/69
f 165/37/4 166/38/4 163/35/4 162/34/4
f 164/32/70 168/39/70 165/40/70 162/33/70
f 167/8/71 211/41/71 166/38/71 165/37/71
f 168/39/72 169/42/72 167/8/72 165/40/72
f 170/43/73 171/44/73 169/42/73 168/39/73
f 172/45/5 170/43/5 168/39/5 164/32/5
f 173/46/74 174/6/74 171/44/74 170/43/74
f 175/47/75 173/46/75 170/43/75 172/45/75
f 173/48/76 176/49/76 177/50/76 174/6/76
f 178/51/77 176/49/77 173/48/77 175/52/77
f 176/49/78 179/53/78 180/54/78 177/50/78
f 181/55/2 179/53/2 176/49/2 178/51/2
f 179/53/79 182/56/79 183/5/79 180/54/79
f 184/57/80 182/56/80 179/53/80 181/55/80
f 183/5/81 182/58/81 185/59/81 186/60/81
f 182/58/82 184/61/82 187/62/82 185/59/82
f 185/59/83 188/63/83 189/64/83 186/60/83
f 190/65/6 188/63/6 185/59/6 187/62/6
f 189/64/84 188/63/84 191/66/84 192/7/84
f 188/63/85 190/65/85 193/67/85 191/66/85
f 195/68/71 192/7/71 191/69/71 194/70/71
f 194/70/4 191/69/4 193/71/4 196/72/4
f 195/68/71 194/70/71 166/38/71 211/41/71
f 166/38/4 194/70/4 196/72/4 163/35/4
f 196/72/69 193/71/69 199/9/69 197/73/69
f 163/35/69 196/72/69 197/73/69 161/36/69
f 161/28/67 197/74/67 198/75/67 209/29/67
f 197/74/67 199/2/67 200/76/67 198/75/67
f 190/65/86 200/77/86 199/14/86 193/67/86
f 200/77/87 190/65/87 187/62/87 201/78/87
f 198/75/1 200/76/1 201/79/1 202/80/1
f 184/61/88 203/13/88 201/78/88 187/62/88
f 202/80/89 201/79/89 203/3/89 204/81/89
f 204/81/90 203/3/90 184/57/90 181/55/90
f 204/81/91 181/55/91 178/51/91 205/82/91
f 206/83/92 202/80/93 204/81/93 205/82/92
f 207/4/94 205/82/94 178/51/94 175/52/94
f 208/84/95 206/83/95 205/82/95 207/4/95
f 207/11/96 175/47/96 172/45/96 208/85/96
f 208/85/97 172/45/97 164/32/97 160/31/97
f 160/30/98 209/29/98 206/83/99 208/84/99
f 209/29/100 198/75/100 202/80/100 206/83/100
f 210/86/101 189/64/101 192/7/101 195/68/101
f 212/87/102 210/86/102 195/68/102 211/41/102
f 169/42/103 212/87/103 211/41/103 167/8/103
f 214/88/3 210/86/3 212/87/3 213/89/3
f 213/89/104 212/87/104 169/42/104 171/44/104
f 177/50/105 180/54/105 214/88/105 213/89/105
f 174/6/106 177/50/106 213/89/106 171/44/106
f 214/88/107 186/60/107 189/64/107 210/86/107
f 180/54/108 183/5/108 186/60/108 214/88/108
f 215/1/1 216/2/1 218/3/1 217/4/1
f 217/4/2 218/3/2 222/5/2 221/6/2
f 221/6/3 222/5/3 220/7/3 219/8/3
f 219/8/4 220/7/4 216/9/4 215/10/4
f 217/11/5 221/6/5 219/8/5 215/12/5
f 222/5/6 218/13/6 216/14/6 220/7/6
