# Blender 4.4.3
# www.blender.org
mtllib Warrior.mtl
o 立方体.008
v -0.063102 0.647620 -0.416898
v -0.063102 1.299618 -0.416898
v -0.063102 0.647620 -0.543102
v -0.063102 1.299618 -0.543102
v 0.063102 0.647620 -0.416898
v 0.063102 1.299618 -0.416898
v 0.063102 0.647620 -0.543102
v 0.063102 1.299618 -0.543102
v 0.000000 0.717177 -0.114744
v 0.000000 0.717177 0.165032
v 0.258389 0.610148 -0.114744
v -0.258389 0.610148 -0.114744
v -0.365417 0.351759 -0.114744
v -0.258389 0.610148 0.165032
v -0.365417 0.351759 0.165032
v -0.258389 0.093370 0.165032
v 0.000000 -0.013658 0.165032
v -0.258389 0.093370 -0.114744
v 0.000000 -0.013658 -0.114744
v 0.258389 0.093370 -0.114744
v 0.365417 0.351759 -0.114744
v 0.258389 0.093370 0.165032
v 0.365417 0.351759 0.165032
v 0.258389 0.610148 0.165032
v 0.003835 0.271304 -0.186152
v 0.040841 0.235418 -0.186152
v 0.003835 0.271304 -0.203560
v -0.037007 0.275327 -0.186152
v -0.080113 0.247331 -0.186152
v -0.037007 0.275327 -0.203560
v -0.015377 0.363437 -0.186152
v 0.000000 0.361923 -0.186152
v -0.030163 0.367923 -0.186152
v -0.015377 0.363437 -0.203560
v -0.030163 0.367923 -0.203560
v 0.000000 0.361923 -0.203560
v 0.015377 0.363437 -0.203560
v 0.030163 0.367923 -0.203560
v 0.015377 0.363437 -0.186152
v 0.030163 0.367923 -0.186152
v 0.043789 0.375206 -0.186152
v 0.055733 0.385008 -0.186152
v 0.043789 0.375206 -0.203560
v 0.055733 0.385008 -0.203560
v 0.065535 0.396952 -0.203560
v 0.072819 0.410579 -0.203560
v 0.065535 0.396952 -0.186152
v 0.072819 0.410579 -0.186152
v 0.077304 0.425365 -0.186152
v 0.078819 0.440741 -0.186152
v 0.077304 0.425365 -0.203560
v 0.078819 0.440741 -0.203560
v 0.077304 0.456118 -0.203560
v 0.072819 0.470904 -0.203560
v 0.077304 0.456118 -0.186152
v 0.072819 0.470904 -0.186152
v 0.065535 0.484531 -0.186152
v 0.055733 0.496474 -0.186152
v 0.065535 0.484531 -0.203560
v 0.055733 0.496474 -0.203560
v 0.043789 0.506277 -0.203560
v 0.030163 0.513560 -0.203560
v 0.043789 0.506277 -0.186152
v 0.030163 0.513560 -0.186152
v 0.015377 0.518045 -0.186152
v 0.000000 0.519560 -0.186152
v 0.015377 0.518045 -0.203560
v 0.000000 0.519560 -0.203560
v -0.015377 0.518045 -0.203560
v -0.030163 0.513560 -0.203560
v -0.015377 0.518045 -0.186152
v -0.030163 0.513560 -0.186152
v -0.043789 0.506277 -0.186152
v -0.055733 0.496474 -0.186152
v -0.043789 0.506277 -0.203560
v -0.055733 0.496474 -0.203560
v -0.065535 0.484531 -0.203560
v -0.072819 0.470904 -0.203560
v -0.065535 0.484531 -0.186152
v -0.072819 0.470904 -0.186152
v -0.077304 0.456118 -0.186152
v -0.078819 0.440741 -0.186152
v -0.077304 0.456118 -0.203560
v -0.165542 0.477557 -0.203560
v -0.078819 0.440741 -0.203560
v -0.077304 0.425365 -0.203560
v -0.072819 0.410579 -0.203560
v -0.077304 0.425365 -0.186152
v -0.072819 0.410579 -0.186152
v -0.065535 0.396952 -0.186152
v -0.055733 0.385008 -0.186152
v -0.065535 0.396952 -0.203560
v -0.065107 0.396430 -0.203560
v -0.142576 0.349819 -0.203560
v -0.055733 0.385008 -0.203560
v -0.043789 0.375206 -0.203560
v -0.043789 0.375206 -0.186152
v -0.193411 0.360628 -0.203560
v -0.142576 0.349819 -0.186152
v -0.116541 0.318095 -0.203560
v -0.116541 0.318095 -0.186152
v -0.116307 0.266676 -0.203560
v -0.116307 0.266676 -0.186152
v -0.080113 0.247331 -0.203560
v -0.193411 0.360628 -0.186152
v -0.205324 0.399900 -0.186152
v -0.169565 0.436716 -0.186001
v -0.205324 0.399900 -0.203560
v -0.169565 0.436716 -0.203711
v -0.165542 0.477557 -0.186152
v -0.193411 0.520855 -0.186152
v -0.174065 0.557048 -0.186152
v -0.193411 0.520855 -0.203560
v -0.174065 0.557048 -0.203560
v -0.122773 0.557911 -0.203560
v -0.091049 0.583946 -0.203560
v -0.122773 0.557911 -0.186152
v -0.091049 0.583946 -0.186152
v -0.080113 0.634152 -0.186152
v -0.040841 0.646065 -0.186152
v -0.080113 0.634152 -0.203560
v -0.040841 0.646065 -0.203560
v -0.003827 0.610457 -0.203560
v 0.037014 0.606434 -0.203560
v -0.003827 0.610457 -0.186152
v 0.037014 0.606434 -0.186152
v 0.080113 0.634152 -0.186152
v 0.116307 0.614806 -0.186152
v 0.080113 0.634152 -0.203560
v 0.116307 0.614806 -0.203560
v 0.117438 0.563534 -0.203560
v 0.143473 0.531810 -0.203560
v 0.117438 0.563534 -0.186152
v 0.143473 0.531810 -0.186152
v 0.193411 0.520855 -0.186152
v 0.205324 0.481583 -0.186152
v 0.193411 0.520855 -0.203560
v 0.205324 0.481583 -0.203560
v 0.169381 0.443875 -0.203560
v 0.165358 0.403034 -0.203560
v 0.169381 0.443875 -0.186152
v 0.165358 0.403034 -0.186152
v 0.193411 0.360628 -0.186152
v 0.174066 0.324435 -0.186152
v 0.193411 0.360628 -0.203560
v 0.174066 0.324435 -0.203560
v 0.123288 0.323772 -0.203560
v 0.091564 0.297737 -0.203560
v 0.123288 0.323772 -0.186152
v 0.091564 0.297737 -0.186152
v 0.080113 0.247331 -0.186152
v 0.080113 0.247331 -0.203560
v 0.040841 0.235418 -0.203560
v -0.081932 0.350278 0.233654
v -0.081932 0.350278 0.176633
v -0.081932 0.800665 0.233654
v 0.081932 0.350278 0.233654
v 0.081932 0.350278 0.176633
v 0.081932 0.800665 0.233654
v 0.081932 0.800665 0.176633
v -0.081932 0.800665 0.176633
v -0.081932 0.350278 -0.126345
v -0.081932 0.350278 -0.183367
v -0.081932 0.800665 -0.126345
v 0.081932 0.350278 -0.126345
v 0.081932 0.350278 -0.183367
v 0.081932 0.800665 -0.126345
v 0.081932 0.800665 -0.183367
v -0.081932 0.800665 -0.183367
v 0.003835 0.271304 0.253848
v 0.040841 0.235418 0.253848
v 0.003835 0.271304 0.236440
v -0.037007 0.275327 0.253848
v -0.080113 0.247331 0.253848
v -0.037007 0.275327 0.236440
v -0.015377 0.363437 0.253848
v 0.000000 0.361923 0.253848
v -0.030163 0.367923 0.253848
v -0.015377 0.363437 0.236440
v -0.030163 0.367923 0.236440
v 0.000000 0.361923 0.236440
v 0.015377 0.363437 0.236440
v 0.030163 0.367923 0.236440
v 0.015377 0.363437 0.253848
v 0.030163 0.367923 0.253848
v 0.043789 0.375206 0.253848
v 0.055733 0.385008 0.253848
v 0.043789 0.375206 0.236440
v 0.055733 0.385008 0.236440
v 0.065535 0.396952 0.236440
v 0.072819 0.410579 0.236440
v 0.065535 0.396952 0.253848
v 0.072819 0.410579 0.253848
v 0.077304 0.425365 0.253848
v 0.078819 0.440741 0.253848
v 0.077304 0.425365 0.236440
v 0.078819 0.440741 0.236440
v 0.077304 0.456118 0.236440
v 0.072819 0.470904 0.236440
v 0.077304 0.456118 0.253848
v 0.072819 0.470904 0.253848
v 0.065535 0.484531 0.253848
v 0.055733 0.496474 0.253848
v 0.065535 0.484531 0.236440
v 0.055733 0.496474 0.236440
v 0.043789 0.506277 0.236440
v 0.030163 0.513560 0.236440
v 0.043789 0.506277 0.253848
v 0.030163 0.513560 0.253848
v 0.015377 0.518045 0.253848
v 0.000000 0.519560 0.253848
v 0.015377 0.518045 0.236440
v 0.000000 0.519560 0.236440
v -0.015377 0.518045 0.236440
v -0.030163 0.513560 0.236440
v -0.015377 0.518045 0.253848
v -0.030163 0.513560 0.253848
v -0.043789 0.506277 0.253848
v -0.055733 0.496474 0.253848
v -0.043789 0.506277 0.236440
v -0.055733 0.496474 0.236440
v -0.065535 0.484531 0.236440
v -0.072819 0.470904 0.236440
v -0.065535 0.484531 0.253848
v -0.072819 0.470904 0.253848
v -0.077304 0.456118 0.253848
v -0.078819 0.440741 0.253848
v -0.077304 0.456118 0.236440
v -0.165542 0.477557 0.236440
v -0.078819 0.440741 0.236440
v -0.077304 0.425365 0.236440
v -0.072819 0.410579 0.236440
v -0.077304 0.425365 0.253848
v -0.072819 0.410579 0.253848
v -0.065535 0.396952 0.253848
v -0.055733 0.385008 0.253848
v -0.065535 0.396952 0.236440
v -0.065107 0.396430 0.236440
v -0.142576 0.349819 0.236440
v -0.055733 0.385008 0.236440
v -0.043789 0.375206 0.236440
v -0.043789 0.375206 0.253848
v -0.193411 0.360628 0.236440
v -0.142576 0.349819 0.253848
v -0.116541 0.318095 0.236440
v -0.116541 0.318095 0.253848
v -0.116307 0.266676 0.236440
v -0.116307 0.266676 0.253848
v -0.080113 0.247331 0.236440
v -0.193411 0.360628 0.253848
v -0.205324 0.399900 0.253848
v -0.169565 0.436716 0.253999
v -0.205324 0.399900 0.236440
v -0.169565 0.436716 0.236289
v -0.165542 0.477557 0.253848
v -0.193411 0.520855 0.253848
v -0.174065 0.557048 0.253848
v -0.193411 0.520855 0.236440
v -0.174065 0.557048 0.236440
v -0.122773 0.557911 0.236440
v -0.091049 0.583946 0.236440
v -0.122773 0.557911 0.253848
v -0.091049 0.583946 0.253848
v -0.080113 0.634152 0.253848
v -0.040841 0.646065 0.253848
v -0.080113 0.634152 0.236440
v -0.040841 0.646065 0.236440
v -0.003827 0.610457 0.236440
v 0.037014 0.606434 0.236440
v -0.003827 0.610457 0.253848
v 0.037014 0.606434 0.253848
v 0.080113 0.634152 0.253848
v 0.116307 0.614806 0.253848
v 0.080113 0.634152 0.236440
v 0.116307 0.614806 0.236440
v 0.117438 0.563534 0.236440
v 0.143473 0.531810 0.236440
v 0.117438 0.563534 0.253848
v 0.143473 0.531810 0.253848
v 0.193411 0.520855 0.253848
v 0.205324 0.481583 0.253848
v 0.193411 0.520855 0.236440
v 0.205324 0.481583 0.236440
v 0.169381 0.443875 0.236440
v 0.165358 0.403034 0.236440
v 0.169381 0.443875 0.253848
v 0.165358 0.403034 0.253848
v 0.193411 0.360628 0.253848
v 0.174065 0.324435 0.253848
v 0.193411 0.360628 0.236440
v 0.174065 0.324435 0.236440
v 0.123288 0.323772 0.236440
v 0.091564 0.297737 0.236440
v 0.123288 0.323772 0.253848
v 0.091564 0.297737 0.253848
v 0.080113 0.247331 0.253848
v 0.080113 0.247331 0.236440
v 0.040841 0.235418 0.236440
v -0.376097 0.853046 0.336836
v -0.443011 0.853046 0.201895
v -0.376097 0.955802 0.336836
v -0.237063 0.853046 0.403750
v -0.237063 0.955802 0.403750
v -0.237063 0.800527 0.201895
v 0.166646 0.853046 0.403750
v 0.166646 0.955802 0.403750
v 0.297494 0.853046 0.336836
v 0.166646 0.800527 0.201895
v 0.364408 0.853046 0.201895
v 0.166646 0.800527 -0.201814
v 0.364408 0.853046 -0.201814
v -0.237063 0.800527 -0.201814
v 0.166646 0.853046 -0.403669
v 0.297494 0.853046 -0.336755
v -0.237063 0.853046 -0.403669
v 0.166493 0.955802 -0.402350
v 0.297494 0.955802 -0.336755
v -0.237216 0.955802 -0.402350
v 0.166493 1.359511 -0.402350
v 0.297494 1.359511 -0.336755
v -0.237216 1.359511 -0.402350
v 0.166646 1.481093 -0.403669
v 0.297494 1.481093 -0.336755
v -0.237063 1.481093 -0.403669
v 0.166646 1.514355 -0.201814
v 0.364408 1.481093 -0.201814
v -0.237063 1.514355 -0.201814
v 0.166646 1.514355 0.201895
v 0.364408 1.481093 0.201895
v -0.237063 1.514355 0.201895
v 0.166646 1.481093 0.403750
v 0.297494 1.481093 0.336836
v -0.237063 1.481093 0.403750
v 0.166646 1.359511 0.403750
v 0.297494 1.359511 0.336836
v -0.237063 1.359511 0.403750
v -0.376097 1.359511 0.336836
v -0.443011 1.359511 0.201895
v -0.376097 1.481093 0.336836
v -0.443011 1.481093 0.201895
v -0.443011 1.481093 -0.201814
v -0.443011 1.359511 -0.201814
v -0.376097 1.481093 -0.336755
v -0.376097 1.359511 -0.336755
v -0.376097 0.955802 -0.336755
v -0.443164 0.955802 -0.200496
v -0.376097 0.853046 -0.336755
v -0.443011 0.853046 -0.201814
v -0.443011 0.955802 0.201895
v 0.364254 1.359511 0.203213
v 0.297494 0.955802 0.336836
v 0.364254 0.955802 0.203213
v 0.364254 0.955802 -0.200496
v 0.364254 1.359511 -0.200496
v 0.003796 1.087126 0.424558
v 0.003796 1.087126 0.395442
v 0.040424 1.051606 0.424558
v 0.040424 1.051606 0.395442
v 0.079294 1.063397 0.424558
v 0.079294 1.063397 0.395442
v 0.090628 1.113288 0.424558
v 0.090628 1.113288 0.395442
v 0.122027 1.139057 0.424558
v 0.122027 1.139057 0.395442
v 0.172286 1.139713 0.424558
v 0.172286 1.139713 0.395442
v 0.191434 1.175536 0.424558
v 0.191434 1.175536 0.395442
v 0.163667 1.217509 0.424558
v 0.163667 1.217509 0.395442
v 0.167649 1.257932 0.424558
v 0.167649 1.257932 0.395442
v 0.203225 1.295254 0.424558
v 0.203225 1.295254 0.395442
v 0.191434 1.334125 0.424558
v 0.191434 1.334125 0.395442
v 0.142006 1.344968 0.424558
v 0.142006 1.344968 0.395442
v 0.116237 1.376368 0.424558
v 0.116237 1.376368 0.395442
v 0.115118 1.427116 0.424558
v 0.115118 1.427116 0.395442
v 0.079294 1.446264 0.424558
v 0.079294 1.446264 0.395442
v 0.036636 1.418830 0.424558
v 0.036636 1.418830 0.395442
v -0.003788 1.422811 0.424558
v -0.003788 1.422811 0.395442
v -0.040424 1.458055 0.424558
v -0.040424 1.458055 0.395442
v -0.079294 1.446264 0.424558
v -0.079294 1.446264 0.395442
v -0.090118 1.396571 0.424558
v -0.090118 1.396571 0.395442
v -0.121517 1.370802 0.424558
v -0.121517 1.370802 0.395442
v -0.172286 1.369948 0.424558
v -0.172286 1.369948 0.395442
v -0.191434 1.334125 0.424558
v -0.191434 1.334125 0.395442
v -0.163849 1.291270 0.424558
v -0.163849 1.291270 0.395442
v -0.167831 1.250846 0.424558
v -0.167831 1.250846 0.395442
v -0.203225 1.214407 0.424558
v -0.203225 1.214407 0.395442
v -0.191434 1.175536 0.424558
v -0.191434 1.175536 0.395442
v -0.141119 1.164838 0.424558
v -0.141119 1.164838 0.395442
v -0.115350 1.133438 0.424558
v -0.115350 1.133438 0.395442
v -0.115118 1.082545 0.424558
v -0.115118 1.082545 0.395442
v -0.079294 1.063397 0.424558
v -0.079294 1.063397 0.395442
v -0.036628 1.091107 0.424558
v -0.036628 1.091107 0.395442
v -0.064441 1.210972 0.395442
v -0.043342 1.189965 0.395442
v -0.055163 1.199667 0.395442
v -0.015220 1.178317 0.395442
v 0.015220 1.178317 0.395442
v 0.000000 1.176818 0.395442
v -0.029854 1.182756 0.395442
v -0.072074 1.224976 0.395442
v -0.076514 1.239611 0.395442
v 0.029854 1.182756 0.395442
v -0.064865 1.211489 0.395442
v -0.078013 1.254831 0.395442
v -0.076514 1.270050 0.395442
v 0.043342 1.189965 0.395442
v -0.072074 1.284685 0.395442
v -0.064865 1.298172 0.395442
v 0.055163 1.199667 0.395442
v -0.055163 1.309994 0.395442
v -0.029854 1.326905 0.395442
v -0.015220 1.331344 0.395442
v -0.043342 1.319696 0.395442
v 0.000000 1.332843 0.395442
v 0.043342 1.319696 0.395442
v 0.029854 1.326905 0.395442
v 0.015220 1.331344 0.395442
v 0.064865 1.298172 0.395442
v 0.064865 1.211489 0.395442
v 0.078013 1.254831 0.395442
v 0.076514 1.270050 0.395442
v 0.076514 1.239611 0.395442
v 0.072074 1.224976 0.395442
v 0.055163 1.309994 0.395442
v 0.072074 1.284685 0.395442
v -0.076514 1.239611 0.424558
v -0.064865 1.211489 0.424558
v -0.072074 1.224976 0.424558
v -0.043342 1.189965 0.424558
v -0.015220 1.178317 0.424558
v -0.029854 1.182756 0.424558
v -0.055163 1.199667 0.424558
v 0.015220 1.178317 0.424558
v 0.043342 1.189965 0.424558
v 0.029854 1.182756 0.424558
v 0.072074 1.224976 0.424558
v 0.064865 1.211489 0.424558
v 0.078013 1.254831 0.424558
v 0.076514 1.239611 0.424558
v 0.055163 1.199667 0.424558
v 0.000000 1.176818 0.424558
v -0.076514 1.270050 0.424558
v -0.078013 1.254831 0.424558
v -0.072074 1.284685 0.424558
v -0.055163 1.309994 0.424558
v -0.064865 1.298172 0.424558
v -0.029854 1.326905 0.424558
v 0.000000 1.332843 0.424558
v -0.015220 1.331344 0.424558
v -0.043342 1.319696 0.424558
v 0.029854 1.326905 0.424558
v 0.055163 1.309994 0.424558
v 0.043342 1.319696 0.424558
v 0.072074 1.284685 0.424558
v 0.076514 1.270050 0.424558
v 0.064865 1.298172 0.424558
v 0.015220 1.331344 0.424558
v 0.003796 1.087126 -0.395442
v 0.003796 1.087126 -0.424558
v 0.040424 1.051606 -0.395442
v 0.040424 1.051606 -0.424558
v 0.079294 1.063397 -0.395442
v 0.079294 1.063397 -0.424558
v 0.090628 1.113288 -0.395442
v 0.090628 1.113288 -0.424558
v 0.122027 1.139057 -0.395442
v 0.122027 1.139057 -0.424558
v 0.172286 1.139713 -0.395442
v 0.172286 1.139713 -0.424558
v 0.191434 1.175536 -0.395442
v 0.191434 1.175536 -0.424558
v 0.163667 1.217509 -0.395442
v 0.163667 1.217509 -0.424558
v 0.167649 1.257932 -0.395442
v 0.167649 1.257932 -0.424558
v 0.203225 1.295254 -0.395442
v 0.203225 1.295254 -0.424558
v 0.191434 1.334125 -0.395442
v 0.191434 1.334125 -0.424558
v 0.142006 1.344968 -0.395442
v 0.142006 1.344968 -0.424558
v 0.116237 1.376368 -0.395442
v 0.116237 1.376368 -0.424558
v 0.115118 1.427116 -0.395442
v 0.115118 1.427116 -0.424558
v 0.079294 1.446264 -0.395442
v 0.079294 1.446264 -0.424558
v 0.036636 1.418830 -0.395442
v 0.036636 1.418830 -0.424558
v -0.003788 1.422811 -0.395442
v -0.003788 1.422811 -0.424558
v -0.040424 1.458055 -0.395442
v -0.040424 1.458055 -0.424558
v -0.079294 1.446264 -0.395442
v -0.079294 1.446264 -0.424558
v -0.090118 1.396571 -0.395442
v -0.090118 1.396571 -0.424558
v -0.121517 1.370802 -0.395442
v -0.121517 1.370802 -0.424558
v -0.172286 1.369948 -0.395442
v -0.172286 1.369948 -0.424558
v -0.191434 1.334125 -0.395442
v -0.191434 1.334125 -0.424558
v -0.163849 1.291270 -0.395442
v -0.163849 1.291270 -0.424558
v -0.167831 1.250846 -0.395442
v -0.167831 1.250846 -0.424558
v -0.203225 1.214407 -0.395442
v -0.203225 1.214407 -0.424558
v -0.191434 1.175536 -0.395442
v -0.191434 1.175536 -0.424558
v -0.141119 1.164838 -0.395442
v -0.141119 1.164838 -0.424558
v -0.115350 1.133438 -0.395442
v -0.115350 1.133438 -0.424558
v -0.115118 1.082545 -0.395442
v -0.115118 1.082545 -0.424558
v -0.079294 1.063397 -0.395442
v -0.079294 1.063397 -0.424558
v -0.036628 1.091107 -0.395442
v -0.036628 1.091107 -0.424558
v -0.064441 1.210972 -0.424558
v -0.043342 1.189965 -0.424558
v -0.055163 1.199667 -0.424558
v -0.015220 1.178317 -0.424558
v 0.015220 1.178317 -0.424558
v 0.000000 1.176818 -0.424558
v -0.029854 1.182756 -0.424558
v -0.072074 1.224976 -0.424558
v -0.076514 1.239611 -0.424558
v 0.029854 1.182756 -0.424558
v -0.064865 1.211489 -0.424558
v -0.078013 1.254831 -0.424558
v -0.076514 1.270050 -0.424558
v 0.043342 1.189965 -0.424558
v -0.072074 1.284685 -0.424558
v -0.064865 1.298172 -0.424558
v 0.055163 1.199667 -0.424558
v -0.055163 1.309994 -0.424558
v -0.029854 1.326905 -0.424558
v -0.015220 1.331344 -0.424558
v -0.043342 1.319696 -0.424558
v 0.000000 1.332843 -0.424558
v 0.043342 1.319696 -0.424558
v 0.029854 1.326905 -0.424558
v 0.015220 1.331344 -0.424558
v 0.064865 1.298172 -0.424558
v 0.064865 1.211489 -0.424558
v 0.078013 1.254831 -0.424558
v 0.076514 1.270050 -0.424558
v 0.076514 1.239611 -0.424558
v 0.072074 1.224976 -0.424558
v 0.055163 1.309994 -0.424558
v 0.072074 1.284685 -0.424558
v -0.076514 1.239611 -0.395442
v -0.064865 1.211489 -0.395442
v -0.072074 1.224976 -0.395442
v -0.043342 1.189965 -0.395442
v -0.015220 1.178317 -0.395442
v -0.029854 1.182756 -0.395442
v -0.055163 1.199667 -0.395442
v 0.015220 1.178317 -0.395442
v 0.043342 1.189965 -0.395442
v 0.029854 1.182756 -0.395442
v 0.072074 1.224976 -0.395442
v 0.064865 1.211489 -0.395442
v 0.078013 1.254831 -0.395442
v 0.076514 1.239611 -0.395442
v 0.055163 1.199667 -0.395442
v 0.000000 1.176818 -0.395442
v -0.076514 1.270050 -0.395442
v -0.078013 1.254831 -0.395442
v -0.072074 1.284685 -0.395442
v -0.055163 1.309994 -0.395442
v -0.064865 1.298172 -0.395442
v -0.029854 1.326905 -0.395442
v 0.000000 1.332843 -0.395442
v -0.015220 1.331344 -0.395442
v -0.043342 1.319696 -0.395442
v 0.029854 1.326905 -0.395442
v 0.055163 1.309994 -0.395442
v 0.043342 1.319696 -0.395442
v 0.072074 1.284685 -0.395442
v 0.076514 1.270050 -0.395442
v 0.064865 1.298172 -0.395442
v 0.015220 1.331344 -0.395442
v -0.165559 1.550010 0.165559
v -0.165559 1.881129 0.165559
v -0.165559 1.550010 -0.165559
v -0.165559 1.881129 -0.165559
v 0.165559 1.550010 0.165559
v 0.165559 1.881129 0.165559
v 0.165559 1.550010 -0.165559
v 0.165559 1.881129 -0.165559
v -0.177716 1.537853 -0.088858
v -0.177716 1.537853 0.088858
v -0.177716 1.893286 0.088858
v -0.177716 1.893286 -0.088858
v 0.177716 1.537853 0.088858
v 0.177716 1.537853 -0.088858
v 0.177716 1.893286 -0.088858
v 0.177716 1.893286 0.088858
v -0.177716 1.626711 0.177717
v -0.177716 1.804428 0.177717
v -0.177716 1.804428 -0.177716
v -0.177716 1.626711 -0.177716
v 0.177716 1.804428 -0.177716
v 0.177716 1.626711 -0.177716
v 0.177716 1.804428 0.177717
v 0.177716 1.626711 0.177717
v 0.177716 1.804428 -0.088858
v 0.177716 1.626711 -0.088858
v 0.177716 1.804428 0.088858
v 0.177716 1.626711 0.088858
v -0.177716 1.804428 0.088858
v -0.177716 1.626711 0.088858
v -0.177716 1.804428 -0.088858
v -0.177716 1.626711 -0.088858
v 0.088858 1.537853 -0.177716
v -0.088858 1.537853 -0.177716
v -0.088858 1.893286 -0.177716
v 0.088858 1.893286 -0.177716
v -0.088858 1.537853 0.177717
v 0.088858 1.537853 0.177717
v 0.088858 1.893286 0.177717
v -0.088858 1.893286 0.177717
v -0.088858 1.893286 -0.088858
v 0.088858 1.893286 -0.088858
v -0.088858 1.893286 0.088858
v 0.088858 1.893286 0.088858
v 0.088858 1.537853 -0.088858
v -0.088858 1.537853 -0.088858
v 0.088858 1.537853 0.088858
v -0.088858 1.537853 0.088858
v 0.088858 1.626711 0.177717
v -0.088858 1.626711 0.177717
v 0.088858 1.804428 0.177717
v -0.088858 1.804428 0.177717
v -0.088858 1.626711 -0.177716
v 0.088858 1.626711 -0.177716
v -0.088858 1.804428 -0.177716
v 0.088858 1.804428 -0.177716
v 0.141352 1.667867 0.130300
v 0.141329 1.594673 0.043372
v 0.259753 1.667830 0.130300
v 0.141389 1.784984 0.130300
v 0.259790 1.784947 0.130300
v 0.141412 1.858179 0.043372
v 0.141412 1.856818 -0.043556
v 0.259813 1.856781 0.043372
v 0.259813 1.856781 -0.043556
v 0.259790 1.784947 -0.130485
v 0.141389 1.784984 -0.130485
v 0.259753 1.667830 -0.130485
v 0.141352 1.667867 -0.130485
v 0.259731 1.595996 -0.043556
v 0.259731 1.595996 0.043372
v 0.141330 1.596034 -0.043556
v -0.063102 0.647620 0.543102
v -0.063102 1.299618 0.543102
v -0.063102 0.647620 0.416898
v -0.063102 1.299618 0.416898
v 0.063102 0.647620 0.543102
v 0.063102 1.299618 0.543102
v 0.063102 0.647620 0.416898
v 0.063102 1.299618 0.416898
vn -1.0000 -0.0000 -0.0000
vn -0.0000 -0.0000 -1.0000
vn 1.0000 -0.0000 -0.0000
vn -0.0000 -0.0000 1.0000
vn -0.0000 -1.0000 -0.0000
vn -0.0000 1.0000 -0.0000
vn -0.3827 0.9239 -0.0000
vn 0.3827 0.9239 -0.0000
vn -0.9239 0.3827 -0.0000
vn -0.9239 -0.3827 -0.0000
vn -0.3827 -0.9239 -0.0000
vn 0.3827 -0.9239 -0.0000
vn 0.9239 -0.3827 -0.0000
vn 0.9239 0.3827 -0.0000
vn 0.0001 -0.0000 1.0000
vn -0.6962 -0.7179 -0.0000
vn -0.0980 -0.9952 -0.0000
vn 0.5447 -0.8386 -0.0000
vn 0.1969 0.9804 -0.0000
vn 0.3862 0.9224 -0.0000
vn 0.0005 -0.0002 -1.0000
vn 0.0001 -0.0000 -1.0000
vn 0.0002 -0.0001 -1.0000
vn -0.1969 0.9804 -0.0000
vn -0.3862 0.9224 -0.0000
vn -0.5607 0.8280 -0.0000
vn -0.7134 0.7007 -0.0000
vn -0.8385 0.5448 -0.0000
vn -0.9307 0.3657 -0.0000
vn -0.9849 0.1729 -0.0000
vn -0.9849 -0.1729 -0.0000
vn -0.9307 -0.3657 -0.0000
vn -0.8385 -0.5448 -0.0000
vn -0.7134 -0.7007 -0.0000
vn -0.5607 -0.8280 -0.0000
vn -0.3862 -0.9224 -0.0000
vn -0.1969 -0.9804 -0.0000
vn 0.1969 -0.9804 -0.0000
vn 0.3862 -0.9224 -0.0000
vn 0.5607 -0.8280 -0.0000
vn 0.7134 -0.7007 -0.0000
vn 0.8385 -0.5448 -0.0000
vn 0.9307 -0.3657 -0.0000
vn 0.9849 -0.1729 -0.0000
vn 0.0005 -0.0003 -1.0000
vn 0.9849 0.1729 -0.0000
vn 0.9307 0.3657 -0.0000
vn 0.8385 0.5448 -0.0000
vn 0.7134 0.7007 -0.0000
vn 0.7730 0.6344 -0.0000
vn 0.5607 0.8280 -0.0000
vn -0.2080 -0.9781 -0.0000
vn -0.7730 -0.6344 -0.0000
vn -1.0000 -0.0046 -0.0000
vn -0.4714 -0.8819 -0.0000
vn -0.9569 -0.2903 -0.0000
vn -0.7173 0.6967 -0.0000
vn -0.9952 0.0980 -0.0000
vn -0.8409 -0.5412 -0.0000
vn -0.8819 0.4714 -0.0000
vn -0.0168 0.9999 -0.0000
vn -0.6344 0.7730 -0.0000
vn -0.9771 0.2128 -0.0000
vn -0.2903 0.9569 -0.0000
vn 0.6933 0.7207 -0.0000
vn 0.0980 0.9952 -0.0000
vn -0.5409 0.8411 -0.0000
vn 0.4714 0.8819 -0.0000
vn 0.9998 0.0221 -0.0000
vn 0.2143 0.9768 -0.0000
vn 0.9569 0.2903 -0.0000
vn 0.7238 -0.6900 -0.0000
vn 0.9952 -0.0980 -0.0000
vn 0.8340 0.5517 -0.0000
vn 0.8819 -0.4714 -0.0000
vn 0.0131 -0.9999 -0.0000
vn 0.6344 -0.7730 -0.0000
vn 0.9752 -0.2215 -0.0000
vn 0.2903 -0.9569 -0.0000
vn -0.8959 -0.0000 0.4443
vn -0.1832 -0.9651 0.1869
vn -0.4337 -0.0000 0.9011
vn -0.0000 -0.9678 0.2518
vn 0.4553 -0.0000 0.8903
vn 0.1923 -0.9631 0.1884
vn 0.2567 -0.9665 -0.0000
vn 0.1923 -0.9631 -0.1884
vn -0.0000 -0.9678 -0.2518
vn 0.4515 0.0061 -0.8922
vn -0.0000 0.0128 -0.9999
vn 0.4477 -0.0000 -0.8942
vn 0.4515 -0.0051 -0.8922
vn -0.0000 -0.0108 -0.9999
vn 0.1245 0.9847 -0.1220
vn -0.0000 0.9867 -0.1626
vn 0.1659 0.9861 -0.0000
vn 0.1245 0.9847 0.1220
vn -0.0000 0.9867 0.1626
vn -0.1185 0.9856 0.1209
vn -0.1594 0.9872 -0.0000
vn -0.1185 0.9856 -0.1209
vn -0.8959 -0.0000 -0.4443
vn -0.4304 -0.0046 -0.9026
vn -0.4271 -0.0000 -0.9042
vn -0.8970 -0.0004 -0.4421
vn -0.8966 -0.0006 -0.4429
vn -0.4304 0.0055 -0.9026
vn -0.8966 0.0022 -0.4429
vn -0.1832 -0.9651 -0.1869
vn -0.2471 -0.9690 -0.0000
vn -1.0000 -0.0006 0.0001
vn -1.0000 -0.0007 0.0007
vn -1.0000 0.0002 0.0002
vn 0.8952 0.0019 0.4456
vn 0.8946 -0.0000 0.4469
vn 0.8952 -0.0022 0.4456
vn 1.0000 0.0015 -0.0000
vn 0.8980 -0.0000 -0.4400
vn 0.8970 0.0035 -0.4421
vn 1.0000 -0.0013 -0.0000
vn 0.8970 -0.0030 -0.4421
vn -0.0980 0.9952 -0.0000
vn -0.4714 0.8819 -0.0000
vn -0.7730 0.6344 -0.0000
vn -0.9569 0.2903 -0.0000
vn -0.9952 -0.0980 -0.0000
vn -0.8819 -0.4714 -0.0000
vn -0.6344 -0.7730 -0.0000
vn -0.2903 -0.9569 -0.0000
vn 0.0980 -0.9952 -0.0000
vn 0.4714 -0.8819 -0.0000
vn 0.7730 -0.6344 -0.0000
vn 0.9569 -0.2903 -0.0000
vn 0.9952 0.0980 -0.0000
vn 0.8819 0.4714 -0.0000
vn 0.6344 0.7730 -0.0000
vn 0.2903 0.9569 -0.0000
vn -0.9938 0.0788 -0.0788
vn 0.0788 0.0788 -0.9938
vn 0.9938 0.0788 0.0788
vn -0.0788 0.0788 0.9938
vn 0.0788 -0.9938 0.0788
vn -0.0788 0.9938 0.0788
vn -0.0788 0.9938 -0.0788
vn 0.0788 -0.9938 -0.0788
vn 0.9938 0.0788 -0.0788
vn -0.9938 0.0788 0.0788
vn -0.9938 -0.0788 0.0788
vn 0.9938 -0.0788 -0.0788
vn -0.0788 -0.0788 0.9938
vn 0.9938 -0.0788 0.0788
vn 0.0788 -0.0788 -0.9938
vn -0.9938 -0.0788 -0.0788
vn -0.0788 -0.0788 -0.9938
vn 0.0788 -0.0788 0.9938
vn -0.0788 -0.9938 -0.0788
vn 0.0788 0.9938 -0.0788
vn 0.0788 0.9938 0.0788
vn -0.0788 -0.9938 0.0788
vn 0.0788 0.0788 0.9938
vn -0.0788 0.0788 -0.9938
vn -1.0000 0.0003 -0.0000
vn 0.0042 -0.7679 0.6406
vn 0.0047 0.7679 0.6406
vn 0.0061 1.0000 -0.0078
vn 1.0000 -0.0003 -0.0000
vn 0.0002 0.7709 -0.6370
vn -0.0002 -0.7709 -0.6370
vn 0.0054 -1.0000 -0.0078
vt 0.375000 0.000000
vt 0.625000 0.000000
vt 0.625000 0.250000
vt 0.375000 0.250000
vt 0.625000 0.500000
vt 0.375000 0.500000
vt 0.625000 0.750000
vt 0.375000 0.750000
vt 0.625000 1.000000
vt 0.375000 1.000000
vt 0.125000 0.500000
vt 0.125000 0.750000
vt 0.875000 0.500000
vt 0.875000 0.750000
vt 0.125000 1.000000
vt 0.000000 1.000000
vt 0.000000 0.500000
vt 1.000000 1.000000
vt 0.875000 1.000000
vt 1.000000 0.500000
vt 0.750000 0.490000
vt 0.919706 0.419706
vt 0.990000 0.250000
vt 0.919706 0.080294
vt 0.750000 0.010000
vt 0.580294 0.080294
vt 0.510000 0.250000
vt 0.580294 0.419706
vt 0.250000 1.000000
vt 0.250000 0.500000
vt 0.250000 0.490000
vt 0.080294 0.419706
vt 0.010000 0.250000
vt 0.080294 0.080294
vt 0.250000 0.010000
vt 0.419706 0.080294
vt 0.490000 0.250000
vt 0.419706 0.419706
vt 0.500000 1.000000
vt 0.500000 0.500000
vt 0.750000 1.000000
vt 0.750000 0.500000
vt 0.000000 0.000000
vt 0.437500 0.000000
vt 0.437500 0.062500
vt 0.375000 0.062500
vt 0.125000 0.687500
vt 0.188767 0.687500
vt 0.188767 0.750000
vt 0.375000 0.936233
vt 0.437500 0.936233
vt 0.437500 1.000000
vt 0.375000 0.811233
vt 0.437500 0.811233
vt 0.313767 0.687500
vt 0.313767 0.750000
vt 0.437500 0.750000
vt 0.375000 0.687500
vt 0.313767 0.562500
vt 0.375000 0.562500
vt 0.188767 0.562500
vt 0.313767 0.500000
vt 0.188767 0.500000
vt 0.375000 0.438767
vt 0.437500 0.438767
vt 0.437500 0.500000
vt 0.437500 0.313767
vt 0.375000 0.313767
vt 0.562500 0.438767
vt 0.562500 0.500000
vt 0.562500 0.313767
vt 0.625000 0.438767
vt 0.625000 0.313767
vt 0.686233 0.500000
vt 0.686233 0.562500
vt 0.625000 0.562500
vt 0.811233 0.500000
vt 0.811233 0.562500
vt 0.686233 0.687500
vt 0.625000 0.687500
vt 0.811233 0.687500
vt 0.686233 0.750000
vt 0.811233 0.750000
vt 0.562500 0.750000
vt 0.625000 0.811233
vt 0.562500 0.811233
vt 0.625000 0.936233
vt 0.562500 0.936233
vt 0.562500 1.000000
vt 0.562500 0.000000
vt 0.562500 0.062500
vt 0.625000 0.062500
vt 0.875000 0.687500
vt 0.875000 0.562500
vt 0.625000 0.187500
vt 0.562500 0.187500
vt 0.562500 0.250000
vt 0.437500 0.250000
vt 0.437500 0.187500
vt 0.375000 0.187500
vt 0.125000 0.562500
vt 0.562500 0.687500
vt 0.437500 0.687500
vt 0.562500 0.562500
vt 0.437500 0.562500
vt 0.562500 0.437500
vt 0.625000 0.437500
vt 0.562500 0.937500
vt 0.625000 0.937500
vt 0.312500 0.687500
vt 0.312500 0.750000
vt 0.812500 0.687500
vt 0.812500 0.750000
vt 0.812500 0.500000
vt 0.812500 0.562500
vt 0.312500 0.500000
vt 0.312500 0.562500
vt 0.375000 0.937500
vt 0.437500 0.937500
vt 0.375000 0.437500
vt 0.437500 0.437500
vt 0.437500 0.312500
vt 0.375000 0.312500
vt 0.437500 0.812500
vt 0.375000 0.812500
vt 0.187500 0.500000
vt 0.187500 0.562500
vt 0.687500 0.500000
vt 0.687500 0.562500
vt 0.687500 0.687500
vt 0.687500 0.750000
vt 0.187500 0.687500
vt 0.187500 0.750000
vt 0.625000 0.812500
vt 0.562500 0.812500
vt 0.625000 0.312500
vt 0.562500 0.312500
vt 0.625000 0.083333
vt 0.625000 0.166667
vt 0.375000 0.166667
vt 0.375000 0.083333
vt 0.125000 0.666667
vt 0.375000 0.666667
vt 0.625000 0.666667
vt 0.875000 0.666667
vt 0.625000 0.583333
vt 0.875000 0.583333
vt 0.375000 0.583333
vt 0.125000 0.583333
s 0
f 1/1/1 2/2/1 4/3/1 3/4/1
f 3/4/2 4/3/2 8/5/2 7/6/2
f 7/6/3 8/5/3 6/7/3 5/8/3
f 5/8/4 6/7/4 2/9/4 1/10/4
f 3/11/5 7/6/5 5/8/5 1/12/5
f 8/5/6 4/13/6 2/14/6 6/7/6
f 14/15/7 10/16/7 9/17/7 12/11/7
f 10/18/8 24/19/8 11/13/8 9/20/8
f 9/21/2 11/22/2 21/23/2 20/24/2 19/25/2 18/26/2 13/27/2 12/28/2
f 15/29/9 14/15/9 12/11/9 13/30/9
f 10/31/4 14/32/4 15/33/4 16/34/4 17/35/4 22/36/4 23/37/4 24/38/4
f 16/10/10 15/29/10 13/30/10 18/6/10
f 17/39/11 16/10/11 18/6/11 19/40/11
f 22/9/12 17/39/12 19/40/12 20/5/12
f 23/41/13 22/9/13 20/5/13 21/42/13
f 24/19/14 23/41/14 21/42/14 11/13/14
s 1
f 31/43/4 28/43/15 25/43/4 26/43/4 151/43/4 150/43/4 149/43/4 144/43/4 143/43/4 142/43/4 141/43/15 50/43/4 49/43/4 48/43/4 47/43/4 42/43/4 41/43/4 40/43/4 39/43/4 32/43/4
f 25/43/16 27/43/16 153/43/16 26/43/16
f 28/43/17 30/43/17 27/43/17 25/43/17
f 50/43/4 141/43/15 136/43/15 135/43/15 134/43/15 133/43/15 128/43/15 127/43/15 126/43/15 125/43/15 120/43/15 119/43/15 118/43/15 117/43/15 112/43/15 111/43/15 110/43/15 107/43/15 106/43/15 105/43/15 99/43/15 101/43/15 103/43/15 29/43/15 28/43/15 31/43/4 33/43/15 97/43/15 91/43/15 90/43/15 89/43/15 88/43/15 82/43/15 81/43/15 80/43/15 79/43/15 74/43/15 73/43/15 72/43/15 71/43/15 66/43/15 65/43/15 64/43/15 63/43/15 58/43/15 57/43/15 56/43/15 55/43/15
f 29/43/18 104/43/18 30/43/18 28/43/18
f 32/43/6 36/43/6 34/43/19 31/43/19
f 31/43/19 34/43/19 35/43/20 33/43/20
f 145/43/2 146/43/2 147/43/2 148/43/2 152/43/2 153/43/2 27/43/2 30/43/2 104/43/2 102/43/2 100/43/2 94/43/21 93/43/22 95/43/2 96/43/2 35/43/2 34/43/2 36/43/2 37/43/2 38/43/2 43/43/2 44/43/2 45/43/2 46/43/2 51/43/2 52/43/2 53/43/2 54/43/2 59/43/2 60/43/2 61/43/2 62/43/2 67/43/2 68/43/2 69/43/2 70/43/2 75/43/2 76/43/2 77/43/2 78/43/2 83/43/23 84/43/23 113/43/2 114/43/2 115/43/2 116/43/2 121/43/2 122/43/2 123/43/2 124/43/2 129/43/2 130/43/2 131/43/2 132/43/2 137/43/2 138/43/2 139/43/2 140/43/2
f 39/43/24 37/43/24 36/43/6 32/43/6
f 40/43/25 38/43/25 37/43/24 39/43/24
f 41/43/26 43/43/26 38/43/25 40/43/25
f 42/43/27 44/43/27 43/43/26 41/43/26
f 45/43/28 44/43/27 42/43/27 47/43/28
f 46/43/29 45/43/28 47/43/28 48/43/29
f 51/43/30 46/43/29 48/43/29 49/43/30
f 52/43/1 51/43/30 49/43/30 50/43/1
f 53/43/31 52/43/1 50/43/1 55/43/31
f 54/43/32 53/43/31 55/43/31 56/43/32
f 59/43/33 54/43/32 56/43/32 57/43/33
f 60/43/34 59/43/33 57/43/33 58/43/34
f 61/43/35 60/43/34 58/43/34 63/43/35
f 62/43/36 61/43/35 63/43/35 64/43/36
f 67/43/37 62/43/36 64/43/36 65/43/37
f 68/43/5 67/43/37 65/43/37 66/43/5
f 69/43/38 68/43/5 66/43/5 71/43/38
f 70/43/39 69/43/38 71/43/38 72/43/39
f 75/43/40 70/43/39 72/43/39 73/43/40
f 76/43/41 75/43/40 73/43/40 74/43/41
f 79/43/42 77/43/42 76/43/41 74/43/41
f 80/43/43 78/43/43 77/43/42 79/43/42
f 81/43/44 83/43/44 78/43/43 80/43/43
f 82/43/3 85/43/3 83/43/44 81/43/44
f 94/43/21 98/43/45 108/43/45 109/43/45 84/43/23 83/43/23 85/43/45 86/43/45 87/43/45 92/43/45 93/43/22
f 88/43/46 86/43/46 85/43/3 82/43/3
f 89/43/47 87/43/47 86/43/46 88/43/46
f 90/43/48 92/43/48 87/43/47 89/43/47
f 91/43/49 95/43/49 93/43/50 92/43/48 90/43/48
f 97/43/51 96/43/51 95/43/49 91/43/49
f 33/43/20 35/43/20 96/43/51 97/43/51
f 105/43/52 98/43/52 94/43/52 99/43/52
f 99/43/53 94/43/53 100/43/53 101/43/53
f 101/43/54 100/43/54 102/43/54 103/43/54
f 103/43/55 102/43/55 104/43/55 29/43/55
f 106/43/56 108/43/56 98/43/56 105/43/56
f 107/43/57 109/43/57 108/43/57 106/43/57
f 110/43/58 84/43/58 109/43/58 107/43/58
f 111/43/59 113/43/59 84/43/59 110/43/59
f 112/43/60 114/43/60 113/43/60 111/43/60
f 117/43/61 115/43/61 114/43/61 112/43/61
f 118/43/62 116/43/62 115/43/62 117/43/62
f 119/43/63 121/43/63 116/43/63 118/43/63
f 120/43/64 122/43/64 121/43/64 119/43/64
f 125/43/65 123/43/65 122/43/65 120/43/65
f 126/43/66 124/43/66 123/43/66 125/43/66
f 127/43/67 129/43/67 124/43/67 126/43/67
f 128/43/68 130/43/68 129/43/68 127/43/68
f 133/43/69 131/43/69 130/43/69 128/43/69
f 134/43/50 132/43/50 131/43/50 133/43/50
f 135/43/70 137/43/70 132/43/70 134/43/70
f 136/43/71 138/43/71 137/43/71 135/43/71
f 141/43/72 139/43/72 138/43/72 136/43/72
f 142/43/73 140/43/73 139/43/73 141/43/73
f 143/43/74 145/43/74 140/43/74 142/43/74
f 144/43/75 146/43/75 145/43/75 143/43/75
f 149/43/76 147/43/76 146/43/76 144/43/76
f 150/43/77 148/43/77 147/43/77 149/43/77
f 151/43/78 152/43/78 148/43/78 150/43/78
f 26/43/79 153/43/79 152/43/79 151/43/79
s 0
f 154/1/1 156/2/1 161/3/1 155/4/1
f 155/11/5 158/6/5 157/8/5 154/12/5
f 157/8/4 159/7/4 156/9/4 154/10/4
f 158/6/3 160/5/3 159/7/3 157/8/3
f 160/5/6 161/13/6 156/14/6 159/7/6
f 155/4/2 161/3/2 160/5/2 158/6/2
f 162/1/1 164/2/1 169/3/1 163/4/1
f 163/11/5 166/6/5 165/8/5 162/12/5
f 165/8/4 167/7/4 164/9/4 162/10/4
f 166/6/3 168/5/3 167/7/3 165/8/3
f 168/5/6 169/13/6 164/14/6 167/7/6
f 163/4/2 169/3/2 168/5/2 166/6/2
s 1
f 170/43/16 172/43/16 298/43/16 171/43/16
f 176/43/4 173/43/15 170/43/4 171/43/4 296/43/4 295/43/4 294/43/4 289/43/4 288/43/4 287/43/4 286/43/15 195/43/4 194/43/4 193/43/4 192/43/4 187/43/4 186/43/4 185/43/4 184/43/4 177/43/4
f 173/43/17 175/43/17 172/43/17 170/43/17
f 174/43/18 249/43/18 175/43/18 173/43/18
f 195/43/4 286/43/15 281/43/15 280/43/15 279/43/15 278/43/15 273/43/15 272/43/15 271/43/15 270/43/15 265/43/15 264/43/15 263/43/15 262/43/15 257/43/15 256/43/15 255/43/15 252/43/15 251/43/15 250/43/15 244/43/15 246/43/15 248/43/15 174/43/15 173/43/15 176/43/4 178/43/15 242/43/15 236/43/15 235/43/15 234/43/15 233/43/15 227/43/15 226/43/15 225/43/15 224/43/15 219/43/15 218/43/15 217/43/15 216/43/15 211/43/15 210/43/15 209/43/15 208/43/15 203/43/15 202/43/15 201/43/15 200/43/15
f 177/43/6 181/43/6 179/43/19 176/43/19
f 176/43/19 179/43/19 180/43/20 178/43/20
f 290/43/2 291/43/2 292/43/2 293/43/2 297/43/2 298/43/2 172/43/2 175/43/2 249/43/2 247/43/2 245/43/2 239/43/21 238/43/22 240/43/2 241/43/2 180/43/2 179/43/2 181/43/2 182/43/2 183/43/2 188/43/2 189/43/2 190/43/2 191/43/2 196/43/2 197/43/2 198/43/2 199/43/2 204/43/2 205/43/2 206/43/2 207/43/2 212/43/2 213/43/2 214/43/2 215/43/2 220/43/2 221/43/2 222/43/2 223/43/2 228/43/23 229/43/23 258/43/2 259/43/2 260/43/2 261/43/2 266/43/2 267/43/2 268/43/2 269/43/2 274/43/2 275/43/2 276/43/2 277/43/2 282/43/2 283/43/2 284/43/2 285/43/2
f 184/43/24 182/43/24 181/43/6 177/43/6
f 185/43/25 183/43/25 182/43/24 184/43/24
f 186/43/26 188/43/26 183/43/25 185/43/25
f 187/43/27 189/43/27 188/43/26 186/43/26
f 190/43/28 189/43/27 187/43/27 192/43/28
f 191/43/29 190/43/28 192/43/28 193/43/29
f 196/43/30 191/43/29 193/43/29 194/43/30
f 197/43/1 196/43/30 194/43/30 195/43/1
f 198/43/31 197/43/1 195/43/1 200/43/31
f 199/43/32 198/43/31 200/43/31 201/43/32
f 204/43/33 199/43/32 201/43/32 202/43/33
f 205/43/34 204/43/33 202/43/33 203/43/34
f 206/43/35 205/43/34 203/43/34 208/43/35
f 207/43/36 206/43/35 208/43/35 209/43/36
f 212/43/37 207/43/36 209/43/36 210/43/37
f 213/43/5 212/43/37 210/43/37 211/43/5
f 214/43/38 213/43/5 211/43/5 216/43/38
f 215/43/39 214/43/38 216/43/38 217/43/39
f 220/43/40 215/43/39 217/43/39 218/43/40
f 221/43/41 220/43/40 218/43/40 219/43/41
f 224/43/42 222/43/42 221/43/41 219/43/41
f 225/43/43 223/43/43 222/43/42 224/43/42
f 226/43/44 228/43/44 223/43/43 225/43/43
f 227/43/3 230/43/3 228/43/44 226/43/44
f 239/43/21 243/43/45 253/43/45 254/43/45 229/43/23 228/43/23 230/43/45 231/43/45 232/43/45 237/43/45 238/43/22
f 233/43/46 231/43/46 230/43/3 227/43/3
f 234/43/47 232/43/47 231/43/46 233/43/46
f 235/43/48 237/43/48 232/43/47 234/43/47
f 236/43/49 240/43/49 238/43/50 237/43/48 235/43/48
f 242/43/51 241/43/51 240/43/49 236/43/49
f 178/43/20 180/43/20 241/43/51 242/43/51
f 250/43/52 243/43/52 239/43/52 244/43/52
f 244/43/53 239/43/53 245/43/53 246/43/53
f 246/43/54 245/43/54 247/43/54 248/43/54
f 248/43/55 247/43/55 249/43/55 174/43/55
f 251/43/56 253/43/56 243/43/56 250/43/56
f 252/43/57 254/43/57 253/43/57 251/43/57
f 255/43/58 229/43/58 254/43/58 252/43/58
f 256/43/59 258/43/59 229/43/59 255/43/59
f 257/43/60 259/43/60 258/43/60 256/43/60
f 262/43/61 260/43/61 259/43/61 257/43/61
f 263/43/62 261/43/62 260/43/62 262/43/62
f 264/43/63 266/43/63 261/43/63 263/43/63
f 265/43/64 267/43/64 266/43/64 264/43/64
f 270/43/65 268/43/65 267/43/65 265/43/65
f 271/43/66 269/43/66 268/43/66 270/43/66
f 272/43/67 274/43/67 269/43/67 271/43/67
f 273/43/68 275/43/68 274/43/68 272/43/68
f 278/43/69 276/43/69 275/43/69 273/43/69
f 279/43/50 277/43/50 276/43/50 278/43/50
f 280/43/70 282/43/70 277/43/70 279/43/70
f 281/43/71 283/43/71 282/43/71 280/43/71
f 286/43/72 284/43/72 283/43/72 281/43/72
f 287/43/73 285/43/73 284/43/73 286/43/73
f 288/43/74 290/43/74 285/43/74 287/43/74
f 289/43/75 291/43/75 290/43/75 288/43/75
f 294/43/76 292/43/76 291/43/76 289/43/76
f 295/43/77 293/43/77 292/43/77 294/43/77
f 296/43/78 297/43/78 293/43/78 295/43/78
f 171/43/79 298/43/79 297/43/79 296/43/79
s 0
f 299/1/80 301/44/80 349/45/80 300/46/80
f 300/47/81 304/48/81 302/49/81 299/12/81
f 302/50/82 303/51/82 301/52/82 299/10/82
f 305/53/4 306/54/4 303/51/4 302/50/4
f 304/48/83 308/55/83 305/56/83 302/49/83
f 307/8/84 351/57/84 306/54/84 305/53/84
f 308/55/85 309/58/85 307/8/85 305/56/85
f 310/59/86 311/60/86 309/58/86 308/55/86
f 312/61/5 310/59/5 308/55/5 304/48/5
f 313/62/87 314/6/87 311/60/87 310/59/87
f 315/63/88 313/62/88 310/59/88 312/61/88
f 313/64/89 316/65/89 317/66/89 314/6/89
f 318/67/90 316/65/90 313/64/90 315/68/90
f 316/65/91 319/69/91 320/70/91 317/66/91
f 321/71/2 319/69/2 316/65/2 318/67/2
f 319/69/92 322/72/92 323/5/92 320/70/92
f 324/73/93 322/72/93 319/69/93 321/71/93
f 323/5/94 322/74/94 325/75/94 326/76/94
f 322/74/95 324/77/95 327/78/95 325/75/95
f 325/75/96 328/79/96 329/80/96 326/76/96
f 330/81/6 328/79/6 325/75/6 327/78/6
f 329/80/97 328/79/97 331/82/97 332/7/97
f 328/79/98 330/81/98 333/83/98 331/82/98
f 335/84/84 332/7/84 331/85/84 334/86/84
f 334/86/4 331/85/4 333/87/4 336/88/4
f 335/84/84 334/86/84 306/54/84 351/57/84
f 306/54/4 334/86/4 336/88/4 303/51/4
f 336/88/82 333/87/82 339/9/82 337/89/82
f 303/51/82 336/88/82 337/89/82 301/52/82
f 301/44/80 337/90/80 338/91/80 349/45/80
f 337/90/80 339/2/80 340/92/80 338/91/80
f 330/81/99 340/93/99 339/14/99 333/83/99
f 340/93/100 330/81/100 327/78/100 341/94/100
f 338/91/1 340/92/1 341/95/1 342/96/1
f 324/77/101 343/13/101 341/94/101 327/78/101
f 342/96/102 341/95/102 343/3/102 344/97/102
f 344/97/103 343/3/103 324/73/103 321/71/103
f 344/97/104 321/71/104 318/67/104 345/98/104
f 346/99/105 342/96/106 344/97/106 345/98/105
f 347/4/107 345/98/107 318/67/107 315/68/107
f 348/100/108 346/99/108 345/98/108 347/4/108
f 347/11/109 315/63/109 312/61/109 348/101/109
f 348/101/110 312/61/110 304/48/110 300/47/110
f 300/46/111 349/45/111 346/99/112 348/100/112
f 349/45/113 338/91/113 342/96/113 346/99/113
f 350/102/114 329/80/114 332/7/114 335/84/114
f 352/103/115 350/102/115 335/84/115 351/57/115
f 309/58/116 352/103/116 351/57/116 307/8/116
f 354/104/3 350/102/3 352/103/3 353/105/3
f 353/105/117 352/103/117 309/58/117 311/60/117
f 317/66/118 320/70/118 354/104/118 353/105/118
f 314/6/119 317/66/119 353/105/119 311/60/119
f 354/104/120 326/76/120 329/80/120 350/102/120
f 320/70/121 323/5/121 326/76/121 354/104/121
s 1
f 355/43/16 356/43/16 358/43/16 357/43/16
f 357/43/79 358/43/79 360/43/79 359/43/79
f 359/43/78 360/43/78 362/43/78 361/43/78
f 361/43/77 362/43/77 364/43/77 363/43/77
f 363/43/76 364/43/76 366/43/76 365/43/76
f 365/43/75 366/43/75 368/43/75 367/43/75
f 367/43/74 368/43/74 370/43/74 369/43/74
f 369/43/73 370/43/73 372/43/73 371/43/73
f 371/43/72 372/43/72 374/43/72 373/43/72
f 373/43/71 374/43/71 376/43/71 375/43/71
f 375/43/70 376/43/70 378/43/70 377/43/70
f 377/43/50 378/43/50 380/43/50 379/43/50
f 379/43/69 380/43/69 382/43/69 381/43/69
f 381/43/68 382/43/68 384/43/68 383/43/68
f 383/43/67 384/43/67 386/43/67 385/43/67
f 385/43/66 386/43/66 388/43/66 387/43/66
f 387/43/65 388/43/65 390/43/65 389/43/65
f 389/43/64 390/43/64 392/43/64 391/43/64
f 391/43/63 392/43/63 394/43/63 393/43/63
f 393/43/62 394/43/62 396/43/62 395/43/62
f 395/43/61 396/43/61 398/43/61 397/43/61
f 397/43/60 398/43/60 400/43/60 399/43/60
f 399/43/59 400/43/59 402/43/59 401/43/59
f 401/43/58 402/43/58 404/43/58 403/43/58
f 403/43/57 404/43/57 406/43/57 405/43/57
f 405/43/56 406/43/56 408/43/56 407/43/56
f 407/43/52 408/43/52 410/43/52 409/43/52
f 409/43/53 410/43/53 412/43/53 411/43/53
f 411/43/54 412/43/54 414/43/54 413/43/54
f 413/43/55 414/43/55 416/43/55 415/43/55
f 368/43/2 366/43/2 364/43/2 362/43/2 360/43/2 358/43/2 356/43/2 418/43/2 416/43/2 414/43/2 412/43/2 410/43/2 419/43/2 421/43/2 420/43/2 425/43/2 422/43/2 424/43/2 423/43/2 428/43/2 432/43/2 435/43/2 445/43/2 449/43/2 448/43/2 446/43/2 447/43/2 451/43/2 444/43/2 450/43/2 441/43/2 442/43/2 443/43/2 440/43/2 438/43/2 437/43/2 439/43/2 436/43/2 434/43/2 433/43/2 431/43/2 402/43/2 400/43/2 398/43/2 396/43/2 394/43/2 392/43/2 390/43/2 388/43/2 386/43/2 384/43/2 382/43/2 380/43/2 378/43/2 376/43/2 374/43/2 372/43/2 370/43/2
f 410/43/2 408/43/2 406/43/2 404/43/2 402/43/2 431/43/2 430/43/2 427/43/2 426/43/2 429/43/2 419/43/2
f 415/43/18 416/43/18 418/43/18 417/43/18
f 417/43/17 418/43/17 356/43/17 355/43/17
f 456/43/4 417/43/4 355/43/4 357/43/4 359/43/4 361/43/4 363/43/4 365/43/4 367/43/4 369/43/4 371/43/4 464/43/4 465/43/4 462/43/4 463/43/4 466/43/4 460/43/4 461/43/4 459/43/4 467/43/4
f 464/43/4 371/43/4 373/43/4 375/43/4 377/43/4 379/43/4 381/43/4 383/43/4 385/43/4 387/43/4 389/43/4 391/43/4 393/43/4 395/43/4 397/43/4 399/43/4 401/43/4 403/43/4 405/43/4 407/43/4 409/43/4 411/43/4 413/43/4 415/43/4 417/43/4 456/43/4 457/43/4 455/43/4 458/43/4 453/43/4 454/43/4 452/43/4 469/43/4 468/43/4 470/43/4 472/43/4 471/43/4 476/43/4 473/43/4 475/43/4 474/43/4 483/43/4 477/43/4 479/43/4 478/43/4 482/43/4 480/43/4 481/43/4
f 459/43/122 423/43/122 424/43/122 467/43/122
f 461/43/64 428/43/64 423/43/64 459/43/64
f 460/43/123 432/43/123 428/43/123 461/43/123
f 466/43/62 435/43/62 432/43/62 460/43/62
f 445/43/124 435/43/124 466/43/124 463/43/124
f 449/43/60 445/43/60 463/43/60 462/43/60
f 448/43/125 449/43/125 462/43/125 465/43/125
f 446/43/58 448/43/58 465/43/58 464/43/58
f 447/43/126 446/43/126 464/43/126 481/43/126
f 451/43/56 447/43/56 481/43/56 480/43/56
f 444/43/127 451/43/127 480/43/127 482/43/127
f 450/43/53 444/43/53 482/43/53 478/43/53
f 441/43/128 450/43/128 478/43/128 479/43/128
f 442/43/55 441/43/55 479/43/55 477/43/55
f 443/43/129 442/43/129 477/43/129 483/43/129
f 440/43/17 443/43/17 483/43/17 474/43/17
f 438/43/130 440/43/130 474/43/130 475/43/130
f 437/43/79 438/43/79 475/43/79 473/43/79
f 439/43/131 437/43/131 473/43/131 476/43/131
f 436/43/77 439/43/77 476/43/77 471/43/77
f 472/43/132 434/43/132 436/43/132 471/43/132
f 470/43/75 433/43/75 434/43/75 472/43/75
f 468/43/133 431/43/133 433/43/133 470/43/133
f 469/43/73 430/43/73 431/43/73 468/43/73
f 452/43/134 427/43/134 430/43/134 469/43/134
f 454/43/71 426/43/71 427/43/71 452/43/71
f 453/43/135 429/43/135 426/43/135 454/43/135
f 458/43/50 421/43/50 419/43/50 429/43/50 453/43/50
f 455/43/136 420/43/136 421/43/136 458/43/136
f 457/43/68 425/43/68 420/43/68 455/43/68
f 456/43/137 422/43/137 425/43/137 457/43/137
f 467/43/66 424/43/66 422/43/66 456/43/66
f 484/43/16 485/43/16 487/43/16 486/43/16
f 486/43/79 487/43/79 489/43/79 488/43/79
f 488/43/78 489/43/78 491/43/78 490/43/78
f 490/43/77 491/43/77 493/43/77 492/43/77
f 492/43/76 493/43/76 495/43/76 494/43/76
f 494/43/75 495/43/75 497/43/75 496/43/75
f 496/43/74 497/43/74 499/43/74 498/43/74
f 498/43/73 499/43/73 501/43/73 500/43/73
f 500/43/72 501/43/72 503/43/72 502/43/72
f 502/43/71 503/43/71 505/43/71 504/43/71
f 504/43/70 505/43/70 507/43/70 506/43/70
f 506/43/50 507/43/50 509/43/50 508/43/50
f 508/43/69 509/43/69 511/43/69 510/43/69
f 510/43/68 511/43/68 513/43/68 512/43/68
f 512/43/67 513/43/67 515/43/67 514/43/67
f 514/43/66 515/43/66 517/43/66 516/43/66
f 516/43/65 517/43/65 519/43/65 518/43/65
f 518/43/64 519/43/64 521/43/64 520/43/64
f 520/43/63 521/43/63 523/43/63 522/43/63
f 522/43/62 523/43/62 525/43/62 524/43/62
f 524/43/61 525/43/61 527/43/61 526/43/61
f 526/43/60 527/43/60 529/43/60 528/43/60
f 528/43/59 529/43/59 531/43/59 530/43/59
f 530/43/58 531/43/58 533/43/58 532/43/58
f 532/43/57 533/43/57 535/43/57 534/43/57
f 534/43/56 535/43/56 537/43/56 536/43/56
f 536/43/52 537/43/52 539/43/52 538/43/52
f 538/43/53 539/43/53 541/43/53 540/43/53
f 540/43/54 541/43/54 543/43/54 542/43/54
f 542/43/55 543/43/55 545/43/55 544/43/55
f 497/43/2 495/43/2 493/43/2 491/43/2 489/43/2 487/43/2 485/43/2 547/43/2 545/43/2 543/43/2 541/43/2 539/43/2 548/43/2 550/43/2 549/43/2 554/43/2 551/43/2 553/43/2 552/43/2 557/43/2 561/43/2 564/43/2 574/43/2 578/43/2 577/43/2 575/43/2 576/43/2 580/43/2 573/43/2 579/43/2 570/43/2 571/43/2 572/43/2 569/43/2 567/43/2 566/43/2 568/43/2 565/43/2 563/43/2 562/43/2 560/43/2 531/43/2 529/43/2 527/43/2 525/43/2 523/43/2 521/43/2 519/43/2 517/43/2 515/43/2 513/43/2 511/43/2 509/43/2 507/43/2 505/43/2 503/43/2 501/43/2 499/43/2
f 539/43/2 537/43/2 535/43/2 533/43/2 531/43/2 560/43/2 559/43/2 556/43/2 555/43/2 558/43/2 548/43/2
f 544/43/18 545/43/18 547/43/18 546/43/18
f 546/43/17 547/43/17 485/43/17 484/43/17
f 585/43/4 546/43/4 484/43/4 486/43/4 488/43/4 490/43/4 492/43/4 494/43/4 496/43/4 498/43/4 500/43/4 593/43/4 594/43/4 591/43/4 592/43/4 595/43/4 589/43/4 590/43/4 588/43/4 596/43/4
f 593/43/4 500/43/4 502/43/4 504/43/4 506/43/4 508/43/4 510/43/4 512/43/4 514/43/4 516/43/4 518/43/4 520/43/4 522/43/4 524/43/4 526/43/4 528/43/4 530/43/4 532/43/4 534/43/4 536/43/4 538/43/4 540/43/4 542/43/4 544/43/4 546/43/4 585/43/4 586/43/4 584/43/4 587/43/4 582/43/4 583/43/4 581/43/4 598/43/4 597/43/4 599/43/4 601/43/4 600/43/4 605/43/4 602/43/4 604/43/4 603/43/4 612/43/4 606/43/4 608/43/4 607/43/4 611/43/4 609/43/4 610/43/4
f 588/43/122 552/43/122 553/43/122 596/43/122
f 590/43/64 557/43/64 552/43/64 588/43/64
f 589/43/123 561/43/123 557/43/123 590/43/123
f 595/43/62 564/43/62 561/43/62 589/43/62
f 574/43/124 564/43/124 595/43/124 592/43/124
f 578/43/60 574/43/60 592/43/60 591/43/60
f 577/43/125 578/43/125 591/43/125 594/43/125
f 575/43/58 577/43/58 594/43/58 593/43/58
f 576/43/126 575/43/126 593/43/126 610/43/126
f 580/43/56 576/43/56 610/43/56 609/43/56
f 573/43/127 580/43/127 609/43/127 611/43/127
f 579/43/53 573/43/53 611/43/53 607/43/53
f 570/43/128 579/43/128 607/43/128 608/43/128
f 571/43/55 570/43/55 608/43/55 606/43/55
f 572/43/129 571/43/129 606/43/129 612/43/129
f 569/43/17 572/43/17 612/43/17 603/43/17
f 567/43/130 569/43/130 603/43/130 604/43/130
f 566/43/79 567/43/79 604/43/79 602/43/79
f 568/43/131 566/43/131 602/43/131 605/43/131
f 565/43/77 568/43/77 605/43/77 600/43/77
f 601/43/132 563/43/132 565/43/132 600/43/132
f 599/43/75 562/43/75 563/43/75 601/43/75
f 597/43/133 560/43/133 562/43/133 599/43/133
f 598/43/73 559/43/73 560/43/73 597/43/73
f 581/43/134 556/43/134 559/43/134 598/43/134
f 583/43/71 555/43/71 556/43/71 581/43/71
f 582/43/135 558/43/135 555/43/135 583/43/135
f 587/43/50 550/43/50 548/43/50 558/43/50 582/43/50
f 584/43/136 549/43/136 550/43/136 587/43/136
f 586/43/68 554/43/68 549/43/68 584/43/68
f 585/43/137 551/43/137 554/43/137 586/43/137
f 596/43/66 553/43/66 551/43/66 585/43/66
s 0
f 643/96/138 624/95/138 616/3/138 631/97/138
f 668/106/139 648/107/139 620/5/139 633/70/139
f 639/102/140 628/80/140 618/7/140 635/84/140
f 664/108/141 652/109/141 614/9/141 630/89/141
f 659/110/142 625/58/142 617/8/142 650/111/142
f 655/112/143 623/93/143 614/14/143 652/113/143
f 647/114/144 616/13/144 624/94/144 653/115/144
f 645/116/145 619/6/145 626/60/145 657/117/145
f 633/70/146 620/5/146 627/76/146 637/104/146
f 630/90/147 614/2/147 623/92/147 641/91/147
f 613/1/148 629/44/148 642/45/148 622/46/148
f 619/6/149 634/66/149 638/105/149 626/60/149
f 649/118/150 662/119/150 629/52/150 613/10/150
f 625/58/151 640/103/151 636/57/151 617/8/151
f 626/60/3 638/105/3 634/66/3 633/70/3 637/104/3 627/76/3 628/80/3 639/102/3 635/84/3 636/57/3 640/103/3 625/58/3
f 645/120/152 666/121/152 634/66/152 619/6/152
f 621/100/153 644/99/153 632/98/153 615/4/153
f 622/46/1 642/45/1 629/44/1 630/90/1 641/91/1 623/92/1 624/95/1 643/96/1 631/97/1 632/98/1 644/99/1 621/100/1
f 615/4/154 632/98/154 665/122/154 646/123/154
f 617/8/155 636/57/155 661/124/155 650/125/155
f 615/11/156 646/126/156 658/127/156 621/101/156
f 620/5/157 648/128/157 654/129/157 627/76/157
f 628/80/158 656/130/158 651/131/158 618/7/158
f 627/76/6 654/129/6 648/128/6 647/114/6 653/115/6 624/94/6 623/93/6 655/112/6 652/113/6 651/131/6 656/130/6 628/80/6
f 622/47/159 660/132/159 649/133/159 613/12/159
f 621/101/5 658/127/5 646/126/5 645/116/5 657/117/5 626/60/5 625/58/5 659/110/5 650/111/5 649/133/5 660/132/5 622/47/5
f 635/84/160 618/7/160 651/134/160 663/135/160
f 664/108/4 630/89/4 629/52/4 662/119/4 649/118/4 650/125/4 661/124/4 636/57/4 635/84/4 663/135/4 651/134/4 652/109/4
f 631/97/161 616/3/161 647/136/161 667/137/161
f 668/106/2 633/70/2 634/66/2 666/121/2 645/120/2 646/123/2 665/122/2 632/98/2 631/97/2 667/137/2 647/136/2 648/107/2
f 669/1/162 672/2/162 674/138/162 675/139/162 679/3/162 681/4/162 684/140/162 670/141/162
f 670/142/163 683/143/163 671/8/163 669/12/163
f 671/8/4 673/7/4 672/9/4 669/10/4
f 676/144/164 674/145/164 672/14/164 673/7/164
f 677/146/165 675/147/165 674/145/165 676/144/165
f 680/6/166 678/5/166 677/146/166 676/144/166 673/7/166 671/8/166 683/143/166 682/148/166
f 678/5/167 679/13/167 675/147/167 677/146/167
f 681/4/2 679/3/2 678/5/2 680/6/2
f 681/11/168 680/6/168 682/148/168 684/149/168
f 684/149/169 682/148/169 683/143/169 670/142/169
f 685/1/1 686/2/1 688/3/1 687/4/1
f 687/4/2 688/3/2 692/5/2 691/6/2
f 691/6/3 692/5/3 690/7/3 689/8/3
f 689/8/4 690/7/4 686/9/4 685/10/4
f 687/11/5 691/6/5 689/8/5 685/12/5
f 692/5/6 688/13/6 686/14/6 690/7/6
