# Blender 4.4.3
# www.blender.org
mtllib House1.mtl
o 左建物上
v 15.000000 20.000000 20.000000
v 15.000000 30.000000 20.000000
v 15.000000 20.000000 -20.000000
v 15.000000 30.000000 -20.000000
v 25.000000 20.000000 20.000000
v 25.000000 30.000000 20.000000
v 25.000000 20.000000 -20.000000
v 25.000000 30.000000 -20.000000
v -15.000000 0.000000 20.000000
v -15.000000 20.000000 20.000000
v -15.000000 0.000000 -20.000000
v -15.000000 20.000000 -20.000000
v -5.000000 0.000000 20.000000
v -5.000000 20.000000 20.000000
v -5.000000 0.000000 -20.000000
v -5.000000 20.000000 -20.000000
v 15.000000 0.000000 20.000000
v 15.000000 20.000000 20.000000
v 15.000000 0.000000 -20.000000
v 15.000000 20.000000 -20.000000
v 25.000000 0.000000 20.000000
v 25.000000 20.000000 20.000000
v 25.000000 0.000000 -20.000000
v 25.000000 20.000000 -20.000000
v -5.000000 0.000000 20.000000
v -5.000000 20.000000 20.000000
v -5.000000 0.000000 -20.000000
v -5.000000 20.000000 -20.000000
v 5.000000 0.000000 20.000000
v 5.000000 20.000000 20.000000
v 5.000000 0.000000 -20.000000
v 5.000000 20.000000 -20.000000
v 5.000000 0.000000 20.000000
v 5.000000 20.000000 20.000000
v 5.000000 0.000000 -20.000000
v 5.000000 20.000000 -20.000000
v 15.000000 0.000000 20.000000
v 15.000000 20.000000 20.000000
v 15.000000 0.000000 -20.000000
v 15.000000 20.000000 -20.000000
v -25.000000 0.000000 20.000000
v -25.000000 20.000000 20.000000
v -25.000000 0.000000 -20.000000
v -25.000000 20.000000 -20.000000
v -15.000000 0.000000 20.000000
v -15.000000 20.000000 20.000000
v -15.000000 0.000000 -20.000000
v -15.000000 20.000000 -20.000000
v -25.000000 20.000000 20.000000
v -25.000000 30.000000 20.000000
v -25.000000 20.000000 -20.000000
v -25.000000 30.000000 -20.000000
v -15.000000 20.000000 20.000000
v -15.000000 30.000000 20.000000
v -15.000000 20.000000 -20.000000
v -15.000000 30.000000 -20.000000
v -5.000000 20.000000 20.000000
v -5.000000 30.000000 20.000000
v -5.000000 20.000000 -20.000000
v -5.000000 30.000000 -20.000000
v 5.000000 20.000000 20.000000
v 5.000000 30.000000 20.000000
v 5.000000 20.000000 -20.000000
v 5.000000 30.000000 -20.000000
v -25.000000 -1.000000 20.000000
v -25.000000 0.000000 20.000000
v -25.000000 -1.000000 -20.000000
v -25.000000 0.000000 -20.000000
v 25.000000 -1.000000 20.000000
v 25.000000 0.000000 20.000000
v 25.000000 -1.000000 -20.000000
v 25.000000 0.000000 -20.000000
v 25.500000 19.000000 20.500000
v 25.500000 21.000000 20.500000
v 24.500000 19.000000 20.500000
v 24.500000 21.000000 20.500000
v 25.500000 19.000000 -20.500000
v 25.500000 21.000000 -20.500000
v 24.500000 19.000000 -20.500000
v 24.500000 21.000000 -20.500000
v -24.500004 18.999998 20.499996
v -24.500004 20.999998 20.499996
v -25.500000 18.999998 20.499996
v -25.500000 20.999998 20.499996
v -24.500004 18.999998 -20.499996
v -24.500004 20.999998 -20.499996
v -25.500000 18.999998 -20.499996
v -25.500000 20.999998 -20.499996
v -25.500000 18.999998 -19.500000
v -25.500000 20.999998 -19.500000
v -25.500000 18.999998 -20.500000
v -25.500000 20.999998 -20.500000
v 25.499996 18.999998 -19.500000
v 25.499996 20.999998 -19.500000
v 25.499996 18.999998 -20.499996
v 25.499996 20.999998 -20.499996
v -25.500000 18.999998 20.499996
v -25.500000 20.999998 20.499996
v -25.500000 18.999998 19.500000
v -25.500000 20.999998 19.500000
v 25.500000 18.999998 20.499996
v 25.500000 20.999998 20.499996
v 25.500000 18.999998 19.500000
v 25.500000 20.999998 19.500000
v 14.000000 0.000000 -19.730320
v 14.000000 20.000000 -19.730320
v 14.000000 0.000000 -20.730320
v 14.000000 20.000000 -20.730320
v 16.000000 0.000000 -19.730320
v 16.000000 20.000000 -19.730320
v 16.000000 0.000000 -20.730320
v 16.000000 20.000000 -20.730320
v 3.000000 0.000000 -19.616474
v 3.000000 20.000000 -19.616474
v 3.000000 0.000000 -20.616474
v 3.000000 20.000000 -20.616474
v 5.000000 0.000000 -19.616474
v 5.000000 20.000000 -19.616474
v 5.000000 0.000000 -20.616474
v 5.000000 20.000000 -20.616474
v -5.000000 0.000000 -19.852213
v -5.000000 20.000000 -19.852213
v -5.000000 0.000000 -20.852213
v -5.000000 20.000000 -20.852213
v -3.000002 0.000000 -19.852213
v -3.000002 20.000000 -19.852213
v -3.000002 0.000000 -20.852213
v -3.000002 20.000000 -20.852213
v -16.000000 0.000000 -19.694674
v -16.000000 20.000000 -19.694674
v -16.000000 0.000000 -20.694674
v -16.000000 20.000000 -20.694674
v -14.000000 0.000000 -19.694674
v -14.000000 20.000000 -19.694674
v -14.000000 0.000000 -20.694674
v -14.000000 20.000000 -20.694674
v -26.423965 0.000000 -19.733395
v -26.423965 20.000000 -19.733395
v -26.423965 0.000000 -20.733397
v -26.423965 20.000000 -20.733397
v -24.423962 0.000000 -19.733395
v -24.423962 20.000000 -19.733395
v -24.423962 0.000000 -20.733397
v -24.423962 20.000000 -20.733397
v 26.000000 0.000000 -19.000000
v 26.000000 20.000000 -19.000000
v 25.000000 0.000000 -19.000000
v 25.000000 20.000000 -19.000000
v 26.000000 0.000000 -21.000002
v 26.000000 20.000000 -21.000002
v 25.000000 0.000000 -21.000002
v 25.000000 20.000000 -21.000002
v 26.000000 0.000000 -9.000001
v 26.000000 20.000000 -9.000001
v 25.000000 0.000000 -9.000001
v 25.000000 20.000000 -9.000001
v 26.000000 0.000000 -11.000002
v 26.000000 20.000000 -11.000002
v 25.000000 0.000000 -11.000002
v 25.000000 20.000000 -11.000002
v 26.000000 0.000000 0.999999
v 26.000000 20.000000 0.999999
v 25.000000 0.000000 0.999999
v 25.000000 20.000000 0.999999
v 26.000000 0.000000 -1.000001
v 26.000000 20.000000 -1.000001
v 25.000000 0.000000 -1.000001
v 25.000000 20.000000 -1.000001
v 26.000000 0.000000 10.999999
v 26.000000 20.000000 10.999999
v 25.000000 0.000000 10.999999
v 25.000000 20.000000 10.999999
v 26.000000 0.000000 8.999998
v 26.000000 20.000000 8.999998
v 25.000000 0.000000 8.999998
v 25.000000 20.000000 8.999998
v 26.000000 0.000000 20.999996
v 26.000000 20.000000 20.999996
v 25.000000 0.000000 20.999996
v 25.000000 20.000000 20.999996
v 26.000000 0.000000 18.999996
v 26.000000 20.000000 18.999996
v 25.000000 0.000000 18.999996
v 25.000000 20.000000 18.999996
v 23.500000 0.000000 -19.986195
v 23.500000 20.000000 -19.986195
v 23.500000 0.000000 -20.986197
v 23.500000 20.000000 -20.986197
v 25.500000 0.000000 -19.986195
v 25.500000 20.000000 -19.986195
v 25.500000 0.000000 -20.986197
v 25.500000 20.000000 -20.986197
v -25.950047 0.000000 20.925962
v -25.950047 20.000000 20.925962
v -25.950047 0.000000 19.925964
v -25.950047 20.000000 19.925964
v -23.950047 0.000000 20.925962
v -23.950047 20.000000 20.925962
v -23.950047 0.000000 19.925964
v -23.950047 20.000000 19.925964
v -15.526085 0.000000 20.925962
v -15.526085 20.000000 20.925962
v -15.526085 0.000000 19.925964
v -15.526085 20.000000 19.925964
v -13.526085 0.000000 20.925962
v -13.526085 20.000000 20.925962
v -13.526085 0.000000 19.925964
v -13.526085 20.000000 19.925964
v -4.526085 0.000000 20.925962
v -4.526085 20.000000 20.925962
v -4.526085 0.000000 19.925964
v -4.526085 20.000000 19.925964
v -2.526085 0.000000 20.925962
v -2.526085 20.000000 20.925962
v -2.526085 0.000000 19.925964
v -2.526085 20.000000 19.925964
v 3.473915 0.000000 20.925962
v 3.473915 20.000000 20.925962
v 3.473915 0.000000 19.925964
v 3.473915 20.000000 19.925964
v 5.473914 0.000000 20.925962
v 5.473914 20.000000 20.925962
v 5.473914 0.000000 19.925964
v 5.473914 20.000000 19.925964
v 14.473915 0.000000 20.925962
v 14.473915 20.000000 20.925962
v 14.473915 0.000000 19.925964
v 14.473915 20.000000 19.925964
v 16.473915 0.000000 20.925962
v 16.473915 20.000000 20.925962
v 16.473915 0.000000 19.925964
v 16.473915 20.000000 19.925964
v 23.973915 0.000000 20.925962
v 23.973915 20.000000 20.925962
v 23.973915 0.000000 19.925964
v 23.973915 20.000000 19.925964
v 25.973915 0.000000 20.925962
v 25.973915 20.000000 20.925962
v 25.973915 0.000000 19.925964
v 25.973915 20.000000 19.925964
v -24.839508 0.000000 20.999996
v -24.839508 20.000000 20.999996
v -25.839508 0.000000 20.999996
v -25.839508 20.000000 20.999996
v -24.839508 0.000000 18.999996
v -24.839508 20.000000 18.999996
v -25.839508 0.000000 18.999996
v -25.839508 20.000000 18.999996
v -24.839508 0.000000 10.999999
v -24.839508 20.000000 10.999999
v -25.839508 0.000000 10.999999
v -25.839508 20.000000 10.999999
v -24.839508 0.000000 8.999998
v -24.839508 20.000000 8.999998
v -25.839508 0.000000 8.999998
v -25.839508 20.000000 8.999998
v -24.839508 0.000000 0.999999
v -24.839508 20.000000 0.999999
v -25.839508 0.000000 0.999999
v -25.839508 20.000000 0.999999
v -24.839508 0.000000 -1.000001
v -24.839508 20.000000 -1.000001
v -25.839508 0.000000 -1.000001
v -25.839508 20.000000 -1.000001
v -24.839508 0.000000 -9.000001
v -24.839508 20.000000 -9.000001
v -25.839508 0.000000 -9.000001
v -25.839508 20.000000 -9.000001
v -24.839508 0.000000 -11.000002
v -24.839508 20.000000 -11.000002
v -25.839508 0.000000 -11.000002
v -25.839508 20.000000 -11.000002
v -24.839508 0.000000 -19.000000
v -24.839508 20.000000 -19.000000
v -25.839508 0.000000 -19.000000
v -25.839508 20.000000 -19.000000
v -24.839508 0.000000 -21.000002
v -24.839508 20.000000 -21.000002
v -25.839508 0.000000 -21.000002
v -25.839508 20.000000 -21.000002
v 19.971821 35.290131 20.000000
v 19.971821 35.290131 -20.000000
v 20.028179 35.290131 -20.000000
v 20.028179 35.290131 20.000000
v -20.058922 35.290131 20.000000
v -20.058922 35.290131 -20.000000
v -19.941078 35.290131 -20.000000
v -19.941078 35.290131 20.000000
v -0.062496 35.290131 20.000000
v -0.062496 35.290131 -20.000000
v 0.062496 35.290131 -20.000000
v 0.062496 35.290131 20.000000
vn -1.0000 -0.0000 -0.0000
vn -0.0000 -0.0000 -1.0000
vn 1.0000 -0.0000 -0.0000
vn -0.0000 -0.0000 1.0000
vn -0.0000 -1.0000 -0.0000
vn -0.7311 0.6823 -0.0000
vn -0.0000 1.0000 -0.0000
vn 0.7287 0.6848 -0.0000
vn 0.7308 0.6826 -0.0000
vn -0.7287 0.6848 -0.0000
vn -0.7308 0.6826 -0.0000
vn 0.7311 0.6823 -0.0000
vt 0.877661 0.537889
vt 0.906512 0.566740
vt 0.877661 0.566740
vt 0.906512 0.537889
vt 0.935364 0.566740
vt 0.935364 0.537889
vt 0.964215 0.566740
vt 0.964215 0.537889
vt 0.993067 0.566740
vt 0.964215 0.595592
vt 0.935364 0.595592
vt 0.365899 0.803885
vt 0.365899 0.832737
vt 0.458251 0.502511
vt 0.421004 0.539758
vt 0.421004 0.502511
vt 0.458251 0.539758
vt 0.421004 0.577005
vt 0.458251 0.577005
vt 0.421004 0.614253
vt 0.458251 0.614253
vt 0.421004 0.651500
vt 0.383757 0.614253
vt 0.383757 0.577005
vt 0.495498 0.577005
vt 0.583859 0.502511
vt 0.546611 0.539758
vt 0.546611 0.502511
vt 0.583859 0.539758
vt 0.546611 0.577005
vt 0.583859 0.577005
vt 0.546611 0.614253
vt 0.583859 0.614253
vt 0.546611 0.651500
vt 0.509364 0.614253
vt 0.509364 0.577005
vt 0.621106 0.577005
vt 0.081427 0.502511
vt 0.044180 0.539758
vt 0.044180 0.502511
vt 0.081427 0.539758
vt 0.044180 0.577005
vt 0.081427 0.577005
vt 0.044180 0.614252
vt 0.081427 0.614252
vt 0.044180 0.651500
vt 0.006933 0.614252
vt 0.006933 0.577005
vt 0.118675 0.577005
vt 0.207035 0.502511
vt 0.169788 0.539758
vt 0.169788 0.502511
vt 0.207035 0.539758
vt 0.169788 0.577005
vt 0.207035 0.577005
vt 0.169788 0.614253
vt 0.207035 0.614253
vt 0.169788 0.651500
vt 0.132541 0.614253
vt 0.132541 0.577005
vt 0.244282 0.577005
vt 0.332643 0.502511
vt 0.295396 0.539758
vt 0.295396 0.502511
vt 0.332643 0.539758
vt 0.295396 0.577005
vt 0.332643 0.577005
vt 0.295396 0.614252
vt 0.332643 0.614252
vt 0.295396 0.651500
vt 0.258149 0.614252
vt 0.258149 0.577005
vt 0.369890 0.577005
vt 0.802257 0.665366
vt 0.773406 0.694218
vt 0.773406 0.665366
vt 0.802257 0.694218
vt 0.773406 0.723069
vt 0.802257 0.723069
vt 0.773406 0.751921
vt 0.802257 0.751921
vt 0.773406 0.780772
vt 0.744555 0.751921
vt 0.744555 0.723069
vt 0.993067 0.537889
vt 0.337047 0.832737
vt 0.337047 0.803885
vt 0.337047 0.861588
vt 0.365899 0.861588
vt 0.337047 0.890440
vt 0.365899 0.890440
vt 0.337047 0.919291
vt 0.308196 0.890440
vt 0.308196 0.861588
vt 0.767582 0.803885
vt 0.738731 0.832737
vt 0.738731 0.803885
vt 0.767582 0.832737
vt 0.738731 0.861588
vt 0.767582 0.861588
vt 0.738731 0.890440
vt 0.767582 0.890440
vt 0.738731 0.919291
vt 0.709879 0.890440
vt 0.709879 0.861588
vt 0.796434 0.861588
vt 0.701837 0.665366
vt 0.672985 0.694218
vt 0.672985 0.665366
vt 0.701837 0.694218
vt 0.672985 0.723069
vt 0.701837 0.723069
vt 0.672985 0.751921
vt 0.701837 0.751921
vt 0.672985 0.780772
vt 0.644134 0.751921
vt 0.644134 0.723069
vt 0.730688 0.723069
vt 0.265478 0.803885
vt 0.236626 0.832737
vt 0.236626 0.803885
vt 0.265478 0.832737
vt 0.236626 0.861588
vt 0.265478 0.861588
vt 0.236626 0.890440
vt 0.265478 0.890440
vt 0.236626 0.919291
vt 0.207775 0.890440
vt 0.207775 0.861588
vt 0.294329 0.861588
vt 0.382083 0.127361
vt 0.502511 0.247789
vt 0.382083 0.247789
vt 0.502511 0.127361
vt 0.622939 0.247789
vt 0.622939 0.127361
vt 0.743366 0.247789
vt 0.743366 0.127361
vt 0.863795 0.247789
vt 0.743366 0.368217
vt 0.622939 0.368217
vt 0.622939 0.006933
vt 0.247789 0.006933
vt 0.127361 0.127361
vt 0.127361 0.006933
vt 0.247789 0.127361
vt 0.127361 0.247789
vt 0.247789 0.247789
vt 0.127361 0.368217
vt 0.247789 0.368217
vt 0.127361 0.488645
vt 0.006933 0.368217
vt 0.006933 0.247789
vt 0.368217 0.247789
vt 0.877661 0.136206
vt 0.906512 0.165057
vt 0.877661 0.165057
vt 0.906512 0.136206
vt 0.935364 0.165057
vt 0.935364 0.136206
vt 0.964215 0.165057
vt 0.964215 0.136206
vt 0.993067 0.165057
vt 0.964215 0.193908
vt 0.935364 0.193908
vt 0.935364 0.107354
vt 0.466320 0.803885
vt 0.437468 0.832737
vt 0.437468 0.803885
vt 0.466320 0.832737
vt 0.437468 0.861588
vt 0.466320 0.861588
vt 0.437468 0.890440
vt 0.466320 0.890439
vt 0.437468 0.919291
vt 0.408617 0.890440
vt 0.408617 0.861588
vt 0.495171 0.861588
vt 0.566741 0.803885
vt 0.537889 0.832737
vt 0.537889 0.803885
vt 0.566741 0.832737
vt 0.537889 0.861588
vt 0.566741 0.861588
vt 0.537889 0.890440
vt 0.566741 0.890440
vt 0.537889 0.919291
vt 0.509037 0.890440
vt 0.509037 0.861588
vt 0.595592 0.861588
vt 0.877661 0.035785
vt 0.906512 0.064636
vt 0.877661 0.064636
vt 0.906512 0.035785
vt 0.935364 0.064636
vt 0.935364 0.035785
vt 0.964215 0.064636
vt 0.964215 0.035785
vt 0.993067 0.064636
vt 0.964215 0.093488
vt 0.935364 0.093488
vt 0.935364 0.006933
vt 0.601416 0.665366
vt 0.572564 0.694218
vt 0.572564 0.665366
vt 0.601416 0.694218
vt 0.572564 0.723069
vt 0.601416 0.723069
vt 0.572564 0.751921
vt 0.601416 0.751921
vt 0.572564 0.780772
vt 0.543713 0.751921
vt 0.543713 0.723069
vt 0.630267 0.723069
vt 0.283972 0.665366
vt 0.252808 0.696529
vt 0.252808 0.665366
vt 0.283972 0.696529
vt 0.252808 0.727692
vt 0.283972 0.727692
vt 0.252808 0.758855
vt 0.283972 0.758855
vt 0.252808 0.790019
vt 0.221645 0.758855
vt 0.221645 0.727692
vt 0.315135 0.727692
vt 0.069260 0.665366
vt 0.038096 0.696529
vt 0.038096 0.665366
vt 0.069260 0.696529
vt 0.038096 0.727692
vt 0.069260 0.727692
vt 0.038096 0.758856
vt 0.069260 0.758856
vt 0.038096 0.790019
vt 0.006933 0.758856
vt 0.006933 0.727692
vt 0.100423 0.727692
vt 0.659121 0.413246
vt 0.690284 0.444409
vt 0.659121 0.444409
vt 0.690284 0.413246
vt 0.721448 0.444409
vt 0.721448 0.413246
vt 0.752611 0.444409
vt 0.752611 0.413246
vt 0.783774 0.444409
vt 0.752611 0.475572
vt 0.721448 0.475572
vt 0.721448 0.382083
vt 0.176616 0.665366
vt 0.145452 0.696529
vt 0.145452 0.665366
vt 0.176616 0.696529
vt 0.145452 0.727692
vt 0.176616 0.727692
vt 0.145452 0.758856
vt 0.176616 0.758856
vt 0.145452 0.790019
vt 0.114289 0.758856
vt 0.114289 0.727692
vt 0.207779 0.727692
vt 0.697298 0.502511
vt 0.666135 0.533674
vt 0.666135 0.502511
vt 0.697298 0.533674
vt 0.666135 0.564837
vt 0.697298 0.564837
vt 0.666135 0.596001
vt 0.697298 0.596001
vt 0.666135 0.627164
vt 0.634972 0.596001
vt 0.634972 0.564837
vt 0.728462 0.564837
vt 0.877661 0.236626
vt 0.906512 0.265478
vt 0.877661 0.265478
vt 0.906512 0.236626
vt 0.935364 0.265478
vt 0.935364 0.236626
vt 0.964215 0.265478
vt 0.964215 0.236626
vt 0.993067 0.265478
vt 0.964215 0.294329
vt 0.935364 0.294329
vt 0.935364 0.207775
vt 0.877661 0.337047
vt 0.906512 0.365899
vt 0.877661 0.365899
vt 0.906512 0.337047
vt 0.935364 0.365899
vt 0.935364 0.337047
vt 0.964215 0.365899
vt 0.964215 0.337047
vt 0.993067 0.365899
vt 0.964215 0.394750
vt 0.935364 0.394750
vt 0.935364 0.308196
vt 0.667161 0.803885
vt 0.638310 0.832737
vt 0.638310 0.803885
vt 0.667161 0.832737
vt 0.638310 0.861588
vt 0.667161 0.861588
vt 0.638310 0.890440
vt 0.667161 0.890440
vt 0.638310 0.919291
vt 0.609458 0.890440
vt 0.609458 0.861588
vt 0.696013 0.861588
vt 0.064636 0.803885
vt 0.035785 0.832736
vt 0.035785 0.803885
vt 0.064636 0.832736
vt 0.035785 0.861588
vt 0.064636 0.861588
vt 0.035785 0.890439
vt 0.064636 0.890439
vt 0.035785 0.919291
vt 0.006933 0.890439
vt 0.006933 0.861588
vt 0.093488 0.861588
vt 0.877661 0.638309
vt 0.906512 0.667161
vt 0.877661 0.667161
vt 0.906512 0.638309
vt 0.935364 0.667161
vt 0.935364 0.638309
vt 0.964215 0.667161
vt 0.964215 0.638309
vt 0.993067 0.667161
vt 0.964215 0.696012
vt 0.935364 0.696012
vt 0.935364 0.609458
vt 0.165057 0.803885
vt 0.136206 0.832737
vt 0.136206 0.803885
vt 0.165057 0.832737
vt 0.136206 0.861588
vt 0.165057 0.861588
vt 0.136206 0.890440
vt 0.165057 0.890440
vt 0.136206 0.919291
vt 0.107354 0.890440
vt 0.107354 0.861588
vt 0.193908 0.861588
vt 0.877661 0.437468
vt 0.906512 0.466320
vt 0.877661 0.466320
vt 0.906512 0.437468
vt 0.935364 0.466320
vt 0.935364 0.437468
vt 0.964215 0.466320
vt 0.964215 0.437468
vt 0.993067 0.466320
vt 0.964215 0.495171
vt 0.935364 0.495171
vt 0.935364 0.408617
vt 0.498683 0.665366
vt 0.467520 0.696529
vt 0.467520 0.665366
vt 0.498683 0.696529
vt 0.467520 0.727692
vt 0.498683 0.727692
vt 0.467520 0.758855
vt 0.498683 0.758855
vt 0.467520 0.790019
vt 0.436357 0.758855
vt 0.436357 0.727692
vt 0.529847 0.727692
vt 0.520602 0.413246
vt 0.551765 0.444409
vt 0.520602 0.444409
vt 0.551765 0.413246
vt 0.582929 0.444409
vt 0.582929 0.413246
vt 0.614092 0.444409
vt 0.614092 0.413246
vt 0.645255 0.444409
vt 0.614092 0.475572
vt 0.582929 0.475572
vt 0.582929 0.382083
vt 0.391328 0.665366
vt 0.360164 0.696529
vt 0.360164 0.665366
vt 0.391328 0.696529
vt 0.360164 0.727692
vt 0.391328 0.727692
vt 0.360164 0.758855
vt 0.391328 0.758855
vt 0.360164 0.790019
vt 0.329001 0.758855
vt 0.329001 0.727692
vt 0.422491 0.727692
vt 0.382083 0.413246
vt 0.413246 0.444409
vt 0.382083 0.444409
vt 0.413246 0.413246
vt 0.444409 0.444409
vt 0.444409 0.413246
vt 0.475572 0.444409
vt 0.475573 0.413246
vt 0.506736 0.444409
vt 0.475572 0.475573
vt 0.444409 0.475573
vt 0.444409 0.382083
vt 0.804654 0.502511
vt 0.773491 0.533674
vt 0.773491 0.502511
vt 0.804654 0.533674
vt 0.773491 0.564837
vt 0.804654 0.564837
vt 0.773491 0.596001
vt 0.804654 0.596001
vt 0.773491 0.627164
vt 0.742328 0.596001
vt 0.742328 0.564837
vt 0.835818 0.564837
vt 0.935364 0.509037
vt 0.831109 0.723069
vt 0.394750 0.861588
vt 0.802257 0.780772
vt 0.365899 0.919291
vt 0.458251 0.651500
vt 0.495498 0.614253
vt 0.583859 0.651500
vt 0.621106 0.614253
vt 0.081427 0.651500
vt 0.118675 0.614252
vt 0.207035 0.651500
vt 0.244282 0.614253
vt 0.332643 0.651500
vt 0.369890 0.614252
vt 0.767582 0.919291
vt 0.796434 0.890440
vt 0.701837 0.780772
vt 0.730688 0.751921
vt 0.265478 0.919291
vt 0.294329 0.890440
vt 0.863795 0.127361
vt 0.743366 0.006933
vt 0.247789 0.488645
vt 0.368217 0.368217
vt 0.993067 0.136206
vt 0.964215 0.107354
vt 0.466320 0.919291
vt 0.495171 0.890440
vt 0.566741 0.919291
vt 0.595592 0.890440
vt 0.993067 0.035785
vt 0.964215 0.006933
vt 0.601416 0.780772
vt 0.630267 0.751921
vt 0.283972 0.790019
vt 0.315135 0.758855
vt 0.069260 0.790019
vt 0.100423 0.758856
vt 0.783774 0.413246
vt 0.752611 0.382083
vt 0.176616 0.790019
vt 0.207779 0.758856
vt 0.697298 0.627164
vt 0.728462 0.596001
vt 0.993067 0.236626
vt 0.964215 0.207775
vt 0.993067 0.337047
vt 0.964215 0.308196
vt 0.667161 0.919291
vt 0.696013 0.890440
vt 0.064636 0.919291
vt 0.093488 0.890439
vt 0.993066 0.638309
vt 0.964215 0.609458
vt 0.165057 0.919291
vt 0.193908 0.890440
vt 0.993067 0.437468
vt 0.964215 0.408617
vt 0.498683 0.790019
vt 0.529847 0.758855
vt 0.645255 0.413246
vt 0.614092 0.382083
vt 0.391328 0.790019
vt 0.422491 0.758855
vt 0.506736 0.413246
vt 0.475572 0.382083
vt 0.804654 0.627164
vt 0.835818 0.596001
vt 0.964215 0.509037
vt 0.831109 0.751921
vt 0.394750 0.890440
s 0
usemtl マテリアル
f 2/1/1 3/2/1 1/3/1
f 4/4/2 7/5/2 3/2/2
f 8/6/3 5/7/3 7/5/3
f 6/8/4 1/9/4 5/7/4
f 7/5/5 1/10/5 3/11/5
f 58/12/6 290/13/6 60/13/6
f 10/14/1 11/15/1 9/16/1
f 12/17/2 15/18/2 11/15/2
f 16/19/3 13/20/3 15/18/3
f 14/21/4 9/22/4 13/20/4
f 15/18/5 9/23/5 11/24/5
f 12/25/7 14/21/7 16/19/7
f 18/26/1 19/27/1 17/28/1
f 20/29/2 23/30/2 19/27/2
f 24/31/3 21/32/3 23/30/3
f 22/33/4 17/34/4 21/32/4
f 23/30/5 17/35/5 19/36/5
f 20/37/7 22/33/7 24/31/7
f 26/38/1 27/39/1 25/40/1
f 28/41/2 31/42/2 27/39/2
f 32/43/3 29/44/3 31/42/3
f 30/45/4 25/46/4 29/44/4
f 31/42/5 25/47/5 27/48/5
f 28/49/7 30/45/7 32/43/7
f 34/50/1 35/51/1 33/52/1
f 36/53/2 39/54/2 35/51/2
f 40/55/3 37/56/3 39/54/3
f 38/57/4 33/58/4 37/56/4
f 39/54/5 33/59/5 35/60/5
f 36/61/7 38/57/7 40/55/7
f 42/62/1 43/63/1 41/64/1
f 44/65/2 47/66/2 43/63/2
f 48/67/3 45/68/3 47/66/3
f 46/69/4 41/70/4 45/68/4
f 47/66/5 41/71/5 43/72/5
f 44/73/7 46/69/7 48/67/7
f 50/74/1 51/75/1 49/76/1
f 52/77/2 55/78/2 51/75/2
f 56/79/3 53/80/3 55/78/3
f 54/81/4 49/82/4 53/80/4
f 55/78/5 49/83/5 51/84/5
f 6/8/4 281/85/4 2/85/4
f 58/12/1 59/86/1 57/87/1
f 60/13/2 63/88/2 59/86/2
f 64/89/3 61/90/3 63/88/3
f 62/91/4 57/92/4 61/90/4
f 63/88/5 57/93/5 59/94/5
f 60/13/2 291/89/2 64/89/2
f 66/95/1 67/96/1 65/97/1
f 68/98/2 71/99/2 67/96/2
f 72/100/3 69/101/3 71/99/3
f 70/102/4 65/103/4 69/101/4
f 71/99/5 65/104/5 67/105/5
f 68/106/7 70/102/7 72/100/7
f 74/107/4 75/108/4 73/109/4
f 76/110/1 79/111/1 75/108/1
f 80/112/2 77/113/2 79/111/2
f 78/114/3 73/115/3 77/113/3
f 79/111/5 73/116/5 75/117/5
f 76/118/7 78/114/7 80/112/7
f 82/119/4 83/120/4 81/121/4
f 84/122/1 87/123/1 83/120/1
f 88/124/2 85/125/2 87/123/2
f 86/126/3 81/127/3 85/125/3
f 87/123/5 81/128/5 83/129/5
f 84/130/7 86/126/7 88/124/7
f 90/131/1 91/132/1 89/133/1
f 92/134/2 95/135/2 91/132/2
f 96/136/3 93/137/3 95/135/3
f 94/138/4 89/139/4 93/137/4
f 95/135/5 89/140/5 91/141/5
f 92/142/7 94/138/7 96/136/7
f 98/143/1 99/144/1 97/145/1
f 100/146/2 103/147/2 99/144/2
f 104/148/3 101/149/3 103/147/3
f 102/150/4 97/151/4 101/149/4
f 103/147/5 97/152/5 99/153/5
f 100/154/7 102/150/7 104/148/7
f 106/155/1 107/156/1 105/157/1
f 108/158/2 111/159/2 107/156/2
f 112/160/3 109/161/3 111/159/3
f 110/162/4 105/163/4 109/161/4
f 111/159/5 105/164/5 107/165/5
f 108/166/7 110/162/7 112/160/7
f 114/167/1 115/168/1 113/169/1
f 116/170/2 119/171/2 115/168/2
f 120/172/3 117/173/3 119/171/3
f 118/174/4 113/175/4 117/173/4
f 119/171/5 113/176/5 115/177/5
f 116/178/7 118/174/7 120/172/7
f 122/179/1 123/180/1 121/181/1
f 124/182/2 127/183/2 123/180/2
f 128/184/3 125/185/3 127/183/3
f 126/186/4 121/187/4 125/185/4
f 127/183/5 121/188/5 123/189/5
f 124/190/7 126/186/7 128/184/7
f 130/191/1 131/192/1 129/193/1
f 132/194/2 135/195/2 131/192/2
f 136/196/3 133/197/3 135/195/3
f 134/198/4 129/199/4 133/197/4
f 135/195/5 129/200/5 131/201/5
f 132/202/7 134/198/7 136/196/7
f 138/203/1 139/204/1 137/205/1
f 140/206/2 143/207/2 139/204/2
f 144/208/3 141/209/3 143/207/3
f 142/210/4 137/211/4 141/209/4
f 143/207/5 137/212/5 139/213/5
f 140/214/7 142/210/7 144/208/7
f 146/215/4 147/216/4 145/217/4
f 148/218/1 151/219/1 147/216/1
f 152/220/2 149/221/2 151/219/2
f 150/222/3 145/223/3 149/221/3
f 151/219/5 145/224/5 147/225/5
f 148/226/7 150/222/7 152/220/7
f 154/227/4 155/228/4 153/229/4
f 156/230/1 159/231/1 155/228/1
f 160/232/2 157/233/2 159/231/2
f 158/234/3 153/235/3 157/233/3
f 159/231/5 153/236/5 155/237/5
f 156/238/7 158/234/7 160/232/7
f 162/239/4 163/240/4 161/241/4
f 164/242/1 167/243/1 163/240/1
f 168/244/2 165/245/2 167/243/2
f 166/246/3 161/247/3 165/245/3
f 167/243/5 161/248/5 163/249/5
f 164/250/7 166/246/7 168/244/7
f 170/251/4 171/252/4 169/253/4
f 172/254/1 175/255/1 171/252/1
f 176/256/2 173/257/2 175/255/2
f 174/258/3 169/259/3 173/257/3
f 175/255/5 169/260/5 171/261/5
f 172/262/7 174/258/7 176/256/7
f 178/263/4 179/264/4 177/265/4
f 180/266/1 183/267/1 179/264/1
f 184/268/2 181/269/2 183/267/2
f 182/270/3 177/271/3 181/269/3
f 183/267/5 177/272/5 179/273/5
f 180/274/7 182/270/7 184/268/7
f 186/275/1 187/276/1 185/277/1
f 188/278/2 191/279/2 187/276/2
f 192/280/3 189/281/3 191/279/3
f 190/282/4 185/283/4 189/281/4
f 191/279/5 185/284/5 187/285/5
f 188/286/7 190/282/7 192/280/7
f 194/287/1 195/288/1 193/289/1
f 196/290/2 199/291/2 195/288/2
f 200/292/3 197/293/3 199/291/3
f 198/294/4 193/295/4 197/293/4
f 199/291/5 193/296/5 195/297/5
f 196/298/7 198/294/7 200/292/7
f 202/299/1 203/300/1 201/301/1
f 204/302/2 207/303/2 203/300/2
f 208/304/3 205/305/3 207/303/3
f 206/306/4 201/307/4 205/305/4
f 207/303/5 201/308/5 203/309/5
f 204/310/7 206/306/7 208/304/7
f 210/311/1 211/312/1 209/313/1
f 212/314/2 215/315/2 211/312/2
f 216/316/3 213/317/3 215/315/3
f 214/318/4 209/319/4 213/317/4
f 215/315/5 209/320/5 211/321/5
f 212/322/7 214/318/7 216/316/7
f 218/323/1 219/324/1 217/325/1
f 220/326/2 223/327/2 219/324/2
f 224/328/3 221/329/3 223/327/3
f 222/330/4 217/331/4 221/329/4
f 223/327/5 217/332/5 219/333/5
f 220/334/7 222/330/7 224/328/7
f 226/335/1 227/336/1 225/337/1
f 228/338/2 231/339/2 227/336/2
f 232/340/3 229/341/3 231/339/3
f 230/342/4 225/343/4 229/341/4
f 231/339/5 225/344/5 227/345/5
f 228/346/7 230/342/7 232/340/7
f 234/347/1 235/348/1 233/349/1
f 236/350/2 239/351/2 235/348/2
f 240/352/3 237/353/3 239/351/3
f 238/354/4 233/355/4 237/353/4
f 239/351/5 233/356/5 235/357/5
f 236/358/7 238/354/7 240/352/7
f 242/359/4 243/360/4 241/361/4
f 244/362/1 247/363/1 243/360/1
f 248/364/2 245/365/2 247/363/2
f 246/366/3 241/367/3 245/365/3
f 247/363/5 241/368/5 243/369/5
f 244/370/7 246/366/7 248/364/7
f 250/371/4 251/372/4 249/373/4
f 252/374/1 255/375/1 251/372/1
f 256/376/2 253/377/2 255/375/2
f 254/378/3 249/379/3 253/377/3
f 255/375/5 249/380/5 251/381/5
f 252/382/7 254/378/7 256/376/7
f 258/383/4 259/384/4 257/385/4
f 260/386/1 263/387/1 259/384/1
f 264/388/2 261/389/2 263/387/2
f 262/390/3 257/391/3 261/389/3
f 263/387/5 257/392/5 259/393/5
f 260/394/7 262/390/7 264/388/7
f 266/395/4 267/396/4 265/397/4
f 268/398/1 271/399/1 267/396/1
f 272/400/2 269/401/2 271/399/2
f 270/402/3 265/403/3 269/401/3
f 271/399/5 265/404/5 267/405/5
f 268/406/7 270/402/7 272/400/7
f 274/407/4 275/408/4 273/409/4
f 276/410/1 279/411/1 275/408/1
f 280/412/2 277/413/2 279/411/2
f 278/414/3 273/415/3 277/413/3
f 279/411/5 273/416/5 275/417/5
f 276/418/7 278/414/7 280/412/7
f 282/419/7 284/8/7 283/6/7
f 286/420/7 288/81/7 287/79/7
f 290/421/7 292/91/7 291/89/7
f 8/6/8 284/8/8 6/8/8
f 54/81/4 285/422/4 50/422/4
f 4/4/2 283/6/2 8/6/2
f 56/79/9 288/81/9 54/81/9
f 2/1/10 282/4/10 4/4/10
f 52/77/2 287/79/2 56/79/2
f 50/74/11 286/77/11 52/77/11
f 62/91/4 289/423/4 58/423/4
f 64/89/12 292/91/12 62/91/12
f 2/1/1 4/4/1 3/2/1
f 4/4/2 8/6/2 7/5/2
f 8/6/3 6/8/3 5/7/3
f 6/8/4 2/85/4 1/9/4
f 7/5/5 5/7/5 1/10/5
f 58/12/6 289/12/6 290/13/6
f 10/14/1 12/17/1 11/15/1
f 12/17/2 16/19/2 15/18/2
f 16/19/3 14/21/3 13/20/3
f 14/21/4 10/424/4 9/22/4
f 15/18/5 13/20/5 9/23/5
f 12/25/7 10/425/7 14/21/7
f 18/26/1 20/29/1 19/27/1
f 20/29/2 24/31/2 23/30/2
f 24/31/3 22/33/3 21/32/3
f 22/33/4 18/426/4 17/34/4
f 23/30/5 21/32/5 17/35/5
f 20/37/7 18/427/7 22/33/7
f 26/38/1 28/41/1 27/39/1
f 28/41/2 32/43/2 31/42/2
f 32/43/3 30/45/3 29/44/3
f 30/45/4 26/428/4 25/46/4
f 31/42/5 29/44/5 25/47/5
f 28/49/7 26/429/7 30/45/7
f 34/50/1 36/53/1 35/51/1
f 36/53/2 40/55/2 39/54/2
f 40/55/3 38/57/3 37/56/3
f 38/57/4 34/430/4 33/58/4
f 39/54/5 37/56/5 33/59/5
f 36/61/7 34/431/7 38/57/7
f 42/62/1 44/65/1 43/63/1
f 44/65/2 48/67/2 47/66/2
f 48/67/3 46/69/3 45/68/3
f 46/69/4 42/432/4 41/70/4
f 47/66/5 45/68/5 41/71/5
f 44/73/7 42/433/7 46/69/7
f 50/74/1 52/77/1 51/75/1
f 52/77/2 56/79/2 55/78/2
f 56/79/3 54/81/3 53/80/3
f 54/81/4 50/422/4 49/82/4
f 55/78/5 53/80/5 49/83/5
f 6/8/4 284/8/4 281/85/4
f 58/12/1 60/13/1 59/86/1
f 60/13/2 64/89/2 63/88/2
f 64/89/3 62/91/3 61/90/3
f 62/91/4 58/423/4 57/92/4
f 63/88/5 61/90/5 57/93/5
f 60/13/2 290/13/2 291/89/2
f 66/95/1 68/98/1 67/96/1
f 68/98/2 72/100/2 71/99/2
f 72/100/3 70/102/3 69/101/3
f 70/102/4 66/434/4 65/103/4
f 71/99/5 69/101/5 65/104/5
f 68/106/7 66/435/7 70/102/7
f 74/107/4 76/110/4 75/108/4
f 76/110/1 80/112/1 79/111/1
f 80/112/2 78/114/2 77/113/2
f 78/114/3 74/436/3 73/115/3
f 79/111/5 77/113/5 73/116/5
f 76/118/7 74/437/7 78/114/7
f 82/119/4 84/122/4 83/120/4
f 84/122/1 88/124/1 87/123/1
f 88/124/2 86/126/2 85/125/2
f 86/126/3 82/438/3 81/127/3
f 87/123/5 85/125/5 81/128/5
f 84/130/7 82/439/7 86/126/7
f 90/131/1 92/134/1 91/132/1
f 92/134/2 96/136/2 95/135/2
f 96/136/3 94/138/3 93/137/3
f 94/138/4 90/440/4 89/139/4
f 95/135/5 93/137/5 89/140/5
f 92/142/7 90/441/7 94/138/7
f 98/143/1 100/146/1 99/144/1
f 100/146/2 104/148/2 103/147/2
f 104/148/3 102/150/3 101/149/3
f 102/150/4 98/442/4 97/151/4
f 103/147/5 101/149/5 97/152/5
f 100/154/7 98/443/7 102/150/7
f 106/155/1 108/158/1 107/156/1
f 108/158/2 112/160/2 111/159/2
f 112/160/3 110/162/3 109/161/3
f 110/162/4 106/444/4 105/163/4
f 111/159/5 109/161/5 105/164/5
f 108/166/7 106/445/7 110/162/7
f 114/167/1 116/170/1 115/168/1
f 116/170/2 120/172/2 119/171/2
f 120/172/3 118/174/3 117/173/3
f 118/174/4 114/446/4 113/175/4
f 119/171/5 117/173/5 113/176/5
f 116/178/7 114/447/7 118/174/7
f 122/179/1 124/182/1 123/180/1
f 124/182/2 128/184/2 127/183/2
f 128/184/3 126/186/3 125/185/3
f 126/186/4 122/448/4 121/187/4
f 127/183/5 125/185/5 121/188/5
f 124/190/7 122/449/7 126/186/7
f 130/191/1 132/194/1 131/192/1
f 132/194/2 136/196/2 135/195/2
f 136/196/3 134/198/3 133/197/3
f 134/198/4 130/450/4 129/199/4
f 135/195/5 133/197/5 129/200/5
f 132/202/7 130/451/7 134/198/7
f 138/203/1 140/206/1 139/204/1
f 140/206/2 144/208/2 143/207/2
f 144/208/3 142/210/3 141/209/3
f 142/210/4 138/452/4 137/211/4
f 143/207/5 141/209/5 137/212/5
f 140/214/7 138/453/7 142/210/7
f 146/215/4 148/218/4 147/216/4
f 148/218/1 152/220/1 151/219/1
f 152/220/2 150/222/2 149/221/2
f 150/222/3 146/454/3 145/223/3
f 151/219/5 149/221/5 145/224/5
f 148/226/7 146/455/7 150/222/7
f 154/227/4 156/230/4 155/228/4
f 156/230/1 160/232/1 159/231/1
f 160/232/2 158/234/2 157/233/2
f 158/234/3 154/456/3 153/235/3
f 159/231/5 157/233/5 153/236/5
f 156/238/7 154/457/7 158/234/7
f 162/239/4 164/242/4 163/240/4
f 164/242/1 168/244/1 167/243/1
f 168/244/2 166/246/2 165/245/2
f 166/246/3 162/458/3 161/247/3
f 167/243/5 165/245/5 161/248/5
f 164/250/7 162/459/7 166/246/7
f 170/251/4 172/254/4 171/252/4
f 172/254/1 176/256/1 175/255/1
f 176/256/2 174/258/2 173/257/2
f 174/258/3 170/460/3 169/259/3
f 175/255/5 173/257/5 169/260/5
f 172/262/7 170/461/7 174/258/7
f 178/263/4 180/266/4 179/264/4
f 180/266/1 184/268/1 183/267/1
f 184/268/2 182/270/2 181/269/2
f 182/270/3 178/462/3 177/271/3
f 183/267/5 181/269/5 177/272/5
f 180/274/7 178/463/7 182/270/7
f 186/275/1 188/278/1 187/276/1
f 188/278/2 192/280/2 191/279/2
f 192/280/3 190/282/3 189/281/3
f 190/282/4 186/464/4 185/283/4
f 191/279/5 189/281/5 185/284/5
f 188/286/7 186/465/7 190/282/7
f 194/287/1 196/290/1 195/288/1
f 196/290/2 200/292/2 199/291/2
f 200/292/3 198/294/3 197/293/3
f 198/294/4 194/466/4 193/295/4
f 199/291/5 197/293/5 193/296/5
f 196/298/7 194/467/7 198/294/7
f 202/299/1 204/302/1 203/300/1
f 204/302/2 208/304/2 207/303/2
f 208/304/3 206/306/3 205/305/3
f 206/306/4 202/468/4 201/307/4
f 207/303/5 205/305/5 201/308/5
f 204/310/7 202/469/7 206/306/7
f 210/311/1 212/314/1 211/312/1
f 212/314/2 216/316/2 215/315/2
f 216/316/3 214/318/3 213/317/3
f 214/318/4 210/470/4 209/319/4
f 215/315/5 213/317/5 209/320/5
f 212/322/7 210/471/7 214/318/7
f 218/323/1 220/326/1 219/324/1
f 220/326/2 224/328/2 223/327/2
f 224/328/3 222/330/3 221/329/3
f 222/330/4 218/472/4 217/331/4
f 223/327/5 221/329/5 217/332/5
f 220/334/7 218/473/7 222/330/7
f 226/335/1 228/338/1 227/336/1
f 228/338/2 232/340/2 231/339/2
f 232/340/3 230/342/3 229/341/3
f 230/342/4 226/474/4 225/343/4
f 231/339/5 229/341/5 225/344/5
f 228/346/7 226/475/7 230/342/7
f 234/347/1 236/350/1 235/348/1
f 236/350/2 240/352/2 239/351/2
f 240/352/3 238/354/3 237/353/3
f 238/354/4 234/476/4 233/355/4
f 239/351/5 237/353/5 233/356/5
f 236/358/7 234/477/7 238/354/7
f 242/359/4 244/362/4 243/360/4
f 244/362/1 248/364/1 247/363/1
f 248/364/2 246/366/2 245/365/2
f 246/366/3 242/478/3 241/367/3
f 247/363/5 245/365/5 241/368/5
f 244/370/7 242/479/7 246/366/7
f 250/371/4 252/374/4 251/372/4
f 252/374/1 256/376/1 255/375/1
f 256/376/2 254/378/2 253/377/2
f 254/378/3 250/480/3 249/379/3
f 255/375/5 253/377/5 249/380/5
f 252/382/7 250/481/7 254/378/7
f 258/383/4 260/386/4 259/384/4
f 260/386/1 264/388/1 263/387/1
f 264/388/2 262/390/2 261/389/2
f 262/390/3 258/482/3 257/391/3
f 263/387/5 261/389/5 257/392/5
f 260/394/7 258/483/7 262/390/7
f 266/395/4 268/398/4 267/396/4
f 268/398/1 272/400/1 271/399/1
f 272/400/2 270/402/2 269/401/2
f 270/402/3 266/484/3 265/403/3
f 271/399/5 269/401/5 265/404/5
f 268/406/7 266/485/7 270/402/7
f 274/407/4 276/410/4 275/408/4
f 276/410/1 280/412/1 279/411/1
f 280/412/2 278/414/2 277/413/2
f 278/414/3 274/486/3 273/415/3
f 279/411/5 277/413/5 273/416/5
f 276/418/7 274/487/7 278/414/7
f 282/419/7 281/488/7 284/8/7
f 286/420/7 285/489/7 288/81/7
f 290/421/7 289/490/7 292/91/7
f 8/6/8 283/6/8 284/8/8
f 54/81/4 288/81/4 285/422/4
f 4/4/2 282/4/2 283/6/2
f 56/79/9 287/79/9 288/81/9
f 2/1/10 281/1/10 282/4/10
f 52/77/2 286/77/2 287/79/2
f 50/74/11 285/74/11 286/77/11
f 62/91/4 292/91/4 289/423/4
f 64/89/12 291/89/12 292/91/12
