# Blender 4.4.1
# www.blender.org
mtllib MisiileBase.mtl
o MisileBase
v -1.000000 -0.749715 3.150786
v -1.000000 0.543155 3.150786
v -1.000000 -0.749715 2.154612
v -1.000000 0.543155 2.154612
v 1.000000 -0.749715 3.150786
v 1.000000 0.543155 3.150786
v 1.000000 -0.749715 2.154612
v 1.000000 0.543155 2.154612
v 0.000000 -0.754597 -2.943433
v 0.000000 0.161162 -2.943433
v 2.082102 -0.754597 -2.080998
v 2.082102 0.161162 -2.080998
v 2.944536 -0.754597 0.001103
v 2.944536 0.161162 0.001103
v 2.082102 -0.754597 2.083204
v 2.082102 0.161162 2.083204
v 0.000000 -0.754597 2.945639
v 0.000000 0.161162 2.945639
v -2.082102 -0.754597 2.083204
v -2.082102 0.161162 2.083204
v -2.944536 -0.754597 0.001103
v -2.944536 0.161162 0.001103
v -2.082102 -0.754597 -2.080998
v -2.082102 0.161162 -2.080998
v 0.000000 0.073887 -2.096054
v 0.000000 0.726109 -2.096054
v 1.482914 0.073887 -1.481811
v 1.482914 0.726109 -1.481811
v 2.097157 0.073887 0.001103
v 2.097157 0.726109 0.001103
v 1.482914 0.073887 1.484017
v 1.482914 0.726109 1.484017
v 0.000000 0.073887 2.098260
v 0.000000 0.726109 2.098260
v -1.482914 0.073887 1.484017
v -1.482914 0.726109 1.484017
v -2.097157 0.073887 0.001103
v -2.097157 0.726109 0.001103
v -1.482914 0.073887 -1.481811
v -1.482914 0.726109 -1.481811
v -1.000000 -0.749715 -2.159019
v -1.000000 0.543155 -2.159019
v -1.000000 -0.749715 -3.155193
v -1.000000 0.543155 -3.155193
v 1.000000 -0.749715 -2.159019
v 1.000000 0.543155 -2.159019
v 1.000000 -0.749715 -3.155193
v 1.000000 0.543155 -3.155193
vn -1.0000 -0.0000 -0.0000
vn -0.0000 -0.0000 -1.0000
vn 1.0000 -0.0000 -0.0000
vn -0.0000 -0.0000 1.0000
vn -0.0000 -1.0000 -0.0000
vn -0.0000 1.0000 -0.0000
vn 0.3827 -0.0000 -0.9239
vn 0.9239 -0.0000 -0.3827
vn 0.9239 -0.0000 0.3827
vn 0.3827 -0.0000 0.9239
vn -0.3827 -0.0000 0.9239
vn -0.9239 -0.0000 0.3827
vn -0.9239 -0.0000 -0.3827
vn -0.3827 -0.0000 -0.9239
vt 0.125123 0.000246
vt 0.250000 0.000246
vt 0.250000 0.125123
vt 0.125123 0.125123
vt 0.250000 0.250000
vt 0.125123 0.250000
vt 0.250000 0.374877
vt 0.125123 0.374877
vt 0.250000 0.499754
vt 0.125123 0.499754
vt 0.000246 0.250000
vt 0.000246 0.374877
vt 0.374877 0.250000
vt 0.374877 0.374877
vt 0.000246 0.500246
vt 0.250000 0.500246
vt 0.250000 0.562684
vt 0.000246 0.562684
vt 0.250000 0.625123
vt 0.000246 0.625123
vt 0.250000 0.687561
vt 0.000246 0.687561
vt 0.250000 0.750000
vt 0.000246 0.750000
vt 0.250000 0.812438
vt 0.000246 0.812438
vt 0.250000 0.874877
vt 0.000246 0.874877
vt 0.565617 0.721759
vt 0.500737 0.656879
vt 0.500737 0.565126
vt 0.565617 0.500246
vt 0.657371 0.500246
vt 0.722250 0.565126
vt 0.722250 0.656879
vt 0.657371 0.721759
vt 0.250000 0.937316
vt 0.000246 0.937316
vt 0.250000 0.999754
vt 0.000246 0.999754
vt 0.944255 0.656879
vt 0.944255 0.565125
vt 0.879375 0.500246
vt 0.787621 0.500246
vt 0.722742 0.565125
vt 0.722742 0.656879
vt 0.787621 0.721759
vt 0.879375 0.721759
vt 0.250491 0.500246
vt 0.500246 0.500246
vt 0.500246 0.562684
vt 0.250491 0.562684
vt 0.500246 0.625123
vt 0.250491 0.625123
vt 0.500246 0.687561
vt 0.250491 0.687561
vt 0.500246 0.750000
vt 0.250491 0.750000
vt 0.500246 0.812438
vt 0.250491 0.812438
vt 0.500246 0.874877
vt 0.250491 0.874877
vt 0.565617 0.943763
vt 0.500737 0.878884
vt 0.500737 0.787130
vt 0.565617 0.722250
vt 0.657371 0.722250
vt 0.722250 0.787130
vt 0.722250 0.878884
vt 0.657371 0.943763
vt 0.500246 0.937316
vt 0.250492 0.937316
vt 0.500246 0.999754
vt 0.250492 0.999754
vt 0.944255 0.878884
vt 0.944255 0.787130
vt 0.879375 0.722250
vt 0.787621 0.722250
vt 0.722742 0.787130
vt 0.722742 0.878884
vt 0.787621 0.943763
vt 0.879375 0.943763
vt 0.500246 0.000246
vt 0.625123 0.000246
vt 0.625123 0.125123
vt 0.500246 0.125123
vt 0.625123 0.250000
vt 0.500246 0.250000
vt 0.625123 0.374877
vt 0.500246 0.374877
vt 0.625123 0.499754
vt 0.500246 0.499754
vt 0.375369 0.250000
vt 0.375369 0.374877
vt 0.750000 0.250000
vt 0.750000 0.374877
s 0
usemtl マテリアル.001
f 1/1/1 2/2/1 4/3/1 3/4/1
f 3/4/2 4/3/2 8/5/2 7/6/2
f 7/6/3 8/5/3 6/7/3 5/8/3
f 5/8/4 6/7/4 2/9/4 1/10/4
f 3/11/5 7/6/5 5/8/5 1/12/5
f 8/5/6 4/13/6 2/14/6 6/7/6
f 9/15/7 10/16/7 12/17/7 11/18/7
f 11/18/8 12/17/8 14/19/8 13/20/8
f 13/20/9 14/19/9 16/21/9 15/22/9
f 15/22/10 16/21/10 18/23/10 17/24/10
f 17/24/11 18/23/11 20/25/11 19/26/11
f 19/26/12 20/25/12 22/27/12 21/28/12
f 12/29/6 10/30/6 24/31/6 22/32/6 20/33/6 18/34/6 16/35/6 14/36/6
f 21/28/13 22/27/13 24/37/13 23/38/13
f 23/38/14 24/37/14 10/39/14 9/40/14
f 9/41/5 11/42/5 13/43/5 15/44/5 17/45/5 19/46/5 21/47/5 23/48/5
f 25/49/7 26/50/7 28/51/7 27/52/7
f 27/52/8 28/51/8 30/53/8 29/54/8
f 29/54/9 30/53/9 32/55/9 31/56/9
f 31/56/10 32/55/10 34/57/10 33/58/10
f 33/58/11 34/57/11 36/59/11 35/60/11
f 35/60/12 36/59/12 38/61/12 37/62/12
f 28/63/6 26/64/6 40/65/6 38/66/6 36/67/6 34/68/6 32/69/6 30/70/6
f 37/62/13 38/61/13 40/71/13 39/72/13
f 39/72/14 40/71/14 26/73/14 25/74/14
f 25/75/5 27/76/5 29/77/5 31/78/5 33/79/5 35/80/5 37/81/5 39/82/5
f 41/83/1 42/84/1 44/85/1 43/86/1
f 43/86/2 44/85/2 48/87/2 47/88/2
f 47/88/3 48/87/3 46/89/3 45/90/3
f 45/90/4 46/89/4 42/91/4 41/92/4
f 43/93/5 47/88/5 45/90/5 41/94/5
f 48/87/6 44/95/6 42/96/6 46/89/6
