# Blender 4.4.1
# www.blender.org
mtllib SkyGunner.mtl
o 球.017
v 0.071187 0.145608 4.311603
v 0.136898 0.145608 4.247880
v 0.071187 0.162362 4.311603
v -0.001333 0.145608 4.318746
v -0.077875 0.145608 4.269034
v -0.001333 0.162362 4.318746
v 0.037074 0.145608 4.475200
v 0.064378 0.145608 4.472510
v 0.010820 0.145608 4.483164
v 0.037074 0.162362 4.475200
v 0.010820 0.162362 4.483164
v 0.064378 0.162362 4.472510
v 0.091682 0.162362 4.475200
v 0.117937 0.162362 4.483164
v 0.091682 0.145608 4.475200
v 0.117937 0.145608 4.483164
v 0.142133 0.145608 4.496097
v 0.163341 0.145608 4.513502
v 0.142133 0.162362 4.496097
v 0.163341 0.162362 4.513502
v 0.180746 0.162362 4.534710
v 0.193679 0.162362 4.558907
v 0.180746 0.145608 4.534710
v 0.193679 0.145608 4.558907
v 0.201644 0.145608 4.585161
v 0.204333 0.145608 4.612465
v 0.201644 0.162362 4.585161
v 0.204333 0.162362 4.612465
v 0.201644 0.162362 4.639769
v 0.193679 0.162362 4.666023
v 0.201644 0.145608 4.639769
v 0.193679 0.145608 4.666023
v 0.180746 0.145608 4.690219
v 0.163341 0.145608 4.711428
v 0.180746 0.162362 4.690219
v 0.163341 0.162362 4.711428
v 0.142133 0.162362 4.728833
v 0.117937 0.162362 4.741766
v 0.142133 0.145608 4.728833
v 0.117937 0.145608 4.741766
v 0.091682 0.145608 4.749730
v 0.064378 0.145608 4.752419
v 0.091682 0.162362 4.749730
v 0.064378 0.162362 4.752419
v 0.037074 0.162362 4.749730
v 0.010820 0.162362 4.741766
v 0.037074 0.145608 4.749730
v 0.010820 0.145608 4.741766
v -0.013376 0.145608 4.728833
v -0.034584 0.145608 4.711428
v -0.013376 0.162362 4.728833
v -0.034584 0.162362 4.711428
v -0.051990 0.162362 4.690219
v -0.064923 0.162362 4.666023
v -0.051990 0.145608 4.690219
v -0.064923 0.145608 4.666023
v -0.072887 0.145608 4.639769
v -0.075576 0.145608 4.612465
v -0.072887 0.162362 4.639769
v -0.229567 0.162362 4.677837
v -0.075576 0.162362 4.612465
v -0.072887 0.162362 4.585161
v -0.064923 0.162362 4.558907
v -0.072887 0.145608 4.585161
v -0.064923 0.145608 4.558907
v -0.051990 0.145608 4.534710
v -0.034584 0.145608 4.513502
v -0.051990 0.162362 4.534710
v -0.051229 0.162362 4.533783
v -0.188788 0.162362 4.451018
v -0.034584 0.162362 4.513502
v -0.013376 0.162362 4.496097
v -0.013376 0.145608 4.496097
v -0.279053 0.162362 4.470212
v -0.188788 0.145608 4.451018
v -0.142559 0.162362 4.394688
v -0.142559 0.145608 4.394688
v -0.142142 0.162362 4.303385
v -0.142142 0.145608 4.303385
v -0.077875 0.162361 4.269034
v -0.279053 0.145608 4.470212
v -0.300206 0.145608 4.539945
v -0.236710 0.145608 4.605317
v -0.300206 0.162362 4.539945
v -0.236710 0.162362 4.605317
v -0.229567 0.145608 4.677837
v -0.279053 0.145608 4.754718
v -0.244702 0.145608 4.818985
v -0.279053 0.162362 4.754718
v -0.244702 0.162362 4.818985
v -0.153623 0.162362 4.820518
v -0.097293 0.162362 4.866747
v -0.153623 0.145608 4.820518
v -0.097293 0.145608 4.866747
v -0.077875 0.145608 4.955896
v -0.008142 0.145608 4.977049
v -0.077875 0.162362 4.955896
v -0.008142 0.162362 4.977049
v 0.057582 0.162362 4.913822
v 0.130102 0.162362 4.906679
v 0.057582 0.145608 4.913822
v 0.130102 0.145608 4.906679
v 0.206632 0.145608 4.955896
v 0.270899 0.145608 4.921545
v 0.206632 0.162362 4.955896
v 0.270899 0.162362 4.921545
v 0.272907 0.162362 4.830502
v 0.319136 0.162362 4.774172
v 0.272907 0.145608 4.830502
v 0.319136 0.145608 4.774172
v 0.407809 0.145608 4.754718
v 0.428962 0.145608 4.684985
v 0.407809 0.162362 4.754718
v 0.428962 0.162362 4.684985
v 0.365139 0.162362 4.618030
v 0.357997 0.162362 4.545509
v 0.365139 0.145608 4.618030
v 0.357997 0.145608 4.545509
v 0.407809 0.145608 4.470212
v 0.373458 0.145608 4.405944
v 0.407809 0.162362 4.470212
v 0.373458 0.162362 4.405944
v 0.283295 0.162362 4.404768
v 0.226964 0.162362 4.358539
v 0.283295 0.145608 4.404768
v 0.226964 0.145608 4.358539
v 0.206632 0.145608 4.269034
v 0.206632 0.162361 4.269034
v 0.136898 0.162361 4.247880
v -0.117470 0.167915 4.160960
v -0.071081 0.167915 4.129541
v -0.159979 0.198755 4.106168
v -0.141845 0.167915 4.220754
v -0.096758 0.191678 4.194893
v -0.193198 0.198755 4.187658
v -0.141845 0.167915 4.311966
v -0.193198 0.198755 4.311966
v -0.141845 0.167915 4.403179
v -0.096758 0.191678 4.319202
v -0.096758 0.197313 4.436275
v -0.000317 0.191678 4.319202
v -0.000317 0.191678 4.194893
v -0.000317 0.197313 4.436275
v 0.096124 0.197313 4.311966
v 0.141211 0.167915 4.311966
v 0.096124 0.197313 4.436275
v 0.096124 0.197313 4.187658
v 0.070447 0.167915 4.129541
v 0.141211 0.167915 4.220754
v 0.192564 0.198755 4.187658
v 0.116836 0.167915 4.160960
v 0.159345 0.198755 4.106168
v 0.096124 0.198755 4.063349
v 0.159345 0.330039 4.106168
v 0.096124 0.330039 4.063349
v 0.159345 0.420905 4.106168
v 0.192564 0.330039 4.187658
v 0.192564 0.420905 4.187658
v 0.192564 0.330039 4.311966
v 0.192564 0.198755 4.311966
v 0.192564 0.420905 4.311966
v 0.192564 0.330039 4.436275
v 0.192564 0.198755 4.436275
v 0.192564 0.420905 4.436275
v 0.159345 0.330039 4.517764
v 0.159345 0.198755 4.517764
v 0.159345 0.420905 4.517764
v 0.096124 0.330039 4.560583
v 0.096124 0.198755 4.560583
v 0.096124 0.420905 4.560583
v -0.000317 0.330039 4.560583
v -0.000317 0.198755 4.560583
v -0.000317 0.420905 4.560583
v -0.096758 0.330039 4.560583
v -0.096758 0.198755 4.560583
v -0.096758 0.420905 4.560583
v -0.159979 0.330039 4.517764
v -0.159979 0.198755 4.517764
v -0.159979 0.420905 4.517764
v -0.193198 0.330039 4.436275
v -0.193198 0.198755 4.436275
v -0.193198 0.420905 4.436275
v -0.193198 0.330039 4.311966
v -0.193198 0.420905 4.311966
v -0.193198 0.330039 4.187658
v -0.159979 0.330039 4.106168
v -0.193198 0.420905 4.187658
v -0.159979 0.420905 4.106168
v -0.193198 0.486860 4.187658
v -0.193198 0.486860 4.311966
v -0.159979 0.486860 4.106168
v -0.151785 0.534305 4.214348
v -0.151785 0.534305 4.311966
v -0.125698 0.534305 4.150355
v -0.096758 0.500557 4.187658
v -0.096758 0.500557 4.311966
v -0.000317 0.500557 4.187658
v -0.076051 0.534305 4.116730
v -0.096758 0.486860 4.063349
v -0.000317 0.534305 4.116730
v -0.000317 0.486860 4.063349
v 0.075417 0.534305 4.116730
v 0.125064 0.534305 4.150355
v 0.096124 0.500557 4.187658
v 0.096124 0.486860 4.063349
v 0.096124 0.420905 4.063349
v 0.159345 0.486860 4.106168
v 0.192564 0.486860 4.187658
v 0.151151 0.534305 4.214348
v 0.192564 0.486860 4.311966
v 0.151151 0.534305 4.311966
v 0.192564 0.486860 4.436275
v 0.151151 0.534305 4.409585
v 0.159345 0.486860 4.517764
v 0.125064 0.534305 4.473577
v 0.096124 0.486860 4.560583
v 0.075417 0.534305 4.507203
v -0.000317 0.486860 4.560583
v -0.000317 0.534305 4.507203
v -0.096758 0.486860 4.560583
v -0.076051 0.534305 4.507203
v -0.159979 0.486860 4.517764
v -0.125698 0.534305 4.473577
v -0.193198 0.486860 4.436275
v -0.151785 0.534305 4.409585
v -0.096758 0.500557 4.436275
v -0.000317 0.500557 4.436275
v -0.000317 0.500557 4.311966
v 0.096124 0.500557 4.436275
v 0.096124 0.500557 4.311966
v -0.000317 0.420905 4.063349
v -0.096758 0.420905 4.063349
v -0.000317 0.330039 4.063349
v -0.096758 0.330039 4.063349
v -0.000317 0.198755 4.063349
v -0.096758 0.198755 4.063349
v -0.000317 0.167915 4.129541
v -0.117470 0.167915 4.462972
v -0.071081 0.167915 4.494391
v -0.000317 0.167915 4.494391
v 0.070447 0.167915 4.494391
v 0.116836 0.167915 4.462972
v 0.141211 0.167915 4.403179
v -0.078457 0.164446 3.775245
v -0.012746 0.164446 3.711523
v -0.078457 0.181199 3.775245
v -0.150977 0.164446 3.782387
v -0.227520 0.164446 3.732676
v -0.150977 0.181199 3.782387
v -0.112570 0.164446 3.938841
v -0.085266 0.164446 3.936152
v -0.138824 0.164446 3.946806
v -0.112570 0.181199 3.938841
v -0.138824 0.181199 3.946806
v -0.085266 0.181199 3.936152
v -0.057962 0.181199 3.938841
v -0.031708 0.181199 3.946806
v -0.057962 0.164446 3.938841
v -0.031708 0.164446 3.946806
v -0.007512 0.164446 3.959739
v 0.013697 0.164446 3.977144
v -0.007512 0.181199 3.959739
v 0.013697 0.181199 3.977144
v 0.031102 0.181199 3.998352
v 0.044035 0.181199 4.022548
v 0.031102 0.164446 3.998352
v 0.044035 0.164446 4.022548
v 0.051999 0.164446 4.048803
v 0.054688 0.164446 4.076107
v 0.051999 0.181199 4.048803
v 0.054688 0.181199 4.076107
v 0.051999 0.181199 4.103410
v 0.044035 0.181199 4.129665
v 0.051999 0.164446 4.103410
v 0.044035 0.164446 4.129665
v 0.031102 0.164446 4.153861
v 0.013697 0.164446 4.175069
v 0.031102 0.181199 4.153861
v 0.013697 0.181199 4.175069
v -0.007512 0.181199 4.192475
v -0.031708 0.181199 4.205408
v -0.007512 0.164446 4.192475
v -0.031708 0.164446 4.205408
v -0.057962 0.164446 4.213372
v -0.085266 0.164446 4.216061
v -0.057962 0.181199 4.213372
v -0.085266 0.181199 4.216061
v -0.112570 0.181199 4.213372
v -0.138824 0.181199 4.205408
v -0.112570 0.164446 4.213372
v -0.138824 0.164446 4.205408
v -0.163020 0.164446 4.192475
v -0.184229 0.164446 4.175069
v -0.163020 0.181199 4.192475
v -0.184229 0.181199 4.175069
v -0.201634 0.181199 4.153861
v -0.214567 0.181199 4.129665
v -0.201634 0.164446 4.153861
v -0.214567 0.164446 4.129665
v -0.222531 0.164446 4.103410
v -0.225220 0.164446 4.076107
v -0.222531 0.181199 4.103410
v -0.379211 0.181199 4.141479
v -0.225220 0.181199 4.076107
v -0.222531 0.181199 4.048803
v -0.214567 0.181199 4.022548
v -0.222531 0.164446 4.048803
v -0.214567 0.164446 4.022548
v -0.201634 0.164446 3.998352
v -0.184229 0.164446 3.977144
v -0.201634 0.181199 3.998352
v -0.200873 0.181199 3.997425
v -0.338432 0.181199 3.914660
v -0.184229 0.181199 3.977144
v -0.163020 0.181199 3.959739
v -0.163020 0.164446 3.959739
v -0.428697 0.181199 3.933853
v -0.338432 0.164446 3.914660
v -0.292203 0.181199 3.858329
v -0.292203 0.164446 3.858329
v -0.291786 0.181199 3.767027
v -0.291786 0.164446 3.767027
v -0.227520 0.181199 3.732676
v -0.428697 0.164446 3.933853
v -0.449850 0.164446 4.003587
v -0.386354 0.164446 4.068959
v -0.449850 0.181199 4.003587
v -0.386354 0.181199 4.068959
v -0.379211 0.164446 4.141479
v -0.428697 0.164446 4.218360
v -0.394346 0.164446 4.282627
v -0.428697 0.181199 4.218360
v -0.394346 0.181199 4.282627
v -0.303268 0.181199 4.284160
v -0.246937 0.181199 4.330389
v -0.303268 0.164446 4.284160
v -0.246937 0.164446 4.330389
v -0.227520 0.164446 4.419538
v -0.157786 0.164446 4.440691
v -0.227520 0.181199 4.419538
v -0.157786 0.181199 4.440691
v -0.092062 0.181199 4.377463
v -0.019542 0.181199 4.370321
v -0.092062 0.164446 4.377463
v -0.019542 0.164446 4.370321
v 0.056988 0.164446 4.419538
v 0.121254 0.164446 4.385187
v 0.056988 0.181199 4.419538
v 0.121254 0.181199 4.385187
v 0.123263 0.181199 4.294144
v 0.169492 0.181199 4.237813
v 0.123263 0.164446 4.294144
v 0.169492 0.164446 4.237813
v 0.258165 0.164446 4.218360
v 0.279318 0.164446 4.148627
v 0.258165 0.181199 4.218360
v 0.279318 0.181199 4.148627
v 0.215495 0.181199 4.081672
v 0.208353 0.181199 4.009151
v 0.215495 0.164446 4.081672
v 0.208353 0.164446 4.009151
v 0.258165 0.164446 3.933853
v 0.223814 0.164446 3.869586
v 0.258165 0.181199 3.933853
v 0.223814 0.181199 3.869586
v 0.133651 0.181199 3.868410
v 0.077320 0.181199 3.822181
v 0.133651 0.164446 3.868410
v 0.077320 0.164446 3.822181
v 0.056988 0.164446 3.732676
v 0.056988 0.181199 3.732676
v -0.012746 0.181199 3.711523
v 0.000000 0.229822 4.498539
v 0.036297 0.229822 4.494964
v 0.000000 0.013171 4.312485
v -0.036297 0.229822 4.494964
v -0.071200 0.229822 4.484376
v -0.103366 0.229822 4.467183
v -0.131560 0.229822 4.444045
v -0.154698 0.229822 4.415851
v -0.171891 0.229822 4.383685
v -0.182479 0.229822 4.348783
v -0.186054 0.229822 4.312485
v -0.182479 0.229822 4.276188
v -0.171891 0.229822 4.241286
v -0.154698 0.229822 4.209120
v -0.131560 0.229822 4.180926
v -0.103366 0.229822 4.157787
v -0.071200 0.229822 4.140594
v -0.036297 0.229822 4.130007
v 0.000000 0.229822 4.126432
v 0.036297 0.229822 4.130007
v 0.071200 0.229822 4.140594
v 0.103366 0.229822 4.157787
v 0.131560 0.229822 4.180926
v 0.154698 0.229822 4.209120
v 0.171891 0.229822 4.241286
v 0.182479 0.229822 4.276188
v 0.186054 0.229822 4.312485
v 0.182479 0.229822 4.348783
v 0.171891 0.229822 4.383685
v 0.154698 0.229822 4.415851
v 0.131560 0.229822 4.444045
v 0.103366 0.229822 4.467183
v 0.071200 0.229822 4.484376
v 0.255034 0.414349 4.311758
v 0.255034 0.413210 4.300196
v 0.264892 0.395907 4.311758
v 0.241768 0.430514 4.311758
v 0.255034 0.413210 4.323320
v 0.264892 0.395122 4.319722
v 0.241768 0.429065 4.326473
v 0.255034 0.409838 4.334437
v 0.264892 0.392799 4.327380
v 0.241768 0.424772 4.340623
v 0.255034 0.404361 4.344683
v 0.264892 0.389027 4.334437
v 0.241768 0.417802 4.353664
v 0.255034 0.396991 4.353664
v 0.264892 0.383950 4.340623
v 0.241768 0.408421 4.365094
v 0.255034 0.388010 4.361034
v 0.264892 0.377764 4.345700
v 0.241768 0.396991 4.374475
v 0.255034 0.377764 4.366511
v 0.255034 0.366647 4.369883
v 0.264892 0.370707 4.349472
v 0.241768 0.383950 4.381445
v 0.225603 0.389027 4.393702
v 0.241768 0.369800 4.385738
v 0.225603 0.372389 4.398749
v 0.241768 0.355085 4.387187
v 0.255034 0.355085 4.371022
v 0.225603 0.355085 4.400453
v 0.241768 0.340369 4.385738
v 0.255034 0.343523 4.369883
v 0.225603 0.337781 4.398749
v 0.241768 0.326219 4.381445
v 0.255034 0.332406 4.366511
v 0.225603 0.321143 4.393702
v 0.241768 0.313179 4.374475
v 0.255034 0.322159 4.361034
v 0.225603 0.305809 4.385505
v 0.241768 0.301749 4.365094
v 0.255034 0.313179 4.353664
v 0.225603 0.292368 4.374475
v 0.241768 0.292368 4.353664
v 0.241768 0.285398 4.340623
v 0.255034 0.305809 4.344683
v 0.225603 0.281338 4.361034
v 0.207161 0.273141 4.366511
v 0.225603 0.273141 4.345700
v 0.207161 0.264034 4.349472
v 0.225603 0.268094 4.329062
v 0.241768 0.281105 4.326473
v 0.207161 0.258426 4.330985
v 0.225603 0.266390 4.311758
v 0.241768 0.279656 4.311758
v 0.207161 0.256532 4.311758
v 0.225603 0.268094 4.294454
v 0.241768 0.281105 4.297043
v 0.207161 0.258426 4.292531
v 0.225603 0.273141 4.277816
v 0.241768 0.285398 4.282893
v 0.207161 0.264034 4.274043
v 0.225603 0.281338 4.262482
v 0.241768 0.292368 4.269852
v 0.207161 0.273141 4.257005
v 0.225603 0.292368 4.249041
v 0.225603 0.305809 4.238011
v 0.241768 0.301749 4.258422
v 0.207161 0.285398 4.242071
v 0.187150 0.281105 4.237778
v 0.207161 0.300332 4.229814
v 0.187150 0.296959 4.224767
v 0.207161 0.317370 4.220707
v 0.225603 0.321143 4.229814
v 0.187150 0.315047 4.215099
v 0.207161 0.335858 4.215099
v 0.225603 0.337781 4.224767
v 0.187150 0.334674 4.209145
v 0.207161 0.355085 4.213205
v 0.225603 0.355085 4.223063
v 0.187150 0.355085 4.207135
v 0.207161 0.374312 4.215099
v 0.225603 0.372388 4.224767
v 0.187150 0.375496 4.209145
v 0.207161 0.392799 4.220707
v 0.225603 0.389027 4.229814
v 0.207161 0.409838 4.229814
v 0.187150 0.395122 4.215099
v 0.187150 0.413210 4.224767
v 0.187150 0.429065 4.237778
v 0.187150 0.442076 4.253633
v 0.207161 0.424772 4.242071
v 0.207161 0.437029 4.257005
v 0.225603 0.417802 4.249041
v 0.241768 0.408421 4.258422
v 0.225603 0.404361 4.238011
v 0.225603 0.428832 4.262482
v 0.225603 0.437029 4.277816
v 0.241768 0.417802 4.269852
v 0.255034 0.404361 4.278833
v 0.241768 0.424772 4.282893
v 0.241768 0.429065 4.297043
v 0.255034 0.409838 4.289079
v 0.264892 0.392799 4.296136
v 0.270962 0.374312 4.303794
v 0.264892 0.389027 4.289079
v 0.264892 0.395122 4.303794
v 0.270962 0.375496 4.307698
v 0.270962 0.375896 4.311758
v 0.273012 0.355085 4.311758
v 0.270962 0.363049 4.292531
v 0.270962 0.359145 4.291347
v 0.270962 0.355085 4.290947
v 0.270962 0.351025 4.291347
v 0.270962 0.347121 4.292531
v 0.270962 0.343523 4.294454
v 0.270962 0.340369 4.297043
v 0.270962 0.337781 4.300196
v 0.270962 0.335858 4.303794
v 0.270962 0.334674 4.307698
v 0.270962 0.334274 4.311758
v 0.270962 0.334674 4.315818
v 0.270962 0.335858 4.319722
v 0.270962 0.337781 4.323320
v 0.270962 0.340369 4.326473
v 0.270962 0.343523 4.329062
v 0.270962 0.347121 4.330985
v 0.270962 0.351025 4.332169
v 0.270962 0.355085 4.332569
v 0.270962 0.359145 4.332169
v 0.270962 0.363049 4.330985
v 0.270962 0.366647 4.329062
v 0.270962 0.369800 4.326473
v 0.270962 0.372388 4.323320
v 0.270962 0.374312 4.319722
v 0.270962 0.375496 4.315818
v 0.270962 0.366647 4.294454
v 0.270962 0.369800 4.297043
v 0.270962 0.372389 4.300196
v 0.264892 0.383950 4.282893
v 0.255034 0.396991 4.269852
v 0.264892 0.377764 4.277816
v 0.255034 0.388010 4.262482
v 0.264892 0.370707 4.274043
v 0.255034 0.377764 4.257005
v 0.264892 0.363049 4.271720
v 0.255034 0.366647 4.253633
v 0.264892 0.355085 4.270936
v 0.255034 0.355085 4.252494
v 0.264892 0.347121 4.271720
v 0.255034 0.343523 4.253633
v 0.264892 0.339463 4.274043
v 0.255034 0.332405 4.257005
v 0.264892 0.332405 4.277816
v 0.255034 0.322159 4.262482
v 0.264892 0.326219 4.282893
v 0.255034 0.313179 4.269852
v 0.264892 0.321143 4.289079
v 0.255034 0.305809 4.278833
v 0.264892 0.317370 4.296136
v 0.255034 0.300332 4.289079
v 0.264892 0.315047 4.303794
v 0.255034 0.296959 4.300196
v 0.264892 0.314263 4.311758
v 0.255034 0.295821 4.311758
v 0.264892 0.315047 4.319722
v 0.255034 0.296959 4.323320
v 0.264892 0.317370 4.327380
v 0.255034 0.300332 4.334437
v 0.264892 0.321143 4.334437
v 0.264892 0.326219 4.340623
v 0.264892 0.332405 4.345700
v 0.264892 0.339463 4.349472
v 0.264892 0.347121 4.351795
v 0.264892 0.355085 4.352580
v 0.264892 0.363049 4.351795
v 0.241768 0.313179 4.249041
v 0.241768 0.326219 4.242071
v 0.241768 0.340369 4.237778
v 0.241768 0.355085 4.236329
v 0.241768 0.369800 4.237778
v 0.241768 0.383950 4.242071
v 0.241768 0.396991 4.249041
v 0.225603 0.442076 4.294454
v 0.207161 0.451744 4.292531
v 0.225603 0.443780 4.311758
v 0.207161 0.453638 4.311758
v 0.225603 0.442076 4.329062
v 0.207161 0.451744 4.330985
v 0.225603 0.437028 4.345700
v 0.207161 0.446136 4.349472
v 0.225603 0.428832 4.361034
v 0.207161 0.437029 4.366511
v 0.225603 0.417802 4.374475
v 0.225603 0.404361 4.385505
v 0.207161 0.424772 4.381445
v 0.187150 0.429065 4.385738
v 0.207161 0.409838 4.393702
v 0.187150 0.413210 4.398749
v 0.207161 0.392799 4.402809
v 0.187150 0.395122 4.408417
v 0.207161 0.374312 4.408417
v 0.187150 0.375496 4.414371
v 0.207161 0.355085 4.410311
v 0.187150 0.355085 4.416381
v 0.207161 0.335858 4.408417
v 0.187150 0.334674 4.414371
v 0.207161 0.317370 4.402809
v 0.187150 0.315047 4.408417
v 0.207161 0.300332 4.393702
v 0.207161 0.285398 4.381445
v 0.187150 0.296959 4.398749
v 0.187150 0.281105 4.385738
v 0.187150 0.268094 4.369883
v 0.187150 0.258426 4.351796
v 0.187150 0.252472 4.332169
v 0.187150 0.250462 4.311758
v 0.187150 0.252472 4.291347
v 0.187150 0.258426 4.271721
v 0.187150 0.268094 4.253633
v 0.187150 0.442076 4.369883
v 0.187150 0.451744 4.351795
v 0.187150 0.457698 4.332169
v 0.187150 0.459708 4.311758
v 0.187150 0.457698 4.291347
v 0.187150 0.451744 4.271720
v 0.207161 0.446136 4.274043
v 0.006809 0.127305 4.011623
v 0.072520 0.127305 3.947901
v 0.006809 0.144058 4.011623
v -0.065711 0.127305 4.018766
v -0.142254 0.127305 3.969054
v -0.065711 0.144058 4.018766
v -0.027304 0.127305 4.175220
v 0.000000 0.127305 4.172531
v -0.053558 0.127305 4.183184
v -0.027304 0.144058 4.175220
v -0.053558 0.144058 4.183184
v 0.000000 0.144058 4.172531
v 0.027304 0.144058 4.175220
v 0.053558 0.144058 4.183184
v 0.027304 0.127305 4.175220
v 0.053558 0.127305 4.183184
v 0.077754 0.127305 4.196117
v 0.098963 0.127305 4.213523
v 0.077754 0.144058 4.196117
v 0.098963 0.144058 4.213523
v 0.116368 0.144058 4.234731
v 0.129301 0.144058 4.258927
v 0.116368 0.127305 4.234731
v 0.129301 0.127305 4.258927
v 0.137265 0.127305 4.285182
v 0.139954 0.127305 4.312485
v 0.137265 0.144058 4.285182
v 0.139954 0.144058 4.312485
v 0.137265 0.144058 4.339789
v 0.129301 0.144058 4.366044
v 0.137265 0.127305 4.339789
v 0.129301 0.127305 4.366044
v 0.116368 0.127305 4.390240
v 0.098963 0.127305 4.411448
v 0.116368 0.144058 4.390240
v 0.098963 0.144058 4.411448
v 0.077754 0.144058 4.428854
v 0.053558 0.144058 4.441787
v 0.077754 0.127305 4.428854
v 0.053558 0.127305 4.441787
v 0.027304 0.127305 4.449751
v 0.000000 0.127305 4.452440
v 0.027304 0.144058 4.449751
v 0.000000 0.144058 4.452440
v -0.027304 0.144058 4.449751
v -0.053558 0.144058 4.441787
v -0.027304 0.127305 4.449751
v -0.053558 0.127305 4.441787
v -0.077754 0.127305 4.428854
v -0.098963 0.127305 4.411448
v -0.077754 0.144058 4.428854
v -0.098963 0.144058 4.411448
v -0.116368 0.144058 4.390240
v -0.129301 0.144058 4.366044
v -0.116368 0.127305 4.390240
v -0.129301 0.127305 4.366044
v -0.137265 0.127305 4.339789
v -0.139954 0.127305 4.312485
v -0.137265 0.144058 4.339789
v -0.293945 0.144058 4.377858
v -0.139954 0.144058 4.312485
v -0.137265 0.144058 4.285182
v -0.129301 0.144058 4.258927
v -0.137265 0.127305 4.285182
v -0.129301 0.127305 4.258927
v -0.116368 0.127305 4.234731
v -0.098963 0.127305 4.213523
v -0.116368 0.144058 4.234731
v -0.115607 0.144058 4.233803
v -0.253166 0.144058 4.151039
v -0.098963 0.144058 4.213523
v -0.077754 0.144058 4.196117
v -0.077754 0.127305 4.196117
v -0.343431 0.144058 4.170232
v -0.253166 0.127305 4.151039
v -0.206937 0.144058 4.094708
v -0.206937 0.127305 4.094708
v -0.206520 0.144058 4.003406
v -0.206520 0.127305 4.003406
v -0.142254 0.144058 3.969054
v -0.343431 0.127305 4.170232
v -0.364584 0.127305 4.239965
v -0.301088 0.127305 4.305337
v -0.364584 0.144058 4.239965
v -0.301088 0.144058 4.305337
v -0.293945 0.127305 4.377858
v -0.343431 0.127305 4.454739
v -0.309080 0.127305 4.519006
v -0.343431 0.144058 4.454739
v -0.309080 0.144058 4.519006
v -0.218001 0.144058 4.520538
v -0.161671 0.144058 4.566768
v -0.218001 0.127305 4.520538
v -0.161671 0.127305 4.566768
v -0.142254 0.127305 4.655917
v -0.072520 0.127305 4.677070
v -0.142254 0.144058 4.655917
v -0.072520 0.144058 4.677070
v -0.006796 0.144058 4.613842
v 0.065724 0.144058 4.606699
v -0.006796 0.127305 4.613842
v 0.065724 0.127305 4.606699
v 0.142254 0.127305 4.655917
v 0.206520 0.127305 4.621565
v 0.142254 0.144058 4.655917
v 0.206520 0.144058 4.621565
v 0.208529 0.144058 4.530522
v 0.254758 0.144058 4.474192
v 0.208529 0.127305 4.530522
v 0.254758 0.127305 4.474192
v 0.343431 0.127305 4.454739
v 0.364584 0.127305 4.385005
v 0.343431 0.144058 4.454739
v 0.364584 0.144058 4.385005
v 0.300761 0.144058 4.318050
v 0.293619 0.144058 4.245530
v 0.300761 0.127305 4.318050
v 0.293619 0.127305 4.245530
v 0.343431 0.127305 4.170232
v 0.309080 0.127305 4.105965
v 0.343431 0.144058 4.170232
v 0.309080 0.144058 4.105965
v 0.218917 0.144058 4.104788
v 0.162586 0.144058 4.058559
v 0.218917 0.127305 4.104788
v 0.162586 0.127305 4.058559
v 0.142254 0.127305 3.969054
v 0.142254 0.144058 3.969054
v 0.072520 0.144058 3.947901
v 0.000000 0.484656 4.395304
v 0.003352 0.484656 4.395634
v 0.000000 0.667478 4.395304
v -0.003352 0.484656 4.395634
v -0.006575 0.484656 4.396612
v -0.003352 0.667478 4.395634
v -0.006575 0.667478 4.396612
v -0.009546 0.667478 4.398200
v -0.012149 0.667478 4.400336
v -0.009546 0.484656 4.398200
v -0.012149 0.484656 4.400336
v -0.014286 0.484656 4.402940
v -0.015874 0.484656 4.405910
v -0.014286 0.667478 4.402940
v -0.015874 0.667478 4.405910
v -0.016851 0.667478 4.409133
v -0.017182 0.667478 4.412486
v -0.016851 0.484656 4.409133
v -0.017182 0.484656 4.412486
v -0.016851 0.484656 4.415837
v -0.015874 0.484656 4.419061
v -0.016851 0.667478 4.415837
v -0.015874 0.667478 4.419061
v -0.014286 0.667478 4.422031
v -0.012149 0.667478 4.424634
v -0.014286 0.484656 4.422031
v -0.012149 0.484656 4.424634
v -0.009546 0.484656 4.426772
v -0.006575 0.484656 4.428359
v -0.009546 0.667478 4.426772
v -0.006575 0.667478 4.428359
v -0.003352 0.667478 4.429337
v 0.000000 0.667478 4.429667
v -0.003352 0.484656 4.429337
v 0.000000 0.484656 4.429667
v 0.003352 0.484656 4.429337
v 0.006575 0.484656 4.428359
v 0.003352 0.667478 4.429337
v 0.006575 0.667478 4.428359
v 0.009546 0.667478 4.426772
v 0.012149 0.667478 4.424634
v 0.009546 0.484656 4.426772
v 0.012149 0.484656 4.424634
v 0.014286 0.484656 4.422031
v 0.015874 0.484656 4.419061
v 0.014286 0.667478 4.422031
v 0.015874 0.667478 4.419061
v 0.016851 0.667478 4.415837
v 0.017182 0.667478 4.412486
v 0.016851 0.484656 4.415837
v 0.017182 0.484656 4.412486
v 0.016851 0.484656 4.409133
v 0.015874 0.484656 4.405910
v 0.016851 0.667478 4.409133
v 0.015874 0.667478 4.405910
v 0.014286 0.667478 4.402940
v 0.012149 0.667478 4.400336
v 0.014286 0.484656 4.402940
v 0.012149 0.484656 4.400336
v 0.009546 0.484656 4.398200
v 0.006575 0.484656 4.396612
v 0.009546 0.667478 4.398200
v 0.006575 0.667478 4.396612
v 0.003352 0.667478 4.395634
v 0.000000 0.484656 4.195304
v 0.003352 0.484656 4.195634
v 0.000000 0.667478 4.195304
v -0.003352 0.484656 4.195634
v -0.006575 0.484656 4.196612
v -0.003352 0.667478 4.195634
v -0.006575 0.667478 4.196612
v -0.009546 0.667478 4.198199
v -0.012149 0.667478 4.200336
v -0.009546 0.484656 4.198199
v -0.012149 0.484656 4.200336
v -0.014286 0.484656 4.202940
v -0.015874 0.484656 4.205910
v -0.014286 0.667478 4.202940
v -0.015874 0.667478 4.205910
v -0.016851 0.667478 4.209134
v -0.017182 0.667478 4.212485
v -0.016851 0.484656 4.209134
v -0.017182 0.484656 4.212485
v -0.016851 0.484656 4.215837
v -0.015874 0.484656 4.219060
v -0.016851 0.667478 4.215837
v -0.015874 0.667478 4.219060
v -0.014286 0.667478 4.222031
v -0.012149 0.667478 4.224635
v -0.014286 0.484656 4.222031
v -0.012149 0.484656 4.224635
v -0.009546 0.484656 4.226771
v -0.006575 0.484656 4.228359
v -0.009546 0.667478 4.226771
v -0.006575 0.667478 4.228359
v -0.003352 0.667478 4.229337
v 0.000000 0.667478 4.229667
v -0.003352 0.484656 4.229337
v 0.000000 0.484656 4.229667
v 0.003352 0.484656 4.229337
v 0.006575 0.484656 4.228359
v 0.003352 0.667478 4.229337
v 0.006575 0.667478 4.228359
v 0.009546 0.667478 4.226771
v 0.012149 0.667478 4.224635
v 0.009546 0.484656 4.226771
v 0.012149 0.484656 4.224635
v 0.014286 0.484656 4.222031
v 0.015874 0.484656 4.219060
v 0.014286 0.667478 4.222031
v 0.015874 0.667478 4.219060
v 0.016851 0.667478 4.215837
v 0.017182 0.667478 4.212485
v 0.016851 0.484656 4.215837
v 0.017182 0.484656 4.212485
v 0.016851 0.484656 4.209134
v 0.015874 0.484656 4.205910
v 0.016851 0.667478 4.209134
v 0.015874 0.667478 4.205910
v 0.014286 0.667478 4.202940
v 0.012149 0.667478 4.200336
v 0.014286 0.484656 4.202940
v 0.012149 0.484656 4.200336
v 0.009546 0.484656 4.198199
v 0.006575 0.484656 4.196612
v 0.009546 0.667478 4.198199
v 0.006575 0.667478 4.196612
v 0.003352 0.667478 4.195634
vn -0.0000 -1.0000 -0.0000
vn -0.6962 -0.0000 -0.7179
vn -0.0980 -0.0000 -0.9952
vn 0.5447 -0.0000 -0.8386
vn 0.0980 -0.0000 0.9952
vn 0.2903 -0.0000 0.9569
vn -0.0000 1.0000 -0.0000
vn -0.0980 -0.0000 0.9952
vn -0.2903 -0.0000 0.9569
vn -0.4714 -0.0000 0.8819
vn -0.6344 -0.0000 0.7730
vn -0.7730 -0.0000 0.6344
vn -0.8819 -0.0000 0.4714
vn -0.9569 -0.0000 0.2903
vn -0.9952 -0.0000 0.0980
vn -0.9952 -0.0000 -0.0980
vn -0.9569 -0.0000 -0.2903
vn -0.8819 -0.0000 -0.4714
vn -0.7730 -0.0000 -0.6344
vn -0.6344 -0.0000 -0.7730
vn -0.4714 -0.0000 -0.8819
vn -0.2903 -0.0000 -0.9569
vn 0.0980 -0.0000 -0.9952
vn 0.2903 -0.0000 -0.9569
vn 0.4714 -0.0000 -0.8819
vn 0.6344 -0.0000 -0.7730
vn 0.7730 -0.0000 -0.6344
vn 0.8819 -0.0000 -0.4714
vn 0.9569 -0.0000 -0.2903
vn 0.9952 -0.0000 -0.0980
vn 0.9952 -0.0000 0.0980
vn 0.9569 -0.0000 0.2903
vn 0.8819 -0.0000 0.4714
vn 0.7730 -0.0000 0.6344
vn 0.6344 -0.0000 0.7730
vn 0.4714 -0.0000 0.8819
vn -0.2080 -0.0000 -0.9781
vn -1.0000 -0.0000 -0.0046
vn -0.7173 -0.0000 0.6967
vn -0.8409 -0.0000 -0.5412
vn -0.0168 -0.0000 0.9999
vn -0.9771 -0.0000 0.2128
vn 0.6933 -0.0000 0.7207
vn -0.5409 -0.0000 0.8411
vn 0.9998 -0.0000 0.0221
vn 0.2143 -0.0000 0.9768
vn 0.7238 -0.0000 -0.6900
vn 0.8340 -0.0000 0.5517
vn 0.0131 -0.0000 -0.9999
vn 0.9752 -0.0000 -0.2215
vn 0.4256 -0.8425 0.3302
vn -0.2283 -0.9134 -0.3370
vn -0.4231 -0.8895 -0.1725
vn 0.4662 -0.8847 -0.0000
vn -0.5148 -0.8573 -0.0000
vn 0.4999 -0.8658 0.0234
vn -0.0000 -0.9988 0.0481
vn 0.0583 -0.9983 -0.0000
vn 0.0301 -0.9993 0.0233
vn -0.5462 -0.8377 -0.0000
vn 0.0478 -0.9210 0.3866
vn -0.5280 -0.7440 0.4096
vn 0.5148 -0.8573 -0.0000
vn 0.4231 -0.8895 -0.1725
vn 0.2283 -0.9134 -0.3370
vn 0.5608 -0.0000 -0.8280
vn 0.9260 -0.0000 -0.3775
vn 1.0000 -0.0000 -0.0000
vn 0.9260 -0.0000 0.3775
vn 0.5608 -0.0000 0.8280
vn -0.0000 -0.0000 1.0000
vn -0.5608 -0.0000 0.8280
vn -0.9260 -0.0000 0.3775
vn -1.0000 -0.0000 -0.0000
vn -0.9260 -0.0000 -0.3775
vn -0.7534 0.6576 -0.0000
vn -0.6481 0.7143 -0.2642
vn 0.5228 0.8524 -0.0000
vn 0.4692 0.8046 0.3640
vn -0.0000 0.9030 0.4297
vn -0.3632 0.7619 -0.5363
vn -0.0000 0.7474 -0.6643
vn -0.4692 0.8046 0.3640
vn 0.3632 0.7619 -0.5363
vn -0.0000 -0.0000 -1.0000
vn 0.6481 0.7143 -0.2642
vn 0.7534 0.6576 -0.0000
vn 0.6481 0.7143 0.2642
vn 0.3632 0.7619 0.5363
vn -0.0000 0.7474 0.6643
vn -0.3632 0.7619 0.5363
vn -0.6481 0.7143 0.2642
vn 0.4692 0.8046 -0.3640
vn -0.0000 0.9030 -0.4297
vn -0.4692 0.8046 -0.3640
vn -0.5228 0.8524 -0.0000
vn -0.0000 -0.9064 -0.4223
vn -0.0000 -0.9398 0.3417
vn -0.5608 -0.0000 -0.8280
vn -0.4231 -0.8895 0.1725
vn -0.2283 -0.9134 0.3370
vn 0.5280 -0.7440 -0.4096
vn -0.0000 -0.8923 -0.4514
vn -0.0000 -0.9064 0.4223
vn 0.2283 -0.9134 0.3370
vn -0.5280 -0.7440 -0.4096
vn 0.4231 -0.8895 0.1725
vn 0.0745 -0.6497 0.7565
vn -0.0745 -0.6497 0.7565
vn -0.2207 -0.6497 0.7275
vn -0.3584 -0.6497 0.6704
vn -0.4823 -0.6497 0.5876
vn -0.5876 -0.6497 0.4823
vn -0.6704 -0.6497 0.3584
vn -0.7275 -0.6497 0.2207
vn -0.7565 -0.6497 0.0745
vn -0.7565 -0.6497 -0.0745
vn -0.7275 -0.6497 -0.2207
vn -0.6704 -0.6497 -0.3584
vn -0.5876 -0.6497 -0.4823
vn -0.4823 -0.6497 -0.5876
vn -0.3583 -0.6497 -0.6704
vn -0.2207 -0.6497 -0.7275
vn -0.0745 -0.6497 -0.7565
vn 0.0745 -0.6497 -0.7565
vn 0.2207 -0.6497 -0.7275
vn 0.3583 -0.6497 -0.6704
vn 0.4823 -0.6497 -0.5876
vn 0.5876 -0.6497 -0.4823
vn 0.6704 -0.6497 -0.3584
vn 0.7275 -0.6497 -0.2207
vn 0.7565 -0.6497 -0.0745
vn 0.7565 -0.6497 0.0745
vn 0.7275 -0.6497 0.2207
vn 0.6704 -0.6497 0.3584
vn 0.5876 -0.6497 0.4823
vn 0.4823 -0.6497 0.5876
vn 0.3584 -0.6497 0.6704
vn 0.2207 -0.6497 0.7275
vn 0.7715 0.6332 -0.0624
vn 0.8810 0.4709 -0.0464
vn 0.8810 0.4709 0.0464
vn 0.7715 0.6332 0.0624
vn 0.8810 0.4528 0.1373
vn 0.7715 0.6088 0.1847
vn 0.8810 0.4173 0.2231
vn 0.7715 0.5611 0.2999
vn 0.8810 0.3658 0.3002
vn 0.7715 0.4918 0.4036
vn 0.8810 0.3002 0.3658
vn 0.7715 0.4036 0.4918
vn 0.8810 0.2231 0.4173
vn 0.7715 0.2999 0.5611
vn 0.8810 0.1373 0.4528
vn 0.7715 0.1847 0.6088
vn 0.6326 0.3651 0.6831
vn 0.6326 0.2248 0.7411
vn 0.7715 0.0624 0.6331
vn 0.6326 0.0759 0.7708
vn 0.7715 -0.0624 0.6331
vn 0.6326 -0.0759 0.7708
vn 0.7715 -0.1847 0.6088
vn 0.6326 -0.2248 0.7412
vn 0.7715 -0.2999 0.5611
vn 0.6326 -0.3651 0.6831
vn 0.7715 -0.4036 0.4918
vn 0.6326 -0.4914 0.5987
vn 0.7715 -0.4918 0.4036
vn 0.6326 -0.5987 0.4913
vn 0.6326 -0.6830 0.3651
vn 0.7715 -0.5611 0.2999
vn 0.4696 -0.6825 0.5601
vn 0.4696 -0.7786 0.4162
vn 0.6326 -0.7412 0.2248
vn 0.4696 -0.8448 0.2563
vn 0.6326 -0.7708 0.0759
vn 0.4696 -0.8786 0.0865
vn 0.6325 -0.7708 -0.0759
vn 0.4696 -0.8786 -0.0865
vn 0.6326 -0.7411 -0.2248
vn 0.4696 -0.8449 -0.2563
vn 0.6326 -0.6831 -0.3651
vn 0.4697 -0.7786 -0.4162
vn 0.6326 -0.5987 -0.4913
vn 0.4696 -0.6825 -0.5601
vn 0.4696 -0.5601 -0.6825
vn 0.6326 -0.4914 -0.5987
vn 0.2890 -0.7400 -0.6073
vn 0.2890 -0.6073 -0.7400
vn 0.4697 -0.4162 -0.7786
vn 0.2890 -0.4513 -0.8443
vn 0.4696 -0.2563 -0.8448
vn 0.2890 -0.2779 -0.9161
vn 0.4696 -0.0865 -0.8786
vn 0.2890 -0.0938 -0.9527
vn 0.4696 0.0865 -0.8786
vn 0.2890 0.0938 -0.9527
vn 0.4696 0.2563 -0.8448
vn 0.2890 0.2779 -0.9161
vn 0.4696 0.4162 -0.7786
vn 0.2890 0.4513 -0.8443
vn 0.2890 0.6073 -0.7400
vn 0.2890 0.7400 -0.6073
vn 0.4696 0.6825 -0.5601
vn 0.4696 0.5601 -0.6825
vn 0.6326 0.4914 -0.5987
vn 0.6326 0.5987 -0.4913
vn 0.4697 0.7786 -0.4162
vn 0.6326 0.6831 -0.3651
vn 0.7715 0.4918 -0.4036
vn 0.7715 0.5611 -0.2999
vn 0.6326 0.7411 -0.2248
vn 0.7715 0.6088 -0.1847
vn 0.8810 0.4173 -0.2231
vn 0.8810 0.4528 -0.1373
vn 0.9565 0.2571 -0.1374
vn 0.9566 0.2790 -0.0846
vn 0.9566 0.2902 -0.0286
vn 0.9951 0.0980 -0.0097
vn 0.9951 0.0943 -0.0286
vn 0.9951 0.0980 0.0097
vn 0.9951 0.0286 -0.0943
vn 0.9951 0.0464 -0.0869
vn 0.9951 0.0097 -0.0980
vn 0.9951 -0.0097 -0.0980
vn 0.9951 -0.0286 -0.0943
vn 0.9951 -0.0464 -0.0869
vn 0.9951 -0.0625 -0.0761
vn 0.9951 -0.0761 -0.0625
vn 0.9951 -0.0869 -0.0464
vn 0.9951 -0.0943 -0.0286
vn 0.9951 -0.0980 -0.0097
vn 0.9951 -0.0980 0.0097
vn 0.9951 -0.0942 0.0286
vn 0.9951 -0.0869 0.0464
vn 0.9951 -0.0761 0.0625
vn 0.9951 -0.0625 0.0761
vn 0.9951 -0.0464 0.0869
vn 0.9951 -0.0286 0.0943
vn 0.9951 -0.0097 0.0980
vn 0.9951 0.0097 0.0980
vn 0.9951 0.0286 0.0943
vn 0.9951 0.0464 0.0869
vn 0.9951 0.0625 0.0761
vn 0.9951 0.0761 0.0625
vn 0.9951 0.0869 0.0465
vn 0.9951 0.0942 0.0286
vn 0.9951 0.0625 -0.0761
vn 0.9951 0.0761 -0.0625
vn 0.9951 0.0869 -0.0464
vn 0.9566 0.2253 -0.1850
vn 0.9566 0.1850 -0.2254
vn 0.8810 0.3002 -0.3658
vn 0.8810 0.3658 -0.3002
vn 0.9566 0.1375 -0.2571
vn 0.8810 0.2231 -0.4173
vn 0.9566 0.0846 -0.2790
vn 0.8810 0.1374 -0.4528
vn 0.9566 0.0286 -0.2902
vn 0.8810 0.0464 -0.4709
vn 0.8810 -0.0464 -0.4709
vn 0.9566 -0.0286 -0.2902
vn 0.9566 -0.0846 -0.2790
vn 0.8810 -0.1374 -0.4528
vn 0.9566 -0.1374 -0.2571
vn 0.8810 -0.2231 -0.4173
vn 0.9566 -0.1850 -0.2254
vn 0.8810 -0.3002 -0.3658
vn 0.9566 -0.2254 -0.1850
vn 0.8810 -0.3658 -0.3002
vn 0.9565 -0.2571 -0.1375
vn 0.8810 -0.4173 -0.2231
vn 0.9566 -0.2790 -0.0846
vn 0.8809 -0.4528 -0.1374
vn 0.9566 -0.2902 -0.0286
vn 0.8810 -0.4709 -0.0464
vn 0.8810 -0.4709 0.0464
vn 0.9566 -0.2901 0.0286
vn 0.9566 -0.2790 0.0846
vn 0.8810 -0.4528 0.1374
vn 0.9566 -0.2571 0.1375
vn 0.8810 -0.4173 0.2231
vn 0.9566 -0.2254 0.1850
vn 0.8810 -0.3658 0.3002
vn 0.9566 -0.1850 0.2254
vn 0.8810 -0.3002 0.3658
vn 0.9566 -0.1374 0.2571
vn 0.8810 -0.2231 0.4173
vn 0.9566 -0.0846 0.2790
vn 0.8810 -0.1373 0.4528
vn 0.9566 -0.0286 0.2902
vn 0.8810 -0.0464 0.4709
vn 0.8810 0.0464 0.4709
vn 0.9566 0.0286 0.2902
vn 0.9566 0.0846 0.2790
vn 0.7715 -0.6088 0.1847
vn 0.7715 -0.6332 0.0623
vn 0.7715 -0.6332 -0.0623
vn 0.7715 -0.6088 -0.1847
vn 0.7715 -0.5611 -0.2999
vn 0.7715 -0.4918 -0.4036
vn 0.7715 -0.4036 -0.4918
vn 0.7715 -0.2999 -0.5611
vn 0.6326 -0.3651 -0.6831
vn 0.6326 -0.2249 -0.7412
vn 0.7715 -0.1847 -0.6088
vn 0.7715 -0.0624 -0.6331
vn 0.6326 -0.0759 -0.7708
vn 0.7715 0.0624 -0.6331
vn 0.6326 0.0759 -0.7708
vn 0.7715 0.1847 -0.6088
vn 0.6326 0.2248 -0.7412
vn 0.7715 0.2999 -0.5611
vn 0.6326 0.3651 -0.6831
vn 0.7715 0.4036 -0.4918
vn 0.9566 0.2901 0.0286
vn 0.9565 0.2790 0.0846
vn 0.9566 0.2571 0.1375
vn 0.9566 0.2254 0.1850
vn 0.9566 0.1850 0.2254
vn 0.9566 0.1374 0.2571
vn 0.6325 0.7708 -0.0759
vn 0.4696 0.8449 -0.2563
vn 0.4696 0.8786 -0.0865
vn 0.6326 0.7708 0.0759
vn 0.4696 0.8786 0.0865
vn 0.6325 0.7412 0.2249
vn 0.4696 0.8448 0.2563
vn 0.6326 0.6831 0.3651
vn 0.4697 0.7786 0.4162
vn 0.6326 0.5987 0.4913
vn 0.4696 0.6825 0.5601
vn 0.4696 0.5601 0.6825
vn 0.6326 0.4914 0.5987
vn 0.2890 0.7400 0.6073
vn 0.2890 0.6073 0.7400
vn 0.4696 0.4162 0.7786
vn 0.2890 0.4512 0.8443
vn 0.4696 0.2563 0.8448
vn 0.2890 0.2779 0.9161
vn 0.4696 0.0865 0.8786
vn 0.2890 0.0939 0.9527
vn 0.4696 -0.0865 0.8786
vn 0.2890 -0.0939 0.9527
vn 0.4696 -0.2563 0.8448
vn 0.2890 -0.2779 0.9161
vn 0.4697 -0.4162 0.7786
vn 0.2890 -0.4513 0.8443
vn 0.2890 -0.6073 0.7400
vn 0.4696 -0.5601 0.6825
vn 0.2890 -0.7400 0.6073
vn 0.2890 -0.8443 0.4513
vn 0.2890 -0.9161 0.2779
vn 0.2890 -0.9527 0.0938
vn 0.2890 -0.9527 -0.0938
vn 0.2890 -0.9161 -0.2779
vn 0.2890 -0.8443 -0.4513
vn 0.2890 0.8443 0.4513
vn 0.2890 0.9161 0.2779
vn 0.2890 0.9527 0.0938
vn 0.2890 0.9527 -0.0938
vn 0.2890 0.9161 -0.2779
vn 0.2890 0.8443 -0.4513
vn 0.0981 -0.0000 -0.9952
vn -0.0981 -0.0000 -0.9952
vn -0.2902 -0.0000 -0.9570
vn -0.6345 -0.0000 0.7729
vn -0.4713 -0.0000 0.8820
vn -0.2904 -0.0000 0.9569
vn 0.2904 -0.0000 0.9569
vn 0.4713 -0.0000 0.8820
vn 0.6345 -0.0000 0.7729
vn 0.2902 -0.0000 -0.9570
vn -0.2904 -0.0000 -0.9569
vn -0.4713 -0.0000 -0.8820
vn -0.7731 -0.0000 -0.6343
vn -0.2902 -0.0000 0.9570
vn -0.0981 -0.0000 0.9952
vn 0.0981 -0.0000 0.9952
vn 0.2902 -0.0000 0.9570
vn 0.7731 -0.0000 -0.6343
vn 0.4713 -0.0000 -0.8820
vn 0.2904 -0.0000 -0.9569
vt 0.729944 0.350293
vt 0.703178 0.485388
vt 0.750000 0.490000
vt 0.796822 0.485388
vt 0.841844 0.471731
vt 0.883337 0.449553
vt 0.919706 0.419706
vt 0.949553 0.383337
vt 0.971731 0.341844
vt 0.985388 0.296822
vt 0.990000 0.250000
vt 0.852127 0.249941
vt 0.850178 0.269786
vt 0.844243 0.288932
vt 0.834736 0.306690
vt 0.822091 0.322264
vt 0.806658 0.334934
vt 0.788942 0.344290
vt 0.769707 0.350145
vt 0.749795 0.352237
vt 1.000000 0.500000
vt 1.000000 1.000000
vt 0.968750 1.000000
vt 0.968750 0.500000
vt 0.031250 0.500000
vt 0.031250 1.000000
vt 0.000000 1.000000
vt 0.000000 0.500000
vt 0.985388 0.203178
vt 0.971731 0.158156
vt 0.949553 0.116663
vt 0.919706 0.080294
vt 0.883337 0.050447
vt 0.841844 0.028269
vt 0.796822 0.014612
vt 0.750000 0.010000
vt 0.703178 0.014612
vt 0.658156 0.028269
vt 0.616663 0.050447
vt 0.580294 0.080294
vt 0.550447 0.116663
vt 0.528269 0.158156
vt 0.514612 0.203178
vt 0.510000 0.250000
vt 0.514612 0.296822
vt 0.528269 0.341844
vt 0.550447 0.383337
vt 0.580294 0.419706
vt 0.616663 0.449553
vt 0.658156 0.471731
vt 0.710800 0.344377
vt 0.693048 0.334900
vt 0.677485 0.322282
vt 0.664842 0.306859
vt 0.655527 0.289132
vt 0.649720 0.269879
vt 0.647671 0.249953
vt 0.649648 0.230105
vt 0.655587 0.210978
vt 0.665078 0.193251
vt 0.677700 0.177706
vt 0.693115 0.165062
vt 0.710824 0.155729
vt 0.730056 0.149898
vt 0.749961 0.147824
vt 0.769794 0.149776
vt 0.788910 0.155691
vt 0.806630 0.165159
vt 0.822175 0.177758
vt 0.834829 0.193150
vt 0.844181 0.210833
vt 0.850035 0.230044
vt 0.062500 0.500000
vt 0.062500 1.000000
vt 0.000000 0.732435
vt 0.000000 0.767565
vt 0.031250 0.767565
vt 0.031250 0.732435
vt 0.062500 0.767565
vt 0.062500 0.732435
vt 0.471731 0.341844
vt 0.449553 0.383337
vt 0.419706 0.419706
vt 0.383337 0.449553
vt 0.341844 0.471731
vt 0.296822 0.485388
vt 0.250000 0.490000
vt 0.203178 0.485388
vt 0.158156 0.471731
vt 0.116663 0.449553
vt 0.080294 0.419706
vt 0.050447 0.383337
vt 0.165393 0.307535
vt 0.177486 0.322282
vt 0.193048 0.334900
vt 0.210800 0.344377
vt 0.229944 0.350293
vt 0.249795 0.352237
vt 0.269707 0.350145
vt 0.288942 0.344290
vt 0.306658 0.334934
vt 0.322092 0.322264
vt 0.334736 0.306690
vt 0.344243 0.288932
vt 0.350178 0.269786
vt 0.352127 0.249941
vt 0.350035 0.230044
vt 0.344181 0.210833
vt 0.334829 0.193150
vt 0.322175 0.177758
vt 0.306631 0.165159
vt 0.288910 0.155691
vt 0.269794 0.149776
vt 0.249961 0.147824
vt 0.230055 0.149898
vt 0.210824 0.155729
vt 0.193116 0.165062
vt 0.177700 0.177706
vt 0.165078 0.193251
vt 0.155587 0.210978
vt 0.149648 0.230105
vt 0.014612 0.203178
vt 0.028269 0.158156
vt 0.050447 0.116663
vt 0.080294 0.080294
vt 0.116663 0.050447
vt 0.158156 0.028269
vt 0.203178 0.014612
vt 0.250000 0.010000
vt 0.296822 0.014612
vt 0.341844 0.028269
vt 0.383337 0.050447
vt 0.419706 0.080294
vt 0.449553 0.116663
vt 0.471731 0.158156
vt 0.485388 0.203178
vt 0.490000 0.250000
vt 0.485388 0.296822
vt 0.968750 0.732435
vt 0.968750 0.767565
vt 1.000000 0.767565
vt 1.000000 0.732435
vt 0.937500 0.732435
vt 0.937500 0.767565
vt 0.906250 0.732435
vt 0.906250 0.767565
vt 0.875000 0.732435
vt 0.875000 0.767565
vt 0.843750 0.767565
vt 0.843750 0.732435
vt 0.812500 0.767565
vt 0.812500 0.732435
vt 0.781250 0.767565
vt 0.781250 0.732435
vt 0.750000 0.767565
vt 0.750000 0.732435
vt 0.718750 0.767565
vt 0.718750 0.732435
vt 0.687500 0.767565
vt 0.687500 0.732435
vt 0.656250 0.767565
vt 0.656250 0.732435
vt 0.625000 0.767565
vt 0.625000 0.732435
vt 0.593750 0.767565
vt 0.593750 0.732435
vt 0.562500 0.767565
vt 0.562500 0.732435
vt 0.531250 0.767565
vt 0.531250 0.732435
vt 0.500000 0.767565
vt 0.500000 0.732435
vt 0.468750 0.767565
vt 0.468750 0.732435
vt 0.437500 0.767565
vt 0.437500 0.732435
vt 0.406250 0.767565
vt 0.406250 0.732435
vt 0.375000 0.767565
vt 0.375000 0.732435
vt 0.343750 0.732435
vt 0.343750 0.767565
vt 0.312500 0.732435
vt 0.312500 0.767565
vt 0.281250 0.732435
vt 0.281250 0.767565
vt 0.250000 0.732435
vt 0.250000 0.767565
vt 0.028269 0.341844
vt 0.014612 0.296822
vt 0.010000 0.250000
vt 0.147671 0.249953
vt 0.149720 0.269879
vt 0.155527 0.289132
vt 0.164842 0.306859
vt 0.218750 0.732435
vt 0.218750 0.767565
vt 0.187500 0.732435
vt 0.187500 0.767565
vt 0.156250 0.732435
vt 0.156250 0.767565
vt 0.125000 0.732435
vt 0.125000 0.767565
vt 0.154883 0.767565
vt 0.093750 0.732435
vt 0.093750 0.767565
vt 0.187500 0.500000
vt 0.187500 1.000000
vt 0.156250 1.000000
vt 0.156250 0.500000
vt 0.125000 1.000000
vt 0.125000 0.500000
vt 0.093750 1.000000
vt 0.093750 0.500000
vt 0.218750 0.500000
vt 0.218750 1.000000
vt 0.250000 0.500000
vt 0.250000 1.000000
vt 0.281250 0.500000
vt 0.281250 1.000000
vt 0.312500 0.500000
vt 0.312500 1.000000
vt 0.343750 0.500000
vt 0.343750 1.000000
vt 0.375000 0.500000
vt 0.375000 1.000000
vt 0.406250 0.500000
vt 0.406250 1.000000
vt 0.437500 0.500000
vt 0.437500 1.000000
vt 0.468750 0.500000
vt 0.468750 1.000000
vt 0.500000 0.500000
vt 0.500000 1.000000
vt 0.531250 0.500000
vt 0.531250 1.000000
vt 0.562500 0.500000
vt 0.562500 1.000000
vt 0.593750 0.500000
vt 0.593750 1.000000
vt 0.625000 0.500000
vt 0.625000 1.000000
vt 0.656250 0.500000
vt 0.656250 1.000000
vt 0.687500 0.500000
vt 0.687500 1.000000
vt 0.718750 0.500000
vt 0.718750 1.000000
vt 0.750000 0.500000
vt 0.750000 1.000000
vt 0.781250 0.500000
vt 0.781250 1.000000
vt 0.812500 0.500000
vt 0.812500 1.000000
vt 0.843750 0.500000
vt 0.843750 1.000000
vt 0.875000 0.500000
vt 0.875000 1.000000
vt 0.906250 0.500000
vt 0.906250 1.000000
vt 0.937500 0.500000
vt 0.937500 1.000000
vt 0.125000 0.687500
vt 0.187500 0.687500
vt 0.187500 0.750000
vt 0.125000 0.750000
vt 0.375000 0.000000
vt 0.436538 0.000000
vt 0.436538 0.062500
vt 0.375000 0.062500
vt 0.375000 0.937500
vt 0.436538 0.937500
vt 0.436538 1.000000
vt 0.250000 0.687500
vt 0.250000 0.750000
vt 0.375000 0.875000
vt 0.436538 0.875000
vt 0.375000 0.812500
vt 0.436538 0.812500
vt 0.312500 0.687500
vt 0.312500 0.750000
vt 0.187500 0.625000
vt 0.250000 0.625000
vt 0.312500 0.625000
vt 0.187500 0.562500
vt 0.250000 0.562500
vt 0.312500 0.562500
vt 0.125000 0.562500
vt 0.125000 0.625000
vt 0.375000 0.312500
vt 0.436538 0.312500
vt 0.436538 0.375000
vt 0.375000 0.375000
vt 0.375000 0.250000
vt 0.436538 0.250000
vt 0.375000 0.187500
vt 0.436538 0.187500
vt 0.467788 0.187500
vt 0.467788 0.250000
vt 0.467788 0.312500
vt 0.499038 0.187500
vt 0.499038 0.250000
vt 0.499038 0.312500
vt 0.467788 0.375000
vt 0.499038 0.375000
vt 0.467788 0.437500
vt 0.436538 0.437500
vt 0.499038 0.437500
vt 0.467788 0.500000
vt 0.436538 0.500000
vt 0.499038 0.500000
vt 0.467788 0.562500
vt 0.436538 0.562500
vt 0.499038 0.562500
vt 0.467788 0.625000
vt 0.436538 0.625000
vt 0.499038 0.625000
vt 0.467788 0.687500
vt 0.436538 0.687500
vt 0.499038 0.687500
vt 0.467788 0.750000
vt 0.436538 0.750000
vt 0.499038 0.750000
vt 0.467788 0.812500
vt 0.499038 0.812500
vt 0.467788 0.875000
vt 0.499038 0.875000
vt 0.467788 0.937500
vt 0.499038 0.937500
vt 0.467788 1.000000
vt 0.499038 1.000000
vt 0.561538 0.937500
vt 0.561538 1.000000
vt 0.561538 0.875000
vt 0.625000 0.875000
vt 0.625000 0.937500
vt 0.750000 0.687500
vt 0.812500 0.687500
vt 0.812500 0.750000
vt 0.750000 0.750000
vt 0.875000 0.687500
vt 0.875000 0.750000
vt 0.750000 0.625000
vt 0.812500 0.625000
vt 0.875000 0.625000
vt 0.561538 0.000000
vt 0.625000 0.000000
vt 0.625000 0.062500
vt 0.561538 0.062500
vt 0.625000 0.125000
vt 0.561538 0.125000
vt 0.625000 0.187500
vt 0.561538 0.187500
vt 0.812500 0.562500
vt 0.875000 0.562500
vt 0.625000 0.250000
vt 0.561538 0.250000
vt 0.499038 0.125000
vt 0.625000 0.312500
vt 0.561538 0.312500
vt 0.561538 0.375000
vt 0.625000 0.375000
vt 0.561538 0.437500
vt 0.625000 0.437500
vt 0.561538 0.500000
vt 0.625000 0.562500
vt 0.561538 0.562500
vt 0.625000 0.625000
vt 0.561538 0.625000
vt 0.561538 0.687500
vt 0.625000 0.687500
vt 0.561538 0.750000
vt 0.625000 0.750000
vt 0.625000 0.812500
vt 0.561538 0.812500
vt 0.687500 0.687500
vt 0.687500 0.750000
vt 0.687500 0.625000
vt 0.687500 0.562500
vt 0.750000 0.562500
vt 0.467788 0.125000
vt 0.499038 0.062500
vt 0.467788 0.062500
vt 0.436538 0.125000
vt 0.375000 0.125000
vt 0.467788 0.000000
vt 0.499038 0.000000
vt 0.375000 0.750000
vt 0.375000 0.687500
vt 0.375000 0.625000
vt 0.375000 0.562500
vt 0.375000 0.437500
vt 0.000000 0.000000
vt 0.750000 0.812500
vt 0.718750 0.812500
vt 0.718750 0.750000
vt 0.750000 0.875000
vt 0.718750 0.875000
vt 0.781250 0.812500
vt 0.781250 0.875000
vt 0.781250 0.750000
vt 0.812500 0.812500
vt 0.812500 0.875000
vt 0.843750 0.812500
vt 0.843750 0.875000
vt 0.843750 0.750000
vt 0.875000 0.812500
vt 0.875000 0.875000
vt 0.906250 0.812500
vt 0.906250 0.875000
vt 0.906250 0.750000
vt 0.937500 0.812500
vt 0.937500 0.875000
vt 0.937500 0.750000
vt 0.968750 0.812500
vt 0.968750 0.875000
vt 0.968750 0.750000
vt 0.937500 0.687500
vt 0.906250 0.687500
vt 0.968750 0.687500
vt 1.000000 0.750000
vt 1.000000 0.812500
vt 1.000000 0.687500
vt 0.031250 0.750000
vt 0.031250 0.812500
vt 0.000000 0.812500
vt 0.000000 0.750000
vt 0.031250 0.687500
vt 0.000000 0.687500
vt 0.062500 0.750000
vt 0.062500 0.812500
vt 0.062500 0.687500
vt 0.093750 0.750000
vt 0.093750 0.812500
vt 0.093750 0.687500
vt 0.125000 0.812500
vt 0.156250 0.750000
vt 0.156250 0.812500
vt 0.156250 0.687500
vt 0.187500 0.812500
vt 0.156250 0.625000
vt 0.218750 0.687500
vt 0.218750 0.750000
vt 0.218750 0.625000
vt 0.281250 0.687500
vt 0.281250 0.750000
vt 0.281250 0.625000
vt 0.343750 0.687500
vt 0.343750 0.750000
vt 0.343750 0.625000
vt 0.406250 0.625000
vt 0.406250 0.687500
vt 0.406250 0.750000
vt 0.343750 0.562500
vt 0.406250 0.562500
vt 0.437500 0.625000
vt 0.437500 0.687500
vt 0.437500 0.562500
vt 0.468750 0.625000
vt 0.468750 0.687500
vt 0.468750 0.562500
vt 0.500000 0.625000
vt 0.500000 0.687500
vt 0.500000 0.562500
vt 0.531250 0.625000
vt 0.531250 0.687500
vt 0.531250 0.562500
vt 0.562500 0.625000
vt 0.562500 0.687500
vt 0.562500 0.562500
vt 0.593750 0.625000
vt 0.593750 0.687500
vt 0.593750 0.562500
vt 0.718750 0.562500
vt 0.656250 0.562500
vt 0.281250 0.562500
vt 0.218750 0.562500
vt 0.156250 0.562500
vt 0.093750 0.562500
vt 0.062500 0.562500
vt 0.031250 0.562500
vt 1.000000 0.562500
vt 0.968750 0.562500
vt 0.937500 0.562500
vt 0.906250 0.562500
vt 0.843750 0.562500
vt 0.781250 0.562500
vt 0.656250 0.625000
vt 0.656250 0.687500
vt 0.593750 0.750000
vt 0.656250 0.750000
vt 0.656250 0.812500
vt 0.687500 0.812500
vt 0.718750 0.687500
vt 0.687500 0.875000
vt 0.656250 0.875000
vt 0.687500 0.937500
vt 0.656250 0.937500
vt 0.718750 0.937500
vt 0.750000 0.937500
vt 0.734375 1.000000
vt 0.703125 1.000000
vt 0.781250 0.937500
vt 0.765625 1.000000
vt 0.562500 0.937500
vt 0.546875 1.000000
vt 0.531250 0.937500
vt 0.593750 0.937500
vt 0.578125 1.000000
vt 0.515625 1.000000
vt 0.500000 0.937500
vt 0.484375 1.000000
vt 0.468750 0.937500
vt 0.453125 1.000000
vt 0.437500 0.937500
vt 0.421875 1.000000
vt 0.406250 0.937500
vt 0.390625 1.000000
vt 0.359375 1.000000
vt 0.343750 0.937500
vt 0.328125 1.000000
vt 0.312500 0.937500
vt 0.296875 1.000000
vt 0.281250 0.937500
vt 0.265625 1.000000
vt 0.250000 0.937500
vt 0.234375 1.000000
vt 0.218750 0.937500
vt 0.203125 1.000000
vt 0.187500 0.937500
vt 0.171875 1.000000
vt 0.156250 0.937500
vt 0.140625 1.000000
vt 0.125000 0.937500
vt 0.109375 1.000000
vt 0.093750 0.937500
vt 0.078125 1.000000
vt 0.062500 0.937500
vt 0.046875 1.000000
vt 0.031250 0.937500
vt 0.015625 1.000000
vt 0.000000 0.937500
vt 1.000000 0.937500
vt 0.984375 1.000000
vt 0.968750 0.937500
vt 0.953125 1.000000
vt 0.937500 0.937500
vt 0.921875 1.000000
vt 0.906250 0.937500
vt 0.890625 1.000000
vt 0.875000 0.937500
vt 0.859375 1.000000
vt 0.843750 0.937500
vt 0.828125 1.000000
vt 0.812500 0.937500
vt 0.796875 1.000000
vt 0.609375 1.000000
vt 0.640625 1.000000
vt 0.671875 1.000000
vt 0.593750 0.875000
vt 0.593750 0.812500
vt 0.562500 0.875000
vt 0.562500 0.812500
vt 0.531250 0.875000
vt 0.531250 0.812500
vt 0.500000 0.875000
vt 0.500000 0.812500
vt 0.468750 0.875000
vt 0.468750 0.812500
vt 0.437500 0.875000
vt 0.437500 0.812500
vt 0.406250 0.875000
vt 0.406250 0.812500
vt 0.343750 0.875000
vt 0.343750 0.812500
vt 0.312500 0.875000
vt 0.312500 0.812500
vt 0.281250 0.875000
vt 0.281250 0.812500
vt 0.250000 0.875000
vt 0.250000 0.812500
vt 0.218750 0.875000
vt 0.218750 0.812500
vt 0.187500 0.875000
vt 0.156250 0.875000
vt 0.125000 0.875000
vt 0.093750 0.875000
vt 0.062500 0.875000
vt 0.031250 0.875000
vt 0.000000 0.875000
vt 1.000000 0.875000
vt 0.437500 0.750000
vt 0.468750 0.750000
vt 0.500000 0.750000
vt 0.531250 0.750000
vt 0.562500 0.750000
vt 0.718750 0.625000
vt 0.781250 0.687500
vt 0.781250 0.625000
vt 0.843750 0.687500
vt 0.843750 0.625000
vt 0.906250 0.625000
vt 0.937500 0.625000
vt 0.968750 0.625000
vt 1.000000 0.625000
vt 0.031250 0.625000
vt 0.000000 0.625000
vt 0.000000 0.562500
vt 0.062500 0.625000
vt 0.093750 0.625000
s 1
f 7/1/1 4/2/1 1/3/1 2/4/1 127/5/1 126/6/1 125/7/1 120/8/1 119/9/1 118/10/1 117/11/1 26/12/1 25/13/1 24/14/1 23/15/1 18/16/1 17/17/1 16/18/1 15/19/1 8/20/1
f 1/21/2 3/22/2 129/23/2 2/24/2
f 4/25/3 6/26/3 3/27/3 1/28/3
f 26/12/1 117/11/1 112/29/1 111/30/1 110/31/1 109/32/1 104/33/1 103/34/1 102/35/1 101/36/1 96/37/1 95/38/1 94/39/1 93/40/1 88/41/1 87/42/1 86/43/1 83/44/1 82/45/1 81/46/1 75/47/1 77/48/1 79/49/1 5/50/1 4/2/1 7/1/1 9/51/1 73/52/1 67/53/1 66/54/1 65/55/1 64/56/1 58/57/1 57/58/1 56/59/1 55/60/1 50/61/1 49/62/1 48/63/1 47/64/1 42/65/1 41/66/1 40/67/1 39/68/1 34/69/1 33/70/1 32/71/1 31/72/1
f 5/73/4 80/74/4 6/26/4 4/25/4
f 8/75/5 12/76/5 10/77/5 7/78/5
f 7/78/6 10/77/6 11/79/6 9/80/6
f 121/81/7 122/82/7 123/83/7 124/84/7 128/85/7 129/86/7 3/87/7 6/88/7 80/89/7 78/90/7 76/91/7 70/92/7 69/93/7 71/94/7 72/95/7 11/96/7 10/97/7 12/98/7 13/99/7 14/100/7 19/101/7 20/102/7 21/103/7 22/104/7 27/105/7 28/106/7 29/107/7 30/108/7 35/109/7 36/110/7 37/111/7 38/112/7 43/113/7 44/114/7 45/115/7 46/116/7 51/117/7 52/118/7 53/119/7 54/120/7 59/121/7 60/122/7 89/123/7 90/124/7 91/125/7 92/126/7 97/127/7 98/128/7 99/129/7 100/130/7 105/131/7 106/132/7 107/133/7 108/134/7 113/135/7 114/136/7 115/137/7 116/138/7
f 15/139/8 13/140/8 12/141/8 8/142/8
f 16/143/9 14/144/9 13/140/9 15/139/9
f 17/145/10 19/146/10 14/144/10 16/143/10
f 18/147/11 20/148/11 19/146/11 17/145/11
f 21/149/12 20/148/12 18/147/12 23/150/12
f 22/151/13 21/149/13 23/150/13 24/152/13
f 27/153/14 22/151/14 24/152/14 25/154/14
f 28/155/15 27/153/15 25/154/15 26/156/15
f 29/157/16 28/155/16 26/156/16 31/158/16
f 30/159/17 29/157/17 31/158/17 32/160/17
f 35/161/18 30/159/18 32/160/18 33/162/18
f 36/163/19 35/161/19 33/162/19 34/164/19
f 37/165/20 36/163/20 34/164/20 39/166/20
f 38/167/21 37/165/21 39/166/21 40/168/21
f 43/169/22 38/167/22 40/168/22 41/170/22
f 44/171/3 43/169/3 41/170/3 42/172/3
f 45/173/23 44/171/23 42/172/23 47/174/23
f 46/175/24 45/173/24 47/174/24 48/176/24
f 51/177/25 46/175/25 48/176/25 49/178/25
f 52/179/26 51/177/26 49/178/26 50/180/26
f 55/181/27 53/182/27 52/179/27 50/180/27
f 56/183/28 54/184/28 53/182/28 55/181/28
f 57/185/29 59/186/29 54/184/29 56/183/29
f 58/187/30 61/188/30 59/186/30 57/185/30
f 70/92/7 74/189/7 84/190/7 85/191/7 60/122/7 59/121/7 61/192/7 62/193/7 63/194/7 68/195/7 69/93/7
f 64/196/31 62/197/31 61/188/31 58/187/31
f 65/198/32 63/199/32 62/197/32 64/196/32
f 66/200/33 68/201/33 63/199/33 65/198/33
f 67/202/34 71/203/34 69/204/34 68/201/34 66/200/34
f 73/205/35 72/206/35 71/203/35 67/202/35
f 9/80/36 11/79/36 72/206/36 73/205/36
f 81/207/37 74/208/37 70/209/37 75/210/37
f 75/210/19 70/209/19 76/211/19 77/212/19
f 77/212/38 76/211/38 78/213/38 79/214/38
f 79/214/21 78/213/21 80/74/21 5/73/21
f 82/215/17 84/216/17 74/208/17 81/207/17
f 83/217/39 85/218/39 84/216/39 82/215/39
f 86/219/15 60/220/15 85/218/15 83/217/15
f 87/221/40 89/222/40 60/220/40 86/219/40
f 88/223/13 90/224/13 89/222/13 87/221/13
f 93/225/41 91/226/41 90/224/41 88/223/41
f 94/227/11 92/228/11 91/226/11 93/225/11
f 95/229/42 97/230/42 92/228/42 94/227/42
f 96/231/9 98/232/9 97/230/9 95/229/9
f 101/233/43 99/234/43 98/232/43 96/231/43
f 102/235/5 100/236/5 99/234/5 101/233/5
f 103/237/44 105/238/44 100/236/44 102/235/44
f 104/239/36 106/240/36 105/238/36 103/237/36
f 109/241/45 107/242/45 106/240/45 104/239/45
f 110/243/34 108/244/34 107/242/34 109/241/34
f 111/245/46 113/246/46 108/244/46 110/243/46
f 112/247/32 114/248/32 113/246/32 111/245/32
f 117/249/47 115/250/47 114/248/47 112/247/47
f 118/251/30 116/252/30 115/250/30 117/249/30
f 119/253/48 121/254/48 116/252/48 118/251/48
f 120/255/28 122/256/28 121/254/28 119/253/28
f 125/257/49 123/258/49 122/256/49 120/255/49
f 126/259/26 124/260/26 123/258/26 125/257/26
f 127/261/50 128/262/50 124/260/50 126/259/50
f 2/24/24 129/23/24 128/262/24 127/261/24
f 131/263/51 134/264/51 133/265/51 130/266/51
f 130/267/52 132/268/52 236/269/52 131/270/52
f 133/271/53 135/272/53 132/273/53 130/226/53
f 134/264/54 139/274/54 136/275/54 133/265/54
f 136/276/55 137/277/55 135/272/55 133/271/55
f 138/278/55 181/279/55 137/277/55 136/276/55
f 139/274/56 140/280/56 138/281/56 136/275/56
f 142/282/1 141/283/1 139/274/1 134/264/1
f 141/283/57 143/284/57 140/280/57 139/274/57
f 147/285/58 144/286/58 141/283/58 142/282/58
f 144/286/59 146/287/59 143/284/59 141/283/59
f 145/217/60 243/221/60 146/287/60 144/286/60
f 149/207/60 145/217/60 144/286/60 147/285/60
f 148/288/61 147/285/61 142/282/61 237/289/61
f 151/212/62 149/207/62 147/285/62 148/288/62
f 149/290/63 150/291/63 160/292/63 145/293/63
f 151/294/64 152/295/64 150/291/64 149/290/64
f 148/296/65 153/297/65 152/295/65 151/294/65
f 153/297/66 155/298/66 154/299/66 152/295/66
f 152/295/67 154/299/67 157/300/67 150/291/67
f 155/298/66 206/301/66 156/302/66 154/299/66
f 154/299/67 156/302/67 158/303/67 157/300/67
f 150/291/68 157/300/68 159/304/68 160/292/68
f 157/300/68 158/303/68 161/305/68 159/304/68
f 160/292/68 159/304/68 162/306/68 163/307/68
f 159/304/68 161/305/68 164/308/68 162/306/68
f 163/307/69 162/306/69 165/309/69 166/310/69
f 162/306/69 164/308/69 167/311/69 165/309/69
f 166/310/70 165/309/70 168/312/70 169/313/70
f 165/309/70 167/311/70 170/314/70 168/312/70
f 169/313/71 168/312/71 171/315/71 172/316/71
f 168/312/71 170/314/71 173/317/71 171/315/71
f 172/316/71 171/315/71 174/318/71 175/319/71
f 171/315/71 173/317/71 176/320/71 174/318/71
f 175/319/72 174/318/72 177/321/72 178/322/72
f 174/318/72 176/320/72 179/323/72 177/321/72
f 178/322/73 177/321/73 180/324/73 181/279/73
f 177/321/73 179/323/73 182/325/73 180/324/73
f 181/279/74 180/324/74 183/326/74 137/277/74
f 180/324/74 182/325/74 184/327/74 183/326/74
f 137/277/74 183/326/74 185/328/74 135/272/74
f 183/326/74 184/327/74 187/329/74 185/328/74
f 135/272/75 185/328/75 186/330/75 132/273/75
f 185/328/75 187/329/75 188/331/75 186/330/75
f 187/329/75 189/332/75 191/333/75 188/331/75
f 184/327/74 190/334/74 189/332/74 187/329/74
f 190/334/76 193/335/76 192/336/76 189/332/76
f 189/332/77 192/336/77 194/242/77 191/333/77
f 196/337/78 195/338/78 192/339/78 193/340/78
f 195/338/79 198/341/79 194/342/79 192/339/79
f 228/343/7 197/344/7 195/338/7 196/337/7
f 197/344/80 200/345/80 198/341/80 195/338/80
f 191/346/81 194/347/81 198/348/81 199/349/81
f 199/349/82 198/348/82 200/350/82 201/351/82
f 201/351/82 200/350/82 202/352/82 205/353/82
f 204/354/80 202/355/80 200/345/80 197/344/80
f 209/253/83 203/257/83 202/355/83 204/354/83
f 205/353/84 202/352/84 203/356/84 207/357/84
f 206/301/66 205/353/66 207/357/66 156/302/66
f 231/358/85 201/351/85 205/353/85 206/301/85
f 207/357/86 203/356/86 209/359/86 208/360/86
f 156/302/67 207/357/67 208/360/67 158/303/67
f 158/303/68 208/360/68 210/361/68 161/305/68
f 208/360/87 209/359/87 211/362/87 210/361/87
f 161/305/68 210/361/68 212/363/68 164/308/68
f 210/361/87 211/362/87 213/364/87 212/363/87
f 212/363/88 213/364/88 215/241/88 214/365/88
f 164/308/69 212/363/69 214/365/69 167/311/69
f 214/365/89 215/241/89 217/366/89 216/367/89
f 167/311/70 214/365/70 216/367/70 170/314/70
f 216/367/90 217/366/90 219/368/90 218/369/90
f 170/314/71 216/367/71 218/369/71 173/317/71
f 173/317/71 218/369/71 220/370/71 176/320/71
f 218/369/90 219/368/90 221/371/90 220/370/90
f 176/320/72 220/370/72 222/372/72 179/323/72
f 220/370/91 221/371/91 223/373/91 222/372/91
f 222/372/92 223/373/92 225/374/92 224/375/92
f 179/323/73 222/372/73 224/375/73 182/325/73
f 182/325/74 224/375/74 190/334/74 184/327/74
f 224/375/76 225/374/76 193/335/76 190/334/76
f 221/371/93 226/376/93 225/377/93 223/373/93
f 226/376/78 196/337/78 193/340/78 225/377/78
f 219/368/94 227/378/94 226/376/94 221/371/94
f 227/378/7 228/343/7 196/337/7 226/376/7
f 217/366/94 229/379/94 227/378/94 219/368/94
f 229/379/7 230/380/7 228/343/7 227/378/7
f 215/241/95 213/245/95 229/379/95 217/366/95
f 213/245/96 211/249/96 230/380/96 229/379/96
f 230/380/7 204/354/7 197/344/7 228/343/7
f 211/249/96 209/253/96 204/354/96 230/380/96
f 233/381/85 231/358/85 206/301/85 155/298/85
f 232/382/85 199/349/85 201/351/85 231/358/85
f 234/383/85 232/382/85 231/358/85 233/381/85
f 236/269/85 234/383/85 233/381/85 235/384/85
f 235/384/85 233/381/85 155/298/85 153/297/85
f 131/270/97 236/269/97 235/384/97 237/385/97
f 237/385/97 235/384/97 153/297/97 148/296/97
f 237/289/98 142/282/98 134/264/98 131/263/98
f 132/268/99 186/386/99 234/383/99 236/269/99
f 186/386/99 188/387/99 232/382/99 234/383/99
f 188/387/99 191/346/99 199/349/99 232/382/99
f 238/388/100 178/322/100 181/279/100 138/278/100
f 239/389/101 175/319/101 178/322/101 238/388/101
f 140/280/102 239/389/102 238/388/102 138/281/102
f 143/284/103 240/390/103 239/389/103 140/280/103
f 240/390/104 172/316/104 175/319/104 239/389/104
f 241/391/104 169/313/104 172/316/104 240/390/104
f 146/287/103 241/391/103 240/390/103 143/284/103
f 242/225/105 166/310/105 169/313/105 241/391/105
f 243/221/106 242/225/106 241/391/106 146/287/106
f 243/392/107 163/307/107 166/310/107 242/225/107
f 145/293/63 160/292/63 163/307/63 243/392/63
f 250/1/1 247/2/1 244/3/1 245/4/1 370/5/1 369/6/1 368/7/1 363/8/1 362/9/1 361/10/1 360/11/1 269/12/1 268/13/1 267/14/1 266/15/1 261/16/1 260/17/1 259/18/1 258/19/1 251/20/1
f 244/21/2 246/22/2 372/23/2 245/24/2
f 247/25/3 249/26/3 246/27/3 244/28/3
f 269/12/1 360/11/1 355/29/1 354/30/1 353/31/1 352/32/1 347/33/1 346/34/1 345/35/1 344/36/1 339/37/1 338/38/1 337/39/1 336/40/1 331/41/1 330/42/1 329/43/1 326/44/1 325/45/1 324/46/1 318/47/1 320/48/1 322/49/1 248/50/1 247/2/1 250/1/1 252/51/1 316/52/1 310/53/1 309/54/1 308/55/1 307/56/1 301/57/1 300/58/1 299/59/1 298/60/1 293/61/1 292/62/1 291/63/1 290/64/1 285/65/1 284/66/1 283/67/1 282/68/1 277/69/1 276/70/1 275/71/1 274/72/1
f 248/73/4 323/74/4 249/26/4 247/25/4
f 251/75/5 255/76/5 253/77/5 250/78/5
f 250/78/6 253/77/6 254/79/6 252/80/6
f 364/81/7 365/82/7 366/83/7 367/84/7 371/85/7 372/86/7 246/87/7 249/88/7 323/89/7 321/90/7 319/91/7 313/92/7 312/93/7 314/94/7 315/95/7 254/96/7 253/97/7 255/98/7 256/99/7 257/100/7 262/101/7 263/102/7 264/103/7 265/104/7 270/105/7 271/106/7 272/107/7 273/108/7 278/109/7 279/110/7 280/111/7 281/112/7 286/113/7 287/114/7 288/115/7 289/116/7 294/117/7 295/118/7 296/119/7 297/120/7 302/121/7 303/122/7 332/123/7 333/124/7 334/125/7 335/126/7 340/127/7 341/128/7 342/129/7 343/130/7 348/131/7 349/132/7 350/133/7 351/134/7 356/135/7 357/136/7 358/137/7 359/138/7
f 258/139/8 256/140/8 255/141/8 251/142/8
f 259/143/9 257/144/9 256/140/9 258/139/9
f 260/145/10 262/146/10 257/144/10 259/143/10
f 261/147/11 263/148/11 262/146/11 260/145/11
f 264/149/12 263/148/12 261/147/12 266/150/12
f 265/151/13 264/149/13 266/150/13 267/152/13
f 270/153/14 265/151/14 267/152/14 268/154/14
f 271/155/15 270/153/15 268/154/15 269/156/15
f 272/157/16 271/155/16 269/156/16 274/158/16
f 273/159/17 272/157/17 274/158/17 275/160/17
f 278/161/18 273/159/18 275/160/18 276/162/18
f 279/163/19 278/161/19 276/162/19 277/164/19
f 280/165/20 279/163/20 277/164/20 282/166/20
f 281/167/21 280/165/21 282/166/21 283/168/21
f 286/169/22 281/167/22 283/168/22 284/170/22
f 287/171/3 286/169/3 284/170/3 285/172/3
f 288/173/23 287/171/23 285/172/23 290/174/23
f 289/175/24 288/173/24 290/174/24 291/176/24
f 294/177/25 289/175/25 291/176/25 292/178/25
f 295/179/26 294/177/26 292/178/26 293/180/26
f 298/181/27 296/182/27 295/179/27 293/180/27
f 299/183/28 297/184/28 296/182/28 298/181/28
f 300/185/29 302/186/29 297/184/29 299/183/29
f 301/187/30 304/188/30 302/186/30 300/185/30
f 313/92/7 317/189/7 327/190/7 328/191/7 303/122/7 302/121/7 304/192/7 305/193/7 306/194/7 311/195/7 312/93/7
f 307/196/31 305/197/31 304/188/31 301/187/31
f 308/198/32 306/199/32 305/197/32 307/196/32
f 309/200/33 311/201/33 306/199/33 308/198/33
f 310/202/34 314/203/34 312/204/34 311/201/34 309/200/34
f 316/205/35 315/206/35 314/203/35 310/202/35
f 252/80/36 254/79/36 315/206/36 316/205/36
f 324/207/37 317/208/37 313/209/37 318/210/37
f 318/210/19 313/209/19 319/211/19 320/212/19
f 320/212/38 319/211/38 321/213/38 322/214/38
f 322/214/21 321/213/21 323/74/21 248/73/21
f 325/215/17 327/216/17 317/208/17 324/207/17
f 326/217/39 328/218/39 327/216/39 325/215/39
f 329/219/15 303/220/15 328/218/15 326/217/15
f 330/221/40 332/222/40 303/220/40 329/219/40
f 331/223/13 333/224/13 332/222/13 330/221/13
f 336/225/41 334/226/41 333/224/41 331/223/41
f 337/227/11 335/228/11 334/226/11 336/225/11
f 338/229/42 340/230/42 335/228/42 337/227/42
f 339/231/9 341/232/9 340/230/9 338/229/9
f 344/233/43 342/234/43 341/232/43 339/231/43
f 345/235/5 343/236/5 342/234/5 344/233/5
f 346/237/44 348/238/44 343/236/44 345/235/44
f 347/239/36 349/240/36 348/238/36 346/237/36
f 352/241/45 350/242/45 349/240/45 347/239/45
f 353/243/34 351/244/34 350/242/34 352/241/34
f 354/245/46 356/246/46 351/244/46 353/243/46
f 355/247/32 357/248/32 356/246/32 354/245/32
f 360/249/47 358/250/47 357/248/47 355/247/47
f 361/251/30 359/252/30 358/250/30 360/249/30
f 362/253/48 364/254/48 359/252/48 361/251/48
f 363/255/28 365/256/28 364/254/28 362/253/28
f 368/257/49 366/258/49 365/256/49 363/255/49
f 369/259/26 367/260/26 366/258/26 368/257/26
f 370/261/50 371/262/50 367/260/50 369/259/50
f 245/24/24 372/23/24 371/262/24 370/261/24
s 0
f 373/393/7 374/393/7 405/393/7 404/393/7 403/393/7 402/393/7 401/393/7 400/393/7 399/393/7 398/393/7 397/393/7 396/393/7 395/393/7 394/393/7 393/393/7 392/393/7 391/393/7 390/393/7 389/393/7 388/393/7 387/393/7 386/393/7 385/393/7 384/393/7 383/393/7 382/393/7 381/393/7 380/393/7 379/393/7 378/393/7 377/393/7 376/393/7
f 373/393/108 375/393/108 374/393/108
f 376/393/109 375/393/109 373/393/109
f 377/393/110 375/393/110 376/393/110
f 378/393/111 375/393/111 377/393/111
f 379/393/112 375/393/112 378/393/112
f 380/393/113 375/393/113 379/393/113
f 381/393/114 375/393/114 380/393/114
f 382/393/115 375/393/115 381/393/115
f 383/393/116 375/393/116 382/393/116
f 384/393/117 375/393/117 383/393/117
f 385/393/118 375/393/118 384/393/118
f 386/393/119 375/393/119 385/393/119
f 387/393/120 375/393/120 386/393/120
f 388/393/121 375/393/121 387/393/121
f 389/393/122 375/393/122 388/393/122
f 390/393/123 375/393/123 389/393/123
f 391/393/124 375/393/124 390/393/124
f 392/393/125 375/393/125 391/393/125
f 393/393/126 375/393/126 392/393/126
f 394/393/127 375/393/127 393/393/127
f 395/393/128 375/393/128 394/393/128
f 396/393/129 375/393/129 395/393/129
f 397/393/130 375/393/130 396/393/130
f 398/393/131 375/393/131 397/393/131
f 399/393/132 375/393/132 398/393/132
f 400/393/133 375/393/133 399/393/133
f 401/393/134 375/393/134 400/393/134
f 402/393/135 375/393/135 401/393/135
f 403/393/136 375/393/136 402/393/136
f 404/393/137 375/393/137 403/393/137
f 405/393/138 375/393/138 404/393/138
f 374/393/139 375/393/139 405/393/139
s 1
f 409/340/140 406/394/140 407/395/140 505/396/140
f 406/394/141 408/397/141 510/398/141 407/395/141
f 410/399/142 411/400/142 408/397/142 406/394/142
f 412/401/143 410/399/143 406/394/143 409/340/143
f 413/402/144 414/403/144 411/400/144 410/399/144
f 415/339/145 413/402/145 410/399/145 412/401/145
f 416/404/146 417/405/146 414/403/146 413/402/146
f 418/406/147 416/404/147 413/402/147 415/339/147
f 419/407/148 420/408/148 417/405/148 416/404/148
f 421/342/149 419/407/149 416/404/149 418/406/149
f 422/409/150 423/410/150 420/408/150 419/407/150
f 424/411/151 422/409/151 419/407/151 421/342/151
f 425/412/152 427/413/152 423/410/152 422/409/152
f 428/414/153 425/412/153 422/409/153 424/411/153
f 426/415/154 579/416/154 427/413/154 425/412/154
f 430/417/155 426/415/155 425/412/155 428/414/155
f 429/418/156 428/414/156 424/411/156 598/419/156
f 431/420/157 430/417/157 428/414/157 429/418/157
f 432/421/158 433/422/158 426/415/158 430/417/158
f 434/423/159 432/421/159 430/417/159 431/420/159
f 435/424/160 436/425/160 433/426/160 432/427/160
f 437/428/161 435/424/161 432/427/161 434/429/161
f 438/430/162 439/431/162 436/425/162 435/424/162
f 440/432/163 438/430/163 435/424/163 437/428/163
f 441/433/164 442/434/164 439/431/164 438/430/164
f 443/435/165 441/433/165 438/430/165 440/432/165
f 444/266/166 445/436/166 442/434/166 441/433/166
f 446/263/167 444/266/167 441/433/167 443/435/167
f 447/437/168 449/438/168 445/436/168 444/266/168
f 450/439/169 447/437/169 444/266/169 446/263/169
f 452/264/170 448/265/170 447/437/170 450/439/170
f 448/265/171 572/440/171 449/438/171 447/437/171
f 451/441/172 450/439/172 446/263/172 614/289/172
f 453/282/173 452/264/173 450/439/173 451/441/173
f 454/442/174 455/443/174 448/265/174 452/264/174
f 456/444/175 454/442/175 452/264/175 453/282/175
f 457/274/176 458/275/176 455/443/176 454/442/176
f 459/283/177 457/274/177 454/442/177 456/444/177
f 460/445/178 461/446/178 458/275/178 457/274/178
f 462/447/179 460/445/179 457/274/179 459/283/179
f 463/280/180 464/281/180 461/446/180 460/445/180
f 465/284/181 463/280/181 460/445/181 462/447/181
f 466/448/182 467/449/182 464/281/182 463/280/182
f 468/450/183 466/448/183 463/280/183 465/284/183
f 469/389/184 471/388/184 467/449/184 466/448/184
f 472/390/185 469/389/185 466/448/185 468/450/185
f 474/451/186 470/452/186 469/389/186 472/390/186
f 470/452/187 580/453/187 471/388/187 469/389/187
f 473/391/188 472/390/188 468/450/188 623/454/188
f 475/455/189 474/451/189 472/390/189 473/391/189
f 476/456/190 477/457/190 470/452/190 474/451/190
f 478/458/191 476/456/191 474/451/191 475/455/191
f 479/459/192 480/460/192 477/457/192 476/456/192
f 481/461/193 479/459/193 476/456/193 478/458/193
f 482/462/194 483/463/194 480/460/194 479/459/194
f 484/464/195 482/462/195 479/459/195 481/461/195
f 485/465/196 486/466/196 483/463/196 482/462/196
f 487/467/197 485/465/197 482/462/197 484/464/197
f 488/468/198 489/469/198 486/466/198 485/465/198
f 491/470/199 488/468/199 485/465/199 487/467/199
f 490/471/200 499/472/200 489/469/200 488/468/200
f 492/473/201 490/471/201 488/468/201 491/470/201
f 627/380/74 628/474/74 629/379/74 494/475/74 493/366/74 492/473/74 491/470/74 487/467/74 484/464/74 481/461/74 478/458/74 475/455/74 473/391/74 623/454/74 622/287/74 621/476/74 620/286/74 619/477/74 618/285/74 617/478/74 616/288/74 615/479/74 612/480/74 610/481/74 608/482/74 606/483/74 604/484/74 602/485/74 600/355/74 624/486/74 625/354/74 626/487/74
f 493/366/202 495/368/202 490/471/202 492/473/202
f 494/475/203 496/488/203 495/368/203 493/366/203
f 496/488/204 500/489/204 497/371/204 495/368/204
f 495/368/205 497/371/205 499/472/205 490/471/205
f 497/371/206 498/373/206 586/490/206 499/472/206
f 500/489/207 502/491/207 498/373/207 497/371/207
f 630/378/208 501/376/208 500/489/208 496/488/208
f 501/376/209 504/377/209 502/491/209 500/489/209
f 502/491/210 503/492/210 544/374/210 498/373/210
f 504/377/211 506/493/211 503/492/211 502/491/211
f 587/494/212 505/396/212 504/377/212 501/376/212
f 505/396/213 407/395/213 506/493/213 504/377/213
f 506/493/214 507/495/214 509/496/214 503/492/214
f 407/395/215 510/398/215 507/495/215 506/493/215
f 507/495/216 508/497/216 542/498/216 509/496/216
f 510/398/217 511/499/217 508/497/217 507/495/217
f 408/397/218 512/500/218 511/499/218 510/398/218
f 512/500/219 513/501/219 511/499/219
f 511/499/220 513/502/220 508/497/220
f 539/503/221 513/504/221 512/500/221
f 514/505/222 513/506/222 515/507/222
f 540/508/223 513/509/223 514/505/223
f 515/507/224 513/510/224 516/511/224
f 516/511/225 513/512/225 517/513/225
f 517/513/226 513/514/226 518/515/226
f 518/515/227 513/516/227 519/517/227
f 519/517/228 513/518/228 520/271/228
f 520/271/229 513/519/229 521/520/229
f 521/520/230 513/521/230 522/522/230
f 522/522/231 513/523/231 523/524/231
f 523/524/232 513/525/232 524/526/232
f 524/526/233 513/527/233 525/528/233
f 525/528/234 513/529/234 526/530/234
f 526/530/235 513/531/235 527/532/235
f 527/532/236 513/533/236 528/534/236
f 528/534/237 513/535/237 529/536/237
f 529/536/238 513/537/238 530/538/238
f 530/538/239 513/539/239 531/540/239
f 531/540/240 513/541/240 532/542/240
f 532/543/241 513/544/241 533/545/241
f 533/545/242 513/546/242 534/547/242
f 534/547/243 513/548/243 535/549/243
f 535/549/244 513/550/244 536/551/244
f 536/551/245 513/552/245 537/553/245
f 537/553/246 513/554/246 538/555/246
f 538/555/247 513/556/247 539/503/247
f 541/336/248 513/557/248 540/508/248
f 542/498/249 513/558/249 541/336/249
f 508/497/250 513/559/250 542/498/250
f 509/496/251 542/498/251 541/336/251 543/335/251
f 543/335/252 541/336/252 540/508/252 545/560/252
f 544/374/253 543/335/253 545/560/253 546/561/253
f 503/492/254 509/496/254 543/335/254 544/374/254
f 545/560/255 540/508/255 514/505/255 547/562/255
f 546/561/256 545/560/256 547/562/256 548/563/256
f 547/562/257 514/505/257 515/507/257 549/564/257
f 548/563/258 547/562/258 549/564/258 550/565/258
f 549/564/259 515/507/259 516/511/259 551/566/259
f 550/565/260 549/564/260 551/566/260 552/567/260
f 552/567/261 551/566/261 553/568/261 554/569/261
f 551/566/262 516/511/262 517/513/262 553/568/262
f 553/568/263 517/513/263 518/515/263 555/570/263
f 554/569/264 553/568/264 555/570/264 556/571/264
f 555/570/265 518/515/265 519/517/265 557/572/265
f 556/571/266 555/570/266 557/572/266 558/573/266
f 557/572/267 519/517/267 520/271/267 559/276/267
f 558/573/268 557/572/268 559/276/268 560/278/268
f 559/276/269 520/271/269 521/520/269 561/574/269
f 560/278/270 559/276/270 561/574/270 562/575/270
f 561/574/271 521/520/271 522/522/271 563/576/271
f 562/575/272 561/574/272 563/576/272 564/577/272
f 563/576/273 522/522/273 523/524/273 565/578/273
f 564/577/274 563/576/274 565/578/274 566/579/274
f 565/578/275 523/524/275 524/526/275 567/580/275
f 566/579/276 565/578/276 567/580/276 568/581/276
f 568/581/277 567/580/277 569/582/277 570/583/277
f 567/580/278 524/526/278 525/528/278 569/582/278
f 569/582/279 525/528/279 526/530/279 571/584/279
f 570/583/280 569/582/280 571/584/280 572/440/280
f 571/584/281 526/530/281 527/532/281 573/585/281
f 572/440/282 571/584/282 573/585/282 449/438/282
f 573/585/283 527/532/283 528/534/283 574/586/283
f 449/438/284 573/585/284 574/586/284 445/436/284
f 574/586/285 528/534/285 529/536/285 575/587/285
f 445/436/286 574/586/286 575/587/286 442/434/286
f 575/587/287 529/536/287 530/538/287 576/588/287
f 442/434/288 575/587/288 576/588/288 439/431/288
f 576/588/289 530/538/289 531/540/289 577/589/289
f 439/431/290 576/588/290 577/589/290 436/425/290
f 577/589/291 531/540/291 532/542/291 578/590/291
f 436/425/292 577/589/292 578/590/292 433/426/292
f 433/422/293 578/591/293 579/416/293 426/415/293
f 578/591/294 532/543/294 533/545/294 579/416/294
f 579/416/295 533/545/295 534/547/295 427/413/295
f 455/443/296 570/583/296 572/440/296 448/265/296
f 458/275/297 568/581/297 570/583/297 455/443/297
f 461/446/298 566/579/298 568/581/298 458/275/298
f 464/281/299 564/577/299 566/579/299 461/446/299
f 467/449/300 562/575/300 564/577/300 464/281/300
f 471/388/301 560/278/301 562/575/301 467/449/301
f 580/453/302 558/573/302 560/278/302 471/388/302
f 581/592/303 556/571/303 558/573/303 580/453/303
f 477/457/304 581/592/304 580/453/304 470/452/304
f 480/460/305 582/593/305 581/592/305 477/457/305
f 582/593/306 554/569/306 556/571/306 581/592/306
f 583/594/307 552/567/307 554/569/307 582/593/307
f 483/463/308 583/594/308 582/593/308 480/460/308
f 584/595/309 550/565/309 552/567/309 583/594/309
f 486/466/310 584/595/310 583/594/310 483/463/310
f 585/596/311 548/563/311 550/565/311 584/595/311
f 489/469/312 585/596/312 584/595/312 486/466/312
f 586/490/313 546/561/313 548/563/313 585/596/313
f 499/472/314 586/490/314 585/596/314 489/469/314
f 498/373/315 544/374/315 546/561/315 586/490/315
f 411/400/316 539/503/316 512/500/316 408/397/316
f 414/403/317 538/555/317 539/503/317 411/400/317
f 417/405/318 537/553/318 538/555/318 414/403/318
f 420/408/319 536/551/319 537/553/319 417/405/319
f 423/410/320 535/549/320 536/551/320 420/408/320
f 427/413/321 534/547/321 535/549/321 423/410/321
f 589/337/322 409/340/322 505/396/322 587/494/322
f 588/597/323 587/494/323 501/376/323 630/378/323
f 590/343/324 589/337/324 587/494/324 588/597/324
f 591/598/325 412/401/325 409/340/325 589/337/325
f 592/599/326 591/598/326 589/337/326 590/343/326
f 593/338/327 415/339/327 412/401/327 591/598/327
f 594/344/328 593/338/328 591/598/328 592/599/328
f 595/600/329 418/406/329 415/339/329 593/338/329
f 596/601/330 595/600/330 593/338/330 594/344/330
f 597/341/331 421/342/331 418/406/331 595/600/331
f 599/345/332 597/341/332 595/600/332 596/601/332
f 601/602/333 598/419/333 597/341/333 599/345/333
f 598/419/334 424/411/334 421/342/334 597/341/334
f 600/355/335 599/345/335 596/601/335 624/486/335
f 602/485/336 601/602/336 599/345/336 600/355/336
f 603/603/337 429/418/337 598/419/337 601/602/337
f 604/484/338 603/603/338 601/602/338 602/485/338
f 605/604/339 431/420/339 429/418/339 603/603/339
f 606/483/340 605/604/340 603/603/340 604/484/340
f 607/605/341 434/423/341 431/420/341 605/604/341
f 608/482/342 607/605/342 605/604/342 606/483/342
f 609/606/343 437/428/343 434/429/343 607/607/343
f 610/481/344 609/606/344 607/607/344 608/608/344
f 611/609/345 440/432/345 437/428/345 609/606/345
f 612/480/346 611/609/346 609/606/346 610/481/346
f 613/610/347 443/435/347 440/432/347 611/609/347
f 615/479/348 613/610/348 611/609/348 612/480/348
f 616/288/349 614/289/349 613/610/349 615/479/349
f 614/289/350 446/263/350 443/435/350 613/610/350
f 617/478/351 451/441/351 614/289/351 616/288/351
f 618/285/352 453/282/352 451/441/352 617/478/352
f 619/477/353 456/444/353 453/282/353 618/285/353
f 620/286/354 459/283/354 456/444/354 619/477/354
f 621/476/355 462/447/355 459/283/355 620/286/355
f 622/287/356 465/284/356 462/447/356 621/476/356
f 623/454/357 468/450/357 465/284/357 622/287/357
f 624/486/358 596/601/358 594/344/358 625/354/358
f 625/354/359 594/344/359 592/599/359 626/487/359
f 626/487/360 592/599/360 590/343/360 627/380/360
f 627/380/361 590/343/361 588/597/361 628/474/361
f 628/474/362 588/597/362 630/378/362 629/379/362
f 629/379/363 630/378/363 496/488/363 494/475/363
f 637/1/1 634/2/1 631/3/1 632/4/1 757/5/1 756/6/1 755/7/1 750/8/1 749/9/1 748/10/1 747/11/1 656/12/1 655/13/1 654/14/1 653/15/1 648/16/1 647/17/1 646/18/1 645/19/1 638/20/1
f 631/21/2 633/22/2 759/23/2 632/24/2
f 634/25/3 636/26/3 633/27/3 631/28/3
f 656/12/1 747/11/1 742/29/1 741/30/1 740/31/1 739/32/1 734/33/1 733/34/1 732/35/1 731/36/1 726/37/1 725/38/1 724/39/1 723/40/1 718/41/1 717/42/1 716/43/1 713/44/1 712/45/1 711/46/1 705/47/1 707/48/1 709/49/1 635/50/1 634/2/1 637/1/1 639/51/1 703/52/1 697/53/1 696/54/1 695/55/1 694/56/1 688/57/1 687/58/1 686/59/1 685/60/1 680/61/1 679/62/1 678/63/1 677/64/1 672/65/1 671/66/1 670/67/1 669/68/1 664/69/1 663/70/1 662/71/1 661/72/1
f 635/73/4 710/74/4 636/26/4 634/25/4
f 638/75/5 642/76/5 640/77/5 637/78/5
f 637/78/6 640/77/6 641/79/6 639/80/6
f 751/81/7 752/82/7 753/83/7 754/84/7 758/85/7 759/86/7 633/87/7 636/88/7 710/89/7 708/90/7 706/91/7 700/92/7 699/93/7 701/94/7 702/95/7 641/96/7 640/97/7 642/98/7 643/99/7 644/100/7 649/101/7 650/102/7 651/103/7 652/104/7 657/105/7 658/106/7 659/107/7 660/108/7 665/109/7 666/110/7 667/111/7 668/112/7 673/113/7 674/114/7 675/115/7 676/116/7 681/117/7 682/118/7 683/119/7 684/120/7 689/121/7 690/122/7 719/123/7 720/124/7 721/125/7 722/126/7 727/127/7 728/128/7 729/129/7 730/130/7 735/131/7 736/132/7 737/133/7 738/134/7 743/135/7 744/136/7 745/137/7 746/138/7
f 645/139/8 643/140/8 642/141/8 638/142/8
f 646/143/9 644/144/9 643/140/9 645/139/9
f 647/145/10 649/146/10 644/144/10 646/143/10
f 648/147/11 650/148/11 649/146/11 647/145/11
f 651/149/12 650/148/12 648/147/12 653/150/12
f 652/151/13 651/149/13 653/150/13 654/152/13
f 657/153/14 652/151/14 654/152/14 655/154/14
f 658/155/15 657/153/15 655/154/15 656/156/15
f 659/157/16 658/155/16 656/156/16 661/158/16
f 660/159/17 659/157/17 661/158/17 662/160/17
f 665/161/18 660/159/18 662/160/18 663/162/18
f 666/163/19 665/161/19 663/162/19 664/164/19
f 667/165/20 666/163/20 664/164/20 669/166/20
f 668/167/21 667/165/21 669/166/21 670/168/21
f 673/169/22 668/167/22 670/168/22 671/170/22
f 674/171/3 673/169/3 671/170/3 672/172/3
f 675/173/23 674/171/23 672/172/23 677/174/23
f 676/175/24 675/173/24 677/174/24 678/176/24
f 681/177/25 676/175/25 678/176/25 679/178/25
f 682/179/26 681/177/26 679/178/26 680/180/26
f 685/181/27 683/182/27 682/179/27 680/180/27
f 686/183/28 684/184/28 683/182/28 685/181/28
f 687/185/29 689/186/29 684/184/29 686/183/29
f 688/187/30 691/188/30 689/186/30 687/185/30
f 700/92/7 704/189/7 714/190/7 715/191/7 690/122/7 689/121/7 691/192/7 692/193/7 693/194/7 698/195/7 699/93/7
f 694/196/31 692/197/31 691/188/31 688/187/31
f 695/198/32 693/199/32 692/197/32 694/196/32
f 696/200/33 698/201/33 693/199/33 695/198/33
f 697/202/34 701/203/34 699/204/34 698/201/34 696/200/34
f 703/205/35 702/206/35 701/203/35 697/202/35
f 639/80/36 641/79/36 702/206/36 703/205/36
f 711/207/37 704/208/37 700/209/37 705/210/37
f 705/210/19 700/209/19 706/211/19 707/212/19
f 707/212/38 706/211/38 708/213/38 709/214/38
f 709/214/21 708/213/21 710/74/21 635/73/21
f 712/215/17 714/216/17 704/208/17 711/207/17
f 713/217/39 715/218/39 714/216/39 712/215/39
f 716/219/15 690/220/15 715/218/15 713/217/15
f 717/221/40 719/222/40 690/220/40 716/219/40
f 718/223/13 720/224/13 719/222/13 717/221/13
f 723/225/41 721/226/41 720/224/41 718/223/41
f 724/227/11 722/228/11 721/226/11 723/225/11
f 725/229/42 727/230/42 722/228/42 724/227/42
f 726/231/9 728/232/9 727/230/9 725/229/9
f 731/233/43 729/234/43 728/232/43 726/231/43
f 732/235/5 730/236/5 729/234/5 731/233/5
f 733/237/44 735/238/44 730/236/44 732/235/44
f 734/239/36 736/240/36 735/238/36 733/237/36
f 739/241/45 737/242/45 736/240/45 734/239/45
f 740/243/34 738/244/34 737/242/34 739/241/34
f 741/245/46 743/246/46 738/244/46 740/243/46
f 742/247/32 744/248/32 743/246/32 741/245/32
f 747/249/47 745/250/47 744/248/47 742/247/47
f 748/251/30 746/252/30 745/250/30 747/249/30
f 749/253/48 751/254/48 746/252/48 748/251/48
f 750/255/28 752/256/28 751/254/28 749/253/28
f 755/257/49 753/258/49 752/256/49 750/255/49
f 756/259/26 754/260/26 753/258/26 755/257/26
f 757/261/50 758/262/50 754/260/50 756/259/50
f 632/24/24 759/23/24 758/262/24 757/261/24
s 0
f 760/393/1 761/393/1 820/393/1 819/393/1 818/393/1 817/393/1 812/393/1 811/393/1 810/393/1 809/393/1 804/393/1 803/393/1 802/393/1 801/393/1 796/393/1 795/393/1 794/393/1 793/393/1 788/393/1 787/393/1 786/393/1 785/393/1 780/393/1 779/393/1 778/393/1 777/393/1 772/393/1 771/393/1 770/393/1 769/393/1 764/393/1 763/393/1
f 760/393/364 762/393/364 823/393/364 761/393/364
f 763/393/365 765/393/365 762/393/365 760/393/365
f 764/393/366 766/393/366 765/393/366 763/393/366
f 823/393/7 762/393/7 765/393/7 766/393/7 767/393/7 768/393/7 773/393/7 774/393/7 775/393/7 776/393/7 781/393/7 782/393/7 783/393/7 784/393/7 789/393/7 790/393/7 791/393/7 792/393/7 797/393/7 798/393/7 799/393/7 800/393/7 805/393/7 806/393/7 807/393/7 808/393/7 813/393/7 814/393/7 815/393/7 816/393/7 821/393/7 822/393/7
f 769/393/21 767/393/21 766/393/21 764/393/21
f 770/393/20 768/393/20 767/393/20 769/393/20
f 771/393/19 773/393/19 768/393/19 770/393/19
f 772/393/18 774/393/18 773/393/18 771/393/18
f 777/393/17 775/393/17 774/393/17 772/393/17
f 778/393/16 776/393/16 775/393/16 777/393/16
f 779/393/15 781/393/15 776/393/15 778/393/15
f 780/393/14 782/393/14 781/393/14 779/393/14
f 785/393/13 783/393/13 782/393/13 780/393/13
f 786/393/12 784/393/12 783/393/12 785/393/12
f 787/393/367 789/393/367 784/393/367 786/393/367
f 788/393/368 790/393/368 789/393/368 787/393/368
f 793/393/369 791/393/369 790/393/369 788/393/369
f 794/393/8 792/393/8 791/393/8 793/393/8
f 795/393/5 797/393/5 792/393/5 794/393/5
f 796/393/370 798/393/370 797/393/370 795/393/370
f 801/393/371 799/393/371 798/393/371 796/393/371
f 802/393/372 800/393/372 799/393/372 801/393/372
f 803/393/34 805/393/34 800/393/34 802/393/34
f 804/393/33 806/393/33 805/393/33 803/393/33
f 809/393/32 807/393/32 806/393/32 804/393/32
f 810/393/31 808/393/31 807/393/31 809/393/31
f 811/393/30 813/393/30 808/393/30 810/393/30
f 812/393/29 814/393/29 813/393/29 811/393/29
f 817/393/28 815/393/28 814/393/28 812/393/28
f 818/393/27 816/393/27 815/393/27 817/393/27
f 819/393/26 821/393/26 816/393/26 818/393/26
f 820/393/25 822/393/25 821/393/25 819/393/25
f 761/393/373 823/393/373 822/393/373 820/393/373
f 824/393/1 825/393/1 884/393/1 883/393/1 882/393/1 881/393/1 876/393/1 875/393/1 874/393/1 873/393/1 868/393/1 867/393/1 866/393/1 865/393/1 860/393/1 859/393/1 858/393/1 857/393/1 852/393/1 851/393/1 850/393/1 849/393/1 844/393/1 843/393/1 842/393/1 841/393/1 836/393/1 835/393/1 834/393/1 833/393/1 828/393/1 827/393/1
f 824/393/23 826/393/23 887/393/23 825/393/23
f 827/393/3 829/393/3 826/393/3 824/393/3
f 828/393/374 830/393/374 829/393/374 827/393/374
f 887/393/7 826/393/7 829/393/7 830/393/7 831/393/7 832/393/7 837/393/7 838/393/7 839/393/7 840/393/7 845/393/7 846/393/7 847/393/7 848/393/7 853/393/7 854/393/7 855/393/7 856/393/7 861/393/7 862/393/7 863/393/7 864/393/7 869/393/7 870/393/7 871/393/7 872/393/7 877/393/7 878/393/7 879/393/7 880/393/7 885/393/7 886/393/7
f 833/393/375 831/393/375 830/393/375 828/393/375
f 834/393/20 832/393/20 831/393/20 833/393/20
f 835/393/376 837/393/376 832/393/376 834/393/376
f 836/393/18 838/393/18 837/393/18 835/393/18
f 841/393/17 839/393/17 838/393/17 836/393/17
f 842/393/16 840/393/16 839/393/16 841/393/16
f 843/393/15 845/393/15 840/393/15 842/393/15
f 844/393/14 846/393/14 845/393/14 843/393/14
f 849/393/13 847/393/13 846/393/13 844/393/13
f 850/393/12 848/393/12 847/393/12 849/393/12
f 851/393/11 853/393/11 848/393/11 850/393/11
f 852/393/10 854/393/10 853/393/10 851/393/10
f 857/393/377 855/393/377 854/393/377 852/393/377
f 858/393/378 856/393/378 855/393/378 857/393/378
f 859/393/379 861/393/379 856/393/379 858/393/379
f 860/393/380 862/393/380 861/393/380 859/393/380
f 865/393/36 863/393/36 862/393/36 860/393/36
f 866/393/35 864/393/35 863/393/35 865/393/35
f 867/393/34 869/393/34 864/393/34 866/393/34
f 868/393/33 870/393/33 869/393/33 867/393/33
f 873/393/32 871/393/32 870/393/32 868/393/32
f 874/393/31 872/393/31 871/393/31 873/393/31
f 875/393/30 877/393/30 872/393/30 874/393/30
f 876/393/29 878/393/29 877/393/29 875/393/29
f 881/393/28 879/393/28 878/393/28 876/393/28
f 882/393/381 880/393/381 879/393/381 881/393/381
f 883/393/26 885/393/26 880/393/26 882/393/26
f 884/393/382 886/393/382 885/393/382 883/393/382
f 825/393/383 887/393/383 886/393/383 884/393/383
