# Blender 4.4.1
# www.blender.org
mtllib PoisonTrap.mtl
o 立方体
v -1.198790 2.028591 1.198790
v -1.198790 2.500282 1.198790
v -1.198790 2.028591 -1.198790
v -1.198790 2.500282 -1.198790
v 1.198790 2.028591 1.198790
v 1.198790 2.500282 1.198790
v 1.198790 2.028591 -1.198790
v 1.198790 2.500282 -1.198790
v 0.000000 -0.258826 -1.925383
v 0.000000 0.258826 -1.925383
v 1.361452 -0.258826 -1.361452
v 1.361452 0.258826 -1.361452
v 1.925383 -0.258826 0.000000
v 1.925383 0.258826 0.000000
v 1.361452 -0.258826 1.361452
v 1.361452 0.258826 1.361452
v 0.000000 -0.258826 1.925383
v 0.000000 0.258826 1.925383
v -1.361452 -0.258826 1.361452
v -1.361452 0.258826 1.361452
v -1.925383 -0.258826 0.000000
v -1.925383 0.258826 0.000000
v -1.361452 -0.258826 -1.361452
v -1.361452 0.258826 -1.361452
v 0.000000 0.113910 -1.000000
v 0.000000 2.113910 -1.000000
v 0.382683 0.113910 -0.923879
v 0.382683 2.113910 -0.923879
v 0.707107 0.113910 -0.707107
v 0.707107 2.113910 -0.707107
v 0.923879 0.113910 -0.382683
v 0.923879 2.113910 -0.382683
v 1.000000 0.113910 0.000000
v 1.000000 2.113910 0.000000
v 0.923879 0.113910 0.382683
v 0.923879 2.113910 0.382683
v 0.707107 0.113910 0.707107
v 0.707107 2.113910 0.707107
v 0.382683 0.113910 0.923879
v 0.382683 2.113910 0.923879
v 0.000000 0.113910 1.000000
v 0.000000 2.113910 1.000000
v -0.382683 0.113910 0.923879
v -0.382683 2.113910 0.923879
v -0.707107 0.113910 0.707107
v -0.707107 2.113910 0.707107
v -0.923879 0.113910 0.382683
v -0.923879 2.113910 0.382683
v -1.000000 0.113910 0.000000
v -1.000000 2.113910 0.000000
v -0.923879 0.113910 -0.382683
v -0.923879 2.113910 -0.382683
v -0.707107 0.113910 -0.707107
v -0.707107 2.113910 -0.707107
v -0.382683 0.113910 -0.923879
v -0.382683 2.113910 -0.923879
v 0.623833 -0.075301 1.125737
v 0.623833 2.181273 1.125737
v 0.623833 -0.075301 0.709116
v 0.623833 2.181273 0.709116
v 1.099320 -0.075301 1.125737
v 1.099320 2.181273 1.125737
v 1.099320 -0.075301 0.709116
v 1.099320 2.181273 0.709116
v 0.623833 -0.075301 -0.683712
v 0.623833 2.181273 -0.683712
v 0.623833 -0.075301 -1.100332
v 0.623833 2.181273 -1.100332
v 1.099320 -0.075301 -0.683712
v 1.099320 2.181273 -0.683712
v 1.099320 -0.075301 -1.100332
v 1.099320 2.181273 -1.100332
v -1.130735 -0.075301 1.125737
v -1.130735 2.181273 1.125737
v -1.130735 -0.075301 0.709116
v -1.130735 2.181273 0.709116
v -0.655248 -0.075301 1.125737
v -0.655248 2.181273 1.125737
v -0.655248 -0.075301 0.709116
v -0.655248 2.181273 0.709116
v -1.130735 -0.075301 -0.718164
v -1.130735 2.181273 -0.718164
v -1.130735 -0.075301 -1.134784
v -1.130735 2.181273 -1.134784
v -0.655248 -0.075301 -0.718164
v -0.655248 2.181273 -0.718164
v -0.655248 -0.075301 -1.134784
v -0.655248 2.181273 -1.134784
v 0.000000 2.394734 -0.888475
v 0.000000 2.912387 -0.888475
v 0.628247 2.394734 -0.628247
v 0.628247 2.912387 -0.628247
v 0.888475 2.394734 0.000000
v 0.888475 2.912387 0.000000
v 0.628247 2.394734 0.628247
v 0.628247 2.912387 0.628247
v 0.000000 2.394734 0.888475
v 0.000000 2.912387 0.888475
v -0.628247 2.394734 0.628247
v -0.628247 2.912387 0.628247
v -0.888475 2.394734 0.000000
v -0.888475 2.912387 0.000000
v -0.628247 2.394734 -0.628247
v -0.628247 2.912387 -0.628247
v -0.345222 2.912387 0.294319
v -0.342416 2.912387 0.322807
v -0.342416 2.912387 0.265830
v -0.320612 2.912387 0.375447
v -0.320612 2.912387 0.213191
v -0.334107 2.912387 0.350201
v -0.334107 2.912387 0.238437
v -0.280324 2.912387 0.415736
v -0.280324 2.912387 0.172902
v -0.227684 2.912387 0.437540
v -0.227684 2.912387 0.151098
v -0.255077 2.912387 0.429230
v -0.255077 2.912387 0.159408
v -0.302452 2.912387 0.397576
v -0.302452 2.912387 0.191062
v -0.170707 2.912387 0.437540
v -0.170707 2.912387 0.151098
v -0.118067 2.912387 0.415736
v -0.118067 2.912387 0.172902
v -0.143313 2.912387 0.429230
v -0.143313 2.912387 0.159408
v -0.077778 2.912387 0.375447
v -0.077778 2.912387 0.213191
v -0.053168 2.912387 0.294319
v -0.055974 2.912387 0.322807
v -0.055974 2.912387 0.265830
v -0.064284 2.912387 0.350201
v -0.064284 2.912387 0.238437
v -0.095939 2.912387 0.397576
v -0.095939 2.912387 0.191062
v -0.199195 2.912387 0.148292
v -0.199195 2.912387 0.440346
v -0.345222 2.394734 0.294319
v -0.342416 2.394734 0.322807
v -0.342416 2.394734 0.265830
v -0.334107 2.394734 0.350201
v -0.320612 2.394734 0.213191
v -0.320612 2.394734 0.375447
v -0.334107 2.394734 0.238437
v -0.302452 2.394734 0.397576
v -0.280324 2.394734 0.172902
v -0.227684 2.394734 0.437540
v -0.255077 2.394734 0.429230
v -0.227684 2.394734 0.151098
v -0.280324 2.394734 0.415736
v -0.255077 2.394734 0.159408
v -0.302452 2.394734 0.191062
v -0.170707 2.394734 0.437540
v -0.170707 2.394734 0.151098
v -0.118067 2.394734 0.415736
v -0.118067 2.394734 0.172902
v -0.143313 2.394734 0.429230
v -0.143313 2.394734 0.159408
v -0.077778 2.394734 0.375447
v -0.077778 2.394734 0.213191
v -0.053168 2.394734 0.294319
v -0.055974 2.394734 0.265830
v -0.055974 2.394734 0.322807
v -0.064284 2.394734 0.238437
v -0.064284 2.394734 0.350201
v -0.095939 2.394734 0.191062
v -0.095939 2.394734 0.397576
v -0.199195 2.394734 0.440346
v -0.199195 2.394734 0.148292
v 0.028124 2.912387 -0.284793
v 0.030930 2.912387 -0.256304
v 0.030930 2.912387 -0.313281
v 0.039239 2.912387 -0.228910
v 0.052734 2.912387 -0.365921
v 0.052734 2.912387 -0.203664
v 0.039239 2.912387 -0.340675
v 0.070894 2.912387 -0.181536
v 0.093023 2.912387 -0.406210
v 0.145662 2.912387 -0.141572
v 0.118269 2.912387 -0.149881
v 0.145662 2.912387 -0.428014
v 0.093023 2.912387 -0.163376
v 0.118269 2.912387 -0.419704
v 0.070894 2.912387 -0.388049
v 0.202639 2.912387 -0.141572
v 0.202639 2.912387 -0.428014
v 0.255279 2.912387 -0.163376
v 0.255279 2.912387 -0.406210
v 0.230033 2.912387 -0.149881
v 0.230033 2.912387 -0.419704
v 0.295568 2.912387 -0.203664
v 0.295568 2.912387 -0.365921
v 0.320178 2.912387 -0.284793
v 0.317372 2.912387 -0.313281
v 0.317372 2.912387 -0.256304
v 0.309062 2.912387 -0.340675
v 0.309062 2.912387 -0.228910
v 0.277407 2.912387 -0.388049
v 0.174151 2.912387 -0.138766
v 0.277407 2.912387 -0.181536
v 0.174151 2.912387 -0.430820
v 0.028124 2.394734 -0.284793
v 0.030930 2.394734 -0.256304
v 0.030930 2.394734 -0.313281
v 0.052734 2.394734 -0.203664
v 0.052734 2.394734 -0.365921
v 0.039239 2.394734 -0.228910
v 0.039239 2.394734 -0.340675
v 0.093023 2.394734 -0.163376
v 0.093023 2.394734 -0.406210
v 0.145662 2.394734 -0.141572
v 0.145662 2.394734 -0.428014
v 0.118269 2.394734 -0.149881
v 0.118269 2.394734 -0.419704
v 0.070894 2.394734 -0.181536
v 0.070894 2.394734 -0.388049
v 0.202639 2.394734 -0.141572
v 0.202639 2.394734 -0.428014
v 0.255279 2.394734 -0.163376
v 0.255279 2.394734 -0.406210
v 0.230033 2.394734 -0.149881
v 0.230033 2.394734 -0.419704
v 0.295568 2.394734 -0.203664
v 0.295568 2.394734 -0.365921
v 0.320178 2.394734 -0.284793
v 0.317372 2.394734 -0.256304
v 0.317372 2.394734 -0.313281
v 0.309062 2.394734 -0.228910
v 0.309062 2.394734 -0.340675
v 0.277407 2.394734 -0.181536
v 0.277407 2.394734 -0.388049
v 0.174151 2.394734 -0.430820
v 0.174151 2.394734 -0.138766
v -0.351609 2.912387 -0.284793
v -0.340494 2.912387 -0.228910
v -0.348804 2.912387 -0.256304
v -0.348804 2.912387 -0.313281
v -0.286711 2.912387 -0.406209
v -0.308839 2.912387 -0.388049
v -0.326999 2.912387 -0.365921
v -0.340494 2.912387 -0.340675
v -0.234071 2.912387 -0.428014
v -0.177094 2.912387 -0.428014
v -0.205583 2.912387 -0.430819
v -0.102326 2.912387 -0.388049
v -0.124454 2.912387 -0.406209
v -0.084166 2.912387 -0.365921
v -0.149700 2.912387 -0.419704
v -0.261465 2.912387 -0.419704
v -0.070671 2.912387 -0.340675
v -0.062361 2.912387 -0.313281
v -0.061419 2.912387 -0.303711
v -0.326999 2.912387 -0.203664
v -0.059556 2.912387 -0.284793
v -0.286711 2.912387 -0.163376
v -0.308839 2.912387 -0.181536
v -0.234071 2.912387 -0.141572
v -0.205583 2.912387 -0.138766
v -0.177094 2.912387 -0.141572
v -0.261465 2.912387 -0.149881
v -0.149700 2.912387 -0.149881
v -0.102326 2.912387 -0.181536
v -0.124454 2.912387 -0.163376
v -0.070671 2.912387 -0.228910
v -0.062361 2.912387 -0.256304
v -0.084166 2.912387 -0.203664
v -0.205583 2.394734 -0.430819
v -0.177094 2.394734 -0.428014
v -0.149700 2.394734 -0.419704
v -0.124454 2.394734 -0.406209
v -0.102326 2.394734 -0.388049
v -0.234071 2.394734 -0.428014
v -0.069162 2.394734 -0.335698
v -0.070671 2.394734 -0.340675
v -0.084166 2.394734 -0.365921
v -0.348804 2.394734 -0.256304
v -0.351609 2.394734 -0.284793
v -0.340494 2.394734 -0.228910
v -0.340494 2.394734 -0.340675
v -0.348804 2.394734 -0.313281
v -0.286711 2.394734 -0.163376
v -0.286711 2.394734 -0.406209
v -0.308839 2.394734 -0.181536
v -0.308839 2.394734 -0.388049
v -0.261465 2.394734 -0.149881
v -0.326999 2.394734 -0.203664
v -0.326999 2.394734 -0.365921
v -0.234071 2.394734 -0.141572
v -0.149700 2.394734 -0.149881
v -0.177094 2.394734 -0.141572
v -0.205583 2.394734 -0.138766
v -0.102326 2.394734 -0.181536
v -0.084166 2.394734 -0.203664
v -0.059556 2.394734 -0.284793
v -0.062361 2.394734 -0.256304
v -0.062361 2.394734 -0.313281
v -0.070671 2.394734 -0.228910
v -0.124454 2.394734 -0.163376
v -0.261465 2.394734 -0.419704
v 0.138136 2.912387 0.440228
v 0.166625 2.912387 0.443033
v 0.195113 2.912387 0.440228
v 0.222507 2.912387 0.162095
v 0.247753 2.912387 0.418424
v 0.222507 2.912387 0.431918
v 0.247753 2.912387 0.175590
v 0.288042 2.912387 0.378135
v 0.288042 2.912387 0.215878
v 0.269881 2.912387 0.193750
v 0.312652 2.912387 0.297007
v 0.309846 2.912387 0.268518
v 0.301536 2.912387 0.352889
v 0.309846 2.912387 0.325495
v 0.301536 2.912387 0.241124
v 0.269881 2.912387 0.400263
v 0.020598 2.912387 0.297007
v 0.023404 2.912387 0.325495
v 0.028887 2.912387 0.343570
v 0.023404 2.912387 0.268518
v 0.045208 2.912387 0.378135
v 0.045208 2.912387 0.215878
v 0.063368 2.912387 0.400263
v 0.031714 2.912387 0.352889
v 0.031714 2.912387 0.241124
v 0.085497 2.912387 0.418424
v 0.085497 2.912387 0.175590
v 0.138136 2.912387 0.153786
v 0.195113 2.912387 0.153786
v 0.166625 2.912387 0.150980
v 0.110743 2.912387 0.431918
v 0.110743 2.912387 0.162095
v 0.063368 2.912387 0.193750
v 0.045208 2.394734 0.378135
v 0.195113 2.394734 0.440228
v 0.166873 2.394734 0.443009
v 0.066206 2.394734 0.402592
v 0.063368 2.394734 0.400263
v 0.031714 2.394734 0.352889
v 0.222507 2.394734 0.431918
v 0.023404 2.394734 0.325495
v 0.020598 2.394734 0.297007
v 0.247753 2.394734 0.418424
v 0.023404 2.394734 0.268518
v 0.031714 2.394734 0.241124
v 0.045208 2.394734 0.215878
v 0.085497 2.394734 0.175590
v 0.063368 2.394734 0.193750
v 0.138136 2.394734 0.153786
v 0.195113 2.394734 0.153786
v 0.222507 2.394734 0.162095
v 0.166625 2.394734 0.150980
v 0.110743 2.394734 0.162095
v 0.288042 2.394734 0.215878
v 0.269881 2.394734 0.400263
v 0.269881 2.394734 0.193750
v 0.301536 2.394734 0.352889
v 0.312652 2.394734 0.297007
v 0.309846 2.394734 0.325495
v 0.309846 2.394734 0.268518
v 0.301536 2.394734 0.241124
v 0.288042 2.394734 0.378135
v 0.247753 2.394734 0.175590
v 0.085497 2.394734 0.418424
v 0.166625 2.394734 0.443033
v 0.110743 2.394734 0.431918
v 0.138136 2.394734 0.440228
v -0.182197 0.710647 1.152496
v -0.182197 1.075040 1.152496
v -0.182197 0.710647 0.893290
v -0.182197 1.075040 0.893290
v 0.182197 0.710647 1.152496
v 0.182197 1.075040 1.152496
v 0.182197 0.710647 0.893290
v 0.182197 1.075040 0.893290
v -0.109748 0.783096 1.434234
v -0.109748 1.002591 1.434234
v -0.109748 0.783096 1.078568
v -0.109748 1.002591 1.078568
v 0.109748 0.783096 1.434234
v 0.109748 1.002591 1.434234
v 0.109748 0.783096 1.078568
v 0.109748 1.002591 1.078568
v -0.107880 -0.258692 1.428421
v -0.107880 0.828987 1.428421
v -0.107880 -0.258692 1.261901
v -0.107880 0.828987 1.261901
v 0.107880 -0.258692 1.428421
v 0.107880 0.828987 1.428421
v 0.107880 -0.258692 1.261901
v 0.107880 0.828987 1.261901
vn -1.0000 -0.0000 -0.0000
vn -0.0000 -0.0000 -1.0000
vn 1.0000 -0.0000 -0.0000
vn -0.0000 -0.0000 1.0000
vn -0.0000 -1.0000 -0.0000
vn -0.0000 1.0000 -0.0000
vn 0.3827 -0.0000 -0.9239
vn 0.9239 -0.0000 -0.3827
vn 0.9239 -0.0000 0.3827
vn 0.3827 -0.0000 0.9239
vn -0.3827 -0.0000 0.9239
vn -0.9239 -0.0000 0.3827
vn -0.9239 -0.0000 -0.3827
vn -0.3827 -0.0000 -0.9239
vn 0.1951 -0.0000 -0.9808
vn 0.5556 -0.0000 -0.8315
vn 0.8315 -0.0000 -0.5556
vn 0.9808 -0.0000 -0.1951
vn 0.9808 -0.0000 0.1951
vn 0.8315 -0.0000 0.5556
vn 0.5556 -0.0000 0.8315
vn 0.1951 -0.0000 0.9808
vn -0.1951 -0.0000 0.9808
vn -0.5556 -0.0000 0.8315
vn -0.8315 -0.0000 0.5556
vn -0.9808 -0.0000 0.1951
vn -0.9808 -0.0000 -0.1951
vn -0.8315 -0.0000 -0.5556
vn -0.5556 -0.0000 -0.8315
vn -0.1951 -0.0000 -0.9808
vn -0.0980 -0.0000 0.9952
vn -0.2903 -0.0000 0.9569
vn -0.4714 -0.0000 0.8819
vn -0.6344 -0.0000 0.7730
vn -0.7730 -0.0000 0.6344
vn -0.8819 -0.0000 0.4714
vn -0.9569 -0.0000 0.2903
vn -0.9952 -0.0000 0.0980
vn -0.9952 -0.0000 -0.0980
vn -0.9569 -0.0000 -0.2903
vn -0.8819 -0.0000 -0.4714
vn -0.7730 -0.0000 -0.6344
vn -0.6344 -0.0000 -0.7730
vn -0.4714 -0.0000 -0.8819
vn -0.2903 -0.0000 -0.9569
vn -0.0980 -0.0000 -0.9952
vn 0.0980 -0.0000 -0.9952
vn 0.2903 -0.0000 -0.9569
vn 0.4714 -0.0000 -0.8819
vn 0.6344 -0.0000 -0.7730
vn 0.7730 -0.0000 -0.6344
vn 0.8819 -0.0000 -0.4714
vn 0.9569 -0.0000 -0.2903
vn 0.9952 -0.0000 -0.0980
vn 0.9952 -0.0000 0.0980
vn 0.9569 -0.0000 0.2903
vn 0.8819 -0.0000 0.4714
vn 0.7730 -0.0000 0.6344
vn 0.6344 -0.0000 0.7730
vn 0.4714 -0.0000 0.8819
vn 0.2903 -0.0000 0.9569
vn 0.0980 -0.0000 0.9952
vt 0.671035 0.519546
vt 0.788861 0.519546
vt 0.788861 0.637373
vt 0.671035 0.637373
vt 0.788861 0.755199
vt 0.671035 0.755199
vt 0.788861 0.873026
vt 0.671035 0.873026
vt 0.788861 0.990852
vt 0.671035 0.990852
vt 0.553208 0.755199
vt 0.553208 0.873026
vt 0.906688 0.755199
vt 0.906688 0.873026
vt 0.410598 0.006652
vt 0.539905 0.006652
vt 0.539905 0.079071
vt 0.410598 0.079071
vt 0.539905 0.151491
vt 0.410598 0.151491
vt 0.539905 0.223911
vt 0.410598 0.223911
vt 0.539905 0.296331
vt 0.410598 0.296331
vt 0.539905 0.368750
vt 0.410598 0.368750
vt 0.539905 0.441170
vt 0.410598 0.441170
vt 0.200471 0.993348
vt 0.149262 0.942140
vt 0.149262 0.869720
vt 0.200471 0.818512
vt 0.272890 0.818512
vt 0.324099 0.869720
vt 0.324099 0.942140
vt 0.272891 0.993348
vt 0.539905 0.513590
vt 0.410598 0.513590
vt 0.539905 0.586010
vt 0.410598 0.586010
vt 0.149262 0.681580
vt 0.200471 0.630372
vt 0.272891 0.630372
vt 0.324099 0.681580
vt 0.324099 0.754000
vt 0.272891 0.805208
vt 0.200471 0.805208
vt 0.149262 0.754000
vt 0.860009 0.006652
vt 0.860009 0.506243
vt 0.840834 0.506243
vt 0.840834 0.006652
vt 0.821659 0.506243
vt 0.821659 0.006652
vt 0.802484 0.506243
vt 0.802484 0.006652
vt 0.783309 0.506243
vt 0.783309 0.006652
vt 0.764134 0.506243
vt 0.764134 0.006652
vt 0.744959 0.506243
vt 0.744959 0.006652
vt 0.725784 0.506243
vt 0.725784 0.006652
vt 0.706609 0.506243
vt 0.706609 0.006652
vt 0.687434 0.506243
vt 0.687434 0.006652
vt 0.668259 0.506243
vt 0.668259 0.006652
vt 0.649084 0.506243
vt 0.649084 0.006652
vt 0.629909 0.506243
vt 0.629909 0.006652
vt 0.610734 0.506243
vt 0.610734 0.006652
vt 0.591559 0.506243
vt 0.591559 0.006652
vt 0.894209 0.488095
vt 0.880650 0.474536
vt 0.873312 0.456821
vt 0.873312 0.437646
vt 0.880650 0.419930
vt 0.894209 0.406372
vt 0.911924 0.399034
vt 0.931099 0.399034
vt 0.948815 0.406372
vt 0.962373 0.419930
vt 0.969711 0.437646
vt 0.969711 0.456821
vt 0.962373 0.474536
vt 0.948815 0.488095
vt 0.931099 0.495433
vt 0.911924 0.495433
vt 0.572384 0.506243
vt 0.572383 0.006652
vt 0.553209 0.506243
vt 0.553208 0.006652
vt 0.931099 0.289331
vt 0.948815 0.296669
vt 0.962373 0.310228
vt 0.969711 0.327943
vt 0.969711 0.347118
vt 0.962373 0.364834
vt 0.948815 0.378392
vt 0.931099 0.385730
vt 0.911924 0.385730
vt 0.894209 0.378392
vt 0.880650 0.364834
vt 0.873312 0.347118
vt 0.873312 0.327943
vt 0.880650 0.310228
vt 0.894209 0.296669
vt 0.911924 0.289331
vt 0.195321 0.030019
vt 0.195321 0.593701
vt 0.174847 0.593701
vt 0.174847 0.030019
vt 0.151480 0.593701
vt 0.151480 0.030019
vt 0.131005 0.593701
vt 0.131005 0.030019
vt 0.107638 0.593701
vt 0.107638 0.030019
vt 0.151480 0.006652
vt 0.131005 0.006652
vt 0.151480 0.617068
vt 0.131005 0.617068
vt 0.094335 0.030019
vt 0.094335 0.593701
vt 0.073861 0.593701
vt 0.073861 0.030019
vt 0.050493 0.593701
vt 0.050493 0.030019
vt 0.030019 0.593701
vt 0.030019 0.030019
vt 0.006652 0.593701
vt 0.006652 0.030019
vt 0.050493 0.006652
vt 0.030019 0.006652
vt 0.050493 0.617068
vt 0.030019 0.617068
vt 0.397295 0.030019
vt 0.397295 0.593701
vt 0.376820 0.593701
vt 0.376820 0.030019
vt 0.353453 0.593701
vt 0.353453 0.030019
vt 0.332979 0.593701
vt 0.332979 0.030019
vt 0.309611 0.593701
vt 0.309611 0.030019
vt 0.353453 0.006652
vt 0.332979 0.006652
vt 0.353453 0.617068
vt 0.332979 0.617068
vt 0.296308 0.030019
vt 0.296308 0.593701
vt 0.275834 0.593701
vt 0.275834 0.030019
vt 0.252466 0.593701
vt 0.252466 0.030019
vt 0.231992 0.593701
vt 0.231992 0.030019
vt 0.208625 0.593701
vt 0.208625 0.030019
vt 0.252466 0.006652
vt 0.231992 0.006652
vt 0.252466 0.617068
vt 0.231992 0.617068
vt 0.006652 0.630372
vt 0.135959 0.630372
vt 0.135959 0.663790
vt 0.006652 0.663790
vt 0.135959 0.697208
vt 0.006652 0.697208
vt 0.135959 0.730627
vt 0.006652 0.730627
vt 0.135959 0.764045
vt 0.006652 0.764045
vt 0.135959 0.797463
vt 0.006652 0.797463
vt 0.135959 0.830882
vt 0.006652 0.830882
vt 0.036444 0.932852
vt 0.036306 0.934252
vt 0.006652 0.934652
vt 0.030282 0.911022
vt 0.063700 0.911022
vt 0.048557 0.929178
vt 0.047469 0.928285
vt 0.046228 0.927622
vt 0.044882 0.927214
vt 0.043482 0.927076
vt 0.042082 0.927214
vt 0.040736 0.927622
vt 0.039495 0.928285
vt 0.038408 0.929178
vt 0.037515 0.930265
vt 0.036852 0.931506
vt 0.037376 0.965500
vt 0.038268 0.964412
vt 0.042366 0.967567
vt 0.042504 0.968967
vt 0.042912 0.970313
vt 0.043575 0.971554
vt 0.044468 0.972641
vt 0.045555 0.973534
vt 0.030282 0.991701
vt 0.006652 0.968071
vt 0.036444 0.935652
vt 0.036852 0.936998
vt 0.037515 0.938239
vt 0.038408 0.939327
vt 0.039495 0.940219
vt 0.040736 0.940882
vt 0.042082 0.941291
vt 0.043482 0.941429
vt 0.044882 0.941291
vt 0.046228 0.940882
vt 0.047469 0.940219
vt 0.048557 0.939327
vt 0.049449 0.938239
vt 0.050112 0.936998
vt 0.050521 0.935652
vt 0.050659 0.934252
vt 0.050521 0.932852
vt 0.054764 0.936305
vt 0.054175 0.937023
vt 0.053512 0.938264
vt 0.053104 0.939610
vt 0.052966 0.941010
vt 0.053104 0.942410
vt 0.053512 0.943756
vt 0.054175 0.944997
vt 0.055068 0.946084
vt 0.056155 0.946977
vt 0.057396 0.947640
vt 0.058742 0.948048
vt 0.056581 0.966167
vt 0.056172 0.964821
vt 0.055509 0.963580
vt 0.054617 0.962493
vt 0.053529 0.961600
vt 0.052288 0.960937
vt 0.050942 0.960529
vt 0.049542 0.960391
vt 0.048142 0.960529
vt 0.046796 0.960937
vt 0.045555 0.961600
vt 0.044468 0.962493
vt 0.043575 0.963580
vt 0.042912 0.964821
vt 0.042504 0.966167
vt 0.038491 0.963996
vt 0.038931 0.963172
vt 0.039340 0.961826
vt 0.039477 0.960425
vt 0.039340 0.959025
vt 0.038931 0.957679
vt 0.038268 0.956439
vt 0.037376 0.955351
vt 0.036288 0.954459
vt 0.035047 0.953795
vt 0.033701 0.953387
vt 0.032301 0.953249
vt 0.030901 0.953387
vt 0.029555 0.953795
vt 0.028314 0.954459
vt 0.027227 0.955351
vt 0.026334 0.956439
vt 0.025671 0.957679
vt 0.025263 0.959025
vt 0.025125 0.960425
vt 0.025263 0.961826
vt 0.025671 0.963172
vt 0.026334 0.964412
vt 0.027227 0.965500
vt 0.028314 0.966392
vt 0.029555 0.967056
vt 0.030901 0.967464
vt 0.032301 0.967602
vt 0.033701 0.967464
vt 0.035047 0.967056
vt 0.036288 0.966392
vt 0.050112 0.931506
vt 0.049449 0.930265
vt 0.087331 0.934652
vt 0.087331 0.968071
vt 0.056719 0.967567
vt 0.060142 0.948186
vt 0.061542 0.948048
vt 0.062888 0.947640
vt 0.064129 0.946977
vt 0.065217 0.946084
vt 0.066109 0.944997
vt 0.066772 0.943756
vt 0.067181 0.942410
vt 0.067318 0.941010
vt 0.067181 0.939610
vt 0.066772 0.938264
vt 0.066109 0.937023
vt 0.065217 0.935935
vt 0.064129 0.935043
vt 0.062888 0.934380
vt 0.061542 0.933972
vt 0.060142 0.933834
vt 0.058742 0.933972
vt 0.057396 0.934380
vt 0.056155 0.935043
vt 0.055068 0.935936
vt 0.056581 0.968967
vt 0.063700 0.991701
vt 0.046796 0.974197
vt 0.048142 0.974605
vt 0.049542 0.974743
vt 0.050942 0.974605
vt 0.052288 0.974197
vt 0.053529 0.973534
vt 0.054617 0.972641
vt 0.055509 0.971554
vt 0.056172 0.970313
vt 0.135959 0.864300
vt 0.006652 0.864300
vt 0.135959 0.897718
vt 0.006652 0.897718
vt 0.463982 0.937805
vt 0.464836 0.937204
vt 0.465695 0.941535
vt 0.464399 0.942024
vt 0.462788 0.938375
vt 0.433976 0.956687
vt 0.433916 0.949784
vt 0.435320 0.949652
vt 0.436671 0.949249
vt 0.437917 0.948593
vt 0.439011 0.947708
vt 0.439910 0.946628
vt 0.440581 0.945395
vt 0.440999 0.944055
vt 0.441141 0.942664
vt 0.441007 0.941272
vt 0.440602 0.939932
vt 0.439940 0.938696
vt 0.439047 0.937612
vt 0.437956 0.936723
vt 0.436709 0.936065
vt 0.435354 0.935663
vt 0.433963 0.935501
vt 0.432570 0.935618
vt 0.431231 0.936007
vt 0.429977 0.936656
vt 0.428878 0.937536
vt 0.427975 0.938613
vt 0.410598 0.929322
vt 0.434511 0.905520
vt 0.468594 0.905787
vt 0.467028 0.941270
vt 0.465074 0.937088
vt 0.465919 0.936199
vt 0.466578 0.935204
vt 0.467027 0.934121
vt 0.467254 0.932984
vt 0.467231 0.931466
vt 0.466919 0.929985
vt 0.466331 0.928606
vt 0.465496 0.927382
vt 0.464449 0.926357
vt 0.463235 0.925569
vt 0.461905 0.925045
vt 0.460516 0.924800
vt 0.459121 0.924837
vt 0.457775 0.925151
vt 0.456496 0.925749
vt 0.455368 0.926584
vt 0.454434 0.927619
vt 0.453732 0.928846
vt 0.453286 0.930184
vt 0.453113 0.931579
vt 0.453217 0.932975
vt 0.453594 0.934320
vt 0.454227 0.935561
vt 0.455091 0.936649
vt 0.456151 0.937544
vt 0.457379 0.938226
vt 0.458712 0.938656
vt 0.460096 0.938822
vt 0.461475 0.938725
vt 0.463192 0.942734
vt 0.462122 0.943651
vt 0.461236 0.944754
vt 0.460572 0.946008
vt 0.460160 0.947371
vt 0.460011 0.948764
vt 0.460138 0.950160
vt 0.460534 0.951503
vt 0.461185 0.952742
vt 0.462064 0.953828
vt 0.463139 0.954722
vt 0.464366 0.955387
vt 0.465699 0.955800
vt 0.467094 0.955946
vt 0.468489 0.955817
vt 0.469833 0.955419
vt 0.471081 0.954748
vt 0.472177 0.953849
vt 0.473080 0.952755
vt 0.491018 0.962973
vt 0.467522 0.986367
vt 0.434295 0.986367
vt 0.433998 0.962005
vt 0.434656 0.963236
vt 0.435548 0.964326
vt 0.436635 0.965221
vt 0.437874 0.965887
vt 0.439218 0.966299
vt 0.440616 0.966442
vt 0.442014 0.966310
vt 0.443358 0.965909
vt 0.444603 0.965246
vt 0.445696 0.964354
vt 0.446595 0.963267
vt 0.447259 0.962031
vt 0.447669 0.960689
vt 0.447811 0.959293
vt 0.447678 0.957896
vt 0.447276 0.956553
vt 0.446619 0.955313
vt 0.445733 0.954226
vt 0.444653 0.953332
vt 0.443415 0.952668
vt 0.442071 0.952257
vt 0.440672 0.952115
vt 0.439271 0.952248
vt 0.437923 0.952651
vt 0.436680 0.953309
vt 0.435590 0.954197
vt 0.434695 0.955279
vt 0.434029 0.956515
vt 0.491416 0.929877
vt 0.473756 0.951508
vt 0.474179 0.950153
vt 0.474335 0.948744
vt 0.474216 0.947331
vt 0.473796 0.945952
vt 0.473123 0.944676
vt 0.472218 0.943548
vt 0.471116 0.942611
vt 0.469854 0.941899
vt 0.468481 0.941441
vt 0.410668 0.962843
vt 0.427302 0.939845
vt 0.426886 0.941183
vt 0.426741 0.942575
vt 0.426873 0.943967
vt 0.427277 0.945321
vt 0.427937 0.946570
vt 0.428826 0.947666
vt 0.429917 0.948562
vt 0.431162 0.949229
vt 0.432512 0.949642
vt 0.433618 0.957856
vt 0.433470 0.959253
vt 0.433597 0.960649
vt 0.433995 0.961990
vt 0.462881 0.599313
vt 0.462881 0.728620
vt 0.461475 0.728620
vt 0.461475 0.599313
vt 0.464288 0.599313
vt 0.464288 0.728620
vt 0.465695 0.599313
vt 0.465695 0.728620
vt 0.467102 0.599313
vt 0.467102 0.728620
vt 0.468509 0.728620
vt 0.468509 0.599313
vt 0.469915 0.728620
vt 0.469915 0.599313
vt 0.471322 0.728620
vt 0.471322 0.599313
vt 0.472729 0.728620
vt 0.472729 0.599313
vt 0.474136 0.728620
vt 0.474136 0.599313
vt 0.475543 0.728620
vt 0.475543 0.599313
vt 0.476949 0.728620
vt 0.476949 0.599313
vt 0.478356 0.728620
vt 0.478356 0.599313
vt 0.479763 0.728620
vt 0.479763 0.599313
vt 0.481170 0.728620
vt 0.481170 0.599313
vt 0.482577 0.728620
vt 0.482577 0.599313
vt 0.483984 0.728620
vt 0.483984 0.599313
vt 0.485390 0.728620
vt 0.485390 0.599313
vt 0.486797 0.728620
vt 0.486797 0.599313
vt 0.488204 0.728620
vt 0.488204 0.599313
vt 0.489611 0.728620
vt 0.489611 0.599313
vt 0.491018 0.599313
vt 0.491018 0.728620
vt 0.492424 0.599313
vt 0.492424 0.728620
vt 0.493831 0.599313
vt 0.493831 0.728620
vt 0.495238 0.599313
vt 0.495238 0.728620
vt 0.496645 0.599313
vt 0.496645 0.728620
vt 0.498052 0.599313
vt 0.498052 0.728620
vt 0.499458 0.599313
vt 0.499458 0.728620
vt 0.500865 0.599313
vt 0.500865 0.728620
vt 0.502272 0.599313
vt 0.502272 0.728620
vt 0.503679 0.599313
vt 0.503679 0.728620
vt 0.505086 0.599313
vt 0.505086 0.728620
vt 0.506492 0.599313
vt 0.506492 0.728620
vt 0.338809 0.630372
vt 0.338809 0.759679
vt 0.337402 0.759679
vt 0.337402 0.630372
vt 0.340216 0.630372
vt 0.340216 0.759679
vt 0.341623 0.630372
vt 0.341623 0.759679
vt 0.343029 0.630372
vt 0.343029 0.759679
vt 0.344436 0.759679
vt 0.344436 0.630372
vt 0.345843 0.759679
vt 0.345843 0.630372
vt 0.347250 0.759679
vt 0.347250 0.630372
vt 0.348657 0.759679
vt 0.348657 0.630372
vt 0.350063 0.759679
vt 0.350063 0.630372
vt 0.351470 0.759679
vt 0.351470 0.630372
vt 0.352877 0.759679
vt 0.352877 0.630372
vt 0.354284 0.759679
vt 0.354284 0.630372
vt 0.355691 0.759679
vt 0.355691 0.630372
vt 0.357098 0.759679
vt 0.357098 0.630372
vt 0.358504 0.759679
vt 0.358504 0.630372
vt 0.359911 0.759679
vt 0.359911 0.630372
vt 0.361318 0.759679
vt 0.361318 0.630372
vt 0.362725 0.759679
vt 0.362725 0.630372
vt 0.364132 0.759679
vt 0.364132 0.630372
vt 0.365538 0.759679
vt 0.365538 0.630372
vt 0.366945 0.630372
vt 0.366945 0.759679
vt 0.368352 0.630372
vt 0.368352 0.759679
vt 0.369759 0.630372
vt 0.369759 0.759679
vt 0.371166 0.630372
vt 0.371166 0.759679
vt 0.372572 0.630372
vt 0.372572 0.759679
vt 0.373979 0.630372
vt 0.373979 0.759679
vt 0.375386 0.630372
vt 0.375386 0.759679
vt 0.376793 0.630372
vt 0.376793 0.759679
vt 0.378200 0.630372
vt 0.378200 0.759679
vt 0.379606 0.630372
vt 0.379606 0.759679
vt 0.381013 0.630372
vt 0.381013 0.759679
vt 0.382420 0.630372
vt 0.382420 0.759679
vt 0.462881 0.741923
vt 0.462881 0.871231
vt 0.461475 0.871231
vt 0.461475 0.741923
vt 0.464288 0.741923
vt 0.464288 0.871231
vt 0.465695 0.741923
vt 0.465695 0.871231
vt 0.467102 0.741923
vt 0.467102 0.871231
vt 0.468509 0.871231
vt 0.468509 0.741923
vt 0.469915 0.871231
vt 0.469915 0.741923
vt 0.471322 0.741923
vt 0.471322 0.871231
vt 0.470171 0.741923
vt 0.472729 0.741923
vt 0.472729 0.871231
vt 0.471795 0.871231
vt 0.474136 0.871231
vt 0.474136 0.741923
vt 0.475543 0.871231
vt 0.475543 0.741923
vt 0.476949 0.871231
vt 0.476949 0.741923
vt 0.478356 0.871231
vt 0.478356 0.741923
vt 0.479763 0.871231
vt 0.479763 0.741923
vt 0.481170 0.871231
vt 0.481170 0.741923
vt 0.482577 0.871231
vt 0.482577 0.741923
vt 0.483983 0.871231
vt 0.483983 0.741923
vt 0.485390 0.871231
vt 0.485390 0.741923
vt 0.486797 0.871231
vt 0.486797 0.741923
vt 0.488204 0.871231
vt 0.488204 0.741923
vt 0.489611 0.871231
vt 0.489611 0.741923
vt 0.491018 0.741923
vt 0.491018 0.871231
vt 0.492424 0.741923
vt 0.492424 0.871231
vt 0.493831 0.741923
vt 0.493831 0.871231
vt 0.495238 0.741923
vt 0.495238 0.871231
vt 0.496645 0.741923
vt 0.496645 0.871231
vt 0.498052 0.741923
vt 0.498052 0.871231
vt 0.499458 0.741923
vt 0.499458 0.871231
vt 0.500865 0.741923
vt 0.500865 0.871231
vt 0.502272 0.741923
vt 0.502272 0.871231
vt 0.503679 0.741923
vt 0.503679 0.871231
vt 0.505086 0.741923
vt 0.505086 0.871231
vt 0.506492 0.741923
vt 0.506492 0.871231
vt 0.874718 0.006661
vt 0.874776 0.135885
vt 0.873370 0.135885
vt 0.873312 0.006662
vt 0.876124 0.006661
vt 0.876182 0.135884
vt 0.877530 0.006660
vt 0.877588 0.135883
vt 0.878936 0.006659
vt 0.878994 0.135883
vt 0.880400 0.135882
vt 0.880341 0.006659
vt 0.881806 0.135881
vt 0.881747 0.006658
vt 0.883212 0.135881
vt 0.883153 0.006657
vt 0.884618 0.135880
vt 0.884559 0.006657
vt 0.886023 0.135880
vt 0.885965 0.006656
vt 0.887429 0.135879
vt 0.887371 0.006655
vt 0.888835 0.135878
vt 0.888777 0.006655
vt 0.890241 0.135878
vt 0.890183 0.006654
vt 0.891589 0.006654
vt 0.891647 0.135877
vt 0.893053 0.135876
vt 0.892994 0.006653
vt 0.894459 0.135876
vt 0.894400 0.006652
vt 0.895865 0.135875
vt 0.895794 0.006652
vt 0.895923 0.006652
vt 0.897271 0.135876
vt 0.897329 0.006652
vt 0.898677 0.135876
vt 0.898735 0.006653
vt 0.900082 0.135877
vt 0.900141 0.006654
vt 0.901488 0.135878
vt 0.901367 0.006654
vt 0.901547 0.006654
vt 0.902953 0.006655
vt 0.902894 0.135878
vt 0.904359 0.006655
vt 0.904300 0.135879
vt 0.905765 0.006656
vt 0.905706 0.135880
vt 0.904778 0.135879
vt 0.907170 0.006657
vt 0.907112 0.135880
vt 0.908576 0.006657
vt 0.908518 0.135881
vt 0.909982 0.006658
vt 0.909924 0.135881
vt 0.911388 0.006659
vt 0.911330 0.135882
vt 0.912794 0.006659
vt 0.912735 0.135883
vt 0.914200 0.006660
vt 0.914141 0.135883
vt 0.915606 0.006661
vt 0.915547 0.135884
vt 0.917012 0.006661
vt 0.916953 0.135885
vt 0.918418 0.006662
vt 0.918359 0.135885
vt 0.934604 0.167096
vt 0.934604 0.258120
vt 0.921866 0.258120
vt 0.921866 0.167096
vt 0.903958 0.258120
vt 0.903958 0.167096
vt 0.891220 0.258120
vt 0.891220 0.167096
vt 0.873312 0.258120
vt 0.873312 0.167096
vt 0.903958 0.149189
vt 0.891220 0.149189
vt 0.903958 0.276028
vt 0.891220 0.276028
vt 0.976523 0.530333
vt 0.976523 0.585162
vt 0.959044 0.585162
vt 0.959044 0.530333
vt 0.948257 0.585162
vt 0.948257 0.530333
vt 0.930778 0.585162
vt 0.930778 0.530333
vt 0.919991 0.585162
vt 0.919991 0.530333
vt 0.948257 0.519546
vt 0.930778 0.519546
vt 0.948257 0.595949
vt 0.930778 0.595949
vt 0.448171 0.609916
vt 0.448171 0.881613
vt 0.439988 0.881613
vt 0.439988 0.609916
vt 0.429385 0.881613
vt 0.429385 0.609916
vt 0.421201 0.881613
vt 0.421201 0.609916
vt 0.410598 0.881613
vt 0.410598 0.609916
vt 0.429385 0.599313
vt 0.421201 0.599313
vt 0.429385 0.892217
vt 0.421201 0.892217
s 0
usemtl マテリアル
f 1/1/1 2/2/1 4/3/1 3/4/1
f 3/4/2 4/3/2 8/5/2 7/6/2
f 7/6/3 8/5/3 6/7/3 5/8/3
f 5/8/4 6/7/4 2/9/4 1/10/4
f 3/11/5 7/6/5 5/8/5 1/12/5
f 8/5/6 4/13/6 2/14/6 6/7/6
f 9/15/7 10/16/7 12/17/7 11/18/7
f 11/18/8 12/17/8 14/19/8 13/20/8
f 13/20/9 14/19/9 16/21/9 15/22/9
f 15/22/10 16/21/10 18/23/10 17/24/10
f 17/24/11 18/23/11 20/25/11 19/26/11
f 19/26/12 20/25/12 22/27/12 21/28/12
f 12/29/6 10/30/6 24/31/6 22/32/6 20/33/6 18/34/6 16/35/6 14/36/6
f 21/28/13 22/27/13 24/37/13 23/38/13
f 23/38/14 24/37/14 10/39/14 9/40/14
f 9/41/5 11/42/5 13/43/5 15/44/5 17/45/5 19/46/5 21/47/5 23/48/5
f 25/49/15 26/50/15 28/51/15 27/52/15
f 27/52/16 28/51/16 30/53/16 29/54/16
f 29/54/17 30/53/17 32/55/17 31/56/17
f 31/56/18 32/55/18 34/57/18 33/58/18
f 33/58/19 34/57/19 36/59/19 35/60/19
f 35/60/20 36/59/20 38/61/20 37/62/20
f 37/62/21 38/61/21 40/63/21 39/64/21
f 39/64/22 40/63/22 42/65/22 41/66/22
f 41/66/23 42/65/23 44/67/23 43/68/23
f 43/68/24 44/67/24 46/69/24 45/70/24
f 45/70/25 46/69/25 48/71/25 47/72/25
f 47/72/26 48/71/26 50/73/26 49/74/26
f 49/74/27 50/73/27 52/75/27 51/76/27
f 51/76/28 52/75/28 54/77/28 53/78/28
f 28/79/6 26/80/6 56/81/6 54/82/6 52/83/6 50/84/6 48/85/6 46/86/6 44/87/6 42/88/6 40/89/6 38/90/6 36/91/6 34/92/6 32/93/6 30/94/6
f 53/78/29 54/77/29 56/95/29 55/96/29
f 55/96/30 56/95/30 26/97/30 25/98/30
f 25/99/5 27/100/5 29/101/5 31/102/5 33/103/5 35/104/5 37/105/5 39/106/5 41/107/5 43/108/5 45/109/5 47/110/5 49/111/5 51/112/5 53/113/5 55/114/5
f 57/115/1 58/116/1 60/117/1 59/118/1
f 59/118/2 60/117/2 64/119/2 63/120/2
f 63/120/3 64/119/3 62/121/3 61/122/3
f 61/122/4 62/121/4 58/123/4 57/124/4
f 59/125/5 63/120/5 61/122/5 57/126/5
f 64/119/6 60/127/6 58/128/6 62/121/6
f 65/129/1 66/130/1 68/131/1 67/132/1
f 67/132/2 68/131/2 72/133/2 71/134/2
f 71/134/3 72/133/3 70/135/3 69/136/3
f 69/136/4 70/135/4 66/137/4 65/138/4
f 67/139/5 71/134/5 69/136/5 65/140/5
f 72/133/6 68/141/6 66/142/6 70/135/6
f 73/143/1 74/144/1 76/145/1 75/146/1
f 75/146/2 76/145/2 80/147/2 79/148/2
f 79/148/3 80/147/3 78/149/3 77/150/3
f 77/150/4 78/149/4 74/151/4 73/152/4
f 75/153/5 79/148/5 77/150/5 73/154/5
f 80/147/6 76/155/6 74/156/6 78/149/6
f 81/157/1 82/158/1 84/159/1 83/160/1
f 83/160/2 84/159/2 88/161/2 87/162/2
f 87/162/3 88/161/3 86/163/3 85/164/3
f 85/164/4 86/163/4 82/165/4 81/166/4
f 83/167/5 87/162/5 85/164/5 81/168/5
f 88/161/6 84/169/6 82/170/6 86/163/6
f 89/171/7 90/172/7 92/173/7 91/174/7
f 91/174/8 92/173/8 94/175/8 93/176/8
f 93/176/9 94/175/9 96/177/9 95/178/9
f 95/178/10 96/177/10 98/179/10 97/180/10
f 97/180/11 98/179/11 100/181/11 99/182/11
f 99/182/12 100/181/12 102/183/12 101/184/12
f 107/185/6 111/186/6 102/187/6 100/188/6 98/189/6 124/190/6 120/191/6 136/192/6 114/193/6 116/194/6 112/195/6 118/196/6 108/197/6 110/198/6 106/199/6 105/200/6
f 249/201/6 250/202/6 175/203/6 173/204/6 183/205/6 177/206/6 182/207/6 180/208/6 90/209/6 104/210/6 102/187/6 111/186/6 109/211/6 119/212/6 113/213/6 117/214/6 115/215/6 135/216/6 121/217/6 125/218/6 123/219/6 134/220/6 127/221/6 132/222/6 130/223/6 128/224/6 129/225/6 131/226/6 126/227/6 317/228/6 316/229/6 315/230/6 318/231/6 323/232/6 320/233/6 331/234/6 325/235/6 330/236/6 326/237/6 328/238/6 327/239/6 190/240/6 199/241/6 186/242/6 188/243/6 184/244/6 198/245/6 178/246/6 179/247/6 181/248/6 176/249/6 174/250/6 172/251/6 170/252/6 169/253/6 171/254/6 251/255/6 253/256/6 264/257/6 263/258/6 265/259/6 261/260/6 262/261/6 260/262/6 258/263/6 257/264/6 256/265/6 259/266/6 254/267/6 255/268/6 252/269/6 234/270/6 235/271/6 233/272/6 236/273/6 240/274/6 239/275/6 238/276/6 237/277/6 248/278/6 241/279/6 243/280/6 242/281/6 247/282/6 245/283/6 244/284/6 246/285/6
f 317/228/6 126/227/6 133/286/6 122/287/6 124/190/6 98/189/6 96/288/6 94/289/6 196/290/6 190/240/6 327/239/6 302/291/6 305/292/6 308/293/6 307/294/6 313/295/6 310/296/6 309/297/6 312/298/6 311/299/6 306/300/6 314/301/6 303/302/6 304/303/6 301/304/6 300/305/6 299/306/6 329/307/6 324/308/6 321/309/6 319/310/6 322/311/6
f 171/254/6 175/203/6 250/202/6 251/255/6
f 194/312/6 196/290/6 94/289/6 92/313/6 90/209/6 180/208/6 200/314/6 185/315/6 189/316/6 187/317/6 197/318/6 191/319/6 195/320/6 193/321/6 192/322/6
f 101/184/13 102/183/13 104/323/13 103/324/13
f 103/324/14 104/323/14 90/325/14 89/326/14
f 295/327/5 272/328/5 203/329/5 201/330/5 293/331/5
f 335/332/5 164/333/5 162/334/5 160/335/5 161/336/5 163/337/5 159/338/5 165/339/5 155/340/5 157/341/5 153/342/5 168/343/5 148/344/5 150/345/5 145/346/5 151/347/5 141/348/5 143/349/5 139/350/5 137/351/5 138/352/5 140/353/5 142/354/5 99/355/5 101/356/5 103/357/5 207/358/5 203/329/5 272/328/5 273/359/5 274/360/5 270/361/5 269/362/5 268/363/5 267/364/5 266/365/5 271/366/5 298/367/5 281/368/5 283/369/5 286/370/5 278/371/5 279/372/5 276/373/5 275/374/5 277/375/5 285/376/5 282/377/5 280/378/5 284/379/5 287/380/5 290/381/5 289/382/5 288/383/5 297/384/5 291/385/5 292/386/5 296/387/5 294/388/5 293/331/5 201/330/5 202/389/5 206/390/5 204/391/5 214/392/5 208/393/5 212/394/5 210/395/5 232/396/5 216/397/5 220/398/5 218/399/5 229/400/5 222/401/5 227/402/5 225/403/5 224/404/5 226/405/5 228/406/5 223/407/5 91/408/5 93/409/5 95/410/5 334/411/5 333/412/5 338/413/5 341/414/5 353/415/5 360/416/5 355/417/5 357/418/5 356/419/5 358/420/5 359/421/5 352/422/5 354/423/5 361/424/5 349/425/5 348/426/5 350/427/5 347/428/5 351/429/5 345/430/5 346/431/5 344/432/5 343/433/5 342/434/5 340/435/5 339/436/5 337/437/5 332/438/5 336/439/5
f 207/358/5 103/357/5 89/440/5 91/408/5 223/407/5 230/441/5 219/442/5 221/443/5 217/444/5 231/445/5 211/446/5 213/447/5 209/448/5 215/449/5 205/450/5
f 95/410/5 97/451/5 99/355/5 142/354/5 144/452/5 149/453/5 147/454/5 146/455/5 167/456/5 152/457/5 156/458/5 154/459/5 166/460/5 158/461/5 164/333/5 335/332/5 362/462/5 364/463/5 365/464/5 363/465/5 334/411/5
f 153/466/31 121/467/31 135/468/31 168/469/31
f 157/470/32 125/471/32 121/467/32 153/466/32
f 155/472/33 123/473/33 125/471/33 157/470/33
f 165/474/34 134/475/34 123/473/34 155/472/34
f 127/476/35 134/475/35 165/474/35 159/477/35
f 132/478/36 127/476/36 159/477/36 163/479/36
f 130/480/37 132/478/37 163/479/37 161/481/37
f 128/482/38 130/480/38 161/481/38 160/483/38
f 129/484/39 128/482/39 160/483/39 162/485/39
f 131/486/40 129/484/40 162/485/40 164/487/40
f 126/488/41 131/486/41 164/487/41 158/489/41
f 133/490/42 126/488/42 158/489/42 166/491/42
f 122/492/43 133/490/43 166/491/43 154/493/43
f 124/494/44 122/492/44 154/493/44 156/495/44
f 120/496/45 124/494/45 156/495/45 152/497/45
f 136/498/46 120/496/46 152/497/46 167/499/46
f 114/500/47 136/498/47 167/499/47 146/501/47
f 116/502/48 114/500/48 146/501/48 147/503/48
f 112/504/49 116/502/49 147/503/49 149/505/49
f 118/506/50 112/504/50 149/505/50 144/507/50
f 142/508/51 108/509/51 118/506/51 144/507/51
f 140/510/52 110/511/52 108/509/52 142/508/52
f 138/512/53 106/513/53 110/511/53 140/510/53
f 137/514/54 105/515/54 106/513/54 138/512/54
f 139/516/55 107/517/55 105/515/55 137/514/55
f 143/518/56 111/519/56 107/517/56 139/516/56
f 141/520/57 109/521/57 111/519/57 143/518/57
f 151/522/58 119/523/58 109/521/58 141/520/58
f 145/524/59 113/525/59 119/523/59 151/522/59
f 150/526/60 117/527/60 113/525/60 145/524/60
f 148/528/61 115/529/61 117/527/61 150/526/61
f 168/530/62 135/531/62 115/529/62 148/528/62
f 217/532/31 185/533/31 200/534/31 231/535/31
f 221/536/32 189/537/32 185/533/32 217/532/32
f 219/538/33 187/539/33 189/537/33 221/536/33
f 230/540/34 197/541/34 187/539/34 219/538/34
f 191/542/35 197/541/35 230/540/35 223/543/35
f 195/544/36 191/542/36 223/543/36 228/545/36
f 193/546/37 195/544/37 228/545/37 226/547/37
f 192/548/38 193/546/38 226/547/38 224/549/38
f 194/550/39 192/548/39 224/549/39 225/551/39
f 196/552/40 194/550/40 225/551/40 227/553/40
f 190/554/41 196/552/41 227/553/41 222/555/41
f 199/556/42 190/554/42 222/555/42 229/557/42
f 186/558/43 199/556/43 229/557/43 218/559/43
f 188/560/44 186/558/44 218/559/44 220/561/44
f 184/562/45 188/560/45 220/561/45 216/563/45
f 198/564/46 184/562/46 216/563/46 232/565/46
f 178/566/47 198/564/47 232/565/47 210/567/47
f 179/568/48 178/566/48 210/567/48 212/569/48
f 181/570/49 179/568/49 212/569/49 208/571/49
f 176/572/50 181/570/50 208/571/50 214/573/50
f 204/574/51 174/575/51 176/572/51 214/573/51
f 206/576/52 172/577/52 174/575/52 204/574/52
f 202/578/53 170/579/53 172/577/53 206/576/53
f 201/580/54 169/581/54 170/579/54 202/578/54
f 203/582/55 171/583/55 169/581/55 201/580/55
f 207/584/56 175/585/56 171/583/56 203/582/56
f 205/586/57 173/587/57 175/585/57 207/584/57
f 215/588/58 183/589/58 173/587/58 205/586/58
f 209/590/59 177/591/59 183/589/59 215/588/59
f 213/592/60 182/593/60 177/591/60 209/590/60
f 211/594/61 180/595/61 182/593/61 213/592/61
f 231/596/62 200/597/62 180/595/62 211/594/62
f 267/598/31 242/599/31 243/600/31 266/601/31
f 268/602/32 247/603/32 242/599/32 267/598/32
f 269/604/33 245/605/33 247/603/33 268/602/33
f 270/606/34 244/607/34 245/605/34 269/604/34
f 246/608/35 244/607/35 270/606/35 274/609/35
f 249/610/36 246/608/36 274/609/36 273/611/36
f 295/612/37 250/613/37 249/610/37 273/611/37 272/614/37
f 293/615/38 253/616/38 251/617/38 250/613/38 295/612/38
f 264/618/39 253/616/39 293/615/39 294/619/39
f 263/620/40 264/618/40 294/619/40 296/621/40
f 265/622/41 263/620/41 296/621/41 292/623/41
f 261/624/42 265/622/42 292/623/42 291/625/42
f 262/626/43 261/624/43 291/625/43 297/627/43
f 260/628/44 262/626/44 297/627/44 288/629/44
f 258/630/45 260/628/45 288/629/45 289/631/45
f 257/632/46 258/630/46 289/631/46 290/633/46
f 256/634/47 257/632/47 290/633/47 287/635/47
f 259/636/48 256/634/48 287/635/48 284/637/48
f 254/638/49 259/636/49 284/637/49 280/639/49
f 255/640/50 254/638/50 280/639/50 282/641/50
f 285/642/51 252/643/51 255/640/51 282/641/51
f 277/644/52 234/645/52 252/643/52 285/642/52
f 275/646/53 235/647/53 234/645/53 277/644/53
f 276/648/54 233/649/54 235/647/54 275/646/54
f 279/650/55 236/651/55 233/649/55 276/648/55
f 278/652/56 240/653/56 236/651/56 279/650/56
f 286/654/57 239/655/57 240/653/57 278/652/57
f 283/656/58 238/657/58 239/655/58 286/654/58
f 281/658/59 237/659/59 238/657/59 283/656/59
f 298/660/60 248/661/60 237/659/60 281/658/60
f 271/662/61 241/663/61 248/661/61 298/660/61
f 266/664/62 243/665/62 241/663/62 271/662/62
f 348/666/31 327/667/31 328/668/31 350/669/31
f 349/670/32 302/671/32 327/667/32 348/666/32
f 361/672/33 305/673/33 302/671/33 349/670/33
f 354/674/34 308/675/34 305/673/34 361/672/34
f 307/676/35 308/675/35 354/674/35 352/677/35
f 313/678/36 307/676/36 352/677/36 359/679/36
f 310/680/37 313/678/37 359/679/37 358/681/37
f 309/682/38 310/680/38 358/681/38 356/683/38
f 312/684/39 309/682/39 356/683/39 357/685/39
f 311/686/40 312/684/40 357/685/40 355/687/40
f 306/688/41 311/686/41 355/687/41 360/689/41
f 314/690/42 306/688/42 360/689/42 353/691/42
f 341/692/43 303/693/43 314/690/43 353/691/43
f 304/694/44 303/693/44 341/692/44 338/695/44
f 301/696/45 304/694/45 338/695/45 333/697/45
f 300/698/46 301/696/46 333/697/46 334/699/46 363/700/46
f 299/701/47 300/698/47 363/700/47 365/702/47
f 329/703/48 299/701/48 365/702/48 364/704/48
f 324/705/49 329/703/49 364/704/49 362/706/49
f 321/707/50 324/705/50 362/706/50 335/708/50 336/709/50
f 332/710/51 319/711/51 321/707/51 336/709/51
f 337/712/52 322/713/52 319/711/52 332/710/52
f 339/714/53 316/715/53 317/716/53 322/713/53 337/712/53
f 340/717/54 315/718/54 316/715/54 339/714/54
f 342/719/55 318/720/55 315/718/55 340/717/55
f 343/721/56 323/722/56 318/720/56 342/719/56
f 344/723/57 320/724/57 323/722/57 343/721/57
f 346/725/58 331/726/58 320/724/58 344/723/58
f 345/727/59 325/728/59 331/726/59 346/725/59
f 351/729/60 330/730/60 325/728/60 345/727/60
f 347/731/61 326/732/61 330/730/61 351/729/61
f 350/733/62 328/734/62 326/732/62 347/731/62
f 366/735/1 367/736/1 369/737/1 368/738/1
f 368/738/2 369/737/2 373/739/2 372/740/2
f 372/740/3 373/739/3 371/741/3 370/742/3
f 370/742/4 371/741/4 367/743/4 366/744/4
f 368/745/5 372/740/5 370/742/5 366/746/5
f 373/739/6 369/747/6 367/748/6 371/741/6
f 374/749/1 375/750/1 377/751/1 376/752/1
f 376/752/2 377/751/2 381/753/2 380/754/2
f 380/754/3 381/753/3 379/755/3 378/756/3
f 378/756/4 379/755/4 375/757/4 374/758/4
f 376/759/5 380/754/5 378/756/5 374/760/5
f 381/753/6 377/761/6 375/762/6 379/755/6
f 382/763/1 383/764/1 385/765/1 384/766/1
f 384/766/2 385/765/2 389/767/2 388/768/2
f 388/768/3 389/767/3 387/769/3 386/770/3
f 386/770/4 387/769/4 383/771/4 382/772/4
f 384/773/5 388/768/5 386/770/5 382/774/5
f 389/767/6 385/775/6 383/776/6 387/769/6
