# Blender 4.4.1
# www.blender.org
mtllib Enemy.mtl
o Cube
v 1.000000 2.000000 -1.000000
v 1.000000 -2.000000 -1.000000
v 1.000000 2.000000 1.000000
v 1.000000 -2.000000 1.000000
v -1.000000 2.000000 -1.000000
v -1.000000 -2.000000 -1.000000
v -1.000000 2.000000 1.000000
v -1.000000 -2.000000 1.000000
v 0.542747 0.728557 1.000000
v 0.542747 0.728557 1.980678
v -0.510210 0.728557 1.000000
v -0.510210 0.728557 1.980678
v 0.542747 1.495698 1.000000
v 0.542747 1.495698 1.980678
v -0.510210 1.495698 1.000000
v -0.510210 1.495698 1.980678
vn -0.0000 1.0000 -0.0000
vn -0.0000 -0.0000 1.0000
vn -1.0000 -0.0000 -0.0000
vn -0.0000 -1.0000 -0.0000
vn 1.0000 -0.0000 -0.0000
vn -0.0000 -0.0000 -1.0000
vt 0.666392 0.000275
vt 0.666392 0.333058
vt 0.333608 0.333058
vt 0.333608 0.000275
vt 0.999725 0.000275
vt 0.999725 0.333058
vt 0.666942 0.333058
vt 0.666942 0.000275
vt 0.333058 0.666392
vt 0.000275 0.666392
vt 0.000275 0.333608
vt 0.333058 0.333608
vt 0.000275 0.000275
vt 0.333058 0.000275
vt 0.333058 0.333058
vt 0.000275 0.333058
vt 0.999725 0.333608
vt 0.999725 0.666392
vt 0.666942 0.666392
vt 0.666942 0.333608
vt 0.666391 0.666392
vt 0.333608 0.666392
vt 0.333608 0.333608
vt 0.666391 0.333608
vt 0.327178 0.842145
vt 0.164002 0.842145
vt 0.164002 0.666942
vt 0.327178 0.666942
vt 0.456474 0.830118
vt 0.456474 0.666942
vt 0.520297 0.666942
vt 0.520297 0.830118
vt 0.163452 0.842145
vt 0.000275 0.842145
vt 0.000275 0.666942
vt 0.163452 0.666942
vt 0.520847 0.830118
vt 0.520847 0.666942
vt 0.584670 0.666942
vt 0.584670 0.830118
vt 0.455924 0.842145
vt 0.392101 0.842145
vt 0.392101 0.666942
vt 0.455924 0.666942
vt 0.327728 0.666942
vt 0.391551 0.666942
vt 0.391551 0.842145
vt 0.327728 0.842145
s 0
usemtl Material
f 1/1/1 5/2/1 7/3/1 3/4/1
f 4/5/2 3/6/2 7/7/2 8/8/2
f 8/9/3 7/10/3 5/11/3 6/12/3
f 6/13/4 2/14/4 4/15/4 8/16/4
f 2/17/5 1/18/5 3/19/5 4/20/5
f 6/21/6 5/22/6 1/23/6 2/24/6
f 9/25/4 10/26/4 12/27/4 11/28/4
f 11/29/3 12/30/3 16/31/3 15/32/3
f 15/33/1 16/34/1 14/35/1 13/36/1
f 13/37/5 14/38/5 10/39/5 9/40/5
f 11/41/6 15/42/6 13/43/6 9/44/6
f 16/45/2 12/46/2 10/47/2 14/48/2
