# Blender 4.4.1
# www.blender.org
mtllib iceCannon.mtl
o IceCannon
v 0.000000 3.032747 0.000000
v 0.512872 3.294914 0.314006
v -0.156567 3.345883 0.481871
v -0.506670 3.345886 0.000000
v -0.142147 3.260830 -0.608506
v 0.409905 3.345883 -0.297810
v 0.200736 3.904171 0.584788
v -0.409905 3.852561 0.297810
v -0.650980 3.924026 -0.271611
v 0.139070 3.901768 -0.495334
v 0.578394 3.768129 0.079154
v 0.014011 4.237195 0.057320
v -0.092027 3.117348 0.283235
v 0.240934 3.117348 0.175047
v 0.148908 3.301405 0.458284
v 0.481870 3.301406 0.000000
v 0.367202 3.124549 -0.153086
v -0.297813 3.117349 0.000000
v -0.389842 3.301406 0.283236
v -0.092027 3.117348 -0.283235
v -0.389842 3.301406 -0.283236
v 0.148908 3.301405 -0.458284
v 0.576108 3.599222 0.177392
v 0.538750 3.599222 -0.175048
v -0.038986 3.572727 0.606141
v 0.332966 3.599222 0.458287
v -0.538750 3.599222 0.175048
v -0.355171 3.522418 0.521936
v -0.332966 3.599222 -0.458287
v -0.538750 3.599222 -0.175048
v 0.475149 3.730696 -0.495506
v 0.000000 3.599222 -0.566474
v 0.389842 3.897038 0.283236
v -0.117102 3.939233 0.568528
v -0.481870 3.897038 0.000000
v -0.148908 3.897039 -0.458284
v 0.389842 3.897038 -0.283236
v 0.027711 4.267916 0.366816
v 0.356299 4.139703 0.118830
v -0.240934 4.081096 0.175047
v -0.240934 4.081096 -0.175047
v 0.225181 4.173207 -0.305567
v 0.000000 -0.246244 -1.448154
v 0.000000 0.246243 -1.448154
v 0.724077 -0.246244 -1.254138
v 0.724077 0.322431 -1.254138
v 1.254138 -0.246244 -0.724077
v 1.254138 0.246243 -0.724077
v 1.448154 -0.246244 0.000000
v 1.448154 0.468869 0.000000
v 1.380557 -0.355839 0.801523
v 1.254138 0.598057 0.724077
v 0.724077 -0.246244 1.254138
v 0.724077 0.246243 1.254138
v 0.000000 -0.246244 1.448154
v 0.000000 0.542603 1.448154
v -0.724077 -0.246244 1.254138
v -0.724077 0.246243 1.254138
v -1.254138 -0.246244 0.724077
v -1.254138 0.147688 0.724077
v -1.561508 -0.246244 0.000000
v -1.448154 0.246243 0.000000
v -1.254138 -0.246244 -0.724077
v -1.254138 0.289419 -0.724077
v -0.724077 -0.246244 -1.254138
v -0.724077 -0.019164 -1.254138
v 0.000000 0.173432 -0.948530
v 0.000000 0.496008 -0.948530
v 0.474265 0.173432 -0.821451
v 0.474265 0.496008 -0.821451
v 0.821451 0.173432 -0.474265
v 0.821451 0.496008 -0.474265
v 0.948530 0.173432 0.000000
v 0.948530 0.496008 0.000000
v 0.821451 0.173432 0.474265
v 0.821451 0.496008 0.474265
v 0.474265 0.173432 0.821451
v 0.474265 0.496008 0.821451
v 0.000000 0.173432 0.948530
v 0.000000 0.496008 0.948530
v -0.474265 0.173432 0.821451
v -0.474265 0.496008 0.821451
v -0.821451 0.173432 0.474265
v -0.821451 0.496008 0.474265
v -0.948530 0.173432 0.000000
v -0.948530 0.496008 0.000000
v -0.821451 0.173432 -0.474265
v -0.821451 0.496008 -0.474265
v -0.474265 0.173432 -0.821451
v -0.474265 0.496008 -0.821451
v -0.517112 0.556149 0.504111
v -0.517112 3.256204 0.504111
v -0.517112 0.556149 -0.504111
v -0.517112 3.137707 -0.504111
v 0.491110 0.556149 0.504111
v 0.491110 3.137707 0.504111
v 0.491110 0.556149 -0.504111
v 0.491110 2.941183 -0.504111
v 0.373419 0.313613 0.418791
v 0.373419 1.658539 0.418791
v 0.373419 0.313613 -0.418791
v 0.373419 1.658539 -0.418791
v 0.805054 0.313613 0.418791
v 0.805054 1.658539 0.179885
v 0.805054 0.313613 -0.418791
v 0.805054 1.937825 -0.015208
v -0.346985 1.293400 -0.373665
v -0.346985 1.987370 -0.373665
v -0.541563 1.172133 -0.535331
v -0.422518 2.183122 -0.721429
v 0.346985 1.293400 -0.373665
v 0.346985 1.987370 -0.373665
v 0.672825 1.197873 -0.653563
v 0.484873 2.506154 -0.649055
v -0.346985 1.640385 -0.373665
v -0.482041 1.677628 -0.628380
v 0.578849 1.852013 -0.651309
v 0.346985 1.640385 -0.373665
v -0.009518 1.024436 -0.731879
v -0.004874 2.461809 -0.636735
v 0.000000 1.293400 -0.373665
v 0.000000 1.987370 -0.373665
v 0.000000 1.640385 -0.373665
v -0.013075 1.555029 -0.727101
v -0.146424 1.140763 0.874920
v -0.382361 1.484399 0.708201
v -0.160397 1.163604 0.439427
v -0.160397 1.484399 0.439427
v 0.370483 1.004436 0.843472
v 0.228901 2.000569 0.665978
v 0.160397 1.163604 0.439427
v 0.160397 1.484399 0.439427
v -0.850657 0.313613 0.354620
v -0.850657 2.127004 0.179334
v -0.850657 0.313613 -0.249161
v -0.850657 1.658539 -0.086568
v -0.419021 0.313613 0.418791
v -0.419021 1.658539 0.418791
v -0.419021 0.313613 -0.418791
v -0.419021 1.658539 -0.418791
v 0.000000 -0.000000 -1.000000
v -0.500000 -0.000000 -0.866025
v -0.866025 -0.000000 -0.500000
v -1.000000 -0.000000 0.000000
v -0.866025 -0.000000 0.500000
v -0.500000 -0.000000 0.866025
v 0.000000 -0.000000 1.000000
v 0.500000 -0.000000 0.866025
v 0.866025 -0.000000 0.500000
v 1.000000 -0.000000 0.000000
v 0.866025 -0.000000 -0.500000
v 0.500000 -0.000000 -0.866025
v 0.386021 2.530898 -0.270800
v 0.386021 2.666298 -0.234519
v 0.386021 2.765418 -0.135400
v 0.386021 2.801698 0.000000
v 0.386021 2.765418 0.135400
v 0.386021 2.666298 0.234519
v 0.386021 2.530898 0.270800
v 0.386021 2.395498 0.234519
v 0.386021 2.296379 0.135400
v 0.386021 2.260098 0.000000
v 0.386021 2.296379 -0.135400
v 0.386021 2.395498 -0.234519
v 0.386021 2.530898 -0.382686
v 0.386021 2.722241 -0.331416
v 0.386021 2.862314 -0.191343
v 0.386021 2.913584 0.000000
v 0.386021 2.862314 0.191343
v 0.386021 2.722241 0.331416
v 0.386021 2.530898 0.382686
v 0.386021 2.339555 0.331416
v 0.386021 2.199482 0.191343
v 0.386021 2.148212 0.000000
v 0.386021 2.199482 -0.191343
v 0.386021 2.339555 -0.331416
v 0.386021 2.488921 -0.643968
v 0.386021 2.889235 -0.536704
v 0.386021 3.067602 -0.358337
v 0.386021 3.174866 0.041977
v 0.386021 3.109579 0.285631
v 0.386021 2.816529 0.578681
v 0.386021 2.572875 0.643968
v 0.386021 2.172561 0.536704
v 0.386021 1.994194 0.358337
v 0.386021 1.886930 -0.041977
v 0.386021 1.952218 -0.285631
v 0.386021 2.245267 -0.578681
v 0.386021 2.488921 -0.643968
v 0.386021 2.889235 -0.536704
v 0.386021 3.067602 -0.358337
v 0.386021 3.174866 0.041977
v 0.386021 3.109579 0.285631
v 0.386021 2.816529 0.578681
v 0.386021 2.572875 0.643968
v 0.386021 2.172561 0.536704
v 0.386021 1.994194 0.358337
v 0.386021 1.886930 -0.041977
v 0.386021 1.952218 -0.285631
v 0.386021 2.245267 -0.578681
v 0.695889 2.666298 -0.234519
v 0.695889 2.530898 -0.270800
v 0.695889 2.765417 -0.135400
v 0.695889 2.801698 -0.000000
v 0.695889 2.765417 0.135400
v 0.695889 2.666298 0.234519
v 0.695889 2.530898 0.270800
v 0.695889 2.395498 0.234519
v 0.695889 2.296379 0.135400
v 0.695889 2.260098 -0.000000
v 0.695889 2.296379 -0.135400
v 0.695889 2.395498 -0.234519
v 0.695889 2.722241 -0.331416
v 0.695889 2.530898 -0.382686
v 0.695889 2.862314 -0.191343
v 0.695889 2.913584 0.000000
v 0.695889 2.862314 0.191343
v 0.695889 2.722241 0.331416
v 0.695889 2.530898 0.382686
v 0.695889 2.339555 0.331416
v 0.695889 2.199482 0.191343
v 0.695889 2.148212 0.000000
v 0.695889 2.199482 -0.191343
v 0.695889 2.339555 -0.331416
v 0.695889 3.067602 -0.358337
v 0.695889 2.889235 -0.536704
v 0.695889 3.109579 0.285631
v 0.695889 3.174866 0.041977
v 0.695889 2.572875 0.643968
v 0.695889 2.816529 0.578681
v 0.695889 1.994194 0.358337
v 0.695889 2.172561 0.536704
v 0.695889 1.952218 -0.285631
v 0.695889 1.886930 -0.041977
v 0.695889 2.488921 -0.643968
v 0.695889 2.245267 -0.578681
v 0.695889 3.067602 -0.358337
v 0.695889 2.889235 -0.536704
v 0.695889 3.109579 0.285631
v 0.695889 3.174866 0.041977
v 0.695889 2.572875 0.643968
v 0.695889 2.816529 0.578681
v 0.695889 1.994194 0.358337
v 0.695889 2.172561 0.536704
v 0.695889 1.952218 -0.285631
v 0.695889 1.886930 -0.041977
v 0.695889 2.488921 -0.643968
v 0.695889 2.245267 -0.578681
v -0.828724 2.530898 -0.270800
v -0.828724 2.666298 -0.234519
v -0.828724 2.765418 -0.135400
v -0.828724 2.801698 0.000000
v -0.828724 2.765418 0.135400
v -0.828724 2.666298 0.234519
v -0.828724 2.530898 0.270800
v -0.828724 2.395498 0.234519
v -0.828724 2.296379 0.135400
v -0.828724 2.260098 0.000000
v -0.828724 2.296379 -0.135400
v -0.828724 2.395498 -0.234519
v -0.828724 2.530898 -0.382686
v -0.828724 2.722241 -0.331416
v -0.828724 2.862314 -0.191343
v -0.828724 2.913584 0.000000
v -0.828724 2.862314 0.191343
v -0.828724 2.722241 0.331416
v -0.828724 2.530898 0.382686
v -0.828724 2.339555 0.331416
v -0.828724 2.199482 0.191343
v -0.828724 2.148212 0.000000
v -0.828724 2.199482 -0.191343
v -0.828724 2.339555 -0.331416
v -0.828724 2.488921 -0.643968
v -0.828724 2.889235 -0.536704
v -0.828724 3.067602 -0.358337
v -0.828724 3.174866 0.041977
v -0.828724 3.109579 0.285631
v -0.828724 2.816529 0.578681
v -0.828724 2.572875 0.643968
v -0.828724 2.172561 0.536704
v -0.828724 1.994194 0.358337
v -0.828724 1.886930 -0.041977
v -0.828724 1.952218 -0.285631
v -0.828724 2.245267 -0.578681
v -0.828724 2.488921 -0.643968
v -0.828724 2.889235 -0.536704
v -0.828724 3.067602 -0.358337
v -0.828724 3.174866 0.041977
v -0.828724 3.109579 0.285631
v -0.828724 2.816529 0.578681
v -0.828724 2.572875 0.643968
v -0.828724 2.172561 0.536704
v -0.828724 1.994194 0.358337
v -0.828724 1.886930 -0.041977
v -0.828724 1.952218 -0.285631
v -0.828724 2.245267 -0.578681
v -0.518855 2.666298 -0.234519
v -0.518855 2.530898 -0.270800
v -0.518855 2.765417 -0.135400
v -0.518855 2.801698 -0.000000
v -0.518855 2.765417 0.135400
v -0.518855 2.666298 0.234519
v -0.518855 2.530898 0.270800
v -0.518855 2.395498 0.234519
v -0.518855 2.296379 0.135400
v -0.518855 2.260098 -0.000000
v -0.518855 2.296379 -0.135400
v -0.518855 2.395498 -0.234519
v -0.518855 2.722241 -0.331416
v -0.518855 2.530898 -0.382686
v -0.518855 2.862314 -0.191343
v -0.518855 2.913584 0.000000
v -0.518855 2.862314 0.191343
v -0.518855 2.722241 0.331416
v -0.518855 2.530898 0.382686
v -0.518855 2.339555 0.331416
v -0.518855 2.199482 0.191343
v -0.518855 2.148212 0.000000
v -0.518855 2.199482 -0.191343
v -0.518855 2.339555 -0.331416
v -0.518855 3.067602 -0.358337
v -0.518855 2.889235 -0.536704
v -0.518855 3.109579 0.285631
v -0.518855 3.174866 0.041977
v -0.518855 2.572875 0.643968
v -0.518855 2.816529 0.578681
v -0.518855 1.994194 0.358337
v -0.518855 2.172561 0.536704
v -0.518855 1.952218 -0.285631
v -0.518855 1.886930 -0.041977
v -0.518855 2.488921 -0.643968
v -0.518855 2.245267 -0.578681
v -0.518855 3.067602 -0.358337
v -0.518855 2.889235 -0.536704
v -0.518855 3.109579 0.285631
v -0.518855 3.174866 0.041977
v -0.518855 2.572875 0.643968
v -0.518855 2.816529 0.578681
v -0.518855 1.994194 0.358337
v -0.518855 2.172561 0.536704
v -0.518855 1.952218 -0.285631
v -0.518855 1.886930 -0.041977
v -0.518855 2.488921 -0.643968
v -0.518855 2.245267 -0.578681
vn 0.1024 -0.9435 0.3151
vn 0.5713 -0.8175 -0.0733
vn -0.2680 -0.9435 0.1947
vn -0.2680 -0.9435 -0.1947
vn 0.1042 -0.9432 -0.3156
vn 0.9642 -0.2454 -0.1003
vn -0.0021 -0.4796 0.8775
vn -0.8897 -0.3304 0.3151
vn -0.7924 -0.1895 -0.5798
vn 0.5209 -0.4583 -0.7202
vn 0.7491 0.1354 0.6484
vn -0.1755 -0.4015 0.8989
vn -0.9921 -0.1256 -0.0000
vn -0.2999 0.2407 -0.9231
vn 0.9003 -0.3097 -0.3058
vn 0.6944 0.5830 0.4217
vn -0.5988 0.6746 0.4317
vn -0.4049 0.8501 0.3366
vn -0.1123 0.5930 -0.7973
vn 0.8209 0.5166 -0.2433
vn 0.2754 0.9613 -0.0092
vn 0.8452 0.4859 -0.2228
vn 0.6174 0.3097 -0.7231
vn -0.2684 0.9098 -0.3166
vn -0.3120 0.7471 -0.5869
vn -0.1709 0.7999 -0.5753
vn -0.5222 0.8528 -0.0000
vn -0.6071 0.7947 -0.0000
vn -0.7002 0.6617 0.2680
vn -0.5410 0.8389 -0.0593
vn -0.7015 0.5709 0.4266
vn 0.0135 0.5187 0.8549
vn 0.2901 0.9510 -0.1072
vn 0.6388 0.4901 0.5931
vn 0.7833 0.4192 0.4589
vn 0.8831 0.3154 -0.3473
vn 0.8934 0.4492 0.0070
vn 0.4029 0.7920 -0.4587
vn -0.1270 0.2820 -0.9510
vn -0.3035 0.1876 -0.9342
vn -0.3314 0.2048 -0.9210
vn -0.8467 -0.1400 0.5133
vn -0.9822 0.1876 -0.0000
vn -0.9050 0.3304 0.2680
vn -0.6922 0.3233 0.6452
vn -0.2635 0.0427 0.9637
vn -0.0406 0.0934 0.9948
vn 0.8395 0.1471 0.5230
vn 0.7352 0.2336 0.6364
vn 0.7877 0.3017 0.5371
vn 0.0944 0.1865 -0.9779
vn 0.2081 -0.2404 -0.9481
vn 0.4664 -0.0866 -0.8803
vn -0.7366 -0.4136 -0.5352
vn -0.7947 -0.1876 -0.5773
vn -0.8897 -0.3304 -0.3151
vn -0.8489 0.1933 0.4920
vn -0.8707 -0.2914 0.3963
vn -0.4300 -0.6305 0.6462
vn 0.3740 -0.2123 0.9028
vn 0.3736 -0.2309 0.8984
vn 0.3561 -0.2201 0.9082
vn 0.9917 -0.0746 -0.1051
vn 0.9643 -0.2443 -0.1022
vn 0.9050 -0.3304 -0.2680
vn 0.5061 -0.5383 -0.6739
vn 0.1784 -0.7906 -0.5857
vn 0.3357 -0.8417 -0.4230
vn -0.5043 -0.8161 -0.2823
vn -0.4911 -0.7947 -0.3568
vn -0.7240 -0.6617 -0.1947
vn -0.7240 -0.6617 0.1947
vn -0.4911 -0.7947 0.3568
vn -0.4089 -0.6617 0.6284
vn 0.8976 -0.3491 -0.2690
vn 0.6967 -0.6711 0.2534
vn 0.2748 -0.9578 0.0847
vn -0.0385 -0.6617 0.7488
vn 0.1876 -0.7947 0.5773
vn 0.2161 -0.7851 0.5804
vn 0.2588 -0.0000 -0.9659
vn 0.7071 -0.0000 -0.7071
vn 0.9659 -0.0000 -0.2588
vn 0.9825 0.0822 0.1674
vn 0.6232 0.0960 0.7761
vn 0.2588 -0.0000 0.9659
vn -0.2588 -0.0000 0.9659
vn -0.7071 -0.0000 0.7071
vn -0.9356 0.1196 0.3321
vn -0.9408 0.1037 -0.3226
vn -0.0854 0.9942 -0.0647
vn -0.7071 -0.0000 -0.7071
vn -0.2588 -0.0000 -0.9659
vn -0.0106 -0.9999 -0.0061
vn 0.9659 -0.0000 0.2588
vn 0.7071 -0.0000 0.7071
vn -0.9659 -0.0000 0.2588
vn -0.9659 -0.0000 -0.2588
vn -0.0000 1.0000 -0.0000
vn -0.0000 -1.0000 -0.0000
vn -1.0000 -0.0000 -0.0000
vn -0.0000 -0.0000 -1.0000
vn 1.0000 -0.0000 -0.0000
vn -0.0000 -0.0000 1.0000
vn 0.1525 0.9765 -0.1525
vn 0.3870 0.1242 -0.9137
vn 0.2657 0.0853 0.9603
vn -0.3405 0.9076 0.2455
vn -0.9256 0.1043 0.3639
vn 0.0392 0.0613 -0.9973
vn 0.7826 0.0721 0.6184
vn 0.1014 -0.8414 0.5309
vn -0.3062 0.6209 0.7216
vn 0.6989 0.0640 0.7124
vn 0.1145 0.0153 -0.9933
vn -0.7900 0.1208 0.6011
vn -0.2984 -0.0650 -0.9522
vn -0.0124 0.4778 0.8784
vn -0.0001 -0.7997 0.6003
vn -0.0156 -0.0012 -0.9999
vn -0.8829 -0.3820 -0.2731
vn 0.9053 0.0403 -0.4228
vn -0.0188 0.2438 0.9696
vn -0.1645 -0.9722 -0.1669
vn -0.3588 0.5886 -0.7245
vn -0.5019 0.0522 -0.8634
vn -0.3057 0.0528 0.9507
vn 0.4160 0.8370 -0.3554
vn -0.0000 0.7757 0.6310
vn -0.0000 -0.9659 0.2588
vn -0.0000 0.7071 0.7071
vn -0.0000 -0.6310 -0.7757
vn -0.0000 -0.9659 -0.2588
vn -0.0000 0.9344 -0.3563
vn -0.0000 -0.7071 -0.7071
vn -0.0000 -0.9873 0.1586
vn -0.0000 -0.2588 -0.9659
vn -0.0000 0.1586 -0.9873
vn -0.0000 -0.2588 0.9659
vn -0.0000 -0.3563 0.9344
vn -0.0000 0.2588 -0.9659
vn -0.0000 -0.7071 0.7071
vn -0.0000 0.7071 -0.7071
vn -0.0000 -0.7757 -0.6310
vn -0.0000 0.9659 -0.2588
vn -0.0000 0.6310 0.7757
vn -0.0000 0.9659 0.2588
vn -0.0000 -0.9344 0.3563
vn -0.0000 0.9873 -0.1586
vn -0.0000 0.2588 0.9659
vn -0.0000 -0.1586 0.9873
vn -0.0000 0.3563 -0.9344
vt 0.397289 0.289041
vt 0.424438 0.273368
vt 0.424438 0.304713
vt 0.451581 0.257695
vt 0.424438 0.242022
vt 0.451581 0.226350
vt 0.397289 0.038277
vt 0.424438 0.022605
vt 0.424438 0.053950
vt 0.397289 0.100968
vt 0.424438 0.085295
vt 0.424438 0.116641
vt 0.397289 0.163659
vt 0.424438 0.147986
vt 0.424438 0.179332
vt 0.478731 0.242022
vt 0.451581 0.320386
vt 0.451581 0.289041
vt 0.478731 0.304713
vt 0.451581 0.069623
vt 0.451581 0.038277
vt 0.478731 0.053950
vt 0.451581 0.132314
vt 0.451581 0.100968
vt 0.478731 0.116641
vt 0.451581 0.195004
vt 0.451581 0.163659
vt 0.478731 0.179332
vt 0.478731 0.273368
vt 0.478731 0.336059
vt 0.478731 0.085295
vt 0.478731 0.147986
vt 0.478731 0.210677
vt 0.505867 0.289041
vt 0.505873 0.257695
vt 0.533023 0.273368
vt 0.505873 0.351732
vt 0.505873 0.320386
vt 0.533023 0.336059
vt 0.505867 0.100968
vt 0.505873 0.069623
vt 0.533023 0.085295
vt 0.505867 0.163659
vt 0.505873 0.132314
vt 0.533023 0.147986
vt 0.505867 0.226350
vt 0.505873 0.195004
vt 0.533023 0.210677
vt 0.533023 0.179332
vt 0.560166 0.195004
vt 0.533023 0.116641
vt 0.560166 0.132314
vt 0.533023 0.053950
vt 0.560166 0.069623
vt 0.505873 0.038277
vt 0.533023 0.304713
vt 0.560166 0.320386
vt 0.533023 0.242022
vt 0.560166 0.257695
vt 0.478731 0.022605
vt 0.451581 0.006932
vt 0.424438 0.210677
vt 0.397289 0.226350
vt 0.235590 0.817701
vt 0.235590 0.677962
vt 0.258880 0.677962
vt 0.258880 0.817701
vt 0.282170 0.677962
vt 0.282170 0.817701
vt 0.305460 0.677962
vt 0.305460 0.817701
vt 0.328751 0.677969
vt 0.328751 0.817701
vt 0.352041 0.677962
vt 0.352041 0.817701
vt 0.375331 0.677962
vt 0.375331 0.817701
vt 0.398621 0.677969
vt 0.398621 0.817701
vt 0.421911 0.677962
vt 0.421911 0.817701
vt 0.445201 0.677969
vt 0.445201 0.817701
vt 0.468491 0.677962
vt 0.468491 0.817701
vt 0.743098 0.901876
vt 0.684248 0.867905
vt 0.650271 0.809049
vt 0.650271 0.741099
vt 0.684248 0.682243
vt 0.743098 0.648265
vt 0.811053 0.648265
vt 0.869902 0.682243
vt 0.903881 0.741092
vt 0.903880 0.809049
vt 0.869902 0.867905
vt 0.811053 0.901876
vt 0.491782 0.677962
vt 0.491782 0.817701
vt 0.515072 0.677962
vt 0.515072 0.817701
vt 0.916516 0.318822
vt 0.858561 0.285359
vt 0.791637 0.285361
vt 0.733688 0.318816
vt 0.700223 0.376773
vt 0.700223 0.443695
vt 0.733683 0.501651
vt 0.791638 0.535113
vt 0.858562 0.535113
vt 0.916512 0.501657
vt 0.949977 0.443700
vt 0.949977 0.376779
vt 0.006525 0.009044
vt 0.092192 0.009044
vt 0.092192 0.023322
vt 0.006525 0.023322
vt 0.092192 0.037599
vt 0.006525 0.037599
vt 0.092192 0.051877
vt 0.006525 0.051877
vt 0.092192 0.066155
vt 0.006525 0.066155
vt 0.092192 0.080432
vt 0.006525 0.080432
vt 0.092192 0.094710
vt 0.006525 0.094710
vt 0.092192 0.108988
vt 0.006525 0.108988
vt 0.092192 0.123265
vt 0.006525 0.123265
vt 0.092192 0.137543
vt 0.006525 0.137543
vt 0.092192 0.151820
vt 0.006525 0.151820
vt 0.105530 0.935128
vt 0.105530 0.891981
vt 0.127102 0.854612
vt 0.164472 0.833044
vt 0.207617 0.833040
vt 0.244982 0.854614
vt 0.266555 0.891979
vt 0.266555 0.935126
vt 0.244983 0.972495
vt 0.207616 0.994068
vt 0.164468 0.994066
vt 0.127099 0.972487
vt 0.092192 0.166098
vt 0.006525 0.166098
vt 0.092192 0.180375
vt 0.006525 0.180375
vt 0.527928 0.826558
vt 0.506359 0.863924
vt 0.506359 0.907070
vt 0.527928 0.944436
vt 0.565294 0.966009
vt 0.608446 0.966010
vt 0.645812 0.944436
vt 0.667388 0.907069
vt 0.667382 0.863924
vt 0.645812 0.826558
vt 0.608446 0.804985
vt 0.565294 0.804984
vt 0.132225 0.006919
vt 0.258506 0.006919
vt 0.258506 0.133206
vt 0.132225 0.133206
vt 0.258513 0.259492
vt 0.132225 0.259492
vt 0.258513 0.385779
vt 0.132225 0.385779
vt 0.258506 0.512065
vt 0.132225 0.512065
vt 0.005938 0.259492
vt 0.005938 0.385779
vt 0.384801 0.259492
vt 0.384801 0.385779
vt 0.432148 0.637389
vt 0.432148 0.566297
vt 0.503234 0.566297
vt 0.503234 0.637389
vt 0.574319 0.566297
vt 0.574320 0.637389
vt 0.645405 0.566297
vt 0.645405 0.637389
vt 0.716491 0.566297
vt 0.716491 0.637389
vt 0.574320 0.708474
vt 0.645405 0.708474
vt 0.574320 0.495211
vt 0.645405 0.495211
vt 0.737697 0.268559
vt 0.705020 0.268559
vt 0.705014 0.203201
vt 0.737690 0.203201
vt 0.737690 0.170522
vt 0.705014 0.170523
vt 0.705014 0.137844
vt 0.737690 0.137844
vt 0.705027 0.072488
vt 0.737690 0.072488
vt 0.737690 0.039808
vt 0.705014 0.039809
vt 0.705020 0.007130
vt 0.737703 0.007130
vt 0.803056 0.137844
vt 0.770380 0.137844
vt 0.770380 0.072487
vt 0.803056 0.072487
vt 0.672344 0.137844
vt 0.639668 0.137844
vt 0.639668 0.072487
vt 0.672344 0.072487
vt 0.770373 0.039809
vt 0.770380 0.007130
vt 0.770380 0.170523
vt 0.770380 0.268559
vt 0.770373 0.203201
vt 0.835739 0.137844
vt 0.835739 0.072487
vt 0.007424 0.792509
vt 0.007424 0.751270
vt 0.048658 0.751270
vt 0.048658 0.792516
vt 0.089891 0.751270
vt 0.089891 0.792509
vt 0.131125 0.751270
vt 0.131125 0.792509
vt 0.172359 0.751270
vt 0.172359 0.792509
vt 0.089891 0.833735
vt 0.131125 0.833735
vt 0.089891 0.710038
vt 0.131125 0.710038
vt 0.006062 0.665899
vt 0.006062 0.595265
vt 0.076697 0.595265
vt 0.076697 0.665899
vt 0.147331 0.595265
vt 0.147331 0.665899
vt 0.217966 0.595265
vt 0.217966 0.665892
vt 0.288600 0.595265
vt 0.288600 0.665899
vt 0.147331 0.736532
vt 0.217966 0.736532
vt 0.147331 0.524625
vt 0.217966 0.524625
vt 0.521047 0.503537
vt 0.514542 0.494038
vt 0.533766 0.487267
vt 0.534650 0.498745
vt 0.381573 0.524701
vt 0.383367 0.509957
vt 0.407759 0.519781
vt 0.398834 0.531652
vt 0.443352 0.539122
vt 0.433819 0.522901
vt 0.465927 0.514031
vt 0.466072 0.532845
vt 0.312146 0.511874
vt 0.313595 0.497296
vt 0.337861 0.506453
vt 0.329318 0.518354
vt 0.541098 0.501911
vt 0.562170 0.481439
vt 0.561197 0.497787
vt 0.472228 0.527270
vt 0.491455 0.509322
vt 0.490292 0.523938
vt 0.342485 0.520992
vt 0.364843 0.505207
vt 0.361579 0.520110
vt 0.270941 0.469873
vt 0.276167 0.460088
vt 0.290507 0.473508
vt 0.281089 0.479370
vt 0.503168 0.519684
vt 0.519506 0.508868
vt 0.364959 0.516007
vt 0.378067 0.519369
vt 0.409866 0.534455
vt 0.428307 0.536663
vt 0.280904 0.489582
vt 0.297241 0.506415
vt 0.312372 0.467073
vt 0.312478 0.467245
vt 0.538925 0.466525
vt 0.539669 0.466957
vt 0.499056 0.482557
vt 0.499092 0.482827
vt 0.450880 0.496122
vt 0.450955 0.495853
vt 0.397929 0.496917
vt 0.398362 0.497653
vt 0.358204 0.487733
vt 0.357994 0.488126
vt 0.397946 0.496868
vt 0.398303 0.497592
vt 0.312418 0.467073
vt 0.312447 0.467270
vt 0.499008 0.482553
vt 0.499101 0.482799
vt 0.358142 0.487681
vt 0.358034 0.488092
vt 0.538916 0.466497
vt 0.539741 0.466898
vt 0.450930 0.496147
vt 0.450936 0.495892
vt 0.499050 0.452330
vt 0.517015 0.442368
vt 0.524147 0.455741
vt 0.504171 0.465706
vt 0.395866 0.466049
vt 0.416529 0.466093
vt 0.415699 0.480494
vt 0.392805 0.480413
vt 0.437891 0.467343
vt 0.459246 0.462242
vt 0.461585 0.476130
vt 0.439274 0.482344
vt 0.338142 0.448415
vt 0.356099 0.457254
vt 0.351172 0.469378
vt 0.332185 0.460375
vt 0.531979 0.430327
vt 0.543988 0.437909
vt 0.478990 0.456992
vt 0.482433 0.470492
vt 0.375910 0.463172
vt 0.371605 0.476636
vt 0.307802 0.429941
vt 0.320671 0.440818
vt 0.313191 0.451606
vt 0.298084 0.436439
vt 0.312648 0.467369
vt 0.312749 0.467118
vt 0.539666 0.466157
vt 0.539369 0.465450
vt 0.499262 0.482581
vt 0.499119 0.482295
vt 0.450779 0.496075
vt 0.450706 0.496342
vt 0.398698 0.497060
vt 0.398956 0.496328
vt 0.358433 0.487929
vt 0.358539 0.487446
vt 0.398736 0.497129
vt 0.398815 0.496399
vt 0.312649 0.467358
vt 0.312733 0.467104
vt 0.499290 0.482574
vt 0.499131 0.482333
vt 0.358482 0.487956
vt 0.358512 0.487506
vt 0.539811 0.466110
vt 0.539304 0.465552
vt 0.450728 0.496053
vt 0.450728 0.496301
vt 0.354169 0.412659
vt 0.369006 0.418187
vt 0.384651 0.421723
vt 0.400830 0.423961
vt 0.417478 0.424498
vt 0.434456 0.423599
vt 0.451186 0.421107
vt 0.467753 0.416903
vt 0.483982 0.411878
vt 0.499085 0.405553
vt 0.513310 0.397916
vt 0.325488 0.397916
vt 0.339975 0.405916
vt 0.625474 0.317218
vt 0.640279 0.315720
vt 0.639489 0.337966
vt 0.624348 0.338064
vt 0.602810 0.222107
vt 0.613306 0.215225
vt 0.620559 0.233101
vt 0.609670 0.238783
vt 0.615541 0.256486
vt 0.628593 0.251697
vt 0.634365 0.272858
vt 0.621595 0.275624
vt 0.609534 0.404481
vt 0.624627 0.410181
vt 0.611658 0.436136
vt 0.598870 0.424142
vt 0.635480 0.361098
vt 0.620563 0.359214
vt 0.637164 0.293431
vt 0.623734 0.296164
vt 0.582865 0.195601
vt 0.587966 0.185158
vt 0.604144 0.199543
vt 0.594421 0.207039
vt 0.634206 0.384606
vt 0.618312 0.381666
vt 0.648450 0.399676
vt 0.648670 0.399663
vt 0.653780 0.350191
vt 0.653508 0.350282
vt 0.655516 0.306938
vt 0.655001 0.306920
vt 0.646272 0.256600
vt 0.646201 0.256540
vt 0.628741 0.217361
vt 0.628578 0.217340
vt 0.611133 0.186461
vt 0.610546 0.186736
vt 0.628746 0.217322
vt 0.628621 0.217327
vt 0.648414 0.399667
vt 0.648678 0.399708
vt 0.655541 0.306855
vt 0.655026 0.306993
vt 0.611113 0.186348
vt 0.610637 0.186783
vt 0.653748 0.350178
vt 0.653541 0.350260
vt 0.646290 0.256574
vt 0.646215 0.256557
vt 0.682742 0.325275
vt 0.680949 0.339469
vt 0.669635 0.341020
vt 0.672168 0.320960
vt 0.646595 0.197572
vt 0.657505 0.208814
vt 0.651091 0.219548
vt 0.635673 0.203661
vt 0.674887 0.234411
vt 0.686438 0.252128
vt 0.675165 0.264693
vt 0.658842 0.239657
vt 0.684431 0.429384
vt 0.678773 0.450864
vt 0.661043 0.450938
vt 0.669040 0.420584
vt 0.684214 0.342317
vt 0.687372 0.360381
vt 0.674097 0.366547
vt 0.690812 0.266743
vt 0.693404 0.286342
vt 0.678829 0.292390
vt 0.633745 0.166262
vt 0.639105 0.181623
vt 0.628370 0.188928
vt 0.620795 0.167222
vt 0.686565 0.372846
vt 0.682985 0.389977
vt 0.669038 0.390756
vt 0.693443 0.300201
vt 0.688729 0.320418
vt 0.637475 0.187098
vt 0.642644 0.197523
vt 0.663195 0.218259
vt 0.668680 0.232489
vt 0.685312 0.395115
vt 0.685314 0.416222
vt 0.648875 0.399561
vt 0.648319 0.399217
vt 0.653666 0.350322
vt 0.653818 0.350303
vt 0.655524 0.307581
vt 0.655979 0.307123
vt 0.646281 0.256614
vt 0.646383 0.256649
vt 0.628710 0.217364
vt 0.628875 0.217427
vt 0.611496 0.187016
vt 0.611760 0.186411
vt 0.628694 0.217344
vt 0.628827 0.217407
vt 0.648840 0.399489
vt 0.648383 0.399253
vt 0.655495 0.307560
vt 0.655957 0.307155
vt 0.611455 0.187054
vt 0.611730 0.186439
vt 0.653668 0.350350
vt 0.653815 0.350309
vt 0.646269 0.256633
vt 0.646360 0.256639
vt 0.556626 0.405308
vt 0.564438 0.386872
vt 0.563599 0.224332
vt 0.556626 0.212855
vt 0.569470 0.236890
vt 0.574275 0.250661
vt 0.578090 0.265507
vt 0.580752 0.281280
vt 0.582012 0.297857
vt 0.581797 0.314897
vt 0.579909 0.332200
vt 0.576388 0.350026
vt 0.571329 0.368152
s 0
usemtl マテリアル.004
f 1/1/1 14/2/1 13/3/1
f 2/4/2 14/5/2 16/6/2
f 1/7/3 13/8/3 18/9/3
f 1/10/4 18/11/4 20/12/4
f 1/13/5 20/14/5 17/15/5
f 2/4/6 16/6/6 23/16/6
f 3/17/7 15/18/7 25/19/7
f 4/20/8 19/21/8 27/22/8
f 5/23/9 21/24/9 29/25/9
f 6/26/10 22/27/10 31/28/10
f 2/4/11 23/16/11 26/29/11
f 3/17/12 25/19/12 28/30/12
f 4/20/13 27/22/13 30/31/13
f 5/23/14 29/25/14 32/32/14
f 6/26/15 31/28/15 24/33/15
f 7/34/16 33/35/16 38/36/16
f 8/37/17 34/38/17 40/39/17
f 9/40/18 35/41/18 41/42/18
f 10/43/19 36/44/19 42/45/19
f 11/46/20 37/47/20 39/48/20
f 39/48/21 42/49/21 12/50/21
f 39/48/22 37/47/22 42/49/22
f 37/47/23 10/43/23 42/49/23
f 42/45/24 41/51/24 12/52/24
f 42/45/25 36/44/25 41/51/25
f 36/44/26 9/40/26 41/51/26
f 41/42/27 40/53/27 12/54/27
f 41/42/28 35/41/28 40/53/28
f 35/41/29 8/55/29 40/53/29
f 40/39/30 38/56/30 12/57/30
f 40/39/31 34/38/31 38/56/31
f 34/38/32 7/34/32 38/56/32
f 38/36/33 39/58/33 12/59/33
f 38/36/34 33/35/34 39/58/34
f 33/35/35 11/46/35 39/58/35
f 24/33/36 37/47/36 11/46/36
f 24/33/37 31/28/37 37/47/37
f 31/28/38 10/43/38 37/47/38
f 32/32/39 36/44/39 10/43/39
f 32/32/40 29/25/40 36/44/40
f 29/25/41 9/40/41 36/44/41
f 30/31/42 35/41/42 9/40/42
f 30/31/43 27/22/43 35/41/43
f 27/22/44 8/55/44 35/41/44
f 28/30/45 34/38/45 8/37/45
f 28/30/46 25/19/46 34/38/46
f 25/19/47 7/34/47 34/38/47
f 26/29/48 33/35/48 7/34/48
f 26/29/49 23/16/49 33/35/49
f 23/16/50 11/46/50 33/35/50
f 31/28/51 32/32/51 10/43/51
f 31/28/52 22/27/52 32/32/52
f 22/27/53 5/23/53 32/32/53
f 29/25/54 30/31/54 9/40/54
f 29/25/55 21/24/55 30/31/55
f 21/24/56 4/20/56 30/31/56
f 27/22/57 28/60/57 8/55/57
f 27/22/58 19/21/58 28/60/58
f 19/21/59 3/61/59 28/60/59
f 25/19/60 26/29/60 7/34/60
f 25/19/61 15/18/61 26/29/61
f 15/18/62 2/4/62 26/29/62
f 23/16/63 24/33/63 11/46/63
f 23/16/64 16/6/64 24/33/64
f 16/6/65 6/26/65 24/33/65
f 17/15/66 22/27/66 6/26/66
f 17/15/67 20/14/67 22/27/67
f 20/14/68 5/23/68 22/27/68
f 20/12/69 21/24/69 5/23/69
f 20/12/70 18/11/70 21/24/70
f 18/11/71 4/20/71 21/24/71
f 18/9/72 19/21/72 4/20/72
f 18/9/73 13/8/73 19/21/73
f 13/8/74 3/61/74 19/21/74
f 16/6/75 17/62/75 6/26/75
f 16/6/76 14/5/76 17/62/76
f 14/5/77 1/63/77 17/62/77
f 13/3/78 15/18/78 3/17/78
f 13/3/79 14/2/79 15/18/79
f 14/2/80 2/4/80 15/18/80
f 43/64/81 44/65/81 46/66/81 45/67/81
f 45/67/82 46/66/82 48/68/82 47/69/82
f 47/69/83 48/68/83 50/70/83 49/71/83
f 49/71/84 50/70/84 52/72/84 51/73/84
f 51/73/85 52/72/85 54/74/85 53/75/85
f 53/75/86 54/74/86 56/76/86 55/77/86
f 55/77/87 56/76/87 58/78/87 57/79/87
f 57/79/88 58/78/88 60/80/88 59/81/88
f 59/81/89 60/80/89 62/82/89 61/83/89
f 61/83/90 62/82/90 64/84/90 63/85/90
f 46/86/91 44/87/91 66/88/91 64/89/91 62/90/91 60/91/91 58/92/91 56/93/91 54/94/91 52/95/91 50/96/91 48/97/91
f 63/85/92 64/84/92 66/98/92 65/99/92
f 65/99/93 66/98/93 44/100/93 43/101/93
f 43/102/94 45/103/94 47/104/94 49/105/94 51/106/94 53/107/94 55/108/94 57/109/94 59/110/94 61/111/94 63/112/94 65/113/94
f 67/114/81 68/115/81 70/116/81 69/117/81
f 69/117/82 70/116/82 72/118/82 71/119/82
f 71/119/83 72/118/83 74/120/83 73/121/83
f 73/121/95 74/120/95 76/122/95 75/123/95
f 75/123/96 76/122/96 78/124/96 77/125/96
f 77/125/86 78/124/86 80/126/86 79/127/86
f 79/127/87 80/126/87 82/128/87 81/129/87
f 81/129/88 82/128/88 84/130/88 83/131/88
f 83/131/97 84/130/97 86/132/97 85/133/97
f 85/133/98 86/132/98 88/134/98 87/135/98
f 70/136/99 68/137/99 90/138/99 88/139/99 86/140/99 84/141/99 82/142/99 80/143/99 78/144/99 76/145/99 74/146/99 72/147/99
f 87/135/92 88/134/92 90/148/92 89/149/92
f 89/149/93 90/148/93 68/150/93 67/151/93
f 67/152/100 69/153/100 71/154/100 73/155/100 75/156/100 77/157/100 79/158/100 81/159/100 83/160/100 85/161/100 87/162/100 89/163/100
f 91/164/101 92/165/101 94/166/101 93/167/101
f 93/167/102 94/166/102 98/168/102 97/169/102
f 97/169/103 98/168/103 96/170/103 95/171/103
f 95/171/104 96/170/104 92/172/104 91/173/104
f 93/174/100 97/169/100 95/171/100 91/175/100
f 98/168/105 94/176/105 92/177/105 96/170/105
f 99/178/101 100/179/101 102/180/101 101/181/101
f 101/181/106 102/180/106 106/182/106 105/183/106
f 105/183/103 106/182/103 104/184/103 103/185/103
f 103/185/107 104/184/107 100/186/107 99/187/107
f 101/188/100 105/183/100 103/185/100 99/189/100
f 106/182/108 102/190/108 100/191/108 104/184/108
f 115/192/109 108/193/109 110/194/109 116/195/109
f 124/196/110 120/197/110 114/198/110 117/199/110
f 117/199/111 114/198/111 112/200/111 118/201/111
f 123/202/104 122/203/104 108/204/104 115/205/104
f 119/206/112 113/207/112 111/208/112 121/209/112
f 120/210/113 110/211/113 108/212/113 122/213/113
f 121/214/104 123/202/104 115/205/104 107/215/104
f 113/207/114 117/199/114 118/201/114 111/208/114
f 119/216/115 124/196/115 117/199/115 113/207/115
f 107/217/116 115/192/116 116/195/116 109/218/116
f 109/218/117 116/195/117 124/196/117 119/216/117
f 111/208/104 118/201/104 123/202/104 121/214/104
f 114/198/118 120/210/118 122/213/118 112/200/118
f 109/219/119 119/206/119 121/209/119 107/220/119
f 118/201/104 112/200/104 122/203/104 123/202/104
f 116/195/120 110/194/120 120/197/120 124/196/120
f 125/221/121 126/222/121 128/223/121 127/224/121
f 127/224/102 128/223/102 132/225/102 131/226/102
f 131/226/122 132/225/122 130/227/122 129/228/122
f 129/228/123 130/227/123 126/229/123 125/230/123
f 127/231/124 131/226/124 129/228/124 125/232/124
f 132/225/125 128/233/125 126/234/125 130/227/125
f 133/235/101 134/236/101 136/237/101 135/238/101
f 135/238/126 136/237/126 140/239/126 139/240/126
f 139/240/103 140/239/103 138/241/103 137/242/103
f 137/242/127 138/241/127 134/243/127 133/244/127
f 135/245/100 139/240/100 137/242/100 133/246/100
f 140/239/128 136/247/128 134/248/128 138/241/128
usemtl マテリアル.003
f 157/249/103 169/250/103 170/251/103 158/252/103
f 164/253/103 176/254/103 165/255/103 153/256/103
f 154/257/103 166/258/103 167/259/103 155/260/103
f 161/261/103 173/262/103 174/263/103 162/264/103
f 158/265/103 170/251/103 171/266/103 159/267/103
f 155/268/103 167/259/103 168/269/103 156/270/103
f 162/271/103 174/263/103 175/272/103 163/273/103
f 159/274/103 171/275/103 172/276/103 160/277/103
f 156/278/103 168/269/103 169/250/103 157/279/103
f 163/280/103 175/272/103 176/254/103 164/281/103
f 153/282/103 165/255/103 166/258/103 154/283/103
f 160/284/103 172/276/103 173/262/103 161/285/103
f 172/276/103 184/286/103 185/287/103 173/262/103
f 170/251/103 182/288/103 183/289/103 171/266/103
f 168/269/103 180/290/103 181/291/103 169/250/103
f 166/258/103 178/292/103 179/293/103 167/259/103
f 176/254/103 188/294/103 177/295/103 165/255/103
f 174/263/103 186/296/103 187/297/103 175/272/103
f 188/294/99 200/298/99 189/299/99 177/295/99
f 184/286/99 196/300/99 197/301/99 185/287/99
f 180/290/99 192/302/99 193/303/99 181/291/99
f 186/296/99 198/304/99 199/305/99 187/297/99
f 182/288/99 194/306/99 195/307/99 183/289/99
f 178/292/99 190/308/99 191/309/99 179/293/99
f 205/310/101 206/311/101 218/312/101 217/313/101
f 212/314/101 202/315/101 214/316/101 224/317/101
f 201/318/101 203/319/101 215/320/101 213/321/101
f 209/322/101 210/323/101 222/324/101 221/325/101
f 206/311/101 207/326/101 219/327/101 218/312/101
f 203/319/101 204/328/101 216/329/101 215/320/101
f 210/323/101 211/330/101 223/331/101 222/324/101
f 207/332/101 208/333/101 220/334/101 219/335/101
f 204/328/101 205/310/101 217/313/101 216/329/101
f 211/330/101 212/314/101 224/317/101 223/331/101
f 202/315/101 201/318/101 213/321/101 214/316/101
f 208/333/101 209/322/101 221/325/101 220/334/101
f 220/334/101 221/325/101 231/336/101 232/337/101
f 218/312/101 219/327/101 229/338/101 230/339/101
f 216/329/101 217/313/101 227/340/101 228/341/101
f 213/321/101 215/320/101 225/342/101 226/343/101
f 224/317/101 214/316/101 235/344/101 236/345/101
f 222/324/101 223/331/101 233/346/101 234/347/101
f 236/345/99 235/344/99 247/348/99 248/349/99
f 232/337/99 231/336/99 243/350/99 244/351/99
f 228/341/99 227/340/99 239/352/99 240/353/99
f 234/347/99 233/346/99 245/354/99 246/355/99
f 230/339/99 229/338/99 241/356/99 242/357/99
f 226/343/99 225/342/99 237/358/99 238/359/99
f 178/292/129 166/258/129 213/321/129 226/343/129
f 161/360/130 162/361/130 210/323/130 209/322/130
f 196/300/99 184/286/99 232/337/99 244/351/99
f 176/254/131 175/272/131 223/331/131 224/317/131
f 167/259/132 179/293/132 225/342/132 215/320/132
f 162/361/133 163/362/133 211/330/133 210/323/133
f 185/287/99 197/301/99 243/350/99 231/336/99
f 188/294/134 176/254/134 224/317/134 236/345/134
f 163/362/135 164/363/135 212/314/135 211/330/135
f 192/302/99 180/290/99 228/341/99 240/353/99
f 165/255/136 177/295/136 235/344/136 214/316/136
f 164/363/137 153/364/137 202/315/137 212/314/137
f 181/291/99 193/303/99 239/352/99 227/340/99
f 186/296/138 174/263/138 222/324/138 234/347/138
f 166/258/139 165/255/139 214/316/139 213/321/139
f 198/304/99 186/296/99 234/347/99 246/355/99
f 175/272/140 187/297/140 233/346/140 223/331/140
f 187/297/99 199/305/99 245/354/99 233/346/99
f 153/364/141 154/365/141 201/318/141 202/315/141
f 191/309/142 190/308/142 238/359/142 237/358/142
f 168/269/130 167/259/130 215/320/130 216/329/130
f 194/306/99 182/288/99 230/339/99 242/357/99
f 154/365/143 155/366/143 203/319/143 201/318/143
f 193/303/133 192/302/133 240/353/133 239/352/133
f 184/286/144 172/276/144 220/334/144 232/337/144
f 183/289/99 195/307/99 241/356/99 229/338/99
f 155/366/145 156/367/145 204/328/145 203/319/145
f 195/307/137 194/306/137 242/357/137 241/356/137
f 170/251/135 169/250/135 217/313/135 218/312/135
f 173/262/146 185/287/146 231/336/146 221/325/146
f 190/308/99 178/292/99 226/343/99 238/359/99
f 156/367/147 157/368/147 205/310/147 204/328/147
f 197/301/143 196/300/143 244/351/143 243/350/143
f 182/288/148 170/251/148 218/312/148 230/339/148
f 179/293/99 191/309/99 237/358/99 225/342/99
f 157/368/131 158/369/131 206/311/131 205/310/131
f 199/305/147 198/304/147 246/355/147 245/354/147
f 172/276/141 171/275/141 219/335/141 220/334/141
f 171/266/149 183/289/149 229/338/149 219/327/149
f 158/369/150 159/370/150 207/326/150 206/311/150
f 189/299/150 200/298/150 248/349/150 247/348/150
f 180/290/151 168/269/151 216/329/151 228/341/151
f 159/371/139 160/372/139 208/333/139 207/332/139
f 200/298/99 188/294/99 236/345/99 248/349/99
f 174/263/145 173/262/145 221/325/145 222/324/145
f 169/250/152 181/291/152 227/340/152 217/313/152
f 160/372/142 161/360/142 209/322/142 208/333/142
f 177/295/99 189/299/99 247/348/99 235/344/99
f 253/373/103 265/374/103 266/375/103 254/376/103
f 260/377/103 272/378/103 261/379/103 249/380/103
f 250/381/103 262/382/103 263/383/103 251/384/103
f 257/385/103 269/386/103 270/387/103 258/388/103
f 254/376/103 266/375/103 267/389/103 255/390/103
f 251/384/103 263/383/103 264/391/103 252/392/103
f 258/393/103 270/394/103 271/395/103 259/396/103
f 255/390/103 267/389/103 268/397/103 256/398/103
f 252/392/103 264/391/103 265/374/103 253/373/103
f 259/396/103 271/395/103 272/378/103 260/377/103
f 249/380/103 261/379/103 262/382/103 250/381/103
f 256/398/103 268/397/103 269/386/103 257/385/103
f 268/397/103 280/399/103 281/400/103 269/386/103
f 266/375/103 278/401/103 279/402/103 267/389/103
f 264/391/103 276/403/103 277/404/103 265/374/103
f 262/382/103 274/405/103 275/406/103 263/383/103
f 272/378/103 284/407/103 273/408/103 261/379/103
f 270/394/103 282/409/103 283/410/103 271/395/103
f 284/407/99 296/411/99 285/412/99 273/408/99
f 280/399/99 292/413/99 293/414/99 281/400/99
f 276/403/99 288/415/99 289/416/99 277/404/99
f 282/409/99 294/417/99 295/418/99 283/410/99
f 278/401/99 290/419/99 291/420/99 279/402/99
f 274/405/99 286/421/99 287/422/99 275/406/99
f 301/423/101 302/424/101 314/425/101 313/426/101
f 308/427/101 298/428/101 310/429/101 320/430/101
f 297/431/101 299/432/101 311/433/101 309/434/101
f 305/435/101 306/436/101 318/437/101 317/438/101
f 302/439/101 303/440/101 315/441/101 314/425/101
f 299/442/101 300/443/101 312/444/101 311/433/101
f 306/445/101 307/446/101 319/447/101 318/448/101
f 303/449/101 304/450/101 316/451/101 315/441/101
f 300/452/101 301/453/101 313/426/101 312/444/101
f 307/454/101 308/455/101 320/430/101 319/447/101
f 298/456/101 297/457/101 309/434/101 310/429/101
f 304/458/101 305/459/101 317/438/101 316/451/101
f 316/451/101 317/438/101 327/460/101 328/461/101
f 314/425/101 315/441/101 325/462/101 326/463/101
f 312/444/101 313/426/101 323/464/101 324/465/101
f 309/434/101 311/433/101 321/466/101 322/467/101
f 320/430/101 310/429/101 331/468/101 332/469/101
f 318/448/101 319/447/101 329/470/101 330/471/101
f 332/469/99 331/468/99 343/472/99 344/473/99
f 328/461/99 327/460/99 339/474/99 340/475/99
f 324/465/99 323/464/99 335/476/99 336/477/99
f 330/471/99 329/470/99 341/478/99 342/479/99
f 326/463/99 325/462/99 337/480/99 338/481/99
f 322/467/99 321/466/99 333/482/99 334/483/99
f 274/405/129 262/382/129 309/434/129 322/467/129
f 257/385/130 258/388/130 306/484/130 305/485/130
f 292/413/99 280/399/99 328/461/99 340/475/99
f 272/378/131 271/395/131 319/447/131 320/430/131
f 263/383/132 275/406/132 321/466/132 311/433/132
f 258/393/133 259/396/133 307/486/133 306/487/133
f 281/400/99 293/414/99 339/474/99 327/460/99
f 284/407/134 272/378/134 320/430/134 332/469/134
f 259/396/135 260/377/135 308/488/135 307/486/135
f 288/415/99 276/403/99 324/465/99 336/477/99
f 261/379/136 273/408/136 331/468/136 310/429/136
f 260/377/137 249/380/137 298/489/137 308/488/137
f 277/404/99 289/416/99 335/476/99 323/464/99
f 282/409/138 270/394/138 318/448/138 330/471/138
f 262/382/139 261/379/139 310/429/139 309/434/139
f 294/417/99 282/409/99 330/471/99 342/479/99
f 271/395/140 283/410/140 329/470/140 319/447/140
f 283/410/99 295/418/99 341/478/99 329/470/99
f 249/380/141 250/381/141 297/490/141 298/489/141
f 287/422/142 286/421/142 334/483/142 333/482/142
f 264/391/130 263/383/130 311/433/130 312/444/130
f 290/419/99 278/401/99 326/463/99 338/481/99
f 250/381/143 251/384/143 299/491/143 297/490/143
f 289/416/133 288/415/133 336/477/133 335/476/133
f 280/399/144 268/397/144 316/451/144 328/461/144
f 279/402/99 291/420/99 337/480/99 325/462/99
f 251/384/145 252/392/145 300/492/145 299/491/145
f 291/420/137 290/419/137 338/481/137 337/480/137
f 266/375/135 265/374/135 313/426/135 314/425/135
f 269/386/146 281/400/146 327/460/146 317/438/146
f 286/421/99 274/405/99 322/467/99 334/483/99
f 252/392/147 253/373/147 301/493/147 300/492/147
f 293/414/143 292/413/143 340/475/143 339/474/143
f 278/401/148 266/375/148 314/425/148 326/463/148
f 275/406/99 287/422/99 333/482/99 321/466/99
f 253/373/131 254/376/131 302/494/131 301/493/131
f 295/418/147 294/417/147 342/479/147 341/478/147
f 268/397/141 267/389/141 315/441/141 316/451/141
f 267/389/149 279/402/149 325/462/149 315/441/149
f 254/376/150 255/390/150 303/495/150 302/494/150
f 285/412/150 296/411/150 344/473/150 343/472/150
f 276/403/151 264/391/151 312/444/151 324/465/151
f 255/390/139 256/398/139 304/496/139 303/495/139
f 296/411/99 284/407/99 332/469/99 344/473/99
f 270/387/145 269/386/145 317/438/145 318/437/145
f 265/374/152 277/404/152 323/464/152 313/426/152
f 256/398/142 257/385/142 305/485/142 304/496/142
f 273/408/99 285/412/99 343/472/99 331/468/99
l 142 141
l 143 142
l 144 143
l 145 144
l 146 145
l 147 146
l 148 147
l 149 148
l 150 149
l 151 150
l 152 151
l 141 152
