# Blender 4.4.1
# www.blender.org
mtllib steamHouse2.mtl
o 円柱
v -4.954048 6.272336 4.271669
v -4.954049 6.272336 3.202652
v -5.229967 5.987806 4.271669
v -5.229967 5.987806 3.202652
v -5.138373 5.685859 4.271669
v -5.138373 5.685859 3.202652
v -4.750815 5.597818 4.271669
v -4.750816 5.597818 3.202652
v -4.550643 5.353906 4.271669
v -4.550643 5.353906 3.202652
v -4.545547 4.963498 4.271669
v -4.545547 4.963498 3.202652
v -4.267270 4.814756 4.271669
v -4.267271 4.814756 3.202652
v -3.941228 5.030446 4.271669
v -3.941228 5.030446 3.202652
v -3.627214 4.999517 4.271668
v -3.627214 4.999517 3.202652
v -3.337295 4.723163 4.271668
v -3.337295 4.723163 3.202652
v -3.035348 4.814756 4.271668
v -3.035348 4.814756 3.202652
v -2.951115 5.198713 4.271668
v -2.951115 5.198713 3.202652
v -2.707205 5.398885 4.271668
v -2.707205 5.398885 3.202652
v -2.312987 5.407583 4.271668
v -2.312987 5.407583 3.202652
v -2.164245 5.685859 4.271668
v -2.164245 5.685859 3.202652
v -2.377356 6.017233 4.271668
v -2.377356 6.017232 3.202652
v -2.346428 6.331247 4.271668
v -2.346428 6.331247 3.202652
v -2.072651 6.615834 4.271668
v -2.072652 6.615834 3.202652
v -2.164245 6.917781 4.271668
v -2.164245 6.917781 3.202652
v -2.550262 7.001862 4.271668
v -2.550262 7.001862 3.202652
v -2.750435 7.245771 4.271668
v -2.750435 7.245771 3.202652
v -2.757071 7.640142 4.271668
v -2.757072 7.640142 3.202652
v -3.035348 7.788884 4.271668
v -3.035348 7.788884 3.202652
v -3.368244 7.574608 4.271668
v -3.368244 7.574608 3.202652
v -3.682260 7.605536 4.271668
v -3.682260 7.605536 3.202652
v -3.965323 7.880478 4.271668
v -3.965323 7.880478 3.202652
v -4.267270 7.788884 4.271668
v -4.267271 7.788884 3.202652
v -4.350378 7.398035 4.271668
v -4.350378 7.398035 3.202652
v -4.594290 7.197862 4.271668
v -4.594290 7.197862 3.202652
v -4.989632 7.196058 4.271669
v -4.989632 7.196058 3.202652
v -5.138373 6.917781 4.271669
v -5.138373 6.917781 3.202652
v -4.923120 6.586350 4.271669
v -4.923120 6.586350 3.202652
v -3.992004 6.802400 3.202652
v -4.155185 6.638499 3.202652
v -4.079820 6.730330 3.202652
v -4.245671 6.420046 3.202652
v -4.245671 6.183595 3.202652
v -4.257315 6.301820 3.202652
v -4.211186 6.533730 3.202652
v -3.883219 6.861697 3.202652
v -3.769535 6.896183 3.202652
v -4.211186 6.069911 3.202652
v -3.987988 6.805696 3.202652
v -3.651309 6.907826 3.202652
v -3.533084 6.896183 3.202652
v -4.155185 5.965142 3.202652
v -3.419400 6.861697 3.202652
v -3.314631 6.805696 3.202652
v -4.079820 5.873310 3.202652
v -3.222799 6.730330 3.202652
v -3.091433 6.533730 3.202652
v -3.056947 6.420046 3.202652
v -3.147433 6.638499 3.202652
v -3.045303 6.301820 3.202652
v -3.147433 5.965142 3.202652
v -3.091433 6.069911 3.202652
v -3.056947 6.183595 3.202652
v -3.314631 5.797944 3.202652
v -3.987988 5.797944 3.202652
v -3.651309 5.695815 3.202652
v -3.533084 5.707458 3.202652
v -3.769535 5.707458 3.202652
v -3.883219 5.741943 3.202652
v -3.222799 5.873310 3.202652
v -3.419400 5.741943 3.202652
v -3.769535 6.896183 4.271668
v -3.987988 6.805696 4.271668
v -3.883218 6.861697 4.271668
v -4.155185 6.638499 4.271668
v -4.245671 6.420046 4.271668
v -4.211186 6.533730 4.271668
v -4.079820 6.730330 4.271668
v -4.245671 6.183595 4.271668
v -4.155185 5.965142 4.271668
v -4.211186 6.069911 4.271668
v -3.883218 5.741943 4.271668
v -3.987988 5.797944 4.271668
v -3.651309 5.695815 4.271668
v -3.769535 5.707458 4.271668
v -4.079820 5.873310 4.271668
v -4.257315 6.301820 4.271668
v -3.533083 6.896183 4.271668
v -3.651309 6.907826 4.271668
v -3.419400 6.861697 4.271668
v -3.222799 6.730330 4.271668
v -3.314631 6.805696 4.271668
v -3.091433 6.533730 4.271668
v -3.045303 6.301820 4.271668
v -3.056947 6.420046 4.271668
v -3.147433 6.638499 4.271668
v -3.091433 6.069911 4.271668
v -3.222799 5.873310 4.271668
v -3.147433 5.965142 4.271668
v -3.419400 5.741943 4.271668
v -3.533083 5.707458 4.271668
v -3.314631 5.797944 4.271668
v -3.056947 6.183595 4.271668
v 1.016214 3.344890 -3.019206
v 1.016214 5.344891 -3.019206
v 1.016214 3.344890 -3.321899
v 1.016214 5.344891 -3.321899
v 1.318907 3.344890 -3.019206
v 1.318907 5.344891 -3.019206
v 1.318907 3.344890 -3.321899
v 1.318907 5.344891 -3.321899
v -1.695730 3.492698 -3.899535
v -1.695730 4.544439 -3.899535
v -1.695730 3.492698 -4.951275
v -1.695730 4.544439 -4.951275
v -0.643989 3.492698 -3.899535
v -0.643989 4.544439 -3.899534
v -0.643989 3.492698 -4.951275
v -0.643989 4.544439 -4.951275
v -1.646111 7.562353 -3.905878
v -1.646111 7.562353 -4.905877
v -0.646111 7.562353 -3.905878
v -0.646111 7.562353 -4.905877
v -1.755679 7.062353 -3.796309
v -1.755679 7.671920 -4.405878
v -1.755679 7.062353 -5.015446
v -1.146111 7.671920 -5.015446
v -0.536544 7.062353 -5.015446
v -0.536543 7.671920 -4.405878
v -0.536544 7.062353 -3.796310
v -1.146111 7.671921 -3.796310
v -1.985617 7.062353 -4.405878
v -1.146111 7.062353 -5.245383
v -0.306605 7.062353 -4.405878
v -1.146111 7.062353 -3.566372
v -1.146111 7.901859 -4.405878
v -1.755679 5.062353 -3.796309
v -1.755679 5.062353 -5.015446
v -0.536544 5.062353 -5.015446
v -0.536544 5.062353 -3.796310
v -1.985617 5.062353 -4.405878
v -1.146111 5.062353 -5.245383
v -0.306605 5.062353 -4.405878
v -1.146111 5.062353 -3.566372
v -1.146111 3.978951 -4.405878
v -1.146111 7.087145 -3.399864
v -0.415642 7.087145 -3.675408
v -0.140098 7.087145 -4.405877
v -0.415642 7.087145 -5.136346
v -1.146111 7.087145 -5.411891
v -1.876580 7.087145 -5.136347
v -2.152125 7.087145 -4.405878
v -1.876580 7.087145 -3.675408
v -0.415642 6.787560 -5.136347
v -1.876580 6.787560 -3.675408
v -1.876580 6.787560 -5.136347
v -0.140098 6.787560 -4.405877
v -1.146111 6.787560 -5.411891
v -0.415642 6.787560 -3.675408
v -1.146111 6.787560 -3.399864
v -2.152125 6.787560 -4.405878
v -1.985617 6.812353 -4.405878
v -1.146111 6.812353 -3.566372
v -0.536544 6.812353 -3.796310
v -1.146111 6.812353 -5.245383
v -0.306605 6.812353 -4.405878
v -1.755679 6.812353 -5.015446
v -1.755679 6.812353 -3.796309
v -0.536544 6.812353 -5.015446
v -7.370948 11.685818 0.355636
v -7.370948 12.272902 0.355637
v -7.370947 11.685818 -0.180209
v -7.370947 12.272902 -0.180209
v 0.714983 11.685818 0.355636
v 0.714983 12.272902 0.355637
v 0.714983 11.685818 -0.180209
v 0.714983 12.272902 -0.180209
v 0.238667 10.867870 0.338102
v 0.238667 11.390768 0.338102
v 0.238667 10.867870 -0.184795
v 0.238667 11.390768 -0.184795
v 0.761564 11.390768 0.338102
v 0.761564 11.390768 -0.184795
v 0.761564 11.390768 0.421640
v 0.238667 11.390768 0.421640
v 0.543715 12.501814 0.421640
v 0.238667 11.390768 -0.273999
v 0.761564 11.390768 -0.273999
v 0.543715 12.501814 -0.273999
v -1.273334 12.106014 -0.115555
v -1.273334 12.313494 -0.291874
v -1.273334 9.022215 -3.946829
v -1.273334 9.229693 -4.123148
v -0.966307 12.106014 -0.115555
v -0.966307 12.313494 -0.291874
v -0.966307 9.022215 -3.946829
v -0.966307 9.229693 -4.123148
v -1.270668 7.711134 -4.551855
v -1.270668 7.709263 -4.249012
v -0.963641 7.709263 -4.249011
v -0.963641 7.711134 -4.551855
v -6.059563 13.024929 -0.874729
v -6.059563 13.606863 -0.874729
v -6.059563 13.024929 -2.339457
v -6.059563 13.606863 -2.339457
v -4.594835 13.024929 -0.874730
v -4.594835 13.606863 -0.874730
v -4.594835 13.024929 -2.339457
v -4.594835 13.606863 -2.339457
v -5.949607 10.034870 -0.984685
v -5.949607 13.355452 -0.984686
v -5.949608 10.034870 -2.229501
v -5.949608 13.355452 -2.229501
v -4.704792 10.034870 -0.984686
v -4.704792 13.355452 -0.984686
v -4.704791 10.034870 -2.229501
v -4.704791 13.355452 -2.229502
v 0.556170 9.111104 3.958678
v 0.556170 12.073237 0.316606
v 0.556170 8.804227 3.708911
v -7.317443 9.111104 3.958676
v -7.317443 12.073237 0.316606
v -7.317443 8.804227 3.708911
v -7.317443 11.766359 0.066840
v 0.556171 11.766359 0.066840
v 0.556170 8.816955 -3.555484
v 0.556171 11.779087 0.086586
v 0.556170 9.124007 -3.805033
v -7.317442 8.816955 -3.555484
v -7.317442 11.779087 0.086587
v -7.317442 9.124007 -3.805033
v -7.317441 12.086140 -0.162963
v 0.556171 12.086140 -0.162963
v -0.238156 8.444585 -2.786098
v -0.238156 8.037782 -2.786098
v -6.676657 8.444585 -2.786097
v -6.676657 8.037782 -2.786097
v -0.238156 8.444585 -3.400929
v -0.238156 8.037782 -3.400929
v -6.676658 8.444585 -3.400929
v -6.676658 8.037782 -3.400929
v -0.362396 -0.802128 3.530298
v -0.362396 9.215869 3.530298
v -0.362396 -0.802128 2.741843
v -0.362396 10.002434 2.741843
v 0.426059 -0.802128 3.530298
v 0.426059 9.215869 3.530298
v 0.426059 -0.802128 2.741843
v 0.426059 10.002434 2.741843
v -7.290788 -0.802128 3.530298
v -7.290788 9.215869 3.530298
v -7.290788 -0.802128 2.741842
v -7.290788 10.002434 2.741842
v -6.502331 -0.802128 3.530298
v -6.502331 9.215869 3.530297
v -6.502331 -0.802128 2.741842
v -6.502331 10.002434 2.741842
v 0.426059 -0.802129 -3.436337
v 0.426059 9.215869 -3.436337
v 0.426059 -0.802129 -2.647881
v 0.426059 10.002434 -2.647881
v -0.362396 -0.802129 -3.436337
v -0.362396 9.215869 -3.436337
v -0.362396 -0.802129 -2.647881
v -0.362396 10.002434 -2.647881
v -6.499403 -0.802129 -3.436337
v -6.499403 9.215869 -3.436337
v -6.499403 -0.802129 -2.647881
v -6.499403 10.002434 -2.647881
v -7.287860 -0.802129 -3.436337
v -7.287860 9.215869 -3.436337
v -7.287859 -0.802129 -2.647881
v -7.287859 10.002434 -2.647881
v -0.227410 8.394585 2.845516
v -0.227410 8.087782 2.845516
v -0.227410 8.394585 -2.791055
v -0.227410 8.087782 -2.791055
v 0.387422 8.394585 2.845516
v 0.387422 8.087782 2.845516
v 0.387421 8.394585 -2.791055
v 0.387421 8.087782 -2.791055
v -7.138079 8.444586 2.845514
v -7.138079 8.037783 2.845515
v -7.138080 8.444586 -2.791055
v -7.138080 8.037783 -2.791055
v -6.523248 8.444586 2.845514
v -6.523248 8.037783 2.845514
v -6.523248 8.444586 -2.791055
v -6.523248 8.037783 -2.791055
v -0.238156 8.444586 3.508508
v -0.238156 8.037783 3.508508
v -6.676657 8.444586 3.508507
v -6.676657 8.037783 3.508507
v -0.238156 8.444586 2.893675
v -0.238156 8.037783 2.893675
v -6.676657 8.444586 2.893675
v -6.676657 8.037783 2.893675
v 0.312512 8.394585 1.187534
v 0.312512 8.087782 1.187534
v 0.312512 8.394585 -1.133074
v 0.312512 8.087782 -1.133074
v 1.413443 7.876026 1.187533
v 1.413443 7.569223 1.187533
v 1.413443 7.876026 -1.133074
v 1.413443 7.569223 -1.133074
v 0.131272 6.493717 -0.442718
v 0.131272 6.824977 -0.305506
v 0.131272 6.962190 0.025755
v 0.131272 6.824977 0.357014
v 0.131272 6.493718 0.494226
v 0.131272 6.162458 0.357014
v 0.131272 6.025246 0.025755
v 0.131272 6.162458 -0.305506
v 0.182247 6.493717 -0.375333
v 0.182247 6.777329 -0.257857
v 0.182247 6.894805 0.025755
v 0.182247 6.777329 0.309366
v 0.182247 6.493718 0.426841
v 0.182247 6.210106 0.309366
v 0.182247 6.092630 0.025755
v 0.182247 6.210106 -0.257857
v 0.182247 6.824977 -0.305506
v 0.182247 6.493717 -0.442718
v 0.182247 6.962190 0.025755
v 0.182247 6.824977 0.357014
v 0.182247 6.493718 0.494226
v 0.182247 6.162458 0.357014
v 0.182247 6.025246 0.025755
v 0.182247 6.162458 -0.305506
v 0.095413 6.777329 -0.257857
v 0.095413 6.493717 -0.375333
v 0.095413 6.894805 0.025755
v 0.095413 6.777329 0.309366
v 0.095413 6.493718 0.426841
v 0.095413 6.210106 0.309366
v 0.095413 6.092630 0.025755
v 0.095413 6.210106 -0.257857
v -6.978657 6.771432 -0.943891
v -6.978657 6.064325 -0.650998
v -6.978658 5.771432 0.056108
v -6.978658 6.064326 0.763215
v -6.978658 6.771432 1.056108
v -6.978658 7.478539 0.763215
v -6.978658 7.771433 0.056109
v -6.978657 7.478539 -0.650998
v -7.262073 6.197648 -0.517676
v -7.262073 6.771432 -0.755345
v -7.262074 5.959979 0.056108
v -7.262074 6.197648 0.629893
v -7.262074 6.771432 0.867562
v -7.262074 7.345216 0.629893
v -7.262074 7.582886 0.056109
v -7.262073 7.345216 -0.517675
v -7.262073 6.064325 -0.650998
v -7.262073 6.771432 -0.943891
v -7.262073 5.771432 0.056108
v -7.262074 6.064326 0.763215
v -7.262074 6.771432 1.056108
v -7.262074 7.478539 0.763215
v -7.262074 7.771433 0.056109
v -7.262073 7.478539 -0.650998
v -7.020700 6.197648 -0.517676
v -7.020700 6.771432 -0.755345
v -7.020700 5.959979 0.056108
v -7.020700 6.197648 0.629893
v -7.020700 6.771432 0.867562
v -7.020700 7.345216 0.629893
v -7.020700 7.582886 0.056109
v -7.020700 7.345216 -0.517675
v 0.556170 12.073237 0.316606
v 0.556171 11.766359 0.066840
v 0.556171 11.779087 0.086586
v 0.556171 12.086140 -0.162963
v 1.488930 9.111104 3.958678
v 1.488931 12.073237 0.316606
v 1.488930 8.804227 3.708911
v 1.488931 11.766359 0.066840
v 1.488931 8.816955 -3.555484
v 1.488931 11.779087 0.086586
v 1.488931 9.124007 -3.805033
v 1.488931 12.086140 -0.162963
v 1.610995 11.276278 -0.184796
v 1.610995 10.753380 -0.184796
v 1.610995 10.753380 0.338102
v 1.610995 11.276278 0.338102
v 1.610995 11.276278 0.421640
v 1.916043 12.387323 0.421640
v 1.916043 12.387323 -0.273999
v 1.610995 11.276278 -0.273999
v 0.206597 1.756341 -0.614175
v 0.344815 1.756341 -0.521025
v 0.206597 1.337973 -0.440881
v 0.344815 1.403839 -0.375015
v 0.206597 1.164678 -0.022512
v 0.344815 1.257828 -0.022512
v 0.206597 1.337973 0.395855
v 0.344815 1.403839 0.329989
v 0.206597 1.756341 0.569149
v 0.344815 1.756341 0.476001
v 0.206597 2.174709 0.395856
v 0.344815 2.108842 0.329989
v 0.206597 2.348002 -0.022512
v 0.344815 2.254853 -0.022512
v 0.206597 2.174709 -0.440881
v 0.344815 2.108842 -0.375014
v 0.344815 1.337973 -0.440881
v 0.344815 1.756341 -0.614175
v 0.344815 1.164678 -0.022512
v 0.344815 1.337973 0.395856
v 0.344815 1.756341 0.569150
v 0.344815 2.174709 0.395856
v 0.344815 2.348002 -0.022512
v 0.344815 2.174709 -0.440880
v 0.230753 1.403839 -0.375015
v 0.230753 1.756341 -0.521025
v 0.230753 1.257828 -0.022512
v 0.230753 1.403839 0.329989
v 0.230753 1.756341 0.476001
v 0.230753 2.108842 0.329989
v 0.230753 2.254853 -0.022512
v 0.230753 2.108842 -0.375014
v 0.188555 -0.659049 0.977487
v 0.188555 2.629102 0.977487
v 0.188554 -0.659049 -1.022512
v 0.188554 2.629102 -1.022513
v 0.375439 -0.475696 0.865964
v 0.375439 2.445749 0.865964
v 0.375439 -0.475696 -0.910989
v 0.375439 2.445749 -0.910990
v 0.375439 2.629102 -1.022513
v 0.375439 -0.659049 -1.022512
v 0.375439 -0.659049 0.977487
v 0.375439 2.629102 0.977487
v 0.240819 2.445749 -0.910990
v 0.240819 -0.475696 -0.910989
v 0.240819 -0.475696 0.865964
v 0.240819 2.445749 0.865964
v 0.151764 3.377501 3.553522
v 0.151764 4.128498 3.553522
v 0.151764 3.377501 -3.429446
v 0.151764 4.128498 -3.429446
v 1.404032 3.377501 3.553522
v 1.404032 4.128498 3.553522
v 1.404032 3.377501 -3.429446
v 1.404032 4.128498 -3.429445
v 1.016214 3.344890 3.416430
v 1.016214 5.344891 3.416430
v 1.016214 3.344890 3.113737
v 1.016214 5.344891 3.113737
v 1.318907 3.344890 3.416430
v 1.318907 5.344891 3.416430
v 1.318907 3.344890 3.113737
v 1.318907 5.344891 3.113737
v 1.016214 3.344891 2.283167
v 1.016214 5.344891 2.283166
v 1.016214 3.344891 1.980474
v 1.016214 5.344891 1.980474
v 1.318907 3.344891 2.283167
v 1.318907 5.344891 2.283166
v 1.318907 3.344891 1.980474
v 1.318907 5.344891 1.980474
v 1.016214 3.344890 -1.821651
v 1.016214 5.344890 -1.821651
v 1.016214 3.344890 -2.124344
v 1.016214 5.344891 -2.124344
v 1.318907 3.344890 -1.821651
v 1.318907 5.344890 -1.821651
v 1.318907 3.344890 -2.124344
v 1.318907 5.344891 -2.124344
v 1.016214 3.344890 0.929825
v 1.016214 5.344891 0.929824
v 1.016214 3.344890 0.627131
v 1.016214 5.344891 0.627131
v 1.318907 3.344890 0.929825
v 1.318907 5.344891 0.929824
v 1.318907 3.344890 0.627131
v 1.318907 5.344891 0.627131
v 1.016214 3.344890 -0.501981
v 1.016214 5.344891 -0.501981
v 1.016214 3.344890 -0.804674
v 1.016214 5.344891 -0.804674
v 1.318907 3.344890 -0.501981
v 1.318907 5.344891 -0.501981
v 1.318907 3.344890 -0.804674
v 1.318907 5.344891 -0.804674
v 2.826704 3.536561 -3.429446
v 2.826704 3.377501 -3.429446
v 2.826703 3.377501 3.553522
v 2.826703 3.536561 3.553522
v 2.358882 -0.858036 3.231210
v 2.358882 3.463660 3.231210
v 2.358882 -0.858036 2.941238
v 2.358882 3.463660 2.941238
v 2.648854 -0.858036 3.231210
v 2.648854 3.463660 3.231210
v 2.648854 -0.858036 2.941237
v 2.648854 3.463660 2.941238
v 2.358881 -0.858036 -2.811437
v 2.358881 3.463660 -2.811438
v 2.358881 -0.858036 -3.101410
v 2.358881 3.463660 -3.101410
v 2.648854 -0.858036 -2.811437
v 2.648854 3.463660 -2.811438
v 2.648854 -0.858036 -3.101410
v 2.648854 3.463660 -3.101410
v -1.320101 0.925589 -4.220809
v -1.320101 4.288567 -4.220809
v -1.320101 0.925589 -4.592130
v -1.320101 4.288566 -4.592130
v -0.902780 0.925589 -4.220809
v -0.902780 4.288567 -4.220808
v -0.902780 0.925589 -4.592130
v -0.902780 4.288566 -4.592129
v -8.247877 0.881553 -4.234274
v -8.247877 1.380436 -4.234274
v -8.247877 0.881553 -4.578664
v -8.247877 1.380436 -4.578664
v -0.906238 0.881553 -4.234274
v -0.906238 1.380436 -4.234274
v -0.906238 0.881553 -4.578664
v -0.906238 1.380436 -4.578664
v -8.514032 0.907491 -0.006032
v -8.514032 1.354499 -0.006032
v -8.514033 0.907490 -4.565448
v -8.514033 1.354499 -4.565448
v -8.155313 0.907491 -0.006032
v -8.155313 1.354499 -0.006032
v -8.155314 0.907490 -4.565448
v -8.155314 1.354499 -4.565448
v -8.437477 0.929277 -0.019083
v -8.437477 1.332712 -0.019083
v -8.437477 0.929277 -0.466356
v -8.437477 1.332712 -0.466356
v -6.984951 0.929277 -0.019083
v -6.984951 1.332712 -0.019083
v -6.984951 0.929277 -0.466356
v -6.984951 1.332712 -0.466356
v -7.089615 3.363760 -2.799128
v -7.089615 4.038597 -2.799128
v -7.089615 3.363760 -3.409825
v -7.089615 4.038597 -3.409825
v 0.224488 3.363760 -2.799128
v 0.224488 4.038597 -2.799128
v 0.224488 3.363760 -3.409825
v 0.224488 4.038597 -3.409825
v 0.031860 -0.731683 -3.153434
v 0.031860 9.107132 -3.153434
v -6.765978 -0.731683 -3.153434
v -6.765978 9.107132 -3.153434
v 0.031859 -0.731683 -3.370162
v 0.031859 9.107132 -3.370162
v -6.765978 -0.731683 -3.370161
v -6.765978 9.107132 -3.370162
v -3.367059 -0.731683 -3.153434
v -3.367059 9.060942 -3.153434
v -3.367059 -0.731683 -3.370162
v -3.367059 9.060942 -3.370162
v -7.046604 -0.731682 3.398919
v -7.046604 -0.731682 0.000000
v -7.046604 9.107132 3.398919
v -6.829876 -0.731682 3.398919
v -6.829876 9.107132 3.398919
v -6.829876 -0.731682 0.000000
v -6.829876 -0.731682 -3.398918
v -6.829876 11.951592 0.000000
v -6.829876 9.107132 -3.398918
v -7.046604 11.951592 0.000000
v -7.046604 9.107132 -3.398918
v -7.046604 -0.731682 -3.398918
v -0.007712 -0.731682 3.355865
v -3.502694 -0.731682 3.355865
v -0.007712 9.107132 3.355865
v -0.007712 -0.731682 3.139138
v -0.007712 9.107132 3.139138
v -3.502694 -0.731682 3.139138
v -6.997676 -0.731682 3.139138
v -3.502694 9.060942 3.139138
v -6.997676 9.107132 3.139138
v -3.502694 9.060942 3.355865
v -6.997676 9.107132 3.355865
v -6.997676 -0.731682 3.355865
v -0.108363 -0.731682 3.398919
v -0.108364 -0.731682 0.000000
v -0.108363 9.107131 3.398920
v 0.108364 -0.731682 3.398919
v 0.108364 9.107131 3.398919
v 0.108364 -0.731682 -0.000000
v 0.108364 -0.731682 -3.398918
v 0.108364 11.951591 0.000000
v 0.108364 9.107132 -3.398918
v -0.108364 11.951591 0.000000
v -0.108364 9.107132 -3.398918
v -0.108364 -0.731682 -3.398918
v -7.089616 3.363760 3.413634
v -7.089616 4.038597 3.413634
v -7.089616 3.363760 2.802938
v -7.089616 4.038597 2.802938
v 0.224488 3.363760 3.413634
v 0.224488 4.038597 3.413634
v 0.224488 3.363760 2.802938
v 0.224488 4.038597 2.802938
v -7.202364 3.363760 2.897374
v -7.202364 4.038597 2.897374
v -7.202364 3.363760 -2.944663
v -7.202364 4.038597 -2.944663
v -6.727893 3.363760 2.897374
v -6.727893 4.038597 2.897374
v -6.727893 3.363760 -2.944663
v -6.727893 4.038597 -2.944663
vn -0.7179 0.6962 -0.0000
vn -0.9569 -0.2903 -0.0000
vn -0.2215 -0.9752 -0.0000
vn -0.7730 -0.6344 -0.0000
vn -0.9999 -0.0131 -0.0000
vn -0.4714 -0.8819 -0.0000
vn 0.5517 -0.8340 -0.0000
vn -0.0980 -0.9952 -0.0000
vn -0.6900 -0.7238 -0.0000
vn 0.2903 -0.9569 -0.0000
vn 0.9768 -0.2143 -0.0000
vn 0.6344 -0.7730 -0.0000
vn 0.0221 -0.9998 -0.0000
vn 0.8819 -0.4714 -0.0000
vn 0.8411 0.5409 -0.0000
vn 0.9952 -0.0980 -0.0000
vn 0.7207 -0.6933 -0.0000
vn 0.9569 0.2903 -0.0000
vn 0.2128 0.9771 -0.0000
vn 0.7730 0.6344 -0.0000
vn 0.9999 0.0168 -0.0000
vn 0.4714 0.8819 -0.0000
vn -0.5412 0.8409 -0.0000
vn 0.0980 0.9952 -0.0000
vn 0.6967 0.7173 -0.0000
vn -0.2903 0.9569 -0.0000
vn -0.9781 0.2080 -0.0000
vn -0.6344 0.7730 -0.0000
vn -0.0046 1.0000 -0.0000
vn -0.8819 0.4714 -0.0000
vn -0.0000 -0.0000 -1.0000
vn -0.8386 -0.5447 -0.0000
vn -0.9952 0.0980 -0.0000
vn -0.0000 -0.0000 1.0000
vn 0.9952 0.0980 -0.0000
vn 0.8819 0.4714 -0.0000
vn 0.6344 0.7730 -0.0000
vn 0.2903 0.9569 -0.0000
vn -0.0980 0.9952 -0.0000
vn -0.4714 0.8819 -0.0000
vn -0.7730 0.6344 -0.0000
vn -0.9569 0.2903 -0.0000
vn -0.9952 -0.0980 -0.0000
vn -0.8819 -0.4714 -0.0000
vn -0.6344 -0.7730 -0.0000
vn -0.2903 -0.9569 -0.0000
vn 0.0980 -0.9952 -0.0000
vn 0.4714 -0.8819 -0.0000
vn 0.7730 -0.6344 -0.0000
vn 0.9569 -0.2903 -0.0000
vn -1.0000 -0.0000 -0.0000
vn 1.0000 -0.0000 -0.0000
vn -0.0000 -1.0000 -0.0000
vn -0.0000 1.0000 -0.0000
vn -0.9015 0.3061 0.3061
vn -0.9015 0.3061 -0.3061
vn -0.3061 0.3061 -0.9015
vn 0.3061 0.3061 -0.9015
vn 0.9015 0.3061 -0.3061
vn 0.9015 0.3061 0.3061
vn 0.3061 0.3061 0.9015
vn -0.3061 0.3061 0.9015
vn 0.3061 0.9015 -0.3061
vn -0.3061 0.9015 -0.3061
vn -0.3061 0.9015 0.3061
vn 0.3061 0.9015 0.3061
vn 0.9356 -0.0000 -0.3529
vn -0.9356 -0.0000 -0.3529
vn -0.3529 -0.0000 0.9356
vn -0.9356 -0.0000 0.3529
vn 0.3529 -0.0000 0.9356
vn 0.3529 -0.0000 -0.9356
vn -0.3529 -0.0000 -0.9356
vn 0.9356 -0.0000 0.3529
vn 0.2857 -0.5870 0.7575
vn 0.7575 -0.5870 -0.2857
vn -0.2857 -0.5870 -0.7575
vn -0.7575 -0.5870 0.2857
vn -0.2857 -0.5870 0.7575
vn 0.7575 -0.5870 0.2857
vn 0.2857 -0.5870 -0.7575
vn -0.7575 -0.5870 -0.2857
vn 0.0555 0.9876 -0.1470
vn 0.1470 0.9876 -0.0555
vn -0.1470 -0.9876 -0.0555
vn -0.1470 -0.9876 0.0555
vn -0.1470 0.9876 0.0555
vn 0.1470 -0.9876 0.0555
vn -0.0555 0.9876 0.1470
vn 0.0555 -0.9876 -0.1470
vn 0.1470 -0.9876 -0.0555
vn 0.0555 0.9876 0.1470
vn -0.0555 -0.9876 -0.1470
vn 0.1470 0.9876 0.0555
vn -0.0555 -0.9876 0.1470
vn -0.0555 0.9876 -0.1470
vn -0.1470 0.9876 -0.0555
vn 0.0555 -0.9876 0.1470
vn -0.0831 -0.9965 -0.0000
vn -0.9643 0.2648 -0.0000
vn 0.0831 0.9965 -0.0000
vn 1.0000 0.0017 0.0007
vn -0.0000 0.6476 0.7620
vn -0.0000 -0.7790 0.6270
vn -0.0000 0.7790 -0.6270
vn -0.0000 -1.0000 -0.0062
vn -0.0000 -0.2243 0.9745
vn -0.0000 0.2717 -0.9624
vn -1.0000 -0.0017 -0.0007
vn -0.0000 0.7758 -0.6310
vn -0.0000 -0.6312 0.7756
vn -0.0000 -0.7758 0.6310
vn -0.0000 0.6312 -0.7756
vn -0.0000 -0.6307 -0.7760
vn -0.0000 -0.7758 -0.6310
vn -0.0000 0.6307 0.7760
vn -0.0000 0.7080 0.7063
vn -0.0000 0.7080 -0.7063
vn -0.4261 -0.9047 -0.0000
vn 0.4261 0.9047 -0.0000
vn -0.0000 0.9239 -0.3827
vn -0.0000 -0.3827 -0.9239
vn -0.0000 -0.9239 0.3827
vn -0.0000 0.3827 0.9239
vn -0.0000 -0.9239 -0.3827
vn -0.0000 -0.3827 0.9239
vn -0.0000 0.9239 0.3827
vn -0.0000 0.3827 -0.9239
vn -0.0000 0.7758 0.6310
vn 0.9643 -0.2648 -0.0000
vn -0.1336 -0.9910 -0.0000
vn 0.3841 0.9233 -0.0000
vn -0.0136 0.9999 -0.0000
vn 0.0136 0.9999 -0.0000
vn -0.0000 0.7669 0.6418
vn -0.0000 0.7669 -0.6418
vn -0.0132 0.9999 -0.0000
vn 0.0132 0.9999 -0.0000
vt 1.000000 0.500000
vt 1.000000 1.000000
vt 0.968750 1.000000
vt 0.968750 0.500000
vt 0.937500 1.000000
vt 0.937500 0.500000
vt 0.906250 1.000000
vt 0.906250 0.500000
vt 0.875000 1.000000
vt 0.875000 0.500000
vt 0.843750 1.000000
vt 0.843750 0.500000
vt 0.812500 1.000000
vt 0.812500 0.500000
vt 0.781250 1.000000
vt 0.781250 0.500000
vt 0.750000 1.000000
vt 0.750000 0.500000
vt 0.718750 1.000000
vt 0.718750 0.500000
vt 0.687500 1.000000
vt 0.687500 0.500000
vt 0.656250 1.000000
vt 0.656250 0.500000
vt 0.625000 1.000000
vt 0.625000 0.500000
vt 0.593750 1.000000
vt 0.593750 0.500000
vt 0.562500 1.000000
vt 0.562500 0.500000
vt 0.531250 1.000000
vt 0.531250 0.500000
vt 0.500000 1.000000
vt 0.500000 0.500000
vt 0.468750 1.000000
vt 0.468750 0.500000
vt 0.437500 1.000000
vt 0.437500 0.500000
vt 0.406250 1.000000
vt 0.406250 0.500000
vt 0.375000 1.000000
vt 0.375000 0.500000
vt 0.343750 1.000000
vt 0.343750 0.500000
vt 0.312500 1.000000
vt 0.312500 0.500000
vt 0.281250 1.000000
vt 0.281250 0.500000
vt 0.250000 1.000000
vt 0.250000 0.500000
vt 0.218750 1.000000
vt 0.218750 0.500000
vt 0.187500 1.000000
vt 0.187500 0.500000
vt 0.156250 1.000000
vt 0.156250 0.500000
vt 0.125000 1.000000
vt 0.125000 0.500000
vt 0.093750 1.000000
vt 0.093750 0.500000
vt 0.062500 1.000000
vt 0.062500 0.500000
vt 0.471731 0.341844
vt 0.449553 0.383337
vt 0.419706 0.419706
vt 0.383337 0.449553
vt 0.341844 0.471731
vt 0.296822 0.485388
vt 0.250000 0.490000
vt 0.203178 0.485388
vt 0.158156 0.471731
vt 0.116663 0.449553
vt 0.080294 0.419706
vt 0.050447 0.383337
vt 0.165393 0.307535
vt 0.177486 0.322282
vt 0.193048 0.334900
vt 0.210800 0.344377
vt 0.229944 0.350293
vt 0.249795 0.352237
vt 0.269707 0.350145
vt 0.288942 0.344290
vt 0.306658 0.334934
vt 0.322092 0.322264
vt 0.334736 0.306690
vt 0.344243 0.288932
vt 0.350178 0.269786
vt 0.352127 0.249941
vt 0.350035 0.230044
vt 0.344181 0.210833
vt 0.334829 0.193150
vt 0.322175 0.177758
vt 0.306631 0.165159
vt 0.288910 0.155691
vt 0.269794 0.149776
vt 0.249961 0.147824
vt 0.230055 0.149898
vt 0.210824 0.155729
vt 0.193116 0.165062
vt 0.177700 0.177706
vt 0.165078 0.193251
vt 0.155587 0.210978
vt 0.149648 0.230105
vt 0.014612 0.203178
vt 0.028269 0.158156
vt 0.050447 0.116663
vt 0.080294 0.080294
vt 0.116663 0.050447
vt 0.158156 0.028269
vt 0.203178 0.014612
vt 0.250000 0.010000
vt 0.296822 0.014612
vt 0.341844 0.028269
vt 0.383337 0.050447
vt 0.419706 0.080294
vt 0.449553 0.116663
vt 0.471731 0.158156
vt 0.485388 0.203178
vt 0.490000 0.250000
vt 0.485388 0.296822
vt 0.028269 0.341844
vt 0.014612 0.296822
vt 0.010000 0.250000
vt 0.147671 0.249953
vt 0.149720 0.269879
vt 0.155527 0.289132
vt 0.164842 0.306859
vt 0.031250 1.000000
vt 0.031250 0.500000
vt 0.000000 1.000000
vt 0.000000 0.500000
vt 0.729944 0.350293
vt 0.703178 0.485388
vt 0.750000 0.490000
vt 0.796822 0.485388
vt 0.841844 0.471731
vt 0.883337 0.449553
vt 0.919706 0.419706
vt 0.949553 0.383337
vt 0.971731 0.341844
vt 0.985388 0.296822
vt 0.990000 0.250000
vt 0.852127 0.249941
vt 0.850178 0.269786
vt 0.844243 0.288932
vt 0.834736 0.306690
vt 0.822091 0.322264
vt 0.806658 0.334934
vt 0.788942 0.344290
vt 0.769707 0.350145
vt 0.749795 0.352237
vt 0.985388 0.203178
vt 0.971731 0.158156
vt 0.949553 0.116663
vt 0.919706 0.080294
vt 0.883337 0.050447
vt 0.841844 0.028269
vt 0.796822 0.014612
vt 0.750000 0.010000
vt 0.703178 0.014612
vt 0.658156 0.028269
vt 0.616663 0.050447
vt 0.580294 0.080294
vt 0.550447 0.116663
vt 0.528269 0.158156
vt 0.514612 0.203178
vt 0.510000 0.250000
vt 0.514612 0.296822
vt 0.528269 0.341844
vt 0.550447 0.383337
vt 0.580294 0.419706
vt 0.616663 0.449553
vt 0.658156 0.471731
vt 0.710800 0.344377
vt 0.693048 0.334900
vt 0.677485 0.322282
vt 0.664842 0.306859
vt 0.655527 0.289132
vt 0.649720 0.269879
vt 0.647671 0.249953
vt 0.649648 0.230105
vt 0.655587 0.210978
vt 0.665078 0.193251
vt 0.677700 0.177706
vt 0.693115 0.165062
vt 0.710824 0.155729
vt 0.730056 0.149898
vt 0.749961 0.147824
vt 0.769794 0.149776
vt 0.788910 0.155691
vt 0.806630 0.165159
vt 0.822175 0.177758
vt 0.834829 0.193150
vt 0.844181 0.210833
vt 0.850035 0.230044
vt 0.968750 0.732435
vt 0.968750 0.767565
vt 1.000000 0.767565
vt 1.000000 0.732435
vt 0.937500 0.732435
vt 0.937500 0.767565
vt 0.906250 0.732435
vt 0.906250 0.767565
vt 0.875000 0.732435
vt 0.875000 0.767565
vt 0.843750 0.767565
vt 0.843750 0.732435
vt 0.812500 0.767565
vt 0.812500 0.732435
vt 0.781250 0.767565
vt 0.781250 0.732435
vt 0.750000 0.767565
vt 0.750000 0.732435
vt 0.718750 0.767565
vt 0.718750 0.732435
vt 0.687500 0.767565
vt 0.687500 0.732435
vt 0.656250 0.767565
vt 0.656250 0.732435
vt 0.625000 0.767565
vt 0.625000 0.732435
vt 0.593750 0.767565
vt 0.593750 0.732435
vt 0.562500 0.767565
vt 0.562500 0.732435
vt 0.531250 0.767565
vt 0.531250 0.732435
vt 0.500000 0.767565
vt 0.500000 0.732435
vt 0.468750 0.767565
vt 0.468750 0.732435
vt 0.437500 0.767565
vt 0.437500 0.732435
vt 0.406250 0.767565
vt 0.406250 0.732435
vt 0.375000 0.767565
vt 0.375000 0.732435
vt 0.343750 0.732435
vt 0.343750 0.767565
vt 0.312500 0.732435
vt 0.312500 0.767565
vt 0.281250 0.732435
vt 0.281250 0.767565
vt 0.250000 0.732435
vt 0.250000 0.767565
vt 0.218750 0.732435
vt 0.218750 0.767565
vt 0.187500 0.732435
vt 0.187500 0.767565
vt 0.156250 0.732435
vt 0.156250 0.767565
vt 0.125000 0.732435
vt 0.125000 0.767565
vt 0.154883 0.767565
vt 0.093750 0.732435
vt 0.093750 0.767565
vt 0.062500 0.732435
vt 0.062500 0.767565
vt 0.031250 0.732435
vt 0.031250 0.767565
vt 0.000000 0.732435
vt 0.000000 0.767565
vt 0.000000 0.000000
s 1
usemtl マテリアル.001
f 1/1/1 2/2/1 4/3/1 3/4/1
f 3/4/2 4/3/2 6/5/2 5/6/2
f 5/6/3 6/5/3 8/7/3 7/8/3
f 7/8/4 8/7/4 10/9/4 9/10/4
f 9/10/5 10/9/5 12/11/5 11/12/5
f 11/12/6 12/11/6 14/13/6 13/14/6
f 13/14/7 14/13/7 16/15/7 15/16/7
f 15/16/8 16/15/8 18/17/8 17/18/8
f 17/18/9 18/17/9 20/19/9 19/20/9
f 19/20/10 20/19/10 22/21/10 21/22/10
f 21/22/11 22/21/11 24/23/11 23/24/11
f 23/24/12 24/23/12 26/25/12 25/26/12
f 25/26/13 26/25/13 28/27/13 27/28/13
f 27/28/14 28/27/14 30/29/14 29/30/14
f 29/30/15 30/29/15 32/31/15 31/32/15
f 31/32/16 32/31/16 34/33/16 33/34/16
f 33/34/17 34/33/17 36/35/17 35/36/17
f 35/36/18 36/35/18 38/37/18 37/38/18
f 37/38/19 38/37/19 40/39/19 39/40/19
f 39/40/20 40/39/20 42/41/20 41/42/20
f 41/42/21 42/41/21 44/43/21 43/44/21
f 43/44/22 44/43/22 46/45/22 45/46/22
f 45/46/23 46/45/23 48/47/23 47/48/23
f 47/48/24 48/47/24 50/49/24 49/50/24
f 49/50/25 50/49/25 52/51/25 51/52/25
f 51/52/26 52/51/26 54/53/26 53/54/26
f 53/54/27 54/53/27 56/55/27 55/56/27
f 55/56/28 56/55/28 58/57/28 57/58/28
f 57/58/29 58/57/29 60/59/29 59/60/29
f 59/60/30 60/59/30 62/61/30 61/62/30
f 14/63/31 12/64/31 10/65/31 8/66/31 6/67/31 4/68/31 2/69/31 64/70/31 62/71/31 60/72/31 58/73/31 56/74/31 65/75/31 67/76/31 66/77/31 71/78/31 68/79/31 70/80/31 69/81/31 74/82/31 78/83/31 81/84/31 91/85/31 95/86/31 94/87/31 92/88/31 93/89/31 97/90/31 90/91/31 96/92/31 87/93/31 88/94/31 89/95/31 86/96/31 84/97/31 83/98/31 85/99/31 82/100/31 80/101/31 79/102/31 77/103/31 48/104/31 46/105/31 44/106/31 42/107/31 40/108/31 38/109/31 36/110/31 34/111/31 32/112/31 30/113/31 28/114/31 26/115/31 24/116/31 22/117/31 20/118/31 18/119/31 16/120/31
f 56/74/31 54/121/31 52/122/31 50/123/31 48/104/31 77/103/31 76/124/31 73/125/31 72/126/31 75/127/31 65/75/31
f 61/62/32 62/61/32 64/128/32 63/129/32
f 63/129/33 64/128/33 2/130/33 1/131/33
f 102/132/34 63/133/34 1/134/34 3/135/34 5/136/34 7/137/34 9/138/34 11/139/34 13/140/34 15/141/34 17/142/34 110/143/34 111/144/34 108/145/34 109/146/34 112/147/34 106/148/34 107/149/34 105/150/34 113/151/34
f 110/143/34 17/142/34 19/152/34 21/153/34 23/154/34 25/155/34 27/156/34 29/157/34 31/158/34 33/159/34 35/160/34 37/161/34 39/162/34 41/163/34 43/164/34 45/165/34 47/166/34 49/167/34 51/168/34 53/169/34 55/170/34 57/171/34 59/172/34 61/173/34 63/133/34 102/132/34 103/174/34 101/175/34 104/176/34 99/177/34 100/178/34 98/179/34 115/180/34 114/181/34 116/182/34 118/183/34 117/184/34 122/185/34 119/186/34 121/187/34 120/188/34 129/189/34 123/190/34 125/191/34 124/192/34 128/193/34 126/194/34 127/195/34
f 105/196/35 69/197/35 70/198/35 113/199/35
f 107/200/18 74/201/18 69/197/18 105/196/18
f 106/202/36 78/203/36 74/201/36 107/200/36
f 112/204/20 81/205/20 78/203/20 106/202/20
f 91/206/37 81/205/37 112/204/37 109/207/37
f 95/208/22 91/206/22 109/207/22 108/209/22
f 94/210/38 95/208/38 108/209/38 111/211/38
f 92/212/24 94/210/24 111/211/24 110/213/24
f 93/214/39 92/212/39 110/213/39 127/215/39
f 97/216/26 93/214/26 127/215/26 126/217/26
f 90/218/40 97/216/40 126/217/40 128/219/40
f 96/220/28 90/218/28 128/219/28 124/221/28
f 87/222/41 96/220/41 124/221/41 125/223/41
f 88/224/30 87/222/30 125/223/30 123/225/30
f 89/226/42 88/224/42 123/225/42 129/227/42
f 86/228/33 89/226/33 129/227/33 120/229/33
f 84/230/43 86/228/43 120/229/43 121/231/43
f 83/232/2 84/230/2 121/231/2 119/233/2
f 85/234/44 83/232/44 119/233/44 122/235/44
f 82/236/4 85/234/4 122/235/4 117/237/4
f 118/238/45 80/239/45 82/236/45 117/237/45
f 116/240/6 79/241/6 80/239/6 118/238/6
f 114/242/46 77/243/46 79/241/46 116/240/46
f 115/244/8 76/245/8 77/243/8 114/242/8
f 98/246/47 73/247/47 76/245/47 115/244/47
f 100/248/10 72/249/10 73/247/10 98/246/10
f 99/250/48 75/251/48 72/249/48 100/248/48
f 104/252/12 67/253/12 65/254/12 75/251/12 99/250/12
f 101/255/49 66/256/49 67/253/49 104/252/49
f 103/257/14 71/258/14 66/256/14 101/255/14
f 102/259/50 68/260/50 71/258/50 103/257/50
f 113/261/16 70/262/16 68/260/16 102/259/16
s 0
usemtl マテリアル.002
f 130/263/51 131/263/51 133/263/51 132/263/51
f 132/263/31 133/263/31 137/263/31 136/263/31
f 136/263/52 137/263/52 135/263/52 134/263/52
f 134/263/34 135/263/34 131/263/34 130/263/34
f 132/263/53 136/263/53 134/263/53 130/263/53
f 137/263/54 133/263/54 131/263/54 135/263/54
f 138/263/51 139/263/51 141/263/51 140/263/51
f 140/263/31 141/263/31 145/263/31 144/263/31
f 144/263/52 145/263/52 143/263/52 142/263/52
f 142/263/34 143/263/34 139/263/34 138/263/34
f 140/263/53 144/263/53 142/263/53 138/263/53
f 145/263/54 141/263/54 139/263/54 143/263/54
f 150/263/55 146/263/55 151/263/55 158/263/55
f 158/263/56 151/263/56 147/263/56 152/263/56
f 152/263/57 147/263/57 153/263/57 159/263/57
f 159/263/58 153/263/58 149/263/58 154/263/58
f 154/263/59 149/263/59 155/263/59 160/263/59
f 160/263/60 155/263/60 148/263/60 156/263/60
f 156/263/61 148/263/61 157/263/61 161/263/61
f 161/263/62 157/263/62 146/263/62 150/263/62
f 149/263/63 153/263/63 162/263/63 155/263/63
f 153/263/64 147/263/64 151/263/64 162/263/64
f 162/263/65 151/263/65 146/263/65 157/263/65
f 155/263/66 162/263/66 157/263/66 148/263/66
f 175/263/67 174/263/67 183/263/67 180/263/67
f 188/263/68 193/263/68 164/263/68 167/263/68
f 189/263/69 194/263/69 163/263/69 170/263/69
f 194/263/70 188/263/70 167/263/70 163/263/70
f 190/263/71 189/263/71 170/263/71 166/263/71
f 191/263/72 195/263/72 165/263/72 168/263/72
f 193/263/73 191/263/73 168/263/73 164/263/73
f 192/263/74 190/263/74 166/263/74 169/263/74
f 166/263/75 170/263/75 171/263/75
f 165/263/76 169/263/76 171/263/76
f 164/263/77 168/263/77 171/263/77
f 163/263/78 167/263/78 171/263/78
f 170/263/79 163/263/79 171/263/79
f 169/263/80 166/263/80 171/263/80
f 168/263/81 165/263/81 171/263/81
f 167/263/82 164/263/82 171/263/82
f 195/263/67 192/263/67 169/263/67 165/263/67
f 161/263/83 150/263/83 179/263/83 172/263/83
f 178/263/68 177/263/68 182/263/68 187/263/68
f 172/263/69 179/263/69 181/263/69 186/263/69
f 179/263/70 178/263/70 187/263/70 181/263/70
f 173/263/71 172/263/71 186/263/71 185/263/71
f 176/263/72 175/263/72 180/263/72 184/263/72
f 177/263/73 176/263/73 184/263/73 182/263/73
f 150/263/84 158/263/84 178/263/84 179/263/84
f 190/263/85 192/263/85 183/263/85 185/263/85
f 192/263/86 195/263/86 180/263/86 183/263/86
f 154/263/87 160/263/87 174/263/87 175/263/87
f 193/263/88 188/263/88 187/263/88 182/263/88
f 159/263/89 154/263/89 175/263/89 176/263/89
f 194/263/90 189/263/90 186/263/90 181/263/90
f 188/263/91 194/263/91 181/263/91 187/263/91
f 152/263/92 159/263/92 176/263/92 177/263/92
f 189/263/93 190/263/93 185/263/93 186/263/93
f 158/263/94 152/263/94 177/263/94 178/263/94
f 195/263/95 191/263/95 184/263/95 180/263/95
f 156/263/96 161/263/96 172/263/96 173/263/96
f 160/263/97 156/263/97 173/263/97 174/263/97
f 191/263/98 193/263/98 182/263/98 184/263/98
f 174/263/74 173/263/74 185/263/74 183/263/74
f 196/263/51 197/263/51 199/263/51 198/263/51
f 198/263/31 199/263/31 203/263/31 202/263/31
f 202/263/52 203/263/52 201/263/52 200/263/52
f 200/263/34 201/263/34 197/263/34 196/263/34
f 198/263/53 202/263/53 200/263/53 196/263/53
f 203/263/54 199/263/54 197/263/54 201/263/54
f 204/263/51 205/263/51 207/263/51 206/263/51
f 206/263/99 409/263/99 410/263/99 204/263/99
f 210/263/34 412/263/34 413/263/34 212/263/34 211/263/34
f 204/263/34 410/263/34 411/263/34 208/263/34 205/263/34
f 205/263/100 211/263/100 212/263/100 215/263/100 213/263/100 207/263/100
f 209/263/53 207/263/53 213/263/53 214/263/53
f 215/263/31 414/263/31 415/263/31 214/263/31 213/263/31
f 205/263/53 208/263/53 210/263/53 211/263/53
f 212/263/101 413/263/101 414/263/101 215/263/101
f 216/263/51 217/263/51 219/263/51 218/263/51
f 223/263/102 222/263/102 226/263/102 227/263/102
f 222/263/52 223/263/52 221/263/52 220/263/52
f 220/263/103 221/263/103 217/263/103 216/263/103
f 218/263/104 222/263/104 220/263/104 216/263/104
f 223/263/105 219/263/105 217/263/105 221/263/105
f 225/263/106 224/263/106 227/263/106 226/263/106
f 222/263/107 218/263/107 225/263/107 226/263/107
f 219/263/108 223/263/108 227/263/108 224/263/108
f 218/263/109 219/263/109 224/263/109 225/263/109
f 228/263/51 229/263/51 231/263/51 230/263/51
f 230/263/31 231/263/31 235/263/31 234/263/31
f 234/263/52 235/263/52 233/263/52 232/263/52
f 232/263/34 233/263/34 229/263/34 228/263/34
f 230/263/53 234/263/53 232/263/53 228/263/53
f 235/263/54 231/263/54 229/263/54 233/263/54
f 236/263/51 237/263/51 239/263/51 238/263/51
f 238/263/31 239/263/31 243/263/31 242/263/31
f 242/263/52 243/263/52 241/263/52 240/263/52
f 240/263/34 241/263/34 237/263/34 236/263/34
f 238/263/53 242/263/53 240/263/53 236/263/53
f 243/263/54 239/263/54 237/263/54 241/263/54
f 399/263/110 407/263/110 406/263/110 254/263/110 257/263/110 258/263/110 259/263/110
f 259/263/52 253/263/52 398/263/52 399/263/52
f 247/263/111 249/263/111 246/263/111 244/263/111
f 247/263/51 248/263/51 250/263/51 249/263/51
f 252/263/112 404/263/112 405/263/112 398/263/112 253/263/112 256/263/112 255/263/112
f 250/263/113 248/263/113 245/263/113 251/263/113
f 255/263/114 257/263/114 254/263/114 252/263/114
f 255/263/51 256/263/51 258/263/51 257/263/51
f 397/263/115 403/263/115 402/263/115 246/263/115 249/263/115 250/263/115 251/263/115
f 258/263/116 256/263/116 253/263/116 259/263/116
f 260/263/31 261/263/31 263/263/31 262/263/31
f 262/263/52 263/263/52 267/263/52 266/263/52
f 266/263/34 267/263/34 265/263/34 264/263/34
f 264/263/51 265/263/51 261/263/51 260/263/51
f 262/263/53 266/263/53 264/263/53 260/263/53
f 267/263/54 263/263/54 261/263/54 265/263/54
f 268/263/51 269/263/51 271/263/51 270/263/51
f 270/263/31 271/263/31 275/263/31 274/263/31
f 274/263/52 275/263/52 273/263/52 272/263/52
f 272/263/34 273/263/34 269/263/34 268/263/34
f 270/263/53 274/263/53 272/263/53 268/263/53
f 275/263/117 271/263/117 269/263/117 273/263/117
f 276/263/51 277/263/51 279/263/51 278/263/51
f 278/263/31 279/263/31 283/263/31 282/263/31
f 282/263/52 283/263/52 281/263/52 280/263/52
f 280/263/34 281/263/34 277/263/34 276/263/34
f 278/263/53 282/263/53 280/263/53 276/263/53
f 283/263/117 279/263/117 277/263/117 281/263/117
f 284/263/52 285/263/52 287/263/52 286/263/52
f 286/263/34 287/263/34 291/263/34 290/263/34
f 290/263/51 291/263/51 289/263/51 288/263/51
f 288/263/31 289/263/31 285/263/31 284/263/31
f 286/263/53 290/263/53 288/263/53 284/263/53
f 291/263/118 287/263/118 285/263/118 289/263/118
f 292/263/52 293/263/52 295/263/52 294/263/52
f 294/263/34 295/263/34 299/263/34 298/263/34
f 298/263/51 299/263/51 297/263/51 296/263/51
f 296/263/31 297/263/31 293/263/31 292/263/31
f 294/263/53 298/263/53 296/263/53 292/263/53
f 299/263/118 295/263/118 293/263/118 297/263/118
f 300/263/52 301/263/52 303/263/52 302/263/52
f 302/263/34 303/263/34 307/263/34 306/263/34
f 306/263/51 307/263/51 305/263/51 304/263/51
f 304/263/31 305/263/31 301/263/31 300/263/31
f 302/263/53 306/263/53 304/263/53 300/263/53
f 307/263/54 303/263/54 301/263/54 305/263/54
f 308/263/52 309/263/52 311/263/52 310/263/52
f 310/263/34 311/263/34 315/263/34 314/263/34
f 314/263/51 315/263/51 313/263/51 312/263/51
f 312/263/31 313/263/31 309/263/31 308/263/31
f 310/263/53 314/263/53 312/263/53 308/263/53
f 315/263/54 311/263/54 309/263/54 313/263/54
f 316/263/31 317/263/31 319/263/31 318/263/31
f 318/263/52 319/263/52 323/263/52 322/263/52
f 322/263/34 323/263/34 321/263/34 320/263/34
f 320/263/51 321/263/51 317/263/51 316/263/51
f 318/263/53 322/263/53 320/263/53 316/263/53
f 323/263/54 319/263/54 317/263/54 321/263/54
f 324/263/52 325/263/52 327/263/52 326/263/52
f 326/263/34 327/263/34 331/263/34 330/263/34
f 330/263/51 331/263/51 329/263/51 328/263/51
f 328/263/31 329/263/31 325/263/31 324/263/31
f 326/263/119 330/263/119 328/263/119 324/263/119
f 331/263/120 327/263/120 325/263/120 329/263/120
f 332/263/51 339/263/51 338/263/51 337/263/51 336/263/51 335/263/51 334/263/51 333/263/51
f 345/263/121 346/263/121 362/263/121 361/263/121
f 339/263/122 332/263/122 349/263/122 355/263/122
f 337/263/123 338/263/123 354/263/123 353/263/123
f 335/263/124 336/263/124 352/263/124 351/263/124
f 333/263/121 334/263/121 350/263/121 348/263/121
f 338/263/125 339/263/125 355/263/125 354/263/125
f 336/263/126 337/263/126 353/263/126 352/263/126
f 334/263/127 335/263/127 351/263/127 350/263/127
f 332/263/128 333/263/128 348/263/128 349/263/128
f 341/263/52 340/263/52 349/263/52 348/263/52
f 342/263/52 341/263/52 348/263/52 350/263/52
f 343/263/52 342/263/52 350/263/52 351/263/52
f 344/263/52 343/263/52 351/263/52 352/263/52
f 345/263/52 344/263/52 352/263/52 353/263/52
f 346/263/52 345/263/52 353/263/52 354/263/52
f 347/263/52 346/263/52 354/263/52 355/263/52
f 340/263/52 347/263/52 355/263/52 349/263/52
f 357/263/52 356/263/52 358/263/52 359/263/52 360/263/52 361/263/52 362/263/52 363/263/52
f 343/263/122 344/263/122 360/263/122 359/263/122
f 341/263/123 342/263/123 358/263/123 356/263/123
f 346/263/127 347/263/127 363/263/127 362/263/127
f 344/263/128 345/263/128 361/263/128 360/263/128
f 342/263/125 343/263/125 359/263/125 358/263/125
f 340/263/126 341/263/126 356/263/126 357/263/126
f 347/263/124 340/263/124 357/263/124 363/263/124
f 364/263/52 371/263/52 370/263/52 369/263/52 368/263/52 367/263/52 366/263/52 365/263/52
f 374/263/121 375/263/121 391/263/121 390/263/121
f 369/263/127 370/263/127 386/263/127 385/263/127
f 367/263/126 368/263/126 384/263/126 383/263/126
f 365/263/125 366/263/125 382/263/125 380/263/125
f 370/263/121 371/263/121 387/263/121 386/263/121
f 368/263/124 369/263/124 385/263/124 384/263/124
f 366/263/123 367/263/123 383/263/123 382/263/123
f 364/263/122 365/263/122 380/263/122 381/263/122
f 371/263/128 364/263/128 381/263/128 387/263/128
f 372/263/51 373/263/51 381/263/51 380/263/51
f 374/263/51 372/263/51 380/263/51 382/263/51
f 375/263/51 374/263/51 382/263/51 383/263/51
f 376/263/51 375/263/51 383/263/51 384/263/51
f 377/263/51 376/263/51 384/263/51 385/263/51
f 378/263/51 377/263/51 385/263/51 386/263/51
f 379/263/51 378/263/51 386/263/51 387/263/51
f 373/263/51 379/263/51 387/263/51 381/263/51
f 389/263/51 388/263/51 390/263/51 391/263/51 392/263/51 393/263/51 394/263/51 395/263/51
f 373/263/124 372/263/124 388/263/124 389/263/124
f 379/263/126 373/263/126 389/263/126 395/263/126
f 377/263/125 378/263/125 394/263/125 393/263/125
f 375/263/128 376/263/128 392/263/128 391/263/128
f 372/263/127 374/263/127 390/263/127 388/263/127
f 378/263/123 379/263/123 395/263/123 394/263/123
f 376/263/122 377/263/122 393/263/122 392/263/122
f 397/263/113 396/263/113 401/263/113 403/263/113
f 246/263/111 402/263/111 400/263/111 244/263/111
f 254/263/114 406/263/114 404/263/114 252/263/114
f 244/263/129 400/263/129 401/263/129 396/263/129 245/263/129 248/263/129 247/263/129
f 251/263/52 245/263/52 396/263/52 397/263/52
f 402/263/52 403/263/52 401/263/52 400/263/52
f 406/263/52 407/263/52 405/263/52 404/263/52
f 399/263/116 398/263/116 405/263/116 407/263/116
f 409/263/52 408/263/52 411/263/52 410/263/52
f 413/263/130 412/263/130 411/263/130 408/263/130 415/263/130 414/263/130
f 210/263/131 208/263/131 411/263/131 412/263/131
f 209/263/131 214/263/131 415/263/131 408/263/131
f 209/263/31 408/263/31 409/263/31 206/263/31 207/263/31
f 416/263/122 433/263/122 432/263/122 418/263/122
f 418/263/125 432/263/125 434/263/125 420/263/125
f 420/263/123 434/263/123 435/263/123 422/263/123
f 422/263/126 435/263/126 436/263/126 424/263/126
f 424/263/124 436/263/124 437/263/124 426/263/124
f 426/263/127 437/263/127 438/263/127 428/263/127
f 421/263/127 419/263/127 440/263/127 442/263/127
f 428/263/121 438/263/121 439/263/121 430/263/121
f 430/263/128 439/263/128 433/263/128 416/263/128
f 416/263/51 418/263/51 420/263/51 422/263/51 424/263/51 426/263/51 428/263/51 430/263/51
f 417/263/52 419/263/52 432/263/52 433/263/52
f 419/263/52 421/263/52 434/263/52 432/263/52
f 421/263/52 423/263/52 435/263/52 434/263/52
f 423/263/52 425/263/52 436/263/52 435/263/52
f 425/263/52 427/263/52 437/263/52 436/263/52
f 427/263/52 429/263/52 438/263/52 437/263/52
f 429/263/52 431/263/52 439/263/52 438/263/52
f 431/263/52 417/263/52 433/263/52 439/263/52
f 440/263/52 441/263/52 447/263/52 446/263/52 445/263/52 444/263/52 443/263/52 442/263/52
f 431/263/123 429/263/123 446/263/123 447/263/123
f 427/263/122 425/263/122 444/263/122 445/263/122
f 423/263/121 421/263/121 442/263/121 443/263/121
f 419/263/124 417/263/124 441/263/124 440/263/124
f 417/263/126 431/263/126 447/263/126 441/263/126
f 429/263/125 427/263/125 445/263/125 446/263/125
f 425/263/128 423/263/128 443/263/128 444/263/128
f 448/263/51 449/263/51 451/263/51 450/263/51
f 450/263/31 451/263/31 456/263/31 457/263/31
f 453/263/31 452/263/31 462/263/31 463/263/31
f 458/263/34 459/263/34 449/263/34 448/263/34
f 450/263/53 457/263/53 458/263/53 448/263/53
f 456/263/54 451/263/54 449/263/54 459/263/54
f 455/263/52 454/263/52 457/263/52 456/263/52
f 454/263/52 452/263/52 458/263/52 457/263/52
f 453/263/52 455/263/52 456/263/52 459/263/52
f 452/263/52 453/263/52 459/263/52 458/263/52
f 461/263/52 460/263/52 463/263/52 462/263/52
f 452/263/54 454/263/54 461/263/54 462/263/54
f 455/263/53 453/263/53 463/263/53 460/263/53
f 454/263/34 455/263/34 460/263/34 461/263/34
f 464/263/51 465/263/51 467/263/51 466/263/51
f 466/263/31 467/263/31 471/263/31 470/263/31
f 471/263/132 469/263/132 515/263/132 512/263/132
f 468/263/34 469/263/34 465/263/34 464/263/34
f 466/263/53 470/263/53 468/263/53 464/263/53
f 471/263/54 467/263/54 465/263/54 469/263/54
f 472/263/51 473/263/51 475/263/51 474/263/51
f 474/263/31 475/263/31 479/263/31 478/263/31
f 478/263/52 479/263/52 477/263/52 476/263/52
f 476/263/34 477/263/34 473/263/34 472/263/34
f 474/263/53 478/263/53 476/263/53 472/263/53
f 479/263/54 475/263/54 473/263/54 477/263/54
f 480/263/51 481/263/51 483/263/51 482/263/51
f 482/263/31 483/263/31 487/263/31 486/263/31
f 486/263/52 487/263/52 485/263/52 484/263/52
f 484/263/34 485/263/34 481/263/34 480/263/34
f 482/263/53 486/263/53 484/263/53 480/263/53
f 487/263/54 483/263/54 481/263/54 485/263/54
f 488/263/51 489/263/51 491/263/51 490/263/51
f 490/263/31 491/263/31 495/263/31 494/263/31
f 494/263/52 495/263/52 493/263/52 492/263/52
f 492/263/34 493/263/34 489/263/34 488/263/34
f 490/263/53 494/263/53 492/263/53 488/263/53
f 495/263/54 491/263/54 489/263/54 493/263/54
f 496/263/51 497/263/51 499/263/51 498/263/51
f 498/263/31 499/263/31 503/263/31 502/263/31
f 502/263/52 503/263/52 501/263/52 500/263/52
f 500/263/34 501/263/34 497/263/34 496/263/34
f 498/263/53 502/263/53 500/263/53 496/263/53
f 503/263/54 499/263/54 497/263/54 501/263/54
f 504/263/51 505/263/51 507/263/51 506/263/51
f 506/263/31 507/263/31 511/263/31 510/263/31
f 510/263/52 511/263/52 509/263/52 508/263/52
f 508/263/34 509/263/34 505/263/34 504/263/34
f 506/263/53 510/263/53 508/263/53 504/263/53
f 511/263/54 507/263/54 505/263/54 509/263/54
f 513/263/52 512/263/52 515/263/52 514/263/52
f 470/263/31 471/263/31 512/263/31 513/263/31
f 469/263/34 468/263/34 514/263/34 515/263/34
f 468/263/53 470/263/53 513/263/53 514/263/53
f 516/263/51 517/263/51 519/263/51 518/263/51
f 518/263/31 519/263/31 523/263/31 522/263/31
f 522/263/52 523/263/52 521/263/52 520/263/52
f 520/263/34 521/263/34 517/263/34 516/263/34
f 518/263/53 522/263/53 520/263/53 516/263/53
f 523/263/54 519/263/54 517/263/54 521/263/54
f 524/263/51 525/263/51 527/263/51 526/263/51
f 526/263/31 527/263/31 531/263/31 530/263/31
f 530/263/52 531/263/52 529/263/52 528/263/52
f 528/263/34 529/263/34 525/263/34 524/263/34
f 526/263/53 530/263/53 528/263/53 524/263/53
f 531/263/54 527/263/54 525/263/54 529/263/54
f 532/263/51 533/263/51 535/263/51 534/263/51
f 534/263/31 535/263/31 539/263/31 538/263/31
f 538/263/52 539/263/52 537/263/52 536/263/52
f 536/263/34 537/263/34 533/263/34 532/263/34
f 534/263/53 538/263/53 536/263/53 532/263/53
f 539/263/54 535/263/54 533/263/54 537/263/54
f 540/263/51 541/263/51 543/263/51 542/263/51
f 542/263/31 543/263/31 547/263/31 546/263/31
f 546/263/52 547/263/52 545/263/52 544/263/52
f 544/263/34 545/263/34 541/263/34 540/263/34
f 542/263/53 546/263/53 544/263/53 540/263/53
f 547/263/54 543/263/54 541/263/54 545/263/54
f 548/263/51 549/263/51 551/263/51 550/263/51
f 550/263/31 551/263/31 555/263/31 554/263/31
f 554/263/52 555/263/52 553/263/52 552/263/52
f 552/263/34 553/263/34 549/263/34 548/263/34
f 550/263/53 554/263/53 552/263/53 548/263/53
f 555/263/54 551/263/54 549/263/54 553/263/54
f 556/263/51 557/263/51 559/263/51 558/263/51
f 558/263/31 559/263/31 563/263/31 562/263/31
f 562/263/52 563/263/52 561/263/52 560/263/52
f 560/263/34 561/263/34 557/263/34 556/263/34
f 558/263/53 562/263/53 560/263/53 556/263/53
f 563/263/54 559/263/54 557/263/54 561/263/54
usemtl マテリアル.003
f 564/263/51 565/263/51 567/263/51 566/263/51
f 566/263/31 567/263/31 571/263/31 570/263/31
f 570/263/52 571/263/52 569/263/52 568/263/52
f 568/263/34 569/263/34 565/263/34 564/263/34
f 566/263/53 570/263/53 568/263/53 564/263/53
f 571/263/54 567/263/54 565/263/54 569/263/54
f 580/263/34 581/263/34 575/263/34 574/263/34
f 574/263/51 575/263/51 579/263/51 578/263/51
f 582/263/31 583/263/31 577/263/31 576/263/31
f 576/263/52 577/263/52 573/263/52 572/263/52
f 580/263/53 582/263/53 576/263/53 572/263/53
f 583/263/133 581/263/133 573/263/133 577/263/133
f 579/263/134 575/263/134 581/263/134 583/263/134
f 574/263/53 578/263/53 582/263/53 580/263/53
f 578/263/31 579/263/31 583/263/31 582/263/31
f 572/263/34 573/263/34 581/263/34 580/263/34
f 584/263/51 586/263/51 593/263/51 585/263/51
f 585/263/53 589/263/53 587/263/53 584/263/53
f 587/263/34 588/263/34 586/263/34 584/263/34
f 589/263/52 591/263/52 588/263/52 587/263/52
f 590/263/52 592/263/52 591/263/52 589/263/52
f 595/263/53 590/263/53 589/263/53 585/263/53
f 591/263/135 593/263/135 586/263/135 588/263/135
f 592/263/136 594/263/136 593/263/136 591/263/136
f 585/263/51 593/263/51 594/263/51 595/263/51
f 595/263/31 594/263/31 592/263/31 590/263/31
f 596/263/34 598/263/34 605/263/34 597/263/34
f 597/263/53 601/263/53 599/263/53 596/263/53
f 599/263/52 600/263/52 598/263/52 596/263/52
f 601/263/31 603/263/31 600/263/31 599/263/31
f 602/263/31 604/263/31 603/263/31 601/263/31
f 607/263/53 602/263/53 601/263/53 597/263/53
f 603/263/137 605/263/137 598/263/137 600/263/137
f 604/263/138 606/263/138 605/263/138 603/263/138
f 597/263/34 605/263/34 606/263/34 607/263/34
f 607/263/51 606/263/51 604/263/51 602/263/51
f 608/263/51 610/263/51 617/263/51 609/263/51
f 609/263/53 613/263/53 611/263/53 608/263/53
f 611/263/34 612/263/34 610/263/34 608/263/34
f 613/263/52 615/263/52 612/263/52 611/263/52
f 614/263/52 616/263/52 615/263/52 613/263/52
f 619/263/53 614/263/53 613/263/53 609/263/53
f 615/263/135 617/263/135 610/263/135 612/263/135
f 616/263/136 618/263/136 617/263/136 615/263/136
f 609/263/51 617/263/51 618/263/51 619/263/51
f 619/263/31 618/263/31 616/263/31 614/263/31
f 620/263/51 621/263/51 623/263/51 622/263/51
f 622/263/31 623/263/31 627/263/31 626/263/31
f 626/263/52 627/263/52 625/263/52 624/263/52
f 624/263/34 625/263/34 621/263/34 620/263/34
f 622/263/53 626/263/53 624/263/53 620/263/53
f 627/263/54 623/263/54 621/263/54 625/263/54
f 628/263/51 629/263/51 631/263/51 630/263/51
f 630/263/31 631/263/31 635/263/31 634/263/31
f 634/263/52 635/263/52 633/263/52 632/263/52
f 632/263/34 633/263/34 629/263/34 628/263/34
f 630/263/53 634/263/53 632/263/53 628/263/53
f 635/263/54 631/263/54 629/263/54 633/263/54
