# Blender 4.4.1
# www.blender.org
mtllib gear.mtl
o 円柱
v 0.018318 -0.070260 -0.809363
v 0.018318 0.070260 -0.809363
v 0.195090 -0.070260 -0.980785
v 0.195090 0.070260 -0.980785
v 0.382683 -0.070260 -0.923880
v 0.382683 0.070260 -0.923880
v 0.437381 -0.070260 -0.683099
v 0.437381 0.070260 -0.683099
v 0.588918 -0.070260 -0.558736
v 0.588918 0.070260 -0.558736
v 0.831470 -0.070260 -0.555570
v 0.831470 0.070260 -0.555570
v 0.923880 -0.070260 -0.382683
v 0.923880 0.070260 -0.382683
v 0.789877 -0.070260 -0.180120
v 0.789877 0.070260 -0.180120
v 0.809092 -0.070260 0.014970
v 0.809092 0.070260 0.014970
v 0.980785 -0.070260 0.195090
v 0.980785 0.070260 0.195090
v 0.923880 -0.070260 0.382683
v 0.923880 0.070260 0.382683
v 0.685336 -0.070260 0.435015
v 0.685336 0.070260 0.435015
v 0.560974 -0.070260 0.586551
v 0.560974 0.070260 0.586551
v 0.555570 -0.070260 0.831470
v 0.555570 0.070260 0.831470
v 0.382683 -0.070260 0.923880
v 0.382683 0.070260 0.923880
v 0.176808 -0.070260 0.791479
v 0.176808 0.070260 0.791479
v -0.018282 -0.070260 0.810694
v -0.018282 0.070260 0.810694
v -0.195090 -0.070260 0.980785
v -0.195090 0.070260 0.980785
v -0.382683 -0.070260 0.923880
v -0.382683 0.070260 0.923880
v -0.434920 -0.070260 0.684056
v -0.434920 0.070260 0.684056
v -0.586456 -0.070260 0.559693
v -0.586456 0.070260 0.559693
v -0.831470 -0.070260 0.555570
v -0.831470 0.070260 0.555570
v -0.923880 -0.070260 0.382683
v -0.923880 0.070260 0.382683
v -0.790755 -0.070260 0.175862
v -0.790755 0.070260 0.175862
v -0.809970 -0.070260 -0.019229
v -0.809970 0.070260 -0.019229
v -0.980785 -0.070260 -0.195090
v -0.980785 0.070260 -0.195090
v -0.923880 -0.070260 -0.382683
v -0.923880 0.070260 -0.382683
v -0.681054 -0.070260 -0.434316
v -0.681054 0.070260 -0.434316
v -0.556691 -0.070260 -0.585853
v -0.556691 0.070260 -0.585853
v -0.555570 -0.070260 -0.831470
v -0.555570 0.070260 -0.831470
v -0.382683 -0.070260 -0.923880
v -0.382683 0.070260 -0.923880
v -0.176772 -0.070260 -0.790148
v -0.176772 0.070260 -0.790148
v -0.310999 0.070260 -0.211666
v -0.209171 0.070260 -0.313047
v -0.266224 0.070260 -0.266224
v -0.073451 0.070260 -0.369264
v 0.073451 0.070260 -0.369264
v 0.000000 0.070260 -0.376498
v -0.144080 0.070260 -0.347839
v -0.347839 0.070260 -0.144080
v -0.369264 0.070260 -0.073451
v 0.144080 0.070260 -0.347839
v -0.313047 0.070260 -0.209171
v -0.376498 0.070260 0.000000
v -0.369264 0.070260 0.073451
v 0.209171 0.070260 -0.313047
v -0.347839 0.070260 0.144080
v -0.313047 0.070260 0.209171
v 0.266224 0.070260 -0.266224
v -0.266224 0.070260 0.266224
v -0.144080 0.070260 0.347839
v -0.073451 0.070260 0.369264
v -0.209171 0.070260 0.313047
v 0.000000 0.070260 0.376498
v 0.209171 0.070260 0.313047
v 0.144080 0.070260 0.347839
v 0.073451 0.070260 0.369264
v 0.313047 0.070260 0.209171
v 0.313047 0.070260 -0.209171
v 0.376498 0.070260 0.000000
v 0.369264 0.070260 0.073451
v 0.369264 0.070260 -0.073451
v 0.347839 0.070260 -0.144080
v 0.266224 0.070260 0.266224
v 0.347839 0.070260 0.144080
v -0.369264 -0.070260 -0.073451
v -0.313047 -0.070260 -0.209171
v -0.347839 -0.070260 -0.144080
v -0.209171 -0.070260 -0.313047
v -0.073451 -0.070260 -0.369264
v -0.144080 -0.070260 -0.347839
v -0.266224 -0.070260 -0.266224
v 0.073451 -0.070260 -0.369264
v 0.209171 -0.070260 -0.313047
v 0.144080 -0.070260 -0.347839
v 0.347839 -0.070260 -0.144080
v 0.313047 -0.070260 -0.209171
v 0.376498 -0.070260 0.000000
v 0.369264 -0.070260 -0.073451
v 0.266224 -0.070260 -0.266224
v 0.000000 -0.070260 -0.376498
v -0.369264 -0.070260 0.073451
v -0.376498 -0.070260 0.000000
v -0.347839 -0.070260 0.144080
v -0.266224 -0.070260 0.266224
v -0.313047 -0.070260 0.209171
v -0.144080 -0.070260 0.347839
v 0.000000 -0.070260 0.376498
v -0.073451 -0.070260 0.369264
v -0.209171 -0.070260 0.313047
v 0.144080 -0.070260 0.347839
v 0.266224 -0.070260 0.266224
v 0.209171 -0.070260 0.313047
v 0.347839 -0.070260 0.144080
v 0.369264 -0.070260 0.073451
v 0.313047 -0.070260 0.209171
v 0.073451 -0.070260 0.369264
vn -0.6962 -0.0000 -0.7179
vn 0.2903 -0.0000 -0.9569
vn 0.9752 -0.0000 -0.2215
vn 0.6344 -0.0000 -0.7730
vn 0.0131 -0.0000 -0.9999
vn 0.8819 -0.0000 -0.4714
vn 0.8340 -0.0000 0.5517
vn 0.9952 -0.0000 -0.0980
vn 0.7238 -0.0000 -0.6900
vn 0.9569 -0.0000 0.2903
vn 0.2143 -0.0000 0.9768
vn 0.7730 -0.0000 0.6344
vn 0.9998 -0.0000 0.0221
vn 0.4714 -0.0000 0.8819
vn -0.5409 -0.0000 0.8411
vn 0.0980 -0.0000 0.9952
vn 0.6933 -0.0000 0.7207
vn -0.2903 -0.0000 0.9569
vn -0.9771 -0.0000 0.2128
vn -0.6344 -0.0000 0.7730
vn -0.0168 -0.0000 0.9999
vn -0.8819 -0.0000 0.4714
vn -0.8409 -0.0000 -0.5412
vn -0.9952 -0.0000 0.0980
vn -0.7173 -0.0000 0.6967
vn -0.9569 -0.0000 -0.2903
vn -0.2080 -0.0000 -0.9781
vn -0.7730 -0.0000 -0.6344
vn -1.0000 -0.0000 -0.0046
vn -0.4714 -0.0000 -0.8819
vn -0.0000 1.0000 -0.0000
vn 0.5447 -0.0000 -0.8387
vn -0.0980 -0.0000 -0.9952
vn -0.0000 -1.0000 -0.0000
vn -0.0980 -0.0000 0.9952
vn -0.4714 -0.0000 0.8819
vn -0.7730 -0.0000 0.6344
vn -0.9569 -0.0000 0.2903
vn -0.9952 -0.0000 -0.0980
vn -0.8819 -0.0000 -0.4714
vn -0.6344 -0.0000 -0.7730
vn -0.2903 -0.0000 -0.9569
vn 0.0980 -0.0000 -0.9952
vn 0.4714 -0.0000 -0.8819
vn 0.7730 -0.0000 -0.6344
vn 0.9569 -0.0000 -0.2903
vn 0.9952 -0.0000 0.0980
vn 0.8819 -0.0000 0.4714
vn 0.6344 -0.0000 0.7730
vn 0.2903 -0.0000 0.9569
vt 1.000000 0.500000
vt 1.000000 1.000000
vt 0.968750 1.000000
vt 0.968750 0.500000
vt 0.937500 1.000000
vt 0.937500 0.500000
vt 0.906250 1.000000
vt 0.906250 0.500000
vt 0.875000 1.000000
vt 0.875000 0.500000
vt 0.843750 1.000000
vt 0.843750 0.500000
vt 0.812500 1.000000
vt 0.812500 0.500000
vt 0.781250 1.000000
vt 0.781250 0.500000
vt 0.750000 1.000000
vt 0.750000 0.500000
vt 0.718750 1.000000
vt 0.718750 0.500000
vt 0.687500 1.000000
vt 0.687500 0.500000
vt 0.656250 1.000000
vt 0.656250 0.500000
vt 0.625000 1.000000
vt 0.625000 0.500000
vt 0.593750 1.000000
vt 0.593750 0.500000
vt 0.562500 1.000000
vt 0.562500 0.500000
vt 0.531250 1.000000
vt 0.531250 0.500000
vt 0.500000 1.000000
vt 0.500000 0.500000
vt 0.468750 1.000000
vt 0.468750 0.500000
vt 0.437500 1.000000
vt 0.437500 0.500000
vt 0.406250 1.000000
vt 0.406250 0.500000
vt 0.375000 1.000000
vt 0.375000 0.500000
vt 0.343750 1.000000
vt 0.343750 0.500000
vt 0.312500 1.000000
vt 0.312500 0.500000
vt 0.281250 1.000000
vt 0.281250 0.500000
vt 0.250000 1.000000
vt 0.250000 0.500000
vt 0.218750 1.000000
vt 0.218750 0.500000
vt 0.187500 1.000000
vt 0.187500 0.500000
vt 0.156250 1.000000
vt 0.156250 0.500000
vt 0.125000 1.000000
vt 0.125000 0.500000
vt 0.093750 1.000000
vt 0.093750 0.500000
vt 0.062500 1.000000
vt 0.062500 0.500000
vt 0.471731 0.341844
vt 0.449553 0.383337
vt 0.419706 0.419706
vt 0.383337 0.449553
vt 0.341844 0.471731
vt 0.296822 0.485388
vt 0.250000 0.490000
vt 0.203178 0.485388
vt 0.158156 0.471731
vt 0.116663 0.449553
vt 0.080294 0.419706
vt 0.050447 0.383337
vt 0.165393 0.307535
vt 0.177486 0.322282
vt 0.193048 0.334900
vt 0.210800 0.344377
vt 0.229944 0.350293
vt 0.249795 0.352237
vt 0.269707 0.350145
vt 0.288942 0.344290
vt 0.306658 0.334934
vt 0.322092 0.322264
vt 0.334736 0.306690
vt 0.344243 0.288932
vt 0.350178 0.269786
vt 0.352127 0.249941
vt 0.350035 0.230044
vt 0.344181 0.210833
vt 0.334829 0.193150
vt 0.322175 0.177758
vt 0.306631 0.165159
vt 0.288910 0.155691
vt 0.269794 0.149776
vt 0.249961 0.147824
vt 0.230055 0.149898
vt 0.210824 0.155729
vt 0.193116 0.165062
vt 0.177700 0.177706
vt 0.165078 0.193251
vt 0.155587 0.210978
vt 0.149648 0.230105
vt 0.014612 0.203178
vt 0.028269 0.158156
vt 0.050447 0.116663
vt 0.080294 0.080294
vt 0.116663 0.050447
vt 0.158156 0.028269
vt 0.203178 0.014612
vt 0.250000 0.010000
vt 0.296822 0.014612
vt 0.341844 0.028269
vt 0.383337 0.050447
vt 0.419706 0.080294
vt 0.449553 0.116663
vt 0.471731 0.158156
vt 0.485388 0.203178
vt 0.490000 0.250000
vt 0.485388 0.296822
vt 0.028269 0.341844
vt 0.014612 0.296822
vt 0.010000 0.250000
vt 0.147671 0.249953
vt 0.149720 0.269879
vt 0.155527 0.289132
vt 0.164842 0.306859
vt 0.031250 1.000000
vt 0.031250 0.500000
vt 0.000000 1.000000
vt 0.000000 0.500000
vt 0.729944 0.350293
vt 0.703178 0.485388
vt 0.750000 0.490000
vt 0.796822 0.485388
vt 0.841844 0.471731
vt 0.883337 0.449553
vt 0.919706 0.419706
vt 0.949553 0.383337
vt 0.971731 0.341844
vt 0.985388 0.296822
vt 0.990000 0.250000
vt 0.852127 0.249941
vt 0.850178 0.269786
vt 0.844243 0.288932
vt 0.834736 0.306690
vt 0.822091 0.322264
vt 0.806658 0.334934
vt 0.788942 0.344290
vt 0.769707 0.350145
vt 0.749795 0.352237
vt 0.985388 0.203178
vt 0.971731 0.158156
vt 0.949553 0.116663
vt 0.919706 0.080294
vt 0.883337 0.050447
vt 0.841844 0.028269
vt 0.796822 0.014612
vt 0.750000 0.010000
vt 0.703178 0.014612
vt 0.658156 0.028269
vt 0.616663 0.050447
vt 0.580294 0.080294
vt 0.550447 0.116663
vt 0.528269 0.158156
vt 0.514612 0.203178
vt 0.510000 0.250000
vt 0.514612 0.296822
vt 0.528269 0.341844
vt 0.550447 0.383337
vt 0.580294 0.419706
vt 0.616663 0.449553
vt 0.658156 0.471731
vt 0.710800 0.344377
vt 0.693048 0.334900
vt 0.677485 0.322282
vt 0.664842 0.306859
vt 0.655527 0.289132
vt 0.649720 0.269879
vt 0.647671 0.249953
vt 0.649648 0.230105
vt 0.655587 0.210978
vt 0.665078 0.193251
vt 0.677700 0.177706
vt 0.693115 0.165062
vt 0.710824 0.155729
vt 0.730056 0.149898
vt 0.749961 0.147824
vt 0.769794 0.149776
vt 0.788910 0.155691
vt 0.806630 0.165159
vt 0.822175 0.177758
vt 0.834829 0.193150
vt 0.844181 0.210833
vt 0.850035 0.230044
vt 0.968750 0.732435
vt 0.968750 0.767565
vt 1.000000 0.767565
vt 1.000000 0.732435
vt 0.937500 0.732435
vt 0.937500 0.767565
vt 0.906250 0.732435
vt 0.906250 0.767565
vt 0.875000 0.732435
vt 0.875000 0.767565
vt 0.843750 0.767565
vt 0.843750 0.732435
vt 0.812500 0.767565
vt 0.812500 0.732435
vt 0.781250 0.767565
vt 0.781250 0.732435
vt 0.750000 0.767565
vt 0.750000 0.732435
vt 0.718750 0.767565
vt 0.718750 0.732435
vt 0.687500 0.767565
vt 0.687500 0.732435
vt 0.656250 0.767565
vt 0.656250 0.732435
vt 0.625000 0.767565
vt 0.625000 0.732435
vt 0.593750 0.767565
vt 0.593750 0.732435
vt 0.562500 0.767565
vt 0.562500 0.732435
vt 0.531250 0.767565
vt 0.531250 0.732435
vt 0.500000 0.767565
vt 0.500000 0.732435
vt 0.468750 0.767565
vt 0.468750 0.732435
vt 0.437500 0.767565
vt 0.437500 0.732435
vt 0.406250 0.767565
vt 0.406250 0.732435
vt 0.375000 0.767565
vt 0.375000 0.732435
vt 0.343750 0.732435
vt 0.343750 0.767565
vt 0.312500 0.732435
vt 0.312500 0.767565
vt 0.281250 0.732435
vt 0.281250 0.767565
vt 0.250000 0.732435
vt 0.250000 0.767565
vt 0.218750 0.732435
vt 0.218750 0.767565
vt 0.187500 0.732435
vt 0.187500 0.767565
vt 0.156250 0.732435
vt 0.156250 0.767565
vt 0.125000 0.732435
vt 0.125000 0.767565
vt 0.154883 0.767565
vt 0.093750 0.732435
vt 0.093750 0.767565
vt 0.062500 0.732435
vt 0.062500 0.767565
vt 0.031250 0.732435
vt 0.031250 0.767565
vt 0.000000 0.732435
vt 0.000000 0.767565
s 0
f 1/1/1 2/2/1 4/3/1 3/4/1
f 3/4/2 4/3/2 6/5/2 5/6/2
f 5/6/3 6/5/3 8/7/3 7/8/3
f 7/8/4 8/7/4 10/9/4 9/10/4
f 9/10/5 10/9/5 12/11/5 11/12/5
f 11/12/6 12/11/6 14/13/6 13/14/6
f 13/14/7 14/13/7 16/15/7 15/16/7
f 15/16/8 16/15/8 18/17/8 17/18/8
f 17/18/9 18/17/9 20/19/9 19/20/9
f 19/20/10 20/19/10 22/21/10 21/22/10
f 21/22/11 22/21/11 24/23/11 23/24/11
f 23/24/12 24/23/12 26/25/12 25/26/12
f 25/26/13 26/25/13 28/27/13 27/28/13
f 27/28/14 28/27/14 30/29/14 29/30/14
f 29/30/15 30/29/15 32/31/15 31/32/15
f 31/32/16 32/31/16 34/33/16 33/34/16
f 33/34/17 34/33/17 36/35/17 35/36/17
f 35/36/18 36/35/18 38/37/18 37/38/18
f 37/38/19 38/37/19 40/39/19 39/40/19
f 39/40/20 40/39/20 42/41/20 41/42/20
f 41/42/21 42/41/21 44/43/21 43/44/21
f 43/44/22 44/43/22 46/45/22 45/46/22
f 45/46/23 46/45/23 48/47/23 47/48/23
f 47/48/24 48/47/24 50/49/24 49/50/24
f 49/50/25 50/49/25 52/51/25 51/52/25
f 51/52/26 52/51/26 54/53/26 53/54/26
f 53/54/27 54/53/27 56/55/27 55/56/27
f 55/56/28 56/55/28 58/57/28 57/58/28
f 57/58/29 58/57/29 60/59/29 59/60/29
f 59/60/30 60/59/30 62/61/30 61/62/30
f 14/63/31 12/64/31 10/65/31 8/66/31 6/67/31 4/68/31 2/69/31 64/70/31 62/71/31 60/72/31 58/73/31 56/74/31 65/75/31 67/76/31 66/77/31 71/78/31 68/79/31 70/80/31 69/81/31 74/82/31 78/83/31 81/84/31 91/85/31 95/86/31 94/87/31 92/88/31 93/89/31 97/90/31 90/91/31 96/92/31 87/93/31 88/94/31 89/95/31 86/96/31 84/97/31 83/98/31 85/99/31 82/100/31 80/101/31 79/102/31 77/103/31 48/104/31 46/105/31 44/106/31 42/107/31 40/108/31 38/109/31 36/110/31 34/111/31 32/112/31 30/113/31 28/114/31 26/115/31 24/116/31 22/117/31 20/118/31 18/119/31 16/120/31
f 56/74/31 54/121/31 52/122/31 50/123/31 48/104/31 77/103/31 76/124/31 73/125/31 72/126/31 75/127/31 65/75/31
f 61/62/32 62/61/32 64/128/32 63/129/32
f 63/129/33 64/128/33 2/130/33 1/131/33
f 102/132/34 63/133/34 1/134/34 3/135/34 5/136/34 7/137/34 9/138/34 11/139/34 13/140/34 15/141/34 17/142/34 110/143/34 111/144/34 108/145/34 109/146/34 112/147/34 106/148/34 107/149/34 105/150/34 113/151/34
f 110/143/34 17/142/34 19/152/34 21/153/34 23/154/34 25/155/34 27/156/34 29/157/34 31/158/34 33/159/34 35/160/34 37/161/34 39/162/34 41/163/34 43/164/34 45/165/34 47/166/34 49/167/34 51/168/34 53/169/34 55/170/34 57/171/34 59/172/34 61/173/34 63/133/34 102/132/34 103/174/34 101/175/34 104/176/34 99/177/34 100/178/34 98/179/34 115/180/34 114/181/34 116/182/34 118/183/34 117/184/34 122/185/34 119/186/34 121/187/34 120/188/34 129/189/34 123/190/34 125/191/34 124/192/34 128/193/34 126/194/34 127/195/34
f 105/196/35 69/197/35 70/198/35 113/199/35
f 107/200/18 74/201/18 69/197/18 105/196/18
f 106/202/36 78/203/36 74/201/36 107/200/36
f 112/204/20 81/205/20 78/203/20 106/202/20
f 91/206/37 81/205/37 112/204/37 109/207/37
f 95/208/22 91/206/22 109/207/22 108/209/22
f 94/210/38 95/208/38 108/209/38 111/211/38
f 92/212/24 94/210/24 111/211/24 110/213/24
f 93/214/39 92/212/39 110/213/39 127/215/39
f 97/216/26 93/214/26 127/215/26 126/217/26
f 90/218/40 97/216/40 126/217/40 128/219/40
f 96/220/28 90/218/28 128/219/28 124/221/28
f 87/222/41 96/220/41 124/221/41 125/223/41
f 88/224/30 87/222/30 125/223/30 123/225/30
f 89/226/42 88/224/42 123/225/42 129/227/42
f 86/228/33 89/226/33 129/227/33 120/229/33
f 84/230/43 86/228/43 120/229/43 121/231/43
f 83/232/2 84/230/2 121/231/2 119/233/2
f 85/234/44 83/232/44 119/233/44 122/235/44
f 82/236/4 85/234/4 122/235/4 117/237/4
f 118/238/45 80/239/45 82/236/45 117/237/45
f 116/240/6 79/241/6 80/239/6 118/238/6
f 114/242/46 77/243/46 79/241/46 116/240/46
f 115/244/8 76/245/8 77/243/8 114/242/8
f 98/246/47 73/247/47 76/245/47 115/244/47
f 100/248/10 72/249/10 73/247/10 98/246/10
f 99/250/48 75/251/48 72/249/48 100/248/48
f 104/252/12 67/253/12 65/254/12 75/251/12 99/250/12
f 101/255/49 66/256/49 67/253/49 104/252/49
f 103/257/14 71/258/14 66/256/14 101/255/14
f 102/259/50 68/260/50 71/258/50 103/257/50
f 113/261/16 70/262/16 68/260/16 102/259/16
