# Blender 4.4.1
# www.blender.org
mtllib pipe2.mtl
o 立方体.003
v -0.200000 -0.400000 -0.900000
v -0.200000 0.400000 -0.900000
v 0.200000 -0.400000 -0.900000
v 0.200000 0.400000 -0.900000
v -0.200000 -0.400000 0.900000
v -0.200000 0.400000 0.900000
v 0.200000 -0.400000 0.900000
v 0.200000 0.400000 0.900000
v -0.440000 0.000000 -0.900000
v -0.440000 0.000000 0.900000
v -0.000000 0.440000 -0.900000
v 0.000000 0.440000 0.900000
v 0.440000 0.000000 -0.900000
v 0.440000 0.000000 0.900000
v -0.000000 -0.440000 -0.900000
v 0.000000 -0.440000 0.900000
v -0.400000 0.200000 -0.900000
v -0.400000 -0.200000 0.900000
v -0.400000 -0.200000 -0.900000
v -0.400000 0.200000 0.900000
v -0.200000 -0.400000 -0.900000
v 0.200000 -0.400000 0.900000
v 0.200000 -0.400000 -0.900000
v -0.200000 -0.400000 0.900000
v 0.400000 -0.200000 -0.900000
v 0.400000 -0.200000 0.900000
v 0.400000 0.200000 -0.900000
v 0.400000 0.200000 0.900000
v 0.200000 0.400000 -0.900000
v -0.200000 0.400000 0.900000
v -0.200000 0.400000 -0.900000
v 0.200000 0.400000 0.900000
v 0.240000 0.480000 0.890000
v 0.000000 -0.528000 0.890000
v -0.240000 -0.480000 0.890000
v 0.528000 0.000000 0.890000
v 0.480000 0.240000 0.890000
v 0.000000 0.528000 0.890000
v 0.240000 0.480000 0.890000
v -0.528000 0.000000 0.890000
v -0.480000 0.240000 0.890000
v -0.240000 -0.480000 0.890000
v -0.480000 -0.240000 0.890000
v -0.240000 0.480000 0.890000
v -0.240000 0.480000 0.890000
v 0.240000 -0.480000 0.890000
v 0.240000 -0.480000 0.890000
v 0.480000 -0.240000 0.890000
v -0.240000 -0.480000 -0.890000
v -0.240000 -0.480000 -0.890000
v -0.480000 0.240000 -0.890000
v -0.240000 0.480000 -0.890000
v 0.240000 0.480000 -0.890000
v 0.240000 0.480000 -0.890000
v 0.480000 -0.240000 -0.890000
v 0.240000 -0.480000 -0.890000
v -0.480000 -0.240000 -0.890000
v -0.528000 0.000000 -0.890000
v -0.240000 0.480000 -0.890000
v -0.000000 0.528000 -0.890000
v 0.480000 0.240000 -0.890000
v 0.528000 0.000000 -0.890000
v 0.240000 -0.480000 -0.890000
v -0.000000 -0.528000 -0.890000
v -0.240000 -0.480000 -1.010000
v -0.240000 -0.480000 -1.010000
v -0.480000 0.240000 -1.010000
v -0.240000 0.480000 -1.010000
v 0.240000 0.480000 -1.010000
v 0.240000 0.480000 -1.010000
v 0.480000 -0.240000 -1.010000
v 0.240000 -0.480000 -1.010000
v -0.480000 -0.240000 -1.010000
v -0.528000 0.000000 -1.010000
v -0.240000 0.480000 -1.010000
v -0.000000 0.528000 -1.010000
v 0.480000 0.240000 -1.010000
v 0.528000 0.000000 -1.010000
v 0.240000 -0.480000 -1.010000
v -0.000000 -0.528000 -1.010000
v 0.480000 -0.240000 1.010000
v 0.240000 -0.480000 1.010000
v 0.240000 -0.480000 1.010000
v -0.240000 0.480000 1.010000
v -0.240000 0.480000 1.010000
v -0.480000 -0.240000 1.010000
v -0.240000 -0.480000 1.010000
v -0.480000 0.240000 1.010000
v -0.528000 0.000000 1.010000
v 0.240000 0.480000 1.010000
v 0.000000 0.528000 1.010000
v 0.480000 0.240000 1.010000
v 0.528000 0.000000 1.010000
v -0.240000 -0.480000 1.010000
v 0.000000 -0.528000 1.010000
v 0.240000 0.480000 1.010000
v -0.900000 -0.400000 0.200000
v -0.900000 0.400000 0.200000
v -0.900000 -0.400000 -0.200000
v -0.900000 0.400000 -0.200000
v 0.900000 -0.400000 0.200000
v 0.900000 0.400000 0.200000
v 0.900000 -0.400000 -0.200000
v 0.900000 0.400000 -0.200000
v -0.900000 0.000000 0.440000
v 0.900000 0.000000 0.440000
v -0.900000 0.440000 0.000000
v 0.900000 0.440000 0.000000
v -0.900000 0.000000 -0.440000
v 0.900000 0.000000 -0.440000
v -0.900000 -0.440000 0.000000
v 0.900000 -0.440000 0.000000
v -0.900000 0.200000 0.400000
v 0.900000 -0.200000 0.400000
v -0.900000 -0.200000 0.400000
v 0.900000 0.200000 0.400000
v -0.900000 -0.400000 0.200000
v 0.900000 -0.400000 -0.200000
v -0.900000 -0.400000 -0.200000
v 0.900000 -0.400000 0.200000
v -0.900000 -0.200000 -0.400000
v 0.900000 -0.200000 -0.400000
v -0.900000 0.200000 -0.400000
v 0.900000 0.200000 -0.400000
v -0.900000 0.400000 -0.200000
v 0.900000 0.400000 0.200000
v -0.900000 0.400000 0.200000
v 0.900000 0.400000 -0.200000
v 0.890000 0.480000 -0.240000
v 0.890000 -0.528000 -0.000000
v 0.890000 -0.480000 0.240000
v 0.890000 0.000000 -0.528000
v 0.890000 0.240000 -0.480000
v 0.890000 0.528000 -0.000000
v 0.890000 0.480000 -0.240000
v 0.890000 0.000000 0.528000
v 0.890000 0.240000 0.480000
v 0.890000 -0.480000 0.240000
v 0.890000 -0.240000 0.480000
v 0.890000 0.480000 0.240000
v 0.890000 0.480000 0.240000
v 0.890000 -0.480000 -0.240000
v 0.890000 -0.480000 -0.240000
v 0.890000 -0.240000 -0.480000
v -0.890000 -0.480000 0.240000
v -0.890000 -0.480000 0.240000
v -0.890000 0.240000 0.480000
v -0.890000 0.480000 0.240000
v -0.890000 0.480000 -0.240000
v -0.890000 0.480000 -0.240000
v -0.890000 -0.240000 -0.480000
v -0.890000 -0.480000 -0.240000
v -0.890000 -0.240000 0.480000
v -0.890000 0.000000 0.528000
v -0.890000 0.480000 0.240000
v -0.890000 0.528000 0.000000
v -0.890000 0.240000 -0.480000
v -0.890000 0.000000 -0.528000
v -0.890000 -0.480000 -0.240000
v -0.890000 -0.528000 0.000000
v -1.010000 -0.480000 0.240000
v -1.010000 -0.480000 0.240000
v -1.010000 0.240000 0.480000
v -1.010000 0.480000 0.240000
v -1.010000 0.480000 -0.240000
v -1.010000 0.480000 -0.240000
v -1.010000 -0.240000 -0.480000
v -1.010000 -0.480000 -0.240000
v -1.010000 -0.240000 0.480000
v -1.010000 0.000000 0.528000
v -1.010000 0.480000 0.240000
v -1.010000 0.528000 0.000000
v -1.010000 0.240000 -0.480000
v -1.010000 0.000000 -0.528000
v -1.010000 -0.480000 -0.240000
v -1.010000 -0.528000 0.000000
v 1.010000 -0.240000 -0.480000
v 1.010000 -0.480000 -0.240000
v 1.010000 -0.480000 -0.240000
v 1.010000 0.480000 0.240000
v 1.010000 0.480000 0.240000
v 1.010000 -0.240000 0.480000
v 1.010000 -0.480000 0.240000
v 1.010000 0.240000 0.480000
v 1.010000 0.000000 0.528000
v 1.010000 0.480000 -0.240000
v 1.010000 0.528000 -0.000000
v 1.010000 0.240000 -0.480000
v 1.010000 0.000000 -0.528000
v 1.010000 -0.480000 0.240000
v 1.010000 -0.528000 -0.000000
v 1.010000 0.480000 -0.240000
vn -0.0000 1.0000 -0.0000
vn 0.7071 0.7071 -0.0000
vn -0.7071 0.7071 -0.0000
vn -0.9806 -0.1961 -0.0000
vn 0.1961 0.9806 -0.0000
vn 0.9806 -0.1961 -0.0000
vn 0.1961 -0.9806 -0.0000
vn -0.7071 -0.7071 -0.0000
vn -0.9806 0.1961 -0.0000
vn -0.1961 -0.9806 -0.0000
vn 0.7071 -0.7071 -0.0000
vn 0.9806 0.1961 -0.0000
vn -0.1961 0.9806 -0.0000
vn 0.0828 0.0828 0.9931
vn -0.1129 -0.0226 0.9934
vn -0.0828 0.0828 0.9931
vn 0.1129 -0.0226 0.9934
vn 0.0828 -0.0828 0.9931
vn -0.0828 -0.0828 0.9931
vn 0.0226 0.1129 0.9934
vn 0.0226 -0.1129 0.9934
vn -0.1129 0.0226 0.9934
vn -0.0226 0.1129 0.9934
vn -0.0226 -0.1129 0.9934
vn 0.1129 0.0226 0.9934
vn -0.1129 -0.0226 -0.9934
vn 0.1129 0.0226 -0.9934
vn -0.0828 -0.0828 -0.9931
vn 0.0828 0.0828 -0.9931
vn -0.0226 0.1129 -0.9934
vn -0.0226 -0.1129 -0.9934
vn -0.1129 0.0226 -0.9934
vn 0.0226 0.1129 -0.9934
vn -0.0828 0.0828 -0.9931
vn 0.0226 -0.1129 -0.9934
vn 0.1129 -0.0226 -0.9934
vn 0.0828 -0.0828 -0.9931
vn -0.0000 -0.0000 -1.0000
vn -0.0000 -0.0000 1.0000
vn -0.0000 0.7071 -0.7071
vn -0.0000 0.7071 0.7071
vn -0.0000 -0.1961 0.9806
vn -0.0000 0.9806 -0.1961
vn -0.0000 -0.1961 -0.9806
vn -0.0000 -0.9806 -0.1961
vn -0.0000 -0.7071 0.7071
vn -0.0000 0.1961 0.9806
vn -0.0000 -0.9806 0.1961
vn -0.0000 -0.7071 -0.7071
vn -0.0000 0.1961 -0.9806
vn -0.0000 0.9806 0.1961
vn 0.9931 0.0828 -0.0828
vn 0.9934 -0.0226 0.1129
vn 0.9931 0.0828 0.0828
vn 0.9934 -0.0226 -0.1129
vn 0.9931 -0.0828 -0.0828
vn 0.9931 -0.0828 0.0828
vn 0.9934 0.1129 -0.0226
vn 0.9934 -0.1129 -0.0226
vn 0.9934 0.0226 0.1129
vn 0.9934 0.1129 0.0226
vn 0.9934 -0.1129 0.0226
vn 0.9934 0.0226 -0.1129
vn -0.9934 -0.0226 0.1129
vn -0.9934 0.0226 -0.1129
vn -0.9931 -0.0828 0.0828
vn -0.9931 0.0828 -0.0828
vn -0.9934 0.1129 0.0226
vn -0.9934 -0.1129 0.0226
vn -0.9934 0.0226 0.1129
vn -0.9934 0.1129 -0.0226
vn -0.9931 0.0828 0.0828
vn -0.9934 -0.1129 -0.0226
vn -0.9934 -0.0226 -0.1129
vn -0.9931 -0.0828 -0.0828
vn -1.0000 -0.0000 -0.0000
vn 1.0000 -0.0000 -0.0000
vt 0.108692 0.701287
vt 0.165535 0.748670
vt 0.165461 0.748747
vt 0.229997 0.354603
vt 0.196456 0.539315
vt 0.201359 0.342513
vt 0.269964 0.523771
vt 0.303504 0.339059
vt 0.298601 0.535862
vt 0.415691 0.211610
vt 0.415945 0.659451
vt 0.415633 0.211627
vt 0.269950 0.523769
vt 0.274321 0.358212
vt 0.321467 0.554349
vt 0.361405 0.285307
vt 0.353842 0.580315
vt 0.230010 0.354605
vt 0.249084 0.520682
vt 0.225656 0.520162
vt 0.178493 0.324026
vt 0.138556 0.593067
vt 0.146119 0.298059
vt 0.084269 0.666765
vt 0.000132 0.059775
vt 0.083950 0.218890
vt 0.327749 0.317123
vt 0.084016 0.218924
vt 0.499828 0.818599
vt 0.499828 0.183983
vt 0.084328 0.666748
vt 0.172212 0.561251
vt 0.225639 0.520163
vt 0.250876 0.357693
vt 0.249099 0.520682
vt 0.391228 0.177125
vt 0.187031 0.314837
vt 0.207500 0.333153
vt 0.162764 0.285852
vt 0.122837 0.196028
vt 0.122849 0.196093
vt 0.232800 0.345019
vt 0.232812 0.345024
vt 0.317748 0.307504
vt 0.296435 0.329984
vt 0.497041 0.132890
vt 0.274305 0.358213
vt 0.251419 0.347003
vt 0.272567 0.345873
vt 0.391268 0.177088
vt 0.272584 0.345872
vt 0.087391 0.000132
vt 0.251404 0.347001
vt 0.250862 0.357692
vt 0.341438 0.272493
vt 0.182213 0.570871
vt 0.377123 0.682346
vt 0.377111 0.682281
vt 0.312929 0.563537
vt 0.203525 0.548391
vt 0.337196 0.592522
vt 0.002919 0.745485
vt 0.000133 0.694391
vt 0.248542 0.531371
vt 0.227393 0.532501
vt 0.267161 0.533356
vt 0.267148 0.533351
vt 0.227376 0.532503
vt 0.158523 0.605881
vt 0.416011 0.659485
vt 0.412570 0.878242
vt 0.108732 0.701249
vt 0.248557 0.531374
vt 0.292460 0.545222
vt 0.201014 0.304606
vt 0.181820 0.274328
vt 0.165812 0.198143
vt 0.226338 0.010930
vt 0.271637 0.334482
vt 0.271655 0.334491
vt 0.334426 0.129704
vt 0.334500 0.129628
vt 0.467429 0.059373
vt 0.236660 0.337417
vt 0.286028 0.321843
vt 0.301492 0.297164
vt 0.236667 0.337430
vt 0.165754 0.198200
vt 0.213537 0.325074
vt 0.320229 0.263896
vt 0.253566 0.336895
vt 0.318140 0.604047
vt 0.334148 0.680232
vt 0.273622 0.867444
vt 0.179731 0.614478
vt 0.228324 0.543892
vt 0.228306 0.543883
vt 0.263300 0.540957
vt 0.263293 0.540945
vt 0.032532 0.819002
vt 0.213933 0.556531
vt 0.298946 0.573769
vt 0.334206 0.680174
vt 0.198469 0.581210
vt 0.286423 0.553300
vt 0.246394 0.541479
vt 0.609702 0.701020
vt 0.668297 0.747749
vt 0.668223 0.747828
vt 0.730012 0.350927
vt 0.695617 0.535064
vt 0.701150 0.338941
vt 0.769949 0.519784
vt 0.804344 0.335647
vt 0.798810 0.531770
vt 0.915524 0.204271
vt 0.915735 0.654498
vt 0.915464 0.204288
vt 0.769936 0.519782
vt 0.773248 0.353013
vt 0.822297 0.550535
vt 0.862046 0.279151
vt 0.855958 0.577623
vt 0.730025 0.350929
vt 0.749293 0.517041
vt 0.726728 0.517697
vt 0.677663 0.320176
vt 0.637914 0.591560
vt 0.644002 0.293088
vt 0.584437 0.666440
vt 0.500093 0.059875
vt 0.584162 0.216179
vt 0.828490 0.312195
vt 0.584226 0.216213
vt 0.999868 0.810835
vt 0.999868 0.175283
vt 0.584496 0.666423
vt 0.671470 0.558516
vt 0.726713 0.517697
vt 0.750668 0.353670
vt 0.749306 0.517041
vt 0.890219 0.169730
vt 0.686437 0.310767
vt 0.707403 0.329484
vt 0.660429 0.280336
vt 0.622734 0.194825
vt 0.622743 0.194890
vt 0.732770 0.341403
vt 0.732782 0.341408
vt 0.817894 0.302530
vt 0.796061 0.326117
vt 0.996456 0.123570
vt 0.773233 0.353014
vt 0.751106 0.343319
vt 0.771608 0.342106
vt 0.890259 0.169691
vt 0.771624 0.342105
vt 0.585366 0.000132
vt 0.751091 0.343317
vt 0.750654 0.353670
vt 0.841530 0.266417
vt 0.682066 0.568180
vt 0.877227 0.675886
vt 0.877217 0.675821
vt 0.813523 0.559944
vt 0.703900 0.544594
vt 0.839532 0.590374
vt 0.503504 0.747141
vt 0.500093 0.695428
vt 0.748854 0.527392
vt 0.728352 0.528605
vt 0.767191 0.529308
vt 0.767179 0.529303
vt 0.728337 0.528606
vt 0.658431 0.604294
vt 0.915799 0.654532
vt 0.914595 0.870579
vt 0.609742 0.700981
vt 0.748869 0.527394
vt 0.792557 0.541226
vt 0.701178 0.300493
vt 0.682933 0.269999
vt 0.664685 0.199309
vt 0.721010 0.006963
vt 0.770622 0.331069
vt 0.770640 0.331079
vt 0.831664 0.122962
vt 0.831737 0.122883
vt 0.965405 0.049589
vt 0.736605 0.333898
vt 0.785284 0.318008
vt 0.801004 0.292362
vt 0.736611 0.333910
vt 0.664632 0.199363
vt 0.713600 0.321335
vt 0.819733 0.257939
vt 0.753136 0.333483
vt 0.817028 0.600712
vt 0.835275 0.671402
vt 0.778951 0.863748
vt 0.680228 0.612771
vt 0.729338 0.539641
vt 0.729320 0.539632
vt 0.763356 0.536813
vt 0.763349 0.536801
vt 0.534555 0.821122
vt 0.835329 0.671348
vt 0.714677 0.552702
vt 0.798783 0.570217
vt 0.698956 0.578349
vt 0.786361 0.549376
vt 0.746825 0.537228
vt 0.320177 0.263882
vt 0.301457 0.297143
vt 0.286001 0.321821
vt 0.253578 0.336909
vt 0.179783 0.614493
vt 0.198504 0.581231
vt 0.213959 0.556553
vt 0.246383 0.541466
vt 0.819679 0.257925
vt 0.800967 0.292341
vt 0.785256 0.317986
vt 0.753147 0.333497
vt 0.680281 0.612786
vt 0.698993 0.578370
vt 0.714704 0.552725
vt 0.746814 0.537214
s 0
usemtl マテリアル.005
f 46/1/1 82/2/1 83/3/1
f 4/4/2 28/5/2 27/6/2
f 6/7/3 17/8/3 20/9/3
f 21/10/1 5/11/1 1/12/1
f 30/13/1 2/14/1 6/7/1
f 10/15/4 19/16/4 18/17/4
f 29/18/5 12/19/5 32/20/5
f 13/21/6 26/22/6 25/23/6
f 22/24/7 15/25/7 23/26/7
f 18/17/8 1/12/8 5/11/8
f 20/9/9 9/27/9 10/15/9
f 3/28/1 22/24/1 23/26/1
f 16/29/10 21/10/10 15/30/10
f 25/23/11 7/31/11 3/28/11
f 27/6/12 14/32/12 13/21/12
f 8/33/1 29/18/1 32/20/1
f 11/34/13 30/13/13 12/35/13
f 19/16/14 50/36/14 1/12/14
f 27/6/15 62/37/15 61/38/15
f 3/28/16 55/39/16 25/23/16
f 3/28/1 63/40/1 56/41/1
f 29/18/1 54/42/1 53/43/1
f 17/8/17 58/44/17 9/27/17
f 2/14/18 51/45/18 17/8/18
f 27/6/19 54/42/19 4/4/19
f 21/10/20 64/46/20 15/30/20
f 31/47/21 60/48/21 59/49/21
f 21/10/1 50/36/1 49/50/1
f 2/14/1 59/49/1 52/51/1
f 25/23/22 62/37/22 13/21/22
f 23/26/23 64/52/23 63/40/23
f 29/18/24 60/53/24 11/54/24
f 19/16/25 58/44/25 57/55/25
f 28/5/26 36/56/26 14/32/26
f 5/11/1 35/57/1 42/58/1
f 18/17/27 40/59/27 10/15/27
f 8/33/28 37/60/28 28/5/28
f 5/11/29 43/61/29 18/17/29
f 22/24/30 34/62/30 16/63/30
f 32/20/31 38/64/31 39/65/31
f 30/13/1 44/66/1 45/67/1
f 8/33/1 39/65/1 33/68/1
f 26/22/32 36/56/32 48/69/32
f 24/70/33 34/71/33 35/57/33
f 22/24/1 47/72/1 46/1/1
f 26/22/34 47/72/34 7/31/34
f 30/13/35 38/73/35 12/35/35
f 20/9/36 40/59/36 41/74/36
f 20/9/37 44/66/37 6/7/37
f 55/39/6 78/75/6 62/37/6
f 71/76/38 79/77/38 80/78/38
f 52/51/1 75/79/1 68/80/1
f 49/50/1 66/81/1 65/82/1
f 60/48/13 75/79/13 59/49/13
f 64/46/10 65/82/10 80/83/10
f 61/38/2 70/84/2 54/42/2
f 51/45/3 68/80/3 67/85/3
f 51/45/9 74/86/9 58/44/9
f 53/43/1 70/84/1 69/87/1
f 56/41/1 79/77/1 72/88/1
f 56/41/11 71/76/11 55/39/11
f 62/37/12 77/89/12 61/38/12
f 57/55/8 66/81/8 50/36/8
f 58/44/4 73/90/4 57/55/4
f 53/43/5 76/91/5 60/53/5
f 64/52/7 79/77/7 63/40/7
f 86/92/39 94/93/39 95/94/39
f 34/71/10 94/93/10 35/57/10
f 36/56/6 81/95/6 48/69/6
f 33/68/1 90/96/1 96/97/1
f 45/67/1 85/98/1 84/99/1
f 38/64/5 90/96/5 39/65/5
f 34/62/7 83/3/7 95/100/7
f 42/58/8 86/92/8 43/61/8
f 37/60/2 96/97/2 92/101/2
f 43/61/4 89/102/4 40/59/4
f 42/58/1 94/93/1 87/103/1
f 37/60/12 93/104/12 36/56/12
f 41/74/3 85/98/3 44/66/3
f 40/59/9 88/105/9 41/74/9
f 45/67/13 91/106/13 38/73/13
f 48/69/11 82/2/11 47/72/11
f 142/107/1 178/108/1 179/109/1
f 100/110/40 124/111/40 123/112/40
f 102/113/41 113/114/41 116/115/41
f 117/116/1 101/117/1 97/118/1
f 126/119/1 98/120/1 102/113/1
f 106/121/42 115/122/42 114/123/42
f 125/124/43 108/125/43 128/126/43
f 109/127/44 122/128/44 121/129/44
f 118/130/45 111/131/45 119/132/45
f 114/123/46 97/118/46 101/117/46
f 116/115/47 105/133/47 106/121/47
f 99/134/1 118/130/1 119/132/1
f 112/135/48 117/116/48 111/136/48
f 121/129/49 103/137/49 99/134/49
f 123/112/50 110/138/50 109/127/50
f 104/139/1 125/124/1 128/126/1
f 107/140/51 126/119/51 108/141/51
f 115/122/52 146/142/52 97/118/52
f 123/112/53 158/143/53 157/144/53
f 99/134/54 151/145/54 121/129/54
f 99/134/1 159/146/1 152/147/1
f 125/124/1 150/148/1 149/149/1
f 113/114/55 154/150/55 105/133/55
f 98/120/56 147/151/56 113/114/56
f 123/112/57 150/148/57 100/110/57
f 117/116/58 160/152/58 111/136/58
f 127/153/59 156/154/59 155/155/59
f 117/116/1 146/142/1 145/156/1
f 98/120/1 155/155/1 148/157/1
f 121/129/60 158/143/60 109/127/60
f 119/132/61 160/158/61 159/146/61
f 125/124/62 156/159/62 107/160/62
f 115/122/63 154/150/63 153/161/63
f 124/111/64 132/162/64 110/138/64
f 101/117/1 131/163/1 138/164/1
f 114/123/65 136/165/65 106/121/65
f 104/139/66 133/166/66 124/111/66
f 101/117/67 139/167/67 114/123/67
f 118/130/68 130/168/68 112/169/68
f 128/126/69 134/170/69 135/171/69
f 126/119/1 140/172/1 141/173/1
f 104/139/1 135/171/1 129/174/1
f 122/128/70 132/162/70 144/175/70
f 120/176/71 130/177/71 131/163/71
f 118/130/1 143/178/1 142/107/1
f 122/128/72 143/178/72 103/137/72
f 126/119/73 134/179/73 108/141/73
f 116/115/74 136/165/74 137/180/74
f 116/115/75 140/172/75 102/113/75
f 151/145/44 174/181/44 158/143/44
f 167/182/76 175/183/76 176/184/76
f 148/157/1 171/185/1 164/186/1
f 145/156/1 162/187/1 161/188/1
f 156/154/51 171/185/51 155/155/51
f 145/156/48 176/189/48 160/152/48
f 157/144/40 166/190/40 150/148/40
f 148/157/41 163/191/41 147/151/41
f 147/151/47 170/192/47 154/150/47
f 149/149/1 166/190/1 165/193/1
f 152/147/1 175/183/1 168/194/1
f 151/145/49 168/194/49 167/182/49
f 158/143/50 173/195/50 157/144/50
f 153/161/46 162/187/46 146/142/46
f 154/150/42 169/196/42 153/161/42
f 149/149/43 172/197/43 156/159/43
f 160/158/45 175/183/45 159/146/45
f 182/198/77 190/199/77 191/200/77
f 130/177/48 190/199/48 131/163/48
f 132/162/44 177/201/44 144/175/44
f 129/174/1 186/202/1 192/203/1
f 141/173/1 181/204/1 180/205/1
f 134/170/43 186/202/43 135/171/43
f 142/107/45 191/206/45 130/168/45
f 139/167/46 183/207/46 182/198/46
f 129/174/40 188/208/40 133/166/40
f 139/167/42 185/209/42 136/165/42
f 138/164/1 190/199/1 183/207/1
f 133/166/50 189/210/50 132/162/50
f 137/180/41 181/204/41 140/172/41
f 136/165/47 184/211/47 137/180/47
f 141/173/51 187/212/51 134/179/51
f 144/175/49 178/108/49 143/178/49
f 46/1/1 47/72/1 82/2/1
f 4/4/2 8/33/2 28/5/2
f 6/7/3 2/14/3 17/8/3
f 21/10/1 24/70/1 5/11/1
f 30/13/1 31/47/1 2/14/1
f 10/15/4 9/27/4 19/16/4
f 29/18/5 11/54/5 12/19/5
f 13/21/6 14/32/6 26/22/6
f 22/24/7 16/63/7 15/25/7
f 18/17/8 19/16/8 1/12/8
f 20/9/9 17/8/9 9/27/9
f 3/28/1 7/31/1 22/24/1
f 16/29/10 24/70/10 21/10/10
f 25/23/11 26/22/11 7/31/11
f 27/6/12 28/5/12 14/32/12
f 8/33/1 4/4/1 29/18/1
f 11/34/13 31/47/13 30/13/13
f 19/16/14 57/55/14 50/36/14
f 27/6/15 13/21/15 62/37/15
f 3/28/16 56/41/16 55/39/16
f 3/28/1 23/26/1 63/40/1
f 29/18/1 4/4/1 54/42/1
f 17/8/17 51/45/17 58/44/17
f 2/14/18 52/51/18 51/45/18
f 27/6/19 61/38/19 54/42/19
f 21/10/20 49/50/20 64/46/20
f 31/47/21 11/34/21 60/48/21
f 21/10/1 1/12/1 50/36/1
f 2/14/1 31/47/1 59/49/1
f 25/23/22 55/39/22 62/37/22
f 23/26/23 15/25/23 64/52/23
f 29/18/24 53/43/24 60/53/24
f 19/16/25 9/27/25 58/44/25
f 28/5/26 37/60/26 36/56/26
f 5/11/1 24/70/1 35/57/1
f 18/17/27 43/61/27 40/59/27
f 8/33/28 33/68/28 37/60/28
f 5/11/29 42/58/29 43/61/29
f 22/24/30 46/1/30 34/62/30
f 32/20/31 12/19/31 38/64/31
f 30/13/1 6/7/1 44/66/1
f 8/33/1 32/20/1 39/65/1
f 26/22/32 14/32/32 36/56/32
f 24/70/33 16/29/33 34/71/33
f 22/24/1 7/31/1 47/72/1
f 26/22/34 48/69/34 47/72/34
f 30/13/35 45/67/35 38/73/35
f 20/9/36 10/15/36 40/59/36
f 20/9/37 41/74/37 44/66/37
f 55/39/6 71/76/6 78/75/6
f 73/213/38 74/214/38 67/215/38
f 77/89/38 78/75/38 71/76/38
f 76/91/1 69/87/1 70/84/1
f 70/84/38 77/89/38 71/76/38
f 76/91/38 70/84/38 71/76/38
f 67/215/1 68/80/1 75/79/1
f 75/79/38 76/91/38 71/76/38
f 67/215/38 75/79/38 71/76/38
f 73/213/38 67/215/38 71/76/38
f 80/78/1 65/82/1 66/81/1
f 66/81/38 73/213/38 71/76/38
f 80/78/38 66/81/38 71/76/38
f 71/76/1 72/88/1 79/77/1
f 52/51/1 59/49/1 75/79/1
f 49/50/1 50/36/1 66/81/1
f 60/48/13 76/216/13 75/79/13
f 64/46/10 49/50/10 65/82/10
f 61/38/2 77/89/2 70/84/2
f 51/45/3 52/51/3 68/80/3
f 51/45/9 67/85/9 74/86/9
f 53/43/1 54/42/1 70/84/1
f 56/41/1 63/40/1 79/77/1
f 56/41/11 72/88/11 71/76/11
f 62/37/12 78/75/12 77/89/12
f 57/55/8 73/90/8 66/81/8
f 58/44/4 74/86/4 73/90/4
f 53/43/5 69/87/5 76/91/5
f 64/52/7 80/78/7 79/77/7
f 81/217/39 93/218/39 92/219/39
f 88/105/39 89/102/39 86/92/39
f 91/106/1 84/99/1 85/98/1
f 85/98/39 88/105/39 86/92/39
f 91/106/39 85/98/39 86/92/39
f 92/219/1 96/97/1 90/96/1
f 90/96/39 91/106/39 86/92/39
f 92/219/39 90/96/39 86/92/39
f 81/217/39 92/219/39 86/92/39
f 95/94/1 83/3/1 82/2/1
f 82/2/39 81/217/39 86/92/39
f 95/94/39 82/2/39 86/92/39
f 86/92/1 87/103/1 94/93/1
f 34/71/10 95/94/10 94/93/10
f 36/56/6 93/104/6 81/95/6
f 33/68/1 39/65/1 90/96/1
f 45/67/1 44/66/1 85/98/1
f 38/64/5 91/220/5 90/96/5
f 34/62/7 46/1/7 83/3/7
f 42/58/8 87/103/8 86/92/8
f 37/60/2 33/68/2 96/97/2
f 43/61/4 86/92/4 89/102/4
f 42/58/1 35/57/1 94/93/1
f 37/60/12 92/101/12 93/104/12
f 41/74/3 88/105/3 85/98/3
f 40/59/9 89/102/9 88/105/9
f 45/67/13 84/99/13 91/106/13
f 48/69/11 81/95/11 82/2/11
f 142/107/1 143/178/1 178/108/1
f 100/110/40 104/139/40 124/111/40
f 102/113/41 98/120/41 113/114/41
f 117/116/1 120/176/1 101/117/1
f 126/119/1 127/153/1 98/120/1
f 106/121/42 105/133/42 115/122/42
f 125/124/43 107/160/43 108/125/43
f 109/127/44 110/138/44 122/128/44
f 118/130/45 112/169/45 111/131/45
f 114/123/46 115/122/46 97/118/46
f 116/115/47 113/114/47 105/133/47
f 99/134/1 103/137/1 118/130/1
f 112/135/48 120/176/48 117/116/48
f 121/129/49 122/128/49 103/137/49
f 123/112/50 124/111/50 110/138/50
f 104/139/1 100/110/1 125/124/1
f 107/140/51 127/153/51 126/119/51
f 115/122/52 153/161/52 146/142/52
f 123/112/53 109/127/53 158/143/53
f 99/134/54 152/147/54 151/145/54
f 99/134/1 119/132/1 159/146/1
f 125/124/1 100/110/1 150/148/1
f 113/114/55 147/151/55 154/150/55
f 98/120/56 148/157/56 147/151/56
f 123/112/57 157/144/57 150/148/57
f 117/116/58 145/156/58 160/152/58
f 127/153/59 107/140/59 156/154/59
f 117/116/1 97/118/1 146/142/1
f 98/120/1 127/153/1 155/155/1
f 121/129/60 151/145/60 158/143/60
f 119/132/61 111/131/61 160/158/61
f 125/124/62 149/149/62 156/159/62
f 115/122/63 105/133/63 154/150/63
f 124/111/64 133/166/64 132/162/64
f 101/117/1 120/176/1 131/163/1
f 114/123/65 139/167/65 136/165/65
f 104/139/66 129/174/66 133/166/66
f 101/117/67 138/164/67 139/167/67
f 118/130/68 142/107/68 130/168/68
f 128/126/69 108/125/69 134/170/69
f 126/119/1 102/113/1 140/172/1
f 104/139/1 128/126/1 135/171/1
f 122/128/70 110/138/70 132/162/70
f 120/176/71 112/135/71 130/177/71
f 118/130/1 103/137/1 143/178/1
f 122/128/72 144/175/72 143/178/72
f 126/119/73 141/173/73 134/179/73
f 116/115/74 106/121/74 136/165/74
f 116/115/75 137/180/75 140/172/75
f 151/145/44 167/182/44 174/181/44
f 169/221/76 170/222/76 163/223/76
f 173/195/76 174/181/76 167/182/76
f 172/197/1 165/193/1 166/190/1
f 166/190/76 173/195/76 167/182/76
f 172/197/76 166/190/76 167/182/76
f 163/223/1 164/186/1 171/185/1
f 171/185/76 172/197/76 167/182/76
f 163/223/76 171/185/76 167/182/76
f 169/221/76 163/223/76 167/182/76
f 176/184/1 161/188/1 162/187/1
f 162/187/76 169/221/76 167/182/76
f 176/184/76 162/187/76 167/182/76
f 167/182/1 168/194/1 175/183/1
f 148/157/1 155/155/1 171/185/1
f 145/156/1 146/142/1 162/187/1
f 156/154/51 172/224/51 171/185/51
f 145/156/48 161/188/48 176/189/48
f 157/144/40 173/195/40 166/190/40
f 148/157/41 164/186/41 163/191/41
f 147/151/47 163/191/47 170/192/47
f 149/149/1 150/148/1 166/190/1
f 152/147/1 159/146/1 175/183/1
f 151/145/49 152/147/49 168/194/49
f 158/143/50 174/181/50 173/195/50
f 153/161/46 169/196/46 162/187/46
f 154/150/42 170/192/42 169/196/42
f 149/149/43 165/193/43 172/197/43
f 160/158/45 176/184/45 175/183/45
f 177/225/77 189/226/77 188/227/77
f 184/211/77 185/209/77 182/198/77
f 187/212/1 180/205/1 181/204/1
f 181/204/77 184/211/77 182/198/77
f 187/212/77 181/204/77 182/198/77
f 188/227/1 192/203/1 186/202/1
f 186/202/77 187/212/77 182/198/77
f 188/227/77 186/202/77 182/198/77
f 177/225/77 188/227/77 182/198/77
f 191/200/1 179/109/1 178/108/1
f 178/108/77 177/225/77 182/198/77
f 191/200/77 178/108/77 182/198/77
f 182/198/1 183/207/1 190/199/1
f 130/177/48 191/200/48 190/199/48
f 132/162/44 189/210/44 177/201/44
f 129/174/1 135/171/1 186/202/1
f 141/173/1 140/172/1 181/204/1
f 134/170/43 187/228/43 186/202/43
f 142/107/45 179/109/45 191/206/45
f 139/167/46 138/164/46 183/207/46
f 129/174/40 192/203/40 188/208/40
f 139/167/42 182/198/42 185/209/42
f 138/164/1 131/163/1 190/199/1
f 133/166/50 188/208/50 189/210/50
f 137/180/41 184/211/41 181/204/41
f 136/165/47 185/209/47 184/211/47
f 141/173/51 180/205/51 187/212/51
f 144/175/49 177/201/49 178/108/49
