# Blender 4.4.1
# www.blender.org
mtllib CanonBase.mtl
o canonbase
v -0.846368 -1.003700 0.603020
v -1.002998 -1.003700 0.228646
v -0.846368 -0.597882 0.603020
v -0.611163 -1.003700 0.504615
v -0.767793 -1.003700 0.130241
v -0.611163 -0.597882 0.504615
v -0.767793 -0.597882 0.130241
v -1.002998 -0.597882 0.228646
v 0.000000 -1.000000 -1.000000
v 0.000000 -0.732904 -1.000000
v 0.707107 -1.000000 -0.707107
v 0.707107 -0.732904 -0.707107
v 1.000000 -1.000000 0.000000
v 1.000000 -0.732904 0.000000
v 0.707107 -1.000000 0.707107
v 0.707107 -0.732904 0.707107
v 0.000000 -1.000000 1.000000
v 0.000000 -0.732904 1.000000
v -0.707107 -1.000000 0.707107
v -0.707107 -0.732904 0.707107
v -1.000000 -1.000000 0.000000
v -1.000000 -0.732904 0.000000
v -0.707107 -1.000000 -0.707107
v -0.707107 -0.732904 -0.707107
v -0.000000 -0.901042 -0.710700
v 0.502541 -0.901042 -0.502541
v -0.000000 -0.423999 -0.710700
v -0.502541 -0.901042 -0.502541
v -0.710700 -0.901042 0.000000
v -0.502541 -0.423999 -0.502541
v -0.710700 -0.423999 0.000000
v -0.502541 -0.423999 0.502541
v -0.000000 -0.423999 0.710700
v -0.502541 -0.901042 0.502541
v -0.000000 -0.901042 0.710700
v 0.502541 -0.901042 0.502541
v 0.710700 -0.901042 0.000000
v 0.502541 -0.423999 0.502541
v 0.710700 -0.423999 0.000000
v 0.502541 -0.423999 -0.502541
vn -0.0000 -1.0000 -0.0000
vn -0.9225 -0.0000 0.3860
vn 0.3860 -0.0000 0.9225
vn 0.9225 -0.0000 -0.3860
vn -0.0000 1.0000 -0.0000
vn -0.3860 -0.0000 -0.9225
vn 0.3827 -0.0000 -0.9239
vn 0.9239 -0.0000 -0.3827
vn 0.9239 -0.0000 0.3827
vn 0.3827 -0.0000 0.9239
vn -0.3827 -0.0000 0.9239
vn -0.9239 -0.0000 0.3827
vn -0.9239 -0.0000 -0.3827
vn -0.3827 -0.0000 -0.9239
vt 0.835289 0.002397
vt 0.835289 0.083553
vt 0.754137 0.083553
vt 0.754137 0.002397
vt 0.997603 0.083553
vt 0.997603 0.164711
vt 0.916446 0.164711
vt 0.916446 0.083553
vt 0.754137 0.164711
vt 0.672976 0.164711
vt 0.672976 0.083553
vt 0.835289 0.164711
vt 0.835289 0.245867
vt 0.754137 0.245867
vt 0.641770 0.894060
vt 0.433260 0.894060
vt 0.433260 0.841933
vt 0.641770 0.841933
vt 0.433260 0.789801
vt 0.641770 0.789801
vt 0.433260 0.737673
vt 0.641770 0.737673
vt 0.433260 0.685546
vt 0.641770 0.685546
vt 0.433260 0.633418
vt 0.641770 0.633418
vt 0.433260 0.581292
vt 0.641770 0.581292
vt 0.303675 0.477031
vt 0.428465 0.601823
vt 0.428465 0.778307
vt 0.303679 0.903097
vt 0.127192 0.903100
vt 0.002397 0.778310
vt 0.002397 0.601825
vt 0.127191 0.477031
vt 0.433260 0.529165
vt 0.641770 0.529165
vt 0.433260 0.477031
vt 0.641770 0.477031
vt 0.242111 0.127193
vt 0.242116 0.303674
vt 0.366905 0.428465
vt 0.543390 0.428465
vt 0.668181 0.303669
vt 0.668179 0.127184
vt 0.543388 0.002397
vt 0.366902 0.002397
vt 0.672976 0.646953
vt 0.672976 0.772380
vt 0.761665 0.861067
vt 0.887092 0.861067
vt 0.975781 0.772380
vt 0.975781 0.646952
vt 0.887092 0.558261
vt 0.761665 0.558261
vt 0.002397 0.002397
vt 0.237317 0.002397
vt 0.237317 0.061126
vt 0.002397 0.061126
vt 0.002397 0.413507
vt 0.237317 0.413507
vt 0.237317 0.472236
vt 0.002397 0.472236
vt 0.002397 0.354778
vt 0.237317 0.354778
vt 0.761667 0.553467
vt 0.672976 0.464776
vt 0.672976 0.339348
vt 0.761667 0.250661
vt 0.887092 0.250661
vt 0.975783 0.339348
vt 0.975783 0.464776
vt 0.887092 0.553467
vt 0.002397 0.296045
vt 0.237317 0.296045
vt 0.002397 0.237317
vt 0.237317 0.237317
vt 0.002397 0.178588
vt 0.237317 0.178588
vt 0.002397 0.119855
vt 0.237317 0.119855
s 0
usemtl マテリアル.001
f 2/1/1 5/2/1 4/3/1 1/4/1
f 1/5/2 3/6/2 8/7/2 2/8/2
f 4/3/3 6/9/3 3/10/3 1/11/3
f 5/2/4 7/12/4 6/9/4 4/3/4
f 7/12/5 8/13/5 3/14/5 6/9/5
f 2/8/6 8/7/6 7/12/6 5/2/6
f 9/15/7 10/16/7 12/17/7 11/18/7
f 11/18/8 12/17/8 14/19/8 13/20/8
f 13/20/9 14/19/9 16/21/9 15/22/9
f 15/22/10 16/21/10 18/23/10 17/24/10
f 17/24/11 18/23/11 20/25/11 19/26/11
f 19/26/12 20/25/12 22/27/12 21/28/12
f 12/29/5 10/30/5 24/31/5 22/32/5 20/33/5 18/34/5 16/35/5 14/36/5
f 21/28/13 22/27/13 24/37/13 23/38/13
f 23/38/14 24/37/14 10/39/14 9/40/14
f 9/41/1 11/42/1 13/43/1 15/44/1 17/45/1 19/46/1 21/47/1 23/48/1
f 25/49/1 26/50/1 37/51/1 36/52/1 35/53/1 34/54/1 29/55/1 28/56/1
f 25/57/7 27/58/7 40/59/7 26/60/7
f 28/61/14 30/62/14 27/63/14 25/64/14
f 29/65/13 31/66/13 30/62/13 28/61/13
f 40/67/5 27/68/5 30/69/5 31/70/5 32/71/5 33/72/5 38/73/5 39/74/5
f 34/75/12 32/76/12 31/66/12 29/65/12
f 35/77/11 33/78/11 32/76/11 34/75/11
f 36/79/10 38/80/10 33/78/10 35/77/10
f 37/81/9 39/82/9 38/80/9 36/79/9
f 26/60/8 40/59/8 39/82/8 37/81/8
