# Blender 4.4.3
# www.blender.org
mtllib MovieSign.mtl
o 立方体
v -0.500000 1.000000 20.000000
v -0.500000 31.000000 20.000000
v -0.500000 1.000000 -20.000000
v -0.500000 31.000000 -20.000000
v 0.500000 1.000000 20.000000
v 0.500000 31.000000 20.000000
v 0.500000 1.000000 -20.000000
v 0.500000 31.000000 -20.000000
vn -1.0000 -0.0000 -0.0000
vn -0.0000 -0.0000 -1.0000
vn 1.0000 -0.0000 -0.0000
vn -0.0000 -0.0000 1.0000
vn -0.0000 -1.0000 -0.0000
vn -0.0000 1.0000 -0.0000
vt 0.625065 0.000130
vt 0.500130 0.125065
vt 0.500130 0.000130
vt 0.625065 0.125065
vt 0.500130 0.250000
vt 0.869060 0.500703
vt 0.499752 1.000271
vt 0.499752 0.500703
vt 0.625065 0.374935
vt 0.500130 0.499870
vt 0.500130 0.374935
vt 0.375195 0.374935
vt 0.375195 0.250000
vt 0.750000 0.250000
vt 0.625065 0.250000
vt 0.869060 1.000271
vt 0.625065 0.499870
vt 0.750000 0.374935
s 0
f 2/1/1 3/2/1 1/3/1
f 4/4/2 7/5/2 3/2/2
f 8/6/3 5/7/3 7/8/3
f 6/9/4 1/10/4 5/11/4
f 7/5/5 1/12/5 3/13/5
f 4/14/6 6/9/6 8/15/6
f 2/1/1 4/4/1 3/2/1
f 4/4/2 8/15/2 7/5/2
f 8/6/3 6/16/3 5/7/3
f 6/9/4 2/17/4 1/10/4
f 7/5/5 5/11/5 1/12/5
f 4/14/6 2/18/6 6/9/6
o 立方体.001
v -2.000000 -0.500000 -8.000000
v -2.000000 0.500000 -8.000000
v -2.000000 -0.500000 -12.000000
v -2.000000 0.500000 -12.000000
v 2.000000 -0.500000 -8.000000
v 2.000000 0.500000 -8.000000
v 2.000000 -0.500000 -12.000000
v 2.000000 0.500000 -12.000000
vn -1.0000 -0.0000 -0.0000
vn -0.0000 -0.0000 -1.0000
vn 1.0000 -0.0000 -0.0000
vn -0.0000 -0.0000 1.0000
vn -0.0000 -1.0000 -0.0000
vn -0.0000 1.0000 -0.0000
vt 0.250000 0.000130
vt 0.125065 0.125065
vt 0.125065 0.000130
vt 0.250000 0.125065
vt 0.125065 0.250000
vt 0.250000 0.250000
vt 0.125065 0.374935
vt 0.250000 0.374935
vt 0.125065 0.499870
vt 0.000130 0.374935
vt 0.000130 0.250000
vt 0.374935 0.250000
vt 0.250000 0.499870
vt 0.374935 0.374935
s 0
f 10/19/7 11/20/7 9/21/7
f 12/22/8 15/23/8 11/20/8
f 16/24/9 13/25/9 15/23/9
f 14/26/10 9/27/10 13/25/10
f 15/23/11 9/28/11 11/29/11
f 12/30/12 14/26/12 16/24/12
f 10/19/7 12/22/7 11/20/7
f 12/22/8 16/24/8 15/23/8
f 16/24/9 14/26/9 13/25/9
f 14/26/10 10/31/10 9/27/10
f 15/23/11 13/25/11 9/28/11
f 12/30/12 10/32/12 14/26/12
o 立方体.002
v -2.000000 -0.500000 12.000000
v -2.000000 0.500000 12.000000
v -2.000000 -0.500000 8.000000
v -2.000000 0.500000 8.000000
v 2.000000 -0.500000 12.000000
v 2.000000 0.500000 12.000000
v 2.000000 -0.500000 8.000000
v 2.000000 0.500000 8.000000
vn -1.0000 -0.0000 -0.0000
vn -0.0000 -0.0000 -1.0000
vn 1.0000 -0.0000 -0.0000
vn -0.0000 -0.0000 1.0000
vn -0.0000 -1.0000 -0.0000
vn -0.0000 1.0000 -0.0000
vt 0.250000 0.500130
vt 0.125065 0.625065
vt 0.125065 0.500130
vt 0.250000 0.625065
vt 0.125065 0.750000
vt 0.250000 0.750000
vt 0.125065 0.874935
vt 0.250000 0.874935
vt 0.125065 0.999870
vt 0.000130 0.874935
vt 0.000130 0.750000
vt 0.374935 0.750000
vt 0.250000 0.999870
vt 0.374935 0.874935
s 0
f 18/33/13 19/34/13 17/35/13
f 20/36/14 23/37/14 19/34/14
f 24/38/15 21/39/15 23/37/15
f 22/40/16 17/41/16 21/39/16
f 23/37/17 17/42/17 19/43/17
f 20/44/18 22/40/18 24/38/18
f 18/33/13 20/36/13 19/34/13
f 20/36/14 24/38/14 23/37/14
f 24/38/15 22/40/15 21/39/15
f 22/40/16 18/45/16 17/41/16
f 23/37/17 21/39/17 17/42/17
f 20/44/18 18/46/18 22/40/18
