# Blender 4.4.1
# www.blender.org
mtllib Player.mtl
o 立方体
v 0.500000 0.500000 -1.000000
v 0.500000 0.500000 1.000000
v 0.500000 -0.500000 -1.000000
v 0.500000 -0.500000 1.000000
v -0.500000 0.500000 -1.000000
v -0.500000 0.500000 1.000000
v -0.500000 -0.500000 -1.000000
v -0.500000 -0.500000 1.000000
v 0.000000 0.534626 1.245934
v 0.052392 0.534656 1.242500
v 0.103888 0.534746 1.232257
v 0.153607 0.534894 1.215381
v 0.200697 0.535098 1.192159
v 0.244353 0.535354 1.162990
v 0.283828 0.535658 1.128373
v 0.318447 0.536004 1.088899
v 0.347617 0.536387 1.045245
v 0.370839 0.536800 0.998156
v 0.387717 0.537237 0.948440
v 0.397960 0.537688 0.896946
v 0.401394 0.538148 0.844556
v 0.397960 0.538608 0.792165
v 0.387717 0.539060 0.740671
v 0.370839 0.539496 0.690955
v 0.347617 0.539909 0.643867
v 0.318447 0.540292 0.600212
v 0.283828 0.540639 0.560738
v 0.244353 0.540942 0.526121
v 0.200697 0.541198 0.496952
v 0.153607 0.541402 0.473731
v 0.103888 0.541550 0.456854
v 0.052392 0.541640 0.446611
v 0.000000 0.541670 0.443177
v -0.052392 0.541640 0.446611
v -0.103888 0.541550 0.456854
v -0.153607 0.541402 0.473731
v -0.200697 0.541198 0.496952
v -0.244353 0.540942 0.526121
v -0.283828 0.540639 0.560738
v -0.318447 0.540292 0.600212
v -0.347617 0.539909 0.643867
v -0.370839 0.539496 0.690955
v -0.387717 0.539060 0.740671
v -0.397960 0.538608 0.792165
v -0.401394 0.538148 0.844556
v -0.397960 0.537688 0.896946
v -0.387717 0.537237 0.948440
v -0.370839 0.536800 0.998156
v -0.347617 0.536387 1.045245
v -0.318447 0.536004 1.088899
v -0.283828 0.535658 1.128373
v -0.244353 0.535354 1.162990
v -0.200697 0.535098 1.192159
v -0.153607 0.534894 1.215381
v -0.103888 0.534746 1.232257
v -0.052392 0.534656 1.242500
v -0.008867 0.533761 1.344536
v 0.074054 0.533809 1.339102
v 0.120845 0.533890 1.329795
v 0.199534 0.534125 1.303084
v 0.242321 0.534310 1.281985
v 0.311415 0.534715 1.235819
v 0.347283 0.534991 1.204365
v 0.402075 0.535539 1.141890
v 0.428579 0.535887 1.102225
v 0.465333 0.536541 1.027698
v 0.480668 0.536938 0.982525
v 0.496880 0.537653 0.901025
v 0.500000 0.538070 0.853422
v 0.494565 0.538798 0.770504
v 0.485258 0.539208 0.723716
v 0.458546 0.539899 0.645029
v 0.437446 0.540274 0.602244
v 0.391279 0.540881 0.533152
v 0.359823 0.541195 0.497286
v 0.297346 0.541676 0.442497
v 0.257679 0.541909 0.415993
v 0.183150 0.542231 0.379241
v 0.137975 0.542366 0.363906
v 0.056472 0.542508 0.347695
v 0.008867 0.542535 0.344575
v -0.074054 0.542488 0.350010
v -0.120845 0.542406 0.359316
v -0.199534 0.542172 0.386027
v -0.242321 0.541986 0.407126
v -0.311415 0.541581 0.453292
v -0.347283 0.541305 0.484746
v -0.402075 0.540757 0.547221
v -0.428579 0.540409 0.586886
v -0.465333 0.539755 0.661413
v -0.480668 0.539359 0.706586
v -0.496880 0.538644 0.788086
v -0.500000 0.538226 0.835689
v -0.494565 0.537498 0.918607
v -0.485258 0.537088 0.965396
v -0.458546 0.536397 1.044082
v -0.437446 0.536022 1.086867
v -0.391279 0.535416 1.155959
v -0.359823 0.535101 1.191826
v -0.297346 0.534620 1.246615
v -0.257679 0.534388 1.273118
v -0.183150 0.534065 1.309871
v -0.137975 0.533931 1.325205
v -0.056472 0.533788 1.341416
v 0.052392 0.734649 1.244255
v 0.000000 0.734619 1.247689
v 0.103888 0.734739 1.234012
v 0.153607 0.734887 1.217136
v 0.200697 0.735090 1.193914
v 0.244353 0.735346 1.164745
v 0.283828 0.735650 1.130128
v 0.318447 0.735996 1.090654
v 0.347617 0.736380 1.047000
v 0.370839 0.736793 0.999911
v 0.387717 0.737229 0.950195
v 0.397960 0.737681 0.898701
v 0.401394 0.738140 0.846310
v 0.397960 0.738600 0.793920
v 0.387717 0.739052 0.742426
v 0.370839 0.739488 0.692710
v 0.347617 0.739901 0.645621
v 0.318447 0.740284 0.601967
v 0.283828 0.740631 0.562493
v 0.244353 0.740935 0.527876
v 0.200697 0.741191 0.498707
v 0.153607 0.741394 0.475485
v 0.103888 0.741542 0.458609
v 0.052392 0.741632 0.448366
v 0.000000 0.741662 0.444932
v -0.052392 0.741632 0.448366
v -0.103888 0.741542 0.458609
v -0.153607 0.741394 0.475485
v -0.200697 0.741191 0.498707
v -0.244353 0.740935 0.527876
v -0.283828 0.740631 0.562493
v -0.318447 0.740284 0.601967
v -0.347617 0.739901 0.645621
v -0.370839 0.739488 0.692710
v -0.387717 0.739052 0.742426
v -0.397960 0.738600 0.793920
v -0.401394 0.738140 0.846310
v -0.397960 0.737681 0.898701
v -0.387717 0.737229 0.950195
v -0.370839 0.736793 0.999911
v -0.347617 0.736380 1.047000
v -0.318447 0.735996 1.090654
v -0.283828 0.735650 1.130128
v -0.244353 0.735346 1.164745
v -0.200697 0.735090 1.193914
v -0.153607 0.734887 1.217136
v -0.103888 0.734739 1.234012
v -0.052392 0.734649 1.244255
v 0.120845 0.733883 1.331550
v 0.074054 0.733801 1.340857
v 0.242321 0.734302 1.283740
v 0.199534 0.734117 1.304839
v 0.347283 0.734983 1.206120
v 0.311415 0.734707 1.237574
v 0.428579 0.735880 1.103980
v 0.402075 0.735531 1.143645
v 0.480668 0.736930 0.984280
v 0.465333 0.736533 1.029453
v 0.500000 0.738063 0.855177
v 0.496880 0.737645 0.902780
v 0.485258 0.739201 0.725471
v 0.494565 0.738790 0.772259
v 0.437446 0.740267 0.603999
v 0.458546 0.739891 0.646784
v 0.359823 0.741188 0.499041
v 0.391279 0.740873 0.534907
v 0.257679 0.741901 0.417748
v 0.297346 0.741668 0.444251
v 0.137975 0.742358 0.365661
v 0.183150 0.742223 0.380995
v 0.008867 0.742528 0.346330
v 0.056472 0.742500 0.349450
v -0.120845 0.742398 0.361071
v -0.074054 0.742480 0.351765
v -0.242321 0.741979 0.408881
v -0.199534 0.742164 0.387782
v -0.347283 0.741298 0.486501
v -0.311415 0.741574 0.455047
v -0.428579 0.740401 0.588641
v -0.402075 0.740749 0.548976
v -0.480668 0.739351 0.708341
v -0.465333 0.739747 0.663168
v -0.500000 0.738218 0.837444
v -0.496880 0.738636 0.789841
v -0.485258 0.737080 0.967150
v -0.494565 0.737491 0.920362
v -0.437446 0.736014 1.088622
v -0.458546 0.736390 1.045837
v -0.359823 0.735093 1.193581
v -0.391279 0.735408 1.157714
v -0.257679 0.734380 1.274873
v -0.297346 0.734613 1.248370
v -0.137975 0.733923 1.326960
v -0.183150 0.734058 1.311626
v -0.008867 0.733753 1.346291
v -0.056472 0.733781 1.343171
v 0.000000 -0.694893 1.213034
v 0.052392 -0.694862 1.209600
v 0.103888 -0.694773 1.199358
v 0.153607 -0.694624 1.182481
v 0.200697 -0.694421 1.159260
v 0.244353 -0.694165 1.130091
v 0.283828 -0.693861 1.095473
v 0.318447 -0.693515 1.056000
v 0.347617 -0.693132 1.012345
v 0.370839 -0.692718 0.965257
v 0.387717 -0.692282 0.915540
v 0.397960 -0.691830 0.864046
v 0.401394 -0.691371 0.811656
v 0.397960 -0.690911 0.759265
v 0.387717 -0.690459 0.707772
v 0.370839 -0.690023 0.658055
v 0.347617 -0.689610 0.610967
v 0.318447 -0.689227 0.567312
v 0.283828 -0.688880 0.527839
v 0.244353 -0.688576 0.493221
v 0.200697 -0.688321 0.464052
v 0.153607 -0.688117 0.440831
v 0.103888 -0.687969 0.423954
v 0.052392 -0.687879 0.413711
v 0.000000 -0.687849 0.410278
v -0.052392 -0.687879 0.413711
v -0.103888 -0.687969 0.423954
v -0.153607 -0.688117 0.440831
v -0.200697 -0.688321 0.464052
v -0.244353 -0.688576 0.493221
v -0.283828 -0.688880 0.527839
v -0.318447 -0.689227 0.567312
v -0.347617 -0.689610 0.610967
v -0.370839 -0.690023 0.658055
v -0.387717 -0.690459 0.707772
v -0.397960 -0.690911 0.759265
v -0.401394 -0.691371 0.811656
v -0.397960 -0.691830 0.864046
v -0.387717 -0.692282 0.915540
v -0.370839 -0.692718 0.965257
v -0.347617 -0.693132 1.012345
v -0.318447 -0.693515 1.056000
v -0.283828 -0.693861 1.095473
v -0.244353 -0.694165 1.130091
v -0.200697 -0.694421 1.159260
v -0.153607 -0.694624 1.182481
v -0.103888 -0.694773 1.199358
v -0.052392 -0.694862 1.209600
v -0.008867 -0.695758 1.311637
v 0.074054 -0.695710 1.306202
v 0.120845 -0.695628 1.296895
v 0.199534 -0.695394 1.270185
v 0.242321 -0.695209 1.249085
v 0.311415 -0.694804 1.202919
v 0.347283 -0.694528 1.171465
v 0.402075 -0.693980 1.108990
v 0.428579 -0.693632 1.069325
v 0.465333 -0.692978 0.994798
v 0.480668 -0.692581 0.949625
v 0.496880 -0.691866 0.868126
v 0.500000 -0.691448 0.820523
v 0.494565 -0.690721 0.737604
v 0.485258 -0.690310 0.690816
v 0.458546 -0.689620 0.612130
v 0.437446 -0.689244 0.569344
v 0.391279 -0.688638 0.500252
v 0.359823 -0.688323 0.464386
v 0.297346 -0.687843 0.409597
v 0.257679 -0.687610 0.383093
v 0.183150 -0.687288 0.346341
v 0.137975 -0.687153 0.331006
v 0.056472 -0.687011 0.314795
v 0.008867 -0.686983 0.311675
v -0.074054 -0.687031 0.317110
v -0.120845 -0.687113 0.326417
v -0.199534 -0.687347 0.353127
v -0.242321 -0.687532 0.374226
v -0.311415 -0.687937 0.420392
v -0.347283 -0.688213 0.451846
v -0.402075 -0.688762 0.514321
v -0.428579 -0.689110 0.553987
v -0.465333 -0.689764 0.628513
v -0.480668 -0.690160 0.673687
v -0.496880 -0.690875 0.755186
v -0.500000 -0.691293 0.802789
v -0.494565 -0.692020 0.885707
v -0.485258 -0.692431 0.932496
v -0.458546 -0.693121 1.011182
v -0.437446 -0.693497 1.053967
v -0.391279 -0.694103 1.123059
v -0.359823 -0.694418 1.158926
v -0.297346 -0.694898 1.213715
v -0.257679 -0.695131 1.240219
v -0.183150 -0.695454 1.276971
v -0.137975 -0.695588 1.292305
v -0.056472 -0.695730 1.308517
v 0.052392 -0.494870 1.211355
v 0.000000 -0.494900 1.214789
v 0.103888 -0.494780 1.201112
v 0.153607 -0.494632 1.184236
v 0.200697 -0.494428 1.161015
v 0.244353 -0.494172 1.131845
v 0.283828 -0.493869 1.097228
v 0.318447 -0.493522 1.057754
v 0.347617 -0.493139 1.014100
v 0.370839 -0.492726 0.967012
v 0.387717 -0.492290 0.917295
v 0.397960 -0.491838 0.865801
v 0.401394 -0.491378 0.813411
v 0.397960 -0.490919 0.761020
v 0.387717 -0.490467 0.709526
v 0.370839 -0.490031 0.659810
v 0.347617 -0.489617 0.612722
v 0.318447 -0.489234 0.569067
v 0.283828 -0.488888 0.529593
v 0.244353 -0.488584 0.494976
v 0.200697 -0.488328 0.465807
v 0.153607 -0.488124 0.442586
v 0.103888 -0.487976 0.425709
v 0.052392 -0.487887 0.415466
v 0.000000 -0.487856 0.412032
v -0.052392 -0.487887 0.415466
v -0.103888 -0.487976 0.425709
v -0.153607 -0.488124 0.442586
v -0.200697 -0.488328 0.465807
v -0.244353 -0.488584 0.494976
v -0.283828 -0.488888 0.529593
v -0.318447 -0.489234 0.569067
v -0.347617 -0.489617 0.612722
v -0.370839 -0.490031 0.659810
v -0.387717 -0.490467 0.709526
v -0.397960 -0.490919 0.761020
v -0.401394 -0.491378 0.813411
v -0.397960 -0.491838 0.865801
v -0.387717 -0.492290 0.917295
v -0.370839 -0.492726 0.967012
v -0.347617 -0.493139 1.014100
v -0.318447 -0.493522 1.057754
v -0.283828 -0.493869 1.097228
v -0.244353 -0.494172 1.131845
v -0.200697 -0.494428 1.161015
v -0.153607 -0.494632 1.184236
v -0.103888 -0.494780 1.201112
v -0.052392 -0.494870 1.211355
v 0.120845 -0.495636 1.298650
v 0.074054 -0.495718 1.307957
v 0.242321 -0.495217 1.250840
v 0.199534 -0.495402 1.271940
v 0.347283 -0.494536 1.173220
v 0.311415 -0.494811 1.204674
v 0.428579 -0.493639 1.071080
v 0.402075 -0.493987 1.110745
v 0.480668 -0.492589 0.951380
v 0.465333 -0.492985 0.996553
v 0.500000 -0.491456 0.822277
v 0.496880 -0.491874 0.869880
v 0.485258 -0.490318 0.692571
v 0.494565 -0.490729 0.739359
v 0.437446 -0.489252 0.571099
v 0.458546 -0.489628 0.613885
v 0.359823 -0.488331 0.466141
v 0.391279 -0.488646 0.502007
v 0.257679 -0.487618 0.384848
v 0.297346 -0.487850 0.411352
v 0.137975 -0.487161 0.332761
v 0.183150 -0.487295 0.348096
v 0.008867 -0.486991 0.313430
v 0.056472 -0.487019 0.316550
v -0.120845 -0.487121 0.328172
v -0.074054 -0.487039 0.318865
v -0.242321 -0.487540 0.375981
v -0.199534 -0.487355 0.354882
v -0.347283 -0.488221 0.453601
v -0.311415 -0.487945 0.422147
v -0.428579 -0.489117 0.555741
v -0.402075 -0.488769 0.516076
v -0.480668 -0.490168 0.675442
v -0.465333 -0.489771 0.630268
v -0.500000 -0.491301 0.804544
v -0.496880 -0.490883 0.756941
v -0.485258 -0.492439 0.934251
v -0.494565 -0.492028 0.887462
v -0.437446 -0.493504 1.055722
v -0.458546 -0.493129 1.012937
v -0.359823 -0.494425 1.160681
v -0.391279 -0.494111 1.124814
v -0.257679 -0.495139 1.241973
v -0.297346 -0.494906 1.215470
v -0.137975 -0.495596 1.294060
v -0.183150 -0.495461 1.278726
v -0.008867 -0.495765 1.313391
v -0.056472 -0.495738 1.310272
v -0.148557 -0.338410 0.282233
v -0.148557 -0.338410 1.538825
v -0.166945 -0.336599 0.282233
v -0.166945 -0.336599 1.538825
v -0.184626 -0.331235 0.282233
v -0.184626 -0.331235 1.538825
v -0.200921 -0.322526 0.282233
v -0.200921 -0.322526 1.538825
v -0.215203 -0.310804 0.282233
v -0.215203 -0.310804 1.538825
v -0.226924 -0.296522 0.282233
v -0.226924 -0.296522 1.538825
v -0.235634 -0.280227 0.282233
v -0.235634 -0.280227 1.538825
v -0.240998 -0.262546 0.282233
v -0.240998 -0.262546 1.538825
v -0.242809 -0.244158 0.282233
v -0.242809 -0.244158 1.538825
v -0.240998 -0.225771 0.282233
v -0.240998 -0.225771 1.538825
v -0.235634 -0.208090 0.282233
v -0.235634 -0.208090 1.538825
v -0.226924 -0.191795 0.282233
v -0.226924 -0.191795 1.538825
v -0.215203 -0.177513 0.282233
v -0.215203 -0.177513 1.538825
v -0.200921 -0.165791 0.282233
v -0.200921 -0.165791 1.538825
v -0.184626 -0.157082 0.282233
v -0.184626 -0.157082 1.538825
v -0.166945 -0.151718 0.282233
v -0.166945 -0.151718 1.538825
v -0.148557 -0.149907 0.282233
v -0.148557 -0.149907 1.538825
v -0.130170 -0.151718 0.282233
v -0.130170 -0.151718 1.538825
v -0.112489 -0.157082 0.282233
v -0.112489 -0.157082 1.538825
v -0.096194 -0.165791 0.282233
v -0.096194 -0.165791 1.538825
v -0.081912 -0.177513 0.282233
v -0.081912 -0.177513 1.538825
v -0.070190 -0.191795 0.282233
v -0.070190 -0.191795 1.538825
v -0.061481 -0.208090 0.282233
v -0.061481 -0.208090 1.538825
v -0.056117 -0.225771 0.282233
v -0.056117 -0.225771 1.538825
v -0.054306 -0.244158 0.282233
v -0.054306 -0.244158 1.538825
v -0.056117 -0.262546 0.282233
v -0.056117 -0.262546 1.538825
v -0.061481 -0.280227 0.282233
v -0.061481 -0.280227 1.538825
v -0.070190 -0.296522 0.282233
v -0.070190 -0.296522 1.538825
v -0.081912 -0.310804 0.282233
v -0.081912 -0.310804 1.538825
v -0.096194 -0.322526 0.282233
v -0.096194 -0.322526 1.538825
v -0.112489 -0.331235 0.282233
v -0.112489 -0.331235 1.538825
v -0.130170 -0.336599 0.282233
v -0.130170 -0.336599 1.538825
vn 1.0000 -0.0000 -0.0000
vn -0.0000 -1.0000 -0.0000
vn -1.0000 -0.0000 -0.0000
vn -0.0000 1.0000 -0.0000
vn -0.0000 -0.0000 -1.0000
vn -0.0000 -0.0000 1.0000
vn -0.0000 1.0000 0.0088
vn -0.0000 -1.0000 -0.0088
vn -0.0412 -0.0088 0.9991
vn -0.5353 -0.0074 0.8447
vn -0.9469 0.0028 -0.3214
vn 0.3214 -0.0083 0.9469
vn -0.0654 0.0088 -0.9978
vn 0.0896 0.0087 -0.9959
vn 0.5756 0.0072 -0.8177
vn -0.9979 0.0006 -0.0654
vn -0.2188 0.0086 -0.9757
vn 0.2984 0.0084 -0.9544
vn -0.9808 -0.0017 0.1951
vn 0.5556 -0.0073 0.8314
vn -0.3214 0.0083 -0.9469
vn 0.1713 -0.0086 0.9852
vn -0.3443 -0.0082 0.9388
vn -0.8969 -0.0039 0.4423
vn 0.8447 -0.0047 0.5352
vn 0.4639 -0.0078 0.8859
vn -0.7518 -0.0058 0.6593
vn 0.7518 -0.0058 0.6593
vn -0.5556 0.0073 -0.8314
vn -0.8178 0.0051 -0.5755
vn -0.4204 0.0080 -0.9073
vn -0.5556 -0.0073 0.8314
vn -0.9544 0.0026 -0.2984
vn -0.6774 0.0065 -0.7356
vn -0.3214 -0.0083 0.9469
vn 0.8969 -0.0039 0.4423
vn -0.7518 0.0058 -0.6593
vn 0.9389 -0.0030 0.3443
vn 0.6409 -0.0067 0.7676
vn -0.0654 -0.0088 0.9978
vn -0.7356 -0.0059 0.6773
vn 0.9992 -0.0004 0.0412
vn 0.1951 -0.0086 0.9807
vn 0.9808 -0.0017 0.1951
vn -0.8969 0.0039 -0.4423
vn 0.7676 0.0056 -0.6409
vn -0.9960 0.0008 -0.0896
vn 0.4423 -0.0079 0.8968
vn 0.5353 0.0074 -0.8447
vn -0.9758 -0.0019 0.2188
vn 0.6593 -0.0066 0.7518
vn 0.9979 0.0006 -0.0654
vn -0.9808 0.0017 -0.1951
vn -0.5756 -0.0072 0.8177
vn 0.9852 0.0015 -0.1713
vn 0.8315 -0.0049 0.5555
vn 0.2188 -0.0086 0.9757
vn 0.8859 0.0041 -0.4639
vn 0.9469 -0.0028 0.3214
vn 0.9469 0.0028 -0.3214
vn -0.9979 -0.0006 0.0654
vn -0.1713 0.0086 -0.9852
vn -0.9073 -0.0037 0.4204
vn 0.9979 -0.0006 0.0654
vn -0.4639 0.0078 -0.8859
vn -0.2984 -0.0084 0.9544
vn 0.9808 0.0017 -0.1951
vn 0.8315 0.0049 -0.5555
vn -0.9469 -0.0028 0.3214
vn 0.4204 -0.0080 0.9073
vn 0.3443 0.0082 -0.9388
vn 0.8969 0.0039 -0.4423
vn 0.0412 0.0088 -0.9991
vn 0.7518 0.0058 -0.6593
vn 0.6593 0.0066 -0.7518
vn -0.8315 -0.0049 0.5555
vn -0.0896 -0.0087 0.9959
vn 0.5556 0.0073 -0.8314
vn 0.6774 -0.0065 0.7356
vn 0.3214 0.0083 -0.9469
vn 0.4423 0.0079 -0.8968
vn -0.6593 -0.0066 0.7518
vn -0.6409 0.0067 -0.7676
vn 0.0654 0.0088 -0.9978
vn -0.8447 0.0047 -0.5352
vn 0.9544 -0.0026 0.2984
vn 0.1951 0.0086 -0.9807
vn -0.4423 -0.0079 0.8968
vn 0.8178 -0.0051 0.5755
vn -0.9389 0.0030 -0.3443
vn -0.8859 -0.0041 0.4639
vn -0.9992 0.0004 -0.0412
vn -0.1951 0.0086 -0.9807
vn -0.1951 -0.0086 0.9807
vn 0.9073 0.0037 -0.4204
vn 0.9960 -0.0008 0.0896
vn -0.4423 0.0079 -0.8968
vn 0.7356 0.0059 -0.6773
vn 0.9758 0.0019 -0.2188
vn -0.6593 0.0066 -0.7518
vn 0.0654 -0.0088 0.9978
vn -0.7676 -0.0056 0.6409
vn -0.9852 -0.0015 0.1713
vn -0.8315 0.0049 -0.5555
vn -0.0980 -0.9952 -0.0000
vn -0.2903 -0.9569 -0.0000
vn -0.4714 -0.8819 -0.0000
vn -0.6344 -0.7730 -0.0000
vn -0.7730 -0.6344 -0.0000
vn -0.8819 -0.4714 -0.0000
vn -0.9569 -0.2903 -0.0000
vn -0.9952 -0.0980 -0.0000
vn -0.9952 0.0980 -0.0000
vn -0.9569 0.2903 -0.0000
vn -0.8819 0.4714 -0.0000
vn -0.7730 0.6344 -0.0000
vn -0.6344 0.7730 -0.0000
vn -0.4714 0.8819 -0.0000
vn -0.2903 0.9569 -0.0000
vn -0.0980 0.9952 -0.0000
vn 0.0980 0.9952 -0.0000
vn 0.2903 0.9569 -0.0000
vn 0.4714 0.8819 -0.0000
vn 0.6344 0.7730 -0.0000
vn 0.7730 0.6344 -0.0000
vn 0.8819 0.4714 -0.0000
vn 0.9569 0.2903 -0.0000
vn 0.9952 0.0980 -0.0000
vn 0.9952 -0.0980 -0.0000
vn 0.9569 -0.2903 -0.0000
vn 0.8819 -0.4714 -0.0000
vn 0.7730 -0.6344 -0.0000
vn 0.6344 -0.7730 -0.0000
vn 0.4714 -0.8819 -0.0000
vn 0.2903 -0.9569 -0.0000
vn 0.0980 -0.9952 -0.0000
vt 0.375000 0.000000
vt 0.625000 0.000000
vt 0.625000 0.250000
vt 0.375000 0.250000
vt 0.625000 0.500000
vt 0.375000 0.500000
vt 0.625000 0.750000
vt 0.375000 0.750000
vt 0.625000 1.000000
vt 0.375000 1.000000
vt 0.125000 0.500000
vt 0.125000 0.750000
vt 0.875000 0.500000
vt 0.875000 0.750000
vt 0.000000 0.000000
vt 1.000000 0.500000
vt 1.000000 1.000000
vt 0.968750 1.000000
vt 0.968750 0.500000
vt 0.937500 1.000000
vt 0.937500 0.500000
vt 0.906250 1.000000
vt 0.906250 0.500000
vt 0.875000 1.000000
vt 0.843750 1.000000
vt 0.843750 0.500000
vt 0.812500 1.000000
vt 0.812500 0.500000
vt 0.781250 1.000000
vt 0.781250 0.500000
vt 0.750000 1.000000
vt 0.750000 0.500000
vt 0.718750 1.000000
vt 0.718750 0.500000
vt 0.687500 1.000000
vt 0.687500 0.500000
vt 0.656250 1.000000
vt 0.656250 0.500000
vt 0.593750 1.000000
vt 0.593750 0.500000
vt 0.562500 1.000000
vt 0.562500 0.500000
vt 0.531250 1.000000
vt 0.531250 0.500000
vt 0.500000 1.000000
vt 0.500000 0.500000
vt 0.468750 1.000000
vt 0.468750 0.500000
vt 0.437500 1.000000
vt 0.437500 0.500000
vt 0.406250 1.000000
vt 0.406250 0.500000
vt 0.343750 1.000000
vt 0.343750 0.500000
vt 0.312500 1.000000
vt 0.312500 0.500000
vt 0.281250 1.000000
vt 0.281250 0.500000
vt 0.250000 1.000000
vt 0.250000 0.500000
vt 0.218750 1.000000
vt 0.218750 0.500000
vt 0.187500 1.000000
vt 0.187500 0.500000
vt 0.156250 1.000000
vt 0.156250 0.500000
vt 0.125000 1.000000
vt 0.093750 1.000000
vt 0.093750 0.500000
vt 0.062500 1.000000
vt 0.062500 0.500000
vt 0.296822 0.485388
vt 0.250000 0.490000
vt 0.203178 0.485388
vt 0.158156 0.471731
vt 0.116663 0.449553
vt 0.080294 0.419706
vt 0.050447 0.383337
vt 0.028269 0.341844
vt 0.014612 0.296822
vt 0.010000 0.250000
vt 0.014612 0.203178
vt 0.028269 0.158156
vt 0.050447 0.116663
vt 0.080294 0.080294
vt 0.116663 0.050447
vt 0.158156 0.028269
vt 0.203178 0.014612
vt 0.250000 0.010000
vt 0.296822 0.014612
vt 0.341844 0.028269
vt 0.383337 0.050447
vt 0.419706 0.080294
vt 0.449553 0.116663
vt 0.471731 0.158156
vt 0.485388 0.203178
vt 0.490000 0.250000
vt 0.485388 0.296822
vt 0.471731 0.341844
vt 0.449553 0.383337
vt 0.419706 0.419706
vt 0.383337 0.449553
vt 0.341844 0.471731
vt 0.031250 1.000000
vt 0.031250 0.500000
vt 0.000000 1.000000
vt 0.000000 0.500000
vt 0.750000 0.490000
vt 0.796822 0.485388
vt 0.841844 0.471731
vt 0.883337 0.449553
vt 0.919706 0.419706
vt 0.949553 0.383337
vt 0.971731 0.341844
vt 0.985388 0.296822
vt 0.990000 0.250000
vt 0.985388 0.203178
vt 0.971731 0.158156
vt 0.949553 0.116663
vt 0.919706 0.080294
vt 0.883337 0.050447
vt 0.841844 0.028269
vt 0.796822 0.014612
vt 0.750000 0.010000
vt 0.703178 0.014612
vt 0.658156 0.028269
vt 0.616663 0.050447
vt 0.580294 0.080294
vt 0.550447 0.116663
vt 0.528269 0.158156
vt 0.514612 0.203178
vt 0.510000 0.250000
vt 0.514612 0.296822
vt 0.528269 0.341844
vt 0.550447 0.383337
vt 0.580294 0.419706
vt 0.616663 0.449553
vt 0.658156 0.471731
vt 0.703178 0.485388
s 0
f 1/1/1 2/2/1 4/3/1 3/4/1
f 3/4/2 4/3/2 8/5/2 7/6/2
f 7/6/3 8/5/3 6/7/3 5/8/3
f 5/8/4 6/7/4 2/9/4 1/10/4
f 3/11/5 7/6/5 5/8/5 1/12/5
f 8/5/6 4/13/6 2/14/6 6/7/6
f 54/15/7 102/15/7 103/15/7 55/15/7
f 32/15/7 80/15/7 81/15/7 33/15/7
f 10/15/7 58/15/7 59/15/7 11/15/7
f 40/15/7 88/15/7 89/15/7 41/15/7
f 18/15/7 66/15/7 67/15/7 19/15/7
f 48/15/7 96/15/7 97/15/7 49/15/7
f 26/15/7 74/15/7 75/15/7 27/15/7
f 56/15/7 104/15/7 57/15/7 9/15/7
f 34/15/7 82/15/7 83/15/7 35/15/7
f 12/15/7 60/15/7 61/15/7 13/15/7
f 42/15/7 90/15/7 91/15/7 43/15/7
f 20/15/7 68/15/7 69/15/7 21/15/7
f 50/15/7 98/15/7 99/15/7 51/15/7
f 28/15/7 76/15/7 77/15/7 29/15/7
f 36/15/7 84/15/7 85/15/7 37/15/7
f 14/15/7 62/15/7 63/15/7 15/15/7
f 44/15/7 92/15/7 93/15/7 45/15/7
f 22/15/7 70/15/7 71/15/7 23/15/7
f 52/15/7 100/15/7 101/15/7 53/15/7
f 30/15/7 78/15/7 79/15/7 31/15/7
f 38/15/7 86/15/7 87/15/7 39/15/7
f 16/15/7 64/15/7 65/15/7 17/15/7
f 46/15/7 94/15/7 95/15/7 47/15/7
f 24/15/7 72/15/7 73/15/7 25/15/7
f 10/15/7 11/15/7 12/15/7 13/15/7 14/15/7 15/15/7 16/15/7 17/15/7 18/15/7 19/15/7 20/15/7 21/15/7 22/15/7 23/15/7 24/15/7 25/15/7 26/15/7 27/15/7 28/15/7 29/15/7 30/15/7 31/15/7 32/15/7 33/15/7 34/15/7 35/15/7 36/15/7 37/15/7 38/15/7 39/15/7 40/15/7 41/15/7 42/15/7 43/15/7 44/15/7 45/15/7 46/15/7 47/15/7 48/15/7 49/15/7 50/15/7 51/15/7 52/15/7 53/15/7 54/15/7 55/15/7 56/15/7 9/15/7
f 150/15/8 151/15/8 197/15/8 198/15/8
f 128/15/8 129/15/8 175/15/8 176/15/8
f 105/15/8 107/15/8 153/15/8 154/15/8
f 136/15/8 137/15/8 183/15/8 184/15/8
f 114/15/8 115/15/8 161/15/8 162/15/8
f 144/15/8 145/15/8 191/15/8 192/15/8
f 122/15/8 123/15/8 169/15/8 170/15/8
f 152/15/8 106/15/8 199/15/8 200/15/8
f 130/15/8 131/15/8 177/15/8 178/15/8
f 108/15/8 109/15/8 155/15/8 156/15/8
f 138/15/8 139/15/8 185/15/8 186/15/8
f 116/15/8 117/15/8 163/15/8 164/15/8
f 146/15/8 147/15/8 193/15/8 194/15/8
f 124/15/8 125/15/8 171/15/8 172/15/8
f 132/15/8 133/15/8 179/15/8 180/15/8
f 110/15/8 111/15/8 157/15/8 158/15/8
f 140/15/8 141/15/8 187/15/8 188/15/8
f 118/15/8 119/15/8 165/15/8 166/15/8
f 148/15/8 149/15/8 195/15/8 196/15/8
f 126/15/8 127/15/8 173/15/8 174/15/8
f 134/15/8 135/15/8 181/15/8 182/15/8
f 112/15/8 113/15/8 159/15/8 160/15/8
f 142/15/8 143/15/8 189/15/8 190/15/8
f 120/15/8 121/15/8 167/15/8 168/15/8
f 105/15/8 106/15/8 152/15/8 151/15/8 150/15/8 149/15/8 148/15/8 147/15/8 146/15/8 145/15/8 144/15/8 143/15/8 142/15/8 141/15/8 140/15/8 139/15/8 138/15/8 137/15/8 136/15/8 135/15/8 134/15/8 133/15/8 132/15/8 131/15/8 130/15/8 129/15/8 128/15/8 127/15/8 126/15/8 125/15/8 124/15/8 123/15/8 122/15/8 121/15/8 120/15/8 119/15/8 118/15/8 117/15/8 116/15/8 115/15/8 114/15/8 113/15/8 112/15/8 111/15/8 110/15/8 109/15/8 108/15/8 107/15/8
f 92/15/9 44/15/9 140/15/9 188/15/9
f 88/15/10 40/15/10 136/15/10 184/15/10
f 67/15/11 66/15/11 162/15/11 161/15/11
f 36/15/12 35/15/12 131/15/12 132/15/12
f 10/15/13 9/15/13 106/15/13 105/15/13
f 45/15/14 93/15/14 187/15/14 141/15/14
f 41/15/15 89/15/15 183/15/15 137/15/15
f 69/15/16 68/15/16 164/15/16 163/15/16
f 70/15/17 22/15/17 118/15/17 166/15/17
f 66/15/18 18/15/18 114/15/18 162/15/18
f 71/15/19 70/15/19 166/15/19 165/15/19
f 38/15/20 37/15/20 133/15/20 134/15/20
f 12/15/21 11/15/21 107/15/21 108/15/21
f 23/15/22 71/15/22 165/15/22 119/15/22
f 19/15/23 67/15/23 161/15/23 115/15/23
f 73/15/24 72/15/24 168/15/24 167/15/24
f 100/15/25 52/15/25 148/15/25 196/15/25
f 96/15/26 48/15/26 144/15/26 192/15/26
f 75/15/27 74/15/27 170/15/27 169/15/27
f 40/15/28 39/15/28 135/15/28 136/15/28
f 14/15/29 13/15/29 109/15/29 110/15/29
f 53/15/30 101/15/30 195/15/30 149/15/30
f 49/15/31 97/15/31 191/15/31 145/15/31
f 77/15/32 76/15/32 172/15/32 171/15/32
f 78/15/33 30/15/33 126/15/33 174/15/33
f 74/15/34 26/15/34 122/15/34 170/15/34
f 79/15/35 78/15/35 174/15/35 173/15/35
f 42/15/36 41/15/36 137/15/36 138/15/36
f 16/15/37 15/15/37 111/15/37 112/15/37
f 31/15/38 79/15/38 173/15/38 127/15/38
f 27/15/39 75/15/39 169/15/39 123/15/39
f 81/15/40 80/15/40 176/15/40 175/15/40
f 86/15/41 38/15/41 134/15/41 182/15/41
f 104/15/42 56/15/42 152/15/42 200/15/42
f 83/15/43 82/15/43 178/15/43 177/15/43
f 44/15/44 43/15/44 139/15/44 140/15/44
f 18/15/45 17/15/45 113/15/45 114/15/45
f 39/15/46 87/15/46 181/15/46 135/15/46
f 9/15/47 57/15/47 199/15/47 106/15/47
f 85/15/48 84/15/48 180/15/48 179/15/48
f 64/15/49 16/15/49 112/15/49 160/15/49
f 82/15/50 34/15/50 130/15/50 178/15/50
f 87/15/51 86/15/51 182/15/51 181/15/51
f 46/15/52 45/15/52 141/15/52 142/15/52
f 20/15/53 19/15/53 115/15/53 116/15/53
f 17/15/54 65/15/54 159/15/54 113/15/54
f 35/15/55 83/15/55 177/15/55 131/15/55
f 89/15/56 88/15/56 184/15/56 183/15/56
f 94/15/57 46/15/57 142/15/57 190/15/57
f 60/15/58 12/15/58 108/15/58 156/15/58
f 91/15/59 90/15/59 186/15/59 185/15/59
f 48/15/60 47/15/60 143/15/60 144/15/60
f 22/15/61 21/15/61 117/15/61 118/15/61
f 47/15/62 95/15/62 189/15/62 143/15/62
f 13/15/63 61/15/63 155/15/63 109/15/63
f 93/15/64 92/15/64 188/15/64 187/15/64
f 72/15/65 24/15/65 120/15/65 168/15/65
f 90/15/66 42/15/66 138/15/66 186/15/66
f 95/15/67 94/15/67 190/15/67 189/15/67
f 50/15/68 49/15/68 145/15/68 146/15/68
f 24/15/69 23/15/69 119/15/69 120/15/69
f 25/15/70 73/15/70 167/15/70 121/15/70
f 43/15/71 91/15/71 185/15/71 139/15/71
f 97/15/72 96/15/72 192/15/72 191/15/72
f 68/15/73 20/15/73 116/15/73 164/15/73
f 99/15/74 98/15/74 194/15/74 193/15/74
f 52/15/75 51/15/75 147/15/75 148/15/75
f 26/15/76 25/15/76 121/15/76 122/15/76
f 21/15/77 69/15/77 163/15/77 117/15/77
f 101/15/78 100/15/78 196/15/78 195/15/78
f 98/15/79 50/15/79 146/15/79 194/15/79
f 103/15/80 102/15/80 198/15/80 197/15/80
f 54/15/81 53/15/81 149/15/81 150/15/81
f 28/15/82 27/15/82 123/15/82 124/15/82
f 51/15/83 99/15/83 193/15/83 147/15/83
f 57/15/84 104/15/84 200/15/84 199/15/84
f 76/15/85 28/15/85 124/15/85 172/15/85
f 102/15/86 54/15/86 150/15/86 198/15/86
f 56/15/87 55/15/87 151/15/87 152/15/87
f 30/15/88 29/15/88 125/15/88 126/15/88
f 29/15/89 77/15/89 171/15/89 125/15/89
f 55/15/90 103/15/90 197/15/90 151/15/90
f 84/15/91 36/15/91 132/15/91 180/15/91
f 80/15/92 32/15/92 128/15/92 176/15/92
f 59/15/93 58/15/93 154/15/93 153/15/93
f 32/15/94 31/15/94 127/15/94 128/15/94
f 37/15/95 85/15/95 179/15/95 133/15/95
f 33/15/96 81/15/96 175/15/96 129/15/96
f 61/15/97 60/15/97 156/15/97 155/15/97
f 62/15/98 14/15/98 110/15/98 158/15/98
f 58/15/99 10/15/99 105/15/99 154/15/99
f 63/15/100 62/15/100 158/15/100 157/15/100
f 34/15/101 33/15/101 129/15/101 130/15/101
f 15/15/102 63/15/102 157/15/102 111/15/102
f 11/15/103 59/15/103 153/15/103 107/15/103
f 65/15/104 64/15/104 160/15/104 159/15/104
f 246/15/7 294/15/7 295/15/7 247/15/7
f 224/15/7 272/15/7 273/15/7 225/15/7
f 202/15/7 250/15/7 251/15/7 203/15/7
f 232/15/7 280/15/7 281/15/7 233/15/7
f 210/15/7 258/15/7 259/15/7 211/15/7
f 240/15/7 288/15/7 289/15/7 241/15/7
f 218/15/7 266/15/7 267/15/7 219/15/7
f 248/15/7 296/15/7 249/15/7 201/15/7
f 226/15/7 274/15/7 275/15/7 227/15/7
f 204/15/7 252/15/7 253/15/7 205/15/7
f 234/15/7 282/15/7 283/15/7 235/15/7
f 212/15/7 260/15/7 261/15/7 213/15/7
f 242/15/7 290/15/7 291/15/7 243/15/7
f 220/15/7 268/15/7 269/15/7 221/15/7
f 228/15/7 276/15/7 277/15/7 229/15/7
f 206/15/7 254/15/7 255/15/7 207/15/7
f 236/15/7 284/15/7 285/15/7 237/15/7
f 214/15/7 262/15/7 263/15/7 215/15/7
f 244/15/7 292/15/7 293/15/7 245/15/7
f 222/15/7 270/15/7 271/15/7 223/15/7
f 230/15/7 278/15/7 279/15/7 231/15/7
f 208/15/7 256/15/7 257/15/7 209/15/7
f 238/15/7 286/15/7 287/15/7 239/15/7
f 216/15/7 264/15/7 265/15/7 217/15/7
f 202/15/7 203/15/7 204/15/7 205/15/7 206/15/7 207/15/7 208/15/7 209/15/7 210/15/7 211/15/7 212/15/7 213/15/7 214/15/7 215/15/7 216/15/7 217/15/7 218/15/7 219/15/7 220/15/7 221/15/7 222/15/7 223/15/7 224/15/7 225/15/7 226/15/7 227/15/7 228/15/7 229/15/7 230/15/7 231/15/7 232/15/7 233/15/7 234/15/7 235/15/7 236/15/7 237/15/7 238/15/7 239/15/7 240/15/7 241/15/7 242/15/7 243/15/7 244/15/7 245/15/7 246/15/7 247/15/7 248/15/7 201/15/7
f 342/15/8 343/15/8 389/15/8 390/15/8
f 320/15/8 321/15/8 367/15/8 368/15/8
f 297/15/8 299/15/8 345/15/8 346/15/8
f 328/15/8 329/15/8 375/15/8 376/15/8
f 306/15/8 307/15/8 353/15/8 354/15/8
f 336/15/8 337/15/8 383/15/8 384/15/8
f 314/15/8 315/15/8 361/15/8 362/15/8
f 344/15/8 298/15/8 391/15/8 392/15/8
f 322/15/8 323/15/8 369/15/8 370/15/8
f 300/15/8 301/15/8 347/15/8 348/15/8
f 330/15/8 331/15/8 377/15/8 378/15/8
f 308/15/8 309/15/8 355/15/8 356/15/8
f 338/15/8 339/15/8 385/15/8 386/15/8
f 316/15/8 317/15/8 363/15/8 364/15/8
f 324/15/8 325/15/8 371/15/8 372/15/8
f 302/15/8 303/15/8 349/15/8 350/15/8
f 332/15/8 333/15/8 379/15/8 380/15/8
f 310/15/8 311/15/8 357/15/8 358/15/8
f 340/15/8 341/15/8 387/15/8 388/15/8
f 318/15/8 319/15/8 365/15/8 366/15/8
f 326/15/8 327/15/8 373/15/8 374/15/8
f 304/15/8 305/15/8 351/15/8 352/15/8
f 334/15/8 335/15/8 381/15/8 382/15/8
f 312/15/8 313/15/8 359/15/8 360/15/8
f 297/15/8 298/15/8 344/15/8 343/15/8 342/15/8 341/15/8 340/15/8 339/15/8 338/15/8 337/15/8 336/15/8 335/15/8 334/15/8 333/15/8 332/15/8 331/15/8 330/15/8 329/15/8 328/15/8 327/15/8 326/15/8 325/15/8 324/15/8 323/15/8 322/15/8 321/15/8 320/15/8 319/15/8 318/15/8 317/15/8 316/15/8 315/15/8 314/15/8 313/15/8 312/15/8 311/15/8 310/15/8 309/15/8 308/15/8 307/15/8 306/15/8 305/15/8 304/15/8 303/15/8 302/15/8 301/15/8 300/15/8 299/15/8
f 284/15/9 236/15/9 332/15/9 380/15/9
f 280/15/10 232/15/10 328/15/10 376/15/10
f 259/15/11 258/15/11 354/15/11 353/15/11
f 228/15/12 227/15/12 323/15/12 324/15/12
f 202/15/13 201/15/13 298/15/13 297/15/13
f 237/15/14 285/15/14 379/15/14 333/15/14
f 233/15/15 281/15/15 375/15/15 329/15/15
f 261/15/16 260/15/16 356/15/16 355/15/16
f 262/15/17 214/15/17 310/15/17 358/15/17
f 258/15/18 210/15/18 306/15/18 354/15/18
f 263/15/19 262/15/19 358/15/19 357/15/19
f 230/15/20 229/15/20 325/15/20 326/15/20
f 204/15/21 203/15/21 299/15/21 300/15/21
f 215/15/22 263/15/22 357/15/22 311/15/22
f 211/15/23 259/15/23 353/15/23 307/15/23
f 265/15/24 264/15/24 360/15/24 359/15/24
f 292/15/25 244/15/25 340/15/25 388/15/25
f 288/15/26 240/15/26 336/15/26 384/15/26
f 267/15/27 266/15/27 362/15/27 361/15/27
f 232/15/28 231/15/28 327/15/28 328/15/28
f 206/15/29 205/15/29 301/15/29 302/15/29
f 245/15/30 293/15/30 387/15/30 341/15/30
f 241/15/31 289/15/31 383/15/31 337/15/31
f 269/15/32 268/15/32 364/15/32 363/15/32
f 270/15/33 222/15/33 318/15/33 366/15/33
f 266/15/34 218/15/34 314/15/34 362/15/34
f 271/15/35 270/15/35 366/15/35 365/15/35
f 234/15/36 233/15/36 329/15/36 330/15/36
f 208/15/37 207/15/37 303/15/37 304/15/37
f 223/15/38 271/15/38 365/15/38 319/15/38
f 219/15/39 267/15/39 361/15/39 315/15/39
f 273/15/40 272/15/40 368/15/40 367/15/40
f 278/15/41 230/15/41 326/15/41 374/15/41
f 296/15/42 248/15/42 344/15/42 392/15/42
f 275/15/43 274/15/43 370/15/43 369/15/43
f 236/15/44 235/15/44 331/15/44 332/15/44
f 210/15/45 209/15/45 305/15/45 306/15/45
f 231/15/46 279/15/46 373/15/46 327/15/46
f 201/15/47 249/15/47 391/15/47 298/15/47
f 277/15/48 276/15/48 372/15/48 371/15/48
f 256/15/49 208/15/49 304/15/49 352/15/49
f 274/15/50 226/15/50 322/15/50 370/15/50
f 279/15/51 278/15/51 374/15/51 373/15/51
f 238/15/52 237/15/52 333/15/52 334/15/52
f 212/15/53 211/15/53 307/15/53 308/15/53
f 209/15/54 257/15/54 351/15/54 305/15/54
f 227/15/55 275/15/55 369/15/55 323/15/55
f 281/15/56 280/15/56 376/15/56 375/15/56
f 286/15/57 238/15/57 334/15/57 382/15/57
f 252/15/58 204/15/58 300/15/58 348/15/58
f 283/15/59 282/15/59 378/15/59 377/15/59
f 240/15/60 239/15/60 335/15/60 336/15/60
f 214/15/61 213/15/61 309/15/61 310/15/61
f 239/15/62 287/15/62 381/15/62 335/15/62
f 205/15/63 253/15/63 347/15/63 301/15/63
f 285/15/64 284/15/64 380/15/64 379/15/64
f 264/15/65 216/15/65 312/15/65 360/15/65
f 282/15/66 234/15/66 330/15/66 378/15/66
f 287/15/67 286/15/67 382/15/67 381/15/67
f 242/15/68 241/15/68 337/15/68 338/15/68
f 216/15/69 215/15/69 311/15/69 312/15/69
f 217/15/70 265/15/70 359/15/70 313/15/70
f 235/15/71 283/15/71 377/15/71 331/15/71
f 289/15/72 288/15/72 384/15/72 383/15/72
f 260/15/73 212/15/73 308/15/73 356/15/73
f 291/15/74 290/15/74 386/15/74 385/15/74
f 244/15/75 243/15/75 339/15/75 340/15/75
f 218/15/76 217/15/76 313/15/76 314/15/76
f 213/15/77 261/15/77 355/15/77 309/15/77
f 293/15/78 292/15/78 388/15/78 387/15/78
f 290/15/79 242/15/79 338/15/79 386/15/79
f 295/15/80 294/15/80 390/15/80 389/15/80
f 246/15/81 245/15/81 341/15/81 342/15/81
f 220/15/82 219/15/82 315/15/82 316/15/82
f 243/15/83 291/15/83 385/15/83 339/15/83
f 249/15/84 296/15/84 392/15/84 391/15/84
f 268/15/85 220/15/85 316/15/85 364/15/85
f 294/15/86 246/15/86 342/15/86 390/15/86
f 248/15/87 247/15/87 343/15/87 344/15/87
f 222/15/88 221/15/88 317/15/88 318/15/88
f 221/15/89 269/15/89 363/15/89 317/15/89
f 247/15/90 295/15/90 389/15/90 343/15/90
f 276/15/91 228/15/91 324/15/91 372/15/91
f 272/15/92 224/15/92 320/15/92 368/15/92
f 251/15/93 250/15/93 346/15/93 345/15/93
f 224/15/94 223/15/94 319/15/94 320/15/94
f 229/15/95 277/15/95 371/15/95 325/15/95
f 225/15/96 273/15/96 367/15/96 321/15/96
f 253/15/97 252/15/97 348/15/97 347/15/97
f 254/15/98 206/15/98 302/15/98 350/15/98
f 250/15/99 202/15/99 297/15/99 346/15/99
f 255/15/100 254/15/100 350/15/100 349/15/100
f 226/15/101 225/15/101 321/15/101 322/15/101
f 207/15/102 255/15/102 349/15/102 303/15/102
f 203/15/103 251/15/103 345/15/103 299/15/103
f 257/15/104 256/15/104 352/15/104 351/15/104
f 393/16/105 394/17/105 396/18/105 395/19/105
f 395/19/106 396/18/106 398/20/106 397/21/106
f 397/21/107 398/20/107 400/22/107 399/23/107
f 399/23/108 400/22/108 402/24/108 401/13/108
f 401/13/109 402/24/109 404/25/109 403/26/109
f 403/26/110 404/25/110 406/27/110 405/28/110
f 405/28/111 406/27/111 408/29/111 407/30/111
f 407/30/112 408/29/112 410/31/112 409/32/112
f 409/32/113 410/31/113 412/33/113 411/34/113
f 411/34/114 412/33/114 414/35/114 413/36/114
f 413/36/115 414/35/115 416/37/115 415/38/115
f 415/38/116 416/37/116 418/9/116 417/5/116
f 417/5/117 418/9/117 420/39/117 419/40/117
f 419/40/118 420/39/118 422/41/118 421/42/118
f 421/42/119 422/41/119 424/43/119 423/44/119
f 423/44/120 424/43/120 426/45/120 425/46/120
f 425/46/121 426/45/121 428/47/121 427/48/121
f 427/48/122 428/47/122 430/49/122 429/50/122
f 429/50/123 430/49/123 432/51/123 431/52/123
f 431/52/124 432/51/124 434/10/124 433/6/124
f 433/6/125 434/10/125 436/53/125 435/54/125
f 435/54/126 436/53/126 438/55/126 437/56/126
f 437/56/127 438/55/127 440/57/127 439/58/127
f 439/58/128 440/57/128 442/59/128 441/60/128
f 441/60/129 442/59/129 444/61/129 443/62/129
f 443/62/130 444/61/130 446/63/130 445/64/130
f 445/64/131 446/63/131 448/65/131 447/66/131
f 447/66/132 448/65/132 450/67/132 449/11/132
f 449/11/133 450/67/133 452/68/133 451/69/133
f 451/69/134 452/68/134 454/70/134 453/71/134
f 396/72/6 394/73/6 456/74/6 454/75/6 452/76/6 450/77/6 448/78/6 446/79/6 444/80/6 442/81/6 440/82/6 438/83/6 436/84/6 434/85/6 432/86/6 430/87/6 428/88/6 426/89/6 424/90/6 422/91/6 420/92/6 418/93/6 416/94/6 414/95/6 412/96/6 410/97/6 408/98/6 406/99/6 404/100/6 402/101/6 400/102/6 398/103/6
f 453/71/135 454/70/135 456/104/135 455/105/135
f 455/105/136 456/104/136 394/106/136 393/107/136
f 393/108/5 395/109/5 397/110/5 399/111/5 401/112/5 403/113/5 405/114/5 407/115/5 409/116/5 411/117/5 413/118/5 415/119/5 417/120/5 419/121/5 421/122/5 423/123/5 425/124/5 427/125/5 429/126/5 431/127/5 433/128/5 435/129/5 437/130/5 439/131/5 441/132/5 443/133/5 445/134/5 447/135/5 449/136/5 451/137/5 453/138/5 455/139/5
