# Blender 4.4.1
# www.blender.org
mtllib grass.mtl
o 平面
v -0.630000 -0.011926 -0.000000
v 0.630000 -0.011926 -0.000000
v -0.630000 1.988074 0.000000
v 0.630000 1.988074 0.000000
v -0.337629 -0.011926 -0.531890
v 0.337629 -0.011926 0.531890
v -0.337629 1.988074 -0.531890
v 0.337629 1.988074 0.531890
vn -0.0000 -0.0000 1.0000
vn -0.8443 -0.0000 0.5359
vt 0.000000 0.000000
vt 1.000000 0.000000
vt 1.000000 1.000000
vt 0.000000 1.000000
s 0
usemtl マテリアル
f 1/1/1 2/2/1 4/3/1 3/4/1
usemtl マテリアル.001
f 5/1/2 6/2/2 8/3/2 7/4/2
