# Blender 4.4.3
# www.blender.org
mtllib Canon.mtl
o canon
v 0.000000 0.699924 -0.413577
v 0.286454 0.699924 -0.294924
v 0.000000 0.819679 -0.413577
v -0.286454 0.699924 -0.294924
v -0.405107 0.699924 -0.008470
v -0.286454 0.819679 -0.294924
v -0.405107 0.819679 -0.008470
v -0.286454 0.819679 0.277984
v 0.000000 0.819680 0.396637
v -0.286454 0.699924 0.277984
v 0.000000 0.699924 0.396637
v 0.286454 0.699924 0.277984
v 0.405107 0.699924 -0.008470
v 0.286454 0.819679 0.277984
v 0.405107 0.819679 -0.008470
v 0.286454 0.819679 -0.294924
v -0.099783 1.324685 0.454906
v -0.099783 1.524251 0.454906
v 0.099783 1.324685 0.454906
v -0.171908 1.252560 0.454906
v -0.099783 1.324685 0.602595
v -0.099783 1.324685 0.750284
v 0.099783 1.324685 0.602595
v -0.099783 1.467072 0.602595
v -0.099783 1.119833 0.602595
v -0.099783 1.119833 0.750284
v 0.099783 1.119833 0.602595
v 0.099783 1.119833 0.750284
v 0.099783 1.324685 0.750284
v 0.099783 1.409892 0.750284
v -0.099783 1.409892 0.750284
v 0.099783 1.467072 0.602595
v 0.099783 1.524251 0.454906
v 0.171908 1.596377 0.454906
v 0.171908 1.596377 0.111089
v 0.171908 1.252560 0.454906
v -0.171908 1.596377 0.454906
v -0.171908 1.596377 0.111089
v -0.171908 1.252560 0.111089
v 0.171908 1.252560 0.111089
v 0.000000 0.944088 -0.284133
v -0.055432 0.944088 -0.278673
v 0.055432 0.944088 -0.278673
v -0.003177 0.944087 -0.448110
v 0.000000 1.073577 -0.284133
v -0.055432 1.073577 -0.278673
v 0.055432 1.073577 -0.278673
v -0.003177 1.073577 -0.448110
v -0.091036 1.073577 -0.439457
v 0.084683 1.073577 -0.439457
v 0.025297 1.073577 -0.625189
v 0.091303 1.073577 -0.618688
v 0.025297 0.944087 -0.625189
v 0.091303 0.944087 -0.618688
v 0.084683 0.944087 -0.439457
v 0.169166 0.944087 -0.413829
v 0.247026 0.944088 -0.372212
v 0.108733 0.944088 -0.262505
v 0.263237 0.944087 -0.566533
v 0.169166 1.073577 -0.413829
v 0.247026 1.073577 -0.372212
v 0.108733 1.073577 -0.262505
v 0.263237 1.073577 -0.566533
v 0.321731 1.073577 -0.535267
v 0.321731 0.944087 -0.535267
v 0.157855 1.073577 -0.236248
v 0.200912 1.073577 -0.200912
v 0.157855 0.944088 -0.236248
v 0.200912 0.944088 -0.200912
v 0.236248 0.944088 -0.157856
v 0.315271 0.944088 -0.316205
v 0.371278 0.944088 -0.247960
v 0.460618 0.944087 -0.421285
v 0.315271 1.073577 -0.316205
v 0.371278 1.073577 -0.247960
v 0.460618 1.073577 -0.421285
v 0.502694 1.073577 -0.370015
v 0.502694 0.944088 -0.370015
v 0.412894 1.073577 -0.170100
v 0.236248 1.073577 -0.157856
v 0.262504 1.073577 -0.108733
v 0.278673 1.073577 -0.055432
v 0.262504 0.944088 -0.108733
v 0.278673 0.944088 -0.055432
v 0.412894 0.944088 -0.170100
v 0.438522 0.944088 -0.085617
v 0.587390 0.944088 -0.211560
v 0.606644 0.944088 -0.148090
v 0.587390 1.073577 -0.211560
v 0.606644 1.073577 -0.148090
v 0.438522 1.073577 -0.085617
v 0.447176 1.073577 0.002242
v 0.438522 1.073577 0.090101
v 0.284133 1.073577 -0.000000
v 0.624255 1.073577 0.030715
v 0.447176 0.944088 0.002242
v 0.438522 0.944088 0.090101
v 0.284133 0.944088 -0.000000
v 0.624255 0.944088 0.030715
v 0.617754 0.944088 0.096721
v 0.617754 1.073577 0.096721
v 0.278673 0.944088 0.055431
v 0.262504 0.944088 0.108733
v 0.278673 1.073577 0.055431
v 0.262504 1.073577 0.108733
v 0.236248 1.073577 0.157855
v 0.412894 1.073577 0.174584
v 0.371278 1.073577 0.252444
v 0.565598 1.073577 0.268656
v 0.412894 0.944088 0.174584
v 0.371278 0.944088 0.252444
v 0.565598 0.944088 0.268656
v 0.534333 0.944088 0.327149
v 0.534333 1.073577 0.327149
v 0.315271 0.944088 0.320689
v 0.236248 0.944088 0.157855
v 0.200912 0.944088 0.200912
v 0.157855 0.944088 0.236247
v 0.200912 1.073577 0.200912
v 0.157855 1.073577 0.236247
v 0.315271 1.073577 0.320689
v 0.247026 1.073577 0.376696
v 0.420351 1.073577 0.466037
v 0.369081 1.073577 0.508113
v 0.420351 0.944088 0.466037
v 0.369081 0.944088 0.508113
v 0.247026 0.944088 0.376696
v 0.169166 0.944088 0.418313
v 0.084683 0.944088 0.443940
v 0.108733 0.944088 0.262504
v 0.210625 0.944088 0.592809
v 0.169166 1.073577 0.418313
v 0.084683 1.073577 0.443940
v 0.108733 1.073577 0.262504
v 0.210625 1.073577 0.592809
v 0.147155 1.073577 0.612062
v 0.147155 0.944088 0.612062
v 0.055432 1.073577 0.278673
v 0.000000 1.073577 0.284132
v 0.055432 0.944088 0.278673
v 0.000000 0.944088 0.284132
v -0.055432 0.944088 0.278673
v -0.003177 0.944088 0.452594
v -0.091036 0.944088 0.443940
v -0.031650 0.944088 0.629673
v -0.003177 1.073577 0.452594
v -0.091036 1.073577 0.443940
v -0.031650 1.073577 0.629673
v -0.097656 1.073577 0.623172
v -0.097656 0.944088 0.623172
v -0.175518 1.073577 0.418313
v -0.055432 1.073577 0.278673
v -0.108733 1.073577 0.262504
v -0.157855 1.073577 0.236247
v -0.108733 0.944088 0.262504
v -0.157855 0.944088 0.236247
v -0.175518 0.944088 0.418313
v -0.253379 0.944088 0.376696
v -0.269590 0.944088 0.571016
v -0.328084 0.944088 0.539751
v -0.269590 1.073577 0.571016
v -0.328084 1.073577 0.539751
v -0.253379 1.073577 0.376696
v -0.321624 1.073577 0.320689
v -0.377631 1.073577 0.252444
v -0.200912 1.073577 0.200912
v -0.466971 1.073577 0.425769
v -0.321624 0.944088 0.320689
v -0.377631 0.944088 0.252444
v -0.200912 0.944088 0.200912
v -0.466971 0.944088 0.425769
v -0.509048 0.944088 0.374499
v -0.509048 1.073577 0.374499
v -0.236247 0.944088 0.157855
v -0.262504 0.944088 0.108733
v -0.236247 1.073577 0.157855
v -0.262504 1.073577 0.108733
v -0.278673 1.073577 0.055431
v -0.419248 1.073577 0.174584
v -0.444875 1.073577 0.090101
v -0.593744 1.073577 0.216043
v -0.419248 0.944088 0.174584
v -0.444875 0.944088 0.090101
v -0.593744 0.944088 0.216043
v -0.612997 0.944088 0.152574
v -0.612997 1.073577 0.152574
v -0.453528 0.944088 0.002242
v -0.278673 0.944088 0.055431
v -0.284133 0.944088 -0.000000
v -0.278673 0.944088 -0.055432
v -0.284133 1.073577 -0.000000
v -0.278673 1.073577 -0.055432
v -0.453528 1.073577 0.002242
v -0.444875 1.073577 -0.085617
v -0.630607 1.073577 -0.026231
v -0.624107 1.073577 -0.092238
v -0.630607 0.944088 -0.026231
v -0.624107 0.944088 -0.092238
v -0.444875 0.944088 -0.085617
v -0.419248 0.944088 -0.170100
v -0.377631 0.944088 -0.247960
v -0.262504 0.944088 -0.108733
v -0.571951 0.944088 -0.264172
v -0.419248 1.073577 -0.170100
v -0.377631 1.073577 -0.247960
v -0.262504 1.073577 -0.108733
v -0.571951 1.073577 -0.264172
v -0.540685 1.073577 -0.322665
v -0.540685 0.944088 -0.322665
v -0.236247 1.073577 -0.157856
v -0.200912 1.073577 -0.200912
v -0.236247 0.944088 -0.157856
v -0.200912 0.944088 -0.200912
v -0.157855 0.944088 -0.236248
v -0.321624 0.944088 -0.316205
v -0.253379 0.944088 -0.372212
v -0.426704 0.944087 -0.461553
v -0.321624 1.073577 -0.316205
v -0.253379 1.073577 -0.372212
v -0.426704 1.073577 -0.461553
v -0.375434 1.073577 -0.503629
v -0.375434 0.944087 -0.503629
v -0.175518 1.073577 -0.413829
v -0.157855 1.073577 -0.236248
v -0.108733 1.073577 -0.262505
v -0.108733 0.944088 -0.262505
v -0.175518 0.944087 -0.413829
v -0.091036 0.944087 -0.439457
v -0.216978 0.944087 -0.588325
v -0.153508 0.944087 -0.607579
v -0.216978 1.073577 -0.588325
v -0.153508 1.073577 -0.607579
v -0.324778 1.106899 0.316307
v -0.324778 1.106899 -0.008470
v 0.324778 1.106899 0.316307
v -0.324778 1.431677 0.316307
v 0.324778 1.431677 0.316307
v -0.324778 1.594066 0.316307
v -0.324778 1.431677 -0.008470
v -0.324778 1.594066 -0.008470
v -0.324778 1.431677 -0.170859
v -0.324778 1.594066 -0.170859
v -0.324778 1.106899 -0.170859
v -0.323516 1.521263 -0.170859
v -0.323516 1.683653 -0.170859
v -0.323516 1.196486 -0.170859
v -0.363043 1.521449 -0.170859
v -0.363043 1.521449 -0.333248
v -0.363043 1.683838 -0.170859
v -0.363043 1.196671 -0.170859
v -0.363043 1.196671 -0.333248
v -0.364305 1.107085 -0.170859
v -0.364305 1.107085 -0.333248
v -0.324778 1.106899 -0.333248
v -0.324778 1.431677 -0.333248
v 0.324778 1.106899 -0.333248
v -0.323516 1.196486 -0.333248
v -0.323516 1.521263 -0.333248
v -0.323516 1.683653 -0.333248
v -0.206675 1.846041 -0.333248
v -0.363043 1.683838 -0.333248
v -0.324778 1.594066 -0.333248
v -0.207937 1.756455 -0.333248
v 0.324778 1.594066 -0.333248
v 0.324778 1.431677 -0.333248
v 0.220580 1.756455 -0.333248
v 0.326039 1.683653 -0.333248
v 0.326039 1.521263 -0.333248
v 0.221841 1.846041 -0.333248
v 0.326039 1.683653 -0.170859
v 0.357821 1.683503 -0.333248
v 0.357821 1.521114 -0.333248
v 0.357821 1.683503 -0.170859
v 0.357821 1.521114 -0.170859
v 0.357821 1.196337 -0.170859
v 0.326039 1.521263 -0.170859
v 0.324778 1.431677 -0.170859
v 0.326039 1.196486 -0.170859
v 0.324778 1.106899 -0.170859
v 0.324778 1.106899 -0.008470
v 0.356559 1.106750 -0.170859
v 0.356559 1.106750 -0.333248
v 0.357821 1.196337 -0.333248
v 0.326039 1.196486 -0.333248
v 0.324778 1.431677 -0.008470
v 0.324778 1.594066 -0.008470
v 0.324778 1.594066 0.316307
v 0.324778 1.594066 -0.170859
v 0.220580 1.756455 -0.008470
v 0.220580 1.756455 0.316307
v 0.220580 1.756455 -0.170859
v -0.207937 1.756455 -0.008470
v -0.207937 1.756455 0.316307
v -0.207937 1.756455 -0.170859
v -0.206675 1.846041 -0.170859
v 0.221841 1.846041 -0.170859
v 0.002784 1.142763 0.187852
v 0.122458 1.172261 0.187966
v -0.116890 1.172261 0.187966
v 0.002784 1.145759 -0.584919
v -0.116890 1.175257 -0.584805
v 0.122458 1.175257 -0.584805
v 0.002784 1.147257 -0.971305
v -0.116890 1.176755 -0.971190
v 0.122458 1.176755 -0.971190
v 0.002784 1.148006 -1.164497
v 0.002784 1.148755 -1.357690
v -0.116890 1.177504 -1.164383
v 0.122458 1.177504 -1.164383
v 0.042103 1.143232 -1.164516
v -0.022969 1.144879 -1.164510
v -0.022969 1.145628 -1.357703
v -0.142642 1.174378 -1.164395
v -0.142642 1.175127 -1.357588
v -0.234901 1.256116 -1.164078
v -0.234901 1.256865 -1.357271
v -0.278607 1.371368 -1.163631
v -0.209148 1.259242 -1.164066
v -0.209148 1.258493 -0.970873
v -0.252856 1.374495 -1.163619
v -0.252856 1.373745 -0.970427
v -0.252856 1.375244 -1.356812
v -0.237999 1.496858 -1.163145
v -0.251065 1.377676 -1.162661
v -0.251065 1.378425 -1.355854
v -0.236208 1.500040 -1.162187
v -0.276817 1.374549 -1.162673
v -0.276817 1.375299 -1.355866
v -0.261960 1.496913 -1.162199
v -0.261960 1.497662 -1.355392
v -0.236208 1.500789 -1.355379
v -0.237999 1.497607 -1.356338
v -0.167982 1.599050 -1.355944
v -0.237999 1.497607 -1.356338
v -0.167982 1.599050 -1.355944
v -0.237999 1.496858 -1.163145
v -0.263751 1.494480 -1.356350
v -0.193733 1.595923 -1.355956
v -0.263751 1.493731 -1.163157
v -0.193733 1.595174 -1.162764
v -0.167982 1.598301 -1.162751
v -0.058844 1.655584 -1.162529
v -0.167982 1.598301 -1.162751
v -0.166191 1.601482 -1.161793
v -0.166191 1.602231 -1.354986
v -0.057053 1.658765 -1.161571
v -0.191943 1.598356 -1.161805
v -0.191943 1.599105 -1.354998
v -0.082805 1.655639 -1.161583
v -0.082805 1.656388 -1.354776
v -0.082805 1.668091 -1.161535
v -0.082805 1.668841 -1.354727
v -0.057053 1.671218 -1.161523
v -0.057053 1.671967 -1.354715
v 0.066202 1.671218 -1.161523
v 0.066202 1.671967 -1.354715
v 0.066202 1.658765 -1.161571
v 0.066202 1.659514 -1.354764
v 0.064412 1.655584 -1.162529
v 0.064412 1.656333 -1.355722
v 0.064412 1.655584 -1.162529
v 0.064412 1.654834 -0.969337
v 0.064412 1.656333 -1.355722
v -0.058844 1.655584 -1.162529
v 0.173549 1.598301 -1.162751
v 0.066202 1.658765 -1.161571
v 0.105522 1.653991 -1.161590
v 0.066202 1.659514 -1.354764
v 0.175340 1.601482 -1.161793
v 0.066202 1.671218 -1.161523
v 0.105522 1.666444 -1.161541
v 0.066202 1.671967 -1.354715
v 0.105522 1.667193 -1.354734
v 0.105522 1.654740 -1.354782
v 0.214660 1.597458 -1.355004
v 0.284677 1.496015 -1.355398
v 0.214660 1.596709 -1.161812
v 0.175340 1.602231 -1.354986
v 0.245357 1.500789 -1.355379
v 0.173549 1.599050 -1.355944
v 0.243566 1.497607 -1.356338
v 0.258424 1.375244 -1.356812
v 0.214716 1.259992 -1.357259
v 0.258424 1.374495 -1.163619
v 0.260214 1.378425 -1.355854
v 0.297743 1.370470 -1.356831
v 0.254036 1.255218 -1.357278
v 0.297743 1.369721 -1.163638
v 0.254036 1.254468 -1.164085
v 0.161778 1.172731 -1.164402
v 0.214716 1.259242 -1.164066
v 0.214716 1.258493 -0.970873
v 0.214716 1.256996 -0.584488
v 0.258424 1.373745 -0.970427
v 0.258424 1.372247 -0.584041
v 0.243566 1.496109 -0.969952
v 0.243566 1.494611 -0.583567
v 0.243566 1.496858 -1.163145
v 0.173549 1.597552 -0.969559
v 0.173549 1.596053 -0.583173
v 0.173549 1.593057 0.189598
v 0.064412 1.653337 -0.582951
v 0.064412 1.650340 0.189820
v -0.058844 1.653337 -0.582951
v -0.058844 1.650340 0.189820
v -0.058844 1.654834 -0.969337
v -0.167982 1.596053 -0.583173
v -0.167982 1.593057 0.189598
v -0.167982 1.597552 -0.969559
v -0.237999 1.494611 -0.583567
v -0.237999 1.491614 0.189204
v -0.237999 1.496109 -0.969952
v -0.252856 1.372247 -0.584041
v -0.252856 1.369251 0.188730
v -0.209148 1.256996 -0.584488
v -0.209148 1.253999 0.188283
v 0.243566 1.491614 0.189204
v 0.258424 1.369251 0.188730
v 0.214716 1.253999 0.188283
v 0.245357 1.500040 -1.162187
v 0.260214 1.377676 -1.162661
v 0.284677 1.495266 -1.162205
v 0.299534 1.372902 -1.162680
v 0.299534 1.373651 -1.355872
v 0.161778 1.173480 -1.357594
v 0.042103 1.143981 -1.357708
v 0.122458 1.178254 -1.357576
v -0.058844 1.656333 -1.355722
v -0.058844 1.656333 -1.355722
v -0.057053 1.659514 -1.354764
v -0.209148 1.259992 -1.357259
v -0.278607 1.372117 -1.356824
v -0.116890 1.178254 -1.357576
v 0.000000 1.740981 -0.495182
v -0.141486 1.700954 -0.495509
v 0.000000 1.738949 -0.246174
v 0.141486 1.700954 -0.495509
v 0.250560 1.590042 -0.496415
v 0.141486 1.698921 -0.246501
v 0.250560 1.588009 -0.247406
v 0.302233 1.431620 -0.248683
v 0.284668 1.265581 -0.250038
v 0.302233 1.433653 -0.497691
v 0.284668 1.267614 -0.499047
v 0.201890 1.129964 -0.500171
v 0.072860 1.052235 -0.500805
v 0.201890 1.127931 -0.251162
v 0.072860 1.050202 -0.251797
v -0.072860 1.050202 -0.251797
v -0.201889 1.127931 -0.251162
v -0.072860 1.052235 -0.500805
v -0.201889 1.129964 -0.500171
v -0.284668 1.267614 -0.499047
v -0.302233 1.433653 -0.497691
v -0.284668 1.265581 -0.250038
v -0.302233 1.431620 -0.248683
v -0.250560 1.588009 -0.247406
v -0.141486 1.698921 -0.246501
v -0.250560 1.590042 -0.496415
v 0.000000 0.730449 -0.258139
v 0.176543 0.730449 -0.185013
v 0.000000 1.006135 -0.258139
v -0.176543 0.730449 -0.185013
v -0.249669 0.730449 -0.008470
v -0.176543 1.006135 -0.185013
v -0.249669 1.006135 -0.008470
v -0.176543 1.006135 0.168072
v 0.000000 1.006135 0.241198
v -0.176543 0.730449 0.168072
v 0.000000 0.730449 0.241198
v 0.176543 0.730449 0.168072
v 0.249669 0.730449 -0.008470
v 0.176543 1.006135 0.168072
v 0.249669 1.006135 -0.008470
v 0.176543 1.006135 -0.185013
v 0.000000 0.155957 -0.000000
v -0.061133 0.212156 0.188150
v -0.197834 0.212157 -0.000000
v -0.061133 0.212156 -0.188150
v 0.160050 0.212157 0.116282
v 0.160050 0.212156 -0.116282
v 0.272296 0.363970 -0.197833
v 0.098918 0.334423 -0.304435
v 0.320102 0.334424 -0.000000
v 0.272296 0.363971 0.197832
v 0.357887 0.532261 0.116282
v 0.357887 0.532261 -0.116283
v 0.336576 0.700550 -0.000000
v 0.258969 0.730097 -0.188151
v 0.221186 0.532261 -0.304436
v 0.104006 0.700552 -0.320103
v 0.000000 0.532261 -0.376304
v -0.104006 0.363970 -0.320103
v -0.098918 0.730098 -0.304435
v -0.221186 0.532261 -0.304436
v -0.272296 0.700552 -0.197833
v -0.357887 0.532261 -0.116283
v -0.258969 0.334424 -0.188151
v -0.336576 0.363972 -0.000000
v -0.258969 0.334424 0.188151
v -0.357887 0.532261 0.116282
v -0.272296 0.700552 0.197832
v -0.320102 0.730097 -0.000000
v -0.221186 0.532261 0.304436
v -0.104006 0.363970 0.320102
v -0.098918 0.730098 0.304434
v 0.000000 0.532261 0.376304
v 0.104006 0.700552 0.320102
v 0.221186 0.532261 0.304436
v 0.098918 0.334424 0.304434
v 0.258969 0.730097 0.188151
v 0.061133 0.852365 0.188150
v 0.197834 0.852364 -0.000000
v 0.000000 0.908565 -0.000000
v 0.061133 0.852365 -0.188150
v -0.160050 0.852365 -0.116282
v -0.160050 0.852365 0.116282
vn 0.3827 -0.0000 -0.9239
vn -0.0000 -1.0000 -0.0000
vn -0.3827 -0.0000 -0.9239
vn -0.9239 -0.0000 -0.3827
vn -0.0000 1.0000 -0.0000
vn -0.9239 -0.0000 0.3827
vn -0.3827 -0.0000 0.9239
vn 0.3827 -0.0000 0.9239
vn 0.9239 -0.0000 0.3827
vn 0.9239 -0.0000 -0.3827
vn -1.0000 -0.0000 -0.0000
vn -0.0000 -0.0000 1.0000
vn -0.0000 -0.0000 -1.0000
vn 1.0000 -0.0000 -0.0000
vn -0.0000 0.9325 0.3610
vn 0.0980 -0.0000 0.9952
vn -0.0980 -0.0000 0.9952
vn -0.0980 -0.0000 -0.9952
vn -0.9873 -0.0000 -0.1588
vn 0.0980 -0.0000 -0.9952
vn 0.9993 -0.0000 0.0369
vn 0.2903 -0.0000 -0.9569
vn -0.8514 -0.0000 -0.5245
vn 0.4714 -0.0000 -0.8819
vn 0.9091 -0.0000 0.4165
vn -0.4714 -0.0000 0.8819
vn -0.2903 -0.0000 0.9569
vn -0.6344 -0.0000 0.7730
vn -0.7730 -0.0000 0.6344
vn 0.6344 -0.0000 -0.7730
vn -0.5859 -0.0000 -0.8104
vn 0.7730 -0.0000 -0.6344
vn 0.6805 -0.0000 0.7327
vn 0.8819 -0.0000 -0.4714
vn -0.8819 -0.0000 0.4714
vn -0.9569 -0.0000 0.2903
vn -0.2312 -0.0000 -0.9729
vn 0.9569 -0.0000 -0.2903
vn 0.3483 -0.0000 0.9374
vn 0.9952 -0.0000 -0.0980
vn 0.1588 -0.0000 -0.9873
vn 0.9952 -0.0000 0.0980
vn -0.0369 -0.0000 0.9993
vn -0.9952 -0.0000 -0.0980
vn -0.9952 -0.0000 0.0980
vn -0.9569 -0.0000 -0.2903
vn -0.8819 -0.0000 -0.4714
vn 0.9569 -0.0000 0.2903
vn 0.5245 -0.0000 -0.8514
vn 0.8819 -0.0000 0.4714
vn -0.4165 -0.0000 0.9091
vn 0.7730 -0.0000 0.6344
vn -0.7730 -0.0000 -0.6344
vn -0.6344 -0.0000 -0.7730
vn 0.8104 -0.0000 -0.5859
vn 0.6344 -0.0000 0.7730
vn -0.7327 -0.0000 0.6805
vn 0.4714 -0.0000 0.8819
vn 0.9729 -0.0000 -0.2312
vn 0.2903 -0.0000 0.9569
vn -0.9374 -0.0000 0.3483
vn -0.2903 -0.0000 -0.9569
vn -0.4714 -0.0000 -0.8819
vn 0.9873 -0.0000 0.1588
vn -0.9993 -0.0000 -0.0369
vn 0.8514 -0.0000 0.5245
vn -0.9091 -0.0000 -0.4165
vn 0.5859 -0.0000 0.8104
vn -0.6805 -0.0000 -0.7327
vn 0.2312 -0.0000 0.9729
vn -0.3483 -0.0000 -0.9374
vn -0.1588 -0.0000 0.9873
vn 0.0369 -0.0000 -0.9993
vn -0.5245 -0.0000 0.8514
vn 0.4165 -0.0000 -0.9091
vn -0.8104 -0.0000 0.5859
vn 0.7327 -0.0000 -0.6805
vn -0.9729 -0.0000 0.2312
vn 0.9374 -0.0000 -0.3483
vn -1.0000 0.0070 -0.0000
vn -0.9999 0.0141 -0.0000
vn -0.0023 -1.0000 -0.0000
vn -0.0016 -1.0000 -0.0000
vn -0.0047 -1.0000 -0.0000
vn -0.8117 0.5840 -0.0000
vn 0.0047 1.0000 -0.0000
vn 0.8416 0.5400 -0.0000
vn 1.0000 -0.0070 -0.0000
vn 0.9999 -0.0141 -0.0000
vn -0.0000 -0.0039 1.0000
vn 0.2393 -0.9709 -0.0038
vn -0.2393 -0.9709 -0.0038
vn -0.1205 -0.9927 -0.0039
vn 0.1205 -0.9927 -0.0039
vn -0.6631 -0.7485 -0.0029
vn -0.9350 -0.3546 -0.0014
vn -0.9927 0.1205 0.0005
vn -0.1205 0.9927 0.0039
vn -0.8717 0.4901 0.0019
vn 0.5574 -0.0645 -0.8277
vn -0.0000 0.0039 -1.0000
vn -0.5575 0.0645 0.8276
vn 0.8717 -0.4900 -0.0019
vn -0.0000 -0.0000 -0.0000
vn 0.1205 -0.9927 -0.0038
vn -0.8230 0.5680 0.0022
vn -0.1205 0.9927 0.0038
vn -0.8716 0.4901 0.0019
vn 0.1996 -0.3838 0.9016
vn -0.4647 0.8854 0.0034
vn -0.0000 1.0000 0.0039
vn -0.0000 -0.2883 0.9575
vn 0.4647 0.8854 0.0034
vn -0.8717 0.4900 0.0019
vn -0.1165 -0.2257 0.9672
vn 0.1205 0.9927 0.0038
vn 0.8230 0.5680 0.0022
vn 0.2280 0.1610 -0.9603
vn 0.1165 0.2257 -0.9672
vn 0.3980 0.0519 -0.9159
vn 0.9350 -0.3546 -0.0014
vn 0.6631 -0.7485 -0.0029
vn 0.9927 0.1205 0.0005
vn -0.2278 -0.1609 0.9603
vn -0.3979 -0.0519 0.9160
vn -0.1205 -0.9927 -0.0038
vn -0.0000 0.2883 -0.9575
vn -0.1997 0.3840 -0.9015
vn 0.2722 -0.9622 -0.0079
vn -0.0000 -0.0082 1.0000
vn -0.2722 -0.9622 -0.0079
vn -0.7130 -0.7011 -0.0057
vn -0.0000 0.0082 -1.0000
vn -0.9495 -0.3137 -0.0026
vn -0.9945 0.1052 0.0009
vn -0.8570 0.5153 0.0042
vn -0.5160 0.8565 0.0070
vn -0.0000 1.0000 0.0082
vn 0.5160 0.8565 0.0070
vn 0.8570 0.5153 0.0042
vn 0.9945 0.1052 0.0009
vn 0.9495 -0.3137 -0.0026
vn 0.7130 -0.7011 -0.0057
vn 0.1024 -0.9435 0.3151
vn -0.2680 -0.9435 0.1947
vn -0.2680 -0.9435 -0.1947
vn 0.1024 -0.9435 -0.3151
vn 0.3313 -0.9435 -0.0000
vn 0.4713 -0.6617 -0.5831
vn 0.7002 -0.6617 -0.2680
vn 0.1876 -0.7947 -0.5773
vn 0.6071 -0.7947 -0.0000
vn 0.7002 -0.6617 0.2680
vn 0.9050 -0.3304 0.2680
vn 0.9050 -0.3304 -0.2680
vn 0.9822 -0.1876 -0.0000
vn 0.8897 0.3304 -0.3151
vn 0.9921 0.1256 -0.0000
vn 0.8026 -0.1256 -0.5831
vn 0.7947 0.1876 -0.5773
vn 0.5346 -0.3304 -0.7779
vn 0.5746 0.3304 -0.7488
vn 0.3066 0.1256 -0.9435
vn 0.3035 -0.1876 -0.9342
vn -0.0247 0.3304 -0.9435
vn -0.3066 -0.1256 -0.9435
vn 0.0247 -0.3304 -0.9435
vn -0.3035 0.1876 -0.9342
vn -0.5746 -0.3304 -0.7488
vn -0.5346 0.3304 -0.7779
vn -0.8026 0.1256 -0.5831
vn -0.7947 -0.1876 -0.5773
vn -0.4089 -0.6617 -0.6284
vn -0.8897 -0.3304 -0.3151
vn -0.7240 -0.6617 -0.1947
vn -0.4911 -0.7947 -0.3568
vn -0.8897 -0.3304 0.3151
vn -0.7240 -0.6617 0.1947
vn -0.9921 -0.1256 -0.0000
vn -0.9050 0.3304 0.2680
vn -0.8026 0.1256 0.5831
vn -0.9822 0.1876 -0.0000
vn -0.7947 -0.1876 0.5773
vn -0.5346 0.3304 0.7779
vn -0.3066 -0.1256 0.9435
vn -0.5746 -0.3304 0.7488
vn -0.3035 0.1876 0.9342
vn 0.0247 -0.3304 0.9435
vn -0.0247 0.3304 0.9435
vn 0.3066 0.1256 0.9435
vn 0.3035 -0.1876 0.9342
vn -0.0385 -0.6617 0.7488
vn 0.5346 -0.3304 0.7779
vn 0.4713 -0.6617 0.5831
vn 0.1876 -0.7947 0.5773
vn 0.5746 0.3304 0.7488
vn 0.8026 -0.1256 0.5831
vn 0.7947 0.1876 0.5773
vn 0.4089 0.6617 0.6284
vn 0.7240 0.6617 0.1947
vn 0.8897 0.3304 0.3151
vn 0.4911 0.7947 0.3568
vn 0.2680 0.9435 -0.1947
vn 0.2680 0.9435 0.1947
vn 0.7240 0.6617 -0.1947
vn 0.4911 0.7947 -0.3568
vn 0.0385 0.6617 -0.7488
vn 0.4089 0.6617 -0.6284
vn -0.1024 0.9435 -0.3151
vn -0.1876 0.7947 -0.5773
vn -0.7002 0.6617 -0.2680
vn -0.4713 0.6617 -0.5831
vn -0.3313 0.9435 -0.0000
vn -0.6071 0.7947 -0.0000
vn -0.4713 0.6617 0.5831
vn -0.7002 0.6617 0.2680
vn -0.1024 0.9435 0.3151
vn -0.1876 0.7947 0.5773
vn 0.0385 0.6617 0.7488
vn -0.4089 -0.6617 0.6284
vn -0.9050 0.3304 -0.2680
vn -0.4911 -0.7947 0.3568
vn -0.0385 -0.6617 -0.7488
vt 0.339411 0.553954
vt 0.313013 0.553954
vt 0.313013 0.485608
vt 0.339411 0.485608
vt 0.186586 0.644813
vt 0.234914 0.596485
vt 0.303261 0.596485
vt 0.351589 0.644813
vt 0.351589 0.713160
vt 0.303261 0.761488
vt 0.234914 0.761488
vt 0.186586 0.713160
vt 0.339411 0.075528
vt 0.313013 0.075528
vt 0.313013 0.007182
vt 0.339411 0.007182
vt 0.339411 0.143875
vt 0.313013 0.143875
vt 0.868144 0.457004
vt 0.868144 0.525350
vt 0.819815 0.573678
vt 0.751469 0.573678
vt 0.703140 0.525350
vt 0.703140 0.457004
vt 0.751469 0.408675
vt 0.819815 0.408675
vt 0.339411 0.212221
vt 0.313013 0.212221
vt 0.339411 0.280568
vt 0.313013 0.280568
vt 0.339411 0.348915
vt 0.313013 0.348915
vt 0.339411 0.417261
vt 0.313013 0.417261
vt 0.558257 0.482397
vt 0.542287 0.526725
vt 0.508664 0.502332
vt 0.527537 0.477945
vt 0.575529 0.489056
vt 0.555588 0.535861
vt 0.503267 0.589525
vt 0.466905 0.545809
vt 0.512818 0.613035
vt 0.496935 0.476492
vt 0.479126 0.490437
vt 0.480537 0.481973
vt 0.505687 0.473058
vt 0.454889 0.490391
vt 0.463415 0.467272
vt 0.428436 0.538479
vt 0.423030 0.494289
vt 0.487978 0.452181
vt 0.441363 0.571888
vt 0.424264 0.551934
vt 0.499857 0.447412
vt 0.525448 0.442557
vt 0.555404 0.436183
vt 0.440384 0.595415
vt 0.425861 0.610204
vt 0.579714 0.408675
vt 0.688777 0.470033
vt 0.612214 0.500663
vt 0.509987 0.699993
vt 0.423030 0.697161
vt 0.597950 0.531203
vt 0.672140 0.626643
vt 0.392594 0.960200
vt 0.404872 0.960200
vt 0.404872 0.988744
vt 0.392594 0.988744
vt 0.931456 0.408675
vt 0.935792 0.444716
vt 0.916331 0.444716
vt 0.919177 0.408675
vt 0.365953 0.960200
vt 0.378231 0.960200
vt 0.378231 0.988744
vt 0.365953 0.988744
vt 0.934824 0.693220
vt 0.939063 0.729124
vt 0.919603 0.729124
vt 0.922546 0.693220
vt 0.920668 0.460268
vt 0.932946 0.460268
vt 0.935792 0.496309
vt 0.916331 0.496309
vt 0.934824 0.677770
vt 0.922545 0.677770
vt 0.919603 0.641867
vt 0.939063 0.641867
vt 0.321883 0.934132
vt 0.341343 0.934132
vt 0.341343 0.962676
vt 0.321883 0.962676
vt 0.824074 0.846231
vt 0.804613 0.846231
vt 0.807033 0.806770
vt 0.821654 0.806770
vt 0.643295 0.714356
vt 0.643295 0.753892
vt 0.614751 0.753892
vt 0.614751 0.714356
vt 0.950155 0.408675
vt 0.964776 0.408675
vt 0.964776 0.437219
vt 0.950155 0.437219
vt 0.161939 0.811581
vt 0.159519 0.851042
vt 0.144899 0.851042
vt 0.142478 0.811581
vt 0.686202 0.714356
vt 0.686202 0.753891
vt 0.657658 0.753891
vt 0.657658 0.714356
vt 0.074830 0.916909
vt 0.094291 0.916909
vt 0.094291 0.945453
vt 0.074830 0.945453
vt 0.935418 0.112257
vt 0.939536 0.148044
vt 0.920075 0.148044
vt 0.923140 0.112257
vt 0.828980 0.330575
vt 0.826560 0.370037
vt 0.811939 0.370037
vt 0.809519 0.330575
vt 0.887746 0.910134
vt 0.891722 0.945832
vt 0.872261 0.945832
vt 0.875468 0.910134
vt 0.382319 0.524424
vt 0.382319 0.563960
vt 0.353775 0.563960
vt 0.353775 0.524424
vt 0.790250 0.846231
vt 0.770789 0.846231
vt 0.773209 0.806770
vt 0.787829 0.806770
vt 0.910061 0.907770
vt 0.922339 0.907770
vt 0.925546 0.943468
vt 0.906085 0.943468
vt 0.935418 0.201905
vt 0.923140 0.201905
vt 0.920075 0.166117
vt 0.939536 0.166117
vt 0.950155 0.451582
vt 0.964776 0.451582
vt 0.964776 0.480126
vt 0.950155 0.480126
vt 0.817499 0.752871
vt 0.817499 0.792406
vt 0.788955 0.792406
vt 0.788955 0.752871
vt 0.953899 0.050089
vt 0.966177 0.050089
vt 0.966177 0.078633
vt 0.953899 0.078633
vt 0.968893 0.935491
vt 0.981171 0.935491
vt 0.981171 0.964035
vt 0.968893 0.964035
vt 0.973734 0.806770
vt 0.986012 0.806770
vt 0.986012 0.835314
vt 0.973734 0.835314
vt 0.774608 0.912248
vt 0.786886 0.912248
vt 0.790250 0.947886
vt 0.770789 0.947886
vt 0.752606 0.912248
vt 0.756425 0.947886
vt 0.736965 0.947886
vt 0.740328 0.912248
vt 0.979139 0.451582
vt 0.991417 0.451582
vt 0.991417 0.480126
vt 0.979139 0.480126
vt 0.158286 0.916881
vt 0.161939 0.952490
vt 0.142478 0.952490
vt 0.146008 0.916881
vt 0.838437 0.846231
vt 0.840857 0.806770
vt 0.855478 0.806770
vt 0.857898 0.846231
vt 0.288058 0.934174
vt 0.307519 0.934174
vt 0.307519 0.962718
vt 0.288058 0.962718
vt 0.686202 0.768255
vt 0.686202 0.807790
vt 0.657658 0.807790
vt 0.657658 0.768255
vt 0.852426 0.222703
vt 0.871887 0.222703
vt 0.869467 0.262165
vt 0.854847 0.262165
vt 0.044659 0.916909
vt 0.056937 0.916909
vt 0.060467 0.952518
vt 0.041006 0.952518
vt 0.953427 0.641867
vt 0.968047 0.641867
vt 0.968047 0.670410
vt 0.953427 0.670410
vt 0.600387 0.714356
vt 0.600387 0.753892
vt 0.571844 0.753892
vt 0.571844 0.714356
vt 0.605668 0.927034
vt 0.625129 0.927034
vt 0.625129 0.955577
vt 0.605668 0.955577
vt 0.112140 0.916881
vt 0.124418 0.916881
vt 0.128115 0.952495
vt 0.108654 0.952495
vt 0.979139 0.494490
vt 0.991417 0.494490
vt 0.991417 0.523033
vt 0.979139 0.523033
vt 0.953899 0.135903
vt 0.966177 0.135903
vt 0.966177 0.164447
vt 0.953899 0.164447
vt 0.807935 0.912235
vt 0.820213 0.912235
vt 0.824074 0.947886
vt 0.804613 0.947886
vt 0.854576 0.912235
vt 0.857898 0.947886
vt 0.838437 0.947886
vt 0.842298 0.912235
vt 0.719116 0.912272
vt 0.722601 0.947886
vt 0.703140 0.947886
vt 0.706838 0.912272
vt 0.625129 0.822154
vt 0.622708 0.861615
vt 0.608088 0.861615
vt 0.605668 0.822154
vt 0.795156 0.330575
vt 0.795156 0.370111
vt 0.766612 0.370111
vt 0.766612 0.330575
vt 0.673316 0.865061
vt 0.687936 0.865061
vt 0.687936 0.893605
vt 0.673316 0.893605
vt 0.851954 0.588042
vt 0.871415 0.588042
vt 0.868995 0.627503
vt 0.854374 0.627503
vt 0.766612 0.100616
vt 0.766612 0.061081
vt 0.795156 0.061081
vt 0.795156 0.100616
vt 0.639492 0.926912
vt 0.658953 0.926912
vt 0.658953 0.955455
vt 0.639492 0.955455
vt 0.923243 0.216268
vt 0.935521 0.216268
vt 0.939536 0.251987
vt 0.920075 0.251987
vt 0.851954 0.641867
vt 0.871415 0.641867
vt 0.868995 0.681328
vt 0.854374 0.681328
vt 0.923106 0.058432
vt 0.935384 0.058432
vt 0.939536 0.094248
vt 0.920075 0.094248
vt 0.795156 0.114980
vt 0.795156 0.154515
vt 0.766612 0.154515
vt 0.766612 0.114980
vt 0.239871 0.829750
vt 0.237451 0.869212
vt 0.222830 0.869212
vt 0.220410 0.829750
vt 0.923106 0.042997
vt 0.920075 0.007182
vt 0.939536 0.007182
vt 0.935384 0.042997
vt 0.936368 0.266350
vt 0.939536 0.302068
vt 0.920075 0.302068
vt 0.924089 0.266350
vt 0.673316 0.907968
vt 0.687936 0.907968
vt 0.687936 0.936512
vt 0.673316 0.936512
vt 0.215130 0.775851
vt 0.215130 0.815387
vt 0.186586 0.815387
vt 0.186586 0.775851
vt 0.953899 0.273525
vt 0.966177 0.273525
vt 0.966177 0.302068
vt 0.953899 0.302068
vt 0.703140 0.962249
vt 0.715419 0.962249
vt 0.715419 0.990793
vt 0.703140 0.990793
vt 0.843530 0.962249
vt 0.855808 0.962249
vt 0.855808 0.990793
vt 0.843530 0.990793
vt 0.936148 0.588042
vt 0.939063 0.623979
vt 0.919603 0.623979
vt 0.923870 0.588042
vt 0.932877 0.546609
vt 0.920599 0.546609
vt 0.916331 0.510672
vt 0.935792 0.510672
vt 0.736965 0.962249
vt 0.749243 0.962249
vt 0.749243 0.990793
vt 0.736965 0.990793
vt 0.913817 0.330575
vt 0.926095 0.330575
vt 0.930453 0.366655
vt 0.910992 0.366655
vt 0.871415 0.735153
vt 0.851954 0.735153
vt 0.854374 0.695691
vt 0.868995 0.695691
vt 0.456854 0.930074
vt 0.476315 0.930074
vt 0.476315 0.958618
vt 0.456854 0.958618
vt 0.394496 0.758181
vt 0.394496 0.797717
vt 0.365953 0.797717
vt 0.365953 0.758181
vt 0.254234 0.869211
vt 0.256654 0.829750
vt 0.271275 0.829750
vt 0.273695 0.869211
vt 0.908911 0.893407
vt 0.906086 0.857327
vt 0.925546 0.857327
vt 0.921189 0.893407
vt 0.495519 0.930074
vt 0.510139 0.930074
vt 0.510139 0.958618
vt 0.495519 0.958618
vt 0.838063 0.007182
vt 0.838063 0.046717
vt 0.809519 0.046717
vt 0.809519 0.007182
vt 0.524502 0.929950
vt 0.543963 0.929950
vt 0.543963 0.958494
vt 0.524502 0.958494
vt 0.256999 0.919811
vt 0.254234 0.883575
vt 0.273695 0.883575
vt 0.269277 0.919811
vt 0.979139 0.537397
vt 0.991417 0.537397
vt 0.991417 0.565941
vt 0.979139 0.565941
vt 0.973734 0.849677
vt 0.986012 0.849677
vt 0.986012 0.878221
vt 0.973734 0.878221
vt 0.527239 0.915587
vt 0.524502 0.879185
vt 0.543963 0.879185
vt 0.539517 0.915587
vt 0.916235 0.789273
vt 0.903957 0.789273
vt 0.899510 0.752871
vt 0.918971 0.752871
vt 0.290824 0.883575
vt 0.303102 0.883575
vt 0.307519 0.919811
vt 0.288058 0.919811
vt 0.186586 0.829750
vt 0.206047 0.829750
vt 0.203626 0.869212
vt 0.189006 0.869212
vt 0.795156 0.168878
vt 0.795156 0.208414
vt 0.766612 0.208414
vt 0.766612 0.168878
vt 0.950155 0.494490
vt 0.964776 0.494490
vt 0.964776 0.523033
vt 0.950155 0.523033
vt 0.871887 0.168878
vt 0.869467 0.208340
vt 0.854847 0.208340
vt 0.852426 0.168878
vt 0.343851 0.775851
vt 0.343851 0.815387
vt 0.315308 0.815387
vt 0.315308 0.775851
vt 0.365953 0.917293
vt 0.385413 0.917293
vt 0.385413 0.945837
vt 0.365953 0.945837
vt 0.642233 0.912548
vt 0.639492 0.875979
vt 0.658953 0.875979
vt 0.654511 0.912548
vt 0.885147 0.752871
vt 0.882727 0.792332
vt 0.868107 0.792332
vt 0.865686 0.752871
vt 0.902934 0.276676
vt 0.905711 0.313410
vt 0.886251 0.313410
vt 0.890655 0.276676
vt 0.838063 0.061081
vt 0.838063 0.100616
vt 0.809519 0.100616
vt 0.809519 0.061081
vt 0.307519 0.869212
vt 0.288058 0.869212
vt 0.290479 0.829750
vt 0.305099 0.829750
vt 0.889028 0.217329
vt 0.901307 0.217329
vt 0.905711 0.254062
vt 0.886251 0.254062
vt 0.439750 0.915755
vt 0.427472 0.915755
vt 0.423030 0.879185
vt 0.442491 0.879185
vt 0.673316 0.822154
vt 0.687936 0.822154
vt 0.687936 0.850698
vt 0.673316 0.850698
vt 0.838063 0.114980
vt 0.838063 0.154515
vt 0.809519 0.154515
vt 0.809519 0.114980
vt 0.953899 0.092996
vt 0.966177 0.092996
vt 0.966177 0.121540
vt 0.953899 0.121540
vt 0.953899 0.178810
vt 0.966177 0.178810
vt 0.966177 0.207354
vt 0.953899 0.207354
vt 0.763606 0.962249
vt 0.775884 0.962249
vt 0.775884 0.990793
vt 0.763606 0.990793
vt 0.902865 0.097893
vt 0.890587 0.097893
vt 0.886251 0.061006
vt 0.905711 0.061006
vt 0.889097 0.044069
vt 0.886251 0.007182
vt 0.905711 0.007182
vt 0.901375 0.044069
vt 0.980540 0.050089
vt 0.992818 0.050089
vt 0.992818 0.078633
vt 0.980540 0.078633
vt 0.368896 0.902930
vt 0.365953 0.865905
vt 0.385413 0.865905
vt 0.381174 0.902930
vt 0.852426 0.046643
vt 0.854847 0.007182
vt 0.869467 0.007182
vt 0.871887 0.046643
vt 0.007182 0.916978
vt 0.026643 0.916978
vt 0.026643 0.945522
vt 0.007182 0.945522
vt 0.258037 0.775851
vt 0.258037 0.815387
vt 0.229493 0.815387
vt 0.229493 0.775851
vt 0.871887 0.316138
vt 0.852426 0.316138
vt 0.854847 0.276676
vt 0.869467 0.276676
vt 0.902296 0.625066
vt 0.890018 0.625066
vt 0.885778 0.588042
vt 0.905239 0.588042
vt 0.950155 0.537397
vt 0.964776 0.537397
vt 0.964776 0.565941
vt 0.950155 0.565941
vt 0.838063 0.168878
vt 0.838063 0.208414
vt 0.809519 0.208414
vt 0.809519 0.168878
vt 0.933335 0.752871
vt 0.952796 0.752871
vt 0.952796 0.781415
vt 0.933335 0.781415
vt 0.057402 0.902546
vt 0.045124 0.902546
vt 0.041006 0.865406
vt 0.060467 0.865406
vt 0.979139 0.408675
vt 0.991417 0.408675
vt 0.991417 0.437219
vt 0.979139 0.437219
vt 0.973734 0.892584
vt 0.986012 0.892584
vt 0.986012 0.921128
vt 0.973734 0.921128
vt 0.885714 0.460268
vt 0.897992 0.460268
vt 0.901968 0.497498
vt 0.882507 0.497498
vt 0.885714 0.445905
vt 0.882507 0.408675
vt 0.901968 0.408675
vt 0.897992 0.445905
vt 0.091226 0.865406
vt 0.094291 0.902546
vt 0.074830 0.902546
vt 0.078948 0.865406
vt 0.831862 0.792332
vt 0.834282 0.752871
vt 0.848903 0.752871
vt 0.851323 0.792332
vt 0.809519 0.262313
vt 0.809519 0.222777
vt 0.838063 0.222777
vt 0.838063 0.262313
vt 0.953427 0.588042
vt 0.968047 0.588042
vt 0.968047 0.616586
vt 0.953427 0.616586
vt 0.871887 0.154367
vt 0.852426 0.154367
vt 0.854847 0.114905
vt 0.869467 0.114905
vt 0.838063 0.276676
vt 0.838063 0.316212
vt 0.809519 0.316212
vt 0.809519 0.276676
vt 0.254234 0.934174
vt 0.273695 0.934174
vt 0.273695 0.962718
vt 0.254234 0.962718
vt 0.753062 0.897885
vt 0.740784 0.897885
vt 0.736965 0.860595
vt 0.756425 0.860595
vt 0.571843 0.822154
vt 0.591304 0.822154
vt 0.588884 0.861615
vt 0.574264 0.861615
vt 0.875791 0.858452
vt 0.888069 0.858452
vt 0.891722 0.895770
vt 0.872261 0.895770
vt 0.394496 0.704283
vt 0.394496 0.743818
vt 0.365953 0.743818
vt 0.365953 0.704283
vt 0.321883 0.869212
vt 0.324303 0.829750
vt 0.338923 0.829750
vt 0.341343 0.869212
vt 0.875791 0.844088
vt 0.872261 0.806770
vt 0.891722 0.806770
vt 0.888069 0.844088
vt 0.774152 0.897885
vt 0.770789 0.860595
vt 0.790250 0.860595
vt 0.786431 0.897885
vt 0.953427 0.692133
vt 0.968047 0.692133
vt 0.968047 0.720677
vt 0.953427 0.720677
vt 0.795156 0.222777
vt 0.795156 0.262313
vt 0.766612 0.262313
vt 0.766612 0.222777
vt 0.973800 0.330575
vt 0.986078 0.330575
vt 0.986078 0.359119
vt 0.973800 0.359119
vt 0.980540 0.135903
vt 0.992818 0.135903
vt 0.992818 0.164447
vt 0.980540 0.164447
vt 0.790247 0.962249
vt 0.802526 0.962249
vt 0.802526 0.990793
vt 0.790247 0.990793
vt 0.718904 0.860595
vt 0.722601 0.897909
vt 0.703140 0.897909
vt 0.706626 0.860595
vt 0.892931 0.367890
vt 0.880653 0.367890
vt 0.877168 0.330575
vt 0.896628 0.330575
vt 0.816889 0.962249
vt 0.829167 0.962249
vt 0.829167 0.990793
vt 0.816889 0.990793
vt 0.808474 0.860595
vt 0.820752 0.860595
vt 0.824074 0.897872
vt 0.804613 0.897872
vt 0.041006 0.811581
vt 0.060467 0.811581
vt 0.058046 0.851042
vt 0.043426 0.851042
vt 0.939910 0.806770
vt 0.959371 0.806770
vt 0.959371 0.835314
vt 0.939910 0.835314
vt 0.703140 0.792406
vt 0.703140 0.752871
vt 0.731684 0.752871
vt 0.731684 0.792407
vt 0.074830 0.851042
vt 0.077250 0.811581
vt 0.091871 0.811581
vt 0.094291 0.851042
vt 0.854037 0.860595
vt 0.857898 0.897872
vt 0.838437 0.897872
vt 0.841759 0.860595
vt 0.220410 0.934296
vt 0.235030 0.934296
vt 0.235030 0.962840
vt 0.220410 0.962840
vt 0.300944 0.775851
vt 0.300944 0.815387
vt 0.272400 0.815387
vt 0.272400 0.775851
vt 0.939910 0.849677
vt 0.959371 0.849677
vt 0.959371 0.878221
vt 0.939910 0.878221
vt 0.022628 0.865406
vt 0.026642 0.902615
vt 0.007182 0.902615
vt 0.010350 0.865406
vt 0.673316 0.950875
vt 0.685594 0.950875
vt 0.685594 0.979419
vt 0.673316 0.979419
vt 0.967159 0.752871
vt 0.979437 0.752871
vt 0.979437 0.781415
vt 0.967159 0.781415
vt 0.146630 0.902518
vt 0.142478 0.865406
vt 0.161939 0.865406
vt 0.158908 0.902518
vt 0.123963 0.902518
vt 0.111685 0.902518
vt 0.108654 0.865406
vt 0.128115 0.865406
vt 0.897953 0.549071
vt 0.885675 0.549071
vt 0.882507 0.511861
vt 0.901968 0.511861
vt 0.722601 0.846231
vt 0.703140 0.846231
vt 0.705561 0.806770
vt 0.720181 0.806770
vt 0.394496 0.596485
vt 0.394496 0.636020
vt 0.365953 0.636020
vt 0.365953 0.596485
vt 0.944816 0.330575
vt 0.959436 0.330575
vt 0.959436 0.359119
vt 0.944816 0.359119
vt 0.108654 0.851042
vt 0.111074 0.811581
vt 0.125695 0.811581
vt 0.128115 0.851042
vt 0.795156 0.276676
vt 0.795156 0.316212
vt 0.766612 0.316212
vt 0.766612 0.276676
vt 0.423030 0.930118
vt 0.442491 0.930118
vt 0.442491 0.958662
vt 0.423030 0.958662
vt 0.890046 0.730211
vt 0.885778 0.693220
vt 0.905239 0.693220
vt 0.902324 0.730211
vt 0.843343 0.370037
vt 0.845764 0.330575
vt 0.860384 0.330575
vt 0.862804 0.370037
vt 0.890608 0.151754
vt 0.886251 0.114905
vt 0.905711 0.114905
vt 0.902886 0.151754
vt 0.365953 0.689919
vt 0.365953 0.650383
vt 0.394496 0.650383
vt 0.394496 0.689919
vt 0.871887 0.100542
vt 0.852426 0.100542
vt 0.854847 0.061081
vt 0.869467 0.061081
vt 0.890608 0.166117
vt 0.902886 0.166117
vt 0.905711 0.202965
vt 0.886251 0.202965
vt 0.890046 0.641867
vt 0.902324 0.641867
vt 0.905239 0.678857
vt 0.885778 0.678857
vt 0.939910 0.935491
vt 0.954530 0.935491
vt 0.954530 0.964035
vt 0.939910 0.964035
vt 0.600387 0.768255
vt 0.600387 0.807791
vt 0.571844 0.807791
vt 0.571844 0.768255
vt 0.906086 0.957831
vt 0.918364 0.957831
vt 0.918364 0.986375
vt 0.906086 0.986375
vt 0.953899 0.221718
vt 0.966177 0.221718
vt 0.966177 0.250262
vt 0.953899 0.250262
vt 0.074830 0.959816
vt 0.087108 0.959816
vt 0.087108 0.988360
vt 0.074830 0.988360
vt 0.576261 0.875979
vt 0.588539 0.875979
vt 0.591304 0.912670
vt 0.571843 0.912670
vt 0.610085 0.912670
vt 0.605668 0.875979
vt 0.625129 0.875979
vt 0.622363 0.912670
vt 0.872261 0.960195
vt 0.884539 0.960195
vt 0.884539 0.988739
vt 0.872261 0.988739
vt 0.505693 0.879185
vt 0.510139 0.915711
vt 0.490678 0.915711
vt 0.493415 0.879185
vt 0.736965 0.846231
vt 0.739385 0.806770
vt 0.754005 0.806770
vt 0.756425 0.846231
vt 0.939910 0.892584
vt 0.959371 0.892584
vt 0.959371 0.921128
vt 0.939910 0.921128
vt 0.643295 0.768255
vt 0.643295 0.807791
vt 0.614751 0.807791
vt 0.614751 0.768255
vt 0.007182 0.811581
vt 0.026642 0.811581
vt 0.024222 0.851042
vt 0.009602 0.851042
vt 0.461300 0.879185
vt 0.473578 0.879185
vt 0.476315 0.915711
vt 0.456854 0.915711
vt 0.953899 0.007182
vt 0.968519 0.007182
vt 0.968519 0.035726
vt 0.953899 0.035726
vt 0.774592 0.752871
vt 0.774592 0.792406
vt 0.746048 0.792406
vt 0.746048 0.752871
vt 0.571844 0.927034
vt 0.591304 0.927034
vt 0.591304 0.955577
vt 0.571844 0.955577
vt 0.201605 0.919933
vt 0.189327 0.919933
vt 0.186586 0.883575
vt 0.206047 0.883575
vt 0.007182 0.959885
vt 0.019460 0.959885
vt 0.019460 0.988429
vt 0.007182 0.988429
vt 0.980540 0.092996
vt 0.992818 0.092996
vt 0.992818 0.121540
vt 0.980540 0.121540
vt 0.336939 0.919769
vt 0.324660 0.919769
vt 0.321883 0.883575
vt 0.341343 0.883575
vt 0.921141 0.806770
vt 0.925546 0.842964
vt 0.906085 0.842964
vt 0.908863 0.806770
vt 0.235429 0.883575
vt 0.239871 0.919933
vt 0.220410 0.919933
vt 0.223151 0.883575
vt 0.385413 0.812080
vt 0.382993 0.851542
vt 0.368373 0.851542
vt 0.365953 0.812080
vt 0.795156 0.007182
vt 0.795156 0.046717
vt 0.766612 0.046717
vt 0.766612 0.007182
vt 0.186586 0.934296
vt 0.201206 0.934296
vt 0.201206 0.962840
vt 0.186586 0.962840
vt 0.658953 0.861615
vt 0.639492 0.861615
vt 0.641912 0.822154
vt 0.656532 0.822154
vt 0.353775 0.510061
vt 0.353775 0.470525
vt 0.382319 0.470525
vt 0.382319 0.510061
vt 0.703669 0.079365
vt 0.589847 0.186533
vt 0.570865 0.175331
vt 0.586191 0.007182
vt 0.162125 0.596485
vt 0.164149 0.664864
vt 0.094830 0.670750
vt 0.093746 0.598508
vt 0.549360 0.186106
vt 0.464456 0.063269
vt 0.536004 0.196883
vt 0.426488 0.101718
vt 0.166911 0.697908
vt 0.098203 0.706095
vt 0.057605 0.710835
vt 0.057948 0.673700
vt 0.058642 0.598163
vt 0.057069 0.733869
vt 0.057491 0.693758
vt 0.058114 0.623057
vt 0.047507 0.725436
vt 0.049725 0.693733
vt 0.049702 0.623458
vt 0.017209 0.695028
vt 0.018939 0.622782
vt 0.018746 0.727388
vt 0.021176 0.605445
vt 0.047815 0.608682
vt 0.010727 0.596485
vt 0.010350 0.622069
vt 0.752249 0.171812
vt 0.752249 0.317771
vt 0.597023 0.235613
vt 0.615478 0.210747
vt 0.008641 0.674368
vt 0.008367 0.695073
vt 0.601148 0.196946
vt 0.731809 0.120274
vt 0.007504 0.714801
vt 0.007182 0.741665
vt 0.074397 0.779260
vt 0.029304 0.797218
vt 0.634313 0.373717
vt 0.717183 0.371315
vt 0.686210 0.394312
vt 0.601748 0.393372
vt 0.588704 0.246802
vt 0.583868 0.266747
vt 0.583353 0.253812
vt 0.592207 0.241914
vt 0.576180 0.270794
vt 0.582563 0.250442
vt 0.589842 0.240165
vt 0.557958 0.267500
vt 0.567142 0.245967
vt 0.572054 0.244223
vt 0.579799 0.233245
vt 0.577220 0.231473
vt 0.607140 0.216891
vt 0.597174 0.208474
vt 0.594654 0.206464
vt 0.572673 0.237782
vt 0.582397 0.223831
vt 0.601887 0.201939
vt 0.611110 0.211532
vt 0.569717 0.212096
vt 0.609530 0.218556
vt 0.557637 0.224036
vt 0.537687 0.239728
vt 0.518760 0.207473
vt 0.552778 0.256306
vt 0.435611 0.316500
vt 0.423030 0.167693
vt 0.486580 0.364768
vt 0.172223 0.737474
vt 0.107962 0.747324
vt 0.079030 0.757199
vt 0.514591 0.379604
vt 0.023167 0.517529
vt 0.021796 0.515724
vt 0.021312 0.513790
vt 0.021759 0.511892
vt 0.023016 0.510436
vt 0.024832 0.509710
vt 0.027110 0.509726
vt 0.027533 0.511277
vt 0.027658 0.512723
vt 0.027419 0.514061
vt 0.026809 0.515250
vt 0.025861 0.516222
vt 0.024639 0.516964
vt 0.298650 0.007256
vt 0.298184 0.308939
vt 0.251656 0.307621
vt 0.250532 0.007182
vt 0.033753 0.525182
vt 0.032042 0.526948
vt 0.040349 0.531179
vt 0.038290 0.533431
vt 0.288113 0.452005
vt 0.244681 0.447310
vt 0.044029 0.534374
vt 0.042126 0.537001
vt 0.276070 0.519600
vt 0.235830 0.511335
vt 0.264276 0.582121
vt 0.252218 0.578427
vt 0.262544 0.520175
vt 0.047372 0.540427
vt 0.042715 0.536620
vt 0.047184 0.539455
vt 0.044555 0.534162
vt 0.225343 0.516598
vt 0.048020 0.536456
vt 0.046287 0.532073
vt 0.049006 0.534138
vt 0.045852 0.532011
vt 0.047942 0.530303
vt 0.050360 0.532361
vt 0.048033 0.529942
vt 0.042306 0.528876
vt 0.044268 0.526489
vt 0.046252 0.523867
vt 0.050663 0.527757
vt 0.050670 0.532280
vt 0.048257 0.529771
vt 0.050807 0.532272
vt 0.050555 0.527815
vt 0.048666 0.529746
vt 0.050860 0.532022
vt 0.050395 0.528253
vt 0.052569 0.530730
vt 0.053051 0.530731
vt 0.053199 0.530735
vt 0.049337 0.543804
vt 0.047916 0.537080
vt 0.048976 0.534458
vt 0.056447 0.530842
vt 0.060306 0.533025
vt 0.064461 0.538183
vt 0.062865 0.541623
vt 0.060301 0.544663
vt 0.056642 0.546212
vt 0.052646 0.545881
vt 0.053074 0.530581
vt 0.055985 0.530702
vt 0.050869 0.527719
vt 0.055524 0.530562
vt 0.053015 0.530151
vt 0.054925 0.530089
vt 0.051264 0.527745
vt 0.052962 0.526738
vt 0.053020 0.528762
vt 0.053007 0.529667
vt 0.053380 0.525637
vt 0.053194 0.526703
vt 0.053235 0.525430
vt 0.055294 0.530822
vt 0.053597 0.525157
vt 0.057048 0.520679
vt 0.056722 0.521065
vt 0.056583 0.521455
vt 0.053091 0.525367
vt 0.055030 0.530935
vt 0.056286 0.523140
vt 0.058488 0.530994
vt 0.056446 0.522749
vt 0.058669 0.531320
vt 0.056788 0.521798
vt 0.059152 0.532073
vt 0.062499 0.518493
vt 0.065346 0.532741
vt 0.061916 0.516773
vt 0.065333 0.534770
vt 0.061047 0.515349
vt 0.064951 0.536511
vt 0.060086 0.513930
vt 0.051070 0.512627
vt 0.049909 0.517046
vt 0.082802 0.447819
vt 0.092371 0.504422
vt 0.042600 0.454822
vt 0.062337 0.512674
vt 0.065291 0.539963
vt 0.092352 0.504633
vt 0.099854 0.508945
vt 0.073311 0.510505
vt 0.071492 0.512340
vt 0.064323 0.513484
vt 0.066629 0.539827
vt 0.072565 0.541365
vt 0.073661 0.543437
vt 0.098284 0.547012
vt 0.090523 0.551169
vt 0.127043 0.509719
vt 0.124499 0.548411
vt 0.120707 0.556127
vt 0.121223 0.556844
vt 0.090431 0.552013
vt 0.152506 0.554930
vt 0.151552 0.553859
vt 0.184749 0.570527
vt 0.157473 0.551750
vt 0.183558 0.560170
vt 0.160203 0.504916
vt 0.157340 0.506459
vt 0.164279 0.510605
vt 0.192333 0.513851
vt 0.197730 0.505619
vt 0.215742 0.569566
vt 0.202837 0.444305
vt 0.162095 0.443405
vt 0.205709 0.307095
vt 0.160125 0.307526
vt 0.122241 0.444186
vt 0.114646 0.309017
vt 0.124758 0.501825
vt 0.068961 0.311677
vt 0.022709 0.315520
vt 0.056517 0.008170
vt 0.007182 0.008930
vt 0.105427 0.007636
vt 0.040289 0.511249
vt 0.039791 0.513983
vt 0.039002 0.516580
vt 0.048180 0.520808
vt 0.037968 0.518994
vt 0.036730 0.521221
vt 0.035319 0.523277
vt 0.154005 0.007318
vt 0.202344 0.007182
vt 0.123936 0.501825
vt 0.152316 0.511374
vt 0.148313 0.549113
vt 0.223916 0.578401
vt 0.059779 0.532745
vt 0.059413 0.532403
vt 0.059406 0.531970
vt 0.065415 0.533213
vt 0.058529 0.531241
vt 0.408666 0.456162
vt 0.353775 0.456162
vt 0.353775 0.423749
vt 0.408666 0.423749
vt 0.748803 0.738508
vt 0.721195 0.721527
vt 0.704716 0.691455
vt 0.703140 0.655182
vt 0.716830 0.621017
vt 0.742649 0.596786
vt 0.774681 0.588042
vt 0.805590 0.596786
vt 0.828293 0.621017
vt 0.837591 0.655182
vt 0.831352 0.691455
vt 0.811007 0.721527
vt 0.781216 0.738508
vt 0.408666 0.039594
vt 0.353775 0.039594
vt 0.353775 0.007182
vt 0.408666 0.007182
vt 0.408666 0.073885
vt 0.353775 0.073885
vt 0.539426 0.847841
vt 0.511817 0.864822
vt 0.479405 0.864822
vt 0.449614 0.847841
vt 0.429268 0.817769
vt 0.423030 0.781496
vt 0.432327 0.747331
vt 0.455031 0.723100
vt 0.485939 0.714356
vt 0.517972 0.723100
vt 0.543790 0.747331
vt 0.557480 0.781496
vt 0.555905 0.817769
vt 0.408666 0.110193
vt 0.353775 0.110193
vt 0.408666 0.146998
vt 0.353775 0.146998
vt 0.408666 0.182406
vt 0.353775 0.182406
vt 0.408666 0.215611
vt 0.353775 0.215611
vt 0.408666 0.247733
vt 0.353775 0.247733
vt 0.408666 0.280937
vt 0.353775 0.280937
vt 0.408666 0.316345
vt 0.353775 0.316345
vt 0.408666 0.353151
vt 0.353775 0.353151
vt 0.408666 0.389458
vt 0.353775 0.389458
vt 0.146582 0.247725
vt 0.103568 0.247725
vt 0.103568 0.217910
vt 0.146582 0.217910
vt 0.597944 0.532926
vt 0.597944 0.562741
vt 0.576861 0.583823
vt 0.547047 0.583823
vt 0.525964 0.562741
vt 0.525964 0.532926
vt 0.547047 0.511844
vt 0.576862 0.511844
vt 0.146582 0.039021
vt 0.103568 0.039021
vt 0.103568 0.009206
vt 0.146582 0.009206
vt 0.146582 0.068836
vt 0.103568 0.068836
vt 0.072126 0.545965
vt 0.093208 0.524883
vt 0.123023 0.524883
vt 0.144105 0.545965
vt 0.144105 0.575780
vt 0.123023 0.596862
vt 0.093208 0.596862
vt 0.072126 0.575780
vt 0.146582 0.098651
vt 0.103568 0.098651
vt 0.146582 0.128466
vt 0.103568 0.128466
vt 0.146582 0.158280
vt 0.103568 0.158281
vt 0.146582 0.188095
vt 0.103568 0.188095
vt 0.413130 0.010020
s 1
usemtl マテリアル
f 1/1/1 3/2/1 16/3/1 2/4/1
f 1/5/2 2/6/2 13/7/2 12/8/2 11/9/2 10/10/2 5/11/2 4/12/2
f 4/13/3 6/14/3 3/15/3 1/16/3
f 5/17/4 7/18/4 6/14/4 4/13/4
f 16/19/5 3/20/5 6/21/5 7/22/5 8/23/5 9/24/5 14/25/5 15/26/5
f 10/27/6 8/28/6 7/18/6 5/17/6
f 11/29/7 9/30/7 8/28/7 10/27/7
f 12/31/8 14/32/8 9/30/8 11/29/8
f 13/33/9 15/34/9 14/32/9 12/31/9
f 2/4/10 16/3/10 15/34/10 13/33/10
f 18/35/11 17/36/11 21/37/11 24/38/11
f 17/36/12 18/35/12 37/39/12 20/40/12
f 17/36/2 19/41/2 23/42/2 21/37/2
f 19/41/12 17/36/12 20/40/12 36/43/12
f 22/44/11 21/37/11 25/45/11 26/46/11
f 24/38/11 21/37/11 22/44/11 31/47/11
f 21/37/13 23/42/13 27/48/13 25/45/13
f 25/45/2 27/48/2 28/49/2 26/46/2
f 23/42/14 29/50/14 28/51/14 27/48/14
f 29/52/12 22/44/12 26/46/12 28/49/12
f 23/42/14 32/53/14 30/54/14 29/50/14
f 29/52/12 30/55/12 31/47/12 22/44/12
f 32/56/15 24/38/15 31/47/15 30/55/15
f 33/57/15 18/35/15 24/38/15 32/56/15
f 19/41/14 33/58/14 32/53/14 23/42/14
f 33/58/12 19/41/12 36/43/12 34/59/12
f 18/35/12 33/57/12 34/60/12 37/39/12
f 35/61/5 38/62/5 37/39/5 34/60/5
f 40/63/14 35/64/14 34/59/14 36/43/14
f 20/40/11 37/39/11 38/62/11 39/65/11
f 39/65/13 38/62/13 35/61/13 40/66/13
f 39/65/2 40/66/2 36/43/2 20/40/2
f 42/67/16 41/68/16 45/69/16 46/70/16
f 42/71/2 228/72/2 44/73/2 41/74/2
f 41/75/17 43/76/17 47/77/17 45/78/17
f 41/79/2 44/80/2 55/81/2 43/82/2
f 46/83/5 45/84/5 48/85/5 49/86/5
f 45/87/5 47/88/5 50/89/5 48/90/5
f 44/91/18 228/92/18 49/93/18 48/94/18
f 48/95/5 50/96/5 52/97/5 51/98/5
f 53/99/19 44/100/19 48/101/19 51/102/19
f 54/103/20 53/104/20 51/105/20 52/106/20
f 44/107/2 53/108/2 54/109/2 55/110/2
f 55/111/21 54/112/21 52/113/21 50/114/21
f 56/115/22 55/116/22 50/117/22 60/118/22
f 43/119/2 55/120/2 56/121/2 58/122/2
f 56/123/2 59/124/2 65/125/2 57/126/2
f 58/127/2 56/128/2 57/129/2 68/130/2
f 59/131/23 56/132/23 60/133/23 63/134/23
f 60/135/5 61/136/5 64/137/5 63/138/5
f 62/139/5 66/140/5 61/141/5 60/142/5
f 47/143/5 62/144/5 60/145/5 50/146/5
f 65/147/24 59/148/24 63/149/24 64/150/24
f 57/151/25 65/152/25 64/153/25 61/154/25
f 58/155/26 68/156/26 66/157/26 62/158/26
f 43/159/27 58/160/27 62/161/27 47/162/27
f 68/163/28 69/164/28 67/165/28 66/166/28
f 66/167/5 67/168/5 74/169/5 61/170/5
f 68/171/2 57/172/2 71/173/2 69/174/2
f 69/175/29 70/176/29 80/177/29 67/178/29
f 69/179/2 71/180/2 72/181/2 70/182/2
f 71/183/2 73/184/2 78/185/2 72/186/2
f 71/187/30 57/188/30 61/189/30 74/190/30
f 73/191/31 71/192/31 74/193/31 76/194/31
f 74/195/5 75/196/5 77/197/5 76/198/5
f 67/199/5 80/200/5 75/201/5 74/202/5
f 78/203/32 73/204/32 76/205/32 77/206/32
f 72/207/33 78/208/33 77/209/33 75/210/33
f 85/211/34 72/212/34 75/213/34 79/214/34
f 80/215/5 81/216/5 79/217/5 75/218/5
f 70/219/35 83/220/35 81/221/35 80/222/35
f 83/223/36 84/224/36 82/225/36 81/226/36
f 81/227/5 82/228/5 91/229/5 79/230/5
f 83/231/2 85/232/2 86/233/2 84/234/2
f 70/235/2 72/236/2 85/237/2 83/238/2
f 85/239/2 87/240/2 88/241/2 86/242/2
f 87/243/37 85/244/37 79/245/37 89/246/37
f 88/247/38 87/248/38 89/249/38 90/250/38
f 79/251/5 91/252/5 90/253/5 89/254/5
f 86/255/39 88/256/39 90/257/39 91/258/39
f 96/259/40 86/260/40 91/261/40 92/262/40
f 82/263/5 94/264/5 92/265/5 91/266/5
f 92/267/5 93/268/5 101/269/5 95/270/5
f 94/271/5 104/272/5 93/273/5 92/274/5
f 99/275/41 96/276/41 92/277/41 95/278/41
f 96/279/2 99/280/2 100/281/2 97/282/2
f 98/283/2 96/284/2 97/285/2 102/286/2
f 84/287/2 86/288/2 96/289/2 98/290/2
f 100/291/42 99/292/42 95/293/42 101/294/42
f 97/295/43 100/296/43 101/297/43 93/298/43
f 98/299/44 102/300/44 104/301/44 94/302/44
f 84/303/45 98/304/45 94/305/45 82/306/45
f 102/307/46 103/308/46 105/309/46 104/310/46
f 102/311/2 97/312/2 110/313/2 103/314/2
f 104/315/5 105/316/5 107/317/5 93/318/5
f 103/319/47 116/320/47 106/321/47 105/322/47
f 105/323/5 106/324/5 108/325/5 107/326/5
f 107/327/5 108/328/5 114/329/5 109/330/5
f 110/331/48 97/332/48 93/333/48 107/334/48
f 112/335/49 110/336/49 107/337/49 109/338/49
f 110/339/2 112/340/2 113/341/2 111/342/2
f 103/343/2 110/344/2 111/345/2 116/346/2
f 113/347/50 112/348/50 109/349/50 114/350/50
f 111/351/51 113/352/51 114/353/51 108/354/51
f 115/355/52 111/356/52 108/357/52 121/358/52
f 116/359/2 111/360/2 115/361/2 117/362/2
f 116/363/53 117/364/53 119/365/53 106/366/53
f 117/367/54 118/368/54 120/369/54 119/370/54
f 117/371/2 115/372/2 127/373/2 118/374/2
f 119/375/5 120/376/5 122/377/5 121/378/5
f 106/379/5 119/380/5 121/381/5 108/382/5
f 121/383/5 122/384/5 124/385/5 123/386/5
f 125/387/55 115/388/55 121/389/55 123/390/55
f 126/391/56 125/392/56 123/393/56 124/394/56
f 115/395/2 125/396/2 126/397/2 127/398/2
f 127/399/57 126/400/57 124/401/57 122/402/57
f 128/403/58 127/404/58 122/405/58 132/406/58
f 118/407/2 127/408/2 128/409/2 130/410/2
f 128/411/2 131/412/2 137/413/2 129/414/2
f 130/415/2 128/416/2 129/417/2 140/418/2
f 131/419/59 128/420/59 132/421/59 135/422/59
f 132/423/5 133/424/5 136/425/5 135/426/5
f 134/427/5 138/428/5 133/429/5 132/430/5
f 120/431/5 134/432/5 132/433/5 122/434/5
f 137/435/60 131/436/60 135/437/60 136/438/60
f 129/439/61 137/440/61 136/441/61 133/442/61
f 130/443/62 140/444/62 138/445/62 134/446/62
f 118/447/63 130/448/63 134/449/63 120/450/63
f 140/451/18 141/452/18 139/453/18 138/454/18
f 138/455/5 139/456/5 146/457/5 133/458/5
f 140/459/2 129/460/2 143/461/2 141/462/2
f 141/463/20 142/464/20 152/465/20 139/466/20
f 141/467/2 143/468/2 144/469/2 142/470/2
f 143/471/2 145/472/2 150/473/2 144/474/2
f 143/475/16 129/476/16 133/477/16 146/478/16
f 145/479/64 143/480/64 146/481/64 148/482/64
f 146/483/5 147/484/5 149/485/5 148/486/5
f 139/487/5 152/488/5 147/489/5 146/490/5
f 150/491/17 145/492/17 148/493/17 149/494/17
f 144/495/65 150/496/65 149/497/65 147/498/65
f 157/499/27 144/500/27 147/501/27 151/502/27
f 152/503/5 153/504/5 151/505/5 147/506/5
f 142/507/22 155/508/22 153/509/22 152/510/22
f 155/511/24 156/512/24 154/513/24 153/514/24
f 153/515/5 154/516/5 163/517/5 151/518/5
f 155/519/2 157/520/2 158/521/2 156/522/2
f 142/523/2 144/524/2 157/525/2 155/526/2
f 157/527/2 159/528/2 160/529/2 158/530/2
f 159/531/66 157/532/66 151/533/66 161/534/66
f 160/535/26 159/536/26 161/537/26 162/538/26
f 151/539/5 163/540/5 162/541/5 161/542/5
f 158/543/67 160/544/67 162/545/67 163/546/67
f 168/547/28 158/548/28 163/549/28 164/550/28
f 154/551/5 166/552/5 164/553/5 163/554/5
f 164/555/5 165/556/5 173/557/5 167/558/5
f 166/559/5 176/560/5 165/561/5 164/562/5
f 171/563/68 168/564/68 164/565/68 167/566/68
f 168/567/2 171/568/2 172/569/2 169/570/2
f 170/571/2 168/572/2 169/573/2 174/574/2
f 156/575/2 158/576/2 168/577/2 170/578/2
f 172/579/29 171/580/29 167/581/29 173/582/29
f 169/583/69 172/584/69 173/585/69 165/586/69
f 170/587/32 174/588/32 176/589/32 166/590/32
f 156/591/30 170/592/30 166/593/30 154/594/30
f 174/595/34 175/596/34 177/597/34 176/598/34
f 174/599/2 169/600/2 182/601/2 175/602/2
f 176/603/5 177/604/5 179/605/5 165/606/5
f 175/607/38 188/608/38 178/609/38 177/610/38
f 177/611/5 178/612/5 180/613/5 179/614/5
f 179/615/5 180/616/5 186/617/5 181/618/5
f 182/619/35 169/620/35 165/621/35 179/622/35
f 184/623/70 182/624/70 179/625/70 181/626/70
f 182/627/2 184/628/2 185/629/2 183/630/2
f 175/631/2 182/632/2 183/633/2 188/634/2
f 185/635/36 184/636/36 181/637/36 186/638/36
f 183/639/71 185/640/71 186/641/71 180/642/71
f 187/643/45 183/644/45 180/645/45 193/646/45
f 188/647/2 183/648/2 187/649/2 189/650/2
f 188/651/40 189/652/40 191/653/40 178/654/40
f 189/655/42 190/656/42 192/657/42 191/658/42
f 189/659/2 187/660/2 199/661/2 190/662/2
f 191/663/5 192/664/5 194/665/5 193/666/5
f 178/667/5 191/668/5 193/669/5 180/670/5
f 193/671/5 194/672/5 196/673/5 195/674/5
f 197/675/72 187/676/72 193/677/72 195/678/72
f 198/679/44 197/680/44 195/681/44 196/682/44
f 187/683/2 197/684/2 198/685/2 199/686/2
f 199/687/73 198/688/73 196/689/73 194/690/73
f 200/691/46 199/692/46 194/693/46 204/694/46
f 190/695/2 199/696/2 200/697/2 202/698/2
f 200/699/2 203/700/2 209/701/2 201/702/2
f 202/703/2 200/704/2 201/705/2 212/706/2
f 203/707/74 200/708/74 204/709/74 207/710/74
f 204/711/5 205/712/5 208/713/5 207/714/5
f 206/715/5 210/716/5 205/717/5 204/718/5
f 192/719/5 206/720/5 204/721/5 194/722/5
f 209/723/47 203/724/47 207/725/47 208/726/47
f 201/727/75 209/728/75 208/729/75 205/730/75
f 202/731/50 212/732/50 210/733/50 206/734/50
f 190/735/48 202/736/48 206/737/48 192/738/48
f 212/739/52 213/740/52 211/741/52 210/742/52
f 210/743/5 211/744/5 218/745/5 205/746/5
f 212/747/2 201/748/2 215/749/2 213/750/2
f 213/751/56 214/752/56 224/753/56 211/754/56
f 213/755/2 215/756/2 216/757/2 214/758/2
f 215/759/2 217/760/2 222/761/2 216/762/2
f 215/763/53 201/764/53 205/765/53 218/766/53
f 217/767/76 215/768/76 218/769/76 220/770/76
f 218/771/5 219/772/5 221/773/5 220/774/5
f 211/775/5 224/776/5 219/777/5 218/778/5
f 222/779/54 217/780/54 220/781/54 221/782/54
f 216/783/77 222/784/77 221/785/77 219/786/77
f 227/787/63 216/788/63 219/789/63 223/790/63
f 224/791/5 225/792/5 223/793/5 219/794/5
f 214/795/58 226/796/58 225/797/58 224/798/58
f 226/799/60 42/800/60 46/801/60 225/802/60
f 225/803/5 46/804/5 49/805/5 223/806/5
f 226/807/2 227/808/2 228/809/2 42/810/2
f 214/811/2 216/812/2 227/813/2 226/814/2
f 227/815/2 229/816/2 230/817/2 228/818/2
f 229/819/78 227/820/78 223/821/78 231/822/78
f 230/823/62 229/824/62 231/825/62 232/826/62
f 223/827/5 49/828/5 232/829/5 231/830/5
f 228/831/79 230/832/79 232/833/79 49/834/79
f 234/835/2 280/836/2 235/837/2 233/838/2
f 233/839/11 236/840/11 239/841/11 234/842/11
f 235/837/12 237/843/12 236/844/12 233/838/12
f 237/843/12 287/845/12 238/846/12 236/844/12
f 236/840/11 238/847/11 240/848/11 239/841/11
f 239/841/11 240/848/11 242/849/11 241/850/11
f 234/842/11 239/841/11 241/850/11 243/851/11
f 241/850/13 242/849/13 245/852/13 244/853/13
f 243/851/13 241/850/13 244/853/13 246/854/13
f 244/853/12 245/852/12 249/855/12 247/856/12
f 246/854/12 244/853/12 247/856/12 250/857/12
f 250/857/80 247/856/11 248/858/11 251/859/80
f 247/856/11 249/855/11 261/860/11 248/858/11
f 253/861/81 252/862/81 250/857/80 251/859/80
f 243/851/12 246/854/12 250/857/12 252/862/12
f 254/863/82 243/851/83 252/862/84 253/861/84
f 257/864/13 254/863/13 253/861/13 251/859/13
f 254/865/13 255/866/13 265/867/13 256/868/13
f 255/869/12 254/863/12 257/864/12 258/870/12
f 254/865/82 256/868/82 279/871/83 243/872/83
f 258/870/13 257/864/13 251/859/13 248/858/13
f 262/873/12 255/869/12 258/870/12 259/874/12
f 259/874/13 258/870/13 248/858/13 261/860/13
f 245/852/85 295/875/85 260/876/85 259/874/85
f 263/877/13 262/878/13 259/879/13 260/880/13
f 245/852/86 259/874/86 261/860/86 249/855/86
f 255/866/13 262/878/13 264/881/13 265/867/13
f 262/878/13 263/877/13 266/882/13 264/881/13
f 265/867/13 264/881/13 267/883/13 268/884/13
f 264/881/13 266/882/13 269/885/13 267/883/13
f 268/884/13 267/883/13 271/886/13 272/887/13
f 267/883/87 269/885/87 296/888/87 270/889/87
f 267/883/86 270/889/86 273/890/86 271/886/86
f 272/887/14 271/886/14 273/890/14 274/891/14
f 270/889/12 276/892/12 274/891/12 273/890/12
f 283/893/88 272/887/14 274/891/14 275/894/88
f 276/892/12 278/895/12 275/894/12 274/891/12
f 288/896/12 277/897/12 276/892/12 270/889/12
f 277/897/12 279/871/12 278/895/12 276/892/12
f 278/895/12 279/871/12 281/898/12 275/894/12
f 279/871/83 256/868/82 282/899/84 281/898/84
f 279/871/14 277/897/14 285/900/14 280/836/14
f 243/872/83 279/871/83 280/836/2 234/835/2
f 281/898/89 282/899/89 283/893/88 275/894/88
f 256/868/13 284/901/13 283/893/13 282/899/13
f 284/901/13 268/884/13 272/887/13 283/893/13
f 256/868/13 265/867/13 268/884/13 284/901/13
f 280/836/14 285/900/14 237/843/14 235/837/14
f 285/900/14 286/902/14 287/845/14 237/843/14
f 277/897/14 288/896/14 286/902/14 285/900/14
f 286/902/87 289/903/87 290/904/87 287/845/87
f 288/896/87 291/905/87 289/903/87 286/902/87
f 289/903/5 292/906/5 293/907/5 290/904/5
f 291/905/5 294/908/5 292/906/5 289/903/5
f 238/847/85 293/909/85 292/910/85 240/848/85
f 240/848/85 292/910/85 294/911/85 242/849/85
f 294/908/12 291/905/12 296/888/12 295/912/12
f 242/849/12 294/911/12 295/875/12 245/852/12
f 269/885/5 260/880/5 295/912/5 296/888/5
f 291/905/12 288/896/12 270/889/12 296/888/12
f 287/845/12 290/904/12 293/907/12 238/846/12
f 266/882/13 263/877/13 260/880/13 269/885/13
f 297/913/90 298/914/90 419/915/90 418/916/90 417/917/90 401/918/90 403/919/90 405/920/90 408/921/90 411/922/90 414/923/90 416/924/90 299/925/90
f 297/926/91 300/927/91 302/928/91 298/929/91
f 299/925/92 301/930/92 300/931/92 297/913/92
f 301/930/92 304/932/92 303/933/92 300/931/92
f 300/927/91 303/934/91 305/935/91 302/928/91
f 304/932/92 308/936/92 306/937/92 303/933/92
f 303/934/91 306/938/91 309/939/91 305/935/91
f 306/938/93 307/940/93 426/941/93 310/942/93
f 307/943/94 306/937/94 311/944/94 312/945/94
f 306/937/90 308/936/90 313/946/90 311/944/90
f 309/939/90 306/938/90 310/942/90 390/947/90
f 313/946/92 314/948/92 312/945/92 311/944/92
f 315/949/95 316/950/95 314/948/95 313/946/95
f 308/936/90 318/951/90 315/949/90 313/946/90
f 317/952/96 432/953/96 316/950/96 315/949/96
f 318/951/90 320/954/90 317/952/90 315/949/90
f 319/955/95 318/951/95 308/936/95 304/932/95
f 321/956/96 320/954/96 318/951/96 319/955/96
f 412/957/97 323/958/97 320/954/97 321/956/97
f 320/954/98 322/959/98 432/953/98 317/952/98
f 322/959/99 320/954/99 324/960/99 325/961/99
f 320/954/100 323/958/100 326/962/100 324/960/100
f 325/961/94 324/960/94 327/963/94 328/964/94
f 324/960/90 326/962/90 329/965/90 327/963/90
f 329/965/97 330/966/97 328/964/97 327/963/97
f 326/962/98 331/967/98 330/966/98 329/965/98
f 331/967/101 325/961/101 328/964/101 330/966/101
f 332/968/102 322/959/102 325/961/102 331/967/102
f 323/958/103 332/968/103 331/967/103 326/962/103
f 427/969/101 307/943/101 433/970/101 431/971/101 322/959/101 332/968/101 333/972/101 428/973/101 363/974/101 380/975/101 381/976/101 382/977/101 383/978/101
s 0
f 333/972/5 332/968/12 334/979/5 335/980/13
f 332/968/104 323/958/104 336/981/104 334/979/104
s 1
f 335/982/101 334/979/101 337/983/101 338/984/101
f 334/979/105 336/981/105 339/985/105 337/983/105
f 340/986/106 338/987/106 337/988/106 339/985/106
f 336/981/90 341/989/90 340/986/90 339/985/90
f 341/989/107 335/982/107 338/984/107 340/990/107
f 335/982/108 341/989/108 344/991/108 345/992/108
s 0
f 323/958/5 343/993/13 341/989/5 336/981/12
f 343/993/5 364/994/12 342/995/5 341/989/12
s 1
f 341/989/109 342/995/109 346/996/109 344/991/109
f 345/992/105 344/991/105 347/997/105 348/998/105
f 344/991/90 346/996/90 349/999/90 347/997/90
f 349/999/110 350/1000/110 348/998/110 347/997/110
f 350/1000/11 349/999/11 351/1001/11 352/1002/11
f 349/999/90 346/996/90 353/1003/90 351/1001/90
f 353/1003/107 354/1004/107 352/1002/107 351/1001/107
f 355/1005/111 356/1006/111 354/1004/111 353/1003/111
f 346/996/90 357/1007/90 355/1005/90 353/1003/90
f 357/1007/14 358/1008/14 356/1006/14 355/1005/14
f 359/1009/103 360/1010/103 358/1008/103 357/1007/103
f 342/995/112 359/1009/112 357/1007/112 346/996/112
s 0
f 361/1011/104 363/974/104 360/1010/104 359/1009/104
f 364/994/5 361/1011/13 359/1009/5 342/995/13
s 1
f 362/1012/111 361/1011/111 364/994/111 406/1013/111
f 399/1014/113 365/1015/113 361/1011/113 362/1016/113
f 363/974/114 361/1011/114 366/1017/114 368/1018/114
f 361/1011/115 365/1015/115 369/1019/115 366/1017/115
f 366/1017/90 369/1019/90 377/1020/90 367/1021/90
f 366/1017/90 367/1021/90 371/1022/90 370/1023/90
f 368/1018/11 366/1017/11 370/1023/11 372/1024/11
f 372/1024/116 370/1023/116 371/1022/116 373/1025/116
f 374/1026/101 368/1018/101 372/1024/101 373/1025/101
f 367/1021/14 374/1026/14 373/1025/14 371/1022/14
f 377/1020/113 375/1027/113 374/1026/113 367/1021/113
f 378/1028/101 368/1018/101 374/1026/101 375/1027/101
f 422/1029/117 376/1030/117 375/1027/117 377/1020/117
f 379/1031/101 378/1028/101 375/1027/101 376/1030/101
f 381/1032/118 380/1033/118 378/1028/118 379/1031/118
f 380/1033/119 363/974/119 368/1018/119 378/1028/119
f 382/1034/120 381/1032/120 379/1031/120 385/1035/120
f 383/1036/101 382/1034/101 386/1037/101 387/1038/101
f 384/1039/103 382/1034/103 385/1035/103 421/1040/103
f 382/1034/116 384/1039/116 388/1041/116 386/1037/116
f 389/1042/121 387/1038/121 386/1037/121 388/1041/121
f 384/1039/90 391/1043/90 389/1042/90 388/1041/90
f 390/947/122 425/1044/122 387/1038/122 389/1042/122
f 391/1043/90 309/939/90 390/947/90 389/1042/90
f 392/1045/121 391/1043/121 384/1039/121 394/1046/121
f 305/935/122 309/939/122 391/1043/122 392/1045/122
f 393/1047/121 392/1045/121 394/1046/121 395/1048/121
f 302/928/122 305/935/122 392/1045/122 393/1047/122
f 395/1048/123 394/1046/123 396/1049/123 397/1050/123
f 394/1046/123 384/1039/123 398/1051/123 396/1049/123
f 397/1050/117 396/1049/117 399/1014/117 400/1052/117
f 396/1049/117 398/1051/117 365/1015/117 399/1014/117
f 400/1052/113 399/1014/113 362/1016/113 402/1053/113
f 401/1054/113 400/1052/113 402/1053/113 403/1055/113
f 417/1056/117 397/1050/117 400/1052/117 401/1054/117
f 403/919/111 402/1057/111 404/1058/111 405/920/111
f 402/1057/111 362/1012/111 406/1013/111 404/1058/111
f 405/920/110 404/1058/110 407/1059/110 408/921/110
f 404/1058/110 406/1013/110 409/1060/110 407/1059/110
f 408/921/106 407/1059/106 410/1061/106 411/922/106
f 407/1059/106 409/1060/106 412/957/106 410/1061/106
f 411/922/97 410/1061/97 413/1062/97 414/923/97
f 410/1061/97 412/957/97 321/956/97 413/1062/97
f 414/923/96 413/1062/96 415/1063/96 416/924/96
f 413/1062/96 321/956/96 319/955/96 415/1063/96
f 416/924/95 415/1063/95 301/930/95 299/925/95
f 415/1063/95 319/955/95 304/932/95 301/930/95
f 409/1060/106 343/993/106 323/958/106 412/957/106
f 406/1013/110 364/994/110 343/993/110 409/1060/110
f 418/1064/123 395/1048/123 397/1050/123 417/1056/123
f 419/1065/121 393/1047/121 395/1048/121 418/1064/121
f 298/929/122 302/928/122 393/1047/122 419/1065/122
f 365/1015/124 398/1051/124 420/1066/124 369/1019/124
f 398/1051/125 384/1039/125 421/1040/125 420/1066/125
f 369/1019/90 420/1066/90 422/1029/90 377/1020/90
f 420/1066/90 421/1040/90 423/1067/90 422/1029/90
f 423/1067/123 424/1068/123 376/1030/123 422/1029/123
f 421/1040/126 385/1035/126 424/1068/126 423/1067/126
f 385/1035/101 379/1031/101 376/1030/101 424/1068/101
f 310/942/91 426/941/91 425/1044/91 390/947/91
f 307/940/101 427/1069/101 425/1044/101 426/941/101
f 427/1069/101 383/1036/101 387/1038/101 425/1044/101
s 0
f 363/974/5 428/973/13 429/1070/5 360/1010/13
f 428/973/5 333/972/12 335/980/5 429/1070/12
s 1
f 360/1010/127 429/1070/127 430/1071/127 358/1008/127
f 429/1070/128 335/982/128 345/992/128 430/1071/128
f 358/1008/101 430/1071/101 354/1072/101 356/1073/101
f 430/1071/101 345/992/101 348/998/101 350/1074/101
f 430/1071/101 350/1000/101 352/1002/101 354/1072/101
f 322/959/101 431/971/101 316/950/101 432/953/101
f 431/971/101 433/970/101 314/948/101 316/950/101
f 433/970/101 307/943/101 312/945/101 314/948/101
f 434/1075/129 436/1076/129 458/1077/129 435/1078/129
f 434/1079/130 435/1080/130 459/1081/130 454/1082/130 453/1083/130 452/1084/130 451/1085/130 446/1086/130 445/1087/130 444/1088/130 443/1089/130 438/1090/130 437/1091/130
f 437/1092/131 439/1093/131 436/1094/131 434/1095/131
f 438/1096/132 440/1097/132 439/1093/132 437/1092/132
f 458/1098/133 436/1099/133 439/1100/133 440/1101/133 441/1102/133 442/1103/133 447/1104/133 448/1105/133 449/1106/133 450/1107/133 455/1108/133 456/1109/133 457/1110/133
f 443/1111/134 441/1112/134 440/1097/134 438/1096/134
f 444/1113/135 442/1114/135 441/1112/135 443/1111/135
f 445/1115/136 447/1116/136 442/1114/136 444/1113/136
f 446/1117/137 448/1118/137 447/1116/137 445/1115/137
f 451/1119/138 449/1120/138 448/1118/138 446/1117/138
f 452/1121/139 450/1122/139 449/1120/139 451/1119/139
f 453/1123/140 455/1124/140 450/1122/140 452/1121/140
f 454/1125/141 456/1126/141 455/1124/141 453/1123/141
f 459/1127/142 457/1128/142 456/1126/142 454/1125/142
f 435/1078/143 458/1077/143 457/1128/143 459/1127/143
f 460/1129/1 462/1130/1 475/1131/1 461/1132/1
f 460/1133/2 461/1134/2 472/1135/2 471/1136/2 470/1137/2 469/1138/2 464/1139/2 463/1140/2
f 463/1141/3 465/1142/3 462/1143/3 460/1144/3
f 464/1145/4 466/1146/4 465/1142/4 463/1141/4
f 475/1147/5 462/1148/5 465/1149/5 466/1150/5 467/1151/5 468/1152/5 473/1153/5 474/1154/5
f 469/1155/6 467/1156/6 466/1146/6 464/1145/6
f 470/1157/7 468/1158/7 467/1156/7 469/1155/7
f 471/1159/8 473/1160/8 468/1158/8 470/1157/8
f 472/1161/9 474/1162/9 473/1160/9 471/1159/9
f 461/1132/10 475/1131/10 474/1162/10 472/1161/10
usemtl マテリアル.001
f 476/1163/144 480/1163/144 477/1163/144
f 476/1163/145 477/1163/145 478/1163/145
f 476/1163/146 478/1163/146 479/1163/146
f 476/1163/147 479/1163/147 481/1163/147
f 480/1163/148 476/1163/148 481/1163/148
f 481/1163/149 483/1163/149 482/1163/149
f 484/1163/150 481/1163/150 482/1163/150
f 481/1163/151 479/1163/151 483/1163/151
f 484/1163/152 480/1163/152 481/1163/152
f 485/1163/153 480/1163/153 484/1163/153
f 485/1163/154 484/1163/154 486/1163/154
f 484/1163/155 482/1163/155 487/1163/155
f 486/1163/156 484/1163/156 487/1163/156
f 487/1163/157 489/1163/157 488/1163/157
f 486/1163/158 487/1163/158 488/1163/158
f 482/1163/159 490/1163/159 487/1163/159
f 487/1163/160 490/1163/160 489/1163/160
f 482/1163/161 483/1163/161 490/1163/161
f 490/1163/162 491/1163/162 489/1163/162
f 490/1163/163 492/1163/163 491/1163/163
f 490/1163/164 483/1163/164 492/1163/164
f 492/1163/165 494/1163/165 491/1163/165
f 493/1163/166 495/1163/166 492/1163/166
f 483/1163/167 493/1163/167 492/1163/167
f 492/1163/168 495/1163/168 494/1163/168
f 493/1163/169 498/1163/169 495/1163/169
f 495/1163/170 496/1163/170 494/1163/170
f 495/1163/171 497/1163/171 496/1163/171
f 495/1163/172 498/1163/172 497/1163/172
f 479/1163/173 498/1163/173 493/1163/173
f 498/1163/174 499/1163/174 497/1163/174
f 478/1163/175 499/1163/175 498/1163/175
f 479/1163/176 478/1163/176 498/1163/176
f 499/1163/177 500/1163/177 501/1163/177
f 478/1163/178 500/1163/178 499/1163/178
f 499/1163/179 501/1163/179 497/1163/179
f 501/1163/180 502/1163/180 503/1163/180
f 501/1163/181 504/1163/181 502/1163/181
f 497/1163/182 501/1163/182 503/1163/182
f 501/1163/183 500/1163/183 504/1163/183
f 504/1163/184 506/1163/184 502/1163/184
f 505/1163/185 507/1163/185 504/1163/185
f 500/1163/186 505/1163/186 504/1163/186
f 504/1163/187 507/1163/187 506/1163/187
f 505/1163/188 510/1163/188 507/1163/188
f 507/1163/189 508/1163/189 506/1163/189
f 507/1163/190 509/1163/190 508/1163/190
f 507/1163/191 510/1163/191 509/1163/191
f 477/1163/192 510/1163/192 505/1163/192
f 510/1163/193 485/1163/193 509/1163/193
f 480/1163/194 485/1163/194 510/1163/194
f 477/1163/195 480/1163/195 510/1163/195
f 509/1163/196 511/1163/196 508/1163/196
f 485/1163/197 486/1163/197 509/1163/197
f 509/1163/198 486/1163/198 511/1163/198
f 508/1163/199 511/1163/199 512/1163/199
f 511/1163/200 488/1163/200 513/1163/200
f 486/1163/201 488/1163/201 511/1163/201
f 512/1163/202 511/1163/202 513/1163/202
f 513/1163/203 515/1163/203 514/1163/203
f 512/1163/204 513/1163/204 514/1163/204
f 488/1163/205 489/1163/205 513/1163/205
f 513/1163/206 489/1163/206 515/1163/206
f 491/1163/207 494/1163/207 515/1163/207
f 489/1163/208 491/1163/208 515/1163/208
f 515/1163/209 516/1163/209 514/1163/209
f 515/1163/210 494/1163/210 516/1163/210
f 496/1163/211 503/1163/211 516/1163/211
f 494/1163/212 496/1163/212 516/1163/212
f 516/1163/213 517/1163/213 514/1163/213
f 516/1163/214 503/1163/214 517/1163/214
f 502/1163/215 506/1163/215 517/1163/215
f 503/1163/216 502/1163/216 517/1163/216
f 517/1163/217 512/1163/217 514/1163/217
f 517/1163/218 506/1163/218 512/1163/218
f 506/1163/219 508/1163/219 512/1163/219
f 477/1163/220 505/1163/220 500/1163/220
f 497/1163/221 503/1163/221 496/1163/221
f 478/1163/222 477/1163/222 500/1163/222
f 479/1163/223 493/1163/223 483/1163/223
