# Blender 4.4.1
# www.blender.org
mtllib CanonBase.mtl
o canonbase
v -1.692737 -0.170569 1.206039
v -2.005996 -0.170569 0.457291
v -1.692737 0.641068 1.206039
v -1.222327 -0.170569 1.009230
v -1.535586 -0.170569 0.260482
v -1.222327 0.641068 1.009230
v -1.535586 0.641068 0.260482
v -2.005996 0.641068 0.457291
v 0.000000 -0.163169 -2.000000
v 0.000000 0.371024 -2.000000
v 1.414214 -0.163169 -1.414214
v 1.414214 0.371024 -1.414214
v 2.000000 -0.163169 0.000000
v 2.000000 0.371024 0.000000
v 1.414214 -0.163169 1.414214
v 1.414214 0.371024 1.414214
v 0.000000 -0.163169 2.000000
v 0.000000 0.371024 2.000000
v -1.414214 -0.163169 1.414214
v -1.414214 0.371024 1.414214
v -2.000000 -0.163169 0.000000
v -2.000000 0.371024 0.000000
v -1.414214 -0.163169 -1.414214
v -1.414214 0.371024 -1.414214
v 0.000000 0.034747 -1.421400
v 1.005082 0.034747 -1.005082
v 0.000000 0.988834 -1.421400
v -1.005082 0.034747 -1.005082
v -1.421400 0.034747 0.000000
v -1.005082 0.988834 -1.005082
v -1.421400 0.988834 0.000000
v -1.005082 0.988834 1.005082
v 0.000000 0.988834 1.421400
v -1.005082 0.034747 1.005082
v 0.000000 0.034747 1.421400
v 1.005082 0.034747 1.005082
v 1.421400 0.034747 0.000000
v 1.005082 0.988834 1.005082
v 1.421400 0.988834 0.000000
v 1.005082 0.988834 -1.005082
vn -0.0000 -1.0000 -0.0000
vn -0.9225 -0.0000 0.3860
vn 0.3860 -0.0000 0.9225
vn 0.9225 -0.0000 -0.3860
vn -0.0000 1.0000 -0.0000
vn -0.3860 -0.0000 -0.9225
vn 0.3827 -0.0000 -0.9239
vn 0.9239 -0.0000 -0.3827
vn 0.9239 -0.0000 0.3827
vn 0.3827 -0.0000 0.9239
vn -0.3827 -0.0000 0.9239
vn -0.9239 -0.0000 0.3827
vn -0.9239 -0.0000 -0.3827
vn -0.3827 -0.0000 -0.9239
vt 0.835290 0.002397
vt 0.754138 0.083553
vt 0.754138 0.002397
vt 0.997603 0.164710
vt 0.916447 0.083553
vt 0.997603 0.083553
vt 0.754138 0.164710
vt 0.672977 0.083553
vt 0.835290 0.164710
vt 0.835290 0.083553
vt 0.835290 0.245866
vt 0.916447 0.164710
vt 0.433259 0.894059
vt 0.641770 0.841932
vt 0.641770 0.894059
vt 0.433259 0.841932
vt 0.641770 0.789800
vt 0.433259 0.789800
vt 0.641770 0.737672
vt 0.433259 0.737672
vt 0.641770 0.685545
vt 0.433259 0.685545
vt 0.641770 0.633417
vt 0.433259 0.633417
vt 0.641770 0.581292
vt 0.366907 0.428467
vt 0.242112 0.127189
vt 0.543392 0.002400
vt 0.433259 0.581292
vt 0.641770 0.529164
vt 0.433259 0.529164
vt 0.641770 0.477030
vt 0.428463 0.601819
vt 0.127183 0.477030
vt 0.002396 0.778306
vt 0.672975 0.772376
vt 0.887089 0.861064
vt 0.975780 0.646948
vt 0.237315 0.002398
vt 0.002396 0.061127
vt 0.002396 0.002398
vt 0.237315 0.413507
vt 0.002396 0.472236
vt 0.002396 0.413507
vt 0.237315 0.354779
vt 0.002396 0.354779
vt 0.761666 0.250658
vt 0.975782 0.339345
vt 0.887091 0.553463
vt 0.237315 0.296046
vt 0.002396 0.296046
vt 0.237315 0.237317
vt 0.002396 0.237317
vt 0.237315 0.178588
vt 0.002396 0.178588
vt 0.237315 0.119856
vt 0.002396 0.119856
vt 0.237315 0.061127
vt 0.672977 0.164710
vt 0.754138 0.245866
vt 0.668182 0.127196
vt 0.668178 0.303676
vt 0.543383 0.428467
vt 0.242112 0.303672
vt 0.366907 0.002398
vt 0.433259 0.477030
vt 0.127191 0.903097
vt 0.303672 0.903093
vt 0.428463 0.778304
vt 0.303668 0.477028
vt 0.002396 0.601821
vt 0.887089 0.558259
vt 0.761661 0.558259
vt 0.672975 0.646948
vt 0.761661 0.861064
vt 0.975780 0.772376
vt 0.237315 0.472236
vt 0.761666 0.553463
vt 0.672975 0.464772
vt 0.672975 0.339345
vt 0.887091 0.250658
vt 0.975782 0.464772
s 0
usemtl マテリアル.001
f 2/1/1 4/2/1 1/3/1
f 3/4/2 2/5/2 1/6/2
f 6/7/3 1/8/3 4/2/3
f 7/9/4 4/2/4 5/10/4
f 8/11/5 6/7/5 7/9/5
f 8/12/6 5/10/6 2/5/6
f 10/13/7 11/14/7 9/15/7
f 12/16/8 13/17/8 11/14/8
f 14/18/9 15/19/9 13/17/9
f 16/20/10 17/21/10 15/19/10
f 18/22/11 19/23/11 17/21/11
f 20/24/12 21/25/12 19/23/12
f 22/26/5 18/27/5 14/28/5
f 22/29/13 23/30/13 21/25/13
f 24/31/14 9/32/14 23/30/14
f 15/33/1 19/34/1 23/35/1
f 36/36/1 34/37/1 28/38/1
f 27/39/7 26/40/7 25/41/7
f 30/42/14 25/43/14 28/44/14
f 31/45/13 28/44/13 29/46/13
f 31/47/5 33/48/5 39/49/5
f 32/50/12 29/46/12 34/51/12
f 33/52/11 34/51/11 35/53/11
f 38/54/10 35/53/10 36/55/10
f 39/56/9 36/55/9 37/57/9
f 40/58/8 37/57/8 26/40/8
f 2/1/1 5/10/1 4/2/1
f 3/4/2 8/12/2 2/5/2
f 6/7/3 3/59/3 1/8/3
f 7/9/4 6/7/4 4/2/4
f 8/11/5 3/60/5 6/7/5
f 8/12/6 7/9/6 5/10/6
f 10/13/7 12/16/7 11/14/7
f 12/16/8 14/18/8 13/17/8
f 14/18/9 16/20/9 15/19/9
f 16/20/10 18/22/10 17/21/10
f 18/22/11 20/24/11 19/23/11
f 20/24/12 22/29/12 21/25/12
f 14/28/5 12/61/5 10/62/5
f 10/62/5 24/63/5 22/26/5
f 22/26/5 20/64/5 18/27/5
f 18/27/5 16/65/5 14/28/5
f 14/28/5 10/62/5 22/26/5
f 22/29/13 24/31/13 23/30/13
f 24/31/14 10/66/14 9/32/14
f 23/35/1 9/67/1 11/68/1
f 11/68/1 13/69/1 15/33/1
f 15/33/1 17/70/1 19/34/1
f 19/34/1 21/71/1 23/35/1
f 23/35/1 11/68/1 15/33/1
f 28/38/1 25/72/1 26/73/1
f 26/73/1 37/74/1 36/36/1
f 36/36/1 35/75/1 34/37/1
f 34/37/1 29/76/1 28/38/1
f 28/38/1 26/73/1 36/36/1
f 27/39/7 40/58/7 26/40/7
f 30/42/14 27/77/14 25/43/14
f 31/45/13 30/42/13 28/44/13
f 39/49/5 40/78/5 27/79/5
f 27/79/5 30/80/5 31/47/5
f 31/47/5 32/81/5 33/48/5
f 33/48/5 38/82/5 39/49/5
f 39/49/5 27/79/5 31/47/5
f 32/50/12 31/45/12 29/46/12
f 33/52/11 32/50/11 34/51/11
f 38/54/10 33/52/10 35/53/10
f 39/56/9 38/54/9 36/55/9
f 40/58/8 39/56/8 37/57/8
