# Blender 4.4.1
# www.blender.org
mtllib steamHouse.mtl
o house
v 0.031859 0.013606 -3.153434
v 0.031859 5.129513 -3.153434
v -6.765977 0.013606 -3.153434
v -6.765977 5.129513 -3.153434
v 0.031859 0.013606 -3.370162
v 0.031859 5.129513 -3.370162
v -6.765977 0.013606 -3.370162
v -6.765977 5.129513 -3.370162
v -3.367059 0.013606 -3.153434
v -3.367059 5.083323 -3.153434
v -3.367059 0.013606 -3.370162
v -3.367059 5.083323 -3.370162
v -7.046603 0.013607 3.398918
v -7.046603 0.013607 0.000000
v -7.046603 5.129513 3.398918
v -6.829876 0.013607 3.398918
v -6.829876 5.129513 3.398918
v -6.829875 0.013607 0.000000
v -6.829876 0.013607 -3.398918
v -6.829875 7.973973 0.000000
v -6.829876 5.129513 -3.398918
v -7.046603 7.973973 0.000000
v -7.046603 5.129513 -3.398918
v -7.046603 0.013607 -3.398918
v -0.007712 0.013607 3.355865
v -3.502694 0.013607 3.355865
v -0.007712 5.129513 3.355865
v -0.007712 0.013607 3.139137
v -0.007712 5.129513 3.139137
v -3.502694 0.013607 3.139137
v -6.997676 0.013607 3.139137
v -3.502694 5.083323 3.139137
v -6.997676 5.129513 3.139137
v -3.502694 5.083323 3.355865
v -6.997676 5.129513 3.355865
v -6.997676 0.013607 3.355865
v -0.108364 0.013607 3.398918
v -0.108364 0.013607 0.000000
v -0.108364 5.129512 3.398918
v 0.108364 0.013607 3.398918
v 0.108364 5.129512 3.398918
v 0.108364 0.013607 0.000000
v 0.108364 0.013607 -3.398918
v 0.108364 7.973972 0.000000
v 0.108364 5.129513 -3.398918
v -0.108364 7.973972 0.000000
v -0.108364 5.129513 -3.398918
v -0.108364 0.013607 -3.398918
vn -0.0000 -0.0000 1.0000
vn -1.0000 -0.0000 -0.0000
vn -0.0000 -0.0000 -1.0000
vn 1.0000 -0.0000 -0.0000
vn -0.0000 -1.0000 -0.0000
vn -0.0136 0.9999 -0.0000
vn 0.0136 0.9999 -0.0000
vn -0.0000 0.7669 0.6418
vn -0.0000 0.7669 -0.6418
vn -0.0132 0.9999 -0.0000
vn 0.0132 0.9999 -0.0000
vt 0.991722 0.008278
vt 0.991722 0.307622
vt 0.756710 0.310349
vt 0.756710 0.008278
vt 0.699245 0.754619
vt 0.614943 0.838920
vt 0.530642 0.754619
vt 0.614943 0.670317
vt 0.572793 0.628166
vt 0.488491 0.712468
vt 0.446340 0.670317
vt 0.530642 0.586016
vt 0.362039 0.586016
vt 0.446340 0.501714
vt 0.657094 0.543865
vt 0.614943 0.501714
vt 0.404190 0.796769
vt 0.362039 0.754619
vt 0.446340 0.838920
vt 0.699245 0.586016
vt 0.756710 0.446125
vt 0.756710 0.326905
vt 0.816320 0.326905
vt 0.816320 0.446125
vt 0.501714 0.008278
vt 0.620935 0.008278
vt 0.620935 0.067888
vt 0.501714 0.067888
vt 0.382494 0.306328
vt 0.501714 0.306328
vt 0.501714 0.365939
vt 0.382494 0.365939
vt 0.620935 0.365939
vt 0.620935 0.485159
vt 0.501714 0.485159
vt 0.620935 0.306328
vt 0.501714 0.246718
vt 0.620935 0.246718
vt 0.382494 0.246718
vt 0.740155 0.306328
vt 0.740155 0.365939
vt 0.740155 0.246718
vt 0.620935 0.127498
vt 0.501714 0.127498
vt 0.832876 0.446125
vt 0.832876 0.326905
vt 0.892486 0.326905
vt 0.892486 0.446125
vt 0.050428 0.543865
vt 0.134730 0.628167
vt 0.092579 0.670317
vt 0.008278 0.586016
vt 0.176881 0.754619
vt 0.092579 0.838920
vt 0.008278 0.754619
vt 0.219031 0.712468
vt 0.176881 0.586016
vt 0.261182 0.670317
vt 0.092579 0.501714
vt 0.303333 0.796770
vt 0.261182 0.838920
vt 0.345484 0.754619
vt 0.957455 0.501714
vt 0.957455 0.801059
vt 0.715800 0.803786
vt 0.715800 0.501714
vt 0.261182 0.501714
vt 0.345484 0.586016
vt 0.127498 0.008278
vt 0.246718 0.008278
vt 0.246718 0.067888
vt 0.127498 0.067888
vt 0.008278 0.306328
vt 0.127498 0.306328
vt 0.127498 0.365939
vt 0.008278 0.365939
vt 0.246718 0.365939
vt 0.246718 0.485159
vt 0.127498 0.485159
vt 0.246718 0.306328
vt 0.127498 0.246718
vt 0.246718 0.246718
vt 0.008278 0.246718
vt 0.365939 0.306328
vt 0.365939 0.365939
vt 0.365939 0.246718
vt 0.246718 0.127498
vt 0.127498 0.127498
s 0
usemtl マテリアル.006
f 9/1/1 10/2/1 4/3/1 3/4/1
f 3/5/2 4/6/2 8/7/2 7/8/2
f 11/9/3 12/10/3 6/11/3 5/12/3
f 5/12/4 6/11/4 2/13/4 1/14/4
f 9/15/5 11/9/5 5/12/5 1/16/5
f 12/10/6 10/17/6 2/18/6 6/11/6
f 8/7/7 4/19/7 10/17/7 12/10/7
f 3/20/5 7/8/5 11/9/5 9/15/5
f 7/8/3 8/7/3 12/10/3 11/9/3
f 1/21/1 2/22/1 10/23/1 9/24/1
f 13/25/2 15/26/2 22/27/2 14/28/2
f 14/29/5 18/30/5 16/31/5 13/32/5
f 16/31/1 17/33/1 15/34/1 13/35/1
f 18/30/4 20/36/4 17/33/4 16/31/4
f 19/37/4 21/38/4 20/36/4 18/30/4
f 24/39/5 19/37/5 18/30/5 14/29/5
f 20/36/8 22/40/8 15/41/8 17/33/8
f 21/38/9 23/42/9 22/40/9 20/36/9
f 14/28/2 22/27/2 23/43/2 24/44/2
f 24/44/3 23/43/3 21/38/3 19/37/3
f 25/45/1 27/46/1 34/47/1 26/48/1
f 26/49/5 30/50/5 28/51/5 25/52/5
f 28/51/4 29/53/4 27/54/4 25/55/4
f 30/50/3 32/56/3 29/53/3 28/51/3
f 31/57/3 33/58/3 32/56/3 30/50/3
f 36/59/5 31/57/5 30/50/5 26/49/5
f 32/56/10 34/60/10 27/61/10 29/53/10
f 33/58/11 35/62/11 34/60/11 32/56/11
f 26/63/1 34/64/1 35/65/1 36/66/1
f 36/67/2 35/68/2 33/58/2 31/57/2
f 37/69/2 39/70/2 46/71/2 38/72/2
f 38/73/5 42/74/5 40/75/5 37/76/5
f 40/75/1 41/77/1 39/78/1 37/79/1
f 42/74/4 44/80/4 41/77/4 40/75/4
f 43/81/4 45/82/4 44/80/4 42/74/4
f 48/83/5 43/81/5 42/74/5 38/73/5
f 44/80/8 46/84/8 39/85/8 41/77/8
f 45/82/9 47/86/9 46/84/9 44/80/9
f 38/72/2 46/71/2 47/87/2 48/88/2
f 48/88/3 47/87/3 45/82/3 43/81/3
o parts
v -1.695730 -0.484919 -3.899534
v -1.695730 0.566822 -3.899534
v -1.695730 -0.484919 -4.951274
v -1.695730 0.566822 -4.951274
v -0.643989 -0.484919 -3.899534
v -0.643989 0.566822 -3.899534
v -0.643989 -0.484919 -4.951274
v -0.643989 0.566822 -4.951274
v -1.646111 3.584736 -3.905877
v -1.646111 3.584736 -4.905877
v -0.646111 3.584736 -3.905877
v -0.646111 3.584736 -4.905877
v -1.755678 3.084736 -3.796309
v -1.755679 3.694304 -4.405877
v -1.755678 3.084736 -5.015445
v -1.146111 3.694304 -5.015445
v -0.536543 3.084736 -5.015445
v -0.536543 3.694304 -4.405877
v -0.536543 3.084736 -3.796309
v -1.146111 3.694304 -3.796309
v -1.985617 3.084736 -4.405877
v -1.146111 3.084736 -5.245383
v -0.306605 3.084736 -4.405877
v -1.146111 3.084736 -3.566370
v -1.146111 3.924242 -4.405877
v -1.755678 1.084736 -3.796309
v -1.755678 1.084736 -5.015445
v -0.536543 1.084736 -5.015445
v -0.536543 1.084736 -3.796309
v -1.985617 1.084736 -4.405877
v -1.146111 1.084736 -5.245383
v -0.306605 1.084736 -4.405877
v -1.146111 1.084736 -3.566370
v -1.146111 0.001334 -4.405877
v -1.146111 3.109529 -3.399863
v -0.415642 3.109529 -3.675408
v -0.140097 3.109529 -4.405877
v -0.415642 3.109529 -5.136346
v -1.146111 3.109529 -5.411890
v -1.876580 3.109529 -5.136346
v -2.152124 3.109529 -4.405877
v -1.876580 3.109529 -3.675408
v -0.415642 2.809944 -5.136346
v -1.876580 2.809944 -3.675408
v -1.876580 2.809944 -5.136346
v -0.140097 2.809944 -4.405877
v -1.146111 2.809944 -5.411890
v -0.415642 2.809944 -3.675408
v -1.146111 2.809944 -3.399863
v -2.152124 2.809944 -4.405877
v -1.985617 2.834736 -4.405877
v -1.146111 2.834736 -3.566370
v -0.536543 2.834736 -3.796309
v -1.146111 2.834736 -5.245383
v -0.306605 2.834736 -4.405877
v -1.755678 2.834736 -5.015445
v -1.755678 2.834736 -3.796309
v -0.536543 2.834736 -5.015445
v -7.370946 7.708201 0.355637
v -7.370946 8.295285 0.355637
v -7.370946 7.708201 -0.180209
v -7.370946 8.295285 -0.180209
v 0.714984 7.708201 0.355637
v 0.714984 8.295285 0.355637
v 0.714984 7.708201 -0.180209
v 0.714984 8.295285 -0.180209
v 0.238667 6.890254 0.338103
v 0.238667 7.413151 0.338103
v 0.238667 6.890254 -0.184795
v 0.238667 7.413151 -0.184795
v 0.761564 6.890254 0.338103
v 0.761564 7.413151 0.338103
v 0.761564 6.890254 -0.184795
v 0.761564 7.413151 -0.184795
v 0.761564 7.413151 0.421640
v 0.238667 7.413151 0.421640
v 1.066613 8.524198 0.421640
v 0.543715 8.524198 0.421640
v 0.238667 7.413151 -0.273999
v 0.761564 7.413151 -0.273999
v 0.543715 8.524198 -0.273999
v 1.066613 8.524198 -0.273999
v -1.273334 8.128398 -0.115554
v -1.273334 8.335877 -0.291873
v -1.273334 5.044598 -3.946828
v -1.273334 5.252077 -4.123147
v -0.966307 8.128398 -0.115554
v -0.966307 8.335877 -0.291873
v -0.966307 5.044598 -3.946828
v -0.966307 5.252077 -4.123147
v -1.270668 3.733517 -4.551854
v -1.270668 3.731646 -4.249011
v -0.963641 3.731646 -4.249011
v -0.963641 3.733517 -4.551854
v -6.059562 9.047312 -0.874729
v -6.059562 9.629247 -0.874729
v -6.059562 9.047312 -2.339456
v -6.059562 9.629247 -2.339456
v -4.594834 9.047312 -0.874729
v -4.594834 9.629247 -0.874729
v -4.594834 9.047312 -2.339456
v -4.594834 9.629247 -2.339456
v -5.949606 6.057253 -0.984685
v -5.949606 9.377834 -0.984685
v -5.949606 6.057253 -2.229501
v -5.949606 9.377834 -2.229501
v -4.704790 6.057253 -0.984685
v -4.704790 9.377834 -0.984685
v -4.704790 6.057253 -2.229501
v -4.704790 9.377834 -2.229501
v 0.556170 5.133488 3.958677
v 0.556171 8.095620 0.316607
v 0.556170 4.826611 3.708911
v -7.317442 5.133488 3.958676
v -7.317441 8.095620 0.316607
v -7.317442 4.826611 3.708910
v -7.317441 7.788743 0.066841
v 0.556171 7.788743 0.066841
v 0.556170 4.839338 -3.555483
v 0.556171 7.801470 0.086587
v 0.556170 5.146391 -3.805032
v -7.317441 4.839338 -3.555483
v -7.317441 7.801470 0.086587
v -7.317441 5.146390 -3.805032
v -7.317441 8.108522 -0.162962
v 0.556171 8.108522 -0.162962
v -0.238156 4.466969 -2.786097
v -0.238156 4.060165 -2.786097
v -6.676656 4.466969 -2.786097
v -6.676656 4.060165 -2.786097
v -0.238156 4.466969 -3.400928
v -0.238156 4.060165 -3.400928
v -6.676656 4.466969 -3.400928
v -6.676656 4.060165 -3.400928
v -0.362396 -0.054179 3.530298
v -0.362396 5.238252 3.530298
v -0.362396 -0.054179 2.741843
v -0.362396 6.024817 2.741843
v 0.426060 -0.054179 3.530298
v 0.426060 5.238252 3.530298
v 0.426060 -0.054179 2.741843
v 0.426060 6.024817 2.741843
v -7.290786 -0.054179 3.530297
v -7.290786 5.238252 3.530297
v -7.290786 -0.054179 2.741841
v -7.290786 6.024817 2.741841
v -6.502331 -0.054179 3.530297
v -6.502331 5.238252 3.530297
v -6.502331 -0.054179 2.741841
v -6.502331 6.024817 2.741841
v 0.426060 -0.054179 -3.436336
v 0.426060 5.238252 -3.436336
v 0.426060 -0.054179 -2.647880
v 0.426060 6.024817 -2.647880
v -0.362396 -0.054179 -3.436336
v -0.362396 5.238252 -3.436336
v -0.362396 -0.054179 -2.647880
v -0.362396 6.024817 -2.647880
v -6.499403 -0.054179 -3.436336
v -6.499403 5.238252 -3.436336
v -6.499403 -0.054179 -2.647880
v -6.499403 6.024817 -2.647880
v -7.287858 -0.054179 -3.436336
v -7.287858 5.238252 -3.436336
v -7.287858 -0.054179 -2.647880
v -7.287858 6.024817 -2.647880
v -0.227410 4.416968 2.845515
v -0.227410 4.110166 2.845515
v -0.227410 4.416968 -2.791054
v -0.227410 4.110166 -2.791054
v 0.387422 4.416968 2.845515
v 0.387422 4.110166 2.845515
v 0.387422 4.416968 -2.791054
v 0.387422 4.110166 -2.791054
v -7.138079 4.466969 2.845514
v -7.138079 4.060166 2.845514
v -7.138079 4.466969 -2.791054
v -7.138079 4.060166 -2.791054
v -6.523248 4.466969 2.845514
v -6.523248 4.060166 2.845514
v -6.523248 4.466969 -2.791054
v -6.523248 4.060166 -2.791054
v -0.238156 4.466969 3.508508
v -0.238156 4.060166 3.508508
v -6.676656 4.466969 3.508508
v -6.676656 4.060166 3.508508
v -0.238156 4.466969 2.893675
v -0.238156 4.060166 2.893675
v -6.676656 4.466969 2.893675
v -6.676656 4.060166 2.893675
v 0.312512 4.416968 1.187534
v 0.312512 4.110166 1.187534
v 0.312512 4.416968 -1.133073
v 0.312512 4.110166 -1.133073
v 1.413443 3.898409 1.187534
v 1.413443 3.591606 1.187534
v 1.413443 3.898409 -1.133073
v 1.413443 3.591606 -1.133073
v -0.032224 -0.018755 -1.018291
v -0.032224 3.363583 -1.018291
v -0.032224 -0.018755 -1.306383
v -0.032224 3.363583 -1.306383
v 0.271360 -0.018755 -1.018291
v 0.271360 3.363583 -1.018291
v 0.271360 -0.018755 -1.306383
v 0.271360 3.363583 -1.306383
v -0.041611 0.058248 1.000000
v -0.041611 0.270045 1.000000
v -0.041611 0.058248 -1.000000
v -0.041611 0.270045 -1.000000
v 0.903297 0.058248 1.000000
v 0.903297 0.270045 1.000000
v 0.903297 0.058248 -1.000000
v 0.903297 0.270045 -1.000000
v -0.177753 0.307136 1.000000
v -0.177753 3.286178 1.000000
v -0.177753 0.307136 -1.000000
v -0.177753 3.286178 -1.000000
v 0.116198 0.307136 1.000000
v 0.116198 3.286178 1.000000
v 0.116198 0.307136 -1.000000
v 0.116198 3.286178 -1.000000
v -0.032224 -0.018755 1.288455
v -0.032224 3.363583 1.288455
v -0.032224 -0.018755 1.000363
v -0.032224 3.363583 1.000363
v 0.271360 -0.018755 1.288455
v 0.271360 3.363583 1.288455
v 0.271360 -0.018755 1.000363
v 0.271360 3.363583 1.000363
v -0.026266 3.282376 1.344059
v -0.026266 3.565329 1.344059
v -0.026266 3.282376 -1.371736
v -0.026266 3.565329 -1.371736
v 0.301945 3.282376 1.344059
v 0.301945 3.565329 1.344059
v 0.301945 3.282376 -1.371736
v 0.301945 3.565329 -1.371736
v 0.131272 2.516101 -0.442717
v 0.131272 2.847361 -0.305504
v 0.131272 2.984573 0.025755
v 0.131272 2.847361 0.357015
v 0.131272 2.516101 0.494227
v 0.131272 2.184842 0.357015
v 0.131272 2.047629 0.025755
v 0.131272 2.184842 -0.305504
v 0.182247 2.516101 -0.375332
v 0.182247 2.799713 -0.257856
v 0.182248 2.917188 0.025755
v 0.182248 2.799713 0.309367
v 0.182248 2.516101 0.426842
v 0.182248 2.232490 0.309367
v 0.182248 2.115014 0.025755
v 0.182247 2.232490 -0.257856
v 0.182247 2.847361 -0.305504
v 0.182247 2.516101 -0.442717
v 0.182248 2.984573 0.025755
v 0.182248 2.847361 0.357015
v 0.182248 2.516101 0.494227
v 0.182248 2.184842 0.357015
v 0.182248 2.047629 0.025755
v 0.182247 2.184842 -0.305504
v 0.095413 2.799713 -0.257856
v 0.095413 2.516101 -0.375332
v 0.095414 2.917188 0.025755
v 0.095414 2.799713 0.309367
v 0.095414 2.516101 0.426842
v 0.095414 2.232490 0.309367
v 0.095414 2.115014 0.025755
v 0.095413 2.232490 -0.257856
v 0.155476 1.218148 0.774787
v 0.155476 1.586481 0.774787
v 0.155476 1.218148 0.589850
v 0.155476 1.586481 0.589850
v 0.262180 1.218148 0.774787
v 0.262180 1.586481 0.774787
v 0.262180 1.218148 0.589850
v 0.262180 1.586481 0.589850
v -6.978656 2.793816 -0.943891
v -6.978656 2.086709 -0.650998
v -6.978656 1.793816 0.056109
v -6.978656 2.086709 0.763216
v -6.978656 2.793816 1.056109
v -6.978656 3.500923 0.763216
v -6.978656 3.793816 0.056109
v -6.978656 3.500923 -0.650998
v -7.262073 2.220032 -0.517675
v -7.262073 2.793816 -0.755344
v -7.262073 1.982363 0.056109
v -7.262073 2.220032 0.629893
v -7.262073 2.793816 0.867562
v -7.262073 3.367600 0.629893
v -7.262073 3.605269 0.056109
v -7.262073 3.367600 -0.517675
v -7.262073 2.086709 -0.650998
v -7.262073 2.793816 -0.943891
v -7.262072 1.793816 0.056109
v -7.262073 2.086709 0.763216
v -7.262073 2.793816 1.056109
v -7.262073 3.500923 0.763216
v -7.262073 3.793816 0.056109
v -7.262073 3.500923 -0.650998
v -7.020700 2.220032 -0.517675
v -7.020700 2.793816 -0.755344
v -7.020700 1.982363 0.056109
v -7.020700 2.220032 0.629893
v -7.020700 2.793816 0.867562
v -7.020700 3.367600 0.629893
v -7.020700 3.605269 0.056109
v -7.020700 3.367600 -0.517675
vn -1.0000 -0.0000 -0.0000
vn -0.0000 -0.0000 -1.0000
vn 1.0000 -0.0000 -0.0000
vn -0.0000 -0.0000 1.0000
vn -0.0000 -1.0000 -0.0000
vn -0.0000 1.0000 -0.0000
vn -0.9015 0.3061 0.3061
vn -0.9015 0.3061 -0.3061
vn -0.3061 0.3061 -0.9015
vn 0.3061 0.3061 -0.9015
vn 0.9015 0.3061 -0.3061
vn 0.9015 0.3061 0.3061
vn 0.3061 0.3061 0.9015
vn -0.3061 0.3061 0.9015
vn 0.3061 0.9015 -0.3061
vn -0.3061 0.9015 -0.3061
vn -0.3061 0.9015 0.3061
vn 0.3061 0.9015 0.3061
vn 0.9356 -0.0000 -0.3529
vn -0.9356 -0.0000 -0.3529
vn -0.3529 -0.0000 0.9356
vn -0.9356 -0.0000 0.3529
vn 0.3529 -0.0000 0.9356
vn 0.3529 -0.0000 -0.9356
vn -0.3529 -0.0000 -0.9356
vn 0.9356 -0.0000 0.3529
vn 0.2857 -0.5870 0.7575
vn 0.7575 -0.5870 -0.2857
vn -0.2857 -0.5870 -0.7575
vn -0.7575 -0.5870 0.2857
vn -0.2857 -0.5870 0.7575
vn 0.7575 -0.5870 0.2857
vn 0.2857 -0.5870 -0.7575
vn -0.7575 -0.5870 -0.2857
vn 0.0555 0.9876 -0.1470
vn 0.1470 0.9876 -0.0555
vn -0.1470 -0.9876 -0.0555
vn -0.1470 -0.9876 0.0555
vn -0.1470 0.9876 0.0555
vn 0.1470 -0.9876 0.0555
vn -0.0555 0.9876 0.1470
vn 0.0555 -0.9876 -0.1470
vn 0.1470 -0.9876 -0.0555
vn 0.0555 0.9876 0.1470
vn -0.0555 -0.9876 -0.1470
vn 0.1470 0.9876 0.0555
vn -0.0555 -0.9876 0.1470
vn -0.0555 0.9876 -0.1470
vn -0.1470 0.9876 -0.0555
vn 0.0555 -0.9876 0.1470
vn -0.9643 0.2648 -0.0000
vn 0.9643 -0.2648 -0.0000
vn 1.0000 0.0017 0.0007
vn -0.0000 0.6476 0.7620
vn -0.0000 -0.7790 0.6270
vn -0.0000 0.7790 -0.6270
vn -0.0000 -1.0000 -0.0062
vn -0.0000 -0.2243 0.9745
vn -0.0000 0.2717 -0.9624
vn -1.0000 -0.0017 -0.0007
vn -0.0000 0.7758 0.6310
vn -0.0000 -0.6312 0.7756
vn -0.0000 -0.7758 -0.6310
vn -0.0000 0.6312 -0.7756
vn -0.0000 -0.7758 0.6310
vn -0.0000 -0.6307 -0.7760
vn -0.0000 0.7758 -0.6310
vn -0.0000 0.6307 0.7760
vn -0.0000 0.7080 0.7063
vn -0.0000 0.7080 -0.7063
vn -0.4261 -0.9047 -0.0000
vn 0.4261 0.9047 -0.0000
vn -0.0000 0.9239 -0.3827
vn -0.0000 -0.3827 -0.9239
vn -0.0000 -0.9239 0.3827
vn -0.0000 0.3827 0.9239
vn -0.0000 -0.9239 -0.3827
vn -0.0000 -0.3827 0.9239
vn -0.0000 0.9239 0.3827
vn -0.0000 0.3827 -0.9239
vt 0.827478 0.447884
vt 0.909123 0.447884
vt 0.909116 0.529532
vt 0.827478 0.529532
vt 0.909123 0.611178
vt 0.827471 0.611178
vt 0.909123 0.692826
vt 0.827478 0.692826
vt 0.909123 0.774473
vt 0.827478 0.774473
vt 0.745827 0.611178
vt 0.745827 0.692826
vt 0.990767 0.611178
vt 0.990767 0.692826
vt 0.712984 0.155663
vt 0.718129 0.147179
vt 0.725261 0.147081
vt 0.726713 0.157433
vt 0.731456 0.146148
vt 0.736723 0.151476
vt 0.732564 0.140029
vt 0.742527 0.141637
vt 0.732940 0.133179
vt 0.741030 0.128822
vt 0.725838 0.130948
vt 0.729654 0.116336
vt 0.716721 0.130419
vt 0.705642 0.117621
vt 0.705630 0.117631
vt 0.716351 0.139651
vt 0.700181 0.142363
vt 0.724984 0.139404
vt 0.744726 0.127241
vt 0.731514 0.111310
vt 0.737517 0.098254
vt 0.752252 0.124155
vt 0.731023 0.170634
vt 0.746955 0.160854
vt 0.795406 0.202005
vt 0.774315 0.227397
vt 0.672189 0.157465
vt 0.706734 0.175880
vt 0.747802 0.254993
vt 0.706282 0.302489
vt 0.617848 0.022793
vt 0.612148 0.416890
vt 0.755434 0.144613
vt 0.758752 0.122377
vt 0.837644 0.146728
vt 0.815673 0.177023
vt 0.742946 0.091899
vt 0.955881 0.009973
vt 0.871162 0.103153
vt 0.955881 0.336133
vt 0.711075 0.159643
vt 0.694235 0.143808
vt 0.727314 0.160240
vt 0.738938 0.153680
vt 0.743537 0.157615
vt 0.729666 0.167013
vt 0.708667 0.168487
vt 0.680085 0.151632
vt 0.698294 0.109321
vt 0.673311 0.084773
vt 0.745207 0.142216
vt 0.751890 0.143541
vt 0.698304 0.109310
vt 0.452641 0.177878
vt 0.590012 0.177878
vt 0.590012 0.315253
vt 0.452641 0.315253
vt 0.590012 0.452627
vt 0.452634 0.452627
vt 0.590005 0.590002
vt 0.452641 0.590002
vt 0.590012 0.727377
vt 0.452641 0.727377
vt 0.315257 0.452627
vt 0.315257 0.590002
vt 0.727377 0.452627
vt 0.727377 0.590002
vt 0.563412 0.855034
vt 0.563412 0.922904
vt 0.495544 0.922897
vt 0.495544 0.855034
vt 0.427675 0.922897
vt 0.427675 0.855040
vt 0.359808 0.922897
vt 0.359808 0.855034
vt 0.291939 0.922904
vt 0.291939 0.855034
vt 0.427675 0.787170
vt 0.359808 0.787170
vt 0.563412 0.922910
vt 0.495544 0.922904
vt 0.495544 0.922910
vt 0.359808 0.922904
vt 0.427675 0.922904
vt 0.427675 0.990767
vt 0.359808 0.990767
vt 0.359808 0.922904
vt 0.291939 0.922910
vt 0.459818 0.834046
vt 0.459818 0.747098
vt 0.546767 0.747098
vt 0.546767 0.834046
vt 0.633717 0.747104
vt 0.633717 0.834033
vt 0.633717 0.834046
vt 0.633717 0.747098
vt 0.720665 0.747104
vt 0.720666 0.834046
vt 0.807615 0.747097
vt 0.807615 0.834046
vt 0.633717 0.920995
vt 0.720666 0.920995
vt 0.633717 0.660155
vt 0.720666 0.660149
vt 0.633717 0.660149
vt 0.009291 0.766771
vt 0.009291 0.678824
vt 0.097236 0.678824
vt 0.097236 0.766771
vt 0.185181 0.678824
vt 0.185181 0.766764
vt 0.273126 0.678818
vt 0.273126 0.766771
vt 0.361072 0.678824
vt 0.361072 0.766771
vt 0.185181 0.854711
vt 0.273126 0.854711
vt 0.185181 0.590877
vt 0.273126 0.590877
vt 0.149992 0.009554
vt 0.290415 0.009554
vt 0.290421 0.149981
vt 0.149998 0.149981
vt 0.290415 0.290407
vt 0.149992 0.290407
vt 0.290415 0.430834
vt 0.149992 0.430834
vt 0.290415 0.571261
vt 0.149992 0.571261
vt 0.009562 0.290407
vt 0.009562 0.430834
vt 0.430844 0.290407
vt 0.430844 0.430834
vt 0.166705 0.000115
vt 0.333295 0.000115
vt 0.333295 0.166705
vt 0.166705 0.166705
vt 0.166705 0.499885
vt 0.333295 0.499885
vt 0.333295 0.666474
vt 0.166705 0.666474
vt 0.000115 0.333295
vt 0.166705 0.333295
vt 0.000115 0.499885
vt 0.333295 0.333295
vt 0.499885 0.333295
vt 0.499885 0.499885
vt 0.666705 0.000115
vt 0.833295 0.000115
vt 0.833295 0.166705
vt 0.666705 0.166705
vt 0.666705 0.499885
vt 0.833295 0.499885
vt 0.833295 0.666474
vt 0.666705 0.666474
vt 0.500115 0.333295
vt 0.666705 0.333295
vt 0.500115 0.499885
vt 0.833295 0.333295
vt 0.999885 0.333295
vt 0.999885 0.499885
vt 0.051269 0.385270
vt 0.088206 0.385270
vt 0.088206 0.422207
vt 0.051269 0.422207
vt 0.088206 0.459144
vt 0.051269 0.459144
vt 0.088206 0.496082
vt 0.051269 0.496082
vt 0.088206 0.533019
vt 0.051269 0.533019
vt 0.014332 0.459144
vt 0.014332 0.496082
vt 0.125144 0.459144
vt 0.125144 0.496082
vt 0.573554 0.367278
vt 0.668581 0.367278
vt 0.668581 0.462305
vt 0.573554 0.462305
vt 0.668581 0.557332
vt 0.573554 0.557332
vt 0.668581 0.652358
vt 0.573554 0.652358
vt 0.668581 0.747385
vt 0.573554 0.747385
vt 0.478527 0.557332
vt 0.478527 0.652358
vt 0.763608 0.557332
vt 0.763608 0.652358
vt 0.478517 0.203927
vt 0.478517 0.108901
vt 0.573544 0.108901
vt 0.573544 0.203927
vt 0.668570 0.108901
vt 0.668570 0.203927
vt 0.763597 0.108901
vt 0.763597 0.203927
vt 0.858624 0.108901
vt 0.858624 0.203927
vt 0.668570 0.298954
vt 0.763597 0.298954
vt 0.668570 0.013874
vt 0.763597 0.013874
vt 0.356870 0.166817
vt 0.451897 0.166817
vt 0.451897 0.261843
vt 0.356870 0.261843
vt 0.451897 0.356870
vt 0.356870 0.356870
vt 0.451897 0.451897
vt 0.356870 0.451897
vt 0.451897 0.546924
vt 0.356870 0.546924
vt 0.261843 0.356870
vt 0.261843 0.451897
vt 0.546924 0.356870
vt 0.546924 0.451897
vt 0.013864 0.670898
vt 0.013864 0.575872
vt 0.108890 0.575872
vt 0.108890 0.670898
vt 0.203917 0.575872
vt 0.203917 0.670898
vt 0.298944 0.575872
vt 0.298944 0.670898
vt 0.393971 0.575872
vt 0.393971 0.670898
vt 0.203917 0.765925
vt 0.298944 0.765925
vt 0.203917 0.480845
vt 0.298944 0.480845
vt 0.625241 0.835909
vt 0.625241 0.776115
vt 0.685035 0.776115
vt 0.685035 0.835909
vt 0.744830 0.776115
vt 0.744830 0.835909
vt 0.804624 0.776115
vt 0.804624 0.835909
vt 0.864418 0.776115
vt 0.864418 0.835909
vt 0.744830 0.895704
vt 0.804624 0.895704
vt 0.744830 0.716321
vt 0.804624 0.716321
vt 0.325135 0.841705
vt 0.325135 0.773801
vt 0.393038 0.773801
vt 0.393038 0.841705
vt 0.460942 0.773801
vt 0.460942 0.841705
vt 0.528846 0.773801
vt 0.528846 0.841705
vt 0.596749 0.773801
vt 0.596749 0.841705
vt 0.460942 0.909608
vt 0.528846 0.909608
vt 0.460942 0.705897
vt 0.528846 0.705897
vt 0.890195 0.788510
vt 0.927132 0.788510
vt 0.927132 0.825448
vt 0.890195 0.825448
vt 0.927132 0.862385
vt 0.890195 0.862385
vt 0.927132 0.899322
vt 0.890195 0.899322
vt 0.927132 0.936259
vt 0.890195 0.936259
vt 0.853257 0.862385
vt 0.853257 0.899322
vt 0.964069 0.862385
vt 0.964069 0.899322
vt 0.790261 0.231753
vt 0.849935 0.231753
vt 0.849935 0.291426
vt 0.790261 0.291426
vt 0.849935 0.351100
vt 0.790261 0.351100
vt 0.849935 0.410774
vt 0.790261 0.410774
vt 0.849935 0.470447
vt 0.790261 0.470447
vt 0.730588 0.351100
vt 0.730588 0.410774
vt 0.909608 0.351100
vt 0.909608 0.410774
vt 0.057455 0.698910
vt 0.101729 0.698910
vt 0.101729 0.743184
vt 0.057455 0.743184
vt 0.101729 0.787458
vt 0.057455 0.787458
vt 0.101729 0.831731
vt 0.057455 0.831731
vt 0.101729 0.876005
vt 0.057455 0.876005
vt 0.013181 0.787458
vt 0.013181 0.831731
vt 0.146001 0.787458
vt 0.146001 0.831731
vt 0.822284 0.076951
vt 0.822284 0.044981
vt 0.854254 0.044981
vt 0.854254 0.076951
vt 0.886224 0.044981
vt 0.886224 0.076951
vt 0.918194 0.044981
vt 0.918194 0.076951
vt 0.950164 0.044981
vt 0.950164 0.076951
vt 0.886224 0.108921
vt 0.918194 0.108921
vt 0.886224 0.013012
vt 0.918194 0.013012
vt 0.118234 0.012832
vt 0.223368 0.012832
vt 0.223368 0.117966
vt 0.118234 0.117966
vt 0.223368 0.223098
vt 0.118234 0.223098
vt 0.223368 0.328234
vt 0.118234 0.328234
vt 0.223368 0.433368
vt 0.118234 0.433368
vt 0.013100 0.223098
vt 0.013100 0.328234
vt 0.328502 0.223098
vt 0.328502 0.328234
vt 0.833807 0.496132
vt 0.878081 0.496132
vt 0.878081 0.540406
vt 0.833807 0.540406
vt 0.878081 0.584680
vt 0.833807 0.584680
vt 0.878081 0.628954
vt 0.833807 0.628954
vt 0.878081 0.673226
vt 0.833807 0.673226
vt 0.789535 0.584680
vt 0.789535 0.628954
vt 0.922354 0.584680
vt 0.922354 0.628954
vt 0.327227 0.169176
vt 0.288294 0.169176
vt 0.288295 0.130241
vt 0.327228 0.130241
vt 0.288294 0.091310
vt 0.327227 0.091310
vt 0.288294 0.052376
vt 0.327227 0.052376
vt 0.288294 0.013443
vt 0.327227 0.013443
vt 0.366161 0.091310
vt 0.366161 0.052376
vt 0.249361 0.091310
vt 0.249361 0.052376
vt 0.048430 0.083429
vt 0.073178 0.073177
vt 0.083429 0.048429
vt 0.073178 0.023681
vt 0.048430 0.013430
vt 0.023681 0.023681
vt 0.013430 0.048429
vt 0.023681 0.073178
vt 0.069618 0.027241
vt 0.078395 0.048429
vt 0.078395 0.048429
vt 0.048430 0.083429
vt 0.073178 0.073178
vt 0.027242 0.069618
vt 0.048430 0.078395
vt 0.018464 0.048429
vt 0.027242 0.027241
vt 0.048430 0.018464
vt 0.069618 0.069618
vt 0.027241 0.069618
vt 0.018465 0.048429
vt 0.014133 0.136788
vt 0.014133 0.125257
vt 0.025663 0.125257
vt 0.025663 0.136788
vt 0.037193 0.125257
vt 0.037193 0.136788
vt 0.048724 0.125257
vt 0.048724 0.136788
vt 0.060254 0.125257
vt 0.060254 0.136788
vt 0.037193 0.148318
vt 0.048724 0.148318
vt 0.037193 0.113727
vt 0.048724 0.113727
vt 0.228211 0.987244
vt 0.281511 0.965166
vt 0.303589 0.911866
vt 0.281511 0.858566
vt 0.228211 0.836488
vt 0.174911 0.858566
vt 0.152833 0.911866
vt 0.174911 0.965166
vt 0.167046 0.911866
vt 0.184961 0.868615
vt 0.228211 0.987244
vt 0.184961 0.955117
vt 0.228211 0.973032
vt 0.228211 0.850700
vt 0.271462 0.868615
vt 0.289377 0.911866
vt 0.271462 0.955117
vt 0.184961 0.955117
vt 0.271462 0.868615
vt 0.289377 0.911866
s 0
usemtl マテリアル.004
f 49/89/12 50/90/12 52/91/12 51/92/12
f 51/92/13 52/91/13 56/93/13 55/94/13
f 55/94/14 56/93/14 54/95/14 53/96/14
f 53/96/15 54/95/15 50/97/15 49/98/15
f 51/99/16 55/94/16 53/96/16 49/100/16
f 56/93/17 52/101/17 50/102/17 54/95/17
f 61/103/18 57/104/18 62/105/18 69/106/18
f 69/106/19 62/105/19 58/107/19 63/108/19
f 63/108/20 58/107/20 64/109/20 70/110/20
f 70/110/21 64/109/21 60/111/21 65/112/21
f 65/112/22 60/111/22 66/113/22 71/114/22
f 71/114/23 66/113/23 59/115/23 67/116/23
f 67/117/24 59/115/24 68/118/24 72/119/24
f 72/119/25 68/118/25 57/104/25 61/103/25
f 60/111/26 64/109/26 73/120/26 66/113/26
f 64/109/27 58/107/27 62/105/27 73/120/27
f 73/120/28 62/105/28 57/104/28 68/118/28
f 66/113/29 73/120/29 68/118/29 59/115/29
f 86/121/30 85/122/30 94/123/30 91/124/30
f 99/125/31 104/126/31 75/127/31 78/128/31
f 100/129/32 105/130/32 74/131/32 81/132/32
f 105/130/33 99/125/33 78/128/33 74/131/33
f 101/133/34 100/129/34 81/132/34 77/134/34
f 102/135/35 106/136/35 76/137/35 79/138/35
f 104/126/36 102/135/36 79/138/36 75/127/36
f 103/139/37 101/133/37 77/140/37 80/141/37
f 77/134/38 81/132/38 82/142/38
f 76/137/39 80/141/39 82/142/39
f 75/127/40 79/138/40 82/142/40
f 74/131/41 78/128/41 82/142/41
f 81/132/42 74/131/42 82/142/42
f 80/141/43 77/140/43 82/142/43
f 79/138/44 76/137/44 82/142/44
f 78/128/45 75/127/45 82/142/45
f 106/136/30 103/139/30 80/141/30 76/137/30
f 72/119/46 61/103/46 90/143/46 83/144/46
f 89/145/31 88/146/31 93/147/31 98/148/31
f 83/144/32 90/143/32 92/149/32 97/150/32
f 90/143/33 89/145/33 98/148/33 92/149/33
f 84/151/34 83/144/34 97/150/34 96/152/34
f 87/153/35 86/121/35 91/124/35 95/154/35
f 88/146/36 87/153/36 95/154/36 93/147/36
f 61/103/47 69/106/47 89/145/47 90/143/47
f 101/133/48 103/139/48 94/123/48 96/152/48
f 103/139/49 106/136/49 91/124/49 94/123/49
f 65/112/50 71/114/50 85/122/50 86/121/50
f 104/126/51 99/125/51 98/148/51 93/147/51
f 70/110/52 65/112/52 86/121/52 87/153/52
f 105/130/53 100/129/53 97/150/53 92/149/53
f 99/125/54 105/130/54 92/149/54 98/148/54
f 63/108/55 70/110/55 87/153/55 88/146/55
f 100/129/56 101/133/56 96/152/56 97/150/56
f 69/106/57 63/108/57 88/146/57 89/145/57
f 106/136/58 102/135/58 95/154/58 91/124/58
f 67/117/59 72/119/59 83/144/59 84/151/59
f 71/114/60 67/116/60 84/155/60 85/122/60
f 102/135/61 104/126/61 93/147/61 95/154/61
f 85/122/37 84/155/37 96/152/37 94/123/37
f 107/156/12 108/157/12 110/158/12 109/159/12
f 109/159/13 110/158/13 114/160/13 113/161/13
f 113/161/14 114/160/14 112/162/14 111/163/14
f 111/163/15 112/162/15 108/164/15 107/165/15
f 109/166/16 113/161/16 111/163/16 107/167/16
f 114/160/17 110/168/17 108/169/17 112/162/17
f 115/170/12 116/171/12 118/172/12 117/173/12
f 117/173/13 118/172/13 122/174/13 121/175/13
f 121/175/14 122/174/14 120/176/14 119/177/14
f 119/177/15 120/176/15 116/178/15 115/179/15
f 117/180/16 121/175/16 119/177/16 115/181/16
f 116/171/62 124/171/62 126/182/62 129/183/62 127/184/62 118/172/62
f 125/185/17 130/186/17 129/187/17 126/188/17
f 122/174/16 118/172/16 127/184/16 128/186/16
f 125/185/63 123/189/63 120/176/63 122/174/63 128/186/63 130/186/63
f 124/190/15 123/189/15 125/185/15 126/178/15
f 116/178/16 120/176/16 123/189/16 124/190/16
f 128/186/13 127/184/13 129/183/13 130/186/13
f 131/191/12 132/192/12 134/193/12 133/194/12
f 138/195/64 137/196/64 141/197/64 142/198/64
f 137/196/14 138/195/14 136/199/14 135/200/14
f 135/200/65 136/199/65 132/201/65 131/202/65
f 133/203/66 137/196/66 135/200/66 131/204/66
f 138/195/67 134/205/67 132/206/67 136/199/67
f 140/194/68 139/193/68 142/198/68 141/197/68
f 137/196/69 133/203/69 140/203/69 141/197/69
f 134/205/70 138/195/70 142/198/70 139/207/70
f 133/194/71 134/193/71 139/193/71 140/194/71
f 143/208/12 144/209/12 146/210/12 145/211/12
f 145/211/13 146/210/13 150/212/13 149/213/13
f 149/213/14 150/212/14 148/214/14 147/215/14
f 147/215/15 148/214/15 144/216/15 143/217/15
f 145/218/16 149/213/16 147/215/16 143/219/16
f 150/212/17 146/220/17 144/221/17 148/214/17
f 151/222/12 152/223/12 154/224/12 153/225/12
f 153/225/13 154/224/13 158/226/13 157/227/13
f 157/227/14 158/226/14 156/228/14 155/229/14
f 155/229/15 156/228/15 152/230/15 151/231/15
f 153/232/16 157/227/16 155/229/16 151/233/16
f 158/226/17 154/234/17 152/235/17 156/228/17
usemtl マテリアル
f 159/236/72 160/237/72 163/238/72 162/239/72
f 161/240/14 166/241/14 160/242/14 159/243/14
f 162/244/73 164/245/73 161/240/73 159/246/73
f 162/239/12 163/238/12 165/247/12 164/245/12
f 164/245/74 165/247/74 166/241/74 161/240/74
f 165/247/75 163/248/75 160/249/75 166/241/75
f 167/250/76 168/251/76 171/252/76 170/253/76
f 169/254/14 174/255/14 168/256/14 167/257/14
f 170/258/77 172/259/77 169/254/77 167/260/77
f 170/253/12 171/252/12 173/261/12 172/259/12
f 172/259/78 173/261/78 174/255/78 169/254/78
f 173/261/79 171/262/79 168/263/79 174/255/79
usemtl マテリアル.005
f 175/264/13 176/265/13 178/266/13 177/267/13
f 177/267/14 178/266/14 182/268/14 181/269/14
f 181/269/15 182/268/15 180/270/15 179/271/15
f 179/271/12 180/270/12 176/272/12 175/273/12
f 177/274/16 181/269/16 179/271/16 175/275/16
f 182/268/17 178/276/17 176/277/17 180/270/17
f 183/278/12 184/279/12 186/280/12 185/281/12
f 185/281/13 186/280/13 190/282/13 189/283/13
f 189/283/14 190/282/14 188/284/14 187/285/14
f 187/285/15 188/284/15 184/286/15 183/287/15
f 185/288/16 189/283/16 187/285/16 183/289/16
f 190/282/80 186/290/80 184/291/80 188/284/80
f 191/292/12 192/293/12 194/294/12 193/295/12
f 193/295/13 194/294/13 198/296/13 197/297/13
f 197/297/14 198/296/14 196/298/14 195/299/14
f 195/299/15 196/298/15 192/300/15 191/301/15
f 193/302/16 197/297/16 195/299/16 191/303/16
f 198/296/80 194/304/80 192/305/80 196/298/80
f 199/306/14 200/307/14 202/308/14 201/309/14
f 201/309/15 202/308/15 206/310/15 205/311/15
f 205/311/12 206/310/12 204/312/12 203/313/12
f 203/313/13 204/312/13 200/314/13 199/315/13
f 201/316/16 205/311/16 203/313/16 199/317/16
f 206/310/81 202/318/81 200/319/81 204/312/81
f 207/320/14 208/321/14 210/322/14 209/323/14
f 209/323/15 210/322/15 214/324/15 213/325/15
f 213/325/12 214/324/12 212/326/12 211/327/12
f 211/327/13 212/326/13 208/328/13 207/329/13
f 209/330/16 213/325/16 211/327/16 207/331/16
f 214/324/81 210/332/81 208/333/81 212/326/81
f 215/334/14 216/335/14 218/336/14 217/337/14
f 217/337/15 218/336/15 222/338/15 221/339/15
f 221/339/12 222/338/12 220/340/12 219/341/12
f 219/341/13 220/340/13 216/342/13 215/343/13
f 217/344/16 221/339/16 219/341/16 215/345/16
f 222/338/17 218/346/17 216/347/17 220/340/17
f 223/348/14 224/349/14 226/350/14 225/351/14
f 225/351/15 226/350/15 230/352/15 229/353/15
f 229/353/12 230/352/12 228/354/12 227/355/12
f 227/355/13 228/354/13 224/356/13 223/357/13
f 225/358/16 229/353/16 227/355/16 223/359/16
f 230/352/17 226/360/17 224/361/17 228/354/17
f 231/362/13 232/363/13 234/364/13 233/365/13
f 233/365/14 234/364/14 238/366/14 237/367/14
f 237/367/15 238/366/15 236/368/15 235/369/15
f 235/369/12 236/368/12 232/370/12 231/371/12
f 233/372/16 237/367/16 235/369/16 231/373/16
f 238/366/17 234/374/17 232/375/17 236/368/17
f 239/376/14 240/377/14 242/378/14 241/379/14
f 241/379/15 242/378/15 246/380/15 245/381/15
f 245/381/12 246/380/12 244/382/12 243/383/12
f 243/383/13 244/382/13 240/384/13 239/385/13
f 241/386/82 245/381/82 243/383/82 239/387/82
f 246/380/83 242/388/83 240/389/83 244/382/83
f 247/390/12 248/391/12 250/392/12 249/393/12
f 249/393/13 250/392/13 254/394/13 253/395/13
f 253/395/14 254/394/14 252/396/14 251/397/14
f 251/397/15 252/396/15 248/398/15 247/399/15
f 249/400/16 253/395/16 251/397/16 247/401/16
f 254/394/17 250/402/17 248/403/17 252/396/17
f 255/404/12 256/405/12 258/406/12 257/407/12
f 257/407/13 258/406/13 262/408/13 261/409/13
f 261/409/14 262/408/14 260/410/14 259/411/14
f 259/411/15 260/410/15 256/412/15 255/413/15
f 257/414/16 261/409/16 259/411/16 255/415/16
f 262/408/17 258/416/17 256/417/17 260/410/17
f 263/418/12 264/419/12 266/420/12 265/421/12
f 265/421/13 266/420/13 270/422/13 269/423/13
f 269/423/14 270/422/14 268/424/14 267/425/14
f 267/425/15 268/424/15 264/426/15 263/427/15
f 265/428/16 269/423/16 267/425/16 263/429/16
f 270/422/17 266/430/17 264/431/17 268/424/17
f 271/432/12 272/433/12 274/434/12 273/435/12
f 273/435/13 274/434/13 278/436/13 277/437/13
f 277/437/14 278/436/14 276/438/14 275/439/14
f 275/439/15 276/438/15 272/440/15 271/441/15
f 273/442/16 277/437/16 275/439/16 271/443/16
f 278/436/17 274/444/17 272/445/17 276/438/17
f 279/446/12 280/447/12 282/448/12 281/449/12
f 281/449/13 282/448/13 286/450/13 285/451/13
f 285/451/14 286/450/14 284/452/14 283/453/14
f 283/453/15 284/452/15 280/454/15 279/455/15
f 281/456/16 285/451/16 283/453/16 279/457/16
f 286/450/17 282/458/17 280/459/17 284/452/17
f 287/460/12 294/461/12 293/462/12 292/463/12 291/464/12 290/465/12 289/466/12 288/467/12
f 300/468/84 301/469/84 317/470/84 316/468/84
f 294/461/85 287/460/85 304/471/85 310/472/85
f 292/463/86 293/462/86 309/462/86 308/463/86
f 290/465/87 291/464/87 307/464/87 306/465/87
f 288/467/84 289/466/84 305/466/84 303/467/84
f 293/462/88 294/461/88 310/472/88 309/462/88
f 291/464/89 292/463/89 308/463/89 307/464/89
f 289/466/90 290/465/90 306/465/90 305/466/90
f 287/460/91 288/467/91 303/467/91 304/471/91
f 296/473/14 295/474/14 304/471/14 303/467/14
f 297/475/14 296/473/14 303/467/14 305/466/14
f 298/476/14 297/475/14 305/466/14 306/465/14
f 299/477/14 298/476/14 306/465/14 307/464/14
f 300/468/14 299/477/14 307/464/14 308/463/14
f 301/469/14 300/468/14 308/463/14 309/462/14
f 302/478/14 301/469/14 309/462/14 310/472/14
f 295/474/14 302/478/14 310/472/14 304/471/14
f 312/474/14 311/479/14 313/480/14 314/476/14 315/477/14 316/468/14 317/470/14 318/478/14
f 298/476/85 299/477/85 315/477/85 314/476/85
f 296/473/86 297/475/86 313/480/86 311/479/86
f 301/469/90 302/478/90 318/478/90 317/470/90
f 299/477/91 300/468/91 316/468/91 315/477/91
f 297/475/88 298/476/88 314/476/88 313/480/88
f 295/474/89 296/473/89 311/479/89 312/474/89
f 302/478/87 295/474/87 312/474/87 318/478/87
f 319/481/12 320/482/12 322/483/12 321/484/12
f 321/484/13 322/483/13 326/485/13 325/486/13
f 325/486/14 326/485/14 324/487/14 323/488/14
f 323/488/15 324/487/15 320/489/15 319/490/15
f 321/491/16 325/486/16 323/488/16 319/492/16
f 326/485/17 322/493/17 320/494/17 324/487/17
f 327/495/14 334/496/14 333/497/14 332/498/14 331/499/14 330/500/14 329/501/14 328/502/14
f 337/503/84 338/504/84 354/504/84 353/503/84
f 332/498/90 333/497/90 349/497/90 348/498/90
f 330/500/89 331/499/89 347/499/89 346/500/89
f 328/502/88 329/501/88 345/501/88 343/502/88
f 333/497/84 334/496/84 350/496/84 349/497/84
f 331/499/87 332/498/87 348/498/87 347/499/87
f 329/501/86 330/500/86 346/500/86 345/501/86
f 327/495/85 328/502/85 343/502/85 344/505/85
f 334/496/91 327/495/91 344/505/91 350/496/91
f 335/506/12 336/507/12 344/505/12 343/502/12
f 337/503/12 335/506/12 343/502/12 345/501/12
f 338/504/12 337/503/12 345/501/12 346/500/12
f 339/508/12 338/504/12 346/500/12 347/499/12
f 340/509/12 339/508/12 347/499/12 348/498/12
f 341/510/12 340/509/12 348/498/12 349/497/12
f 342/511/12 341/510/12 349/497/12 350/496/12
f 336/507/12 342/511/12 350/496/12 344/505/12
f 352/507/12 351/512/12 353/503/12 354/504/12 355/508/12 356/513/12 357/514/12 358/511/12
f 336/507/87 335/506/87 351/512/87 352/507/87
f 342/511/89 336/507/89 352/507/89 358/511/89
f 340/509/88 341/510/88 357/514/88 356/513/88
f 338/504/91 339/508/91 355/508/91 354/504/91
f 335/506/90 337/503/90 353/503/90 351/512/90
f 341/510/86 342/511/86 358/511/86 357/514/86
f 339/508/85 340/509/85 356/513/85 355/508/85
