# Blender 4.4.3
# www.blender.org
mtllib House1.mtl
o 本体
v -2.000000 0.300000 2.500000
v -2.000000 5.300000 2.500000
v -2.000000 0.300000 -1.500000
v -2.000000 5.300000 -1.500000
v 2.000000 0.300000 2.500000
v 2.000000 5.300000 2.500000
v 2.000000 0.300000 -1.500000
v 2.000000 5.300000 -1.500000
v -2.000000 2.800000 2.500000
v -2.000000 2.800000 -1.500000
v 2.000000 2.800000 -1.500000
v 2.000000 2.800000 2.500000
v -2.750000 -0.700000 3.000000
v -2.750000 0.300000 3.000000
v -2.750000 -0.700000 -3.000000
v -2.750000 0.300000 -3.000000
v 2.750000 -0.700000 3.000000
v 2.750000 0.300000 3.000000
v 2.750000 -0.700000 -3.000000
v 2.750000 0.300000 -3.000000
v -2.250000 2.550000 2.700000
v -2.250000 3.050000 2.700000
v -2.250000 2.550000 -1.700000
v -2.250000 3.050000 -1.700000
v 2.250000 2.550000 2.700000
v 2.250000 3.050000 2.700000
v 2.250000 2.550000 -1.700000
v 2.250000 3.050000 -1.700000
v -2.000000 5.300000 3.500000
v -2.000000 7.300000 0.511925
v -2.000000 5.300000 -2.500000
v -2.000000 7.300000 0.488075
v 2.000000 5.300000 3.500000
v 2.000000 7.300000 0.511925
v 2.000000 5.300000 -2.500000
v 2.000000 7.300000 0.488075
v -0.500000 5.300000 -1.000000
v -0.500000 7.300000 -1.000000
v -0.500000 5.300000 -2.000000
v -0.500000 7.300000 -2.000000
v 0.500000 5.300000 -1.000000
v 0.500000 7.300000 -1.000000
v 0.500000 5.300000 -2.000000
v 0.500000 7.300000 -2.000000
v 1.000000 0.300000 -2.500000
v 1.000000 1.800000 -2.500000
v 1.097545 0.300000 -2.490393
v 1.097545 1.800000 -2.490393
v 1.191342 0.300000 -2.461940
v 1.191342 1.800000 -2.461940
v 1.277785 0.300000 -2.415735
v 1.277785 1.800000 -2.415735
v 1.353553 0.300000 -2.353553
v 1.353553 1.800000 -2.353553
v 1.415735 0.300000 -2.277785
v 1.415735 1.800000 -2.277785
v 1.461940 0.300000 -2.191342
v 1.461940 1.800000 -2.191342
v 1.490393 0.300000 -2.097545
v 1.490393 1.800000 -2.097545
v 1.500000 0.300000 -2.000000
v 1.500000 1.800000 -2.000000
v 1.490393 0.300000 -1.902455
v 1.490393 1.800000 -1.902455
v 1.461940 0.300000 -1.808658
v 1.461940 1.800000 -1.808658
v 1.415735 0.300000 -1.722215
v 1.415735 1.800000 -1.722215
v 1.353553 0.300000 -1.646447
v 1.353553 1.800000 -1.646447
v 1.277785 0.300000 -1.584265
v 1.277785 1.800000 -1.584265
v 1.191342 0.300000 -1.538060
v 1.191342 1.800000 -1.538060
v 1.097545 0.300000 -1.509607
v 1.097545 1.800000 -1.509607
v 1.000000 0.300000 -1.500000
v 1.000000 1.800000 -1.500000
v 0.902455 0.300000 -1.509607
v 0.902455 1.800000 -1.509607
v 0.808658 0.300000 -1.538060
v 0.808658 1.800000 -1.538060
v 0.722215 0.300000 -1.584265
v 0.722215 1.800000 -1.584265
v 0.646447 0.300000 -1.646447
v 0.646447 1.800000 -1.646447
v 0.584265 0.300000 -1.722215
v 0.584265 1.800000 -1.722215
v 0.538060 0.300000 -1.808658
v 0.538060 1.800000 -1.808658
v 0.509607 0.300000 -1.902455
v 0.509607 1.800000 -1.902455
v 0.500000 0.300000 -2.000000
v 0.500000 1.800000 -2.000000
v 0.509607 0.300000 -2.097545
v 0.509607 1.800000 -2.097545
v 0.538060 0.300000 -2.191342
v 0.538060 1.800000 -2.191342
v 0.584265 0.300000 -2.277785
v 0.584265 1.800000 -2.277785
v 0.646447 0.300000 -2.353553
v 0.646447 1.800000 -2.353553
v 0.722215 0.300000 -2.415735
v 0.722215 1.800000 -2.415735
v 0.808658 0.300000 -2.461940
v 0.808658 1.800000 -2.461940
v 0.902455 0.300000 -2.490393
v 0.902455 1.800000 -2.490393
v 1.000000 3.800000 -1.750000
v 1.000000 3.800000 -1.250000
v 1.048773 3.795196 -1.750000
v 1.048773 3.795196 -1.250000
v 1.095671 3.780970 -1.750000
v 1.095671 3.780970 -1.250000
v 1.138893 3.757867 -1.750000
v 1.138893 3.757867 -1.250000
v 1.176777 3.726777 -1.750000
v 1.176777 3.726777 -1.250000
v 1.207867 3.688892 -1.750000
v 1.207867 3.688892 -1.250000
v 1.230970 3.645671 -1.750000
v 1.230970 3.645671 -1.250000
v 1.245196 3.598773 -1.750000
v 1.245196 3.598773 -1.250000
v 1.250000 3.550000 -1.750000
v 1.250000 3.550000 -1.250000
v 1.245196 3.501227 -1.750000
v 1.245196 3.501227 -1.250000
v 1.230970 3.454329 -1.750000
v 1.230970 3.454329 -1.250000
v 1.207867 3.411107 -1.750000
v 1.207867 3.411107 -1.250000
v 1.176777 3.373223 -1.750000
v 1.176777 3.373223 -1.250000
v 1.138893 3.342133 -1.750000
v 1.138893 3.342133 -1.250000
v 1.095671 3.319030 -1.750000
v 1.095671 3.319030 -1.250000
v 1.048773 3.304804 -1.750000
v 1.048773 3.304803 -1.250000
v 1.000000 3.300000 -1.750000
v 1.000000 3.300000 -1.250000
v 0.951227 3.304804 -1.750000
v 0.951227 3.304803 -1.250000
v 0.904329 3.319030 -1.750000
v 0.904329 3.319030 -1.250000
v 0.861107 3.342133 -1.750000
v 0.861107 3.342133 -1.250000
v 0.823223 3.373223 -1.750000
v 0.823223 3.373223 -1.250000
v 0.792133 3.411107 -1.750000
v 0.792133 3.411107 -1.250000
v 0.769030 3.454329 -1.750000
v 0.769030 3.454329 -1.250000
v 0.754804 3.501227 -1.750000
v 0.754804 3.501227 -1.250000
v 0.750000 3.550000 -1.750000
v 0.750000 3.550000 -1.250000
v 0.754804 3.598773 -1.750000
v 0.754804 3.598773 -1.250000
v 0.769030 3.645671 -1.750000
v 0.769030 3.645671 -1.250000
v 0.792133 3.688892 -1.750000
v 0.792133 3.688892 -1.250000
v 0.823223 3.726777 -1.750000
v 0.823223 3.726777 -1.250000
v 0.861107 3.757867 -1.750000
v 0.861107 3.757867 -1.250000
v 0.904329 3.780970 -1.750000
v 0.904329 3.780970 -1.250000
v 0.951227 3.795196 -1.750000
v 0.951227 3.795196 -1.250000
v 1.000000 1.800000 -2.250000
v 1.000000 3.300000 -2.250000
v 1.048773 1.800000 -2.245196
v 1.048773 3.300000 -2.245196
v 1.095671 1.800000 -2.230970
v 1.095671 3.300000 -2.230970
v 1.138893 1.800000 -2.207867
v 1.138893 3.300000 -2.207867
v 1.176777 1.800000 -2.176777
v 1.176777 3.300000 -2.176777
v 1.207867 1.800000 -2.138893
v 1.207867 3.300000 -2.138893
v 1.230970 1.800000 -2.095671
v 1.230970 3.300000 -2.095671
v 1.245196 1.800000 -2.048773
v 1.245196 3.300000 -2.048773
v 1.250000 1.800000 -2.000000
v 1.250000 3.300000 -2.000000
v 1.245196 1.800000 -1.951227
v 1.245196 3.300000 -1.951227
v 1.230970 1.800000 -1.904329
v 1.230970 3.300000 -1.904329
v 1.207867 1.800000 -1.861107
v 1.207867 3.300000 -1.861107
v 1.176777 1.800000 -1.823223
v 1.176777 3.300000 -1.823223
v 1.138893 1.800000 -1.792133
v 1.138893 3.300000 -1.792133
v 1.095671 1.800000 -1.769030
v 1.095671 3.300000 -1.769030
v 1.048773 1.800000 -1.754804
v 1.048773 3.300000 -1.754804
v 1.000000 1.800000 -1.750000
v 1.000000 3.300000 -1.750000
v 0.951227 1.800000 -1.754804
v 0.951227 3.300000 -1.754804
v 0.904329 1.800000 -1.769030
v 0.904329 3.300000 -1.769030
v 0.861107 1.800000 -1.792133
v 0.861107 3.300000 -1.792133
v 0.823223 1.800000 -1.823223
v 0.823223 3.300000 -1.823223
v 0.792133 1.800000 -1.861107
v 0.792133 3.300000 -1.861107
v 0.769030 1.800000 -1.904329
v 0.769030 3.300000 -1.904329
v 0.754804 1.800000 -1.951227
v 0.754804 3.300000 -1.951227
v 0.750000 1.800000 -2.000000
v 0.750000 3.300000 -2.000000
v 0.754804 1.800000 -2.048773
v 0.754804 3.300000 -2.048773
v 0.769030 1.800000 -2.095671
v 0.769030 3.300000 -2.095671
v 0.792133 1.800000 -2.138893
v 0.792133 3.300000 -2.138893
v 0.823223 1.800000 -2.176777
v 0.823223 3.300000 -2.176777
v 0.861107 1.800000 -2.207867
v 0.861107 3.300000 -2.207867
v 0.904329 1.800000 -2.230970
v 0.904329 3.300000 -2.230970
v 0.951227 1.800000 -2.245196
v 0.951227 3.300000 -2.245196
v 0.750000 3.300000 -1.750000
v 0.750000 3.800000 -1.750000
v 0.750000 3.300000 -2.250000
v 0.750000 3.800000 -2.250000
v 1.250000 3.300000 -1.750000
v 1.250000 3.800000 -1.750000
v 1.250000 3.300000 -2.250000
v 1.250000 3.800000 -2.250000
v 1.950000 0.300000 1.050000
v 1.950000 1.800000 1.050000
v 1.950000 0.300000 -0.050000
v 1.950000 1.800000 -0.050000
v 2.050000 0.300000 1.050000
v 2.050000 1.800000 1.050000
v 2.050000 0.300000 -0.050000
v 2.050000 1.800000 -0.050000
v 1.950000 4.300000 -0.250000
v 2.050000 4.300000 -0.250000
v 1.950000 4.153682 -0.235589
v 2.050000 4.153682 -0.235589
v 1.950000 4.012987 -0.192910
v 2.050000 4.012987 -0.192910
v 1.950000 3.883322 -0.123602
v 2.050000 3.883322 -0.123602
v 1.950000 3.769670 -0.030330
v 2.050000 3.769670 -0.030330
v 1.950000 3.676398 0.083322
v 2.050000 3.676398 0.083322
v 1.950000 3.607090 0.212987
v 2.050000 3.607090 0.212987
v 1.950000 3.564411 0.353682
v 2.050000 3.564411 0.353682
v 1.950000 3.550000 0.500000
v 2.050000 3.550000 0.500000
v 1.950000 3.564411 0.646318
v 2.050000 3.564411 0.646318
v 1.950000 3.607090 0.787013
v 2.050000 3.607090 0.787013
v 1.950000 3.676398 0.916678
v 2.050000 3.676398 0.916678
v 1.950000 3.769670 1.030330
v 2.050000 3.769670 1.030330
v 1.950000 3.883322 1.123602
v 2.050000 3.883322 1.123602
v 1.950000 4.012987 1.192910
v 2.050000 4.012987 1.192910
v 1.950000 4.153682 1.235589
v 2.050000 4.153682 1.235589
v 1.950000 4.300000 1.250000
v 2.050000 4.300000 1.250000
v 1.950000 4.446318 1.235589
v 2.050000 4.446318 1.235589
v 1.950000 4.587013 1.192910
v 2.050000 4.587013 1.192910
v 1.950000 4.716678 1.123602
v 2.050000 4.716678 1.123602
v 1.950000 4.830330 1.030330
v 2.050000 4.830330 1.030330
v 1.950000 4.923602 0.916678
v 2.050000 4.923602 0.916678
v 1.950000 4.992909 0.787013
v 2.050000 4.992909 0.787013
v 1.950000 5.035589 0.646318
v 2.050000 5.035589 0.646318
v 1.950000 5.050000 0.500000
v 2.050000 5.050000 0.500000
v 1.950000 5.035589 0.353682
v 2.050000 5.035589 0.353682
v 1.950000 4.992909 0.212987
v 2.050000 4.992909 0.212987
v 1.950000 4.923602 0.083322
v 2.050000 4.923602 0.083322
v 1.950000 4.830330 -0.030330
v 2.050000 4.830330 -0.030330
v 1.950000 4.716678 -0.123602
v 2.050000 4.716678 -0.123602
v 1.950000 4.587013 -0.192910
v 2.050000 4.587013 -0.192910
v 1.950000 4.446318 -0.235589
v 2.050000 4.446318 -0.235589
vn -1.0000 -0.0000 -0.0000
vn -0.0000 -0.0000 -1.0000
vn 1.0000 -0.0000 -0.0000
vn -0.0000 -0.0000 1.0000
vn -0.0000 -1.0000 -0.0000
vn -0.0000 1.0000 -0.0000
vn -0.0000 0.8310 -0.5562
vn -0.0000 0.8310 0.5562
vn 0.0980 -0.0000 -0.9952
vn 0.2903 -0.0000 -0.9569
vn 0.4714 -0.0000 -0.8819
vn 0.6344 -0.0000 -0.7730
vn 0.7730 -0.0000 -0.6344
vn 0.8819 -0.0000 -0.4714
vn 0.9569 -0.0000 -0.2903
vn 0.9952 -0.0000 -0.0980
vn 0.9952 -0.0000 0.0980
vn 0.9569 -0.0000 0.2903
vn 0.8819 -0.0000 0.4714
vn 0.7730 -0.0000 0.6344
vn 0.6344 -0.0000 0.7730
vn 0.4714 -0.0000 0.8819
vn 0.2903 -0.0000 0.9569
vn 0.0980 -0.0000 0.9952
vn -0.0980 -0.0000 0.9952
vn -0.2903 -0.0000 0.9569
vn -0.4714 -0.0000 0.8819
vn -0.6344 -0.0000 0.7730
vn -0.7730 -0.0000 0.6344
vn -0.8819 -0.0000 0.4714
vn -0.9569 -0.0000 0.2903
vn -0.9952 -0.0000 0.0980
vn -0.9952 -0.0000 -0.0980
vn -0.9569 -0.0000 -0.2903
vn -0.8819 -0.0000 -0.4714
vn -0.7730 -0.0000 -0.6344
vn -0.6344 -0.0000 -0.7730
vn -0.4714 -0.0000 -0.8819
vn -0.2903 -0.0000 -0.9569
vn -0.0980 -0.0000 -0.9952
vn 0.0980 0.9952 -0.0000
vn 0.2903 0.9569 -0.0000
vn 0.4714 0.8819 -0.0000
vn 0.6344 0.7730 -0.0000
vn 0.7730 0.6344 -0.0000
vn 0.8819 0.4714 -0.0000
vn 0.9569 0.2903 -0.0000
vn 0.9952 0.0980 -0.0000
vn 0.9952 -0.0980 -0.0000
vn 0.9569 -0.2903 -0.0000
vn 0.8819 -0.4714 -0.0000
vn 0.7730 -0.6344 -0.0000
vn 0.6344 -0.7730 -0.0000
vn 0.4714 -0.8819 -0.0000
vn 0.2903 -0.9569 -0.0000
vn 0.0980 -0.9952 -0.0000
vn -0.0980 -0.9952 -0.0000
vn -0.2903 -0.9569 -0.0000
vn -0.4714 -0.8819 -0.0000
vn -0.6344 -0.7730 -0.0000
vn -0.7730 -0.6344 -0.0000
vn -0.8819 -0.4714 -0.0000
vn -0.9569 -0.2903 -0.0000
vn -0.9952 -0.0980 -0.0000
vn -0.9952 0.0980 -0.0000
vn -0.9569 0.2903 -0.0000
vn -0.8819 0.4714 -0.0000
vn -0.7730 0.6344 -0.0000
vn -0.6344 0.7730 -0.0000
vn -0.4714 0.8819 -0.0000
vn -0.2903 0.9569 -0.0000
vn -0.0980 0.9952 -0.0000
vn -0.0000 -0.0980 -0.9952
vn -0.0000 -0.2903 -0.9569
vn -0.0000 -0.4714 -0.8819
vn -0.0000 -0.6344 -0.7730
vn -0.0000 -0.7730 -0.6344
vn -0.0000 -0.8819 -0.4714
vn -0.0000 -0.9569 -0.2903
vn -0.0000 -0.9952 -0.0980
vn -0.0000 -0.9952 0.0980
vn -0.0000 -0.9569 0.2903
vn -0.0000 -0.8819 0.4714
vn -0.0000 -0.7730 0.6344
vn -0.0000 -0.6344 0.7730
vn -0.0000 -0.4714 0.8819
vn -0.0000 -0.2903 0.9569
vn -0.0000 -0.0980 0.9952
vn -0.0000 0.0980 0.9952
vn -0.0000 0.2903 0.9569
vn -0.0000 0.4714 0.8819
vn -0.0000 0.6344 0.7730
vn -0.0000 0.7730 0.6344
vn -0.0000 0.8819 0.4714
vn -0.0000 0.9569 0.2903
vn -0.0000 0.9952 0.0980
vn -0.0000 0.9952 -0.0980
vn -0.0000 0.9569 -0.2903
vn -0.0000 0.8819 -0.4714
vn -0.0000 0.7730 -0.6344
vn -0.0000 0.6344 -0.7730
vn -0.0000 0.4714 -0.8819
vn -0.0000 0.2903 -0.9569
vn -0.0000 0.0980 -0.9952
vt 0.408515 0.014350
vt 0.449122 0.014350
vt 0.449122 0.095564
vt 0.408515 0.095564
vt 0.449122 0.176779
vt 0.408515 0.176779
vt 0.449122 0.257993
vt 0.408515 0.257993
vt 0.449122 0.339208
vt 0.408515 0.339208
vt 0.286693 0.176779
vt 0.367907 0.176779
vt 0.367907 0.257993
vt 0.286693 0.257993
vt 0.530336 0.176779
vt 0.530336 0.257993
vt 0.367907 0.339208
vt 0.367907 0.095564
vt 0.367907 0.014350
vt 0.095564 0.014350
vt 0.176779 0.014350
vt 0.176779 0.095564
vt 0.095564 0.095564
vt 0.176779 0.176779
vt 0.095564 0.176779
vt 0.176779 0.257993
vt 0.095564 0.257993
vt 0.176779 0.339208
vt 0.095564 0.339208
vt 0.014350 0.176779
vt 0.014350 0.257993
vt 0.257993 0.176779
vt 0.257993 0.257993
vt 0.095564 0.367907
vt 0.176779 0.367907
vt 0.176779 0.449122
vt 0.095564 0.449122
vt 0.176779 0.530336
vt 0.095564 0.530336
vt 0.176779 0.611551
vt 0.095564 0.611551
vt 0.176779 0.692765
vt 0.095564 0.692765
vt 0.014350 0.530336
vt 0.014350 0.611551
vt 0.257993 0.530336
vt 0.257993 0.611551
vt 0.014350 0.721465
vt 0.097777 0.757123
vt 0.097796 0.757446
vt 0.019069 0.802542
vt 0.138163 0.827917
vt 0.059436 0.873014
vt 0.138432 0.828097
vt 0.126986 0.918100
vt 0.218998 0.838342
vt 0.207552 0.928346
vt 0.014350 0.940564
vt 0.081900 0.985650
vt 0.183251 0.760367
vt 0.183519 0.760546
vt 0.367907 0.367907
vt 0.449122 0.367907
vt 0.449122 0.449122
vt 0.367907 0.449122
vt 0.449122 0.530336
vt 0.367907 0.530336
vt 0.449122 0.611551
vt 0.367907 0.611551
vt 0.449122 0.692765
vt 0.367907 0.692765
vt 0.286693 0.530336
vt 0.286693 0.611551
vt 0.530336 0.530336
vt 0.530336 0.611551
vt 0.831379 0.014350
vt 0.894484 0.014350
vt 0.894484 0.020535
vt 0.831379 0.020535
vt 0.894484 0.026721
vt 0.831379 0.026721
vt 0.894484 0.032906
vt 0.831379 0.032906
vt 0.894484 0.039091
vt 0.831379 0.039091
vt 0.894484 0.045277
vt 0.831379 0.045277
vt 0.894484 0.051462
vt 0.831379 0.051462
vt 0.894484 0.057648
vt 0.831379 0.057648
vt 0.894484 0.063833
vt 0.831379 0.063833
vt 0.894484 0.070018
vt 0.831379 0.070018
vt 0.894484 0.076204
vt 0.831379 0.076204
vt 0.894484 0.082389
vt 0.831379 0.082389
vt 0.894484 0.088574
vt 0.831379 0.088574
vt 0.894484 0.094760
vt 0.831379 0.094760
vt 0.894484 0.100945
vt 0.831379 0.100945
vt 0.894484 0.107131
vt 0.831379 0.107131
vt 0.894484 0.113316
vt 0.831379 0.113316
vt 0.894484 0.119501
vt 0.831379 0.119501
vt 0.894484 0.125687
vt 0.831379 0.125687
vt 0.894484 0.131872
vt 0.831379 0.131872
vt 0.894484 0.138057
vt 0.831379 0.138058
vt 0.894484 0.144243
vt 0.831379 0.144243
vt 0.894484 0.150428
vt 0.831379 0.150428
vt 0.894484 0.156614
vt 0.831379 0.156614
vt 0.894484 0.162799
vt 0.831379 0.162799
vt 0.894484 0.168984
vt 0.831379 0.168984
vt 0.894484 0.175170
vt 0.831379 0.175170
vt 0.894484 0.181355
vt 0.831379 0.181355
vt 0.894484 0.187541
vt 0.831379 0.187541
vt 0.894484 0.193726
vt 0.831379 0.193726
vt 0.894484 0.199911
vt 0.831379 0.199911
vt 0.630228 0.780692
vt 0.625085 0.777256
vt 0.620711 0.772882
vt 0.617275 0.767739
vt 0.614908 0.762025
vt 0.613701 0.755958
vt 0.613701 0.749773
vt 0.614908 0.743706
vt 0.617275 0.737992
vt 0.620711 0.732849
vt 0.625085 0.728475
vt 0.630228 0.725039
vt 0.635943 0.722672
vt 0.642009 0.721465
vt 0.648195 0.721465
vt 0.654261 0.722672
vt 0.659976 0.725039
vt 0.665119 0.728475
vt 0.669492 0.732849
vt 0.672929 0.737992
vt 0.675296 0.743706
vt 0.676502 0.749773
vt 0.676502 0.755958
vt 0.675296 0.762025
vt 0.672929 0.767739
vt 0.669492 0.772882
vt 0.665119 0.777256
vt 0.659976 0.780692
vt 0.654261 0.783059
vt 0.648195 0.784266
vt 0.642009 0.784266
vt 0.635943 0.783059
vt 0.894484 0.206097
vt 0.831379 0.206097
vt 0.894484 0.212282
vt 0.831379 0.212282
vt 0.299115 0.728475
vt 0.303488 0.732849
vt 0.306925 0.737992
vt 0.309292 0.743706
vt 0.310499 0.749773
vt 0.310499 0.755958
vt 0.309292 0.762025
vt 0.306925 0.767739
vt 0.303488 0.772882
vt 0.299115 0.777256
vt 0.293972 0.780692
vt 0.288257 0.783059
vt 0.282191 0.784266
vt 0.276005 0.784266
vt 0.269939 0.783059
vt 0.264224 0.780692
vt 0.259081 0.777256
vt 0.254708 0.772882
vt 0.251271 0.767739
vt 0.248904 0.762025
vt 0.247697 0.755958
vt 0.247697 0.749773
vt 0.248904 0.743706
vt 0.251271 0.737992
vt 0.254708 0.732849
vt 0.259081 0.728475
vt 0.264224 0.725039
vt 0.269939 0.722672
vt 0.276005 0.721465
vt 0.282191 0.721465
vt 0.288257 0.722672
vt 0.293972 0.725039
vt 0.831379 0.240982
vt 0.894484 0.240982
vt 0.894484 0.247167
vt 0.831379 0.247167
vt 0.894484 0.253353
vt 0.831379 0.253353
vt 0.894484 0.259538
vt 0.831379 0.259538
vt 0.894484 0.265723
vt 0.831379 0.265723
vt 0.894484 0.271909
vt 0.831379 0.271909
vt 0.894484 0.278094
vt 0.831379 0.278094
vt 0.894484 0.284280
vt 0.831379 0.284280
vt 0.894484 0.290465
vt 0.831379 0.290465
vt 0.894484 0.296650
vt 0.831379 0.296650
vt 0.894484 0.302836
vt 0.831379 0.302836
vt 0.894484 0.309021
vt 0.831379 0.309021
vt 0.894484 0.315206
vt 0.831379 0.315206
vt 0.894484 0.321392
vt 0.831379 0.321392
vt 0.894484 0.327577
vt 0.831379 0.327577
vt 0.894484 0.333763
vt 0.831379 0.333763
vt 0.894484 0.339948
vt 0.831379 0.339948
vt 0.894484 0.346133
vt 0.831379 0.346133
vt 0.894484 0.352319
vt 0.831379 0.352319
vt 0.894484 0.358504
vt 0.831379 0.358504
vt 0.894484 0.364689
vt 0.831379 0.364689
vt 0.894484 0.370875
vt 0.831379 0.370875
vt 0.894484 0.377060
vt 0.831379 0.377060
vt 0.894484 0.383246
vt 0.831379 0.383246
vt 0.894484 0.389431
vt 0.831379 0.389431
vt 0.894484 0.395616
vt 0.831379 0.395616
vt 0.894484 0.401802
vt 0.831379 0.401802
vt 0.894484 0.407987
vt 0.831379 0.407987
vt 0.894484 0.414173
vt 0.831379 0.414173
vt 0.894484 0.420358
vt 0.831379 0.420358
vt 0.894484 0.426543
vt 0.831379 0.426543
vt 0.721729 0.780692
vt 0.716586 0.777256
vt 0.712212 0.772882
vt 0.708776 0.767739
vt 0.706409 0.762025
vt 0.705202 0.755958
vt 0.705202 0.749773
vt 0.706409 0.743706
vt 0.708776 0.737992
vt 0.712212 0.732849
vt 0.716586 0.728475
vt 0.721729 0.725039
vt 0.727444 0.722672
vt 0.733510 0.721465
vt 0.739696 0.721465
vt 0.745762 0.722672
vt 0.751477 0.725039
vt 0.756620 0.728475
vt 0.760993 0.732849
vt 0.764430 0.737992
vt 0.766797 0.743706
vt 0.768003 0.749773
vt 0.768003 0.755958
vt 0.766797 0.762025
vt 0.764430 0.767739
vt 0.760993 0.772882
vt 0.756620 0.777256
vt 0.751477 0.780692
vt 0.745762 0.783059
vt 0.739696 0.784266
vt 0.733510 0.784266
vt 0.727444 0.783059
vt 0.894484 0.432729
vt 0.831379 0.432729
vt 0.894484 0.438914
vt 0.831379 0.438914
vt 0.390616 0.728475
vt 0.394989 0.732849
vt 0.398426 0.737992
vt 0.400793 0.743706
vt 0.402000 0.749773
vt 0.402000 0.755958
vt 0.400793 0.762025
vt 0.398426 0.767739
vt 0.394989 0.772882
vt 0.390616 0.777256
vt 0.385473 0.780692
vt 0.379758 0.783059
vt 0.373692 0.784266
vt 0.367506 0.784266
vt 0.361440 0.783059
vt 0.355725 0.780692
vt 0.350582 0.777256
vt 0.346208 0.772882
vt 0.342772 0.767739
vt 0.340405 0.762025
vt 0.339198 0.755958
vt 0.339198 0.749773
vt 0.340405 0.743706
vt 0.342772 0.737992
vt 0.346208 0.732849
vt 0.350582 0.728475
vt 0.355725 0.725039
vt 0.361440 0.722672
vt 0.367506 0.721465
vt 0.373692 0.721465
vt 0.379758 0.722672
vt 0.385473 0.725039
vt 0.831379 0.467614
vt 0.894484 0.467614
vt 0.894484 0.473799
vt 0.831379 0.473799
vt 0.894484 0.479985
vt 0.831379 0.479985
vt 0.894484 0.486170
vt 0.831379 0.486170
vt 0.894484 0.492355
vt 0.831379 0.492355
vt 0.894484 0.498541
vt 0.831379 0.498541
vt 0.894484 0.504726
vt 0.831379 0.504726
vt 0.894484 0.510911
vt 0.831379 0.510911
vt 0.894484 0.517097
vt 0.831379 0.517097
vt 0.894484 0.523282
vt 0.831379 0.523282
vt 0.894484 0.529468
vt 0.831379 0.529468
vt 0.894484 0.535653
vt 0.831379 0.535653
vt 0.894484 0.541838
vt 0.831379 0.541838
vt 0.894484 0.548024
vt 0.831379 0.548024
vt 0.894484 0.554209
vt 0.831379 0.554209
vt 0.894484 0.560394
vt 0.831379 0.560395
vt 0.894484 0.566580
vt 0.831379 0.566580
vt 0.894484 0.572765
vt 0.831379 0.572765
vt 0.894484 0.578951
vt 0.831379 0.578951
vt 0.894484 0.585136
vt 0.831379 0.585136
vt 0.894484 0.591321
vt 0.831379 0.591321
vt 0.894484 0.597507
vt 0.831379 0.597507
vt 0.894484 0.603692
vt 0.831379 0.603692
vt 0.894484 0.609878
vt 0.831379 0.609878
vt 0.894484 0.616063
vt 0.831379 0.616063
vt 0.894484 0.622248
vt 0.831379 0.622248
vt 0.894484 0.628434
vt 0.831379 0.628434
vt 0.894484 0.634619
vt 0.831379 0.634619
vt 0.894484 0.640804
vt 0.831379 0.640804
vt 0.894484 0.646990
vt 0.831379 0.646990
vt 0.894484 0.653175
vt 0.831379 0.653175
vt 0.264224 0.872193
vt 0.259081 0.868757
vt 0.254707 0.864383
vt 0.251271 0.859240
vt 0.248904 0.853526
vt 0.247697 0.847459
vt 0.247697 0.841274
vt 0.248904 0.835207
vt 0.251271 0.829493
vt 0.254708 0.824350
vt 0.259081 0.819976
vt 0.264224 0.816540
vt 0.269939 0.814173
vt 0.276005 0.812966
vt 0.282191 0.812966
vt 0.288257 0.814173
vt 0.293972 0.816540
vt 0.299115 0.819976
vt 0.303488 0.824350
vt 0.306925 0.829493
vt 0.309292 0.835207
vt 0.310499 0.841274
vt 0.310499 0.847459
vt 0.309292 0.853526
vt 0.306925 0.859240
vt 0.303488 0.864383
vt 0.299115 0.868757
vt 0.293972 0.872193
vt 0.288257 0.874560
vt 0.282191 0.875767
vt 0.276005 0.875767
vt 0.269939 0.874560
vt 0.894484 0.659361
vt 0.831379 0.659361
vt 0.894484 0.665546
vt 0.831379 0.665546
vt 0.482117 0.728475
vt 0.486490 0.732849
vt 0.489927 0.737992
vt 0.492294 0.743706
vt 0.493501 0.749773
vt 0.493501 0.755958
vt 0.492294 0.762025
vt 0.489927 0.767739
vt 0.486490 0.772882
vt 0.482117 0.777256
vt 0.476974 0.780692
vt 0.471259 0.783059
vt 0.465193 0.784266
vt 0.459007 0.784266
vt 0.452941 0.783059
vt 0.447226 0.780692
vt 0.442083 0.777256
vt 0.437709 0.772882
vt 0.434273 0.767739
vt 0.431906 0.762025
vt 0.430699 0.755958
vt 0.430699 0.749773
vt 0.431906 0.743706
vt 0.434273 0.737992
vt 0.437709 0.732849
vt 0.442083 0.728475
vt 0.447226 0.725039
vt 0.452941 0.722672
vt 0.459007 0.721465
vt 0.465193 0.721465
vt 0.471259 0.722672
vt 0.476974 0.725039
vt 0.640251 0.014350
vt 0.721465 0.014350
vt 0.721465 0.095564
vt 0.640251 0.095564
vt 0.721465 0.176779
vt 0.640251 0.176779
vt 0.721465 0.257993
vt 0.640251 0.257993
vt 0.721465 0.339208
vt 0.640251 0.339208
vt 0.559036 0.176779
vt 0.559036 0.257993
vt 0.802679 0.176779
vt 0.802679 0.257993
vt 0.640251 0.367907
vt 0.721465 0.367907
vt 0.721465 0.449122
vt 0.640251 0.449122
vt 0.721465 0.530336
vt 0.640251 0.530336
vt 0.721465 0.611551
vt 0.640251 0.611551
vt 0.721465 0.692765
vt 0.640251 0.692765
vt 0.559036 0.530336
vt 0.559036 0.611551
vt 0.802679 0.530336
vt 0.802679 0.611551
vt 0.831379 0.694246
vt 0.894484 0.694246
vt 0.894484 0.700431
vt 0.831379 0.700431
vt 0.894484 0.706617
vt 0.831379 0.706617
vt 0.894484 0.712802
vt 0.831379 0.712802
vt 0.894484 0.718987
vt 0.831379 0.718987
vt 0.894484 0.725173
vt 0.831379 0.725173
vt 0.894484 0.731358
vt 0.831379 0.731358
vt 0.894484 0.737543
vt 0.831379 0.737543
vt 0.894484 0.743729
vt 0.831379 0.743729
vt 0.894484 0.749914
vt 0.831379 0.749914
vt 0.894484 0.756100
vt 0.831379 0.756100
vt 0.894484 0.762285
vt 0.831379 0.762285
vt 0.894484 0.768470
vt 0.831379 0.768470
vt 0.894484 0.774656
vt 0.831379 0.774656
vt 0.894484 0.780841
vt 0.831379 0.780841
vt 0.894484 0.787026
vt 0.831379 0.787026
vt 0.894484 0.793212
vt 0.831379 0.793212
vt 0.894484 0.799397
vt 0.831379 0.799397
vt 0.894484 0.805583
vt 0.831379 0.805583
vt 0.894484 0.811768
vt 0.831379 0.811768
vt 0.894484 0.817953
vt 0.831379 0.817953
vt 0.894484 0.824139
vt 0.831379 0.824139
vt 0.894484 0.830324
vt 0.831379 0.830324
vt 0.894484 0.836509
vt 0.831379 0.836510
vt 0.894484 0.842695
vt 0.831379 0.842695
vt 0.894484 0.848880
vt 0.831379 0.848880
vt 0.894484 0.855066
vt 0.831379 0.855066
vt 0.894484 0.861251
vt 0.831379 0.861251
vt 0.894484 0.867436
vt 0.831379 0.867436
vt 0.894484 0.873622
vt 0.831379 0.873622
vt 0.894484 0.879807
vt 0.831379 0.879807
vt 0.355725 0.872193
vt 0.350582 0.868757
vt 0.346208 0.864383
vt 0.342772 0.859240
vt 0.340405 0.853526
vt 0.339198 0.847459
vt 0.339198 0.841274
vt 0.340405 0.835207
vt 0.342772 0.829493
vt 0.346209 0.824350
vt 0.350582 0.819976
vt 0.355725 0.816540
vt 0.361440 0.814173
vt 0.367506 0.812966
vt 0.373692 0.812966
vt 0.379758 0.814173
vt 0.385473 0.816540
vt 0.390616 0.819976
vt 0.394989 0.824350
vt 0.398426 0.829493
vt 0.400793 0.835207
vt 0.402000 0.841274
vt 0.402000 0.847459
vt 0.400793 0.853526
vt 0.398426 0.859240
vt 0.394989 0.864383
vt 0.390616 0.868757
vt 0.385473 0.872193
vt 0.379758 0.874560
vt 0.373692 0.875767
vt 0.367506 0.875767
vt 0.361440 0.874560
vt 0.894484 0.885993
vt 0.831379 0.885993
vt 0.894484 0.892178
vt 0.831379 0.892178
vt 0.573618 0.728475
vt 0.577991 0.732849
vt 0.581428 0.737992
vt 0.583795 0.743706
vt 0.585002 0.749773
vt 0.585002 0.755958
vt 0.583795 0.762025
vt 0.581428 0.767739
vt 0.577991 0.772882
vt 0.573618 0.777256
vt 0.568475 0.780692
vt 0.562760 0.783059
vt 0.556694 0.784266
vt 0.550508 0.784266
vt 0.544442 0.783059
vt 0.538727 0.780692
vt 0.533584 0.777256
vt 0.529211 0.772882
vt 0.525774 0.767739
vt 0.523407 0.762025
vt 0.522200 0.755958
vt 0.522200 0.749773
vt 0.523407 0.743706
vt 0.525774 0.737992
vt 0.529211 0.732849
vt 0.533584 0.728475
vt 0.538727 0.725039
vt 0.544442 0.722672
vt 0.550508 0.721465
vt 0.556694 0.721465
vt 0.562760 0.722672
vt 0.568475 0.725039
s 0
usemtl マテリアル
f 9/1/1 2/2/1 4/3/1 10/4/1
f 10/4/2 4/3/2 8/5/2 11/6/2
f 11/6/3 8/5/3 6/7/3 12/8/3
f 12/8/4 6/7/4 2/9/4 9/10/4
f 3/11/5 7/12/5 5/13/5 1/14/5
f 8/5/6 4/15/6 2/16/6 6/7/6
f 5/13/4 12/8/4 9/10/4 1/17/4
f 7/12/3 11/6/3 12/8/3 5/13/3
f 3/18/2 10/4/2 11/6/2 7/12/2
f 1/19/1 9/1/1 10/4/1 3/18/1
usemtl マテリアル.001
f 13/20/1 14/21/1 16/22/1 15/23/1
f 15/23/2 16/22/2 20/24/2 19/25/2
f 19/25/3 20/24/3 18/26/3 17/27/3
f 17/27/4 18/26/4 14/28/4 13/29/4
f 15/30/5 19/25/5 17/27/5 13/31/5
f 20/24/6 16/32/6 14/33/6 18/26/6
f 21/34/1 22/35/1 24/36/1 23/37/1
f 23/37/2 24/36/2 28/38/2 27/39/2
f 27/39/3 28/38/3 26/40/3 25/41/3
f 25/41/4 26/40/4 22/42/4 21/43/4
f 23/44/5 27/39/5 25/41/5 21/45/5
f 28/38/6 24/46/6 22/47/6 26/40/6
f 29/48/1 30/49/1 32/50/1 31/51/1
f 31/51/7 32/50/7 36/52/7 35/53/7
f 35/53/3 36/52/3 34/54/3 33/55/3
f 33/55/8 34/54/8 30/56/8 29/57/8
f 31/58/5 35/53/5 33/55/5 29/59/5
f 36/52/6 32/60/6 30/61/6 34/54/6
f 37/62/1 38/63/1 40/64/1 39/65/1
f 39/65/2 40/64/2 44/66/2 43/67/2
f 43/67/3 44/66/3 42/68/3 41/69/3
f 41/69/4 42/68/4 38/70/4 37/71/4
f 39/72/5 43/67/5 41/69/5 37/73/5
f 44/66/6 40/74/6 38/75/6 42/68/6
f 45/76/9 46/77/9 48/78/9 47/79/9
f 47/79/10 48/78/10 50/80/10 49/81/10
f 49/81/11 50/80/11 52/82/11 51/83/11
f 51/83/12 52/82/12 54/84/12 53/85/12
f 53/85/13 54/84/13 56/86/13 55/87/13
f 55/87/14 56/86/14 58/88/14 57/89/14
f 57/89/15 58/88/15 60/90/15 59/91/15
f 59/91/16 60/90/16 62/92/16 61/93/16
f 61/93/17 62/92/17 64/94/17 63/95/17
f 63/95/18 64/94/18 66/96/18 65/97/18
f 65/97/19 66/96/19 68/98/19 67/99/19
f 67/99/20 68/98/20 70/100/20 69/101/20
f 69/101/21 70/100/21 72/102/21 71/103/21
f 71/103/22 72/102/22 74/104/22 73/105/22
f 73/105/23 74/104/23 76/106/23 75/107/23
f 75/107/24 76/106/24 78/108/24 77/109/24
f 77/109/25 78/108/25 80/110/25 79/111/25
f 79/111/26 80/110/26 82/112/26 81/113/26
f 81/113/27 82/112/27 84/114/27 83/115/27
f 83/115/28 84/114/28 86/116/28 85/117/28
f 85/117/29 86/116/29 88/118/29 87/119/29
f 87/119/30 88/118/30 90/120/30 89/121/30
f 89/121/31 90/120/31 92/122/31 91/123/31
f 91/123/32 92/122/32 94/124/32 93/125/32
f 93/125/33 94/124/33 96/126/33 95/127/33
f 95/127/34 96/126/34 98/128/34 97/129/34
f 97/129/35 98/128/35 100/130/35 99/131/35
f 99/131/36 100/130/36 102/132/36 101/133/36
f 101/133/37 102/132/37 104/134/37 103/135/37
f 103/135/38 104/134/38 106/136/38 105/137/38
f 48/138/6 46/139/6 108/140/6 106/141/6 104/142/6 102/143/6 100/144/6 98/145/6 96/146/6 94/147/6 92/148/6 90/149/6 88/150/6 86/151/6 84/152/6 82/153/6 80/154/6 78/155/6 76/156/6 74/157/6 72/158/6 70/159/6 68/160/6 66/161/6 64/162/6 62/163/6 60/164/6 58/165/6 56/166/6 54/167/6 52/168/6 50/169/6
f 105/137/39 106/136/39 108/170/39 107/171/39
f 107/171/40 108/170/40 46/172/40 45/173/40
f 45/174/5 47/175/5 49/176/5 51/177/5 53/178/5 55/179/5 57/180/5 59/181/5 61/182/5 63/183/5 65/184/5 67/185/5 69/186/5 71/187/5 73/188/5 75/189/5 77/190/5 79/191/5 81/192/5 83/193/5 85/194/5 87/195/5 89/196/5 91/197/5 93/198/5 95/199/5 97/200/5 99/201/5 101/202/5 103/203/5 105/204/5 107/205/5
f 109/206/41 110/207/41 112/208/41 111/209/41
f 111/209/42 112/208/42 114/210/42 113/211/42
f 113/211/43 114/210/43 116/212/43 115/213/43
f 115/213/44 116/212/44 118/214/44 117/215/44
f 117/215/45 118/214/45 120/216/45 119/217/45
f 119/217/46 120/216/46 122/218/46 121/219/46
f 121/219/47 122/218/47 124/220/47 123/221/47
f 123/221/48 124/220/48 126/222/48 125/223/48
f 125/223/49 126/222/49 128/224/49 127/225/49
f 127/225/50 128/224/50 130/226/50 129/227/50
f 129/227/51 130/226/51 132/228/51 131/229/51
f 131/229/52 132/228/52 134/230/52 133/231/52
f 133/231/53 134/230/53 136/232/53 135/233/53
f 135/233/54 136/232/54 138/234/54 137/235/54
f 137/235/55 138/234/55 140/236/55 139/237/55
f 139/237/56 140/236/56 142/238/56 141/239/56
f 141/239/57 142/238/57 144/240/57 143/241/57
f 143/241/58 144/240/58 146/242/58 145/243/58
f 145/243/59 146/242/59 148/244/59 147/245/59
f 147/245/60 148/244/60 150/246/60 149/247/60
f 149/247/61 150/246/61 152/248/61 151/249/61
f 151/249/62 152/248/62 154/250/62 153/251/62
f 153/251/63 154/250/63 156/252/63 155/253/63
f 155/253/64 156/252/64 158/254/64 157/255/64
f 157/255/65 158/254/65 160/256/65 159/257/65
f 159/257/66 160/256/66 162/258/66 161/259/66
f 161/259/67 162/258/67 164/260/67 163/261/67
f 163/261/68 164/260/68 166/262/68 165/263/68
f 165/263/69 166/262/69 168/264/69 167/265/69
f 167/265/70 168/264/70 170/266/70 169/267/70
f 112/268/4 110/269/4 172/270/4 170/271/4 168/272/4 166/273/4 164/274/4 162/275/4 160/276/4 158/277/4 156/278/4 154/279/4 152/280/4 150/281/4 148/282/4 146/283/4 144/284/4 142/285/4 140/286/4 138/287/4 136/288/4 134/289/4 132/290/4 130/291/4 128/292/4 126/293/4 124/294/4 122/295/4 120/296/4 118/297/4 116/298/4 114/299/4
f 169/267/71 170/266/71 172/300/71 171/301/71
f 171/301/72 172/300/72 110/302/72 109/303/72
f 109/304/2 111/305/2 113/306/2 115/307/2 117/308/2 119/309/2 121/310/2 123/311/2 125/312/2 127/313/2 129/314/2 131/315/2 133/316/2 135/317/2 137/318/2 139/319/2 141/320/2 143/321/2 145/322/2 147/323/2 149/324/2 151/325/2 153/326/2 155/327/2 157/328/2 159/329/2 161/330/2 163/331/2 165/332/2 167/333/2 169/334/2 171/335/2
f 173/336/9 174/337/9 176/338/9 175/339/9
f 175/339/10 176/338/10 178/340/10 177/341/10
f 177/341/11 178/340/11 180/342/11 179/343/11
f 179/343/12 180/342/12 182/344/12 181/345/12
f 181/345/13 182/344/13 184/346/13 183/347/13
f 183/347/14 184/346/14 186/348/14 185/349/14
f 185/349/15 186/348/15 188/350/15 187/351/15
f 187/351/16 188/350/16 190/352/16 189/353/16
f 189/353/17 190/352/17 192/354/17 191/355/17
f 191/355/18 192/354/18 194/356/18 193/357/18
f 193/357/19 194/356/19 196/358/19 195/359/19
f 195/359/20 196/358/20 198/360/20 197/361/20
f 197/361/21 198/360/21 200/362/21 199/363/21
f 199/363/22 200/362/22 202/364/22 201/365/22
f 201/365/23 202/364/23 204/366/23 203/367/23
f 203/367/24 204/366/24 206/368/24 205/369/24
f 205/369/25 206/368/25 208/370/25 207/371/25
f 207/371/26 208/370/26 210/372/26 209/373/26
f 209/373/27 210/372/27 212/374/27 211/375/27
f 211/375/28 212/374/28 214/376/28 213/377/28
f 213/377/29 214/376/29 216/378/29 215/379/29
f 215/379/30 216/378/30 218/380/30 217/381/30
f 217/381/31 218/380/31 220/382/31 219/383/31
f 219/383/32 220/382/32 222/384/32 221/385/32
f 221/385/33 222/384/33 224/386/33 223/387/33
f 223/387/34 224/386/34 226/388/34 225/389/34
f 225/389/35 226/388/35 228/390/35 227/391/35
f 227/391/36 228/390/36 230/392/36 229/393/36
f 229/393/37 230/392/37 232/394/37 231/395/37
f 231/395/38 232/394/38 234/396/38 233/397/38
f 176/398/6 174/399/6 236/400/6 234/401/6 232/402/6 230/403/6 228/404/6 226/405/6 224/406/6 222/407/6 220/408/6 218/409/6 216/410/6 214/411/6 212/412/6 210/413/6 208/414/6 206/415/6 204/416/6 202/417/6 200/418/6 198/419/6 196/420/6 194/421/6 192/422/6 190/423/6 188/424/6 186/425/6 184/426/6 182/427/6 180/428/6 178/429/6
f 233/397/39 234/396/39 236/430/39 235/431/39
f 235/431/40 236/430/40 174/432/40 173/433/40
f 173/434/5 175/435/5 177/436/5 179/437/5 181/438/5 183/439/5 185/440/5 187/441/5 189/442/5 191/443/5 193/444/5 195/445/5 197/446/5 199/447/5 201/448/5 203/449/5 205/450/5 207/451/5 209/452/5 211/453/5 213/454/5 215/455/5 217/456/5 219/457/5 221/458/5 223/459/5 225/460/5 227/461/5 229/462/5 231/463/5 233/464/5 235/465/5
f 237/466/1 238/467/1 240/468/1 239/469/1
f 239/469/2 240/468/2 244/470/2 243/471/2
f 243/471/3 244/470/3 242/472/3 241/473/3
f 241/473/4 242/472/4 238/474/4 237/475/4
f 239/476/5 243/471/5 241/473/5 237/477/5
f 244/470/6 240/478/6 238/479/6 242/472/6
f 245/480/1 246/481/1 248/482/1 247/483/1
f 247/483/2 248/482/2 252/484/2 251/485/2
f 251/485/3 252/484/3 250/486/3 249/487/3
f 249/487/4 250/486/4 246/488/4 245/489/4
f 247/490/5 251/485/5 249/487/5 245/491/5
f 252/484/6 248/492/6 246/493/6 250/486/6
f 253/494/73 254/495/73 256/496/73 255/497/73
f 255/497/74 256/496/74 258/498/74 257/499/74
f 257/499/75 258/498/75 260/500/75 259/501/75
f 259/501/76 260/500/76 262/502/76 261/503/76
f 261/503/77 262/502/77 264/504/77 263/505/77
f 263/505/78 264/504/78 266/506/78 265/507/78
f 265/507/79 266/506/79 268/508/79 267/509/79
f 267/509/80 268/508/80 270/510/80 269/511/80
f 269/511/81 270/510/81 272/512/81 271/513/81
f 271/513/82 272/512/82 274/514/82 273/515/82
f 273/515/83 274/514/83 276/516/83 275/517/83
f 275/517/84 276/516/84 278/518/84 277/519/84
f 277/519/85 278/518/85 280/520/85 279/521/85
f 279/521/86 280/520/86 282/522/86 281/523/86
f 281/523/87 282/522/87 284/524/87 283/525/87
f 283/525/88 284/524/88 286/526/88 285/527/88
f 285/527/89 286/526/89 288/528/89 287/529/89
f 287/529/90 288/528/90 290/530/90 289/531/90
f 289/531/91 290/530/91 292/532/91 291/533/91
f 291/533/92 292/532/92 294/534/92 293/535/92
f 293/535/93 294/534/93 296/536/93 295/537/93
f 295/537/94 296/536/94 298/538/94 297/539/94
f 297/539/95 298/538/95 300/540/95 299/541/95
f 299/541/96 300/540/96 302/542/96 301/543/96
f 301/543/97 302/542/97 304/544/97 303/545/97
f 303/545/98 304/544/98 306/546/98 305/547/98
f 305/547/99 306/546/99 308/548/99 307/549/99
f 307/549/100 308/548/100 310/550/100 309/551/100
f 309/551/101 310/550/101 312/552/101 311/553/101
f 311/553/102 312/552/102 314/554/102 313/555/102
f 256/556/3 254/557/3 316/558/3 314/559/3 312/560/3 310/561/3 308/562/3 306/563/3 304/564/3 302/565/3 300/566/3 298/567/3 296/568/3 294/569/3 292/570/3 290/571/3 288/572/3 286/573/3 284/574/3 282/575/3 280/576/3 278/577/3 276/578/3 274/579/3 272/580/3 270/581/3 268/582/3 266/583/3 264/584/3 262/585/3 260/586/3 258/587/3
f 313/555/103 314/554/103 316/588/103 315/589/103
f 315/589/104 316/588/104 254/590/104 253/591/104
f 253/592/1 255/593/1 257/594/1 259/595/1 261/596/1 263/597/1 265/598/1 267/599/1 269/600/1 271/601/1 273/602/1 275/603/1 277/604/1 279/605/1 281/606/1 283/607/1 285/608/1 287/609/1 289/610/1 291/611/1 293/612/1 295/613/1 297/614/1 299/615/1 301/616/1 303/617/1 305/618/1 307/619/1 309/620/1 311/621/1 313/622/1 315/623/1
