# Blender 4.4.1
# www.blender.org
mtllib Misiile.mtl
o Misiile
v -0.902159 1.680490 0.743735
v -0.902159 1.680490 -0.149863
v -0.902159 3.526772 -0.308656
v 0.902159 1.680490 0.743735
v 0.902159 1.680490 -0.149863
v 0.902159 3.526772 -0.308656
v 0.902159 3.526772 -1.202254
v -0.902159 3.526772 -1.202254
v -0.382523 6.122063 2.767642
v -0.382523 6.518636 2.099562
v 0.005936 7.115821 2.905795
v 0.394394 6.122063 2.767642
v -0.591087 5.533556 2.660845
v -0.620620 2.624878 0.968597
v 0.602958 5.533556 2.660845
v -0.591087 6.143049 1.634073
v -0.620620 3.264520 -0.108967
v 0.602958 6.143049 1.634073
v 0.632491 3.264520 -0.108967
v 0.394394 6.518636 2.099562
v 0.632491 2.624878 0.968597
v -0.777406 2.417497 -0.819690
v -0.777406 5.655564 1.102428
v -0.777406 1.623854 0.517309
v 0.777406 2.417497 -0.819690
v -0.777406 2.494045 -0.948646
v -0.871525 2.417497 -0.819690
v -0.871525 5.655564 1.102428
v -0.871525 1.623854 0.517309
v -0.871525 4.861920 2.439427
v -0.777406 4.861920 2.439427
v -0.871525 5.448064 2.787362
v -0.871525 6.241707 1.450362
v -0.777406 5.448064 2.787362
v -0.777406 6.241707 1.450362
v 0.777406 4.861920 2.439427
v -0.777406 4.793694 2.554365
v -0.777406 5.469714 2.800213
v 0.777406 5.469714 2.800213
v -0.777406 5.401486 2.915151
v 0.777406 5.401486 2.915151
v 0.777406 4.793694 2.554365
v 0.777406 1.555627 0.632247
v -0.777406 1.555627 0.632247
v 0.777406 1.623854 0.517309
v 0.887876 1.623854 0.517309
v 0.887876 4.861920 2.439427
v 0.887876 2.417497 -0.819690
v 0.887876 5.655564 1.102428
v 0.777406 5.655564 1.102428
v 0.887876 6.241707 1.450362
v 0.887876 5.448064 2.787362
v 0.777406 6.241707 1.450362
v 0.777406 5.448064 2.787362
v 0.777406 5.732112 0.973472
v 0.777406 6.263357 1.463214
v -0.777406 6.263357 1.463214
v 0.777406 6.339905 1.334259
v -0.777406 6.339905 1.334259
v -0.777406 5.732112 0.973472
v 0.777406 2.494045 -0.948646
v -1.000000 1.186035 1.296936
v -1.000000 1.186035 -0.703064
v -1.000000 1.696542 1.296936
v 1.000000 1.186035 1.296936
v 1.000000 1.186035 -0.703064
v 1.000000 1.696542 1.296936
v 1.000000 1.696542 -0.703064
v -1.000000 1.696542 -0.703064
v -1.211632 2.280808 -0.996088
v -1.211632 1.918819 -0.846148
v 1.211632 2.280807 -0.996088
v -1.211632 2.642796 -0.846148
v -1.211632 2.792737 -0.484159
v 1.211632 2.642796 -0.846148
v 1.211632 2.792737 -0.484159
v 1.211632 2.642796 -0.122171
v 1.211632 2.280807 0.027770
v -1.211632 2.642796 -0.122171
v -1.211632 2.280808 0.027770
v -1.211632 1.918819 -0.122171
v -1.211632 1.768879 -0.484159
v 1.211632 1.918819 -0.122171
v 1.211632 1.768878 -0.484159
v 1.211632 1.918819 -0.846148
v 0.875859 2.285005 -1.068870
v 0.875859 2.501567 -1.025793
v 0.875859 2.068442 -1.025793
v 0.875859 2.285005 -1.460671
v 1.220652 2.285005 -1.068870
v 1.220652 2.501567 -1.025793
v 1.220652 2.068442 -1.025793
v 1.220652 2.285005 -1.460671
v 1.220652 2.651502 -1.387769
v 1.220652 1.918507 -1.387769
v 1.220652 2.285005 -1.460671
v 1.220652 1.918507 -1.387769
v 1.220652 2.285005 -1.460671
v 0.875859 2.285005 -1.460671
v 0.875859 1.918507 -1.387769
v 0.875859 2.285005 -1.460671
v 0.875859 1.918507 -1.387769
v 0.875859 2.289785 -1.461621
v 0.875859 1.913727 -1.386819
v 0.875859 2.289785 -1.461621
v 1.220652 2.289785 -1.461621
v 1.220652 1.913727 -1.386819
v 1.220652 2.289785 -1.461621
v 1.220652 1.913727 -1.386819
v 1.220652 2.289785 -1.461621
v 1.220652 1.913727 -1.386819
v 1.220652 2.216418 -1.447028
v 0.875859 2.289785 -1.461621
v 0.875859 1.913727 -1.386819
v 0.875859 2.216418 -1.447028
v 0.875859 1.987093 -1.401412
v 0.875859 2.231842 -1.450096
v 0.875859 1.971669 -1.398344
v 0.875859 2.231842 -1.450096
v 1.220652 2.231842 -1.450096
v 1.220652 1.971669 -1.398344
v 1.220652 2.231842 -1.450096
v 1.220652 1.971669 -1.398344
v 1.220652 2.093823 -2.143967
v 1.220651 1.833649 -2.092216
v 0.875859 2.093823 -2.143967
v 0.875859 1.833649 -2.092216
v 0.875859 1.971669 -1.398344
v 1.220652 1.987093 -1.401412
v 0.875859 1.913727 -1.386819
v 1.220652 1.918507 -1.387769
v 0.875859 1.918507 -1.387769
v 0.875859 1.607805 -1.180165
v 0.875859 1.400201 -0.869464
v 0.875859 1.884850 -0.903120
v 0.875859 1.607805 -1.180165
v 1.220651 1.607805 -1.180165
v 1.220651 1.400201 -0.869464
v 1.220652 1.884850 -0.903120
v 1.220651 1.607805 -1.180165
v 1.220651 1.400201 -0.869464
v 1.220651 1.607805 -1.180165
v 1.220651 1.400201 -0.869464
v 1.220651 1.610513 -1.184218
v 0.875859 1.607805 -1.180165
v 0.875859 1.400201 -0.869464
v 0.875859 1.610513 -1.184218
v 0.875859 1.397493 -0.865411
v 0.875859 1.610513 -1.184218
v 0.875859 1.397493 -0.865411
v 0.875859 1.610513 -1.184218
v 1.220651 1.610513 -1.184218
v 1.220651 1.397493 -0.865411
v 1.220651 1.610513 -1.184218
v 1.220651 1.397493 -0.865411
v 1.220651 1.568954 -1.122021
v 1.220651 1.439052 -0.927608
v 1.220651 1.577691 -1.135097
v 0.875859 1.568954 -1.122021
v 0.875859 1.439052 -0.927608
v 0.875859 1.577691 -1.135097
v 0.875859 1.430315 -0.914532
v 0.875859 1.577691 -1.135097
v 0.875859 1.430315 -0.914532
v 0.875858 0.989456 -1.528143
v 1.220651 1.577691 -1.135097
v 1.220651 1.430315 -0.914532
v 1.220651 0.989456 -1.528143
v 1.220651 0.842079 -1.307579
v 0.875858 0.842079 -1.307579
v 1.220651 1.430315 -0.914532
v 0.875859 1.397493 -0.865411
v 1.220651 1.397493 -0.865411
v 0.875859 1.400201 -0.869464
v 1.220651 1.762177 -0.719528
v 1.220651 1.719100 -0.502966
v 0.875859 1.762177 -0.719528
v 0.875859 1.719100 -0.502966
v 0.875859 1.762177 -0.286404
v 0.875858 1.327300 -0.502966
v 0.875859 1.400201 -0.136468
v 0.875858 1.327300 -0.502966
v 1.220651 1.327300 -0.502966
v 1.220651 1.400201 -0.136468
v 1.220651 1.327300 -0.502966
v 1.220651 1.400201 -0.136468
v 1.220651 1.327300 -0.502966
v 1.220651 1.400201 -0.136468
v 1.220651 1.326349 -0.507746
v 0.875858 1.327300 -0.502966
v 0.875859 1.400201 -0.136468
v 0.875858 1.326349 -0.507746
v 0.875859 1.401152 -0.131688
v 0.875858 1.326349 -0.507746
v 0.875859 1.401152 -0.131688
v 0.875858 1.326349 -0.507746
v 1.220651 1.326349 -0.507746
v 1.220651 1.401152 -0.131688
v 1.220651 1.326349 -0.507746
v 1.220651 1.401152 -0.131688
v 1.220651 1.340943 -0.434379
v 1.220651 1.386558 -0.205055
v 1.220651 1.337875 -0.449804
v 0.875858 1.340943 -0.434379
v 0.875859 1.386558 -0.205055
v 0.875858 1.337875 -0.449804
v 0.875859 1.389626 -0.189630
v 0.875858 1.337875 -0.449804
v 0.875859 1.389626 -0.189630
v 0.875858 0.644003 -0.311784
v 1.220651 1.337875 -0.449804
v 1.220651 1.389626 -0.189630
v 1.220651 0.644003 -0.311784
v 1.220651 0.695755 -0.051611
v 0.875858 0.695755 -0.051611
v 1.220651 1.389626 -0.189630
v 0.875859 1.401152 -0.131688
v 1.220651 1.401152 -0.131688
v 0.875859 1.400201 -0.136468
v 1.220651 1.607805 0.174234
v 1.220651 1.762177 -0.286404
v 1.220652 1.884850 -0.102811
v 1.220652 2.068442 0.019861
v 0.875859 1.884850 -0.102811
v 0.875859 2.068442 0.019861
v 0.875859 1.607805 0.174234
v 0.875859 1.918507 0.381838
v 0.875859 1.607805 0.174234
v 0.875859 1.918507 0.381838
v 0.875859 1.607805 0.174234
v 1.220651 1.607805 0.174234
v 1.220652 1.918507 0.381838
v 1.220651 1.607805 0.174234
v 1.220652 1.918507 0.381838
v 1.220651 1.603752 0.171526
v 1.220652 1.922559 0.384546
v 1.220651 1.603752 0.171526
v 0.875859 1.603752 0.171526
v 0.875859 1.922559 0.384546
v 0.875859 1.603752 0.171526
v 0.875859 1.922559 0.384546
v 0.875859 1.603752 0.171526
v 0.875859 1.922559 0.384546
v 0.875859 1.665950 0.213085
v 1.220651 1.603752 0.171526
v 1.220652 1.922559 0.384546
v 1.220651 1.665950 0.213085
v 1.220652 1.860362 0.342987
v 1.220651 1.652874 0.204348
v 1.220652 1.873438 0.351724
v 1.220651 1.652874 0.204348
v 0.875859 1.652874 0.204348
v 0.875859 1.873438 0.351724
v 0.875859 1.652874 0.204348
v 0.875859 1.873438 0.351724
v 0.875858 1.259827 0.792583
v 0.875859 1.480392 0.939959
v 1.220651 1.259827 0.792583
v 1.220651 1.480392 0.939959
v 1.220652 1.873438 0.351724
v 0.875859 1.860362 0.342987
v 1.220652 1.922559 0.384546
v 0.875859 1.918507 0.381838
v 1.220652 1.918507 0.381838
v 1.220652 2.285005 0.454739
v 1.220652 2.651502 0.381838
v 1.220652 2.285005 0.062938
v 1.220652 2.285005 0.454739
v 0.875859 2.285005 0.454739
v 0.875859 2.651502 0.381838
v 0.875859 2.285005 0.062938
v 0.875859 2.285005 0.454739
v 0.875859 2.651502 0.381838
v 0.875859 2.285005 0.454739
v 0.875859 2.651502 0.381838
v 0.875859 2.280224 0.455690
v 1.220652 2.285005 0.454739
v 1.220652 2.651502 0.381838
v 1.220652 2.280224 0.455690
v 1.220652 2.656282 0.380887
v 1.220652 2.280224 0.455690
v 1.220652 2.656282 0.380887
v 1.220652 2.280224 0.455690
v 0.875859 2.280224 0.455690
v 0.875859 2.656282 0.380887
v 0.875859 2.280224 0.455690
v 0.875859 2.656282 0.380887
v 0.875859 2.353591 0.441096
v 0.875859 2.582916 0.395481
v 0.875859 2.338167 0.444164
v 1.220652 2.353591 0.441096
v 1.220652 2.582916 0.395481
v 1.220652 2.338167 0.444164
v 1.220652 2.598340 0.392412
v 1.220652 2.338167 0.444164
v 1.220652 2.598340 0.392412
v 1.220652 2.476187 1.138036
v 0.875859 2.338167 0.444164
v 0.875859 2.598340 0.392412
v 0.875859 2.476187 1.138036
v 0.875859 2.736360 1.086284
v 1.220652 2.736360 1.086284
v 0.875859 2.598340 0.392412
v 1.220652 2.656282 0.380887
v 0.875859 2.656282 0.380887
v 1.220652 2.651502 0.381838
v 0.875859 2.501567 0.019861
v 0.875859 2.685159 -0.102811
v 1.220652 2.501567 0.019861
v 1.220652 2.685159 -0.102811
v 1.220652 2.807832 -0.286404
v 1.220652 2.962204 0.174234
v 1.220652 3.169808 -0.136468
v 1.220652 2.962204 0.174234
v 0.875859 2.962204 0.174234
v 0.875859 3.169808 -0.136468
v 0.875859 2.962204 0.174234
v 0.875859 3.169808 -0.136468
v 0.875859 2.962204 0.174234
v 0.875859 3.169808 -0.136468
v 0.875859 2.959496 0.178286
v 1.220652 2.962204 0.174234
v 1.220652 3.169808 -0.136468
v 1.220652 2.959496 0.178286
v 1.220652 3.172516 -0.140521
v 1.220652 2.959496 0.178286
v 1.220652 3.172516 -0.140521
v 1.220652 2.959496 0.178286
v 0.875859 2.959496 0.178286
v 0.875859 3.172516 -0.140521
v 0.875859 2.959496 0.178286
v 0.875859 3.172516 -0.140521
v 0.875859 3.001055 0.116089
v 0.875859 3.130957 -0.078323
v 0.875859 2.992318 0.129165
v 1.220652 3.001055 0.116089
v 1.220652 3.130957 -0.078323
v 1.220652 2.992318 0.129165
v 1.220652 3.139694 -0.091399
v 1.220652 2.992318 0.129165
v 1.220652 3.139694 -0.091399
v 1.220652 3.580554 0.522211
v 0.875859 2.992318 0.129165
v 0.875859 3.139694 -0.091399
v 0.875859 3.580554 0.522211
v 0.875859 3.727930 0.301647
v 1.220652 3.727930 0.301647
v 0.875859 3.139694 -0.091399
v 1.220652 3.172516 -0.140521
v 0.875859 3.172516 -0.140521
v 1.220652 3.169808 -0.136468
v 0.875859 3.242709 -0.502966
v 0.875859 2.807832 -0.286404
v 0.875859 2.850909 -0.502966
v 0.875859 2.807832 -0.719528
v 1.220652 2.850909 -0.502966
v 1.220652 2.807832 -0.719528
v 1.220652 3.242709 -0.502966
v 1.220652 3.169808 -0.869464
v 1.220652 3.242709 -0.502966
v 1.220652 3.169808 -0.869464
v 1.220652 3.242709 -0.502966
v 0.875859 3.242709 -0.502966
v 0.875859 3.169808 -0.869464
v 0.875859 3.242709 -0.502966
v 0.875859 3.169808 -0.869464
v 0.875859 3.243660 -0.498186
v 0.875859 3.168857 -0.874244
v 0.875859 3.243660 -0.498186
v 1.220652 3.243660 -0.498186
v 1.220652 3.168857 -0.874244
v 1.220652 3.243660 -0.498186
v 1.220652 3.168857 -0.874244
v 1.220652 3.243660 -0.498186
v 1.220652 3.168857 -0.874244
v 1.220652 3.229067 -0.571552
v 0.875859 3.243660 -0.498186
v 0.875859 3.168857 -0.874244
v 0.875859 3.229067 -0.571552
v 0.875859 3.183451 -0.800877
v 0.875859 3.232135 -0.556128
v 0.875859 3.180383 -0.816301
v 0.875859 3.232135 -0.556128
v 1.220652 3.232135 -0.556128
v 1.220652 3.180383 -0.816301
v 1.220652 3.232135 -0.556128
v 1.220652 3.180383 -0.816301
v 1.220652 3.926006 -0.694148
v 1.220652 3.874254 -0.954321
v 0.875859 3.926006 -0.694148
v 0.875859 3.874254 -0.954321
v 0.875859 3.180383 -0.816301
v 1.220652 3.183451 -0.800877
v 0.875859 3.168857 -0.874244
v 1.220652 3.169808 -0.869464
v 0.875859 3.169808 -0.869464
v 0.875859 2.962204 -1.180165
v 0.875859 2.651502 -1.387769
v 0.875859 2.685159 -0.903120
v 0.875859 2.962204 -1.180165
v 1.220652 2.962204 -1.180165
v 1.220652 2.685159 -0.903120
v 1.220652 2.962204 -1.180165
v 1.220652 2.651502 -1.387769
v 1.220652 2.962204 -1.180165
v 1.220652 2.651502 -1.387769
v 1.220652 2.966257 -1.177457
v 0.875859 2.962204 -1.180165
v 0.875859 2.651502 -1.387769
v 0.875859 2.966257 -1.177457
v 0.875859 2.647450 -1.390477
v 0.875859 2.966257 -1.177457
v 0.875859 2.647450 -1.390477
v 0.875859 2.966257 -1.177457
v 1.220652 2.966257 -1.177457
v 1.220652 2.647450 -1.390477
v 1.220652 2.966257 -1.177457
v 1.220652 2.647450 -1.390477
v 1.220652 2.904059 -1.219016
v 1.220652 2.709647 -1.348918
v 1.220652 2.917135 -1.210279
v 0.875859 2.904059 -1.219016
v 0.875859 2.709647 -1.348918
v 0.875859 2.917135 -1.210279
v 0.875859 2.696571 -1.357655
v 0.875859 2.917135 -1.210279
v 0.875859 2.696571 -1.357655
v 0.875859 3.310182 -1.798515
v 1.220652 2.917135 -1.210279
v 1.220652 2.696571 -1.357655
v 1.220652 3.310182 -1.798515
v 1.220652 3.089617 -1.945891
v 0.875859 3.089617 -1.945891
v 1.220652 2.696571 -1.357655
v 0.875859 2.647450 -1.390477
v 1.220652 2.647450 -1.390477
v 0.875859 2.651502 -1.387769
v -1.213806 2.285005 -1.068870
v -1.213806 2.501567 -1.025793
v -1.213806 2.068442 -1.025793
v -1.213806 2.285005 -1.460671
v -0.869013 2.285005 -1.068870
v -0.869013 2.501567 -1.025793
v -0.869013 2.068442 -1.025793
v -0.869013 2.285005 -1.460671
v -0.869013 2.651502 -1.387769
v -0.869013 1.918507 -1.387769
v -0.869013 2.285005 -1.460671
v -0.869013 1.918507 -1.387769
v -0.869013 2.285005 -1.460671
v -1.213806 2.285005 -1.460671
v -1.213806 1.918507 -1.387769
v -1.213806 2.285005 -1.460671
v -1.213806 1.918507 -1.387769
v -1.213806 2.289785 -1.461621
v -1.213806 1.913727 -1.386819
v -1.213806 2.289785 -1.461621
v -0.869013 2.289785 -1.461621
v -0.869013 1.913727 -1.386819
v -0.869013 2.289785 -1.461621
v -0.869013 1.913727 -1.386819
v -0.869013 2.289785 -1.461621
v -0.869013 1.913727 -1.386819
v -0.869013 2.216418 -1.447028
v -1.213806 2.289785 -1.461621
v -1.213806 1.913727 -1.386819
v -1.213806 2.216418 -1.447028
v -1.213806 1.987093 -1.401412
v -1.213806 2.231842 -1.450096
v -1.213806 1.971669 -1.398344
v -1.213806 2.231842 -1.450096
v -0.869013 2.231842 -1.450096
v -0.869013 1.971669 -1.398344
v -0.869013 2.231842 -1.450096
v -0.869013 1.971669 -1.398344
v -0.869013 2.093823 -2.143967
v -0.869013 1.833649 -2.092216
v -1.213806 2.093823 -2.143967
v -1.213806 1.833649 -2.092216
v -1.213806 1.971669 -1.398344
v -0.869013 1.987093 -1.401412
v -1.213806 1.913727 -1.386819
v -0.869013 1.918507 -1.387769
v -1.213806 1.918507 -1.387769
v -1.213806 1.607805 -1.180165
v -1.213806 1.400201 -0.869464
v -1.213806 1.884850 -0.903120
v -1.213806 1.607805 -1.180165
v -0.869013 1.607805 -1.180165
v -0.869013 1.400201 -0.869464
v -0.869013 1.884850 -0.903120
v -0.869013 1.607805 -1.180165
v -0.869013 1.400201 -0.869464
v -0.869013 1.607805 -1.180165
v -0.869013 1.400201 -0.869464
v -0.869013 1.610513 -1.184218
v -1.213806 1.607805 -1.180165
v -1.213806 1.400201 -0.869464
v -1.213806 1.610513 -1.184218
v -1.213806 1.397493 -0.865411
v -1.213806 1.610513 -1.184218
v -1.213806 1.397493 -0.865411
v -1.213806 1.610513 -1.184218
v -0.869013 1.610513 -1.184218
v -0.869013 1.397493 -0.865411
v -0.869013 1.610513 -1.184218
v -0.869013 1.397493 -0.865411
v -0.869013 1.568954 -1.122021
v -0.869013 1.439052 -0.927608
v -0.869013 1.577691 -1.135097
v -1.213806 1.568954 -1.122021
v -1.213806 1.439052 -0.927608
v -1.213806 1.577691 -1.135097
v -1.213806 1.430315 -0.914532
v -1.213806 1.577691 -1.135097
v -1.213806 1.430315 -0.914532
v -1.213806 0.989456 -1.528143
v -0.869013 1.577691 -1.135097
v -0.869013 1.430315 -0.914532
v -0.869013 0.989456 -1.528143
v -0.869013 0.842079 -1.307579
v -1.213806 0.842079 -1.307579
v -0.869013 1.430315 -0.914532
v -1.213806 1.397493 -0.865411
v -0.869013 1.397493 -0.865411
v -1.213806 1.400201 -0.869464
v -0.869013 1.762177 -0.719528
v -0.869013 1.719100 -0.502966
v -1.213806 1.762177 -0.719528
v -1.213806 1.719100 -0.502966
v -1.213806 1.762177 -0.286404
v -1.213806 1.327300 -0.502966
v -1.213806 1.400201 -0.136468
v -1.213806 1.327300 -0.502966
v -0.869013 1.327300 -0.502966
v -0.869013 1.400201 -0.136468
v -0.869013 1.327300 -0.502966
v -0.869013 1.400201 -0.136468
v -0.869013 1.327300 -0.502966
v -0.869013 1.400201 -0.136468
v -0.869013 1.326349 -0.507746
v -1.213806 1.327300 -0.502966
v -1.213806 1.400201 -0.136468
v -1.213806 1.326349 -0.507746
v -1.213806 1.401152 -0.131688
v -1.213806 1.326349 -0.507746
v -1.213806 1.401152 -0.131688
v -1.213806 1.326349 -0.507746
v -0.869013 1.326349 -0.507746
v -0.869013 1.401152 -0.131688
v -0.869013 1.326349 -0.507746
v -0.869013 1.401152 -0.131688
v -0.869013 1.340943 -0.434379
v -0.869013 1.386558 -0.205055
v -0.869013 1.337875 -0.449804
v -1.213806 1.340943 -0.434379
v -1.213806 1.386558 -0.205055
v -1.213806 1.337875 -0.449804
v -1.213806 1.389626 -0.189630
v -1.213806 1.337875 -0.449804
v -1.213806 1.389626 -0.189630
v -1.213806 0.644003 -0.311784
v -0.869013 1.337875 -0.449804
v -0.869013 1.389626 -0.189630
v -0.869013 0.644003 -0.311784
v -0.869013 0.695755 -0.051611
v -1.213806 0.695755 -0.051611
v -0.869013 1.389626 -0.189630
v -1.213806 1.401152 -0.131688
v -0.869013 1.401152 -0.131688
v -1.213806 1.400201 -0.136468
v -0.869013 1.607805 0.174234
v -0.869013 1.762177 -0.286404
v -0.869013 1.884850 -0.102811
v -0.869013 2.068442 0.019861
v -1.213806 1.884850 -0.102811
v -1.213806 2.068442 0.019861
v -1.213806 1.607805 0.174234
v -1.213806 1.918507 0.381838
v -1.213806 1.607805 0.174234
v -1.213806 1.918507 0.381838
v -1.213806 1.607805 0.174234
v -0.869013 1.607805 0.174234
v -0.869013 1.918507 0.381838
v -0.869013 1.607805 0.174234
v -0.869013 1.918507 0.381838
v -0.869013 1.603752 0.171526
v -0.869013 1.922559 0.384546
v -0.869013 1.603752 0.171526
v -1.213806 1.603752 0.171526
v -1.213806 1.922559 0.384546
v -1.213806 1.603752 0.171526
v -1.213806 1.922559 0.384546
v -1.213806 1.603752 0.171526
v -1.213806 1.922559 0.384546
v -1.213806 1.665950 0.213085
v -0.869013 1.603752 0.171526
v -0.869013 1.922559 0.384546
v -0.869013 1.665950 0.213085
v -0.869013 1.860362 0.342987
v -0.869013 1.652874 0.204348
v -0.869013 1.873438 0.351724
v -0.869013 1.652874 0.204348
v -1.213806 1.652874 0.204348
v -1.213806 1.873438 0.351724
v -1.213806 1.652874 0.204348
v -1.213806 1.873438 0.351724
v -1.213806 1.259827 0.792583
v -1.213806 1.480392 0.939959
v -0.869013 1.259827 0.792583
v -0.869013 1.480392 0.939959
v -0.869013 1.873438 0.351724
v -1.213806 1.860362 0.342987
v -0.869013 1.922559 0.384546
v -1.213806 1.918507 0.381838
v -0.869013 1.918507 0.381838
v -0.869013 2.285005 0.454739
v -0.869013 2.651502 0.381838
v -0.869013 2.285005 0.062938
v -0.869013 2.285005 0.454739
v -1.213806 2.285005 0.454739
v -1.213806 2.651502 0.381838
v -1.213806 2.285005 0.062938
v -1.213806 2.285005 0.454739
v -1.213806 2.651502 0.381838
v -1.213806 2.285005 0.454739
v -1.213806 2.651502 0.381838
v -1.213806 2.280224 0.455690
v -0.869013 2.285005 0.454739
v -0.869013 2.651502 0.381838
v -0.869013 2.280224 0.455690
v -0.869013 2.656282 0.380887
v -0.869013 2.280224 0.455690
v -0.869013 2.656282 0.380887
v -0.869013 2.280224 0.455690
v -1.213806 2.280224 0.455690
v -1.213806 2.656282 0.380887
v -1.213806 2.280224 0.455690
v -1.213806 2.656282 0.380887
v -1.213806 2.353591 0.441096
v -1.213806 2.582916 0.395481
v -1.213806 2.338167 0.444164
v -0.869013 2.353591 0.441096
v -0.869013 2.582916 0.395481
v -0.869013 2.338167 0.444164
v -0.869013 2.598340 0.392412
v -0.869013 2.338167 0.444164
v -0.869013 2.598340 0.392412
v -0.869013 2.476187 1.138036
v -1.213806 2.338167 0.444164
v -1.213806 2.598340 0.392412
v -1.213806 2.476187 1.138036
v -1.213806 2.736360 1.086284
v -0.869013 2.736360 1.086284
v -1.213806 2.598340 0.392412
v -0.869013 2.656282 0.380887
v -1.213806 2.656282 0.380887
v -0.869013 2.651502 0.381838
v -1.213806 2.501567 0.019861
v -1.213806 2.685159 -0.102811
v -0.869013 2.501567 0.019861
v -0.869013 2.685159 -0.102811
v -0.869013 2.807832 -0.286404
v -0.869013 2.962204 0.174234
v -0.869013 3.169808 -0.136468
v -0.869013 2.962204 0.174234
v -1.213806 2.962204 0.174234
v -1.213806 3.169808 -0.136468
v -1.213806 2.962204 0.174234
v -1.213806 3.169808 -0.136468
v -1.213806 2.962204 0.174234
v -1.213806 3.169808 -0.136468
v -1.213806 2.959496 0.178286
v -0.869013 2.962204 0.174234
v -0.869013 3.169808 -0.136468
v -0.869013 2.959496 0.178286
v -0.869013 3.172516 -0.140521
v -0.869013 2.959496 0.178286
v -0.869013 3.172516 -0.140521
v -0.869013 2.959496 0.178286
v -1.213806 2.959496 0.178286
v -1.213806 3.172516 -0.140521
v -1.213806 2.959496 0.178286
v -1.213806 3.172516 -0.140521
v -1.213806 3.001055 0.116089
v -1.213806 3.130957 -0.078323
v -1.213806 2.992318 0.129165
v -0.869013 3.001055 0.116089
v -0.869013 3.130957 -0.078323
v -0.869013 2.992318 0.129165
v -0.869013 3.139694 -0.091399
v -0.869013 2.992318 0.129165
v -0.869013 3.139694 -0.091399
v -0.869013 3.580554 0.522211
v -1.213806 2.992318 0.129165
v -1.213806 3.139694 -0.091399
v -1.213806 3.580554 0.522211
v -1.213806 3.727930 0.301647
v -0.869013 3.727930 0.301647
v -1.213806 3.139694 -0.091399
v -0.869013 3.172516 -0.140521
v -1.213806 3.172516 -0.140521
v -0.869013 3.169808 -0.136468
v -1.213806 3.242709 -0.502966
v -1.213806 2.807832 -0.286404
v -1.213806 2.850909 -0.502966
v -1.213806 2.807832 -0.719528
v -0.869013 2.850909 -0.502966
v -0.869013 2.807832 -0.719528
v -0.869013 3.242709 -0.502966
v -0.869013 3.169808 -0.869464
v -0.869013 3.242709 -0.502966
v -0.869013 3.169808 -0.869464
v -0.869013 3.242709 -0.502966
v -1.213806 3.242709 -0.502966
v -1.213806 3.169808 -0.869464
v -1.213806 3.242709 -0.502966
v -1.213806 3.169808 -0.869464
v -1.213806 3.243660 -0.498186
v -1.213806 3.168857 -0.874244
v -1.213806 3.243660 -0.498186
v -0.869013 3.243660 -0.498186
v -0.869013 3.168857 -0.874244
v -0.869013 3.243660 -0.498186
v -0.869013 3.168857 -0.874244
v -0.869013 3.243660 -0.498186
v -0.869013 3.168857 -0.874244
v -0.869013 3.229067 -0.571552
v -1.213806 3.243660 -0.498186
v -1.213806 3.168857 -0.874244
v -1.213806 3.229067 -0.571552
v -1.213806 3.183451 -0.800877
v -1.213806 3.232135 -0.556128
v -1.213806 3.180383 -0.816301
v -1.213806 3.232135 -0.556128
v -0.869013 3.232135 -0.556128
v -0.869013 3.180383 -0.816301
v -0.869013 3.232135 -0.556128
v -0.869013 3.180383 -0.816301
v -0.869013 3.926006 -0.694148
v -0.869013 3.874254 -0.954321
v -1.213806 3.926006 -0.694148
v -1.213806 3.874254 -0.954321
v -1.213806 3.180383 -0.816301
v -0.869013 3.183451 -0.800877
v -1.213806 3.168857 -0.874244
v -0.869013 3.169808 -0.869464
v -1.213806 3.169808 -0.869464
v -1.213806 2.962204 -1.180165
v -1.213806 2.651502 -1.387769
v -1.213806 2.685159 -0.903120
v -1.213806 2.962204 -1.180165
v -0.869013 2.962204 -1.180165
v -0.869013 2.685159 -0.903120
v -0.869013 2.962204 -1.180165
v -0.869013 2.651502 -1.387769
v -0.869013 2.962204 -1.180165
v -0.869013 2.651502 -1.387769
v -0.869013 2.966257 -1.177457
v -1.213806 2.962204 -1.180165
v -1.213806 2.651502 -1.387769
v -1.213806 2.966257 -1.177457
v -1.213806 2.647450 -1.390477
v -1.213806 2.966257 -1.177457
v -1.213806 2.647450 -1.390477
v -1.213806 2.966257 -1.177457
v -0.869013 2.966257 -1.177457
v -0.869013 2.647450 -1.390477
v -0.869013 2.966257 -1.177457
v -0.869013 2.647450 -1.390477
v -0.869013 2.904059 -1.219016
v -0.869013 2.709647 -1.348918
v -0.869013 2.917135 -1.210279
v -1.213806 2.904059 -1.219016
v -1.213806 2.709647 -1.348918
v -1.213806 2.917135 -1.210279
v -1.213806 2.696571 -1.357655
v -1.213806 2.917135 -1.210279
v -1.213806 2.696571 -1.357655
v -1.213806 3.310182 -1.798515
v -0.869013 2.917135 -1.210279
v -0.869013 2.696571 -1.357655
v -0.869013 3.310182 -1.798515
v -0.869013 3.089617 -1.945891
v -1.213806 3.089617 -1.945891
v -0.869013 2.696571 -1.357655
v -1.213806 2.647450 -1.390477
v -0.869013 2.647450 -1.390477
v -1.213806 2.651502 -1.387769
v 0.000000 -0.207517 0.164148
v 0.723607 0.345264 0.689873
v -0.276388 0.345263 1.014797
v -0.894426 0.345268 0.164148
v -0.276388 0.345263 -0.686502
v 0.723607 0.345264 -0.361578
v 0.276388 1.239703 1.014797
v -0.723607 1.239703 0.689873
v -0.723607 1.239703 -0.361578
v 0.276388 1.239703 -0.686502
v 0.894426 1.239699 0.164148
v 0.000000 1.792483 0.164148
v -0.162456 -0.058171 0.664143
v 0.425323 -0.058171 0.473159
v 0.262869 0.266746 0.973159
v 0.850648 0.266747 0.164148
v 0.425323 -0.058171 -0.144864
v -0.525730 -0.058168 0.164148
v -0.688189 0.266747 0.664145
v -0.162456 -0.058171 -0.335848
v -0.688189 0.266747 -0.335849
v 0.262869 0.266746 -0.644864
v 0.951058 0.792483 0.473160
v 0.951058 0.792483 -0.144865
v 0.000000 0.792483 1.164148
v 0.587786 0.792483 0.973164
v -0.951058 0.792483 0.473160
v -0.587786 0.792483 0.973164
v -0.587786 0.792483 -0.644869
v -0.951058 0.792483 -0.144865
v 0.587786 0.792483 -0.644869
v 0.000000 0.792483 -0.835852
v 0.688190 1.318220 0.664145
v -0.262869 1.318221 0.973159
v -0.850648 1.318219 0.164148
v -0.262869 1.318221 -0.644864
v 0.688190 1.318220 -0.335849
v 0.162456 1.643138 0.664143
v 0.525730 1.643135 0.164148
v -0.425323 1.643138 0.473159
v -0.425323 1.643138 -0.144864
v 0.162456 1.643138 -0.335848
vn -0.0000 -1.0000 -0.0000
vn -1.0000 -0.0000 -0.0000
vn -0.0000 0.4952 0.8688
vn 1.0000 -0.0000 -0.0000
vn -0.0000 1.0000 -0.0000
vn -0.0000 -0.4952 -0.8688
vn -0.9372 0.2999 0.1780
vn -0.9220 0.3329 0.1976
vn -0.0000 -0.1377 0.9905
vn -0.0000 -0.1786 0.9839
vn -0.0000 -0.5029 0.8644
vn -1.0000 0.0075 0.0045
vn -0.0000 0.7783 -0.6279
vn -0.0000 0.5180 -0.8554
vn 1.0000 0.0075 0.0045
vn 0.9372 0.2999 0.1780
vn -0.0000 0.8036 -0.5952
vn 0.9220 0.3329 0.1976
vn -0.0000 -0.8599 -0.5104
vn -0.0000 0.5104 -0.8599
vn -0.0000 -0.5104 0.8599
vn -0.0000 0.8599 0.5104
vn -0.0000 -0.0000 1.0000
vn -0.0000 -0.0000 -1.0000
vn -0.0000 -0.3827 -0.9239
vn -0.0000 0.3827 -0.9239
vn -0.0000 0.9239 -0.3827
vn -0.0000 0.9239 0.3827
vn -0.0000 0.3827 0.9239
vn -0.0000 -0.3827 0.9239
vn -0.0000 -0.9239 0.3827
vn -0.0000 -0.9239 -0.3827
vn -0.0000 0.1951 -0.9808
vn -0.0000 -0.1951 -0.9808
vn -0.0000 -0.1951 0.9808
vn -0.8729 -0.0000 -0.4879
vn -0.0000 -0.1950 -0.9808
vn -0.0000 0.1951 0.9808
vn -0.2425 -0.0000 0.9701
vn 0.7507 -0.0000 -0.6606
vn -0.0000 -0.9808 0.1951
vn -0.0000 0.9808 -0.1951
vn -0.0000 0.5556 0.8315
vn -0.0000 -0.8315 -0.5556
vn -1.0000 -0.0000 -0.0039
vn -0.8944 -0.0000 -0.4472
vn -0.0000 0.8315 0.5556
vn -0.8384 -0.0000 -0.5450
vn 0.9285 -0.0000 0.3714
vn -0.0000 -0.5556 0.8315
vn -0.0000 0.5556 -0.8315
vn -0.0000 -0.5556 -0.8315
vn -0.0000 -0.9808 -0.1951
vn -0.0000 0.9808 0.1951
vn -0.1104 -0.0000 0.9939
vn -1.0000 -0.0000 -0.0057
vn 0.9995 -0.0000 0.0312
vn -0.0000 0.8315 -0.5556
vn -0.0000 -0.8315 0.5556
vn 0.8819 -0.0000 0.4714
vn -0.7071 -0.0000 0.7071
vn -0.0995 -0.0000 -0.9950
vn -0.7562 -0.0000 0.6544
vn 0.7071 -0.0000 0.7071
vn -0.0905 -0.0000 0.9959
vn 0.9999 -0.0000 0.0147
vn 0.9487 -0.0000 -0.3162
vn -0.9841 -0.0000 0.1777
vn -0.9076 -0.0000 -0.4198
vn -0.9981 -0.0000 0.0624
vn 0.9989 -0.0000 0.0468
vn -1.0000 -0.0000 -0.0089
vn -0.9240 -0.0000 -0.3824
vn 0.8944 -0.0000 0.4472
vn -0.9129 -0.0000 -0.4082
vn 0.8321 -0.0000 -0.5547
vn -0.2425 -0.0000 -0.9701
vn 0.6660 -0.0000 -0.7459
vn -0.7071 -0.0000 -0.7071
vn -0.9822 -0.0000 0.1880
vn -0.9701 -0.0000 -0.2425
vn 0.9578 -0.0000 0.2873
vn -0.1168 -0.0000 0.9932
vn -0.9923 -0.0000 0.1240
vn -0.9984 -0.0000 0.0567
vn 0.9829 -0.0000 0.1843
vn 0.5417 -0.0000 0.8406
vn -0.4472 -0.0000 -0.8944
vn -0.0624 -0.0000 0.9981
vn -0.8805 -0.0000 -0.4741
vn -0.0555 -0.0000 -0.9985
vn 0.7498 -0.0000 0.6616
vn 0.9864 -0.0000 -0.1644
vn -0.9996 -0.0000 0.0278
vn -0.9999 -0.0000 0.0125
vn -0.9923 -0.0000 -0.1240
vn 0.9923 -0.0000 0.1240
vn -0.9975 -0.0000 -0.0712
vn 0.9981 -0.0000 0.0624
vn 0.8944 -0.0000 -0.4472
vn -0.9963 -0.0000 0.0859
vn 0.4472 -0.0000 -0.8944
vn 0.1024 -0.9435 0.3151
vn 0.7002 -0.6617 0.2680
vn -0.2680 -0.9435 0.1947
vn -0.2680 -0.9435 -0.1947
vn 0.1024 -0.9435 -0.3151
vn 0.9050 -0.3304 0.2680
vn 0.0247 -0.3304 0.9435
vn -0.8897 -0.3304 0.3151
vn -0.5746 -0.3304 -0.7488
vn 0.5346 -0.3304 -0.7779
vn 0.8026 -0.1256 0.5831
vn -0.3066 -0.1256 0.9435
vn -0.9921 -0.1256 -0.0000
vn -0.3066 -0.1256 -0.9435
vn 0.8026 -0.1256 -0.5831
vn 0.4089 0.6617 0.6284
vn -0.4713 0.6617 0.5831
vn -0.7002 0.6617 -0.2680
vn 0.0385 0.6617 -0.7488
vn 0.7240 0.6617 -0.1947
vn 0.2680 0.9435 -0.1947
vn 0.4911 0.7947 -0.3568
vn 0.4089 0.6617 -0.6284
vn -0.1024 0.9435 -0.3151
vn -0.1876 0.7947 -0.5773
vn -0.4713 0.6617 -0.5831
vn -0.3313 0.9435 -0.0000
vn -0.6071 0.7947 -0.0000
vn -0.7002 0.6617 0.2680
vn -0.1024 0.9435 0.3151
vn -0.1876 0.7947 0.5773
vn 0.0385 0.6617 0.7488
vn 0.2680 0.9435 0.1947
vn 0.4911 0.7947 0.3568
vn 0.7240 0.6617 0.1947
vn 0.8897 0.3304 -0.3151
vn 0.7947 0.1876 -0.5773
vn 0.5746 0.3304 -0.7488
vn -0.0247 0.3304 -0.9435
vn -0.3035 0.1876 -0.9342
vn -0.5346 0.3304 -0.7779
vn -0.9050 0.3304 -0.2680
vn -0.9822 0.1876 -0.0000
vn -0.9050 0.3304 0.2680
vn -0.5346 0.3304 0.7779
vn -0.3035 0.1876 0.9342
vn -0.0247 0.3304 0.9435
vn 0.5746 0.3304 0.7488
vn 0.7947 0.1876 0.5773
vn 0.8897 0.3304 0.3151
vn 0.3066 0.1256 -0.9435
vn 0.3035 -0.1876 -0.9342
vn 0.0247 -0.3304 -0.9435
vn -0.8026 0.1256 -0.5831
vn -0.7947 -0.1876 -0.5773
vn -0.8897 -0.3304 -0.3151
vn -0.8026 0.1256 0.5831
vn -0.7947 -0.1876 0.5773
vn -0.5746 -0.3304 0.7488
vn 0.3066 0.1256 0.9435
vn 0.3035 -0.1876 0.9342
vn 0.5346 -0.3304 0.7779
vn 0.9921 0.1256 -0.0000
vn 0.9822 -0.1876 -0.0000
vn 0.9050 -0.3304 -0.2680
vn 0.4713 -0.6617 -0.5831
vn 0.1876 -0.7947 -0.5773
vn -0.0385 -0.6617 -0.7488
vn -0.4089 -0.6617 -0.6284
vn -0.4911 -0.7947 -0.3568
vn -0.7240 -0.6617 -0.1947
vn -0.7240 -0.6617 0.1947
vn -0.4911 -0.7947 0.3568
vn -0.4089 -0.6617 0.6284
vn 0.7002 -0.6617 -0.2680
vn 0.6071 -0.7947 -0.0000
vn 0.3313 -0.9435 -0.0000
vn -0.0385 -0.6617 0.7488
vn 0.1876 -0.7947 0.5773
vn 0.4713 -0.6617 0.5831
vt 0.180398 0.954284
vt 0.180398 0.864986
vt 0.269694 0.864986
vt 0.269694 0.954284
vt 0.001800 0.864986
vt 0.001800 0.775688
vt 0.091097 0.775688
vt 0.091097 0.864986
vt 0.269694 0.775688
vt 0.358992 0.775688
vt 0.358992 0.864986
vt 0.180398 0.775688
vt 0.180398 0.686390
vt 0.269694 0.686390
vt 0.577421 0.164582
vt 0.535613 0.103895
vt 0.611716 0.092349
vt 0.630591 0.171197
vt 0.422380 0.192070
vt 0.571744 0.216219
vt 0.620504 0.223251
vt 0.848567 0.235797
vt 0.835812 0.250571
vt 0.852039 0.214437
vt 0.489914 0.314176
vt 0.529575 0.263972
vt 0.576745 0.281003
vt 0.555821 0.348768
vt 0.832986 0.277648
vt 0.833360 0.348768
vt 0.066855 0.000359
vt 0.259316 0.266648
vt 0.254491 0.266958
vt 0.062271 0.003672
vt 0.415902 0.002048
vt 0.425792 0.003559
vt 0.267262 0.263140
vt 0.197669 0.363927
vt 0.197601 0.360579
vt 0.341975 0.317080
vt 0.283979 0.416344
vt 0.341460 0.308409
vt 0.005490 0.097128
vt 0.000956 0.100514
vt 0.001248 0.669720
vt 0.005238 0.664422
vt 0.007035 0.667500
vt 0.003056 0.672782
vt 0.005548 0.664253
vt 0.007327 0.667512
vt 0.003042 0.672984
vt 0.010987 0.668487
vt 0.006654 0.674020
vt 0.000956 0.669918
vt 0.198635 0.367922
vt 0.016327 0.668562
vt 0.013515 0.671969
vt 0.009167 0.676010
vt 0.013456 0.668348
vt 0.014151 0.670905
vt 0.013736 0.668415
vt 0.013828 0.670974
vt 0.014727 0.671708
vt 0.102323 0.718965
vt 0.279910 0.417455
vt 0.108650 0.727073
vt 0.604785 0.471131
vt 0.287507 0.414610
vt 0.605892 0.464650
vt 0.344207 0.322263
vt 0.662465 0.372533
vt 0.663455 0.366039
vt 0.017299 0.676549
vt 0.013163 0.680228
vt 0.010501 0.678933
vt 0.014620 0.675268
vt 0.012989 0.680528
vt 0.010303 0.678963
vt 0.014586 0.674982
vt 0.017439 0.676231
vt 0.007957 0.676465
vt 0.006249 0.675933
vt 0.505633 0.056795
vt 0.499765 0.048691
vt 0.008139 0.676462
vt 0.007829 0.676214
vt 0.006200 0.676276
vt 0.006483 0.675647
vt 0.832859 0.999726
vt 0.832859 0.923109
vt 0.909476 0.923109
vt 0.909476 0.999726
vt 0.679627 0.923109
vt 0.679627 0.846492
vt 0.756244 0.846492
vt 0.756244 0.923109
vt 0.909476 0.846492
vt 0.986093 0.846492
vt 0.986093 0.923109
vt 0.832859 0.846492
vt 0.832859 0.769876
vt 0.909476 0.769876
vt 0.178208 0.109061
vt 0.195401 0.091868
vt 0.195401 0.067551
vt 0.178207 0.050356
vt 0.153890 0.050357
vt 0.136697 0.067550
vt 0.136697 0.091867
vt 0.153891 0.109061
vt 0.001358 0.252648
vt 0.111333 0.252648
vt 0.111333 0.280141
vt 0.001358 0.280141
vt 0.001358 0.445107
vt 0.111333 0.445107
vt 0.111333 0.472598
vt 0.001358 0.472598
vt 0.001358 0.417611
vt 0.111333 0.417611
vt 0.117536 0.059075
vt 0.100342 0.041880
vt 0.100342 0.017563
vt 0.117536 0.000368
vt 0.141853 0.000368
vt 0.159047 0.017563
vt 0.159047 0.041880
vt 0.141853 0.059075
vt 0.001358 0.390115
vt 0.111333 0.390115
vt 0.001358 0.362619
vt 0.111333 0.362619
vt 0.001358 0.335131
vt 0.111333 0.335131
vt 0.001358 0.307632
vt 0.111333 0.307632
vt 0.572080 0.739438
vt 0.592545 0.743512
vt 0.586267 0.758988
vt 0.571274 0.756036
vt 0.572060 0.716633
vt 0.609362 0.722601
vt 0.552256 0.741172
vt 0.556231 0.757117
vt 0.540010 0.719392
vt 0.581450 0.669888
vt 0.605392 0.673702
vt 0.614279 0.702774
vt 0.573760 0.696319
vt 0.544909 0.672811
vt 0.568007 0.670610
vt 0.534670 0.700043
vt 0.572188 0.697212
vt 0.536323 0.700588
vt 0.570862 0.716032
vt 0.570616 0.698105
vt 0.537976 0.701133
vt 0.569663 0.715431
vt 0.541148 0.718553
vt 0.542285 0.717714
vt 0.542821 0.716869
vt 0.568512 0.714773
vt 0.569772 0.698930
vt 0.543889 0.716038
vt 0.567380 0.714137
vt 0.568289 0.699812
vt 0.539518 0.701691
vt 0.541081 0.702274
vt 0.566806 0.700693
vt 0.542644 0.702859
vt 0.566248 0.713501
vt 0.560797 0.702169
vt 0.548686 0.703281
vt 0.560796 0.712600
vt 0.544956 0.715207
vt 0.550236 0.713418
vt 0.551620 0.711909
vt 0.559206 0.711348
vt 0.559107 0.703658
vt 0.552856 0.710443
vt 0.557769 0.710113
vt 0.557559 0.705153
vt 0.550563 0.704463
vt 0.552316 0.705668
vt 0.554940 0.707582
vt 0.554180 0.707697
vt 0.554980 0.708178
vt 0.554232 0.708189
vt 0.507754 0.730333
vt 0.499847 0.712288
vt 0.534618 0.748560
vt 0.485287 0.746651
vt 0.485613 0.745465
vt 0.506352 0.730413
vt 0.521928 0.760041
vt 0.498842 0.713881
vt 0.466225 0.735536
vt 0.468323 0.735036
vt 0.463636 0.682093
vt 0.483503 0.668356
vt 0.509374 0.677702
vt 0.529951 0.670467
vt 0.497836 0.715475
vt 0.470421 0.734538
vt 0.504951 0.730492
vt 0.497485 0.716618
vt 0.472375 0.734109
vt 0.503570 0.730491
vt 0.485939 0.744279
vt 0.485790 0.743339
vt 0.486071 0.742190
vt 0.502199 0.730511
vt 0.496554 0.718155
vt 0.486353 0.741041
vt 0.500829 0.730532
vt 0.495622 0.719693
vt 0.474409 0.733690
vt 0.476443 0.733272
vt 0.491656 0.723591
vt 0.481651 0.730633
vt 0.496359 0.731992
vt 0.490964 0.725679
vt 0.484045 0.730624
vt 0.494451 0.731657
vt 0.488908 0.737297
vt 0.489040 0.735434
vt 0.489144 0.733667
vt 0.492627 0.731302
vt 0.490314 0.727753
vt 0.488496 0.731781
vt 0.488608 0.731811
vt 0.488348 0.731499
vt 0.486417 0.730670
vt 0.488351 0.731611
vt 0.543795 0.761717
vt 0.535841 0.768324
vt 0.516365 0.774205
vt 0.532775 0.775496
vt 0.416962 0.725695
vt 0.426070 0.709827
vt 0.450811 0.762391
vt 0.472543 0.770818
vt 0.519215 0.788643
vt 0.534345 0.782886
vt 0.477063 0.794064
vt 0.474271 0.793155
vt 0.470108 0.772094
vt 0.450141 0.764473
vt 0.457719 0.808861
vt 0.456542 0.806794
vt 0.386762 0.822952
vt 0.382680 0.795492
vt 0.449472 0.766556
vt 0.455365 0.804727
vt 0.467673 0.773370
vt 0.448597 0.767759
vt 0.454145 0.802790
vt 0.465080 0.774601
vt 0.471480 0.792247
vt 0.468629 0.791774
vt 0.465892 0.790943
vt 0.462565 0.775802
vt 0.447949 0.769758
vt 0.463154 0.790112
vt 0.460051 0.777003
vt 0.447301 0.771759
vt 0.452973 0.800808
vt 0.451800 0.798828
vt 0.446733 0.777947
vt 0.449462 0.792751
vt 0.456623 0.780850
vt 0.446502 0.780223
vt 0.448748 0.790359
vt 0.453347 0.782064
vt 0.458627 0.786938
vt 0.455201 0.786279
vt 0.451920 0.785746
vt 0.450245 0.783128
vt 0.446426 0.782558
vt 0.425467 0.784887
vt 0.421354 0.785762
vt 0.424994 0.785688
vt 0.448135 0.787896
vt 0.426632 0.785680
vt 0.500518 0.817810
vt 0.484847 0.835176
vt 0.463260 0.872756
vt 0.447231 0.857207
vt 0.529571 0.801908
vt 0.540916 0.790741
vt 0.546520 0.810690
vt 0.540498 0.789512
vt 0.552460 0.794943
vt 0.517812 0.886121
vt 0.494033 0.876410
vt 0.525088 0.851611
vt 0.529867 0.831736
vt 0.528333 0.831885
vt 0.501154 0.818956
vt 0.487048 0.835170
vt 0.526798 0.832033
vt 0.501790 0.820102
vt 0.489250 0.835164
vt 0.523763 0.850314
vt 0.522440 0.849016
vt 0.490717 0.834894
vt 0.521181 0.847754
vt 0.502344 0.821292
vt 0.492821 0.834853
vt 0.519968 0.846465
vt 0.502902 0.822436
vt 0.525794 0.832502
vt 0.524327 0.832681
vt 0.522861 0.832860
vt 0.503461 0.823580
vt 0.494927 0.834813
vt 0.517345 0.831851
vt 0.507549 0.827273
vt 0.501482 0.836569
vt 0.518756 0.845175
vt 0.495496 0.834741
vt 0.513540 0.841765
vt 0.503953 0.836024
vt 0.512428 0.839761
vt 0.508186 0.829275
vt 0.506339 0.835401
vt 0.511404 0.837791
vt 0.508730 0.831174
vt 0.515304 0.832514
vt 0.513394 0.833206
vt 0.508968 0.833523
vt 0.508744 0.833506
vt 0.508656 0.833970
vt 0.508673 0.833965
vt 0.508453 0.833654
vt 0.567239 0.837446
vt 0.565674 0.857802
vt 0.558154 0.884300
vt 0.534172 0.880642
vt 0.604638 0.854083
vt 0.567238 0.856906
vt 0.602992 0.853536
vt 0.594437 0.881229
vt 0.571414 0.883427
vt 0.568442 0.838050
vt 0.599371 0.834709
vt 0.598228 0.835551
vt 0.587140 0.812794
vt 0.567145 0.814522
vt 0.597085 0.836392
vt 0.569645 0.838654
vt 0.568802 0.856009
vt 0.596546 0.837239
vt 0.570801 0.839314
vt 0.569641 0.855179
vt 0.601348 0.852990
vt 0.599814 0.852430
vt 0.571116 0.854294
vt 0.598258 0.851844
vt 0.571938 0.839953
vt 0.572592 0.853409
vt 0.596704 0.851259
vt 0.573074 0.840592
vt 0.595473 0.838072
vt 0.594401 0.838905
vt 0.589144 0.840653
vt 0.578571 0.841521
vt 0.578553 0.851953
vt 0.587749 0.842171
vt 0.580155 0.842765
vt 0.580241 0.850459
vt 0.590632 0.850806
vt 0.588765 0.849625
vt 0.581791 0.848954
vt 0.587027 0.848427
vt 0.581587 0.843992
vt 0.584411 0.846518
vt 0.585170 0.846402
vt 0.584372 0.845921
vt 0.586502 0.843649
vt 0.585121 0.845910
vt 0.567857 0.797538
vt 0.583224 0.796497
vt 0.604914 0.805566
vt 0.595991 0.792207
vt 0.631662 0.823919
vt 0.629831 0.876507
vt 0.609239 0.883658
vt 0.639486 0.841980
vt 0.617649 0.794294
vt 0.604169 0.786092
vt 0.675637 0.872223
vt 0.655754 0.885924
vt 0.673134 0.818793
vt 0.640494 0.840389
vt 0.671037 0.819292
vt 0.633061 0.823845
vt 0.654114 0.807702
vt 0.653785 0.808881
vt 0.653456 0.810060
vt 0.634460 0.823771
vt 0.641503 0.838797
vt 0.653602 0.810996
vt 0.635839 0.823779
vt 0.641857 0.837655
vt 0.668942 0.819790
vt 0.666989 0.820219
vt 0.642791 0.836119
vt 0.664957 0.820637
vt 0.637208 0.823763
vt 0.643727 0.834583
vt 0.662925 0.821055
vt 0.638577 0.823748
vt 0.653317 0.812138
vt 0.653032 0.813280
vt 0.650478 0.817055
vt 0.642999 0.822292
vt 0.647698 0.830698
vt 0.650341 0.818904
vt 0.644911 0.822635
vt 0.648392 0.828617
vt 0.657717 0.823687
vt 0.655322 0.823694
vt 0.649046 0.826549
vt 0.652949 0.823647
vt 0.646739 0.822999
vt 0.651020 0.822818
vt 0.651018 0.822706
vt 0.650761 0.822507
vt 0.650230 0.820657
vt 0.650873 0.822537
vt 0.666829 0.783592
vt 0.688519 0.791990
vt 0.623154 0.780298
vt 0.607216 0.779341
vt 0.620141 0.765955
vt 0.605325 0.772181
vt 0.662285 0.760395
vt 0.752521 0.731432
vt 0.756611 0.758879
vt 0.681597 0.745541
vt 0.722301 0.828616
vt 0.713211 0.844453
vt 0.689190 0.789909
vt 0.682776 0.747608
vt 0.669263 0.782317
vt 0.689861 0.787826
vt 0.683955 0.749674
vt 0.671696 0.781043
vt 0.665075 0.761301
vt 0.667864 0.762208
vt 0.670712 0.762679
vt 0.674288 0.779816
vt 0.690738 0.786624
vt 0.673448 0.763508
vt 0.676801 0.778616
vt 0.691388 0.784625
vt 0.685177 0.751610
vt 0.686351 0.753591
vt 0.692037 0.782624
vt 0.687526 0.755571
vt 0.679314 0.777417
vt 0.692580 0.776472
vt 0.689897 0.761675
vt 0.682733 0.773578
vt 0.676183 0.764337
vt 0.680716 0.767505
vt 0.684143 0.768160
vt 0.686004 0.772365
vt 0.692821 0.774200
vt 0.687425 0.768688
vt 0.689101 0.771301
vt 0.692908 0.771869
vt 0.690604 0.764069
vt 0.691211 0.766534
vt 0.714347 0.768743
vt 0.712710 0.768751
vt 0.717988 0.768669
vt 0.713875 0.769543
vt 0.638770 0.736681
vt 0.654394 0.719273
vt 0.609477 0.752653
vt 0.610910 0.722457
vt 0.638133 0.735521
vt 0.652185 0.719281
vt 0.615599 0.704078
vt 0.621625 0.668356
vt 0.645329 0.678105
vt 0.675907 0.681621
vt 0.691981 0.697143
vt 0.649975 0.719289
vt 0.616917 0.705383
vt 0.637496 0.734361
vt 0.648522 0.719591
vt 0.618090 0.706636
vt 0.636941 0.733159
vt 0.612458 0.722313
vt 0.613475 0.721847
vt 0.614955 0.721673
vt 0.636382 0.732001
vt 0.646411 0.719635
vt 0.616435 0.721499
vt 0.635823 0.730844
vt 0.644299 0.719678
vt 0.619297 0.707931
vt 0.620503 0.709225
vt 0.637901 0.717878
vt 0.625732 0.712602
vt 0.631740 0.727086
vt 0.635393 0.718407
vt 0.626858 0.714612
vt 0.631116 0.725093
vt 0.621913 0.722531
vt 0.623970 0.721867
vt 0.625898 0.721171
vt 0.630580 0.723205
vt 0.632968 0.719015
vt 0.630412 0.720806
vt 0.630713 0.720835
vt 0.630873 0.720552
vt 0.627895 0.716588
vt 0.630671 0.720330
vt 0.598259 0.764900
vt 0.615846 0.608973
vt 0.650898 0.625486
vt 0.634398 0.660509
vt 0.599347 0.643996
vt 0.356834 0.643595
vt 0.353879 0.664603
vt 0.320181 0.654137
vt 0.337246 0.637649
vt 0.580794 0.592460
vt 0.564295 0.627483
vt 0.376366 0.645322
vt 0.384724 0.666165
vt 0.345192 0.710780
vt 0.311385 0.701064
vt 0.313732 0.669245
vt 0.349497 0.682733
vt 0.380084 0.711169
vt 0.387781 0.681546
vt 0.351179 0.682088
vt 0.386229 0.681103
vt 0.354954 0.665209
vt 0.352862 0.681445
vt 0.384678 0.680660
vt 0.356028 0.665816
vt 0.383498 0.666646
vt 0.382273 0.667128
vt 0.381621 0.667678
vt 0.357100 0.666458
vt 0.353859 0.680842
vt 0.380463 0.668166
vt 0.358107 0.667089
vt 0.355454 0.680200
vt 0.383195 0.680221
vt 0.381734 0.679745
vt 0.357050 0.679557
vt 0.380274 0.679269
vt 0.359115 0.667719
vt 0.362964 0.678772
vt 0.374721 0.678544
vt 0.364181 0.669144
vt 0.379306 0.668655
vt 0.374296 0.669580
vt 0.372817 0.670748
vt 0.365555 0.670434
vt 0.364774 0.677554
vt 0.371460 0.671895
vt 0.366795 0.671694
vt 0.366458 0.676301
vt 0.373058 0.677400
vt 0.371487 0.676246
vt 0.369192 0.674284
vt 0.369917 0.674248
vt 0.369219 0.673741
vt 0.369919 0.673803
vt 0.412436 0.660357
vt 0.417070 0.672258
vt 0.393653 0.642877
vt 0.432781 0.650838
vt 0.432183 0.651551
vt 0.413552 0.660309
vt 0.406685 0.637417
vt 0.417957 0.671314
vt 0.442202 0.658797
vt 0.440784 0.659084
vt 0.437326 0.701302
vt 0.410864 0.706532
vt 0.418845 0.670370
vt 0.439366 0.659370
vt 0.414668 0.660261
vt 0.419239 0.669682
vt 0.438061 0.659605
vt 0.415733 0.660262
vt 0.431584 0.652265
vt 0.431411 0.652828
vt 0.430857 0.653522
vt 0.416813 0.660252
vt 0.420069 0.668767
vt 0.430303 0.654216
vt 0.417893 0.660242
vt 0.420900 0.667852
vt 0.436694 0.659841
vt 0.435328 0.660077
vt 0.424007 0.665509
vt 0.431600 0.661434
vt 0.421325 0.659474
vt 0.424708 0.664146
vt 0.430002 0.661280
vt 0.422727 0.659812
vt 0.427846 0.656429
vt 0.427395 0.657651
vt 0.426955 0.658832
vt 0.424083 0.660165
vt 0.425381 0.662791
vt 0.427127 0.660172
vt 0.427053 0.660142
vt 0.427194 0.660378
vt 0.428410 0.661103
vt 0.427206 0.660301
vt 0.521659 0.564601
vt 0.548786 0.577381
vt 0.532287 0.612404
vt 0.505160 0.599624
vt 0.498600 0.553738
vt 0.482100 0.588761
vt 0.460271 0.698842
vt 0.467296 0.645357
vt 0.413298 0.630337
vt 0.446395 0.635471
vt 0.475540 0.542874
vt 0.459491 0.577770
vt 0.410007 0.627135
vt 0.439226 0.622907
vt 0.413295 0.635154
vt 0.443626 0.624472
vt 0.450296 0.635394
vt 0.469195 0.644597
vt 0.448047 0.619720
vt 0.451841 0.620527
vt 0.471092 0.643837
vt 0.455635 0.621333
vt 0.454197 0.635317
vt 0.473471 0.643563
vt 0.459379 0.622068
vt 0.458321 0.635255
vt 0.448025 0.626037
vt 0.452414 0.627398
vt 0.456722 0.628856
vt 0.462323 0.635273
vt 0.475346 0.642810
vt 0.461031 0.630314
vt 0.466326 0.635292
vt 0.477219 0.642056
vt 0.463181 0.622877
vt 0.466985 0.623686
vt 0.479140 0.638197
vt 0.472713 0.627473
vt 0.471221 0.633934
vt 0.481253 0.637004
vt 0.476134 0.629237
vt 0.475727 0.634160
vt 0.467317 0.632558
vt 0.472102 0.633240
vt 0.476751 0.633729
vt 0.479917 0.634580
vt 0.483072 0.635713
vt 0.523846 0.639127
vt 0.527178 0.639536
vt 0.535066 0.640089
vt 0.479460 0.631143
vt 0.527087 0.637752
vt 0.422558 0.607479
vt 0.431168 0.599800
vt 0.434415 0.564574
vt 0.448187 0.530426
vt 0.414933 0.518469
vt 0.405516 0.552554
vt 0.404646 0.581174
vt 0.383951 0.611291
vt 0.399056 0.595217
vt 0.399739 0.618668
vt 0.400272 0.595349
vt 0.421848 0.606725
vt 0.429768 0.599293
vt 0.401488 0.595481
vt 0.421138 0.605971
vt 0.428367 0.598786
vt 0.405555 0.582313
vt 0.406463 0.583451
vt 0.427475 0.598623
vt 0.407335 0.584547
vt 0.420535 0.605220
vt 0.426134 0.598162
vt 0.408168 0.585660
vt 0.419889 0.604475
vt 0.402276 0.595351
vt 0.403441 0.595453
vt 0.404605 0.595554
vt 0.419244 0.603729
vt 0.424791 0.597700
vt 0.408778 0.596891
vt 0.416333 0.601021
vt 0.420725 0.595622
vt 0.409001 0.586773
vt 0.412559 0.589963
vt 0.418994 0.595600
vt 0.413233 0.591599
vt 0.415846 0.599623
vt 0.417293 0.595615
vt 0.413839 0.593213
vt 0.415389 0.598279
vt 0.410412 0.596648
vt 0.411967 0.596365
vt 0.415360 0.596563
vt 0.415572 0.596612
vt 0.415699 0.596433
vt 0.415570 0.596259
vt 0.367414 0.586638
vt 0.370838 0.570532
vt 0.373762 0.545296
vt 0.335046 0.572287
vt 0.369280 0.571091
vt 0.336552 0.572606
vt 0.341596 0.545496
vt 0.366353 0.586130
vt 0.338522 0.585309
vt 0.339654 0.584939
vt 0.346396 0.604154
vt 0.364960 0.605884
vt 0.340787 0.584569
vt 0.365292 0.585621
vt 0.367721 0.571650
vt 0.341353 0.584125
vt 0.364290 0.585075
vt 0.366837 0.572168
vt 0.338056 0.572924
vt 0.339424 0.573250
vt 0.365362 0.572726
vt 0.340844 0.573598
vt 0.363292 0.584546
vt 0.363885 0.573284
vt 0.342263 0.573947
vt 0.362294 0.584017
vt 0.342422 0.583747
vt 0.343491 0.583369
vt 0.348082 0.582504
vt 0.357556 0.582819
vt 0.358469 0.574048
vt 0.349435 0.581450
vt 0.356234 0.581671
vt 0.356807 0.575169
vt 0.347464 0.574466
vt 0.349057 0.575457
vt 0.355251 0.576324
vt 0.350569 0.576461
vt 0.355031 0.580544
vt 0.352745 0.578212
vt 0.352075 0.578258
vt 0.352732 0.578705
vt 0.350686 0.580419
vt 0.352083 0.578660
vt 0.339067 0.511082
vt 0.377227 0.511082
vt 0.305036 0.516840
vt 0.312719 0.551228
vt 0.330352 0.606034
vt 0.314307 0.590748
vt 0.309511 0.580840
vt 0.276825 0.524986
vt 0.287920 0.559795
vt 0.291513 0.593206
vt 0.308887 0.581653
vt 0.292506 0.592846
vt 0.313375 0.590781
vt 0.297179 0.597689
vt 0.297753 0.597198
vt 0.318033 0.610578
vt 0.298326 0.596707
vt 0.312444 0.590813
vt 0.308262 0.582465
vt 0.298533 0.596334
vt 0.311557 0.590819
vt 0.307985 0.583045
vt 0.293498 0.592486
vt 0.294402 0.592187
vt 0.307401 0.583830
vt 0.295359 0.591870
vt 0.310657 0.590824
vt 0.306817 0.584616
vt 0.296315 0.591554
vt 0.309758 0.590830
vt 0.299067 0.595855
vt 0.299601 0.595376
vt 0.301566 0.593811
vt 0.306925 0.591480
vt 0.304506 0.586662
vt 0.301970 0.592912
vt 0.305780 0.591231
vt 0.304025 0.587783
vt 0.298967 0.590346
vt 0.300129 0.590364
vt 0.303573 0.588902
vt 0.301290 0.590385
vt 0.304668 0.590964
vt 0.302263 0.591058
vt 0.302145 0.591112
vt 0.302274 0.591067
vt 0.302135 0.590884
vt 0.302376 0.592038
vt 0.302231 0.591060
vt 0.302180 0.590985
vt 0.285458 0.607068
vt 0.278313 0.605506
vt 0.310478 0.616881
vt 0.253122 0.533273
vt 0.265708 0.569273
vt 0.229418 0.541560
vt 0.242005 0.577560
vt 0.310982 0.624877
vt 0.280518 0.617122
vt 0.246910 0.572441
vt 0.257527 0.620971
vt 0.274257 0.605238
vt 0.256063 0.620177
vt 0.280918 0.607574
vt 0.270201 0.604971
vt 0.254597 0.619383
vt 0.276378 0.608081
vt 0.276607 0.616147
vt 0.272696 0.615173
vt 0.268527 0.614281
vt 0.271728 0.608527
vt 0.266494 0.604361
vt 0.264685 0.613384
vt 0.267113 0.608939
vt 0.262557 0.604138
vt 0.252989 0.618547
vt 0.251408 0.617727
vt 0.258620 0.603915
vt 0.249826 0.616906
vt 0.262499 0.609351
vt 0.252837 0.605845
vt 0.248348 0.613422
vt 0.256347 0.609988
vt 0.260842 0.612487
vt 0.256119 0.610303
vt 0.251968 0.609569
vt 0.251342 0.609525
vt 0.248806 0.606646
vt 0.247980 0.609069
vt 0.246588 0.608908
vt 0.244925 0.607604
vt 0.246801 0.612082
vt 0.245442 0.610718
vt 0.180658 0.601546
vt 0.192551 0.598523
vt 0.196956 0.600682
vt 0.189513 0.598131
vt 0.199410 0.602263
vt 0.194378 0.604405
vt 0.295943 0.638610
vt 0.283621 0.647002
vt 0.321686 0.629444
vt 0.312675 0.620345
vt 0.318867 0.653908
vt 0.296559 0.639506
vt 0.285299 0.647631
vt 0.312735 0.667937
vt 0.281342 0.687695
vt 0.255862 0.676411
vt 0.286978 0.648261
vt 0.311740 0.666629
vt 0.297174 0.640401
vt 0.288080 0.648491
vt 0.310793 0.665376
vt 0.297731 0.641318
vt 0.317552 0.653680
vt 0.316663 0.653765
vt 0.315402 0.653574
vt 0.298278 0.642201
vt 0.289690 0.649065
vt 0.314141 0.653383
vt 0.298825 0.643084
vt 0.291300 0.649640
vt 0.309885 0.664101
vt 0.308979 0.662826
vt 0.295976 0.652315
vt 0.305118 0.659129
vt 0.301762 0.646448
vt 0.298014 0.652443
vt 0.304435 0.657268
vt 0.302129 0.648077
vt 0.309650 0.651639
vt 0.307838 0.651807
vt 0.306112 0.652021
vt 0.302459 0.649625
vt 0.300022 0.652514
vt 0.302323 0.651561
vt 0.302086 0.651490
vt 0.301924 0.651683
vt 0.303820 0.655432
vt 0.302056 0.651891
vt 0.682906 0.640566
vt 0.666406 0.675588
vt 0.710033 0.653345
vt 0.693533 0.688368
vt 0.689292 0.692131
vt 0.718688 0.675159
vt 0.718688 0.709101
vt 0.748085 0.658189
vt 0.718688 0.641216
vt 0.748085 0.624243
vt 0.689291 0.420580
vt 0.718688 0.403605
vt 0.718688 0.437553
vt 0.689291 0.488466
vt 0.718688 0.471493
vt 0.718688 0.505441
vt 0.689291 0.556353
vt 0.718688 0.539383
vt 0.718688 0.573326
vt 0.777482 0.641216
vt 0.748085 0.726076
vt 0.748085 0.692131
vt 0.777482 0.709101
vt 0.748085 0.454523
vt 0.748085 0.420580
vt 0.777482 0.437548
vt 0.748085 0.522411
vt 0.748085 0.488468
vt 0.777482 0.505441
vt 0.748085 0.590298
vt 0.748085 0.556353
vt 0.777482 0.573326
vt 0.777482 0.675159
vt 0.777482 0.743049
vt 0.777482 0.471495
vt 0.777482 0.539383
vt 0.777482 0.607271
vt 0.806878 0.692131
vt 0.806878 0.658189
vt 0.836275 0.675159
vt 0.806878 0.760019
vt 0.806878 0.726076
vt 0.836275 0.743049
vt 0.806878 0.488466
vt 0.806878 0.454523
vt 0.836275 0.471493
vt 0.806878 0.556353
vt 0.806878 0.522411
vt 0.836275 0.539383
vt 0.806878 0.624243
vt 0.806878 0.590296
vt 0.836275 0.607271
vt 0.836275 0.573326
vt 0.865672 0.590298
vt 0.836275 0.505441
vt 0.865672 0.522411
vt 0.836275 0.437553
vt 0.865672 0.454523
vt 0.806878 0.420580
vt 0.836275 0.709101
vt 0.865672 0.726076
vt 0.836275 0.641216
vt 0.865672 0.658189
vt 0.777482 0.403605
vt 0.748085 0.386635
vt 0.718688 0.607271
vt 0.689292 0.624243
s 0
usemtl マテリアル
f 2/1/1 5/2/1 4/3/1 1/4/1
f 1/5/2 3/6/2 8/7/2 2/8/2
f 4/3/3 6/9/3 3/10/3 1/11/3
f 5/2/4 7/12/4 6/9/4 4/3/4
f 7/12/5 8/13/5 3/14/5 6/9/5
f 2/8/6 8/7/6 7/12/6 5/2/6
f 9/15/7 10/16/7 16/17/7 13/18/7
f 9/15/8 11/19/8 10/16/8
f 12/20/9 11/19/9 9/15/9
f 12/20/10 9/15/10 13/18/10 15/21/10
f 15/21/11 13/18/11 14/22/11 21/23/11
f 13/18/12 16/17/12 17/24/12 14/22/12
f 10/25/13 20/26/13 18/27/13 16/28/13
f 16/28/14 18/27/14 19/29/14 17/30/14
f 18/27/15 15/21/15 21/23/15 19/29/15
f 20/26/16 12/20/16 15/21/16 18/27/16
f 10/25/17 11/19/17 20/26/17
f 20/26/18 11/19/18 12/20/18
f 17/24/19 19/29/19 21/23/19 14/22/19
f 23/31/20 22/32/20 27/33/20 28/34/20
f 22/32/2 23/35/2 60/36/2 26/37/2
f 22/32/19 24/38/19 29/39/19 27/33/19
f 25/40/19 45/41/19 24/38/19 22/32/19
f 25/40/19 22/32/19 26/37/19 61/42/19
f 27/33/2 29/39/2 30/43/2 28/34/2
f 24/38/21 31/44/21 30/43/21 29/39/21
f 28/45/2 30/46/2 32/47/2 33/48/2
f 30/46/21 31/49/21 34/50/21 32/47/21
f 34/50/22 35/51/22 33/48/22 32/47/22
f 31/52/4 23/53/4 35/51/4 34/50/4
f 23/54/20 28/45/20 33/48/20 35/51/20
f 31/52/2 24/38/2 44/55/2 37/56/2
f 23/53/22 31/52/22 36/57/22 50/58/22
f 36/57/20 31/52/20 38/59/20 39/60/20
f 31/52/2 37/56/2 40/61/2 38/59/2
f 39/60/22 38/59/22 40/61/22 41/62/22
f 37/56/21 42/63/21 41/62/21 40/61/21
f 42/63/4 36/57/4 39/60/4 41/62/4
f 42/64/21 37/56/21 44/55/21 43/65/21
f 45/41/4 36/66/4 42/64/4 43/65/4
f 24/38/19 45/41/19 43/65/19 44/55/19
f 36/67/21 45/41/21 46/68/21 47/69/21
f 45/41/19 25/40/19 48/70/19 46/68/19
f 49/71/4 47/69/4 46/68/4 48/70/4
f 25/40/20 50/72/20 49/71/20 48/70/20
f 47/73/4 49/74/4 51/75/4 52/76/4
f 49/74/20 50/77/20 53/78/20 51/75/20
f 53/78/22 54/79/22 52/76/22 51/75/22
f 50/58/2 36/57/2 54/79/2 53/78/2
f 36/80/21 47/73/21 52/76/21 54/79/21
f 23/53/21 50/58/21 56/81/21 57/82/21
f 50/83/4 25/40/4 61/42/4 55/84/4
f 50/58/4 55/85/4 58/86/4 56/81/4
f 57/82/22 56/81/22 58/86/22 59/87/22
f 55/85/20 60/88/20 59/87/20 58/86/20
f 60/88/2 23/53/2 57/82/2 59/87/2
f 60/36/20 55/84/20 61/42/20 26/37/20
f 63/89/1 66/90/1 65/91/1 62/92/1
f 62/93/2 64/94/2 69/95/2 63/96/2
f 65/91/23 67/97/23 64/98/23 62/99/23
f 66/90/4 68/100/4 67/97/4 65/91/4
f 68/100/5 69/101/5 64/102/5 67/97/5
f 63/96/24 69/95/24 68/100/24 66/90/24
f 70/103/2 71/104/2 82/105/2 81/106/2 80/107/2 79/108/2 74/109/2 73/110/2
f 70/111/25 72/112/25 85/113/25 71/114/25
f 73/115/26 75/116/26 72/117/26 70/118/26
f 74/119/27 76/120/27 75/116/27 73/115/27
f 85/121/4 72/122/4 75/123/4 76/124/4 77/125/4 78/126/4 83/127/4 84/128/4
f 79/129/28 77/130/28 76/120/28 74/119/28
f 80/131/29 78/132/29 77/130/29 79/129/29
f 81/133/30 83/134/30 78/132/30 80/131/30
f 82/135/31 84/136/31 83/134/31 81/133/31
f 71/114/32 85/113/32 84/136/32 82/135/32
f 86/137/33 87/138/33 91/139/33 90/140/33
f 86/137/4 89/141/4 398/142/4 87/138/4
f 88/143/34 86/137/34 90/140/34 92/144/34
f 88/143/4 132/145/4 89/141/4 86/137/4
f 90/146/2 91/147/2 94/148/2 93/149/2
f 92/150/2 90/151/2 93/149/2 95/152/2
f 398/142/35 89/141/35 93/149/35 94/148/35
f 95/152/5 93/149/5 96/153/5 97/154/5
f 89/141/5 99/155/5 96/153/5 93/149/5
f 97/154/5 96/153/5 98/156/5 131/157/5
f 99/155/5 101/158/5 98/156/5 96/153/5
f 100/159/5 102/160/5 101/158/5 99/155/5
f 132/145/5 100/159/5 99/155/5 89/141/5
f 102/160/36 104/161/36 103/162/36 101/158/36
f 101/158/37 103/162/37 106/163/37 98/156/37
f 104/161/5 130/164/5 105/165/5 103/162/5
f 103/162/5 105/165/5 108/166/5 106/163/5
f 107/167/5 106/163/5 108/166/5 109/168/5
f 131/157/4 98/156/4 106/163/4 107/167/4
f 109/168/5 108/166/5 110/169/5 111/170/5
f 105/165/5 113/171/5 110/169/5 108/166/5
f 111/170/23 110/169/23 112/172/23 129/173/23
f 113/171/38 115/174/38 112/172/38 110/169/38
f 114/175/39 116/176/39 115/174/39 113/171/39
f 130/164/5 114/175/5 113/171/5 105/165/5
f 116/176/40 118/177/40 117/178/40 115/174/40
f 115/174/34 117/178/34 120/179/34 112/172/34
f 118/177/5 128/180/5 119/181/5 117/178/5
f 117/178/5 119/181/5 122/182/5 120/179/5
f 121/183/5 120/179/5 122/182/5 123/184/5
f 129/173/2 112/172/2 120/179/2 121/183/2
f 123/184/2 122/182/2 124/185/2 125/186/2
f 119/181/41 126/187/41 124/185/41 122/182/41
f 126/187/38 127/188/38 125/186/38 124/185/38
f 128/180/4 127/188/4 126/187/4 119/181/4
f 127/188/42 128/180/42 123/184/42 125/186/42
f 128/180/5 118/177/5 121/183/5 123/184/5
f 118/177/34 116/176/34 129/173/34 121/183/34
f 116/176/38 114/175/38 111/170/38 129/173/38
f 114/175/5 130/164/5 109/168/5 111/170/5
f 130/164/5 104/161/5 107/167/5 109/168/5
f 104/161/34 102/160/34 131/157/34 107/167/34
f 102/160/5 100/159/5 97/154/5 131/157/5
f 100/159/5 132/145/5 95/152/5 97/154/5
f 132/145/43 133/189/43 137/190/43 95/152/43
f 135/191/4 133/189/4 132/145/4 88/143/4
f 134/192/5 174/193/5 136/194/5 133/189/5
f 177/195/4 134/192/4 133/189/4 135/191/4
f 133/189/5 136/194/5 140/196/5 137/190/5
f 138/197/5 137/190/5 140/196/5 141/198/5
f 175/199/2 139/200/2 137/190/2 138/197/2
f 139/201/2 92/202/2 95/152/2 137/190/2
f 141/198/5 140/196/5 142/203/5 143/204/5
f 136/194/5 145/205/5 142/203/5 140/196/5
f 143/204/4 142/203/4 144/206/4 173/207/4
f 145/205/44 147/208/44 144/206/44 142/203/44
f 146/209/45 148/210/45 147/208/45 145/205/45
f 174/193/5 146/209/5 145/205/5 136/194/5
f 148/210/5 150/211/5 149/212/5 147/208/5
f 147/208/5 149/212/5 152/213/5 144/206/5
f 150/211/5 172/214/5 151/215/5 149/212/5
f 149/212/5 151/215/5 154/216/5 152/213/5
f 153/217/5 152/213/5 154/216/5 155/218/5
f 173/207/5 144/206/5 152/213/5 153/217/5
f 155/218/46 154/216/46 156/219/46 157/220/46
f 151/215/47 159/221/47 156/219/47 154/216/47
f 157/220/23 156/219/23 158/222/23 171/223/23
f 159/221/44 161/224/44 158/222/44 156/219/44
f 160/225/48 162/226/48 161/224/48 159/221/48
f 172/214/49 160/225/49 159/221/49 151/215/49
f 162/226/5 164/227/5 163/228/5 161/224/5
f 161/224/5 163/228/5 166/229/5 158/222/5
f 164/227/4 170/230/4 165/231/4 163/228/4
f 163/228/50 165/231/50 168/232/50 166/229/50
f 167/233/2 166/229/2 168/232/2 169/234/2
f 171/223/5 158/222/5 166/229/5 167/233/5
f 165/231/47 170/230/47 169/234/47 168/232/47
f 170/230/51 164/227/51 167/233/51 169/234/51
f 164/227/5 162/226/5 171/223/5 167/233/5
f 162/226/44 160/225/44 157/220/44 171/223/44
f 160/225/47 172/214/47 155/218/47 157/220/47
f 172/214/5 150/211/5 153/217/5 155/218/5
f 150/211/5 148/210/5 173/207/5 153/217/5
f 148/210/44 146/209/44 143/204/44 173/207/44
f 146/209/5 174/193/5 141/198/5 143/204/5
f 174/193/5 134/192/5 138/197/5 141/198/5
f 177/195/44 135/191/44 139/235/44 175/236/44
f 135/191/52 88/143/52 92/144/52 139/235/52
f 178/237/53 177/195/53 175/236/53 176/238/53
f 176/239/2 175/240/2 138/197/2 183/241/2
f 178/237/4 180/242/4 134/192/4 177/195/4
f 179/243/41 178/237/41 176/238/41 221/244/41
f 179/243/4 181/245/4 180/242/4 178/237/4
f 181/245/5 219/246/5 182/247/5 180/242/5
f 134/192/54 180/242/54 183/241/54 138/197/54
f 180/242/5 182/247/5 185/248/5 183/241/5
f 184/249/5 183/241/5 185/248/5 186/250/5
f 221/251/2 176/252/2 183/241/2 184/249/2
f 186/250/5 185/248/5 187/253/5 188/254/5
f 182/247/5 190/255/5 187/253/5 185/248/5
f 188/254/5 187/253/5 189/256/5 218/257/5
f 190/255/41 192/258/41 189/256/41 187/253/41
f 191/259/55 193/260/55 192/258/55 190/255/55
f 219/246/5 191/259/5 190/255/5 182/247/5
f 193/260/5 195/261/5 194/262/5 192/258/5
f 192/258/5 194/262/5 197/263/5 189/256/5
f 195/261/5 217/264/5 196/265/5 194/262/5
f 194/262/5 196/265/5 199/266/5 197/263/5
f 198/267/5 197/263/5 199/266/5 200/268/5
f 218/257/5 189/256/5 197/263/5 198/267/5
f 200/268/2 199/266/2 201/269/2 202/270/2
f 196/265/42 204/271/42 201/269/42 199/266/42
f 202/270/4 201/269/4 203/272/4 216/273/4
f 204/271/41 206/274/41 203/272/41 201/269/41
f 205/275/56 207/276/56 206/274/56 204/271/56
f 217/264/57 205/275/57 204/271/57 196/265/57
f 207/276/5 209/277/5 208/278/5 206/274/5
f 206/274/5 208/278/5 211/279/5 203/272/5
f 209/277/4 215/280/4 210/281/4 208/278/4
f 208/278/38 210/281/38 213/282/38 211/279/38
f 212/283/2 211/279/2 213/282/2 214/284/2
f 216/273/5 203/272/5 211/279/5 212/283/5
f 210/281/42 215/280/42 214/284/42 213/282/42
f 215/280/34 209/277/34 212/283/34 214/284/34
f 209/277/5 207/276/5 216/273/5 212/283/5
f 207/276/41 205/275/41 202/270/41 216/273/41
f 205/275/42 217/264/42 200/268/42 202/270/42
f 217/264/5 195/261/5 198/267/5 200/268/5
f 195/261/5 193/260/5 218/257/5 198/267/5
f 193/260/41 191/259/41 188/254/41 218/257/41
f 191/259/5 219/246/5 186/250/5 188/254/5
f 219/246/5 181/245/5 184/249/5 186/250/5
f 181/245/58 226/285/58 220/286/58 184/249/58
f 222/287/2 221/288/2 184/249/2 220/286/2
f 224/289/59 179/243/59 221/244/59 222/290/59
f 225/291/50 224/289/50 222/292/50 223/293/50
f 223/294/2 222/295/2 220/286/2 264/296/2
f 225/291/4 227/297/4 226/285/4 224/289/4
f 224/289/4 226/285/4 181/245/4 179/243/4
f 227/297/5 229/298/5 228/299/5 226/285/5
f 226/285/5 228/299/5 231/300/5 220/286/5
f 229/298/5 263/301/5 230/302/5 228/299/5
f 228/299/5 230/302/5 233/303/5 231/300/5
f 232/304/5 231/300/5 233/303/5 234/305/5
f 264/296/5 220/286/5 231/300/5 232/304/5
f 234/305/23 233/303/23 235/306/23 236/307/23
f 230/302/50 238/308/50 235/306/50 233/303/50
f 236/307/5 235/306/5 237/309/5 262/310/5
f 238/308/5 240/311/5 237/309/5 235/306/5
f 239/312/5 241/313/5 240/311/5 238/308/5
f 263/301/60 239/312/60 238/308/60 230/302/60
f 241/313/5 243/314/5 242/315/5 240/311/5
f 240/311/5 242/315/5 245/316/5 237/309/5
f 243/314/61 261/317/61 244/318/61 242/315/61
f 242/315/51 244/318/51 247/319/51 245/316/51
f 246/320/4 245/321/4 247/319/4 248/322/4
f 262/310/5 237/309/5 245/316/5 246/320/5
f 248/322/1 247/319/1 249/323/1 250/324/1
f 244/318/50 252/325/50 249/323/50 247/319/50
f 250/324/5 249/323/5 251/326/5 260/327/5
f 252/325/5 254/328/5 251/326/5 249/323/5
f 253/329/5 255/330/5 254/328/5 252/325/5
f 261/317/62 253/329/62 252/325/62 244/318/62
f 255/330/4 257/331/4 256/332/4 254/328/4
f 254/328/47 256/332/47 258/333/47 251/326/47
f 256/332/51 257/331/51 259/334/51 258/335/51
f 260/327/2 251/326/2 258/335/2 259/334/2
f 257/331/44 255/330/44 260/327/44 259/334/44
f 255/330/5 253/329/5 250/324/5 260/327/5
f 253/329/50 261/317/50 248/322/50 250/324/50
f 261/317/51 243/314/51 246/320/51 248/322/51
f 243/314/5 241/313/5 262/310/5 246/320/5
f 241/313/5 239/312/5 236/307/5 262/310/5
f 239/312/50 263/301/50 234/305/50 236/307/50
f 263/301/5 229/298/5 232/304/5 234/305/5
f 229/298/5 227/297/5 264/296/5 232/304/5
f 227/297/33 269/336/33 265/337/33 264/296/33
f 267/338/2 223/339/2 264/296/2 265/337/2
f 266/340/5 265/337/5 268/341/5 306/342/5
f 309/343/2 267/344/2 265/337/2 266/340/2
f 269/336/5 272/345/5 268/341/5 265/337/5
f 270/346/5 273/347/5 272/345/5 269/336/5
f 307/348/4 270/346/4 269/336/4 271/349/4
f 271/349/4 269/336/4 227/297/4 225/291/4
f 273/347/5 275/350/5 274/351/5 272/345/5
f 272/345/5 274/351/5 277/352/5 268/341/5
f 275/350/63 305/353/63 276/354/63 274/351/63
f 274/351/38 276/354/38 279/355/38 277/352/38
f 278/356/64 277/352/64 279/355/64 280/357/64
f 306/342/5 268/341/5 277/352/5 278/356/5
f 280/357/5 279/355/5 281/358/5 282/359/5
f 276/354/5 284/360/5 281/358/5 279/355/5
f 282/359/5 281/358/5 283/361/5 304/362/5
f 284/360/5 286/363/5 283/361/5 281/358/5
f 285/364/5 287/365/5 286/363/5 284/360/5
f 305/353/5 285/364/5 284/360/5 276/354/5
f 287/365/5 289/366/5 288/367/5 286/363/5
f 286/363/34 288/367/34 291/368/34 283/361/34
f 289/366/65 303/369/65 290/370/65 288/367/65
f 288/367/38 290/370/38 293/371/38 291/368/38
f 292/372/5 291/368/5 293/371/5 294/373/5
f 304/362/24 283/361/24 291/368/24 292/372/24
f 294/373/5 293/371/5 295/374/5 296/375/5
f 290/370/5 298/376/5 295/374/5 293/371/5
f 296/375/2 295/374/2 297/377/2 302/378/2
f 298/376/42 300/379/42 297/377/42 295/374/42
f 299/380/4 301/381/4 300/379/4 298/376/4
f 303/369/5 299/380/5 298/376/5 290/370/5
f 300/379/34 301/381/34 302/378/34 297/377/34
f 301/381/41 299/380/41 296/375/41 302/378/41
f 299/380/5 303/369/5 294/373/5 296/375/5
f 303/369/38 289/366/38 292/372/38 294/373/38
f 289/366/34 287/365/34 304/362/34 292/372/34
f 287/365/5 285/364/5 282/359/5 304/362/5
f 285/364/5 305/353/5 280/357/5 282/359/5
f 305/353/38 275/350/38 278/356/38 280/357/38
f 275/350/5 273/347/5 306/342/5 278/356/5
f 273/347/5 270/346/5 266/340/5 306/342/5
f 307/348/38 271/349/38 267/382/38 309/383/38
f 271/349/35 225/291/35 223/293/35 267/382/35
f 308/384/43 307/348/43 309/383/43 310/385/43
f 308/384/4 315/386/4 270/346/4 307/348/4
f 310/387/2 309/388/2 266/340/2 312/389/2
f 353/390/47 308/384/47 310/385/47 311/391/47
f 311/392/2 310/393/2 312/389/2 313/394/2
f 313/394/5 312/389/5 314/395/5 351/396/5
f 270/346/52 315/386/52 312/389/52 266/340/52
f 315/386/5 317/397/5 314/395/5 312/389/5
f 316/398/5 318/399/5 317/397/5 315/386/5
f 353/390/4 316/398/4 315/386/4 308/384/4
f 318/399/5 320/400/5 319/401/5 317/397/5
f 317/397/5 319/401/5 322/402/5 314/395/5
f 320/400/66 350/403/66 321/404/66 319/401/66
f 319/401/47 321/404/47 324/405/47 322/402/47
f 323/406/5 322/402/5 324/405/5 325/407/5
f 351/396/5 314/395/5 322/402/5 323/406/5
f 325/407/5 324/405/5 326/408/5 327/409/5
f 321/404/5 329/410/5 326/408/5 324/405/5
f 327/409/5 326/408/5 328/411/5 349/412/5
f 329/410/5 331/413/5 328/411/5 326/408/5
f 330/414/5 332/415/5 331/413/5 329/410/5
f 350/403/5 330/414/5 329/410/5 321/404/5
f 332/415/67 334/416/67 333/417/67 331/413/67
f 331/413/44 333/417/44 336/418/44 328/411/44
f 334/416/68 348/419/68 335/420/68 333/417/68
f 333/417/47 335/420/47 338/421/47 336/418/47
f 337/422/4 336/418/4 338/421/4 339/423/4
f 349/412/2 328/411/2 336/418/2 337/422/2
f 339/423/5 338/421/5 340/424/5 341/425/5
f 335/420/5 343/426/5 340/424/5 338/421/5
f 341/425/2 340/424/2 342/427/2 347/428/2
f 343/426/51 345/429/51 342/427/51 340/424/51
f 344/430/4 346/431/4 345/429/4 343/426/4
f 348/419/5 344/430/5 343/426/5 335/420/5
f 345/429/44 346/431/44 347/428/44 342/427/44
f 346/431/50 344/430/50 341/425/50 347/428/50
f 344/430/5 348/419/5 339/423/5 341/425/5
f 348/419/47 334/416/47 337/422/47 339/423/47
f 334/416/44 332/415/44 349/412/44 337/422/44
f 332/415/5 330/414/5 327/409/5 349/412/5
f 330/414/5 350/403/5 325/407/5 327/409/5
f 350/403/47 320/400/47 323/406/47 325/407/47
f 320/400/5 318/399/5 351/396/5 323/406/5
f 318/399/5 316/398/5 313/394/5 351/396/5
f 316/398/53 352/432/53 358/433/53 313/394/53
f 354/434/4 352/432/4 316/398/4 353/390/4
f 354/434/54 353/390/54 311/391/54 356/435/54
f 355/436/42 354/434/42 356/435/42 357/437/42
f 355/436/4 396/438/4 352/432/4 354/434/4
f 357/439/2 356/440/2 358/433/2 359/441/2
f 356/442/2 311/443/2 313/394/2 358/433/2
f 359/441/5 358/433/5 360/444/5 361/445/5
f 352/432/5 363/446/5 360/444/5 358/433/5
f 361/445/5 360/444/5 362/447/5 395/448/5
f 363/446/5 365/449/5 362/447/5 360/444/5
f 364/450/5 366/451/5 365/449/5 363/446/5
f 396/438/5 364/450/5 363/446/5 352/432/5
f 366/451/69 368/452/69 367/453/69 365/449/69
f 365/449/42 367/453/42 370/454/42 362/447/42
f 368/452/5 394/455/5 369/456/5 367/453/5
f 367/453/5 369/456/5 372/457/5 370/454/5
f 371/458/5 370/454/5 372/457/5 373/459/5
f 395/448/23 362/447/23 370/454/23 371/458/23
f 373/459/5 372/457/5 374/460/5 375/461/5
f 369/456/5 377/462/5 374/460/5 372/457/5
f 375/461/70 374/460/70 376/463/70 393/464/70
f 377/462/41 379/465/41 376/463/41 374/460/41
f 378/466/71 380/467/71 379/465/71 377/462/71
f 394/455/5 378/466/5 377/462/5 369/456/5
f 380/467/72 382/468/72 381/469/72 379/465/72
f 379/465/42 381/469/42 384/470/42 376/463/42
f 382/468/5 392/471/5 383/472/5 381/469/5
f 381/469/5 383/472/5 386/473/5 384/470/5
f 385/474/5 384/470/5 386/473/5 387/475/5
f 393/464/4 376/463/4 384/470/4 385/474/4
f 387/475/2 386/473/2 388/476/2 389/477/2
f 383/472/34 390/478/34 388/476/34 386/473/34
f 390/478/41 391/479/41 389/477/41 388/476/41
f 392/471/4 391/479/4 390/478/4 383/472/4
f 391/479/38 392/471/38 387/475/38 389/477/38
f 392/471/5 382/468/5 385/474/5 387/475/5
f 382/468/42 380/467/42 393/464/42 385/474/42
f 380/467/41 378/466/41 375/461/41 393/464/41
f 378/466/5 394/455/5 373/459/5 375/461/5
f 394/455/5 368/452/5 371/458/5 373/459/5
f 368/452/42 366/451/42 395/448/42 371/458/42
f 366/451/5 364/450/5 361/445/5 395/448/5
f 364/450/5 396/438/5 359/441/5 361/445/5
f 396/438/59 397/480/59 401/481/59 359/441/59
f 399/482/4 397/480/4 396/438/4 355/436/4
f 398/142/5 437/483/5 400/484/5 397/480/5
f 87/138/4 398/142/4 397/480/4 399/482/4
f 397/480/5 400/484/5 403/485/5 401/481/5
f 94/148/5 401/481/5 403/485/5 404/486/5
f 91/487/2 402/488/2 401/481/2 94/148/2
f 402/489/2 357/490/2 359/441/2 401/481/2
f 404/486/5 403/485/5 405/491/5 406/492/5
f 400/484/5 408/493/5 405/491/5 403/485/5
f 406/492/4 405/491/4 407/494/4 436/495/4
f 408/493/51 410/496/51 407/494/51 405/491/51
f 409/497/73 411/498/73 410/496/73 408/493/73
f 437/483/5 409/497/5 408/493/5 400/484/5
f 411/498/5 413/499/5 412/500/5 410/496/5
f 410/496/5 412/500/5 415/501/5 407/494/5
f 413/499/5 435/502/5 414/503/5 412/500/5
f 412/500/5 414/503/5 417/504/5 415/501/5
f 416/505/5 415/501/5 417/504/5 418/506/5
f 436/495/5 407/494/5 415/501/5 416/505/5
f 418/506/24 417/504/24 419/507/24 420/508/24
f 414/503/50 422/509/50 419/507/50 417/504/50
f 420/508/4 419/507/4 421/510/4 434/511/4
f 422/509/51 424/512/51 421/510/51 419/507/51
f 423/513/23 425/514/23 424/512/23 422/509/23
f 435/502/74 423/513/74 422/509/74 414/503/74
f 425/514/5 427/515/5 426/516/5 424/512/5
f 424/512/5 426/516/5 429/517/5 421/510/5
f 427/515/4 433/518/4 428/519/4 426/516/4
f 426/516/44 428/519/44 431/520/44 429/517/44
f 430/521/2 429/517/2 431/520/2 432/522/2
f 434/511/5 421/510/5 429/517/5 430/521/5
f 428/519/50 433/518/50 432/522/50 431/520/50
f 433/518/47 427/515/47 430/521/47 432/522/47
f 427/515/5 425/514/5 434/511/5 430/521/5
f 425/514/51 423/513/51 420/508/51 434/511/51
f 423/513/50 435/502/50 418/506/50 420/508/50
f 435/502/5 413/499/5 416/505/5 418/506/5
f 413/499/5 411/498/5 436/495/5 416/505/5
f 411/498/51 409/497/51 406/492/51 436/495/51
f 409/497/5 437/483/5 404/486/5 406/492/5
f 437/483/5 398/142/5 94/148/5 404/486/5
f 87/138/51 399/482/51 402/523/51 91/139/51
f 399/482/58 355/436/58 357/437/58 402/523/58
f 438/524/33 439/525/33 443/526/33 442/527/33
f 438/528/4 441/529/4 750/530/4 439/531/4
f 440/532/34 438/524/34 442/527/34 444/533/34
f 440/534/4 484/535/4 441/529/4 438/528/4
f 442/536/2 443/537/2 446/538/2 445/539/2
f 444/540/2 442/536/2 445/539/2 447/541/2
f 750/530/35 441/529/35 445/539/35 446/538/35
f 447/541/5 445/539/5 448/542/5 449/543/5
f 441/529/5 451/544/5 448/542/5 445/539/5
f 449/543/5 448/542/5 450/545/5 483/546/5
f 451/544/5 453/547/5 450/545/5 448/542/5
f 452/548/5 454/549/5 453/547/5 451/544/5
f 484/535/5 452/548/5 451/544/5 441/529/5
f 454/549/75 456/550/75 455/551/75 453/547/75
f 453/547/37 455/551/37 458/552/37 450/545/37
f 456/550/5 482/553/5 457/554/5 455/551/5
f 455/551/5 457/554/5 460/555/5 458/552/5
f 459/556/5 458/552/5 460/555/5 461/557/5
f 483/546/76 450/545/76 458/552/76 459/556/76
f 461/557/5 460/555/5 462/558/5 463/559/5
f 457/554/5 465/560/5 462/558/5 460/555/5
f 463/559/23 462/558/23 464/561/23 481/562/23
f 465/560/38 467/563/38 464/561/38 462/558/38
f 466/564/77 468/565/77 467/563/77 465/560/77
f 482/553/5 466/564/5 465/560/5 457/554/5
f 468/565/78 470/566/78 469/567/78 467/563/78
f 467/563/34 469/567/34 472/568/34 464/561/34
f 470/566/5 480/569/5 471/570/5 469/567/5
f 469/567/5 471/570/5 474/571/5 472/568/5
f 473/572/5 472/568/5 474/571/5 475/573/5
f 481/562/79 464/561/79 472/568/79 473/572/79
f 475/573/2 474/571/2 476/574/2 477/575/2
f 471/570/41 478/576/41 476/574/41 474/571/41
f 478/576/38 479/577/38 477/575/38 476/574/38
f 480/569/4 479/577/4 478/576/4 471/570/4
f 479/577/42 480/569/42 475/573/42 477/575/42
f 480/569/5 470/566/5 473/572/5 475/573/5
f 470/566/34 468/565/34 481/562/34 473/572/34
f 468/565/38 466/564/38 463/559/38 481/562/38
f 466/564/5 482/553/5 461/557/5 463/559/5
f 482/553/5 456/550/5 459/556/5 461/557/5
f 456/550/34 454/549/34 483/546/34 459/556/34
f 454/549/5 452/548/5 449/543/5 483/546/5
f 452/548/5 484/535/5 447/541/5 449/543/5
f 484/535/43 485/578/43 489/579/43 447/541/43
f 487/580/4 485/578/4 484/535/4 440/534/4
f 486/581/5 526/582/5 488/583/5 485/578/5
f 529/584/4 486/581/4 485/578/4 487/580/4
f 485/578/5 488/583/5 492/585/5 489/579/5
f 490/586/5 489/579/5 492/585/5 493/587/5
f 527/588/2 491/589/2 489/579/2 490/586/2
f 491/589/2 444/540/2 447/541/2 489/579/2
f 493/587/5 492/585/5 494/590/5 495/591/5
f 488/583/5 497/592/5 494/590/5 492/585/5
f 495/591/4 494/590/4 496/593/4 525/594/4
f 497/592/44 499/595/44 496/593/44 494/590/44
f 498/596/80 500/597/80 499/595/80 497/592/80
f 526/582/5 498/596/5 497/592/5 488/583/5
f 500/597/5 502/598/5 501/599/5 499/595/5
f 499/595/5 501/599/5 504/600/5 496/593/5
f 502/598/5 524/601/5 503/602/5 501/599/5
f 501/599/5 503/602/5 506/603/5 504/600/5
f 505/604/5 504/600/5 506/603/5 507/605/5
f 525/594/5 496/593/5 504/600/5 505/604/5
f 507/605/81 506/603/81 508/606/81 509/607/81
f 503/602/47 511/608/47 508/606/47 506/603/47
f 509/607/5 508/606/5 510/609/5 523/610/5
f 511/608/44 513/611/44 510/609/44 508/606/44
f 512/612/46 514/613/46 513/611/46 511/608/46
f 524/601/82 512/612/82 511/608/82 503/602/82
f 514/613/5 516/614/5 515/615/5 513/611/5
f 513/611/5 515/615/5 518/616/5 510/609/5
f 516/614/4 522/617/4 517/618/4 515/615/4
f 515/615/50 517/618/50 520/619/50 518/616/50
f 519/620/2 518/616/2 520/619/2 521/621/2
f 523/610/5 510/609/5 518/616/5 519/620/5
f 517/618/47 522/617/47 521/621/47 520/619/47
f 522/617/51 516/614/51 519/620/51 521/621/51
f 516/614/5 514/613/5 523/610/5 519/620/5
f 514/613/44 512/612/44 509/607/44 523/610/44
f 512/612/47 524/601/47 507/605/47 509/607/47
f 524/601/5 502/598/5 505/604/5 507/605/5
f 502/598/5 500/597/5 525/594/5 505/604/5
f 500/597/44 498/596/44 495/591/44 525/594/44
f 498/596/5 526/582/5 493/587/5 495/591/5
f 526/582/5 486/581/5 490/586/5 493/587/5
f 529/622/44 487/623/44 491/624/44 527/625/44
f 487/623/52 440/532/52 444/533/52 491/624/52
f 530/626/53 529/622/53 527/625/53 528/627/53
f 528/628/2 527/588/2 490/586/2 535/629/2
f 530/630/4 532/631/4 486/581/4 529/584/4
f 531/632/41 530/626/41 528/627/41 573/633/41
f 531/634/4 533/635/4 532/631/4 530/636/4
f 533/635/5 571/637/5 534/638/5 532/631/5
f 486/581/54 532/631/54 535/629/54 490/586/54
f 532/631/5 534/638/5 537/639/5 535/629/5
f 536/640/5 535/629/5 537/639/5 538/641/5
f 573/633/2 528/627/2 535/629/2 536/640/2
f 538/641/5 537/639/5 539/642/5 540/643/5
f 534/638/5 542/644/5 539/642/5 537/639/5
f 540/643/5 539/642/5 541/645/5 570/646/5
f 542/644/41 544/647/41 541/645/41 539/642/41
f 543/648/83 545/649/83 544/647/83 542/644/83
f 571/637/5 543/648/5 542/644/5 534/638/5
f 545/649/5 547/650/5 546/651/5 544/647/5
f 544/647/5 546/651/5 549/652/5 541/645/5
f 547/650/5 569/653/5 548/654/5 546/651/5
f 546/651/5 548/654/5 551/655/5 549/652/5
f 550/656/5 549/652/5 551/655/5 552/657/5
f 570/646/5 541/645/5 549/652/5 550/656/5
f 552/657/84 551/655/84 553/658/84 554/659/84
f 548/654/42 556/660/42 553/658/42 551/655/42
f 554/659/4 553/658/4 555/661/4 568/662/4
f 556/660/41 558/663/41 555/661/41 553/658/41
f 557/664/85 559/665/85 558/663/85 556/660/85
f 569/653/86 557/664/86 556/660/86 548/654/86
f 559/665/5 561/666/5 560/667/5 558/663/5
f 558/663/5 560/667/5 563/668/5 555/661/5
f 561/666/4 567/669/4 562/670/4 560/667/4
f 560/667/38 562/670/38 565/671/38 563/668/38
f 564/672/2 563/668/2 565/671/2 566/673/2
f 568/662/5 555/661/5 563/668/5 564/672/5
f 562/670/42 567/669/42 566/673/42 565/671/42
f 567/669/34 561/666/34 564/672/34 566/673/34
f 561/666/5 559/665/5 568/662/5 564/672/5
f 559/665/41 557/664/41 554/659/41 568/662/41
f 557/664/42 569/653/42 552/657/42 554/659/42
f 569/653/5 547/650/5 550/656/5 552/657/5
f 547/650/5 545/649/5 570/646/5 550/656/5
f 545/649/41 543/648/41 540/643/41 570/646/41
f 543/648/5 571/637/5 538/641/5 540/643/5
f 571/637/5 533/635/5 536/640/5 538/641/5
f 533/635/58 578/674/58 572/675/58 536/640/58
f 574/676/2 573/633/2 536/640/2 572/675/2
f 576/677/59 531/632/59 573/633/59 574/676/59
f 577/678/50 576/677/50 574/676/50 575/679/50
f 575/679/2 574/676/2 572/675/2 616/680/2
f 577/681/4 579/682/4 578/674/4 576/683/4
f 576/683/4 578/674/4 533/635/4 531/634/4
f 579/682/5 581/684/5 580/685/5 578/674/5
f 578/674/5 580/685/5 583/686/5 572/675/5
f 581/684/5 615/687/5 582/688/5 580/685/5
f 580/685/5 582/688/5 585/689/5 583/686/5
f 584/690/5 583/686/5 585/689/5 586/691/5
f 616/680/5 572/675/5 583/686/5 584/690/5
f 586/691/5 585/689/5 587/692/5 588/693/5
f 582/688/50 590/694/50 587/692/50 585/689/50
f 588/693/5 587/692/5 589/695/5 614/696/5
f 590/694/5 592/697/5 589/695/5 587/692/5
f 591/698/5 593/699/5 592/697/5 590/694/5
f 615/687/87 591/698/87 590/694/87 582/688/87
f 593/699/5 595/700/5 594/701/5 592/697/5
f 592/697/5 594/701/5 597/702/5 589/695/5
f 595/700/88 613/703/88 596/704/88 594/701/88
f 594/701/51 596/704/51 599/705/51 597/702/51
f 598/706/4 597/702/4 599/705/4 600/707/4
f 614/696/5 589/695/5 597/702/5 598/706/5
f 600/707/24 599/705/24 601/708/24 602/709/24
f 596/704/50 604/710/50 601/708/50 599/705/50
f 602/709/5 601/708/5 603/711/5 612/712/5
f 604/710/5 606/713/5 603/711/5 601/708/5
f 605/714/5 607/715/5 606/713/5 604/710/5
f 613/703/89 605/714/89 604/710/89 596/704/89
f 607/715/4 609/716/4 608/717/4 606/713/4
f 606/713/47 608/717/47 610/718/47 603/711/47
f 608/717/51 609/716/51 611/719/51 610/718/51
f 612/712/2 603/711/2 610/718/2 611/719/2
f 609/716/44 607/715/44 612/712/44 611/719/44
f 607/715/5 605/714/5 602/709/5 612/712/5
f 605/714/50 613/703/50 600/707/50 602/709/50
f 613/703/51 595/700/51 598/706/51 600/707/51
f 595/700/5 593/699/5 614/696/5 598/706/5
f 593/699/5 591/698/5 588/693/5 614/696/5
f 591/698/50 615/687/50 586/691/50 588/693/50
f 615/687/5 581/684/5 584/690/5 586/691/5
f 581/684/5 579/682/5 616/680/5 584/690/5
f 579/682/33 621/720/33 617/721/33 616/680/33
f 619/722/2 575/679/2 616/680/2 617/721/2
f 618/723/5 617/721/5 620/724/5 658/725/5
f 661/726/2 619/722/2 617/721/2 618/723/2
f 621/720/5 624/727/5 620/724/5 617/721/5
f 622/728/5 625/729/5 624/727/5 621/720/5
f 659/730/4 622/728/4 621/720/4 623/731/4
f 623/731/4 621/720/4 579/682/4 577/681/4
f 625/729/5 627/732/5 626/733/5 624/727/5
f 624/727/5 626/733/5 629/734/5 620/724/5
f 627/732/90 657/735/90 628/736/90 626/733/90
f 626/733/38 628/736/38 631/737/38 629/734/38
f 630/738/64 629/734/64 631/737/64 632/739/64
f 658/725/5 620/724/5 629/734/5 630/738/5
f 632/739/5 631/737/5 633/740/5 634/741/5
f 628/736/5 636/742/5 633/740/5 631/737/5
f 634/741/5 633/740/5 635/743/5 656/744/5
f 636/742/5 638/745/5 635/743/5 633/740/5
f 637/746/5 639/747/5 638/745/5 636/742/5
f 657/735/5 637/746/5 636/742/5 628/736/5
f 639/747/23 641/748/23 640/749/23 638/745/23
f 638/745/34 640/749/34 643/750/34 635/743/34
f 641/748/91 655/751/91 642/752/91 640/749/91
f 640/749/38 642/752/38 645/753/38 643/750/38
f 644/754/23 643/750/23 645/753/23 646/755/23
f 656/744/24 635/743/24 643/750/24 644/754/24
f 646/755/5 645/753/5 647/756/5 648/757/5
f 642/752/5 650/758/5 647/756/5 645/753/5
f 648/757/2 647/756/2 649/759/2 654/760/2
f 650/758/42 652/761/42 649/759/42 647/756/42
f 651/762/4 653/763/4 652/761/4 650/758/4
f 655/751/5 651/762/5 650/758/5 642/752/5
f 652/761/34 653/763/34 654/760/34 649/759/34
f 653/763/41 651/762/41 648/757/41 654/760/41
f 651/762/5 655/751/5 646/755/5 648/757/5
f 655/751/38 641/748/38 644/754/38 646/755/38
f 641/748/34 639/747/34 656/744/34 644/754/34
f 639/747/5 637/746/5 634/741/5 656/744/5
f 637/746/5 657/735/5 632/739/5 634/741/5
f 657/735/38 627/732/38 630/738/38 632/739/38
f 627/732/5 625/729/5 658/725/5 630/738/5
f 625/729/5 622/728/5 618/723/5 658/725/5
f 659/764/38 623/765/38 619/722/38 661/726/38
f 623/765/35 577/678/35 575/679/35 619/722/35
f 660/766/43 659/764/43 661/726/43 662/767/43
f 660/768/4 667/769/4 622/728/4 659/730/4
f 662/767/2 661/726/2 618/723/2 664/770/2
f 705/771/47 660/766/47 662/767/47 663/772/47
f 663/772/2 662/767/2 664/770/2 665/773/2
f 665/773/5 664/770/5 666/774/5 703/775/5
f 622/728/52 667/769/52 664/770/52 618/723/52
f 667/769/5 669/776/5 666/774/5 664/770/5
f 668/777/5 670/778/5 669/776/5 667/769/5
f 705/779/4 668/777/4 667/769/4 660/768/4
f 670/778/5 672/780/5 671/781/5 669/776/5
f 669/776/5 671/781/5 674/782/5 666/774/5
f 672/780/92 702/783/92 673/784/92 671/781/92
f 671/781/47 673/784/47 676/785/47 674/782/47
f 675/786/5 674/782/5 676/785/5 677/787/5
f 703/775/5 666/774/5 674/782/5 675/786/5
f 677/787/5 676/785/5 678/788/5 679/789/5
f 673/784/5 681/790/5 678/788/5 676/785/5
f 679/789/5 678/788/5 680/791/5 701/792/5
f 681/790/5 683/793/5 680/791/5 678/788/5
f 682/794/5 684/795/5 683/793/5 681/790/5
f 702/783/5 682/794/5 681/790/5 673/784/5
f 684/795/93 686/796/93 685/797/93 683/793/93
f 683/793/44 685/797/44 688/798/44 680/791/44
f 686/796/94 700/799/94 687/800/94 685/797/94
f 685/797/47 687/800/47 690/801/47 688/798/47
f 689/802/4 688/798/4 690/801/4 691/803/4
f 701/792/84 680/791/84 688/798/84 689/802/84
f 691/803/5 690/801/5 692/804/5 693/805/5
f 687/800/5 695/806/5 692/804/5 690/801/5
f 693/805/2 692/804/2 694/807/2 699/808/2
f 695/806/51 697/809/51 694/810/51 692/804/51
f 696/811/4 698/812/4 697/809/4 695/806/4
f 700/799/5 696/811/5 695/806/5 687/800/5
f 697/809/44 698/812/44 699/813/44 694/810/44
f 698/812/50 696/811/50 693/805/50 699/813/50
f 696/811/5 700/799/5 691/803/5 693/805/5
f 700/799/47 686/796/47 689/802/47 691/803/47
f 686/796/44 684/795/44 701/792/44 689/802/44
f 684/795/5 682/794/5 679/789/5 701/792/5
f 682/794/5 702/783/5 677/787/5 679/789/5
f 702/783/47 672/780/47 675/786/47 677/787/47
f 672/780/5 670/778/5 703/775/5 675/786/5
f 670/778/5 668/777/5 665/773/5 703/775/5
f 668/777/53 704/814/53 710/815/53 665/773/53
f 706/816/4 704/814/4 668/777/4 705/779/4
f 706/817/54 705/771/54 663/772/54 708/818/54
f 707/819/42 706/817/42 708/818/42 709/820/42
f 707/821/4 748/822/4 704/814/4 706/816/4
f 709/823/2 708/818/2 710/815/2 711/824/2
f 708/818/2 663/772/2 665/773/2 710/815/2
f 711/824/5 710/815/5 712/825/5 713/826/5
f 704/814/5 715/827/5 712/825/5 710/815/5
f 713/826/5 712/825/5 714/828/5 747/829/5
f 715/827/5 717/830/5 714/828/5 712/825/5
f 716/831/5 718/832/5 717/830/5 715/827/5
f 748/822/5 716/831/5 715/827/5 704/814/5
f 718/832/95 720/833/95 719/834/95 717/830/95
f 717/830/42 719/834/42 722/835/42 714/828/42
f 720/833/5 746/836/5 721/837/5 719/834/5
f 719/834/5 721/837/5 724/838/5 722/835/5
f 723/839/5 722/835/5 724/838/5 725/840/5
f 747/829/5 714/828/5 722/835/5 723/839/5
f 725/840/5 724/838/5 726/841/5 727/842/5
f 721/837/5 729/843/5 726/841/5 724/838/5
f 727/842/96 726/841/96 728/844/96 745/845/96
f 729/843/41 731/846/41 728/844/41 726/841/41
f 730/847/97 732/848/97 731/846/97 729/843/97
f 746/836/5 730/847/5 729/843/5 721/837/5
f 732/848/98 734/849/98 733/850/98 731/846/98
f 731/846/42 733/850/42 736/851/42 728/844/42
f 734/849/5 744/852/5 735/853/5 733/850/5
f 733/850/5 735/853/5 738/854/5 736/851/5
f 737/855/5 736/851/5 738/854/5 739/856/5
f 745/845/99 728/844/99 736/851/99 737/855/99
f 739/856/2 738/854/2 740/857/2 741/858/2
f 735/853/34 742/859/34 740/860/34 738/854/34
f 742/859/41 743/861/41 741/862/41 740/860/41
f 744/852/4 743/861/4 742/859/4 735/853/4
f 743/861/38 744/852/38 739/856/38 741/862/38
f 744/852/5 734/849/5 737/855/5 739/856/5
f 734/849/42 732/848/42 745/845/42 737/855/42
f 732/848/41 730/847/41 727/842/41 745/845/41
f 730/847/5 746/836/5 725/840/5 727/842/5
f 746/836/5 720/833/5 723/839/5 725/840/5
f 720/833/42 718/832/42 747/829/42 723/839/42
f 718/832/5 716/831/5 713/826/5 747/829/5
f 716/831/5 748/822/5 711/824/5 713/826/5
f 748/822/59 749/863/59 753/864/59 711/824/59
f 751/865/4 749/863/4 748/822/4 707/866/4
f 750/530/5 789/867/5 752/868/5 749/863/5
f 439/531/4 750/530/4 749/863/4 751/865/4
f 749/863/5 752/868/5 755/869/5 753/864/5
f 446/538/5 753/864/5 755/869/5 756/870/5
f 443/537/2 754/871/2 753/864/2 446/538/2
f 754/871/2 709/872/2 711/824/2 753/864/2
f 756/870/5 755/869/5 757/873/5 758/874/5
f 752/868/5 760/875/5 757/873/5 755/869/5
f 758/874/100 757/873/100 759/876/100 788/877/100
f 760/875/51 762/878/51 759/876/51 757/873/51
f 761/879/101 763/880/101 762/878/101 760/875/101
f 789/867/5 761/879/5 760/875/5 752/868/5
f 763/880/5 765/881/5 764/882/5 762/878/5
f 762/878/5 764/882/5 767/883/5 759/876/5
f 765/881/5 787/884/5 766/885/5 764/882/5
f 764/882/5 766/885/5 769/886/5 767/883/5
f 768/887/5 767/883/5 769/886/5 770/888/5
f 788/877/5 759/876/5 767/883/5 768/887/5
f 770/888/23 769/886/23 771/889/23 772/890/23
f 766/885/50 774/891/50 771/889/50 769/886/50
f 772/890/4 771/889/4 773/892/4 786/893/4
f 774/891/51 776/894/51 773/892/51 771/889/51
f 775/895/23 777/896/23 776/894/23 774/891/23
f 787/884/102 775/895/102 774/891/102 766/885/102
f 777/896/5 779/897/5 778/898/5 776/894/5
f 776/894/5 778/898/5 781/899/5 773/892/5
f 779/897/4 785/900/4 780/901/4 778/898/4
f 778/898/44 780/901/44 783/902/44 781/899/44
f 782/903/2 781/899/2 783/902/2 784/904/2
f 786/893/5 773/892/5 781/899/5 782/903/5
f 780/901/50 785/900/50 784/904/50 783/902/50
f 785/900/47 779/897/47 782/903/47 784/904/47
f 779/897/5 777/896/5 786/893/5 782/903/5
f 777/896/51 775/895/51 772/890/51 786/893/51
f 775/895/50 787/884/50 770/888/50 772/890/50
f 787/884/5 765/881/5 768/887/5 770/888/5
f 765/881/5 763/880/5 788/877/5 768/887/5
f 763/880/51 761/879/51 758/874/51 788/877/51
f 761/879/5 789/867/5 756/870/5 758/874/5
f 789/867/5 750/530/5 446/538/5 756/870/5
f 439/525/51 751/905/51 754/906/51 443/526/51
f 751/905/58 707/907/58 709/908/58 754/906/58
f 790/909/103 803/910/103 802/911/103
f 791/912/104 803/913/104 805/914/104
f 790/915/105 802/916/105 807/917/105
f 790/918/106 807/919/106 809/920/106
f 790/921/107 809/922/107 806/923/107
f 791/912/108 805/914/108 812/924/108
f 792/925/109 804/926/109 814/927/109
f 793/928/110 808/929/110 816/930/110
f 794/931/111 810/932/111 818/933/111
f 795/934/112 811/935/112 820/936/112
f 791/912/113 812/924/113 815/937/113
f 792/925/114 814/927/114 817/938/114
f 793/928/115 816/930/115 819/939/115
f 794/931/116 818/933/116 821/940/116
f 795/934/117 820/936/117 813/941/117
f 796/942/118 822/943/118 827/944/118
f 797/945/119 823/946/119 829/947/119
f 798/948/120 824/949/120 830/950/120
f 799/951/121 825/952/121 831/953/121
f 800/954/122 826/955/122 828/956/122
f 828/956/123 831/957/123 801/958/123
f 828/956/124 826/955/124 831/957/124
f 826/955/125 799/951/125 831/957/125
f 831/953/126 830/959/126 801/960/126
f 831/953/127 825/952/127 830/959/127
f 825/952/128 798/948/128 830/959/128
f 830/950/129 829/961/129 801/962/129
f 830/950/130 824/949/130 829/961/130
f 824/949/131 797/963/131 829/961/131
f 829/947/132 827/964/132 801/965/132
f 829/947/133 823/946/133 827/964/133
f 823/946/134 796/942/134 827/964/134
f 827/944/135 828/966/135 801/967/135
f 827/944/136 822/943/136 828/966/136
f 822/943/137 800/954/137 828/966/137
f 813/941/138 826/955/138 800/954/138
f 813/941/139 820/936/139 826/955/139
f 820/936/140 799/951/140 826/955/140
f 821/940/141 825/952/141 799/951/141
f 821/940/142 818/933/142 825/952/142
f 818/933/143 798/948/143 825/952/143
f 819/939/144 824/949/144 798/948/144
f 819/939/145 816/930/145 824/949/145
f 816/930/146 797/963/146 824/949/146
f 817/938/147 823/946/147 797/945/147
f 817/938/148 814/927/148 823/946/148
f 814/927/149 796/942/149 823/946/149
f 815/937/150 822/943/150 796/942/150
f 815/937/151 812/924/151 822/943/151
f 812/924/152 800/954/152 822/943/152
f 820/936/153 821/940/153 799/951/153
f 820/936/154 811/935/154 821/940/154
f 811/935/155 794/931/155 821/940/155
f 818/933/156 819/939/156 798/948/156
f 818/933/157 810/932/157 819/939/157
f 810/932/158 793/928/158 819/939/158
f 816/930/159 817/968/159 797/963/159
f 816/930/160 808/929/160 817/968/160
f 808/929/161 792/969/161 817/968/161
f 814/927/162 815/937/162 796/942/162
f 814/927/163 804/926/163 815/937/163
f 804/926/164 791/912/164 815/937/164
f 812/924/165 813/941/165 800/954/165
f 812/924/166 805/914/166 813/941/166
f 805/914/167 795/934/167 813/941/167
f 806/923/168 811/935/168 795/934/168
f 806/923/169 809/922/169 811/935/169
f 809/922/170 794/931/170 811/935/170
f 809/920/171 810/932/171 794/931/171
f 809/920/172 807/919/172 810/932/172
f 807/919/173 793/928/173 810/932/173
f 807/917/174 808/929/174 793/928/174
f 807/917/175 802/916/175 808/929/175
f 802/916/176 792/969/176 808/929/176
f 805/914/177 806/970/177 795/934/177
f 805/914/178 803/913/178 806/970/178
f 803/913/179 790/971/179 806/970/179
f 802/911/180 804/926/180 792/925/180
f 802/911/181 803/910/181 804/926/181
f 803/910/182 791/912/182 804/926/182
