# Blender 4.4.3
# www.blender.org
mtllib Misiileobj.mtl
o Misiile
v -0.902159 2.680490 0.743735
v -0.902159 2.680490 -0.149863
v -0.902159 4.526772 -0.308656
v 0.902159 2.680490 0.743735
v 0.902159 2.680490 -0.149863
v 0.902159 4.526772 -0.308656
v 0.902159 4.526772 -1.202254
v -0.902159 4.526772 -1.202254
v -0.382523 7.122063 2.767642
v -0.382523 7.518636 2.099561
v 0.005936 8.115821 2.905795
v 0.394394 7.122063 2.767642
v -0.591087 6.533556 2.660845
v -0.620620 3.624878 0.968597
v 0.602958 6.533556 2.660845
v -0.591087 7.143049 1.634073
v -0.620620 4.264520 -0.108967
v 0.602958 7.143049 1.634073
v 0.632491 4.264520 -0.108967
v 0.394394 7.518636 2.099561
v 0.632491 3.624878 0.968597
v -0.777406 3.417497 -0.819690
v -0.777406 6.655564 1.102427
v -0.777406 2.623854 0.517309
v 0.777406 3.417497 -0.819690
v -0.777406 3.494045 -0.948646
v -0.871525 3.417497 -0.819690
v -0.871525 6.655564 1.102427
v -0.871525 2.623854 0.517309
v -0.871525 5.861920 2.439426
v -0.777406 5.861920 2.439426
v -0.871525 6.448064 2.787362
v -0.871525 7.241707 1.450361
v -0.777406 6.448064 2.787362
v -0.777406 7.241707 1.450361
v 0.777406 5.861920 2.439426
v -0.777406 5.793694 2.554364
v -0.777406 6.469714 2.800213
v 0.777406 6.469714 2.800213
v -0.777406 6.401486 2.915150
v 0.777406 6.401486 2.915150
v 0.777406 5.793694 2.554364
v 0.777406 2.555627 0.632247
v -0.777406 2.555627 0.632247
v 0.777406 2.623854 0.517309
v 0.887876 2.623854 0.517309
v 0.887876 5.861920 2.439426
v 0.887876 3.417497 -0.819690
v 0.887876 6.655564 1.102427
v 0.777406 6.655564 1.102427
v 0.887876 7.241707 1.450361
v 0.887876 6.448064 2.787362
v 0.777406 7.241707 1.450361
v 0.777406 6.448064 2.787362
v 0.777406 6.732112 0.973472
v 0.777406 7.263357 1.463214
v -0.777406 7.263357 1.463214
v 0.777406 7.339905 1.334259
v -0.777406 7.339905 1.334259
v -0.777406 6.732112 0.973472
v 0.777406 3.494045 -0.948646
v -1.000000 2.186035 1.296936
v -1.000000 2.186035 -0.703064
v -1.000000 2.696542 1.296936
v 1.000000 2.186035 1.296936
v 1.000000 2.186035 -0.703064
v 1.000000 2.696542 1.296936
v 1.000000 2.696542 -0.703064
v -1.000000 2.696542 -0.703064
v -1.211632 3.280808 -0.996088
v -1.211632 2.918819 -0.846148
v 1.211632 3.280807 -0.996088
v -1.211632 3.642796 -0.846148
v -1.211632 3.792737 -0.484159
v 1.211632 3.642796 -0.846148
v 1.211632 3.792737 -0.484159
v 1.211632 3.642796 -0.122171
v 1.211632 3.280807 0.027770
v -1.211632 3.642796 -0.122171
v -1.211632 3.280808 0.027770
v -1.211632 2.918819 -0.122171
v -1.211632 2.768879 -0.484159
v 1.211632 2.918819 -0.122171
v 1.211632 2.768878 -0.484159
v 1.211632 2.918819 -0.846148
v 0.875859 3.285005 -1.068870
v 0.875859 3.501567 -1.025793
v 0.875859 3.068442 -1.025793
v 0.875859 3.285005 -1.460671
v 1.220652 3.285005 -1.068870
v 1.220652 3.501567 -1.025793
v 1.220652 3.068442 -1.025793
v 1.220652 3.285005 -1.460671
v 1.220652 3.651502 -1.387769
v 1.220652 2.918507 -1.387769
v 1.220652 3.285005 -1.460671
v 1.220652 2.918507 -1.387769
v 1.220652 3.285005 -1.460671
v 0.875859 3.285005 -1.460671
v 0.875859 2.918507 -1.387769
v 0.875859 3.285005 -1.460671
v 0.875859 2.918507 -1.387769
v 0.875859 3.289785 -1.461621
v 0.875859 2.913727 -1.386819
v 0.875859 3.289785 -1.461621
v 1.220652 3.289785 -1.461621
v 1.220652 2.913727 -1.386819
v 1.220652 3.289785 -1.461621
v 1.220652 2.913727 -1.386819
v 1.220652 3.289785 -1.461621
v 1.220652 2.913727 -1.386819
v 1.220652 3.216418 -1.447028
v 0.875859 3.289785 -1.461621
v 0.875859 2.913727 -1.386819
v 0.875859 3.216418 -1.447028
v 0.875859 2.987093 -1.401412
v 0.875859 3.231842 -1.450096
v 0.875859 2.971669 -1.398344
v 0.875859 3.231842 -1.450096
v 1.220652 3.231842 -1.450096
v 1.220652 2.971669 -1.398344
v 1.220652 3.231842 -1.450096
v 1.220652 2.971669 -1.398344
v 1.220652 3.093823 -2.143967
v 1.220651 2.833649 -2.092216
v 0.875859 3.093823 -2.143967
v 0.875859 2.833649 -2.092216
v 0.875859 2.971669 -1.398344
v 1.220652 2.987093 -1.401412
v 0.875859 2.913727 -1.386819
v 1.220652 2.918507 -1.387769
v 0.875859 2.918507 -1.387769
v 0.875859 2.607805 -1.180165
v 0.875859 2.400201 -0.869464
v 0.875859 2.884850 -0.903120
v 0.875859 2.607805 -1.180165
v 1.220651 2.607805 -1.180165
v 1.220651 2.400201 -0.869464
v 1.220652 2.884850 -0.903120
v 1.220651 2.607805 -1.180165
v 1.220651 2.400201 -0.869464
v 1.220651 2.607805 -1.180165
v 1.220651 2.400201 -0.869464
v 1.220651 2.610513 -1.184218
v 0.875859 2.607805 -1.180165
v 0.875859 2.400201 -0.869464
v 0.875859 2.610513 -1.184218
v 0.875859 2.397493 -0.865411
v 0.875859 2.610513 -1.184218
v 0.875859 2.397493 -0.865411
v 0.875859 2.610513 -1.184218
v 1.220651 2.610513 -1.184218
v 1.220651 2.397493 -0.865411
v 1.220651 2.610513 -1.184218
v 1.220651 2.397493 -0.865411
v 1.220651 2.568954 -1.122021
v 1.220651 2.439052 -0.927608
v 1.220651 2.577691 -1.135097
v 0.875859 2.568954 -1.122021
v 0.875859 2.439052 -0.927608
v 0.875859 2.577691 -1.135097
v 0.875859 2.430315 -0.914532
v 0.875859 2.577691 -1.135097
v 0.875859 2.430315 -0.914532
v 0.875858 1.989456 -1.528143
v 1.220651 2.577691 -1.135097
v 1.220651 2.430315 -0.914532
v 1.220651 1.989456 -1.528143
v 1.220651 1.842079 -1.307579
v 0.875858 1.842079 -1.307579
v 1.220651 2.430315 -0.914532
v 0.875859 2.397493 -0.865411
v 1.220651 2.397493 -0.865411
v 0.875859 2.400201 -0.869464
v 1.220651 2.762177 -0.719528
v 1.220651 2.719100 -0.502966
v 0.875859 2.762177 -0.719528
v 0.875859 2.719100 -0.502966
v 0.875859 2.762177 -0.286404
v 0.875858 2.327300 -0.502966
v 0.875859 2.400201 -0.136468
v 0.875858 2.327300 -0.502966
v 1.220651 2.327300 -0.502966
v 1.220651 2.400201 -0.136468
v 1.220651 2.327300 -0.502966
v 1.220651 2.400201 -0.136468
v 1.220651 2.327300 -0.502966
v 1.220651 2.400201 -0.136468
v 1.220651 2.326349 -0.507746
v 0.875858 2.327300 -0.502966
v 0.875859 2.400201 -0.136468
v 0.875858 2.326349 -0.507746
v 0.875859 2.401152 -0.131688
v 0.875858 2.326349 -0.507746
v 0.875859 2.401152 -0.131688
v 0.875858 2.326349 -0.507746
v 1.220651 2.326349 -0.507746
v 1.220651 2.401152 -0.131688
v 1.220651 2.326349 -0.507746
v 1.220651 2.401152 -0.131688
v 1.220651 2.340943 -0.434379
v 1.220651 2.386558 -0.205055
v 1.220651 2.337875 -0.449804
v 0.875858 2.340943 -0.434379
v 0.875859 2.386558 -0.205055
v 0.875858 2.337875 -0.449804
v 0.875859 2.389626 -0.189630
v 0.875858 2.337875 -0.449804
v 0.875859 2.389626 -0.189630
v 0.875858 1.644003 -0.311784
v 1.220651 2.337875 -0.449804
v 1.220651 2.389626 -0.189630
v 1.220651 1.644003 -0.311784
v 1.220651 1.695755 -0.051611
v 0.875858 1.695755 -0.051611
v 1.220651 2.389626 -0.189630
v 0.875859 2.401152 -0.131688
v 1.220651 2.401152 -0.131688
v 0.875859 2.400201 -0.136468
v 1.220651 2.607805 0.174234
v 1.220651 2.762177 -0.286404
v 1.220652 2.884850 -0.102811
v 1.220652 3.068442 0.019861
v 0.875859 2.884850 -0.102811
v 0.875859 3.068442 0.019861
v 0.875859 2.607805 0.174234
v 0.875859 2.918507 0.381838
v 0.875859 2.607805 0.174234
v 0.875859 2.918507 0.381838
v 0.875859 2.607805 0.174234
v 1.220651 2.607805 0.174234
v 1.220652 2.918507 0.381838
v 1.220651 2.607805 0.174234
v 1.220652 2.918507 0.381838
v 1.220651 2.603752 0.171526
v 1.220652 2.922559 0.384546
v 1.220651 2.603752 0.171526
v 0.875859 2.603752 0.171526
v 0.875859 2.922559 0.384546
v 0.875859 2.603752 0.171526
v 0.875859 2.922559 0.384546
v 0.875859 2.603752 0.171526
v 0.875859 2.922559 0.384546
v 0.875859 2.665950 0.213085
v 1.220651 2.603752 0.171526
v 1.220652 2.922559 0.384546
v 1.220651 2.665950 0.213085
v 1.220652 2.860362 0.342987
v 1.220651 2.652874 0.204348
v 1.220652 2.873438 0.351724
v 1.220651 2.652874 0.204348
v 0.875859 2.652874 0.204348
v 0.875859 2.873438 0.351724
v 0.875859 2.652874 0.204348
v 0.875859 2.873438 0.351724
v 0.875858 2.259827 0.792583
v 0.875859 2.480392 0.939959
v 1.220651 2.259827 0.792583
v 1.220651 2.480392 0.939959
v 1.220652 2.873438 0.351724
v 0.875859 2.860362 0.342987
v 1.220652 2.922559 0.384546
v 0.875859 2.918507 0.381838
v 1.220652 2.918507 0.381838
v 1.220652 3.285005 0.454739
v 1.220652 3.651502 0.381838
v 1.220652 3.285005 0.062938
v 1.220652 3.285005 0.454739
v 0.875859 3.285005 0.454739
v 0.875859 3.651502 0.381838
v 0.875859 3.285005 0.062938
v 0.875859 3.285005 0.454739
v 0.875859 3.651502 0.381838
v 0.875859 3.285005 0.454739
v 0.875859 3.651502 0.381838
v 0.875859 3.280224 0.455690
v 1.220652 3.285005 0.454739
v 1.220652 3.651502 0.381838
v 1.220652 3.280224 0.455690
v 1.220652 3.656282 0.380887
v 1.220652 3.280224 0.455690
v 1.220652 3.656282 0.380887
v 1.220652 3.280224 0.455690
v 0.875859 3.280224 0.455690
v 0.875859 3.656282 0.380887
v 0.875859 3.280224 0.455690
v 0.875859 3.656282 0.380887
v 0.875859 3.353591 0.441096
v 0.875859 3.582916 0.395481
v 0.875859 3.338167 0.444164
v 1.220652 3.353591 0.441096
v 1.220652 3.582916 0.395481
v 1.220652 3.338167 0.444164
v 1.220652 3.598340 0.392412
v 1.220652 3.338167 0.444164
v 1.220652 3.598340 0.392412
v 1.220652 3.476187 1.138036
v 0.875859 3.338167 0.444164
v 0.875859 3.598340 0.392412
v 0.875859 3.476187 1.138036
v 0.875859 3.736360 1.086284
v 1.220652 3.736360 1.086284
v 0.875859 3.598340 0.392412
v 1.220652 3.656282 0.380887
v 0.875859 3.656282 0.380887
v 1.220652 3.651502 0.381838
v 0.875859 3.501567 0.019861
v 0.875859 3.685159 -0.102811
v 1.220652 3.501567 0.019861
v 1.220652 3.685159 -0.102811
v 1.220652 3.807832 -0.286404
v 1.220652 3.962204 0.174234
v 1.220652 4.169808 -0.136468
v 1.220652 3.962204 0.174234
v 0.875859 3.962204 0.174234
v 0.875859 4.169808 -0.136468
v 0.875859 3.962204 0.174234
v 0.875859 4.169808 -0.136468
v 0.875859 3.962204 0.174234
v 0.875859 4.169808 -0.136468
v 0.875859 3.959496 0.178286
v 1.220652 3.962204 0.174234
v 1.220652 4.169808 -0.136468
v 1.220652 3.959496 0.178286
v 1.220652 4.172516 -0.140521
v 1.220652 3.959496 0.178286
v 1.220652 4.172516 -0.140521
v 1.220652 3.959496 0.178286
v 0.875859 3.959496 0.178286
v 0.875859 4.172516 -0.140521
v 0.875859 3.959496 0.178286
v 0.875859 4.172516 -0.140521
v 0.875859 4.001055 0.116089
v 0.875859 4.130957 -0.078323
v 0.875859 3.992318 0.129165
v 1.220652 4.001055 0.116089
v 1.220652 4.130957 -0.078323
v 1.220652 3.992318 0.129165
v 1.220652 4.139694 -0.091399
v 1.220652 3.992318 0.129165
v 1.220652 4.139694 -0.091399
v 1.220652 4.580554 0.522211
v 0.875859 3.992318 0.129165
v 0.875859 4.139694 -0.091399
v 0.875859 4.580554 0.522211
v 0.875859 4.727930 0.301647
v 1.220652 4.727930 0.301647
v 0.875859 4.139694 -0.091399
v 1.220652 4.172516 -0.140521
v 0.875859 4.172516 -0.140521
v 1.220652 4.169808 -0.136468
v 0.875859 4.242709 -0.502966
v 0.875859 3.807832 -0.286404
v 0.875859 3.850909 -0.502966
v 0.875859 3.807832 -0.719528
v 1.220652 3.850909 -0.502966
v 1.220652 3.807832 -0.719528
v 1.220652 4.242709 -0.502966
v 1.220652 4.169808 -0.869464
v 1.220652 4.242709 -0.502966
v 1.220652 4.169808 -0.869464
v 1.220652 4.242709 -0.502966
v 0.875859 4.242709 -0.502966
v 0.875859 4.169808 -0.869464
v 0.875859 4.242709 -0.502966
v 0.875859 4.169808 -0.869464
v 0.875859 4.243660 -0.498186
v 0.875859 4.168857 -0.874244
v 0.875859 4.243660 -0.498186
v 1.220652 4.243660 -0.498186
v 1.220652 4.168857 -0.874244
v 1.220652 4.243660 -0.498186
v 1.220652 4.168857 -0.874244
v 1.220652 4.243660 -0.498186
v 1.220652 4.168857 -0.874244
v 1.220652 4.229067 -0.571552
v 0.875859 4.243660 -0.498186
v 0.875859 4.168857 -0.874244
v 0.875859 4.229067 -0.571552
v 0.875859 4.183451 -0.800877
v 0.875859 4.232135 -0.556128
v 0.875859 4.180383 -0.816301
v 0.875859 4.232135 -0.556128
v 1.220652 4.232135 -0.556128
v 1.220652 4.180383 -0.816301
v 1.220652 4.232135 -0.556128
v 1.220652 4.180383 -0.816301
v 1.220652 4.926006 -0.694148
v 1.220652 4.874254 -0.954321
v 0.875859 4.926006 -0.694148
v 0.875859 4.874254 -0.954321
v 0.875859 4.180383 -0.816301
v 1.220652 4.183451 -0.800877
v 0.875859 4.168857 -0.874244
v 1.220652 4.169808 -0.869464
v 0.875859 4.169808 -0.869464
v 0.875859 3.962204 -1.180165
v 0.875859 3.651502 -1.387769
v 0.875859 3.685159 -0.903120
v 0.875859 3.962204 -1.180165
v 1.220652 3.962204 -1.180165
v 1.220652 3.685159 -0.903120
v 1.220652 3.962204 -1.180165
v 1.220652 3.651502 -1.387769
v 1.220652 3.962204 -1.180165
v 1.220652 3.651502 -1.387769
v 1.220652 3.966257 -1.177457
v 0.875859 3.962204 -1.180165
v 0.875859 3.651502 -1.387769
v 0.875859 3.966257 -1.177457
v 0.875859 3.647450 -1.390477
v 0.875859 3.966257 -1.177457
v 0.875859 3.647450 -1.390477
v 0.875859 3.966257 -1.177457
v 1.220652 3.966257 -1.177457
v 1.220652 3.647450 -1.390477
v 1.220652 3.966257 -1.177457
v 1.220652 3.647450 -1.390477
v 1.220652 3.904059 -1.219016
v 1.220652 3.709647 -1.348918
v 1.220652 3.917135 -1.210279
v 0.875859 3.904059 -1.219016
v 0.875859 3.709647 -1.348918
v 0.875859 3.917135 -1.210279
v 0.875859 3.696571 -1.357655
v 0.875859 3.917135 -1.210279
v 0.875859 3.696571 -1.357655
v 0.875859 4.310182 -1.798515
v 1.220652 3.917135 -1.210279
v 1.220652 3.696571 -1.357655
v 1.220652 4.310182 -1.798515
v 1.220652 4.089617 -1.945891
v 0.875859 4.089617 -1.945891
v 1.220652 3.696571 -1.357655
v 0.875859 3.647450 -1.390477
v 1.220652 3.647450 -1.390477
v 0.875859 3.651502 -1.387769
v -1.213806 3.285005 -1.068870
v -1.213806 3.501567 -1.025793
v -1.213806 3.068442 -1.025793
v -1.213806 3.285005 -1.460671
v -0.869013 3.285005 -1.068870
v -0.869013 3.501567 -1.025793
v -0.869013 3.068442 -1.025793
v -0.869013 3.285005 -1.460671
v -0.869013 3.651502 -1.387769
v -0.869013 2.918507 -1.387769
v -0.869013 3.285005 -1.460671
v -0.869013 2.918507 -1.387769
v -0.869013 3.285005 -1.460671
v -1.213806 3.285005 -1.460671
v -1.213806 2.918507 -1.387769
v -1.213806 3.285005 -1.460671
v -1.213806 2.918507 -1.387769
v -1.213806 3.289785 -1.461621
v -1.213806 2.913727 -1.386819
v -1.213806 3.289785 -1.461621
v -0.869013 3.289785 -1.461621
v -0.869013 2.913727 -1.386819
v -0.869013 3.289785 -1.461621
v -0.869013 2.913727 -1.386819
v -0.869013 3.289785 -1.461621
v -0.869013 2.913727 -1.386819
v -0.869013 3.216418 -1.447028
v -1.213806 3.289785 -1.461621
v -1.213806 2.913727 -1.386819
v -1.213806 3.216418 -1.447028
v -1.213806 2.987093 -1.401412
v -1.213806 3.231842 -1.450096
v -1.213806 2.971669 -1.398344
v -1.213806 3.231842 -1.450096
v -0.869013 3.231842 -1.450096
v -0.869013 2.971669 -1.398344
v -0.869013 3.231842 -1.450096
v -0.869013 2.971669 -1.398344
v -0.869013 3.093823 -2.143967
v -0.869013 2.833649 -2.092216
v -1.213806 3.093823 -2.143967
v -1.213806 2.833649 -2.092216
v -1.213806 2.971669 -1.398344
v -0.869013 2.987093 -1.401412
v -1.213806 2.913727 -1.386819
v -0.869013 2.918507 -1.387769
v -1.213806 2.918507 -1.387769
v -1.213806 2.607805 -1.180165
v -1.213806 2.400201 -0.869464
v -1.213806 2.884850 -0.903120
v -1.213806 2.607805 -1.180165
v -0.869013 2.607805 -1.180165
v -0.869013 2.400201 -0.869464
v -0.869013 2.884850 -0.903120
v -0.869013 2.607805 -1.180165
v -0.869013 2.400201 -0.869464
v -0.869013 2.607805 -1.180165
v -0.869013 2.400201 -0.869464
v -0.869013 2.610513 -1.184218
v -1.213806 2.607805 -1.180165
v -1.213806 2.400201 -0.869464
v -1.213806 2.610513 -1.184218
v -1.213806 2.397493 -0.865411
v -1.213806 2.610513 -1.184218
v -1.213806 2.397493 -0.865411
v -1.213806 2.610513 -1.184218
v -0.869013 2.610513 -1.184218
v -0.869013 2.397493 -0.865411
v -0.869013 2.610513 -1.184218
v -0.869013 2.397493 -0.865411
v -0.869013 2.568954 -1.122021
v -0.869013 2.439052 -0.927608
v -0.869013 2.577691 -1.135097
v -1.213806 2.568954 -1.122021
v -1.213806 2.439052 -0.927608
v -1.213806 2.577691 -1.135097
v -1.213806 2.430315 -0.914532
v -1.213806 2.577691 -1.135097
v -1.213806 2.430315 -0.914532
v -1.213806 1.989456 -1.528143
v -0.869013 2.577691 -1.135097
v -0.869013 2.430315 -0.914532
v -0.869013 1.989456 -1.528143
v -0.869013 1.842079 -1.307579
v -1.213806 1.842079 -1.307579
v -0.869013 2.430315 -0.914532
v -1.213806 2.397493 -0.865411
v -0.869013 2.397493 -0.865411
v -1.213806 2.400201 -0.869464
v -0.869013 2.762177 -0.719528
v -0.869013 2.719100 -0.502966
v -1.213806 2.762177 -0.719528
v -1.213806 2.719100 -0.502966
v -1.213806 2.762177 -0.286404
v -1.213806 2.327300 -0.502966
v -1.213806 2.400201 -0.136468
v -1.213806 2.327300 -0.502966
v -0.869013 2.327300 -0.502966
v -0.869013 2.400201 -0.136468
v -0.869013 2.327300 -0.502966
v -0.869013 2.400201 -0.136468
v -0.869013 2.327300 -0.502966
v -0.869013 2.400201 -0.136468
v -0.869013 2.326349 -0.507746
v -1.213806 2.327300 -0.502966
v -1.213806 2.400201 -0.136468
v -1.213806 2.326349 -0.507746
v -1.213806 2.401152 -0.131688
v -1.213806 2.326349 -0.507746
v -1.213806 2.401152 -0.131688
v -1.213806 2.326349 -0.507746
v -0.869013 2.326349 -0.507746
v -0.869013 2.401152 -0.131688
v -0.869013 2.326349 -0.507746
v -0.869013 2.401152 -0.131688
v -0.869013 2.340943 -0.434379
v -0.869013 2.386558 -0.205055
v -0.869013 2.337875 -0.449804
v -1.213806 2.340943 -0.434379
v -1.213806 2.386558 -0.205055
v -1.213806 2.337875 -0.449804
v -1.213806 2.389626 -0.189630
v -1.213806 2.337875 -0.449804
v -1.213806 2.389626 -0.189630
v -1.213806 1.644003 -0.311784
v -0.869013 2.337875 -0.449804
v -0.869013 2.389626 -0.189630
v -0.869013 1.644003 -0.311784
v -0.869013 1.695755 -0.051611
v -1.213806 1.695755 -0.051611
v -0.869013 2.389626 -0.189630
v -1.213806 2.401152 -0.131688
v -0.869013 2.401152 -0.131688
v -1.213806 2.400201 -0.136468
v -0.869013 2.607805 0.174234
v -0.869013 2.762177 -0.286404
v -0.869013 2.884850 -0.102811
v -0.869013 3.068442 0.019861
v -1.213806 2.884850 -0.102811
v -1.213806 3.068442 0.019861
v -1.213806 2.607805 0.174234
v -1.213806 2.918507 0.381838
v -1.213806 2.607805 0.174234
v -1.213806 2.918507 0.381838
v -1.213806 2.607805 0.174234
v -0.869013 2.607805 0.174234
v -0.869013 2.918507 0.381838
v -0.869013 2.607805 0.174234
v -0.869013 2.918507 0.381838
v -0.869013 2.603752 0.171526
v -0.869013 2.922559 0.384546
v -0.869013 2.603752 0.171526
v -1.213806 2.603752 0.171526
v -1.213806 2.922559 0.384546
v -1.213806 2.603752 0.171526
v -1.213806 2.922559 0.384546
v -1.213806 2.603752 0.171526
v -1.213806 2.922559 0.384546
v -1.213806 2.665950 0.213085
v -0.869013 2.603752 0.171526
v -0.869013 2.922559 0.384546
v -0.869013 2.665950 0.213085
v -0.869013 2.860362 0.342987
v -0.869013 2.652874 0.204348
v -0.869013 2.873438 0.351724
v -0.869013 2.652874 0.204348
v -1.213806 2.652874 0.204348
v -1.213806 2.873438 0.351724
v -1.213806 2.652874 0.204348
v -1.213806 2.873438 0.351724
v -1.213806 2.259827 0.792583
v -1.213806 2.480392 0.939959
v -0.869013 2.259827 0.792583
v -0.869013 2.480392 0.939959
v -0.869013 2.873438 0.351724
v -1.213806 2.860362 0.342987
v -0.869013 2.922559 0.384546
v -1.213806 2.918507 0.381838
v -0.869013 2.918507 0.381838
v -0.869013 3.285005 0.454739
v -0.869013 3.651502 0.381838
v -0.869013 3.285005 0.062938
v -0.869013 3.285005 0.454739
v -1.213806 3.285005 0.454739
v -1.213806 3.651502 0.381838
v -1.213806 3.285005 0.062938
v -1.213806 3.285005 0.454739
v -1.213806 3.651502 0.381838
v -1.213806 3.285005 0.454739
v -1.213806 3.651502 0.381838
v -1.213806 3.280224 0.455690
v -0.869013 3.285005 0.454739
v -0.869013 3.651502 0.381838
v -0.869013 3.280224 0.455690
v -0.869013 3.656282 0.380887
v -0.869013 3.280224 0.455690
v -0.869013 3.656282 0.380887
v -0.869013 3.280224 0.455690
v -1.213806 3.280224 0.455690
v -1.213806 3.656282 0.380887
v -1.213806 3.280224 0.455690
v -1.213806 3.656282 0.380887
v -1.213806 3.353591 0.441096
v -1.213806 3.582916 0.395481
v -1.213806 3.338167 0.444164
v -0.869013 3.353591 0.441096
v -0.869013 3.582916 0.395481
v -0.869013 3.338167 0.444164
v -0.869013 3.598340 0.392412
v -0.869013 3.338167 0.444164
v -0.869013 3.598340 0.392412
v -0.869013 3.476187 1.138036
v -1.213806 3.338167 0.444164
v -1.213806 3.598340 0.392412
v -1.213806 3.476187 1.138036
v -1.213806 3.736360 1.086284
v -0.869013 3.736360 1.086284
v -1.213806 3.598340 0.392412
v -0.869013 3.656282 0.380887
v -1.213806 3.656282 0.380887
v -0.869013 3.651502 0.381838
v -1.213806 3.501567 0.019861
v -1.213806 3.685159 -0.102811
v -0.869013 3.501567 0.019861
v -0.869013 3.685159 -0.102811
v -0.869013 3.807832 -0.286404
v -0.869013 3.962204 0.174234
v -0.869013 4.169808 -0.136468
v -0.869013 3.962204 0.174234
v -1.213806 3.962204 0.174234
v -1.213806 4.169808 -0.136468
v -1.213806 3.962204 0.174234
v -1.213806 4.169808 -0.136468
v -1.213806 3.962204 0.174234
v -1.213806 4.169808 -0.136468
v -1.213806 3.959496 0.178286
v -0.869013 3.962204 0.174234
v -0.869013 4.169808 -0.136468
v -0.869013 3.959496 0.178286
v -0.869013 4.172516 -0.140521
v -0.869013 3.959496 0.178286
v -0.869013 4.172516 -0.140521
v -0.869013 3.959496 0.178286
v -1.213806 3.959496 0.178286
v -1.213806 4.172516 -0.140521
v -1.213806 3.959496 0.178286
v -1.213806 4.172516 -0.140521
v -1.213806 4.001055 0.116089
v -1.213806 4.130957 -0.078323
v -1.213806 3.992318 0.129165
v -0.869013 4.001055 0.116089
v -0.869013 4.130957 -0.078323
v -0.869013 3.992318 0.129165
v -0.869013 4.139694 -0.091399
v -0.869013 3.992318 0.129165
v -0.869013 4.139694 -0.091399
v -0.869013 4.580554 0.522211
v -1.213806 3.992318 0.129165
v -1.213806 4.139694 -0.091399
v -1.213806 4.580554 0.522211
v -1.213806 4.727930 0.301647
v -0.869013 4.727930 0.301647
v -1.213806 4.139694 -0.091399
v -0.869013 4.172516 -0.140521
v -1.213806 4.172516 -0.140521
v -0.869013 4.169808 -0.136468
v -1.213806 4.242709 -0.502966
v -1.213806 3.807832 -0.286404
v -1.213806 3.850909 -0.502966
v -1.213806 3.807832 -0.719528
v -0.869013 3.850909 -0.502966
v -0.869013 3.807832 -0.719528
v -0.869013 4.242709 -0.502966
v -0.869013 4.169808 -0.869464
v -0.869013 4.242709 -0.502966
v -0.869013 4.169808 -0.869464
v -0.869013 4.242709 -0.502966
v -1.213806 4.242709 -0.502966
v -1.213806 4.169808 -0.869464
v -1.213806 4.242709 -0.502966
v -1.213806 4.169808 -0.869464
v -1.213806 4.243660 -0.498186
v -1.213806 4.168857 -0.874244
v -1.213806 4.243660 -0.498186
v -0.869013 4.243660 -0.498186
v -0.869013 4.168857 -0.874244
v -0.869013 4.243660 -0.498186
v -0.869013 4.168857 -0.874244
v -0.869013 4.243660 -0.498186
v -0.869013 4.168857 -0.874244
v -0.869013 4.229067 -0.571552
v -1.213806 4.243660 -0.498186
v -1.213806 4.168857 -0.874244
v -1.213806 4.229067 -0.571552
v -1.213806 4.183451 -0.800877
v -1.213806 4.232135 -0.556128
v -1.213806 4.180383 -0.816301
v -1.213806 4.232135 -0.556128
v -0.869013 4.232135 -0.556128
v -0.869013 4.180383 -0.816301
v -0.869013 4.232135 -0.556128
v -0.869013 4.180383 -0.816301
v -0.869013 4.926006 -0.694148
v -0.869013 4.874254 -0.954321
v -1.213806 4.926006 -0.694148
v -1.213806 4.874254 -0.954321
v -1.213806 4.180383 -0.816301
v -0.869013 4.183451 -0.800877
v -1.213806 4.168857 -0.874244
v -0.869013 4.169808 -0.869464
v -1.213806 4.169808 -0.869464
v -1.213806 3.962204 -1.180165
v -1.213806 3.651502 -1.387769
v -1.213806 3.685159 -0.903120
v -1.213806 3.962204 -1.180165
v -0.869013 3.962204 -1.180165
v -0.869013 3.685159 -0.903120
v -0.869013 3.962204 -1.180165
v -0.869013 3.651502 -1.387769
v -0.869013 3.962204 -1.180165
v -0.869013 3.651502 -1.387769
v -0.869013 3.966257 -1.177457
v -1.213806 3.962204 -1.180165
v -1.213806 3.651502 -1.387769
v -1.213806 3.966257 -1.177457
v -1.213806 3.647450 -1.390477
v -1.213806 3.966257 -1.177457
v -1.213806 3.647450 -1.390477
v -1.213806 3.966257 -1.177457
v -0.869013 3.966257 -1.177457
v -0.869013 3.647450 -1.390477
v -0.869013 3.966257 -1.177457
v -0.869013 3.647450 -1.390477
v -0.869013 3.904059 -1.219016
v -0.869013 3.709647 -1.348918
v -0.869013 3.917135 -1.210279
v -1.213806 3.904059 -1.219016
v -1.213806 3.709647 -1.348918
v -1.213806 3.917135 -1.210279
v -1.213806 3.696571 -1.357655
v -1.213806 3.917135 -1.210279
v -1.213806 3.696571 -1.357655
v -1.213806 4.310182 -1.798515
v -0.869013 3.917135 -1.210279
v -0.869013 3.696571 -1.357655
v -0.869013 4.310182 -1.798515
v -0.869013 4.089617 -1.945891
v -1.213806 4.089617 -1.945891
v -0.869013 3.696571 -1.357655
v -1.213806 3.647450 -1.390477
v -0.869013 3.647450 -1.390477
v -1.213806 3.651502 -1.387769
v 0.000000 0.792483 0.164148
v 0.723607 1.345264 0.689873
v -0.276388 1.345263 1.014797
v -0.894426 1.345268 0.164148
v -0.276388 1.345263 -0.686502
v 0.723607 1.345264 -0.361578
v 0.276388 2.239703 1.014797
v -0.723607 2.239703 0.689873
v -0.723607 2.239703 -0.361578
v 0.276388 2.239703 -0.686502
v 0.894426 2.239699 0.164148
v 0.000000 2.792483 0.164148
v -0.162456 0.941829 0.664143
v 0.425323 0.941829 0.473159
v 0.262869 1.266746 0.973159
v 0.850648 1.266747 0.164148
v 0.425323 0.941829 -0.144864
v -0.525730 0.941832 0.164148
v -0.688189 1.266747 0.664145
v -0.162456 0.941829 -0.335848
v -0.688189 1.266747 -0.335849
v 0.262869 1.266746 -0.644864
v 0.951058 1.792483 0.473160
v 0.951058 1.792483 -0.144865
v 0.000000 1.792483 1.164148
v 0.587786 1.792483 0.973164
v -0.951058 1.792483 0.473160
v -0.587786 1.792483 0.973164
v -0.587786 1.792483 -0.644869
v -0.951058 1.792483 -0.144865
v 0.587786 1.792483 -0.644869
v 0.000000 1.792483 -0.835852
v 0.688190 2.318220 0.664145
v -0.262869 2.318221 0.973159
v -0.850648 2.318219 0.164148
v -0.262869 2.318221 -0.644864
v 0.688190 2.318220 -0.335849
v 0.162456 2.643138 0.664143
v 0.525730 2.643135 0.164148
v -0.425323 2.643138 0.473159
v -0.425323 2.643138 -0.144864
v 0.162456 2.643138 -0.335848
vn -0.0000 -1.0000 -0.0000
vn -1.0000 -0.0000 -0.0000
vn -0.0000 0.4952 0.8688
vn 1.0000 -0.0000 -0.0000
vn -0.0000 1.0000 -0.0000
vn -0.0000 -0.4952 -0.8688
vn -0.9372 0.2999 0.1780
vn -0.9220 0.3329 0.1976
vn -0.0000 -0.1377 0.9905
vn -0.0000 -0.1786 0.9839
vn -0.0000 -0.5029 0.8644
vn -1.0000 0.0075 0.0045
vn -0.0000 0.7783 -0.6279
vn -0.0000 0.5180 -0.8554
vn 1.0000 0.0075 0.0045
vn 0.9372 0.2999 0.1780
vn -0.0000 0.8036 -0.5952
vn 0.9220 0.3329 0.1976
vn -0.0000 -0.8599 -0.5104
vn -0.0000 0.5104 -0.8599
vn -0.0000 -0.5104 0.8599
vn -0.0000 0.8599 0.5104
vn -0.0000 0.8599 0.5105
vn -0.0000 -0.0000 1.0000
vn -0.0000 -0.0000 -1.0000
vn -0.0000 -0.3827 -0.9239
vn -0.0000 0.3827 -0.9239
vn -0.0000 0.9239 -0.3827
vn -0.0000 0.9239 0.3827
vn -0.0000 0.3827 0.9239
vn -0.0000 -0.3827 0.9239
vn -0.0000 -0.9239 0.3827
vn -0.0000 -0.9239 -0.3827
vn -0.0000 0.1951 -0.9808
vn -0.0000 -0.1951 -0.9808
vn -0.0000 -0.1951 0.9808
vn -0.8729 -0.0000 -0.4878
vn -0.8729 -0.0000 -0.4879
vn -0.0000 -0.1950 -0.9808
vn -0.0001 -0.0000 1.0000
vn -0.0000 0.1951 0.9808
vn -0.2426 -0.0001 0.9701
vn -0.2425 -0.0001 0.9701
vn -0.2425 -0.0000 0.9701
vn 0.7507 0.0001 -0.6607
vn 0.7506 -0.0000 -0.6607
vn -0.0000 -0.9808 0.1951
vn -0.0000 0.9808 -0.1951
vn -0.0000 -0.1949 -0.9808
vn -0.0000 0.5556 0.8315
vn 1.0000 -0.0001 -0.0000
vn -0.0000 -0.8315 -0.5556
vn -1.0000 -0.0000 -0.0040
vn -1.0000 -0.0001 -0.0039
vn -1.0000 -0.0000 -0.0039
vn -0.8944 -0.0000 -0.4473
vn -0.8944 0.0001 -0.4472
vn -0.8944 -0.0000 -0.4472
vn -0.0000 0.8315 0.5556
vn -0.8384 -0.0000 -0.5450
vn -0.8384 0.0001 -0.5451
vn -0.8384 -0.0000 -0.5451
vn 0.9285 -0.0000 0.3714
vn 0.9285 0.0001 0.3714
vn -0.0000 -0.5556 0.8315
vn -0.0000 0.5556 -0.8315
vn -0.0000 -0.8315 -0.5555
vn -0.0000 -0.5556 -0.8315
vn -0.0000 -0.9808 -0.1951
vn 0.0001 1.0000 -0.0000
vn -0.0000 1.0000 0.0001
vn -0.0000 0.9808 0.1951
vn -0.1104 -0.0000 0.9939
vn -1.0000 -0.0001 -0.0057
vn -1.0000 -0.0000 -0.0058
vn -1.0000 -0.0000 -0.0057
vn 0.9995 -0.0001 0.0311
vn 0.9995 -0.0001 0.0312
vn -0.0000 0.8315 -0.5556
vn -0.0000 -0.8315 0.5556
vn 0.8819 -0.0000 0.4714
vn -0.7071 -0.0000 0.7071
vn -0.7071 -0.0000 0.7072
vn 0.0001 -1.0000 -0.0000
vn -0.0995 0.0001 -0.9950
vn -0.0995 -0.0000 -0.9950
vn -0.0000 -0.5556 0.8314
vn -0.7562 -0.0000 0.6544
vn -0.7561 -0.0000 0.6544
vn -0.7562 -0.0001 0.6544
vn 0.7071 -0.0000 0.7071
vn 0.7071 0.0001 0.7071
vn -0.0000 1.0000 -0.0001
vn -0.0904 -0.0000 0.9959
vn -0.0904 0.0001 0.9959
vn -0.0905 -0.0000 0.9959
vn -0.0000 -0.0001 -1.0000
vn -0.0001 -0.0000 -1.0000
vn 0.9999 -0.0000 0.0147
vn -0.0000 0.8314 0.5556
vn 0.9487 -0.0000 -0.3162
vn -0.9841 0.0001 0.1776
vn -0.9841 -0.0000 0.1777
vn -0.9841 -0.0000 0.1776
vn 1.0000 -0.0000 0.0001
vn -0.9076 -0.0000 -0.4198
vn -0.0000 0.9808 -0.1952
vn -0.0000 0.0001 1.0000
vn 0.0001 -0.0000 1.0000
vn -0.9981 -0.0000 0.0624
vn -0.9981 -0.0001 0.0624
vn 0.9989 -0.0000 0.0468
vn -1.0000 -0.0000 -0.0089
vn -1.0000 -0.0001 -0.0090
vn -0.9240 -0.0000 -0.3824
vn 1.0000 0.0001 -0.0000
vn -0.0001 -0.0001 1.0000
vn -0.0000 -0.0001 1.0000
vn 0.8945 -0.0000 0.4472
vn 0.8944 -0.0000 0.4472
vn -0.0000 0.5556 -0.8314
vn -0.9129 -0.0000 -0.4082
vn 0.8321 -0.0000 -0.5547
vn 0.8320 -0.0000 -0.5547
vn -0.2425 -0.0000 -0.9701
vn -0.2425 0.0001 -0.9701
vn 0.6660 -0.0000 -0.7460
vn 0.6659 -0.0000 -0.7460
vn 0.6661 -0.0000 -0.7459
vn -0.7071 -0.0000 -0.7071
vn -0.9822 -0.0000 0.1880
vn -0.9822 -0.0000 0.1881
vn -0.9701 -0.0000 -0.2426
vn -0.9701 -0.0000 -0.2425
vn -0.0001 1.0000 0.0001
vn -0.8945 -0.0000 -0.4471
vn 0.9579 0.0001 0.2872
vn 0.9579 -0.0000 0.2873
vn 0.9578 -0.0000 0.2873
vn -0.1168 -0.0000 0.9932
vn -0.1167 -0.0000 0.9932
vn -0.9923 -0.0000 0.1240
vn -0.9923 0.0001 0.1239
vn -0.9923 0.0001 0.1240
vn -0.9984 -0.0000 0.0566
vn -0.9984 -0.0000 0.0567
vn 0.9829 -0.0000 0.1842
vn -0.0000 -0.5555 0.8315
vn 0.5417 -0.0000 0.8406
vn -0.4472 0.0001 -0.8944
vn -0.4472 -0.0000 -0.8944
vn -0.0624 -0.0000 0.9981
vn -0.0624 -0.0001 0.9980
vn -0.0623 -0.0000 0.9981
vn -0.8805 -0.0000 -0.4741
vn -0.8805 0.0001 -0.4741
vn -0.0555 -0.0000 -0.9985
vn -0.0555 -0.0001 -0.9985
vn 0.7498 -0.0000 0.6617
vn 0.7498 -0.0001 0.6617
vn -0.0000 0.8314 0.5557
vn 0.9864 -0.0000 -0.1644
vn -0.9996 0.0001 0.0278
vn -0.9996 -0.0000 0.0277
vn -0.9999 -0.0000 0.0125
vn -0.9923 -0.0000 -0.1240
vn 0.9923 -0.0000 0.1240
vn -0.9975 0.0001 -0.0711
vn -0.9975 -0.0000 -0.0712
vn 0.9981 -0.0000 0.0624
vn 0.9981 0.0001 0.0624
vn 0.9981 -0.0000 0.0623
vn 0.8945 -0.0000 -0.4471
vn -0.9963 -0.0000 0.0859
vn -0.9963 -0.0000 0.0858
vn 0.0001 -0.0001 1.0000
vn 0.4472 -0.0001 -0.8944
vn 0.4472 -0.0000 -0.8944
vn 0.1024 -0.9435 0.3151
vn 0.7002 -0.6617 0.2680
vn -0.2680 -0.9435 0.1947
vn -0.2680 -0.9435 -0.1947
vn 0.1024 -0.9435 -0.3151
vn 0.9050 -0.3304 0.2680
vn 0.0247 -0.3304 0.9435
vn -0.8897 -0.3304 0.3151
vn -0.5746 -0.3304 -0.7488
vn 0.5346 -0.3304 -0.7779
vn 0.8026 -0.1256 0.5831
vn -0.3066 -0.1256 0.9435
vn -0.9921 -0.1256 -0.0000
vn -0.3066 -0.1256 -0.9435
vn 0.8026 -0.1256 -0.5831
vn 0.4089 0.6617 0.6284
vn -0.4713 0.6617 0.5831
vn -0.7002 0.6617 -0.2680
vn 0.0385 0.6617 -0.7488
vn 0.7240 0.6617 -0.1947
vn 0.2680 0.9435 -0.1947
vn 0.4911 0.7947 -0.3568
vn 0.4089 0.6617 -0.6284
vn -0.1024 0.9435 -0.3151
vn -0.1876 0.7947 -0.5773
vn -0.4713 0.6617 -0.5831
vn -0.3313 0.9435 -0.0000
vn -0.6071 0.7947 -0.0000
vn -0.7002 0.6617 0.2680
vn -0.1024 0.9435 0.3151
vn -0.1876 0.7947 0.5773
vn 0.0385 0.6617 0.7488
vn 0.2680 0.9435 0.1947
vn 0.4911 0.7947 0.3568
vn 0.7240 0.6617 0.1947
vn 0.8897 0.3304 -0.3151
vn 0.7947 0.1876 -0.5773
vn 0.5746 0.3304 -0.7488
vn -0.0247 0.3304 -0.9435
vn -0.3035 0.1876 -0.9342
vn -0.5346 0.3304 -0.7779
vn -0.9050 0.3304 -0.2680
vn -0.9822 0.1876 -0.0000
vn -0.9050 0.3304 0.2680
vn -0.5346 0.3304 0.7779
vn -0.3035 0.1876 0.9342
vn -0.0247 0.3304 0.9435
vn 0.5746 0.3304 0.7488
vn 0.7947 0.1876 0.5773
vn 0.8897 0.3304 0.3151
vn 0.3066 0.1256 -0.9435
vn 0.3035 -0.1876 -0.9342
vn 0.0247 -0.3304 -0.9435
vn -0.8026 0.1256 -0.5831
vn -0.7947 -0.1876 -0.5773
vn -0.8897 -0.3304 -0.3151
vn -0.8026 0.1256 0.5831
vn -0.7947 -0.1876 0.5773
vn -0.5746 -0.3304 0.7488
vn 0.3066 0.1256 0.9435
vn 0.3035 -0.1876 0.9342
vn 0.5346 -0.3304 0.7779
vn 0.9921 0.1256 -0.0000
vn 0.9822 -0.1876 -0.0000
vn 0.9050 -0.3304 -0.2680
vn 0.4713 -0.6617 -0.5831
vn 0.1876 -0.7947 -0.5773
vn -0.0385 -0.6617 -0.7488
vn -0.4089 -0.6617 -0.6284
vn -0.4911 -0.7947 -0.3568
vn -0.7240 -0.6617 -0.1947
vn -0.7240 -0.6617 0.1947
vn -0.4911 -0.7947 0.3568
vn -0.4089 -0.6617 0.6284
vn 0.7002 -0.6617 -0.2680
vn 0.6071 -0.7947 -0.0000
vn 0.3313 -0.9435 -0.0000
vn -0.0385 -0.6617 0.7488
vn 0.1876 -0.7947 0.5773
vn 0.4713 -0.6617 0.5831
vt 0.180398 0.954284
vt 0.180398 0.864986
vt 0.269694 0.864986
vt 0.269694 0.954284
vt 0.001800 0.864986
vt 0.001800 0.775688
vt 0.091097 0.775688
vt 0.091097 0.864986
vt 0.269694 0.775688
vt 0.358992 0.775688
vt 0.358992 0.864986
vt 0.180398 0.775688
vt 0.180398 0.686390
vt 0.269694 0.686390
vt 0.577421 0.164582
vt 0.535613 0.103895
vt 0.611716 0.092349
vt 0.630591 0.171197
vt 0.422380 0.192070
vt 0.571744 0.216219
vt 0.620504 0.223251
vt 0.848567 0.235797
vt 0.835812 0.250571
vt 0.852039 0.214437
vt 0.489914 0.314176
vt 0.529575 0.263972
vt 0.576745 0.281003
vt 0.555821 0.348768
vt 0.832986 0.277648
vt 0.833360 0.348768
vt 0.066855 0.000359
vt 0.259316 0.266648
vt 0.254491 0.266958
vt 0.062271 0.003672
vt 0.415902 0.002048
vt 0.425792 0.003559
vt 0.267262 0.263140
vt 0.197669 0.363927
vt 0.197601 0.360579
vt 0.341975 0.317080
vt 0.283979 0.416344
vt 0.341460 0.308409
vt 0.005490 0.097128
vt 0.000956 0.100514
vt 0.001248 0.669720
vt 0.005238 0.664422
vt 0.007035 0.667500
vt 0.003056 0.672782
vt 0.005548 0.664253
vt 0.007327 0.667512
vt 0.003042 0.672984
vt 0.010987 0.668487
vt 0.006654 0.674020
vt 0.000956 0.669918
vt 0.198635 0.367922
vt 0.016327 0.668562
vt 0.013515 0.671969
vt 0.009167 0.676010
vt 0.013456 0.668348
vt 0.014151 0.670905
vt 0.013736 0.668415
vt 0.013828 0.670974
vt 0.014727 0.671708
vt 0.102323 0.718965
vt 0.279910 0.417455
vt 0.108650 0.727073
vt 0.604785 0.471131
vt 0.287507 0.414610
vt 0.605892 0.464650
vt 0.344207 0.322263
vt 0.662465 0.372533
vt 0.663455 0.366039
vt 0.017299 0.676549
vt 0.013163 0.680228
vt 0.010501 0.678933
vt 0.014620 0.675268
vt 0.012989 0.680528
vt 0.010303 0.678963
vt 0.014586 0.674982
vt 0.017439 0.676231
vt 0.007957 0.676465
vt 0.006249 0.675933
vt 0.505633 0.056795
vt 0.499765 0.048691
vt 0.008139 0.676462
vt 0.007829 0.676214
vt 0.006200 0.676276
vt 0.006483 0.675647
vt 0.832859 0.999726
vt 0.832859 0.923109
vt 0.909476 0.923109
vt 0.909476 0.999726
vt 0.679627 0.923109
vt 0.679627 0.846492
vt 0.756244 0.846492
vt 0.756244 0.923109
vt 0.909476 0.846492
vt 0.986093 0.846492
vt 0.986093 0.923109
vt 0.832859 0.846492
vt 0.832859 0.769876
vt 0.909476 0.769876
vt 0.178208 0.109061
vt 0.195401 0.091868
vt 0.195401 0.067551
vt 0.178207 0.050356
vt 0.153890 0.050357
vt 0.136697 0.067550
vt 0.136697 0.091867
vt 0.153891 0.109061
vt 0.001358 0.252648
vt 0.111333 0.252648
vt 0.111333 0.280141
vt 0.001358 0.280141
vt 0.001358 0.445107
vt 0.111333 0.445107
vt 0.111333 0.472598
vt 0.001358 0.472598
vt 0.001358 0.417611
vt 0.111333 0.417611
vt 0.117536 0.059075
vt 0.100342 0.041880
vt 0.100342 0.017563
vt 0.117536 0.000368
vt 0.141853 0.000368
vt 0.159047 0.017563
vt 0.159047 0.041880
vt 0.141853 0.059075
vt 0.001358 0.390115
vt 0.111333 0.390115
vt 0.001358 0.362619
vt 0.111333 0.362619
vt 0.001358 0.335131
vt 0.111333 0.335131
vt 0.001358 0.307632
vt 0.111333 0.307632
vt 0.572080 0.739438
vt 0.592545 0.743512
vt 0.586267 0.758988
vt 0.571274 0.756036
vt 0.572060 0.716633
vt 0.609362 0.722601
vt 0.552256 0.741172
vt 0.556231 0.757117
vt 0.540010 0.719392
vt 0.581450 0.669888
vt 0.605392 0.673702
vt 0.614279 0.702774
vt 0.573760 0.696319
vt 0.544909 0.672811
vt 0.568007 0.670610
vt 0.534670 0.700043
vt 0.572188 0.697212
vt 0.536323 0.700588
vt 0.570862 0.716032
vt 0.570616 0.698105
vt 0.537976 0.701133
vt 0.569663 0.715431
vt 0.541148 0.718553
vt 0.542285 0.717714
vt 0.542821 0.716869
vt 0.568512 0.714773
vt 0.569772 0.698930
vt 0.543889 0.716038
vt 0.567380 0.714137
vt 0.568289 0.699812
vt 0.539518 0.701691
vt 0.541081 0.702274
vt 0.566806 0.700693
vt 0.542644 0.702859
vt 0.566248 0.713501
vt 0.560797 0.702169
vt 0.548686 0.703281
vt 0.560796 0.712600
vt 0.544956 0.715207
vt 0.550236 0.713418
vt 0.551620 0.711909
vt 0.559206 0.711348
vt 0.559107 0.703658
vt 0.552856 0.710443
vt 0.557769 0.710113
vt 0.557559 0.705153
vt 0.550563 0.704463
vt 0.552316 0.705668
vt 0.554940 0.707582
vt 0.554180 0.707697
vt 0.554980 0.708178
vt 0.554232 0.708189
vt 0.507754 0.730333
vt 0.499847 0.712288
vt 0.534618 0.748560
vt 0.485287 0.746651
vt 0.485613 0.745465
vt 0.506352 0.730413
vt 0.521928 0.760041
vt 0.498842 0.713881
vt 0.466225 0.735536
vt 0.468323 0.735036
vt 0.463636 0.682093
vt 0.483503 0.668356
vt 0.509374 0.677702
vt 0.529951 0.670467
vt 0.497836 0.715475
vt 0.470421 0.734538
vt 0.504951 0.730492
vt 0.497485 0.716618
vt 0.472375 0.734109
vt 0.503570 0.730491
vt 0.485939 0.744279
vt 0.485790 0.743339
vt 0.486071 0.742190
vt 0.502199 0.730511
vt 0.496554 0.718155
vt 0.486353 0.741041
vt 0.500829 0.730532
vt 0.495622 0.719693
vt 0.474409 0.733690
vt 0.476443 0.733272
vt 0.491656 0.723591
vt 0.481651 0.730633
vt 0.496359 0.731992
vt 0.490964 0.725679
vt 0.484045 0.730624
vt 0.494451 0.731657
vt 0.488908 0.737297
vt 0.489040 0.735434
vt 0.489144 0.733667
vt 0.492627 0.731302
vt 0.490314 0.727753
vt 0.488496 0.731781
vt 0.488608 0.731811
vt 0.488348 0.731499
vt 0.486417 0.730670
vt 0.488351 0.731611
vt 0.543795 0.761717
vt 0.535841 0.768324
vt 0.516365 0.774205
vt 0.532775 0.775496
vt 0.416962 0.725695
vt 0.426070 0.709827
vt 0.450811 0.762391
vt 0.472543 0.770818
vt 0.519215 0.788643
vt 0.534345 0.782886
vt 0.477063 0.794064
vt 0.474271 0.793155
vt 0.470108 0.772094
vt 0.450141 0.764473
vt 0.457719 0.808861
vt 0.456542 0.806794
vt 0.386762 0.822952
vt 0.382680 0.795492
vt 0.449472 0.766556
vt 0.455365 0.804727
vt 0.467673 0.773370
vt 0.448597 0.767759
vt 0.454145 0.802790
vt 0.465080 0.774601
vt 0.471480 0.792247
vt 0.468629 0.791774
vt 0.465892 0.790943
vt 0.462565 0.775802
vt 0.447949 0.769758
vt 0.463154 0.790112
vt 0.460051 0.777003
vt 0.447301 0.771759
vt 0.452973 0.800808
vt 0.451800 0.798828
vt 0.446733 0.777947
vt 0.449462 0.792751
vt 0.456623 0.780850
vt 0.446502 0.780223
vt 0.448748 0.790359
vt 0.453347 0.782064
vt 0.458627 0.786938
vt 0.455201 0.786279
vt 0.451920 0.785746
vt 0.450245 0.783128
vt 0.446426 0.782558
vt 0.425467 0.784887
vt 0.421354 0.785762
vt 0.424994 0.785688
vt 0.448135 0.787896
vt 0.426632 0.785680
vt 0.500518 0.817810
vt 0.484847 0.835176
vt 0.463260 0.872756
vt 0.447231 0.857207
vt 0.529571 0.801908
vt 0.540916 0.790741
vt 0.546520 0.810690
vt 0.540498 0.789512
vt 0.552460 0.794943
vt 0.517812 0.886121
vt 0.494033 0.876410
vt 0.525088 0.851611
vt 0.529867 0.831736
vt 0.528333 0.831885
vt 0.501154 0.818956
vt 0.487048 0.835170
vt 0.526798 0.832033
vt 0.501790 0.820102
vt 0.489250 0.835164
vt 0.523763 0.850314
vt 0.522440 0.849016
vt 0.490717 0.834894
vt 0.521181 0.847754
vt 0.502344 0.821292
vt 0.492821 0.834853
vt 0.519968 0.846465
vt 0.502902 0.822436
vt 0.525794 0.832502
vt 0.524327 0.832681
vt 0.522861 0.832860
vt 0.503461 0.823580
vt 0.494927 0.834813
vt 0.517345 0.831851
vt 0.507549 0.827273
vt 0.501482 0.836569
vt 0.518756 0.845175
vt 0.495496 0.834741
vt 0.513540 0.841765
vt 0.503953 0.836024
vt 0.512428 0.839761
vt 0.508186 0.829275
vt 0.506339 0.835401
vt 0.511404 0.837791
vt 0.508730 0.831174
vt 0.515304 0.832514
vt 0.513394 0.833206
vt 0.508968 0.833523
vt 0.508744 0.833506
vt 0.508656 0.833970
vt 0.508673 0.833965
vt 0.508453 0.833654
vt 0.567239 0.837446
vt 0.565674 0.857802
vt 0.558154 0.884300
vt 0.534172 0.880642
vt 0.604638 0.854083
vt 0.567238 0.856906
vt 0.602992 0.853536
vt 0.594437 0.881229
vt 0.571414 0.883427
vt 0.568442 0.838050
vt 0.599371 0.834709
vt 0.598228 0.835551
vt 0.587140 0.812794
vt 0.567145 0.814522
vt 0.597085 0.836392
vt 0.569645 0.838654
vt 0.568802 0.856009
vt 0.596546 0.837239
vt 0.570801 0.839314
vt 0.569641 0.855179
vt 0.601348 0.852990
vt 0.599814 0.852430
vt 0.571116 0.854294
vt 0.598258 0.851844
vt 0.571938 0.839953
vt 0.572592 0.853409
vt 0.596704 0.851259
vt 0.573074 0.840592
vt 0.595473 0.838072
vt 0.594401 0.838905
vt 0.589144 0.840653
vt 0.578571 0.841521
vt 0.578553 0.851953
vt 0.587749 0.842171
vt 0.580155 0.842765
vt 0.580241 0.850459
vt 0.590632 0.850806
vt 0.588765 0.849625
vt 0.581791 0.848954
vt 0.587027 0.848427
vt 0.581587 0.843992
vt 0.584411 0.846518
vt 0.585170 0.846402
vt 0.584372 0.845921
vt 0.586502 0.843649
vt 0.585121 0.845910
vt 0.567857 0.797538
vt 0.583224 0.796497
vt 0.604914 0.805566
vt 0.595991 0.792207
vt 0.631662 0.823919
vt 0.629831 0.876507
vt 0.609239 0.883658
vt 0.639486 0.841980
vt 0.617649 0.794294
vt 0.604169 0.786092
vt 0.675637 0.872223
vt 0.655754 0.885924
vt 0.673134 0.818793
vt 0.640494 0.840389
vt 0.671037 0.819292
vt 0.633061 0.823845
vt 0.654114 0.807702
vt 0.653785 0.808881
vt 0.653456 0.810060
vt 0.634460 0.823771
vt 0.641503 0.838797
vt 0.653602 0.810996
vt 0.635839 0.823779
vt 0.641857 0.837655
vt 0.668942 0.819790
vt 0.666989 0.820219
vt 0.642791 0.836119
vt 0.664957 0.820637
vt 0.637208 0.823763
vt 0.643727 0.834583
vt 0.662925 0.821055
vt 0.638577 0.823748
vt 0.653317 0.812138
vt 0.653032 0.813280
vt 0.650478 0.817055
vt 0.642999 0.822292
vt 0.647698 0.830698
vt 0.650341 0.818904
vt 0.644911 0.822635
vt 0.648392 0.828617
vt 0.657717 0.823687
vt 0.655322 0.823694
vt 0.649046 0.826549
vt 0.652949 0.823647
vt 0.646739 0.822999
vt 0.651020 0.822818
vt 0.651018 0.822706
vt 0.650761 0.822507
vt 0.650230 0.820657
vt 0.650873 0.822537
vt 0.666829 0.783592
vt 0.688519 0.791990
vt 0.623154 0.780298
vt 0.607216 0.779341
vt 0.620141 0.765955
vt 0.605325 0.772181
vt 0.662285 0.760395
vt 0.752521 0.731432
vt 0.756611 0.758879
vt 0.681597 0.745541
vt 0.722301 0.828616
vt 0.713211 0.844453
vt 0.689190 0.789909
vt 0.682776 0.747608
vt 0.669263 0.782317
vt 0.689861 0.787826
vt 0.683955 0.749674
vt 0.671696 0.781043
vt 0.665075 0.761301
vt 0.667864 0.762208
vt 0.670712 0.762679
vt 0.674288 0.779816
vt 0.690738 0.786624
vt 0.673448 0.763508
vt 0.676801 0.778616
vt 0.691388 0.784625
vt 0.685177 0.751610
vt 0.686351 0.753591
vt 0.692037 0.782624
vt 0.687526 0.755571
vt 0.679314 0.777417
vt 0.692580 0.776472
vt 0.689897 0.761675
vt 0.682733 0.773578
vt 0.676183 0.764337
vt 0.680716 0.767505
vt 0.684143 0.768160
vt 0.686004 0.772365
vt 0.692821 0.774200
vt 0.687425 0.768688
vt 0.689101 0.771301
vt 0.692908 0.771869
vt 0.690604 0.764069
vt 0.691211 0.766534
vt 0.714347 0.768743
vt 0.712710 0.768751
vt 0.717988 0.768669
vt 0.713875 0.769543
vt 0.638770 0.736681
vt 0.654394 0.719273
vt 0.609477 0.752653
vt 0.610910 0.722457
vt 0.638133 0.735521
vt 0.652185 0.719281
vt 0.615599 0.704078
vt 0.621625 0.668356
vt 0.645329 0.678105
vt 0.675907 0.681621
vt 0.691981 0.697143
vt 0.649975 0.719289
vt 0.616917 0.705383
vt 0.637496 0.734361
vt 0.648522 0.719591
vt 0.618090 0.706636
vt 0.636941 0.733159
vt 0.612458 0.722313
vt 0.613475 0.721847
vt 0.614955 0.721673
vt 0.636382 0.732001
vt 0.646411 0.719635
vt 0.616435 0.721499
vt 0.635823 0.730844
vt 0.644299 0.719678
vt 0.619297 0.707931
vt 0.620503 0.709225
vt 0.637901 0.717878
vt 0.625732 0.712602
vt 0.631740 0.727086
vt 0.635393 0.718407
vt 0.626858 0.714612
vt 0.631116 0.725093
vt 0.621913 0.722531
vt 0.623970 0.721867
vt 0.625898 0.721171
vt 0.630580 0.723205
vt 0.632968 0.719015
vt 0.630412 0.720806
vt 0.630713 0.720835
vt 0.630873 0.720552
vt 0.627895 0.716588
vt 0.630671 0.720330
vt 0.598259 0.764900
vt 0.615846 0.608973
vt 0.650898 0.625486
vt 0.634398 0.660509
vt 0.599347 0.643996
vt 0.356834 0.643595
vt 0.353879 0.664603
vt 0.320181 0.654137
vt 0.337246 0.637649
vt 0.580794 0.592460
vt 0.564295 0.627483
vt 0.376366 0.645322
vt 0.384724 0.666165
vt 0.345192 0.710780
vt 0.311385 0.701064
vt 0.313732 0.669245
vt 0.349497 0.682733
vt 0.380084 0.711169
vt 0.387781 0.681546
vt 0.351179 0.682088
vt 0.386229 0.681103
vt 0.354954 0.665209
vt 0.352862 0.681445
vt 0.384678 0.680660
vt 0.356028 0.665816
vt 0.383498 0.666646
vt 0.382273 0.667128
vt 0.381621 0.667678
vt 0.357100 0.666458
vt 0.353859 0.680842
vt 0.380463 0.668166
vt 0.358107 0.667089
vt 0.355454 0.680200
vt 0.383195 0.680221
vt 0.381734 0.679745
vt 0.357050 0.679557
vt 0.380274 0.679269
vt 0.359115 0.667719
vt 0.362964 0.678772
vt 0.374721 0.678544
vt 0.364181 0.669144
vt 0.379306 0.668655
vt 0.374296 0.669580
vt 0.372817 0.670748
vt 0.365555 0.670434
vt 0.364774 0.677554
vt 0.371460 0.671895
vt 0.366795 0.671694
vt 0.366458 0.676301
vt 0.373058 0.677400
vt 0.371487 0.676246
vt 0.369192 0.674284
vt 0.369917 0.674248
vt 0.369219 0.673741
vt 0.369919 0.673803
vt 0.412436 0.660357
vt 0.417070 0.672258
vt 0.393653 0.642877
vt 0.432781 0.650838
vt 0.432183 0.651551
vt 0.413552 0.660309
vt 0.406685 0.637417
vt 0.417957 0.671314
vt 0.442202 0.658797
vt 0.440784 0.659084
vt 0.437326 0.701302
vt 0.410864 0.706532
vt 0.418845 0.670370
vt 0.439366 0.659370
vt 0.414668 0.660261
vt 0.419239 0.669682
vt 0.438061 0.659605
vt 0.415733 0.660262
vt 0.431584 0.652265
vt 0.431411 0.652828
vt 0.430857 0.653522
vt 0.416813 0.660252
vt 0.420069 0.668767
vt 0.430303 0.654216
vt 0.417893 0.660242
vt 0.420900 0.667852
vt 0.436694 0.659841
vt 0.435328 0.660077
vt 0.424007 0.665509
vt 0.431600 0.661434
vt 0.421325 0.659474
vt 0.424708 0.664146
vt 0.430002 0.661280
vt 0.422727 0.659812
vt 0.427846 0.656429
vt 0.427395 0.657651
vt 0.426955 0.658832
vt 0.424083 0.660165
vt 0.425381 0.662791
vt 0.427127 0.660172
vt 0.427053 0.660142
vt 0.427194 0.660378
vt 0.428410 0.661103
vt 0.427206 0.660301
vt 0.521659 0.564601
vt 0.548786 0.577381
vt 0.532287 0.612404
vt 0.505160 0.599624
vt 0.498600 0.553738
vt 0.482100 0.588761
vt 0.460271 0.698842
vt 0.467296 0.645357
vt 0.413298 0.630337
vt 0.446395 0.635471
vt 0.475540 0.542874
vt 0.459491 0.577770
vt 0.410007 0.627135
vt 0.439226 0.622907
vt 0.413295 0.635154
vt 0.443626 0.624472
vt 0.450296 0.635394
vt 0.469195 0.644597
vt 0.448047 0.619720
vt 0.451841 0.620527
vt 0.471092 0.643837
vt 0.455635 0.621333
vt 0.454197 0.635317
vt 0.473471 0.643563
vt 0.459379 0.622068
vt 0.458321 0.635255
vt 0.448025 0.626037
vt 0.452414 0.627398
vt 0.456722 0.628856
vt 0.462323 0.635273
vt 0.475346 0.642810
vt 0.461031 0.630314
vt 0.466326 0.635292
vt 0.477219 0.642056
vt 0.463181 0.622877
vt 0.466985 0.623686
vt 0.479140 0.638197
vt 0.472713 0.627473
vt 0.471221 0.633934
vt 0.481253 0.637004
vt 0.476134 0.629237
vt 0.475727 0.634160
vt 0.467317 0.632558
vt 0.472102 0.633240
vt 0.476751 0.633729
vt 0.479917 0.634580
vt 0.483072 0.635713
vt 0.523846 0.639127
vt 0.527178 0.639536
vt 0.535066 0.640089
vt 0.479460 0.631143
vt 0.527087 0.637752
vt 0.422558 0.607479
vt 0.431168 0.599800
vt 0.434415 0.564574
vt 0.448187 0.530426
vt 0.414933 0.518469
vt 0.405516 0.552554
vt 0.404646 0.581174
vt 0.383951 0.611291
vt 0.399056 0.595217
vt 0.399739 0.618668
vt 0.400272 0.595349
vt 0.421848 0.606725
vt 0.429768 0.599293
vt 0.401488 0.595481
vt 0.421138 0.605971
vt 0.428367 0.598786
vt 0.405555 0.582313
vt 0.406463 0.583451
vt 0.427475 0.598623
vt 0.407335 0.584547
vt 0.420535 0.605220
vt 0.426134 0.598162
vt 0.408168 0.585660
vt 0.419889 0.604475
vt 0.402276 0.595351
vt 0.403441 0.595453
vt 0.404605 0.595554
vt 0.419244 0.603729
vt 0.424791 0.597700
vt 0.408778 0.596891
vt 0.416333 0.601021
vt 0.420725 0.595622
vt 0.409001 0.586773
vt 0.412559 0.589963
vt 0.418994 0.595600
vt 0.413233 0.591599
vt 0.415846 0.599623
vt 0.417293 0.595615
vt 0.413839 0.593213
vt 0.415389 0.598279
vt 0.410412 0.596648
vt 0.411967 0.596365
vt 0.415360 0.596563
vt 0.415572 0.596612
vt 0.415699 0.596433
vt 0.415570 0.596259
vt 0.367414 0.586638
vt 0.370838 0.570532
vt 0.373762 0.545296
vt 0.335046 0.572287
vt 0.369280 0.571091
vt 0.336552 0.572606
vt 0.341596 0.545496
vt 0.366353 0.586130
vt 0.338522 0.585309
vt 0.339654 0.584939
vt 0.346396 0.604154
vt 0.364960 0.605884
vt 0.340787 0.584569
vt 0.365292 0.585621
vt 0.367721 0.571650
vt 0.341353 0.584125
vt 0.364290 0.585075
vt 0.366837 0.572168
vt 0.338056 0.572924
vt 0.339424 0.573250
vt 0.365362 0.572726
vt 0.340844 0.573598
vt 0.363292 0.584546
vt 0.363885 0.573284
vt 0.342263 0.573947
vt 0.362294 0.584017
vt 0.342422 0.583747
vt 0.343491 0.583369
vt 0.348082 0.582504
vt 0.357556 0.582819
vt 0.358469 0.574048
vt 0.349435 0.581450
vt 0.356234 0.581671
vt 0.356807 0.575169
vt 0.347464 0.574466
vt 0.349057 0.575457
vt 0.355251 0.576324
vt 0.350569 0.576461
vt 0.355031 0.580544
vt 0.352745 0.578212
vt 0.352075 0.578258
vt 0.352732 0.578705
vt 0.350686 0.580419
vt 0.352083 0.578660
vt 0.339067 0.511082
vt 0.377227 0.511082
vt 0.305036 0.516840
vt 0.312719 0.551228
vt 0.330352 0.606034
vt 0.314307 0.590748
vt 0.309511 0.580840
vt 0.276825 0.524986
vt 0.287920 0.559795
vt 0.291513 0.593206
vt 0.308887 0.581653
vt 0.292506 0.592846
vt 0.313375 0.590781
vt 0.297179 0.597689
vt 0.297753 0.597198
vt 0.318033 0.610578
vt 0.298326 0.596707
vt 0.312444 0.590813
vt 0.308262 0.582465
vt 0.298533 0.596334
vt 0.311557 0.590819
vt 0.307985 0.583045
vt 0.293498 0.592486
vt 0.294402 0.592187
vt 0.307401 0.583830
vt 0.295359 0.591870
vt 0.310657 0.590824
vt 0.306817 0.584616
vt 0.296315 0.591554
vt 0.309758 0.590830
vt 0.299067 0.595855
vt 0.299601 0.595376
vt 0.301566 0.593811
vt 0.306925 0.591480
vt 0.304506 0.586662
vt 0.301970 0.592912
vt 0.305780 0.591231
vt 0.304025 0.587783
vt 0.298967 0.590346
vt 0.300129 0.590364
vt 0.303573 0.588902
vt 0.301290 0.590385
vt 0.304668 0.590964
vt 0.302263 0.591058
vt 0.302145 0.591112
vt 0.302274 0.591067
vt 0.302135 0.590884
vt 0.302376 0.592038
vt 0.302231 0.591060
vt 0.302180 0.590985
vt 0.285458 0.607068
vt 0.278313 0.605506
vt 0.310478 0.616881
vt 0.253122 0.533273
vt 0.265708 0.569273
vt 0.229418 0.541560
vt 0.242005 0.577560
vt 0.310982 0.624877
vt 0.280518 0.617122
vt 0.246910 0.572441
vt 0.257527 0.620971
vt 0.274257 0.605238
vt 0.256063 0.620177
vt 0.280918 0.607574
vt 0.270201 0.604971
vt 0.254597 0.619383
vt 0.276378 0.608081
vt 0.276607 0.616147
vt 0.272696 0.615173
vt 0.268527 0.614281
vt 0.271728 0.608527
vt 0.266494 0.604361
vt 0.264685 0.613384
vt 0.267113 0.608939
vt 0.262557 0.604138
vt 0.252989 0.618547
vt 0.251408 0.617727
vt 0.258620 0.603915
vt 0.249826 0.616906
vt 0.262499 0.609351
vt 0.252837 0.605845
vt 0.248348 0.613422
vt 0.256347 0.609988
vt 0.260842 0.612487
vt 0.256119 0.610303
vt 0.251968 0.609569
vt 0.251342 0.609525
vt 0.248806 0.606646
vt 0.247980 0.609069
vt 0.246588 0.608908
vt 0.244925 0.607604
vt 0.246801 0.612082
vt 0.245442 0.610718
vt 0.180658 0.601546
vt 0.192551 0.598523
vt 0.196956 0.600682
vt 0.189513 0.598131
vt 0.199410 0.602263
vt 0.194378 0.604405
vt 0.295943 0.638610
vt 0.283621 0.647002
vt 0.321686 0.629444
vt 0.312675 0.620345
vt 0.318867 0.653908
vt 0.296559 0.639506
vt 0.285299 0.647631
vt 0.312735 0.667937
vt 0.281342 0.687695
vt 0.255862 0.676411
vt 0.286978 0.648261
vt 0.311740 0.666629
vt 0.297174 0.640401
vt 0.288080 0.648491
vt 0.310793 0.665376
vt 0.297731 0.641318
vt 0.317552 0.653680
vt 0.316663 0.653765
vt 0.315402 0.653574
vt 0.298278 0.642201
vt 0.289690 0.649065
vt 0.314141 0.653383
vt 0.298825 0.643084
vt 0.291300 0.649640
vt 0.309885 0.664101
vt 0.308979 0.662826
vt 0.295976 0.652315
vt 0.305118 0.659129
vt 0.301762 0.646448
vt 0.298014 0.652443
vt 0.304435 0.657268
vt 0.302129 0.648077
vt 0.309650 0.651639
vt 0.307838 0.651807
vt 0.306112 0.652021
vt 0.302459 0.649625
vt 0.300022 0.652514
vt 0.302323 0.651561
vt 0.302086 0.651490
vt 0.301924 0.651683
vt 0.303820 0.655432
vt 0.302056 0.651891
vt 0.682906 0.640566
vt 0.666406 0.675588
vt 0.710033 0.653345
vt 0.693533 0.688368
vt 0.689292 0.692131
vt 0.718688 0.675159
vt 0.718688 0.709101
vt 0.748085 0.658189
vt 0.718688 0.641216
vt 0.748085 0.624243
vt 0.689291 0.420580
vt 0.718688 0.403605
vt 0.718688 0.437553
vt 0.689291 0.488466
vt 0.718688 0.471493
vt 0.718688 0.505441
vt 0.689291 0.556353
vt 0.718688 0.539383
vt 0.718688 0.573326
vt 0.777482 0.641216
vt 0.748085 0.726076
vt 0.748085 0.692131
vt 0.777482 0.709101
vt 0.748085 0.454523
vt 0.748085 0.420580
vt 0.777482 0.437548
vt 0.748085 0.522411
vt 0.748085 0.488468
vt 0.777482 0.505441
vt 0.748085 0.590298
vt 0.748085 0.556353
vt 0.777482 0.573326
vt 0.777482 0.675159
vt 0.777482 0.743049
vt 0.777482 0.471495
vt 0.777482 0.539383
vt 0.777482 0.607271
vt 0.806878 0.692131
vt 0.806878 0.658189
vt 0.836275 0.675159
vt 0.806878 0.760019
vt 0.806878 0.726076
vt 0.836275 0.743049
vt 0.806878 0.488466
vt 0.806878 0.454523
vt 0.836275 0.471493
vt 0.806878 0.556353
vt 0.806878 0.522411
vt 0.836275 0.539383
vt 0.806878 0.624243
vt 0.806878 0.590296
vt 0.836275 0.607271
vt 0.836275 0.573326
vt 0.865672 0.590298
vt 0.836275 0.505441
vt 0.865672 0.522411
vt 0.836275 0.437553
vt 0.865672 0.454523
vt 0.806878 0.420580
vt 0.836275 0.709101
vt 0.865672 0.726076
vt 0.836275 0.641216
vt 0.865672 0.658189
vt 0.777482 0.403605
vt 0.748085 0.386635
vt 0.718688 0.607271
vt 0.689292 0.624243
s 1
usemtl マテリアル.002
f 2/1/1 5/2/1 4/3/1 1/4/1
f 1/5/2 3/6/2 8/7/2 2/8/2
f 4/3/3 6/9/3 3/10/3 1/11/3
f 5/2/4 7/12/4 6/9/4 4/3/4
f 7/12/5 8/13/5 3/14/5 6/9/5
f 2/8/6 8/7/6 7/12/6 5/2/6
f 9/15/7 10/16/7 16/17/7 13/18/7
f 9/15/8 11/19/8 10/16/8
f 12/20/9 11/19/9 9/15/9
f 12/20/10 9/15/10 13/18/10 15/21/10
f 15/21/11 13/18/11 14/22/11 21/23/11
f 13/18/12 16/17/12 17/24/12 14/22/12
f 10/25/13 20/26/13 18/27/13 16/28/13
f 16/28/14 18/27/14 19/29/14 17/30/14
f 18/27/15 15/21/15 21/23/15 19/29/15
f 20/26/16 12/20/16 15/21/16 18/27/16
f 10/25/17 11/19/17 20/26/17
f 20/26/18 11/19/18 12/20/18
f 17/24/19 19/29/19 21/23/19 14/22/19
f 23/31/20 22/32/20 27/33/20 28/34/20
f 22/32/2 23/35/2 60/36/2 26/37/2
f 22/32/19 24/38/19 29/39/19 27/33/19
f 25/40/19 45/41/19 24/38/19 22/32/19
f 25/40/19 22/32/19 26/37/19 61/42/19
f 27/33/2 29/39/2 30/43/2 28/34/2
f 24/38/21 31/44/21 30/43/21 29/39/21
f 28/45/2 30/46/2 32/47/2 33/48/2
f 30/46/21 31/49/21 34/50/21 32/47/21
f 34/50/22 35/51/22 33/48/22 32/47/22
f 31/52/4 23/53/4 35/51/4 34/50/4
f 23/54/20 28/45/20 33/48/20 35/51/20
f 31/52/2 24/38/2 44/55/2 37/56/2
f 23/53/22 31/52/22 36/57/22 50/58/22
f 36/57/20 31/52/20 38/59/20 39/60/20
f 31/52/2 37/56/2 40/61/2 38/59/2
f 39/60/23 38/59/23 40/61/23 41/62/23
f 37/56/21 42/63/21 41/62/21 40/61/21
f 42/63/4 36/57/4 39/60/4 41/62/4
f 42/64/21 37/56/21 44/55/21 43/65/21
f 45/41/4 36/66/4 42/64/4 43/65/4
f 24/38/19 45/41/19 43/65/19 44/55/19
f 36/67/21 45/41/21 46/68/21 47/69/21
f 45/41/19 25/40/19 48/70/19 46/68/19
f 49/71/4 47/69/4 46/68/4 48/70/4
f 25/40/20 50/72/20 49/71/20 48/70/20
f 47/73/4 49/74/4 51/75/4 52/76/4
f 49/74/20 50/77/20 53/78/20 51/75/20
f 53/78/22 54/79/22 52/76/22 51/75/22
f 50/58/2 36/57/2 54/79/2 53/78/2
f 36/80/21 47/73/21 52/76/21 54/79/21
f 23/53/21 50/58/21 56/81/21 57/82/21
f 50/83/4 25/40/4 61/42/4 55/84/4
f 50/58/4 55/85/4 58/86/4 56/81/4
f 57/82/22 56/81/22 58/86/22 59/87/22
f 55/85/20 60/88/20 59/87/20 58/86/20
f 60/88/2 23/53/2 57/82/2 59/87/2
f 60/36/20 55/84/20 61/42/20 26/37/20
f 63/89/1 66/90/1 65/91/1 62/92/1
f 62/93/2 64/94/2 69/95/2 63/96/2
f 65/91/24 67/97/24 64/98/24 62/99/24
f 66/90/4 68/100/4 67/97/4 65/91/4
f 68/100/5 69/101/5 64/102/5 67/97/5
f 63/96/25 69/95/25 68/100/25 66/90/25
f 70/103/2 71/104/2 82/105/2 81/106/2 80/107/2 79/108/2 74/109/2 73/110/2
f 70/111/26 72/112/26 85/113/26 71/114/26
f 73/115/27 75/116/27 72/117/27 70/118/27
f 74/119/28 76/120/28 75/116/28 73/115/28
f 85/121/4 72/122/4 75/123/4 76/124/4 77/125/4 78/126/4 83/127/4 84/128/4
f 79/129/29 77/130/29 76/120/29 74/119/29
f 80/131/30 78/132/30 77/130/30 79/129/30
f 81/133/31 83/134/31 78/132/31 80/131/31
f 82/135/32 84/136/32 83/134/32 81/133/32
f 71/114/33 85/113/33 84/136/33 82/135/33
f 86/137/34 87/138/34 91/139/34 90/140/34
f 86/137/4 89/141/4 398/142/4 87/138/4
f 88/143/35 86/137/35 90/140/35 92/144/35
f 88/143/4 132/145/4 89/141/4 86/137/4
f 90/146/2 91/147/2 94/148/2 93/149/2
f 92/150/2 90/151/2 93/149/2 95/152/2
f 398/142/36 89/141/36 93/149/36 94/148/36
s 0
f 95/152/5 93/149/25 96/153/5 97/154/25
f 89/141/25 99/155/5 96/153/25 93/149/5
f 97/154/5 96/153/25 98/156/5 131/157/25
f 99/155/25 101/158/5 98/156/25 96/153/5
f 100/159/25 102/160/5 101/158/25 99/155/5
f 132/145/25 100/159/5 99/155/25 89/141/5
s 1
f 102/160/37 104/161/38 103/162/38 101/158/37
f 101/158/39 103/162/39 106/163/39 98/156/39
s 0
f 104/161/25 130/164/5 105/165/25 103/162/5
f 103/162/25 105/165/5 108/166/25 106/163/5
f 107/167/5 106/163/25 108/166/5 109/168/25
s 1
f 131/157/4 98/156/4 106/163/4 107/167/4
s 0
f 109/168/5 108/166/25 110/169/5 111/170/25
f 105/165/25 113/171/5 110/169/25 108/166/5
s 1
f 111/170/40 110/169/24 112/172/24 129/173/24
f 113/171/41 115/174/41 112/172/41 110/169/41
f 114/175/42 116/176/43 115/174/44 113/171/44
s 0
f 130/164/25 114/175/5 113/171/25 105/165/5
s 1
f 116/176/45 118/177/46 117/178/45 115/174/45
f 115/174/35 117/178/35 120/179/35 112/172/35
s 0
f 118/177/25 128/180/5 119/181/25 117/178/5
f 117/178/25 119/181/5 122/182/25 120/179/5
f 121/183/5 120/179/25 122/182/5 123/184/25
s 1
f 129/173/2 112/172/2 120/179/2 121/183/2
f 123/184/2 122/182/2 124/185/2 125/186/2
f 119/181/47 126/187/47 124/185/47 122/182/47
f 126/187/41 127/188/41 125/186/41 124/185/41
f 128/180/4 127/188/4 126/187/4 119/181/4
f 127/188/48 128/180/48 123/184/48 125/186/48
s 0
f 128/180/25 118/177/5 121/183/25 123/184/5
s 1
f 118/177/35 116/176/35 129/173/35 121/183/35
f 116/176/41 114/175/41 111/170/41 129/173/41
s 0
f 114/175/25 130/164/5 109/168/25 111/170/5
f 130/164/25 104/161/5 107/167/25 109/168/5
s 1
f 104/161/49 102/160/49 131/157/49 107/167/49
s 0
f 102/160/25 100/159/5 97/154/25 131/157/5
f 100/159/25 132/145/5 95/152/25 97/154/5
s 1
f 132/145/50 133/189/50 137/190/50 95/152/50
f 135/191/4 133/189/4 132/145/4 88/143/4
s 0
f 134/192/24 174/193/5 136/194/24 133/189/5
s 1
f 177/195/4 134/192/4 133/189/4 135/191/4
s 0
f 133/189/25 136/194/5 140/196/25 137/190/5
f 138/197/5 137/190/24 140/196/5 141/198/24
s 1
f 175/199/2 139/200/2 137/190/2 138/197/2
f 139/201/2 92/202/2 95/152/2 137/190/2
s 0
f 141/198/5 140/196/24 142/203/5 143/204/24
f 136/194/25 145/205/5 142/203/25 140/196/5
s 1
f 143/204/4 142/203/4 144/206/4 173/207/51
f 145/205/52 147/208/52 144/206/52 142/203/52
f 146/209/53 148/210/54 147/208/55 145/205/53
s 0
f 174/193/24 146/209/5 145/205/24 136/194/5
f 148/210/24 150/211/5 149/212/24 147/208/5
f 147/208/25 149/212/5 152/213/25 144/206/5
f 150/211/24 172/214/5 151/215/24 149/212/5
f 149/212/25 151/215/5 154/216/25 152/213/5
f 153/217/5 152/213/24 154/216/5 155/218/24
f 173/207/5 144/206/24 152/213/5 153/217/24
s 1
f 155/218/56 154/216/57 156/219/58 157/220/58
f 151/215/59 159/221/59 156/219/59 154/216/59
s 0
f 157/220/24 156/219/24 158/222/24 171/223/24
s 1
f 159/221/52 161/224/52 158/222/52 156/219/52
f 160/225/60 162/226/61 161/224/62 159/221/60
f 172/214/63 160/225/64 159/221/64 151/215/64
s 0
f 162/226/24 164/227/5 163/228/24 161/224/5
f 161/224/25 163/228/5 166/229/25 158/222/5
s 1
f 164/227/4 170/230/4 165/231/4 163/228/4
f 163/228/65 165/231/65 168/232/65 166/229/65
f 167/233/2 166/229/2 168/232/2 169/234/2
s 0
f 171/223/5 158/222/24 166/229/5 167/233/24
s 1
f 165/231/59 170/230/59 169/234/59 168/232/59
f 170/230/66 164/227/66 167/233/66 169/234/66
s 0
f 164/227/25 162/226/5 171/223/25 167/233/5
s 1
f 162/226/52 160/225/52 157/220/52 171/223/52
f 160/225/59 172/214/59 155/218/59 157/220/59
s 0
f 172/214/25 150/211/5 153/217/25 155/218/5
f 150/211/25 148/210/5 173/207/25 153/217/5
s 1
f 148/210/67 146/209/67 143/204/67 173/207/67
s 0
f 146/209/25 174/193/5 141/198/25 143/204/5
f 174/193/25 134/192/5 138/197/25 141/198/5
s 1
f 177/195/52 135/191/52 139/235/52 175/236/52
f 135/191/68 88/143/68 92/144/68 139/235/68
f 178/237/69 177/195/69 175/236/69 176/238/69
f 176/239/2 175/240/2 138/197/2 183/241/2
f 178/237/4 180/242/4 134/192/4 177/195/4
f 179/243/47 178/237/47 176/238/47 221/244/47
f 179/243/4 181/245/4 180/242/4 178/237/4
s 0
f 181/245/24 219/246/70 182/247/24 180/242/71
s 1
f 134/192/72 180/242/72 183/241/72 138/197/72
s 0
f 180/242/25 182/247/5 185/248/25 183/241/5
f 184/249/5 183/241/24 185/248/71 186/250/24
s 1
f 221/251/2 176/252/2 183/241/2 184/249/2
s 0
f 186/250/5 185/248/24 187/253/71 188/254/24
f 182/247/25 190/255/5 187/253/25 185/248/5
s 1
f 188/254/70 187/253/5 189/256/70 218/257/5
f 190/255/47 192/258/47 189/256/47 187/253/47
f 191/259/73 193/260/73 192/258/73 190/255/73
s 0
f 219/246/24 191/259/70 190/255/24 182/247/71
f 193/260/24 195/261/70 194/262/24 192/258/71
f 192/258/25 194/262/5 197/263/25 189/256/5
f 195/261/24 217/264/70 196/265/24 194/262/71
f 194/262/25 196/265/5 199/266/25 197/263/5
f 198/267/5 197/263/24 199/266/71 200/268/24
f 218/257/5 189/256/24 197/263/71 198/267/24
s 1
f 200/268/2 199/266/2 201/269/2 202/270/2
f 196/265/48 204/271/48 201/269/48 199/266/48
s 0
f 202/270/4 201/269/4 203/272/4 216/273/4
s 1
f 204/271/47 206/274/47 203/272/47 201/269/47
f 205/275/74 207/276/75 206/274/74 204/271/76
f 217/264/77 205/275/78 204/271/78 196/265/78
s 0
f 207/276/24 209/277/70 208/278/24 206/274/71
f 206/274/25 208/278/5 211/279/25 203/272/5
s 1
f 209/277/4 215/280/4 210/281/4 208/278/4
f 208/278/41 210/281/41 213/282/41 211/279/41
f 212/283/2 211/279/2 213/282/2 214/284/2
s 0
f 216/273/5 203/272/24 211/279/71 212/283/24
s 1
f 210/281/48 215/280/48 214/284/48 213/282/48
f 215/280/35 209/277/35 212/283/35 214/284/35
s 0
f 209/277/25 207/276/5 216/273/25 212/283/5
s 1
f 207/276/47 205/275/47 202/270/47 216/273/47
f 205/275/48 217/264/48 200/268/48 202/270/48
s 0
f 217/264/25 195/261/5 198/267/25 200/268/5
f 195/261/25 193/260/5 218/257/25 198/267/5
s 1
f 193/260/47 191/259/47 188/254/47 218/257/47
s 0
f 191/259/25 219/246/5 186/250/25 188/254/5
f 219/246/25 181/245/5 184/249/25 186/250/5
s 1
f 181/245/79 226/285/79 220/286/79 184/249/79
f 222/287/2 221/288/2 184/249/2 220/286/2
f 224/289/80 179/243/80 221/244/80 222/290/80
f 225/291/65 224/289/65 222/292/65 223/293/65
f 223/294/2 222/295/2 220/286/2 264/296/2
f 225/291/4 227/297/4 226/285/4 224/289/4
f 224/289/4 226/285/4 181/245/4 179/243/4
s 0
f 227/297/24 229/298/5 228/299/24 226/285/71
f 226/285/25 228/299/5 231/300/25 220/286/5
f 229/298/24 263/301/5 230/302/24 228/299/71
f 228/299/25 230/302/5 233/303/25 231/300/5
f 232/304/70 231/300/24 233/303/71 234/305/24
f 264/296/70 220/286/24 231/300/71 232/304/24
s 1
f 234/305/24 233/303/24 235/306/24 236/307/24
f 230/302/65 238/308/65 235/306/65 233/303/65
s 0
f 236/307/70 235/306/24 237/309/71 262/310/24
f 238/308/25 240/311/5 237/309/25 235/306/5
f 239/312/24 241/313/5 240/311/24 238/308/71
s 1
f 263/301/81 239/312/81 238/308/81 230/302/81
s 0
f 241/313/24 243/314/5 242/315/24 240/311/71
f 240/311/25 242/315/5 245/316/25 237/309/5
s 1
f 243/314/82 261/317/83 244/318/83 242/315/82
f 242/315/66 244/318/66 247/319/66 245/316/66
f 246/320/4 245/321/4 247/319/4 248/322/4
s 0
f 262/310/70 237/309/24 245/316/71 246/320/24
f 248/322/1 247/319/1 249/323/84 250/324/1
s 1
f 244/318/65 252/325/65 249/323/65 247/319/65
s 0
f 250/324/70 249/323/24 251/326/71 260/327/24
f 252/325/25 254/328/5 251/326/25 249/323/5
f 253/329/24 255/330/5 254/328/24 252/325/71
s 1
f 261/317/85 253/329/86 252/325/86 244/318/85
f 255/330/4 257/331/4 256/332/4 254/328/4
f 254/328/59 256/332/59 258/333/59 251/326/59
f 256/332/66 257/331/66 259/334/66 258/335/66
f 260/327/2 251/326/2 258/335/2 259/334/2
f 257/331/52 255/330/52 260/327/52 259/334/52
s 0
f 255/330/25 253/329/5 250/324/25 260/327/5
s 1
f 253/329/65 261/317/65 248/322/65 250/324/65
f 261/317/66 243/314/66 246/320/66 248/322/66
s 0
f 243/314/25 241/313/5 262/310/25 246/320/5
f 241/313/25 239/312/5 236/307/25 262/310/5
s 1
f 239/312/87 263/301/87 234/305/87 236/307/87
s 0
f 263/301/25 229/298/5 232/304/25 234/305/5
f 229/298/25 227/297/5 264/296/25 232/304/5
s 1
f 227/297/34 269/336/34 265/337/34 264/296/34
f 267/338/2 223/339/2 264/296/2 265/337/2
s 0
f 266/340/5 265/337/25 268/341/5 306/342/25
s 1
f 309/343/2 267/344/2 265/337/2 266/340/2
s 0
f 269/336/25 272/345/5 268/341/25 265/337/5
f 270/346/25 273/347/5 272/345/25 269/336/5
s 1
f 307/348/4 270/346/4 269/336/4 271/349/4
f 271/349/4 269/336/4 227/297/4 225/291/4
s 0
f 273/347/25 275/350/5 274/351/25 272/345/5
f 272/345/25 274/351/5 277/352/25 268/341/5
s 1
f 275/350/88 305/353/89 276/354/90 274/351/90
f 274/351/41 276/354/41 279/355/41 277/352/41
f 278/356/91 277/352/91 279/355/91 280/357/92
s 0
f 306/342/5 268/341/25 277/352/5 278/356/25
f 280/357/5 279/355/25 281/358/5 282/359/25
f 276/354/25 284/360/5 281/358/25 279/355/5
f 282/359/5 281/358/25 283/361/5 304/362/25
f 284/360/25 286/363/5 283/361/25 281/358/5
f 285/364/25 287/365/5 286/363/25 284/360/5
f 305/353/25 285/364/5 284/360/25 276/354/5
s 1
f 287/365/5 289/366/93 288/367/93 286/363/93
f 286/363/35 288/367/35 291/368/35 283/361/35
f 289/366/94 303/369/95 290/370/96 288/367/94
f 288/367/41 290/370/41 293/371/41 291/368/41
f 292/372/93 291/368/93 293/371/5 294/373/5
f 304/362/97 283/361/98 291/368/25 292/372/25
s 0
f 294/373/5 293/371/25 295/374/5 296/375/25
f 290/370/25 298/376/5 295/374/25 293/371/5
s 1
f 296/375/2 295/374/2 297/377/2 302/378/2
f 298/376/48 300/379/48 297/377/48 295/374/48
f 299/380/4 301/381/4 300/379/4 298/376/4
s 0
f 303/369/25 299/380/5 298/376/25 290/370/5
s 1
f 300/379/35 301/381/35 302/378/35 297/377/35
f 301/381/47 299/380/47 296/375/47 302/378/47
s 0
f 299/380/25 303/369/5 294/373/25 296/375/5
s 1
f 303/369/41 289/366/41 292/372/41 294/373/41
f 289/366/35 287/365/35 304/362/35 292/372/35
s 0
f 287/365/25 285/364/5 282/359/25 304/362/5
f 285/364/25 305/353/5 280/357/25 282/359/5
s 1
f 305/353/41 275/350/41 278/356/41 280/357/41
s 0
f 275/350/25 273/347/5 306/342/25 278/356/5
f 273/347/25 270/346/5 266/340/25 306/342/5
s 1
f 307/348/41 271/349/41 267/382/41 309/383/41
f 271/349/36 225/291/36 223/293/36 267/382/36
f 308/384/50 307/348/50 309/383/50 310/385/50
f 308/384/4 315/386/4 270/346/4 307/348/4
f 310/387/2 309/388/2 266/340/2 312/389/2
f 353/390/59 308/384/59 310/385/59 311/391/59
f 311/392/2 310/393/2 312/389/2 313/394/2
s 0
f 313/394/5 312/389/24 314/395/5 351/396/24
s 1
f 270/346/68 315/386/68 312/389/68 266/340/68
s 0
f 315/386/25 317/397/5 314/395/25 312/389/5
f 316/398/24 318/399/5 317/397/24 315/386/5
s 1
f 353/390/4 316/398/4 315/386/4 308/384/4
s 0
f 318/399/24 320/400/5 319/401/24 317/397/5
f 317/397/25 319/401/5 322/402/25 314/395/5
s 1
f 320/400/99 350/403/99 321/404/99 319/401/99
f 319/401/100 321/404/100 324/405/100 322/402/100
f 323/406/5 322/402/5 324/405/5 325/407/93
s 0
f 351/396/5 314/395/24 322/402/5 323/406/24
f 325/407/5 324/405/24 326/408/5 327/409/24
f 321/404/25 329/410/5 326/408/25 324/405/5
f 327/409/5 326/408/24 328/411/5 349/412/24
f 329/410/25 331/413/5 328/411/25 326/408/5
f 330/414/24 332/415/5 331/413/24 329/410/5
f 350/403/24 330/414/5 329/410/24 321/404/5
s 1
f 332/415/101 334/416/101 333/417/101 331/413/101
f 331/413/52 333/417/52 336/418/52 328/411/52
f 334/416/102 348/419/103 335/420/104 333/417/102
f 333/417/59 335/420/59 338/421/59 336/418/59
f 337/422/4 336/418/4 338/421/4 339/423/105
f 349/412/2 328/411/2 336/418/2 337/422/2
s 0
f 339/423/5 338/421/24 340/424/5 341/425/24
f 335/420/25 343/426/5 340/424/25 338/421/5
s 1
f 341/425/2 340/424/2 342/427/2 347/428/2
f 343/426/66 345/429/66 342/427/66 340/424/66
f 344/430/4 346/431/4 345/429/4 343/426/4
s 0
f 348/419/24 344/430/5 343/426/24 335/420/5
s 1
f 345/429/52 346/431/52 347/428/52 342/427/52
f 346/431/65 344/430/65 341/425/65 347/428/65
s 0
f 344/430/25 348/419/5 339/423/25 341/425/5
s 1
f 348/419/59 334/416/59 337/422/59 339/423/59
f 334/416/52 332/415/52 349/412/52 337/422/52
s 0
f 332/415/25 330/414/5 327/409/25 349/412/5
f 330/414/25 350/403/5 325/407/25 327/409/5
s 1
f 350/403/59 320/400/59 323/406/59 325/407/59
s 0
f 320/400/25 318/399/5 351/396/25 323/406/5
f 318/399/25 316/398/5 313/394/25 351/396/5
s 1
f 316/398/69 352/432/69 358/433/69 313/394/69
f 354/434/4 352/432/4 316/398/4 353/390/4
f 354/434/72 353/390/72 311/391/72 356/435/72
f 355/436/48 354/434/48 356/435/48 357/437/48
f 355/436/4 396/438/4 352/432/4 354/434/4
f 357/439/2 356/440/2 358/433/2 359/441/2
f 356/442/2 311/443/2 313/394/2 358/433/2
s 0
f 359/441/71 358/433/24 360/444/5 361/445/24
f 352/432/25 363/446/5 360/444/25 358/433/5
f 361/445/71 360/444/24 362/447/5 395/448/24
f 363/446/25 365/449/5 362/447/25 360/444/5
f 364/450/24 366/451/71 365/449/24 363/446/5
f 396/438/24 364/450/71 363/446/24 352/432/5
s 1
f 366/451/106 368/452/106 367/453/106 365/449/106
f 365/449/107 367/453/107 370/454/107 362/447/107
s 0
f 368/452/24 394/455/71 369/456/24 367/453/5
f 367/453/25 369/456/5 372/457/25 370/454/5
f 371/458/71 370/454/24 372/457/5 373/459/24
s 1
f 395/448/108 362/447/24 370/454/24 371/458/109
s 0
f 373/459/71 372/457/24 374/460/5 375/461/24
f 369/456/25 377/462/5 374/460/25 372/457/5
s 1
f 375/461/110 374/460/111 376/463/110 393/464/110
f 377/462/47 379/465/47 376/463/47 374/460/47
f 378/466/112 380/467/112 379/465/112 377/462/112
s 0
f 394/455/24 378/466/71 377/462/24 369/456/5
s 1
f 380/467/113 382/468/113 381/469/114 379/465/113
f 379/465/48 381/469/48 384/470/48 376/463/48
s 0
f 382/468/24 392/471/71 383/472/24 381/469/5
f 381/469/25 383/472/5 386/473/25 384/470/5
f 385/474/71 384/470/24 386/473/5 387/475/24
s 1
f 393/464/4 376/463/4 384/470/4 385/474/4
f 387/475/2 386/473/2 388/476/2 389/477/2
f 383/472/35 390/478/35 388/476/35 386/473/35
f 390/478/47 391/479/47 389/477/47 388/476/47
f 392/471/4 391/479/4 390/478/4 383/472/4
f 391/479/41 392/471/41 387/475/41 389/477/41
s 0
f 392/471/25 382/468/5 385/474/25 387/475/5
s 1
f 382/468/48 380/467/48 393/464/48 385/474/48
f 380/467/47 378/466/47 375/461/47 393/464/47
s 0
f 378/466/25 394/455/5 373/459/25 375/461/5
f 394/455/25 368/452/5 371/458/25 373/459/5
s 1
f 368/452/48 366/451/48 395/448/48 371/458/48
s 0
f 366/451/25 364/450/5 361/445/25 395/448/5
f 364/450/25 396/438/5 359/441/25 361/445/5
s 1
f 396/438/80 397/480/80 401/481/80 359/441/80
f 399/482/4 397/480/4 396/438/4 355/436/4
s 0
f 398/142/24 437/483/71 400/484/24 397/480/5
s 1
f 87/138/4 398/142/4 397/480/4 399/482/4
s 0
f 397/480/25 400/484/5 403/485/25 401/481/5
f 94/148/71 401/481/24 403/485/5 404/486/24
s 1
f 91/487/2 402/488/2 401/481/2 94/148/2
f 402/489/2 357/490/2 359/441/2 401/481/2
s 0
f 404/486/71 403/485/24 405/491/5 406/492/24
f 400/484/25 408/493/5 405/491/25 403/485/5
s 1
f 406/492/4 405/491/4 407/494/4 436/495/4
f 408/493/66 410/496/66 407/494/66 405/491/66
f 409/497/115 411/498/115 410/496/115 408/493/115
s 0
f 437/483/24 409/497/71 408/493/24 400/484/5
f 411/498/24 413/499/71 412/500/24 410/496/5
f 410/496/25 412/500/5 415/501/25 407/494/5
f 413/499/24 435/502/71 414/503/24 412/500/5
f 412/500/25 414/503/5 417/504/25 415/501/5
f 416/505/71 415/501/24 417/504/5 418/506/24
f 436/495/71 407/494/24 415/501/5 416/505/24
s 1
f 418/506/97 417/504/25 419/507/25 420/508/25
f 414/503/65 422/509/65 419/507/65 417/504/65
f 420/508/4 419/507/4 421/510/4 434/511/116
f 422/509/66 424/512/66 421/510/66 419/507/66
f 423/513/24 425/514/117 424/512/24 422/509/118
f 435/502/119 423/513/120 422/509/120 414/503/120
s 0
f 425/514/24 427/515/71 426/516/24 424/512/5
f 424/512/25 426/516/5 429/517/25 421/510/5
s 1
f 427/515/4 433/518/4 428/519/4 426/516/4
f 426/516/52 428/519/52 431/520/52 429/517/52
f 430/521/2 429/517/2 431/520/2 432/522/2
s 0
f 434/511/71 421/510/24 429/517/5 430/521/24
s 1
f 428/519/65 433/518/65 432/522/65 431/520/65
f 433/518/59 427/515/59 430/521/59 432/522/59
s 0
f 427/515/25 425/514/5 434/511/25 430/521/5
s 1
f 425/514/66 423/513/66 420/508/66 434/511/66
f 423/513/65 435/502/65 418/506/65 420/508/65
s 0
f 435/502/25 413/499/5 416/505/25 418/506/5
f 413/499/25 411/498/5 436/495/25 416/505/5
s 1
f 411/498/121 409/497/121 406/492/121 436/495/121
s 0
f 409/497/25 437/483/5 404/486/25 406/492/5
f 437/483/25 398/142/5 94/148/25 404/486/5
s 1
f 87/138/66 399/482/66 402/523/66 91/139/66
f 399/482/79 355/436/79 357/437/79 402/523/79
f 438/524/34 439/525/34 443/526/34 442/527/34
f 438/528/4 441/529/4 750/530/4 439/531/4
f 440/532/35 438/524/35 442/527/35 444/533/35
f 440/534/4 484/535/4 441/529/4 438/528/4
f 442/536/2 443/537/2 446/538/2 445/539/2
f 444/540/2 442/536/2 445/539/2 447/541/2
f 750/530/36 441/529/36 445/539/36 446/538/36
s 0
f 447/541/5 445/539/25 448/542/5 449/543/25
f 441/529/25 451/544/5 448/542/25 445/539/5
f 449/543/5 448/542/25 450/545/5 483/546/25
f 451/544/25 453/547/5 450/545/25 448/542/5
f 452/548/25 454/549/5 453/547/25 451/544/5
f 484/535/25 452/548/5 451/544/25 441/529/5
s 1
f 454/549/122 456/550/122 455/551/122 453/547/122
f 453/547/39 455/551/39 458/552/39 450/545/39
s 0
f 456/550/25 482/553/5 457/554/25 455/551/5
f 455/551/25 457/554/5 460/555/25 458/552/5
f 459/556/5 458/552/25 460/555/5 461/557/25
s 1
f 483/546/123 450/545/123 458/552/123 459/556/124
s 0
f 461/557/5 460/555/25 462/558/5 463/559/25
f 457/554/25 465/560/5 462/558/25 460/555/5
f 463/559/24 462/558/24 464/561/24 481/562/24
s 1
f 465/560/41 467/563/41 464/561/41 462/558/41
f 466/564/125 468/565/125 467/563/125 465/560/126
s 0
f 482/553/25 466/564/5 465/560/25 457/554/5
s 1
f 468/565/127 470/566/128 469/567/129 467/563/127
f 467/563/35 469/567/35 472/568/35 464/561/35
s 0
f 470/566/25 480/569/5 471/570/25 469/567/5
f 469/567/25 471/570/5 474/571/25 472/568/5
f 473/572/5 472/568/25 474/571/5 475/573/25
s 1
f 481/562/130 464/561/130 472/568/130 473/572/130
f 475/573/2 474/571/2 476/574/2 477/575/2
f 471/570/47 478/576/47 476/574/47 474/571/47
f 478/576/41 479/577/41 477/575/41 476/574/41
f 480/569/4 479/577/4 478/576/4 471/570/4
f 479/577/48 480/569/48 475/573/48 477/575/48
s 0
f 480/569/25 470/566/5 473/572/25 475/573/5
s 1
f 470/566/35 468/565/35 481/562/35 473/572/35
f 468/565/41 466/564/41 463/559/41 481/562/41
s 0
f 466/564/25 482/553/5 461/557/25 463/559/5
f 482/553/25 456/550/5 459/556/25 461/557/5
s 1
f 456/550/49 454/549/49 483/546/49 459/556/49
s 0
f 454/549/25 452/548/5 449/543/25 483/546/5
f 452/548/25 484/535/5 447/541/25 449/543/5
s 1
f 484/535/50 485/578/50 489/579/50 447/541/50
f 487/580/4 485/578/4 484/535/4 440/534/4
s 0
f 486/581/24 526/582/5 488/583/24 485/578/5
s 1
f 529/584/4 486/581/4 485/578/4 487/580/4
s 0
f 485/578/25 488/583/5 492/585/25 489/579/5
f 490/586/5 489/579/24 492/585/5 493/587/24
s 1
f 527/588/2 491/589/2 489/579/2 490/586/2
f 491/589/2 444/540/2 447/541/2 489/579/2
s 0
f 493/587/5 492/585/24 494/590/5 495/591/24
f 488/583/25 497/592/5 494/590/25 492/585/5
f 495/591/4 494/590/4 496/593/105 525/594/4
s 1
f 497/592/67 499/595/67 496/593/67 494/590/67
f 498/596/131 500/597/131 499/595/132 497/592/131
s 0
f 526/582/24 498/596/5 497/592/24 488/583/5
f 500/597/24 502/598/5 501/599/24 499/595/5
f 499/595/25 501/599/5 504/600/25 496/593/5
f 502/598/24 524/601/5 503/602/24 501/599/5
f 501/599/25 503/602/5 506/603/25 504/600/5
f 505/604/5 504/600/24 506/603/5 507/605/24
f 525/594/5 496/593/24 504/600/5 505/604/24
s 1
f 507/605/133 506/603/134 508/606/134 509/607/134
f 503/602/59 511/608/59 508/606/59 506/603/59
s 0
f 509/607/5 508/606/5 510/609/135 523/610/5
s 1
f 511/608/52 513/611/52 510/609/52 508/606/52
f 512/612/58 514/613/136 513/611/58 511/608/58
f 524/601/137 512/612/138 511/608/139 503/602/139
s 0
f 514/613/24 516/614/5 515/615/24 513/611/5
f 513/611/25 515/615/5 518/616/25 510/609/5
s 1
f 516/614/4 522/617/4 517/618/4 515/615/4
f 515/615/65 517/618/65 520/619/65 518/616/65
f 519/620/2 518/616/2 520/619/2 521/621/2
s 0
f 523/610/5 510/609/24 518/616/5 519/620/24
s 1
f 517/618/59 522/617/59 521/621/59 520/619/59
f 522/617/66 516/614/66 519/620/66 521/621/66
s 0
f 516/614/25 514/613/5 523/610/25 519/620/5
s 1
f 514/613/52 512/612/52 509/607/52 523/610/52
f 512/612/59 524/601/59 507/605/59 509/607/59
s 0
f 524/601/25 502/598/5 505/604/25 507/605/5
f 502/598/25 500/597/5 525/594/25 505/604/5
s 1
f 500/597/52 498/596/52 495/591/52 525/594/52
s 0
f 498/596/25 526/582/5 493/587/25 495/591/5
f 526/582/25 486/581/5 490/586/25 493/587/5
s 1
f 529/622/52 487/623/52 491/624/52 527/625/52
f 487/623/68 440/532/68 444/533/68 491/624/68
f 530/626/69 529/622/69 527/625/69 528/627/69
f 528/628/2 527/588/2 490/586/2 535/629/2
f 530/630/4 532/631/4 486/581/4 529/584/4
f 531/632/47 530/626/47 528/627/47 573/633/47
f 531/634/4 533/635/4 532/631/4 530/636/4
s 0
f 533/635/24 571/637/5 534/638/24 532/631/71
s 1
f 486/581/72 532/631/72 535/629/72 490/586/72
s 0
f 532/631/25 534/638/5 537/639/25 535/629/5
f 536/640/5 535/629/24 537/639/71 538/641/24
s 1
f 573/633/2 528/627/2 535/629/2 536/640/2
s 0
f 538/641/5 537/639/24 539/642/71 540/643/24
f 534/638/25 542/644/5 539/642/25 537/639/5
s 1
f 540/643/5 539/642/5 541/645/5 570/646/5
f 542/644/47 544/647/47 541/645/47 539/642/47
f 543/648/140 545/649/140 544/647/140 542/644/141
s 0
f 571/637/24 543/648/5 542/644/24 534/638/71
f 545/649/24 547/650/5 546/651/24 544/647/71
f 544/647/25 546/651/5 549/652/25 541/645/5
f 547/650/24 569/653/5 548/654/24 546/651/71
f 546/651/25 548/654/5 551/655/25 549/652/5
f 550/656/5 549/652/24 551/655/71 552/657/24
f 570/646/5 541/645/24 549/652/71 550/656/24
s 1
f 552/657/142 551/655/143 553/658/143 554/659/144
f 548/654/48 556/660/48 553/658/48 551/655/48
f 554/659/4 553/658/4 555/661/51 568/662/4
f 556/660/47 558/663/47 555/661/47 553/658/47
f 557/664/145 559/665/146 558/663/145 556/660/145
f 569/653/147 557/664/147 556/660/147 548/654/147
s 0
f 559/665/24 561/666/5 560/667/24 558/663/71
f 558/663/25 560/667/5 563/668/25 555/661/5
s 1
f 561/666/4 567/669/4 562/670/4 560/667/4
f 560/667/41 562/670/41 565/671/41 563/668/41
f 564/672/2 563/668/2 565/671/2 566/673/2
s 0
f 568/662/5 555/661/24 563/668/71 564/672/24
s 1
f 562/670/48 567/669/48 566/673/48 565/671/48
f 567/669/35 561/666/35 564/672/35 566/673/35
s 0
f 561/666/25 559/665/5 568/662/25 564/672/5
s 1
f 559/665/47 557/664/47 554/659/47 568/662/47
f 557/664/48 569/653/48 552/657/48 554/659/48
s 0
f 569/653/25 547/650/5 550/656/25 552/657/5
f 547/650/25 545/649/5 570/646/25 550/656/5
s 1
f 545/649/47 543/648/47 540/643/47 570/646/47
s 0
f 543/648/25 571/637/5 538/641/25 540/643/5
f 571/637/25 533/635/5 536/640/25 538/641/5
s 1
f 533/635/79 578/674/79 572/675/79 536/640/79
f 574/676/2 573/633/2 536/640/2 572/675/2
f 576/677/80 531/632/80 573/633/80 574/676/80
f 577/678/65 576/677/65 574/676/65 575/679/65
f 575/679/2 574/676/2 572/675/2 616/680/2
f 577/681/4 579/682/4 578/674/4 576/683/4
f 576/683/4 578/674/4 533/635/4 531/634/4
s 0
f 579/682/24 581/684/5 580/685/24 578/674/71
f 578/674/25 580/685/5 583/686/25 572/675/5
f 581/684/24 615/687/5 582/688/24 580/685/71
f 580/685/25 582/688/5 585/689/25 583/686/5
f 584/690/5 583/686/24 585/689/71 586/691/24
f 616/680/5 572/675/24 583/686/71 584/690/24
s 1
f 586/691/5 585/689/5 587/692/5 588/693/5
f 582/688/148 590/694/148 587/692/148 585/689/148
s 0
f 588/693/5 587/692/24 589/695/71 614/696/24
f 590/694/25 592/697/5 589/695/25 587/692/5
f 591/698/24 593/699/5 592/697/24 590/694/71
s 1
f 615/687/149 591/698/149 590/694/149 582/688/149
s 0
f 593/699/24 595/700/5 594/701/24 592/697/71
f 592/697/25 594/701/5 597/702/25 589/695/5
s 1
f 595/700/150 613/703/150 596/704/150 594/701/151
f 594/701/66 596/704/66 599/705/66 597/702/66
f 598/706/4 597/702/4 599/705/4 600/707/4
s 0
f 614/696/5 589/695/24 597/702/71 598/706/24
f 600/707/25 599/705/25 601/708/98 602/709/25
s 1
f 596/704/65 604/710/65 601/708/65 599/705/65
s 0
f 602/709/5 601/708/24 603/711/71 612/712/24
f 604/710/25 606/713/5 603/711/25 601/708/5
f 605/714/24 607/715/5 606/713/24 604/710/71
s 1
f 613/703/152 605/714/153 604/710/154 596/704/154
f 607/715/4 609/716/4 608/717/4 606/713/4
f 606/713/59 608/717/59 610/718/59 603/711/59
f 608/717/66 609/716/66 611/719/66 610/718/66
f 612/712/2 603/711/2 610/718/2 611/719/2
f 609/716/52 607/715/52 612/712/52 611/719/52
s 0
f 607/715/25 605/714/5 602/709/25 612/712/5
s 1
f 605/714/65 613/703/65 600/707/65 602/709/65
f 613/703/66 595/700/66 598/706/66 600/707/66
s 0
f 595/700/25 593/699/5 614/696/25 598/706/5
f 593/699/25 591/698/5 588/693/25 614/696/5
s 1
f 591/698/87 615/687/87 586/691/87 588/693/87
s 0
f 615/687/25 581/684/5 584/690/25 586/691/5
f 581/684/25 579/682/5 616/680/25 584/690/5
s 1
f 579/682/34 621/720/34 617/721/34 616/680/34
f 619/722/2 575/679/2 616/680/2 617/721/2
s 0
f 618/723/5 617/721/25 620/724/5 658/725/25
s 1
f 661/726/2 619/722/2 617/721/2 618/723/2
s 0
f 621/720/25 624/727/5 620/724/25 617/721/5
f 622/728/25 625/729/5 624/727/25 621/720/5
s 1
f 659/730/4 622/728/4 621/720/4 623/731/4
f 623/731/4 621/720/4 579/682/4 577/681/4
s 0
f 625/729/25 627/732/5 626/733/25 624/727/5
f 624/727/25 626/733/5 629/734/25 620/724/5
s 1
f 627/732/155 657/735/155 628/736/156 626/733/155
f 626/733/41 628/736/41 631/737/41 629/734/41
f 630/738/91 629/734/91 631/737/91 632/739/91
s 0
f 658/725/5 620/724/25 629/734/5 630/738/25
f 632/739/5 631/737/25 633/740/5 634/741/25
f 628/736/25 636/742/5 633/740/25 631/737/5
f 634/741/5 633/740/25 635/743/5 656/744/25
f 636/742/25 638/745/5 635/743/25 633/740/5
f 637/746/25 639/747/5 638/745/25 636/742/5
f 657/735/25 637/746/5 636/742/25 628/736/5
s 1
f 639/747/40 641/748/24 640/749/24 638/745/108
f 638/745/35 640/749/35 643/750/35 635/743/35
f 641/748/157 655/751/157 642/752/158 640/749/157
f 640/749/41 642/752/41 645/753/41 643/750/41
f 644/754/24 643/750/24 645/753/118 646/755/118
f 656/744/97 635/743/25 643/750/25 644/754/25
s 0
f 646/755/5 645/753/25 647/756/5 648/757/25
f 642/752/25 650/758/5 647/756/25 645/753/5
s 1
f 648/757/2 647/756/2 649/759/2 654/760/2
f 650/758/48 652/761/48 649/759/48 647/756/48
f 651/762/4 653/763/4 652/761/4 650/758/4
s 0
f 655/751/25 651/762/5 650/758/25 642/752/5
s 1
f 652/761/35 653/763/35 654/760/35 649/759/35
f 653/763/47 651/762/47 648/757/47 654/760/47
s 0
f 651/762/25 655/751/5 646/755/25 648/757/5
s 1
f 655/751/41 641/748/41 644/754/41 646/755/41
f 641/748/35 639/747/35 656/744/35 644/754/35
s 0
f 639/747/25 637/746/5 634/741/25 656/744/5
f 637/746/25 657/735/5 632/739/25 634/741/5
s 1
f 657/735/41 627/732/41 630/738/41 632/739/41
s 0
f 627/732/25 625/729/5 658/725/25 630/738/5
f 625/729/25 622/728/5 618/723/25 658/725/5
s 1
f 659/764/41 623/765/41 619/722/41 661/726/41
f 623/765/36 577/678/36 575/679/36 619/722/36
f 660/766/50 659/764/50 661/726/50 662/767/50
f 660/768/4 667/769/4 622/728/4 659/730/4
f 662/767/2 661/726/2 618/723/2 664/770/2
f 705/771/59 660/766/59 662/767/59 663/772/59
f 663/772/2 662/767/2 664/770/2 665/773/2
s 0
f 665/773/5 664/770/24 666/774/5 703/775/24
s 1
f 622/728/68 667/769/68 664/770/68 618/723/68
s 0
f 667/769/25 669/776/5 666/774/25 664/770/5
f 668/777/24 670/778/5 669/776/24 667/769/5
s 1
f 705/779/4 668/777/4 667/769/4 660/768/4
s 0
f 670/778/24 672/780/5 671/781/24 669/776/5
f 669/776/25 671/781/5 674/782/25 666/774/5
s 1
f 672/780/159 702/783/160 673/784/159 671/781/159
f 671/781/161 673/784/161 676/785/161 674/782/161
f 675/786/5 674/782/5 676/785/5 677/787/93
s 0
f 703/775/5 666/774/24 674/782/5 675/786/24
f 677/787/5 676/785/24 678/788/5 679/789/24
f 673/784/25 681/790/5 678/788/25 676/785/5
f 679/789/5 678/788/24 680/791/5 701/792/24
f 681/790/25 683/793/5 680/791/25 678/788/5
f 682/794/24 684/795/5 683/793/24 681/790/5
f 702/783/24 682/794/5 681/790/24 673/784/5
s 1
f 684/795/162 686/796/162 685/797/162 683/793/162
f 683/793/52 685/797/52 688/798/52 680/791/52
f 686/796/163 700/799/164 687/800/163 685/797/163
f 685/797/59 687/800/59 690/801/59 688/798/59
f 689/802/4 688/798/4 690/801/116 691/803/105
f 701/792/142 680/791/142 688/798/142 689/802/142
s 0
f 691/803/5 690/801/24 692/804/5 693/805/24
f 687/800/25 695/806/5 692/804/25 690/801/5
s 1
f 693/805/2 692/804/2 694/807/2 699/808/2
f 695/806/66 697/809/66 694/810/66 692/804/66
f 696/811/4 698/812/4 697/809/4 695/806/4
s 0
f 700/799/24 696/811/5 695/806/24 687/800/5
s 1
f 697/809/52 698/812/52 699/813/52 694/810/52
f 698/812/65 696/811/65 693/805/65 699/813/65
s 0
f 696/811/25 700/799/5 691/803/25 693/805/5
s 1
f 700/799/59 686/796/59 689/802/59 691/803/59
f 686/796/52 684/795/52 701/792/52 689/802/52
s 0
f 684/795/25 682/794/5 679/789/25 701/792/5
f 682/794/25 702/783/5 677/787/25 679/789/5
s 1
f 702/783/59 672/780/59 675/786/59 677/787/59
s 0
f 672/780/25 670/778/5 703/775/25 675/786/5
f 670/778/25 668/777/5 665/773/25 703/775/5
s 1
f 668/777/69 704/814/69 710/815/69 665/773/69
f 706/816/4 704/814/4 668/777/4 705/779/4
f 706/817/72 705/771/72 663/772/72 708/818/72
f 707/819/48 706/817/48 708/818/48 709/820/48
f 707/821/4 748/822/4 704/814/4 706/816/4
f 709/823/2 708/818/2 710/815/2 711/824/2
f 708/818/2 663/772/2 665/773/2 710/815/2
s 0
f 711/824/71 710/815/24 712/825/5 713/826/24
f 704/814/25 715/827/5 712/825/25 710/815/5
f 713/826/71 712/825/24 714/828/5 747/829/24
f 715/827/25 717/830/5 714/828/25 712/825/5
f 716/831/24 718/832/71 717/830/24 715/827/5
f 748/822/24 716/831/71 715/827/24 704/814/5
s 1
f 718/832/165 720/833/165 719/834/165 717/830/165
f 717/830/48 719/834/48 722/835/48 714/828/48
s 0
f 720/833/24 746/836/71 721/837/24 719/834/5
f 719/834/25 721/837/5 724/838/25 722/835/5
f 723/839/71 722/835/24 724/838/5 725/840/24
s 1
f 747/829/5 714/828/5 722/835/71 723/839/5
s 0
f 725/840/71 724/838/24 726/841/5 727/842/24
f 721/837/25 729/843/5 726/841/25 724/838/5
s 1
f 727/842/166 726/841/166 728/844/166 745/845/166
f 729/843/47 731/846/47 728/844/47 726/841/47
f 730/847/167 732/848/167 731/846/167 729/843/167
s 0
f 746/836/24 730/847/71 729/843/24 721/837/5
s 1
f 732/848/168 734/849/168 733/850/169 731/846/168
f 731/846/48 733/850/48 736/851/48 728/844/48
s 0
f 734/849/24 744/852/71 735/853/24 733/850/5
f 733/850/25 735/853/5 738/854/25 736/851/5
f 737/855/71 736/851/24 738/854/5 739/856/24
s 1
f 745/845/170 728/844/170 736/851/171 737/855/172
f 739/856/2 738/854/2 740/857/2 741/858/2
f 735/853/35 742/859/35 740/860/35 738/854/35
f 742/859/47 743/861/47 741/862/47 740/860/47
f 744/852/4 743/861/4 742/859/4 735/853/4
f 743/861/41 744/852/41 739/856/41 741/862/41
s 0
f 744/852/25 734/849/5 737/855/25 739/856/5
s 1
f 734/849/48 732/848/48 745/845/48 737/855/48
f 732/848/47 730/847/47 727/842/47 745/845/47
s 0
f 730/847/25 746/836/5 725/840/25 727/842/5
f 746/836/25 720/833/5 723/839/25 725/840/5
s 1
f 720/833/48 718/832/48 747/829/48 723/839/48
s 0
f 718/832/25 716/831/5 713/826/25 747/829/5
f 716/831/25 748/822/5 711/824/25 713/826/5
s 1
f 748/822/80 749/863/80 753/864/80 711/824/80
f 751/865/4 749/863/4 748/822/4 707/866/4
s 0
f 750/530/24 789/867/71 752/868/24 749/863/5
s 1
f 439/531/4 750/530/4 749/863/4 751/865/4
s 0
f 749/863/25 752/868/5 755/869/25 753/864/5
f 446/538/71 753/864/24 755/869/5 756/870/24
s 1
f 443/537/2 754/871/2 753/864/2 446/538/2
f 754/871/2 709/872/2 711/824/2 753/864/2
s 0
f 756/870/71 755/869/24 757/873/5 758/874/24
f 752/868/25 760/875/5 757/873/25 755/869/5
s 1
f 758/874/173 757/873/173 759/876/173 788/877/173
f 760/875/66 762/878/66 759/876/66 757/873/66
f 761/879/174 763/880/174 762/878/175 760/875/174
s 0
f 789/867/24 761/879/71 760/875/24 752/868/5
f 763/880/24 765/881/71 764/882/24 762/878/5
f 762/878/25 764/882/5 767/883/25 759/876/5
f 765/881/24 787/884/71 766/885/24 764/882/5
f 764/882/25 766/885/5 769/886/25 767/883/5
f 768/887/71 767/883/24 769/886/5 770/888/24
f 788/877/71 759/876/24 767/883/5 768/887/24
s 1
f 770/888/40 769/886/118 771/889/24 772/890/24
f 766/885/65 774/891/65 771/889/65 769/886/65
s 0
f 772/890/4 771/889/4 773/892/4 786/893/4
s 1
f 774/891/66 776/894/66 773/892/66 771/889/66
f 775/895/24 777/896/24 776/894/176 774/891/24
f 787/884/177 775/895/178 774/891/178 766/885/178
s 0
f 777/896/24 779/897/71 778/898/24 776/894/5
f 776/894/25 778/898/5 781/899/25 773/892/5
s 1
f 779/897/4 785/900/4 780/901/4 778/898/4
f 778/898/52 780/901/52 783/902/52 781/899/52
f 782/903/2 781/899/2 783/902/2 784/904/2
s 0
f 786/893/71 773/892/24 781/899/5 782/903/24
s 1
f 780/901/65 785/900/65 784/904/65 783/902/65
f 785/900/59 779/897/59 782/903/59 784/904/59
s 0
f 779/897/25 777/896/5 786/893/25 782/903/5
s 1
f 777/896/66 775/895/66 772/890/66 786/893/66
f 775/895/65 787/884/65 770/888/65 772/890/65
s 0
f 787/884/25 765/881/5 768/887/25 770/888/5
f 765/881/25 763/880/5 788/877/25 768/887/5
s 1
f 763/880/121 761/879/121 758/874/121 788/877/121
s 0
f 761/879/25 789/867/5 756/870/25 758/874/5
f 789/867/25 750/530/5 446/538/25 756/870/5
s 1
f 439/525/66 751/905/66 754/906/66 443/526/66
f 751/905/79 707/907/79 709/908/79 754/906/79
f 790/909/179 803/910/179 802/911/179
f 791/912/180 803/913/180 805/914/180
f 790/915/181 802/916/181 807/917/181
f 790/918/182 807/919/182 809/920/182
f 790/921/183 809/922/183 806/923/183
f 791/912/184 805/914/184 812/924/184
f 792/925/185 804/926/185 814/927/185
f 793/928/186 808/929/186 816/930/186
f 794/931/187 810/932/187 818/933/187
f 795/934/188 811/935/188 820/936/188
f 791/912/189 812/924/189 815/937/189
f 792/925/190 814/927/190 817/938/190
f 793/928/191 816/930/191 819/939/191
f 794/931/192 818/933/192 821/940/192
f 795/934/193 820/936/193 813/941/193
f 796/942/194 822/943/194 827/944/194
f 797/945/195 823/946/195 829/947/195
f 798/948/196 824/949/196 830/950/196
f 799/951/197 825/952/197 831/953/197
f 800/954/198 826/955/198 828/956/198
f 828/956/199 831/957/199 801/958/199
f 828/956/200 826/955/200 831/957/200
f 826/955/201 799/951/201 831/957/201
f 831/953/202 830/959/202 801/960/202
f 831/953/203 825/952/203 830/959/203
f 825/952/204 798/948/204 830/959/204
f 830/950/205 829/961/205 801/962/205
f 830/950/206 824/949/206 829/961/206
f 824/949/207 797/963/207 829/961/207
f 829/947/208 827/964/208 801/965/208
f 829/947/209 823/946/209 827/964/209
f 823/946/210 796/942/210 827/964/210
f 827/944/211 828/966/211 801/967/211
f 827/944/212 822/943/212 828/966/212
f 822/943/213 800/954/213 828/966/213
f 813/941/214 826/955/214 800/954/214
f 813/941/215 820/936/215 826/955/215
f 820/936/216 799/951/216 826/955/216
f 821/940/217 825/952/217 799/951/217
f 821/940/218 818/933/218 825/952/218
f 818/933/219 798/948/219 825/952/219
f 819/939/220 824/949/220 798/948/220
f 819/939/221 816/930/221 824/949/221
f 816/930/222 797/963/222 824/949/222
f 817/938/223 823/946/223 797/945/223
f 817/938/224 814/927/224 823/946/224
f 814/927/225 796/942/225 823/946/225
f 815/937/226 822/943/226 796/942/226
f 815/937/227 812/924/227 822/943/227
f 812/924/228 800/954/228 822/943/228
f 820/936/229 821/940/229 799/951/229
f 820/936/230 811/935/230 821/940/230
f 811/935/231 794/931/231 821/940/231
f 818/933/232 819/939/232 798/948/232
f 818/933/233 810/932/233 819/939/233
f 810/932/234 793/928/234 819/939/234
f 816/930/235 817/968/235 797/963/235
f 816/930/236 808/929/236 817/968/236
f 808/929/237 792/969/237 817/968/237
f 814/927/238 815/937/238 796/942/238
f 814/927/239 804/926/239 815/937/239
f 804/926/240 791/912/240 815/937/240
f 812/924/241 813/941/241 800/954/241
f 812/924/242 805/914/242 813/941/242
f 805/914/243 795/934/243 813/941/243
f 806/923/244 811/935/244 795/934/244
f 806/923/245 809/922/245 811/935/245
f 809/922/246 794/931/246 811/935/246
f 809/920/247 810/932/247 794/931/247
f 809/920/248 807/919/248 810/932/248
f 807/919/249 793/928/249 810/932/249
f 807/917/250 808/929/250 793/928/250
f 807/917/251 802/916/251 808/929/251
f 802/916/252 792/969/252 808/929/252
f 805/914/253 806/970/253 795/934/253
f 805/914/254 803/913/254 806/970/254
f 803/913/255 790/971/255 806/970/255
f 802/911/256 804/926/256 792/925/256
f 802/911/257 803/910/257 804/926/257
f 803/910/258 791/912/258 804/926/258
