# Blender 4.4.1
# www.blender.org
mtllib LightTower.mtl
o 円柱.003
v 0.000000 8.877056 1.715594
v -0.000000 10.658518 0.000000
v -1.213108 8.877056 1.213108
v -1.715594 8.877056 0.000000
v -1.213108 8.877056 -1.213108
v -0.000000 8.877056 -1.715594
v 1.213108 8.877056 -1.213108
v 1.715594 8.877056 -0.000000
v 1.213108 8.877056 1.213108
v 0.000000 8.589396 1.715594
v -1.213108 8.589396 1.213108
v -1.715594 8.589396 0.000000
v -1.213108 8.589396 -1.213108
v -0.000000 8.589396 -1.715594
v 1.213108 8.589396 -1.213108
v 1.715594 8.589396 -0.000000
v 1.213108 8.589396 1.213108
v 0.000000 6.800013 1.269336
v 0.000000 8.800013 1.269336
v -0.897556 6.800013 0.897556
v -0.897556 8.800013 0.897556
v -1.269336 6.800013 0.000000
v -1.269336 8.800013 0.000000
v -0.897556 6.800013 -0.897556
v -0.897556 8.800013 -0.897556
v -0.000000 6.800013 -1.269336
v -0.000000 8.800013 -1.269336
v 0.897556 6.800013 -0.897556
v 0.897556 8.800013 -0.897556
v 1.269336 6.800013 -0.000000
v 1.269336 8.800013 -0.000000
v 0.897556 6.800013 0.897556
v 0.897556 8.800013 0.897556
v 0.056224 6.737477 1.822878
v 0.056224 7.702291 1.822878
v 0.056224 6.737477 1.928868
v 0.056224 7.702291 1.928868
v -0.049765 6.737477 1.822878
v -0.049765 7.702291 1.822878
v -0.049765 6.737477 1.928868
v -0.049765 7.702291 1.928868
v 0.000000 6.546286 1.996381
v 0.000000 6.948939 1.996381
v -1.411654 6.546286 1.411654
v -1.411654 6.948939 1.411654
v -1.996381 6.546286 0.000000
v -1.996381 6.948939 0.000000
v -1.411654 6.546286 -1.411654
v -1.411654 6.948939 -1.411654
v -0.000000 6.546286 -1.996381
v -0.000000 6.948939 -1.996381
v 1.411654 6.546286 -1.411654
v 1.411654 6.948939 -1.411654
v 1.996381 6.546286 0.000000
v 1.996381 6.948939 0.000000
v 1.411654 6.546286 1.411654
v 1.411654 6.948939 1.411654
v 0.000000 -0.161522 1.819499
v 0.000000 0.161522 1.819499
v -1.534128 -0.161522 1.806960
v -1.534128 0.161522 1.806960
v -2.169585 -0.161522 0.000000
v -2.169585 0.161522 0.000000
v -1.534128 -0.161522 -1.534128
v -1.534128 0.161522 -1.534128
v -0.000000 -0.161522 -2.169585
v -0.000000 0.161522 -2.169585
v 1.534128 -0.161522 -1.534128
v 1.534128 0.161522 -1.534128
v 2.169585 -0.161522 0.000000
v 2.169585 0.161522 0.000000
v 1.534128 -0.161522 1.806960
v 1.534128 0.161522 1.806960
v -1.314874 3.057630 1.663597
v 0.000000 3.057630 1.665218
v -1.859513 3.057630 0.000000
v -1.314875 3.057630 -1.314874
v -0.000000 3.057630 -1.859513
v 1.314874 3.057630 -1.314874
v 1.859513 3.057630 0.000000
v 1.314875 3.057630 1.663597
v -1.131680 4.879574 1.131680
v 0.000000 4.879574 1.600437
v -1.600437 4.879574 0.000000
v -1.131680 4.879574 -1.131680
v -0.000000 4.879574 -1.600437
v 1.131680 4.879574 -1.131680
v 1.600437 4.879574 0.000000
v 1.131680 4.879574 1.131680
v -1.037455 6.700027 1.037455
v 0.000000 6.700027 1.467183
v -1.467183 6.700027 0.000000
v -1.037455 6.700027 -1.037455
v -0.000000 6.700027 -1.467183
v 1.037455 6.700027 -1.037455
v 1.467183 6.700027 0.000000
v 1.037455 6.700027 1.037455
v -1.844612 6.737477 -0.052995
v -1.844612 7.702291 -0.052995
v -1.844612 6.737477 0.052995
v -1.844612 7.702291 0.052995
v -1.950601 6.737477 -0.052995
v -1.950601 7.702291 -0.052995
v -1.950601 6.737477 0.052995
v -1.950601 7.702291 0.052995
v 1.966701 6.737477 -0.052995
v 1.966701 7.702291 -0.052995
v 1.966701 6.737477 0.052995
v 1.966701 7.702291 0.052995
v 1.860711 6.737477 -0.052995
v 1.860711 7.702291 -0.052995
v 1.860711 6.737477 0.052995
v 1.860711 7.702291 0.052995
v -1.294493 6.737477 1.288628
v -1.294493 7.702291 1.288628
v -1.294493 6.737477 1.394618
v -1.294493 7.702291 1.394618
v -1.400483 6.737477 1.288628
v -1.400483 7.702291 1.288628
v -1.400483 6.737477 1.394618
v -1.400483 7.702291 1.394618
v 1.416437 6.737477 1.288628
v 1.416437 7.702291 1.288628
v 1.416437 6.737477 1.394617
v 1.416437 7.702291 1.394617
v 1.310448 6.737477 1.288628
v 1.310448 7.702291 1.288628
v 1.310448 6.737477 1.394617
v 1.310448 7.702291 1.394617
v -1.277536 6.737477 -1.410070
v -1.277536 7.702291 -1.410070
v -1.277536 6.737477 -1.304081
v -1.277536 7.702291 -1.304081
v -1.383526 6.737477 -1.410070
v -1.383526 7.702291 -1.410070
v -1.383526 6.737477 -1.304081
v -1.383526 7.702291 -1.304081
v 1.369204 6.737477 -1.410071
v 1.369204 7.702291 -1.410071
v 1.369204 6.737477 -1.304081
v 1.369204 7.702291 -1.304081
v 1.263214 6.737477 -1.410071
v 1.263214 7.702291 -1.410071
v 1.263214 6.737477 -1.304081
v 1.263214 7.702291 -1.304081
v 0.056224 6.737477 -1.943520
v 0.056224 7.702291 -1.943520
v 0.056224 6.737477 -1.837531
v 0.056224 7.702291 -1.837531
v -0.049766 6.737477 -1.943520
v -0.049766 7.702291 -1.943520
v -0.049766 6.737477 -1.837531
v -0.049766 7.702291 -1.837531
v 0.000000 6.924201 1.429632
v 0.000000 7.675715 1.429632
v -1.010902 6.924201 1.010903
v -1.010902 7.675715 1.010903
v -1.429632 6.924201 0.000000
v -1.429632 7.675715 0.000000
v -1.010903 6.924201 -1.010902
v -1.010903 7.675715 -1.010902
v -0.000000 6.924201 -1.429632
v -0.000000 7.675715 -1.429632
v 1.010902 6.924201 -1.010903
v 1.010902 7.675715 -1.010903
v 1.429632 6.924201 -0.000000
v 1.429632 7.675715 -0.000000
v 1.010903 6.924201 1.010902
v 1.010903 7.675715 1.010902
v 0.000000 2.206657 2.009137
v 0.000000 2.206657 1.838660
v -0.315801 2.075848 2.009137
v -0.315801 2.075848 1.838660
v -0.446610 1.760046 2.009137
v -0.446610 1.760046 1.838660
v -0.315801 1.444245 2.009137
v -0.315801 1.444245 1.838660
v 0.000000 1.313436 2.009137
v 0.000000 1.313436 1.838660
v 0.315801 1.444245 2.009137
v 0.315801 1.444245 1.838660
v 0.446610 1.760046 2.009137
v 0.446610 1.760046 1.838660
v 0.315801 2.075848 2.009137
v 0.315801 2.075848 1.838660
v 0.000000 2.302341 2.027399
v -0.383460 2.143507 2.027399
v -0.383460 2.143507 1.820398
v 0.000000 2.302341 1.820398
v -0.542294 1.760046 2.027399
v -0.542294 1.760046 1.820398
v -0.383460 1.376586 2.027399
v -0.383460 1.376586 1.820398
v 0.000000 1.217752 2.027399
v 0.000000 1.217752 1.820398
v 0.383460 1.376586 2.027399
v 0.383460 1.376586 1.820398
v 0.542294 1.760046 2.027399
v 0.542294 1.760046 1.820398
v 0.383460 2.143507 2.027399
v 0.383460 2.143507 1.820398
v 0.000000 2.206657 1.950577
v -0.315801 2.075848 1.950577
v -0.446610 1.760046 1.950577
v -0.315801 1.444245 1.950577
v 0.000000 1.313436 1.950577
v 0.315801 1.444245 1.950577
v 0.446610 1.760046 1.950577
v 0.315801 2.075848 1.950577
v 1.019729 2.411614 1.636536
v 1.019729 2.636314 1.636536
v 1.019729 2.411614 1.957228
v 1.019729 2.636314 1.957228
v -0.980271 2.411614 1.636536
v -0.980271 2.636314 1.636536
v -0.980271 2.411614 1.957229
v -0.980271 2.636314 1.957229
v -0.813408 -0.279966 1.682204
v -0.813408 2.481225 1.682204
v -0.813408 -0.279966 1.940653
v -0.813408 2.481225 1.940653
v -0.989074 -0.279966 1.682204
v -0.989074 2.481225 1.682204
v -0.989074 -0.279966 1.940653
v -0.989074 2.481225 1.940653
v 1.013578 -0.279966 1.682204
v 1.013578 2.481225 1.682204
v 1.013578 -0.279966 1.940652
v 1.013578 2.481225 1.940652
v 0.837912 -0.279966 1.682204
v 0.837912 2.481225 1.682204
v 0.837912 -0.279966 1.940652
v 0.837912 2.481225 1.940652
v 0.836032 -0.294548 1.672498
v 0.836032 2.431847 1.672498
v 0.836032 -0.294548 1.883470
v 0.836032 2.431847 1.883470
v -0.796573 -0.294548 1.672498
v -0.796573 2.431847 1.672498
v -0.796573 -0.294548 1.883470
v -0.796573 2.431847 1.883470
v 2.598884 2.970319 -0.238900
v 2.598884 3.448119 -0.238900
v 2.598884 2.970319 0.238900
v 2.598884 3.448119 0.238900
v 1.454024 2.970319 -0.238900
v 1.454024 3.448119 -0.238900
v 1.454024 2.970319 0.238900
v 1.454024 3.448119 0.238900
v 2.534930 0.493818 -0.219584
v 2.534930 3.324529 -0.219584
v 2.534930 0.493818 0.219584
v 2.534930 3.324529 0.219584
v 2.089748 0.493818 -0.219584
v 2.089748 3.324529 -0.219584
v 2.089748 0.493818 0.219584
v 2.089748 3.324529 0.219584
v 2.551716 0.280183 -2.617737
v 2.551716 0.772904 -2.617737
v 2.551717 0.280183 0.204333
v 2.551717 0.772904 0.204333
v 2.072961 0.280183 -2.617737
v 2.072961 0.772904 -2.617737
v 2.072961 0.280183 0.204333
v 2.072961 0.772904 0.204333
v 2.548372 0.292059 -2.856505
v 2.548372 0.761028 -2.856505
v 2.548372 0.292059 -2.314620
v 2.548372 0.761028 -2.314619
v -0.850188 0.292059 -2.856505
v -0.850188 0.761028 -2.856505
v -0.850188 0.292059 -2.314620
v -0.850188 0.761028 -2.314619
v -0.332520 0.307950 -2.689668
v -0.332520 0.745136 -2.689668
v -0.332520 0.307950 -1.227363
v -0.332520 0.745136 -1.227363
v -0.845882 0.307950 -2.689668
v -0.845882 0.745136 -2.689668
v -0.845881 0.307950 -1.227363
v -0.845881 0.745136 -1.227363
v -0.172415 3.026071 1.598767
v -0.172415 3.026071 1.739287
v -0.378648 2.891528 1.598767
v -0.378648 2.891528 1.739287
v -0.551937 2.983182 1.598767
v -0.551937 2.983182 1.739287
v -0.559686 3.229976 1.598767
v -0.559686 3.229976 1.739287
v -0.684710 3.380969 1.598767
v -0.684710 3.380969 1.739287
v -0.922201 3.430357 1.598767
v -0.922201 3.430357 1.739287
v -0.979925 3.617701 1.598767
v -0.979925 3.617701 1.739287
v -0.809733 3.790973 1.598767
v -0.809733 3.790973 1.739287
v -0.791370 3.986145 1.598767
v -0.791370 3.986145 1.739287
v -0.925540 4.195717 1.598767
v -0.925540 4.195717 1.739287
v -0.833886 4.369005 1.598767
v -0.833886 4.369005 1.739287
v -0.589740 4.374859 1.598767
v -0.589740 4.374859 1.739287
v -0.438748 4.499882 1.598767
v -0.438748 4.499882 1.739287
v -0.386711 4.739270 1.598767
v -0.386711 4.739270 1.739287
v -0.199367 4.796993 1.598767
v -0.199367 4.796993 1.739287
v -0.022538 4.627742 1.598767
v -0.022538 4.627742 1.739287
v 0.172634 4.609379 1.598767
v 0.172634 4.609379 1.739287
v 0.378648 4.742609 1.598767
v 0.378648 4.742609 1.739287
v 0.551937 4.650955 1.598767
v 0.551937 4.650955 1.739287
v 0.557453 4.405570 1.598767
v 0.557454 4.405570 1.739287
v 0.682476 4.254577 1.598767
v 0.682476 4.254577 1.739287
v 0.922201 4.203779 1.598767
v 0.922202 4.203779 1.739287
v 0.979925 4.016436 1.598767
v 0.979925 4.016436 1.739287
v 0.809783 3.838816 1.598767
v 0.809783 3.838816 1.739287
v 0.791420 3.643643 1.598767
v 0.791420 3.643643 1.739287
v 0.925540 3.438420 1.598767
v 0.925540 3.438420 1.739287
v 0.833886 3.265131 1.598767
v 0.833887 3.265131 1.739287
v 0.585670 3.260781 1.598767
v 0.585670 3.260781 1.739287
v 0.434677 3.135757 1.598767
v 0.434677 3.135757 1.739287
v 0.386711 2.894867 1.598767
v 0.386711 2.894867 1.739287
v 0.199368 2.837143 1.598767
v 0.199368 2.837143 1.739287
v 0.022757 3.007708 1.598767
v 0.022757 3.007708 1.739287
v 0.264897 3.549950 1.739287
v 0.145596 3.469861 1.739287
v 0.210535 3.504938 1.739287
v 0.001643 3.440574 1.739287
v -0.142560 3.468604 1.739287
v -0.071839 3.447488 1.739287
v 0.075062 3.448129 1.739287
v 0.313957 3.609265 1.739287
v 0.348465 3.674508 1.739287
v -0.207804 3.503112 1.739287
v 0.267384 3.552008 1.739287
v 0.369581 3.745229 1.739287
v 0.376495 3.818711 1.739287
v -0.265060 3.549685 1.739287
v 0.368940 3.892130 1.739287
v 0.347207 3.962664 1.739287
v -0.312131 3.606534 1.739287
v 0.312131 4.027603 1.739287
v 0.207804 4.131025 1.739287
v 0.142561 4.165533 1.739287
v 0.265060 4.084452 1.739287
v 0.071839 4.186649 1.739287
v -0.145596 4.164276 1.739287
v -0.075062 4.186008 1.739287
v -0.001642 4.193563 1.739287
v -0.267384 4.082129 1.739287
v -0.347207 3.671473 1.739287
v -0.369581 3.888907 1.739287
v -0.348464 3.959629 1.739287
v -0.376495 3.815426 1.739287
v -0.368940 3.742006 1.739287
v -0.210535 4.129199 1.739287
v -0.313956 4.024872 1.739287
v 0.348465 3.674508 1.598767
v 0.267384 3.552008 1.598767
v 0.313957 3.609265 1.598767
v 0.145596 3.469861 1.598767
v 0.001643 3.440574 1.598767
v 0.075062 3.448129 1.598767
v 0.210535 3.504938 1.598767
v -0.142560 3.468604 1.598767
v -0.265060 3.549685 1.598767
v -0.207804 3.503112 1.598767
v -0.368940 3.742006 1.598767
v -0.347207 3.671473 1.598767
v -0.369581 3.888907 1.598767
v -0.376495 3.815426 1.598767
v -0.312131 3.606534 1.598767
v -0.071839 3.447488 1.598767
v 0.376495 3.818711 1.598767
v 0.369581 3.745229 1.598767
v 0.368940 3.892130 1.598767
v 0.312131 4.027603 1.598767
v 0.347207 3.962664 1.598767
v 0.207804 4.131025 1.598767
v 0.071839 4.186649 1.598767
v 0.142561 4.165533 1.598767
v 0.265060 4.084452 1.598767
v -0.075062 4.186008 1.598767
v -0.210535 4.129199 1.598767
v -0.145596 4.164276 1.598767
v -0.313956 4.024872 1.598767
v -0.348464 3.959629 1.598767
v -0.267384 4.082129 1.598767
v -0.001642 4.193563 1.598767
v -2.091293 1.929085 -0.111188
v -1.321145 1.929085 -0.111188
v -2.091293 1.529212 0.301164
v -1.321145 1.529212 0.301164
v -2.091293 1.661953 0.738759
v -1.321144 1.661953 0.738758
v -2.091293 2.223618 0.866351
v -1.321144 2.223618 0.866351
v -2.091293 2.513717 1.219839
v -1.321144 2.513717 1.219838
v -2.091293 2.521102 1.785635
v -1.321144 2.521102 1.785635
v -2.091293 2.924392 2.001197
v -1.321144 2.924392 2.001197
v -2.091293 3.396906 1.688611
v -1.321144 3.396906 1.688611
v -2.091293 3.851988 1.733434
v -1.321144 3.851988 1.733434
v -2.091293 4.272151 2.133938
v -1.321144 4.272151 2.133938
v -2.091293 4.709745 2.001197
v -1.321144 4.709745 2.001197
v -2.091293 4.831819 1.444751
v -1.321144 4.831819 1.444751
v -2.091293 5.185303 1.154654
v -1.321144 5.185303 1.154654
v -2.091293 5.756620 1.142048
v -1.321144 5.756620 1.142048
v -2.091293 5.972183 0.738759
v -1.321144 5.972183 0.738758
v -2.091293 5.663335 0.258518
v -1.321145 5.663335 0.258518
v -2.091293 5.708157 -0.196564
v -1.321145 5.708157 -0.196564
v -2.091293 6.104925 -0.609000
v -1.321145 6.104925 -0.609000
v -2.091293 5.972183 -1.046595
v -1.321145 5.972183 -1.046595
v -2.091293 5.412751 -1.168447
v -1.321145 5.412751 -1.168447
v -2.091294 5.122653 -1.521931
v -1.321145 5.122653 -1.521932
v -2.091294 5.113035 -2.093471
v -1.321145 5.113035 -2.093471
v -2.091294 4.709745 -2.309033
v -1.321145 4.709745 -2.309033
v -2.091294 4.227298 -1.998495
v -1.321145 4.227298 -1.998495
v -2.091294 3.772213 -2.043318
v -1.321145 3.772213 -2.043318
v -2.091294 3.361986 -2.441774
v -1.321145 3.361986 -2.441775
v -2.091294 2.924392 -2.309033
v -1.321145 2.924392 -2.309033
v -2.091294 2.803948 -1.742598
v -1.321145 2.803948 -1.742598
v -2.091294 2.450462 -1.452499
v -1.321145 2.450462 -1.452499
v -2.091294 1.877516 -1.449884
v -1.321145 1.877516 -1.449885
v -2.091293 1.661953 -1.046595
v -1.321145 1.661953 -1.046595
v -2.091293 1.973907 -0.566270
v -1.321145 1.973907 -0.566270
v -1.321145 3.323319 -0.879379
v -1.321145 3.086830 -0.641847
v -1.321145 3.196054 -0.774933
v -1.321145 2.955694 -0.325256
v -1.321145 2.955694 0.017419
v -1.321145 2.938820 -0.153918
v -1.321145 3.005672 -0.490010
v -1.321145 3.480976 -0.965315
v -1.321145 3.645730 -1.015292
v -1.321145 3.005672 0.182174
v -1.321145 3.329140 -0.884156
v -1.321145 3.817069 -1.032167
v -1.321145 3.988406 -1.015292
v -1.321145 3.086830 0.334011
v -1.321145 4.153161 -0.965315
v -1.321145 4.304997 -0.884156
v -1.321145 3.196054 0.467097
v -1.321145 4.438084 -0.774933
v -1.321145 4.628465 -0.490010
v -1.321145 4.678443 -0.325256
v -1.321145 4.547307 -0.641847
v -1.321145 4.695317 -0.153918
v -1.321145 4.547307 0.334011
v -1.321145 4.628465 0.182174
v -1.321145 4.678443 0.017419
v -1.321145 4.304997 0.576320
v -1.321145 3.329140 0.576320
v -1.321144 3.817069 0.724331
v -1.321144 3.988406 0.707456
v -1.321144 3.645730 0.707456
v -1.321145 3.480976 0.657479
v -1.321145 4.438084 0.467097
v -1.321145 4.153161 0.657479
v -2.091293 3.645730 -1.015292
v -2.091293 3.329140 -0.884156
v -2.091293 3.480976 -0.965315
v -2.091293 3.086830 -0.641847
v -2.091293 2.955694 -0.325256
v -2.091293 3.005672 -0.490010
v -2.091293 3.196054 -0.774933
v -2.091293 2.955694 0.017420
v -2.091293 3.086830 0.334011
v -2.091293 3.005672 0.182174
v -2.091293 3.480976 0.657479
v -2.091293 3.329140 0.576320
v -2.091293 3.817069 0.724331
v -2.091293 3.645730 0.707456
v -2.091293 3.196054 0.467097
v -2.091293 2.938820 -0.153918
v -2.091293 3.988406 -1.015292
v -2.091293 3.817069 -1.032167
v -2.091293 4.153161 -0.965315
v -2.091293 4.438084 -0.774933
v -2.091293 4.304997 -0.884156
v -2.091293 4.628465 -0.490010
v -2.091293 4.695317 -0.153918
v -2.091293 4.678443 -0.325256
v -2.091293 4.547307 -0.641847
v -2.091293 4.628465 0.182174
v -2.091293 4.438084 0.467097
v -2.091293 4.547307 0.334011
v -2.091293 4.153161 0.657479
v -2.091293 3.988406 0.707456
v -2.091293 4.304997 0.576320
v -2.091293 4.678443 0.017420
vn -0.2859 0.6647 0.6902
vn -0.6902 0.6647 0.2859
vn -0.6902 0.6647 -0.2859
vn -0.2859 0.6647 -0.6902
vn 0.2859 0.6647 -0.6902
vn 0.6902 0.6647 -0.2859
vn 0.6902 0.6647 0.2859
vn 0.2859 0.6647 0.6902
vn 0.9239 -0.0000 -0.3827
vn -0.0000 -1.0000 -0.0000
vn -0.3827 -0.0000 -0.9239
vn -0.9239 -0.0000 0.3827
vn -0.3827 -0.0000 0.9239
vn 0.9239 -0.0000 0.3827
vn 0.3827 -0.0000 -0.9239
vn -0.9239 -0.0000 -0.3827
vn 0.3827 -0.0000 0.9239
vn -0.0000 1.0000 -0.0000
vn 1.0000 -0.0000 -0.0000
vn -0.0000 -0.0000 1.0000
vn -1.0000 -0.0000 -0.0000
vn -0.0000 -0.0000 -1.0000
vn -0.0082 -0.0000 1.0000
vn -0.9434 -0.0000 0.3318
vn -0.9386 0.1005 0.3301
vn 0.9434 -0.0000 0.3318
vn 0.0082 -0.0000 1.0000
vn -0.3794 0.1303 -0.9160
vn 0.3808 0.0984 -0.9194
vn 0.0012 0.0532 0.9986
vn -0.0082 0.0501 0.9987
vn -0.9194 0.0984 -0.3808
vn 0.9194 0.0984 -0.3808
vn -0.3808 0.0984 -0.9194
vn 0.9468 0.0870 0.3100
vn -0.9218 0.0675 -0.3818
vn -0.9160 0.1303 0.3794
vn 0.9343 0.1832 0.3059
vn 0.3794 0.1303 -0.9160
vn -0.9160 0.1303 -0.3794
vn -0.0012 0.2804 0.9599
vn 0.3825 0.0328 0.9234
vn 0.9160 0.1303 -0.3794
vn -0.3818 0.0675 0.9218
vn 0.3818 0.0675 0.9218
vn 0.9218 0.0675 -0.3818
vn -0.3818 0.0675 -0.9218
vn -0.9218 0.0675 0.3818
vn 0.9218 0.0675 0.3818
vn 0.3818 0.0675 -0.9218
vn -0.1869 0.0774 0.9793
vn 0.0774 -0.1869 -0.9793
vn -0.0774 -0.1869 -0.9793
vn 0.1869 0.0774 -0.9793
vn 0.0774 -0.1869 0.9793
vn -0.0774 -0.1869 0.9793
vn 0.1869 0.0774 0.9793
vn -0.0774 0.1869 -0.9793
vn 0.9239 -0.3827 -0.0000
vn -0.3827 0.9239 -0.0000
vn -0.9239 0.3827 -0.0000
vn -0.9239 -0.3827 -0.0000
vn -0.3827 -0.9239 -0.0000
vn 0.3827 -0.9239 -0.0000
vn 0.9239 0.3827 -0.0000
vn 0.3827 0.9239 -0.0000
vn -0.1869 0.0774 -0.9793
vn 0.0774 0.1869 0.9793
vn 0.0774 0.1869 -0.9793
vn 0.1869 -0.0774 0.9793
vn -0.1869 -0.0774 0.9793
vn 0.1869 -0.0774 -0.9793
vn -0.1869 -0.0774 -0.9793
vn -0.0774 0.1869 0.9793
vn 0.5464 -0.8375 -0.0000
vn -0.4675 -0.8840 -0.0000
vn -0.9995 -0.0314 -0.0000
vn -0.7702 -0.6378 -0.0000
vn -0.2036 -0.9791 -0.0000
vn -0.9557 -0.2945 -0.0000
vn -0.7134 0.7007 -0.0000
vn -0.9956 0.0937 -0.0000
vn -0.8422 -0.5392 -0.0000
vn -0.8840 0.4675 -0.0000
vn -0.0240 0.9997 -0.0000
vn -0.6378 0.7702 -0.0000
vn -0.9772 0.2124 -0.0000
vn -0.2945 0.9557 -0.0000
vn 0.6915 0.7224 -0.0000
vn 0.0937 0.9956 -0.0000
vn -0.5430 0.8397 -0.0000
vn 0.4675 0.8840 -0.0000
vn 0.9997 0.0225 -0.0000
vn 0.7702 0.6378 -0.0000
vn 0.2073 0.9783 -0.0000
vn 0.9557 0.2945 -0.0000
vn 0.7221 -0.6917 -0.0000
vn 0.9956 -0.0937 -0.0000
vn 0.8371 0.5471 -0.0000
vn 0.8840 -0.4675 -0.0000
vn 0.0175 -0.9998 -0.0000
vn 0.6378 -0.7702 -0.0000
vn 0.9807 -0.1953 -0.0000
vn 0.2945 -0.9557 -0.0000
vn -0.6947 -0.7193 -0.0000
vn -0.0937 -0.9956 -0.0000
vn 0.2861 0.9582 -0.0000
vn 0.6310 0.7758 -0.0000
vn 0.8799 0.4752 -0.0000
vn 0.9947 0.1024 -0.0000
vn 0.9582 -0.2861 -0.0000
vn 0.7758 -0.6310 -0.0000
vn 0.4753 -0.8798 -0.0000
vn 0.4753 -0.8799 -0.0000
vn 0.1024 -0.9947 -0.0000
vn -0.2861 -0.9582 -0.0000
vn -0.4676 -0.8840 -0.0000
vn -0.6310 -0.7758 -0.0000
vn -0.8799 -0.4752 -0.0000
vn -0.9947 -0.1024 -0.0000
vn -0.9582 0.2861 -0.0000
vn -0.7758 0.6310 -0.0000
vn -0.6377 0.7703 -0.0000
vn -0.6377 0.7702 -0.0000
vn -0.4753 0.8798 -0.0000
vn -0.1024 0.9947 -0.0000
vn -0.0000 -0.7179 -0.6962
vn -0.0000 -0.9569 0.2903
vn -0.0000 -0.2215 0.9752
vn -0.0000 -0.7730 0.6344
vn -0.0000 -0.9999 0.0131
vn -0.0000 -0.4714 0.8819
vn -0.0000 0.5517 0.8340
vn -0.0000 -0.0980 0.9952
vn -0.0000 -0.6900 0.7238
vn -0.0000 0.2903 0.9569
vn -0.0000 0.9768 0.2143
vn -0.0000 0.6344 0.7730
vn -0.0000 0.0221 0.9998
vn -0.0000 0.8819 0.4714
vn -0.0000 0.8411 -0.5409
vn -0.0000 0.9952 0.0980
vn -0.0000 0.7207 0.6933
vn -0.0000 0.9569 -0.2903
vn -0.0000 0.2128 -0.9771
vn -0.0000 0.7730 -0.6344
vn -0.0000 0.9999 -0.0168
vn -0.0000 0.4714 -0.8819
vn -0.0000 -0.5412 -0.8409
vn -0.0000 0.0980 -0.9952
vn -0.0000 0.6967 -0.7173
vn -0.0000 -0.2903 -0.9569
vn -0.0000 -0.9781 -0.2080
vn -0.0000 -0.6344 -0.7730
vn -0.0000 -0.0046 -1.0000
vn -0.0000 -0.8819 -0.4714
vn -0.0000 -0.8386 0.5447
vn -0.0000 -0.9952 -0.0980
vn -0.0000 0.9952 -0.0980
vn -0.0000 0.8819 -0.4714
vn -0.0000 0.6344 -0.7730
vn -0.0000 0.2903 -0.9569
vn -0.0000 -0.0980 -0.9952
vn -0.0000 -0.4714 -0.8819
vn -0.0000 -0.7730 -0.6344
vn -0.0000 -0.9569 -0.2903
vn -0.0000 -0.9952 0.0980
vn -0.0000 -0.8819 0.4714
vn -0.0000 -0.6344 0.7730
vn -0.0000 -0.2903 0.9569
vn -0.0000 0.0980 0.9952
vn -0.0000 0.4714 0.8819
vn -0.0000 0.7730 0.6344
vn -0.0000 0.9569 0.2903
vn -0.9468 0.0870 0.3100
vn 0.0082 0.0501 0.9987
vn -0.0012 0.0532 0.9986
vn 0.9386 0.1005 0.3301
vn -0.9343 0.1832 0.3059
vn 0.9160 0.1303 0.3794
vn -0.3825 0.0328 0.9234
vn 0.0012 0.2804 0.9599
vn 0.4752 -0.8799 -0.0000
vt 0.492236 0.010508
vt 0.718495 0.067074
vt 0.492236 0.067074
vt 0.718495 0.123638
vt 0.492236 0.123638
vt 0.718495 0.180203
vt 0.492236 0.180203
vt 0.718495 0.236768
vt 0.492236 0.236768
vt 0.718495 0.293333
vt 0.492236 0.293333
vt 0.718495 0.349898
vt 0.492236 0.349898
vt 0.718495 0.406463
vt 0.492236 0.406463
vt 0.718495 0.463029
vt 0.492236 0.463029
vt 0.691601 0.873990
vt 0.753814 0.899760
vt 0.779584 0.837546
vt 0.670585 0.484044
vt 0.492237 0.528632
vt 0.492236 0.484044
vt 0.670585 0.528632
vt 0.492237 0.573219
vt 0.670585 0.573219
vt 0.492237 0.617806
vt 0.670585 0.617806
vt 0.492237 0.662393
vt 0.670585 0.662393
vt 0.492237 0.706980
vt 0.670585 0.706980
vt 0.492237 0.751567
vt 0.903693 0.857807
vt 0.922760 0.811776
vt 0.968790 0.830843
vt 0.670585 0.751567
vt 0.492237 0.796154
vt 0.670585 0.796154
vt 0.492236 0.840742
vt 0.337188 0.916393
vt 0.356254 0.962424
vt 0.402285 0.943358
vt 0.525815 0.861758
vt 0.509026 0.878548
vt 0.509026 0.861758
vt 0.525815 0.878548
vt 0.509026 0.895337
vt 0.525815 0.895337
vt 0.509026 0.912127
vt 0.525815 0.912127
vt 0.509026 0.928917
vt 0.492236 0.912127
vt 0.492236 0.895337
vt 0.542605 0.912127
vt 0.839870 0.010508
vt 0.739511 0.035598
vt 0.739511 0.010508
vt 0.839870 0.035598
vt 0.739511 0.060687
vt 0.839870 0.060687
vt 0.739511 0.085777
vt 0.839870 0.085777
vt 0.739511 0.110866
vt 0.839870 0.110866
vt 0.739511 0.135956
vt 0.839870 0.135956
vt 0.739511 0.161045
vt 0.367175 0.773928
vt 0.439570 0.803915
vt 0.409583 0.876311
vt 0.839870 0.161045
vt 0.739511 0.186135
vt 0.839870 0.186135
vt 0.739511 0.211225
vt 0.811907 0.356478
vt 0.739511 0.386465
vt 0.769499 0.458861
vt 0.229777 0.255283
vt 0.230416 0.254730
vt 0.230479 0.255021
vt 0.229872 0.254416
vt 0.230644 0.254546
vt 0.230547 0.254052
vt 0.230909 0.254574
vt 0.231124 0.254219
vt 0.231108 0.254751
vt 0.231701 0.254539
vt 0.231055 0.254989
vt 0.231522 0.255236
vt 0.230785 0.255158
vt 0.471220 0.174927
vt 0.230977 0.255563
vt 0.230619 0.255212
vt 0.230413 0.255774
vt 0.232686 0.842054
vt 0.158701 0.683876
vt 0.158548 0.683359
vt 0.337901 0.481460
vt 0.159229 0.499848
vt 0.010508 0.133618
vt 0.125418 0.033067
vt 0.275866 0.010508
vt 0.467975 0.356692
vt 0.010508 0.393030
vt 0.770993 0.781723
vt 0.837671 0.632755
vt 0.897330 0.790760
vt 0.010508 0.773761
vt 0.157652 0.684358
vt 0.158210 0.684190
vt 0.316172 0.628499
vt 0.157136 0.683101
vt 0.188966 0.520864
vt 0.158282 0.682904
vt 0.315969 0.749645
vt 0.109739 0.845564
vt 0.085502 0.529402
vt 0.010508 0.603316
vt 0.157322 0.683763
vt 0.157716 0.682762
vt 0.835649 0.632071
vt 0.837392 0.631917
vt 0.837765 0.633717
vt 0.691601 0.570603
vt 0.837050 0.634601
vt 0.691601 0.690536
vt 0.777467 0.484357
vt 0.835858 0.634186
vt 0.989492 0.572496
vt 0.900896 0.484044
vt 0.989295 0.699786
vt 0.835323 0.633135
vt 0.836521 0.631606
vt 0.754673 0.247312
vt 0.791186 0.232241
vt 0.837340 0.283908
vt 0.800600 0.835816
vt 0.858638 0.811776
vt 0.882677 0.869814
vt 0.597201 0.861758
vt 0.580411 0.878547
vt 0.580411 0.861758
vt 0.597201 0.878547
vt 0.580411 0.895337
vt 0.597201 0.895337
vt 0.580411 0.912127
vt 0.597201 0.912127
vt 0.580411 0.928917
vt 0.563621 0.895337
vt 0.563621 0.912127
vt 0.613990 0.895337
vt 0.258243 0.866580
vt 0.241453 0.883370
vt 0.241453 0.866580
vt 0.258243 0.883370
vt 0.241453 0.900159
vt 0.258243 0.900159
vt 0.241453 0.916949
vt 0.258243 0.916949
vt 0.241453 0.933739
vt 0.224663 0.900159
vt 0.224663 0.916949
vt 0.275032 0.900159
vt 0.894465 0.104842
vt 0.877675 0.121632
vt 0.877675 0.104842
vt 0.894465 0.121632
vt 0.877675 0.138421
vt 0.894465 0.138421
vt 0.877675 0.155211
vt 0.894465 0.155211
vt 0.877675 0.172001
vt 0.860886 0.155211
vt 0.860886 0.138421
vt 0.911255 0.138421
vt 0.896490 0.356478
vt 0.879700 0.373268
vt 0.879700 0.356478
vt 0.896490 0.373268
vt 0.879700 0.390057
vt 0.896490 0.390057
vt 0.879700 0.406847
vt 0.896490 0.406847
vt 0.879700 0.423637
vt 0.862910 0.406847
vt 0.862910 0.390057
vt 0.913279 0.390057
vt 0.044087 0.866580
vt 0.027298 0.883370
vt 0.027298 0.866580
vt 0.044087 0.883370
vt 0.027298 0.900159
vt 0.044087 0.900159
vt 0.027298 0.916949
vt 0.044087 0.916949
vt 0.027298 0.933739
vt 0.010508 0.916949
vt 0.010508 0.900159
vt 0.060877 0.900159
vt 0.115472 0.866580
vt 0.098683 0.883370
vt 0.098683 0.866580
vt 0.115472 0.883370
vt 0.098683 0.900159
vt 0.115472 0.900159
vt 0.098683 0.916949
vt 0.115472 0.916949
vt 0.098683 0.933739
vt 0.081893 0.916949
vt 0.081893 0.900159
vt 0.132262 0.900159
vt 0.186857 0.866580
vt 0.170068 0.883370
vt 0.170068 0.866580
vt 0.186857 0.883370
vt 0.170068 0.900159
vt 0.186857 0.900159
vt 0.170068 0.916949
vt 0.186857 0.916949
vt 0.170068 0.933739
vt 0.153278 0.916949
vt 0.153278 0.900159
vt 0.203647 0.916949
vt 0.453211 0.520864
vt 0.337188 0.549870
vt 0.337188 0.520864
vt 0.453211 0.549870
vt 0.337188 0.578876
vt 0.453211 0.578876
vt 0.337188 0.607882
vt 0.453211 0.607882
vt 0.337188 0.636888
vt 0.453211 0.636888
vt 0.337188 0.665894
vt 0.453211 0.665894
vt 0.337188 0.694900
vt 0.910199 0.232241
vt 0.931674 0.253715
vt 0.858356 0.284084
vt 0.453211 0.694900
vt 0.337188 0.723906
vt 0.453211 0.723906
vt 0.337188 0.752912
vt 0.882360 0.010508
vt 0.860886 0.062352
vt 0.912729 0.083826
vt 0.563494 0.614218
vt 0.653317 0.524395
vt 0.346642 0.090113
vt 0.436465 0.000290
vt 0.563494 0.000290
vt 0.436465 0.306964
vt 0.346642 0.217141
vt 0.436465 0.307544
vt 0.563494 0.307544
vt 0.653317 0.397366
vt 0.653317 0.090113
vt 0.346642 0.524395
vt 0.346642 0.397366
vt 0.653317 0.217141
vt 0.563494 0.306964
vt 0.346063 0.000290
vt 0.000290 0.086733
vt 0.000290 0.000290
vt 0.346063 0.086733
vt 0.000290 0.173176
vt 0.346063 0.259620
vt 0.000290 0.259620
vt 0.346063 0.346063
vt 0.000290 0.346063
vt 0.346063 0.432506
vt 0.000290 0.432506
vt 0.000290 0.518949
vt 0.346063 0.518949
vt 0.000290 0.605393
vt 0.346063 0.605393
vt 0.000290 0.691836
vt 0.436465 0.614218
vt 0.768974 0.461762
vt 0.711435 0.519301
vt 0.711435 0.461762
vt 0.768974 0.519301
vt 0.711435 0.576840
vt 0.768974 0.576840
vt 0.711435 0.634379
vt 0.768974 0.634379
vt 0.711435 0.691918
vt 0.653896 0.576840
vt 0.653896 0.634379
vt 0.826514 0.576840
vt 0.768974 0.231026
vt 0.711435 0.288565
vt 0.711435 0.231026
vt 0.768974 0.288565
vt 0.711435 0.346104
vt 0.768974 0.346104
vt 0.711435 0.403643
vt 0.768974 0.403643
vt 0.711435 0.461182
vt 0.653896 0.403643
vt 0.653896 0.346104
vt 0.826514 0.403643
vt 0.461720 0.614797
vt 0.404181 0.672337
vt 0.404181 0.614797
vt 0.461720 0.672337
vt 0.404181 0.729876
vt 0.461720 0.729876
vt 0.404181 0.787415
vt 0.461720 0.787415
vt 0.404181 0.844954
vt 0.346642 0.787415
vt 0.346642 0.729876
vt 0.519260 0.787415
vt 0.768974 0.000290
vt 0.711435 0.057829
vt 0.711435 0.000290
vt 0.768974 0.057829
vt 0.711435 0.115368
vt 0.768974 0.115368
vt 0.711435 0.172907
vt 0.768974 0.172907
vt 0.711435 0.230446
vt 0.653896 0.172907
vt 0.653896 0.115368
vt 0.826514 0.172907
vt 0.115368 0.692415
vt 0.057829 0.749954
vt 0.057829 0.692415
vt 0.115368 0.749954
vt 0.057829 0.807494
vt 0.115368 0.807494
vt 0.057829 0.865033
vt 0.115368 0.865033
vt 0.057829 0.922572
vt 0.000290 0.807494
vt 0.000290 0.865033
vt 0.172907 0.807494
vt 0.768974 0.692497
vt 0.711435 0.750037
vt 0.711435 0.692497
vt 0.768974 0.750037
vt 0.711435 0.807576
vt 0.768974 0.865115
vt 0.711435 0.865115
vt 0.711435 0.922654
vt 0.653896 0.807576
vt 0.653896 0.865115
vt 0.826514 0.807576
vt 0.768974 0.807576
vt 0.942171 0.000290
vt 0.884632 0.057829
vt 0.884632 0.000290
vt 0.942171 0.057829
vt 0.884632 0.115368
vt 0.942171 0.115368
vt 0.884632 0.172907
vt 0.942171 0.172907
vt 0.884632 0.230446
vt 0.827093 0.172907
vt 0.827093 0.115368
vt 0.999710 0.172907
vt 0.942171 0.461761
vt 0.884632 0.519301
vt 0.884632 0.461761
vt 0.942171 0.519301
vt 0.884632 0.576840
vt 0.942171 0.634379
vt 0.884632 0.634379
vt 0.884632 0.691918
vt 0.827093 0.634379
vt 0.827093 0.576840
vt 0.999710 0.576840
vt 0.942171 0.576840
vt 0.942171 0.231026
vt 0.884632 0.288565
vt 0.884632 0.231026
vt 0.942171 0.288565
vt 0.884632 0.346104
vt 0.942171 0.346104
vt 0.884632 0.403643
vt 0.942171 0.403643
vt 0.884632 0.461182
vt 0.827093 0.346104
vt 0.827093 0.403643
vt 0.999710 0.346104
vt 0.000000 0.000000
vt 0.753814 0.811776
vt 0.717371 0.811776
vt 0.691601 0.837546
vt 0.717371 0.899760
vt 0.779584 0.873990
vt 0.968790 0.857807
vt 0.949724 0.876873
vt 0.922760 0.876873
vt 0.903693 0.830843
vt 0.949724 0.811776
vt 0.670585 0.840742
vt 0.402285 0.916393
vt 0.383218 0.897327
vt 0.356254 0.897327
vt 0.337188 0.943358
vt 0.383218 0.962424
vt 0.525815 0.928917
vt 0.542605 0.895337
vt 0.367175 0.876311
vt 0.337188 0.846323
vt 0.337188 0.803915
vt 0.409583 0.773928
vt 0.439570 0.846323
vt 0.839870 0.211225
vt 0.811907 0.458861
vt 0.841894 0.428874
vt 0.841894 0.386465
vt 0.769498 0.356478
vt 0.739511 0.428874
vt 0.837340 0.247414
vt 0.837250 0.320402
vt 0.791058 0.335462
vt 0.754583 0.320300
vt 0.739511 0.283788
vt 0.824640 0.811776
vt 0.882677 0.835816
vt 0.858638 0.893854
vt 0.824640 0.893854
vt 0.800600 0.869814
vt 0.597201 0.928917
vt 0.613990 0.912127
vt 0.258243 0.933739
vt 0.275032 0.916949
vt 0.894465 0.172001
vt 0.911255 0.155211
vt 0.896490 0.423637
vt 0.913279 0.406847
vt 0.044087 0.933739
vt 0.060877 0.916949
vt 0.115472 0.933739
vt 0.132262 0.916949
vt 0.186857 0.933739
vt 0.203647 0.900159
vt 0.931674 0.284084
vt 0.910199 0.305559
vt 0.879830 0.305559
vt 0.858356 0.253715
vt 0.879830 0.232241
vt 0.453211 0.752912
vt 0.934203 0.062352
vt 0.934203 0.031982
vt 0.912729 0.010508
vt 0.860886 0.031982
vt 0.882360 0.083826
vt 0.346063 0.173176
vt 0.346063 0.691836
vt 0.768974 0.691918
vt 0.826514 0.634379
vt 0.768974 0.461182
vt 0.826514 0.346104
vt 0.461720 0.844954
vt 0.519260 0.729876
vt 0.768974 0.230446
vt 0.826514 0.115368
vt 0.115368 0.922572
vt 0.172907 0.865033
vt 0.768974 0.922654
vt 0.826514 0.865115
vt 0.942171 0.230446
vt 0.999710 0.115368
vt 0.942171 0.691918
vt 0.999710 0.634379
vt 0.942171 0.461182
vt 0.999710 0.403643
s 0
usemtl マテリアル.003
f 1/1/1 2/2/1 3/3/1
f 3/3/2 2/4/2 4/5/2
f 4/5/3 2/6/3 5/7/3
f 5/7/4 2/8/4 6/9/4
f 6/9/5 2/10/5 7/11/5
f 7/11/6 2/12/6 8/13/6
f 8/13/7 2/14/7 9/15/7
f 9/15/8 2/16/8 1/17/8
f 8/13/9 15/11/9 7/11/9
f 13/18/10 15/19/10 17/20/10
f 6/9/11 13/7/11 5/7/11
f 4/5/12 11/3/12 3/3/12
f 3/3/13 10/1/13 1/1/13
f 9/15/14 16/13/14 8/13/14
f 7/11/15 14/9/15 6/9/15
f 5/7/16 12/5/16 4/5/16
f 1/17/17 17/15/17 9/15/17
f 19/21/13 20/22/13 18/23/13
f 21/24/12 22/25/12 20/22/12
f 23/26/16 24/27/16 22/25/16
f 25/28/11 26/29/11 24/27/11
f 27/30/15 28/31/15 26/29/15
f 29/32/9 30/33/9 28/31/9
f 31/34/18 27/35/18 23/36/18
f 31/37/14 32/38/14 30/33/14
f 33/39/17 18/40/17 32/38/17
f 24/41/10 28/42/10 32/43/10
f 35/44/19 36/45/19 34/46/19
f 37/47/20 40/48/20 36/45/20
f 41/49/21 38/50/21 40/48/21
f 39/51/22 34/52/22 38/50/22
f 40/48/10 34/53/10 36/54/10
f 41/49/18 35/55/18 39/51/18
f 43/56/13 44/57/13 42/58/13
f 45/59/12 46/60/12 44/57/12
f 47/61/16 48/62/16 46/60/16
f 49/63/11 50/64/11 48/62/11
f 51/65/15 52/66/15 50/64/15
f 53/67/9 54/68/9 52/66/9
f 55/69/18 51/70/18 47/71/18
f 55/72/14 56/73/14 54/68/14
f 57/74/17 42/75/17 56/73/17
f 48/76/10 52/77/10 56/78/10
f 59/79/23 60/80/23 58/81/23
f 61/82/24 62/83/24 60/80/24
f 63/84/16 64/85/16 62/83/16
f 65/86/11 66/87/11 64/85/11
f 67/88/15 68/89/15 66/87/15
f 69/90/9 70/91/9 68/89/9
f 61/82/25 76/92/25 63/84/25
f 71/93/26 72/94/26 70/91/26
f 73/95/27 58/81/27 72/94/27
f 68/89/10 70/91/10 58/81/10
f 78/96/28 85/97/28 86/98/28
f 69/90/29 78/99/29 79/100/29
f 59/79/30 81/101/30 75/102/30
f 59/79/31 74/103/31 61/82/31
f 63/84/32 77/104/32 65/86/32
f 69/90/33 80/105/33 71/93/33
f 65/86/34 78/99/34 67/88/34
f 73/95/35 80/105/35 81/101/35
f 84/106/36 93/107/36 85/108/36
f 76/109/37 82/110/37 84/111/37
f 80/112/38 89/113/38 81/114/38
f 78/96/39 87/115/39 79/116/39
f 76/109/40 85/97/40 77/117/40
f 75/118/41 82/110/41 74/119/41
f 75/118/42 89/113/42 83/120/42
f 79/116/43 88/121/43 80/112/43
f 96/122/18 94/123/18 92/124/18
f 83/125/44 90/126/44 82/127/44
f 89/128/45 91/129/45 83/125/45
f 87/130/46 96/122/46 88/131/46
f 86/132/47 93/107/47 94/123/47
f 84/106/48 90/126/48 92/124/48
f 88/131/49 97/133/49 89/128/49
f 86/132/50 95/134/50 87/130/50
f 79/135/10 80/136/10 75/137/10
f 89/138/10 82/139/10 85/140/10
f 99/141/19 100/142/19 98/143/19
f 101/144/20 104/145/20 100/142/20
f 105/146/21 102/147/21 104/145/21
f 103/148/22 98/149/22 102/147/22
f 100/150/10 102/147/10 98/151/10
f 101/152/18 103/148/18 105/146/18
f 107/153/19 108/154/19 106/155/19
f 109/156/20 112/157/20 108/154/20
f 113/158/21 110/159/21 112/157/21
f 111/160/22 106/161/22 110/159/22
f 108/162/10 110/159/10 106/163/10
f 109/164/18 111/160/18 113/158/18
f 115/165/19 116/166/19 114/167/19
f 117/168/20 120/169/20 116/166/20
f 121/170/21 118/171/21 120/169/21
f 119/172/22 114/173/22 118/171/22
f 120/169/10 114/174/10 116/175/10
f 117/176/18 119/172/18 121/170/18
f 123/177/19 124/178/19 122/179/19
f 125/180/20 128/181/20 124/178/20
f 129/182/21 126/183/21 128/181/21
f 127/184/22 122/185/22 126/183/22
f 128/181/10 122/186/10 124/187/10
f 125/188/18 127/184/18 129/182/18
f 131/189/19 132/190/19 130/191/19
f 133/192/20 136/193/20 132/190/20
f 137/194/21 134/195/21 136/193/21
f 135/196/22 130/197/22 134/195/22
f 136/193/10 130/198/10 132/199/10
f 133/200/18 135/196/18 137/194/18
f 139/201/19 140/202/19 138/203/19
f 141/204/20 144/205/20 140/202/20
f 145/206/21 142/207/21 144/205/21
f 143/208/22 138/209/22 142/207/22
f 144/205/10 138/210/10 140/211/10
f 141/212/18 143/208/18 145/206/18
f 147/213/19 148/214/19 146/215/19
f 149/216/20 152/217/20 148/214/20
f 153/218/21 150/219/21 152/217/21
f 151/220/22 146/221/22 150/219/22
f 152/217/10 146/222/10 148/223/10
f 153/218/18 147/224/18 151/220/18
f 155/225/13 156/226/13 154/227/13
f 157/228/12 158/229/12 156/226/12
f 159/230/16 160/231/16 158/229/16
f 161/232/11 162/233/11 160/231/11
f 163/234/15 164/235/15 162/233/15
f 165/236/9 166/237/9 164/235/9
f 161/238/18 159/239/18 167/240/18
f 167/241/14 168/242/14 166/237/14
f 169/243/17 154/244/17 168/242/17
f 160/245/10 164/246/10 168/247/10
f 8/13/9 16/13/9 15/11/9
f 17/20/10 10/389/10 11/390/10
f 11/390/10 12/391/10 13/18/10
f 13/18/10 14/392/10 15/19/10
f 15/19/10 16/393/10 17/20/10
f 17/20/10 11/390/10 13/18/10
f 6/9/11 14/9/11 13/7/11
f 4/5/12 12/5/12 11/3/12
f 3/3/13 11/3/13 10/1/13
f 9/15/14 17/15/14 16/13/14
f 7/11/15 15/11/15 14/9/15
f 5/7/16 13/7/16 12/5/16
f 1/17/17 10/17/17 17/15/17
f 19/21/13 21/24/13 20/22/13
f 21/24/12 23/26/12 22/25/12
f 23/26/16 25/28/16 24/27/16
f 25/28/11 27/30/11 26/29/11
f 27/30/15 29/32/15 28/31/15
f 29/32/9 31/37/9 30/33/9
f 23/36/18 21/394/18 19/395/18
f 19/395/18 33/396/18 31/34/18
f 31/34/18 29/397/18 27/35/18
f 27/35/18 25/398/18 23/36/18
f 23/36/18 19/395/18 31/34/18
f 31/37/14 33/39/14 32/38/14
f 33/39/17 19/399/17 18/40/17
f 32/43/10 18/400/10 20/401/10
f 20/401/10 22/402/10 24/41/10
f 24/41/10 26/403/10 28/42/10
f 28/42/10 30/404/10 32/43/10
f 32/43/10 20/401/10 24/41/10
f 35/44/19 37/47/19 36/45/19
f 37/47/20 41/49/20 40/48/20
f 41/49/21 39/51/21 38/50/21
f 39/51/22 35/405/22 34/52/22
f 40/48/10 38/50/10 34/53/10
f 41/49/18 37/406/18 35/55/18
f 43/56/13 45/59/13 44/57/13
f 45/59/12 47/61/12 46/60/12
f 47/61/16 49/63/16 48/62/16
f 49/63/11 51/65/11 50/64/11
f 51/65/15 53/67/15 52/66/15
f 53/67/9 55/72/9 54/68/9
f 47/71/18 45/407/18 43/408/18
f 43/408/18 57/409/18 55/69/18
f 55/69/18 53/410/18 51/70/18
f 51/70/18 49/411/18 47/71/18
f 47/71/18 43/408/18 55/69/18
f 55/72/14 57/74/14 56/73/14
f 57/74/17 43/412/17 42/75/17
f 56/78/10 42/413/10 44/414/10
f 44/414/10 46/415/10 48/76/10
f 48/76/10 50/416/10 52/77/10
f 52/77/10 54/417/10 56/78/10
f 56/78/10 44/414/10 48/76/10
f 59/79/23 61/82/23 60/80/23
f 61/82/24 63/84/24 62/83/24
f 63/84/16 65/86/16 64/85/16
f 65/86/11 67/88/11 66/87/11
f 67/88/15 69/90/15 68/89/15
f 69/90/9 71/93/9 70/91/9
f 61/82/175 74/103/175 76/92/175
f 71/93/26 73/95/26 72/94/26
f 73/95/27 59/79/27 58/81/27
f 72/94/10 58/81/10 70/91/10
f 58/81/10 60/80/10 62/83/10
f 64/85/10 58/81/10 62/83/10
f 64/85/10 66/87/10 58/81/10
f 66/87/10 68/89/10 58/81/10
f 78/96/28 77/117/28 85/97/28
f 69/90/29 67/88/29 78/99/29
f 59/79/176 73/95/176 81/101/176
f 59/79/177 75/102/177 74/103/177
f 63/84/32 76/92/32 77/104/32
f 69/90/33 79/100/33 80/105/33
f 65/86/34 77/104/34 78/99/34
f 73/95/178 71/93/178 80/105/178
f 84/106/36 92/124/36 93/107/36
f 76/109/179 74/119/179 82/110/179
f 80/112/180 88/121/180 89/113/180
f 78/96/39 86/98/39 87/115/39
f 76/109/40 84/111/40 85/97/40
f 75/118/181 83/120/181 82/110/181
f 75/118/182 81/114/182 89/113/182
f 79/116/43 87/115/43 88/121/43
f 92/124/18 90/126/18 91/129/18
f 91/129/18 97/133/18 96/122/18
f 96/122/18 95/134/18 94/123/18
f 94/123/18 93/107/18 92/124/18
f 92/124/18 91/129/18 96/122/18
f 83/125/44 91/129/44 90/126/44
f 89/128/45 97/133/45 91/129/45
f 87/130/46 95/134/46 96/122/46
f 86/132/47 85/108/47 93/107/47
f 84/106/48 82/127/48 90/126/48
f 88/131/49 96/122/49 97/133/49
f 86/132/50 94/123/50 95/134/50
f 80/136/10 81/418/10 75/137/10
f 75/137/10 74/419/10 76/420/10
f 76/420/10 77/421/10 75/137/10
f 77/421/10 78/422/10 75/137/10
f 78/422/10 79/135/10 75/137/10
f 89/138/10 83/423/10 82/139/10
f 82/139/10 84/424/10 85/140/10
f 85/140/10 86/425/10 89/138/10
f 86/425/10 87/426/10 89/138/10
f 87/426/10 88/427/10 89/138/10
f 99/141/19 101/144/19 100/142/19
f 101/144/20 105/146/20 104/145/20
f 105/146/21 103/148/21 102/147/21
f 103/148/22 99/428/22 98/149/22
f 100/150/10 104/145/10 102/147/10
f 101/152/18 99/429/18 103/148/18
f 107/153/19 109/156/19 108/154/19
f 109/156/20 113/158/20 112/157/20
f 113/158/21 111/160/21 110/159/21
f 111/160/22 107/430/22 106/161/22
f 108/162/10 112/157/10 110/159/10
f 109/164/18 107/431/18 111/160/18
f 115/165/19 117/168/19 116/166/19
f 117/168/20 121/170/20 120/169/20
f 121/170/21 119/172/21 118/171/21
f 119/172/22 115/432/22 114/173/22
f 120/169/10 118/171/10 114/174/10
f 117/176/18 115/433/18 119/172/18
f 123/177/19 125/180/19 124/178/19
f 125/180/20 129/182/20 128/181/20
f 129/182/21 127/184/21 126/183/21
f 127/184/22 123/434/22 122/185/22
f 128/181/10 126/183/10 122/186/10
f 125/188/18 123/435/18 127/184/18
f 131/189/19 133/192/19 132/190/19
f 133/192/20 137/194/20 136/193/20
f 137/194/21 135/196/21 134/195/21
f 135/196/22 131/436/22 130/197/22
f 136/193/10 134/195/10 130/198/10
f 133/200/18 131/437/18 135/196/18
f 139/201/19 141/204/19 140/202/19
f 141/204/20 145/206/20 144/205/20
f 145/206/21 143/208/21 142/207/21
f 143/208/22 139/438/22 138/209/22
f 144/205/10 142/207/10 138/210/10
f 141/212/18 139/439/18 143/208/18
f 147/213/19 149/216/19 148/214/19
f 149/216/20 153/218/20 152/217/20
f 153/218/21 151/220/21 150/219/21
f 151/220/22 147/440/22 146/221/22
f 152/217/10 150/219/10 146/222/10
f 153/218/18 149/441/18 147/224/18
f 155/225/13 157/228/13 156/226/13
f 157/228/12 159/230/12 158/229/12
f 159/230/16 161/232/16 160/231/16
f 161/232/11 163/234/11 162/233/11
f 163/234/15 165/236/15 164/235/15
f 165/236/9 167/241/9 166/237/9
f 159/239/18 157/442/18 155/443/18
f 155/443/18 169/444/18 159/239/18
f 169/444/18 167/240/18 159/239/18
f 167/240/18 165/445/18 163/446/18
f 163/446/18 161/238/18 167/240/18
f 167/241/14 169/243/14 168/242/14
f 169/243/17 155/447/17 154/244/17
f 168/247/10 154/448/10 156/449/10
f 156/449/10 158/450/10 160/245/10
f 160/245/10 162/451/10 164/246/10
f 164/246/10 166/452/10 168/247/10
f 168/247/10 156/449/10 160/245/10
usemtl マテリアル.001
f 180/248/51 198/249/51 182/249/51
f 173/250/52 189/251/52 171/251/52
f 185/252/53 189/251/53 201/252/53
f 177/253/54 191/254/54 175/254/54
f 172/255/55 186/256/55 187/255/55
f 184/257/56 186/256/56 170/256/56
f 177/253/22 175/254/22 183/258/22
f 176/259/57 190/260/57 192/259/57
f 181/261/58 195/262/58 179/262/58
f 174/260/59 203/255/59 172/255/59
f 189/263/60 187/264/60 186/265/60
f 188/266/61 190/267/61 187/264/61
f 190/267/62 193/268/62 192/269/62
f 192/269/63 195/270/63 194/271/63
f 194/271/64 197/272/64 196/273/64
f 197/272/59 198/274/59 196/273/59
f 199/275/65 200/276/65 198/274/65
f 201/277/66 186/278/66 200/276/66
f 181/261/67 199/258/67 197/261/67
f 176/259/68 194/279/68 178/279/68
f 177/253/69 195/262/69 193/253/69
f 172/255/70 190/260/70 174/260/70
f 184/257/71 198/249/71 200/257/71
f 173/250/72 191/254/72 188/250/72
f 185/252/73 199/258/73 183/258/73
f 180/248/74 194/279/74 196/248/74
f 208/249/20 209/257/20 205/259/20
f 180/248/60 206/279/60 178/279/60
f 170/256/63 209/257/63 184/257/63
f 172/255/64 202/256/64 170/256/64
f 176/259/65 204/260/65 174/260/65
f 182/249/61 207/248/61 180/248/61
f 178/279/66 205/259/66 176/259/66
f 184/257/62 208/249/62 182/249/62
f 211/280/19 212/281/19 210/282/19
f 213/283/20 216/284/20 212/281/20
f 217/285/21 214/286/21 216/284/21
f 215/287/22 210/288/22 214/286/22
f 212/289/10 214/286/10 210/290/10
f 213/291/18 215/287/18 217/285/18
f 219/292/19 220/293/19 218/294/19
f 221/295/20 224/296/20 220/293/20
f 225/297/21 222/298/21 224/296/21
f 223/299/22 218/300/22 222/298/22
f 224/296/10 218/301/10 220/302/10
f 225/297/18 219/303/18 223/299/18
f 227/304/19 228/305/19 226/306/19
f 229/307/20 232/308/20 228/305/20
f 233/309/21 230/310/21 232/308/21
f 231/311/22 226/312/22 230/310/22
f 232/308/10 226/313/10 228/314/10
f 233/309/18 227/315/18 231/311/18
f 235/316/19 236/317/19 234/318/19
f 237/319/20 240/320/20 236/317/20
f 241/321/21 238/322/21 240/320/21
f 239/323/22 234/324/22 238/322/22
f 240/320/10 234/325/10 236/326/10
f 241/321/18 235/327/18 239/323/18
f 243/328/19 244/329/19 242/330/19
f 245/331/20 248/332/20 244/329/20
f 249/333/21 246/334/21 248/332/21
f 247/335/22 242/336/22 246/334/22
f 244/337/10 246/334/10 242/338/10
f 245/339/18 247/335/18 249/333/18
f 251/340/19 252/341/19 250/342/19
f 253/343/20 256/344/20 252/341/20
f 256/344/21 255/345/21 254/346/21
f 255/345/22 250/347/22 254/346/22
f 252/348/10 254/346/10 250/349/10
f 253/350/18 255/345/18 257/351/18
f 259/352/19 260/353/19 258/354/19
f 261/355/20 264/356/20 260/353/20
f 265/357/21 262/358/21 264/356/21
f 263/359/22 258/360/22 262/358/22
f 264/356/10 258/361/10 260/362/10
f 265/357/18 259/363/18 263/359/18
f 267/364/19 268/365/19 266/366/19
f 269/367/20 272/368/20 268/365/20
f 272/368/21 271/369/21 270/370/21
f 271/369/22 266/371/22 270/370/22
f 272/368/10 266/372/10 268/373/10
f 269/374/18 271/369/18 273/375/18
f 275/376/19 276/377/19 274/378/19
f 277/379/20 280/380/20 276/377/20
f 281/381/21 278/382/21 280/380/21
f 279/383/22 274/384/22 278/382/22
f 276/385/10 278/382/10 274/386/10
f 277/387/18 279/383/18 281/381/18
f 180/248/51 196/248/51 198/249/51
f 173/250/52 188/250/52 189/251/52
f 185/252/53 171/251/53 189/251/53
f 177/253/54 193/253/54 191/254/54
f 172/255/55 170/256/55 186/256/55
f 184/257/56 200/257/56 186/256/56
f 175/254/22 173/250/22 171/251/22
f 171/251/22 185/252/22 175/254/22
f 185/252/22 183/258/22 175/254/22
f 183/258/22 181/261/22 179/262/22
f 179/262/22 177/253/22 183/258/22
f 176/259/57 174/260/57 190/260/57
f 181/261/58 197/261/58 195/262/58
f 174/260/59 204/260/59 203/255/59
f 189/263/60 188/266/60 187/264/60
f 188/266/61 191/453/61 190/267/61
f 190/267/62 191/453/62 193/268/62
f 192/269/63 193/268/63 195/270/63
f 194/271/64 195/270/64 197/272/64
f 197/272/59 199/275/59 198/274/59
f 199/275/65 201/277/65 200/276/65
f 201/277/66 189/454/66 186/278/66
f 181/261/67 183/258/67 199/258/67
f 176/259/68 192/259/68 194/279/68
f 177/253/69 179/262/69 195/262/69
f 172/255/70 187/255/70 190/260/70
f 184/257/71 182/249/71 198/249/71
f 173/250/72 175/254/72 191/254/72
f 185/252/73 201/252/73 199/258/73
f 180/248/74 178/279/74 194/279/74
f 209/257/20 202/256/20 203/255/20
f 203/255/20 204/260/20 209/257/20
f 204/260/20 205/259/20 209/257/20
f 205/259/20 206/279/20 207/248/20
f 207/248/20 208/249/20 205/259/20
f 180/248/60 207/248/60 206/279/60
f 170/256/63 202/256/63 209/257/63
f 172/255/64 203/255/64 202/256/64
f 176/259/65 205/259/65 204/260/65
f 182/249/61 208/249/61 207/248/61
f 178/279/66 206/279/66 205/259/66
f 184/257/62 209/257/62 208/249/62
f 211/280/19 213/283/19 212/281/19
f 213/283/20 217/285/20 216/284/20
f 217/285/21 215/287/21 214/286/21
f 215/287/22 211/455/22 210/288/22
f 212/289/10 216/284/10 214/286/10
f 213/291/18 211/456/18 215/287/18
f 219/292/19 221/295/19 220/293/19
f 221/295/20 225/297/20 224/296/20
f 225/297/21 223/299/21 222/298/21
f 223/299/22 219/457/22 218/300/22
f 224/296/10 222/298/10 218/301/10
f 225/297/18 221/458/18 219/303/18
f 227/304/19 229/307/19 228/305/19
f 229/307/20 233/309/20 232/308/20
f 233/309/21 231/311/21 230/310/21
f 231/311/22 227/459/22 226/312/22
f 232/308/10 230/310/10 226/313/10
f 233/309/18 229/460/18 227/315/18
f 235/316/19 237/319/19 236/317/19
f 237/319/20 241/321/20 240/320/20
f 241/321/21 239/323/21 238/322/21
f 239/323/22 235/461/22 234/324/22
f 240/320/10 238/322/10 234/325/10
f 241/321/18 237/462/18 235/327/18
f 243/328/19 245/331/19 244/329/19
f 245/331/20 249/333/20 248/332/20
f 249/333/21 247/335/21 246/334/21
f 247/335/22 243/463/22 242/336/22
f 244/337/10 248/332/10 246/334/10
f 245/339/18 243/464/18 247/335/18
f 251/340/19 253/343/19 252/341/19
f 253/343/20 257/351/20 256/344/20
f 256/344/21 257/351/21 255/345/21
f 255/345/22 251/465/22 250/347/22
f 252/348/10 256/344/10 254/346/10
f 253/350/18 251/466/18 255/345/18
f 259/352/19 261/355/19 260/353/19
f 261/355/20 265/357/20 264/356/20
f 265/357/21 263/359/21 262/358/21
f 263/359/22 259/467/22 258/360/22
f 264/356/10 262/358/10 258/361/10
f 265/357/18 261/468/18 259/363/18
f 267/364/19 269/367/19 268/365/19
f 269/367/20 273/375/20 272/368/20
f 272/368/21 273/375/21 271/369/21
f 271/369/22 267/469/22 266/371/22
f 272/368/10 270/370/10 266/372/10
f 269/374/18 267/470/18 271/369/18
f 275/376/19 277/379/19 276/377/19
f 277/379/20 281/381/20 280/380/20
f 281/381/21 279/383/21 278/382/21
f 279/383/22 275/471/22 274/384/22
f 276/385/10 280/380/10 278/382/10
f 277/387/18 275/472/18 279/383/18
s 1
usemtl マテリアル.002
f 282/388/75 285/388/75 284/388/75
f 284/388/76 287/388/76 286/388/76
f 286/388/77 289/388/77 288/388/77
f 289/388/78 290/388/78 288/388/78
f 290/388/79 293/388/79 292/388/79
f 292/388/80 295/388/80 294/388/80
f 295/388/81 296/388/81 294/388/81
f 297/388/82 298/388/82 296/388/82
f 298/388/83 301/388/83 300/388/83
f 301/388/84 302/388/84 300/388/84
f 303/388/85 304/388/85 302/388/85
f 305/388/86 306/388/86 304/388/86
f 307/388/87 308/388/87 306/388/87
f 309/388/88 310/388/88 308/388/88
f 311/388/89 312/388/89 310/388/89
f 313/388/90 314/388/90 312/388/90
f 315/388/91 316/388/91 314/388/91
f 317/388/92 318/388/92 316/388/92
f 319/388/93 320/388/93 318/388/93
f 320/388/94 323/388/94 322/388/94
f 323/388/95 324/388/95 322/388/95
f 325/388/96 326/388/96 324/388/96
f 326/388/97 329/388/97 328/388/97
f 328/388/98 331/388/98 330/388/98
f 331/388/99 332/388/99 330/388/99
f 332/388/100 335/388/100 334/388/100
f 335/388/101 336/388/101 334/388/101
f 336/388/102 339/388/102 338/388/102
f 339/388/103 340/388/103 338/388/103
f 340/388/104 343/388/104 342/388/104
f 378/388/20 305/388/20 374/388/20
f 331/388/20 357/388/20 354/388/20
f 342/388/105 345/388/105 344/388/105
f 344/388/106 283/388/106 282/388/106
f 296/388/22 392/388/22 389/388/22
f 336/388/22 381/388/22 379/388/22
f 350/388/107 394/388/107 386/388/107
f 355/388/92 386/388/92 388/388/92
f 359/388/108 388/388/108 387/388/108
f 362/388/94 387/388/94 393/388/94
f 362/388/109 390/388/109 372/388/109
f 372/388/96 389/388/96 376/388/96
f 376/388/110 392/388/110 375/388/110
f 375/388/98 391/388/98 373/388/98
f 373/388/111 408/388/111 374/388/111
f 374/388/100 407/388/100 378/388/100
f 378/388/112 409/388/112 371/388/112
f 371/388/102 405/388/102 377/388/102
f 377/388/113 406/388/114 368/388/113
f 368/388/104 404/388/104 369/388/104
f 369/388/115 410/388/115 370/388/115
f 370/388/106 401/388/106 367/388/106
f 367/388/116 402/388/116 365/388/116
f 365/388/76 400/388/76 364/388/117
f 364/388/118 403/388/118 366/388/118
f 366/388/78 398/388/78 363/388/78
f 361/388/119 398/388/119 399/388/119
f 360/388/80 399/388/80 397/388/80
f 358/388/120 397/388/120 395/388/120
f 357/388/82 395/388/82 396/388/82
f 354/388/121 396/388/121 379/388/121
f 353/388/84 379/388/84 381/388/84
f 356/388/122 381/388/122 380/388/122
f 346/388/123 356/388/123 380/388/124
f 347/388/125 385/388/125 382/388/125
f 352/388/88 382/388/88 384/388/88
f 349/388/126 384/388/126 383/388/126
f 351/388/90 383/388/90 394/388/90
f 282/388/75 283/388/75 285/388/75
f 284/388/76 285/388/76 287/388/76
f 286/388/77 287/388/77 289/388/77
f 289/388/78 291/388/78 290/388/78
f 290/388/79 291/388/79 293/388/79
f 292/388/80 293/388/80 295/388/80
f 295/388/81 297/388/81 296/388/81
f 297/388/82 299/388/82 298/388/82
f 298/388/83 299/388/83 301/388/83
f 301/388/84 303/388/84 302/388/84
f 303/388/85 305/388/85 304/388/85
f 305/388/86 307/388/86 306/388/86
f 307/388/87 309/388/87 308/388/87
f 309/388/88 311/388/88 310/388/88
f 311/388/89 313/388/89 312/388/89
f 313/388/90 315/388/90 314/388/90
f 315/388/91 317/388/91 316/388/91
f 317/388/92 319/388/92 318/388/92
f 319/388/93 321/388/93 320/388/93
f 320/388/94 321/388/94 323/388/94
f 323/388/95 325/388/95 324/388/95
f 325/388/96 327/388/96 326/388/96
f 326/388/97 327/388/97 329/388/97
f 328/388/98 329/388/98 331/388/98
f 331/388/99 333/388/99 332/388/99
f 332/388/100 333/388/100 335/388/100
f 335/388/101 337/388/101 336/388/101
f 336/388/102 337/388/102 339/388/102
f 339/388/103 341/388/103 340/388/103
f 340/388/104 341/388/104 343/388/104
f 297/388/20 295/388/20 293/388/20
f 297/388/20 293/388/20 291/388/20
f 303/388/20 301/388/20 305/388/20
f 301/388/20 299/388/20 305/388/20
f 299/388/20 297/388/20 375/388/20
f 297/388/20 291/388/20 372/388/20
f 372/388/20 291/388/20 362/388/20
f 289/388/20 287/388/20 283/388/20
f 287/388/20 285/388/20 283/388/20
f 291/388/20 289/388/20 362/388/20
f 311/388/20 309/388/20 313/388/20
f 309/388/20 307/388/20 313/388/20
f 307/388/20 305/388/20 371/388/20
f 305/388/20 299/388/20 374/388/20
f 307/388/20 368/388/20 313/388/20
f 289/388/20 283/388/20 355/388/20
f 362/388/20 289/388/20 359/388/20
f 368/388/20 307/388/20 377/388/20
f 313/388/20 368/388/20 369/388/20
f 283/388/20 345/388/20 349/388/20
f 345/388/20 343/388/20 339/388/20
f 343/388/20 341/388/20 339/388/20
f 339/388/20 337/388/20 348/388/20
f 337/388/20 346/388/20 348/388/20
f 315/388/20 313/388/20 370/388/20
f 319/388/20 317/388/20 321/388/20
f 317/388/20 315/388/20 321/388/20
f 345/388/20 339/388/20 352/388/20
f 339/388/20 348/388/20 347/388/20
f 321/388/20 315/388/20 365/388/20
f 313/388/20 369/388/20 370/388/20
f 327/388/20 325/388/20 323/388/20
f 339/388/20 347/388/20 352/388/20
f 329/388/20 327/388/20 323/388/20
f 360/388/20 358/388/20 329/388/20
f 361/388/20 360/388/20 329/388/20
f 329/388/20 323/388/20 361/388/20
f 323/388/20 321/388/20 363/388/20
f 361/388/20 323/388/20 363/388/20
f 345/388/20 352/388/20 349/388/20
f 349/388/20 351/388/20 283/388/20
f 351/388/20 350/388/20 283/388/20
f 350/388/20 355/388/20 283/388/20
f 366/388/20 363/388/20 321/388/20
f 364/388/20 366/388/20 321/388/20
f 355/388/20 359/388/20 289/388/20
f 365/388/20 364/388/20 321/388/20
f 367/388/20 365/388/20 315/388/20
f 297/388/20 372/388/20 376/388/20
f 370/388/20 367/388/20 315/388/20
f 297/388/20 376/388/20 375/388/20
f 377/388/20 307/388/20 371/388/20
f 299/388/20 375/388/20 373/388/20
f 299/388/20 373/388/20 374/388/20
f 371/388/20 305/388/20 378/388/20
f 346/388/20 337/388/20 356/388/20
f 337/388/20 335/388/20 331/388/20
f 335/388/20 333/388/20 331/388/20
f 331/388/20 329/388/20 357/388/20
f 329/388/20 358/388/20 357/388/20
f 337/388/20 331/388/20 354/388/20
f 356/388/20 337/388/20 353/388/20
f 353/388/20 337/388/20 354/388/20
f 342/388/105 343/388/105 345/388/105
f 344/388/106 345/388/106 283/388/106
f 394/388/22 383/388/22 282/388/22
f 383/388/22 344/388/22 282/388/22
f 282/388/22 284/388/22 286/388/22
f 386/388/22 394/388/22 282/388/22
f 282/388/22 286/388/22 288/388/22
f 290/388/22 292/388/22 296/388/22
f 292/388/22 294/388/22 296/388/22
f 282/388/22 288/388/22 388/388/22
f 288/388/22 290/388/22 393/388/22
f 390/388/22 290/388/22 296/388/22
f 388/388/22 386/388/22 282/388/22
f 387/388/22 388/388/22 288/388/22
f 290/388/22 390/388/22 393/388/22
f 296/388/22 298/388/22 392/388/22
f 298/388/22 391/388/22 392/388/22
f 390/388/22 296/388/22 389/388/22
f 393/388/22 387/388/22 288/388/22
f 408/388/22 391/388/22 298/388/22
f 298/388/22 300/388/22 304/388/22
f 300/388/22 302/388/22 304/388/22
f 407/388/22 408/388/22 304/388/22
f 408/388/22 298/388/22 304/388/22
f 409/388/22 407/388/22 304/388/22
f 304/388/22 306/388/22 409/388/22
f 306/388/22 308/388/22 312/388/22
f 308/388/22 310/388/22 312/388/22
f 405/388/22 409/388/22 306/388/22
f 306/388/22 312/388/22 406/388/22
f 312/388/22 314/388/22 410/388/22
f 306/388/22 406/388/22 405/388/22
f 314/388/22 316/388/22 320/388/22
f 316/388/22 318/388/22 320/388/22
f 406/388/22 312/388/22 404/388/22
f 404/388/22 312/388/22 410/388/22
f 314/388/22 320/388/22 402/388/22
f 320/388/22 322/388/22 398/388/22
f 398/388/22 322/388/22 399/388/22
f 322/388/22 324/388/22 326/388/22
f 322/388/22 326/388/22 328/388/22
f 322/388/22 328/388/22 399/388/22
f 330/388/22 332/388/22 334/388/22
f 328/388/22 330/388/22 396/388/22
f 399/388/22 328/388/22 397/388/22
f 401/388/22 410/388/22 314/388/22
f 402/388/22 401/388/22 314/388/22
f 330/388/22 334/388/22 336/388/22
f 330/388/22 336/388/22 379/388/22
f 400/388/22 402/388/22 320/388/22
f 403/388/22 400/388/22 320/388/22
f 338/388/22 340/388/22 342/388/22
f 342/388/22 344/388/22 338/388/22
f 344/388/22 383/388/22 384/388/22
f 344/388/22 384/388/22 338/388/22
f 338/388/22 384/388/22 382/388/22
f 398/388/22 403/388/22 320/388/22
f 336/388/22 338/388/22 385/388/22
f 338/388/22 382/388/22 385/388/22
f 397/388/22 328/388/22 395/388/22
f 395/388/22 328/388/22 396/388/22
f 336/388/22 385/388/22 380/388/22
f 336/388/22 380/388/22 381/388/22
f 396/388/22 330/388/22 379/388/22
f 350/388/107 351/388/107 394/388/107
f 355/388/92 350/388/92 386/388/92
f 359/388/108 355/388/108 388/388/108
f 362/388/94 359/388/94 387/388/94
f 362/388/109 393/388/109 390/388/109
f 372/388/96 390/388/96 389/388/96
f 376/388/110 389/388/110 392/388/110
f 375/388/98 392/388/98 391/388/98
f 373/388/111 391/388/111 408/388/111
f 374/388/100 408/388/100 407/388/100
f 378/388/112 407/388/112 409/388/112
f 371/388/102 409/388/102 405/388/102
f 377/388/113 405/388/183 406/388/114
f 368/388/104 406/388/104 404/388/104
f 369/388/115 404/388/115 410/388/115
f 370/388/106 410/388/106 401/388/106
f 367/388/116 401/388/116 402/388/116
f 365/388/76 402/388/76 400/388/76
f 364/388/118 400/388/118 403/388/118
f 366/388/78 403/388/78 398/388/78
f 361/388/119 363/388/119 398/388/119
f 360/388/80 361/388/80 399/388/80
f 358/388/120 360/388/120 397/388/120
f 357/388/82 358/388/82 395/388/82
f 354/388/121 357/388/121 396/388/121
f 353/388/84 354/388/84 379/388/84
f 356/388/122 353/388/122 381/388/122
f 380/388/124 385/388/124 346/388/123
f 385/388/124 348/388/86 346/388/123
f 347/388/125 348/388/125 385/388/125
f 352/388/88 347/388/88 382/388/88
f 349/388/126 352/388/126 384/388/126
f 351/388/90 349/388/90 383/388/90
usemtl マテリアル
f 411/388/127 414/388/127 413/388/127
f 414/388/128 415/388/128 413/388/128
f 415/388/129 418/388/129 417/388/129
f 417/388/130 420/388/130 419/388/130
f 420/388/131 421/388/131 419/388/131
f 421/388/132 424/388/132 423/388/132
f 424/388/133 425/388/133 423/388/133
f 426/388/134 427/388/134 425/388/134
f 427/388/135 430/388/135 429/388/135
f 429/388/136 432/388/136 431/388/136
f 432/388/137 433/388/137 431/388/137
f 433/388/138 436/388/138 435/388/138
f 436/388/139 437/388/139 435/388/139
f 438/388/140 439/388/140 437/388/140
f 439/388/141 442/388/141 441/388/141
f 442/388/142 443/388/142 441/388/142
f 443/388/143 446/388/143 445/388/143
f 445/388/144 448/388/144 447/388/144
f 448/388/145 449/388/145 447/388/145
f 449/388/146 452/388/146 451/388/146
f 452/388/147 453/388/147 451/388/147
f 454/388/148 455/388/148 453/388/148
f 455/388/149 458/388/149 457/388/149
f 458/388/150 459/388/150 457/388/150
f 460/388/151 461/388/151 459/388/151
f 461/388/152 464/388/152 463/388/152
f 463/388/153 466/388/153 465/388/153
f 465/388/154 468/388/154 467/388/154
f 468/388/155 469/388/155 467/388/155
f 470/388/156 471/388/156 469/388/156
f 507/388/19 434/388/19 503/388/19
f 460/388/19 486/388/19 483/388/19
f 472/388/157 473/388/157 471/388/157
f 474/388/158 411/388/158 473/388/158
f 425/388/21 521/388/21 518/388/21
f 465/388/21 510/388/21 508/388/21
f 479/388/159 523/388/159 515/388/159
f 484/388/144 515/388/144 517/388/144
f 488/388/160 517/388/160 516/388/160
f 491/388/146 516/388/146 522/388/146
f 501/388/161 522/388/161 519/388/161
f 501/388/148 518/388/148 505/388/148
f 505/388/162 521/388/162 504/388/162
f 504/388/150 520/388/150 502/388/150
f 503/388/163 520/388/163 537/388/163
f 507/388/152 537/388/152 536/388/152
f 507/388/164 538/388/164 500/388/164
f 500/388/154 534/388/154 506/388/154
f 506/388/165 535/388/165 497/388/165
f 497/388/156 533/388/156 498/388/156
f 498/388/166 539/388/166 499/388/166
f 499/388/158 530/388/158 496/388/158
f 496/388/167 531/388/167 494/388/167
f 493/388/128 531/388/128 529/388/128
f 493/388/168 532/388/168 495/388/168
f 492/388/130 532/388/130 527/388/130
f 490/388/169 527/388/169 528/388/169
f 526/388/132 490/388/132 528/388/132
f 524/388/170 489/388/170 526/388/170
f 486/388/134 524/388/134 525/388/134
f 508/388/171 486/388/171 525/388/171
f 482/388/136 508/388/136 510/388/136
f 485/388/172 510/388/172 509/388/172
f 475/388/138 485/388/138 509/388/138
f 511/388/173 477/388/173 514/388/173
f 481/388/140 511/388/140 513/388/140
f 512/388/174 481/388/174 513/388/174
f 480/388/142 512/388/142 523/388/142
f 411/388/127 412/388/127 414/388/127
f 414/388/128 416/388/128 415/388/128
f 415/388/129 416/388/129 418/388/129
f 417/388/130 418/388/130 420/388/130
f 420/388/131 422/388/131 421/388/131
f 421/388/132 422/388/132 424/388/132
f 424/388/133 426/388/133 425/388/133
f 426/388/134 428/388/134 427/388/134
f 427/388/135 428/388/135 430/388/135
f 429/388/136 430/388/136 432/388/136
f 432/388/137 434/388/137 433/388/137
f 433/388/138 434/388/138 436/388/138
f 436/388/139 438/388/139 437/388/139
f 438/388/140 440/388/140 439/388/140
f 439/388/141 440/388/141 442/388/141
f 442/388/142 444/388/142 443/388/142
f 443/388/143 444/388/143 446/388/143
f 445/388/144 446/388/144 448/388/144
f 448/388/145 450/388/145 449/388/145
f 449/388/146 450/388/146 452/388/146
f 452/388/147 454/388/147 453/388/147
f 454/388/148 456/388/148 455/388/148
f 455/388/149 456/388/149 458/388/149
f 458/388/150 460/388/150 459/388/150
f 460/388/151 462/388/151 461/388/151
f 461/388/152 462/388/152 464/388/152
f 463/388/153 464/388/153 466/388/153
f 465/388/154 466/388/154 468/388/154
f 468/388/155 470/388/155 469/388/155
f 470/388/156 472/388/156 471/388/156
f 426/388/19 424/388/19 422/388/19
f 426/388/19 422/388/19 420/388/19
f 432/388/19 430/388/19 434/388/19
f 430/388/19 428/388/19 434/388/19
f 428/388/19 426/388/19 504/388/19
f 426/388/19 420/388/19 501/388/19
f 501/388/19 420/388/19 491/388/19
f 418/388/19 416/388/19 412/388/19
f 416/388/19 414/388/19 412/388/19
f 420/388/19 418/388/19 491/388/19
f 440/388/19 438/388/19 442/388/19
f 438/388/19 436/388/19 442/388/19
f 436/388/19 434/388/19 500/388/19
f 434/388/19 428/388/19 503/388/19
f 436/388/19 497/388/19 442/388/19
f 418/388/19 412/388/19 484/388/19
f 491/388/19 418/388/19 488/388/19
f 497/388/19 436/388/19 506/388/19
f 442/388/19 497/388/19 498/388/19
f 412/388/19 474/388/19 478/388/19
f 474/388/19 472/388/19 468/388/19
f 472/388/19 470/388/19 468/388/19
f 468/388/19 466/388/19 477/388/19
f 466/388/19 475/388/19 477/388/19
f 444/388/19 442/388/19 499/388/19
f 448/388/19 446/388/19 450/388/19
f 446/388/19 444/388/19 450/388/19
f 474/388/19 468/388/19 481/388/19
f 468/388/19 477/388/19 476/388/19
f 450/388/19 444/388/19 494/388/19
f 442/388/19 498/388/19 499/388/19
f 456/388/19 454/388/19 452/388/19
f 468/388/19 476/388/19 481/388/19
f 458/388/19 456/388/19 452/388/19
f 489/388/19 487/388/19 458/388/19
f 490/388/19 489/388/19 458/388/19
f 458/388/19 452/388/19 490/388/19
f 452/388/19 450/388/19 492/388/19
f 490/388/19 452/388/19 492/388/19
f 474/388/19 481/388/19 478/388/19
f 478/388/19 480/388/19 412/388/19
f 480/388/19 479/388/19 412/388/19
f 479/388/19 484/388/19 412/388/19
f 495/388/19 492/388/19 450/388/19
f 493/388/19 495/388/19 450/388/19
f 484/388/19 488/388/19 418/388/19
f 494/388/19 493/388/19 450/388/19
f 496/388/19 494/388/19 444/388/19
f 426/388/19 501/388/19 505/388/19
f 499/388/19 496/388/19 444/388/19
f 426/388/19 505/388/19 504/388/19
f 506/388/19 436/388/19 500/388/19
f 428/388/19 504/388/19 502/388/19
f 428/388/19 502/388/19 503/388/19
f 500/388/19 434/388/19 507/388/19
f 475/388/19 466/388/19 485/388/19
f 466/388/19 464/388/19 460/388/19
f 464/388/19 462/388/19 460/388/19
f 460/388/19 458/388/19 486/388/19
f 458/388/19 487/388/19 486/388/19
f 466/388/19 460/388/19 483/388/19
f 485/388/19 466/388/19 482/388/19
f 482/388/19 466/388/19 483/388/19
f 472/388/157 474/388/157 473/388/157
f 474/388/158 412/388/158 411/388/158
f 523/388/21 512/388/21 411/388/21
f 512/388/21 473/388/21 411/388/21
f 411/388/21 413/388/21 415/388/21
f 515/388/21 523/388/21 411/388/21
f 411/388/21 415/388/21 417/388/21
f 419/388/21 421/388/21 425/388/21
f 421/388/21 423/388/21 425/388/21
f 411/388/21 417/388/21 517/388/21
f 417/388/21 419/388/21 522/388/21
f 519/388/21 419/388/21 425/388/21
f 517/388/21 515/388/21 411/388/21
f 516/388/21 517/388/21 417/388/21
f 419/388/21 519/388/21 522/388/21
f 425/388/21 427/388/21 521/388/21
f 427/388/21 520/388/21 521/388/21
f 519/388/21 425/388/21 518/388/21
f 522/388/21 516/388/21 417/388/21
f 537/388/21 520/388/21 427/388/21
f 427/388/21 429/388/21 433/388/21
f 429/388/21 431/388/21 433/388/21
f 536/388/21 537/388/21 433/388/21
f 537/388/21 427/388/21 433/388/21
f 538/388/21 536/388/21 433/388/21
f 433/388/21 435/388/21 538/388/21
f 435/388/21 437/388/21 441/388/21
f 437/388/21 439/388/21 441/388/21
f 534/388/21 538/388/21 435/388/21
f 435/388/21 441/388/21 535/388/21
f 441/388/21 443/388/21 539/388/21
f 435/388/21 535/388/21 534/388/21
f 443/388/21 445/388/21 449/388/21
f 445/388/21 447/388/21 449/388/21
f 535/388/21 441/388/21 533/388/21
f 533/388/21 441/388/21 539/388/21
f 443/388/21 449/388/21 531/388/21
f 449/388/21 451/388/21 527/388/21
f 527/388/21 451/388/21 528/388/21
f 451/388/21 453/388/21 455/388/21
f 451/388/21 455/388/21 457/388/21
f 451/388/21 457/388/21 528/388/21
f 459/388/21 461/388/21 463/388/21
f 457/388/21 459/388/21 525/388/21
f 528/388/21 457/388/21 526/388/21
f 530/388/21 539/388/21 443/388/21
f 531/388/21 530/388/21 443/388/21
f 459/388/21 463/388/21 465/388/21
f 459/388/21 465/388/21 508/388/21
f 529/388/21 531/388/21 449/388/21
f 532/388/21 529/388/21 449/388/21
f 467/388/21 469/388/21 471/388/21
f 471/388/21 473/388/21 467/388/21
f 473/388/21 512/388/21 513/388/21
f 473/388/21 513/388/21 467/388/21
f 467/388/21 513/388/21 511/388/21
f 527/388/21 532/388/21 449/388/21
f 465/388/21 467/388/21 514/388/21
f 467/388/21 511/388/21 514/388/21
f 526/388/21 457/388/21 524/388/21
f 524/388/21 457/388/21 525/388/21
f 465/388/21 514/388/21 509/388/21
f 465/388/21 509/388/21 510/388/21
f 525/388/21 459/388/21 508/388/21
f 479/388/159 480/388/159 523/388/159
f 484/388/144 479/388/144 515/388/144
f 488/388/160 484/388/160 517/388/160
f 491/388/146 488/388/146 516/388/146
f 501/388/161 491/388/161 522/388/161
f 501/388/148 519/388/148 518/388/148
f 505/388/162 518/388/162 521/388/162
f 504/388/150 521/388/150 520/388/150
f 503/388/163 502/388/163 520/388/163
f 507/388/152 503/388/152 537/388/152
f 507/388/164 536/388/164 538/388/164
f 500/388/154 538/388/154 534/388/154
f 506/388/165 534/388/165 535/388/165
f 497/388/156 535/388/156 533/388/156
f 498/388/166 533/388/166 539/388/166
f 499/388/158 539/388/158 530/388/158
f 496/388/167 530/388/167 531/388/167
f 493/388/128 494/388/128 531/388/128
f 493/388/168 529/388/168 532/388/168
f 492/388/130 495/388/130 532/388/130
f 490/388/169 492/388/169 527/388/169
f 526/388/132 489/388/132 490/388/132
f 524/388/170 487/388/170 489/388/170
f 486/388/134 487/388/134 524/388/134
f 508/388/171 483/388/171 486/388/171
f 482/388/136 483/388/136 508/388/136
f 485/388/172 482/388/172 510/388/172
f 509/388/138 514/388/138 475/388/138
f 514/388/138 477/388/138 475/388/138
f 511/388/173 476/388/173 477/388/173
f 481/388/140 476/388/140 511/388/140
f 512/388/174 478/388/174 481/388/174
f 480/388/142 478/388/142 512/388/142
