# Blender 4.4.1
# www.blender.org
o Hill_194
v 0.461473 0.000000 -0.027133
v 0.461473 6.049101 -0.027133
v 0.461473 6.049101 -0.027133
v 0.461473 6.049101 -0.027133
v 0.461473 6.049101 -0.027133
v 0.461473 6.049101 -0.027133
v 0.461473 6.049101 -0.027133
v 0.461473 6.049101 -0.027133
v 0.461473 6.049101 -0.027133
v 2.773288 4.959689 -0.027133
v 2.137809 4.755354 1.649202
v 0.461473 4.846651 2.373158
v -1.111810 5.014423 1.546150
v -1.836144 5.083788 -0.027133
v -1.076416 4.947898 -1.565022
v 0.461473 4.781004 -2.409890
v 2.145669 5.002044 -1.711329
v 4.959980 2.997334 -0.027133
v 3.290830 2.875558 2.802223
v 0.461473 2.572137 4.535053
v -2.894233 2.749755 3.328573
v -3.585532 2.543713 -0.027133
v -2.725234 2.607382 -3.213840
v 0.461473 3.119154 -4.981648
v 3.892673 2.879951 -3.458333
v 6.769762 -0.588515 -0.027133
v 5.567091 -0.339050 5.078485
v 0.461473 -0.119418 6.447845
v -3.487394 0.344248 3.921733
v -6.769762 -0.327573 -0.027133
v -4.966953 -0.032028 -5.455559
v 0.461473 -0.528380 -6.447845
v 5.702422 0.351760 -5.268082
vn -0.0000 1.0000 -0.0000
vn 0.4113 0.8729 0.2623
vn 0.2353 0.8690 0.4353
vn -0.1387 0.8854 0.4436
vn -0.3784 0.9006 0.2139
vn -0.3737 0.8894 -0.2632
vn -0.1602 0.8714 -0.4637
vn 0.0788 0.8800 -0.4683
vn 0.4224 0.8963 -0.1349
vn 0.6405 0.6696 0.3761
vn 0.3434 0.6422 0.6853
vn -0.2348 0.6885 0.6862
vn -0.7530 0.6273 0.1989
vn -0.7469 0.6097 -0.2654
vn -0.3648 0.7426 -0.5617
vn 0.2536 0.7761 -0.5774
vn 0.6514 0.7242 -0.2264
vn 0.7812 0.5610 0.2737
vn 0.2786 0.6247 0.7294
vn -0.3766 0.4436 0.8132
vn -0.7470 0.5727 0.3376
vn -0.6650 0.7260 -0.1753
vn -0.2543 0.5570 -0.7906
vn 0.2221 0.5069 -0.8329
vn 0.8298 0.5366 -0.1533
s 0
f 3//1 2//1 1//1
f 4//1 3//1 1//1
f 5//1 4//1 1//1
f 6//1 5//1 1//1
f 7//1 6//1 1//1
f 8//1 7//1 1//1
f 9//1 8//1 1//1
f 2//1 9//1 1//1
f 3//2 11//2 10//2 2//2
f 4//3 12//3 11//3 3//3
f 5//4 13//4 12//4 4//4
f 6//5 14//5 13//5 5//5
f 7//6 15//6 14//6 6//6
f 8//7 16//7 15//7 7//7
f 9//8 17//8 16//8 8//8
f 2//9 10//9 17//9 9//9
f 11//10 19//10 18//10 10//10
f 12//11 20//11 19//11 11//11
f 13//12 21//12 20//12 12//12
f 14//13 22//13 21//13 13//13
f 15//14 23//14 22//14 14//14
f 16//15 24//15 23//15 15//15
f 17//16 25//16 24//16 16//16
f 10//17 18//17 25//17 17//17
f 19//18 27//18 26//18 18//18
f 20//19 28//19 27//19 19//19
f 21//20 29//20 28//20 20//20
f 22//21 30//21 29//21 21//21
f 23//22 31//22 30//22 22//22
f 24//23 32//23 31//23 23//23
f 25//24 33//24 32//24 24//24
f 18//25 26//25 33//25 25//25
