# Blender 4.4.1
# www.blender.org
o Hill_191
v -1.774153 0.000000 0.807150
v -1.774153 9.585325 0.807150
v -1.774153 9.585325 0.807150
v -1.774153 9.585325 0.807150
v -1.774153 9.585325 0.807150
v -1.774153 9.585325 0.807150
v -1.774153 9.585325 0.807150
v -1.774153 9.585325 0.807150
v -1.774153 9.585325 0.807150
v 2.031333 7.879555 0.807150
v 1.142930 7.590902 3.724234
v -1.774153 8.017405 4.621346
v -4.435081 8.058667 3.468077
v -5.882157 7.836907 0.807150
v -4.543771 7.579475 -1.962468
v -1.774153 8.022410 -3.271725
v 1.080580 7.613461 -2.047584
v 5.594613 4.123560 0.807150
v 4.023120 3.800075 6.604423
v -1.774153 4.009897 8.692070
v -7.647282 4.017558 6.680279
v -10.474055 4.598639 0.807150
v -6.548353 4.411390 -3.967049
v -1.774153 3.884612 -7.325040
v 4.347069 4.779203 -5.314073
v 11.798117 -0.686139 0.807150
v 5.194967 -0.252362 7.776270
v -1.774153 -0.781438 12.655922
v -11.413202 -0.420122 10.446199
v -11.798117 -0.263121 0.807150
v -11.534586 -0.422981 -8.953283
v -1.774153 -0.128548 -12.655922
v 7.777173 0.570347 -8.744176
vn -0.0000 1.0000 -0.0000
vn 0.3999 0.8922 0.2101
vn 0.2445 0.8968 0.3687
vn -0.1488 0.9146 0.3760
vn -0.3880 0.9117 0.1350
vn -0.3776 0.8872 -0.2649
vn -0.3035 0.8898 -0.3409
vn 0.2760 0.8975 -0.3439
vn 0.3994 0.8910 -0.2161
vn 0.6901 0.6818 0.2427
vn 0.2780 0.6943 0.6638
vn -0.2440 0.7024 0.6687
vn -0.5730 0.7550 0.3188
vn -0.5578 0.7092 -0.4311
vn -0.3954 0.6481 -0.6508
vn 0.1873 0.7517 -0.6324
vn 0.6561 0.7436 -0.1284
vn 0.6683 0.6121 0.4227
vn 0.4056 0.4986 0.7661
vn -0.1791 0.6736 0.7170
vn -0.8246 0.5307 0.1960
vn -0.7561 0.6117 -0.2325
vn -0.2568 0.7915 -0.5546
vn 0.1654 0.7506 -0.6397
vn 0.6530 0.7464 -0.1284
s 0
f 3//1 2//1 1//1
f 4//1 3//1 1//1
f 5//1 4//1 1//1
f 6//1 5//1 1//1
f 7//1 6//1 1//1
f 8//1 7//1 1//1
f 9//1 8//1 1//1
f 2//1 9//1 1//1
f 3//2 11//2 10//2 2//2
f 4//3 12//3 11//3 3//3
f 5//4 13//4 12//4 4//4
f 6//5 14//5 13//5 5//5
f 7//6 15//6 14//6 6//6
f 8//7 16//7 15//7 7//7
f 9//8 17//8 16//8 8//8
f 2//9 10//9 17//9 9//9
f 11//10 19//10 18//10 10//10
f 12//11 20//11 19//11 11//11
f 13//12 21//12 20//12 12//12
f 14//13 22//13 21//13 13//13
f 15//14 23//14 22//14 14//14
f 16//15 24//15 23//15 15//15
f 17//16 25//16 24//16 16//16
f 10//17 18//17 25//17 17//17
f 19//18 27//18 26//18 18//18
f 20//19 28//19 27//19 19//19
f 21//20 29//20 28//20 20//20
f 22//21 30//21 29//21 21//21
f 23//22 31//22 30//22 22//22
f 24//23 32//23 31//23 23//23
f 25//24 33//24 32//24 24//24
f 18//25 26//25 33//25 25//25
