# Blender 4.4.1
# www.blender.org
o Hill_234
v 1.999432 0.000000 -0.291644
v 1.999432 9.154767 -0.291644
v 1.999432 9.154767 -0.291644
v 1.999432 9.154767 -0.291644
v 1.999432 9.154767 -0.291644
v 1.999432 9.154767 -0.291644
v 1.999432 9.154767 -0.291644
v 1.999432 9.154767 -0.291644
v 1.999432 9.154767 -0.291644
v 5.576953 7.213245 -0.291644
v 4.593095 7.208754 2.302018
v 1.999432 7.095359 3.163291
v -0.617146 7.464472 2.324934
v -1.396174 7.144626 -0.291644
v -0.451786 7.171518 -2.742863
v 1.999432 7.148281 -3.648523
v 4.422198 7.637015 -2.714410
v 8.596970 4.678587 -0.291644
v 6.544491 3.779325 4.253415
v 1.999432 4.653401 6.645612
v -2.976486 4.142991 4.684275
v -4.845240 4.682485 -0.291644
v -2.328066 4.609328 -4.619142
v 1.999432 3.867615 -6.741335
v 6.670677 4.322506 -4.962889
v 10.580407 -0.407491 -0.291644
v 9.205158 -0.788296 6.914082
v 1.999432 -0.292621 9.475941
v -5.452650 -0.107330 7.160439
v -10.580407 0.615005 -0.291644
v -5.401668 0.211467 -7.692744
v 1.999432 -0.366594 -9.475941
v 8.475809 0.699799 -6.768021
vn -0.0000 1.0000 -0.0000
vn 0.4692 0.8646 0.1795
vn 0.1313 0.8515 0.5076
vn -0.0428 0.8582 0.5115
vn -0.5089 0.8596 0.0464
vn -0.5008 0.8459 -0.1836
vn -0.1785 0.8446 -0.5048
vn 0.0247 0.8581 -0.5129
vn 0.4757 0.8765 -0.0734
vn 0.6542 0.6639 0.3623
vn 0.3580 0.6955 0.6230
vn -0.2456 0.7378 0.6287
vn -0.6334 0.7349 0.2422
vn -0.5932 0.7438 -0.3080
vn -0.2373 0.6724 -0.7011
vn 0.1917 0.6563 -0.7297
vn 0.6577 0.6997 -0.2790
vn 0.8273 0.4789 0.2935
vn 0.3797 0.5398 0.7513
vn -0.2873 0.5356 0.7941
vn -0.5887 0.7010 0.4026
vn -0.5601 0.7270 -0.3971
vn -0.1931 0.5942 -0.7808
vn 0.2544 0.5270 -0.8109
vn 0.8574 0.4312 -0.2810
s 0
f 3//1 2//1 1//1
f 4//1 3//1 1//1
f 5//1 4//1 1//1
f 6//1 5//1 1//1
f 7//1 6//1 1//1
f 8//1 7//1 1//1
f 9//1 8//1 1//1
f 2//1 9//1 1//1
f 3//2 11//2 10//2 2//2
f 4//3 12//3 11//3 3//3
f 5//4 13//4 12//4 4//4
f 6//5 14//5 13//5 5//5
f 7//6 15//6 14//6 6//6
f 8//7 16//7 15//7 7//7
f 9//8 17//8 16//8 8//8
f 2//9 10//9 17//9 9//9
f 11//10 19//10 18//10 10//10
f 12//11 20//11 19//11 11//11
f 13//12 21//12 20//12 12//12
f 14//13 22//13 21//13 13//13
f 15//14 23//14 22//14 14//14
f 16//15 24//15 23//15 15//15
f 17//16 25//16 24//16 16//16
f 10//17 18//17 25//17 17//17
f 19//18 27//18 26//18 18//18
f 20//19 28//19 27//19 19//19
f 21//20 29//20 28//20 20//20
f 22//21 30//21 29//21 21//21
f 23//22 31//22 30//22 22//22
f 24//23 32//23 31//23 23//23
f 25//24 33//24 32//24 24//24
f 18//25 26//25 33//25 25//25
