# Blender 4.4.1
# www.blender.org
o Hill_149
v 1.238182 0.000000 0.223077
v 1.238182 8.862790 0.223077
v 1.238182 8.862790 0.223077
v 1.238182 8.862790 0.223077
v 1.238182 8.862790 0.223077
v 1.238182 8.862790 0.223077
v 1.238182 8.862790 0.223077
v 1.238182 8.862790 0.223077
v 1.238182 8.862790 0.223077
v 3.959080 7.333777 0.223077
v 3.006947 6.891710 1.991842
v 1.238182 7.182949 2.937931
v -0.489955 7.180191 1.951215
v -1.209019 7.171962 0.223077
v -0.494686 7.016015 -1.509791
v 1.238182 7.351010 -2.384887
v 2.958953 7.151537 -1.497694
v 6.887266 3.612745 0.223077
v 5.185908 4.273392 4.170803
v 1.238182 3.622328 4.837781
v -2.369807 3.946470 3.831066
v -4.128929 3.542367 0.223077
v -2.680338 3.992293 -3.695443
v 1.238182 4.620786 -5.209652
v 4.743896 3.486767 -3.282637
v 7.492595 -0.837850 0.223077
v 7.097178 -0.843370 6.082072
v 1.238182 -0.832487 8.958908
v -3.868046 0.456537 5.329306
v -7.492595 0.152157 0.223077
v -3.340682 -0.548745 -4.355787
v 1.238182 -0.712106 -8.958908
v 7.358299 0.069185 -5.897039
vn -0.0000 1.0000 -0.0000
vn 0.4414 0.7854 0.4339
vn 0.3884 0.7836 0.4849
vn -0.2889 0.8141 0.5037
vn -0.5537 0.8013 0.2266
vn -0.5432 0.7862 -0.2947
vn -0.3876 0.7975 -0.4623
vn 0.3378 0.8143 -0.4720
vn 0.4584 0.8157 -0.3528
vn 0.6916 0.6589 0.2958
vn 0.1857 0.5861 0.7887
vn -0.2702 0.5241 0.8077
vn -0.7419 0.6005 0.2982
vn -0.7284 0.6396 -0.2455
vn -0.3796 0.6853 -0.6215
vn 0.4934 0.5950 -0.6344
vn 0.6981 0.5548 -0.4526
vn 0.9413 0.2840 0.1823
vn 0.2514 0.5515 0.7954
vn -0.2922 0.5884 0.7539
vn -0.7095 0.5865 0.3907
vn -0.7507 0.4231 -0.5073
vn -0.5561 0.3696 -0.7444
vn 0.3803 0.6156 -0.6902
vn 0.8891 0.4224 -0.1761
s 0
f 3//1 2//1 1//1
f 4//1 3//1 1//1
f 5//1 4//1 1//1
f 6//1 5//1 1//1
f 7//1 6//1 1//1
f 8//1 7//1 1//1
f 9//1 8//1 1//1
f 2//1 9//1 1//1
f 3//2 11//2 10//2 2//2
f 4//3 12//3 11//3 3//3
f 5//4 13//4 12//4 4//4
f 6//5 14//5 13//5 5//5
f 7//6 15//6 14//6 6//6
f 8//7 16//7 15//7 7//7
f 9//8 17//8 16//8 8//8
f 2//9 10//9 17//9 9//9
f 11//10 19//10 18//10 10//10
f 12//11 20//11 19//11 11//11
f 13//12 21//12 20//12 12//12
f 14//13 22//13 21//13 13//13
f 15//14 23//14 22//14 14//14
f 16//15 24//15 23//15 15//15
f 17//16 25//16 24//16 16//16
f 10//17 18//17 25//17 17//17
f 19//18 27//18 26//18 18//18
f 20//19 28//19 27//19 19//19
f 21//20 29//20 28//20 20//20
f 22//21 30//21 29//21 21//21
f 23//22 31//22 30//22 22//22
f 24//23 32//23 31//23 23//23
f 25//24 33//24 32//24 24//24
f 18//25 26//25 33//25 25//25
