# Blender 4.4.1
# www.blender.org
o Hill_214
v -0.539076 0.000000 0.695208
v -0.539076 7.111104 0.695208
v -0.539076 7.111104 0.695208
v -0.539076 7.111104 0.695208
v -0.539076 7.111104 0.695208
v -0.539076 7.111104 0.695208
v -0.539076 7.111104 0.695208
v -0.539076 7.111104 0.695208
v -0.539076 7.111104 0.695208
v 2.397304 5.940469 0.695208
v 1.565125 5.802634 2.799409
v -0.539076 5.507238 3.607315
v -2.459482 5.745253 2.615614
v -3.478242 5.637431 0.695208
v -2.577261 5.720927 -1.342977
v -0.539076 5.657191 -2.056971
v 1.592069 5.558576 -1.435936
v 5.453054 3.554296 0.695208
v 3.762256 3.275995 4.996540
v -0.539076 2.894979 6.968771
v -4.544909 3.196232 4.701042
v -6.805838 2.786405 0.695208
v -5.055549 3.530484 -3.821265
v -0.539076 3.700274 -5.679965
v 3.785724 3.484513 -3.629592
v 9.134671 0.456193 0.695208
v 6.148344 0.377837 7.382627
v -0.539076 -0.277238 7.629406
v -5.859466 0.005514 6.015598
v -9.134671 -0.618658 0.695208
v -6.546487 0.068802 -5.312203
v -0.539076 0.351876 -7.629406
v 6.596814 -0.394745 -6.440682
vn -0.0000 1.0000 -0.0000
vn 0.3626 0.9096 0.2030
vn 0.0621 0.8742 0.4815
vn -0.1392 0.8674 0.4777
vn -0.4405 0.8786 0.1844
vn -0.4425 0.8825 -0.1594
vn -0.1347 0.8761 -0.4628
vn 0.1743 0.8707 -0.4600
vn 0.3541 0.8882 -0.2929
vn 0.5900 0.7567 0.2815
vn 0.1911 0.7573 0.6245
vn -0.2660 0.7485 0.6074
vn -0.6217 0.7314 0.2802
vn -0.6113 0.7773 -0.1491
vn -0.2065 0.8462 -0.4913
vn 0.2431 0.8378 -0.4889
vn 0.5563 0.7866 -0.2681
vn 0.6145 0.7354 0.2854
vn 0.1290 0.4849 0.8650
vn -0.3427 0.3424 0.8748
vn -0.7665 0.5030 0.3993
vn -0.8164 0.5121 -0.2669
vn -0.3409 0.4823 -0.8069
vn 0.2638 0.6000 -0.7552
vn 0.6388 0.7119 -0.2916
s 0
f 3//1 2//1 1//1
f 4//1 3//1 1//1
f 5//1 4//1 1//1
f 6//1 5//1 1//1
f 7//1 6//1 1//1
f 8//1 7//1 1//1
f 9//1 8//1 1//1
f 2//1 9//1 1//1
f 3//2 11//2 10//2 2//2
f 4//3 12//3 11//3 3//3
f 5//4 13//4 12//4 4//4
f 6//5 14//5 13//5 5//5
f 7//6 15//6 14//6 6//6
f 8//7 16//7 15//7 7//7
f 9//8 17//8 16//8 8//8
f 2//9 10//9 17//9 9//9
f 11//10 19//10 18//10 10//10
f 12//11 20//11 19//11 11//11
f 13//12 21//12 20//12 12//12
f 14//13 22//13 21//13 13//13
f 15//14 23//14 22//14 14//14
f 16//15 24//15 23//15 15//15
f 17//16 25//16 24//16 16//16
f 10//17 18//17 25//17 17//17
f 19//18 27//18 26//18 18//18
f 20//19 28//19 27//19 19//19
f 21//20 29//20 28//20 20//20
f 22//21 30//21 29//21 21//21
f 23//22 31//22 30//22 22//22
f 24//23 32//23 31//23 23//23
f 25//24 33//24 32//24 24//24
f 18//25 26//25 33//25 25//25
