# Blender 4.4.1
# www.blender.org
o Hill_256
v -0.803200 0.000000 0.893463
v -0.803200 8.406294 0.893463
v -0.803200 8.406294 0.893463
v -0.803200 8.406294 0.893463
v -0.803200 8.406294 0.893463
v -0.803200 8.406294 0.893463
v -0.803200 8.406294 0.893463
v -0.803200 8.406294 0.893463
v -0.803200 8.406294 0.893463
v 2.388721 6.583285 0.893463
v 1.543283 6.871923 3.239946
v -0.803200 7.021305 4.075912
v -3.023351 6.934449 3.113614
v -4.188479 6.528830 0.893463
v -2.942334 6.763104 -1.245671
v -0.803200 6.777881 -2.137481
v 1.344442 6.819233 -1.254179
v 5.380477 3.950075 0.893463
v 3.381017 3.578187 5.077680
v -0.803200 4.012908 7.619106
v -5.730955 4.011338 5.821218
v -7.360606 3.779064 0.893463
v -4.765346 4.070177 -3.068683
v -0.803200 3.820209 -4.706490
v 3.656611 3.958468 -3.566348
v 10.144419 0.475696 0.893463
v 6.945451 0.834818 8.642115
v -0.803200 -0.244937 9.273692
v -7.418803 0.504993 7.509065
v -10.144419 0.403057 0.893463
v -8.283859 0.571400 -6.587196
v -0.803200 0.638630 -9.273692
v 4.876783 -0.287042 -4.786521
vn -0.0000 1.0000 -0.0000
vn 0.4947 0.8661 0.0717
vn 0.1966 0.8990 0.3913
vn -0.2044 0.8976 0.3906
vn -0.4828 0.8706 0.0943
vn -0.4768 0.8596 -0.1836
vn -0.1993 0.8632 -0.4638
vn 0.1750 0.8673 -0.4660
vn 0.4908 0.8593 -0.1442
vn 0.6884 0.6565 0.3083
vn 0.3905 0.6610 0.6408
vn -0.2447 0.7540 0.6095
vn -0.6378 0.7482 0.1826
vn -0.6337 0.6952 -0.3391
vn -0.2718 0.6437 -0.7154
vn 0.1992 0.6751 -0.7103
vn 0.6447 0.7247 -0.2433
vn 0.5185 0.8245 0.2268
vn 0.1644 0.6420 0.7489
vn -0.2412 0.4275 0.8713
vn -0.7738 0.5703 0.2755
vn -0.6572 0.7187 -0.2271
vn -0.2026 0.7964 -0.5698
vn 0.4236 0.5991 -0.6795
vn 0.6493 0.5809 -0.4909
s 0
f 3//1 2//1 1//1
f 4//1 3//1 1//1
f 5//1 4//1 1//1
f 6//1 5//1 1//1
f 7//1 6//1 1//1
f 8//1 7//1 1//1
f 9//1 8//1 1//1
f 2//1 9//1 1//1
f 3//2 11//2 10//2 2//2
f 4//3 12//3 11//3 3//3
f 5//4 13//4 12//4 4//4
f 6//5 14//5 13//5 5//5
f 7//6 15//6 14//6 6//6
f 8//7 16//7 15//7 7//7
f 9//8 17//8 16//8 8//8
f 2//9 10//9 17//9 9//9
f 11//10 19//10 18//10 10//10
f 12//11 20//11 19//11 11//11
f 13//12 21//12 20//12 12//12
f 14//13 22//13 21//13 13//13
f 15//14 23//14 22//14 14//14
f 16//15 24//15 23//15 15//15
f 17//16 25//16 24//16 16//16
f 10//17 18//17 25//17 17//17
f 19//18 27//18 26//18 18//18
f 20//19 28//19 27//19 19//19
f 21//20 29//20 28//20 20//20
f 22//21 30//21 29//21 21//21
f 23//22 31//22 30//22 22//22
f 24//23 32//23 31//23 23//23
f 25//24 33//24 32//24 24//24
f 18//25 26//25 33//25 25//25
