# Blender 4.4.1
# www.blender.org
o Hill_170
v 0.930107 0.000000 -0.322175
v 0.930107 7.942572 -0.322175
v 0.930107 7.942572 -0.322175
v 0.930107 7.942572 -0.322175
v 0.930107 7.942572 -0.322175
v 0.930107 7.942572 -0.322175
v 0.930107 7.942572 -0.322175
v 0.930107 7.942572 -0.322175
v 0.930107 7.942572 -0.322175
v 3.170634 6.184101 -0.322175
v 2.472198 6.171667 1.219917
v 0.930107 6.414995 1.809953
v -0.616615 6.306866 1.224547
v -1.263536 6.584371 -0.322175
v -0.640670 6.358425 -1.892952
v 0.930107 6.673320 -2.453057
v 2.443360 6.492404 -1.835428
v 4.794735 3.714830 -0.322175
v 4.048306 3.951358 2.796023
v 0.930107 3.679062 3.748150
v -1.877045 3.524812 2.484977
v -3.139975 3.195131 -0.322175
v -1.816560 3.393249 -3.068842
v 0.930107 3.597888 -4.019204
v 3.716306 3.336744 -3.108375
v 6.412093 -0.282248 -0.322175
v 4.822181 0.376427 3.569899
v 0.930107 0.269621 7.158881
v -3.696707 0.131631 4.304639
v -6.412093 0.787380 -0.322175
v -3.430961 -0.770969 -4.683243
v 0.930107 0.652992 -7.158881
v 4.790317 -0.109946 -4.182385
vn -0.0000 1.0000 -0.0000
vn 0.5936 0.7563 0.2749
vn 0.3313 0.7670 0.5495
vn -0.2672 0.7833 0.5612
vn -0.4933 0.7967 0.3492
vn -0.4997 0.8071 -0.3143
vn -0.3343 0.8097 -0.4823
vn 0.2975 0.8202 -0.4886
vn 0.6117 0.7794 -0.1352
vn 0.7730 0.5984 0.2109
vn 0.2452 0.6114 0.7524
vn -0.3586 0.5281 0.7697
vn -0.8053 0.4803 0.3475
vn -0.8097 0.4571 -0.3680
vn -0.3431 0.4428 -0.8284
vn 0.3401 0.4466 -0.8276
vn 0.8007 0.4903 -0.3442
vn 0.9118 0.3149 0.2637
vn 0.4536 0.4945 0.7415
vn -0.3973 0.6238 0.6731
vn -0.6373 0.6756 0.3707
vn -0.6334 0.5931 -0.4971
vn -0.4599 0.5634 -0.6863
vn 0.4861 0.5365 -0.6898
vn 0.8594 0.3627 -0.3604
s 0
f 3//1 2//1 1//1
f 4//1 3//1 1//1
f 5//1 4//1 1//1
f 6//1 5//1 1//1
f 7//1 6//1 1//1
f 8//1 7//1 1//1
f 9//1 8//1 1//1
f 2//1 9//1 1//1
f 3//2 11//2 10//2 2//2
f 4//3 12//3 11//3 3//3
f 5//4 13//4 12//4 4//4
f 6//5 14//5 13//5 5//5
f 7//6 15//6 14//6 6//6
f 8//7 16//7 15//7 7//7
f 9//8 17//8 16//8 8//8
f 2//9 10//9 17//9 9//9
f 11//10 19//10 18//10 10//10
f 12//11 20//11 19//11 11//11
f 13//12 21//12 20//12 12//12
f 14//13 22//13 21//13 13//13
f 15//14 23//14 22//14 14//14
f 16//15 24//15 23//15 15//15
f 17//16 25//16 24//16 16//16
f 10//17 18//17 25//17 17//17
f 19//18 27//18 26//18 18//18
f 20//19 28//19 27//19 19//19
f 21//20 29//20 28//20 20//20
f 22//21 30//21 29//21 21//21
f 23//22 31//22 30//22 22//22
f 24//23 32//23 31//23 23//23
f 25//24 33//24 32//24 24//24
f 18//25 26//25 33//25 25//25
