# Blender 4.4.1
# www.blender.org
o Hill_183
v 0.605922 0.000000 -0.141930
v 0.605922 5.227020 -0.141930
v 0.605922 5.227020 -0.141930
v 0.605922 5.227020 -0.141930
v 0.605922 5.227020 -0.141930
v 0.605922 5.227020 -0.141930
v 0.605922 5.227020 -0.141930
v 0.605922 5.227020 -0.141930
v 0.605922 5.227020 -0.141930
v 3.131598 4.188195 -0.141930
v 2.330907 4.236994 1.583055
v 0.605922 4.196431 2.219049
v -1.100266 4.237790 1.564258
v -2.073975 4.394078 -0.141930
v -1.265635 4.371251 -2.013487
v 0.605922 4.237514 -2.658698
v 2.495665 4.157630 -2.031673
v 5.272056 2.675296 -0.141930
v 4.446084 2.472826 3.698232
v 0.605922 2.316203 5.358667
v -2.608195 2.066380 3.072187
v -4.202618 2.343819 -0.141930
v -2.898910 2.226165 -3.646763
v 0.605922 2.284293 -4.569608
v 4.277291 2.278950 -3.813299
v 7.742943 -0.107608 -0.141930
v 5.314798 -0.331631 4.566946
v 0.605922 0.098338 8.385018
v -4.817724 -0.174262 5.281716
v -7.742943 -0.410697 -0.141930
v -4.716422 0.208911 -5.464274
v 0.605922 0.173623 -8.385018
v 6.156035 0.407167 -5.692043
vn -0.0000 1.0000 -0.0000
vn 0.3762 0.9145 0.1487
vn 0.1250 0.9093 0.3969
vn -0.1302 0.9087 0.3967
vn -0.2875 0.9249 0.2488
vn -0.2939 0.9457 -0.1385
vn -0.0595 0.9290 -0.3653
vn 0.1587 0.9189 -0.3613
vn 0.3766 0.9155 -0.1415
vn 0.5420 0.8207 0.1811
vn 0.1808 0.8408 0.5103
vn -0.3579 0.7583 0.5449
vn -0.6260 0.6773 0.3865
vn -0.6592 0.6990 -0.2772
vn -0.1951 0.6849 -0.7020
vn 0.1769 0.7244 -0.6664
vn 0.5751 0.7854 -0.2289
vn 0.7883 0.5218 0.3261
vn 0.4470 0.5952 0.6678
vn -0.3650 0.7792 0.5095
vn -0.5590 0.7745 0.2962
vn -0.5957 0.7637 -0.2488
vn -0.2310 0.8188 -0.5255
vn 0.1756 0.8330 -0.5246
vn 0.6809 0.7095 -0.1815
s 0
f 3//1 2//1 1//1
f 4//1 3//1 1//1
f 5//1 4//1 1//1
f 6//1 5//1 1//1
f 7//1 6//1 1//1
f 8//1 7//1 1//1
f 9//1 8//1 1//1
f 2//1 9//1 1//1
f 3//2 11//2 10//2 2//2
f 4//3 12//3 11//3 3//3
f 5//4 13//4 12//4 4//4
f 6//5 14//5 13//5 5//5
f 7//6 15//6 14//6 6//6
f 8//7 16//7 15//7 7//7
f 9//8 17//8 16//8 8//8
f 2//9 10//9 17//9 9//9
f 11//10 19//10 18//10 10//10
f 12//11 20//11 19//11 11//11
f 13//12 21//12 20//12 12//12
f 14//13 22//13 21//13 13//13
f 15//14 23//14 22//14 14//14
f 16//15 24//15 23//15 15//15
f 17//16 25//16 24//16 16//16
f 10//17 18//17 25//17 17//17
f 19//18 27//18 26//18 18//18
f 20//19 28//19 27//19 19//19
f 21//20 29//20 28//20 20//20
f 22//21 30//21 29//21 21//21
f 23//22 31//22 30//22 22//22
f 24//23 32//23 31//23 23//23
f 25//24 33//24 32//24 24//24
f 18//25 26//25 33//25 25//25
