# Blender 4.4.1
# www.blender.org
o Hill_158
v 0.118740 0.000000 0.572445
v 0.118740 7.237447 0.572445
v 0.118740 7.237447 0.572445
v 0.118740 7.237447 0.572445
v 0.118740 7.237447 0.572445
v 0.118740 7.237447 0.572445
v 0.118740 7.237447 0.572445
v 0.118740 7.237447 0.572445
v 0.118740 7.237447 0.572445
v 2.557303 6.004788 0.572445
v 1.779387 5.861092 2.233092
v 0.118740 6.040031 3.088982
v -1.618798 5.844435 2.309983
v -2.266285 6.044918 0.572445
v -1.469365 6.005733 -1.015661
v 0.118740 6.027071 -1.852473
v 1.890700 5.887538 -1.199515
v 5.295906 2.914139 0.572445
v 3.210371 3.316624 3.664075
v 0.118740 2.980995 5.935445
v -3.289597 3.524217 3.980781
v -4.631769 3.521014 0.572445
v -3.343799 3.041061 -2.890094
v 0.118740 3.612789 -4.095169
v 3.822116 3.335862 -3.130932
v 8.337106 0.503836 0.572445
v 4.517053 0.262765 4.970758
v 0.118740 -0.681540 7.196069
v -4.383998 0.362265 5.075183
v -8.337106 -0.690570 0.572445
v -5.508616 0.128264 -5.054912
v 0.118740 -0.103222 -7.196069
v 5.534259 0.715737 -4.843074
vn -0.0000 1.0000 -0.0000
vn 0.4334 0.8575 0.2772
vn 0.3037 0.8603 0.4094
vn -0.2823 0.8663 0.4122
vn -0.4318 0.8635 0.2605
vn -0.4342 0.8684 -0.2393
vn -0.2401 0.8686 -0.4335
vn 0.2288 0.8710 -0.4348
vn 0.4398 0.8700 -0.2230
vn 0.6928 0.6102 0.3842
vn 0.4187 0.6162 0.6671
vn -0.3144 0.6658 0.6766
vn -0.6837 0.6697 0.2900
vn -0.6810 0.6447 -0.3474
vn -0.3507 0.6432 -0.6807
vn 0.2551 0.6784 -0.6890
vn 0.7063 0.6664 -0.2390
vn 0.6265 0.6135 0.4808
vn 0.4226 0.3942 0.8161
vn -0.3707 0.3555 0.8580
vn -0.7318 0.5384 0.4179
vn -0.6937 0.6595 -0.2895
vn -0.2834 0.6515 -0.7037
vn 0.2330 0.6274 -0.7430
vn 0.6566 0.7085 -0.2587
s 0
f 3//1 2//1 1//1
f 4//1 3//1 1//1
f 5//1 4//1 1//1
f 6//1 5//1 1//1
f 7//1 6//1 1//1
f 8//1 7//1 1//1
f 9//1 8//1 1//1
f 2//1 9//1 1//1
f 3//2 11//2 10//2 2//2
f 4//3 12//3 11//3 3//3
f 5//4 13//4 12//4 4//4
f 6//5 14//5 13//5 5//5
f 7//6 15//6 14//6 6//6
f 8//7 16//7 15//7 7//7
f 9//8 17//8 16//8 8//8
f 2//9 10//9 17//9 9//9
f 11//10 19//10 18//10 10//10
f 12//11 20//11 19//11 11//11
f 13//12 21//12 20//12 12//12
f 14//13 22//13 21//13 13//13
f 15//14 23//14 22//14 14//14
f 16//15 24//15 23//15 15//15
f 17//16 25//16 24//16 16//16
f 10//17 18//17 25//17 17//17
f 19//18 27//18 26//18 18//18
f 20//19 28//19 27//19 19//19
f 21//20 29//20 28//20 20//20
f 22//21 30//21 29//21 21//21
f 23//22 31//22 30//22 22//22
f 24//23 32//23 31//23 23//23
f 25//24 33//24 32//24 24//24
f 18//25 26//25 33//25 25//25
