# Blender 4.4.1
# www.blender.org
o Hill_180
v -1.093002 0.000000 -0.069919
v -1.093002 6.410963 -0.069919
v -1.093002 6.410963 -0.069919
v -1.093002 6.410963 -0.069919
v -1.093002 6.410963 -0.069919
v -1.093002 6.410963 -0.069919
v -1.093002 6.410963 -0.069919
v -1.093002 6.410963 -0.069919
v -1.093002 6.410963 -0.069919
v 1.367790 5.206008 -0.069919
v 0.667257 5.031560 1.690340
v -1.093002 5.298943 2.414598
v -2.831581 5.194241 1.668660
v -3.561547 5.185737 -0.069919
v -2.856367 5.014040 -1.833284
v -1.093002 5.255013 -2.529027
v 0.671647 5.297523 -1.834568
v 3.247866 2.520066 -0.069919
v 2.651015 2.860376 3.674099
v -1.093002 3.215235 4.650308
v -4.621312 3.260453 3.458391
v -5.369496 3.002227 -0.069919
v -4.212212 3.300180 -3.189129
v -1.093002 3.247107 -4.489244
v 2.615126 2.800329 -3.778047
v 7.282453 0.168044 -0.069919
v 4.264062 0.424453 5.287145
v -1.093002 -0.622258 6.358117
v -7.282453 0.068336 6.119532
v -6.989200 0.568791 -0.069919
v -7.115222 -0.168552 -6.092139
v -1.093002 -0.547702 -6.358117
v 4.022271 -0.210774 -5.185193
vn -0.0000 1.0000 -0.0000
vn 0.4252 0.8684 0.2553
vn 0.2932 0.8726 0.3906
vn -0.2244 0.8895 0.3981
vn -0.4374 0.8812 0.1793
vn -0.4298 0.8658 -0.2562
vn -0.2799 0.8688 -0.4084
vn 0.1441 0.8956 -0.4210
vn 0.4363 0.8910 -0.1259
vn 0.7413 0.6530 0.1550
vn 0.2738 0.7386 0.6161
vn -0.2402 0.7384 0.6301
vn -0.7066 0.6885 0.1634
vn -0.7064 0.6613 -0.2524
vn -0.2954 0.6933 -0.6573
vn 0.2271 0.6919 -0.6854
vn 0.7696 0.6219 -0.1446
vn 0.6031 0.7750 0.1888
vn 0.1551 0.4930 0.8561
vn -0.0810 0.5481 0.8325
vn -0.7827 0.6202 0.0521
vn -0.7599 0.6396 -0.1165
vn -0.1114 0.5764 -0.8095
vn 0.1911 0.4575 -0.8684
vn 0.6336 0.7183 -0.2875
s 0
f 3//1 2//1 1//1
f 4//1 3//1 1//1
f 5//1 4//1 1//1
f 6//1 5//1 1//1
f 7//1 6//1 1//1
f 8//1 7//1 1//1
f 9//1 8//1 1//1
f 2//1 9//1 1//1
f 3//2 11//2 10//2 2//2
f 4//3 12//3 11//3 3//3
f 5//4 13//4 12//4 4//4
f 6//5 14//5 13//5 5//5
f 7//6 15//6 14//6 6//6
f 8//7 16//7 15//7 7//7
f 9//8 17//8 16//8 8//8
f 2//9 10//9 17//9 9//9
f 11//10 19//10 18//10 10//10
f 12//11 20//11 19//11 11//11
f 13//12 21//12 20//12 12//12
f 14//13 22//13 21//13 13//13
f 15//14 23//14 22//14 14//14
f 16//15 24//15 23//15 15//15
f 17//16 25//16 24//16 16//16
f 10//17 18//17 25//17 17//17
f 19//18 27//18 26//18 18//18
f 20//19 28//19 27//19 19//19
f 21//20 29//20 28//20 20//20
f 22//21 30//21 29//21 21//21
f 23//22 31//22 30//22 22//22
f 24//23 32//23 31//23 23//23
f 25//24 33//24 32//24 24//24
f 18//25 26//25 33//25 25//25
