# Blender 4.4.1
# www.blender.org
o Hill_224
v -0.830811 0.000000 0.910032
v -0.830811 9.107378 0.910032
v -0.830811 9.107378 0.910032
v -0.830811 9.107378 0.910032
v -0.830811 9.107378 0.910032
v -0.830811 9.107378 0.910032
v -0.830811 9.107378 0.910032
v -0.830811 9.107378 0.910032
v -0.830811 9.107378 0.910032
v 2.283339 7.335222 0.910032
v 1.563383 7.485237 3.304225
v -0.830811 7.625147 4.168313
v -3.023031 7.067774 3.102252
v -4.186086 7.118519 0.910032
v -3.180306 7.643638 -1.439464
v -0.830811 7.593735 -2.211547
v 1.537589 7.584846 -1.458368
v 5.867435 4.742347 0.910032
v 3.489981 4.138304 5.230823
v -0.830811 3.783184 6.792455
v -5.259623 3.818058 5.338844
v -7.283558 4.051863 0.910032
v -5.906811 4.635276 -4.165969
v -0.830811 4.512142 -4.774066
v 3.854908 4.360920 -3.775687
v 9.835404 -0.243465 0.910032
v 5.699491 0.668721 7.440333
v -0.830811 -0.883907 10.728795
v -8.192523 0.308066 8.271744
v -9.835404 0.543533 0.910032
v -6.758742 0.685492 -5.017900
v -0.830811 -0.615168 -10.728795
v 7.011001 -0.199082 -6.931780
vn -0.0000 1.0000 -0.0000
vn 0.4924 0.8653 0.0939
vn 0.1986 0.8921 0.4058
vn -0.3972 0.8354 0.3800
vn -0.4897 0.8261 0.2789
vn -0.5097 0.8599 -0.0260
vn -0.1233 0.8929 -0.4330
vn 0.1407 0.8908 -0.4320
vn 0.4936 0.8673 -0.0640
vn 0.6324 0.6966 0.3388
vn 0.2641 0.5654 0.7814
vn -0.3250 0.6023 0.7291
vn -0.6539 0.6740 0.3437
vn -0.6908 0.7139 -0.1151
vn -0.1185 0.6808 -0.7228
vn 0.1980 0.6444 -0.7386
vn 0.6249 0.7368 -0.2581
vn 0.6889 0.6069 0.3963
vn 0.2241 0.6254 0.7474
vn -0.1704 0.6689 0.7235
vn -0.7106 0.6587 0.2472
vn -0.8491 0.4236 -0.3157
vn -0.3464 0.5834 -0.7346
vn 0.2403 0.7054 -0.6668
vn 0.7169 0.6322 -0.2938
s 0
f 3//1 2//1 1//1
f 4//1 3//1 1//1
f 5//1 4//1 1//1
f 6//1 5//1 1//1
f 7//1 6//1 1//1
f 8//1 7//1 1//1
f 9//1 8//1 1//1
f 2//1 9//1 1//1
f 3//2 11//2 10//2 2//2
f 4//3 12//3 11//3 3//3
f 5//4 13//4 12//4 4//4
f 6//5 14//5 13//5 5//5
f 7//6 15//6 14//6 6//6
f 8//7 16//7 15//7 7//7
f 9//8 17//8 16//8 8//8
f 2//9 10//9 17//9 9//9
f 11//10 19//10 18//10 10//10
f 12//11 20//11 19//11 11//11
f 13//12 21//12 20//12 12//12
f 14//13 22//13 21//13 13//13
f 15//14 23//14 22//14 14//14
f 16//15 24//15 23//15 15//15
f 17//16 25//16 24//16 16//16
f 10//17 18//17 25//17 17//17
f 19//18 27//18 26//18 18//18
f 20//19 28//19 27//19 19//19
f 21//20 29//20 28//20 20//20
f 22//21 30//21 29//21 21//21
f 23//22 31//22 30//22 22//22
f 24//23 32//23 31//23 23//23
f 25//24 33//24 32//24 24//24
f 18//25 26//25 33//25 25//25
