# Blender 4.4.1
# www.blender.org
o Hill_122
v -0.362118 0.000000 0.792465
v -0.362118 8.894383 0.792465
v -0.362118 8.894383 0.792465
v -0.362118 8.894383 0.792465
v -0.362118 8.894383 0.792465
v -0.362118 8.894383 0.792465
v -0.362118 8.894383 0.792465
v -0.362118 8.894383 0.792465
v -0.362118 8.894383 0.792465
v 3.359002 6.934301 0.792465
v 2.046834 7.450315 3.201417
v -0.362118 7.355561 4.157030
v -2.819093 6.915826 3.249439
v -3.762987 7.076166 0.792465
v -2.919728 7.168454 -1.765144
v -0.362118 7.471981 -2.665036
v 2.221349 6.996508 -1.791003
v 6.436462 4.261805 0.792465
v 5.229124 3.532592 6.383708
v -0.362118 3.467422 7.392865
v -5.016973 3.694416 5.447319
v -6.883667 4.102701 0.792465
v -6.099719 4.290039 -4.945136
v -0.362118 3.549804 -6.803185
v 4.307950 3.841096 -3.877604
v 12.573700 -0.600507 0.792465
v 7.694443 0.164205 8.849026
v -0.362118 0.011837 12.040276
v -7.348993 -0.130706 7.779339
v -12.573700 0.418824 0.792465
v -8.098453 0.275445 -6.943870
v -0.362118 -0.441752 -12.040276
v 8.058247 -0.774428 -7.627901
vn -0.0000 1.0000 -0.0000
vn 0.4651 0.8829 0.0642
vn 0.1282 0.9019 0.4125
vn -0.3017 0.8670 0.3965
vn -0.4586 0.8578 0.2322
vn -0.4679 0.8752 -0.1227
vn -0.2367 0.8985 -0.3696
vn 0.2864 0.8861 -0.3645
vn 0.4584 0.8702 -0.1809
vn 0.6503 0.7259 0.2241
vn 0.1654 0.6657 0.7276
vn -0.3036 0.6360 0.7094
vn -0.6616 0.6801 0.3158
vn -0.6489 0.7540 -0.1019
vn -0.1697 0.7576 -0.6303
vn 0.3561 0.6741 -0.6471
vn 0.6469 0.6897 -0.3254
vn 0.6222 0.7328 0.2756
vn 0.1869 0.7404 0.6456
vn -0.3290 0.7063 0.6268
vn -0.5610 0.7240 0.4013
vn -0.6513 0.7158 -0.2519
vn -0.2761 0.6815 -0.6778
vn 0.3269 0.7470 -0.5789
vn 0.5848 0.7408 -0.3305
s 0
f 3//1 2//1 1//1
f 4//1 3//1 1//1
f 5//1 4//1 1//1
f 6//1 5//1 1//1
f 7//1 6//1 1//1
f 8//1 7//1 1//1
f 9//1 8//1 1//1
f 2//1 9//1 1//1
f 3//2 11//2 10//2 2//2
f 4//3 12//3 11//3 3//3
f 5//4 13//4 12//4 4//4
f 6//5 14//5 13//5 5//5
f 7//6 15//6 14//6 6//6
f 8//7 16//7 15//7 7//7
f 9//8 17//8 16//8 8//8
f 2//9 10//9 17//9 9//9
f 11//10 19//10 18//10 10//10
f 12//11 20//11 19//11 11//11
f 13//12 21//12 20//12 12//12
f 14//13 22//13 21//13 13//13
f 15//14 23//14 22//14 14//14
f 16//15 24//15 23//15 15//15
f 17//16 25//16 24//16 16//16
f 10//17 18//17 25//17 17//17
f 19//18 27//18 26//18 18//18
f 20//19 28//19 27//19 19//19
f 21//20 29//20 28//20 20//20
f 22//21 30//21 29//21 21//21
f 23//22 31//22 30//22 22//22
f 24//23 32//23 31//23 23//23
f 25//24 33//24 32//24 24//24
f 18//25 26//25 33//25 25//25
