# Blender 4.4.1
# www.blender.org
o Hill_075
v -1.253808 0.000000 -0.509081
v -1.253808 5.985616 -0.509081
v -1.253808 5.985616 -0.509081
v -1.253808 5.985616 -0.509081
v -1.253808 5.985616 -0.509081
v -1.253808 5.985616 -0.509081
v -1.253808 5.985616 -0.509081
v -1.253808 5.985616 -0.509081
v -1.253808 5.985616 -0.509081
v 1.352221 4.991636 -0.509081
v 0.717184 4.649774 1.461912
v -1.253808 4.661879 2.182128
v -3.019957 4.954399 1.257068
v -3.972644 4.743769 -0.509081
v -3.183892 4.793917 -2.439164
v -1.253808 4.759133 -3.169196
v 0.641085 4.791117 -2.403974
v 4.303314 2.691212 -0.509081
v 2.827231 3.100286 3.571959
v -1.253808 2.626826 4.238306
v -5.105145 2.351793 3.342256
v -5.897586 2.336715 -0.509081
v -4.594510 2.586087 -3.849782
v -1.253808 2.676129 -6.053730
v 2.151669 2.480979 -3.914558
v 7.941449 -0.156967 -0.509081
v 5.249574 0.586070 5.994302
v -1.253808 0.440559 8.787036
v -6.316233 0.341113 4.553344
v -7.941449 0.535287 -0.509081
v -5.902567 -0.204314 -5.157840
v -1.253808 0.374084 -8.787036
v 3.831522 -0.394645 -5.594411
vn -0.0000 1.0000 -0.0000
vn 0.3435 0.9005 0.2668
vn 0.1645 0.8851 0.4354
vn -0.0823 0.8943 0.4399
vn -0.4127 0.9036 0.1149
vn -0.4111 0.9000 -0.1446
vn -0.1406 0.8991 -0.4145
vn 0.1520 0.8976 -0.4138
vn 0.3471 0.9100 -0.2266
vn 0.5463 0.8177 0.1815
vn 0.0841 0.7760 0.6251
vn -0.2174 0.7027 0.6774
vn -0.7233 0.6615 0.1981
vn -0.7432 0.6166 -0.2599
vn -0.3441 0.7184 -0.6046
vn 0.3505 0.7199 -0.5991
vn 0.6000 0.7047 -0.3787
vn 0.6177 0.7701 0.1594
vn 0.1224 0.8421 0.5253
vn -0.3272 0.7951 0.5106
vn -0.7108 0.6725 0.2063
vn -0.7126 0.6159 -0.3359
vn -0.4983 0.6139 -0.6122
vn 0.4522 0.6590 -0.6010
vn 0.5781 0.6727 -0.4618
s 0
f 3//1 2//1 1//1
f 4//1 3//1 1//1
f 5//1 4//1 1//1
f 6//1 5//1 1//1
f 7//1 6//1 1//1
f 8//1 7//1 1//1
f 9//1 8//1 1//1
f 2//1 9//1 1//1
f 3//2 11//2 10//2 2//2
f 4//3 12//3 11//3 3//3
f 5//4 13//4 12//4 4//4
f 6//5 14//5 13//5 5//5
f 7//6 15//6 14//6 6//6
f 8//7 16//7 15//7 7//7
f 9//8 17//8 16//8 8//8
f 2//9 10//9 17//9 9//9
f 11//10 19//10 18//10 10//10
f 12//11 20//11 19//11 11//11
f 13//12 21//12 20//12 12//12
f 14//13 22//13 21//13 13//13
f 15//14 23//14 22//14 14//14
f 16//15 24//15 23//15 15//15
f 17//16 25//16 24//16 16//16
f 10//17 18//17 25//17 17//17
f 19//18 27//18 26//18 18//18
f 20//19 28//19 27//19 19//19
f 21//20 29//20 28//20 20//20
f 22//21 30//21 29//21 21//21
f 23//22 31//22 30//22 22//22
f 24//23 32//23 31//23 23//23
f 25//24 33//24 32//24 24//24
f 18//25 26//25 33//25 25//25
