# Blender 4.4.1
# www.blender.org
o Hill_165
v -0.236626 0.000000 0.248472
v -0.236626 8.201788 0.248472
v -0.236626 8.201788 0.248472
v -0.236626 8.201788 0.248472
v -0.236626 8.201788 0.248472
v -0.236626 8.201788 0.248472
v -0.236626 8.201788 0.248472
v -0.236626 8.201788 0.248472
v -0.236626 8.201788 0.248472
v 3.095418 6.469633 0.248472
v 2.097287 6.508442 2.582385
v -0.236626 6.662199 3.605622
v -2.406977 6.488787 2.418823
v -3.538343 6.773681 0.248472
v -2.511646 6.746396 -2.026549
v -0.236626 6.594278 -2.786808
v 2.102257 6.820531 -2.090411
v 6.000594 3.394788 0.248472
v 3.857556 3.266936 4.342653
v -0.236626 3.460068 5.837488
v -5.199711 3.702864 5.211557
v -6.622986 3.734786 0.248472
v -4.256897 3.726722 -3.771800
v -0.236626 3.547977 -6.760770
v 4.342076 3.801069 -4.330231
v 10.853197 -0.421527 0.248472
v 5.545117 0.512318 6.030214
v -0.236626 -0.658511 10.721096
v -7.750799 -0.168741 7.762645
v -10.853197 0.595414 0.248472
v -7.091032 -0.535960 -6.605935
v -0.236626 -0.384973 -10.721096
v 6.634542 0.174829 -6.622696
vn -0.0000 1.0000 -0.0000
vn 0.4538 0.8729 0.1795
vn 0.2358 0.8833 0.4051
vn -0.2879 0.8705 0.3992
vn -0.3773 0.8723 0.3112
vn -0.3900 0.9017 -0.1868
vn -0.0969 0.8796 -0.4658
vn 0.0538 0.8824 -0.4673
vn 0.4603 0.8855 -0.0626
vn 0.7032 0.6176 0.3522
vn 0.3281 0.5607 0.7603
vn -0.1745 0.6794 0.7127
vn -0.6172 0.7446 0.2541
vn -0.6732 0.6423 -0.3664
vn -0.3406 0.6950 -0.6332
vn 0.2356 0.7365 -0.6341
vn 0.7116 0.6739 -0.1990
vn 0.5985 0.6971 0.3947
vn 0.3321 0.6932 0.6397
vn -0.1591 0.6993 0.6969
vn -0.6382 0.7182 0.2773
vn -0.5809 0.7081 -0.4015
vn -0.4087 0.6621 -0.6282
vn 0.3369 0.6587 -0.6728
vn 0.6509 0.7087 -0.2721
s 0
f 3//1 2//1 1//1
f 4//1 3//1 1//1
f 5//1 4//1 1//1
f 6//1 5//1 1//1
f 7//1 6//1 1//1
f 8//1 7//1 1//1
f 9//1 8//1 1//1
f 2//1 9//1 1//1
f 3//2 11//2 10//2 2//2
f 4//3 12//3 11//3 3//3
f 5//4 13//4 12//4 4//4
f 6//5 14//5 13//5 5//5
f 7//6 15//6 14//6 6//6
f 8//7 16//7 15//7 7//7
f 9//8 17//8 16//8 8//8
f 2//9 10//9 17//9 9//9
f 11//10 19//10 18//10 10//10
f 12//11 20//11 19//11 11//11
f 13//12 21//12 20//12 12//12
f 14//13 22//13 21//13 13//13
f 15//14 23//14 22//14 14//14
f 16//15 24//15 23//15 15//15
f 17//16 25//16 24//16 16//16
f 10//17 18//17 25//17 17//17
f 19//18 27//18 26//18 18//18
f 20//19 28//19 27//19 19//19
f 21//20 29//20 28//20 20//20
f 22//21 30//21 29//21 21//21
f 23//22 31//22 30//22 22//22
f 24//23 32//23 31//23 23//23
f 25//24 33//24 32//24 24//24
f 18//25 26//25 33//25 25//25
