# Blender 4.4.1
# www.blender.org
o Hill_151
v -0.519033 0.000000 -0.673676
v -0.519033 9.174491 -0.673676
v -0.519033 9.174491 -0.673676
v -0.519033 9.174491 -0.673676
v -0.519033 9.174491 -0.673676
v -0.519033 9.174491 -0.673676
v -0.519033 9.174491 -0.673676
v -0.519033 9.174491 -0.673676
v -0.519033 9.174491 -0.673676
v 2.178148 7.197761 -0.673676
v 1.335083 7.529134 1.180440
v -0.519033 7.283567 2.153868
v -2.400791 7.452542 1.208083
v -3.365288 7.549872 -0.673676
v -2.462924 7.200044 -2.617567
v -0.519033 7.359807 -3.361547
v 1.506037 7.328281 -2.698746
v 5.382015 4.215175 -0.673676
v 3.116886 3.947603 2.962243
v -0.519033 3.669412 5.306147
v -4.847281 4.574467 3.654572
v -5.776416 4.770400 -0.673676
v -4.339700 4.002761 -4.494343
v -0.519033 4.495715 -6.611930
v 3.801689 3.620666 -4.994397
v 7.507977 -0.497112 -0.673676
v 5.800431 -0.293711 5.645788
v -0.519033 -0.378295 8.288220
v -7.507977 0.754938 6.315269
v -7.276783 -0.762204 -0.673676
v -6.133561 -0.162954 -6.288204
v -0.519033 -0.384226 -8.288220
v 5.564158 0.577483 -6.756866
vn -0.0000 1.0000 -0.0000
vn 0.5866 0.8004 0.1237
vn 0.1788 0.8179 0.5469
vn -0.2006 0.8144 0.5446
vn -0.4749 0.8321 0.2865
vn -0.4624 0.8101 -0.3604
vn -0.2717 0.7976 -0.5385
vn 0.1924 0.8133 -0.5491
vn 0.5851 0.7983 -0.1427
vn 0.6840 0.6227 0.3800
vn 0.3776 0.5854 0.7174
vn -0.1795 0.6804 0.7105
vn -0.6825 0.6901 0.2407
vn -0.6826 0.6141 -0.3960
vn -0.3921 0.6618 -0.6389
vn 0.3333 0.6734 -0.6599
vn 0.6870 0.6651 -0.2925
vn 0.7916 0.5209 0.3193
vn 0.3395 0.6032 0.7217
vn -0.1407 0.6080 0.7813
vn -0.9127 0.4085 0.0086
vn -0.9010 0.3528 -0.2527
vn -0.3768 0.3960 -0.8374
vn 0.2579 0.4324 -0.8640
vn 0.8377 0.4794 -0.2616
s 0
f 3//1 2//1 1//1
f 4//1 3//1 1//1
f 5//1 4//1 1//1
f 6//1 5//1 1//1
f 7//1 6//1 1//1
f 8//1 7//1 1//1
f 9//1 8//1 1//1
f 2//1 9//1 1//1
f 3//2 11//2 10//2 2//2
f 4//3 12//3 11//3 3//3
f 5//4 13//4 12//4 4//4
f 6//5 14//5 13//5 5//5
f 7//6 15//6 14//6 6//6
f 8//7 16//7 15//7 7//7
f 9//8 17//8 16//8 8//8
f 2//9 10//9 17//9 9//9
f 11//10 19//10 18//10 10//10
f 12//11 20//11 19//11 11//11
f 13//12 21//12 20//12 12//12
f 14//13 22//13 21//13 13//13
f 15//14 23//14 22//14 14//14
f 16//15 24//15 23//15 15//15
f 17//16 25//16 24//16 16//16
f 10//17 18//17 25//17 17//17
f 19//18 27//18 26//18 18//18
f 20//19 28//19 27//19 19//19
f 21//20 29//20 28//20 20//20
f 22//21 30//21 29//21 21//21
f 23//22 31//22 30//22 22//22
f 24//23 32//23 31//23 23//23
f 25//24 33//24 32//24 24//24
f 18//25 26//25 33//25 25//25
