# Blender 4.4.1
# www.blender.org
o Hill_187
v -1.043371 0.000000 -0.061127
v -1.043371 7.979188 -0.061127
v -1.043371 7.979188 -0.061127
v -1.043371 7.979188 -0.061127
v -1.043371 7.979188 -0.061127
v -1.043371 7.979188 -0.061127
v -1.043371 7.979188 -0.061127
v -1.043371 7.979188 -0.061127
v -1.043371 7.979188 -0.061127
v 1.084017 6.455431 -0.061127
v 0.484913 6.562105 1.467157
v -1.043371 6.478458 2.039133
v -2.479661 6.588709 1.375164
v -3.093555 6.290092 -0.061127
v -2.467623 6.470317 -1.485379
v -1.043371 6.490692 -1.996117
v 0.369582 6.576380 -1.474080
v 3.263243 3.604425 -0.061127
v 2.012461 3.204137 2.994705
v -1.043371 3.151220 4.098750
v -3.594042 4.159745 2.489544
v -4.966790 3.355356 -0.061127
v -3.968591 3.963862 -2.986347
v -1.043371 3.333667 -4.273315
v 1.891519 3.503348 -2.996017
v 6.193065 0.013597 -0.061127
v 3.446301 0.637082 4.428545
v -1.043371 -0.357291 6.833729
v -6.193065 -0.301627 5.088567
v -6.093130 -0.644759 -0.061127
v -5.414847 -0.529624 -4.432603
v -1.043371 -0.538574 -6.833729
v 2.528311 0.081707 -3.632809
vn -0.0000 1.0000 -0.0000
vn 0.5739 0.8013 0.1691
vn 0.1705 0.8017 0.5729
vn -0.2020 0.7969 0.5694
vn -0.6320 0.7671 0.1106
vn -0.6256 0.7594 -0.1789
vn -0.2241 0.7725 -0.5942
vn 0.1745 0.7805 -0.6004
vn 0.5681 0.7932 -0.2194
vn 0.7665 0.5423 0.3441
vn 0.2835 0.5029 0.8165
vn -0.3166 0.5043 0.8034
vn -0.8176 0.5107 0.2661
vn -0.8069 0.5557 -0.2005
vn -0.2396 0.5819 -0.7771
vn 0.2919 0.5489 -0.7832
vn 0.7484 0.5592 -0.3566
vn 0.7183 0.5935 0.3630
vn 0.2729 0.5873 0.7620
vn -0.2510 0.5936 0.7646
vn -0.9018 0.4235 0.0860
vn -0.9318 0.3134 -0.1830
vn -0.3704 0.4525 -0.8112
vn 0.4910 0.3853 -0.7813
vn 0.7181 0.4159 -0.5580
s 0
f 3//1 2//1 1//1
f 4//1 3//1 1//1
f 5//1 4//1 1//1
f 6//1 5//1 1//1
f 7//1 6//1 1//1
f 8//1 7//1 1//1
f 9//1 8//1 1//1
f 2//1 9//1 1//1
f 3//2 11//2 10//2 2//2
f 4//3 12//3 11//3 3//3
f 5//4 13//4 12//4 4//4
f 6//5 14//5 13//5 5//5
f 7//6 15//6 14//6 6//6
f 8//7 16//7 15//7 7//7
f 9//8 17//8 16//8 8//8
f 2//9 10//9 17//9 9//9
f 11//10 19//10 18//10 10//10
f 12//11 20//11 19//11 11//11
f 13//12 21//12 20//12 12//12
f 14//13 22//13 21//13 13//13
f 15//14 23//14 22//14 14//14
f 16//15 24//15 23//15 15//15
f 17//16 25//16 24//16 16//16
f 10//17 18//17 25//17 17//17
f 19//18 27//18 26//18 18//18
f 20//19 28//19 27//19 19//19
f 21//20 29//20 28//20 20//20
f 22//21 30//21 29//21 21//21
f 23//22 31//22 30//22 22//22
f 24//23 32//23 31//23 23//23
f 25//24 33//24 32//24 24//24
f 18//25 26//25 33//25 25//25
