# Blender 4.4.1
# www.blender.org
o Hill_184
v 0.128812 0.000000 0.379277
v 0.128812 8.894546 0.379277
v 0.128812 8.894546 0.379277
v 0.128812 8.894546 0.379277
v 0.128812 8.894546 0.379277
v 0.128812 8.894546 0.379277
v 0.128812 8.894546 0.379277
v 0.128812 8.894546 0.379277
v 0.128812 8.894546 0.379277
v 2.455829 7.300573 0.379277
v 1.598143 6.991335 1.848608
v 0.128812 6.935339 2.433020
v -1.351321 7.145870 1.859410
v -2.016782 7.357055 0.379277
v -1.440657 7.403329 -1.190192
v 0.128812 6.979940 -1.691736
v 1.667536 7.368067 -1.159447
v 5.020927 3.553617 0.379277
v 2.917631 3.714500 3.168096
v 0.128812 3.677135 5.037289
v -3.296860 4.606342 3.804949
v -4.453163 4.274020 0.379277
v -2.783339 4.211548 -2.532874
v 0.128812 3.497938 -4.159231
v 3.059956 4.593593 -2.551867
v 6.709218 0.471384 0.379277
v 5.177418 0.612878 5.427883
v 0.128812 0.090270 6.884126
v -5.342783 0.370541 5.850873
v -6.709218 -0.238094 0.379277
v -3.657478 -0.479239 -3.407013
v 0.128812 -0.772468 -6.884126
v 3.880885 -0.190930 -3.372796
vn -0.0000 1.0000 -0.0000
vn 0.5047 0.7369 0.4497
vn 0.2398 0.7025 0.6701
vn -0.1624 0.7140 0.6811
vn -0.5449 0.7604 0.3535
vn -0.5723 0.7986 -0.1865
vn -0.0188 0.7342 -0.6787
vn 0.0496 0.7334 -0.6780
vn 0.5478 0.7997 -0.2456
vn 0.7087 0.4877 0.5098
vn 0.4151 0.5285 0.7405
vn -0.1307 0.6388 0.7582
vn -0.7194 0.6476 0.2512
vn -0.7542 0.5355 -0.3799
vn -0.2563 0.5176 -0.8163
vn 0.2069 0.5466 -0.8114
vn 0.7701 0.5399 -0.3399
vn 0.7408 0.5902 0.3208
vn 0.2862 0.5697 0.7704
vn -0.1566 0.4725 0.8673
vn -0.8614 0.4691 0.1946
vn -0.7691 0.3145 -0.5564
vn -0.5306 0.3600 -0.7674
vn 0.5114 0.3531 -0.7834
vn 0.7819 0.3061 -0.5430
s 0
f 3//1 2//1 1//1
f 4//1 3//1 1//1
f 5//1 4//1 1//1
f 6//1 5//1 1//1
f 7//1 6//1 1//1
f 8//1 7//1 1//1
f 9//1 8//1 1//1
f 2//1 9//1 1//1
f 3//2 11//2 10//2 2//2
f 4//3 12//3 11//3 3//3
f 5//4 13//4 12//4 4//4
f 6//5 14//5 13//5 5//5
f 7//6 15//6 14//6 6//6
f 8//7 16//7 15//7 7//7
f 9//8 17//8 16//8 8//8
f 2//9 10//9 17//9 9//9
f 11//10 19//10 18//10 10//10
f 12//11 20//11 19//11 11//11
f 13//12 21//12 20//12 12//12
f 14//13 22//13 21//13 13//13
f 15//14 23//14 22//14 14//14
f 16//15 24//15 23//15 15//15
f 17//16 25//16 24//16 16//16
f 10//17 18//17 25//17 17//17
f 19//18 27//18 26//18 18//18
f 20//19 28//19 27//19 19//19
f 21//20 29//20 28//20 20//20
f 22//21 30//21 29//21 21//21
f 23//22 31//22 30//22 22//22
f 24//23 32//23 31//23 23//23
f 25//24 33//24 32//24 24//24
f 18//25 26//25 33//25 25//25
