# Blender 4.4.1
# www.blender.org
o Hill_137
v -0.284365 0.000000 -0.527103
v -0.284365 6.879721 -0.527103
v -0.284365 6.879721 -0.527103
v -0.284365 6.879721 -0.527103
v -0.284365 6.879721 -0.527103
v -0.284365 6.879721 -0.527103
v -0.284365 6.879721 -0.527103
v -0.284365 6.879721 -0.527103
v -0.284365 6.879721 -0.527103
v 2.535480 5.540284 -0.527103
v 1.703821 5.731098 1.461084
v -0.284365 5.517100 2.283900
v -2.162330 5.761066 1.350862
v -3.258733 5.749610 -0.527103
v -2.227333 5.350757 -2.470071
v -0.284365 5.503688 -3.338780
v 1.753951 5.525164 -2.565420
v 5.513287 3.001660 -0.527103
v 3.723924 3.113877 3.481186
v -0.284365 3.473017 5.776368
v -4.257390 2.999558 3.445921
v -5.472221 3.521961 -0.527103
v -3.923401 3.586276 -4.166139
v -0.284365 3.328521 -5.643336
v 3.465104 2.698869 -4.276572
v 7.236544 0.029020 -0.527103
v 4.567385 -0.132900 4.324647
v -0.284365 -0.054637 8.959266
v -6.568608 -0.295928 5.757140
v -7.236544 0.023388 -0.527103
v -5.373792 -0.084761 -5.616529
v -0.284365 0.362753 -8.959266
v 4.596187 0.384312 -5.407655
vn -0.0000 1.0000 -0.0000
vn 0.4272 0.8994 0.0924
vn 0.0834 0.8967 0.4347
vn -0.0993 0.8954 0.4340
vn -0.3482 0.9164 0.1977
vn -0.3320 0.8737 -0.3556
vn -0.2582 0.8678 -0.4247
vn 0.1554 0.8873 -0.4342
vn 0.4229 0.8903 -0.1688
vn 0.6461 0.7226 0.2459
vn 0.3037 0.7795 0.5478
vn -0.3318 0.7731 0.5405
vn -0.6481 0.6926 0.3165
vn -0.6040 0.7287 -0.3229
vn -0.2484 0.7408 -0.6242
vn 0.3212 0.6573 -0.6818
vn 0.6458 0.6770 -0.3529
vn 0.8199 0.3946 0.4148
vn 0.5567 0.4746 0.6818
vn -0.3940 0.6537 0.6461
vn -0.8107 0.5523 0.1941
vn -0.8352 0.4410 -0.3287
vn -0.3999 0.5907 -0.7008
vn 0.4153 0.6364 -0.6500
vn 0.7625 0.4996 -0.4112
s 0
f 3//1 2//1 1//1
f 4//1 3//1 1//1
f 5//1 4//1 1//1
f 6//1 5//1 1//1
f 7//1 6//1 1//1
f 8//1 7//1 1//1
f 9//1 8//1 1//1
f 2//1 9//1 1//1
f 3//2 11//2 10//2 2//2
f 4//3 12//3 11//3 3//3
f 5//4 13//4 12//4 4//4
f 6//5 14//5 13//5 5//5
f 7//6 15//6 14//6 6//6
f 8//7 16//7 15//7 7//7
f 9//8 17//8 16//8 8//8
f 2//9 10//9 17//9 9//9
f 11//10 19//10 18//10 10//10
f 12//11 20//11 19//11 11//11
f 13//12 21//12 20//12 12//12
f 14//13 22//13 21//13 13//13
f 15//14 23//14 22//14 14//14
f 16//15 24//15 23//15 15//15
f 17//16 25//16 24//16 16//16
f 10//17 18//17 25//17 17//17
f 19//18 27//18 26//18 18//18
f 20//19 28//19 27//19 19//19
f 21//20 29//20 28//20 20//20
f 22//21 30//21 29//21 21//21
f 23//22 31//22 30//22 22//22
f 24//23 32//23 31//23 23//23
f 25//24 33//24 32//24 24//24
f 18//25 26//25 33//25 25//25
