# Blender 4.4.1
# www.blender.org
o Hill_155
v -0.612897 0.000000 -1.101101
v -0.612897 9.151411 -1.101101
v -0.612897 9.151411 -1.101101
v -0.612897 9.151411 -1.101101
v -0.612897 9.151411 -1.101101
v -0.612897 9.151411 -1.101101
v -0.612897 9.151411 -1.101101
v -0.612897 9.151411 -1.101101
v -0.612897 9.151411 -1.101101
v 2.820949 7.626534 -1.101101
v 1.751838 7.568551 1.263633
v -0.612897 7.666770 2.370093
v -3.077931 7.151281 1.363933
v -4.076294 7.577567 -1.101101
v -2.869398 7.561369 -3.357603
v -0.612897 7.347438 -4.536701
v 1.750099 7.671247 -3.464097
v 5.227372 4.319142 -1.101101
v 3.477044 4.240673 2.988840
v -0.612897 4.341132 4.916293
v -5.245447 4.069597 3.531449
v -7.932039 4.343202 -1.101101
v -4.891472 3.823367 -5.379677
v -0.612897 4.773631 -7.837152
v 3.733402 4.300246 -5.447401
v 8.634980 0.297500 -1.101101
v 7.562941 0.274889 7.074737
v -0.612897 0.036987 10.424149
v -8.084137 0.111928 6.370139
v -8.634980 0.583445 -1.101101
v -7.036641 -0.909518 -7.524846
v -0.612897 -0.169352 -10.424149
v 6.876123 0.881460 -8.590121
vn -0.0000 1.0000 -0.0000
vn 0.3975 0.8952 0.2017
vn 0.2169 0.8975 0.3839
vn -0.3327 0.8671 0.3708
vn -0.3935 0.8658 0.3091
vn -0.4034 0.8877 -0.2221
vn -0.1570 0.8744 -0.4591
vn 0.0893 0.8818 -0.4630
vn 0.4003 0.9015 -0.1644
vn 0.7553 0.5592 0.3418
vn 0.3643 0.5682 0.7379
vn -0.3099 0.6292 0.7128
vn -0.6003 0.7032 0.3810
vn -0.6132 0.6480 -0.4517
vn -0.4208 0.6598 -0.6226
vn 0.3460 0.6851 -0.6410
vn 0.7588 0.5843 -0.2878
vn 0.6771 0.7179 0.1617
vn 0.2381 0.7835 0.5740
vn -0.2910 0.7276 0.6212
vn -0.8402 0.4791 0.2542
vn -0.8193 0.3826 -0.4271
vn -0.4532 0.4707 -0.7570
vn 0.2402 0.6085 -0.7563
vn 0.7060 0.6896 -0.1611
s 0
f 3//1 2//1 1//1
f 4//1 3//1 1//1
f 5//1 4//1 1//1
f 6//1 5//1 1//1
f 7//1 6//1 1//1
f 8//1 7//1 1//1
f 9//1 8//1 1//1
f 2//1 9//1 1//1
f 3//2 11//2 10//2 2//2
f 4//3 12//3 11//3 3//3
f 5//4 13//4 12//4 4//4
f 6//5 14//5 13//5 5//5
f 7//6 15//6 14//6 6//6
f 8//7 16//7 15//7 7//7
f 9//8 17//8 16//8 8//8
f 2//9 10//9 17//9 9//9
f 11//10 19//10 18//10 10//10
f 12//11 20//11 19//11 11//11
f 13//12 21//12 20//12 12//12
f 14//13 22//13 21//13 13//13
f 15//14 23//14 22//14 14//14
f 16//15 24//15 23//15 15//15
f 17//16 25//16 24//16 16//16
f 10//17 18//17 25//17 17//17
f 19//18 27//18 26//18 18//18
f 20//19 28//19 27//19 19//19
f 21//20 29//20 28//20 20//20
f 22//21 30//21 29//21 21//21
f 23//22 31//22 30//22 22//22
f 24//23 32//23 31//23 23//23
f 25//24 33//24 32//24 24//24
f 18//25 26//25 33//25 25//25
