# Blender 4.4.1
# www.blender.org
o Hill_087
v 0.047398 0.000000 0.918309
v 0.047398 6.220145 0.918309
v 0.047398 6.220145 0.918309
v 0.047398 6.220145 0.918309
v 0.047398 6.220145 0.918309
v 0.047398 6.220145 0.918309
v 0.047398 6.220145 0.918309
v 0.047398 6.220145 0.918309
v 0.047398 6.220145 0.918309
v 2.605547 5.051832 0.918309
v 1.955746 4.867691 2.826657
v 0.047398 5.137714 3.517410
v -1.758747 5.058224 2.724455
v -2.413957 4.923671 0.918309
v -1.729310 4.945883 -0.858399
v 0.047398 4.990327 -1.523518
v 1.993895 5.054598 -1.028188
v 5.402592 3.060446 0.918309
v 4.094731 3.146500 4.965642
v 0.047398 2.519827 5.422331
v -3.379166 2.879592 4.344873
v -5.718122 3.035738 0.918309
v -3.245572 2.447911 -2.374661
v 0.047398 2.991943 -4.159362
v 4.182567 2.529438 -3.216860
v 8.944349 0.520779 0.918309
v 6.420520 -0.181171 7.291431
v 0.047398 0.070836 8.373557
v -5.903791 -0.473938 6.869498
v -8.944349 0.495564 0.918309
v -5.639353 0.145091 -4.768442
v 0.047398 -0.565737 -8.373557
v 6.057320 -0.180437 -5.091613
vn -0.0000 1.0000 -0.0000
vn 0.4049 0.8866 0.2234
vn 0.2605 0.8913 0.3712
vn -0.2050 0.9035 0.3763
vn -0.4636 0.8801 0.1026
vn -0.4596 0.8725 -0.1662
vn -0.1874 0.8773 -0.4419
vn 0.0847 0.8899 -0.4482
vn 0.4120 0.9021 -0.1282
vn 0.5363 0.8224 0.1898
vn 0.0937 0.7031 0.7049
vn -0.2326 0.6258 0.7445
vn -0.5414 0.7803 0.3130
vn -0.5368 0.7339 -0.4162
vn -0.3770 0.6938 -0.6136
vn 0.1966 0.7582 -0.6217
vn 0.5899 0.7696 -0.2445
vn 0.6241 0.7322 0.2728
vn 0.0814 0.6899 0.7193
vn -0.1981 0.7170 0.6684
vn -0.5600 0.7211 0.4078
vn -0.4950 0.7718 -0.3992
vn -0.3221 0.7632 -0.5602
vn 0.2749 0.7110 -0.6472
vn 0.5956 0.7324 -0.3301
s 0
f 3//1 2//1 1//1
f 4//1 3//1 1//1
f 5//1 4//1 1//1
f 6//1 5//1 1//1
f 7//1 6//1 1//1
f 8//1 7//1 1//1
f 9//1 8//1 1//1
f 2//1 9//1 1//1
f 3//2 11//2 10//2 2//2
f 4//3 12//3 11//3 3//3
f 5//4 13//4 12//4 4//4
f 6//5 14//5 13//5 5//5
f 7//6 15//6 14//6 6//6
f 8//7 16//7 15//7 7//7
f 9//8 17//8 16//8 8//8
f 2//9 10//9 17//9 9//9
f 11//10 19//10 18//10 10//10
f 12//11 20//11 19//11 11//11
f 13//12 21//12 20//12 12//12
f 14//13 22//13 21//13 13//13
f 15//14 23//14 22//14 14//14
f 16//15 24//15 23//15 15//15
f 17//16 25//16 24//16 16//16
f 10//17 18//17 25//17 17//17
f 19//18 27//18 26//18 18//18
f 20//19 28//19 27//19 19//19
f 21//20 29//20 28//20 20//20
f 22//21 30//21 29//21 21//21
f 23//22 31//22 30//22 22//22
f 24//23 32//23 31//23 23//23
f 25//24 33//24 32//24 24//24
f 18//25 26//25 33//25 25//25
