# Blender 4.4.1
# www.blender.org
o Hill_232
v 0.258172 0.000000 1.336197
v 0.258172 5.698288 1.336197
v 0.258172 5.698288 1.336197
v 0.258172 5.698288 1.336197
v 0.258172 5.698288 1.336197
v 0.258172 5.698288 1.336197
v 0.258172 5.698288 1.336197
v 0.258172 5.698288 1.336197
v 0.258172 5.698288 1.336197
v 3.362934 4.526628 1.336197
v 2.336103 4.598855 3.414129
v 0.258172 4.652575 4.231470
v -1.898765 4.487031 3.493134
v -2.550434 4.500784 1.336197
v -1.717120 4.635677 -0.639094
v 0.258172 4.546299 -1.608464
v 2.285203 4.646293 -0.690834
v 5.412034 2.475192 1.336197
v 4.628966 2.722284 5.706992
v 0.258172 2.425536 7.897096
v -4.296658 2.470064 5.891027
v -5.591196 2.812603 1.336197
v -4.133371 2.619633 -3.055346
v 0.258172 2.628052 -5.021342
v 4.911340 2.460259 -3.316971
v 8.804094 0.334757 1.336197
v 5.551612 0.328832 6.629638
v 0.258172 0.009021 8.412054
v -5.687158 -0.426996 7.281527
v -8.804094 -0.378045 1.336197
v -5.457181 -0.322858 -4.379156
v 0.258172 0.427253 -8.412054
v 7.044549 -0.478482 -5.450180
vn -0.0000 1.0000 -0.0000
vn 0.3496 0.9263 0.1405
vn 0.1560 0.9290 0.3355
vn -0.1852 0.9243 0.3338
vn -0.3892 0.9128 0.1234
vn -0.3902 0.9151 -0.1021
vn -0.1354 0.9227 -0.3610
vn 0.1182 0.9247 -0.3618
vn 0.3500 0.9275 -0.1313
vn 0.6238 0.7695 0.1370
vn 0.2022 0.8412 0.5015
vn -0.2194 0.8379 0.4997
vn -0.4948 0.8483 0.1885
vn -0.4943 0.8493 -0.1856
vn -0.2126 0.8485 -0.4846
vn 0.2007 0.8486 -0.4895
vn 0.6227 0.7707 -0.1350
vn 0.6716 0.6926 0.2631
vn 0.3411 0.3287 0.8807
vn -0.2771 0.3878 0.8791
vn -0.7174 0.6166 0.3244
vn -0.7160 0.6049 -0.3486
vn -0.4153 0.6705 -0.6148
vn 0.3079 0.7529 -0.5816
vn 0.6275 0.7578 -0.1788
s 0
f 3//1 2//1 1//1
f 4//1 3//1 1//1
f 5//1 4//1 1//1
f 6//1 5//1 1//1
f 7//1 6//1 1//1
f 8//1 7//1 1//1
f 9//1 8//1 1//1
f 2//1 9//1 1//1
f 3//2 11//2 10//2 2//2
f 4//3 12//3 11//3 3//3
f 5//4 13//4 12//4 4//4
f 6//5 14//5 13//5 5//5
f 7//6 15//6 14//6 6//6
f 8//7 16//7 15//7 7//7
f 9//8 17//8 16//8 8//8
f 2//9 10//9 17//9 9//9
f 11//10 19//10 18//10 10//10
f 12//11 20//11 19//11 11//11
f 13//12 21//12 20//12 12//12
f 14//13 22//13 21//13 13//13
f 15//14 23//14 22//14 14//14
f 16//15 24//15 23//15 15//15
f 17//16 25//16 24//16 16//16
f 10//17 18//17 25//17 17//17
f 19//18 27//18 26//18 18//18
f 20//19 28//19 27//19 19//19
f 21//20 29//20 28//20 20//20
f 22//21 30//21 29//21 21//21
f 23//22 31//22 30//22 22//22
f 24//23 32//23 31//23 23//23
f 25//24 33//24 32//24 24//24
f 18//25 26//25 33//25 25//25
