# Blender 4.4.1
# www.blender.org
o Hill_189
v 0.250197 0.000000 -0.402407
v 0.250197 9.105890 -0.402407
v 0.250197 9.105890 -0.402407
v 0.250197 9.105890 -0.402407
v 0.250197 9.105890 -0.402407
v 0.250197 9.105890 -0.402407
v 0.250197 9.105890 -0.402407
v 0.250197 9.105890 -0.402407
v 0.250197 9.105890 -0.402407
v 3.851529 7.590775 -0.402407
v 2.675204 7.475131 2.022600
v 0.250197 7.100992 3.281011
v -2.217175 7.288940 2.064964
v -3.169297 7.233989 -0.402407
v -2.143206 7.513158 -2.795809
v 0.250197 7.448178 -3.772230
v 2.694192 7.311868 -2.846402
v 8.108969 4.373711 -0.402407
v 5.314462 3.771152 4.661858
v 0.250197 4.048295 6.053618
v -4.030880 4.328018 3.878670
v -6.488634 4.092955 -0.402407
v -4.189771 3.747329 -4.842375
v 0.250197 4.613142 -6.691157
v 4.674393 3.901006 -4.826603
v 9.225132 -0.516409 -0.402407
v 7.377063 -0.660276 6.724459
v 0.250197 -0.284973 11.423170
v -7.596796 0.355906 7.444585
v -9.225132 -0.635035 -0.402407
v -7.669609 0.637686 -8.322213
v 0.250197 0.828563 -11.423170
v 7.740260 -0.012762 -7.892470
vn -0.0000 1.0000 -0.0000
vn 0.3777 0.8979 0.2261
vn 0.1119 0.8728 0.4751
vn -0.1664 0.8661 0.4714
vn -0.4737 0.8654 0.1635
vn -0.4776 0.8725 -0.1030
vn -0.1539 0.8866 -0.4362
vn 0.2123 0.8768 -0.4313
vn 0.3726 0.8856 -0.2775
vn 0.5803 0.7220 0.3769
vn 0.2423 0.6624 0.7089
vn -0.3118 0.6339 0.7078
vn -0.6784 0.6641 0.3142
vn -0.6903 0.6376 -0.3421
vn -0.3587 0.6296 -0.6891
vn 0.3549 0.6441 -0.6777
vn 0.5747 0.6779 -0.4584
vn 0.8601 0.3708 0.3503
vn 0.3671 0.6503 0.6651
vn -0.2491 0.7569 0.6042
vn -0.7559 0.6260 0.1914
vn -0.7308 0.6589 -0.1785
vn -0.2849 0.7902 -0.5427
vn 0.3583 0.7310 -0.5808
vn 0.8029 0.4964 -0.3302
s 0
f 3//1 2//1 1//1
f 4//1 3//1 1//1
f 5//1 4//1 1//1
f 6//1 5//1 1//1
f 7//1 6//1 1//1
f 8//1 7//1 1//1
f 9//1 8//1 1//1
f 2//1 9//1 1//1
f 3//2 11//2 10//2 2//2
f 4//3 12//3 11//3 3//3
f 5//4 13//4 12//4 4//4
f 6//5 14//5 13//5 5//5
f 7//6 15//6 14//6 6//6
f 8//7 16//7 15//7 7//7
f 9//8 17//8 16//8 8//8
f 2//9 10//9 17//9 9//9
f 11//10 19//10 18//10 10//10
f 12//11 20//11 19//11 11//11
f 13//12 21//12 20//12 12//12
f 14//13 22//13 21//13 13//13
f 15//14 23//14 22//14 14//14
f 16//15 24//15 23//15 15//15
f 17//16 25//16 24//16 16//16
f 10//17 18//17 25//17 17//17
f 19//18 27//18 26//18 18//18
f 20//19 28//19 27//19 19//19
f 21//20 29//20 28//20 20//20
f 22//21 30//21 29//21 21//21
f 23//22 31//22 30//22 22//22
f 24//23 32//23 31//23 23//23
f 25//24 33//24 32//24 24//24
f 18//25 26//25 33//25 25//25
