# Blender 4.4.1
# www.blender.org
o Hill_217
v 0.706744 0.000000 0.488859
v 0.706744 8.797881 0.488859
v 0.706744 8.797881 0.488859
v 0.706744 8.797881 0.488859
v 0.706744 8.797881 0.488859
v 0.706744 8.797881 0.488859
v 0.706744 8.797881 0.488859
v 0.706744 8.797881 0.488859
v 0.706744 8.797881 0.488859
v 4.261991 7.294348 0.488859
v 3.390254 7.089749 3.172369
v 0.706744 7.173366 3.983369
v -1.773866 6.918584 2.969469
v -3.012252 7.018581 0.488859
v -1.734679 7.352799 -1.952565
v 0.706744 6.857744 -3.146804
v 3.275927 7.291443 -2.080324
v 8.435623 3.450674 0.488859
v 6.516675 3.579510 6.298790
v 0.706744 4.392698 8.661237
v -4.261316 4.055902 5.456919
v -5.838034 3.465864 0.488859
v -3.912608 4.096868 -4.130494
v 0.706744 4.542757 -6.052987
v 5.919738 4.504169 -4.724135
v 9.865232 0.537415 0.488859
v 8.575201 -0.167858 8.357315
v 0.706744 -0.377366 12.566829
v -7.366617 0.063100 8.562220
v -9.865232 -0.037005 0.488859
v -6.813174 0.666542 -7.031060
v 0.706744 0.306984 -12.566829
v 7.294220 -0.064033 -6.098617
vn -0.0000 1.0000 -0.0000
vn 0.3822 0.9037 0.1931
vn 0.1538 0.8960 0.4165
vn -0.2566 0.8765 0.4074
vn -0.4185 0.8748 0.2442
vn -0.4293 0.8974 -0.1018
vn -0.0513 0.8811 -0.4702
vn 0.0465 0.8813 -0.4703
vn 0.3852 0.9108 -0.1489
vn 0.6446 0.7327 0.2183
vn 0.2827 0.7990 0.5308
vn -0.3476 0.7915 0.5027
vn -0.7066 0.6716 0.2229
vn -0.7402 0.6241 -0.2504
vn -0.2825 0.7046 -0.6510
vn 0.1545 0.7629 -0.6278
vn 0.6455 0.7396 -0.1906
vn 0.8355 0.5047 0.2173
vn 0.3703 0.5912 0.7165
vn -0.3606 0.6573 0.6618
vn -0.6765 0.7157 0.1735
vn -0.6544 0.7325 -0.1878
vn -0.3323 0.7789 -0.5319
vn 0.4406 0.6362 -0.6333
vn 0.8530 0.3845 -0.3530
s 0
f 3//1 2//1 1//1
f 4//1 3//1 1//1
f 5//1 4//1 1//1
f 6//1 5//1 1//1
f 7//1 6//1 1//1
f 8//1 7//1 1//1
f 9//1 8//1 1//1
f 2//1 9//1 1//1
f 3//2 11//2 10//2 2//2
f 4//3 12//3 11//3 3//3
f 5//4 13//4 12//4 4//4
f 6//5 14//5 13//5 5//5
f 7//6 15//6 14//6 6//6
f 8//7 16//7 15//7 7//7
f 9//8 17//8 16//8 8//8
f 2//9 10//9 17//9 9//9
f 11//10 19//10 18//10 10//10
f 12//11 20//11 19//11 11//11
f 13//12 21//12 20//12 12//12
f 14//13 22//13 21//13 13//13
f 15//14 23//14 22//14 14//14
f 16//15 24//15 23//15 15//15
f 17//16 25//16 24//16 16//16
f 10//17 18//17 25//17 17//17
f 19//18 27//18 26//18 18//18
f 20//19 28//19 27//19 19//19
f 21//20 29//20 28//20 20//20
f 22//21 30//21 29//21 21//21
f 23//22 31//22 30//22 22//22
f 24//23 32//23 31//23 23//23
f 25//24 33//24 32//24 24//24
f 18//25 26//25 33//25 25//25
