# Blender 4.4.1
# www.blender.org
o Hill_160
v 0.910778 0.000000 0.512183
v 0.910778 9.051297 0.512183
v 0.910778 9.051297 0.512183
v 0.910778 9.051297 0.512183
v 0.910778 9.051297 0.512183
v 0.910778 9.051297 0.512183
v 0.910778 9.051297 0.512183
v 0.910778 9.051297 0.512183
v 0.910778 9.051297 0.512183
v 3.656844 7.386503 0.512183
v 3.102666 7.306295 2.704072
v 0.910778 7.239664 3.440472
v -1.054745 7.383982 2.477706
v -2.166456 7.312877 0.512183
v -1.211060 7.100540 -1.609655
v 0.910778 7.200829 -2.533471
v 2.993653 7.305697 -1.570692
v 7.130723 4.475016 0.512183
v 5.069643 4.343512 4.671048
v 0.910778 4.297636 5.567204
v -3.413245 4.477281 4.836207
v -4.716552 4.360334 0.512183
v -3.633916 4.321798 -4.032511
v 0.910778 4.432824 -5.891296
v 4.913514 4.399179 -3.490552
v 9.069841 -0.078501 0.512183
v 5.953804 0.313195 5.555208
v 0.910778 0.723682 8.097572
v -4.472663 0.446180 5.895625
v -9.069841 -0.419396 0.512183
v -4.489113 0.042695 -4.887708
v 0.910778 -0.191766 -8.097572
v 6.206258 0.590993 -4.783296
vn -0.0000 1.0000 -0.0000
vn 0.5117 0.8441 0.1603
vn 0.1492 0.8409 0.5202
vn -0.1916 0.8346 0.5164
vn -0.4775 0.8453 0.2395
vn -0.4700 0.8320 -0.2949
vn -0.2575 0.8258 -0.5017
vn 0.1933 0.8385 -0.5095
vn 0.5085 0.8388 -0.1945
vn 0.6512 0.7007 0.2915
vn 0.1889 0.6012 0.7764
vn -0.1684 0.6417 0.7482
vn -0.6922 0.6787 0.2455
vn -0.6829 0.6918 -0.2348
vn -0.2754 0.7487 -0.6030
vn 0.3393 0.6996 -0.6288
vn 0.6395 0.6987 -0.3207
vn 0.8295 0.3200 0.4577
vn 0.3324 0.4182 0.8453
vn -0.2636 0.4415 0.8576
vn -0.7555 0.5131 0.4073
vn -0.7700 0.4822 -0.4180
vn -0.4253 0.3305 -0.8425
vn 0.4564 0.3998 -0.7949
vn 0.8208 0.3828 -0.4240
s 0
f 3//1 2//1 1//1
f 4//1 3//1 1//1
f 5//1 4//1 1//1
f 6//1 5//1 1//1
f 7//1 6//1 1//1
f 8//1 7//1 1//1
f 9//1 8//1 1//1
f 2//1 9//1 1//1
f 3//2 11//2 10//2 2//2
f 4//3 12//3 11//3 3//3
f 5//4 13//4 12//4 4//4
f 6//5 14//5 13//5 5//5
f 7//6 15//6 14//6 6//6
f 8//7 16//7 15//7 7//7
f 9//8 17//8 16//8 8//8
f 2//9 10//9 17//9 9//9
f 11//10 19//10 18//10 10//10
f 12//11 20//11 19//11 11//11
f 13//12 21//12 20//12 12//12
f 14//13 22//13 21//13 13//13
f 15//14 23//14 22//14 14//14
f 16//15 24//15 23//15 15//15
f 17//16 25//16 24//16 16//16
f 10//17 18//17 25//17 17//17
f 19//18 27//18 26//18 18//18
f 20//19 28//19 27//19 19//19
f 21//20 29//20 28//20 20//20
f 22//21 30//21 29//21 21//21
f 23//22 31//22 30//22 22//22
f 24//23 32//23 31//23 23//23
f 25//24 33//24 32//24 24//24
f 18//25 26//25 33//25 25//25
