# Blender 4.4.1
# www.blender.org
o Hill_096
v -1.455488 0.000000 1.004434
v -1.455488 6.053314 1.004434
v -1.455488 6.053314 1.004434
v -1.455488 6.053314 1.004434
v -1.455488 6.053314 1.004434
v -1.455488 6.053314 1.004434
v -1.455488 6.053314 1.004434
v -1.455488 6.053314 1.004434
v -1.455488 6.053314 1.004434
v 1.491807 4.742999 1.004434
v 0.744678 4.836812 3.204600
v -1.455488 4.924024 4.030260
v -3.495293 4.969584 3.044239
v -4.584485 5.037397 1.004434
v -3.487767 4.856637 -1.027846
v -1.455488 4.948031 -2.003676
v 0.603561 5.055081 -1.054615
v 4.378507 2.731544 1.004434
v 2.530437 2.372308 4.990358
v -1.455488 2.723154 7.663500
v -5.893583 2.705820 5.442529
v -7.442142 3.027959 1.004434
v -5.518452 2.655978 -3.058531
v -1.455488 2.902421 -4.881404
v 2.662691 3.138266 -3.113745
v 9.165339 0.318614 1.004434
v 6.115730 0.008427 8.575651
v -1.455488 0.331809 9.940479
v -9.165339 -0.120158 8.714284
v -8.943041 0.014775 1.004434
v -9.082788 0.468036 -6.622867
v -1.455488 0.536138 -9.940479
v 4.282467 0.571951 -4.733521
vn -0.0000 1.0000 -0.0000
vn 0.4043 0.9093 0.0985
vn 0.1660 0.9239 0.3448
vn -0.1465 0.9268 0.3459
vn -0.3030 0.9333 0.1928
vn -0.2995 0.9225 -0.2437
vn -0.2035 0.9190 -0.3377
vn 0.1095 0.9330 -0.3428
vn 0.4060 0.9131 -0.0367
vn 0.6039 0.7442 0.2853
vn 0.3585 0.7626 0.5384
vn -0.2490 0.8232 0.5103
vn -0.5325 0.8038 0.2652
vn -0.5316 0.7784 -0.3340
vn -0.2965 0.7795 -0.5517
vn 0.2019 0.8032 -0.5605
vn 0.5761 0.8036 -0.1493
vn 0.4087 0.8847 0.2244
vn 0.2309 0.8199 0.5239
vn -0.2015 0.7701 0.6053
vn -0.7401 0.6642 0.1058
vn -0.6784 0.7281 -0.0985
vn -0.1970 0.8982 -0.3930
vn 0.3358 0.7948 -0.5055
vn 0.5350 0.7877 -0.3054
s 0
f 3//1 2//1 1//1
f 4//1 3//1 1//1
f 5//1 4//1 1//1
f 6//1 5//1 1//1
f 7//1 6//1 1//1
f 8//1 7//1 1//1
f 9//1 8//1 1//1
f 2//1 9//1 1//1
f 3//2 11//2 10//2 2//2
f 4//3 12//3 11//3 3//3
f 5//4 13//4 12//4 4//4
f 6//5 14//5 13//5 5//5
f 7//6 15//6 14//6 6//6
f 8//7 16//7 15//7 7//7
f 9//8 17//8 16//8 8//8
f 2//9 10//9 17//9 9//9
f 11//10 19//10 18//10 10//10
f 12//11 20//11 19//11 11//11
f 13//12 21//12 20//12 12//12
f 14//13 22//13 21//13 13//13
f 15//14 23//14 22//14 14//14
f 16//15 24//15 23//15 15//15
f 17//16 25//16 24//16 16//16
f 10//17 18//17 25//17 17//17
f 19//18 27//18 26//18 18//18
f 20//19 28//19 27//19 19//19
f 21//20 29//20 28//20 20//20
f 22//21 30//21 29//21 21//21
f 23//22 31//22 30//22 22//22
f 24//23 32//23 31//23 23//23
f 25//24 33//24 32//24 24//24
f 18//25 26//25 33//25 25//25
