# Blender 4.4.1
# www.blender.org
o Hill_114
v 0.292307 0.000000 -1.897047
v 0.292307 8.921093 -1.897047
v 0.292307 8.921093 -1.897047
v 0.292307 8.921093 -1.897047
v 0.292307 8.921093 -1.897047
v 0.292307 8.921093 -1.897047
v 0.292307 8.921093 -1.897047
v 0.292307 8.921093 -1.897047
v 0.292307 8.921093 -1.897047
v 4.493721 7.008761 -1.897047
v 3.116277 7.239315 0.926923
v 0.292307 7.113591 1.831240
v -2.646572 6.994808 1.041831
v -3.765864 6.945762 -1.897047
v -2.591023 7.245713 -4.780377
v 0.292307 7.339686 -6.095391
v 3.173673 7.198762 -4.778413
v 8.647879 4.591705 -1.897047
v 6.621928 3.726306 4.432574
v 0.292307 4.110736 5.925805
v -5.571822 3.863488 3.967082
v -7.779352 4.512272 -1.897047
v -5.977640 3.641888 -8.166993
v 0.292307 4.280744 -9.904796
v 5.618221 3.478385 -7.222962
v 12.699431 0.378457 -1.897047
v 8.220812 -0.678568 6.031458
v 0.292307 0.203134 12.258563
v -8.212502 0.411049 6.607761
v -12.699431 -0.448197 -1.897047
v -8.453729 0.461793 -10.643083
v 0.292307 -0.568741 -12.258563
v 9.199314 -0.008966 -10.804054
vn -0.0000 1.0000 -0.0000
vn 0.4109 0.9028 0.1267
vn 0.0991 0.8954 0.4341
vn -0.1518 0.8894 0.4312
vn -0.4327 0.8890 0.1500
vn -0.4361 0.8959 -0.0845
vn -0.1879 0.9192 -0.3462
vn 0.2026 0.9164 -0.3452
vn 0.4108 0.9026 -0.1287
vn 0.5188 0.8177 0.2496
vn 0.1773 0.7861 0.5921
vn -0.2164 0.7781 0.5897
vn -0.5362 0.8039 0.2574
vn -0.5503 0.8030 -0.2290
vn -0.2576 0.7664 -0.5884
vn 0.3770 0.6978 -0.6091
vn 0.5524 0.7438 -0.3764
vn 0.7277 0.5525 0.4065
vn 0.3978 0.6723 0.6244
vn -0.2948 0.7795 0.5526
vn -0.6615 0.6881 0.2981
vn -0.6709 0.6912 -0.2684
vn -0.1690 0.5458 -0.8207
vn 0.2271 0.6276 -0.7446
vn 0.5817 0.7368 -0.3446
s 0
f 3//1 2//1 1//1
f 4//1 3//1 1//1
f 5//1 4//1 1//1
f 6//1 5//1 1//1
f 7//1 6//1 1//1
f 8//1 7//1 1//1
f 9//1 8//1 1//1
f 2//1 9//1 1//1
f 3//2 11//2 10//2 2//2
f 4//3 12//3 11//3 3//3
f 5//4 13//4 12//4 4//4
f 6//5 14//5 13//5 5//5
f 7//6 15//6 14//6 6//6
f 8//7 16//7 15//7 7//7
f 9//8 17//8 16//8 8//8
f 2//9 10//9 17//9 9//9
f 11//10 19//10 18//10 10//10
f 12//11 20//11 19//11 11//11
f 13//12 21//12 20//12 12//12
f 14//13 22//13 21//13 13//13
f 15//14 23//14 22//14 14//14
f 16//15 24//15 23//15 15//15
f 17//16 25//16 24//16 16//16
f 10//17 18//17 25//17 17//17
f 19//18 27//18 26//18 18//18
f 20//19 28//19 27//19 19//19
f 21//20 29//20 28//20 20//20
f 22//21 30//21 29//21 21//21
f 23//22 31//22 30//22 22//22
f 24//23 32//23 31//23 23//23
f 25//24 33//24 32//24 24//24
f 18//25 26//25 33//25 25//25
