# Blender 4.4.1
# www.blender.org
o Hill_092
v -0.112064 0.000000 -0.334923
v -0.112064 6.249846 -0.334923
v -0.112064 6.249846 -0.334923
v -0.112064 6.249846 -0.334923
v -0.112064 6.249846 -0.334923
v -0.112064 6.249846 -0.334923
v -0.112064 6.249846 -0.334923
v -0.112064 6.249846 -0.334923
v -0.112064 6.249846 -0.334923
v 2.968882 5.169849 -0.334923
v 2.007655 4.969154 1.784796
v -0.112064 4.972830 2.705091
v -2.277651 5.053075 1.830665
v -3.234173 5.252372 -0.334923
v -2.101391 4.882501 -2.324250
v -0.112064 4.995266 -3.393706
v 2.067013 4.906271 -2.513999
v 6.241523 2.569698 -0.334923
v 4.031643 3.241114 3.808784
v -0.112064 2.784681 4.891832
v -3.955882 3.100482 3.508896
v -6.050958 3.055350 -0.334923
v -4.378796 2.764034 -4.601655
v -0.112064 2.794095 -5.971179
v 3.870532 3.199494 -4.317518
v 9.458544 0.028099 -0.334923
v 6.499679 -0.160456 6.276820
v -0.112064 -0.448092 9.141068
v -6.491584 -0.369414 6.044598
v -9.458544 0.268087 -0.334923
v -6.481796 -0.310943 -6.704655
v -0.112064 0.545240 -9.141068
v 7.288454 0.275156 -7.735440
vn -0.0000 1.0000 -0.0000
vn 0.3217 0.9178 0.2328
vn 0.1673 0.9090 0.3818
vn -0.1213 0.9151 0.3844
vn -0.2971 0.9299 0.2168
vn -0.2872 0.8990 -0.3307
vn -0.2484 0.8962 -0.3676
vn 0.1876 0.9088 -0.3727
vn 0.3208 0.9153 -0.2435
vn 0.5634 0.7949 0.2255
vn 0.1481 0.7587 0.6344
vn -0.2057 0.7110 0.6724
vn -0.5785 0.7532 0.3131
vn -0.5255 0.7887 -0.3190
vn -0.2433 0.7785 -0.5785
vn 0.2079 0.7709 -0.6021
vn 0.5706 0.7800 -0.2567
vn 0.6359 0.7218 0.2732
vn 0.1893 0.7325 0.6539
vn -0.2486 0.7339 0.6321
vn -0.6080 0.7163 0.3425
vn -0.6253 0.7066 -0.3311
vn -0.2836 0.7290 -0.6229
vn 0.1421 0.8130 -0.5647
vn 0.5741 0.8015 -0.1673
s 0
f 3//1 2//1 1//1
f 4//1 3//1 1//1
f 5//1 4//1 1//1
f 6//1 5//1 1//1
f 7//1 6//1 1//1
f 8//1 7//1 1//1
f 9//1 8//1 1//1
f 2//1 9//1 1//1
f 3//2 11//2 10//2 2//2
f 4//3 12//3 11//3 3//3
f 5//4 13//4 12//4 4//4
f 6//5 14//5 13//5 5//5
f 7//6 15//6 14//6 6//6
f 8//7 16//7 15//7 7//7
f 9//8 17//8 16//8 8//8
f 2//9 10//9 17//9 9//9
f 11//10 19//10 18//10 10//10
f 12//11 20//11 19//11 11//11
f 13//12 21//12 20//12 12//12
f 14//13 22//13 21//13 13//13
f 15//14 23//14 22//14 14//14
f 16//15 24//15 23//15 15//15
f 17//16 25//16 24//16 16//16
f 10//17 18//17 25//17 17//17
f 19//18 27//18 26//18 18//18
f 20//19 28//19 27//19 19//19
f 21//20 29//20 28//20 20//20
f 22//21 30//21 29//21 21//21
f 23//22 31//22 30//22 22//22
f 24//23 32//23 31//23 23//23
f 25//24 33//24 32//24 24//24
f 18//25 26//25 33//25 25//25
