# Blender 4.4.1
# www.blender.org
o Hill_209
v -0.053368 0.000000 -0.172883
v -0.053368 5.339947 -0.172883
v -0.053368 5.339947 -0.172883
v -0.053368 5.339947 -0.172883
v -0.053368 5.339947 -0.172883
v -0.053368 5.339947 -0.172883
v -0.053368 5.339947 -0.172883
v -0.053368 5.339947 -0.172883
v -0.053368 5.339947 -0.172883
v 3.851147 4.242952 -0.172883
v 2.742782 4.257548 2.623268
v -0.053368 4.245570 3.797706
v -2.749344 4.482262 2.523094
v -3.825700 4.265369 -0.172883
v -2.632112 4.157971 -2.751627
v -0.053368 4.152868 -3.949485
v 2.804816 4.151066 -3.031067
v 7.274393 2.143286 -0.172883
v 5.331590 2.296016 5.212076
v -0.053368 2.621703 7.490741
v -5.715554 2.331164 5.489303
v -7.036482 2.389361 -0.172883
v -5.555815 2.606512 -5.675329
v -0.053368 2.157091 -8.373207
v 5.828457 2.405654 -6.054708
v 10.864441 -0.213299 -0.172883
v 9.138915 0.075908 9.019401
v -0.053368 -0.224935 10.017653
v -9.558608 -0.317006 9.332357
v -10.864441 -0.012463 -0.172883
v -8.356288 -0.296639 -8.475802
v -0.053368 -0.301415 -10.017653
v 6.771430 0.307063 -6.997681
vn -0.0000 1.0000 -0.0000
vn 0.2691 0.9577 0.1017
vn 0.1069 0.9585 0.2642
vn -0.0410 0.9632 0.2655
vn -0.2738 0.9612 0.0320
vn -0.2702 0.9486 -0.1646
vn -0.1361 0.9451 -0.2971
vn 0.0965 0.9495 -0.2985
vn 0.2682 0.9547 -0.1289
vn 0.5006 0.8490 0.1693
vn 0.2102 0.8839 0.4178
vn -0.1728 0.8879 0.4263
vn -0.4983 0.8577 0.1267
vn -0.4349 0.8908 -0.1318
vn -0.1351 0.9123 -0.3867
vn 0.1243 0.9060 -0.4047
vn 0.4679 0.8761 -0.1163
vn 0.4874 0.8679 0.0963
vn 0.1297 0.8109 0.5707
vn -0.1267 0.7876 0.6030
vn -0.5082 0.8544 0.1084
vn -0.5714 0.8031 -0.1690
vn -0.1935 0.6841 -0.7033
vn 0.3016 0.5172 -0.8010
vn 0.6543 0.7168 -0.2411
s 0
f 3//1 2//1 1//1
f 4//1 3//1 1//1
f 5//1 4//1 1//1
f 6//1 5//1 1//1
f 7//1 6//1 1//1
f 8//1 7//1 1//1
f 9//1 8//1 1//1
f 2//1 9//1 1//1
f 3//2 11//2 10//2 2//2
f 4//3 12//3 11//3 3//3
f 5//4 13//4 12//4 4//4
f 6//5 14//5 13//5 5//5
f 7//6 15//6 14//6 6//6
f 8//7 16//7 15//7 7//7
f 9//8 17//8 16//8 8//8
f 2//9 10//9 17//9 9//9
f 11//10 19//10 18//10 10//10
f 12//11 20//11 19//11 11//11
f 13//12 21//12 20//12 12//12
f 14//13 22//13 21//13 13//13
f 15//14 23//14 22//14 14//14
f 16//15 24//15 23//15 15//15
f 17//16 25//16 24//16 16//16
f 10//17 18//17 25//17 17//17
f 19//18 27//18 26//18 18//18
f 20//19 28//19 27//19 19//19
f 21//20 29//20 28//20 20//20
f 22//21 30//21 29//21 21//21
f 23//22 31//22 30//22 22//22
f 24//23 32//23 31//23 23//23
f 25//24 33//24 32//24 24//24
f 18//25 26//25 33//25 25//25
