# Blender 4.4.1
# www.blender.org
o Hill_129
v -1.853103 0.000000 -0.918041
v -1.853103 9.448705 -0.918041
v -1.853103 9.448705 -0.918041
v -1.853103 9.448705 -0.918041
v -1.853103 9.448705 -0.918041
v -1.853103 9.448705 -0.918041
v -1.853103 9.448705 -0.918041
v -1.853103 9.448705 -0.918041
v -1.853103 9.448705 -0.918041
v 1.527287 7.642627 -0.918041
v 0.547164 7.475793 1.482226
v -1.853103 7.908905 2.465240
v -4.305411 7.746212 1.534268
v -5.342705 7.623485 -0.918041
v -4.174165 7.842247 -3.239103
v -1.853103 7.905528 -4.221953
v 0.530579 7.831470 -3.301723
v 4.364723 4.117936 -0.918041
v 2.783008 4.622410 3.718070
v -1.853103 4.482449 5.097885
v -6.547077 4.726704 3.775934
v -9.282856 3.912832 -0.918041
v -5.972876 4.675359 -5.037814
v -1.853103 3.811378 -7.647477
v 2.448869 3.766536 -5.220013
v 10.044134 -0.487868 -0.918041
v 5.008255 0.614604 5.943317
v -1.853103 -0.762346 9.333230
v -9.878993 -0.900451 7.107849
v -10.044134 -0.716069 -0.918041
v -8.085945 0.521697 -7.150883
v -1.853103 -0.465946 -9.271347
v 6.562086 -0.147556 -9.333230
vn -0.0000 1.0000 -0.0000
vn 0.4568 0.8549 0.2459
vn 0.3167 0.8633 0.3929
vn -0.2127 0.8893 0.4048
vn -0.4582 0.8761 0.1500
vn -0.4584 0.8763 -0.1482
vn -0.1998 0.8878 -0.4147
vn 0.1881 0.8899 -0.4156
vn 0.4675 0.8750 -0.1262
vn 0.7204 0.6540 0.2309
vn 0.2666 0.6480 0.7135
vn -0.2253 0.6363 0.7378
vn -0.6664 0.6987 0.2602
vn -0.6661 0.6510 -0.3640
vn -0.3297 0.6038 -0.7257
vn 0.3766 0.5679 -0.7319
vn 0.7548 0.5595 -0.3424
vn 0.6673 0.6868 0.2881
vn 0.2402 0.5939 0.7678
vn -0.2100 0.6011 0.7711
vn -0.8913 0.4151 0.1827
vn -0.8556 0.3677 -0.3644
vn -0.3038 0.4487 -0.8405
vn 0.1318 0.6122 -0.7796
vn 0.5757 0.7800 -0.2451
s 0
f 3//1 2//1 1//1
f 4//1 3//1 1//1
f 5//1 4//1 1//1
f 6//1 5//1 1//1
f 7//1 6//1 1//1
f 8//1 7//1 1//1
f 9//1 8//1 1//1
f 2//1 9//1 1//1
f 3//2 11//2 10//2 2//2
f 4//3 12//3 11//3 3//3
f 5//4 13//4 12//4 4//4
f 6//5 14//5 13//5 5//5
f 7//6 15//6 14//6 6//6
f 8//7 16//7 15//7 7//7
f 9//8 17//8 16//8 8//8
f 2//9 10//9 17//9 9//9
f 11//10 19//10 18//10 10//10
f 12//11 20//11 19//11 11//11
f 13//12 21//12 20//12 12//12
f 14//13 22//13 21//13 13//13
f 15//14 23//14 22//14 14//14
f 16//15 24//15 23//15 15//15
f 17//16 25//16 24//16 16//16
f 10//17 18//17 25//17 17//17
f 19//18 27//18 26//18 18//18
f 20//19 28//19 27//19 19//19
f 21//20 29//20 28//20 20//20
f 22//21 30//21 29//21 21//21
f 23//22 31//22 30//22 22//22
f 24//23 32//23 31//23 23//23
f 25//24 33//24 32//24 24//24
f 18//25 26//25 33//25 25//25
