# Blender 4.4.1
# www.blender.org
o Hill_195
v 1.158719 0.000000 -0.202054
v 1.158719 8.996410 -0.202054
v 1.158719 8.996410 -0.202054
v 1.158719 8.996410 -0.202054
v 1.158719 8.996410 -0.202054
v 1.158719 8.996410 -0.202054
v 1.158719 8.996410 -0.202054
v 1.158719 8.996410 -0.202054
v 1.158719 8.996410 -0.202054
v 4.221211 7.293313 -0.202054
v 3.335087 7.076044 1.974315
v 1.158719 6.965487 2.925746
v -0.952379 7.117282 1.909044
v -1.951276 7.060110 -0.202054
v -0.916239 7.338671 -2.277012
v 1.158719 7.022804 -3.403003
v 3.444889 7.019032 -2.488224
v 7.111293 4.628135 -0.202054
v 5.680291 4.401542 4.319519
v 1.158719 4.635133 5.955520
v -3.164034 4.137746 4.120698
v -5.362403 3.986610 -0.202054
v -3.356726 4.127238 -4.717498
v 1.158719 3.697514 -6.000920
v 5.584426 4.080040 -4.627761
v 8.989189 0.183423 -0.202054
v 8.534135 -0.662403 7.173363
v 1.158719 0.314785 9.782391
v -4.240935 0.826129 5.197600
v -8.989189 0.834570 -0.202054
v -5.589163 -0.044704 -6.949936
v 1.158719 -0.265544 -9.782391
v 8.720934 0.784432 -7.764269
vn -0.0000 1.0000 -0.0000
vn 0.4674 0.8405 0.2742
vn 0.1918 0.8231 0.5345
vn -0.1980 0.8221 0.5338
vn -0.5154 0.8278 0.2215
vn -0.5227 0.8396 -0.1480
vn -0.1534 0.8411 -0.5186
vn 0.2068 0.8328 -0.5135
vn 0.4692 0.8438 -0.2606
vn 0.6275 0.7319 0.2656
vn 0.2461 0.7606 0.6008
vn -0.3092 0.7302 0.6092
vn -0.6432 0.7059 0.2968
vn -0.6554 0.7101 -0.2572
vn -0.1975 0.6437 -0.7394
vn 0.2169 0.6349 -0.7415
vn 0.6468 0.6979 -0.3075
vn 0.8582 0.4809 0.1794
vn 0.3203 0.6121 0.7230
vn -0.4690 0.5233 0.7115
vn -0.6732 0.5687 0.4727
vn -0.6700 0.6470 -0.3640
vn -0.2379 0.6188 -0.7487
vn 0.1117 0.7105 -0.6948
vn 0.8107 0.5733 -0.1189
s 0
f 3//1 2//1 1//1
f 4//1 3//1 1//1
f 5//1 4//1 1//1
f 6//1 5//1 1//1
f 7//1 6//1 1//1
f 8//1 7//1 1//1
f 9//1 8//1 1//1
f 2//1 9//1 1//1
f 3//2 11//2 10//2 2//2
f 4//3 12//3 11//3 3//3
f 5//4 13//4 12//4 4//4
f 6//5 14//5 13//5 5//5
f 7//6 15//6 14//6 6//6
f 8//7 16//7 15//7 7//7
f 9//8 17//8 16//8 8//8
f 2//9 10//9 17//9 9//9
f 11//10 19//10 18//10 10//10
f 12//11 20//11 19//11 11//11
f 13//12 21//12 20//12 12//12
f 14//13 22//13 21//13 13//13
f 15//14 23//14 22//14 14//14
f 16//15 24//15 23//15 15//15
f 17//16 25//16 24//16 16//16
f 10//17 18//17 25//17 17//17
f 19//18 27//18 26//18 18//18
f 20//19 28//19 27//19 19//19
f 21//20 29//20 28//20 20//20
f 22//21 30//21 29//21 21//21
f 23//22 31//22 30//22 22//22
f 24//23 32//23 31//23 23//23
f 25//24 33//24 32//24 24//24
f 18//25 26//25 33//25 25//25
