# Blender 4.4.1
# www.blender.org
o Hill_172
v -0.203953 0.000000 0.582328
v -0.203953 5.789155 0.582328
v -0.203953 5.789155 0.582328
v -0.203953 5.789155 0.582328
v -0.203953 5.789155 0.582328
v -0.203953 5.789155 0.582328
v -0.203953 5.789155 0.582328
v -0.203953 5.789155 0.582328
v -0.203953 5.789155 0.582328
v 1.922092 4.757385 0.582328
v 1.279767 4.787137 2.066048
v -0.203953 4.645515 2.834258
v -1.707288 4.499049 2.085663
v -2.487529 4.729962 0.582328
v -1.670989 4.591713 -0.884708
v -0.203953 4.748720 -1.699564
v 1.340994 4.610697 -0.962620
v 3.990399 2.334593 0.582328
v 3.214560 2.700487 4.000841
v -0.203953 2.760384 5.333562
v -3.385491 2.392266 3.763865
v -4.701964 2.934935 0.582328
v -3.618556 2.793868 -2.832275
v -0.203953 2.722710 -3.502931
v 2.767088 2.443928 -2.388714
v 5.688409 0.129450 0.582328
v 3.522509 -0.054349 4.308790
v -0.203953 -0.503934 6.598432
v -3.904650 0.070434 4.283024
v -5.673226 -0.414110 0.582328
v -5.688409 -0.167224 -4.902127
v -0.203953 0.376897 -6.598432
v 4.223439 0.049346 -3.845065
vn -0.0000 1.0000 -0.0000
vn 0.4304 0.8868 0.1685
vn 0.1477 0.8818 0.4478
vn -0.2981 0.8511 0.4322
vn -0.3962 0.8542 0.3368
vn -0.4008 0.8641 -0.3045
vn -0.3115 0.8646 -0.3942
vn 0.2689 0.8764 -0.3996
vn 0.4236 0.8729 -0.2422
vn 0.7070 0.6914 0.1487
vn 0.2391 0.7728 0.5879
vn -0.3609 0.7424 0.5645
vn -0.5702 0.7305 0.3758
vn -0.5574 0.7878 -0.2620
vn -0.2086 0.7369 -0.6430
vn 0.3404 0.6437 -0.6854
vn 0.7154 0.6352 -0.2911
vn 0.8623 0.3702 0.3456
vn 0.4271 0.2490 0.8692
vn -0.4606 0.3086 0.8323
vn -0.8785 0.2671 0.3961
vn -0.8830 0.4585 -0.1005
vn -0.2132 0.7229 -0.6572
vn 0.3753 0.6994 -0.6083
vn 0.7518 0.6013 -0.2708
s 0
f 3//1 2//1 1//1
f 4//1 3//1 1//1
f 5//1 4//1 1//1
f 6//1 5//1 1//1
f 7//1 6//1 1//1
f 8//1 7//1 1//1
f 9//1 8//1 1//1
f 2//1 9//1 1//1
f 3//2 11//2 10//2 2//2
f 4//3 12//3 11//3 3//3
f 5//4 13//4 12//4 4//4
f 6//5 14//5 13//5 5//5
f 7//6 15//6 14//6 6//6
f 8//7 16//7 15//7 7//7
f 9//8 17//8 16//8 8//8
f 2//9 10//9 17//9 9//9
f 11//10 19//10 18//10 10//10
f 12//11 20//11 19//11 11//11
f 13//12 21//12 20//12 12//12
f 14//13 22//13 21//13 13//13
f 15//14 23//14 22//14 14//14
f 16//15 24//15 23//15 15//15
f 17//16 25//16 24//16 16//16
f 10//17 18//17 25//17 17//17
f 19//18 27//18 26//18 18//18
f 20//19 28//19 27//19 19//19
f 21//20 29//20 28//20 20//20
f 22//21 30//21 29//21 21//21
f 23//22 31//22 30//22 22//22
f 24//23 32//23 31//23 23//23
f 25//24 33//24 32//24 24//24
f 18//25 26//25 33//25 25//25
