# Blender 4.4.1
# www.blender.org
o Hill_197
v 0.144703 0.000000 -1.251957
v 0.144703 6.748823 -1.251957
v 0.144703 6.748823 -1.251957
v 0.144703 6.748823 -1.251957
v 0.144703 6.748823 -1.251957
v 0.144703 6.748823 -1.251957
v 0.144703 6.748823 -1.251957
v 0.144703 6.748823 -1.251957
v 0.144703 6.748823 -1.251957
v 2.482637 5.359369 -1.251957
v 1.774698 5.342806 0.378038
v 0.144703 5.640484 1.232676
v -1.577555 5.363353 0.470300
v -2.137499 5.257892 -1.251957
v -1.611211 5.500397 -3.007871
v 0.144703 5.642579 -3.577595
v 1.832219 5.563833 -2.939473
v 4.537735 3.260315 -1.251957
v 3.798291 2.873473 2.401631
v 0.144703 2.829045 3.403255
v -3.529514 3.414536 2.422259
v -4.275168 3.098467 -1.251957
v -3.347270 3.216849 -4.743931
v 0.144703 2.756778 -6.046122
v 3.077859 2.920625 -4.185114
v 6.994128 0.142317 -1.251957
v 5.101849 0.587390 3.705188
v 0.144703 0.228121 7.205579
v -4.924814 0.365161 3.817559
v -6.994128 0.483396 -1.251957
v -4.397345 -0.338552 -5.794006
v 0.144703 -0.664116 -7.205579
v 5.936745 0.095843 -7.044000
vn -0.0000 1.0000 -0.0000
vn 0.4978 0.8377 0.2247
vn 0.3555 0.8536 0.3808
vn -0.3111 0.8680 0.3872
vn -0.5426 0.8306 0.1256
vn -0.5463 0.8362 -0.0482
vn -0.2079 0.8833 -0.4202
vn 0.2004 0.8847 -0.4208
vn 0.5087 0.8560 -0.0924
vn 0.6701 0.7033 0.2373
vn 0.2769 0.6604 0.6980
vn -0.1879 0.6859 0.7030
vn -0.6786 0.7266 0.1074
vn -0.7151 0.6825 -0.1512
vn -0.2170 0.6588 -0.7203
vn 0.3817 0.5731 -0.7252
vn 0.7241 0.5954 -0.3481
vn 0.7714 0.5926 0.2318
vn 0.2910 0.7272 0.6217
vn -0.2788 0.6866 0.6715
vn -0.7594 0.6084 0.2307
vn -0.7594 0.5285 -0.3795
vn -0.2735 0.3276 -0.9044
vn 0.1260 0.5769 -0.8070
vn 0.6701 0.7074 -0.2246
s 0
f 3//1 2//1 1//1
f 4//1 3//1 1//1
f 5//1 4//1 1//1
f 6//1 5//1 1//1
f 7//1 6//1 1//1
f 8//1 7//1 1//1
f 9//1 8//1 1//1
f 2//1 9//1 1//1
f 3//2 11//2 10//2 2//2
f 4//3 12//3 11//3 3//3
f 5//4 13//4 12//4 4//4
f 6//5 14//5 13//5 5//5
f 7//6 15//6 14//6 6//6
f 8//7 16//7 15//7 7//7
f 9//8 17//8 16//8 8//8
f 2//9 10//9 17//9 9//9
f 11//10 19//10 18//10 10//10
f 12//11 20//11 19//11 11//11
f 13//12 21//12 20//12 12//12
f 14//13 22//13 21//13 13//13
f 15//14 23//14 22//14 14//14
f 16//15 24//15 23//15 15//15
f 17//16 25//16 24//16 16//16
f 10//17 18//17 25//17 17//17
f 19//18 27//18 26//18 18//18
f 20//19 28//19 27//19 19//19
f 21//20 29//20 28//20 20//20
f 22//21 30//21 29//21 21//21
f 23//22 31//22 30//22 22//22
f 24//23 32//23 31//23 23//23
f 25//24 33//24 32//24 24//24
f 18//25 26//25 33//25 25//25
