# Blender 4.4.1
# www.blender.org
o Hill_161
v 0.429424 0.000000 0.287785
v 0.429424 9.758200 0.287785
v 0.429424 9.758200 0.287785
v 0.429424 9.758200 0.287785
v 0.429424 9.758200 0.287785
v 0.429424 9.758200 0.287785
v 0.429424 9.758200 0.287785
v 0.429424 9.758200 0.287785
v 0.429424 9.758200 0.287785
v 3.009604 8.024928 0.287785
v 2.294004 7.670691 2.152365
v 0.429424 7.808072 2.928975
v -1.443728 7.666761 2.160937
v -2.212112 7.699155 0.287785
v -1.379313 7.778308 -1.520952
v 0.429424 8.001519 -2.241347
v 2.098913 8.114722 -1.381705
v 6.000447 3.934152 0.287785
v 4.153445 4.276366 4.011806
v 0.429424 4.636235 4.643538
v -3.114367 5.040144 3.831576
v -5.154892 4.522863 0.287785
v -2.641130 4.212886 -2.782770
v 0.429424 4.680839 -4.682450
v 4.260867 4.087676 -3.543658
v 6.994129 0.250059 0.287785
v 4.914433 0.342370 4.772794
v 0.429424 0.150207 7.804364
v -5.761474 -0.754900 6.478682
v -6.994129 -0.030740 0.287785
v -3.900961 0.042043 -4.042600
v 0.429424 0.159990 -7.804364
v 5.229986 -0.902262 -4.512777
vn -0.0000 1.0000 -0.0000
vn 0.5227 0.7781 0.3484
vn 0.2932 0.7691 0.5679
vn -0.2911 0.7696 0.5683
vn -0.5941 0.7622 0.2569
vn -0.5966 0.7654 -0.2412
vn -0.3121 0.7803 -0.5420
vn 0.2316 0.7990 -0.5550
vn 0.5397 0.8035 -0.2512
vn 0.7468 0.5693 0.3437
vn 0.2522 0.5167 0.8182
vn -0.2120 0.5376 0.8161
vn -0.7005 0.6449 0.3055
vn -0.6906 0.5240 -0.4985
vn -0.4663 0.4837 -0.7407
vn 0.3242 0.5689 -0.7558
vn 0.7517 0.5669 -0.3371
vn 0.8799 0.2434 0.4080
vn 0.3772 0.4188 0.8260
vn -0.2086 0.5212 0.8276
vn -0.8471 0.4425 0.2942
vn -0.7423 0.3465 -0.5735
vn -0.5687 0.4345 -0.6984
vn 0.4787 0.3876 -0.7878
vn 0.8883 0.2444 -0.3888
s 0
f 3//1 2//1 1//1
f 4//1 3//1 1//1
f 5//1 4//1 1//1
f 6//1 5//1 1//1
f 7//1 6//1 1//1
f 8//1 7//1 1//1
f 9//1 8//1 1//1
f 2//1 9//1 1//1
f 3//2 11//2 10//2 2//2
f 4//3 12//3 11//3 3//3
f 5//4 13//4 12//4 4//4
f 6//5 14//5 13//5 5//5
f 7//6 15//6 14//6 6//6
f 8//7 16//7 15//7 7//7
f 9//8 17//8 16//8 8//8
f 2//9 10//9 17//9 9//9
f 11//10 19//10 18//10 10//10
f 12//11 20//11 19//11 11//11
f 13//12 21//12 20//12 12//12
f 14//13 22//13 21//13 13//13
f 15//14 23//14 22//14 14//14
f 16//15 24//15 23//15 15//15
f 17//16 25//16 24//16 16//16
f 10//17 18//17 25//17 17//17
f 19//18 27//18 26//18 18//18
f 20//19 28//19 27//19 19//19
f 21//20 29//20 28//20 20//20
f 22//21 30//21 29//21 21//21
f 23//22 31//22 30//22 22//22
f 24//23 32//23 31//23 23//23
f 25//24 33//24 32//24 24//24
f 18//25 26//25 33//25 25//25
