# Blender 4.4.1
# www.blender.org
o Hill_112
v -0.920927 0.000000 0.951711
v -0.920927 8.363047 0.951711
v -0.920927 8.363047 0.951711
v -0.920927 8.363047 0.951711
v -0.920927 8.363047 0.951711
v -0.920927 8.363047 0.951711
v -0.920927 8.363047 0.951711
v -0.920927 8.363047 0.951711
v -0.920927 8.363047 0.951711
v 1.627809 7.002211 0.951711
v 0.900458 6.988117 2.773095
v -0.920927 6.881286 3.782656
v -2.934904 6.616153 2.965688
v -3.757849 6.666630 0.951711
v -2.966758 6.613470 -1.094120
v -0.920927 6.501459 -1.750099
v 0.992671 7.027315 -0.961887
v 4.178144 4.138212 0.951711
v 2.629453 4.112752 4.502090
v -0.920927 3.612165 6.463134
v -4.668295 3.641891 4.699079
v -6.821607 4.195168 0.951711
v -5.135598 3.625415 -3.262960
v -0.920927 4.078241 -4.660041
v 3.272797 3.507003 -3.242013
v 8.316652 -0.666872 0.951711
v 5.364540 0.233248 7.237178
v -0.920927 -0.004696 8.504987
v -5.969251 -0.196203 6.000035
v -8.316652 0.346893 0.951711
v -6.348885 0.511647 -4.476247
v -0.920927 0.426132 -8.504987
v 5.912666 -0.296454 -5.881882
vn -0.0000 1.0000 -0.0000
vn 0.4623 0.8658 0.1913
vn 0.2009 0.8679 0.4543
vn -0.2915 0.8475 0.4436
vn -0.5000 0.8362 0.2253
vn -0.5012 0.8381 -0.2156
vn -0.1356 0.8159 -0.5621
vn 0.0074 0.8234 -0.5674
vn 0.4661 0.8730 -0.1433
vn 0.7159 0.6266 0.3080
vn 0.3296 0.6099 0.7207
vn -0.3463 0.6038 0.7180
vn -0.6242 0.6751 0.3932
vn -0.6189 0.7189 -0.3164
vn -0.2529 0.7141 -0.6528
vn 0.2506 0.6895 -0.6795
vn 0.7282 0.6392 -0.2471
vn 0.7124 0.6484 0.2683
vn 0.2146 0.5794 0.7863
vn -0.4002 0.4322 0.8081
vn -0.8070 0.3713 0.4592
vn -0.8548 0.3918 -0.3403
vn -0.4123 0.5918 -0.6927
vn 0.3205 0.6837 -0.6556
vn 0.7278 0.6447 -0.2337
s 0
f 3//1 2//1 1//1
f 4//1 3//1 1//1
f 5//1 4//1 1//1
f 6//1 5//1 1//1
f 7//1 6//1 1//1
f 8//1 7//1 1//1
f 9//1 8//1 1//1
f 2//1 9//1 1//1
f 3//2 11//2 10//2 2//2
f 4//3 12//3 11//3 3//3
f 5//4 13//4 12//4 4//4
f 6//5 14//5 13//5 5//5
f 7//6 15//6 14//6 6//6
f 8//7 16//7 15//7 7//7
f 9//8 17//8 16//8 8//8
f 2//9 10//9 17//9 9//9
f 11//10 19//10 18//10 10//10
f 12//11 20//11 19//11 11//11
f 13//12 21//12 20//12 12//12
f 14//13 22//13 21//13 13//13
f 15//14 23//14 22//14 14//14
f 16//15 24//15 23//15 15//15
f 17//16 25//16 24//16 16//16
f 10//17 18//17 25//17 17//17
f 19//18 27//18 26//18 18//18
f 20//19 28//19 27//19 19//19
f 21//20 29//20 28//20 20//20
f 22//21 30//21 29//21 21//21
f 23//22 31//22 30//22 22//22
f 24//23 32//23 31//23 23//23
f 25//24 33//24 32//24 24//24
f 18//25 26//25 33//25 25//25
