# Blender 4.4.1
# www.blender.org
o Hill_230
v -0.618092 0.000000 0.394972
v -0.618092 7.730658 0.394972
v -0.618092 7.730658 0.394972
v -0.618092 7.730658 0.394972
v -0.618092 7.730658 0.394972
v -0.618092 7.730658 0.394972
v -0.618092 7.730658 0.394972
v -0.618092 7.730658 0.394972
v -0.618092 7.730658 0.394972
v 2.555497 6.385461 0.394972
v 1.637438 6.439826 2.650502
v -0.618092 6.001992 3.301187
v -2.679016 6.280217 2.455896
v -3.442558 6.101251 0.394972
v -2.860635 6.164810 -1.847570
v -0.618092 6.091521 -2.492865
v 1.371148 6.071670 -1.594267
v 5.175742 3.049233 0.394972
v 3.992154 3.940971 5.005219
v -0.618092 3.361877 6.908057
v -5.414400 3.124257 5.191280
v -7.258657 3.240443 0.394972
v -4.692379 3.345909 -3.679315
v -0.618092 3.932307 -5.977668
v 3.329448 3.424514 -3.552567
v 8.431417 0.084085 0.394972
v 5.923887 0.301716 6.936952
v -0.618092 -0.473671 8.374342
v -7.710724 -0.475052 7.487604
v -8.431417 0.540840 0.394972
v -6.735531 -0.520720 -5.722466
v -0.618092 -0.761868 -8.374342
v 5.865479 -0.236837 -6.088599
vn -0.0000 1.0000 -0.0000
vn 0.3867 0.9122 0.1354
vn -0.0194 0.8593 0.5111
vn -0.0932 0.8557 0.5090
vn -0.4967 0.8610 0.1093
vn -0.4970 0.8615 -0.1045
vn -0.1129 0.8641 -0.4905
vn 0.2257 0.8472 -0.4809
vn 0.3651 0.8613 -0.3532
vn 0.7280 0.6732 0.1301
vn 0.1165 0.7746 0.6217
vn -0.2212 0.7655 0.6042
vn -0.6069 0.7626 0.2238
vn -0.6287 0.7200 -0.2940
vn -0.3313 0.7430 -0.5815
vn 0.3683 0.7587 -0.5374
vn 0.6878 0.6390 -0.3445
vn 0.7463 0.6398 0.1834
vn 0.2060 0.4486 0.8697
vn -0.1958 0.4903 0.8493
vn -0.8159 0.5320 0.2267
vn -0.7818 0.4992 -0.3738
vn -0.3930 0.4955 -0.7746
vn 0.3423 0.5525 -0.7600
vn 0.6677 0.6903 -0.2788
s 0
f 3//1 2//1 1//1
f 4//1 3//1 1//1
f 5//1 4//1 1//1
f 6//1 5//1 1//1
f 7//1 6//1 1//1
f 8//1 7//1 1//1
f 9//1 8//1 1//1
f 2//1 9//1 1//1
f 3//2 11//2 10//2 2//2
f 4//3 12//3 11//3 3//3
f 5//4 13//4 12//4 4//4
f 6//5 14//5 13//5 5//5
f 7//6 15//6 14//6 6//6
f 8//7 16//7 15//7 7//7
f 9//8 17//8 16//8 8//8
f 2//9 10//9 17//9 9//9
f 11//10 19//10 18//10 10//10
f 12//11 20//11 19//11 11//11
f 13//12 21//12 20//12 12//12
f 14//13 22//13 21//13 13//13
f 15//14 23//14 22//14 14//14
f 16//15 24//15 23//15 15//15
f 17//16 25//16 24//16 16//16
f 10//17 18//17 25//17 17//17
f 19//18 27//18 26//18 18//18
f 20//19 28//19 27//19 19//19
f 21//20 29//20 28//20 20//20
f 22//21 30//21 29//21 21//21
f 23//22 31//22 30//22 22//22
f 24//23 32//23 31//23 23//23
f 25//24 33//24 32//24 24//24
f 18//25 26//25 33//25 25//25
