# Blender 4.4.1
# www.blender.org
o Hill_089
v -0.114220 0.000000 -0.048452
v -0.114220 5.548074 -0.048452
v -0.114220 5.548074 -0.048452
v -0.114220 5.548074 -0.048452
v -0.114220 5.548074 -0.048452
v -0.114220 5.548074 -0.048452
v -0.114220 5.548074 -0.048452
v -0.114220 5.548074 -0.048452
v -0.114220 5.548074 -0.048452
v 2.520770 4.485097 -0.048452
v 1.784752 4.556840 1.850520
v -0.114220 4.637443 2.477481
v -1.929277 4.640268 1.766604
v -2.805695 4.412856 -0.048452
v -2.028913 4.539945 -1.963146
v -0.114220 4.308592 -2.768718
v 1.749945 4.298359 -1.912617
v 4.563972 2.436512 -0.048452
v 3.981267 2.656318 4.047035
v -0.114220 2.270235 4.807110
v -4.083426 2.700860 3.920753
v -4.993698 2.305107 -0.048452
v -4.143977 2.861586 -4.078209
v -0.114220 2.712611 -5.721549
v 3.063198 2.207970 -3.225870
v 7.834868 -0.323401 -0.048452
v 4.672381 -0.090812 4.738149
v -0.114220 -0.132832 6.984864
v -5.792567 0.152810 5.629895
v -7.834868 0.174144 -0.048452
v -4.905105 -0.221811 -4.839337
v -0.114220 -0.230671 -6.984864
v 5.346920 0.329274 -5.509592
vn -0.0000 1.0000 -0.0000
vn 0.3719 0.9218 0.1093
vn 0.1502 0.9301 0.3353
vn -0.1302 0.9327 0.3363
vn -0.3876 0.9190 0.0720
vn -0.3868 0.9171 -0.0961
vn -0.0644 0.9081 -0.4138
vn 0.1918 0.8931 -0.4069
vn 0.3631 0.9002 -0.2403
vn 0.6478 0.7544 0.1058
vn 0.1127 0.7497 0.6522
vn -0.1251 0.7449 0.6553
vn -0.6451 0.7549 0.1179
vn -0.6342 0.7684 -0.0852
vn -0.1480 0.8577 -0.4924
vn 0.4194 0.7468 -0.5162
vn 0.6679 0.6542 -0.3548
vn 0.7591 0.5826 0.2904
vn 0.2568 0.4964 0.8293
vn -0.1286 0.6395 0.7580
vn -0.6722 0.7187 0.1778
vn -0.7588 0.5702 -0.3148
vn -0.3664 0.3375 -0.8671
vn 0.3123 0.6544 -0.6886
vn 0.5689 0.7914 -0.2238
s 0
f 3//1 2//1 1//1
f 4//1 3//1 1//1
f 5//1 4//1 1//1
f 6//1 5//1 1//1
f 7//1 6//1 1//1
f 8//1 7//1 1//1
f 9//1 8//1 1//1
f 2//1 9//1 1//1
f 3//2 11//2 10//2 2//2
f 4//3 12//3 11//3 3//3
f 5//4 13//4 12//4 4//4
f 6//5 14//5 13//5 5//5
f 7//6 15//6 14//6 6//6
f 8//7 16//7 15//7 7//7
f 9//8 17//8 16//8 8//8
f 2//9 10//9 17//9 9//9
f 11//10 19//10 18//10 10//10
f 12//11 20//11 19//11 11//11
f 13//12 21//12 20//12 12//12
f 14//13 22//13 21//13 13//13
f 15//14 23//14 22//14 14//14
f 16//15 24//15 23//15 15//15
f 17//16 25//16 24//16 16//16
f 10//17 18//17 25//17 17//17
f 19//18 27//18 26//18 18//18
f 20//19 28//19 27//19 19//19
f 21//20 29//20 28//20 20//20
f 22//21 30//21 29//21 21//21
f 23//22 31//22 30//22 22//22
f 24//23 32//23 31//23 23//23
f 25//24 33//24 32//24 24//24
f 18//25 26//25 33//25 25//25
