# Blender 4.4.1
# www.blender.org
o Hill_124
v 0.401133 0.000000 -0.505416
v 0.401133 5.334530 -0.505416
v 0.401133 5.334530 -0.505416
v 0.401133 5.334530 -0.505416
v 0.401133 5.334530 -0.505416
v 0.401133 5.334530 -0.505416
v 0.401133 5.334530 -0.505416
v 0.401133 5.334530 -0.505416
v 0.401133 5.334530 -0.505416
v 4.441571 4.417124 -0.505416
v 3.309690 4.261513 2.403141
v 0.401133 4.152531 3.663522
v -2.353188 4.278382 2.248905
v -3.369776 4.246090 -0.505416
v -2.274173 4.440151 -3.180722
v 0.401133 4.455750 -4.330242
v 3.349793 4.409898 -3.454076
v 8.361953 2.485704 -0.505416
v 5.698991 2.213400 4.792442
v 0.401133 2.304055 6.560228
v -5.342946 2.765885 5.238663
v -6.877484 2.496810 -0.505416
v -4.757597 2.658143 -5.664146
v 0.401133 2.409266 -8.327297
v 5.237913 2.438576 -5.342196
v 10.265993 0.266932 -0.505416
v 9.134263 -0.446705 8.227714
v 0.401133 0.109464 11.220573
v -9.221763 0.488934 9.117480
v -10.265993 -0.053895 -0.505416
v -8.844034 0.310770 -9.750584
v 0.401133 -0.380797 -11.220573
v 9.880438 -0.470483 -9.984720
vn -0.0000 1.0000 -0.0000
vn 0.2193 0.9660 0.1370
vn 0.0819 0.9588 0.2719
vn -0.0957 0.9577 0.2715
vn -0.2762 0.9568 0.0907
vn -0.2771 0.9599 -0.0438
vn -0.1014 0.9696 -0.2228
vn 0.0814 0.9714 -0.2232
vn 0.2206 0.9717 -0.0841
vn 0.4465 0.8588 0.2513
vn 0.1918 0.8294 0.5247
vn -0.0871 0.8835 0.4602
vn -0.4127 0.9062 0.0918
vn -0.4562 0.8776 -0.1474
vn -0.1902 0.8755 -0.4443
vn 0.2456 0.8355 -0.4916
vn 0.4772 0.8381 -0.2643
vn 0.5812 0.7856 0.2124
vn 0.1910 0.8755 0.4439
vn -0.0503 0.8940 0.4453
vn -0.5358 0.8431 0.0454
vn -0.5092 0.8555 -0.0940
vn -0.1036 0.8290 -0.5496
vn 0.1600 0.8322 -0.5308
vn 0.5273 0.8315 -0.1748
s 0
f 3//1 2//1 1//1
f 4//1 3//1 1//1
f 5//1 4//1 1//1
f 6//1 5//1 1//1
f 7//1 6//1 1//1
f 8//1 7//1 1//1
f 9//1 8//1 1//1
f 2//1 9//1 1//1
f 3//2 11//2 10//2 2//2
f 4//3 12//3 11//3 3//3
f 5//4 13//4 12//4 4//4
f 6//5 14//5 13//5 5//5
f 7//6 15//6 14//6 6//6
f 8//7 16//7 15//7 7//7
f 9//8 17//8 16//8 8//8
f 2//9 10//9 17//9 9//9
f 11//10 19//10 18//10 10//10
f 12//11 20//11 19//11 11//11
f 13//12 21//12 20//12 12//12
f 14//13 22//13 21//13 13//13
f 15//14 23//14 22//14 14//14
f 16//15 24//15 23//15 15//15
f 17//16 25//16 24//16 16//16
f 10//17 18//17 25//17 17//17
f 19//18 27//18 26//18 18//18
f 20//19 28//19 27//19 19//19
f 21//20 29//20 28//20 20//20
f 22//21 30//21 29//21 21//21
f 23//22 31//22 30//22 22//22
f 24//23 32//23 31//23 23//23
f 25//24 33//24 32//24 24//24
f 18//25 26//25 33//25 25//25
