# Blender 4.4.1
# www.blender.org
o Hill_120
v 0.294846 0.000000 1.345530
v 0.294846 8.909294 1.345530
v 0.294846 8.909294 1.345530
v 0.294846 8.909294 1.345530
v 0.294846 8.909294 1.345530
v 0.294846 8.909294 1.345530
v 0.294846 8.909294 1.345530
v 0.294846 8.909294 1.345530
v 0.294846 8.909294 1.345530
v 2.931403 7.404129 1.345530
v 2.228045 7.433352 3.278729
v 0.294846 6.987175 4.038257
v -1.611844 7.397047 3.252220
v -2.457669 7.437773 1.345530
v -1.709766 7.389668 -0.659081
v 0.294846 7.315631 -1.448910
v 2.221819 6.958009 -0.581443
v 5.994895 4.535822 1.345530
v 3.892008 3.958938 4.942692
v 0.294846 4.200205 7.001343
v -3.308938 4.121841 4.949315
v -5.267153 4.633807 1.345530
v -3.871120 4.539189 -2.820436
v 0.294846 4.254350 -4.973942
v 3.886329 3.994240 -2.245953
v 9.566319 -0.649312 1.345530
v 5.959275 -0.214946 7.009959
v 0.294846 -0.855374 8.648044
v -6.100365 0.566545 7.740741
v -9.566319 0.151264 1.345530
v -4.895875 0.702031 -3.845190
v 0.294846 0.795785 -8.648044
v 6.401385 0.687092 -4.761009
vn -0.0000 1.0000 -0.0000
vn 0.4890 0.8565 0.1650
vn 0.0404 0.8132 0.5805
vn -0.0644 0.8122 0.5798
vn -0.4597 0.8598 0.2223
vn -0.4626 0.8652 -0.1933
vn -0.1610 0.8573 -0.4889
vn 0.3587 0.8109 -0.4624
vn 0.4629 0.8108 -0.3582
vn 0.6789 0.6123 0.4051
vn 0.3395 0.6157 0.7111
vn -0.3245 0.6319 0.7038
vn -0.6764 0.6147 0.4058
vn -0.6773 0.6915 -0.2513
vn -0.2657 0.7170 -0.6444
vn 0.4654 0.6479 -0.6030
vn 0.6333 0.6383 -0.4376
vn 0.7173 0.5316 0.4504
vn 0.3219 0.4146 0.8512
vn -0.1842 0.4968 0.8481
vn -0.6376 0.6849 0.3525
vn -0.7277 0.5207 -0.4464
vn -0.5040 0.5166 -0.6922
vn 0.4246 0.6920 -0.5839
vn 0.7145 0.6123 -0.3384
s 0
f 3//1 2//1 1//1
f 4//1 3//1 1//1
f 5//1 4//1 1//1
f 6//1 5//1 1//1
f 7//1 6//1 1//1
f 8//1 7//1 1//1
f 9//1 8//1 1//1
f 2//1 9//1 1//1
f 3//2 11//2 10//2 2//2
f 4//3 12//3 11//3 3//3
f 5//4 13//4 12//4 4//4
f 6//5 14//5 13//5 5//5
f 7//6 15//6 14//6 6//6
f 8//7 16//7 15//7 7//7
f 9//8 17//8 16//8 8//8
f 2//9 10//9 17//9 9//9
f 11//10 19//10 18//10 10//10
f 12//11 20//11 19//11 11//11
f 13//12 21//12 20//12 12//12
f 14//13 22//13 21//13 13//13
f 15//14 23//14 22//14 14//14
f 16//15 24//15 23//15 15//15
f 17//16 25//16 24//16 16//16
f 10//17 18//17 25//17 17//17
f 19//18 27//18 26//18 18//18
f 20//19 28//19 27//19 19//19
f 21//20 29//20 28//20 20//20
f 22//21 30//21 29//21 21//21
f 23//22 31//22 30//22 22//22
f 24//23 32//23 31//23 23//23
f 25//24 33//24 32//24 24//24
f 18//25 26//25 33//25 25//25
