# Blender 4.4.1
# www.blender.org
o Hill_128
v 0.556166 0.000000 -1.064096
v 0.556166 7.276223 -1.064096
v 0.556166 7.276223 -1.064096
v 0.556166 7.276223 -1.064096
v 0.556166 7.276223 -1.064096
v 0.556166 7.276223 -1.064096
v 0.556166 7.276223 -1.064096
v 0.556166 7.276223 -1.064096
v 0.556166 7.276223 -1.064096
v 4.077817 6.098773 -1.064096
v 3.117824 5.977733 1.497562
v 0.556166 5.731698 2.486192
v -1.807395 5.958980 1.299465
v -3.106496 5.724602 -1.064096
v -1.944771 6.026460 -3.565033
v 0.556166 5.654776 -4.741774
v 3.015973 6.049087 -3.523903
v 7.563848 3.512440 -1.064096
v 5.814488 3.524686 4.194226
v 0.556166 3.108436 6.281338
v -3.786887 3.186805 3.278958
v -6.933119 3.358809 -1.064096
v -4.157460 3.705381 -5.777722
v 0.556166 3.355099 -8.379492
v 5.201420 3.450706 -5.709350
v 10.520050 0.116728 -1.064096
v 7.499564 0.703629 5.879302
v 0.556166 -0.512780 10.391313
v -7.266965 0.566715 6.759036
v -10.520050 -0.134136 -1.064096
v -8.112103 -0.601823 -9.732365
v 0.556166 -0.527320 -10.391313
v 9.117105 0.211686 -9.625035
vn -0.0000 1.0000 -0.0000
vn 0.3129 0.9359 0.1615
vn 0.0657 0.9150 0.3981
vn -0.1114 0.9113 0.3964
vn -0.3872 0.9139 0.1222
vn -0.3891 0.9185 -0.0699
vn -0.0538 0.9137 -0.4028
vn 0.0530 0.9137 -0.4029
vn 0.3133 0.9371 -0.1542
vn 0.5627 0.8006 0.2061
vn 0.1549 0.8084 0.5678
vn -0.3295 0.7436 0.5818
vn -0.5481 0.7567 0.3563
vn -0.5447 0.8080 -0.2247
vn -0.2105 0.8043 -0.5556
vn 0.2549 0.7850 -0.5646
vn 0.5815 0.7593 -0.2922
vn 0.7392 0.6219 0.2584
vn 0.2754 0.6817 0.6778
vn -0.2263 0.8007 0.5547
vn -0.5562 0.7899 0.2582
vn -0.6294 0.7356 -0.2505
vn -0.1710 0.6328 -0.7552
vn 0.1445 0.6787 -0.7200
vn 0.6293 0.7566 -0.1775
s 0
f 3//1 2//1 1//1
f 4//1 3//1 1//1
f 5//1 4//1 1//1
f 6//1 5//1 1//1
f 7//1 6//1 1//1
f 8//1 7//1 1//1
f 9//1 8//1 1//1
f 2//1 9//1 1//1
f 3//2 11//2 10//2 2//2
f 4//3 12//3 11//3 3//3
f 5//4 13//4 12//4 4//4
f 6//5 14//5 13//5 5//5
f 7//6 15//6 14//6 6//6
f 8//7 16//7 15//7 7//7
f 9//8 17//8 16//8 8//8
f 2//9 10//9 17//9 9//9
f 11//10 19//10 18//10 10//10
f 12//11 20//11 19//11 11//11
f 13//12 21//12 20//12 12//12
f 14//13 22//13 21//13 13//13
f 15//14 23//14 22//14 14//14
f 16//15 24//15 23//15 15//15
f 17//16 25//16 24//16 16//16
f 10//17 18//17 25//17 17//17
f 19//18 27//18 26//18 18//18
f 20//19 28//19 27//19 19//19
f 21//20 29//20 28//20 20//20
f 22//21 30//21 29//21 21//21
f 23//22 31//22 30//22 22//22
f 24//23 32//23 31//23 23//23
f 25//24 33//24 32//24 24//24
f 18//25 26//25 33//25 25//25
