# Blender 4.4.1
# www.blender.org
o Hill_185
v -1.162111 0.000000 1.321578
v -1.162111 8.864306 1.321578
v -1.162111 8.864306 1.321578
v -1.162111 8.864306 1.321578
v -1.162111 8.864306 1.321578
v -1.162111 8.864306 1.321578
v -1.162111 8.864306 1.321578
v -1.162111 8.864306 1.321578
v -1.162111 8.864306 1.321578
v 3.035205 7.061933 1.321578
v 1.666509 7.389969 4.150199
v -1.162111 7.075149 5.502799
v -4.044439 7.006868 4.203906
v -5.035489 7.198013 1.321578
v -3.816579 7.076432 -1.332889
v -1.162111 6.897952 -2.392564
v 1.795910 7.199379 -1.636443
v 6.880296 4.209532 1.321578
v 4.257555 3.954651 6.741245
v -1.162111 4.422420 10.070811
v -6.078121 4.094426 6.237587
v -9.497672 4.012597 1.321578
v -6.056279 4.270195 -3.572589
v -1.162111 4.014348 -6.014897
v 4.063328 4.252191 -3.903861
v 11.681163 0.809163 1.321578
v 7.737453 0.124590 10.221143
v -1.162111 0.143696 12.142949
v -11.067787 -0.221663 11.227254
v -11.681163 -0.881504 1.321578
v -9.488579 -0.218103 -7.004889
v -1.162111 -0.607780 -12.142949
v 6.620514 -0.500007 -6.461047
vn -0.0000 1.0000 -0.0000
vn 0.3932 0.9156 0.0841
vn 0.0855 0.9160 0.3920
vn -0.1952 0.9017 0.3858
vn -0.3877 0.9013 0.1931
vn -0.3857 0.8965 -0.2182
vn -0.1263 0.8767 -0.4641
vn 0.0295 0.8834 -0.4677
vn 0.3916 0.9120 -0.1217
vn 0.6076 0.7404 0.2875
vn 0.3225 0.7755 0.5428
vn -0.3832 0.7610 0.5235
vn -0.5845 0.7363 0.3409
vn -0.5636 0.7554 -0.3343
vn -0.2471 0.7408 -0.6246
vn 0.1814 0.7329 -0.6557
vn 0.6030 0.7460 -0.2825
vn 0.5510 0.7773 0.3037
vn 0.2881 0.6221 0.7280
vn -0.2482 0.6969 0.6728
vn -0.7323 0.6604 0.1662
vn -0.7711 0.5673 -0.2891
vn -0.3060 0.7417 -0.5969
vn 0.3610 0.6849 -0.6329
vn 0.5996 0.6757 -0.4289
s 0
f 3//1 2//1 1//1
f 4//1 3//1 1//1
f 5//1 4//1 1//1
f 6//1 5//1 1//1
f 7//1 6//1 1//1
f 8//1 7//1 1//1
f 9//1 8//1 1//1
f 2//1 9//1 1//1
f 3//2 11//2 10//2 2//2
f 4//3 12//3 11//3 3//3
f 5//4 13//4 12//4 4//4
f 6//5 14//5 13//5 5//5
f 7//6 15//6 14//6 6//6
f 8//7 16//7 15//7 7//7
f 9//8 17//8 16//8 8//8
f 2//9 10//9 17//9 9//9
f 11//10 19//10 18//10 10//10
f 12//11 20//11 19//11 11//11
f 13//12 21//12 20//12 12//12
f 14//13 22//13 21//13 13//13
f 15//14 23//14 22//14 14//14
f 16//15 24//15 23//15 15//15
f 17//16 25//16 24//16 16//16
f 10//17 18//17 25//17 17//17
f 19//18 27//18 26//18 18//18
f 20//19 28//19 27//19 19//19
f 21//20 29//20 28//20 20//20
f 22//21 30//21 29//21 21//21
f 23//22 31//22 30//22 22//22
f 24//23 32//23 31//23 23//23
f 25//24 33//24 32//24 24//24
f 18//25 26//25 33//25 25//25
