# Blender 4.4.1
# www.blender.org
o Hill_204
v -0.233413 0.000000 0.769660
v -0.233413 8.052575 0.769660
v -0.233413 8.052575 0.769660
v -0.233413 8.052575 0.769660
v -0.233413 8.052575 0.769660
v -0.233413 8.052575 0.769660
v -0.233413 8.052575 0.769660
v -0.233413 8.052575 0.769660
v -0.233413 8.052575 0.769660
v 2.241070 6.699254 0.769660
v 1.344535 6.697568 2.347607
v -0.233413 6.677534 3.113410
v -1.881734 6.561592 2.417981
v -2.744057 6.383509 0.769660
v -1.945030 6.286261 -0.941958
v -0.233413 6.609316 -1.484191
v 1.349174 6.529458 -0.812928
v 3.930047 4.072134 0.769660
v 3.035742 3.154949 4.038814
v -0.233413 3.312946 5.727756
v -3.128565 3.138249 3.664812
v -5.503808 3.935576 0.769660
v -3.606718 3.340110 -2.603646
v -0.233413 4.069756 -3.820614
v 2.663269 3.810828 -2.127022
v 6.357258 -0.516234 0.769660
v 4.261915 0.047446 5.264987
v -0.233413 0.337861 7.100588
v -6.112921 0.085600 6.649168
v -6.357258 -0.132175 0.769660
v -5.862542 -0.529995 -4.859469
v -0.233413 0.430501 -7.100588
v 3.897717 -0.078751 -3.361471
vn -0.0000 1.0000 -0.0000
vn 0.4628 0.8463 0.2639
vn 0.2284 0.8397 0.4926
vn -0.2644 0.8318 0.4880
vn -0.5429 0.8167 0.1958
vn -0.5294 0.7964 -0.2924
vn -0.3132 0.7998 -0.5121
vn 0.2618 0.8128 -0.5205
vn 0.4508 0.8243 -0.3425
vn 0.7629 0.5224 0.3809
vn 0.3886 0.5541 0.7362
vn -0.4726 0.4997 0.7259
vn -0.6421 0.5513 0.5327
vn -0.6322 0.6487 -0.4236
vn -0.3683 0.6179 -0.6947
vn 0.4123 0.5868 -0.6969
vn 0.7481 0.5212 -0.4107
vn 0.8278 0.4470 0.3391
vn 0.3941 0.4272 0.8138
vn -0.2396 0.6439 0.7267
vn -0.7944 0.5426 0.2730
vn -0.8657 0.4176 -0.2761
vn -0.3801 0.6201 -0.6863
vn 0.5660 0.4902 -0.6628
vn 0.8097 0.4107 -0.4190
s 0
f 3//1 2//1 1//1
f 4//1 3//1 1//1
f 5//1 4//1 1//1
f 6//1 5//1 1//1
f 7//1 6//1 1//1
f 8//1 7//1 1//1
f 9//1 8//1 1//1
f 2//1 9//1 1//1
f 3//2 11//2 10//2 2//2
f 4//3 12//3 11//3 3//3
f 5//4 13//4 12//4 4//4
f 6//5 14//5 13//5 5//5
f 7//6 15//6 14//6 6//6
f 8//7 16//7 15//7 7//7
f 9//8 17//8 16//8 8//8
f 2//9 10//9 17//9 9//9
f 11//10 19//10 18//10 10//10
f 12//11 20//11 19//11 11//11
f 13//12 21//12 20//12 12//12
f 14//13 22//13 21//13 13//13
f 15//14 23//14 22//14 14//14
f 16//15 24//15 23//15 15//15
f 17//16 25//16 24//16 16//16
f 10//17 18//17 25//17 17//17
f 19//18 27//18 26//18 18//18
f 20//19 28//19 27//19 19//19
f 21//20 29//20 28//20 20//20
f 22//21 30//21 29//21 21//21
f 23//22 31//22 30//22 22//22
f 24//23 32//23 31//23 23//23
f 25//24 33//24 32//24 24//24
f 18//25 26//25 33//25 25//25
