# Blender 4.4.1
# www.blender.org
o Hill_116
v -0.394151 0.000000 0.228777
v -0.394151 9.087928 0.228777
v -0.394151 9.087928 0.228777
v -0.394151 9.087928 0.228777
v -0.394151 9.087928 0.228777
v -0.394151 9.087928 0.228777
v -0.394151 9.087928 0.228777
v -0.394151 9.087928 0.228777
v -0.394151 9.087928 0.228777
v 2.049777 7.367055 0.228777
v 1.288801 7.230092 1.911730
v -0.394151 7.156010 2.690461
v -2.250827 7.294315 2.085452
v -2.851616 7.085940 0.228777
v -2.035714 7.099227 -1.412786
v -0.394151 7.405396 -2.270371
v 1.313333 7.637213 -1.478708
v 4.921595 4.469273 0.228777
v 3.297490 4.174469 3.920419
v -0.394151 4.682460 4.580583
v -3.719535 4.247076 3.554160
v -5.881155 4.192933 0.228777
v -4.031600 4.431000 -3.408672
v -0.394151 3.592427 -4.774365
v 2.927330 3.763318 -3.092704
v 8.423367 -0.813487 0.228777
v 5.548836 0.679241 6.171764
v -0.394151 0.043594 8.375066
v -4.976007 -0.234789 4.810633
v -8.423367 0.746413 0.228777
v -4.808493 0.817849 -4.185564
v -0.394151 0.386074 -8.375066
v 3.966159 -0.538717 -4.131533
vn -0.0000 1.0000 -0.0000
vn 0.5472 0.7772 0.3107
vn 0.2435 0.7630 0.5988
vn -0.1411 0.7788 0.6112
vn -0.6273 0.7700 0.1166
vn -0.6037 0.7410 -0.2940
vn -0.4077 0.7575 -0.5100
vn 0.1448 0.8208 -0.5526
vn 0.5717 0.8119 -0.1181
vn 0.6641 0.6618 0.3479
vn 0.2496 0.6170 0.7464
vn -0.2790 0.5522 0.7856
vn -0.7054 0.6194 0.3447
vn -0.6532 0.6967 -0.2966
vn -0.2571 0.6033 -0.7549
vn 0.3501 0.4984 -0.7931
vn 0.7019 0.5676 -0.4303
vn 0.7661 0.5755 0.2862
vn 0.2159 0.6203 0.7541
vn -0.4734 0.4758 0.7413
vn -0.7122 0.4292 0.5555
vn -0.7609 0.4128 -0.5005
vn -0.4268 0.5225 -0.7381
vn 0.5622 0.4896 -0.6665
vn 0.6929 0.3937 -0.6040
s 0
f 3//1 2//1 1//1
f 4//1 3//1 1//1
f 5//1 4//1 1//1
f 6//1 5//1 1//1
f 7//1 6//1 1//1
f 8//1 7//1 1//1
f 9//1 8//1 1//1
f 2//1 9//1 1//1
f 3//2 11//2 10//2 2//2
f 4//3 12//3 11//3 3//3
f 5//4 13//4 12//4 4//4
f 6//5 14//5 13//5 5//5
f 7//6 15//6 14//6 6//6
f 8//7 16//7 15//7 7//7
f 9//8 17//8 16//8 8//8
f 2//9 10//9 17//9 9//9
f 11//10 19//10 18//10 10//10
f 12//11 20//11 19//11 11//11
f 13//12 21//12 20//12 12//12
f 14//13 22//13 21//13 13//13
f 15//14 23//14 22//14 14//14
f 16//15 24//15 23//15 15//15
f 17//16 25//16 24//16 16//16
f 10//17 18//17 25//17 17//17
f 19//18 27//18 26//18 18//18
f 20//19 28//19 27//19 19//19
f 21//20 29//20 28//20 20//20
f 22//21 30//21 29//21 21//21
f 23//22 31//22 30//22 22//22
f 24//23 32//23 31//23 23//23
f 25//24 33//24 32//24 24//24
f 18//25 26//25 33//25 25//25
