# Blender 4.4.1
# www.blender.org
o Hill_211
v 0.060694 0.000000 0.076729
v 0.060694 6.487704 0.076729
v 0.060694 6.487704 0.076729
v 0.060694 6.487704 0.076729
v 0.060694 6.487704 0.076729
v 0.060694 6.487704 0.076729
v 0.060694 6.487704 0.076729
v 0.060694 6.487704 0.076729
v 0.060694 6.487704 0.076729
v 3.775945 5.045094 0.076729
v 2.453582 5.213673 2.469617
v 0.060694 5.339111 3.669389
v -2.488207 5.410937 2.625630
v -3.656045 5.385590 0.076729
v -2.558819 5.152313 -2.542784
v 0.060694 5.299393 -3.495390
v 2.709452 5.218321 -2.572029
v 6.374441 2.536178 0.076729
v 4.855095 3.025966 4.871130
v 0.060694 3.358903 6.802239
v -5.533997 3.225169 5.671420
v -7.594571 3.211260 0.076729
v -4.570164 2.953079 -4.554129
v 0.060694 2.976203 -7.737597
v 4.939579 2.976461 -4.802155
v 8.941669 0.293399 0.076729
v 8.014285 -0.376391 8.030320
v 0.060694 0.326961 10.747445
v -8.528191 -0.500751 8.665614
v -8.815658 -0.329885 0.076729
v -8.941669 -0.010790 -8.925633
v 0.060694 -0.291814 -10.747445
v 8.853120 0.099181 -8.715696
vn -0.0000 1.0000 -0.0000
vn 0.3587 0.9239 0.1332
vn 0.1986 0.9335 0.2985
vn -0.0974 0.9480 0.3031
vn -0.2822 0.9518 0.1199
vn -0.2785 0.9393 -0.2003
vn -0.1657 0.9358 -0.3113
vn 0.1378 0.9398 -0.3126
vn 0.3607 0.9289 -0.0845
vn 0.6268 0.7585 0.1783
vn 0.2708 0.8218 0.5014
vn -0.1412 0.8517 0.5046
vn -0.4634 0.8678 0.1795
vn -0.4841 0.8104 -0.3301
vn -0.3007 0.8161 -0.4935
vn 0.2622 0.8288 -0.4942
vn 0.6547 0.7393 -0.1573
vn 0.6563 0.7421 0.1364
vn 0.2728 0.7703 0.5764
vn -0.1953 0.7434 0.6397
vn -0.8293 0.5401 0.1433
vn -0.6997 0.6994 -0.1456
vn -0.1920 0.8030 -0.5642
vn 0.1915 0.7853 -0.5888
vn 0.5994 0.7987 -0.0524
s 0
f 3//1 2//1 1//1
f 4//1 3//1 1//1
f 5//1 4//1 1//1
f 6//1 5//1 1//1
f 7//1 6//1 1//1
f 8//1 7//1 1//1
f 9//1 8//1 1//1
f 2//1 9//1 1//1
f 3//2 11//2 10//2 2//2
f 4//3 12//3 11//3 3//3
f 5//4 13//4 12//4 4//4
f 6//5 14//5 13//5 5//5
f 7//6 15//6 14//6 6//6
f 8//7 16//7 15//7 7//7
f 9//8 17//8 16//8 8//8
f 2//9 10//9 17//9 9//9
f 11//10 19//10 18//10 10//10
f 12//11 20//11 19//11 11//11
f 13//12 21//12 20//12 12//12
f 14//13 22//13 21//13 13//13
f 15//14 23//14 22//14 14//14
f 16//15 24//15 23//15 15//15
f 17//16 25//16 24//16 16//16
f 10//17 18//17 25//17 17//17
f 19//18 27//18 26//18 18//18
f 20//19 28//19 27//19 19//19
f 21//20 29//20 28//20 20//20
f 22//21 30//21 29//21 21//21
f 23//22 31//22 30//22 22//22
f 24//23 32//23 31//23 23//23
f 25//24 33//24 32//24 24//24
f 18//25 26//25 33//25 25//25
