# Blender 4.4.1
# www.blender.org
o Hill_079
v -0.557600 0.000000 -0.320423
v -0.557600 5.265966 -0.320423
v -0.557600 5.265966 -0.320423
v -0.557600 5.265966 -0.320423
v -0.557600 5.265966 -0.320423
v -0.557600 5.265966 -0.320423
v -0.557600 5.265966 -0.320423
v -0.557600 5.265966 -0.320423
v -0.557600 5.265966 -0.320423
v 2.450424 4.153831 -0.320423
v 1.687286 4.201497 1.924463
v -0.557600 4.300642 2.998140
v -2.787282 4.416445 1.909259
v -3.573025 4.168718 -0.320423
v -2.751073 4.186087 -2.513896
v -0.557600 4.315344 -3.533716
v 1.642017 4.279973 -2.520041
v 6.126200 2.188552 -0.320423
v 3.510544 2.437652 3.747721
v -0.557600 2.108574 5.713813
v -5.143590 2.489634 4.265566
v -7.007766 2.312449 -0.320423
v -5.515183 2.355228 -5.278006
v -0.557600 2.358745 -6.078608
v 3.723906 2.704879 -4.601930
v 9.813672 -0.033303 -0.320423
v 6.005682 -0.083723 6.242858
v -0.557600 -0.497452 8.894892
v -7.475693 0.481827 6.597670
v -9.813672 0.269466 -0.320423
v -7.627901 -0.208122 -7.390724
v -0.557600 0.012856 -8.894892
v 5.193556 0.045571 -6.071579
vn -0.0000 1.0000 -0.0000
vn 0.3451 0.9335 0.0975
vn 0.1733 0.9457 0.2751
vn -0.0862 0.9566 0.2783
vn -0.3419 0.9396 0.0161
vn -0.3395 0.9329 -0.1198
vn -0.1851 0.9423 -0.2788
vn 0.1446 0.9488 -0.2807
vn 0.3458 0.9354 -0.0735
vn 0.4946 0.8394 0.2252
vn 0.2497 0.7774 0.5773
vn -0.1567 0.8010 0.5777
vn -0.5005 0.8541 0.1413
vn -0.4589 0.8772 -0.1411
vn -0.1485 0.8400 -0.5219
vn 0.1713 0.8188 -0.5479
vn 0.4777 0.8655 -0.1508
vn 0.5059 0.8122 0.2905
vn 0.2084 0.7696 0.6036
vn -0.1063 0.7842 0.6113
vn -0.5587 0.8103 0.1766
vn -0.6164 0.7572 -0.2159
vn -0.1415 0.7311 -0.6675
vn 0.2706 0.6708 -0.6905
vn 0.5830 0.7259 -0.3650
s 0
f 3//1 2//1 1//1
f 4//1 3//1 1//1
f 5//1 4//1 1//1
f 6//1 5//1 1//1
f 7//1 6//1 1//1
f 8//1 7//1 1//1
f 9//1 8//1 1//1
f 2//1 9//1 1//1
f 3//2 11//2 10//2 2//2
f 4//3 12//3 11//3 3//3
f 5//4 13//4 12//4 4//4
f 6//5 14//5 13//5 5//5
f 7//6 15//6 14//6 6//6
f 8//7 16//7 15//7 7//7
f 9//8 17//8 16//8 8//8
f 2//9 10//9 17//9 9//9
f 11//10 19//10 18//10 10//10
f 12//11 20//11 19//11 11//11
f 13//12 21//12 20//12 12//12
f 14//13 22//13 21//13 13//13
f 15//14 23//14 22//14 14//14
f 16//15 24//15 23//15 15//15
f 17//16 25//16 24//16 16//16
f 10//17 18//17 25//17 17//17
f 19//18 27//18 26//18 18//18
f 20//19 28//19 27//19 19//19
f 21//20 29//20 28//20 20//20
f 22//21 30//21 29//21 21//21
f 23//22 31//22 30//22 22//22
f 24//23 32//23 31//23 23//23
f 25//24 33//24 32//24 24//24
f 18//25 26//25 33//25 25//25
