# Blender 4.4.1
# www.blender.org
o Hill_246
v 1.747188 0.000000 0.502224
v 1.747188 7.881090 0.502224
v 1.747188 7.881090 0.502224
v 1.747188 7.881090 0.502224
v 1.747188 7.881090 0.502224
v 1.747188 7.881090 0.502224
v 1.747188 7.881090 0.502224
v 1.747188 7.881090 0.502224
v 1.747188 7.881090 0.502224
v 5.105007 6.123491 0.502224
v 4.122307 6.329682 2.877343
v 1.747188 6.124797 3.685185
v -0.735555 6.567758 2.984967
v -1.471819 6.434403 0.502224
v -0.586238 6.105881 -1.831202
v 1.747188 6.165078 -2.924468
v 4.271245 6.409895 -2.021833
v 8.727476 4.104423 0.502224
v 5.997467 3.844182 4.752503
v 1.747188 3.216199 7.567404
v -2.601429 3.704982 4.850842
v -4.772760 3.789309 0.502224
v -3.413457 3.549207 -4.658422
v 1.747188 3.557007 -6.075968
v 6.689537 3.308778 -4.440125
v 10.380444 0.235278 0.502224
v 8.067319 -0.169565 6.822355
v 1.747188 0.341421 8.879704
v -5.277338 -0.578396 7.526749
v -10.380444 -0.238298 0.502224
v -6.388207 -0.011039 -7.633171
v 1.747188 -0.281070 -8.879704
v 9.872734 0.758921 -7.623322
vn -0.0000 1.0000 -0.0000
vn 0.4607 0.8802 0.1142
vn 0.0884 0.8721 0.4812
vn 0.0200 0.8754 0.4830
vn -0.4088 0.9097 0.0724
vn -0.3943 0.8774 -0.2732
vn -0.2264 0.8709 -0.4361
vn 0.0732 0.8917 -0.4466
vn 0.4631 0.8847 -0.0526
vn 0.5380 0.7847 0.3079
vn 0.2448 0.7461 0.6192
vn -0.2276 0.7231 0.6522
vn -0.6537 0.7057 0.2732
vn -0.5661 0.7917 -0.2296
vn -0.2025 0.7864 -0.5836
vn 0.2212 0.7274 -0.6496
vn 0.5582 0.7852 -0.2682
vn 0.7821 0.4752 0.4031
vn 0.3589 0.4960 0.7906
vn -0.3002 0.5474 0.7811
vn -0.5821 0.7086 0.3988
vn -0.5949 0.7671 -0.2402
vn -0.1382 0.6436 -0.7528
vn 0.1113 0.7085 -0.6968
vn 0.7489 0.6432 -0.1593
s 0
f 3//1 2//1 1//1
f 4//1 3//1 1//1
f 5//1 4//1 1//1
f 6//1 5//1 1//1
f 7//1 6//1 1//1
f 8//1 7//1 1//1
f 9//1 8//1 1//1
f 2//1 9//1 1//1
f 3//2 11//2 10//2 2//2
f 4//3 12//3 11//3 3//3
f 5//4 13//4 12//4 4//4
f 6//5 14//5 13//5 5//5
f 7//6 15//6 14//6 6//6
f 8//7 16//7 15//7 7//7
f 9//8 17//8 16//8 8//8
f 2//9 10//9 17//9 9//9
f 11//10 19//10 18//10 10//10
f 12//11 20//11 19//11 11//11
f 13//12 21//12 20//12 12//12
f 14//13 22//13 21//13 13//13
f 15//14 23//14 22//14 14//14
f 16//15 24//15 23//15 15//15
f 17//16 25//16 24//16 16//16
f 10//17 18//17 25//17 17//17
f 19//18 27//18 26//18 18//18
f 20//19 28//19 27//19 19//19
f 21//20 29//20 28//20 20//20
f 22//21 30//21 29//21 21//21
f 23//22 31//22 30//22 22//22
f 24//23 32//23 31//23 23//23
f 25//24 33//24 32//24 24//24
f 18//25 26//25 33//25 25//25
