# Blender 4.4.1
# www.blender.org
o Hill_216
v -0.161886 0.000000 0.125294
v -0.161886 7.096080 0.125294
v -0.161886 7.096080 0.125294
v -0.161886 7.096080 0.125294
v -0.161886 7.096080 0.125294
v -0.161886 7.096080 0.125294
v -0.161886 7.096080 0.125294
v -0.161886 7.096080 0.125294
v -0.161886 7.096080 0.125294
v 2.296695 5.862631 0.125294
v 1.494618 5.916481 1.781798
v -0.161886 5.558024 2.525457
v -1.895028 5.586906 1.858436
v -2.738265 5.769889 0.125294
v -1.766548 5.713809 -1.479368
v -0.161886 5.508107 -2.336640
v 1.462418 5.609046 -1.499009
v 4.478500 3.515359 0.125294
v 3.698195 2.784988 3.985375
v -0.161886 3.342588 4.931243
v -3.219659 3.472493 3.183067
v -4.415180 3.187548 0.125294
v -3.284461 2.863670 -2.997281
v -0.161886 3.120564 -4.783136
v 2.851736 3.242278 -2.888327
v 8.242579 0.220101 0.125294
v 4.979581 -0.446148 5.266761
v -0.161886 0.459297 6.025120
v -4.933750 0.598979 4.897159
v -8.242579 0.345553 0.125294
v -5.914681 0.707896 -5.627501
v -0.161886 -0.472338 -6.025120
v 5.622629 0.659102 -5.659220
vn -0.0000 1.0000 -0.0000
vn 0.4407 0.8784 0.1848
vn 0.0599 0.8404 0.5386
vn -0.1901 0.8266 0.5297
vn -0.4363 0.8477 0.3018
vn -0.4374 0.8497 -0.2945
vn -0.1789 0.8268 -0.5333
vn 0.2216 0.8195 -0.5286
vn 0.4206 0.8383 -0.3469
vn 0.6914 0.6660 0.2800
vn 0.2350 0.6884 0.6862
vn -0.3151 0.6730 0.6692
vn -0.7587 0.5725 0.3107
vn -0.7486 0.5455 -0.3768
vn -0.3860 0.6253 -0.6783
vn 0.3638 0.6470 -0.6701
vn 0.6592 0.6233 -0.4206
vn 0.6846 0.6081 0.4019
vn 0.2324 0.3941 0.8892
vn -0.2862 0.4876 0.8248
vn -0.6324 0.7076 0.3152
vn -0.5441 0.8127 -0.2085
vn -0.1331 0.5949 -0.7927
vn 0.1245 0.5793 -0.8056
vn 0.5801 0.7701 -0.2655
s 0
f 3//1 2//1 1//1
f 4//1 3//1 1//1
f 5//1 4//1 1//1
f 6//1 5//1 1//1
f 7//1 6//1 1//1
f 8//1 7//1 1//1
f 9//1 8//1 1//1
f 2//1 9//1 1//1
f 3//2 11//2 10//2 2//2
f 4//3 12//3 11//3 3//3
f 5//4 13//4 12//4 4//4
f 6//5 14//5 13//5 5//5
f 7//6 15//6 14//6 6//6
f 8//7 16//7 15//7 7//7
f 9//8 17//8 16//8 8//8
f 2//9 10//9 17//9 9//9
f 11//10 19//10 18//10 10//10
f 12//11 20//11 19//11 11//11
f 13//12 21//12 20//12 12//12
f 14//13 22//13 21//13 13//13
f 15//14 23//14 22//14 14//14
f 16//15 24//15 23//15 15//15
f 17//16 25//16 24//16 16//16
f 10//17 18//17 25//17 17//17
f 19//18 27//18 26//18 18//18
f 20//19 28//19 27//19 19//19
f 21//20 29//20 28//20 20//20
f 22//21 30//21 29//21 21//21
f 23//22 31//22 30//22 22//22
f 24//23 32//23 31//23 23//23
f 25//24 33//24 32//24 24//24
f 18//25 26//25 33//25 25//25
