# Blender 4.4.1
# www.blender.org
o Hill_240
v 0.049333 0.000000 -1.057668
v 0.049333 7.292647 -1.057668
v 0.049333 7.292647 -1.057668
v 0.049333 7.292647 -1.057668
v 0.049333 7.292647 -1.057668
v 0.049333 7.292647 -1.057668
v 0.049333 7.292647 -1.057668
v 0.049333 7.292647 -1.057668
v 0.049333 7.292647 -1.057668
v 4.061975 5.666522 -1.057668
v 2.763147 5.985634 1.656145
v 0.049333 5.889775 2.816799
v -2.562751 5.905117 1.554416
v -3.832805 5.824620 -1.057668
v -2.880988 5.976527 -3.987990
v 0.049333 6.070862 -5.217041
v 2.937384 5.778317 -3.945719
v 8.663914 3.332776 -1.057668
v 5.062874 3.179395 3.955872
v 0.049333 3.276135 7.222255
v -5.483059 3.340312 4.474724
v -7.311343 3.529463 -1.057668
v -5.354212 3.808298 -6.461214
v 0.049333 3.061296 -9.846639
v 4.902839 3.228940 -5.911174
v 11.619298 0.401771 -1.057668
v 9.912750 -0.134546 8.805748
v 0.049333 -0.540607 11.083913
v -8.523341 0.097645 7.515006
v -11.619298 0.599997 -1.057668
v -9.539480 0.590820 -10.646482
v 0.049333 -0.655612 -11.083913
v 7.543052 0.152901 -8.551387
vn -0.0000 1.0000 -0.0000
vn 0.3746 0.9245 0.0706
vn 0.1117 0.9344 0.3383
vn -0.1570 0.9286 0.3362
vn -0.3501 0.9259 0.1417
vn -0.3529 0.9333 -0.0663
vn -0.1475 0.9490 -0.2788
vn 0.2160 0.9368 -0.2752
vn 0.3733 0.9212 -0.1097
vn 0.5029 0.8101 0.3015
vn 0.3055 0.7890 0.5330
vn -0.2362 0.8354 0.4963
vn -0.5280 0.8224 0.2118
vn -0.5524 0.8199 -0.1504
vn -0.2245 0.8230 -0.5218
vn 0.3700 0.7618 -0.5318
vn 0.5031 0.8041 -0.3167
vn 0.5203 0.8241 0.2238
vn 0.1905 0.8090 0.5561
vn -0.2488 0.7298 0.6368
vn -0.5658 0.7900 0.2363
vn -0.5385 0.8325 -0.1300
vn -0.1051 0.6512 -0.7516
vn 0.3481 0.5631 -0.7495
vn 0.5821 0.7136 -0.3899
s 0
f 3//1 2//1 1//1
f 4//1 3//1 1//1
f 5//1 4//1 1//1
f 6//1 5//1 1//1
f 7//1 6//1 1//1
f 8//1 7//1 1//1
f 9//1 8//1 1//1
f 2//1 9//1 1//1
f 3//2 11//2 10//2 2//2
f 4//3 12//3 11//3 3//3
f 5//4 13//4 12//4 4//4
f 6//5 14//5 13//5 5//5
f 7//6 15//6 14//6 6//6
f 8//7 16//7 15//7 7//7
f 9//8 17//8 16//8 8//8
f 2//9 10//9 17//9 9//9
f 11//10 19//10 18//10 10//10
f 12//11 20//11 19//11 11//11
f 13//12 21//12 20//12 12//12
f 14//13 22//13 21//13 13//13
f 15//14 23//14 22//14 14//14
f 16//15 24//15 23//15 15//15
f 17//16 25//16 24//16 16//16
f 10//17 18//17 25//17 17//17
f 19//18 27//18 26//18 18//18
f 20//19 28//19 27//19 19//19
f 21//20 29//20 28//20 20//20
f 22//21 30//21 29//21 21//21
f 23//22 31//22 30//22 22//22
f 24//23 32//23 31//23 23//23
f 25//24 33//24 32//24 24//24
f 18//25 26//25 33//25 25//25
