# Blender 4.4.1
# www.blender.org
o Hill_238
v -0.957007 0.000000 -1.097588
v -0.957007 5.096388 -1.097588
v -0.957007 5.096388 -1.097588
v -0.957007 5.096388 -1.097588
v -0.957007 5.096388 -1.097588
v -0.957007 5.096388 -1.097588
v -0.957007 5.096388 -1.097588
v -0.957007 5.096388 -1.097588
v -0.957007 5.096388 -1.097588
v 2.422151 4.197979 -1.097588
v 1.240802 4.212878 1.100221
v -0.957007 4.182648 2.238547
v -3.307279 4.181412 1.252684
v -4.297542 3.971308 -1.097588
v -3.289725 3.983641 -3.430306
v -0.957007 4.237912 -4.288414
v 1.158556 4.161122 -3.213151
v 6.224305 2.166710 -1.097588
v 3.236677 2.059902 3.096096
v -0.957007 2.341091 5.962744
v -5.926065 2.498005 3.871470
v -8.082442 2.052467 -1.097588
v -5.668528 2.154151 -5.809109
v -0.957007 2.608349 -7.968935
v 3.763788 2.594924 -5.818384
v 9.244122 -0.414689 -1.097588
v 4.482681 0.447955 4.342100
v -0.957007 -0.392995 9.567317
v -6.540541 0.100987 4.485945
v -9.244122 0.133332 -1.097588
v -6.508286 0.387158 -6.648867
v -0.957007 0.013432 -9.567317
v 5.944740 0.017920 -7.999335
vn -0.0000 1.0000 -0.0000
vn 0.2547 0.9582 0.1304
vn 0.1226 0.9572 0.2622
vn -0.1106 0.9586 0.2625
vn -0.3188 0.9465 0.0497
vn -0.3164 0.9394 -0.1317
vn -0.1969 0.9468 -0.2547
vn 0.1648 0.9525 -0.2563
vn 0.2533 0.9527 -0.1679
vn 0.4780 0.8166 0.3235
vn 0.3229 0.8251 0.4636
vn -0.1609 0.8894 0.4278
vn -0.4510 0.8851 0.1146
vn -0.4498 0.8694 -0.2044
vn -0.2597 0.8790 -0.3998
vn 0.1915 0.9047 -0.3806
vn 0.4247 0.8872 -0.1806
vn 0.5765 0.7078 0.4082
vn 0.4158 0.7278 0.5453
vn -0.4215 0.6055 0.6750
vn -0.8391 0.3981 0.3708
vn -0.7773 0.5069 -0.3725
vn -0.3858 0.5056 -0.7717
vn 0.2355 0.6362 -0.7347
vn 0.6249 0.7379 -0.2550
s 0
f 3//1 2//1 1//1
f 4//1 3//1 1//1
f 5//1 4//1 1//1
f 6//1 5//1 1//1
f 7//1 6//1 1//1
f 8//1 7//1 1//1
f 9//1 8//1 1//1
f 2//1 9//1 1//1
f 3//2 11//2 10//2 2//2
f 4//3 12//3 11//3 3//3
f 5//4 13//4 12//4 4//4
f 6//5 14//5 13//5 5//5
f 7//6 15//6 14//6 6//6
f 8//7 16//7 15//7 7//7
f 9//8 17//8 16//8 8//8
f 2//9 10//9 17//9 9//9
f 11//10 19//10 18//10 10//10
f 12//11 20//11 19//11 11//11
f 13//12 21//12 20//12 12//12
f 14//13 22//13 21//13 13//13
f 15//14 23//14 22//14 14//14
f 16//15 24//15 23//15 15//15
f 17//16 25//16 24//16 16//16
f 10//17 18//17 25//17 17//17
f 19//18 27//18 26//18 18//18
f 20//19 28//19 27//19 19//19
f 21//20 29//20 28//20 20//20
f 22//21 30//21 29//21 21//21
f 23//22 31//22 30//22 22//22
f 24//23 32//23 31//23 23//23
f 25//24 33//24 32//24 24//24
f 18//25 26//25 33//25 25//25
