# Blender 4.4.1
# www.blender.org
o Hill_203
v 0.063290 0.000000 0.536152
v 0.063290 9.769776 0.536152
v 0.063290 9.769776 0.536152
v 0.063290 9.769776 0.536152
v 0.063290 9.769776 0.536152
v 0.063290 9.769776 0.536152
v 0.063290 9.769776 0.536152
v 0.063290 9.769776 0.536152
v 0.063290 9.769776 0.536152
v 3.482142 7.666202 0.536152
v 2.516727 7.618443 2.989589
v 0.063290 7.625382 4.019851
v -2.393258 8.073326 2.992700
v -3.208120 7.756761 0.536152
v -2.341142 8.139321 -1.868279
v 0.063290 7.914545 -2.885742
v 2.532669 7.917876 -1.933227
v 6.783131 5.091944 0.536152
v 4.516427 3.811455 4.989289
v 0.063290 3.943411 7.660326
v -4.425947 4.525086 5.025389
v -5.809339 4.203376 0.536152
v -4.399436 3.974452 -3.926574
v 0.063290 3.801716 -6.718031
v 5.139796 4.031894 -4.540354
v 11.757389 0.811998 0.536152
v 7.117251 0.270195 7.590113
v 0.063290 0.648534 10.442522
v -7.055491 0.539171 7.654933
v -11.757389 0.269267 0.536152
v -6.380512 0.723386 -5.907650
v 0.063290 0.537476 -10.442522
v 6.046726 -0.126334 -5.447284
vn -0.0000 1.0000 -0.0000
vn 0.5115 0.8313 0.2175
vn 0.2172 0.8313 0.5117
vn -0.0638 0.8499 0.5231
vn -0.5230 0.8499 0.0640
vn -0.5233 0.8505 -0.0534
vn -0.1187 0.8729 -0.4733
vn 0.1797 0.8648 -0.4689
vn 0.5206 0.8461 -0.1139
vn 0.6290 0.6541 0.4201
vn 0.3806 0.6190 0.6870
vn -0.2819 0.6401 0.7147
vn -0.7939 0.5748 0.1984
vn -0.7972 0.5485 -0.2521
vn -0.3618 0.5986 -0.7147
vn 0.2719 0.6557 -0.7044
vn 0.6422 0.7069 -0.2964
vn 0.5631 0.6944 0.4480
vn 0.3493 0.6581 0.6670
vn -0.3050 0.6366 0.7083
vn -0.6040 0.7467 0.2786
vn -0.5810 0.7366 -0.3463
vn -0.3988 0.6698 -0.6264
vn 0.4835 0.5052 -0.7149
vn 0.6645 0.5208 -0.5359
s 0
f 3//1 2//1 1//1
f 4//1 3//1 1//1
f 5//1 4//1 1//1
f 6//1 5//1 1//1
f 7//1 6//1 1//1
f 8//1 7//1 1//1
f 9//1 8//1 1//1
f 2//1 9//1 1//1
f 3//2 11//2 10//2 2//2
f 4//3 12//3 11//3 3//3
f 5//4 13//4 12//4 4//4
f 6//5 14//5 13//5 5//5
f 7//6 15//6 14//6 6//6
f 8//7 16//7 15//7 7//7
f 9//8 17//8 16//8 8//8
f 2//9 10//9 17//9 9//9
f 11//10 19//10 18//10 10//10
f 12//11 20//11 19//11 11//11
f 13//12 21//12 20//12 12//12
f 14//13 22//13 21//13 13//13
f 15//14 23//14 22//14 14//14
f 16//15 24//15 23//15 15//15
f 17//16 25//16 24//16 16//16
f 10//17 18//17 25//17 17//17
f 19//18 27//18 26//18 18//18
f 20//19 28//19 27//19 19//19
f 21//20 29//20 28//20 20//20
f 22//21 30//21 29//21 21//21
f 23//22 31//22 30//22 22//22
f 24//23 32//23 31//23 23//23
f 25//24 33//24 32//24 24//24
f 18//25 26//25 33//25 25//25
