# Blender 4.4.1
# www.blender.org
o Hill_143
v -1.076455 0.000000 -0.770538
v -1.076455 5.416340 -0.770538
v -1.076455 5.416340 -0.770538
v -1.076455 5.416340 -0.770538
v -1.076455 5.416340 -0.770538
v -1.076455 5.416340 -0.770538
v -1.076455 5.416340 -0.770538
v -1.076455 5.416340 -0.770538
v -1.076455 5.416340 -0.770538
v 1.647557 4.466879 -0.770538
v 0.695512 4.316256 1.001430
v -1.076455 4.466677 1.748321
v -2.788690 4.378450 0.941697
v -3.739346 4.270102 -0.770538
v -2.809558 4.423611 -2.503640
v -1.076455 4.463419 -3.420357
v 0.626941 4.551991 -2.473934
v 3.664167 2.581459 -0.770538
v 2.937208 2.463996 3.243125
v -1.076455 2.386651 4.711959
v -4.829453 2.250764 2.982461
v -5.565117 2.434050 -0.770538
v -4.213546 2.363647 -3.907629
v -1.076455 2.781426 -6.548677
v 2.682511 2.407058 -4.529504
v 7.628830 0.508685 -0.770538
v 5.132234 -0.449312 5.438151
v -1.076455 0.102530 7.951632
v -6.633049 -0.415440 4.786057
v -7.628830 -0.006125 -0.770538
v -7.576116 0.244714 -7.270199
v -1.076455 0.135351 -7.951632
v 3.332701 0.363140 -5.179694
vn -0.0000 1.0000 -0.0000
vn 0.3188 0.9145 0.2490
vn 0.2224 0.9123 0.3439
vn -0.2096 0.9149 0.3449
vn -0.3903 0.9068 0.1593
vn -0.3920 0.9108 -0.1297
vn -0.1967 0.9226 -0.3318
vn 0.1378 0.9320 -0.3352
vn 0.3255 0.9338 -0.1484
vn 0.5823 0.7866 0.2054
vn 0.2129 0.8215 0.5289
vn -0.2856 0.7877 0.5458
vn -0.6441 0.7359 0.2088
vn -0.6761 0.6705 -0.3053
vn -0.4303 0.7570 -0.4917
vn 0.3057 0.8199 -0.4841
vn 0.6193 0.7478 -0.2392
vn 0.5510 0.7939 0.2573
vn 0.2708 0.7480 0.6060
vn -0.3588 0.7271 0.5853
vn -0.7524 0.6335 0.1803
vn -0.6139 0.7858 -0.0747
vn -0.2317 0.7648 -0.6012
vn 0.4673 0.4081 -0.7842
vn 0.5777 0.7109 -0.4011
s 0
f 3//1 2//1 1//1
f 4//1 3//1 1//1
f 5//1 4//1 1//1
f 6//1 5//1 1//1
f 7//1 6//1 1//1
f 8//1 7//1 1//1
f 9//1 8//1 1//1
f 2//1 9//1 1//1
f 3//2 11//2 10//2 2//2
f 4//3 12//3 11//3 3//3
f 5//4 13//4 12//4 4//4
f 6//5 14//5 13//5 5//5
f 7//6 15//6 14//6 6//6
f 8//7 16//7 15//7 7//7
f 9//8 17//8 16//8 8//8
f 2//9 10//9 17//9 9//9
f 11//10 19//10 18//10 10//10
f 12//11 20//11 19//11 11//11
f 13//12 21//12 20//12 12//12
f 14//13 22//13 21//13 13//13
f 15//14 23//14 22//14 14//14
f 16//15 24//15 23//15 15//15
f 17//16 25//16 24//16 16//16
f 10//17 18//17 25//17 17//17
f 19//18 27//18 26//18 18//18
f 20//19 28//19 27//19 19//19
f 21//20 29//20 28//20 20//20
f 22//21 30//21 29//21 21//21
f 23//22 31//22 30//22 22//22
f 24//23 32//23 31//23 23//23
f 25//24 33//24 32//24 24//24
f 18//25 26//25 33//25 25//25
