# Blender 4.4.1
# www.blender.org
o Hill_104
v -1.312588 0.000000 0.921825
v -1.312588 7.281272 0.921825
v -1.312588 7.281272 0.921825
v -1.312588 7.281272 0.921825
v -1.312588 7.281272 0.921825
v -1.312588 7.281272 0.921825
v -1.312588 7.281272 0.921825
v -1.312588 7.281272 0.921825
v -1.312588 7.281272 0.921825
v 2.108115 5.873962 0.921825
v 0.915501 6.110251 3.149914
v -1.312588 5.716468 4.137954
v -3.463463 5.846990 3.072699
v -4.457311 6.086437 0.921825
v -3.578422 5.946922 -1.344009
v -1.312588 5.725946 -2.323615
v 1.055406 6.007584 -1.446169
v 4.651212 3.319577 0.921825
v 3.034501 3.347363 5.268915
v -1.312588 3.123742 6.695685
v -6.012206 3.386787 5.621442
v -7.175445 2.984258 0.921825
v -6.203222 3.595325 -3.968809
v -1.312588 3.424761 -6.142602
v 2.836164 3.761237 -3.226927
v 10.238169 0.223521 0.921825
v 6.327886 0.407394 8.562300
v -1.312588 0.630330 9.714759
v -8.085200 0.518772 7.694437
v -10.238169 -0.516990 0.921825
v -7.706404 -0.212710 -5.471991
v -1.312588 -0.073238 -9.714759
v 5.332122 -0.155030 -5.722886
vn -0.0000 1.0000 -0.0000
vn 0.3784 0.9197 0.1050
vn 0.0351 0.8987 0.4372
vn -0.1600 0.8876 0.4319
vn -0.3431 0.9029 0.2590
vn -0.3486 0.9175 -0.1917
vn -0.0984 0.8974 -0.4301
vn 0.0528 0.9005 -0.4316
vn 0.3779 0.9185 -0.1162
vn 0.6725 0.6931 0.2595
vn 0.1926 0.6876 0.7001
vn -0.1612 0.7406 0.6524
vn -0.6669 0.7198 0.1928
vn -0.6772 0.7247 -0.1274
vn -0.1856 0.8310 -0.5244
vn 0.2515 0.7889 -0.5607
vn 0.6768 0.6972 -0.2363
vn 0.4940 0.8430 0.2129
vn 0.1305 0.7841 0.6068
vn -0.1739 0.7127 0.6796
vn -0.7493 0.6482 0.1353
vn -0.8101 0.5486 -0.2070
vn -0.4026 0.5767 -0.7109
vn 0.3949 0.6578 -0.6413
vn 0.5540 0.7597 -0.3405
s 0
f 3//1 2//1 1//1
f 4//1 3//1 1//1
f 5//1 4//1 1//1
f 6//1 5//1 1//1
f 7//1 6//1 1//1
f 8//1 7//1 1//1
f 9//1 8//1 1//1
f 2//1 9//1 1//1
f 3//2 11//2 10//2 2//2
f 4//3 12//3 11//3 3//3
f 5//4 13//4 12//4 4//4
f 6//5 14//5 13//5 5//5
f 7//6 15//6 14//6 6//6
f 8//7 16//7 15//7 7//7
f 9//8 17//8 16//8 8//8
f 2//9 10//9 17//9 9//9
f 11//10 19//10 18//10 10//10
f 12//11 20//11 19//11 11//11
f 13//12 21//12 20//12 12//12
f 14//13 22//13 21//13 13//13
f 15//14 23//14 22//14 14//14
f 16//15 24//15 23//15 15//15
f 17//16 25//16 24//16 16//16
f 10//17 18//17 25//17 17//17
f 19//18 27//18 26//18 18//18
f 20//19 28//19 27//19 19//19
f 21//20 29//20 28//20 20//20
f 22//21 30//21 29//21 21//21
f 23//22 31//22 30//22 22//22
f 24//23 32//23 31//23 23//23
f 25//24 33//24 32//24 24//24
f 18//25 26//25 33//25 25//25
