# Blender 4.4.1
# www.blender.org
o Hill_106
v -0.305783 0.000000 -0.652764
v -0.305783 7.304018 -0.652764
v -0.305783 7.304018 -0.652764
v -0.305783 7.304018 -0.652764
v -0.305783 7.304018 -0.652764
v -0.305783 7.304018 -0.652764
v -0.305783 7.304018 -0.652764
v -0.305783 7.304018 -0.652764
v -0.305783 7.304018 -0.652764
v 2.447655 5.900410 -0.652764
v 1.853328 6.039638 1.506348
v -0.305783 5.934790 2.280760
v -2.419515 6.012513 1.460967
v -3.268007 6.129277 -0.652764
v -2.459997 5.913826 -2.806978
v -0.305783 6.066985 -3.706331
v 1.656598 6.104088 -2.615146
v 5.739855 3.808283 -0.652764
v 4.126254 3.588350 3.779273
v -0.305783 3.110910 5.112390
v -4.404891 3.698811 3.446343
v -6.553315 3.474727 -0.652764
v -3.985972 3.472191 -4.332952
v -0.305783 3.355204 -6.275177
v 4.060556 3.640056 -5.019104
v 8.265944 -0.699019 -0.652764
v 6.110032 -0.721120 5.763052
v -0.305783 -0.702834 9.313846
v -5.850684 -0.106420 4.892137
v -8.265944 -0.404803 -0.652764
v -6.970285 -0.253275 -7.317266
v -0.305783 0.241620 -9.313846
v 6.596413 0.108740 -7.554960
vn -0.0000 1.0000 -0.0000
vn 0.4531 0.8889 0.0674
vn 0.1071 0.9009 0.4205
vn -0.1296 0.8985 0.4194
vn -0.3615 0.9116 0.1955
vn -0.3592 0.9057 -0.2253
vn -0.2173 0.9047 -0.3665
vn 0.1879 0.9103 -0.3688
vn 0.4523 0.8873 -0.0902
vn 0.5692 0.7974 0.2004
vn 0.1527 0.7204 0.6765
vn -0.1948 0.7099 0.6769
vn -0.6017 0.7491 0.2773
vn -0.6129 0.6925 -0.3804
vn -0.3379 0.6448 -0.6856
vn 0.2063 0.7261 -0.6559
vn 0.5544 0.8049 -0.2119
vn 0.8216 0.4869 0.2964
vn 0.2990 0.6232 0.7226
vn -0.3746 0.5969 0.7095
vn -0.8321 0.4119 0.3714
vn -0.7650 0.5813 -0.2773
vn -0.2762 0.7003 -0.6583
vn 0.1830 0.6719 -0.7177
vn 0.7978 0.5670 -0.2049
s 0
f 3//1 2//1 1//1
f 4//1 3//1 1//1
f 5//1 4//1 1//1
f 6//1 5//1 1//1
f 7//1 6//1 1//1
f 8//1 7//1 1//1
f 9//1 8//1 1//1
f 2//1 9//1 1//1
f 3//2 11//2 10//2 2//2
f 4//3 12//3 11//3 3//3
f 5//4 13//4 12//4 4//4
f 6//5 14//5 13//5 5//5
f 7//6 15//6 14//6 6//6
f 8//7 16//7 15//7 7//7
f 9//8 17//8 16//8 8//8
f 2//9 10//9 17//9 9//9
f 11//10 19//10 18//10 10//10
f 12//11 20//11 19//11 11//11
f 13//12 21//12 20//12 12//12
f 14//13 22//13 21//13 13//13
f 15//14 23//14 22//14 14//14
f 16//15 24//15 23//15 15//15
f 17//16 25//16 24//16 16//16
f 10//17 18//17 25//17 17//17
f 19//18 27//18 26//18 18//18
f 20//19 28//19 27//19 19//19
f 21//20 29//20 28//20 20//20
f 22//21 30//21 29//21 21//21
f 23//22 31//22 30//22 22//22
f 24//23 32//23 31//23 23//23
f 25//24 33//24 32//24 24//24
f 18//25 26//25 33//25 25//25
