# Blender 4.4.1
# www.blender.org
o Hill_153
v -0.987802 0.000000 -0.479247
v -0.987802 6.886456 -0.479247
v -0.987802 6.886456 -0.479247
v -0.987802 6.886456 -0.479247
v -0.987802 6.886456 -0.479247
v -0.987802 6.886456 -0.479247
v -0.987802 6.886456 -0.479247
v -0.987802 6.886456 -0.479247
v -0.987802 6.886456 -0.479247
v 1.358583 5.388157 -0.479247
v 0.778117 5.685970 1.286672
v -0.987802 5.579167 1.938789
v -2.683300 5.513871 1.216251
v -3.469057 5.716362 -0.479247
v -2.767940 5.678925 -2.259384
v -0.987802 5.409930 -2.937250
v 0.824340 5.763894 -2.291389
v 4.131194 3.143318 -0.479247
v 2.131552 3.093220 2.640107
v -0.987802 3.062899 4.279539
v -4.124729 3.536236 2.657680
v -6.224731 3.465994 -0.479247
v -4.314062 3.156014 -3.805507
v -0.987802 3.364871 -5.333676
v 2.841191 3.257748 -4.308240
v 7.308822 -0.223821 -0.479247
v 4.275578 -0.143932 4.784134
v -0.987802 0.400422 6.794053
v -5.309287 0.266762 3.842238
v -7.308822 -0.511269 -0.479247
v -6.859234 -0.663897 -6.350678
v -0.987802 -0.422913 -6.578207
v 5.327003 0.027899 -6.794053
vn -0.0000 1.0000 -0.0000
vn 0.5379 0.8423 0.0347
vn 0.1215 0.8732 0.4721
vn -0.2302 0.8560 0.4628
vn -0.4079 0.8650 0.2923
vn -0.4193 0.8891 -0.1838
vn -0.0664 0.8553 -0.5138
vn 0.0161 0.8571 -0.5149
vn 0.5381 0.8427 0.0161
vn 0.6739 0.6649 0.3222
vn 0.3227 0.6092 0.7244
vn -0.2779 0.6692 0.6892
vn -0.5918 0.7146 0.3730
vn -0.6283 0.6854 -0.3680
vn -0.2841 0.6798 -0.6762
vn 0.1668 0.7235 -0.6699
vn 0.6634 0.7329 -0.1509
vn 0.6516 0.6513 0.3889
vn 0.3348 0.6559 0.6766
vn -0.4224 0.5388 0.7288
vn -0.8418 0.3330 0.4248
vn -0.8473 0.4731 -0.2412
vn -0.1867 0.4874 -0.8530
vn 0.0534 0.4834 -0.8738
vn 0.7040 0.6807 -0.2025
s 0
f 3//1 2//1 1//1
f 4//1 3//1 1//1
f 5//1 4//1 1//1
f 6//1 5//1 1//1
f 7//1 6//1 1//1
f 8//1 7//1 1//1
f 9//1 8//1 1//1
f 2//1 9//1 1//1
f 3//2 11//2 10//2 2//2
f 4//3 12//3 11//3 3//3
f 5//4 13//4 12//4 4//4
f 6//5 14//5 13//5 5//5
f 7//6 15//6 14//6 6//6
f 8//7 16//7 15//7 7//7
f 9//8 17//8 16//8 8//8
f 2//9 10//9 17//9 9//9
f 11//10 19//10 18//10 10//10
f 12//11 20//11 19//11 11//11
f 13//12 21//12 20//12 12//12
f 14//13 22//13 21//13 13//13
f 15//14 23//14 22//14 14//14
f 16//15 24//15 23//15 15//15
f 17//16 25//16 24//16 16//16
f 10//17 18//17 25//17 17//17
f 19//18 27//18 26//18 18//18
f 20//19 28//19 27//19 19//19
f 21//20 29//20 28//20 20//20
f 22//21 30//21 29//21 21//21
f 23//22 31//22 30//22 22//22
f 24//23 32//23 31//23 23//23
f 25//24 33//24 32//24 24//24
f 18//25 26//25 33//25 25//25
