# Blender 4.4.1
# www.blender.org
o Hill_190
v -0.457057 0.000000 -0.874920
v -0.457057 6.555675 -0.874920
v -0.457057 6.555675 -0.874920
v -0.457057 6.555675 -0.874920
v -0.457057 6.555675 -0.874920
v -0.457057 6.555675 -0.874920
v -0.457057 6.555675 -0.874920
v -0.457057 6.555675 -0.874920
v -0.457057 6.555675 -0.874920
v 2.033607 5.173809 -0.874920
v 1.240765 5.163929 0.822902
v -0.457057 5.429045 1.709530
v -2.150236 5.109901 0.818259
v -3.047863 5.446274 -0.874920
v -2.217608 5.252807 -2.635471
v -0.457057 5.389646 -3.313411
v 1.266266 5.279570 -2.598243
v 4.804632 3.350959 -0.874920
v 3.110077 2.784920 2.692214
v -0.457057 2.946599 3.861707
v -4.045808 3.332408 2.713830
v -5.810975 2.784648 -0.874920
v -4.219092 3.338154 -4.636955
v -0.457057 3.377926 -6.014866
v 2.919994 2.759892 -4.251971
v 6.598783 -0.036465 -0.874920
v 5.556084 -0.140255 5.138220
v -0.457057 0.124095 7.849029
v -5.724236 0.606105 4.392258
v -6.598783 -0.382036 -0.874920
v -5.256121 -0.551885 -5.673985
v -0.457057 -0.170527 -7.849029
v 4.878932 0.535282 -6.210910
vn -0.0000 1.0000 -0.0000
vn 0.4726 0.8519 0.2257
vn 0.3319 0.8647 0.3770
vn -0.3578 0.8560 0.3732
vn -0.3666 0.8561 0.3644
vn -0.3784 0.8837 -0.2756
vn -0.2299 0.8780 -0.4198
vn 0.2303 0.8779 -0.4198
vn 0.4789 0.8631 -0.1603
vn 0.5506 0.7609 0.3434
vn 0.3155 0.6739 0.6680
vn -0.2410 0.7227 0.6478
vn -0.6027 0.7495 0.2739
vn -0.6241 0.7482 -0.2250
vn -0.2346 0.7930 -0.5622
vn 0.3877 0.7084 -0.5898
vn 0.5770 0.7285 -0.3693
vn 0.7530 0.6056 0.2575
vn 0.2700 0.7668 0.5824
vn -0.2592 0.7273 0.6355
vn -0.8852 0.4246 0.1902
vn -0.9119 0.2799 -0.3000
vn -0.3706 0.3790 -0.8480
vn 0.2878 0.5922 -0.7526
vn 0.7382 0.6008 -0.3067
s 0
f 3//1 2//1 1//1
f 4//1 3//1 1//1
f 5//1 4//1 1//1
f 6//1 5//1 1//1
f 7//1 6//1 1//1
f 8//1 7//1 1//1
f 9//1 8//1 1//1
f 2//1 9//1 1//1
f 3//2 11//2 10//2 2//2
f 4//3 12//3 11//3 3//3
f 5//4 13//4 12//4 4//4
f 6//5 14//5 13//5 5//5
f 7//6 15//6 14//6 6//6
f 8//7 16//7 15//7 7//7
f 9//8 17//8 16//8 8//8
f 2//9 10//9 17//9 9//9
f 11//10 19//10 18//10 10//10
f 12//11 20//11 19//11 11//11
f 13//12 21//12 20//12 12//12
f 14//13 22//13 21//13 13//13
f 15//14 23//14 22//14 14//14
f 16//15 24//15 23//15 15//15
f 17//16 25//16 24//16 16//16
f 10//17 18//17 25//17 17//17
f 19//18 27//18 26//18 18//18
f 20//19 28//19 27//19 19//19
f 21//20 29//20 28//20 20//20
f 22//21 30//21 29//21 21//21
f 23//22 31//22 30//22 22//22
f 24//23 32//23 31//23 23//23
f 25//24 33//24 32//24 24//24
f 18//25 26//25 33//25 25//25
