# Blender 4.4.1
# www.blender.org
o Hill_111
v -0.113469 0.000000 -0.185953
v -0.113469 5.513061 -0.185953
v -0.113469 5.513061 -0.185953
v -0.113469 5.513061 -0.185953
v -0.113469 5.513061 -0.185953
v -0.113469 5.513061 -0.185953
v -0.113469 5.513061 -0.185953
v -0.113469 5.513061 -0.185953
v -0.113469 5.513061 -0.185953
v 2.497148 4.483305 -0.185953
v 1.833812 4.522432 1.761328
v -0.113469 4.547066 2.539322
v -1.899650 4.306178 1.600228
v -2.909775 4.490045 -0.185953
v -1.992218 4.401554 -2.064702
v -0.113469 4.512683 -2.937419
v 1.824038 4.622332 -2.123460
v 5.021629 2.613615 -0.185953
v 3.956181 2.350564 3.883697
v -0.113469 2.347375 5.372043
v -3.576409 2.517882 3.276987
v -5.245730 2.759334 -0.185953
v -4.299735 2.205673 -4.372219
v -0.113469 2.737057 -4.872749
v 3.340642 2.508438 -3.640065
v 8.040117 0.182624 -0.185953
v 4.568092 0.309748 4.495608
v -0.113469 0.066896 8.337207
v -6.427032 -0.136920 6.127610
v -8.040117 0.468878 -0.185953
v -5.414996 0.112094 -5.487480
v -0.113469 0.323727 -8.337207
v 6.459674 0.083386 -6.759097
vn -0.0000 1.0000 -0.0000
vn 0.3649 0.9250 0.1057
vn 0.1439 0.9327 0.3306
vn -0.2898 0.9021 0.3198
vn -0.3299 0.9017 0.2794
vn -0.3361 0.9187 -0.2074
vn -0.2096 0.9189 -0.3341
vn 0.0900 0.9360 -0.3403
vn 0.3663 0.9285 -0.0606
vn 0.5900 0.7826 0.1986
vn 0.2246 0.7764 0.5888
vn -0.3302 0.7646 0.5535
vn -0.5373 0.7732 0.3369
vn -0.5484 0.7971 -0.2529
vn -0.2176 0.7688 -0.6013
vn 0.2682 0.6959 -0.6662
vn 0.6236 0.7345 -0.2677
vn 0.6957 0.6155 0.3703
vn 0.3961 0.6181 0.6790
vn -0.2466 0.7952 0.5539
vn -0.5604 0.7875 0.2564
vn -0.6668 0.6750 -0.3158
vn -0.2813 0.7173 -0.6374
vn 0.1856 0.8317 -0.5233
vn 0.5461 0.8149 -0.1942
s 0
f 3//1 2//1 1//1
f 4//1 3//1 1//1
f 5//1 4//1 1//1
f 6//1 5//1 1//1
f 7//1 6//1 1//1
f 8//1 7//1 1//1
f 9//1 8//1 1//1
f 2//1 9//1 1//1
f 3//2 11//2 10//2 2//2
f 4//3 12//3 11//3 3//3
f 5//4 13//4 12//4 4//4
f 6//5 14//5 13//5 5//5
f 7//6 15//6 14//6 6//6
f 8//7 16//7 15//7 7//7
f 9//8 17//8 16//8 8//8
f 2//9 10//9 17//9 9//9
f 11//10 19//10 18//10 10//10
f 12//11 20//11 19//11 11//11
f 13//12 21//12 20//12 12//12
f 14//13 22//13 21//13 13//13
f 15//14 23//14 22//14 14//14
f 16//15 24//15 23//15 15//15
f 17//16 25//16 24//16 16//16
f 10//17 18//17 25//17 17//17
f 19//18 27//18 26//18 18//18
f 20//19 28//19 27//19 19//19
f 21//20 29//20 28//20 20//20
f 22//21 30//21 29//21 21//21
f 23//22 31//22 30//22 22//22
f 24//23 32//23 31//23 23//23
f 25//24 33//24 32//24 24//24
f 18//25 26//25 33//25 25//25
