# Blender 4.4.1
# www.blender.org
o Hill_093
v -0.516607 0.000000 -0.174175
v -0.516607 5.335240 -0.174175
v -0.516607 5.335240 -0.174175
v -0.516607 5.335240 -0.174175
v -0.516607 5.335240 -0.174175
v -0.516607 5.335240 -0.174175
v -0.516607 5.335240 -0.174175
v -0.516607 5.335240 -0.174175
v -0.516607 5.335240 -0.174175
v 1.897008 4.338517 -0.174175
v 1.068098 4.352756 1.410529
v -0.516607 4.221241 2.096850
v -2.152343 4.365157 1.461561
v -2.687691 4.184845 -0.174175
v -2.193478 4.230217 -1.851047
v -0.516607 4.167026 -2.402152
v 1.174631 4.339530 -1.865412
v 4.411249 2.310285 -0.174175
v 2.973054 2.496670 3.315485
v -0.516607 2.649705 4.153883
v -4.092474 2.550966 3.401693
v -5.085372 2.195001 -0.174175
v -4.016146 2.779023 -3.673714
v -0.516607 2.646899 -4.274127
v 2.430351 2.192667 -3.121133
v 7.419737 -0.188507 -0.174175
v 5.136894 -0.477836 5.479326
v -0.516607 -0.064355 6.760236
v -5.718931 -0.184504 5.028149
v -7.419737 -0.408363 -0.174175
v -5.514540 -0.130917 -5.172109
v -0.516607 -0.027233 -6.760236
v 3.996431 0.023460 -4.687213
vn -0.0000 1.0000 -0.0000
vn 0.3749 0.9078 0.1879
vn 0.1154 0.8918 0.4375
vn -0.0917 0.8940 0.4385
vn -0.4675 0.8822 0.0557
vn -0.4652 0.8779 -0.1133
vn -0.1184 0.8794 -0.4611
vn 0.0569 0.8842 -0.4636
vn 0.3768 0.9123 -0.1604
vn 0.5845 0.7780 0.2304
vn 0.1813 0.7852 0.5921
vn -0.1516 0.7893 0.5950
vn -0.6287 0.7705 0.1051
vn -0.6066 0.7902 -0.0871
vn -0.1017 0.7991 -0.5925
vn 0.2880 0.6766 -0.6777
vn 0.6259 0.6800 -0.3819
vn 0.6442 0.7156 0.2702
vn 0.2062 0.6736 0.7097
vn -0.2242 0.6387 0.7361
vn -0.7593 0.6218 0.1919
vn -0.7749 0.5960 -0.2108
vn -0.1969 0.6039 -0.7723
vn 0.3260 0.6664 -0.6705
vn 0.5787 0.7048 -0.4103
s 0
f 3//1 2//1 1//1
f 4//1 3//1 1//1
f 5//1 4//1 1//1
f 6//1 5//1 1//1
f 7//1 6//1 1//1
f 8//1 7//1 1//1
f 9//1 8//1 1//1
f 2//1 9//1 1//1
f 3//2 11//2 10//2 2//2
f 4//3 12//3 11//3 3//3
f 5//4 13//4 12//4 4//4
f 6//5 14//5 13//5 5//5
f 7//6 15//6 14//6 6//6
f 8//7 16//7 15//7 7//7
f 9//8 17//8 16//8 8//8
f 2//9 10//9 17//9 9//9
f 11//10 19//10 18//10 10//10
f 12//11 20//11 19//11 11//11
f 13//12 21//12 20//12 12//12
f 14//13 22//13 21//13 13//13
f 15//14 23//14 22//14 14//14
f 16//15 24//15 23//15 15//15
f 17//16 25//16 24//16 16//16
f 10//17 18//17 25//17 17//17
f 19//18 27//18 26//18 18//18
f 20//19 28//19 27//19 19//19
f 21//20 29//20 28//20 20//20
f 22//21 30//21 29//21 21//21
f 23//22 31//22 30//22 22//22
f 24//23 32//23 31//23 23//23
f 25//24 33//24 32//24 24//24
f 18//25 26//25 33//25 25//25
