# Blender 4.4.1
# www.blender.org
o Hill_267
v -1.895270 0.000000 -1.254080
v -1.895270 7.382185 -1.254080
v -1.895270 7.382185 -1.254080
v -1.895270 7.382185 -1.254080
v -1.895270 7.382185 -1.254080
v -1.895270 7.382185 -1.254080
v -1.895270 7.382185 -1.254080
v -1.895270 7.382185 -1.254080
v -1.895270 7.382185 -1.254080
v 1.912658 5.790093 -1.254080
v 0.834056 6.147011 1.475246
v -1.895270 5.832279 2.462784
v -4.836948 5.822596 1.687598
v -5.599140 6.009128 -1.254080
v -4.656163 6.041155 -4.014973
v -1.895270 5.915476 -5.135037
v 0.798741 5.884902 -3.948091
v 5.284549 3.189785 -1.254080
v 4.058833 3.360730 4.700023
v -1.895270 2.945559 6.229695
v -6.930139 3.229264 3.780789
v -9.746040 3.667708 -1.254080
v -8.111711 3.330902 -7.470520
v -1.895270 3.565402 -9.223024
v 3.343117 3.389140 -6.492466
v 11.860641 -0.109376 -1.254080
v 6.811034 0.009868 7.452225
v -1.895270 0.144520 12.842928
v -11.860641 -0.693002 8.711292
v -11.851032 0.724058 -1.254080
v -10.923307 -0.235147 -10.282117
v -1.895270 0.648274 -12.842928
v 7.855672 -0.430814 -11.005021
vn -0.0000 1.0000 -0.0000
vn 0.3855 0.9221 0.0318
vn 0.0328 0.9225 0.3847
vn -0.1039 0.9180 0.3828
vn -0.3438 0.9273 0.1479
vn -0.3456 0.9322 -0.1072
vn -0.1003 0.9307 -0.3517
vn 0.1641 0.9227 -0.3487
vn 0.3827 0.9153 -0.1260
vn 0.5959 0.7955 0.1098
vn 0.1061 0.7955 0.5966
vn -0.2253 0.7505 0.6213
vn -0.5281 0.7947 0.2992
vn -0.4907 0.8546 -0.1699
vn -0.1686 0.8526 -0.4947
vn 0.2680 0.8240 -0.4992
vn 0.5894 0.7832 -0.1980
vn 0.5261 0.8244 0.2089
vn 0.2156 0.8440 0.4910
vn -0.2170 0.8810 0.4204
vn -0.6045 0.7689 0.2082
vn -0.7460 0.6412 -0.1799
vn -0.2342 0.7340 -0.6375
vn 0.2325 0.8084 -0.5407
vn 0.4727 0.8595 -0.1945
s 0
f 3//1 2//1 1//1
f 4//1 3//1 1//1
f 5//1 4//1 1//1
f 6//1 5//1 1//1
f 7//1 6//1 1//1
f 8//1 7//1 1//1
f 9//1 8//1 1//1
f 2//1 9//1 1//1
f 3//2 11//2 10//2 2//2
f 4//3 12//3 11//3 3//3
f 5//4 13//4 12//4 4//4
f 6//5 14//5 13//5 5//5
f 7//6 15//6 14//6 6//6
f 8//7 16//7 15//7 7//7
f 9//8 17//8 16//8 8//8
f 2//9 10//9 17//9 9//9
f 11//10 19//10 18//10 10//10
f 12//11 20//11 19//11 11//11
f 13//12 21//12 20//12 12//12
f 14//13 22//13 21//13 13//13
f 15//14 23//14 22//14 14//14
f 16//15 24//15 23//15 15//15
f 17//16 25//16 24//16 16//16
f 10//17 18//17 25//17 17//17
f 19//18 27//18 26//18 18//18
f 20//19 28//19 27//19 19//19
f 21//20 29//20 28//20 20//20
f 22//21 30//21 29//21 21//21
f 23//22 31//22 30//22 22//22
f 24//23 32//23 31//23 23//23
f 25//24 33//24 32//24 24//24
f 18//25 26//25 33//25 25//25
