# Blender 4.4.1
# www.blender.org
o Hill_147
v -0.629738 0.000000 0.338321
v -0.629738 5.007303 0.338321
v -0.629738 5.007303 0.338321
v -0.629738 5.007303 0.338321
v -0.629738 5.007303 0.338321
v -0.629738 5.007303 0.338321
v -0.629738 5.007303 0.338321
v -0.629738 5.007303 0.338321
v -0.629738 5.007303 0.338321
v 2.655766 3.995871 0.338321
v 1.664233 4.054491 2.632292
v -0.629738 4.020554 3.471359
v -2.865615 4.106982 2.574198
v -3.599727 4.175815 0.338321
v -2.767714 4.166009 -1.799655
v -0.629738 4.014391 -2.674219
v 1.734312 3.900973 -2.025729
v 5.944720 2.599421 0.338321
v 3.735655 2.038465 4.703714
v -0.629738 2.093712 7.008216
v -4.587806 2.119073 4.296389
v -7.600979 2.221009 0.338321
v -5.645614 2.377158 -4.677556
v -0.629738 2.544124 -6.585419
v 3.324341 2.564463 -3.615758
v 9.198584 -0.407084 0.338321
v 5.358132 0.098467 6.326191
v -0.629738 0.438912 10.673318
v -6.593376 -0.024023 6.301959
v -9.198584 -0.333449 0.338321
v -7.966711 0.228999 -6.998652
v -0.629738 -0.010466 -10.673318
v 7.332362 0.296154 -7.623779
vn -0.0000 1.0000 -0.0000
vn 0.2927 0.9507 0.1022
vn 0.0953 0.9495 0.2990
vn -0.0834 0.9505 0.2994
vn -0.2677 0.9563 0.1173
vn -0.2680 0.9573 -0.1087
vn -0.0606 0.9480 -0.3125
vn 0.1303 0.9416 -0.3104
vn 0.2908 0.9447 -0.1513
vn 0.4383 0.8556 0.2752
vn 0.2379 0.8337 0.4983
vn -0.2832 0.8114 0.5113
vn -0.4744 0.8240 0.3097
vn -0.4246 0.8933 -0.1472
vn -0.1483 0.9146 -0.3762
vn 0.2348 0.8917 -0.3871
vn 0.4106 0.8774 -0.2482
vn 0.6041 0.7126 0.3568
vn 0.3274 0.8251 0.4605
vn -0.3467 0.8314 0.4342
vn -0.6598 0.6597 0.3598
vn -0.7229 0.6751 -0.1473
vn -0.2302 0.8225 -0.5201
vn 0.1930 0.8820 -0.4299
vn 0.5252 0.8375 -0.1508
s 0
f 3//1 2//1 1//1
f 4//1 3//1 1//1
f 5//1 4//1 1//1
f 6//1 5//1 1//1
f 7//1 6//1 1//1
f 8//1 7//1 1//1
f 9//1 8//1 1//1
f 2//1 9//1 1//1
f 3//2 11//2 10//2 2//2
f 4//3 12//3 11//3 3//3
f 5//4 13//4 12//4 4//4
f 6//5 14//5 13//5 5//5
f 7//6 15//6 14//6 6//6
f 8//7 16//7 15//7 7//7
f 9//8 17//8 16//8 8//8
f 2//9 10//9 17//9 9//9
f 11//10 19//10 18//10 10//10
f 12//11 20//11 19//11 11//11
f 13//12 21//12 20//12 12//12
f 14//13 22//13 21//13 13//13
f 15//14 23//14 22//14 14//14
f 16//15 24//15 23//15 15//15
f 17//16 25//16 24//16 16//16
f 10//17 18//17 25//17 17//17
f 19//18 27//18 26//18 18//18
f 20//19 28//19 27//19 19//19
f 21//20 29//20 28//20 20//20
f 22//21 30//21 29//21 21//21
f 23//22 31//22 30//22 22//22
f 24//23 32//23 31//23 23//23
f 25//24 33//24 32//24 24//24
f 18//25 26//25 33//25 25//25
