# Blender 4.4.1
# www.blender.org
o Hill_251
v 0.490528 0.000000 0.115858
v 0.490528 9.117730 0.115858
v 0.490528 9.117730 0.115858
v 0.490528 9.117730 0.115858
v 0.490528 9.117730 0.115858
v 0.490528 9.117730 0.115858
v 0.490528 9.117730 0.115858
v 0.490528 9.117730 0.115858
v 0.490528 9.117730 0.115858
v 2.850714 7.234351 0.115858
v 2.296787 7.197674 1.922117
v 0.490528 7.484472 2.375171
v -1.144884 7.332891 1.751269
v -2.002252 7.659476 0.115858
v -1.302728 7.142659 -1.677397
v 0.490528 7.418688 -2.200394
v 2.205314 7.615535 -1.598928
v 5.886186 3.911735 0.115858
v 4.203521 4.676376 3.828851
v 0.490528 4.030291 4.510154
v -2.889469 4.159548 3.495855
v -4.328924 4.576811 0.115858
v -3.174777 4.186707 -3.549447
v 0.490528 3.703361 -5.241090
v 3.860648 4.328463 -3.254262
v 8.167368 -0.806356 0.115858
v 5.935950 0.861682 5.561280
v 0.490528 -0.204360 6.752839
v -3.709378 0.360202 4.315764
v -8.167368 -0.547194 0.115858
v -5.090293 0.137741 -5.464962
v 0.490528 -0.353864 -6.752839
v 6.121057 0.136683 -5.514671
vn -0.0000 1.0000 -0.0000
vn 0.6108 0.7654 0.2028
vn 0.2657 0.7813 0.5648
vn -0.2861 0.7765 0.5614
vn -0.4627 0.7909 0.4005
vn -0.4612 0.7884 -0.4071
vn -0.2844 0.7730 -0.5670
vn 0.1141 0.8011 -0.5876
vn 0.6226 0.7802 -0.0609
vn 0.7146 0.6700 0.2012
vn 0.1269 0.5832 0.8023
vn -0.2639 0.5381 0.8005
vn -0.7082 0.5751 0.4096
vn -0.7175 0.6056 -0.3443
vn -0.2750 0.6190 -0.7357
vn 0.2934 0.5793 -0.7604
vn 0.7425 0.6010 -0.2957
vn 0.8569 0.4530 0.2459
vn 0.0954 0.4572 0.8842
vn -0.3581 0.3643 0.8597
vn -0.7263 0.4285 0.5374
vn -0.7659 0.5500 -0.3330
vn -0.2367 0.4253 -0.8736
vn 0.2489 0.4584 -0.8532
vn 0.8186 0.4923 -0.2959
s 0
f 3//1 2//1 1//1
f 4//1 3//1 1//1
f 5//1 4//1 1//1
f 6//1 5//1 1//1
f 7//1 6//1 1//1
f 8//1 7//1 1//1
f 9//1 8//1 1//1
f 2//1 9//1 1//1
f 3//2 11//2 10//2 2//2
f 4//3 12//3 11//3 3//3
f 5//4 13//4 12//4 4//4
f 6//5 14//5 13//5 5//5
f 7//6 15//6 14//6 6//6
f 8//7 16//7 15//7 7//7
f 9//8 17//8 16//8 8//8
f 2//9 10//9 17//9 9//9
f 11//10 19//10 18//10 10//10
f 12//11 20//11 19//11 11//11
f 13//12 21//12 20//12 12//12
f 14//13 22//13 21//13 13//13
f 15//14 23//14 22//14 14//14
f 16//15 24//15 23//15 15//15
f 17//16 25//16 24//16 16//16
f 10//17 18//17 25//17 17//17
f 19//18 27//18 26//18 18//18
f 20//19 28//19 27//19 19//19
f 21//20 29//20 28//20 20//20
f 22//21 30//21 29//21 21//21
f 23//22 31//22 30//22 22//22
f 24//23 32//23 31//23 23//23
f 25//24 33//24 32//24 24//24
f 18//25 26//25 33//25 25//25
