# Blender 4.4.1
# www.blender.org
o Hill_095
v 0.274522 0.000000 0.386675
v 0.274522 6.582401 0.386675
v 0.274522 6.582401 0.386675
v 0.274522 6.582401 0.386675
v 0.274522 6.582401 0.386675
v 0.274522 6.582401 0.386675
v 0.274522 6.582401 0.386675
v 0.274522 6.582401 0.386675
v 0.274522 6.582401 0.386675
v 3.822474 5.318016 0.386675
v 2.774341 5.423933 2.886494
v 0.274522 5.097619 4.249653
v -2.260426 5.250094 2.921622
v -3.343796 5.345534 0.386675
v -2.407679 5.344663 -2.295526
v 0.274522 5.147223 -3.291552
v 2.745622 5.416350 -2.084425
v 7.047735 3.079393 0.386675
v 6.151393 3.233486 6.263546
v 0.274522 2.751482 8.348824
v -4.778154 2.631900 5.439350
v -7.560548 2.777114 0.386675
v -5.423278 3.124301 -5.311124
v 0.274522 2.728276 -7.797740
v 5.858742 2.677064 -5.197546
v 9.382607 0.271082 0.386675
v 7.105941 -0.473372 7.218094
v 0.274522 -0.360768 10.657841
v -6.589020 0.504960 7.250216
v -9.382607 -0.269968 0.386675
v -8.186505 -0.309972 -8.074352
v 0.274522 0.103602 -10.657841
v 7.641837 0.186711 -6.980640
vn -0.0000 1.0000 -0.0000
vn 0.3340 0.9372 0.1003
vn 0.0736 0.9309 0.3578
vn -0.1307 0.9254 0.3557
vn -0.3187 0.9323 0.1713
vn -0.3214 0.9402 -0.1125
vn -0.0663 0.9295 -0.3627
vn 0.0759 0.9289 -0.3624
vn 0.3337 0.9364 -0.1082
vn 0.5208 0.8484 0.0946
vn 0.1126 0.8712 0.4778
vn -0.2791 0.8161 0.5061
vn -0.5145 0.8078 0.2878
vn -0.5020 0.8519 -0.1489
vn -0.1378 0.8667 -0.4793
vn 0.2080 0.8473 -0.4886
vn 0.5491 0.8150 -0.1852
vn 0.8535 0.4653 0.2347
vn 0.3464 0.4440 0.8264
vn -0.3231 0.6515 0.6864
vn -0.7251 0.6165 0.3067
vn -0.7696 0.6160 -0.1678
vn -0.2359 0.7167 -0.6563
vn 0.3118 0.6959 -0.6469
vn 0.7425 0.6417 -0.1921
s 0
f 3//1 2//1 1//1
f 4//1 3//1 1//1
f 5//1 4//1 1//1
f 6//1 5//1 1//1
f 7//1 6//1 1//1
f 8//1 7//1 1//1
f 9//1 8//1 1//1
f 2//1 9//1 1//1
f 3//2 11//2 10//2 2//2
f 4//3 12//3 11//3 3//3
f 5//4 13//4 12//4 4//4
f 6//5 14//5 13//5 5//5
f 7//6 15//6 14//6 6//6
f 8//7 16//7 15//7 7//7
f 9//8 17//8 16//8 8//8
f 2//9 10//9 17//9 9//9
f 11//10 19//10 18//10 10//10
f 12//11 20//11 19//11 11//11
f 13//12 21//12 20//12 12//12
f 14//13 22//13 21//13 13//13
f 15//14 23//14 22//14 14//14
f 16//15 24//15 23//15 15//15
f 17//16 25//16 24//16 16//16
f 10//17 18//17 25//17 17//17
f 19//18 27//18 26//18 18//18
f 20//19 28//19 27//19 19//19
f 21//20 29//20 28//20 20//20
f 22//21 30//21 29//21 21//21
f 23//22 31//22 30//22 22//22
f 24//23 32//23 31//23 23//23
f 25//24 33//24 32//24 24//24
f 18//25 26//25 33//25 25//25
