# Blender 4.4.1
# www.blender.org
o Hill_269
v 1.013982 0.000000 0.945228
v 1.013982 8.522655 0.945228
v 1.013982 8.522655 0.945228
v 1.013982 8.522655 0.945228
v 1.013982 8.522655 0.945228
v 1.013982 8.522655 0.945228
v 1.013982 8.522655 0.945228
v 1.013982 8.522655 0.945228
v 1.013982 8.522655 0.945228
v 4.643801 7.130199 0.945228
v 3.486521 6.876432 3.417767
v 1.013982 6.938602 4.737062
v -1.493827 6.734893 3.453037
v -2.372601 6.905452 0.945228
v -1.623890 6.611864 -1.692644
v 1.013982 6.951821 -2.523304
v 3.671524 7.003091 -1.712314
v 7.816825 3.657696 0.945228
v 6.205761 4.305764 6.137007
v 1.013982 4.181362 7.361918
v -4.376270 3.423976 6.335480
v -6.409118 3.642501 0.945228
v -4.100398 4.224265 -4.169152
v 1.013982 4.319626 -5.778570
v 5.554822 3.356710 -3.595613
v 9.929896 0.016942 0.945228
v 8.741043 0.187913 8.672289
v 1.013982 -0.473837 9.594179
v -6.074729 0.820457 8.033938
v -9.929896 0.358580 0.945228
v -5.108901 0.844402 -5.177655
v 1.013982 0.145197 -9.594179
v 7.410426 -0.603559 -5.451216
vn -0.0000 1.0000 -0.0000
vn 0.3463 0.9028 0.2548
vn 0.2231 0.8995 0.3758
vn -0.2627 0.8903 0.3719
vn -0.4215 0.8827 0.2077
vn -0.4206 0.8808 -0.2174
vn -0.2401 0.8843 -0.4005
vn 0.1077 0.9056 -0.4101
vn 0.3528 0.9196 -0.1730
vn 0.6553 0.7286 0.1992
vn 0.2053 0.7433 0.6366
vn -0.2751 0.7145 0.6433
vn -0.6058 0.7518 0.2604
vn -0.5954 0.7766 -0.2060
vn -0.2276 0.7792 -0.5840
vn 0.3598 0.6532 -0.6662
vn 0.7145 0.6019 -0.3568
vn 0.8272 0.5429 0.1449
vn 0.1124 0.4993 0.8591
vn -0.1554 0.4983 0.8530
vn -0.6684 0.6797 0.3021
vn -0.7254 0.5547 -0.4075
vn -0.3772 0.5337 -0.7569
vn 0.4756 0.5735 -0.6670
vn 0.7777 0.4993 -0.3820
s 0
f 3//1 2//1 1//1
f 4//1 3//1 1//1
f 5//1 4//1 1//1
f 6//1 5//1 1//1
f 7//1 6//1 1//1
f 8//1 7//1 1//1
f 9//1 8//1 1//1
f 2//1 9//1 1//1
f 3//2 11//2 10//2 2//2
f 4//3 12//3 11//3 3//3
f 5//4 13//4 12//4 4//4
f 6//5 14//5 13//5 5//5
f 7//6 15//6 14//6 6//6
f 8//7 16//7 15//7 7//7
f 9//8 17//8 16//8 8//8
f 2//9 10//9 17//9 9//9
f 11//10 19//10 18//10 10//10
f 12//11 20//11 19//11 11//11
f 13//12 21//12 20//12 12//12
f 14//13 22//13 21//13 13//13
f 15//14 23//14 22//14 14//14
f 16//15 24//15 23//15 15//15
f 17//16 25//16 24//16 16//16
f 10//17 18//17 25//17 17//17
f 19//18 27//18 26//18 18//18
f 20//19 28//19 27//19 19//19
f 21//20 29//20 28//20 20//20
f 22//21 30//21 29//21 21//21
f 23//22 31//22 30//22 22//22
f 24//23 32//23 31//23 23//23
f 25//24 33//24 32//24 24//24
f 18//25 26//25 33//25 25//25
