# Blender 4.4.1
# www.blender.org
o Hill_252
v 0.203695 0.000000 0.991612
v 0.203695 8.391354 0.991612
v 0.203695 8.391354 0.991612
v 0.203695 8.391354 0.991612
v 0.203695 8.391354 0.991612
v 0.203695 8.391354 0.991612
v 0.203695 8.391354 0.991612
v 0.203695 8.391354 0.991612
v 0.203695 8.391354 0.991612
v 2.663230 6.879586 0.991612
v 1.869503 6.652123 2.657419
v 0.203695 7.015193 3.376972
v -1.583718 6.677125 2.779025
v -2.261932 6.697264 0.991612
v -1.481721 6.552598 -0.693805
v 0.203695 6.639247 -1.542229
v 1.875036 6.499926 -0.679730
v 4.405273 3.850280 0.991612
v 3.431312 4.144673 4.219228
v 0.203695 3.858313 5.654560
v -2.839683 4.028757 4.034989
v -4.386080 3.728268 0.991612
v -3.037706 3.627989 -2.249789
v 0.203695 4.262015 -3.339238
v 3.902733 3.555170 -2.707426
v 8.132957 0.148910 0.991612
v 5.208255 -0.342189 5.996171
v 0.203695 0.584089 7.128471
v -4.253118 0.049146 5.448425
v -8.132957 0.835966 0.991612
v -3.879184 0.462416 -3.091267
v 0.203695 0.538024 -7.128471
v 6.007738 0.386321 -4.812431
vn -0.0000 1.0000 -0.0000
vn 0.4918 0.8001 0.3436
vn 0.3751 0.8029 0.4632
vn -0.3142 0.8223 0.4744
vn -0.5526 0.8042 0.2187
vn -0.5373 0.7820 -0.3159
vn -0.3122 0.7814 -0.5403
vn 0.3404 0.7734 -0.5348
vn 0.4792 0.7797 -0.4031
vn 0.7886 0.5488 0.2774
vn 0.3331 0.5902 0.7353
vn -0.3665 0.5403 0.7575
vn -0.7760 0.5399 0.3260
vn -0.7495 0.5609 -0.3517
vn -0.3714 0.5717 -0.7316
vn 0.2988 0.6294 -0.7174
vn 0.7749 0.5768 -0.2587
vn 0.7354 0.5729 0.3620
vn 0.2994 0.4261 0.8537
vn -0.3846 0.4051 0.8294
vn -0.6397 0.5833 0.5006
vn -0.6410 0.5586 -0.5264
vn -0.5235 0.5184 -0.6762
vn 0.2741 0.6720 -0.6880
vn 0.7153 0.6691 -0.2018
s 0
f 3//1 2//1 1//1
f 4//1 3//1 1//1
f 5//1 4//1 1//1
f 6//1 5//1 1//1
f 7//1 6//1 1//1
f 8//1 7//1 1//1
f 9//1 8//1 1//1
f 2//1 9//1 1//1
f 3//2 11//2 10//2 2//2
f 4//3 12//3 11//3 3//3
f 5//4 13//4 12//4 4//4
f 6//5 14//5 13//5 5//5
f 7//6 15//6 14//6 6//6
f 8//7 16//7 15//7 7//7
f 9//8 17//8 16//8 8//8
f 2//9 10//9 17//9 9//9
f 11//10 19//10 18//10 10//10
f 12//11 20//11 19//11 11//11
f 13//12 21//12 20//12 12//12
f 14//13 22//13 21//13 13//13
f 15//14 23//14 22//14 14//14
f 16//15 24//15 23//15 15//15
f 17//16 25//16 24//16 16//16
f 10//17 18//17 25//17 17//17
f 19//18 27//18 26//18 18//18
f 20//19 28//19 27//19 19//19
f 21//20 29//20 28//20 20//20
f 22//21 30//21 29//21 21//21
f 23//22 31//22 30//22 22//22
f 24//23 32//23 31//23 23//23
f 25//24 33//24 32//24 24//24
f 18//25 26//25 33//25 25//25
