# Blender 4.4.1
# www.blender.org
o Hill_162
v 0.264011 0.000000 0.344472
v 0.264011 6.626230 0.344472
v 0.264011 6.626230 0.344472
v 0.264011 6.626230 0.344472
v 0.264011 6.626230 0.344472
v 0.264011 6.626230 0.344472
v 0.264011 6.626230 0.344472
v 0.264011 6.626230 0.344472
v 0.264011 6.626230 0.344472
v 2.797493 5.504124 0.344472
v 2.161812 5.414320 2.242273
v 0.264011 5.549969 2.823332
v -1.657295 5.145683 2.265777
v -2.300193 5.331854 0.344472
v -1.613719 5.548904 -1.533258
v 0.264011 5.391535 -2.138890
v 2.106524 5.156705 -1.498042
v 5.818615 2.693917 0.344472
v 3.940723 2.817649 4.021184
v 0.264011 3.323911 5.058423
v -3.460800 3.334293 4.069283
v -4.754750 2.721443 0.344472
v -3.076232 2.869962 -2.995771
v 0.264011 3.292714 -5.316965
v 3.891548 2.629188 -3.283065
v 7.558600 0.361694 0.344472
v 5.825894 0.387364 5.906355
v 0.264011 -0.076597 8.032353
v -4.836780 -0.440525 5.445263
v -7.558600 -0.214835 0.344472
v -4.922513 0.319122 -4.842052
v 0.264011 0.054798 -8.032353
v 5.455530 0.117047 -4.847047
vn -0.0000 1.0000 -0.0000
vn 0.3986 0.9000 0.1761
vn 0.1843 0.9016 0.3914
vn -0.2949 0.8765 0.3806
vn -0.4385 0.8686 0.2309
vn -0.4498 0.8910 -0.0614
vn -0.0684 0.8933 -0.4442
vn 0.2597 0.8647 -0.4299
vn 0.3852 0.8697 -0.3085
vn 0.6642 0.6868 0.2953
vn 0.2766 0.6730 0.6860
vn -0.2258 0.7375 0.6365
vn -0.6721 0.7191 0.1762
vn -0.7300 0.6201 -0.2874
vn -0.3751 0.7024 -0.6050
vn 0.3899 0.7394 -0.5490
vn 0.6327 0.6883 -0.3547
vn 0.7125 0.6484 0.2680
vn 0.2443 0.6662 0.7046
vn -0.3357 0.5346 0.7756
vn -0.7707 0.5470 0.3267
vn -0.6798 0.6737 -0.2900
vn -0.4255 0.6399 -0.6399
vn 0.4337 0.6109 -0.6624
vn 0.7178 0.6023 -0.3492
s 0
f 3//1 2//1 1//1
f 4//1 3//1 1//1
f 5//1 4//1 1//1
f 6//1 5//1 1//1
f 7//1 6//1 1//1
f 8//1 7//1 1//1
f 9//1 8//1 1//1
f 2//1 9//1 1//1
f 3//2 11//2 10//2 2//2
f 4//3 12//3 11//3 3//3
f 5//4 13//4 12//4 4//4
f 6//5 14//5 13//5 5//5
f 7//6 15//6 14//6 6//6
f 8//7 16//7 15//7 7//7
f 9//8 17//8 16//8 8//8
f 2//9 10//9 17//9 9//9
f 11//10 19//10 18//10 10//10
f 12//11 20//11 19//11 11//11
f 13//12 21//12 20//12 12//12
f 14//13 22//13 21//13 13//13
f 15//14 23//14 22//14 14//14
f 16//15 24//15 23//15 15//15
f 17//16 25//16 24//16 16//16
f 10//17 18//17 25//17 17//17
f 19//18 27//18 26//18 18//18
f 20//19 28//19 27//19 19//19
f 21//20 29//20 28//20 20//20
f 22//21 30//21 29//21 21//21
f 23//22 31//22 30//22 22//22
f 24//23 32//23 31//23 23//23
f 25//24 33//24 32//24 24//24
f 18//25 26//25 33//25 25//25
