# Blender 4.4.1
# www.blender.org
o Hill_237
v -0.368275 0.000000 1.281276
v -0.368275 7.407889 1.281276
v -0.368275 7.407889 1.281276
v -0.368275 7.407889 1.281276
v -0.368275 7.407889 1.281276
v -0.368275 7.407889 1.281276
v -0.368275 7.407889 1.281276
v -0.368275 7.407889 1.281276
v -0.368275 7.407889 1.281276
v 2.657226 5.933582 1.281276
v 1.821611 5.749998 3.471163
v -0.368275 5.827573 4.244900
v -2.370428 5.769747 3.283430
v -3.481168 6.020702 1.281276
v -2.625891 6.177963 -0.976339
v -0.368275 5.829963 -1.531605
v 1.846080 6.022418 -0.933078
v 6.074422 3.384405 1.281276
v 4.016109 3.546325 5.665659
v -0.368275 3.411605 7.403041
v -4.235507 3.000210 5.148509
v -5.828033 3.575487 1.281276
v -5.149693 3.641700 -3.500142
v -0.368275 3.112200 -5.170848
v 3.420358 3.610166 -2.507357
v 10.177176 0.050216 1.281276
v 6.834071 -0.284521 8.483623
v -0.368275 -0.140416 9.446140
v -6.217043 -0.696035 7.130044
v -10.177176 0.135355 1.281276
v -7.225107 0.244266 -5.575556
v -0.368275 -0.611746 -9.446140
v 6.703221 0.678031 -5.790219
vn -0.0000 1.0000 -0.0000
vn 0.4257 0.8736 0.2357
vn 0.1938 0.8657 0.4616
vn -0.2438 0.8558 0.4563
vn -0.3853 0.8647 0.3222
vn -0.4054 0.9097 -0.0902
vn 0.0141 0.8721 -0.4892
vn 0.0563 0.8708 -0.4885
vn 0.4347 0.8921 -0.1234
vn 0.5662 0.7848 0.2518
vn 0.2168 0.7812 0.5854
vn -0.3811 0.7103 0.5918
vn -0.6436 0.6590 0.3892
vn -0.6772 0.7252 -0.1245
vn -0.0997 0.7770 -0.6216
vn 0.2618 0.7263 -0.6356
vn 0.6161 0.7207 -0.3179
vn 0.6238 0.7211 0.3015
vn 0.1839 0.5886 0.7873
vn -0.4043 0.5260 0.7482
vn -0.6065 0.6608 0.4423
vn -0.6823 0.7025 -0.2023
vn -0.2456 0.6841 -0.6868
vn 0.2158 0.7774 -0.5908
vn 0.5581 0.7903 -0.2528
s 0
f 3//1 2//1 1//1
f 4//1 3//1 1//1
f 5//1 4//1 1//1
f 6//1 5//1 1//1
f 7//1 6//1 1//1
f 8//1 7//1 1//1
f 9//1 8//1 1//1
f 2//1 9//1 1//1
f 3//2 11//2 10//2 2//2
f 4//3 12//3 11//3 3//3
f 5//4 13//4 12//4 4//4
f 6//5 14//5 13//5 5//5
f 7//6 15//6 14//6 6//6
f 8//7 16//7 15//7 7//7
f 9//8 17//8 16//8 8//8
f 2//9 10//9 17//9 9//9
f 11//10 19//10 18//10 10//10
f 12//11 20//11 19//11 11//11
f 13//12 21//12 20//12 12//12
f 14//13 22//13 21//13 13//13
f 15//14 23//14 22//14 14//14
f 16//15 24//15 23//15 15//15
f 17//16 25//16 24//16 16//16
f 10//17 18//17 25//17 17//17
f 19//18 27//18 26//18 18//18
f 20//19 28//19 27//19 19//19
f 21//20 29//20 28//20 20//20
f 22//21 30//21 29//21 21//21
f 23//22 31//22 30//22 22//22
f 24//23 32//23 31//23 23//23
f 25//24 33//24 32//24 24//24
f 18//25 26//25 33//25 25//25
