# Blender 4.4.1
# www.blender.org
o Hill_142
v 1.329810 0.000000 0.136303
v 1.329810 7.653714 0.136303
v 1.329810 7.653714 0.136303
v 1.329810 7.653714 0.136303
v 1.329810 7.653714 0.136303
v 1.329810 7.653714 0.136303
v 1.329810 7.653714 0.136303
v 1.329810 7.653714 0.136303
v 1.329810 7.653714 0.136303
v 3.894367 5.951755 0.136303
v 3.235951 6.034527 2.042444
v 1.329810 6.072358 2.721458
v -0.368035 6.045455 1.834147
v -1.366019 6.211756 0.136303
v -0.418789 6.203750 -1.612296
v 1.329810 6.275195 -2.293287
v 3.019018 6.255682 -1.552906
v 6.994031 2.998427 0.136303
v 4.555561 3.742082 3.362053
v 1.329810 3.648244 4.871394
v -2.413162 3.401405 3.879274
v -4.279581 3.185589 0.136303
v -1.928419 3.076917 -3.121926
v 1.329810 3.293148 -5.507893
v 4.949195 3.537238 -3.483083
v 7.611865 0.739063 0.136303
v 7.499757 0.540399 6.306250
v 1.329810 -0.398680 6.220166
v -4.637087 0.450691 6.103199
v -7.611865 0.712015 0.136303
v -3.208437 -0.074560 -4.401944
v 1.329810 0.407177 -6.306250
v 7.298581 -0.053121 -5.832469
vn -0.0000 1.0000 -0.0000
vn 0.5464 0.8234 0.1530
vn 0.1988 0.8360 0.5114
vn -0.2752 0.8201 0.5017
vn -0.4433 0.8287 0.3417
vn -0.4565 0.8535 -0.2512
vn -0.2220 0.8480 -0.4812
vn 0.2208 0.8483 -0.4813
vn 0.5479 0.8255 -0.1354
vn 0.6876 0.6570 0.3091
vn 0.3026 0.6183 0.7254
vn -0.2707 0.6763 0.6851
vn -0.6465 0.6859 0.3341
vn -0.6673 0.5909 -0.4534
vn -0.4372 0.6153 -0.6560
vn 0.3099 0.6927 -0.6512
vn 0.6759 0.6887 -0.2625
vn 0.7783 0.6027 0.1763
vn 0.0699 0.5292 0.8456
vn -0.0712 0.4714 0.8790
vn -0.6008 0.7397 0.3030
vn -0.5713 0.5967 -0.5635
vn -0.4725 0.3748 -0.7977
vn 0.2300 0.4916 -0.8399
vn 0.8322 0.5097 -0.2181
s 0
f 3//1 2//1 1//1
f 4//1 3//1 1//1
f 5//1 4//1 1//1
f 6//1 5//1 1//1
f 7//1 6//1 1//1
f 8//1 7//1 1//1
f 9//1 8//1 1//1
f 2//1 9//1 1//1
f 3//2 11//2 10//2 2//2
f 4//3 12//3 11//3 3//3
f 5//4 13//4 12//4 4//4
f 6//5 14//5 13//5 5//5
f 7//6 15//6 14//6 6//6
f 8//7 16//7 15//7 7//7
f 9//8 17//8 16//8 8//8
f 2//9 10//9 17//9 9//9
f 11//10 19//10 18//10 10//10
f 12//11 20//11 19//11 11//11
f 13//12 21//12 20//12 12//12
f 14//13 22//13 21//13 13//13
f 15//14 23//14 22//14 14//14
f 16//15 24//15 23//15 15//15
f 17//16 25//16 24//16 16//16
f 10//17 18//17 25//17 17//17
f 19//18 27//18 26//18 18//18
f 20//19 28//19 27//19 19//19
f 21//20 29//20 28//20 20//20
f 22//21 30//21 29//21 21//21
f 23//22 31//22 30//22 22//22
f 24//23 32//23 31//23 23//23
f 25//24 33//24 32//24 24//24
f 18//25 26//25 33//25 25//25
