# Blender 4.4.1
# www.blender.org
o Hill_131
v -0.223858 0.000000 0.781503
v -0.223858 5.028462 0.781503
v -0.223858 5.028462 0.781503
v -0.223858 5.028462 0.781503
v -0.223858 5.028462 0.781503
v -0.223858 5.028462 0.781503
v -0.223858 5.028462 0.781503
v -0.223858 5.028462 0.781503
v -0.223858 5.028462 0.781503
v 2.925668 4.081777 0.781503
v 1.860665 4.016040 2.866026
v -0.223858 3.900004 3.832837
v -2.332784 4.125706 2.890429
v -3.249791 3.928763 0.781503
v -2.318347 3.986616 -1.312986
v -0.223858 4.034672 -2.213695
v 1.756154 3.981210 -1.198509
v 6.432410 2.195869 0.781503
v 3.869272 2.572422 4.874633
v -0.223858 2.543095 7.371114
v -4.002754 2.064695 4.560399
v -6.280488 2.401700 0.781503
v -4.367181 2.624212 -3.361820
v -0.223858 2.132419 -4.962653
v 3.494290 2.485747 -2.936645
v 7.571844 -0.087238 0.781503
v 6.232250 -0.269276 7.237610
v -0.223858 -0.368873 8.441220
v -7.037638 -0.491589 7.595284
v -7.571844 0.289727 0.781503
v -5.552739 0.166856 -4.547378
v -0.223858 -0.493938 -8.441220
v 7.041180 -0.365004 -6.483535
vn -0.0000 1.0000 -0.0000
vn 0.2834 0.9430 0.1745
vn 0.1080 0.9324 0.3448
vn -0.0545 0.9365 0.3463
vn -0.3409 0.9381 0.0606
vn -0.3389 0.9325 -0.1250
vn -0.1553 0.9376 -0.3111
vn 0.1839 0.9329 -0.3095
vn 0.2812 0.9356 -0.2136
vn 0.4451 0.8686 0.2177
vn 0.1946 0.9022 0.3850
vn -0.3201 0.8359 0.4459
vn -0.5108 0.8070 0.2963
vn -0.4384 0.8844 -0.1602
vn -0.1457 0.8458 -0.5133
vn 0.2378 0.8165 -0.5261
vn 0.4471 0.8447 -0.2942
vn 0.7367 0.6238 0.2610
vn 0.2652 0.5720 0.7762
vn -0.2759 0.6703 0.6889
vn -0.6268 0.7398 0.2445
vn -0.7939 0.5145 -0.3242
vn -0.3033 0.6816 -0.6659
vn 0.1648 0.8165 -0.5533
vn 0.6487 0.7332 -0.2041
s 0
f 3//1 2//1 1//1
f 4//1 3//1 1//1
f 5//1 4//1 1//1
f 6//1 5//1 1//1
f 7//1 6//1 1//1
f 8//1 7//1 1//1
f 9//1 8//1 1//1
f 2//1 9//1 1//1
f 3//2 11//2 10//2 2//2
f 4//3 12//3 11//3 3//3
f 5//4 13//4 12//4 4//4
f 6//5 14//5 13//5 5//5
f 7//6 15//6 14//6 6//6
f 8//7 16//7 15//7 7//7
f 9//8 17//8 16//8 8//8
f 2//9 10//9 17//9 9//9
f 11//10 19//10 18//10 10//10
f 12//11 20//11 19//11 11//11
f 13//12 21//12 20//12 12//12
f 14//13 22//13 21//13 13//13
f 15//14 23//14 22//14 14//14
f 16//15 24//15 23//15 15//15
f 17//16 25//16 24//16 16//16
f 10//17 18//17 25//17 17//17
f 19//18 27//18 26//18 18//18
f 20//19 28//19 27//19 19//19
f 21//20 29//20 28//20 20//20
f 22//21 30//21 29//21 21//21
f 23//22 31//22 30//22 22//22
f 24//23 32//23 31//23 23//23
f 25//24 33//24 32//24 24//24
f 18//25 26//25 33//25 25//25
