# Blender 4.4.1
# www.blender.org
o Hill_135
v -0.469433 0.000000 0.336727
v -0.469433 9.409032 0.336727
v -0.469433 9.409032 0.336727
v -0.469433 9.409032 0.336727
v -0.469433 9.409032 0.336727
v -0.469433 9.409032 0.336727
v -0.469433 9.409032 0.336727
v -0.469433 9.409032 0.336727
v -0.469433 9.409032 0.336727
v 2.041831 7.440671 0.336727
v 1.278861 7.429461 2.085021
v -0.469433 7.579265 2.914234
v -2.153843 7.871291 2.021137
v -2.926088 7.722199 0.336727
v -2.256470 7.786506 -1.450310
v -0.469433 7.501152 -2.169032
v 1.300512 7.592590 -1.433218
v 4.921559 4.800745 0.336727
v 2.733757 3.979949 3.539917
v -0.469433 4.120041 5.055406
v -4.543224 4.260469 4.410518
v -5.106701 4.731067 0.336727
v -4.205501 4.411735 -3.399341
v -0.469433 4.721351 -5.170876
v 3.587152 4.117504 -3.719858
v 7.956630 -0.771592 0.336727
v 5.823514 -0.767068 6.629673
v -0.469433 -0.846690 8.563188
v -4.956853 0.812959 4.824147
v -7.956630 -0.389246 0.336727
v -6.638608 -0.416795 -5.832448
v -0.469433 -0.509803 -8.563188
v 4.519426 0.038592 -4.652132
vn -0.0000 1.0000 -0.0000
vn 0.5949 0.7590 0.2645
vn 0.3257 0.7710 0.5473
vn -0.1633 0.8045 0.5711
vn -0.5564 0.8104 0.1834
vn -0.5569 0.8110 -0.1795
vn -0.1158 0.7903 -0.6017
vn 0.2062 0.7785 -0.5928
vn 0.6060 0.7731 -0.1874
vn 0.6526 0.5808 0.4865
vn 0.3967 0.4882 0.7774
vn -0.1713 0.5720 0.8022
vn -0.7661 0.6069 0.2116
vn -0.7765 0.5795 -0.2476
vn -0.3135 0.6535 -0.6890
vn 0.3100 0.6774 -0.6671
vn 0.6702 0.6786 -0.3006
vn 0.7390 0.5536 0.3839
vn 0.2768 0.5986 0.7517
vn -0.3458 0.4103 0.8438
vn -0.8752 0.3495 0.3344
vn -0.8424 0.4978 -0.2062
vn -0.3602 0.5312 -0.7669
vn 0.4668 0.4106 -0.7833
vn 0.8208 0.3787 -0.4277
s 0
f 3//1 2//1 1//1
f 4//1 3//1 1//1
f 5//1 4//1 1//1
f 6//1 5//1 1//1
f 7//1 6//1 1//1
f 8//1 7//1 1//1
f 9//1 8//1 1//1
f 2//1 9//1 1//1
f 3//2 11//2 10//2 2//2
f 4//3 12//3 11//3 3//3
f 5//4 13//4 12//4 4//4
f 6//5 14//5 13//5 5//5
f 7//6 15//6 14//6 6//6
f 8//7 16//7 15//7 7//7
f 9//8 17//8 16//8 8//8
f 2//9 10//9 17//9 9//9
f 11//10 19//10 18//10 10//10
f 12//11 20//11 19//11 11//11
f 13//12 21//12 20//12 12//12
f 14//13 22//13 21//13 13//13
f 15//14 23//14 22//14 14//14
f 16//15 24//15 23//15 15//15
f 17//16 25//16 24//16 16//16
f 10//17 18//17 25//17 17//17
f 19//18 27//18 26//18 18//18
f 20//19 28//19 27//19 19//19
f 21//20 29//20 28//20 20//20
f 22//21 30//21 29//21 21//21
f 23//22 31//22 30//22 22//22
f 24//23 32//23 31//23 23//23
f 25//24 33//24 32//24 24//24
f 18//25 26//25 33//25 25//25
