# Blender 4.4.1
# www.blender.org
o Hill_263
v -0.859099 0.000000 0.559531
v -0.859099 8.350104 0.559531
v -0.859099 8.350104 0.559531
v -0.859099 8.350104 0.559531
v -0.859099 8.350104 0.559531
v -0.859099 8.350104 0.559531
v -0.859099 8.350104 0.559531
v -0.859099 8.350104 0.559531
v -0.859099 8.350104 0.559531
v 1.983604 6.936327 0.559531
v 1.133175 6.890105 2.551805
v -0.859099 6.552580 3.424553
v -2.993930 6.950397 2.694361
v -3.770958 6.809698 0.559531
v -2.892232 6.631873 -1.473602
v -0.859099 6.900529 -2.257618
v 1.161127 6.603520 -1.460695
v 5.497371 4.025292 0.559531
v 2.879276 4.225904 4.297905
v -0.859099 4.304746 6.805058
v -5.435832 3.686653 5.136263
v -7.015032 3.990727 0.559531
v -4.793546 3.873013 -3.374916
v -0.859099 4.027230 -5.563934
v 3.151730 4.096457 -3.451299
v 9.192113 0.127901 0.559531
v 6.266760 0.414061 7.685390
v -0.859099 -0.496751 8.075519
v -8.040610 0.425819 7.741042
v -9.192113 0.707720 0.559531
v -6.165411 -0.662568 -4.746782
v -0.859099 -0.573395 -8.075519
v 5.204479 0.241921 -5.504047
vn -0.0000 1.0000 -0.0000
vn 0.4357 0.8761 0.2063
vn 0.0890 0.8437 0.5294
vn -0.0239 0.8468 0.5313
vn -0.4647 0.8784 0.1112
vn -0.4504 0.8513 -0.2691
vn -0.2820 0.8531 -0.4390
vn 0.2972 0.8490 -0.4369
vn 0.4230 0.8506 -0.3123
vn 0.6210 0.6977 0.3571
vn 0.3188 0.7363 0.5969
vn -0.2432 0.7533 0.6111
vn -0.6562 0.7128 0.2477
vn -0.6224 0.6961 -0.3578
vn -0.3591 0.6961 -0.6217
vn 0.3226 0.7220 -0.6121
vn 0.5930 0.7285 -0.3431
vn 0.6366 0.7135 0.2928
vn 0.1822 0.5222 0.8331
vn -0.1370 0.4647 0.8748
vn -0.7494 0.6294 0.2054
vn -0.7538 0.4294 -0.4973
vn -0.4769 0.4035 -0.7809
vn 0.3257 0.5091 -0.7967
vn 0.6756 0.6104 -0.4135
s 0
f 3//1 2//1 1//1
f 4//1 3//1 1//1
f 5//1 4//1 1//1
f 6//1 5//1 1//1
f 7//1 6//1 1//1
f 8//1 7//1 1//1
f 9//1 8//1 1//1
f 2//1 9//1 1//1
f 3//2 11//2 10//2 2//2
f 4//3 12//3 11//3 3//3
f 5//4 13//4 12//4 4//4
f 6//5 14//5 13//5 5//5
f 7//6 15//6 14//6 6//6
f 8//7 16//7 15//7 7//7
f 9//8 17//8 16//8 8//8
f 2//9 10//9 17//9 9//9
f 11//10 19//10 18//10 10//10
f 12//11 20//11 19//11 11//11
f 13//12 21//12 20//12 12//12
f 14//13 22//13 21//13 13//13
f 15//14 23//14 22//14 14//14
f 16//15 24//15 23//15 15//15
f 17//16 25//16 24//16 16//16
f 10//17 18//17 25//17 17//17
f 19//18 27//18 26//18 18//18
f 20//19 28//19 27//19 19//19
f 21//20 29//20 28//20 20//20
f 22//21 30//21 29//21 21//21
f 23//22 31//22 30//22 22//22
f 24//23 32//23 31//23 23//23
f 25//24 33//24 32//24 24//24
f 18//25 26//25 33//25 25//25
