# Blender 4.4.1
# www.blender.org
o Hill_174
v -1.145281 0.000000 -0.809909
v -1.145281 7.308625 -0.809909
v -1.145281 7.308625 -0.809909
v -1.145281 7.308625 -0.809909
v -1.145281 7.308625 -0.809909
v -1.145281 7.308625 -0.809909
v -1.145281 7.308625 -0.809909
v -1.145281 7.308625 -0.809909
v -1.145281 7.308625 -0.809909
v 2.462387 6.133644 -0.809909
v 1.457404 5.959840 1.792776
v -1.145281 6.111744 2.893000
v -3.742806 5.810649 1.787615
v -5.073229 5.702455 -0.809909
v -3.728420 5.785736 -3.393049
v -1.145281 5.979993 -4.449717
v 1.357045 5.957478 -3.312236
v 6.762613 3.505256 -0.809909
v 3.512055 3.512983 3.847427
v -1.145281 3.195168 6.611006
v -6.701266 3.214828 4.746075
v -8.998202 3.185370 -0.809909
v -5.819221 2.919672 -5.483850
v -1.145281 2.903360 -8.638940
v 4.601487 3.367166 -6.556677
v 11.267662 0.449486 -0.809909
v 5.845208 -0.271314 6.180581
v -1.145281 0.306022 9.988299
v -7.878028 0.021440 5.922837
v -11.267662 -0.186533 -0.809909
v -7.656476 -0.021183 -7.321104
v -1.145281 0.137574 -9.988299
v 7.252040 -0.290689 -9.207231
vn -0.0000 1.0000 -0.0000
vn 0.3046 0.9353 0.1801
vn 0.1824 0.9356 0.3024
vn -0.2345 0.9250 0.2990
vn -0.3740 0.9146 0.1535
vn -0.3733 0.9129 -0.1649
vn -0.2064 0.9192 -0.3355
vn 0.1621 0.9269 -0.3384
vn 0.3034 0.9317 -0.1996
vn 0.5238 0.7874 0.3250
vn 0.2974 0.7499 0.5909
vn -0.2304 0.7980 0.5568
vn -0.5201 0.8260 0.2174
vn -0.5490 0.7538 -0.3612
vn -0.3536 0.7354 -0.5781
vn 0.1706 0.8181 -0.5492
vn 0.4870 0.8439 -0.2250
vn 0.5491 0.7031 0.4519
vn 0.3739 0.6750 0.6361
vn -0.3572 0.6031 0.7132
vn -0.7980 0.4834 0.3599
vn -0.6958 0.5771 -0.4276
vn -0.3936 0.5415 -0.7429
vn 0.1618 0.5689 -0.8064
vn 0.5896 0.7484 -0.3039
s 0
f 3//1 2//1 1//1
f 4//1 3//1 1//1
f 5//1 4//1 1//1
f 6//1 5//1 1//1
f 7//1 6//1 1//1
f 8//1 7//1 1//1
f 9//1 8//1 1//1
f 2//1 9//1 1//1
f 3//2 11//2 10//2 2//2
f 4//3 12//3 11//3 3//3
f 5//4 13//4 12//4 4//4
f 6//5 14//5 13//5 5//5
f 7//6 15//6 14//6 6//6
f 8//7 16//7 15//7 7//7
f 9//8 17//8 16//8 8//8
f 2//9 10//9 17//9 9//9
f 11//10 19//10 18//10 10//10
f 12//11 20//11 19//11 11//11
f 13//12 21//12 20//12 12//12
f 14//13 22//13 21//13 13//13
f 15//14 23//14 22//14 14//14
f 16//15 24//15 23//15 15//15
f 17//16 25//16 24//16 16//16
f 10//17 18//17 25//17 17//17
f 19//18 27//18 26//18 18//18
f 20//19 28//19 27//19 19//19
f 21//20 29//20 28//20 20//20
f 22//21 30//21 29//21 21//21
f 23//22 31//22 30//22 22//22
f 24//23 32//23 31//23 23//23
f 25//24 33//24 32//24 24//24
f 18//25 26//25 33//25 25//25
