# Blender 4.4.1
# www.blender.org
o Hill_266
v -0.068216 0.000000 -1.056966
v -0.068216 9.494792 -1.056966
v -0.068216 9.494792 -1.056966
v -0.068216 9.494792 -1.056966
v -0.068216 9.494792 -1.056966
v -0.068216 9.494792 -1.056966
v -0.068216 9.494792 -1.056966
v -0.068216 9.494792 -1.056966
v -0.068216 9.494792 -1.056966
v 2.649215 7.514220 -1.056966
v 1.884362 7.942574 0.895612
v -0.068216 7.516319 1.497012
v -1.837939 7.388950 0.712757
v -2.628101 7.398302 -1.056966
v -1.814555 7.653628 -2.803305
v -0.068216 7.411899 -3.849474
v 1.870022 7.938527 -2.995204
v 4.617957 4.859179 -1.056966
v 3.524835 3.794568 2.536085
v -0.068216 3.818678 4.591031
v -3.977557 3.802889 2.852375
v -5.308140 3.950840 -1.056966
v -3.417000 4.586545 -4.405750
v -0.068216 4.085235 -6.419238
v 3.985262 3.714035 -5.110445
v 6.653298 0.771380 -1.056966
v 5.872393 -0.941298 4.883643
v -0.068216 0.039412 8.293810
v -6.307073 -0.781868 5.181890
v -6.653298 -0.697829 -1.056966
v -5.707479 0.666695 -6.696229
v -0.068216 -0.689858 -8.293810
v 5.461898 0.374475 -6.587080
vn -0.0000 1.0000 -0.0000
vn 0.5882 0.8070 0.0534
vn 0.0160 0.7904 0.6123
vn -0.3119 0.7511 0.5819
vn -0.6090 0.7436 0.2759
vn -0.6234 0.7611 -0.1791
vn -0.2400 0.7782 -0.5804
vn 0.0457 0.8007 -0.5973
vn 0.5879 0.8067 -0.0598
vn 0.8004 0.5032 0.3259
vn 0.3323 0.5373 0.7752
vn -0.3337 0.6128 0.7164
vn -0.7442 0.5995 0.2945
vn -0.7604 0.5744 -0.3032
vn -0.3596 0.5715 -0.7376
vn 0.2682 0.5610 -0.7832
vn 0.7955 0.5503 -0.2537
vn 0.8189 0.4874 0.3030
vn 0.4454 0.5969 0.6673
vn -0.3826 0.6082 0.6955
vn -0.9030 0.3993 0.1583
vn -0.8859 0.4253 -0.1850
vn -0.2435 0.4704 -0.8482
vn 0.2471 0.4079 -0.8789
vn 0.8594 0.4534 -0.2365
s 0
f 3//1 2//1 1//1
f 4//1 3//1 1//1
f 5//1 4//1 1//1
f 6//1 5//1 1//1
f 7//1 6//1 1//1
f 8//1 7//1 1//1
f 9//1 8//1 1//1
f 2//1 9//1 1//1
f 3//2 11//2 10//2 2//2
f 4//3 12//3 11//3 3//3
f 5//4 13//4 12//4 4//4
f 6//5 14//5 13//5 5//5
f 7//6 15//6 14//6 6//6
f 8//7 16//7 15//7 7//7
f 9//8 17//8 16//8 8//8
f 2//9 10//9 17//9 9//9
f 11//10 19//10 18//10 10//10
f 12//11 20//11 19//11 11//11
f 13//12 21//12 20//12 12//12
f 14//13 22//13 21//13 13//13
f 15//14 23//14 22//14 14//14
f 16//15 24//15 23//15 15//15
f 17//16 25//16 24//16 16//16
f 10//17 18//17 25//17 17//17
f 19//18 27//18 26//18 18//18
f 20//19 28//19 27//19 19//19
f 21//20 29//20 28//20 20//20
f 22//21 30//21 29//21 21//21
f 23//22 31//22 30//22 22//22
f 24//23 32//23 31//23 23//23
f 25//24 33//24 32//24 24//24
f 18//25 26//25 33//25 25//25
