# Blender 4.4.1
# www.blender.org
o Hill_207
v -0.174527 0.000000 -0.326547
v -0.174527 8.961677 -0.326547
v -0.174527 8.961677 -0.326547
v -0.174527 8.961677 -0.326547
v -0.174527 8.961677 -0.326547
v -0.174527 8.961677 -0.326547
v -0.174527 8.961677 -0.326547
v -0.174527 8.961677 -0.326547
v -0.174527 8.961677 -0.326547
v 2.344944 7.257697 -0.326547
v 1.625252 7.249000 1.473232
v -0.174527 6.938604 2.400342
v -2.129303 7.280694 1.628229
v -2.697793 7.336013 -0.326547
v -1.921819 7.226526 -2.073839
v -0.174527 7.261411 -3.017144
v 1.621356 7.293761 -2.122431
v 5.052740 4.481943 -0.326547
v 3.789503 3.612755 3.637483
v -0.174527 4.662181 4.723712
v -3.635350 3.664602 3.134275
v -6.084596 4.428048 -0.326547
v -4.308976 3.542563 -4.460996
v -0.174527 4.298228 -5.187608
v 3.766366 4.393957 -4.267440
v 7.416260 0.165206 -0.326547
v 6.234046 0.172853 6.082026
v -0.174527 -0.865183 8.027812
v -6.803764 -0.255522 6.302690
v -7.416260 0.103880 -0.326547
v -6.354882 -0.552789 -6.506902
v -0.174527 0.074135 -8.027812
v 6.178729 0.879190 -6.679804
vn -0.0000 1.0000 -0.0000
vn 0.5462 0.8076 0.2223
vn 0.1661 0.7920 0.5876
vn -0.0944 0.7995 0.5932
vn -0.5329 0.8272 0.1784
vn -0.5197 0.8067 -0.2814
vn -0.2920 0.8085 -0.5109
vn 0.2434 0.8199 -0.5181
vn 0.5484 0.8108 -0.2047
vn 0.6921 0.6391 0.3354
vn 0.3245 0.6444 0.6925
vn -0.3854 0.5701 0.7256
vn -0.6577 0.5988 0.4570
vn -0.6207 0.6831 -0.3848
vn -0.2912 0.6099 -0.7370
vn 0.2216 0.6293 -0.7449
vn 0.6883 0.6820 -0.2473
vn 0.7918 0.5644 0.2335
vn 0.2313 0.5690 0.7892
vn -0.2696 0.6042 0.7499
vn -0.7848 0.5431 0.2986
vn -0.8585 0.4169 -0.2985
vn -0.2477 0.5352 -0.8076
vn 0.1257 0.5837 -0.8022
vn 0.8180 0.5503 -0.1671
s 0
f 3//1 2//1 1//1
f 4//1 3//1 1//1
f 5//1 4//1 1//1
f 6//1 5//1 1//1
f 7//1 6//1 1//1
f 8//1 7//1 1//1
f 9//1 8//1 1//1
f 2//1 9//1 1//1
f 3//2 11//2 10//2 2//2
f 4//3 12//3 11//3 3//3
f 5//4 13//4 12//4 4//4
f 6//5 14//5 13//5 5//5
f 7//6 15//6 14//6 6//6
f 8//7 16//7 15//7 7//7
f 9//8 17//8 16//8 8//8
f 2//9 10//9 17//9 9//9
f 11//10 19//10 18//10 10//10
f 12//11 20//11 19//11 11//11
f 13//12 21//12 20//12 12//12
f 14//13 22//13 21//13 13//13
f 15//14 23//14 22//14 14//14
f 16//15 24//15 23//15 15//15
f 17//16 25//16 24//16 16//16
f 10//17 18//17 25//17 17//17
f 19//18 27//18 26//18 18//18
f 20//19 28//19 27//19 19//19
f 21//20 29//20 28//20 20//20
f 22//21 30//21 29//21 21//21
f 23//22 31//22 30//22 22//22
f 24//23 32//23 31//23 23//23
f 25//24 33//24 32//24 24//24
f 18//25 26//25 33//25 25//25
