# Blender 4.4.1
# www.blender.org
o Hill_175
v -0.535485 0.000000 -0.047401
v -0.535485 9.325919 -0.047401
v -0.535485 9.325919 -0.047401
v -0.535485 9.325919 -0.047401
v -0.535485 9.325919 -0.047401
v -0.535485 9.325919 -0.047401
v -0.535485 9.325919 -0.047401
v -0.535485 9.325919 -0.047401
v -0.535485 9.325919 -0.047401
v 2.240716 7.706794 -0.047401
v 1.359475 7.418571 1.847559
v -0.535485 7.706012 2.600287
v -2.559241 7.238244 1.976355
v -3.150217 7.753126 -0.047401
v -2.446263 7.716999 -1.958179
v -0.535485 7.707268 -2.935319
v 1.500982 7.334882 -2.083868
v 4.845500 4.498967 -0.047401
v 2.891371 4.120822 3.379455
v -0.535485 4.384124 5.209306
v -4.143537 3.694576 3.560651
v -6.321369 4.467469 -0.047401
v -4.072351 3.860004 -3.584266
v -0.535485 3.993520 -5.070762
v 3.834206 4.620320 -4.417092
v 7.477776 0.711296 -0.047401
v 5.750923 -0.048591 6.239007
v -0.535485 0.492052 7.876936
v -6.633631 -0.204903 6.050745
v -7.477776 -0.602683 -0.047401
v -6.857342 -0.746233 -6.369257
v -0.535485 0.881136 -7.876936
v 5.306178 0.851541 -5.889063
vn -0.0000 1.0000 -0.0000
vn 0.4732 0.8113 0.3434
vn 0.3191 0.8084 0.4946
vn -0.3371 0.8031 0.4913
vn -0.4836 0.8041 0.3458
vn -0.5048 0.8393 -0.2019
vn -0.2385 0.8472 -0.4748
vn 0.3420 0.8197 -0.4594
vn 0.4769 0.8177 -0.3225
vn 0.7047 0.5528 0.4447
vn 0.4100 0.5500 0.7276
vn -0.4078 0.5426 0.7343
vn -0.6735 0.5763 0.4629
vn -0.6942 0.5671 -0.4433
vn -0.3714 0.4759 -0.7973
vn 0.1599 0.6019 -0.7824
vn 0.7052 0.6743 -0.2191
vn 0.7116 0.6139 0.3416
vn 0.3107 0.6100 0.7289
vn -0.3452 0.5923 0.7280
vn -0.8582 0.4277 0.2837
vn -0.8573 0.4305 -0.2823
vn -0.3266 0.6289 -0.7055
vn 0.1796 0.5468 -0.8178
vn 0.8308 0.4992 -0.2462
s 0
f 3//1 2//1 1//1
f 4//1 3//1 1//1
f 5//1 4//1 1//1
f 6//1 5//1 1//1
f 7//1 6//1 1//1
f 8//1 7//1 1//1
f 9//1 8//1 1//1
f 2//1 9//1 1//1
f 3//2 11//2 10//2 2//2
f 4//3 12//3 11//3 3//3
f 5//4 13//4 12//4 4//4
f 6//5 14//5 13//5 5//5
f 7//6 15//6 14//6 6//6
f 8//7 16//7 15//7 7//7
f 9//8 17//8 16//8 8//8
f 2//9 10//9 17//9 9//9
f 11//10 19//10 18//10 10//10
f 12//11 20//11 19//11 11//11
f 13//12 21//12 20//12 12//12
f 14//13 22//13 21//13 13//13
f 15//14 23//14 22//14 14//14
f 16//15 24//15 23//15 15//15
f 17//16 25//16 24//16 16//16
f 10//17 18//17 25//17 17//17
f 19//18 27//18 26//18 18//18
f 20//19 28//19 27//19 19//19
f 21//20 29//20 28//20 20//20
f 22//21 30//21 29//21 21//21
f 23//22 31//22 30//22 22//22
f 24//23 32//23 31//23 23//23
f 25//24 33//24 32//24 24//24
f 18//25 26//25 33//25 25//25
