# Blender 4.4.1
# www.blender.org
o Hill_200
v 0.046871 0.000000 -0.541699
v 0.046871 9.279514 -0.541699
v 0.046871 9.279514 -0.541699
v 0.046871 9.279514 -0.541699
v 0.046871 9.279514 -0.541699
v 0.046871 9.279514 -0.541699
v 0.046871 9.279514 -0.541699
v 0.046871 9.279514 -0.541699
v 0.046871 9.279514 -0.541699
v 1.979511 7.202321 -0.541699
v 1.432555 7.752198 0.843984
v 0.046871 7.213223 1.558523
v -1.390141 7.467968 0.895314
v -2.094895 7.678986 -0.541699
v -1.441467 7.677506 -2.030038
v 0.046871 7.194490 -2.675575
v 1.467501 7.285218 -1.962328
v 3.726819 4.595940 -0.541699
v 2.747531 4.699885 2.158961
v 0.046871 4.617290 3.025139
v -2.981235 4.743451 2.486407
v -3.736073 4.702381 -0.541699
v -2.783303 4.570105 -3.371874
v 0.046871 4.744753 -4.155004
v 3.013977 4.464684 -3.508805
v 5.677188 -0.444581 -0.541699
v 3.658914 0.532013 3.070344
v 0.046871 0.672330 5.766855
v -4.971293 -0.835070 4.476466
v -5.677188 0.077250 -0.541699
v -4.304351 0.780404 -4.892921
v 0.046871 0.329679 -5.766855
v 4.556066 -0.297912 -5.050893
vn -0.0000 1.0000 -0.0000
vn 0.7320 0.6811 0.0187
vn 0.0841 0.7103 0.6988
vn -0.1936 0.6994 0.6881
vn -0.5536 0.7408 0.3803
vn -0.5788 0.7746 -0.2549
vn -0.0708 0.7135 -0.6971
vn 0.2919 0.6841 -0.6684
vn 0.7144 0.6647 -0.2187
vn 0.8324 0.5040 0.2303
vn 0.2539 0.4743 0.8430
vn -0.1780 0.5298 0.8292
vn -0.7990 0.5315 0.2814
vn -0.8209 0.4731 -0.3200
vn -0.2432 0.4851 -0.8399
vn 0.2706 0.5378 -0.7984
vn 0.8016 0.5520 -0.2298
vn 0.8785 0.3091 0.3643
vn 0.4515 0.4080 0.7935
vn -0.2717 0.4732 0.8380
vn -0.8992 0.3864 0.2051
vn -0.8781 0.4068 -0.2520
vn -0.1939 0.3811 -0.9040
vn 0.2088 0.3490 -0.9135
vn 0.9070 0.3580 -0.2218
s 0
f 3//1 2//1 1//1
f 4//1 3//1 1//1
f 5//1 4//1 1//1
f 6//1 5//1 1//1
f 7//1 6//1 1//1
f 8//1 7//1 1//1
f 9//1 8//1 1//1
f 2//1 9//1 1//1
f 3//2 11//2 10//2 2//2
f 4//3 12//3 11//3 3//3
f 5//4 13//4 12//4 4//4
f 6//5 14//5 13//5 5//5
f 7//6 15//6 14//6 6//6
f 8//7 16//7 15//7 7//7
f 9//8 17//8 16//8 8//8
f 2//9 10//9 17//9 9//9
f 11//10 19//10 18//10 10//10
f 12//11 20//11 19//11 11//11
f 13//12 21//12 20//12 12//12
f 14//13 22//13 21//13 13//13
f 15//14 23//14 22//14 14//14
f 16//15 24//15 23//15 15//15
f 17//16 25//16 24//16 16//16
f 10//17 18//17 25//17 17//17
f 19//18 27//18 26//18 18//18
f 20//19 28//19 27//19 19//19
f 21//20 29//20 28//20 20//20
f 22//21 30//21 29//21 21//21
f 23//22 31//22 30//22 22//22
f 24//23 32//23 31//23 23//23
f 25//24 33//24 32//24 24//24
f 18//25 26//25 33//25 25//25
