# Blender 4.4.1
# www.blender.org
o Hill_081
v 0.980514 0.000000 0.711379
v 0.980514 5.139853 0.711379
v 0.980514 5.139853 0.711379
v 0.980514 5.139853 0.711379
v 0.980514 5.139853 0.711379
v 0.980514 5.139853 0.711379
v 0.980514 5.139853 0.711379
v 0.980514 5.139853 0.711379
v 0.980514 5.139853 0.711379
v 3.831398 4.098890 0.711379
v 3.050939 4.113210 2.781803
v 0.980514 4.204115 3.394915
v -0.994705 4.225801 2.686598
v -1.808089 4.224422 0.711379
v -1.111530 4.074735 -1.380666
v 0.980514 4.083160 -2.238066
v 2.967034 4.293288 -1.275141
v 6.900424 2.257451 0.711379
v 4.980193 2.451017 4.711058
v 0.980514 2.634983 6.526277
v -3.345486 2.359502 5.037379
v -4.155605 2.221509 0.711379
v -3.538709 2.237969 -3.807844
v 0.980514 2.276126 -5.166494
v 4.521497 2.583323 -2.829603
v 8.364043 -0.414745 0.711379
v 6.073401 0.446380 5.804265
v 0.980514 0.267179 9.179719
v -6.228403 0.317186 7.920296
v -8.364043 -0.270750 0.711379
v -6.031251 -0.335121 -6.300386
v 0.980514 0.262969 -9.179719
v 6.832263 -0.447815 -5.140369
vn -0.0000 1.0000 -0.0000
vn 0.3404 0.9323 0.1219
vn 0.1376 0.9353 0.3261
vn -0.1071 0.9388 0.3274
vn -0.3094 0.9425 0.1267
vn -0.3074 0.9364 -0.1693
vn -0.1406 0.9321 -0.3339
vn 0.0638 0.9395 -0.3366
vn 0.3424 0.9378 -0.0572
vn 0.5101 0.8369 0.1983
vn 0.2239 0.8579 0.4625
vn -0.1951 0.8666 0.4594
vn -0.5891 0.7968 0.1342
vn -0.5798 0.8041 -0.1314
vn -0.1733 0.8490 -0.4991
vn 0.2490 0.8020 -0.5429
vn 0.5392 0.8072 -0.2404
vn 0.8011 0.5109 0.3118
vn 0.3747 0.6555 0.6557
vn -0.1509 0.8100 0.5667
vn -0.5145 0.8540 0.0776
vn -0.5611 0.8146 -0.1469
vn -0.2299 0.8347 -0.5003
vn 0.3689 0.7877 -0.4935
vn 0.7402 0.6070 -0.2893
s 0
f 3//1 2//1 1//1
f 4//1 3//1 1//1
f 5//1 4//1 1//1
f 6//1 5//1 1//1
f 7//1 6//1 1//1
f 8//1 7//1 1//1
f 9//1 8//1 1//1
f 2//1 9//1 1//1
f 3//2 11//2 10//2 2//2
f 4//3 12//3 11//3 3//3
f 5//4 13//4 12//4 4//4
f 6//5 14//5 13//5 5//5
f 7//6 15//6 14//6 6//6
f 8//7 16//7 15//7 7//7
f 9//8 17//8 16//8 8//8
f 2//9 10//9 17//9 9//9
f 11//10 19//10 18//10 10//10
f 12//11 20//11 19//11 11//11
f 13//12 21//12 20//12 12//12
f 14//13 22//13 21//13 13//13
f 15//14 23//14 22//14 14//14
f 16//15 24//15 23//15 15//15
f 17//16 25//16 24//16 16//16
f 10//17 18//17 25//17 17//17
f 19//18 27//18 26//18 18//18
f 20//19 28//19 27//19 19//19
f 21//20 29//20 28//20 20//20
f 22//21 30//21 29//21 21//21
f 23//22 31//22 30//22 22//22
f 24//23 32//23 31//23 23//23
f 25//24 33//24 32//24 24//24
f 18//25 26//25 33//25 25//25
