# Blender 4.4.1
# www.blender.org
o Hill_178
v -0.269845 0.000000 -1.445509
v -0.269845 5.077848 -1.445509
v -0.269845 5.077848 -1.445509
v -0.269845 5.077848 -1.445509
v -0.269845 5.077848 -1.445509
v -0.269845 5.077848 -1.445509
v -0.269845 5.077848 -1.445509
v -0.269845 5.077848 -1.445509
v -0.269845 5.077848 -1.445509
v 2.841097 3.983826 -1.445509
v 2.038889 4.165138 0.863226
v -0.269845 4.267578 1.477658
v -2.411069 4.127283 0.695715
v -3.222788 4.093622 -1.445509
v -2.399283 4.083491 -3.574946
v -0.269845 4.058924 -4.400391
v 1.789976 3.961666 -3.505330
v 6.319089 2.380315 -1.445509
v 4.411249 2.233478 3.235585
v -0.269845 2.156607 4.354744
v -5.134613 2.538354 3.419259
v -6.725968 2.376372 -1.445509
v -4.265975 2.134716 -5.441639
v -0.269845 2.045168 -7.768021
v 4.678326 2.642409 -6.393680
v 9.639382 -0.000031 -1.445509
v 6.031921 0.321846 4.856257
v -0.269845 0.067618 9.522518
v -8.130016 0.017347 6.414663
v -9.639382 -0.457640 -1.445509
v -7.062118 0.430726 -8.237782
v -0.269845 -0.384772 -9.522518
v 7.149840 -0.492650 -8.865193
vn -0.0000 1.0000 -0.0000
vn 0.3315 0.9426 0.0412
vn 0.1131 0.9575 0.2654
vn -0.1587 0.9515 0.2637
vn -0.3145 0.9435 0.1044
vn -0.3137 0.9412 -0.1258
vn -0.1147 0.9391 -0.3238
vn 0.1831 0.9294 -0.3205
vn 0.3265 0.9285 -0.1766
vn 0.4571 0.8725 0.1729
vn 0.1425 0.8143 0.5627
vn -0.0970 0.8515 0.5153
vn -0.4240 0.8976 0.1204
vn -0.4703 0.8347 -0.2864
vn -0.2546 0.8126 -0.5243
vn 0.0787 0.8944 -0.4402
vn 0.3724 0.9213 -0.1115
vn 0.5766 0.7685 0.2773
vn 0.2149 0.8630 0.4573
vn -0.1213 0.8827 0.4540
vn -0.6340 0.7646 0.1162
vn -0.5451 0.8127 -0.2058
vn -0.1414 0.7744 -0.6166
vn 0.1016 0.6299 -0.7700
vn 0.6213 0.7516 -0.2215
s 0
f 3//1 2//1 1//1
f 4//1 3//1 1//1
f 5//1 4//1 1//1
f 6//1 5//1 1//1
f 7//1 6//1 1//1
f 8//1 7//1 1//1
f 9//1 8//1 1//1
f 2//1 9//1 1//1
f 3//2 11//2 10//2 2//2
f 4//3 12//3 11//3 3//3
f 5//4 13//4 12//4 4//4
f 6//5 14//5 13//5 5//5
f 7//6 15//6 14//6 6//6
f 8//7 16//7 15//7 7//7
f 9//8 17//8 16//8 8//8
f 2//9 10//9 17//9 9//9
f 11//10 19//10 18//10 10//10
f 12//11 20//11 19//11 11//11
f 13//12 21//12 20//12 12//12
f 14//13 22//13 21//13 13//13
f 15//14 23//14 22//14 14//14
f 16//15 24//15 23//15 15//15
f 17//16 25//16 24//16 16//16
f 10//17 18//17 25//17 17//17
f 19//18 27//18 26//18 18//18
f 20//19 28//19 27//19 19//19
f 21//20 29//20 28//20 20//20
f 22//21 30//21 29//21 21//21
f 23//22 31//22 30//22 22//22
f 24//23 32//23 31//23 23//23
f 25//24 33//24 32//24 24//24
f 18//25 26//25 33//25 25//25
