# Blender 4.4.1
# www.blender.org
o Hill_223
v 0.542059 0.000000 1.191900
v 0.542059 9.965363 1.191900
v 0.542059 9.965363 1.191900
v 0.542059 9.965363 1.191900
v 0.542059 9.965363 1.191900
v 0.542059 9.965363 1.191900
v 0.542059 9.965363 1.191900
v 0.542059 9.965363 1.191900
v 0.542059 9.965363 1.191900
v 3.575351 7.921934 1.191900
v 2.786180 8.066058 3.436022
v 0.542059 8.343809 4.062387
v -1.630397 7.782103 3.364356
v -2.625874 8.294865 1.191900
v -1.598051 8.371371 -0.948209
v 0.542059 7.756859 -1.759914
v 2.773109 7.785129 -1.039150
v 6.602081 4.976820 1.191900
v 5.031357 5.088893 5.681199
v 0.542059 3.995423 6.600756
v -3.545157 5.123359 5.279116
v -5.129672 5.097616 1.191900
v -3.775622 4.031711 -3.125781
v 0.542059 4.793174 -4.311116
v 5.175836 4.660084 -3.441877
v 9.640036 0.303409 1.191900
v 6.840477 0.559404 7.490318
v 0.542059 0.259779 8.955878
v -5.685975 0.851665 7.419933
v -9.640036 0.876766 1.191900
v -6.457423 0.232869 -5.807582
v 0.542059 -0.895032 -8.955878
v 7.081429 -0.800174 -5.347470
vn -0.0000 1.0000 -0.0000
vn 0.5531 0.8210 0.1418
vn 0.2380 0.8457 0.4777
vn -0.3578 0.8130 0.4593
vn -0.4297 0.8148 0.3892
vn -0.4580 0.8686 -0.1889
vn 0.0027 0.8007 -0.5991
vn 0.1804 0.7876 -0.5892
vn 0.5418 0.8043 -0.2441
vn 0.6877 0.6935 0.2146
vn 0.1182 0.5681 0.8145
vn -0.2068 0.5644 0.7992
vn -0.6957 0.6348 0.3361
vn -0.7422 0.5651 -0.3603
vn -0.2531 0.5778 -0.7759
vn 0.1786 0.6624 -0.7275
vn 0.6654 0.6989 -0.2622
vn 0.8136 0.4900 0.3129
vn 0.1325 0.4690 0.8732
vn -0.1483 0.5140 0.8449
vn -0.6849 0.6291 0.3677
vn -0.6327 0.6870 -0.3574
vn -0.2582 0.6352 -0.7280
vn 0.3193 0.5200 -0.7922
vn 0.8146 0.4631 -0.3494
s 0
f 3//1 2//1 1//1
f 4//1 3//1 1//1
f 5//1 4//1 1//1
f 6//1 5//1 1//1
f 7//1 6//1 1//1
f 8//1 7//1 1//1
f 9//1 8//1 1//1
f 2//1 9//1 1//1
f 3//2 11//2 10//2 2//2
f 4//3 12//3 11//3 3//3
f 5//4 13//4 12//4 4//4
f 6//5 14//5 13//5 5//5
f 7//6 15//6 14//6 6//6
f 8//7 16//7 15//7 7//7
f 9//8 17//8 16//8 8//8
f 2//9 10//9 17//9 9//9
f 11//10 19//10 18//10 10//10
f 12//11 20//11 19//11 11//11
f 13//12 21//12 20//12 12//12
f 14//13 22//13 21//13 13//13
f 15//14 23//14 22//14 14//14
f 16//15 24//15 23//15 15//15
f 17//16 25//16 24//16 16//16
f 10//17 18//17 25//17 17//17
f 19//18 27//18 26//18 18//18
f 20//19 28//19 27//19 19//19
f 21//20 29//20 28//20 20//20
f 22//21 30//21 29//21 21//21
f 23//22 31//22 30//22 22//22
f 24//23 32//23 31//23 23//23
f 25//24 33//24 32//24 24//24
f 18//25 26//25 33//25 25//25
