# Blender 4.4.1
# www.blender.org
o Hill_196
v -0.821645 0.000000 0.298467
v -0.821645 8.491418 0.298467
v -0.821645 8.491418 0.298467
v -0.821645 8.491418 0.298467
v -0.821645 8.491418 0.298467
v -0.821645 8.491418 0.298467
v -0.821645 8.491418 0.298467
v -0.821645 8.491418 0.298467
v -0.821645 8.491418 0.298467
v 3.117710 6.849483 0.298467
v 1.821853 7.136435 2.941965
v -0.821645 6.832389 4.130628
v -3.659881 6.845887 3.136703
v -4.728759 6.574871 0.298467
v -3.480452 6.891924 -2.360340
v -0.821645 6.749226 -3.448874
v 1.924770 6.820594 -2.447947
v 6.577966 3.951241 0.298467
v 4.686082 4.348596 5.806194
v -0.821645 3.403976 8.678838
v -6.649150 3.739817 6.125973
v -8.113116 4.085100 0.298467
v -5.527793 4.274487 -4.407681
v -0.821645 3.763649 -6.355515
v 4.342007 4.094617 -4.865185
v 10.443387 -0.785227 0.298467
v 8.010883 0.806772 9.130996
v -0.821645 0.197780 11.995750
v -10.375744 -0.099554 9.852567
v -10.443387 0.229251 0.298467
v -9.367052 -0.615877 -8.246941
v -0.821645 -0.470866 -11.995750
v 6.291447 0.330692 -6.814624
vn -0.0000 1.0000 -0.0000
vn 0.3832 0.9194 0.0881
vn 0.0729 0.9153 0.3962
vn -0.1336 0.9095 0.3937
vn -0.4390 0.8949 0.0799
vn -0.4382 0.8934 -0.0992
vn -0.1230 0.8999 -0.4184
vn 0.1290 0.8992 -0.4181
vn 0.3788 0.9089 -0.1741
vn 0.6132 0.7703 0.1751
vn 0.1746 0.7866 0.5922
vn -0.2106 0.7784 0.5913
vn -0.5992 0.7797 0.1818
vn -0.6061 0.7504 -0.2639
vn -0.2226 0.6902 -0.6886
vn 0.1783 0.7102 -0.6810
vn 0.6119 0.7489 -0.2544
vn 0.7239 0.6786 0.1242
vn 0.1823 0.7339 0.6544
vn -0.1937 0.7430 0.6407
vn -0.7566 0.6457 0.1036
vn -0.7422 0.6272 -0.2361
vn -0.2454 0.7462 -0.6189
vn 0.2929 0.6947 -0.6569
vn 0.7434 0.5835 -0.3269
s 0
f 3//1 2//1 1//1
f 4//1 3//1 1//1
f 5//1 4//1 1//1
f 6//1 5//1 1//1
f 7//1 6//1 1//1
f 8//1 7//1 1//1
f 9//1 8//1 1//1
f 2//1 9//1 1//1
f 3//2 11//2 10//2 2//2
f 4//3 12//3 11//3 3//3
f 5//4 13//4 12//4 4//4
f 6//5 14//5 13//5 5//5
f 7//6 15//6 14//6 6//6
f 8//7 16//7 15//7 7//7
f 9//8 17//8 16//8 8//8
f 2//9 10//9 17//9 9//9
f 11//10 19//10 18//10 10//10
f 12//11 20//11 19//11 11//11
f 13//12 21//12 20//12 12//12
f 14//13 22//13 21//13 13//13
f 15//14 23//14 22//14 14//14
f 16//15 24//15 23//15 15//15
f 17//16 25//16 24//16 16//16
f 10//17 18//17 25//17 17//17
f 19//18 27//18 26//18 18//18
f 20//19 28//19 27//19 19//19
f 21//20 29//20 28//20 20//20
f 22//21 30//21 29//21 21//21
f 23//22 31//22 30//22 22//22
f 24//23 32//23 31//23 23//23
f 25//24 33//24 32//24 24//24
f 18//25 26//25 33//25 25//25
