# Blender 4.4.1
# www.blender.org
o Hill_164
v -0.784008 0.000000 -0.287785
v -0.784008 6.000906 -0.287785
v -0.784008 6.000906 -0.287785
v -0.784008 6.000906 -0.287785
v -0.784008 6.000906 -0.287785
v -0.784008 6.000906 -0.287785
v -0.784008 6.000906 -0.287785
v -0.784008 6.000906 -0.287785
v -0.784008 6.000906 -0.287785
v 1.347118 4.680842 -0.287785
v 0.710368 4.960817 1.206591
v -0.784008 4.838061 1.951382
v -2.251291 4.944776 1.179498
v -2.871060 4.897132 -0.287785
v -2.283957 4.797587 -1.787735
v -0.784008 5.022913 -2.516432
v 0.684194 4.893482 -1.755988
v 3.480044 2.954874 -0.287785
v 2.358488 2.697279 2.854710
v -0.784008 2.777472 4.416993
v -3.974423 2.648410 2.902630
v -5.091650 2.479710 -0.287785
v -3.741914 2.431124 -3.245691
v -0.784008 2.385031 -4.504043
v 2.372677 2.493047 -3.444470
v 6.326162 0.274006 -0.287785
v 4.493622 0.186503 4.989844
v -0.784008 0.548112 7.280055
v -6.062165 -0.209044 4.990371
v -6.326162 0.091992 -0.287785
v -5.414207 0.137792 -4.917984
v -0.784008 0.457940 -7.280055
v 4.546919 0.279408 -5.618712
vn -0.0000 1.0000 -0.0000
vn 0.5255 0.8483 0.0650
vn 0.1549 0.8768 0.4553
vn -0.1752 0.8737 0.4538
vn -0.4610 0.8717 0.1664
vn -0.4544 0.8593 -0.2349
vn -0.3158 0.8689 -0.3813
vn 0.2775 0.8797 -0.3861
vn 0.5232 0.8446 -0.1139
vn 0.6517 0.7183 0.2437
vn 0.3062 0.7148 0.6287
vn -0.3086 0.7198 0.6218
vn -0.7030 0.6726 0.2309
vn -0.6993 0.6367 -0.3250
vn -0.3461 0.5984 -0.7226
vn 0.2882 0.6256 -0.7250
vn 0.6426 0.7115 -0.2843
vn 0.6431 0.7220 0.2552
vn 0.3062 0.7526 0.5829
vn -0.3444 0.7236 0.5982
vn -0.8100 0.5692 0.1410
vn -0.7861 0.5719 -0.2345
vn -0.3089 0.7452 -0.5909
vn 0.1921 0.7926 -0.5786
vn 0.6181 0.7452 -0.2503
s 0
f 3//1 2//1 1//1
f 4//1 3//1 1//1
f 5//1 4//1 1//1
f 6//1 5//1 1//1
f 7//1 6//1 1//1
f 8//1 7//1 1//1
f 9//1 8//1 1//1
f 2//1 9//1 1//1
f 3//2 11//2 10//2 2//2
f 4//3 12//3 11//3 3//3
f 5//4 13//4 12//4 4//4
f 6//5 14//5 13//5 5//5
f 7//6 15//6 14//6 6//6
f 8//7 16//7 15//7 7//7
f 9//8 17//8 16//8 8//8
f 2//9 10//9 17//9 9//9
f 11//10 19//10 18//10 10//10
f 12//11 20//11 19//11 11//11
f 13//12 21//12 20//12 12//12
f 14//13 22//13 21//13 13//13
f 15//14 23//14 22//14 14//14
f 16//15 24//15 23//15 15//15
f 17//16 25//16 24//16 16//16
f 10//17 18//17 25//17 17//17
f 19//18 27//18 26//18 18//18
f 20//19 28//19 27//19 19//19
f 21//20 29//20 28//20 20//20
f 22//21 30//21 29//21 21//21
f 23//22 31//22 30//22 22//22
f 24//23 32//23 31//23 23//23
f 25//24 33//24 32//24 24//24
f 18//25 26//25 33//25 25//25
