# Blender 4.4.1
# www.blender.org
o Hill_132
v -0.679377 0.000000 -0.909368
v -0.679377 5.943335 -0.909368
v -0.679377 5.943335 -0.909368
v -0.679377 5.943335 -0.909368
v -0.679377 5.943335 -0.909368
v -0.679377 5.943335 -0.909368
v -0.679377 5.943335 -0.909368
v -0.679377 5.943335 -0.909368
v -0.679377 5.943335 -0.909368
v 3.044795 4.934165 -0.909368
v 1.820976 4.690714 1.590984
v -0.679377 4.625072 2.578989
v -3.203555 4.946407 1.614809
v -4.416623 4.612390 -0.909368
v -3.284996 4.970224 -3.514987
v -0.679377 4.841712 -4.459356
v 1.992567 4.898044 -3.581312
v 5.809504 2.799242 -0.909368
v 4.809878 3.016252 4.579886
v -0.679377 2.910608 6.576122
v -5.308409 2.786628 3.719664
v -7.476245 2.924609 -0.909368
v -5.682636 2.336468 -5.912628
v -0.679377 2.379204 -7.281064
v 4.947342 2.427322 -6.536087
v 10.739240 -0.155096 -0.909368
v 6.636317 -0.042189 6.406325
v -0.679377 0.495806 11.224311
v -7.720662 0.041949 6.131917
v -10.739240 -0.228055 -0.909368
v -9.692283 0.013598 -9.922274
v -0.679377 0.441185 -11.224311
v 7.538630 0.232087 -9.127376
vn -0.0000 1.0000 -0.0000
vn 0.2553 0.9423 0.2167
vn 0.1144 0.9293 0.3512
vn -0.0159 0.9353 0.3535
vn -0.3353 0.9414 0.0365
vn -0.3354 0.9419 -0.0163
vn -0.0602 0.9533 -0.2958
vn 0.0770 0.9522 -0.2955
vn 0.2598 0.9588 -0.1153
vn 0.4948 0.8576 0.1405
vn 0.1257 0.9126 0.3889
vn -0.2251 0.8558 0.4657
vn -0.5219 0.8231 0.2241
vn -0.5393 0.8096 -0.2318
vn -0.1865 0.7444 -0.6412
vn 0.1099 0.7829 -0.6124
vn 0.5634 0.8086 -0.1697
vn 0.6132 0.7573 0.2248
vn 0.3220 0.7659 0.5566
vn -0.3586 0.8078 0.4678
vn -0.6346 0.7227 0.2738
vn -0.5489 0.8255 -0.1316
vn -0.1112 0.8982 -0.4252
vn 0.1124 0.8593 -0.4990
vn 0.5221 0.8392 -0.1523
s 0
f 3//1 2//1 1//1
f 4//1 3//1 1//1
f 5//1 4//1 1//1
f 6//1 5//1 1//1
f 7//1 6//1 1//1
f 8//1 7//1 1//1
f 9//1 8//1 1//1
f 2//1 9//1 1//1
f 3//2 11//2 10//2 2//2
f 4//3 12//3 11//3 3//3
f 5//4 13//4 12//4 4//4
f 6//5 14//5 13//5 5//5
f 7//6 15//6 14//6 6//6
f 8//7 16//7 15//7 7//7
f 9//8 17//8 16//8 8//8
f 2//9 10//9 17//9 9//9
f 11//10 19//10 18//10 10//10
f 12//11 20//11 19//11 11//11
f 13//12 21//12 20//12 12//12
f 14//13 22//13 21//13 13//13
f 15//14 23//14 22//14 14//14
f 16//15 24//15 23//15 15//15
f 17//16 25//16 24//16 16//16
f 10//17 18//17 25//17 17//17
f 19//18 27//18 26//18 18//18
f 20//19 28//19 27//19 19//19
f 21//20 29//20 28//20 20//20
f 22//21 30//21 29//21 21//21
f 23//22 31//22 30//22 22//22
f 24//23 32//23 31//23 23//23
f 25//24 33//24 32//24 24//24
f 18//25 26//25 33//25 25//25
