# Blender 4.4.1
# www.blender.org
o Hill_210
v -0.054557 0.000000 -0.458804
v -0.054557 7.372171 -0.458804
v -0.054557 7.372171 -0.458804
v -0.054557 7.372171 -0.458804
v -0.054557 7.372171 -0.458804
v -0.054557 7.372171 -0.458804
v -0.054557 7.372171 -0.458804
v -0.054557 7.372171 -0.458804
v -0.054557 7.372171 -0.458804
v 2.064823 6.163052 -0.458804
v 1.457382 5.944860 1.053136
v -0.054557 5.959224 1.700659
v -1.443762 5.985109 0.930401
v -2.020808 5.916464 -0.458804
v -1.517479 5.851433 -1.921726
v -0.054557 5.951707 -2.635855
v 1.458611 5.925231 -1.971972
v 3.961172 3.027606 -0.458804
v 3.121594 3.446605 2.717348
v -0.054557 3.172893 3.209902
v -2.761867 3.257095 2.248507
v -4.301301 3.433573 -0.458804
v -3.292984 3.486174 -3.697230
v -0.054557 3.822899 -4.531093
v 2.755692 3.466993 -3.269053
v 6.357076 0.428023 -0.458804
v 4.680525 -0.571836 4.276278
v -0.054557 0.079772 5.846141
v -4.420263 0.114179 3.906902
v -6.357076 -0.392269 -0.458804
v -5.215049 0.307965 -5.619296
v -0.054557 0.301185 -5.846141
v 4.417861 -0.133291 -4.931222
vn -0.0000 1.0000 -0.0000
vn 0.4713 0.8262 0.3086
vn 0.2356 0.8132 0.5321
vn -0.2767 0.8041 0.5261
vn -0.5826 0.7870 0.2031
vn -0.5785 0.7814 -0.2338
vn -0.3084 0.7967 -0.5198
vn 0.2465 0.8116 -0.5296
vn 0.4699 0.8236 -0.3177
vn 0.7937 0.5668 0.2207
vn 0.1693 0.5460 0.8205
vn -0.3277 0.4919 0.8066
vn -0.7118 0.5885 0.3833
vn -0.7040 0.6725 -0.2281
vn -0.2873 0.6715 -0.6831
vn 0.3695 0.5989 -0.7105
vn 0.7937 0.5246 -0.3081
vn 0.7896 0.5403 0.2908
vn 0.2373 0.5316 0.8130
vn -0.2967 0.5939 0.7478
vn -0.7842 0.5041 0.3619
vn -0.8368 0.5212 -0.1675
vn -0.1290 0.4612 -0.8779
vn 0.3012 0.4268 -0.8527
vn 0.7461 0.5773 -0.3318
s 0
f 3//1 2//1 1//1
f 4//1 3//1 1//1
f 5//1 4//1 1//1
f 6//1 5//1 1//1
f 7//1 6//1 1//1
f 8//1 7//1 1//1
f 9//1 8//1 1//1
f 2//1 9//1 1//1
f 3//2 11//2 10//2 2//2
f 4//3 12//3 11//3 3//3
f 5//4 13//4 12//4 4//4
f 6//5 14//5 13//5 5//5
f 7//6 15//6 14//6 6//6
f 8//7 16//7 15//7 7//7
f 9//8 17//8 16//8 8//8
f 2//9 10//9 17//9 9//9
f 11//10 19//10 18//10 10//10
f 12//11 20//11 19//11 11//11
f 13//12 21//12 20//12 12//12
f 14//13 22//13 21//13 13//13
f 15//14 23//14 22//14 14//14
f 16//15 24//15 23//15 15//15
f 17//16 25//16 24//16 16//16
f 10//17 18//17 25//17 17//17
f 19//18 27//18 26//18 18//18
f 20//19 28//19 27//19 19//19
f 21//20 29//20 28//20 20//20
f 22//21 30//21 29//21 21//21
f 23//22 31//22 30//22 22//22
f 24//23 32//23 31//23 23//23
f 25//24 33//24 32//24 24//24
f 18//25 26//25 33//25 25//25
