# Blender 4.4.1
# www.blender.org
o Hill_100
v 0.088421 0.000000 -0.162943
v 0.088421 6.702980 -0.162943
v 0.088421 6.702980 -0.162943
v 0.088421 6.702980 -0.162943
v 0.088421 6.702980 -0.162943
v 0.088421 6.702980 -0.162943
v 0.088421 6.702980 -0.162943
v 0.088421 6.702980 -0.162943
v 0.088421 6.702980 -0.162943
v 2.078235 5.319964 -0.162943
v 1.485150 5.490970 1.233785
v 0.088421 5.468788 1.735165
v -1.279934 5.346688 1.205412
v -1.918225 5.634558 -0.162943
v -1.252569 5.624517 -1.503933
v 0.088421 5.408860 -2.203318
v 1.469757 5.601200 -1.544279
v 3.740897 3.150078 -0.162943
v 3.219445 2.694148 2.968080
v 0.088421 3.494172 3.583075
v -2.829581 2.767115 2.755059
v -3.593670 3.302372 -0.162943
v -2.954615 2.965965 -3.205980
v 0.088421 3.278917 -4.114403
v 2.889906 3.143041 -2.964428
v 5.724946 -0.183427 -0.162943
v 3.706716 0.515805 3.455352
v 0.088421 0.350905 7.030916
v -3.894405 0.047761 3.819883
v -5.724946 0.481350 -0.162943
v -4.198659 -0.048377 -4.450024
v 0.088421 -0.067759 -7.030916
v 5.112821 -0.432172 -5.187343
vn -0.0000 1.0000 -0.0000
vn 0.5651 0.8130 0.1404
vn 0.1794 0.8248 0.5363
vn -0.2748 0.8061 0.5241
vn -0.4356 0.8182 0.3753
vn -0.4570 0.8583 -0.2333
vn -0.1421 0.8359 -0.5302
vn 0.1367 0.8365 -0.5306
vn 0.5687 0.8182 -0.0839
vn 0.7654 0.6025 0.2263
vn 0.2858 0.6396 0.7136
vn -0.3449 0.6338 0.6923
vn -0.7280 0.5888 0.3512
vn -0.7517 0.6012 -0.2712
vn -0.2772 0.6396 -0.7170
vn 0.3045 0.6195 -0.7235
vn 0.7752 0.5876 -0.2320
vn 0.8577 0.4118 0.3079
vn 0.4772 0.5503 0.6851
vn -0.4716 0.5901 0.6553
vn -0.7748 0.5169 0.3639
vn -0.7975 0.5248 -0.2976
vn -0.3749 0.5577 -0.7406
vn 0.3125 0.6289 -0.7119
vn 0.8162 0.5519 -0.1706
s 0
f 3//1 2//1 1//1
f 4//1 3//1 1//1
f 5//1 4//1 1//1
f 6//1 5//1 1//1
f 7//1 6//1 1//1
f 8//1 7//1 1//1
f 9//1 8//1 1//1
f 2//1 9//1 1//1
f 3//2 11//2 10//2 2//2
f 4//3 12//3 11//3 3//3
f 5//4 13//4 12//4 4//4
f 6//5 14//5 13//5 5//5
f 7//6 15//6 14//6 6//6
f 8//7 16//7 15//7 7//7
f 9//8 17//8 16//8 8//8
f 2//9 10//9 17//9 9//9
f 11//10 19//10 18//10 10//10
f 12//11 20//11 19//11 11//11
f 13//12 21//12 20//12 12//12
f 14//13 22//13 21//13 13//13
f 15//14 23//14 22//14 14//14
f 16//15 24//15 23//15 15//15
f 17//16 25//16 24//16 16//16
f 10//17 18//17 25//17 17//17
f 19//18 27//18 26//18 18//18
f 20//19 28//19 27//19 19//19
f 21//20 29//20 28//20 20//20
f 22//21 30//21 29//21 21//21
f 23//22 31//22 30//22 22//22
f 24//23 32//23 31//23 23//23
f 25//24 33//24 32//24 24//24
f 18//25 26//25 33//25 25//25
