# Blender 4.4.1
# www.blender.org
o Hill_152
v -0.368359 0.000000 -0.780201
v -0.368359 5.892273 -0.780201
v -0.368359 5.892273 -0.780201
v -0.368359 5.892273 -0.780201
v -0.368359 5.892273 -0.780201
v -0.368359 5.892273 -0.780201
v -0.368359 5.892273 -0.780201
v -0.368359 5.892273 -0.780201
v -0.368359 5.892273 -0.780201
v 2.765075 4.663132 -0.780201
v 1.701994 4.840356 1.290152
v -0.368359 4.649054 2.179600
v -2.389563 4.602032 1.241003
v -3.208024 4.797530 -0.780201
v -2.498470 4.845216 -2.910311
v -0.368359 4.775737 -3.897164
v 1.784462 4.639916 -2.933022
v 5.784925 2.787745 -0.780201
v 3.535118 2.462420 3.123277
v -0.368359 2.545884 5.071571
v -4.303227 2.985340 3.154667
v -6.940307 2.860406 -0.780201
v -5.130220 3.013424 -5.542061
v -0.368359 2.688765 -6.963196
v 4.169558 2.549357 -5.318118
v 8.238829 -0.045119 -0.780201
v 6.001457 -0.109364 5.589616
v -0.368359 0.428976 8.414920
v -7.734501 -0.576651 6.585941
v -8.238829 0.377517 -0.780201
v -8.003078 -0.554583 -8.414920
v -0.368359 0.328356 -8.369390
v 5.011428 -0.438495 -6.159988
vn -0.0000 1.0000 -0.0000
vn 0.3631 0.9256 0.1072
vn 0.0809 0.9189 0.3860
vn -0.1973 0.9038 0.3796
vn -0.3501 0.9081 0.2296
vn -0.3580 0.9285 -0.0985
vn -0.1245 0.9341 -0.3346
vn 0.2059 0.9212 -0.3300
vn 0.3596 0.9168 -0.1737
vn 0.5511 0.7687 0.3247
vn 0.2734 0.7487 0.6040
vn -0.2081 0.8118 0.5456
vn -0.4461 0.8536 0.2689
vn -0.4600 0.8764 -0.1427
vn -0.1331 0.8442 -0.5192
vn 0.2377 0.8184 -0.5232
vn 0.5079 0.8303 -0.2295
vn 0.6318 0.7134 0.3030
vn 0.2914 0.8011 0.5228
vn -0.2246 0.7998 0.5567
vn -0.6925 0.6794 0.2424
vn -0.7733 0.6119 -0.1661
vn -0.1142 0.6172 -0.7785
vn 0.3628 0.4091 -0.8373
vn 0.7685 0.4940 -0.4067
s 0
f 3//1 2//1 1//1
f 4//1 3//1 1//1
f 5//1 4//1 1//1
f 6//1 5//1 1//1
f 7//1 6//1 1//1
f 8//1 7//1 1//1
f 9//1 8//1 1//1
f 2//1 9//1 1//1
f 3//2 11//2 10//2 2//2
f 4//3 12//3 11//3 3//3
f 5//4 13//4 12//4 4//4
f 6//5 14//5 13//5 5//5
f 7//6 15//6 14//6 6//6
f 8//7 16//7 15//7 7//7
f 9//8 17//8 16//8 8//8
f 2//9 10//9 17//9 9//9
f 11//10 19//10 18//10 10//10
f 12//11 20//11 19//11 11//11
f 13//12 21//12 20//12 12//12
f 14//13 22//13 21//13 13//13
f 15//14 23//14 22//14 14//14
f 16//15 24//15 23//15 15//15
f 17//16 25//16 24//16 16//16
f 10//17 18//17 25//17 17//17
f 19//18 27//18 26//18 18//18
f 20//19 28//19 27//19 19//19
f 21//20 29//20 28//20 20//20
f 22//21 30//21 29//21 21//21
f 23//22 31//22 30//22 22//22
f 24//23 32//23 31//23 23//23
f 25//24 33//24 32//24 24//24
f 18//25 26//25 33//25 25//25
