# Blender 4.4.1
# www.blender.org
o Hill_173
v 0.843054 0.000000 0.873752
v 0.843054 7.509044 0.873752
v 0.843054 7.509044 0.873752
v 0.843054 7.509044 0.873752
v 0.843054 7.509044 0.873752
v 0.843054 7.509044 0.873752
v 0.843054 7.509044 0.873752
v 0.843054 7.509044 0.873752
v 0.843054 7.509044 0.873752
v 4.013374 6.176449 0.873752
v 2.969511 6.191827 3.000210
v 0.843054 6.221550 3.979905
v -1.468610 6.250719 3.185416
v -2.310120 5.867671 0.873752
v -1.241670 6.173917 -1.210971
v 0.843054 5.984697 -2.352871
v 3.149641 5.835548 -1.432835
v 6.572524 3.478000 0.873752
v 4.709300 3.253887 4.739998
v 0.843054 2.942992 7.544174
v -3.105477 3.828557 4.822283
v -4.925497 3.223488 0.873752
v -3.081282 3.045755 -3.050584
v 0.843054 3.239302 -4.598794
v 4.636666 3.114517 -2.919860
v 9.263673 -0.708471 0.873752
v 7.520607 -0.147080 7.551305
v 0.843054 0.383871 8.463134
v -5.618662 0.618075 7.335468
v -9.263673 0.409093 0.873752
v -4.688873 -0.362399 -4.658174
v 0.843054 0.379970 -8.463134
v 7.685171 0.070141 -5.968365
vn -0.0000 1.0000 -0.0000
vn 0.3811 0.9067 0.1805
vn 0.1860 0.9077 0.3762
vn -0.1191 0.9172 0.3802
vn -0.4616 0.8868 0.0211
vn -0.4591 0.8820 -0.1057
vn -0.1502 0.8939 -0.4223
vn 0.2231 0.8814 -0.4164
vn 0.3730 0.8874 -0.2708
vn 0.6871 0.6337 0.3554
vn 0.3788 0.6598 0.6490
vn -0.2753 0.6899 0.6695
vn -0.7178 0.6670 0.1999
vn -0.6963 0.6406 -0.3238
vn -0.3252 0.6065 -0.7255
vn 0.3383 0.5917 -0.7317
vn 0.6854 0.6176 -0.3858
vn 0.7437 0.6261 0.2343
vn 0.2770 0.6003 0.7503
vn -0.2304 0.5697 0.7889
vn -0.5869 0.7708 0.2478
vn -0.5792 0.6725 -0.4607
vn -0.4201 0.6556 -0.6275
vn 0.2526 0.7880 -0.5616
vn 0.7199 0.6609 -0.2121
s 0
f 3//1 2//1 1//1
f 4//1 3//1 1//1
f 5//1 4//1 1//1
f 6//1 5//1 1//1
f 7//1 6//1 1//1
f 8//1 7//1 1//1
f 9//1 8//1 1//1
f 2//1 9//1 1//1
f 3//2 11//2 10//2 2//2
f 4//3 12//3 11//3 3//3
f 5//4 13//4 12//4 4//4
f 6//5 14//5 13//5 5//5
f 7//6 15//6 14//6 6//6
f 8//7 16//7 15//7 7//7
f 9//8 17//8 16//8 8//8
f 2//9 10//9 17//9 9//9
f 11//10 19//10 18//10 10//10
f 12//11 20//11 19//11 11//11
f 13//12 21//12 20//12 12//12
f 14//13 22//13 21//13 13//13
f 15//14 23//14 22//14 14//14
f 16//15 24//15 23//15 15//15
f 17//16 25//16 24//16 16//16
f 10//17 18//17 25//17 17//17
f 19//18 27//18 26//18 18//18
f 20//19 28//19 27//19 19//19
f 21//20 29//20 28//20 20//20
f 22//21 30//21 29//21 21//21
f 23//22 31//22 30//22 22//22
f 24//23 32//23 31//23 23//23
f 25//24 33//24 32//24 24//24
f 18//25 26//25 33//25 25//25
