# Blender 4.4.1
# www.blender.org
o Hill_077
v 0.276421 0.000000 -0.114526
v 0.276421 8.660008 -0.114526
v 0.276421 8.660008 -0.114526
v 0.276421 8.660008 -0.114526
v 0.276421 8.660008 -0.114526
v 0.276421 8.660008 -0.114526
v 0.276421 8.660008 -0.114526
v 0.276421 8.660008 -0.114526
v 0.276421 8.660008 -0.114526
v 3.453410 7.062796 -0.114526
v 2.675017 6.930984 2.284070
v 0.276421 7.128441 3.007438
v -2.173064 6.859601 2.334960
v -2.891441 7.158349 -0.114526
v -2.007716 6.870990 -2.398663
v 0.276421 7.128417 -3.454112
v 2.481788 6.995259 -2.319892
v 7.223443 3.919260 -0.114526
v 4.697355 4.415663 4.306407
v 0.276421 3.732613 6.020316
v -3.851216 3.585083 4.013111
v -7.021247 3.532534 -0.114526
v -3.780686 3.916769 -4.171633
v 0.276421 3.573734 -6.417192
v 4.645761 3.457646 -4.483865
v 10.877203 0.611552 -0.114526
v 7.533939 0.813247 7.142992
v 0.276421 -0.020252 10.106238
v -6.011672 -0.676544 6.173568
v -10.877203 0.116506 -0.114526
v -8.090168 0.580842 -8.481115
v 0.276421 -0.576229 -10.106238
v 6.282140 -0.703348 -6.120244
vn -0.0000 1.0000 -0.0000
vn 0.4409 0.8769 0.1913
vn 0.2025 0.8792 0.4313
vn -0.2144 0.8769 0.4302
vn -0.4169 0.8795 0.2295
vn -0.4125 0.8703 -0.2691
vn -0.2830 0.8718 -0.3998
vn 0.2600 0.8777 -0.4025
vn 0.4382 0.8716 -0.2197
vn 0.6254 0.7344 0.2638
vn 0.2054 0.6744 0.7092
vn -0.3348 0.5970 0.7291
vn -0.6477 0.6441 0.4070
vn -0.6271 0.6697 -0.3977
vn -0.3590 0.6111 -0.7055
vn 0.3520 0.6165 -0.7043
vn 0.6219 0.6788 -0.3904
vn 0.6402 0.7158 0.2790
vn 0.1804 0.7101 0.6806
vn -0.4225 0.6253 0.6562
vn -0.6025 0.6152 0.5085
vn -0.5532 0.8052 -0.2134
vn -0.1104 0.7546 -0.6468
vn 0.4247 0.5462 -0.7220
vn 0.6311 0.5637 -0.5328
s 0
f 3//1 2//1 1//1
f 4//1 3//1 1//1
f 5//1 4//1 1//1
f 6//1 5//1 1//1
f 7//1 6//1 1//1
f 8//1 7//1 1//1
f 9//1 8//1 1//1
f 2//1 9//1 1//1
f 3//2 11//2 10//2 2//2
f 4//3 12//3 11//3 3//3
f 5//4 13//4 12//4 4//4
f 6//5 14//5 13//5 5//5
f 7//6 15//6 14//6 6//6
f 8//7 16//7 15//7 7//7
f 9//8 17//8 16//8 8//8
f 2//9 10//9 17//9 9//9
f 11//10 19//10 18//10 10//10
f 12//11 20//11 19//11 11//11
f 13//12 21//12 20//12 12//12
f 14//13 22//13 21//13 13//13
f 15//14 23//14 22//14 14//14
f 16//15 24//15 23//15 15//15
f 17//16 25//16 24//16 16//16
f 10//17 18//17 25//17 17//17
f 19//18 27//18 26//18 18//18
f 20//19 28//19 27//19 19//19
f 21//20 29//20 28//20 20//20
f 22//21 30//21 29//21 21//21
f 23//22 31//22 30//22 22//22
f 24//23 32//23 31//23 23//23
f 25//24 33//24 32//24 24//24
f 18//25 26//25 33//25 25//25
