# Blender 4.4.1
# www.blender.org
o Hill_090
v 0.192265 0.000000 -0.575014
v 0.192265 5.482666 -0.575014
v 0.192265 5.482666 -0.575014
v 0.192265 5.482666 -0.575014
v 0.192265 5.482666 -0.575014
v 0.192265 5.482666 -0.575014
v 0.192265 5.482666 -0.575014
v 0.192265 5.482666 -0.575014
v 0.192265 5.482666 -0.575014
v 3.149908 4.395363 -0.575014
v 2.212616 4.351109 1.445337
v 0.192265 4.570007 2.389861
v -1.981108 4.266995 1.598358
v -2.876993 4.340391 -0.575014
v -1.851197 4.387824 -2.618476
v 0.192265 4.390493 -3.514008
v 2.401812 4.342844 -2.784562
v 6.476565 2.381201 -0.575014
v 4.736845 2.358298 3.969565
v 0.192265 2.551284 5.206352
v -3.624037 2.283507 3.241287
v -5.929485 2.825689 -0.575014
v -4.123082 2.373776 -4.890361
v 0.192265 2.147331 -6.664657
v 4.629281 2.719351 -5.012031
v 7.621654 0.224494 -0.575014
v 7.511484 0.292601 6.744205
v 0.192265 0.169888 8.498742
v -6.137782 -0.151214 5.755033
v -7.621654 -0.376119 -0.575014
v -6.180633 0.394448 -6.947912
v 0.192265 0.330369 -8.498742
v 7.507526 -0.184764 -7.890276
vn -0.0000 1.0000 -0.0000
vn 0.3396 0.9236 0.1778
vn 0.2344 0.9291 0.2860
vn -0.2337 0.9293 0.2861
vn -0.3435 0.9231 0.1728
vn -0.3448 0.9264 -0.1516
vn -0.1521 0.9265 -0.3443
vn 0.1340 0.9289 -0.3452
vn 0.3418 0.9296 -0.1378
vn 0.4898 0.8465 0.2084
vn 0.2233 0.8271 0.5158
vn -0.3302 0.7597 0.5602
vn -0.4821 0.8071 0.3407
vn -0.4553 0.8524 -0.2570
vn -0.2027 0.8097 -0.5507
vn 0.1292 0.8297 -0.5430
vn 0.4962 0.8539 -0.1571
vn 0.6933 0.7129 0.1054
vn 0.1416 0.8282 0.5423
vn -0.2930 0.7944 0.5321
vn -0.7038 0.6515 0.2832
vn -0.7508 0.6265 -0.2094
vn -0.1779 0.7498 -0.6373
vn 0.1241 0.7379 -0.6634
vn 0.7398 0.6606 -0.1275
s 0
f 3//1 2//1 1//1
f 4//1 3//1 1//1
f 5//1 4//1 1//1
f 6//1 5//1 1//1
f 7//1 6//1 1//1
f 8//1 7//1 1//1
f 9//1 8//1 1//1
f 2//1 9//1 1//1
f 3//2 11//2 10//2 2//2
f 4//3 12//3 11//3 3//3
f 5//4 13//4 12//4 4//4
f 6//5 14//5 13//5 5//5
f 7//6 15//6 14//6 6//6
f 8//7 16//7 15//7 7//7
f 9//8 17//8 16//8 8//8
f 2//9 10//9 17//9 9//9
f 11//10 19//10 18//10 10//10
f 12//11 20//11 19//11 11//11
f 13//12 21//12 20//12 12//12
f 14//13 22//13 21//13 13//13
f 15//14 23//14 22//14 14//14
f 16//15 24//15 23//15 15//15
f 17//16 25//16 24//16 16//16
f 10//17 18//17 25//17 17//17
f 19//18 27//18 26//18 18//18
f 20//19 28//19 27//19 19//19
f 21//20 29//20 28//20 20//20
f 22//21 30//21 29//21 21//21
f 23//22 31//22 30//22 22//22
f 24//23 32//23 31//23 23//23
f 25//24 33//24 32//24 24//24
f 18//25 26//25 33//25 25//25
