# Blender 4.4.1
# www.blender.org
o Hill_248
v 1.585039 0.000000 1.045345
v 1.585039 8.659615 1.045345
v 1.585039 8.659615 1.045345
v 1.585039 8.659615 1.045345
v 1.585039 8.659615 1.045345
v 1.585039 8.659615 1.045345
v 1.585039 8.659615 1.045345
v 1.585039 8.659615 1.045345
v 1.585039 8.659615 1.045345
v 5.751566 7.193750 1.045345
v 4.333694 6.828427 3.794000
v 1.585039 7.215436 4.893411
v -1.218967 6.816882 3.849352
v -2.258916 7.055001 1.045345
v -1.111359 7.091532 -1.651053
v 1.585039 7.020169 -2.870917
v 4.186064 7.100834 -1.555680
v 8.512884 3.583063 1.045345
v 6.771394 4.230059 6.231700
v 1.585039 3.915953 8.874229
v -4.326136 3.994482 6.956520
v -5.752668 3.375514 1.045345
v -4.194509 4.019423 -4.734203
v 1.585039 4.065385 -6.123494
v 7.052917 3.647906 -4.422533
v 11.930518 0.549677 1.045345
v 10.572671 0.179608 10.032977
v 1.585039 0.495562 12.758176
v -5.541919 0.113480 8.172304
v -11.930518 -0.365270 1.045345
v -5.230071 0.638347 -5.769765
v 1.585039 -0.308005 -12.758176
v 10.816165 0.546382 -8.185780
vn -0.0000 1.0000 -0.0000
vn 0.3182 0.9044 0.2843
vn 0.2628 0.9033 0.3390
vn -0.2552 0.9052 0.3397
vn -0.3761 0.9010 0.2160
vn -0.3809 0.9124 -0.1497
vn -0.1486 0.9122 -0.3819
vn 0.1644 0.9099 -0.3809
vn 0.3232 0.9186 -0.2273
vn 0.6913 0.6775 0.2512
vn 0.2842 0.7573 0.5879
vn -0.2253 0.7840 0.5784
vn -0.6559 0.7391 0.1533
vn -0.6710 0.7249 -0.1560
vn -0.1905 0.7559 -0.6263
vn 0.2674 0.7254 -0.6343
vn 0.6991 0.6643 -0.2644
vn 0.6589 0.7410 0.1296
vn 0.2334 0.7524 0.6160
vn -0.3768 0.5718 0.7288
vn -0.6500 0.6835 0.3321
vn -0.6394 0.6953 -0.3283
vn -0.3734 0.6771 -0.6341
vn 0.1988 0.8284 -0.5236
vn 0.6139 0.7825 -0.1042
s 0
f 3//1 2//1 1//1
f 4//1 3//1 1//1
f 5//1 4//1 1//1
f 6//1 5//1 1//1
f 7//1 6//1 1//1
f 8//1 7//1 1//1
f 9//1 8//1 1//1
f 2//1 9//1 1//1
f 3//2 11//2 10//2 2//2
f 4//3 12//3 11//3 3//3
f 5//4 13//4 12//4 4//4
f 6//5 14//5 13//5 5//5
f 7//6 15//6 14//6 6//6
f 8//7 16//7 15//7 7//7
f 9//8 17//8 16//8 8//8
f 2//9 10//9 17//9 9//9
f 11//10 19//10 18//10 10//10
f 12//11 20//11 19//11 11//11
f 13//12 21//12 20//12 12//12
f 14//13 22//13 21//13 13//13
f 15//14 23//14 22//14 14//14
f 16//15 24//15 23//15 15//15
f 17//16 25//16 24//16 16//16
f 10//17 18//17 25//17 17//17
f 19//18 27//18 26//18 18//18
f 20//19 28//19 27//19 19//19
f 21//20 29//20 28//20 20//20
f 22//21 30//21 29//21 21//21
f 23//22 31//22 30//22 22//22
f 24//23 32//23 31//23 23//23
f 25//24 33//24 32//24 24//24
f 18//25 26//25 33//25 25//25
