# Blender 4.4.1
# www.blender.org
o Hill_109
v -0.541035 0.000000 -0.872321
v -0.541035 6.131117 -0.872321
v -0.541035 6.131117 -0.872321
v -0.541035 6.131117 -0.872321
v -0.541035 6.131117 -0.872321
v -0.541035 6.131117 -0.872321
v -0.541035 6.131117 -0.872321
v -0.541035 6.131117 -0.872321
v -0.541035 6.131117 -0.872321
v 1.635537 4.766439 -0.872321
v 0.959034 4.821274 0.627748
v -0.541035 4.760756 1.232904
v -2.165495 4.812982 0.752139
v -2.699187 4.980648 -0.872321
v -2.100697 4.887379 -2.431983
v -0.541035 5.080750 -3.120713
v 1.038083 4.931606 -2.451439
v 3.543695 2.892931 -0.872321
v 2.623268 2.481333 2.291982
v -0.541035 3.013263 3.288413
v -4.020450 2.660718 2.607094
v -5.424702 2.593709 -0.872321
v -3.923002 2.783423 -4.254289
v -0.541035 2.927212 -5.350883
v 2.725080 2.664904 -4.138436
v 6.140926 -0.535715 -0.872321
v 3.895633 0.174483 3.564347
v -0.541035 -0.458328 6.991829
v -4.718307 -0.052196 3.304951
v -6.140926 0.061881 -0.872321
v -4.846954 0.457757 -5.178240
v -0.541035 -0.078277 -6.991829
v 5.056443 -0.511375 -6.469799
vn -0.0000 1.0000 -0.0000
vn 0.5200 0.8294 0.2042
vn 0.1831 0.8239 0.5363
vn -0.1333 0.8306 0.5407
vn -0.4568 0.8570 0.2385
vn -0.4581 0.8594 -0.2272
vn -0.2867 0.8680 -0.4055
vn 0.2561 0.8758 -0.4091
vn 0.5279 0.8419 -0.1117
vn 0.6736 0.6828 0.2828
vn 0.2928 0.7060 0.6448
vn -0.1906 0.7388 0.6464
vn -0.6275 0.7365 0.2528
vn -0.6269 0.7372 -0.2521
vn -0.2781 0.7220 -0.6335
vn 0.3111 0.6941 -0.6492
vn 0.6936 0.6885 -0.2117
vn 0.7608 0.5785 0.2941
vn 0.3754 0.6509 0.6599
vn -0.4077 0.5595 0.7216
vn -0.8982 0.2865 0.3334
vn -0.8867 0.3556 -0.2954
vn -0.2948 0.4553 -0.8401
vn 0.1999 0.5819 -0.7883
vn 0.7578 0.6280 -0.1771
s 0
f 3//1 2//1 1//1
f 4//1 3//1 1//1
f 5//1 4//1 1//1
f 6//1 5//1 1//1
f 7//1 6//1 1//1
f 8//1 7//1 1//1
f 9//1 8//1 1//1
f 2//1 9//1 1//1
f 3//2 11//2 10//2 2//2
f 4//3 12//3 11//3 3//3
f 5//4 13//4 12//4 4//4
f 6//5 14//5 13//5 5//5
f 7//6 15//6 14//6 6//6
f 8//7 16//7 15//7 7//7
f 9//8 17//8 16//8 8//8
f 2//9 10//9 17//9 9//9
f 11//10 19//10 18//10 10//10
f 12//11 20//11 19//11 11//11
f 13//12 21//12 20//12 12//12
f 14//13 22//13 21//13 13//13
f 15//14 23//14 22//14 14//14
f 16//15 24//15 23//15 15//15
f 17//16 25//16 24//16 16//16
f 10//17 18//17 25//17 17//17
f 19//18 27//18 26//18 18//18
f 20//19 28//19 27//19 19//19
f 21//20 29//20 28//20 20//20
f 22//21 30//21 29//21 21//21
f 23//22 31//22 30//22 22//22
f 24//23 32//23 31//23 23//23
f 25//24 33//24 32//24 24//24
f 18//25 26//25 33//25 25//25
