# Blender 4.4.1
# www.blender.org
o Hill_127
v 1.523050 0.000000 1.802503
v 1.523050 8.714067 1.802503
v 1.523050 8.714067 1.802503
v 1.523050 8.714067 1.802503
v 1.523050 8.714067 1.802503
v 1.523050 8.714067 1.802503
v 1.523050 8.714067 1.802503
v 1.523050 8.714067 1.802503
v 1.523050 8.714067 1.802503
v 4.995854 6.851678 1.802503
v 4.018680 7.036808 4.298133
v 1.523050 7.164833 5.517619
v -1.014759 6.973579 4.340312
v -2.208388 7.281514 1.802503
v -1.022345 7.093244 -0.742891
v 1.523050 7.134075 -1.948735
v 4.224176 6.791699 -0.898623
v 7.985593 3.390106 1.802503
v 5.989228 3.447918 6.268681
v 1.523050 3.708415 8.080156
v -2.900673 3.906897 6.226226
v -6.135821 4.506597 1.802503
v -3.033008 3.817420 -2.753555
v 1.523050 4.517904 -5.696643
v 6.956518 3.822963 -3.630965
v 11.397924 0.267741 1.802503
v 8.559209 -0.810421 8.838662
v 1.523050 -0.624209 10.984821
v -6.001460 0.753323 9.327012
v -11.397924 0.722511 1.802503
v -4.970591 0.238260 -4.691138
v 1.523050 0.510230 -10.984821
v 10.344137 0.752971 -7.018584
vn -0.0000 1.0000 -0.0000
vn 0.4693 0.8750 0.1188
vn 0.2292 0.8984 0.3746
vn -0.2408 0.8958 0.3736
vn -0.3450 0.8986 0.2713
vn -0.3488 0.9086 -0.2297
vn -0.1949 0.9039 -0.3807
vn 0.2586 0.8902 -0.3750
vn 0.4671 0.8709 -0.1528
vn 0.7406 0.6036 0.2953
vn 0.3536 0.5741 0.7385
vn -0.3203 0.5952 0.7370
vn -0.5581 0.6995 0.4463
vn -0.5687 0.7011 -0.4301
vn -0.4112 0.7050 -0.5778
vn 0.3077 0.7810 -0.5434
vn 0.7138 0.6889 -0.1264
vn 0.6692 0.6608 0.3399
vn 0.2862 0.5744 0.7669
vn -0.1330 0.6531 0.7455
vn -0.4955 0.7737 0.3948
vn -0.5327 0.6602 -0.5295
vn -0.5173 0.6558 -0.5498
vn 0.2573 0.7955 -0.5485
vn 0.6593 0.7503 -0.0480
s 0
f 3//1 2//1 1//1
f 4//1 3//1 1//1
f 5//1 4//1 1//1
f 6//1 5//1 1//1
f 7//1 6//1 1//1
f 8//1 7//1 1//1
f 9//1 8//1 1//1
f 2//1 9//1 1//1
f 3//2 11//2 10//2 2//2
f 4//3 12//3 11//3 3//3
f 5//4 13//4 12//4 4//4
f 6//5 14//5 13//5 5//5
f 7//6 15//6 14//6 6//6
f 8//7 16//7 15//7 7//7
f 9//8 17//8 16//8 8//8
f 2//9 10//9 17//9 9//9
f 11//10 19//10 18//10 10//10
f 12//11 20//11 19//11 11//11
f 13//12 21//12 20//12 12//12
f 14//13 22//13 21//13 13//13
f 15//14 23//14 22//14 14//14
f 16//15 24//15 23//15 15//15
f 17//16 25//16 24//16 16//16
f 10//17 18//17 25//17 17//17
f 19//18 27//18 26//18 18//18
f 20//19 28//19 27//19 19//19
f 21//20 29//20 28//20 20//20
f 22//21 30//21 29//21 21//21
f 23//22 31//22 30//22 22//22
f 24//23 32//23 31//23 23//23
f 25//24 33//24 32//24 24//24
f 18//25 26//25 33//25 25//25
