# Blender 4.4.1
# www.blender.org
o Hill_236
v 0.421231 0.000000 -0.035165
v 0.421231 9.823379 -0.035165
v 0.421231 9.823379 -0.035165
v 0.421231 9.823379 -0.035165
v 0.421231 9.823379 -0.035165
v 0.421231 9.823379 -0.035165
v 0.421231 9.823379 -0.035165
v 0.421231 9.823379 -0.035165
v 0.421231 9.823379 -0.035165
v 4.134785 8.030979 -0.035165
v 3.094911 7.857594 2.638515
v 0.421231 7.760100 3.481821
v -2.107217 8.183235 2.493284
v -2.971870 8.194448 -0.035165
v -2.044447 7.767822 -2.500844
v 0.421231 7.883624 -3.541032
v 2.982872 7.743784 -2.596806
v 7.457770 4.665619 -0.035165
v 5.764576 3.850463 5.308180
v 0.421231 4.739269 7.017185
v -5.224757 3.978809 5.610823
v -7.650919 4.061055 -0.035165
v -4.263778 4.358737 -4.720174
v 0.421231 5.014824 -7.961824
v 5.732512 4.837842 -5.346445
v 11.772361 0.532618 -0.035165
v 7.949747 0.288891 7.493351
v 0.421231 -0.553980 10.519653
v -8.052310 0.346280 8.438376
v -11.772361 -0.890606 -0.035165
v -7.164409 -0.579096 -7.620805
v 0.421231 -0.383741 -10.519653
v 9.058350 0.385814 -8.672283
vn -0.0000 1.0000 -0.0000
vn 0.4239 0.8782 0.2218
vn 0.1271 0.8555 0.5019
vn -0.0534 0.8613 0.5053
vn -0.4279 0.8913 0.1503
vn -0.4123 0.8589 -0.3037
vn -0.2383 0.8498 -0.4702
vn 0.2206 0.8534 -0.4722
vn 0.4168 0.8634 -0.2842
vn 0.6783 0.6647 0.3132
vn 0.2799 0.6930 0.6644
vn -0.2246 0.7107 0.6666
vn -0.6508 0.7096 0.2701
vn -0.6209 0.6817 -0.3869
vn -0.4086 0.7275 -0.5512
vn 0.2749 0.7976 -0.5369
vn 0.6407 0.7277 -0.2448
vn 0.6683 0.6613 0.3408
vn 0.2862 0.5668 0.7725
vn -0.1849 0.6068 0.7730
vn -0.7088 0.6577 0.2548
vn -0.6807 0.6046 -0.4135
vn -0.4123 0.5132 -0.7527
vn 0.2319 0.5553 -0.7986
vn 0.6859 0.6945 -0.2170
s 0
f 3//1 2//1 1//1
f 4//1 3//1 1//1
f 5//1 4//1 1//1
f 6//1 5//1 1//1
f 7//1 6//1 1//1
f 8//1 7//1 1//1
f 9//1 8//1 1//1
f 2//1 9//1 1//1
f 3//2 11//2 10//2 2//2
f 4//3 12//3 11//3 3//3
f 5//4 13//4 12//4 4//4
f 6//5 14//5 13//5 5//5
f 7//6 15//6 14//6 6//6
f 8//7 16//7 15//7 7//7
f 9//8 17//8 16//8 8//8
f 2//9 10//9 17//9 9//9
f 11//10 19//10 18//10 10//10
f 12//11 20//11 19//11 11//11
f 13//12 21//12 20//12 12//12
f 14//13 22//13 21//13 13//13
f 15//14 23//14 22//14 14//14
f 16//15 24//15 23//15 15//15
f 17//16 25//16 24//16 16//16
f 10//17 18//17 25//17 17//17
f 19//18 27//18 26//18 18//18
f 20//19 28//19 27//19 19//19
f 21//20 29//20 28//20 20//20
f 22//21 30//21 29//21 21//21
f 23//22 31//22 30//22 22//22
f 24//23 32//23 31//23 23//23
f 25//24 33//24 32//24 24//24
f 18//25 26//25 33//25 25//25
