# Blender 4.4.1
# www.blender.org
o Hill_088
v 1.144706 0.000000 0.191726
v 1.144706 9.174024 0.191726
v 1.144706 9.174024 0.191726
v 1.144706 9.174024 0.191726
v 1.144706 9.174024 0.191726
v 1.144706 9.174024 0.191726
v 1.144706 9.174024 0.191726
v 1.144706 9.174024 0.191726
v 1.144706 9.174024 0.191726
v 4.216161 7.161944 0.191726
v 3.139569 7.311309 2.186589
v 1.144706 7.651472 3.116027
v -0.927378 7.618913 2.263810
v -1.726459 7.300106 0.191726
v -0.855960 7.211801 -1.808940
v 1.144706 7.600517 -2.569841
v 3.259107 7.707681 -1.922674
v 6.496316 4.203723 0.191726
v 5.327390 4.321570 4.374410
v 1.144706 3.917073 5.371355
v -2.538713 3.903688 3.875145
v -4.559849 4.651678 0.191726
v -2.724524 4.691241 -3.677504
v 1.144706 4.490361 -6.363180
v 5.709425 4.383900 -4.372993
v 8.594131 -0.537886 0.191726
v 8.129020 0.467627 7.176040
v 1.144706 0.738585 7.245706
v -6.137470 0.073080 7.473902
v -8.594131 -0.905173 0.191726
v -5.824143 -0.870106 -6.777123
v 1.144706 0.810628 -7.473902
v 7.470579 0.425839 -6.134147
vn -0.0000 1.0000 -0.0000
vn 0.5337 0.8147 0.2270
vn 0.3440 0.8328 0.4336
vn -0.1998 0.8691 0.4525
vn -0.5447 0.8346 0.0817
vn -0.5270 0.8075 -0.2650
vn -0.3363 0.8183 -0.4662
vn 0.1069 0.8639 -0.4922
vn 0.5477 0.8361 -0.0321
vn 0.7323 0.6378 0.2386
vn 0.2352 0.5879 0.7739
vn -0.3327 0.4901 0.8057
vn -0.7057 0.5916 0.3899
vn -0.6474 0.6988 -0.3042
vn -0.3699 0.7169 -0.5909
vn 0.2542 0.7217 -0.6439
vn 0.7665 0.6286 -0.1318
vn 0.8559 0.5119 0.0737
vn 0.0712 0.5718 0.8173
vn -0.1269 0.6501 0.7492
vn -0.6941 0.6676 0.2694
vn -0.7556 0.5732 -0.3171
vn -0.3204 0.4796 -0.8169
vn 0.2849 0.3942 -0.8737
vn 0.8995 0.4220 -0.1135
s 0
f 3//1 2//1 1//1
f 4//1 3//1 1//1
f 5//1 4//1 1//1
f 6//1 5//1 1//1
f 7//1 6//1 1//1
f 8//1 7//1 1//1
f 9//1 8//1 1//1
f 2//1 9//1 1//1
f 3//2 11//2 10//2 2//2
f 4//3 12//3 11//3 3//3
f 5//4 13//4 12//4 4//4
f 6//5 14//5 13//5 5//5
f 7//6 15//6 14//6 6//6
f 8//7 16//7 15//7 7//7
f 9//8 17//8 16//8 8//8
f 2//9 10//9 17//9 9//9
f 11//10 19//10 18//10 10//10
f 12//11 20//11 19//11 11//11
f 13//12 21//12 20//12 12//12
f 14//13 22//13 21//13 13//13
f 15//14 23//14 22//14 14//14
f 16//15 24//15 23//15 15//15
f 17//16 25//16 24//16 16//16
f 10//17 18//17 25//17 17//17
f 19//18 27//18 26//18 18//18
f 20//19 28//19 27//19 19//19
f 21//20 29//20 28//20 20//20
f 22//21 30//21 29//21 21//21
f 23//22 31//22 30//22 22//22
f 24//23 32//23 31//23 23//23
f 25//24 33//24 32//24 24//24
f 18//25 26//25 33//25 25//25
