# Blender 4.4.1
# www.blender.org
o Hill_136
v -0.090916 0.000000 -0.001995
v -0.090916 8.273109 -0.001995
v -0.090916 8.273109 -0.001995
v -0.090916 8.273109 -0.001995
v -0.090916 8.273109 -0.001995
v -0.090916 8.273109 -0.001995
v -0.090916 8.273109 -0.001995
v -0.090916 8.273109 -0.001995
v -0.090916 8.273109 -0.001995
v 2.002866 6.824824 -0.001995
v 1.441327 6.489409 1.530248
v -0.090916 6.540663 2.223547
v -1.481414 6.876970 1.388502
v -2.269939 6.688254 -0.001995
v -1.483789 6.683436 -1.394868
v -0.090916 6.479609 -1.981953
v 1.307438 6.491169 -1.400349
v 3.704994 4.168771 -0.001995
v 3.150281 3.851278 3.239202
v -0.090916 3.489384 3.958876
v -2.809038 3.339461 2.716126
v -4.016926 3.924381 -0.001995
v -3.268812 3.292247 -3.179892
v -0.090916 3.218891 -4.073017
v 2.853874 4.099442 -2.946785
v 6.670242 -0.173707 -0.001995
v 4.447009 -0.159012 4.535929
v -0.090916 0.764609 6.374141
v -5.346304 -0.241682 5.253393
v -6.670242 0.361296 -0.001995
v -5.000011 0.416355 -4.911090
v -0.090916 -0.152758 -6.374141
v 4.378593 -0.000452 -4.471504
vn -0.0000 1.0000 -0.0000
vn 0.5303 0.7666 0.3621
vn 0.2912 0.7549 0.5877
vn -0.1753 0.7769 0.6048
vn -0.5740 0.7892 0.2184
vn -0.5578 0.7669 -0.3175
vn -0.1719 0.7301 -0.6614
vn 0.2635 0.7150 -0.6476
vn 0.5130 0.7417 -0.4321
vn 0.7714 0.5809 0.2598
vn 0.2037 0.5511 0.8092
vn -0.3862 0.4517 0.8042
vn -0.7764 0.4678 0.4224
vn -0.7722 0.5401 -0.3345
vn -0.2307 0.5354 -0.8125
vn 0.1974 0.5681 -0.7989
vn 0.7488 0.5801 -0.3205
vn 0.8254 0.4698 0.3130
vn 0.3024 0.5041 0.8090
vn -0.2998 0.6609 0.6880
vn -0.7093 0.6286 0.3189
vn -0.7607 0.5905 -0.2696
vn -0.1881 0.5689 -0.8006
vn 0.2730 0.4820 -0.8326
vn 0.8056 0.4889 -0.3346
s 0
f 3//1 2//1 1//1
f 4//1 3//1 1//1
f 5//1 4//1 1//1
f 6//1 5//1 1//1
f 7//1 6//1 1//1
f 8//1 7//1 1//1
f 9//1 8//1 1//1
f 2//1 9//1 1//1
f 3//2 11//2 10//2 2//2
f 4//3 12//3 11//3 3//3
f 5//4 13//4 12//4 4//4
f 6//5 14//5 13//5 5//5
f 7//6 15//6 14//6 6//6
f 8//7 16//7 15//7 7//7
f 9//8 17//8 16//8 8//8
f 2//9 10//9 17//9 9//9
f 11//10 19//10 18//10 10//10
f 12//11 20//11 19//11 11//11
f 13//12 21//12 20//12 12//12
f 14//13 22//13 21//13 13//13
f 15//14 23//14 22//14 14//14
f 16//15 24//15 23//15 15//15
f 17//16 25//16 24//16 16//16
f 10//17 18//17 25//17 17//17
f 19//18 27//18 26//18 18//18
f 20//19 28//19 27//19 19//19
f 21//20 29//20 28//20 20//20
f 22//21 30//21 29//21 21//21
f 23//22 31//22 30//22 22//22
f 24//23 32//23 31//23 23//23
f 25//24 33//24 32//24 24//24
f 18//25 26//25 33//25 25//25
