# Blender 4.4.1
# www.blender.org
o Hill_199
v -0.782743 0.000000 -0.662844
v -0.782743 5.093583 -0.662844
v -0.782743 5.093583 -0.662844
v -0.782743 5.093583 -0.662844
v -0.782743 5.093583 -0.662844
v -0.782743 5.093583 -0.662844
v -0.782743 5.093583 -0.662844
v -0.782743 5.093583 -0.662844
v -0.782743 5.093583 -0.662844
v 2.432407 4.199324 -0.662844
v 1.702639 3.995488 1.822538
v -0.782743 3.973986 2.783768
v -3.175507 4.109008 1.729921
v -4.266693 3.965409 -0.662844
v -3.050862 4.280917 -2.930963
v -0.782743 4.229277 -3.887496
v 1.421347 4.021088 -2.866933
v 6.360572 2.548307 -0.662844
v 4.459836 2.092367 4.579735
v -0.782743 2.395355 6.517791
v -5.192306 2.246855 3.746720
v -6.843654 2.491865 -0.662844
v -5.753757 2.493417 -5.633858
v -0.782743 2.116545 -7.744045
v 3.443392 2.656496 -4.888978
v 9.644673 -0.271210 -0.662844
v 5.221017 -0.372400 5.340917
v -0.782743 0.500706 8.880909
v -7.009179 0.384886 5.563593
v -9.644673 -0.285791 -0.662844
v -7.116290 -0.032145 -6.996391
v -0.782743 0.195856 -8.880909
v 6.721852 -0.073575 -8.167438
vn -0.0000 1.0000 -0.0000
vn 0.2647 0.9517 0.1558
vn 0.1106 0.9452 0.3071
vn -0.0821 0.9479 0.3079
vn -0.3070 0.9481 0.0831
vn -0.3079 0.9509 -0.0328
vn -0.0869 0.9623 -0.2579
vn 0.2066 0.9451 -0.2533
vn 0.2627 0.9446 -0.1969
vn 0.3903 0.8966 0.2094
vn 0.1838 0.8966 0.4029
vn -0.2452 0.8674 0.4330
vn -0.5091 0.8327 0.2177
vn -0.4790 0.8703 -0.1144
vn -0.1436 0.8755 -0.4614
vn 0.2200 0.8709 -0.4395
vn 0.3735 0.8966 -0.2380
vn 0.6913 0.5894 0.4180
vn 0.4054 0.5782 0.7081
vn -0.3320 0.7688 0.5466
vn -0.6432 0.7303 0.2300
vn -0.7384 0.6368 -0.2220
vn -0.2755 0.5338 -0.7995
vn 0.1797 0.7410 -0.6470
vn 0.5483 0.7974 -0.2522
s 0
f 3//1 2//1 1//1
f 4//1 3//1 1//1
f 5//1 4//1 1//1
f 6//1 5//1 1//1
f 7//1 6//1 1//1
f 8//1 7//1 1//1
f 9//1 8//1 1//1
f 2//1 9//1 1//1
f 3//2 11//2 10//2 2//2
f 4//3 12//3 11//3 3//3
f 5//4 13//4 12//4 4//4
f 6//5 14//5 13//5 5//5
f 7//6 15//6 14//6 6//6
f 8//7 16//7 15//7 7//7
f 9//8 17//8 16//8 8//8
f 2//9 10//9 17//9 9//9
f 11//10 19//10 18//10 10//10
f 12//11 20//11 19//11 11//11
f 13//12 21//12 20//12 12//12
f 14//13 22//13 21//13 13//13
f 15//14 23//14 22//14 14//14
f 16//15 24//15 23//15 15//15
f 17//16 25//16 24//16 16//16
f 10//17 18//17 25//17 17//17
f 19//18 27//18 26//18 18//18
f 20//19 28//19 27//19 19//19
f 21//20 29//20 28//20 20//20
f 22//21 30//21 29//21 21//21
f 23//22 31//22 30//22 22//22
f 24//23 32//23 31//23 23//23
f 25//24 33//24 32//24 24//24
f 18//25 26//25 33//25 25//25
