# Blender 4.4.1
# www.blender.org
o Hill_130
v 0.056882 0.000000 -0.740417
v 0.056882 6.501077 -0.740417
v 0.056882 6.501077 -0.740417
v 0.056882 6.501077 -0.740417
v 0.056882 6.501077 -0.740417
v 0.056882 6.501077 -0.740417
v 0.056882 6.501077 -0.740417
v 0.056882 6.501077 -0.740417
v 0.056882 6.501077 -0.740417
v 3.537904 5.302053 -0.740417
v 2.410276 5.454236 1.612978
v 0.056882 5.045086 2.650833
v -2.196505 5.244504 1.512970
v -3.522516 5.239054 -0.740417
v -2.358198 5.069199 -3.155496
v 0.056882 5.343390 -4.237596
v 2.593160 5.230305 -3.276695
v 7.299191 2.738163 -0.740417
v 5.478836 2.558702 4.681538
v 0.056882 3.202588 5.706429
v -5.199420 2.716646 4.515885
v -6.572501 2.537857 -0.740417
v -4.269392 3.276746 -5.066690
v 0.056882 3.339868 -8.040284
v 4.787876 2.964136 -5.471411
v 10.093760 0.256313 -0.740417
v 6.937924 0.552566 6.140625
v 0.056882 -0.586768 10.072795
v -7.393167 0.257724 6.709632
v -10.093760 0.523027 -0.740417
v -6.551047 -0.438503 -7.348345
v 0.056882 -0.219196 -10.072795
v 6.135473 -0.448839 -6.819008
vn -0.0000 1.0000 -0.0000
vn 0.3242 0.9413 0.0945
vn 0.0142 0.9188 0.3945
vn -0.1171 0.9126 0.3918
vn -0.3265 0.9259 0.1899
vn -0.3243 0.9198 -0.2210
vn -0.2412 0.9213 -0.3050
vn 0.1593 0.9372 -0.3102
vn 0.3222 0.9353 -0.1465
vn 0.5505 0.8076 0.2116
vn 0.1702 0.8188 0.5482
vn -0.1903 0.8385 0.5106
vn -0.5856 0.7877 0.1912
vn -0.5981 0.7637 -0.2431
vn -0.3130 0.8360 -0.4507
vn 0.2899 0.8266 -0.4824
vn 0.5540 0.7952 -0.2466
vn 0.6575 0.7075 0.2592
vn 0.2351 0.7179 0.6553
vn -0.2075 0.7421 0.6374
vn -0.5607 0.8071 0.1852
vn -0.5934 0.7332 -0.3322
vn -0.3950 0.5571 -0.7305
vn 0.4411 0.4591 -0.7711
vn 0.6862 0.5819 -0.4365
s 0
f 3//1 2//1 1//1
f 4//1 3//1 1//1
f 5//1 4//1 1//1
f 6//1 5//1 1//1
f 7//1 6//1 1//1
f 8//1 7//1 1//1
f 9//1 8//1 1//1
f 2//1 9//1 1//1
f 3//2 11//2 10//2 2//2
f 4//3 12//3 11//3 3//3
f 5//4 13//4 12//4 4//4
f 6//5 14//5 13//5 5//5
f 7//6 15//6 14//6 6//6
f 8//7 16//7 15//7 7//7
f 9//8 17//8 16//8 8//8
f 2//9 10//9 17//9 9//9
f 11//10 19//10 18//10 10//10
f 12//11 20//11 19//11 11//11
f 13//12 21//12 20//12 12//12
f 14//13 22//13 21//13 13//13
f 15//14 23//14 22//14 14//14
f 16//15 24//15 23//15 15//15
f 17//16 25//16 24//16 16//16
f 10//17 18//17 25//17 17//17
f 19//18 27//18 26//18 18//18
f 20//19 28//19 27//19 19//19
f 21//20 29//20 28//20 20//20
f 22//21 30//21 29//21 21//21
f 23//22 31//22 30//22 22//22
f 24//23 32//23 31//23 23//23
f 25//24 33//24 32//24 24//24
f 18//25 26//25 33//25 25//25
