# Blender 4.4.1
# www.blender.org
o Hill_123
v 1.603887 0.000000 0.803547
v 1.603887 8.099227 0.803547
v 1.603887 8.099227 0.803547
v 1.603887 8.099227 0.803547
v 1.603887 8.099227 0.803547
v 1.603887 8.099227 0.803547
v 1.603887 8.099227 0.803547
v 1.603887 8.099227 0.803547
v 1.603887 8.099227 0.803547
v 5.181635 6.529974 0.803547
v 4.054498 6.682759 3.254158
v 1.603887 6.810017 4.183180
v -0.745621 6.587629 3.153054
v -1.650618 6.461101 0.803547
v -0.835369 6.519818 -1.635709
v 1.603887 6.727612 -2.857960
v 4.208920 6.520889 -1.801486
v 9.273238 3.638922 0.803547
v 6.037495 3.961137 5.237154
v 1.603887 3.177053 7.586584
v -2.826255 3.492646 5.233689
v -6.233066 3.833321 0.803547
v -3.166069 3.165683 -3.966410
v 1.603887 3.865263 -6.666700
v 6.077617 3.790929 -3.670183
v 10.686754 -0.656287 0.803547
v 8.636324 -0.567108 7.835984
v 1.603887 -0.774803 10.524426
v -5.431315 -0.318264 7.838749
v -10.686754 0.079905 0.803547
v -4.947567 -0.021812 -5.747907
v 1.603887 -0.108763 -10.524426
v 10.271554 -0.551038 -7.864120
vn -0.0000 1.0000 -0.0000
vn 0.3984 0.9084 0.1266
vn 0.1806 0.9190 0.3506
vn -0.2377 0.9076 0.3462
vn -0.4461 0.8863 0.1241
vn -0.4459 0.8859 -0.1277
vn -0.2476 0.9073 -0.3399
vn 0.2117 0.9152 -0.3428
vn 0.3970 0.9052 -0.1514
vn 0.5848 0.7457 0.3192
vn 0.2660 0.6703 0.6928
vn -0.3299 0.6556 0.6792
vn -0.5379 0.7594 0.3661
vn -0.5402 0.7628 -0.3554
vn -0.4013 0.7154 -0.5720
vn 0.3659 0.7204 -0.5892
vn 0.5898 0.7359 -0.3325
vn 0.8071 0.4716 0.3552
vn 0.2838 0.5837 0.7608
vn -0.2809 0.6184 0.7340
vn -0.5603 0.6838 0.4674
vn -0.5795 0.6476 -0.4948
vn -0.4563 0.6178 -0.6404
vn 0.2914 0.7372 -0.6096
vn 0.7742 0.6002 -0.2010
s 0
f 3//1 2//1 1//1
f 4//1 3//1 1//1
f 5//1 4//1 1//1
f 6//1 5//1 1//1
f 7//1 6//1 1//1
f 8//1 7//1 1//1
f 9//1 8//1 1//1
f 2//1 9//1 1//1
f 3//2 11//2 10//2 2//2
f 4//3 12//3 11//3 3//3
f 5//4 13//4 12//4 4//4
f 6//5 14//5 13//5 5//5
f 7//6 15//6 14//6 6//6
f 8//7 16//7 15//7 7//7
f 9//8 17//8 16//8 8//8
f 2//9 10//9 17//9 9//9
f 11//10 19//10 18//10 10//10
f 12//11 20//11 19//11 11//11
f 13//12 21//12 20//12 12//12
f 14//13 22//13 21//13 13//13
f 15//14 23//14 22//14 14//14
f 16//15 24//15 23//15 15//15
f 17//16 25//16 24//16 16//16
f 10//17 18//17 25//17 17//17
f 19//18 27//18 26//18 18//18
f 20//19 28//19 27//19 19//19
f 21//20 29//20 28//20 20//20
f 22//21 30//21 29//21 21//21
f 23//22 31//22 30//22 22//22
f 24//23 32//23 31//23 23//23
f 25//24 33//24 32//24 24//24
f 18//25 26//25 33//25 25//25
