# Blender 4.4.1
# www.blender.org
o Hill_176
v 0.182289 0.000000 -0.259758
v 0.182289 7.372927 -0.259758
v 0.182289 7.372927 -0.259758
v 0.182289 7.372927 -0.259758
v 0.182289 7.372927 -0.259758
v 0.182289 7.372927 -0.259758
v 0.182289 7.372927 -0.259758
v 0.182289 7.372927 -0.259758
v 0.182289 7.372927 -0.259758
v 2.148201 5.788907 -0.259758
v 1.677448 5.745667 1.235401
v 0.182289 6.160213 1.832645
v -1.167695 5.968143 1.090226
v -1.774336 6.081667 -0.259758
v -1.249085 5.820299 -1.691133
v 0.182289 5.997625 -2.248027
v 1.595891 6.078146 -1.673361
v 3.753074 3.412805 -0.259758
v 3.415835 3.492875 2.973788
v 0.182289 3.128327 3.657920
v -2.699365 3.172600 2.621896
v -3.470036 3.416132 -0.259758
v -2.880900 3.363018 -3.322947
v 0.182289 3.223981 -4.729772
v 3.246428 3.802012 -3.323898
v 5.169213 0.259263 -0.259758
v 4.366737 -0.286802 3.924690
v 0.182289 0.224442 5.507374
v -3.845929 -0.522531 3.768459
v -5.169213 0.560423 -0.259758
v -3.454680 0.655401 -3.896727
v 0.182289 0.313976 -5.507374
v 4.398108 0.397771 -4.475578
vn -0.0000 1.0000 -0.0000
vn 0.6128 0.7605 0.2149
vn 0.4029 0.7919 0.4589
vn -0.3705 0.8036 0.4658
vn -0.5250 0.7955 0.3028
vn -0.5191 0.7867 -0.3341
vn -0.3075 0.7826 -0.5413
vn 0.1814 0.8088 -0.5594
vn 0.6251 0.7758 -0.0855
vn 0.7804 0.6119 0.1286
vn 0.2163 0.5938 0.7750
vn -0.3432 0.5349 0.7721
vn -0.7818 0.5463 0.3006
vn -0.7796 0.5809 -0.2339
vn -0.3104 0.6456 -0.6978
vn 0.2206 0.6599 -0.7183
vn 0.7985 0.5938 -0.0989
vn 0.9265 0.3388 0.1636
vn 0.2746 0.4046 0.8723
vn -0.3732 0.4365 0.8187
vn -0.8409 0.4241 0.3362
vn -0.8726 0.3872 -0.2976
vn -0.3822 0.2529 -0.8888
vn 0.2733 0.3263 -0.9049
vn 0.9148 0.3815 -0.1329
s 0
f 3//1 2//1 1//1
f 4//1 3//1 1//1
f 5//1 4//1 1//1
f 6//1 5//1 1//1
f 7//1 6//1 1//1
f 8//1 7//1 1//1
f 9//1 8//1 1//1
f 2//1 9//1 1//1
f 3//2 11//2 10//2 2//2
f 4//3 12//3 11//3 3//3
f 5//4 13//4 12//4 4//4
f 6//5 14//5 13//5 5//5
f 7//6 15//6 14//6 6//6
f 8//7 16//7 15//7 7//7
f 9//8 17//8 16//8 8//8
f 2//9 10//9 17//9 9//9
f 11//10 19//10 18//10 10//10
f 12//11 20//11 19//11 11//11
f 13//12 21//12 20//12 12//12
f 14//13 22//13 21//13 13//13
f 15//14 23//14 22//14 14//14
f 16//15 24//15 23//15 15//15
f 17//16 25//16 24//16 16//16
f 10//17 18//17 25//17 17//17
f 19//18 27//18 26//18 18//18
f 20//19 28//19 27//19 19//19
f 21//20 29//20 28//20 20//20
f 22//21 30//21 29//21 21//21
f 23//22 31//22 30//22 22//22
f 24//23 32//23 31//23 23//23
f 25//24 33//24 32//24 24//24
f 18//25 26//25 33//25 25//25
