# Blender 4.4.1
# www.blender.org
o Hill_141
v -0.280866 0.000000 -0.920267
v -0.280866 9.833486 -0.920267
v -0.280866 9.833486 -0.920267
v -0.280866 9.833486 -0.920267
v -0.280866 9.833486 -0.920267
v -0.280866 9.833486 -0.920267
v -0.280866 9.833486 -0.920267
v -0.280866 9.833486 -0.920267
v -0.280866 9.833486 -0.920267
v 2.517073 8.085769 -0.920267
v 1.575117 8.118597 0.935715
v -0.280866 8.079595 1.780093
v -2.232511 7.857789 1.031378
v -2.758729 7.929754 -0.920267
v -2.238544 7.941736 -2.877946
v -0.280866 7.831235 -3.471845
v 1.635365 8.096102 -2.836497
v 5.033817 4.521287 -0.920267
v 3.862102 5.128029 3.222701
v -0.280866 4.627955 4.546544
v -3.968813 5.070583 2.767681
v -6.013505 4.421751 -0.920267
v -4.253215 4.542599 -4.892616
v -0.280866 4.816167 -6.282805
v 3.016339 4.261338 -4.217472
v 7.385489 0.249855 -0.920267
v 6.005901 -0.050116 5.366500
v -0.280866 0.843808 8.245700
v -6.842958 0.213899 5.641826
v -7.385489 -0.363486 -0.920267
v -6.115138 -0.099768 -6.754539
v -0.280866 0.299046 -8.245700
v 4.309980 -0.532045 -5.511112
vn -0.0000 1.0000 -0.0000
vn 0.5135 0.8221 0.2461
vn 0.2243 0.8173 0.5308
vn -0.2911 0.8023 0.5211
vn -0.5981 0.7785 0.1900
vn -0.6019 0.7834 -0.1551
vn -0.1414 0.7788 -0.6111
vn 0.0955 0.7831 -0.6145
vn 0.5152 0.8249 -0.2326
vn 0.7558 0.6236 0.1998
vn 0.2066 0.6482 0.7329
vn -0.3035 0.6117 0.7306
vn -0.7196 0.6429 0.2623
vn -0.7276 0.6325 -0.2656
vn -0.2616 0.6314 -0.7300
vn 0.4120 0.5346 -0.7379
vn 0.7562 0.4811 -0.4435
vn 0.8668 0.4574 0.1986
vn 0.3256 0.5698 0.7545
vn -0.3123 0.6388 0.7031
vn -0.8821 0.4392 0.1701
vn -0.8956 0.3591 -0.2627
vn -0.2824 0.4180 -0.8635
vn 0.5314 0.3445 -0.7739
vn 0.7536 0.3796 -0.5367
s 0
f 3//1 2//1 1//1
f 4//1 3//1 1//1
f 5//1 4//1 1//1
f 6//1 5//1 1//1
f 7//1 6//1 1//1
f 8//1 7//1 1//1
f 9//1 8//1 1//1
f 2//1 9//1 1//1
f 3//2 11//2 10//2 2//2
f 4//3 12//3 11//3 3//3
f 5//4 13//4 12//4 4//4
f 6//5 14//5 13//5 5//5
f 7//6 15//6 14//6 6//6
f 8//7 16//7 15//7 7//7
f 9//8 17//8 16//8 8//8
f 2//9 10//9 17//9 9//9
f 11//10 19//10 18//10 10//10
f 12//11 20//11 19//11 11//11
f 13//12 21//12 20//12 12//12
f 14//13 22//13 21//13 13//13
f 15//14 23//14 22//14 14//14
f 16//15 24//15 23//15 15//15
f 17//16 25//16 24//16 16//16
f 10//17 18//17 25//17 17//17
f 19//18 27//18 26//18 18//18
f 20//19 28//19 27//19 19//19
f 21//20 29//20 28//20 20//20
f 22//21 30//21 29//21 21//21
f 23//22 31//22 30//22 22//22
f 24//23 32//23 31//23 23//23
f 25//24 33//24 32//24 24//24
f 18//25 26//25 33//25 25//25
