# Blender 4.4.1
# www.blender.org
o Hill_270
v 1.021813 0.000000 0.489233
v 1.021813 8.593623 0.489233
v 1.021813 8.593623 0.489233
v 1.021813 8.593623 0.489233
v 1.021813 8.593623 0.489233
v 1.021813 8.593623 0.489233
v 1.021813 8.593623 0.489233
v 1.021813 8.593623 0.489233
v 1.021813 8.593623 0.489233
v 4.507511 7.075313 0.489233
v 3.570578 6.998641 3.037998
v 1.021813 7.018631 3.907762
v -1.479893 6.859163 2.990939
v -2.269406 7.001503 0.489233
v -1.432312 6.661788 -1.964892
v 1.021813 6.681095 -2.762165
v 3.407075 6.916690 -1.896030
v 7.432937 4.209343 0.489233
v 5.734395 4.366932 5.201815
v 1.021813 3.707706 6.623312
v -3.785645 3.449767 5.296690
v -5.369328 4.103626 0.489233
v -3.297571 4.016388 -3.830150
v 1.021813 3.503369 -6.507710
v 5.537494 3.366423 -4.026448
v 10.464582 -0.036247 0.489233
v 8.044710 0.195558 7.512130
v 1.021813 0.599628 11.421886
v -5.700350 -0.341521 7.211396
v -10.464582 -0.001896 0.489233
v -7.497126 -0.304028 -8.029705
v 1.021813 -0.843635 -11.421886
v 7.703636 -0.542798 -6.192590
vn -0.0000 1.0000 -0.0000
vn 0.3934 0.9032 0.1718
vn 0.1483 0.8982 0.4138
vn -0.2067 0.8886 0.4094
vn -0.4279 0.8846 0.1854
vn -0.4201 0.8684 -0.2635
vn -0.1690 0.8495 -0.4997
vn 0.0985 0.8578 -0.5045
vn 0.3879 0.8904 -0.2381
vn 0.6659 0.7085 0.2338
vn 0.1720 0.6618 0.7297
vn -0.2598 0.6336 0.7287
vn -0.6708 0.6817 0.2921
vn -0.6488 0.6895 -0.3221
vn -0.2792 0.7111 -0.6452
vn 0.3125 0.6791 -0.6642
vn 0.6607 0.6470 -0.3807
vn 0.7829 0.5671 0.2559
vn 0.2762 0.7149 0.6423
vn -0.3674 0.6990 0.6136
vn -0.6327 0.6599 0.4052
vn -0.5846 0.7709 -0.2528
vn -0.2282 0.7559 -0.6137
vn 0.4240 0.6511 -0.6295
vn 0.7340 0.5671 -0.3736
s 0
f 3//1 2//1 1//1
f 4//1 3//1 1//1
f 5//1 4//1 1//1
f 6//1 5//1 1//1
f 7//1 6//1 1//1
f 8//1 7//1 1//1
f 9//1 8//1 1//1
f 2//1 9//1 1//1
f 3//2 11//2 10//2 2//2
f 4//3 12//3 11//3 3//3
f 5//4 13//4 12//4 4//4
f 6//5 14//5 13//5 5//5
f 7//6 15//6 14//6 6//6
f 8//7 16//7 15//7 7//7
f 9//8 17//8 16//8 8//8
f 2//9 10//9 17//9 9//9
f 11//10 19//10 18//10 10//10
f 12//11 20//11 19//11 11//11
f 13//12 21//12 20//12 12//12
f 14//13 22//13 21//13 13//13
f 15//14 23//14 22//14 14//14
f 16//15 24//15 23//15 15//15
f 17//16 25//16 24//16 16//16
f 10//17 18//17 25//17 17//17
f 19//18 27//18 26//18 18//18
f 20//19 28//19 27//19 19//19
f 21//20 29//20 28//20 20//20
f 22//21 30//21 29//21 21//21
f 23//22 31//22 30//22 22//22
f 24//23 32//23 31//23 23//23
f 25//24 33//24 32//24 24//24
f 18//25 26//25 33//25 25//25
