# Blender 4.4.1
# www.blender.org
o Hill_099
v -0.137233 0.000000 -0.227797
v -0.137233 9.859263 -0.227797
v -0.137233 9.859263 -0.227797
v -0.137233 9.859263 -0.227797
v -0.137233 9.859263 -0.227797
v -0.137233 9.859263 -0.227797
v -0.137233 9.859263 -0.227797
v -0.137233 9.859263 -0.227797
v -0.137233 9.859263 -0.227797
v 2.557455 8.125687 -0.227797
v 1.646839 7.647918 1.556275
v -0.137233 7.802034 2.474681
v -1.976675 8.213538 1.611645
v -2.801128 7.918096 -0.227797
v -1.847730 7.759170 -1.938294
v -0.137233 7.832495 -2.695941
v 1.668834 8.194687 -2.033864
v 4.613139 4.885556 -0.227797
v 3.347239 4.456960 3.256674
v -0.137233 4.409671 5.225481
v -3.979968 4.858417 3.614938
v -4.932611 4.717929 -0.227797
v -3.843206 5.031200 -3.933771
v -0.137233 4.193732 -5.568888
v 3.378915 3.859884 -3.743945
v 7.248841 -0.730045 -0.227797
v 4.766928 0.195370 4.676363
v -0.137233 -0.358563 8.876280
v -4.942470 -0.950289 4.577439
v -7.248841 -0.860275 -0.227797
v -5.086341 0.418099 -5.176906
v -0.137233 0.173354 -8.876280
v 5.562390 -0.337676 -5.927420
vn -0.0000 1.0000 -0.0000
vn 0.4837 0.7518 0.4482
vn 0.3557 0.7437 0.5661
vn -0.1056 0.7912 0.6023
vn -0.5837 0.8010 0.1330
vn -0.5462 0.7495 -0.3741
vn -0.2998 0.7373 -0.6054
vn 0.0774 0.7705 -0.6327
vn 0.5268 0.8189 -0.2279
vn 0.7419 0.5388 0.3992
vn 0.3998 0.5820 0.7081
vn -0.2387 0.6057 0.7590
vn -0.7980 0.5663 0.2061
vn -0.7474 0.6094 -0.2645
vn -0.2351 0.6358 -0.7352
vn 0.3589 0.5218 -0.7739
vn 0.7824 0.4789 -0.3982
vn 0.8460 0.3983 0.3544
vn 0.4960 0.4831 0.7215
vn -0.5262 0.3797 0.7609
vn -0.8970 0.2867 0.3364
vn -0.8973 0.3467 -0.2734
vn -0.4199 0.4698 -0.7765
vn 0.4162 0.5790 -0.7011
vn 0.8299 0.4733 -0.2955
s 0
f 3//1 2//1 1//1
f 4//1 3//1 1//1
f 5//1 4//1 1//1
f 6//1 5//1 1//1
f 7//1 6//1 1//1
f 8//1 7//1 1//1
f 9//1 8//1 1//1
f 2//1 9//1 1//1
f 3//2 11//2 10//2 2//2
f 4//3 12//3 11//3 3//3
f 5//4 13//4 12//4 4//4
f 6//5 14//5 13//5 5//5
f 7//6 15//6 14//6 6//6
f 8//7 16//7 15//7 7//7
f 9//8 17//8 16//8 8//8
f 2//9 10//9 17//9 9//9
f 11//10 19//10 18//10 10//10
f 12//11 20//11 19//11 11//11
f 13//12 21//12 20//12 12//12
f 14//13 22//13 21//13 13//13
f 15//14 23//14 22//14 14//14
f 16//15 24//15 23//15 15//15
f 17//16 25//16 24//16 16//16
f 10//17 18//17 25//17 17//17
f 19//18 27//18 26//18 18//18
f 20//19 28//19 27//19 19//19
f 21//20 29//20 28//20 20//20
f 22//21 30//21 29//21 21//21
f 23//22 31//22 30//22 22//22
f 24//23 32//23 31//23 23//23
f 25//24 33//24 32//24 24//24
f 18//25 26//25 33//25 25//25
