# Blender 4.4.1
# www.blender.org
o Hill_233
v -0.144864 0.000000 -0.445224
v -0.144864 5.917835 -0.445224
v -0.144864 5.917835 -0.445224
v -0.144864 5.917835 -0.445224
v -0.144864 5.917835 -0.445224
v -0.144864 5.917835 -0.445224
v -0.144864 5.917835 -0.445224
v -0.144864 5.917835 -0.445224
v -0.144864 5.917835 -0.445224
v 2.310958 4.894510 -0.445224
v 1.438663 4.689598 1.138303
v -0.144864 4.807904 1.807138
v -1.804520 4.892593 1.214432
v -2.495514 4.840147 -0.445224
v -1.760897 4.909721 -2.061257
v -0.144864 4.634701 -2.745774
v 1.472061 4.685159 -2.062149
v 4.900499 2.572450 -0.445224
v 3.429827 3.061801 3.129467
v -0.144864 2.455288 4.019406
v -3.044339 2.961656 2.454251
v -4.962715 2.316856 -0.445224
v -3.188446 2.361128 -3.488806
v -0.144864 2.368648 -5.374722
v 2.888233 2.594578 -3.478321
v 5.976986 0.141066 -0.445224
v 4.053484 -0.239224 3.753124
v -0.144864 -0.488998 6.407891
v -5.242920 -0.139280 4.652832
v -5.724282 -0.536420 -0.445224
v -5.976986 0.511022 -6.277346
v -0.144864 -0.016743 -6.407891
v 3.862305 -0.118387 -4.452393
vn -0.0000 1.0000 -0.0000
vn 0.3651 0.8762 0.3145
vn 0.2459 0.8695 0.4285
vn -0.1114 0.8914 0.4393
vn -0.4125 0.8996 0.1433
vn -0.4121 0.8989 -0.1486
vn -0.0576 0.8719 -0.4863
vn 0.1759 0.8597 -0.4795
vn 0.3664 0.8794 -0.3040
vn 0.5803 0.7840 0.2203
vn 0.1255 0.7494 0.6501
vn -0.2544 0.6504 0.7157
vn -0.6922 0.6584 0.2955
vn -0.6900 0.6301 -0.3561
vn -0.3319 0.6634 -0.6706
vn 0.3149 0.6988 -0.6423
vn 0.6102 0.6829 -0.4017
vn 0.8755 0.3008 0.3781
vn 0.3331 0.4364 0.8358
vn -0.2350 0.6403 0.7312
vn -0.8492 0.4925 0.1906
vn -0.7803 0.6228 -0.0572
vn -0.1171 0.7067 -0.6978
vn 0.4343 0.4006 -0.8068
vn 0.7839 0.4021 -0.4731
s 0
f 3//1 2//1 1//1
f 4//1 3//1 1//1
f 5//1 4//1 1//1
f 6//1 5//1 1//1
f 7//1 6//1 1//1
f 8//1 7//1 1//1
f 9//1 8//1 1//1
f 2//1 9//1 1//1
f 3//2 11//2 10//2 2//2
f 4//3 12//3 11//3 3//3
f 5//4 13//4 12//4 4//4
f 6//5 14//5 13//5 5//5
f 7//6 15//6 14//6 6//6
f 8//7 16//7 15//7 7//7
f 9//8 17//8 16//8 8//8
f 2//9 10//9 17//9 9//9
f 11//10 19//10 18//10 10//10
f 12//11 20//11 19//11 11//11
f 13//12 21//12 20//12 12//12
f 14//13 22//13 21//13 13//13
f 15//14 23//14 22//14 14//14
f 16//15 24//15 23//15 15//15
f 17//16 25//16 24//16 16//16
f 10//17 18//17 25//17 17//17
f 19//18 27//18 26//18 18//18
f 20//19 28//19 27//19 19//19
f 21//20 29//20 28//20 20//20
f 22//21 30//21 29//21 21//21
f 23//22 31//22 30//22 22//22
f 24//23 32//23 31//23 23//23
f 25//24 33//24 32//24 24//24
f 18//25 26//25 33//25 25//25
