# Blender 4.4.1
# www.blender.org
o Hill_091
v -0.616737 0.000000 0.521781
v -0.616737 5.180375 0.521781
v -0.616737 5.180375 0.521781
v -0.616737 5.180375 0.521781
v -0.616737 5.180375 0.521781
v -0.616737 5.180375 0.521781
v -0.616737 5.180375 0.521781
v -0.616737 5.180375 0.521781
v -0.616737 5.180375 0.521781
v 3.144303 4.040059 0.521781
v 1.970981 4.260120 3.109499
v -0.616737 4.154187 4.537550
v -3.182817 4.297466 3.087861
v -4.551018 4.063174 0.521781
v -3.446616 4.284470 -2.308098
v -0.616737 4.219913 -3.200088
v 2.058154 4.122534 -2.153109
v 7.168887 2.031363 0.521781
v 4.539829 2.155163 5.678347
v -0.616737 2.468323 7.794029
v -6.062076 2.216341 5.967120
v -7.534696 2.683022 0.521781
v -6.193177 2.349035 -5.054659
v -0.616737 2.383471 -8.081877
v 4.496758 2.027067 -4.591713
v 11.009541 -0.110192 0.521781
v 7.195057 0.048262 8.333575
v -0.616737 -0.285894 10.338116
v -10.411994 -0.106355 10.317039
v -11.009541 -0.134875 0.521781
v -9.055438 0.147971 -7.916921
v -0.616737 0.320853 -10.338116
v 9.180585 -0.419207 -9.275540
vn -0.0000 1.0000 -0.0000
vn 0.2898 0.9558 0.0501
vn 0.0965 0.9643 0.2464
vn -0.0855 0.9653 0.2467
vn -0.2727 0.9604 0.0577
vn -0.2730 0.9615 -0.0314
vn -0.0566 0.9667 -0.2495
vn 0.1319 0.9598 -0.2477
vn 0.2890 0.9533 -0.0880
vn 0.4653 0.8645 0.1901
vn 0.2319 0.8589 0.4566
vn -0.1941 0.8740 0.4455
vn -0.4334 0.8832 0.1793
vn -0.4443 0.8847 -0.1411
vn -0.1761 0.9061 -0.3846
vn 0.2743 0.8823 -0.3825
vn 0.4643 0.8591 -0.2154
vn 0.4713 0.8553 0.2155
vn 0.1942 0.7641 0.6152
vn -0.0720 0.8243 0.5616
vn -0.5097 0.8552 0.0938
vn -0.5757 0.8058 -0.1383
vn -0.2244 0.8068 -0.5466
vn 0.1979 0.8776 -0.4366
vn 0.4075 0.9021 -0.1420
s 0
f 3//1 2//1 1//1
f 4//1 3//1 1//1
f 5//1 4//1 1//1
f 6//1 5//1 1//1
f 7//1 6//1 1//1
f 8//1 7//1 1//1
f 9//1 8//1 1//1
f 2//1 9//1 1//1
f 3//2 11//2 10//2 2//2
f 4//3 12//3 11//3 3//3
f 5//4 13//4 12//4 4//4
f 6//5 14//5 13//5 5//5
f 7//6 15//6 14//6 6//6
f 8//7 16//7 15//7 7//7
f 9//8 17//8 16//8 8//8
f 2//9 10//9 17//9 9//9
f 11//10 19//10 18//10 10//10
f 12//11 20//11 19//11 11//11
f 13//12 21//12 20//12 12//12
f 14//13 22//13 21//13 13//13
f 15//14 23//14 22//14 14//14
f 16//15 24//15 23//15 15//15
f 17//16 25//16 24//16 16//16
f 10//17 18//17 25//17 17//17
f 19//18 27//18 26//18 18//18
f 20//19 28//19 27//19 19//19
f 21//20 29//20 28//20 20//20
f 22//21 30//21 29//21 21//21
f 23//22 31//22 30//22 22//22
f 24//23 32//23 31//23 23//23
f 25//24 33//24 32//24 24//24
f 18//25 26//25 33//25 25//25
