# Blender 4.4.1
# www.blender.org
o Hill_179
v -0.202741 0.000000 0.276966
v -0.202741 8.458324 0.276966
v -0.202741 8.458324 0.276966
v -0.202741 8.458324 0.276966
v -0.202741 8.458324 0.276966
v -0.202741 8.458324 0.276966
v -0.202741 8.458324 0.276966
v -0.202741 8.458324 0.276966
v -0.202741 8.458324 0.276966
v 1.772568 7.065813 0.276966
v 1.183755 6.860424 1.663462
v -0.202741 6.915032 2.425663
v -1.667023 6.596535 1.741249
v -2.238096 6.575284 0.276966
v -1.636637 6.786051 -1.156931
v -0.202741 7.031384 -1.823632
v 1.261611 6.658526 -1.187386
v 3.655677 4.267362 0.276966
v 2.739718 4.228683 3.219425
v -0.202741 3.329632 4.656559
v -2.846143 4.162186 2.920368
v -3.744158 4.232341 0.276966
v -3.003834 3.495991 -2.524127
v -0.202741 4.210100 -3.647283
v 3.011648 4.364511 -2.937423
v 6.110358 -0.105670 0.276966
v 3.375165 -0.812769 3.854872
v -0.202741 -0.108416 6.835691
v -5.329256 0.284947 5.403481
v -6.110358 -0.690153 0.276966
v -3.674594 0.249190 -3.194887
v -0.202741 -0.339871 -6.835691
v 3.395876 -0.693081 -3.321651
vn -0.0000 1.0000 -0.0000
vn 0.5411 0.7676 0.3435
vn 0.3326 0.7660 0.5502
vn -0.4099 0.7409 0.5321
vn -0.6582 0.7114 0.2464
vn -0.6687 0.7228 -0.1743
vn -0.3736 0.7673 -0.5212
vn 0.4140 0.7530 -0.5115
vn 0.5296 0.7513 -0.3938
vn 0.7654 0.5702 0.2982
vn 0.2906 0.5497 0.7831
vn -0.3882 0.5106 0.7672
vn -0.8009 0.5224 0.2927
vn -0.8111 0.4909 -0.3179
vn -0.4311 0.4915 -0.7567
vn 0.2452 0.6102 -0.7533
vn 0.7542 0.6161 -0.2270
vn 0.8169 0.3013 0.4919
vn 0.5284 0.3029 0.7932
vn -0.2286 0.5772 0.7839
vn -0.8535 0.5058 0.1255
vn -0.8413 0.3468 -0.4147
vn -0.5578 0.4062 -0.7238
vn 0.5062 0.3183 -0.8015
vn 0.8543 0.2751 -0.4409
s 0
f 3//1 2//1 1//1
f 4//1 3//1 1//1
f 5//1 4//1 1//1
f 6//1 5//1 1//1
f 7//1 6//1 1//1
f 8//1 7//1 1//1
f 9//1 8//1 1//1
f 2//1 9//1 1//1
f 3//2 11//2 10//2 2//2
f 4//3 12//3 11//3 3//3
f 5//4 13//4 12//4 4//4
f 6//5 14//5 13//5 5//5
f 7//6 15//6 14//6 6//6
f 8//7 16//7 15//7 7//7
f 9//8 17//8 16//8 8//8
f 2//9 10//9 17//9 9//9
f 11//10 19//10 18//10 10//10
f 12//11 20//11 19//11 11//11
f 13//12 21//12 20//12 12//12
f 14//13 22//13 21//13 13//13
f 15//14 23//14 22//14 14//14
f 16//15 24//15 23//15 15//15
f 17//16 25//16 24//16 16//16
f 10//17 18//17 25//17 17//17
f 19//18 27//18 26//18 18//18
f 20//19 28//19 27//19 19//19
f 21//20 29//20 28//20 20//20
f 22//21 30//21 29//21 21//21
f 23//22 31//22 30//22 22//22
f 24//23 32//23 31//23 23//23
f 25//24 33//24 32//24 24//24
f 18//25 26//25 33//25 25//25
