# Blender 4.4.1
# www.blender.org
o Hill_205
v 0.327336 0.000000 0.651027
v 0.327336 7.779050 0.651027
v 0.327336 7.779050 0.651027
v 0.327336 7.779050 0.651027
v 0.327336 7.779050 0.651027
v 0.327336 7.779050 0.651027
v 0.327336 7.779050 0.651027
v 0.327336 7.779050 0.651027
v 0.327336 7.779050 0.651027
v 2.766083 6.114480 0.651027
v 1.982286 6.151196 2.305978
v 0.327336 6.523190 3.022020
v -1.250757 6.527347 2.229119
v -1.929921 6.366931 0.651027
v -1.402256 6.126974 -1.078565
v 0.327336 6.338382 -1.617449
v 1.903317 6.303008 -0.924955
v 5.046751 4.033006 0.651027
v 3.523478 3.219855 3.847169
v 0.327336 3.781490 5.658110
v -2.614820 3.520682 3.593182
v -4.643422 3.818757 0.651027
v -3.394179 3.046589 -3.070488
v 0.327336 3.526291 -4.626674
v 3.555725 3.700919 -2.577363
v 7.172195 0.200932 0.651027
v 5.062973 0.127578 5.386664
v 0.327336 0.620541 6.319844
v -4.743944 -0.621622 5.722306
v -7.172195 -0.363436 0.651027
v -5.207668 0.188517 -4.883976
v 0.327336 -0.086200 -6.319844
v 5.141928 -0.061230 -4.163566
vn -0.0000 1.0000 -0.0000
vn 0.5471 0.8015 0.2413
vn 0.3723 0.8202 0.4344
vn -0.2268 0.8607 0.4559
vn -0.5251 0.8393 0.1407
vn -0.5108 0.8165 -0.2691
vn -0.2609 0.8149 -0.5175
vn 0.2467 0.8181 -0.5195
vn 0.5517 0.8083 -0.2053
vn 0.6582 0.6290 0.4137
vn 0.4564 0.6046 0.6528
vn -0.4592 0.5782 0.6744
vn -0.6773 0.6013 0.4240
vn -0.6591 0.6711 -0.3394
vn -0.3382 0.6728 -0.6580
vn 0.3532 0.6700 -0.6530
vn 0.6568 0.6721 -0.3419
vn 0.7669 0.4964 0.4067
vn 0.3470 0.3863 0.8546
vn -0.3562 0.4224 0.8335
vn -0.7298 0.5214 0.4421
vn -0.7815 0.5553 -0.2845
vn -0.2737 0.5164 -0.8114
vn 0.4068 0.4428 -0.7990
vn 0.7958 0.4690 -0.3831
s 0
f 3//1 2//1 1//1
f 4//1 3//1 1//1
f 5//1 4//1 1//1
f 6//1 5//1 1//1
f 7//1 6//1 1//1
f 8//1 7//1 1//1
f 9//1 8//1 1//1
f 2//1 9//1 1//1
f 3//2 11//2 10//2 2//2
f 4//3 12//3 11//3 3//3
f 5//4 13//4 12//4 4//4
f 6//5 14//5 13//5 5//5
f 7//6 15//6 14//6 6//6
f 8//7 16//7 15//7 7//7
f 9//8 17//8 16//8 8//8
f 2//9 10//9 17//9 9//9
f 11//10 19//10 18//10 10//10
f 12//11 20//11 19//11 11//11
f 13//12 21//12 20//12 12//12
f 14//13 22//13 21//13 13//13
f 15//14 23//14 22//14 14//14
f 16//15 24//15 23//15 15//15
f 17//16 25//16 24//16 16//16
f 10//17 18//17 25//17 17//17
f 19//18 27//18 26//18 18//18
f 20//19 28//19 27//19 19//19
f 21//20 29//20 28//20 20//20
f 22//21 30//21 29//21 21//21
f 23//22 31//22 30//22 22//22
f 24//23 32//23 31//23 23//23
f 25//24 33//24 32//24 24//24
f 18//25 26//25 33//25 25//25
