# Blender 4.4.1
# www.blender.org
o Hill_134
v 0.068264 0.000000 0.229632
v 0.068264 9.908484 0.229632
v 0.068264 9.908484 0.229632
v 0.068264 9.908484 0.229632
v 0.068264 9.908484 0.229632
v 0.068264 9.908484 0.229632
v 0.068264 9.908484 0.229632
v 0.068264 9.908484 0.229632
v 0.068264 9.908484 0.229632
v 3.072659 8.045567 0.229632
v 1.955395 7.894323 2.116763
v 0.068264 7.854403 3.132394
v -1.931921 7.823565 2.229818
v -2.832195 8.048242 0.229632
v -1.888022 8.036351 -1.726653
v 0.068264 7.771522 -2.755520
v 2.101806 7.880525 -1.803910
v 5.352490 4.918871 0.229632
v 4.456533 4.122799 4.617901
v 0.068264 5.115407 6.117568
v -3.529664 4.832662 3.827561
v -6.371530 4.210770 0.229632
v -3.955103 3.980833 -3.793735
v 0.068264 4.146358 -6.007175
v 4.062825 4.073258 -3.764929
v 7.515904 -0.554198 0.229632
v 5.174251 -0.517677 5.335619
v 0.068264 0.157818 8.139682
v -6.230588 -0.224520 6.528484
v -7.515904 -0.791952 0.229632
v -4.976206 0.420962 -4.814837
v 0.068264 0.473951 -8.139682
v 5.845609 0.228000 -5.547712
vn -0.0000 1.0000 -0.0000
vn 0.4926 0.7944 0.3553
vn 0.2817 0.7832 0.5542
vn -0.2636 0.7874 0.5572
vn -0.5115 0.7975 0.3198
vn -0.5218 0.8135 -0.2568
vn -0.1924 0.7979 -0.5712
vn 0.2230 0.7926 -0.5674
vn 0.5018 0.8093 -0.3053
vn 0.7187 0.6154 0.3235
vn 0.3598 0.6782 0.6408
vn -0.4085 0.6369 0.6538
vn -0.6796 0.6075 0.4112
vn -0.6888 0.5970 -0.4113
vn -0.3759 0.5938 -0.7114
vn 0.3729 0.5967 -0.7105
vn 0.7415 0.5586 -0.3717
vn 0.9015 0.2802 0.3298
vn 0.4367 0.2770 0.8559
vn -0.3501 0.4751 0.8072
vn -0.8580 0.4108 0.3084
vn -0.8571 0.2691 -0.4393
vn -0.4834 0.4064 -0.7754
vn 0.3979 0.4962 -0.7716
vn 0.8684 0.4186 -0.2658
s 0
f 3//1 2//1 1//1
f 4//1 3//1 1//1
f 5//1 4//1 1//1
f 6//1 5//1 1//1
f 7//1 6//1 1//1
f 8//1 7//1 1//1
f 9//1 8//1 1//1
f 2//1 9//1 1//1
f 3//2 11//2 10//2 2//2
f 4//3 12//3 11//3 3//3
f 5//4 13//4 12//4 4//4
f 6//5 14//5 13//5 5//5
f 7//6 15//6 14//6 6//6
f 8//7 16//7 15//7 7//7
f 9//8 17//8 16//8 8//8
f 2//9 10//9 17//9 9//9
f 11//10 19//10 18//10 10//10
f 12//11 20//11 19//11 11//11
f 13//12 21//12 20//12 12//12
f 14//13 22//13 21//13 13//13
f 15//14 23//14 22//14 14//14
f 16//15 24//15 23//15 15//15
f 17//16 25//16 24//16 16//16
f 10//17 18//17 25//17 17//17
f 19//18 27//18 26//18 18//18
f 20//19 28//19 27//19 19//19
f 21//20 29//20 28//20 20//20
f 22//21 30//21 29//21 21//21
f 23//22 31//22 30//22 22//22
f 24//23 32//23 31//23 23//23
f 25//24 33//24 32//24 24//24
f 18//25 26//25 33//25 25//25
