# Blender 4.4.1
# www.blender.org
o Hill_253
v 0.353896 0.000000 -0.300309
v 0.353896 5.227910 -0.300309
v 0.353896 5.227910 -0.300309
v 0.353896 5.227910 -0.300309
v 0.353896 5.227910 -0.300309
v 0.353896 5.227910 -0.300309
v 0.353896 5.227910 -0.300309
v 0.353896 5.227910 -0.300309
v 0.353896 5.227910 -0.300309
v 3.062386 4.280341 -0.300309
v 2.215855 4.315955 1.561649
v 0.353896 4.334607 2.567920
v -1.631142 4.216497 1.684729
v -2.591940 4.333769 -0.300309
v -1.657755 4.217259 -2.311960
v 0.353896 4.164861 -3.244668
v 2.253226 4.141192 -2.199639
v 5.550744 2.304991 -0.300309
v 4.092942 2.042858 3.438737
v 0.353896 2.063110 5.058807
v -3.315412 2.558907 3.368999
v -5.095147 2.515544 -0.300309
v -3.415796 2.388776 -4.070002
v 0.353896 2.433107 -6.659662
v 4.335071 2.479197 -4.281484
v 7.866203 -0.260125 -0.300309
v 5.178537 -0.170657 4.524332
v 0.353896 0.273177 9.258797
v -4.533642 0.165057 4.587229
v -7.866203 -0.346521 -0.300309
v -5.900217 -0.240207 -6.554422
v 0.353896 0.322815 -9.258797
v 5.239374 -0.278890 -5.185787
vn -0.0000 1.0000 -0.0000
vn 0.3274 0.9358 0.1309
vn 0.1679 0.9412 0.2931
vn -0.1858 0.9381 0.2922
vn -0.2850 0.9388 0.1934
vn -0.2853 0.9400 -0.1869
vn -0.1318 0.9324 -0.3366
vn 0.1948 0.9226 -0.3331
vn 0.3232 0.9238 -0.2054
vn 0.6054 0.7454 0.2792
vn 0.2976 0.7226 0.6239
vn -0.2300 0.7533 0.6161
vn -0.5461 0.7912 0.2750
vn -0.5535 0.7833 -0.2832
vn -0.2880 0.8318 -0.4746
vn 0.2515 0.8632 -0.4377
vn 0.5580 0.8084 -0.1873
vn 0.7194 0.5939 0.3602
vn 0.4095 0.7658 0.4959
vn -0.3522 0.7774 0.5211
vn -0.6945 0.6140 0.3751
vn -0.6463 0.7255 -0.2365
vn -0.3363 0.7652 -0.5490
vn 0.5090 0.5631 -0.6511
vn 0.7820 0.5290 -0.3296
s 0
f 3//1 2//1 1//1
f 4//1 3//1 1//1
f 5//1 4//1 1//1
f 6//1 5//1 1//1
f 7//1 6//1 1//1
f 8//1 7//1 1//1
f 9//1 8//1 1//1
f 2//1 9//1 1//1
f 3//2 11//2 10//2 2//2
f 4//3 12//3 11//3 3//3
f 5//4 13//4 12//4 4//4
f 6//5 14//5 13//5 5//5
f 7//6 15//6 14//6 6//6
f 8//7 16//7 15//7 7//7
f 9//8 17//8 16//8 8//8
f 2//9 10//9 17//9 9//9
f 11//10 19//10 18//10 10//10
f 12//11 20//11 19//11 11//11
f 13//12 21//12 20//12 12//12
f 14//13 22//13 21//13 13//13
f 15//14 23//14 22//14 14//14
f 16//15 24//15 23//15 15//15
f 17//16 25//16 24//16 16//16
f 10//17 18//17 25//17 17//17
f 19//18 27//18 26//18 18//18
f 20//19 28//19 27//19 19//19
f 21//20 29//20 28//20 20//20
f 22//21 30//21 29//21 21//21
f 23//22 31//22 30//22 22//22
f 24//23 32//23 31//23 23//23
f 25//24 33//24 32//24 24//24
f 18//25 26//25 33//25 25//25
