# Blender 4.4.1
# www.blender.org
o Hill_115
v -1.232062 0.000000 -0.134987
v -1.232062 7.870015 -0.134987
v -1.232062 7.870015 -0.134987
v -1.232062 7.870015 -0.134987
v -1.232062 7.870015 -0.134987
v -1.232062 7.870015 -0.134987
v -1.232062 7.870015 -0.134987
v -1.232062 7.870015 -0.134987
v -1.232062 7.870015 -0.134987
v 2.577052 6.487549 -0.134987
v 1.528964 6.103799 2.626040
v -1.232062 6.608325 3.812402
v -3.822550 6.288874 2.455501
v -4.952323 6.598665 -0.134987
v -3.995016 6.095541 -2.897941
v -1.232062 6.107605 -3.967471
v 1.668882 6.388675 -3.035930
v 7.298516 4.064315 -0.134987
v 3.815204 3.712957 4.912279
v -1.232062 3.290601 6.989026
v -6.509440 3.976576 5.142392
v -9.873193 3.690759 -0.134987
v -6.845198 3.996870 -5.748123
v -1.232062 3.984524 -8.347972
v 3.799072 3.217647 -5.166120
v 11.934770 -0.739244 -0.134987
v 5.501441 0.059167 6.598516
v -1.232062 0.693669 13.681248
v -10.503477 -0.296439 9.136429
v -11.934770 -0.237589 -0.134987
v -8.433371 0.029102 -7.336295
v -1.232062 -0.003697 -13.681248
v 7.366584 0.782818 -8.733632
vn -0.0000 1.0000 -0.0000
vn 0.3302 0.9097 0.2518
vn 0.2916 0.9111 0.2912
vn -0.2669 0.9180 0.2934
vn -0.3134 0.9171 0.2464
vn -0.3110 0.9102 -0.2735
vn -0.1635 0.8963 -0.4122
vn 0.0461 0.9076 -0.4174
vn 0.3379 0.9311 -0.1375
vn 0.4542 0.8231 0.3410
vn 0.2740 0.7199 0.6376
vn -0.2182 0.7520 0.6220
vn -0.4762 0.8354 0.2745
vn -0.4621 0.8538 -0.2399
vn -0.1916 0.8786 -0.4375
vn 0.3234 0.7832 -0.5311
vn 0.5127 0.7714 -0.3769
vn 0.6354 0.5773 0.5129
vn 0.3990 0.7716 0.4954
vn -0.2230 0.8558 0.4668
vn -0.7263 0.6480 0.2293
vn -0.8037 0.4498 -0.3894
vn -0.4393 0.6379 -0.6325
vn 0.2866 0.8277 -0.4824
vn 0.5583 0.7766 -0.2920
s 0
f 3//1 2//1 1//1
f 4//1 3//1 1//1
f 5//1 4//1 1//1
f 6//1 5//1 1//1
f 7//1 6//1 1//1
f 8//1 7//1 1//1
f 9//1 8//1 1//1
f 2//1 9//1 1//1
f 3//2 11//2 10//2 2//2
f 4//3 12//3 11//3 3//3
f 5//4 13//4 12//4 4//4
f 6//5 14//5 13//5 5//5
f 7//6 15//6 14//6 6//6
f 8//7 16//7 15//7 7//7
f 9//8 17//8 16//8 8//8
f 2//9 10//9 17//9 9//9
f 11//10 19//10 18//10 10//10
f 12//11 20//11 19//11 11//11
f 13//12 21//12 20//12 12//12
f 14//13 22//13 21//13 13//13
f 15//14 23//14 22//14 14//14
f 16//15 24//15 23//15 15//15
f 17//16 25//16 24//16 16//16
f 10//17 18//17 25//17 17//17
f 19//18 27//18 26//18 18//18
f 20//19 28//19 27//19 19//19
f 21//20 29//20 28//20 20//20
f 22//21 30//21 29//21 21//21
f 23//22 31//22 30//22 22//22
f 24//23 32//23 31//23 23//23
f 25//24 33//24 32//24 24//24
f 18//25 26//25 33//25 25//25
