# Blender 4.4.1
# www.blender.org
o Hill_080
v -0.345916 0.000000 0.092270
v -0.345916 6.963296 0.092270
v -0.345916 6.963296 0.092270
v -0.345916 6.963296 0.092270
v -0.345916 6.963296 0.092270
v -0.345916 6.963296 0.092270
v -0.345916 6.963296 0.092270
v -0.345916 6.963296 0.092270
v -0.345916 6.963296 0.092270
v 3.246396 5.734327 0.092270
v 1.988558 5.486295 2.426744
v -0.345916 5.734819 3.436372
v -2.826780 5.494873 2.573135
v -3.938820 5.786734 0.092270
v -2.762432 5.535421 -2.324246
v -0.345916 5.394094 -3.647370
v 2.131523 5.710378 -2.385169
v 5.954022 2.708771 0.092270
v 4.756336 2.821111 5.194522
v -0.345916 2.898412 6.358796
v -5.275990 3.481874 5.022344
v -7.262060 2.760409 0.092270
v -4.810048 3.084345 -4.371862
v -0.345916 3.470310 -7.832850
v 5.071345 3.216334 -5.324991
v 11.541298 0.252518 0.092270
v 8.171701 0.163162 8.609888
v -0.345916 0.189676 10.339301
v -6.854245 0.443632 6.600600
v -11.541298 -0.458498 0.092270
v -8.513068 0.065011 -8.074882
v -0.345916 -0.292408 -10.339301
v 7.600413 0.639358 -7.854058
vn -0.0000 1.0000 -0.0000
vn 0.3121 0.9123 0.2651
vn 0.2417 0.9108 0.3346
vn -0.2062 0.9185 0.3374
vn -0.3018 0.9217 0.2437
vn -0.3019 0.9219 -0.2428
vn -0.1560 0.9108 -0.3822
vn 0.0792 0.9192 -0.3857
vn 0.3199 0.9350 -0.1530
vn 0.6446 0.7303 0.2262
vn 0.2150 0.7523 0.6228
vn -0.1497 0.7669 0.6241
vn -0.5936 0.7787 0.2030
vn -0.6153 0.7218 -0.3169
vn -0.3483 0.8172 -0.4592
vn 0.2088 0.8674 -0.4516
vn 0.6606 0.7408 -0.1218
vn 0.4455 0.8830 0.1479
vn 0.1222 0.8293 0.5453
vn -0.2424 0.7081 0.6632
vn -0.6618 0.6922 0.2879
vn -0.5507 0.8141 -0.1843
vn -0.2847 0.7273 -0.6245
vn 0.2333 0.6602 -0.7140
vn 0.4956 0.8601 -0.1213
s 0
f 3//1 2//1 1//1
f 4//1 3//1 1//1
f 5//1 4//1 1//1
f 6//1 5//1 1//1
f 7//1 6//1 1//1
f 8//1 7//1 1//1
f 9//1 8//1 1//1
f 2//1 9//1 1//1
f 3//2 11//2 10//2 2//2
f 4//3 12//3 11//3 3//3
f 5//4 13//4 12//4 4//4
f 6//5 14//5 13//5 5//5
f 7//6 15//6 14//6 6//6
f 8//7 16//7 15//7 7//7
f 9//8 17//8 16//8 8//8
f 2//9 10//9 17//9 9//9
f 11//10 19//10 18//10 10//10
f 12//11 20//11 19//11 11//11
f 13//12 21//12 20//12 12//12
f 14//13 22//13 21//13 13//13
f 15//14 23//14 22//14 14//14
f 16//15 24//15 23//15 15//15
f 17//16 25//16 24//16 16//16
f 10//17 18//17 25//17 17//17
f 19//18 27//18 26//18 18//18
f 20//19 28//19 27//19 19//19
f 21//20 29//20 28//20 20//20
f 22//21 30//21 29//21 21//21
f 23//22 31//22 30//22 22//22
f 24//23 32//23 31//23 23//23
f 25//24 33//24 32//24 24//24
f 18//25 26//25 33//25 25//25
