# Blender 4.4.1
# www.blender.org
o Hill_264
v 1.851021 0.000000 0.373748
v 1.851021 6.433096 0.373748
v 1.851021 6.433096 0.373748
v 1.851021 6.433096 0.373748
v 1.851021 6.433096 0.373748
v 1.851021 6.433096 0.373748
v 1.851021 6.433096 0.373748
v 1.851021 6.433096 0.373748
v 1.851021 6.433096 0.373748
v 5.522464 5.349631 0.373748
v 4.658446 5.195086 3.181173
v 1.851021 5.365282 4.047946
v -0.898403 5.064983 3.123171
v -2.009642 4.993144 0.373748
v -0.718353 5.326454 -2.195626
v 1.851021 5.143384 -3.493164
v 4.584443 5.051822 -2.359674
v 10.294913 2.505977 0.373748
v 6.746640 2.962503 5.269367
v 1.851021 2.915900 7.976406
v -3.715517 3.112843 5.940285
v -6.025477 2.622520 0.373748
v -3.976035 2.994699 -5.453308
v 1.851021 3.342404 -6.596073
v 8.039721 2.844071 -5.814953
v 12.078716 0.345089 0.373748
v 11.014332 -0.074596 9.537059
v 1.851021 0.183272 10.543164
v -7.494474 0.319937 9.719243
v -12.078716 0.170908 0.373748
v -6.013697 0.260581 -7.490970
v 1.851021 -0.121638 -10.543164
v 11.456080 -0.397237 -9.231312
vn -0.0000 1.0000 -0.0000
vn 0.2803 0.9499 0.1386
vn 0.1429 0.9504 0.2762
vn -0.1949 0.9418 0.2737
vn -0.3471 0.9306 0.1160
vn -0.3490 0.9356 -0.0540
vn -0.0918 0.9446 -0.3151
vn 0.1609 0.9363 -0.3123
vn 0.2775 0.9402 -0.1976
vn 0.5198 0.8119 0.2659
vn 0.2610 0.8037 0.5348
vn -0.1825 0.8566 0.4827
vn -0.4867 0.8619 0.1420
vn -0.4981 0.8579 -0.1261
vn -0.1566 0.8629 -0.4805
vn 0.1555 0.8772 -0.4543
vn 0.4657 0.8699 -0.1627
vn 0.5633 0.8058 0.1827
vn 0.1638 0.8018 0.5746
vn -0.1012 0.7793 0.6184
vn -0.4180 0.8952 0.1549
vn -0.4759 0.8421 -0.2536
vn -0.2035 0.7139 -0.6701
vn 0.1217 0.7613 -0.6368
vn 0.6675 0.7313 -0.1403
s 0
f 3//1 2//1 1//1
f 4//1 3//1 1//1
f 5//1 4//1 1//1
f 6//1 5//1 1//1
f 7//1 6//1 1//1
f 8//1 7//1 1//1
f 9//1 8//1 1//1
f 2//1 9//1 1//1
f 3//2 11//2 10//2 2//2
f 4//3 12//3 11//3 3//3
f 5//4 13//4 12//4 4//4
f 6//5 14//5 13//5 5//5
f 7//6 15//6 14//6 6//6
f 8//7 16//7 15//7 7//7
f 9//8 17//8 16//8 8//8
f 2//9 10//9 17//9 9//9
f 11//10 19//10 18//10 10//10
f 12//11 20//11 19//11 11//11
f 13//12 21//12 20//12 12//12
f 14//13 22//13 21//13 13//13
f 15//14 23//14 22//14 14//14
f 16//15 24//15 23//15 15//15
f 17//16 25//16 24//16 16//16
f 10//17 18//17 25//17 17//17
f 19//18 27//18 26//18 18//18
f 20//19 28//19 27//19 19//19
f 21//20 29//20 28//20 20//20
f 22//21 30//21 29//21 21//21
f 23//22 31//22 30//22 22//22
f 24//23 32//23 31//23 23//23
f 25//24 33//24 32//24 24//24
f 18//25 26//25 33//25 25//25
