# Blender 4.4.1
# www.blender.org
o Hill_193
v -0.650998 0.000000 -0.766419
v -0.650998 9.279726 -0.766419
v -0.650998 9.279726 -0.766419
v -0.650998 9.279726 -0.766419
v -0.650998 9.279726 -0.766419
v -0.650998 9.279726 -0.766419
v -0.650998 9.279726 -0.766419
v -0.650998 9.279726 -0.766419
v -0.650998 9.279726 -0.766419
v 2.851191 7.185399 -0.766419
v 1.745892 7.477560 1.630471
v -0.650998 7.737838 2.775161
v -3.200227 7.668213 1.782810
v -3.977146 7.324727 -0.766419
v -3.068471 7.498343 -3.183891
v -0.650998 7.474999 -4.436202
v 1.657370 7.214804 -3.074787
v 7.130723 3.666208 -0.766419
v 3.824623 4.361040 3.709202
v -0.650998 3.759292 6.668742
v -5.540961 3.805816 4.123543
v -8.207003 4.081409 -0.766419
v -5.011043 4.217833 -5.126463
v -0.650998 3.733288 -7.037962
v 4.420127 4.787927 -5.837544
v 11.697178 -0.515468 -0.766419
v 8.028516 0.329933 7.913095
v -0.650998 -0.588548 10.138482
v -6.772707 0.666340 5.355289
v -11.697178 0.634389 -0.766419
v -7.783698 0.385019 -7.899118
v -0.650998 0.667267 -10.138482
v 7.491251 -0.039947 -8.908668
vn -0.0000 1.0000 -0.0000
vn 0.5088 0.8509 0.1309
vn 0.2787 0.8805 0.3834
vn -0.1776 0.9023 0.3928
vn -0.5063 0.8615 0.0382
vn -0.5026 0.8551 -0.1275
vn -0.2148 0.8764 -0.4310
vn 0.3399 0.8439 -0.4150
vn 0.4974 0.8317 -0.2466
vn 0.6371 0.7068 0.3075
vn 0.3606 0.6602 0.6588
vn -0.3295 0.6459 0.6887
vn -0.6511 0.6993 0.2950
vn -0.6271 0.6969 -0.3479
vn -0.3101 0.5755 -0.7567
vn 0.1704 0.6890 -0.7045
vn 0.5891 0.7856 -0.1891
vn 0.6038 0.7630 0.2308
vn 0.1845 0.7125 0.6770
vn -0.4253 0.5304 0.7333
vn -0.6707 0.5697 0.4750
vn -0.6194 0.6814 -0.3899
vn -0.2374 0.6833 -0.6905
vn 0.1226 0.6404 -0.7582
vn 0.6844 0.6745 -0.2767
s 0
f 3//1 2//1 1//1
f 4//1 3//1 1//1
f 5//1 4//1 1//1
f 6//1 5//1 1//1
f 7//1 6//1 1//1
f 8//1 7//1 1//1
f 9//1 8//1 1//1
f 2//1 9//1 1//1
f 3//2 11//2 10//2 2//2
f 4//3 12//3 11//3 3//3
f 5//4 13//4 12//4 4//4
f 6//5 14//5 13//5 5//5
f 7//6 15//6 14//6 6//6
f 8//7 16//7 15//7 7//7
f 9//8 17//8 16//8 8//8
f 2//9 10//9 17//9 9//9
f 11//10 19//10 18//10 10//10
f 12//11 20//11 19//11 11//11
f 13//12 21//12 20//12 12//12
f 14//13 22//13 21//13 13//13
f 15//14 23//14 22//14 14//14
f 16//15 24//15 23//15 15//15
f 17//16 25//16 24//16 16//16
f 10//17 18//17 25//17 17//17
f 19//18 27//18 26//18 18//18
f 20//19 28//19 27//19 19//19
f 21//20 29//20 28//20 20//20
f 22//21 30//21 29//21 21//21
f 23//22 31//22 30//22 22//22
f 24//23 32//23 31//23 23//23
f 25//24 33//24 32//24 24//24
f 18//25 26//25 33//25 25//25
