# Blender 4.4.1
# www.blender.org
o Hill_186
v 0.750984 0.000000 -0.033502
v 0.750984 6.062583 -0.033502
v 0.750984 6.062583 -0.033502
v 0.750984 6.062583 -0.033502
v 0.750984 6.062583 -0.033502
v 0.750984 6.062583 -0.033502
v 0.750984 6.062583 -0.033502
v 0.750984 6.062583 -0.033502
v 0.750984 6.062583 -0.033502
v 2.964613 4.706665 -0.033502
v 2.175170 5.055499 1.390684
v 0.750984 4.967282 2.089869
v -0.737197 4.696023 1.454680
v -1.470391 4.912415 -0.033502
v -0.849953 4.900056 -1.634439
v 0.750984 4.754971 -2.105724
v 2.349762 4.729475 -1.632280
v 4.919569 2.536149 -0.033502
v 3.491054 3.108113 2.706568
v 0.750984 2.906689 4.008063
v -2.653942 3.104888 3.371425
v -3.490792 2.968042 -0.033502
v -2.684963 2.808189 -3.469450
v 0.750984 2.723041 -4.876643
v 4.074603 3.054104 -3.357121
v 6.126690 0.113272 -0.033502
v 5.473238 -0.092760 4.688751
v 0.750984 -0.549966 5.547579
v -4.626104 -0.314928 5.343587
v -6.126690 0.463552 -0.033502
v -4.342230 0.466509 -5.126717
v 0.750984 -0.157574 -5.547579
v 5.340440 -0.512000 -4.622958
vn -0.0000 1.0000 -0.0000
vn 0.5206 0.8500 0.0804
vn 0.1676 0.8762 0.4519
vn -0.3368 0.8368 0.4317
vn -0.4332 0.8367 0.3351
vn -0.4521 0.8732 -0.1820
vn -0.0802 0.8430 -0.5319
vn 0.1690 0.8335 -0.5260
vn 0.5133 0.8380 -0.1854
vn 0.7212 0.6497 0.2405
vn 0.2889 0.6568 0.6965
vn -0.1754 0.7553 0.6315
vn -0.5971 0.7757 0.2042
vn -0.6572 0.7236 -0.2108
vn -0.1927 0.7680 -0.6108
vn 0.1863 0.7919 -0.5815
vn 0.6881 0.7147 -0.1256
vn 0.8195 0.5361 0.2024
vn 0.1989 0.5039 0.8406
vn -0.0613 0.4678 0.8817
vn -0.7258 0.6446 0.2403
vn -0.6908 0.6880 -0.2224
vn -0.1526 0.4424 -0.8837
vn 0.2799 0.3262 -0.9029
vn 0.8928 0.4087 -0.1896
s 0
f 3//1 2//1 1//1
f 4//1 3//1 1//1
f 5//1 4//1 1//1
f 6//1 5//1 1//1
f 7//1 6//1 1//1
f 8//1 7//1 1//1
f 9//1 8//1 1//1
f 2//1 9//1 1//1
f 3//2 11//2 10//2 2//2
f 4//3 12//3 11//3 3//3
f 5//4 13//4 12//4 4//4
f 6//5 14//5 13//5 5//5
f 7//6 15//6 14//6 6//6
f 8//7 16//7 15//7 7//7
f 9//8 17//8 16//8 8//8
f 2//9 10//9 17//9 9//9
f 11//10 19//10 18//10 10//10
f 12//11 20//11 19//11 11//11
f 13//12 21//12 20//12 12//12
f 14//13 22//13 21//13 13//13
f 15//14 23//14 22//14 14//14
f 16//15 24//15 23//15 15//15
f 17//16 25//16 24//16 16//16
f 10//17 18//17 25//17 17//17
f 19//18 27//18 26//18 18//18
f 20//19 28//19 27//19 19//19
f 21//20 29//20 28//20 20//20
f 22//21 30//21 29//21 21//21
f 23//22 31//22 30//22 22//22
f 24//23 32//23 31//23 23//23
f 25//24 33//24 32//24 24//24
f 18//25 26//25 33//25 25//25
