# Blender 4.4.1
# www.blender.org
o Hill_271
v 0.143575 0.000000 -0.094025
v 0.143575 6.507408 -0.094025
v 0.143575 6.507408 -0.094025
v 0.143575 6.507408 -0.094025
v 0.143575 6.507408 -0.094025
v 0.143575 6.507408 -0.094025
v 0.143575 6.507408 -0.094025
v 0.143575 6.507408 -0.094025
v 0.143575 6.507408 -0.094025
v 2.596397 5.282431 -0.094025
v 1.777188 5.108489 1.539588
v 0.143575 5.234310 2.149162
v -1.459118 5.369105 1.508668
v -2.117485 5.100787 -0.094025
v -1.582139 5.331261 -1.819738
v 0.143575 5.116788 -2.376842
v 1.742522 5.073963 -1.692972
v 5.015389 3.331046 -0.094025
v 3.145031 2.867070 2.907431
v 0.143575 2.548971 4.033942
v -3.467896 3.056415 3.517446
v -4.417992 3.316468 -0.094025
v -3.345705 3.052071 -3.583305
v 0.143575 2.617475 -4.718601
v 3.283349 2.667596 -3.233800
v 6.170514 -0.480218 -0.094025
v 4.730447 -0.120685 4.492847
v 0.143575 0.350227 7.067779
v -5.645065 -0.183271 5.694615
v -6.170514 -0.421559 -0.094025
v -4.650689 0.135515 -4.888289
v 0.143575 0.638400 -7.067779
v 4.138504 -0.362735 -4.088954
vn -0.0000 1.0000 -0.0000
vn 0.4256 0.8522 0.3042
vn 0.2436 0.8435 0.4787
vn -0.1232 0.8631 0.4898
vn -0.5268 0.8467 0.0746
vn -0.5276 0.8480 -0.0504
vn -0.0617 0.8524 -0.5193
vn 0.2383 0.8294 -0.5053
vn 0.4210 0.8430 -0.3347
vn 0.5921 0.6772 0.4368
vn 0.2641 0.5814 0.7696
vn -0.0921 0.6347 0.7672
vn -0.6276 0.7544 0.1924
vn -0.6465 0.7351 -0.2041
vn -0.1502 0.6756 -0.7218
vn 0.3162 0.6478 -0.6931
vn 0.5803 0.6837 -0.4425
vn 0.8296 0.4201 0.3677
vn 0.3317 0.6820 0.6519
vn -0.1400 0.7137 0.6864
vn -0.8450 0.5177 0.1338
vn -0.8593 0.4445 -0.2532
vn -0.2957 0.6208 -0.7261
vn 0.5005 0.5255 -0.6880
vn 0.8332 0.3027 -0.4627
s 0
f 3//1 2//1 1//1
f 4//1 3//1 1//1
f 5//1 4//1 1//1
f 6//1 5//1 1//1
f 7//1 6//1 1//1
f 8//1 7//1 1//1
f 9//1 8//1 1//1
f 2//1 9//1 1//1
f 3//2 11//2 10//2 2//2
f 4//3 12//3 11//3 3//3
f 5//4 13//4 12//4 4//4
f 6//5 14//5 13//5 5//5
f 7//6 15//6 14//6 6//6
f 8//7 16//7 15//7 7//7
f 9//8 17//8 16//8 8//8
f 2//9 10//9 17//9 9//9
f 11//10 19//10 18//10 10//10
f 12//11 20//11 19//11 11//11
f 13//12 21//12 20//12 12//12
f 14//13 22//13 21//13 13//13
f 15//14 23//14 22//14 14//14
f 16//15 24//15 23//15 15//15
f 17//16 25//16 24//16 16//16
f 10//17 18//17 25//17 17//17
f 19//18 27//18 26//18 18//18
f 20//19 28//19 27//19 19//19
f 21//20 29//20 28//20 20//20
f 22//21 30//21 29//21 21//21
f 23//22 31//22 30//22 22//22
f 24//23 32//23 31//23 23//23
f 25//24 33//24 32//24 24//24
f 18//25 26//25 33//25 25//25
