# Blender 4.4.1
# www.blender.org
o Hill_118
v 0.138023 0.000000 -0.017394
v 0.138023 8.812707 -0.017394
v 0.138023 8.812707 -0.017394
v 0.138023 8.812707 -0.017394
v 0.138023 8.812707 -0.017394
v 0.138023 8.812707 -0.017394
v 0.138023 8.812707 -0.017394
v 0.138023 8.812707 -0.017394
v 0.138023 8.812707 -0.017394
v 2.640222 7.028643 -0.017394
v 1.746269 7.201382 1.590852
v 0.138023 6.912891 2.317232
v -1.490583 6.860339 1.611212
v -2.131110 6.937121 -0.017394
v -1.572374 7.080787 -1.727791
v 0.138023 6.863707 -2.503642
v 1.756348 7.133478 -1.635719
v 4.947767 3.596619 -0.017394
v 3.902924 3.494803 3.747507
v 0.138023 3.909835 4.953957
v -3.242807 4.155019 3.363436
v -4.182847 4.524230 -0.017394
v -3.096379 3.596764 -3.251796
v 0.138023 3.702722 -4.254722
v 3.382111 4.089365 -3.261482
v 8.136681 0.473587 -0.017394
v 4.398772 -0.485548 4.243354
v 0.138023 0.112166 7.454162
v -4.030826 0.262377 4.151455
v -8.136681 0.770602 -0.017394
v -5.178339 -0.383408 -5.333756
v 0.138023 -0.088707 -7.454162
v 5.661990 0.322336 -5.541361
vn -0.0000 1.0000 -0.0000
vn 0.5651 0.7926 0.2290
vn 0.1444 0.7675 0.6246
vn -0.2862 0.7432 0.6048
vn -0.6124 0.7409 0.2758
vn -0.6307 0.7630 -0.1419
vn -0.1771 0.7746 -0.6072
vn 0.1958 0.7718 -0.6050
vn 0.5613 0.7872 -0.2556
vn 0.7765 0.5680 0.2727
vn 0.2794 0.6160 0.7365
vn -0.3006 0.6376 0.7093
vn -0.7206 0.6327 0.2837
vn -0.7622 0.5503 -0.3408
vn -0.2883 0.4757 -0.8310
vn 0.2458 0.5122 -0.8229
vn 0.7715 0.5492 -0.3212
vn 0.7517 0.4251 0.5042
vn 0.4859 0.3410 0.8047
vn -0.4877 0.3850 0.7835
vn -0.6988 0.4873 0.5237
vn -0.6393 0.6210 -0.4536
vn -0.3013 0.5899 -0.7492
vn 0.1975 0.6137 -0.7644
vn 0.6980 0.6520 -0.2962
s 0
f 3//1 2//1 1//1
f 4//1 3//1 1//1
f 5//1 4//1 1//1
f 6//1 5//1 1//1
f 7//1 6//1 1//1
f 8//1 7//1 1//1
f 9//1 8//1 1//1
f 2//1 9//1 1//1
f 3//2 11//2 10//2 2//2
f 4//3 12//3 11//3 3//3
f 5//4 13//4 12//4 4//4
f 6//5 14//5 13//5 5//5
f 7//6 15//6 14//6 6//6
f 8//7 16//7 15//7 7//7
f 9//8 17//8 16//8 8//8
f 2//9 10//9 17//9 9//9
f 11//10 19//10 18//10 10//10
f 12//11 20//11 19//11 11//11
f 13//12 21//12 20//12 12//12
f 14//13 22//13 21//13 13//13
f 15//14 23//14 22//14 14//14
f 16//15 24//15 23//15 15//15
f 17//16 25//16 24//16 16//16
f 10//17 18//17 25//17 17//17
f 19//18 27//18 26//18 18//18
f 20//19 28//19 27//19 19//19
f 21//20 29//20 28//20 20//20
f 22//21 30//21 29//21 21//21
f 23//22 31//22 30//22 22//22
f 24//23 32//23 31//23 23//23
f 25//24 33//24 32//24 24//24
f 18//25 26//25 33//25 25//25
