# Blender 4.4.1
# www.blender.org
o Hill_085
v -1.480895 0.000000 0.494252
v -1.480895 9.613493 0.494252
v -1.480895 9.613493 0.494252
v -1.480895 9.613493 0.494252
v -1.480895 9.613493 0.494252
v -1.480895 9.613493 0.494252
v -1.480895 9.613493 0.494252
v -1.480895 9.613493 0.494252
v -1.480895 9.613493 0.494252
v 2.526554 7.739985 0.494252
v 1.222368 7.807151 3.197516
v -1.480895 7.547103 4.290139
v -4.115864 7.920803 3.129221
v -5.481622 7.527443 0.494252
v -3.985172 7.955382 -2.010024
v -1.480895 7.497746 -3.519755
v 1.107182 7.790809 -2.093824
v 5.763698 4.245471 0.494252
v 4.038788 4.203291 6.013936
v -1.480895 4.742584 8.388475
v -7.278612 4.519004 6.291969
v -8.294905 4.468298 0.494252
v -6.579975 4.078729 -4.604827
v -1.480895 4.332790 -6.429769
v 3.787992 4.337553 -4.774634
v 11.994922 -0.038054 0.494252
v 7.657396 -0.542504 9.632544
v -1.480895 0.843746 9.847651
v -8.794694 0.212129 7.808051
v -11.994922 -0.838213 0.494252
v -8.484201 0.511393 -6.509054
v -1.480895 0.709582 -9.847651
v 5.353477 0.250601 -6.340120
vn -0.0000 1.0000 -0.0000
vn 0.4167 0.8913 0.1789
vn 0.1081 0.8731 0.4753
vn -0.0858 0.8751 0.4764
vn -0.4597 0.8816 0.1067
vn -0.4588 0.8799 -0.1238
vn -0.1186 0.8784 -0.4630
vn 0.1548 0.8740 -0.4607
vn 0.4141 0.8857 -0.2097
vn 0.6853 0.6838 0.2504
vn 0.2749 0.7584 0.5909
vn -0.2103 0.7865 0.5807
vn -0.6858 0.7108 0.1563
vn -0.6983 0.6536 -0.2917
vn -0.2893 0.6534 -0.6995
vn 0.2446 0.6816 -0.6896
vn 0.6751 0.6828 -0.2793
vn 0.5934 0.7570 0.2736
vn 0.2149 0.5600 0.8002
vn -0.3011 0.3737 0.8773
vn -0.8400 0.4919 0.2288
vn -0.7790 0.5547 -0.2924
vn -0.3283 0.6166 -0.7156
vn 0.3432 0.5580 -0.7555
vn 0.6225 0.6588 -0.4225
s 0
f 3//1 2//1 1//1
f 4//1 3//1 1//1
f 5//1 4//1 1//1
f 6//1 5//1 1//1
f 7//1 6//1 1//1
f 8//1 7//1 1//1
f 9//1 8//1 1//1
f 2//1 9//1 1//1
f 3//2 11//2 10//2 2//2
f 4//3 12//3 11//3 3//3
f 5//4 13//4 12//4 4//4
f 6//5 14//5 13//5 5//5
f 7//6 15//6 14//6 6//6
f 8//7 16//7 15//7 7//7
f 9//8 17//8 16//8 8//8
f 2//9 10//9 17//9 9//9
f 11//10 19//10 18//10 10//10
f 12//11 20//11 19//11 11//11
f 13//12 21//12 20//12 12//12
f 14//13 22//13 21//13 13//13
f 15//14 23//14 22//14 14//14
f 16//15 24//15 23//15 15//15
f 17//16 25//16 24//16 16//16
f 10//17 18//17 25//17 17//17
f 19//18 27//18 26//18 18//18
f 20//19 28//19 27//19 19//19
f 21//20 29//20 28//20 20//20
f 22//21 30//21 29//21 21//21
f 23//22 31//22 30//22 22//22
f 24//23 32//23 31//23 23//23
f 25//24 33//24 32//24 24//24
f 18//25 26//25 33//25 25//25
