# Blender 4.4.1
# www.blender.org
o Hill_192
v 0.148626 0.000000 -0.937553
v 0.148626 8.393563 -0.937553
v 0.148626 8.393563 -0.937553
v 0.148626 8.393563 -0.937553
v 0.148626 8.393563 -0.937553
v 0.148626 8.393563 -0.937553
v 0.148626 8.393563 -0.937553
v 0.148626 8.393563 -0.937553
v 0.148626 8.393563 -0.937553
v 3.372099 6.603803 -0.937553
v 2.472818 6.560814 1.386639
v 0.148626 6.859754 2.544326
v -2.044421 6.925496 1.255494
v -3.240490 6.954649 -0.937553
v -2.283135 7.020196 -3.369314
v 0.148626 7.017478 -4.046138
v 2.441527 6.861640 -3.230453
v 7.029238 3.316182 -0.937553
v 4.225987 3.435206 3.139808
v 0.148626 3.464525 6.291729
v -4.056592 3.611141 3.267665
v -6.136055 4.006623 -0.937553
v -5.074077 3.399317 -6.160256
v 0.148626 3.602115 -6.705841
v 5.399086 4.039896 -6.188012
v 8.559842 0.702496 -0.937553
v 7.887883 0.048828 6.801703
v 0.148626 -0.693569 9.470602
v -8.235948 0.685642 7.447021
v -8.559842 -0.506777 -0.937553
v -7.196732 -0.250020 -8.282910
v 0.148626 0.462595 -9.470602
v 6.243564 0.370737 -7.032490
vn -0.0000 1.0000 -0.0000
vn 0.4756 0.8566 0.1999
vn 0.3035 0.8720 0.3841
vn -0.2050 0.8957 0.3946
vn -0.3812 0.8980 0.2199
vn -0.3876 0.9129 -0.1280
vn -0.1110 0.9088 -0.4023
vn 0.2019 0.8956 -0.3964
vn 0.4831 0.8701 -0.0982
vn 0.6568 0.6558 0.3721
vn 0.4499 0.6434 0.6193
vn -0.4034 0.6626 0.6310
vn -0.6636 0.6429 0.3824
vn -0.6854 0.6910 -0.2297
vn -0.1374 0.6401 -0.7559
vn 0.1006 0.6917 -0.7151
vn 0.6440 0.7555 -0.1203
vn 0.6634 0.7129 0.2274
vn 0.2735 0.7156 0.6428
vn -0.1629 0.7554 0.6347
vn -0.7180 0.6898 0.0934
vn -0.8397 0.5136 -0.1764
vn -0.1517 0.6083 -0.7791
vn 0.2078 0.4781 -0.8534
vn 0.8805 0.3723 -0.2934
s 0
f 3//1 2//1 1//1
f 4//1 3//1 1//1
f 5//1 4//1 1//1
f 6//1 5//1 1//1
f 7//1 6//1 1//1
f 8//1 7//1 1//1
f 9//1 8//1 1//1
f 2//1 9//1 1//1
f 3//2 11//2 10//2 2//2
f 4//3 12//3 11//3 3//3
f 5//4 13//4 12//4 4//4
f 6//5 14//5 13//5 5//5
f 7//6 15//6 14//6 6//6
f 8//7 16//7 15//7 7//7
f 9//8 17//8 16//8 8//8
f 2//9 10//9 17//9 9//9
f 11//10 19//10 18//10 10//10
f 12//11 20//11 19//11 11//11
f 13//12 21//12 20//12 12//12
f 14//13 22//13 21//13 13//13
f 15//14 23//14 22//14 14//14
f 16//15 24//15 23//15 15//15
f 17//16 25//16 24//16 16//16
f 10//17 18//17 25//17 17//17
f 19//18 27//18 26//18 18//18
f 20//19 28//19 27//19 19//19
f 21//20 29//20 28//20 20//20
f 22//21 30//21 29//21 21//21
f 23//22 31//22 30//22 22//22
f 24//23 32//23 31//23 23//23
f 25//24 33//24 32//24 24//24
f 18//25 26//25 33//25 25//25
