# Blender 4.4.1
# www.blender.org
o Hill_084
v -0.438949 0.000000 -0.720238
v -0.438949 5.633579 -0.720238
v -0.438949 5.633579 -0.720238
v -0.438949 5.633579 -0.720238
v -0.438949 5.633579 -0.720238
v -0.438949 5.633579 -0.720238
v -0.438949 5.633579 -0.720238
v -0.438949 5.633579 -0.720238
v -0.438949 5.633579 -0.720238
v 1.633970 4.629444 -0.720238
v 1.173223 4.654635 0.891934
v -0.438949 4.607101 1.373466
v -1.966957 4.462090 0.807771
v -2.648952 4.550691 -0.720238
v -1.870966 4.699785 -2.152255
v -0.438949 4.595168 -2.932460
v 1.038904 4.438060 -2.198091
v 3.450785 2.924546 -0.720238
v 2.387356 2.748755 2.106066
v -0.438949 2.471194 3.254061
v -3.740977 2.298109 2.581790
v -5.294220 2.716031 -0.720238
v -3.605797 2.532317 -3.887085
v -0.438949 2.566226 -4.583682
v 2.227564 2.400269 -3.386751
v 5.721449 0.368638 -0.720238
v 3.369567 -0.248900 3.088279
v -0.438949 -0.005231 6.023006
v -5.669437 -0.129952 4.510250
v -5.721449 -0.331559 -0.720238
v -4.430051 -0.077648 -4.711340
v -0.438949 -0.219543 -6.023006
v 4.204641 -0.171481 -5.363828
vn -0.0000 1.0000 -0.0000
vn 0.4333 0.8945 0.1099
vn 0.1044 0.8930 0.4378
vn -0.2409 0.8715 0.4272
vn -0.4270 0.8715 0.2411
vn -0.4354 0.8886 -0.1440
vn -0.1632 0.8931 -0.4192
vn 0.2938 0.8653 -0.4062
vn 0.4185 0.8639 -0.2804
vn 0.6943 0.6706 0.2612
vn 0.2252 0.6341 0.7398
vn -0.2232 0.6831 0.6954
vn -0.5541 0.7615 0.3363
vn -0.5707 0.7597 -0.3118
vn -0.2188 0.6659 -0.7132
vn 0.3754 0.6019 -0.7048
vn 0.6499 0.6480 -0.3971
vn 0.7382 0.5104 0.4410
vn 0.4316 0.5613 0.7061
vn -0.1962 0.7174 0.6685
vn -0.8800 0.4408 0.1767
vn -0.8943 0.2517 -0.3698
vn -0.2411 0.4065 -0.8812
vn 0.2093 0.5795 -0.7876
vn 0.6540 0.6741 -0.3433
s 0
f 3//1 2//1 1//1
f 4//1 3//1 1//1
f 5//1 4//1 1//1
f 6//1 5//1 1//1
f 7//1 6//1 1//1
f 8//1 7//1 1//1
f 9//1 8//1 1//1
f 2//1 9//1 1//1
f 3//2 11//2 10//2 2//2
f 4//3 12//3 11//3 3//3
f 5//4 13//4 12//4 4//4
f 6//5 14//5 13//5 5//5
f 7//6 15//6 14//6 6//6
f 8//7 16//7 15//7 7//7
f 9//8 17//8 16//8 8//8
f 2//9 10//9 17//9 9//9
f 11//10 19//10 18//10 10//10
f 12//11 20//11 19//11 11//11
f 13//12 21//12 20//12 12//12
f 14//13 22//13 21//13 13//13
f 15//14 23//14 22//14 14//14
f 16//15 24//15 23//15 15//15
f 17//16 25//16 24//16 16//16
f 10//17 18//17 25//17 17//17
f 19//18 27//18 26//18 18//18
f 20//19 28//19 27//19 19//19
f 21//20 29//20 28//20 20//20
f 22//21 30//21 29//21 21//21
f 23//22 31//22 30//22 22//22
f 24//23 32//23 31//23 23//23
f 25//24 33//24 32//24 24//24
f 18//25 26//25 33//25 25//25
