# Blender 4.4.1
# www.blender.org
o Hill_218
v 1.283260 0.000000 -0.024023
v 1.283260 6.346171 -0.024023
v 1.283260 6.346171 -0.024023
v 1.283260 6.346171 -0.024023
v 1.283260 6.346171 -0.024023
v 1.283260 6.346171 -0.024023
v 1.283260 6.346171 -0.024023
v 1.283260 6.346171 -0.024023
v 1.283260 6.346171 -0.024023
v 4.389310 5.308166 -0.024023
v 3.480826 5.312015 2.173543
v 1.283260 5.170513 2.857001
v -0.903508 4.967405 2.162745
v -1.596076 5.051250 -0.024023
v -0.762096 5.141914 -2.069379
v 1.283260 5.027719 -3.028368
v 3.530617 4.929842 -2.271380
v 6.736339 2.658215 -0.024023
v 6.053149 2.815784 4.745866
v 1.283260 2.627322 5.615642
v -3.202562 2.476907 4.461799
v -4.022916 2.609560 -0.024023
v -3.235449 2.884703 -4.542733
v 1.283260 2.594232 -6.726997
v 4.977163 3.232469 -3.717926
v 8.489584 -0.370442 -0.024023
v 6.929619 -0.557245 5.622336
v 1.283260 0.024112 7.242370
v -4.441674 -0.264393 5.700911
v -8.489584 -0.122727 -0.024023
v -4.417758 -0.493440 -5.725040
v 1.283260 0.020508 -7.242370
v 7.830707 0.353031 -6.571470
vn -0.0000 1.0000 -0.0000
vn 0.3143 0.9406 0.1283
vn 0.0578 0.9243 0.3772
vn -0.2017 0.9068 0.3701
vn -0.4047 0.8999 0.1627
vn -0.4069 0.9048 -0.1258
vn -0.1360 0.9072 -0.3981
vn 0.1726 0.9020 -0.3958
vn 0.3052 0.9131 -0.2703
vn 0.6803 0.7197 0.1387
vn 0.1104 0.7483 0.6541
vn -0.2158 0.7394 0.6378
vn -0.6688 0.7225 0.1751
vn -0.6548 0.7462 -0.1202
vn -0.2072 0.8171 -0.5380
vn 0.2787 0.7856 -0.5524
vn 0.6769 0.6825 -0.2758
vn 0.8977 0.3954 0.1944
vn 0.2270 0.4044 0.8860
vn -0.2409 0.5014 0.8310
vn -0.6205 0.7181 0.3151
vn -0.6634 0.6756 -0.3218
vn -0.3289 0.3189 -0.8889
vn 0.2216 0.5938 -0.7735
vn 0.7611 0.6411 -0.0985
s 0
f 3//1 2//1 1//1
f 4//1 3//1 1//1
f 5//1 4//1 1//1
f 6//1 5//1 1//1
f 7//1 6//1 1//1
f 8//1 7//1 1//1
f 9//1 8//1 1//1
f 2//1 9//1 1//1
f 3//2 11//2 10//2 2//2
f 4//3 12//3 11//3 3//3
f 5//4 13//4 12//4 4//4
f 6//5 14//5 13//5 5//5
f 7//6 15//6 14//6 6//6
f 8//7 16//7 15//7 7//7
f 9//8 17//8 16//8 8//8
f 2//9 10//9 17//9 9//9
f 11//10 19//10 18//10 10//10
f 12//11 20//11 19//11 11//11
f 13//12 21//12 20//12 12//12
f 14//13 22//13 21//13 13//13
f 15//14 23//14 22//14 14//14
f 16//15 24//15 23//15 15//15
f 17//16 25//16 24//16 16//16
f 10//17 18//17 25//17 17//17
f 19//18 27//18 26//18 18//18
f 20//19 28//19 27//19 19//19
f 21//20 29//20 28//20 20//20
f 22//21 30//21 29//21 21//21
f 23//22 31//22 30//22 22//22
f 24//23 32//23 31//23 23//23
f 25//24 33//24 32//24 24//24
f 18//25 26//25 33//25 25//25
