# Blender 4.4.1
# www.blender.org
o Hill_244
v -0.190594 0.000000 -0.437987
v -0.190594 8.709938 -0.437987
v -0.190594 8.709938 -0.437987
v -0.190594 8.709938 -0.437987
v -0.190594 8.709938 -0.437987
v -0.190594 8.709938 -0.437987
v -0.190594 8.709938 -0.437987
v -0.190594 8.709938 -0.437987
v -0.190594 8.709938 -0.437987
v 2.410788 7.224675 -0.437987
v 1.589653 6.924244 1.342259
v -0.190594 6.811450 2.395664
v -2.037781 6.754048 1.409201
v -2.976981 7.094219 -0.437987
v -2.167803 7.060380 -2.415196
v -0.190594 7.210389 -3.015093
v 1.592580 6.864740 -2.221161
v 5.026106 4.281181 -0.437987
v 3.888675 4.245726 3.641281
v -0.190594 3.984807 4.286551
v -4.420310 4.019933 3.791730
v -5.431306 4.489726 -0.437987
v -4.128878 4.193418 -4.376271
v -0.190594 3.904762 -5.135436
v 3.658476 3.564187 -4.287056
v 7.311178 0.188275 -0.437987
v 5.151088 0.820173 4.903695
v -0.190594 0.334547 7.259078
v -6.380722 -0.511018 5.752141
v -7.311178 -0.458613 -0.437987
v -6.407085 -0.640788 -6.654479
v -0.190594 -0.540237 -7.079617
v 6.630497 -0.348431 -7.259078
vn -0.0000 1.0000 -0.0000
vn 0.4642 0.8131 0.3513
vn 0.2667 0.8007 0.5364
vn -0.3074 0.7905 0.5297
vn -0.4634 0.7992 0.3828
vn -0.4899 0.8449 -0.2150
vn -0.2132 0.8445 -0.4914
vn 0.3645 0.8049 -0.4683
vn 0.4599 0.8055 -0.3736
vn 0.6702 0.6937 0.2638
vn 0.1755 0.6416 0.7467
vn -0.1828 0.6471 0.7402
vn -0.6369 0.7105 0.2991
vn -0.6936 0.6617 -0.2845
vn -0.1694 0.5805 -0.7965
vn 0.2928 0.5755 -0.7636
vn 0.6741 0.6319 -0.3824
vn 0.8525 0.4476 0.2701
vn 0.2191 0.5296 0.8195
vn -0.1991 0.5406 0.8174
vn -0.8964 0.4018 0.1872
vn -0.8808 0.4236 -0.2114
vn -0.0966 0.4318 -0.8968
vn 0.0606 0.5220 -0.8508
vn 0.7765 0.5910 -0.2185
s 0
f 3//1 2//1 1//1
f 4//1 3//1 1//1
f 5//1 4//1 1//1
f 6//1 5//1 1//1
f 7//1 6//1 1//1
f 8//1 7//1 1//1
f 9//1 8//1 1//1
f 2//1 9//1 1//1
f 3//2 11//2 10//2 2//2
f 4//3 12//3 11//3 3//3
f 5//4 13//4 12//4 4//4
f 6//5 14//5 13//5 5//5
f 7//6 15//6 14//6 6//6
f 8//7 16//7 15//7 7//7
f 9//8 17//8 16//8 8//8
f 2//9 10//9 17//9 9//9
f 11//10 19//10 18//10 10//10
f 12//11 20//11 19//11 11//11
f 13//12 21//12 20//12 12//12
f 14//13 22//13 21//13 13//13
f 15//14 23//14 22//14 14//14
f 16//15 24//15 23//15 15//15
f 17//16 25//16 24//16 16//16
f 10//17 18//17 25//17 17//17
f 19//18 27//18 26//18 18//18
f 20//19 28//19 27//19 19//19
f 21//20 29//20 28//20 20//20
f 22//21 30//21 29//21 21//21
f 23//22 31//22 30//22 22//22
f 24//23 32//23 31//23 23//23
f 25//24 33//24 32//24 24//24
f 18//25 26//25 33//25 25//25
