# Blender 4.4.1
# www.blender.org
o Hill_078
v -0.531309 0.000000 -1.160625
v -0.531309 8.674075 -1.160625
v -0.531309 8.674075 -1.160625
v -0.531309 8.674075 -1.160625
v -0.531309 8.674075 -1.160625
v -0.531309 8.674075 -1.160625
v -0.531309 8.674075 -1.160625
v -0.531309 8.674075 -1.160625
v -0.531309 8.674075 -1.160625
v 2.559331 7.210767 -1.160625
v 1.566653 6.797515 0.937337
v -0.531309 6.856924 1.743768
v -2.651634 7.278439 0.959700
v -3.382086 7.146058 -1.160625
v -2.501760 7.267755 -3.131075
v -0.531309 7.273907 -4.119598
v 1.626304 7.108144 -3.318237
v 5.897733 3.893834 -1.160625
v 4.079445 3.983626 3.450130
v -0.531309 4.159605 4.286198
v -5.065028 3.826474 3.373094
v -6.213625 4.523774 -1.160625
v -4.431017 3.421769 -5.060333
v -0.531309 3.771247 -7.002200
v 3.700424 3.875550 -5.392357
v 8.027603 0.812159 -1.160625
v 6.352290 -0.367072 5.722974
v -0.531309 -0.001861 9.191776
v -7.151593 -0.058433 5.459660
v -8.027603 0.809589 -1.160625
v -6.999414 0.285065 -7.628730
v -0.531309 -0.367330 -9.191776
v 6.370642 -0.840358 -8.062575
vn -0.0000 1.0000 -0.0000
vn 0.3999 0.8447 0.3556
vn 0.2222 0.8266 0.5171
vn -0.0276 0.8474 0.5302
vn -0.4697 0.8763 0.1071
vn -0.4667 0.8708 -0.1547
vn -0.2124 0.8833 -0.4180
vn 0.2226 0.8812 -0.4170
vn 0.4172 0.8812 -0.2223
vn 0.6269 0.7202 0.2974
vn 0.1910 0.7094 0.6784
vn -0.1777 0.6589 0.7310
vn -0.6812 0.6878 0.2508
vn -0.6728 0.6170 -0.4082
vn -0.3934 0.5737 -0.7184
vn 0.2813 0.6235 -0.7295
vn 0.6691 0.6607 -0.3403
vn 0.7819 0.5519 0.2900
vn 0.2903 0.6610 0.6919
vn -0.3057 0.6685 0.6780
vn -0.8414 0.4928 0.2219
vn -0.7503 0.5910 -0.2961
vn -0.2432 0.5896 -0.7702
vn 0.2203 0.5195 -0.8256
vn 0.7427 0.5748 -0.3434
s 0
f 3//1 2//1 1//1
f 4//1 3//1 1//1
f 5//1 4//1 1//1
f 6//1 5//1 1//1
f 7//1 6//1 1//1
f 8//1 7//1 1//1
f 9//1 8//1 1//1
f 2//1 9//1 1//1
f 3//2 11//2 10//2 2//2
f 4//3 12//3 11//3 3//3
f 5//4 13//4 12//4 4//4
f 6//5 14//5 13//5 5//5
f 7//6 15//6 14//6 6//6
f 8//7 16//7 15//7 7//7
f 9//8 17//8 16//8 8//8
f 2//9 10//9 17//9 9//9
f 11//10 19//10 18//10 10//10
f 12//11 20//11 19//11 11//11
f 13//12 21//12 20//12 12//12
f 14//13 22//13 21//13 13//13
f 15//14 23//14 22//14 14//14
f 16//15 24//15 23//15 15//15
f 17//16 25//16 24//16 16//16
f 10//17 18//17 25//17 17//17
f 19//18 27//18 26//18 18//18
f 20//19 28//19 27//19 19//19
f 21//20 29//20 28//20 20//20
f 22//21 30//21 29//21 21//21
f 23//22 31//22 30//22 22//22
f 24//23 32//23 31//23 23//23
f 25//24 33//24 32//24 24//24
f 18//25 26//25 33//25 25//25
