# Blender 4.4.1
# www.blender.org
o Hill_094
v 0.055881 0.000000 -0.671183
v 0.055881 9.199381 -0.671183
v 0.055881 9.199381 -0.671183
v 0.055881 9.199381 -0.671183
v 0.055881 9.199381 -0.671183
v 0.055881 9.199381 -0.671183
v 0.055881 9.199381 -0.671183
v 0.055881 9.199381 -0.671183
v 0.055881 9.199381 -0.671183
v 3.424935 7.232096 -0.671183
v 2.556000 7.128858 1.828936
v 0.055881 7.444906 2.725080
v -2.204794 7.312673 1.589492
v -3.181582 7.348536 -0.671183
v -2.284870 7.687501 -3.011934
v 0.055881 7.142876 -4.142606
v 2.403470 7.415917 -3.018772
v 6.068721 4.431668 -0.671183
v 4.577530 4.345527 3.850466
v 0.055881 4.588458 7.034245
v -5.253333 4.716329 4.638031
v -7.697175 4.354075 -0.671183
v -4.772021 4.159304 -5.499085
v 0.055881 4.499237 -8.200997
v 5.293128 3.625428 -5.908431
v 8.388790 0.725399 -0.671183
v 6.309295 0.434572 5.582231
v 0.055881 -0.677722 11.120331
v -6.971171 0.636235 6.355868
v -8.388790 0.252943 -0.671183
v -5.933635 -0.740595 -6.660699
v 0.055881 0.889402 -11.120331
v 6.428342 0.209753 -7.043644
vn -0.0000 1.0000 -0.0000
vn 0.4934 0.8450 0.2064
vn 0.2668 0.8563 0.4423
vn -0.2719 0.8550 0.4417
vn -0.4839 0.8464 0.2225
vn -0.4953 0.8663 -0.0643
vn -0.0460 0.8595 -0.5091
vn 0.1425 0.8516 -0.5045
vn 0.4985 0.8538 -0.1501
vn 0.6958 0.6726 0.2520
vn 0.3769 0.7481 0.5461
vn -0.2394 0.8249 0.5121
vn -0.5278 0.8248 0.2029
vn -0.5910 0.7488 -0.3000
vn -0.2959 0.7486 -0.5934
vn 0.3168 0.7580 -0.5701
vn 0.6970 0.6821 -0.2211
vn 0.8167 0.4999 0.2881
vn 0.5084 0.5275 0.6807
vn -0.3753 0.5378 0.7549
vn -0.9085 0.3232 0.2649
vn -0.8596 0.2355 -0.4534
vn -0.5529 0.4205 -0.7194
vn 0.4675 0.4973 -0.7308
vn 0.8540 0.4546 -0.2530
s 0
f 3//1 2//1 1//1
f 4//1 3//1 1//1
f 5//1 4//1 1//1
f 6//1 5//1 1//1
f 7//1 6//1 1//1
f 8//1 7//1 1//1
f 9//1 8//1 1//1
f 2//1 9//1 1//1
f 3//2 11//2 10//2 2//2
f 4//3 12//3 11//3 3//3
f 5//4 13//4 12//4 4//4
f 6//5 14//5 13//5 5//5
f 7//6 15//6 14//6 6//6
f 8//7 16//7 15//7 7//7
f 9//8 17//8 16//8 8//8
f 2//9 10//9 17//9 9//9
f 11//10 19//10 18//10 10//10
f 12//11 20//11 19//11 11//11
f 13//12 21//12 20//12 12//12
f 14//13 22//13 21//13 13//13
f 15//14 23//14 22//14 14//14
f 16//15 24//15 23//15 15//15
f 17//16 25//16 24//16 16//16
f 10//17 18//17 25//17 17//17
f 19//18 27//18 26//18 18//18
f 20//19 28//19 27//19 19//19
f 21//20 29//20 28//20 20//20
f 22//21 30//21 29//21 21//21
f 23//22 31//22 30//22 22//22
f 24//23 32//23 31//23 23//23
f 25//24 33//24 32//24 24//24
f 18//25 26//25 33//25 25//25
