# Blender 4.4.1
# www.blender.org
o Hill_076
v -0.162344 0.000000 -0.825278
v -0.162344 9.309475 -0.825278
v -0.162344 9.309475 -0.825278
v -0.162344 9.309475 -0.825278
v -0.162344 9.309475 -0.825278
v -0.162344 9.309475 -0.825278
v -0.162344 9.309475 -0.825278
v -0.162344 9.309475 -0.825278
v -0.162344 9.309475 -0.825278
v 2.107808 7.749282 -0.825278
v 1.464339 7.663880 0.801405
v -0.162344 7.255969 1.338966
v -1.855348 7.244953 0.867726
v -2.268692 7.341690 -0.825278
v -1.822800 7.324177 -2.485734
v -0.162344 7.337051 -2.959080
v 1.449694 7.535022 -2.437315
v 4.773455 4.565372 -0.825278
v 2.863427 4.184968 2.200493
v -0.162344 4.247638 3.264200
v -3.699769 3.892976 2.712147
v -4.503684 4.831719 -0.825278
v -3.660465 4.258751 -4.323400
v -0.162344 3.854707 -5.666843
v 2.834556 3.825218 -3.822177
v 6.074089 0.688587 -0.825278
v 4.899710 -0.656709 4.236776
v -0.162344 0.456213 6.949347
v -4.444900 0.733769 3.457278
v -6.074089 -0.877723 -0.825278
v -5.250206 -0.088178 -5.913140
v -0.162344 0.794895 -6.949347
v 3.821090 -0.127589 -4.808712
vn -0.0000 1.0000 -0.0000
vn 0.5472 0.7962 0.2582
vn 0.0455 0.7247 0.6876
vn -0.1926 0.7118 0.6754
vn -0.6683 0.7154 0.2040
vn -0.6705 0.7178 -0.1876
vn -0.1954 0.7202 -0.6657
vn 0.1284 0.7282 -0.6732
vn 0.5361 0.7801 -0.3226
vn 0.7185 0.5323 0.4476
vn 0.2525 0.4838 0.8379
vn -0.1977 0.5416 0.8171
vn -0.7394 0.6065 0.2922
vn -0.7385 0.6238 -0.2559
vn -0.2257 0.5975 -0.7695
vn 0.3775 0.5118 -0.7717
vn 0.6992 0.5112 -0.4998
vn 0.8209 0.4076 0.4000
vn 0.4144 0.5687 0.7106
vn -0.3955 0.5234 0.7547
vn -0.9271 0.2644 0.2657
vn -0.9315 0.3200 -0.1728
vn -0.2656 0.3976 -0.8783
vn 0.5016 0.3294 -0.7999
vn 0.7876 0.2980 -0.5394
s 0
f 3//1 2//1 1//1
f 4//1 3//1 1//1
f 5//1 4//1 1//1
f 6//1 5//1 1//1
f 7//1 6//1 1//1
f 8//1 7//1 1//1
f 9//1 8//1 1//1
f 2//1 9//1 1//1
f 3//2 11//2 10//2 2//2
f 4//3 12//3 11//3 3//3
f 5//4 13//4 12//4 4//4
f 6//5 14//5 13//5 5//5
f 7//6 15//6 14//6 6//6
f 8//7 16//7 15//7 7//7
f 9//8 17//8 16//8 8//8
f 2//9 10//9 17//9 9//9
f 11//10 19//10 18//10 10//10
f 12//11 20//11 19//11 11//11
f 13//12 21//12 20//12 12//12
f 14//13 22//13 21//13 13//13
f 15//14 23//14 22//14 14//14
f 16//15 24//15 23//15 15//15
f 17//16 25//16 24//16 16//16
f 10//17 18//17 25//17 17//17
f 19//18 27//18 26//18 18//18
f 20//19 28//19 27//19 19//19
f 21//20 29//20 28//20 20//20
f 22//21 30//21 29//21 21//21
f 23//22 31//22 30//22 22//22
f 24//23 32//23 31//23 23//23
f 25//24 33//24 32//24 24//24
f 18//25 26//25 33//25 25//25
