# Blender 4.4.1
# www.blender.org
o Hill_212
v 1.409614 0.000000 -0.673263
v 1.409614 8.283456 -0.673263
v 1.409614 8.283456 -0.673263
v 1.409614 8.283456 -0.673263
v 1.409614 8.283456 -0.673263
v 1.409614 8.283456 -0.673263
v 1.409614 8.283456 -0.673263
v 1.409614 8.283456 -0.673263
v 1.409614 8.283456 -0.673263
v 4.909999 6.691840 -0.673263
v 4.032928 6.829871 1.950051
v 1.409614 6.826811 2.899685
v -1.219773 6.782596 1.956125
v -2.034328 6.785025 -0.673263
v -0.966329 6.824276 -3.049206
v 1.409614 6.546349 -4.082121
v 3.976621 6.418952 -3.240270
v 9.467210 3.810561 -0.673263
v 6.964103 4.309911 4.881227
v 1.409614 3.936116 6.137645
v -3.416951 3.356213 4.153303
v -6.198017 3.268960 -0.673263
v -3.070268 3.808883 -5.153144
v 1.409614 4.103202 -8.477799
v 6.967832 4.014379 -6.231480
v 10.209278 -0.285381 -0.673263
v 10.180285 -0.332437 8.097409
v 1.409614 -0.486100 11.020903
v -4.894818 -0.259685 5.631169
v -10.209278 0.475500 -0.673263
v -6.194008 -0.200270 -8.276885
v 1.409614 0.687548 -11.020903
v 7.742030 0.315114 -7.005679
vn -0.0000 1.0000 -0.0000
vn 0.4122 0.9066 0.0901
vn 0.1344 0.9176 0.3741
vn -0.1494 0.9156 0.3733
vn -0.3959 0.9099 0.1235
vn -0.3937 0.9049 -0.1620
vn -0.0928 0.8871 -0.4521
vn 0.1896 0.8748 -0.4458
vn 0.4018 0.8837 -0.2400
vn 0.5365 0.8291 0.1571
vn 0.1309 0.7753 0.6178
vn -0.3167 0.6795 0.6617
vn -0.6516 0.6940 0.3063
vn -0.6280 0.7072 -0.3246
vn -0.3429 0.7711 -0.5366
vn 0.2044 0.8543 -0.4779
vn 0.5002 0.8379 -0.2184
vn 0.8811 0.4512 0.1415
vn 0.1792 0.6901 0.7012
vn -0.4539 0.6028 0.6562
vn -0.6088 0.6320 0.4796
vn -0.5654 0.7503 -0.3426
vn -0.3888 0.6567 -0.6462
vn 0.4358 0.4189 -0.7967
vn 0.9067 0.2125 -0.3643
s 0
f 3//1 2//1 1//1
f 4//1 3//1 1//1
f 5//1 4//1 1//1
f 6//1 5//1 1//1
f 7//1 6//1 1//1
f 8//1 7//1 1//1
f 9//1 8//1 1//1
f 2//1 9//1 1//1
f 3//2 11//2 10//2 2//2
f 4//3 12//3 11//3 3//3
f 5//4 13//4 12//4 4//4
f 6//5 14//5 13//5 5//5
f 7//6 15//6 14//6 6//6
f 8//7 16//7 15//7 7//7
f 9//8 17//8 16//8 8//8
f 2//9 10//9 17//9 9//9
f 11//10 19//10 18//10 10//10
f 12//11 20//11 19//11 11//11
f 13//12 21//12 20//12 12//12
f 14//13 22//13 21//13 13//13
f 15//14 23//14 22//14 14//14
f 16//15 24//15 23//15 15//15
f 17//16 25//16 24//16 16//16
f 10//17 18//17 25//17 17//17
f 19//18 27//18 26//18 18//18
f 20//19 28//19 27//19 19//19
f 21//20 29//20 28//20 20//20
f 22//21 30//21 29//21 21//21
f 23//22 31//22 30//22 22//22
f 24//23 32//23 31//23 23//23
f 25//24 33//24 32//24 24//24
f 18//25 26//25 33//25 25//25
