# Blender 4.4.1
# www.blender.org
o Hill_265
v -1.265251 0.000000 -1.348549
v -1.265251 9.302873 -1.348549
v -1.265251 9.302873 -1.348549
v -1.265251 9.302873 -1.348549
v -1.265251 9.302873 -1.348549
v -1.265251 9.302873 -1.348549
v -1.265251 9.302873 -1.348549
v -1.265251 9.302873 -1.348549
v -1.265251 9.302873 -1.348549
v 2.684923 7.457767 -1.348549
v 1.606863 7.341483 1.523565
v -1.265251 7.574605 2.424717
v -3.825671 7.795300 1.211872
v -4.924628 7.419446 -1.348549
v -4.095260 7.219518 -4.178558
v -1.265251 7.647994 -5.159254
v 1.489881 7.371198 -4.103681
v 6.633003 4.563290 -1.348549
v 3.585998 3.899688 3.502699
v -1.265251 3.956095 5.905245
v -6.691627 4.444789 4.077827
v -9.674519 4.433512 -1.348549
v -6.296805 4.469309 -6.380104
v -1.265251 3.743362 -9.140489
v 3.533990 4.317611 -6.147789
v 11.696133 -0.436673 -1.348549
v 7.674494 0.846586 7.591196
v -1.265251 -0.011863 11.927157
v -8.527841 -0.792766 5.914041
v -11.696133 0.082617 -1.348549
v -8.158304 -0.910897 -8.241603
v -1.265251 0.287371 -11.927157
v 7.222143 0.293402 -9.835942
vn -0.0000 1.0000 -0.0000
vn 0.4153 0.8892 0.1919
vn 0.2003 0.8907 0.4080
vn -0.1181 0.9028 0.4135
vn -0.4566 0.8872 0.0658
vn -0.4490 0.8724 -0.1932
vn -0.2669 0.8840 -0.3839
vn 0.2377 0.8909 -0.3869
vn 0.4140 0.8863 -0.2074
vn 0.6067 0.6905 0.3938
vn 0.3241 0.6339 0.7022
vn -0.1975 0.7032 0.6830
vn -0.5623 0.7885 0.2492
vn -0.5455 0.7794 -0.3082
vn -0.2845 0.7013 -0.6536
vn 0.3293 0.6715 -0.6638
vn 0.5894 0.7198 -0.3667
vn 0.5709 0.7796 0.2576
vn 0.1974 0.8408 0.5041
vn -0.4158 0.6370 0.6491
vn -0.8108 0.4068 0.4208
vn -0.7774 0.4027 -0.4832
vn -0.4296 0.4896 -0.7588
vn 0.2287 0.6991 -0.6774
vn 0.6106 0.7236 -0.3217
s 0
f 3//1 2//1 1//1
f 4//1 3//1 1//1
f 5//1 4//1 1//1
f 6//1 5//1 1//1
f 7//1 6//1 1//1
f 8//1 7//1 1//1
f 9//1 8//1 1//1
f 2//1 9//1 1//1
f 3//2 11//2 10//2 2//2
f 4//3 12//3 11//3 3//3
f 5//4 13//4 12//4 4//4
f 6//5 14//5 13//5 5//5
f 7//6 15//6 14//6 6//6
f 8//7 16//7 15//7 7//7
f 9//8 17//8 16//8 8//8
f 2//9 10//9 17//9 9//9
f 11//10 19//10 18//10 10//10
f 12//11 20//11 19//11 11//11
f 13//12 21//12 20//12 12//12
f 14//13 22//13 21//13 13//13
f 15//14 23//14 22//14 14//14
f 16//15 24//15 23//15 15//15
f 17//16 25//16 24//16 16//16
f 10//17 18//17 25//17 17//17
f 19//18 27//18 26//18 18//18
f 20//19 28//19 27//19 19//19
f 21//20 29//20 28//20 20//20
f 22//21 30//21 29//21 21//21
f 23//22 31//22 30//22 22//22
f 24//23 32//23 31//23 23//23
f 25//24 33//24 32//24 24//24
f 18//25 26//25 33//25 25//25
