# Blender 4.4.1
# www.blender.org
o Hill_222
v -0.628496 0.000000 0.940009
v -0.628496 8.107006 0.940009
v -0.628496 8.107006 0.940009
v -0.628496 8.107006 0.940009
v -0.628496 8.107006 0.940009
v -0.628496 8.107006 0.940009
v -0.628496 8.107006 0.940009
v -0.628496 8.107006 0.940009
v -0.628496 8.107006 0.940009
v 3.289642 6.547135 0.940009
v 2.132127 6.439441 3.700633
v -0.628496 6.403747 4.667889
v -3.529568 6.715273 3.841081
v -4.440905 6.442631 0.940009
v -3.365474 6.675941 -1.796969
v -0.628496 6.358924 -2.909339
v 1.994561 6.323534 -1.683047
v 7.803567 3.621498 0.940009
v 4.540216 3.951648 6.108721
v -0.628496 3.539448 8.465663
v -6.272432 3.339638 6.583946
v -9.434655 3.866979 0.940009
v -5.832083 3.459607 -4.263578
v -0.628496 3.982088 -7.549922
v 4.316364 3.921385 -4.004850
v 11.077264 -0.493612 0.940009
v 7.839212 0.050582 9.407718
v -0.628496 -0.806612 12.507452
v -9.488836 -0.432101 9.800350
v -11.077264 0.287261 0.940009
v -9.888129 0.000718 -8.319624
v -0.628496 0.496621 -12.507452
v 8.415531 0.045780 -8.104018
vn -0.0000 1.0000 -0.0000
vn 0.3633 0.9125 0.1879
vn 0.1327 0.9015 0.4119
vn -0.0208 0.9094 0.4155
vn -0.3998 0.9158 0.0395
vn -0.3989 0.9136 -0.0788
vn -0.0625 0.9087 -0.4127
vn 0.2014 0.8919 -0.4050
vn 0.3578 0.8988 -0.2533
vn 0.5316 0.8015 0.2739
vn 0.2044 0.7791 0.5926
vn -0.1913 0.7490 0.6344
vn -0.5236 0.8068 0.2737
vn -0.5129 0.7967 -0.3196
vn -0.3086 0.7966 -0.5198
vn 0.3053 0.8295 -0.4676
vn 0.5139 0.7973 -0.3167
vn 0.6818 0.6750 0.2818
vn 0.2102 0.6956 0.6870
vn -0.2088 0.6965 0.6865
vn -0.7337 0.6131 0.2930
vn -0.6736 0.6932 -0.2564
vn -0.3100 0.8155 -0.4888
vn 0.3176 0.8011 -0.5074
vn 0.6482 0.7221 -0.2416
s 0
f 3//1 2//1 1//1
f 4//1 3//1 1//1
f 5//1 4//1 1//1
f 6//1 5//1 1//1
f 7//1 6//1 1//1
f 8//1 7//1 1//1
f 9//1 8//1 1//1
f 2//1 9//1 1//1
f 3//2 11//2 10//2 2//2
f 4//3 12//3 11//3 3//3
f 5//4 13//4 12//4 4//4
f 6//5 14//5 13//5 5//5
f 7//6 15//6 14//6 6//6
f 8//7 16//7 15//7 7//7
f 9//8 17//8 16//8 8//8
f 2//9 10//9 17//9 9//9
f 11//10 19//10 18//10 10//10
f 12//11 20//11 19//11 11//11
f 13//12 21//12 20//12 12//12
f 14//13 22//13 21//13 13//13
f 15//14 23//14 22//14 14//14
f 16//15 24//15 23//15 15//15
f 17//16 25//16 24//16 16//16
f 10//17 18//17 25//17 17//17
f 19//18 27//18 26//18 18//18
f 20//19 28//19 27//19 19//19
f 21//20 29//20 28//20 20//20
f 22//21 30//21 29//21 21//21
f 23//22 31//22 30//22 22//22
f 24//23 32//23 31//23 23//23
f 25//24 33//24 32//24 24//24
f 18//25 26//25 33//25 25//25
