# Blender 4.4.1
# www.blender.org
o Hill_206
v -0.934342 0.000000 0.803792
v -0.934342 6.494543 0.803792
v -0.934342 6.494543 0.803792
v -0.934342 6.494543 0.803792
v -0.934342 6.494543 0.803792
v -0.934342 6.494543 0.803792
v -0.934342 6.494543 0.803792
v -0.934342 6.494543 0.803792
v -0.934342 6.494543 0.803792
v 2.026114 5.295214 0.803792
v 1.272061 5.414006 3.010195
v -0.934342 5.169396 3.747139
v -3.143409 5.318776 3.012859
v -4.069090 5.032094 0.803792
v -3.097496 5.157148 -1.359362
v -0.934342 5.401252 -2.128869
v 1.106228 5.144269 -1.236779
v 5.188931 3.188690 0.803792
v 3.322038 3.037526 5.060172
v -0.934342 2.580885 7.784834
v -5.220788 3.062180 5.090237
v -7.072822 3.013427 0.803792
v -5.354887 3.041876 -3.616753
v -0.934342 3.114984 -5.043025
v 3.139445 2.831153 -3.269995
v 8.747467 0.092195 0.803792
v 5.356842 -0.551688 7.094975
v -0.934342 0.393216 10.083403
v -8.262070 0.450695 8.131519
v -8.747467 -0.049302 0.803792
v -6.920456 -0.054118 -5.182323
v -0.934342 -0.203458 -10.083403
v 5.338640 0.105893 -5.469190
vn -0.0000 1.0000 -0.0000
vn 0.3743 0.9240 0.0782
vn 0.0360 0.9113 0.4103
vn -0.0746 0.9093 0.4094
vn -0.4220 0.9046 0.0594
vn -0.4188 0.8978 -0.1362
vn -0.2241 0.9132 -0.3404
vn 0.2613 0.9044 -0.3372
vn 0.3653 0.9017 -0.2314
vn 0.5777 0.7807 0.2382
vn 0.2200 0.7909 0.5710
vn -0.2178 0.7996 0.5596
vn -0.5790 0.7887 0.2069
vn -0.5487 0.8104 -0.2053
vn -0.2285 0.7883 -0.5712
vn 0.3166 0.7561 -0.5728
vn 0.5357 0.7793 -0.3250
vn 0.6518 0.6594 0.3746
vn 0.3899 0.6365 0.6655
vn -0.1996 0.7826 0.5897
vn -0.7325 0.6708 0.1157
vn -0.8192 0.5017 -0.2779
vn -0.3619 0.7102 -0.6038
vn 0.3331 0.7711 -0.5426
vn 0.6008 0.7230 -0.3410
s 0
f 3//1 2//1 1//1
f 4//1 3//1 1//1
f 5//1 4//1 1//1
f 6//1 5//1 1//1
f 7//1 6//1 1//1
f 8//1 7//1 1//1
f 9//1 8//1 1//1
f 2//1 9//1 1//1
f 3//2 11//2 10//2 2//2
f 4//3 12//3 11//3 3//3
f 5//4 13//4 12//4 4//4
f 6//5 14//5 13//5 5//5
f 7//6 15//6 14//6 6//6
f 8//7 16//7 15//7 7//7
f 9//8 17//8 16//8 8//8
f 2//9 10//9 17//9 9//9
f 11//10 19//10 18//10 10//10
f 12//11 20//11 19//11 11//11
f 13//12 21//12 20//12 12//12
f 14//13 22//13 21//13 13//13
f 15//14 23//14 22//14 14//14
f 16//15 24//15 23//15 15//15
f 17//16 25//16 24//16 16//16
f 10//17 18//17 25//17 17//17
f 19//18 27//18 26//18 18//18
f 20//19 28//19 27//19 19//19
f 21//20 29//20 28//20 20//20
f 22//21 30//21 29//21 21//21
f 23//22 31//22 30//22 22//22
f 24//23 32//23 31//23 23//23
f 25//24 33//24 32//24 24//24
f 18//25 26//25 33//25 25//25
