# Blender 4.4.1
# www.blender.org
o Hill_182
v 0.169026 0.000000 0.422484
v 0.169026 8.444237 0.422484
v 0.169026 8.444237 0.422484
v 0.169026 8.444237 0.422484
v 0.169026 8.444237 0.422484
v 0.169026 8.444237 0.422484
v 0.169026 8.444237 0.422484
v 0.169026 8.444237 0.422484
v 0.169026 8.444237 0.422484
v 2.558017 7.086388 0.422484
v 1.866339 7.012707 2.119797
v 0.169026 6.599146 2.909738
v -1.574199 6.586179 2.165709
v -2.097451 6.583194 0.422484
v -1.588435 6.956428 -1.334978
v 0.169026 6.997564 -1.857077
v 1.907270 6.567639 -1.315760
v 4.987797 3.509567 0.422484
v 3.097636 3.364631 3.351094
v 0.169026 3.638258 5.065480
v -2.743417 4.362290 3.334927
v -4.254748 4.073700 0.422484
v -3.611669 3.382357 -3.358212
v 0.169026 4.168891 -4.313863
v 3.569509 3.653254 -2.977999
v 6.678137 0.524772 0.422484
v 4.466191 0.113975 4.719648
v 0.169026 0.157228 7.429180
v -4.995731 0.616775 5.587241
v -6.678137 -0.622332 0.422484
v -4.361461 0.771043 -4.108004
v 0.169026 -0.146221 -7.429180
v 5.654173 0.775749 -5.062663
vn -0.0000 1.0000 -0.0000
vn 0.4806 0.8455 0.2326
vn 0.0813 0.8005 0.5938
vn -0.2519 0.7773 0.5766
vn -0.6235 0.7594 0.1859
vn -0.6345 0.7727 -0.0197
vn -0.1761 0.8311 -0.5275
vn 0.3517 0.7904 -0.5016
vn 0.4515 0.7945 -0.4061
vn 0.7642 0.4636 0.4484
vn 0.4077 0.4755 0.7796
vn -0.3199 0.5615 0.7631
vn -0.7480 0.5972 0.2895
vn -0.7766 0.5988 -0.1959
vn -0.2882 0.6084 -0.7394
vn 0.3685 0.6099 -0.7016
vn 0.7521 0.5622 -0.3439
vn 0.7515 0.4702 0.4628
vn 0.4682 0.4994 0.7290
vn -0.2586 0.5760 0.7755
vn -0.8246 0.5176 0.2282
vn -0.8710 0.4065 -0.2758
vn -0.3955 0.4798 -0.7832
vn 0.2794 0.6144 -0.7379
vn 0.7926 0.5787 -0.1921
s 0
f 3//1 2//1 1//1
f 4//1 3//1 1//1
f 5//1 4//1 1//1
f 6//1 5//1 1//1
f 7//1 6//1 1//1
f 8//1 7//1 1//1
f 9//1 8//1 1//1
f 2//1 9//1 1//1
f 3//2 11//2 10//2 2//2
f 4//3 12//3 11//3 3//3
f 5//4 13//4 12//4 4//4
f 6//5 14//5 13//5 5//5
f 7//6 15//6 14//6 6//6
f 8//7 16//7 15//7 7//7
f 9//8 17//8 16//8 8//8
f 2//9 10//9 17//9 9//9
f 11//10 19//10 18//10 10//10
f 12//11 20//11 19//11 11//11
f 13//12 21//12 20//12 12//12
f 14//13 22//13 21//13 13//13
f 15//14 23//14 22//14 14//14
f 16//15 24//15 23//15 15//15
f 17//16 25//16 24//16 16//16
f 10//17 18//17 25//17 17//17
f 19//18 27//18 26//18 18//18
f 20//19 28//19 27//19 19//19
f 21//20 29//20 28//20 20//20
f 22//21 30//21 29//21 21//21
f 23//22 31//22 30//22 22//22
f 24//23 32//23 31//23 23//23
f 25//24 33//24 32//24 24//24
f 18//25 26//25 33//25 25//25
