# Blender 4.4.1
# www.blender.org
o Hill_074
v -0.331410 0.000000 -0.343693
v -0.331410 7.407875 -0.343693
v -0.331410 7.407875 -0.343693
v -0.331410 7.407875 -0.343693
v -0.331410 7.407875 -0.343693
v -0.331410 7.407875 -0.343693
v -0.331410 7.407875 -0.343693
v -0.331410 7.407875 -0.343693
v -0.331410 7.407875 -0.343693
v 2.140082 6.127472 -0.343693
v 1.569692 5.976219 1.557408
v -0.331410 5.944565 2.320903
v -2.183110 6.138234 1.508007
v -2.908138 6.035217 -0.343693
v -2.107158 6.015387 -2.119442
v -0.331410 6.047762 -2.836270
v 1.357085 5.817896 -2.032188
v 4.108551 3.386756 -0.343693
v 3.336931 3.171549 3.324648
v -0.331410 3.518854 5.168380
v -4.361412 3.229606 3.686309
v -4.766205 3.059374 -0.343693
v -3.747167 3.662862 -3.759450
v -0.331410 2.953428 -5.221712
v 3.403938 3.249075 -4.079041
v 8.124477 -0.559586 -0.343693
v 4.656275 -0.724637 4.643992
v -0.331410 -0.051297 6.741233
v -6.344452 0.590769 5.669349
v -8.124477 -0.169506 -0.343693
v -5.928335 0.040391 -5.940618
v -0.331410 -0.328838 -6.741233
v 5.278642 0.567977 -5.953745
vn -0.0000 1.0000 -0.0000
vn 0.4503 0.8692 0.2043
vn 0.1759 0.8629 0.4738
vn -0.1188 0.8703 0.4779
vn -0.4659 0.8746 0.1338
vn -0.4590 0.8616 -0.2167
vn -0.2049 0.8592 -0.4688
vn 0.3283 0.8292 -0.4524
vn 0.4306 0.8311 -0.3520
vn 0.7733 0.5927 0.2253
vn 0.3407 0.6841 0.6449
vn -0.2637 0.7163 0.6460
vn -0.7959 0.5923 0.1254
vn -0.7863 0.5809 -0.2103
vn -0.2325 0.6224 -0.7474
vn 0.2494 0.6511 -0.7168
vn 0.7229 0.6436 -0.2513
vn 0.7323 0.5627 0.3834
vn 0.4191 0.3914 0.8192
vn -0.1909 0.5330 0.8243
vn -0.7204 0.6873 0.0931
vn -0.7294 0.6538 -0.2012
vn -0.1531 0.5040 -0.8500
vn 0.1093 0.5174 -0.8487
vn 0.7049 0.6818 -0.1956
s 0
f 3//1 2//1 1//1
f 4//1 3//1 1//1
f 5//1 4//1 1//1
f 6//1 5//1 1//1
f 7//1 6//1 1//1
f 8//1 7//1 1//1
f 9//1 8//1 1//1
f 2//1 9//1 1//1
f 3//2 11//2 10//2 2//2
f 4//3 12//3 11//3 3//3
f 5//4 13//4 12//4 4//4
f 6//5 14//5 13//5 5//5
f 7//6 15//6 14//6 6//6
f 8//7 16//7 15//7 7//7
f 9//8 17//8 16//8 8//8
f 2//9 10//9 17//9 9//9
f 11//10 19//10 18//10 10//10
f 12//11 20//11 19//11 11//11
f 13//12 21//12 20//12 12//12
f 14//13 22//13 21//13 13//13
f 15//14 23//14 22//14 14//14
f 16//15 24//15 23//15 15//15
f 17//16 25//16 24//16 16//16
f 10//17 18//17 25//17 17//17
f 19//18 27//18 26//18 18//18
f 20//19 28//19 27//19 19//19
f 21//20 29//20 28//20 20//20
f 22//21 30//21 29//21 21//21
f 23//22 31//22 30//22 22//22
f 24//23 32//23 31//23 23//23
f 25//24 33//24 32//24 24//24
f 18//25 26//25 33//25 25//25
