# Blender 4.4.1
# www.blender.org
o Hill_150
v -1.275732 0.000000 0.143969
v -1.275732 8.024354 0.143969
v -1.275732 8.024354 0.143969
v -1.275732 8.024354 0.143969
v -1.275732 8.024354 0.143969
v -1.275732 8.024354 0.143969
v -1.275732 8.024354 0.143969
v -1.275732 8.024354 0.143969
v -1.275732 8.024354 0.143969
v 2.058290 6.653583 0.143969
v 1.127407 6.545146 2.547109
v -1.275732 6.415575 3.427581
v -3.596911 6.445128 2.465148
v -4.551786 6.533140 0.143969
v -3.584519 6.352364 -2.164817
v -1.275732 6.397336 -3.234364
v 1.144720 6.405957 -2.276483
v 5.747791 3.688584 0.143969
v 3.544650 3.723855 4.964352
v -1.275732 3.281201 6.645117
v -5.917059 3.365266 4.785296
v -7.936972 3.829051 0.143969
v -6.044718 4.000510 -4.625017
v -1.275732 3.523058 -7.381714
v 3.065524 3.885719 -4.197287
v 9.739711 -0.717318 0.143969
v 5.275719 -0.144144 6.695421
v -1.275732 0.093504 12.128801
v -9.044276 0.459833 7.912513
v -9.739711 0.199643 0.143969
v -9.098144 0.703892 -7.678442
v -1.275732 -0.505909 -12.128801
v 4.850209 -0.372634 -5.981972
vn -0.0000 1.0000 -0.0000
vn 0.3736 0.9088 0.1857
vn 0.1121 0.8924 0.4372
vn -0.1685 0.8852 0.4337
vn -0.4059 0.8916 0.2008
vn -0.4024 0.8840 -0.2378
vn -0.2135 0.8802 -0.4239
vn 0.1662 0.8884 -0.4279
vn 0.3699 0.8997 -0.2317
vn 0.6039 0.7500 0.2696
vn 0.1831 0.7138 0.6759
vn -0.2604 0.6947 0.6705
vn -0.6083 0.7274 0.3176
vn -0.5776 0.7819 -0.2344
vn -0.2449 0.8027 -0.5437
vn 0.3105 0.7571 -0.5748
vn 0.6017 0.7294 -0.3254
vn 0.7173 0.5777 0.3896
vn 0.3654 0.7078 0.6045
vn -0.2192 0.8322 0.5093
vn -0.7445 0.6447 0.1735
vn -0.7855 0.6061 -0.1255
vn -0.2482 0.7527 -0.6098
vn 0.5188 0.5953 -0.6136
vn 0.6874 0.5549 -0.4686
s 0
f 3//1 2//1 1//1
f 4//1 3//1 1//1
f 5//1 4//1 1//1
f 6//1 5//1 1//1
f 7//1 6//1 1//1
f 8//1 7//1 1//1
f 9//1 8//1 1//1
f 2//1 9//1 1//1
f 3//2 11//2 10//2 2//2
f 4//3 12//3 11//3 3//3
f 5//4 13//4 12//4 4//4
f 6//5 14//5 13//5 5//5
f 7//6 15//6 14//6 6//6
f 8//7 16//7 15//7 7//7
f 9//8 17//8 16//8 8//8
f 2//9 10//9 17//9 9//9
f 11//10 19//10 18//10 10//10
f 12//11 20//11 19//11 11//11
f 13//12 21//12 20//12 12//12
f 14//13 22//13 21//13 13//13
f 15//14 23//14 22//14 14//14
f 16//15 24//15 23//15 15//15
f 17//16 25//16 24//16 16//16
f 10//17 18//17 25//17 17//17
f 19//18 27//18 26//18 18//18
f 20//19 28//19 27//19 19//19
f 21//20 29//20 28//20 20//20
f 22//21 30//21 29//21 21//21
f 23//22 31//22 30//22 22//22
f 24//23 32//23 31//23 23//23
f 25//24 33//24 32//24 24//24
f 18//25 26//25 33//25 25//25
