# Blender 4.4.1
# www.blender.org
o Hill_243
v -0.875225 0.000000 1.749174
v -0.875225 6.578743 1.749174
v -0.875225 6.578743 1.749174
v -0.875225 6.578743 1.749174
v -0.875225 6.578743 1.749174
v -0.875225 6.578743 1.749174
v -0.875225 6.578743 1.749174
v -0.875225 6.578743 1.749174
v -0.875225 6.578743 1.749174
v 2.594428 5.355478 1.749174
v 1.338716 5.180332 3.963116
v -0.875225 5.185460 5.063166
v -3.079565 5.224188 3.953514
v -4.056188 5.222281 1.749174
v -3.378888 5.214009 -0.754488
v -0.875225 5.334570 -1.548998
v 1.316518 5.212198 -0.442569
v 5.644915 2.948547 1.749174
v 4.395877 2.924032 7.020277
v -0.875225 2.756940 7.733390
v -6.180990 3.368774 7.054938
v -8.198775 3.165994 1.749174
v -5.534735 2.841026 -2.910335
v -0.875225 3.092726 -5.384040
v 4.180035 3.111651 -3.306086
v 10.990366 0.247441 1.749174
v 7.165240 0.624965 9.789640
v -0.875225 0.256672 10.077439
v -9.219130 -0.438856 10.093078
v -10.990366 -0.201160 1.749174
v -7.266228 -0.153250 -4.641828
v -0.875225 -0.609140 -10.093078
v 7.054245 0.076767 -6.180296
vn -0.0000 1.0000 -0.0000
vn 0.3216 0.9120 0.2545
vn 0.1911 0.9049 0.3804
vn -0.1761 0.9074 0.3815
vn -0.3865 0.9064 0.1705
vn -0.3899 0.9144 -0.1085
vn -0.1552 0.9243 -0.3487
vn 0.2245 0.9118 -0.3439
vn 0.3222 0.9137 -0.2476
vn 0.5297 0.8244 0.1993
vn 0.1250 0.7996 0.5874
vn -0.0653 0.8177 0.5719
vn -0.4218 0.8952 0.1438
vn -0.4912 0.8289 -0.2677
vn -0.2795 0.8066 -0.5208
vn 0.2163 0.8589 -0.4643
vn 0.5314 0.8235 -0.1988
vn 0.4779 0.8638 0.1593
vn 0.0214 0.7347 0.6780
vn -0.0405 0.6598 0.7504
vn -0.7170 0.6676 0.2007
vn -0.6861 0.5999 -0.4117
vn -0.4169 0.6838 -0.5989
vn 0.2328 0.7692 -0.5951
vn 0.5084 0.8347 -0.2119
s 0
f 3//1 2//1 1//1
f 4//1 3//1 1//1
f 5//1 4//1 1//1
f 6//1 5//1 1//1
f 7//1 6//1 1//1
f 8//1 7//1 1//1
f 9//1 8//1 1//1
f 2//1 9//1 1//1
f 3//2 11//2 10//2 2//2
f 4//3 12//3 11//3 3//3
f 5//4 13//4 12//4 4//4
f 6//5 14//5 13//5 5//5
f 7//6 15//6 14//6 6//6
f 8//7 16//7 15//7 7//7
f 9//8 17//8 16//8 8//8
f 2//9 10//9 17//9 9//9
f 11//10 19//10 18//10 10//10
f 12//11 20//11 19//11 11//11
f 13//12 21//12 20//12 12//12
f 14//13 22//13 21//13 13//13
f 15//14 23//14 22//14 14//14
f 16//15 24//15 23//15 15//15
f 17//16 25//16 24//16 16//16
f 10//17 18//17 25//17 17//17
f 19//18 27//18 26//18 18//18
f 20//19 28//19 27//19 19//19
f 21//20 29//20 28//20 20//20
f 22//21 30//21 29//21 21//21
f 23//22 31//22 30//22 22//22
f 24//23 32//23 31//23 23//23
f 25//24 33//24 32//24 24//24
f 18//25 26//25 33//25 25//25
