# Blender 4.4.1
# www.blender.org
o Hill_163
v -0.917845 0.000000 0.694111
v -0.917845 8.563381 0.694111
v -0.917845 8.563381 0.694111
v -0.917845 8.563381 0.694111
v -0.917845 8.563381 0.694111
v -0.917845 8.563381 0.694111
v -0.917845 8.563381 0.694111
v -0.917845 8.563381 0.694111
v -0.917845 8.563381 0.694111
v 1.768568 6.762409 0.694111
v 1.059018 6.704771 2.670974
v -0.917845 7.134057 3.461332
v -2.862072 7.086232 2.638338
v -3.681944 6.669441 0.694111
v -2.658012 6.823975 -1.046055
v -0.917845 6.746426 -1.776769
v 0.978175 6.947068 -1.201909
v 3.904836 3.445775 0.694111
v 2.612643 4.302972 4.224599
v -0.917845 3.768555 5.998257
v -4.729689 4.467364 4.505955
v -6.173987 3.901592 0.694111
v -4.991906 4.462070 -3.379949
v -0.917845 3.843841 -4.184687
v 2.944561 3.834774 -3.168295
v 8.407117 0.245162 0.694111
v 3.887989 -0.845436 5.499945
v -0.917845 0.026228 8.175352
v -7.040532 -0.569107 6.816799
v -8.407117 -0.498130 0.694111
v -7.532232 0.044234 -5.920276
v -0.917845 -0.560261 -8.175352
v 4.768047 0.541815 -4.991780
vn -0.0000 1.0000 -0.0000
vn 0.5434 0.8105 0.2187
vn 0.3523 0.8315 0.4295
vn -0.2112 0.8684 0.4486
vn -0.5642 0.8234 0.0614
vn -0.5471 0.7985 -0.2510
vn -0.2082 0.7880 -0.5794
vn 0.0939 0.8021 -0.5898
vn 0.5506 0.8213 -0.1495
vn 0.7956 0.5695 0.2065
vn 0.3270 0.6037 0.7270
vn -0.2305 0.6224 0.7480
vn -0.7342 0.6555 0.1769
vn -0.6782 0.7151 -0.1694
vn -0.1061 0.6910 -0.7150
vn 0.1904 0.6174 -0.7633
vn 0.8012 0.5685 -0.1869
vn 0.6803 0.5455 0.4895
vn 0.4476 0.3788 0.8100
vn -0.2356 0.4908 0.8388
vn -0.8570 0.4664 0.2192
vn -0.8595 0.4982 -0.1140
vn -0.1509 0.6159 -0.7732
vn 0.2551 0.6206 -0.7415
vn 0.6529 0.7101 -0.2635
s 0
f 3//1 2//1 1//1
f 4//1 3//1 1//1
f 5//1 4//1 1//1
f 6//1 5//1 1//1
f 7//1 6//1 1//1
f 8//1 7//1 1//1
f 9//1 8//1 1//1
f 2//1 9//1 1//1
f 3//2 11//2 10//2 2//2
f 4//3 12//3 11//3 3//3
f 5//4 13//4 12//4 4//4
f 6//5 14//5 13//5 5//5
f 7//6 15//6 14//6 6//6
f 8//7 16//7 15//7 7//7
f 9//8 17//8 16//8 8//8
f 2//9 10//9 17//9 9//9
f 11//10 19//10 18//10 10//10
f 12//11 20//11 19//11 11//11
f 13//12 21//12 20//12 12//12
f 14//13 22//13 21//13 13//13
f 15//14 23//14 22//14 14//14
f 16//15 24//15 23//15 15//15
f 17//16 25//16 24//16 16//16
f 10//17 18//17 25//17 17//17
f 19//18 27//18 26//18 18//18
f 20//19 28//19 27//19 19//19
f 21//20 29//20 28//20 20//20
f 22//21 30//21 29//21 21//21
f 23//22 31//22 30//22 22//22
f 24//23 32//23 31//23 23//23
f 25//24 33//24 32//24 24//24
f 18//25 26//25 33//25 25//25
