# Blender 4.4.1
# www.blender.org
o Hill_225
v -0.012508 0.000000 0.662679
v -0.012508 8.817092 0.662679
v -0.012508 8.817092 0.662679
v -0.012508 8.817092 0.662679
v -0.012508 8.817092 0.662679
v -0.012508 8.817092 0.662679
v -0.012508 8.817092 0.662679
v -0.012508 8.817092 0.662679
v -0.012508 8.817092 0.662679
v 3.039455 7.015526 0.662679
v 2.324970 7.319349 3.000156
v -0.012508 7.310369 4.036251
v -2.245013 6.828932 2.895183
v -3.400223 6.954237 0.662679
v -2.237635 7.401933 -1.562448
v -0.012508 7.207694 -2.736680
v 2.334350 7.351125 -1.684179
v 5.810277 4.427416 0.662679
v 4.765081 4.246729 5.440269
v -0.012508 4.447599 7.277658
v -4.639102 3.769102 5.289272
v -7.029645 4.021659 0.662679
v -4.207012 3.441882 -3.531825
v -0.012508 4.298164 -6.452906
v 4.641643 4.381515 -3.991472
v 10.810081 -0.323776 0.662679
v 6.048200 -0.621852 6.723386
v -0.012508 -0.756033 9.770964
v -6.746661 -0.238540 7.396831
v -10.810081 0.088258 0.662679
v -6.506976 -0.368904 -5.831789
v -0.012508 -0.449552 -9.770964
v 7.242357 0.768353 -6.592186
vn -0.0000 1.0000 -0.0000
vn 0.5079 0.8603 0.0434
vn 0.1745 0.8991 0.4015
vn -0.3756 0.8462 0.3779
vn -0.4617 0.8396 0.2860
vn -0.4805 0.8738 -0.0752
vn -0.1454 0.8942 -0.4234
vn 0.1354 0.8955 -0.4240
vn 0.5081 0.8608 -0.0296
vn 0.6913 0.7049 0.1588
vn 0.2760 0.7214 0.6351
vn -0.3873 0.7129 0.5847
vn -0.5895 0.7304 0.3450
vn -0.6452 0.6423 -0.4137
vn -0.4587 0.6409 -0.6155
vn 0.2833 0.7383 -0.6121
vn 0.6957 0.7009 -0.1572
vn 0.7344 0.5353 0.4172
vn 0.3842 0.3666 0.8473
vn -0.3202 0.4809 0.8162
vn -0.6749 0.6104 0.4145
vn -0.6190 0.6266 -0.4735
vn -0.4731 0.5688 -0.6728
vn 0.2832 0.6113 -0.7390
vn 0.6892 0.6925 -0.2132
s 0
f 3//1 2//1 1//1
f 4//1 3//1 1//1
f 5//1 4//1 1//1
f 6//1 5//1 1//1
f 7//1 6//1 1//1
f 8//1 7//1 1//1
f 9//1 8//1 1//1
f 2//1 9//1 1//1
f 3//2 11//2 10//2 2//2
f 4//3 12//3 11//3 3//3
f 5//4 13//4 12//4 4//4
f 6//5 14//5 13//5 5//5
f 7//6 15//6 14//6 6//6
f 8//7 16//7 15//7 7//7
f 9//8 17//8 16//8 8//8
f 2//9 10//9 17//9 9//9
f 11//10 19//10 18//10 10//10
f 12//11 20//11 19//11 11//11
f 13//12 21//12 20//12 12//12
f 14//13 22//13 21//13 13//13
f 15//14 23//14 22//14 14//14
f 16//15 24//15 23//15 15//15
f 17//16 25//16 24//16 16//16
f 10//17 18//17 25//17 17//17
f 19//18 27//18 26//18 18//18
f 20//19 28//19 27//19 19//19
f 21//20 29//20 28//20 20//20
f 22//21 30//21 29//21 21//21
f 23//22 31//22 30//22 22//22
f 24//23 32//23 31//23 23//23
f 25//24 33//24 32//24 24//24
f 18//25 26//25 33//25 25//25
