# Blender 4.4.1
# www.blender.org
o Hill_105
v 1.152631 0.000000 0.089707
v 1.152631 9.843400 0.089707
v 1.152631 9.843400 0.089707
v 1.152631 9.843400 0.089707
v 1.152631 9.843400 0.089707
v 1.152631 9.843400 0.089707
v 1.152631 9.843400 0.089707
v 1.152631 9.843400 0.089707
v 1.152631 9.843400 0.089707
v 3.961895 8.182918 0.089707
v 3.034208 7.780477 1.971285
v 1.152631 7.935704 2.832527
v -0.891621 7.929265 2.133959
v -1.831934 7.651110 0.089707
v -0.875247 8.072277 -1.938170
v 1.152631 7.940533 -2.871551
v 3.080093 8.019059 -1.837754
v 6.581773 3.962240 0.089707
v 5.271842 4.191403 4.208919
v 1.152631 5.041295 5.510507
v -2.406782 4.005347 3.649121
v -4.837855 4.255056 0.089707
v -3.110199 4.372169 -4.173122
v 1.152631 4.026524 -5.005082
v 4.910955 4.091588 -3.668617
v 8.188780 -0.501567 0.089707
v 7.282951 0.517344 6.220028
v 1.152631 0.061083 7.707867
v -4.307374 -0.941321 5.549712
v -8.188780 -0.850462 0.089707
v -5.485626 0.416184 -6.548550
v 1.152631 0.695797 -7.707867
v 8.074924 -0.106623 -6.832587
vn -0.0000 1.0000 -0.0000
vn 0.4666 0.7894 0.3989
vn 0.3126 0.7798 0.5424
vn -0.1940 0.8054 0.5602
vn -0.5843 0.7955 0.1605
vn -0.5883 0.8009 -0.1112
vn -0.1906 0.8259 -0.5307
vn 0.2477 0.8151 -0.5237
vn 0.4866 0.8232 -0.2926
vn 0.7680 0.5644 0.3027
vn 0.3532 0.6396 0.6828
vn -0.4307 0.5403 0.7229
vn -0.7241 0.5369 0.4329
vn -0.7356 0.6253 -0.2604
vn -0.1916 0.5301 -0.8260
vn 0.3258 0.4860 -0.8109
vn 0.7845 0.5083 -0.3553
vn 0.8914 0.4310 0.1402
vn 0.2486 0.4697 0.8471
vn -0.4470 0.4131 0.7934
vn -0.7143 0.4710 0.5177
vn -0.7880 0.5632 -0.2488
vn -0.1407 0.5965 -0.7901
vn 0.1966 0.6527 -0.7316
vn 0.8512 0.5116 -0.1171
s 0
f 3//1 2//1 1//1
f 4//1 3//1 1//1
f 5//1 4//1 1//1
f 6//1 5//1 1//1
f 7//1 6//1 1//1
f 8//1 7//1 1//1
f 9//1 8//1 1//1
f 2//1 9//1 1//1
f 3//2 11//2 10//2 2//2
f 4//3 12//3 11//3 3//3
f 5//4 13//4 12//4 4//4
f 6//5 14//5 13//5 5//5
f 7//6 15//6 14//6 6//6
f 8//7 16//7 15//7 7//7
f 9//8 17//8 16//8 8//8
f 2//9 10//9 17//9 9//9
f 11//10 19//10 18//10 10//10
f 12//11 20//11 19//11 11//11
f 13//12 21//12 20//12 12//12
f 14//13 22//13 21//13 13//13
f 15//14 23//14 22//14 14//14
f 16//15 24//15 23//15 15//15
f 17//16 25//16 24//16 16//16
f 10//17 18//17 25//17 17//17
f 19//18 27//18 26//18 18//18
f 20//19 28//19 27//19 19//19
f 21//20 29//20 28//20 20//20
f 22//21 30//21 29//21 21//21
f 23//22 31//22 30//22 22//22
f 24//23 32//23 31//23 23//23
f 25//24 33//24 32//24 24//24
f 18//25 26//25 33//25 25//25
