# Blender 4.4.1
# www.blender.org
o Hill_107
v 1.547079 0.000000 -1.126434
v 1.547079 5.763024 -1.126434
v 1.547079 5.763024 -1.126434
v 1.547079 5.763024 -1.126434
v 1.547079 5.763024 -1.126434
v 1.547079 5.763024 -1.126434
v 1.547079 5.763024 -1.126434
v 1.547079 5.763024 -1.126434
v 1.547079 5.763024 -1.126434
v 5.498814 4.545291 -1.126434
v 4.136828 4.514584 1.463314
v 1.547079 4.630739 2.806667
v -1.211255 4.605948 1.631900
v -2.159499 4.747653 -1.126434
v -1.178072 4.607985 -3.851586
v 1.547079 4.615193 -4.834437
v 4.084116 4.608019 -3.663471
v 9.642448 2.313177 -1.126434
v 6.370859 2.943599 3.697345
v 1.547079 2.335347 6.789717
v -4.095676 2.334313 4.516322
v -5.900200 2.706597 -1.126434
v -4.085926 2.485321 -6.759439
v 1.547079 2.998823 -7.979926
v 7.250655 2.518346 -6.830010
v 11.653874 -0.447219 -1.126434
v 9.332715 -0.567940 6.659202
v 1.547079 -0.114905 11.436728
v -7.507792 -0.167495 7.928437
v -11.653874 0.387891 -1.126434
v -6.166292 0.400885 -8.839806
v 1.547079 0.575964 -11.436728
v 8.152324 0.165493 -7.731679
vn -0.0000 1.0000 -0.0000
vn 0.2905 0.9427 0.1640
vn 0.1834 0.9447 0.2720
vn -0.1255 0.9534 0.2745
vn -0.2616 0.9551 0.1390
vn -0.2615 0.9545 -0.1431
vn -0.1085 0.9496 -0.2940
vn 0.1379 0.9462 -0.2929
vn 0.2916 0.9463 -0.1392
vn 0.4460 0.8704 0.2084
vn 0.2169 0.8620 0.4581
vn -0.2007 0.8525 0.4826
vn -0.4692 0.8587 0.2063
vn -0.4596 0.8673 -0.1912
vn -0.1744 0.8730 -0.4554
vn 0.1741 0.8848 -0.4322
vn 0.4433 0.8789 -0.1762
vn 0.6851 0.6739 0.2766
vn 0.3081 0.8034 0.5095
vn -0.1831 0.8703 0.4573
vn -0.3908 0.8951 0.2147
vn -0.4245 0.8714 -0.2458
vn -0.2043 0.7954 -0.5707
vn 0.3134 0.6718 -0.6712
vn 0.7886 0.5099 -0.3437
s 0
f 3//1 2//1 1//1
f 4//1 3//1 1//1
f 5//1 4//1 1//1
f 6//1 5//1 1//1
f 7//1 6//1 1//1
f 8//1 7//1 1//1
f 9//1 8//1 1//1
f 2//1 9//1 1//1
f 3//2 11//2 10//2 2//2
f 4//3 12//3 11//3 3//3
f 5//4 13//4 12//4 4//4
f 6//5 14//5 13//5 5//5
f 7//6 15//6 14//6 6//6
f 8//7 16//7 15//7 7//7
f 9//8 17//8 16//8 8//8
f 2//9 10//9 17//9 9//9
f 11//10 19//10 18//10 10//10
f 12//11 20//11 19//11 11//11
f 13//12 21//12 20//12 12//12
f 14//13 22//13 21//13 13//13
f 15//14 23//14 22//14 14//14
f 16//15 24//15 23//15 15//15
f 17//16 25//16 24//16 16//16
f 10//17 18//17 25//17 17//17
f 19//18 27//18 26//18 18//18
f 20//19 28//19 27//19 19//19
f 21//20 29//20 28//20 20//20
f 22//21 30//21 29//21 21//21
f 23//22 31//22 30//22 22//22
f 24//23 32//23 31//23 23//23
f 25//24 33//24 32//24 24//24
f 18//25 26//25 33//25 25//25
