# Blender 4.4.1
# www.blender.org
o Hill_228
v 0.489512 0.000000 0.712859
v 0.489512 8.281188 0.712859
v 0.489512 8.281188 0.712859
v 0.489512 8.281188 0.712859
v 0.489512 8.281188 0.712859
v 0.489512 8.281188 0.712859
v 0.489512 8.281188 0.712859
v 0.489512 8.281188 0.712859
v 0.489512 8.281188 0.712859
v 2.781065 6.633613 0.712859
v 2.250848 6.662873 2.474195
v 0.489512 6.444357 3.003199
v -1.123221 6.932426 2.325592
v -1.782071 6.468456 0.712859
v -1.254808 6.872925 -1.031460
v 0.489512 6.770974 -1.775770
v 2.172819 6.746406 -0.970448
v 5.852798 3.339113 0.712859
v 3.558874 4.082024 3.782222
v 0.489512 4.196418 5.044990
v -2.766443 3.540448 3.968814
v -4.706518 3.667645 0.712859
v -2.929612 3.257156 -2.706264
v 0.489512 3.335754 -3.642291
v 3.793005 3.860250 -2.590634
v 6.803459 0.590412 0.712859
v 4.897191 -0.779114 5.120538
v 0.489512 -0.143747 6.949152
v -5.499689 0.113682 6.702060
v -6.803459 -0.669691 0.712859
v -5.536536 -0.387326 -5.313189
v 0.489512 -0.383191 -6.949152
v 6.211207 -0.727834 -5.008836
vn -0.0000 1.0000 -0.0000
vn 0.5762 0.8014 0.1601
vn 0.0907 0.7769 0.6231
vn -0.0268 0.7798 0.6254
vn -0.6235 0.7813 0.0299
vn -0.6237 0.7816 -0.0073
vn -0.1689 0.8426 -0.5113
vn 0.2522 0.8273 -0.5020
vn 0.5767 0.8022 -0.1546
vn 0.7223 0.6107 0.3246
vn 0.2676 0.5971 0.7562
vn -0.2934 0.5813 0.7589
vn -0.7124 0.6151 0.3378
vn -0.7265 0.6055 -0.3249
vn -0.2691 0.4825 -0.8335
vn 0.2530 0.5162 -0.8183
vn 0.7184 0.6253 -0.3049
vn 0.8113 0.3290 0.4833
vn 0.3873 0.3560 0.8504
vn -0.1418 0.5438 0.8272
vn -0.7860 0.5718 0.2352
vn -0.7914 0.5521 -0.2625
vn -0.2037 0.6559 -0.7269
vn 0.2416 0.5974 -0.7647
vn 0.8314 0.4762 -0.2864
s 0
f 3//1 2//1 1//1
f 4//1 3//1 1//1
f 5//1 4//1 1//1
f 6//1 5//1 1//1
f 7//1 6//1 1//1
f 8//1 7//1 1//1
f 9//1 8//1 1//1
f 2//1 9//1 1//1
f 3//2 11//2 10//2 2//2
f 4//3 12//3 11//3 3//3
f 5//4 13//4 12//4 4//4
f 6//5 14//5 13//5 5//5
f 7//6 15//6 14//6 6//6
f 8//7 16//7 15//7 7//7
f 9//8 17//8 16//8 8//8
f 2//9 10//9 17//9 9//9
f 11//10 19//10 18//10 10//10
f 12//11 20//11 19//11 11//11
f 13//12 21//12 20//12 12//12
f 14//13 22//13 21//13 13//13
f 15//14 23//14 22//14 14//14
f 16//15 24//15 23//15 15//15
f 17//16 25//16 24//16 16//16
f 10//17 18//17 25//17 17//17
f 19//18 27//18 26//18 18//18
f 20//19 28//19 27//19 19//19
f 21//20 29//20 28//20 20//20
f 22//21 30//21 29//21 21//21
f 23//22 31//22 30//22 22//22
f 24//23 32//23 31//23 23//23
f 25//24 33//24 32//24 24//24
f 18//25 26//25 33//25 25//25
