# Blender 4.4.1
# www.blender.org
o Hill_146
v -0.621499 0.000000 1.190511
v -0.621499 9.349755 1.190511
v -0.621499 9.349755 1.190511
v -0.621499 9.349755 1.190511
v -0.621499 9.349755 1.190511
v -0.621499 9.349755 1.190511
v -0.621499 9.349755 1.190511
v -0.621499 9.349755 1.190511
v -0.621499 9.349755 1.190511
v 1.968325 7.718100 1.190511
v 1.285354 7.714098 3.097365
v -0.621499 7.521989 3.740005
v -2.484966 7.378555 3.053978
v -3.219935 7.777187 1.190511
v -2.621800 7.839307 -0.809789
v -0.621499 7.538146 -1.432720
v 1.276397 7.321940 -0.707385
v 5.196817 4.441430 1.190511
v 3.088067 4.866872 4.900078
v -0.621499 4.437276 6.677915
v -4.086227 3.970770 4.655239
v -5.847775 3.954732 1.190511
v -4.039423 4.711678 -2.227413
v -0.621499 4.023803 -4.245989
v 3.107595 3.715574 -2.538583
v 8.982236 -0.734668 1.190511
v 6.035306 -0.463563 7.847316
v -0.621499 0.855837 8.479143
v -7.353158 0.665422 7.922171
v -8.982236 0.793665 1.190511
v -7.331241 0.238455 -5.519230
v -0.621499 -0.928672 -8.479143
v 6.172737 -0.322797 -5.603725
vn -0.0000 1.0000 -0.0000
vn 0.5234 0.8308 0.1892
vn 0.1137 0.8074 0.5789
vn -0.2670 0.7832 0.5615
vn -0.4828 0.7978 0.3611
vn -0.5136 0.8486 -0.1272
vn -0.0530 0.8217 -0.5675
vn 0.2969 0.7857 -0.5426
vn 0.4998 0.7933 -0.3478
vn 0.6937 0.6569 0.2955
vn 0.2392 0.6495 0.7218
vn -0.4192 0.5874 0.6923
vn -0.7540 0.5277 0.3912
vn -0.8045 0.5250 -0.2779
vn -0.2793 0.5576 -0.7817
vn 0.3698 0.5724 -0.7318
vn 0.6600 0.6040 -0.4467
vn 0.7510 0.5732 0.3278
vn 0.2357 0.5166 0.8232
vn -0.2263 0.6447 0.7302
vn -0.6356 0.7401 0.2195
vn -0.6958 0.6824 -0.2241
vn -0.2332 0.6551 -0.7186
vn 0.2839 0.6608 -0.6948
vn 0.6957 0.6313 -0.3427
s 0
f 3//1 2//1 1//1
f 4//1 3//1 1//1
f 5//1 4//1 1//1
f 6//1 5//1 1//1
f 7//1 6//1 1//1
f 8//1 7//1 1//1
f 9//1 8//1 1//1
f 2//1 9//1 1//1
f 3//2 11//2 10//2 2//2
f 4//3 12//3 11//3 3//3
f 5//4 13//4 12//4 4//4
f 6//5 14//5 13//5 5//5
f 7//6 15//6 14//6 6//6
f 8//7 16//7 15//7 7//7
f 9//8 17//8 16//8 8//8
f 2//9 10//9 17//9 9//9
f 11//10 19//10 18//10 10//10
f 12//11 20//11 19//11 11//11
f 13//12 21//12 20//12 12//12
f 14//13 22//13 21//13 13//13
f 15//14 23//14 22//14 14//14
f 16//15 24//15 23//15 15//15
f 17//16 25//16 24//16 16//16
f 10//17 18//17 25//17 17//17
f 19//18 27//18 26//18 18//18
f 20//19 28//19 27//19 19//19
f 21//20 29//20 28//20 20//20
f 22//21 30//21 29//21 21//21
f 23//22 31//22 30//22 22//22
f 24//23 32//23 31//23 23//23
f 25//24 33//24 32//24 24//24
f 18//25 26//25 33//25 25//25
