# Blender 4.4.1
# www.blender.org
o Hill_188
v 1.091944 0.000000 0.492518
v 1.091944 6.259810 0.492518
v 1.091944 6.259810 0.492518
v 1.091944 6.259810 0.492518
v 1.091944 6.259810 0.492518
v 1.091944 6.259810 0.492518
v 1.091944 6.259810 0.492518
v 1.091944 6.259810 0.492518
v 1.091944 6.259810 0.492518
v 3.252873 4.861521 0.492518
v 2.662398 4.867610 2.062971
v 1.091944 5.136853 2.938177
v -0.480940 4.901201 2.065403
v -1.285875 5.054286 0.492518
v -0.618525 4.899529 -1.217952
v 1.091944 4.948150 -1.934255
v 2.773516 4.863738 -1.189053
v 6.055111 2.544120 0.492518
v 4.005914 2.715074 3.406487
v 1.091944 2.646633 4.556178
v -1.912231 3.004458 3.496694
v -3.930423 2.722559 0.492518
v -2.431664 2.627723 -3.031090
v 1.091944 2.816443 -4.533915
v 4.234533 3.188839 -2.650071
v 6.904378 0.046659 0.492518
v 5.272677 -0.537045 4.673251
v 1.091944 -0.423289 6.102411
v -4.002964 -0.105527 5.587427
v -6.904378 0.232599 0.492518
v -4.285497 -0.037964 -4.884924
v 1.091944 0.135360 -6.102411
v 6.701372 -0.426767 -5.116910
vn -0.0000 1.0000 -0.0000
vn 0.5326 0.8231 0.1971
vn 0.3620 0.8471 0.3890
vn -0.3451 0.8529 0.3916
vn -0.4309 0.8499 0.3032
vn -0.4379 0.8638 -0.2490
vn -0.2187 0.8584 -0.4640
vn 0.2470 0.8525 -0.4608
vn 0.5370 0.8298 -0.1520
vn 0.6339 0.6918 0.3458
vn 0.3583 0.5736 0.7366
vn -0.2948 0.6084 0.7369
vn -0.6096 0.7082 0.3561
vn -0.6263 0.7221 -0.2936
vn -0.2929 0.7343 -0.6124
vn 0.2823 0.7485 -0.6001
vn 0.6320 0.7484 -0.2009
vn 0.8063 0.3940 0.4412
vn 0.3096 0.4376 0.8442
vn -0.1184 0.5331 0.8377
vn -0.6126 0.6948 0.3769
vn -0.6310 0.7063 -0.3209
vn -0.2591 0.5828 -0.7702
vn 0.2627 0.5915 -0.7623
vn 0.8317 0.5246 -0.1820
s 0
f 3//1 2//1 1//1
f 4//1 3//1 1//1
f 5//1 4//1 1//1
f 6//1 5//1 1//1
f 7//1 6//1 1//1
f 8//1 7//1 1//1
f 9//1 8//1 1//1
f 2//1 9//1 1//1
f 3//2 11//2 10//2 2//2
f 4//3 12//3 11//3 3//3
f 5//4 13//4 12//4 4//4
f 6//5 14//5 13//5 5//5
f 7//6 15//6 14//6 6//6
f 8//7 16//7 15//7 7//7
f 9//8 17//8 16//8 8//8
f 2//9 10//9 17//9 9//9
f 11//10 19//10 18//10 10//10
f 12//11 20//11 19//11 11//11
f 13//12 21//12 20//12 12//12
f 14//13 22//13 21//13 13//13
f 15//14 23//14 22//14 14//14
f 16//15 24//15 23//15 15//15
f 17//16 25//16 24//16 16//16
f 10//17 18//17 25//17 17//17
f 19//18 27//18 26//18 18//18
f 20//19 28//19 27//19 19//19
f 21//20 29//20 28//20 20//20
f 22//21 30//21 29//21 21//21
f 23//22 31//22 30//22 22//22
f 24//23 32//23 31//23 23//23
f 25//24 33//24 32//24 24//24
f 18//25 26//25 33//25 25//25
