# Blender 4.4.1
# www.blender.org
o Hill_138
v 0.448467 0.000000 -0.183450
v 0.448467 9.840648 -0.183450
v 0.448467 9.840648 -0.183450
v 0.448467 9.840648 -0.183450
v 0.448467 9.840648 -0.183450
v 0.448467 9.840648 -0.183450
v 0.448467 9.840648 -0.183450
v 0.448467 9.840648 -0.183450
v 0.448467 9.840648 -0.183450
v 2.559590 8.160633 -0.183450
v 1.887736 7.977684 1.255818
v 0.448467 8.219774 1.881441
v -0.960397 7.662241 1.225414
v -1.788241 7.792977 -0.183450
v -1.057419 7.662149 -1.689336
v 0.448467 8.262500 -2.309008
v 2.043337 7.942538 -1.778321
v 4.239443 4.431077 -0.183450
v 3.788738 4.637327 3.156821
v 0.448467 4.944087 4.631542
v -2.937096 4.166662 3.202112
v -3.887367 4.994702 -0.183450
v -2.823359 4.261810 -3.455276
v 0.448467 4.519122 -4.640383
v 3.602257 4.924097 -3.337240
v 7.082172 0.359383 -0.183450
v 5.531176 0.547723 4.899259
v 0.448467 0.619827 5.567863
v -3.959886 -0.448362 4.224902
v -7.082172 -0.392506 -0.183450
v -4.935946 0.966967 -5.567863
v 0.448467 0.180463 -5.437809
v 5.522998 -0.476991 -5.257981
vn -0.0000 1.0000 -0.0000
vn 0.5801 0.7290 0.3635
vn 0.3720 0.7302 0.5732
vn -0.5137 0.6749 0.5297
vn -0.6122 0.6688 0.4218
vn -0.6287 0.6868 -0.3648
vn -0.4922 0.6989 -0.5189
vn 0.3382 0.7556 -0.5610
vn 0.5950 0.7477 -0.2948
vn 0.8520 0.4847 0.1978
vn 0.3780 0.6027 0.7028
vn -0.4541 0.5953 0.6629
vn -0.7162 0.5839 0.3824
vn -0.7336 0.5650 -0.3777
vn -0.3813 0.5291 -0.7581
vn 0.2980 0.5267 -0.7961
vn 0.8688 0.4596 -0.1844
vn 0.8417 0.5105 0.1761
vn 0.2462 0.3400 0.9076
vn -0.3752 0.2392 0.8956
vn -0.7996 0.3843 0.4614
vn -0.7960 0.5488 -0.2555
vn -0.0894 0.3763 -0.9222
vn 0.1782 0.2970 -0.9381
vn 0.8452 0.4748 -0.2454
s 0
f 3//1 2//1 1//1
f 4//1 3//1 1//1
f 5//1 4//1 1//1
f 6//1 5//1 1//1
f 7//1 6//1 1//1
f 8//1 7//1 1//1
f 9//1 8//1 1//1
f 2//1 9//1 1//1
f 3//2 11//2 10//2 2//2
f 4//3 12//3 11//3 3//3
f 5//4 13//4 12//4 4//4
f 6//5 14//5 13//5 5//5
f 7//6 15//6 14//6 6//6
f 8//7 16//7 15//7 7//7
f 9//8 17//8 16//8 8//8
f 2//9 10//9 17//9 9//9
f 11//10 19//10 18//10 10//10
f 12//11 20//11 19//11 11//11
f 13//12 21//12 20//12 12//12
f 14//13 22//13 21//13 13//13
f 15//14 23//14 22//14 14//14
f 16//15 24//15 23//15 15//15
f 17//16 25//16 24//16 16//16
f 10//17 18//17 25//17 17//17
f 19//18 27//18 26//18 18//18
f 20//19 28//19 27//19 19//19
f 21//20 29//20 28//20 20//20
f 22//21 30//21 29//21 21//21
f 23//22 31//22 30//22 22//22
f 24//23 32//23 31//23 23//23
f 25//24 33//24 32//24 24//24
f 18//25 26//25 33//25 25//25
