# Blender 4.4.1
# www.blender.org
o Hill_119
v -0.752379 0.000000 0.402667
v -0.752379 7.274921 0.402667
v -0.752379 7.274921 0.402667
v -0.752379 7.274921 0.402667
v -0.752379 7.274921 0.402667
v -0.752379 7.274921 0.402667
v -0.752379 7.274921 0.402667
v -0.752379 7.274921 0.402667
v -0.752379 7.274921 0.402667
v 3.245576 5.742452 0.402667
v 2.022397 6.039826 3.177442
v -0.752379 6.089172 4.300662
v -3.534243 5.834960 3.184531
v -4.852092 5.847651 0.402667
v -3.521986 5.808690 -2.366940
v -0.752379 5.825821 -3.481052
v 2.142754 5.732233 -2.492466
v 6.599341 3.015195 0.402667
v 4.412549 3.677350 5.567595
v -0.752379 3.430264 8.692429
v -6.975530 3.361715 6.625818
v -9.264053 3.225919 0.402667
v -6.591146 3.037067 -5.436100
v -0.752379 2.935351 -6.788683
v 5.098740 3.121269 -5.448452
v 12.763742 0.399506 0.402667
v 8.098873 -0.653454 9.253919
v -0.752379 0.075213 10.981148
v -8.028523 -0.168356 7.678812
v -12.763742 -0.465136 0.402667
v -8.994286 0.282223 -7.839240
v -0.752379 0.242973 -10.981148
v 6.917143 0.357885 -7.266855
vn -0.0000 1.0000 -0.0000
vn 0.3573 0.9322 0.0576
vn 0.1336 0.9481 0.2884
vn -0.2001 0.9374 0.2851
vn -0.3247 0.9325 0.1581
vn -0.3241 0.9309 -0.1687
vn -0.1449 0.9270 -0.3459
vn 0.1480 0.9266 -0.3457
vn 0.3545 0.9248 -0.1383
vn 0.6130 0.7716 0.1700
vn 0.2555 0.8179 0.5155
vn -0.1985 0.8575 0.4746
vn -0.4787 0.8594 0.1800
vn -0.4956 0.8311 -0.2524
vn -0.1668 0.7758 -0.6086
vn 0.1542 0.7773 -0.6099
vn 0.5901 0.7899 -0.1670
vn 0.4887 0.8321 0.2621
vn 0.2639 0.6677 0.6961
vn -0.3386 0.4523 0.8251
vn -0.7576 0.5327 0.3771
vn -0.6568 0.7031 -0.2726
vn -0.1794 0.7896 -0.5868
vn 0.2150 0.7546 -0.6199
vn 0.4963 0.8264 -0.2658
s 0
f 3//1 2//1 1//1
f 4//1 3//1 1//1
f 5//1 4//1 1//1
f 6//1 5//1 1//1
f 7//1 6//1 1//1
f 8//1 7//1 1//1
f 9//1 8//1 1//1
f 2//1 9//1 1//1
f 3//2 11//2 10//2 2//2
f 4//3 12//3 11//3 3//3
f 5//4 13//4 12//4 4//4
f 6//5 14//5 13//5 5//5
f 7//6 15//6 14//6 6//6
f 8//7 16//7 15//7 7//7
f 9//8 17//8 16//8 8//8
f 2//9 10//9 17//9 9//9
f 11//10 19//10 18//10 10//10
f 12//11 20//11 19//11 11//11
f 13//12 21//12 20//12 12//12
f 14//13 22//13 21//13 13//13
f 15//14 23//14 22//14 14//14
f 16//15 24//15 23//15 15//15
f 17//16 25//16 24//16 16//16
f 10//17 18//17 25//17 17//17
f 19//18 27//18 26//18 18//18
f 20//19 28//19 27//19 19//19
f 21//20 29//20 28//20 20//20
f 22//21 30//21 29//21 21//21
f 23//22 31//22 30//22 22//22
f 24//23 32//23 31//23 23//23
f 25//24 33//24 32//24 24//24
f 18//25 26//25 33//25 25//25
