# Blender 4.4.1
# www.blender.org
o Hill_157
v -1.070288 0.000000 0.140609
v -1.070288 5.979497 0.140609
v -1.070288 5.979497 0.140609
v -1.070288 5.979497 0.140609
v -1.070288 5.979497 0.140609
v -1.070288 5.979497 0.140609
v -1.070288 5.979497 0.140609
v -1.070288 5.979497 0.140609
v -1.070288 5.979497 0.140609
v 2.346533 4.897066 0.140609
v 1.263820 4.766776 2.474716
v -1.070288 4.666128 3.423785
v -3.489243 4.918430 2.559564
v -4.471026 4.997296 0.140609
v -3.504804 5.020877 -2.293907
v -1.070288 5.001146 -3.146894
v 1.101115 4.939459 -2.030794
v 4.618292 3.072737 0.140609
v 3.753376 2.535559 4.964272
v -1.070288 2.484247 7.476215
v -5.622613 2.397144 4.692935
v -6.949946 3.068601 0.140609
v -5.504638 3.067983 -4.293741
v -1.070288 3.056190 -5.860640
v 3.417445 2.698515 -4.347124
v 10.377538 -0.042747 0.140609
v 5.027226 0.593299 6.238122
v -1.070288 0.212909 11.512059
v -6.818467 -0.402560 5.888788
v -10.377538 -0.336202 0.140609
v -7.767848 0.388867 -6.556952
v -1.070288 -0.217946 -11.512059
v 5.754007 0.055146 -6.683686
vn -0.0000 1.0000 -0.0000
vn 0.2965 0.9360 0.1898
vn 0.1103 0.9228 0.3691
vn -0.0358 0.9279 0.3712
vn -0.2746 0.9509 0.1425
vn -0.2761 0.9559 -0.1003
vn -0.0918 0.9544 -0.2840
vn 0.1713 0.9443 -0.2810
vn 0.2985 0.9421 -0.1528
vn 0.5601 0.7968 0.2267
vn 0.2178 0.8455 0.4875
vn -0.2567 0.8100 0.5273
vn -0.5969 0.7523 0.2787
vn -0.5877 0.7830 -0.2037
vn -0.1983 0.7950 -0.5733
vn 0.2643 0.7977 -0.5421
vn 0.5692 0.7838 -0.2482
vn 0.5234 0.8010 0.2906
vn 0.3475 0.7733 0.5303
vn -0.4916 0.6788 0.5456
vn -0.7060 0.5990 0.3778
vn -0.6771 0.7080 -0.2006
vn -0.2657 0.8054 -0.5298
vn 0.2932 0.8072 -0.5122
vn 0.5020 0.8188 -0.2785
s 0
f 3//1 2//1 1//1
f 4//1 3//1 1//1
f 5//1 4//1 1//1
f 6//1 5//1 1//1
f 7//1 6//1 1//1
f 8//1 7//1 1//1
f 9//1 8//1 1//1
f 2//1 9//1 1//1
f 3//2 11//2 10//2 2//2
f 4//3 12//3 11//3 3//3
f 5//4 13//4 12//4 4//4
f 6//5 14//5 13//5 5//5
f 7//6 15//6 14//6 6//6
f 8//7 16//7 15//7 7//7
f 9//8 17//8 16//8 8//8
f 2//9 10//9 17//9 9//9
f 11//10 19//10 18//10 10//10
f 12//11 20//11 19//11 11//11
f 13//12 21//12 20//12 12//12
f 14//13 22//13 21//13 13//13
f 15//14 23//14 22//14 14//14
f 16//15 24//15 23//15 15//15
f 17//16 25//16 24//16 16//16
f 10//17 18//17 25//17 17//17
f 19//18 27//18 26//18 18//18
f 20//19 28//19 27//19 19//19
f 21//20 29//20 28//20 20//20
f 22//21 30//21 29//21 21//21
f 23//22 31//22 30//22 22//22
f 24//23 32//23 31//23 23//23
f 25//24 33//24 32//24 24//24
f 18//25 26//25 33//25 25//25
