# Blender 4.4.1
# www.blender.org
o Hill_113
v -0.096684 0.000000 -1.532256
v -0.096684 8.501142 -1.532256
v -0.096684 8.501142 -1.532256
v -0.096684 8.501142 -1.532256
v -0.096684 8.501142 -1.532256
v -0.096684 8.501142 -1.532256
v -0.096684 8.501142 -1.532256
v -0.096684 8.501142 -1.532256
v -0.096684 8.501142 -1.532256
v 3.953129 7.043378 -1.532256
v 2.742266 6.748297 1.306694
v -0.096684 6.628317 2.321090
v -2.975942 6.832529 1.347002
v -3.680588 6.892292 -1.532256
v -2.856474 6.736892 -4.292046
v -0.096684 7.053962 -5.347114
v 2.776752 6.720776 -4.405692
v 6.980410 4.041343 -1.532256
v 4.893374 3.321039 3.457802
v -0.096684 3.330510 5.581176
v -5.657238 4.256746 4.028298
v -7.557972 3.931770 -1.532256
v -5.593696 3.774326 -7.029269
v -0.096684 3.965400 -9.875941
v 5.485517 4.314183 -7.114457
v 13.551291 0.419604 -1.532256
v 8.671529 0.819368 7.235956
v -0.096684 -0.402007 11.310780
v -7.774784 0.680181 6.145844
v -13.551291 -0.305778 -1.532256
v -7.732172 0.778859 -9.167745
v -0.096684 0.611988 -11.310780
v 9.576971 -0.430336 -11.205911
vn -0.0000 1.0000 -0.0000
vn 0.3292 0.9144 0.2354
vn 0.1174 0.8932 0.4341
vn -0.0838 0.8962 0.4356
vn -0.4067 0.9059 0.1183
vn -0.4035 0.8988 -0.1711
vn -0.2361 0.9085 -0.3447
vn 0.2192 0.9123 -0.3461
vn 0.3290 0.9140 -0.2373
vn 0.6622 0.6551 0.3639
vn 0.2733 0.6546 0.7049
vn -0.1043 0.7304 0.6750
vn -0.5978 0.7856 0.1598
vn -0.5947 0.7704 -0.2300
vn -0.3034 0.7853 -0.5397
vn 0.2314 0.8146 -0.5319
vn 0.6203 0.7583 -0.2004
vn 0.4290 0.8715 0.2375
vn 0.1500 0.8531 0.4998
vn -0.2098 0.7431 0.6355
vn -0.6237 0.7259 0.2898
vn -0.5900 0.7510 -0.2966
vn -0.2992 0.5426 -0.7849
vn 0.1727 0.6133 -0.7708
vn 0.5461 0.8066 -0.2263
s 0
f 3//1 2//1 1//1
f 4//1 3//1 1//1
f 5//1 4//1 1//1
f 6//1 5//1 1//1
f 7//1 6//1 1//1
f 8//1 7//1 1//1
f 9//1 8//1 1//1
f 2//1 9//1 1//1
f 3//2 11//2 10//2 2//2
f 4//3 12//3 11//3 3//3
f 5//4 13//4 12//4 4//4
f 6//5 14//5 13//5 5//5
f 7//6 15//6 14//6 6//6
f 8//7 16//7 15//7 7//7
f 9//8 17//8 16//8 8//8
f 2//9 10//9 17//9 9//9
f 11//10 19//10 18//10 10//10
f 12//11 20//11 19//11 11//11
f 13//12 21//12 20//12 12//12
f 14//13 22//13 21//13 13//13
f 15//14 23//14 22//14 14//14
f 16//15 24//15 23//15 15//15
f 17//16 25//16 24//16 16//16
f 10//17 18//17 25//17 17//17
f 19//18 27//18 26//18 18//18
f 20//19 28//19 27//19 19//19
f 21//20 29//20 28//20 20//20
f 22//21 30//21 29//21 21//21
f 23//22 31//22 30//22 22//22
f 24//23 32//23 31//23 23//23
f 25//24 33//24 32//24 24//24
f 18//25 26//25 33//25 25//25
