# Blender 4.4.1
# www.blender.org
o Hill_169
v 0.052324 0.000000 -0.222499
v 0.052324 7.581399 -0.222499
v 0.052324 7.581399 -0.222499
v 0.052324 7.581399 -0.222499
v 0.052324 7.581399 -0.222499
v 0.052324 7.581399 -0.222499
v 0.052324 7.581399 -0.222499
v 0.052324 7.581399 -0.222499
v 0.052324 7.581399 -0.222499
v 2.292167 5.909932 -0.222499
v 1.596392 6.309482 1.321568
v 0.052324 6.137872 2.058220
v -1.541640 6.021393 1.371465
v -2.364693 5.958085 -0.222499
v -1.635522 5.882175 -1.910345
v 0.052324 5.961494 -2.566428
v 1.702406 6.136572 -1.872581
v 4.520532 3.379713 -0.222499
v 3.276806 3.205697 3.001982
v 0.052324 3.070986 3.842120
v -2.800573 3.150306 2.630398
v -4.807162 3.830816 -0.222499
v -2.971371 3.356131 -3.246195
v 0.052324 3.878617 -5.269787
v 3.285562 3.206162 -3.455737
v 6.849219 -0.161296 -0.222499
v 5.619001 -0.638455 5.344177
v 0.052324 0.037325 6.986179
v -5.529140 0.302463 5.358965
v -6.849219 -0.709491 -0.222499
v -5.823190 -0.147103 -6.098013
v 0.052324 -0.287181 -6.986179
v 4.647193 0.135425 -4.817369
vn -0.0000 1.0000 -0.0000
vn 0.5969 0.7999 0.0620
vn 0.1592 0.8342 0.5280
vn -0.2804 0.8111 0.5133
vn -0.5403 0.8044 0.2470
vn -0.5371 0.7998 -0.2680
vn -0.2513 0.7962 -0.5503
vn 0.1501 0.8133 -0.5621
vn 0.5949 0.7972 -0.1031
vn 0.7491 0.6021 0.2762
vn 0.2369 0.5239 0.8182
vn -0.3468 0.4849 0.8028
vn -0.6379 0.5954 0.4885
vn -0.6400 0.6412 -0.4234
vn -0.4327 0.6619 -0.6121
vn 0.3933 0.6661 -0.6338
vn 0.7497 0.6026 -0.2736
vn 0.7763 0.5738 0.2610
vn 0.2425 0.6541 0.7165
vn -0.1886 0.7363 0.6498
vn -0.7579 0.5912 0.2757
vn -0.7864 0.5661 -0.2473
vn -0.2783 0.5658 -0.7762
vn 0.4220 0.4209 -0.8030
vn 0.7901 0.5108 -0.3389
s 0
f 3//1 2//1 1//1
f 4//1 3//1 1//1
f 5//1 4//1 1//1
f 6//1 5//1 1//1
f 7//1 6//1 1//1
f 8//1 7//1 1//1
f 9//1 8//1 1//1
f 2//1 9//1 1//1
f 3//2 11//2 10//2 2//2
f 4//3 12//3 11//3 3//3
f 5//4 13//4 12//4 4//4
f 6//5 14//5 13//5 5//5
f 7//6 15//6 14//6 6//6
f 8//7 16//7 15//7 7//7
f 9//8 17//8 16//8 8//8
f 2//9 10//9 17//9 9//9
f 11//10 19//10 18//10 10//10
f 12//11 20//11 19//11 11//11
f 13//12 21//12 20//12 12//12
f 14//13 22//13 21//13 13//13
f 15//14 23//14 22//14 14//14
f 16//15 24//15 23//15 15//15
f 17//16 25//16 24//16 16//16
f 10//17 18//17 25//17 17//17
f 19//18 27//18 26//18 18//18
f 20//19 28//19 27//19 19//19
f 21//20 29//20 28//20 20//20
f 22//21 30//21 29//21 21//21
f 23//22 31//22 30//22 22//22
f 24//23 32//23 31//23 23//23
f 25//24 33//24 32//24 24//24
f 18//25 26//25 33//25 25//25
