# Blender 4.4.1
# www.blender.org
o Hill_177
v -0.059203 0.000000 0.860844
v -0.059203 8.410860 0.860844
v -0.059203 8.410860 0.860844
v -0.059203 8.410860 0.860844
v -0.059203 8.410860 0.860844
v -0.059203 8.410860 0.860844
v -0.059203 8.410860 0.860844
v -0.059203 8.410860 0.860844
v -0.059203 8.410860 0.860844
v 3.669848 6.778022 0.860844
v 2.816773 6.879133 3.736820
v -0.059203 6.986646 4.583570
v -2.895111 6.728842 3.696752
v -3.880080 6.535211 0.860844
v -2.791547 6.868079 -1.871500
v -0.059203 6.853242 -2.847342
v 2.846080 6.640539 -2.044439
v 8.311655 3.835979 0.860844
v 5.003367 3.971772 5.923414
v -0.059203 4.222574 8.198840
v -6.219743 3.285094 7.021384
v -8.722472 4.239903 0.860844
v -6.080672 4.102059 -5.160625
v -0.059203 4.073853 -7.078764
v 5.378438 3.803602 -4.576797
v 10.791110 0.681285 0.860844
v 9.478540 -0.260164 10.398587
v -0.059203 -0.413642 11.168520
v -9.846012 0.766249 10.647653
v -10.791110 -0.121962 0.860844
v -9.540885 -0.487382 -8.620837
v -0.059203 -0.232759 -11.168520
v 6.872777 0.172872 -6.071136
vn -0.0000 1.0000 -0.0000
vn 0.3996 0.9126 0.0864
vn 0.1388 0.9249 0.3539
vn -0.1929 0.9164 0.3506
vn -0.4388 0.8939 0.0914
vn -0.4397 0.8957 -0.0661
vn -0.1321 0.9139 -0.3839
vn 0.1719 0.9082 -0.3815
vn 0.3962 0.9049 -0.1552
vn 0.5724 0.7718 0.2770
vn 0.2758 0.7373 0.6167
vn -0.2369 0.7778 0.5822
vn -0.4830 0.8368 0.2580
vn -0.4665 0.8661 -0.1795
vn -0.1726 0.8273 -0.5345
vn 0.2655 0.7883 -0.5551
vn 0.5474 0.7946 -0.2627
vn 0.6299 0.7386 0.2401
vn 0.1541 0.6797 0.7171
vn -0.0658 0.6941 0.7168
vn -0.7181 0.6777 0.1581
vn -0.7908 0.5723 -0.2171
vn -0.2123 0.6790 -0.7027
vn 0.4244 0.5731 -0.7010
vn 0.7346 0.5249 -0.4299
s 0
f 3//1 2//1 1//1
f 4//1 3//1 1//1
f 5//1 4//1 1//1
f 6//1 5//1 1//1
f 7//1 6//1 1//1
f 8//1 7//1 1//1
f 9//1 8//1 1//1
f 2//1 9//1 1//1
f 3//2 11//2 10//2 2//2
f 4//3 12//3 11//3 3//3
f 5//4 13//4 12//4 4//4
f 6//5 14//5 13//5 5//5
f 7//6 15//6 14//6 6//6
f 8//7 16//7 15//7 7//7
f 9//8 17//8 16//8 8//8
f 2//9 10//9 17//9 9//9
f 11//10 19//10 18//10 10//10
f 12//11 20//11 19//11 11//11
f 13//12 21//12 20//12 12//12
f 14//13 22//13 21//13 13//13
f 15//14 23//14 22//14 14//14
f 16//15 24//15 23//15 15//15
f 17//16 25//16 24//16 16//16
f 10//17 18//17 25//17 17//17
f 19//18 27//18 26//18 18//18
f 20//19 28//19 27//19 19//19
f 21//20 29//20 28//20 20//20
f 22//21 30//21 29//21 21//21
f 23//22 31//22 30//22 22//22
f 24//23 32//23 31//23 23//23
f 25//24 33//24 32//24 24//24
f 18//25 26//25 33//25 25//25
