# Blender 4.4.1
# www.blender.org
o Hill_245
v -0.375960 0.000000 -0.362242
v -0.375960 5.267109 -0.362242
v -0.375960 5.267109 -0.362242
v -0.375960 5.267109 -0.362242
v -0.375960 5.267109 -0.362242
v -0.375960 5.267109 -0.362242
v -0.375960 5.267109 -0.362242
v -0.375960 5.267109 -0.362242
v -0.375960 5.267109 -0.362242
v 2.831054 4.381849 -0.362242
v 1.635893 4.148003 1.649611
v -0.375960 4.128890 2.795365
v -2.476183 4.113088 1.737981
v -3.324214 4.174685 -0.362242
v -2.461605 4.094403 -2.447888
v -0.375960 4.218108 -3.241254
v 1.666476 4.119776 -2.404679
v 5.804079 2.332132 -0.362242
v 3.654383 2.368330 3.668101
v -0.375960 2.742623 5.962080
v -4.237453 2.269110 3.499250
v -6.566642 2.379259 -0.362242
v -4.078605 2.384191 -4.064888
v -0.375960 2.548357 -6.025623
v 3.655517 2.559061 -4.393720
v 10.326257 -0.466976 -0.362242
v 6.100068 0.412638 6.113785
v -0.375960 0.440893 9.667131
v -7.781965 -0.442513 7.043762
v -10.326257 -0.221982 -0.362242
v -7.399560 0.340123 -7.385843
v -0.375960 0.241439 -9.667131
v 6.214548 -0.082984 -6.952751
vn -0.0000 1.0000 -0.0000
vn 0.2569 0.9306 0.2608
vn 0.1811 0.9252 0.3335
vn -0.1751 0.9262 0.3339
vn -0.3427 0.9248 0.1655
vn -0.3420 0.9229 -0.1770
vn -0.1828 0.9237 -0.3366
vn 0.1823 0.9238 -0.3366
vn 0.2565 0.9293 -0.2655
vn 0.4998 0.8113 0.3032
vn 0.2871 0.8632 0.4153
vn -0.3254 0.8400 0.4343
vn -0.4951 0.8199 0.2875
vn -0.4923 0.8187 -0.2956
vn -0.2855 0.8079 -0.5155
vn 0.2099 0.8481 -0.4865
vn 0.4920 0.8266 -0.2731
vn 0.4936 0.8397 0.2263
vn 0.2903 0.8370 0.4639
vn -0.3001 0.8469 0.4389
vn -0.4932 0.8368 0.2379
vn -0.4732 0.8595 -0.1934
vn -0.1855 0.8706 -0.4556
vn 0.2451 0.8045 -0.5410
vn 0.5261 0.8086 -0.2635
s 0
f 3//1 2//1 1//1
f 4//1 3//1 1//1
f 5//1 4//1 1//1
f 6//1 5//1 1//1
f 7//1 6//1 1//1
f 8//1 7//1 1//1
f 9//1 8//1 1//1
f 2//1 9//1 1//1
f 3//2 11//2 10//2 2//2
f 4//3 12//3 11//3 3//3
f 5//4 13//4 12//4 4//4
f 6//5 14//5 13//5 5//5
f 7//6 15//6 14//6 6//6
f 8//7 16//7 15//7 7//7
f 9//8 17//8 16//8 8//8
f 2//9 10//9 17//9 9//9
f 11//10 19//10 18//10 10//10
f 12//11 20//11 19//11 11//11
f 13//12 21//12 20//12 12//12
f 14//13 22//13 21//13 13//13
f 15//14 23//14 22//14 14//14
f 16//15 24//15 23//15 15//15
f 17//16 25//16 24//16 16//16
f 10//17 18//17 25//17 17//17
f 19//18 27//18 26//18 18//18
f 20//19 28//19 27//19 19//19
f 21//20 29//20 28//20 20//20
f 22//21 30//21 29//21 21//21
f 23//22 31//22 30//22 22//22
f 24//23 32//23 31//23 23//23
f 25//24 33//24 32//24 24//24
f 18//25 26//25 33//25 25//25
