# Blender 4.4.1
# www.blender.org
o Hill_221
v -0.890960 0.000000 -0.222867
v -0.890960 8.728189 -0.222867
v -0.890960 8.728189 -0.222867
v -0.890960 8.728189 -0.222867
v -0.890960 8.728189 -0.222867
v -0.890960 8.728189 -0.222867
v -0.890960 8.728189 -0.222867
v -0.890960 8.728189 -0.222867
v -0.890960 8.728189 -0.222867
v 2.700572 7.276082 -0.222867
v 1.680662 7.196198 2.348754
v -0.890960 7.179606 3.137571
v -3.481169 6.935250 2.367342
v -4.189653 6.841488 -0.222867
v -3.308663 7.332158 -2.640571
v -0.890960 6.931982 -3.831510
v 1.651990 6.772144 -2.765817
v 6.227010 3.782696 -0.222867
v 3.342528 3.976257 4.010621
v -0.890960 4.123706 7.118424
v -5.381971 4.247027 4.268144
v -7.769544 3.568570 -0.222867
v -5.420864 4.045051 -4.752772
v -0.890960 3.966887 -6.972840
v 3.866363 3.592050 -4.980190
v 11.270227 0.448388 -0.222867
v 7.150414 -0.652489 7.818507
v -0.890960 0.790275 9.947355
v -7.893438 0.849891 6.779612
v -11.270227 0.606267 -0.222867
v -8.798203 -0.196512 -8.130111
v -0.890960 0.347015 -9.947355
v 6.128916 -0.606360 -7.242743
vn -0.0000 1.0000 -0.0000
vn 0.3691 0.9128 0.1747
vn 0.1216 0.9015 0.4154
vn -0.2056 0.8888 0.4096
vn -0.4938 0.8634 0.1038
vn -0.4965 0.8680 -0.0047
vn -0.0711 0.8930 -0.4445
vn 0.2361 0.8699 -0.4330
vn 0.3551 0.8782 -0.3204
vn 0.6833 0.6225 0.3816
vn 0.3775 0.6724 0.6367
vn -0.3223 0.7272 0.6060
vn -0.6815 0.6973 0.2219
vn -0.6973 0.6790 -0.2296
vn -0.2889 0.6712 -0.6826
vn 0.3235 0.6853 -0.6525
vn 0.6428 0.6739 -0.3643
vn 0.5332 0.7652 0.3608
vn 0.3570 0.6929 0.6264
vn -0.3406 0.6591 0.6705
vn -0.6457 0.7156 0.2664
vn -0.6326 0.7279 -0.2643
vn -0.2514 0.6713 -0.6972
vn 0.3558 0.5890 -0.7256
vn 0.5753 0.6899 -0.4394
s 0
f 3//1 2//1 1//1
f 4//1 3//1 1//1
f 5//1 4//1 1//1
f 6//1 5//1 1//1
f 7//1 6//1 1//1
f 8//1 7//1 1//1
f 9//1 8//1 1//1
f 2//1 9//1 1//1
f 3//2 11//2 10//2 2//2
f 4//3 12//3 11//3 3//3
f 5//4 13//4 12//4 4//4
f 6//5 14//5 13//5 5//5
f 7//6 15//6 14//6 6//6
f 8//7 16//7 15//7 7//7
f 9//8 17//8 16//8 8//8
f 2//9 10//9 17//9 9//9
f 11//10 19//10 18//10 10//10
f 12//11 20//11 19//11 11//11
f 13//12 21//12 20//12 12//12
f 14//13 22//13 21//13 13//13
f 15//14 23//14 22//14 14//14
f 16//15 24//15 23//15 15//15
f 17//16 25//16 24//16 16//16
f 10//17 18//17 25//17 17//17
f 19//18 27//18 26//18 18//18
f 20//19 28//19 27//19 19//19
f 21//20 29//20 28//20 20//20
f 22//21 30//21 29//21 21//21
f 23//22 31//22 30//22 22//22
f 24//23 32//23 31//23 23//23
f 25//24 33//24 32//24 24//24
f 18//25 26//25 33//25 25//25
