# Blender 4.4.1
# www.blender.org
o Hill_168
v -0.551685 0.000000 -0.515969
v -0.551685 6.534726 -0.515969
v -0.551685 6.534726 -0.515969
v -0.551685 6.534726 -0.515969
v -0.551685 6.534726 -0.515969
v -0.551685 6.534726 -0.515969
v -0.551685 6.534726 -0.515969
v -0.551685 6.534726 -0.515969
v -0.551685 6.534726 -0.515969
v 2.021892 5.372455 -0.515969
v 1.500682 5.247154 1.536397
v -0.551685 5.069043 2.349330
v -2.414433 5.114395 1.346779
v -3.205397 5.342505 -0.515969
v -2.587848 5.208455 -2.552133
v -0.551685 5.435717 -3.162269
v 1.465575 5.357472 -2.533229
v 5.122146 2.735309 -0.515969
v 3.530715 2.790740 3.566430
v -0.551685 2.650669 4.585901
v -4.536986 3.333144 3.469332
v -5.880743 2.974524 -0.515969
v -4.844243 3.099513 -4.808527
v -0.551685 3.320128 -5.791127
v 3.116249 2.598555 -4.183903
v 7.460880 0.231419 -0.515969
v 6.401821 -0.167328 6.437536
v -0.551685 -0.428047 7.438728
v -5.761173 -0.026699 4.693519
v -7.460880 0.440140 -0.515969
v -5.772774 -0.086017 -5.737059
v -0.551685 0.071805 -7.438728
v 5.870962 0.388501 -6.938616
vn -0.0000 1.0000 -0.0000
vn 0.4064 0.8999 0.1582
vn 0.1026 0.8856 0.4530
vn -0.2181 0.8689 0.4444
vn -0.3940 0.8771 0.2747
vn -0.4030 0.8971 -0.1813
vn -0.2130 0.9023 -0.3747
vn 0.1536 0.9126 -0.3790
vn 0.4086 0.9048 -0.1194
vn 0.6389 0.7346 0.2284
vn 0.1745 0.6886 0.7038
vn -0.1426 0.7466 0.6498
vn -0.5897 0.7830 0.1978
vn -0.6211 0.7665 -0.1634
vn -0.2028 0.7851 -0.5852
vn 0.3487 0.6822 -0.6426
vn 0.6619 0.6795 -0.3164
vn 0.6621 0.7270 0.1816
vn 0.1019 0.7096 0.6972
vn -0.2670 0.5513 0.7904
vn -0.8416 0.4594 0.2840
vn -0.8662 0.4231 -0.2659
vn -0.2643 0.3911 -0.8816
vn 0.1774 0.6705 -0.7204
vn 0.5995 0.7717 -0.2121
s 0
f 3//1 2//1 1//1
f 4//1 3//1 1//1
f 5//1 4//1 1//1
f 6//1 5//1 1//1
f 7//1 6//1 1//1
f 8//1 7//1 1//1
f 9//1 8//1 1//1
f 2//1 9//1 1//1
f 3//2 11//2 10//2 2//2
f 4//3 12//3 11//3 3//3
f 5//4 13//4 12//4 4//4
f 6//5 14//5 13//5 5//5
f 7//6 15//6 14//6 6//6
f 8//7 16//7 15//7 7//7
f 9//8 17//8 16//8 8//8
f 2//9 10//9 17//9 9//9
f 11//10 19//10 18//10 10//10
f 12//11 20//11 19//11 11//11
f 13//12 21//12 20//12 12//12
f 14//13 22//13 21//13 13//13
f 15//14 23//14 22//14 14//14
f 16//15 24//15 23//15 15//15
f 17//16 25//16 24//16 16//16
f 10//17 18//17 25//17 17//17
f 19//18 27//18 26//18 18//18
f 20//19 28//19 27//19 19//19
f 21//20 29//20 28//20 20//20
f 22//21 30//21 29//21 21//21
f 23//22 31//22 30//22 22//22
f 24//23 32//23 31//23 23//23
f 25//24 33//24 32//24 24//24
f 18//25 26//25 33//25 25//25
