# Blender 4.4.1
# www.blender.org
o Hill_140
v -0.928471 0.000000 0.774067
v -0.928471 9.967405 0.774067
v -0.928471 9.967405 0.774067
v -0.928471 9.967405 0.774067
v -0.928471 9.967405 0.774067
v -0.928471 9.967405 0.774067
v -0.928471 9.967405 0.774067
v -0.928471 9.967405 0.774067
v -0.928471 9.967405 0.774067
v 1.914459 8.178693 0.774067
v 1.119881 7.955319 2.822419
v -0.928471 7.912061 3.559088
v -2.949386 7.983455 2.794983
v -3.824052 7.873170 0.774067
v -3.022542 7.922476 -1.320004
v -0.928471 7.876862 -1.943351
v 0.946380 7.820073 -1.100784
v 4.011067 4.658367 0.774067
v 2.604452 4.020442 4.306990
v -0.928471 4.075797 6.261743
v -4.414946 4.901151 4.260542
v -6.770435 4.647186 0.774067
v -5.091794 4.455898 -3.389257
v -0.928471 4.733625 -4.229510
v 3.469777 4.611104 -3.624180
v 7.709366 0.872021 0.774067
v 4.287419 -0.053369 5.989957
v -0.928471 -0.684699 7.563163
v -6.101205 -0.865060 5.946802
v -7.709366 0.703834 0.774067
v -6.244464 -0.624832 -4.541926
v -0.928471 0.315627 -7.563163
v 4.730503 0.416920 -4.884907
vn -0.0000 1.0000 -0.0000
vn 0.5102 0.8110 0.2864
vn 0.1929 0.7895 0.5827
vn -0.1924 0.7896 0.5827
vn -0.5736 0.7931 0.2050
vn -0.5741 0.7937 -0.2010
vn -0.1621 0.7821 -0.6017
vn 0.2856 0.7596 -0.5844
vn 0.4880 0.7756 -0.4003
vn 0.7991 0.4608 0.3862
vn 0.3785 0.4941 0.7827
vn -0.3066 0.5380 0.7852
vn -0.7142 0.5878 0.3800
vn -0.7171 0.6298 -0.2985
vn -0.2055 0.5825 -0.7864
vn 0.1902 0.6395 -0.7449
vn 0.7627 0.6072 -0.2228
vn 0.6760 0.5643 0.4739
vn 0.3289 0.3579 0.8739
vn -0.3473 0.3071 0.8860
vn -0.8477 0.3046 0.4343
vn -0.9053 0.2534 -0.3409
vn -0.3873 0.4317 -0.8146
vn 0.2726 0.4836 -0.8318
vn 0.7874 0.5371 -0.3024
s 0
f 3//1 2//1 1//1
f 4//1 3//1 1//1
f 5//1 4//1 1//1
f 6//1 5//1 1//1
f 7//1 6//1 1//1
f 8//1 7//1 1//1
f 9//1 8//1 1//1
f 2//1 9//1 1//1
f 3//2 11//2 10//2 2//2
f 4//3 12//3 11//3 3//3
f 5//4 13//4 12//4 4//4
f 6//5 14//5 13//5 5//5
f 7//6 15//6 14//6 6//6
f 8//7 16//7 15//7 7//7
f 9//8 17//8 16//8 8//8
f 2//9 10//9 17//9 9//9
f 11//10 19//10 18//10 10//10
f 12//11 20//11 19//11 11//11
f 13//12 21//12 20//12 12//12
f 14//13 22//13 21//13 13//13
f 15//14 23//14 22//14 14//14
f 16//15 24//15 23//15 15//15
f 17//16 25//16 24//16 16//16
f 10//17 18//17 25//17 17//17
f 19//18 27//18 26//18 18//18
f 20//19 28//19 27//19 19//19
f 21//20 29//20 28//20 20//20
f 22//21 30//21 29//21 21//21
f 23//22 31//22 30//22 22//22
f 24//23 32//23 31//23 23//23
f 25//24 33//24 32//24 24//24
f 18//25 26//25 33//25 25//25
