# Blender 4.4.1
# www.blender.org
o Hill_098
v 0.604904 0.000000 -0.218553
v 0.604904 9.171163 -0.218553
v 0.604904 9.171163 -0.218553
v 0.604904 9.171163 -0.218553
v 0.604904 9.171163 -0.218553
v 0.604904 9.171163 -0.218553
v 0.604904 9.171163 -0.218553
v 0.604904 9.171163 -0.218553
v 0.604904 9.171163 -0.218553
v 3.861308 7.488172 -0.218553
v 3.016968 7.591074 2.193510
v 0.604904 7.328415 3.123816
v -1.765892 7.305327 2.152243
v -2.775488 7.323546 -0.218553
v -1.864849 7.700098 -2.688307
v 0.604904 7.334925 -3.597460
v 3.039517 7.192414 -2.653166
v 7.041968 4.709935 -0.218553
v 5.477675 3.809249 4.654217
v 0.604904 4.457363 7.072187
v -4.096357 3.626963 4.482708
v -5.732741 3.716239 -0.218553
v -4.140302 4.016506 -4.963759
v 0.604904 4.406933 -7.646269
v 5.049007 3.980259 -4.662656
v 9.875853 0.585431 -0.218553
v 7.864516 -0.589287 7.041058
v 0.604904 -0.884982 9.297644
v -6.031981 0.249424 6.418331
v -9.875853 -0.261847 -0.218553
v -5.209675 0.437795 -6.033133
v 0.604904 -0.762955 -9.297644
v 6.584962 0.415981 -6.198611
vn -0.0000 1.0000 -0.0000
vn 0.4557 0.8817 0.1219
vn 0.0905 0.8721 0.4808
vn -0.2021 0.8576 0.4728
vn -0.4693 0.8586 0.2064
vn -0.4792 0.8767 -0.0430
vn -0.0458 0.8777 -0.4770
vn 0.2303 0.8550 -0.4647
vn 0.4440 0.8592 -0.2543
vn 0.6668 0.6842 0.2954
vn 0.3225 0.7159 0.6193
vn -0.3845 0.7065 0.5942
vn -0.7310 0.6210 0.2829
vn -0.7630 0.6123 -0.2073
vn -0.3156 0.7104 -0.6291
vn 0.3936 0.7077 -0.5867
vn 0.6405 0.6767 -0.3630
vn 0.7649 0.5584 0.3210
vn 0.3294 0.4688 0.8196
vn -0.3743 0.4657 0.8019
vn -0.6913 0.6528 0.3098
vn -0.7345 0.5607 -0.3822
vn -0.4473 0.3150 -0.8371
vn 0.4469 0.3750 -0.8122
vn 0.7487 0.5101 -0.4235
s 0
f 3//1 2//1 1//1
f 4//1 3//1 1//1
f 5//1 4//1 1//1
f 6//1 5//1 1//1
f 7//1 6//1 1//1
f 8//1 7//1 1//1
f 9//1 8//1 1//1
f 2//1 9//1 1//1
f 3//2 11//2 10//2 2//2
f 4//3 12//3 11//3 3//3
f 5//4 13//4 12//4 4//4
f 6//5 14//5 13//5 5//5
f 7//6 15//6 14//6 6//6
f 8//7 16//7 15//7 7//7
f 9//8 17//8 16//8 8//8
f 2//9 10//9 17//9 9//9
f 11//10 19//10 18//10 10//10
f 12//11 20//11 19//11 11//11
f 13//12 21//12 20//12 12//12
f 14//13 22//13 21//13 13//13
f 15//14 23//14 22//14 14//14
f 16//15 24//15 23//15 15//15
f 17//16 25//16 24//16 16//16
f 10//17 18//17 25//17 17//17
f 19//18 27//18 26//18 18//18
f 20//19 28//19 27//19 19//19
f 21//20 29//20 28//20 20//20
f 22//21 30//21 29//21 21//21
f 23//22 31//22 30//22 22//22
f 24//23 32//23 31//23 23//23
f 25//24 33//24 32//24 24//24
f 18//25 26//25 33//25 25//25
