# Blender 4.4.1
# www.blender.org
o Hill_254
v 0.830554 0.000000 0.279791
v 0.830554 8.813532 0.279791
v 0.830554 8.813532 0.279791
v 0.830554 8.813532 0.279791
v 0.830554 8.813532 0.279791
v 0.830554 8.813532 0.279791
v 0.830554 8.813532 0.279791
v 0.830554 8.813532 0.279791
v 0.830554 8.813532 0.279791
v 3.949865 7.125290 0.279791
v 3.071428 6.980642 2.520664
v 0.830554 7.130693 3.655300
v -1.329926 6.825752 2.440270
v -2.379757 7.248929 0.279791
v -1.535180 7.011604 -2.085944
v 0.830554 7.336995 -2.981482
v 3.153203 7.297152 -2.042858
v 6.850782 4.098960 0.279791
v 4.945924 4.188448 4.395161
v 0.830554 4.569629 6.203273
v -3.610974 4.294359 4.721319
v -5.333317 4.073207 0.279791
v -3.957508 4.317762 -4.508271
v 0.830554 3.922030 -5.551443
v 5.333891 4.519119 -4.223547
v 9.318600 0.615725 0.279791
v 7.467163 0.352178 6.916399
v 0.830554 -0.560905 9.436813
v -6.205055 0.277103 7.315400
v -9.318600 0.319723 0.279791
v -5.610709 0.849141 -6.161472
v 0.830554 0.693665 -9.436813
v 8.338762 -0.055104 -7.228418
vn -0.0000 1.0000 -0.0000
vn 0.4625 0.8545 0.2365
vn 0.2748 0.8605 0.4290
vn -0.3530 0.8373 0.4175
vn -0.4083 0.8378 0.3625
vn -0.4254 0.8728 -0.2394
vn -0.2709 0.8769 -0.3970
vn 0.1793 0.8962 -0.4058
vn 0.4737 0.8752 -0.0977
vn 0.6853 0.6610 0.3058
vn 0.3585 0.6660 0.6542
vn -0.3146 0.7235 0.6144
vn -0.6438 0.7072 0.2920
vn -0.6766 0.7060 -0.2093
vn -0.1892 0.6653 -0.7222
vn 0.1948 0.6393 -0.7439
vn 0.7057 0.6853 -0.1797
vn 0.7492 0.6042 0.2715
vn 0.2815 0.5731 0.7696
vn -0.2211 0.5678 0.7929
vn -0.6852 0.6731 0.2783
vn -0.7232 0.6296 -0.2840
vn -0.2437 0.6531 -0.7170
vn 0.2120 0.6915 -0.6906
vn 0.7828 0.5970 -0.1752
s 0
f 3//1 2//1 1//1
f 4//1 3//1 1//1
f 5//1 4//1 1//1
f 6//1 5//1 1//1
f 7//1 6//1 1//1
f 8//1 7//1 1//1
f 9//1 8//1 1//1
f 2//1 9//1 1//1
f 3//2 11//2 10//2 2//2
f 4//3 12//3 11//3 3//3
f 5//4 13//4 12//4 4//4
f 6//5 14//5 13//5 5//5
f 7//6 15//6 14//6 6//6
f 8//7 16//7 15//7 7//7
f 9//8 17//8 16//8 8//8
f 2//9 10//9 17//9 9//9
f 11//10 19//10 18//10 10//10
f 12//11 20//11 19//11 11//11
f 13//12 21//12 20//12 12//12
f 14//13 22//13 21//13 13//13
f 15//14 23//14 22//14 14//14
f 16//15 24//15 23//15 15//15
f 17//16 25//16 24//16 16//16
f 10//17 18//17 25//17 17//17
f 19//18 27//18 26//18 18//18
f 20//19 28//19 27//19 19//19
f 21//20 29//20 28//20 20//20
f 22//21 30//21 29//21 21//21
f 23//22 31//22 30//22 22//22
f 24//23 32//23 31//23 23//23
f 25//24 33//24 32//24 24//24
f 18//25 26//25 33//25 25//25
