# Blender 4.4.1
# www.blender.org
o Hill_148
v -1.043950 0.000000 -1.044383
v -1.043950 9.673274 -1.044383
v -1.043950 9.673274 -1.044383
v -1.043950 9.673274 -1.044383
v -1.043950 9.673274 -1.044383
v -1.043950 9.673274 -1.044383
v -1.043950 9.673274 -1.044383
v -1.043950 9.673274 -1.044383
v -1.043950 9.673274 -1.044383
v 2.325949 7.888165 -1.044383
v 1.205229 7.957231 1.204796
v -1.043950 7.725651 2.449733
v -3.525068 7.980026 1.436735
v -4.588137 7.767685 -1.044383
v -3.503102 8.026798 -3.503535
v -1.043950 7.733031 -4.282915
v 1.249974 7.511864 -3.338308
v 5.153661 4.850083 -1.044383
v 3.652232 3.872333 3.651798
v -1.043950 3.857354 5.121451
v -5.733346 4.323483 3.645012
v -8.190795 3.977272 -1.044383
v -6.115458 4.683463 -6.115891
v -1.043950 4.447620 -8.524426
v 4.267099 4.526061 -6.355433
v 11.014826 0.165646 -1.044383
v 5.663914 -0.090822 5.663481
v -1.043950 0.182379 10.472438
v -8.703180 -0.550240 6.614847
v -11.014826 -0.634306 -1.044383
v -9.210358 -0.106259 -9.210791
v -1.043950 0.205618 -10.472438
v 7.380181 0.577112 -9.468514
vn -0.0000 1.0000 -0.0000
vn 0.4585 0.8655 0.2019
vn 0.1767 0.8597 0.4792
vn -0.1086 0.8683 0.4840
vn -0.4698 0.8737 0.1265
vn -0.4704 0.8749 -0.1154
vn -0.0603 0.8563 -0.5130
vn 0.2824 0.8229 -0.4930
vn 0.4398 0.8302 -0.3425
vn 0.6939 0.6322 0.3447
vn 0.2789 0.5789 0.7662
vn -0.2161 0.5751 0.7890
vn -0.7078 0.6406 0.2976
vn -0.6993 0.6846 -0.2057
vn -0.2166 0.7417 -0.6348
vn 0.2488 0.7817 -0.5719
vn 0.6374 0.7347 -0.2321
vn 0.6114 0.6586 0.4386
vn 0.3588 0.6951 0.6230
vn -0.2893 0.7174 0.6338
vn -0.7775 0.5628 0.2807
vn -0.8037 0.5662 -0.1828
vn -0.2289 0.5332 -0.8145
vn 0.1683 0.5637 -0.8087
vn 0.6403 0.7399 -0.2061
s 0
f 3//1 2//1 1//1
f 4//1 3//1 1//1
f 5//1 4//1 1//1
f 6//1 5//1 1//1
f 7//1 6//1 1//1
f 8//1 7//1 1//1
f 9//1 8//1 1//1
f 2//1 9//1 1//1
f 3//2 11//2 10//2 2//2
f 4//3 12//3 11//3 3//3
f 5//4 13//4 12//4 4//4
f 6//5 14//5 13//5 5//5
f 7//6 15//6 14//6 6//6
f 8//7 16//7 15//7 7//7
f 9//8 17//8 16//8 8//8
f 2//9 10//9 17//9 9//9
f 11//10 19//10 18//10 10//10
f 12//11 20//11 19//11 11//11
f 13//12 21//12 20//12 12//12
f 14//13 22//13 21//13 13//13
f 15//14 23//14 22//14 14//14
f 16//15 24//15 23//15 15//15
f 17//16 25//16 24//16 16//16
f 10//17 18//17 25//17 17//17
f 19//18 27//18 26//18 18//18
f 20//19 28//19 27//19 19//19
f 21//20 29//20 28//20 20//20
f 22//21 30//21 29//21 21//21
f 23//22 31//22 30//22 22//22
f 24//23 32//23 31//23 23//23
f 25//24 33//24 32//24 24//24
f 18//25 26//25 33//25 25//25
