# Blender 4.4.1
# www.blender.org
o Hill_202
v 0.676578 0.000000 -0.438031
v 0.676578 9.880810 -0.438031
v 0.676578 9.880810 -0.438031
v 0.676578 9.880810 -0.438031
v 0.676578 9.880810 -0.438031
v 0.676578 9.880810 -0.438031
v 0.676578 9.880810 -0.438031
v 0.676578 9.880810 -0.438031
v 0.676578 9.880810 -0.438031
v 3.019558 8.053075 -0.438031
v 2.451797 7.774692 1.337189
v 0.676578 7.977162 2.010954
v -1.042051 8.245221 1.280598
v -1.681673 8.067951 -0.438031
v -0.948564 8.274109 -2.063173
v 0.676578 7.858393 -2.860192
v 2.307123 7.771741 -2.068576
v 5.995805 4.468342 -0.438031
v 4.323781 4.054472 3.209173
v 0.676578 4.046031 4.163782
v -2.631198 5.010676 2.869745
v -3.913244 3.953947 -0.438031
v -2.983909 4.019959 -4.098518
v 0.676578 4.598162 -5.416573
v 4.443398 4.042472 -4.204851
v 7.235114 -0.847110 -0.438031
v 6.609012 0.899253 5.494403
v 0.676578 -0.556554 7.505664
v -3.688733 -0.360163 3.927279
v -7.235114 0.397468 -0.438031
v -4.197135 -0.126688 -5.311743
v 0.676578 0.435154 -7.505664
v 5.047030 -0.180610 -4.808483
vn -0.0000 1.0000 -0.0000
vn 0.5858 0.7509 0.3051
vn 0.3073 0.7513 0.5840
vn -0.1364 0.7822 0.6080
vn -0.6031 0.7846 0.1435
vn -0.6004 0.7810 -0.1718
vn -0.1172 0.7623 -0.6365
vn 0.3320 0.7241 -0.6046
vn 0.5701 0.7309 -0.3752
vn 0.7259 0.5775 0.3736
vn 0.2656 0.4989 0.8249
vn -0.2198 0.4894 0.8439
vn -0.8494 0.4861 0.2054
vn -0.8402 0.4866 -0.2392
vn -0.3236 0.5556 -0.7659
vn 0.3412 0.5936 -0.7288
vn 0.7049 0.6022 -0.3747
vn 0.8960 0.4152 0.1572
vn 0.1482 0.6089 0.7793
vn -0.4473 0.4002 0.7998
vn -0.7703 0.4333 0.4678
vn -0.7678 0.5126 -0.3844
vn -0.3946 0.3885 -0.8327
vn 0.4478 0.3024 -0.8415
vn 0.8928 0.1981 -0.4045
s 0
f 3//1 2//1 1//1
f 4//1 3//1 1//1
f 5//1 4//1 1//1
f 6//1 5//1 1//1
f 7//1 6//1 1//1
f 8//1 7//1 1//1
f 9//1 8//1 1//1
f 2//1 9//1 1//1
f 3//2 11//2 10//2 2//2
f 4//3 12//3 11//3 3//3
f 5//4 13//4 12//4 4//4
f 6//5 14//5 13//5 5//5
f 7//6 15//6 14//6 6//6
f 8//7 16//7 15//7 7//7
f 9//8 17//8 16//8 8//8
f 2//9 10//9 17//9 9//9
f 11//10 19//10 18//10 10//10
f 12//11 20//11 19//11 11//11
f 13//12 21//12 20//12 12//12
f 14//13 22//13 21//13 13//13
f 15//14 23//14 22//14 14//14
f 16//15 24//15 23//15 15//15
f 17//16 25//16 24//16 16//16
f 10//17 18//17 25//17 17//17
f 19//18 27//18 26//18 18//18
f 20//19 28//19 27//19 19//19
f 21//20 29//20 28//20 20//20
f 22//21 30//21 29//21 21//21
f 23//22 31//22 30//22 22//22
f 24//23 32//23 31//23 23//23
f 25//24 33//24 32//24 24//24
f 18//25 26//25 33//25 25//25
