# Blender 4.4.1
# www.blender.org
o Hill_258
v 0.206702 0.000000 -1.298715
v 0.206702 9.724517 -1.298715
v 0.206702 9.724517 -1.298715
v 0.206702 9.724517 -1.298715
v 0.206702 9.724517 -1.298715
v 0.206702 9.724517 -1.298715
v 0.206702 9.724517 -1.298715
v 0.206702 9.724517 -1.298715
v 0.206702 9.724517 -1.298715
v 2.975335 7.945436 -1.298715
v 2.249773 7.675896 0.744357
v 0.206702 7.587534 1.293999
v -1.800242 8.006283 0.708229
v -2.347680 7.753816 -1.298715
v -1.770686 7.877372 -3.276103
v 0.206702 8.045641 -4.038869
v 2.001423 7.831356 -3.093436
v 5.203907 4.160996 -1.298715
v 3.921160 4.393485 2.415743
v 0.206702 4.011950 3.766863
v -3.240009 4.746248 2.147996
v -5.318073 4.489208 -1.298715
v -3.779624 4.977779 -5.285040
v 0.206702 4.743283 -6.700274
v 4.472096 4.573474 -5.564110
v 8.092200 -0.112895 -1.298715
v 5.580168 0.871909 4.074751
v 0.206702 -0.822845 8.124618
v -5.920430 -0.185759 4.828417
v -8.092200 0.283043 -1.298715
v -6.560617 0.760925 -8.066033
v 0.206702 0.559618 -8.124618
v 5.495500 -0.440603 -6.587512
vn -0.0000 1.0000 -0.0000
vn 0.5174 0.8051 0.2900
vn 0.1364 0.7644 0.6301
vn -0.0246 0.7714 0.6358
vn -0.6095 0.7900 0.0669
vn -0.6058 0.7853 -0.1277
vn -0.2643 0.8224 -0.5038
vn 0.3528 0.7979 -0.4888
vn 0.5107 0.7948 -0.3277
vn 0.8089 0.5139 0.2855
vn 0.2228 0.5434 0.8094
vn -0.2237 0.5192 0.8248
vn -0.7548 0.5784 0.3093
vn -0.7318 0.6538 -0.1925
vn -0.2593 0.6332 -0.7293
vn 0.2823 0.6548 -0.7011
vn 0.7840 0.5904 -0.1916
vn 0.8069 0.5273 0.2663
vn 0.3055 0.5956 0.7429
vn -0.2907 0.6106 0.7366
vn -0.7565 0.5537 0.3481
vn -0.7945 0.5816 -0.1746
vn -0.1009 0.4719 -0.8759
vn 0.2902 0.2761 -0.9163
vn 0.8673 0.3982 -0.2986
s 0
f 3//1 2//1 1//1
f 4//1 3//1 1//1
f 5//1 4//1 1//1
f 6//1 5//1 1//1
f 7//1 6//1 1//1
f 8//1 7//1 1//1
f 9//1 8//1 1//1
f 2//1 9//1 1//1
f 3//2 11//2 10//2 2//2
f 4//3 12//3 11//3 3//3
f 5//4 13//4 12//4 4//4
f 6//5 14//5 13//5 5//5
f 7//6 15//6 14//6 6//6
f 8//7 16//7 15//7 7//7
f 9//8 17//8 16//8 8//8
f 2//9 10//9 17//9 9//9
f 11//10 19//10 18//10 10//10
f 12//11 20//11 19//11 11//11
f 13//12 21//12 20//12 12//12
f 14//13 22//13 21//13 13//13
f 15//14 23//14 22//14 14//14
f 16//15 24//15 23//15 15//15
f 17//16 25//16 24//16 16//16
f 10//17 18//17 25//17 17//17
f 19//18 27//18 26//18 18//18
f 20//19 28//19 27//19 19//19
f 21//20 29//20 28//20 20//20
f 22//21 30//21 29//21 21//21
f 23//22 31//22 30//22 22//22
f 24//23 32//23 31//23 23//23
f 25//24 33//24 32//24 24//24
f 18//25 26//25 33//25 25//25
