# Blender 4.4.1
# www.blender.org
o Hill_235
v -0.374896 0.000000 -0.477596
v -0.374896 8.857478 -0.477596
v -0.374896 8.857478 -0.477596
v -0.374896 8.857478 -0.477596
v -0.374896 8.857478 -0.477596
v -0.374896 8.857478 -0.477596
v -0.374896 8.857478 -0.477596
v -0.374896 8.857478 -0.477596
v -0.374896 8.857478 -0.477596
v 2.359690 6.938396 -0.477596
v 1.489053 6.882090 1.386353
v -0.374896 6.959737 2.203340
v -2.228072 7.290998 1.375579
v -2.908680 7.243106 -0.477596
v -2.342367 6.859504 -2.445067
v -0.374896 7.153363 -3.036726
v 1.434265 7.380573 -2.286758
v 4.830201 4.559976 -0.477596
v 3.002548 3.907130 2.899848
v -0.374896 3.825018 4.444097
v -4.162229 3.464479 3.309736
v -6.021281 4.132389 -0.477596
v -3.797703 4.075795 -3.900403
v -0.374896 3.950268 -5.376028
v 3.131105 4.445210 -3.983597
v 7.894984 0.419914 -0.477596
v 4.714969 -0.078635 4.612268
v -0.374896 0.039948 8.799994
v -5.425276 -0.076110 4.572784
v -7.894984 -0.221124 -0.477596
v -6.016516 -0.086144 -6.119216
v -0.374896 0.630899 -8.799994
v 6.012889 -0.431524 -6.865382
vn -0.0000 1.0000 -0.0000
vn 0.5513 0.7855 0.2812
vn 0.2761 0.7845 0.5553
vn -0.1115 0.8111 0.5742
vn -0.5292 0.8307 0.1729
vn -0.5119 0.8035 -0.3040
vn -0.2794 0.7992 -0.5322
vn 0.1243 0.8259 -0.5500
vn 0.5719 0.8150 -0.0934
vn 0.6644 0.6147 0.4252
vn 0.3421 0.5520 0.7604
vn -0.2770 0.5496 0.7881
vn -0.6944 0.6111 0.3799
vn -0.6742 0.6211 -0.3997
vn -0.3115 0.5616 -0.7665
vn 0.2361 0.5786 -0.7807
vn 0.6994 0.6461 -0.3056
vn 0.7043 0.5167 0.4868
vn 0.4461 0.6098 0.6551
vn -0.4408 0.5929 0.6739
vn -0.8167 0.3922 0.4232
vn -0.8015 0.4786 -0.3586
vn -0.3580 0.6276 -0.6913
vn 0.2765 0.6452 -0.7122
vn 0.7384 0.5909 -0.3250
s 0
f 3//1 2//1 1//1
f 4//1 3//1 1//1
f 5//1 4//1 1//1
f 6//1 5//1 1//1
f 7//1 6//1 1//1
f 8//1 7//1 1//1
f 9//1 8//1 1//1
f 2//1 9//1 1//1
f 3//2 11//2 10//2 2//2
f 4//3 12//3 11//3 3//3
f 5//4 13//4 12//4 4//4
f 6//5 14//5 13//5 5//5
f 7//6 15//6 14//6 6//6
f 8//7 16//7 15//7 7//7
f 9//8 17//8 16//8 8//8
f 2//9 10//9 17//9 9//9
f 11//10 19//10 18//10 10//10
f 12//11 20//11 19//11 11//11
f 13//12 21//12 20//12 12//12
f 14//13 22//13 21//13 13//13
f 15//14 23//14 22//14 14//14
f 16//15 24//15 23//15 15//15
f 17//16 25//16 24//16 16//16
f 10//17 18//17 25//17 17//17
f 19//18 27//18 26//18 18//18
f 20//19 28//19 27//19 19//19
f 21//20 29//20 28//20 20//20
f 22//21 30//21 29//21 21//21
f 23//22 31//22 30//22 22//22
f 24//23 32//23 31//23 23//23
f 25//24 33//24 32//24 24//24
f 18//25 26//25 33//25 25//25
