# Blender 4.4.1
# www.blender.org
o Hill_259
v -1.023671 0.000000 0.527116
v -1.023671 7.953993 0.527116
v -1.023671 7.953993 0.527116
v -1.023671 7.953993 0.527116
v -1.023671 7.953993 0.527116
v -1.023671 7.953993 0.527116
v -1.023671 7.953993 0.527116
v -1.023671 7.953993 0.527116
v -1.023671 7.953993 0.527116
v 1.223820 6.494523 0.527116
v 0.567043 6.555337 2.117829
v -1.023671 6.500565 2.665473
v -2.497660 6.592492 2.001104
v -3.032583 6.630417 0.527116
v -2.503876 6.398016 -0.953090
v -1.023671 6.553827 -1.483642
v 0.571175 6.377571 -1.067730
v 3.721614 3.095708 0.527116
v 2.367550 3.885921 3.918337
v -1.023671 3.388828 5.230311
v -4.266325 4.071635 3.769770
v -4.845181 3.994545 0.527116
v -3.720759 3.815336 -2.169973
v -1.023671 3.379050 -4.247868
v 2.040995 3.136138 -2.537550
v 6.343098 -0.463309 0.527116
v 3.355590 -0.121892 4.906376
v -1.023671 -0.125711 6.168993
v -5.259871 0.382379 4.763316
v -6.343098 0.579439 0.527116
v -5.720097 -0.274575 -4.169310
v -1.023671 -0.356215 -6.168993
v 3.294308 -0.358967 -3.790863
vn -0.0000 1.0000 -0.0000
vn 0.5348 0.8235 0.1893
vn 0.1628 0.8160 0.5546
vn -0.1978 0.8107 0.5510
vn -0.5372 0.8153 0.2159
vn -0.5228 0.7935 -0.3113
vn -0.2796 0.7879 -0.5487
vn 0.2331 0.7980 -0.5557
vn 0.5239 0.8067 -0.2735
vn 0.7684 0.6056 0.2067
vn 0.2094 0.6299 0.7479
vn -0.2269 0.6376 0.7362
vn -0.7783 0.6019 0.1788
vn -0.7694 0.5298 -0.3567
vn -0.4046 0.5764 -0.7099
vn 0.3834 0.5683 -0.7281
vn 0.7521 0.5347 -0.3854
vn 0.8106 0.4375 0.3892
vn 0.2867 0.2729 0.9183
vn -0.3030 0.2856 0.9092
vn -0.9134 0.3495 0.2086
vn -0.8452 0.4643 -0.2646
vn -0.3944 0.4902 -0.7773
vn 0.4497 0.4233 -0.7865
vn 0.7391 0.4884 -0.4639
s 0
f 3//1 2//1 1//1
f 4//1 3//1 1//1
f 5//1 4//1 1//1
f 6//1 5//1 1//1
f 7//1 6//1 1//1
f 8//1 7//1 1//1
f 9//1 8//1 1//1
f 2//1 9//1 1//1
f 3//2 11//2 10//2 2//2
f 4//3 12//3 11//3 3//3
f 5//4 13//4 12//4 4//4
f 6//5 14//5 13//5 5//5
f 7//6 15//6 14//6 6//6
f 8//7 16//7 15//7 7//7
f 9//8 17//8 16//8 8//8
f 2//9 10//9 17//9 9//9
f 11//10 19//10 18//10 10//10
f 12//11 20//11 19//11 11//11
f 13//12 21//12 20//12 12//12
f 14//13 22//13 21//13 13//13
f 15//14 23//14 22//14 14//14
f 16//15 24//15 23//15 15//15
f 17//16 25//16 24//16 16//16
f 10//17 18//17 25//17 17//17
f 19//18 27//18 26//18 18//18
f 20//19 28//19 27//19 19//19
f 21//20 29//20 28//20 20//20
f 22//21 30//21 29//21 21//21
f 23//22 31//22 30//22 22//22
f 24//23 32//23 31//23 23//23
f 25//24 33//24 32//24 24//24
f 18//25 26//25 33//25 25//25
