# Blender 4.4.1
# www.blender.org
o Hill_102
v 0.801970 0.000000 -0.219774
v 0.801970 6.816866 -0.219774
v 0.801970 6.816866 -0.219774
v 0.801970 6.816866 -0.219774
v 0.801970 6.816866 -0.219774
v 0.801970 6.816866 -0.219774
v 0.801970 6.816866 -0.219774
v 0.801970 6.816866 -0.219774
v 0.801970 6.816866 -0.219774
v 4.149470 5.569509 -0.219774
v 3.161320 5.686377 2.139575
v 0.801970 5.388950 3.313776
v -1.619391 5.411929 2.201587
v -2.709456 5.635559 -0.219774
v -1.765994 5.535968 -2.787739
v 0.801970 5.623720 -3.801836
v 3.185986 5.408810 -2.603789
v 7.350674 2.988849 -0.219774
v 5.621646 2.916469 4.599902
v 0.801970 2.795660 7.694451
v -4.379469 3.083770 4.961665
v -6.159615 2.919797 -0.219774
v -4.526003 3.283548 -5.547748
v 0.801970 2.917482 -6.627929
v 5.650332 3.230540 -5.068136
v 9.410907 -0.393112 -0.219774
v 7.714727 0.114843 6.692983
v 0.801970 0.301495 9.371531
v -7.439035 0.676393 8.021232
v -9.410907 0.161505 -0.219774
v -5.712923 -0.212395 -6.734668
v 0.801970 0.480740 -9.371531
v 7.748765 -0.171291 -7.166569
vn -0.0000 1.0000 -0.0000
vn 0.3474 0.9324 0.0993
vn 0.0694 0.9249 0.3738
vn -0.1612 0.9150 0.3698
vn -0.3107 0.9235 0.2251
vn -0.3151 0.9368 -0.1521
vn -0.1553 0.9372 -0.3122
vn 0.2374 0.9216 -0.3070
vn 0.3421 0.9181 -0.2001
vn 0.6146 0.7552 0.2279
vn 0.2697 0.8025 0.5322
vn -0.2164 0.8410 0.4959
vn -0.5559 0.8027 0.2161
vn -0.5724 0.8043 -0.1599
vn -0.1369 0.7734 -0.6189
vn 0.2201 0.7657 -0.6044
vn 0.5763 0.7915 -0.2034
vn 0.7788 0.5926 0.2054
vn 0.3454 0.6310 0.6946
vn -0.1633 0.7364 0.6565
vn -0.5914 0.7966 0.1250
vn -0.7381 0.5869 -0.3328
vn -0.2605 0.5689 -0.7800
vn 0.2433 0.6695 -0.7019
vn 0.8041 0.5571 -0.2073
s 0
f 3//1 2//1 1//1
f 4//1 3//1 1//1
f 5//1 4//1 1//1
f 6//1 5//1 1//1
f 7//1 6//1 1//1
f 8//1 7//1 1//1
f 9//1 8//1 1//1
f 2//1 9//1 1//1
f 3//2 11//2 10//2 2//2
f 4//3 12//3 11//3 3//3
f 5//4 13//4 12//4 4//4
f 6//5 14//5 13//5 5//5
f 7//6 15//6 14//6 6//6
f 8//7 16//7 15//7 7//7
f 9//8 17//8 16//8 8//8
f 2//9 10//9 17//9 9//9
f 11//10 19//10 18//10 10//10
f 12//11 20//11 19//11 11//11
f 13//12 21//12 20//12 12//12
f 14//13 22//13 21//13 13//13
f 15//14 23//14 22//14 14//14
f 16//15 24//15 23//15 15//15
f 17//16 25//16 24//16 16//16
f 10//17 18//17 25//17 17//17
f 19//18 27//18 26//18 18//18
f 20//19 28//19 27//19 19//19
f 21//20 29//20 28//20 20//20
f 22//21 30//21 29//21 21//21
f 23//22 31//22 30//22 22//22
f 24//23 32//23 31//23 23//23
f 25//24 33//24 32//24 24//24
f 18//25 26//25 33//25 25//25
