# Blender 4.4.1
# www.blender.org
o Hill_103
v -0.571140 0.000000 -0.689376
v -0.571140 9.734741 -0.689376
v -0.571140 9.734741 -0.689376
v -0.571140 9.734741 -0.689376
v -0.571140 9.734741 -0.689376
v -0.571140 9.734741 -0.689376
v -0.571140 9.734741 -0.689376
v -0.571140 9.734741 -0.689376
v -0.571140 9.734741 -0.689376
v 1.376871 7.967881 -0.689376
v 0.843788 7.600944 0.725552
v -0.571140 7.580408 1.292979
v -2.015672 7.883844 0.755156
v -2.664856 8.103110 -0.689376
v -2.095450 7.573125 -2.213687
v -0.571140 7.697728 -2.735882
v 0.816551 8.016679 -2.077068
v 3.691016 4.631562 -0.689376
v 2.102539 4.681962 1.984303
v -0.571140 3.839057 3.320024
v -3.523311 4.503282 2.262795
v -4.185983 4.033468 -0.689376
v -3.692797 3.869477 -3.811033
v -0.571140 4.465098 -5.182436
v 1.961613 4.082236 -3.222129
v 5.722808 0.158229 -0.689376
v 3.670388 0.071908 3.552152
v -0.571140 -0.352673 6.081022
v -5.104644 -0.591043 3.844128
v -5.722808 -0.811126 -0.689376
v -4.353320 0.082490 -4.471556
v -0.571140 -0.024861 -6.081022
v 3.851215 0.159092 -5.111731
vn -0.0000 1.0000 -0.0000
vn 0.6138 0.6767 0.4067
vn 0.2743 0.6511 0.7076
vn -0.1306 0.6713 0.7296
vn -0.5715 0.7334 0.3682
vn -0.5489 0.7044 -0.4500
vn -0.2870 0.6789 -0.6758
vn 0.1695 0.6985 -0.6952
vn 0.6525 0.7194 -0.2382
vn 0.7457 0.5118 0.4266
vn 0.2902 0.4669 0.8353
vn -0.2079 0.4698 0.8579
vn -0.8814 0.4069 0.2398
vn -0.8762 0.4051 -0.2609
vn -0.3893 0.5292 -0.7539
vn 0.5010 0.4504 -0.7390
vn 0.7519 0.4357 -0.4948
vn 0.8117 0.3958 0.4294
vn 0.3665 0.4624 0.8074
vn -0.3393 0.4453 0.8286
vn -0.9397 0.3158 0.1317
vn -0.9396 0.2565 -0.2264
vn -0.4003 0.2004 -0.8942
vn 0.3701 0.3661 -0.8538
vn 0.7734 0.4595 -0.4367
s 0
f 3//1 2//1 1//1
f 4//1 3//1 1//1
f 5//1 4//1 1//1
f 6//1 5//1 1//1
f 7//1 6//1 1//1
f 8//1 7//1 1//1
f 9//1 8//1 1//1
f 2//1 9//1 1//1
f 3//2 11//2 10//2 2//2
f 4//3 12//3 11//3 3//3
f 5//4 13//4 12//4 4//4
f 6//5 14//5 13//5 5//5
f 7//6 15//6 14//6 6//6
f 8//7 16//7 15//7 7//7
f 9//8 17//8 16//8 8//8
f 2//9 10//9 17//9 9//9
f 11//10 19//10 18//10 10//10
f 12//11 20//11 19//11 11//11
f 13//12 21//12 20//12 12//12
f 14//13 22//13 21//13 13//13
f 15//14 23//14 22//14 14//14
f 16//15 24//15 23//15 15//15
f 17//16 25//16 24//16 16//16
f 10//17 18//17 25//17 17//17
f 19//18 27//18 26//18 18//18
f 20//19 28//19 27//19 19//19
f 21//20 29//20 28//20 20//20
f 22//21 30//21 29//21 21//21
f 23//22 31//22 30//22 22//22
f 24//23 32//23 31//23 23//23
f 25//24 33//24 32//24 24//24
f 18//25 26//25 33//25 25//25
