# Blender 4.4.1
# www.blender.org
o Hill_241
v 1.257364 0.000000 1.225508
v 1.257364 8.099413 1.225508
v 1.257364 8.099413 1.225508
v 1.257364 8.099413 1.225508
v 1.257364 8.099413 1.225508
v 1.257364 8.099413 1.225508
v 1.257364 8.099413 1.225508
v 1.257364 8.099413 1.225508
v 1.257364 8.099413 1.225508
v 4.248617 6.566686 1.225508
v 3.176713 6.676478 3.144856
v 1.257364 6.737853 4.135298
v -0.711058 6.548654 3.193930
v -1.643138 6.514190 1.225508
v -0.654524 6.765501 -0.686381
v 1.257364 6.433286 -1.571057
v 3.185152 6.554283 -0.702280
v 6.221408 4.173945 1.225508
v 5.574678 4.117450 5.542822
v 1.257364 3.253980 7.339567
v -2.413719 3.720759 4.896592
v -3.918468 3.976221 1.225508
v -2.290818 4.220938 -2.322675
v 1.257364 3.182365 -4.270618
v 5.669724 3.463428 -3.186852
v 8.197035 0.775744 1.225508
v 7.717556 0.696462 7.685699
v 1.257364 0.189429 8.494015
v -5.319174 -0.700860 7.802046
v -8.197035 0.390701 1.225508
v -5.114102 0.571668 -5.145958
v 1.257364 0.374337 -8.494015
v 7.395857 -0.457249 -4.912985
vn -0.0000 1.0000 -0.0000
vn 0.4468 0.8720 0.1997
vn 0.2404 0.8792 0.4114
vn -0.2783 0.8700 0.4071
vn -0.4692 0.8585 0.2071
vn -0.4754 0.8699 -0.1315
vn -0.0872 0.8558 -0.5099
vn 0.1740 0.8460 -0.5040
vn 0.4416 0.8619 -0.2492
vn 0.6908 0.6991 0.1844
vn 0.2101 0.7082 0.6740
vn -0.3767 0.6298 0.6793
vn -0.7055 0.6275 0.3294
vn -0.7136 0.6405 -0.2837
vn -0.2308 0.6238 -0.7467
vn 0.1813 0.6640 -0.7254
vn 0.6913 0.6767 -0.2533
vn 0.8388 0.5362 0.0944
vn 0.1464 0.4863 0.8614
vn -0.2669 0.5374 0.7999
vn -0.6263 0.6921 0.3588
vn -0.6327 0.7261 -0.2693
vn -0.2288 0.7616 -0.6063
vn 0.3287 0.6715 -0.6641
vn 0.8551 0.4792 -0.1979
s 0
f 3//1 2//1 1//1
f 4//1 3//1 1//1
f 5//1 4//1 1//1
f 6//1 5//1 1//1
f 7//1 6//1 1//1
f 8//1 7//1 1//1
f 9//1 8//1 1//1
f 2//1 9//1 1//1
f 3//2 11//2 10//2 2//2
f 4//3 12//3 11//3 3//3
f 5//4 13//4 12//4 4//4
f 6//5 14//5 13//5 5//5
f 7//6 15//6 14//6 6//6
f 8//7 16//7 15//7 7//7
f 9//8 17//8 16//8 8//8
f 2//9 10//9 17//9 9//9
f 11//10 19//10 18//10 10//10
f 12//11 20//11 19//11 11//11
f 13//12 21//12 20//12 12//12
f 14//13 22//13 21//13 13//13
f 15//14 23//14 22//14 14//14
f 16//15 24//15 23//15 15//15
f 17//16 25//16 24//16 16//16
f 10//17 18//17 25//17 17//17
f 19//18 27//18 26//18 18//18
f 20//19 28//19 27//19 19//19
f 21//20 29//20 28//20 20//20
f 22//21 30//21 29//21 21//21
f 23//22 31//22 30//22 22//22
f 24//23 32//23 31//23 23//23
f 25//24 33//24 32//24 24//24
f 18//25 26//25 33//25 25//25
