# Blender 4.4.1
# www.blender.org
o Mountain_023
v 3.596943 0.000000 -1.944395
v 3.596943 11.401880 -1.944395
v 3.596943 11.401880 -1.944395
v 3.596943 11.401880 -1.944395
v 3.596943 11.401880 -1.944395
v 3.596943 11.401880 -1.944395
v 3.596943 11.401880 -1.944395
v 3.596943 11.401880 -1.944395
v 3.596943 11.401880 -1.944395
v 3.596943 11.401880 -1.944395
v 3.596943 11.401880 -1.944395
v 3.596943 11.401880 -1.944395
v 3.596943 11.401880 -1.944395
v 11.281864 9.972214 -1.944395
v 9.885221 9.971193 1.686143
v 7.146501 9.824216 4.203619
v 3.596943 9.991724 5.249879
v 0.080539 10.214886 4.146196
v -2.622362 9.765990 1.646322
v -3.966068 10.215390 -1.944395
v -3.034454 9.876075 -5.773035
v 0.072681 10.026021 -8.048596
v 3.596943 10.133060 -9.655667
v 7.426395 10.182261 -8.577201
v 10.302881 9.904580 -5.816070
v 19.710314 7.251667 -1.944395
v 15.395255 7.144682 4.867363
v 10.461140 6.980197 9.944742
v 3.596943 7.703463 14.189021
v -4.487484 7.540801 12.058244
v -8.388998 7.905162 4.975691
v -11.781033 7.859671 -1.944395
v -9.960358 7.055146 -9.771707
v -3.937171 7.000547 -14.993863
v 3.596943 7.585631 -16.177254
v 10.447662 7.631618 -13.810189
v 17.569136 7.882308 -10.011244
v 25.082047 4.841506 -1.944395
v 25.512939 3.196384 10.708812
v 15.041646 4.716236 17.878410
v 3.596943 3.518794 23.377659
v -7.725047 4.743001 17.665867
v -13.561769 4.415748 7.962192
v -16.864811 4.821147 -1.944395
v -13.718957 4.655149 -11.941735
v -6.136702 4.353532 -18.803564
v 3.596943 4.657429 -25.078396
v 14.522799 3.594589 -20.868534
v 21.383953 3.256949 -12.213730
v 30.324528 -0.893829 -1.944395
v 24.124285 -0.260106 9.907070
v 19.779144 1.069729 26.083998
v 3.596943 -0.015776 32.219891
v -10.489649 0.104952 22.454298
v -17.957621 -0.046772 10.500137
v -30.324528 0.344267 -1.944395
v -23.965530 -0.769270 -17.857597
v -8.683438 0.788469 -23.214640
v 3.596943 -0.413394 -29.125015
v 21.076508 -0.970983 -32.219891
v 25.855930 -0.284003 -14.795628
vn -0.0000 1.0000 -0.0000
vn 0.1824 0.9807 0.0705
vn 0.1162 0.9761 0.1834
vn 0.1025 0.9762 0.1913
vn 0.0019 0.9813 0.1924
vn -0.2198 0.9735 0.0628
vn -0.1525 0.9720 0.1787
vn -0.1538 0.9803 -0.1243
vn -0.1469 0.9798 -0.1360
vn -0.1034 0.9814 -0.1615
vn 0.0330 0.9862 -0.1623
vn 0.1725 0.9817 -0.0809
vn 0.1825 0.9812 -0.0633
vn 0.3259 0.9266 0.1878
vn 0.2709 0.9110 0.3110
vn 0.2208 0.9351 0.2771
vn -0.0688 0.9619 0.2646
vn -0.2450 0.9561 0.1604
vn -0.2586 0.9538 0.1532
vn -0.2880 0.9441 -0.1606
vn -0.2307 0.9351 -0.2690
vn -0.1443 0.9288 -0.3414
vn 0.1115 0.9219 -0.3712
vn 0.1772 0.9475 -0.2662
vn 0.2822 0.9589 -0.0285
vn 0.3268 0.9332 0.1492
vn 0.2308 0.9553 0.1846
vn 0.1433 0.9382 0.3150
vn -0.1134 0.9079 0.4036
vn -0.4114 0.8791 0.2406
vn -0.4809 0.8514 0.2095
vn -0.4826 0.8569 -0.1811
vn -0.3291 0.8574 -0.3958
vn -0.2038 0.9090 -0.3635
vn 0.1833 0.9173 -0.3535
vn 0.3887 0.8145 -0.4307
vn 0.5594 0.7992 -0.2197
vn 0.9049 0.3595 0.2279
vn 0.6634 0.6668 0.3396
vn 0.0786 0.9264 0.3684
vn -0.2373 0.8536 0.4637
vn -0.5843 0.7356 0.3427
vn -0.3913 0.8682 0.3052
vn -0.3430 0.9236 -0.1714
vn -0.2713 0.8668 -0.4185
vn -0.3189 0.7095 -0.6284
vn 0.0689 0.8586 -0.5080
vn 0.4094 0.8914 -0.1947
vn 0.6318 0.7323 -0.2540
s 0
f 3//1 2//1 1//1
f 4//1 3//1 1//1
f 5//1 4//1 1//1
f 6//1 5//1 1//1
f 7//1 6//1 1//1
f 8//1 7//1 1//1
f 9//1 8//1 1//1
f 10//1 9//1 1//1
f 11//1 10//1 1//1
f 12//1 11//1 1//1
f 13//1 12//1 1//1
f 2//1 13//1 1//1
f 3//2 15//2 14//2 2//2
f 4//3 16//3 15//3 3//3
f 5//4 17//4 16//4 4//4
f 6//5 18//5 17//5 5//5
f 7//6 19//6 18//6 6//6
f 8//7 20//7 19//7 7//7
f 9//8 21//8 20//8 8//8
f 10//9 22//9 21//9 9//9
f 11//10 23//10 22//10 10//10
f 12//11 24//11 23//11 11//11
f 13//12 25//12 24//12 12//12
f 2//13 14//13 25//13 13//13
f 15//14 27//14 26//14 14//14
f 16//15 28//15 27//15 15//15
f 17//16 29//16 28//16 16//16
f 18//17 30//17 29//17 17//17
f 19//18 31//18 30//18 18//18
f 20//19 32//19 31//19 19//19
f 21//20 33//20 32//20 20//20
f 22//21 34//21 33//21 21//21
f 23//22 35//22 34//22 22//22
f 24//23 36//23 35//23 23//23
f 25//24 37//24 36//24 24//24
f 14//25 26//25 37//25 25//25
f 27//26 39//26 38//26 26//26
f 28//27 40//27 39//27 27//27
f 29//28 41//28 40//28 28//28
f 30//29 42//29 41//29 29//29
f 31//30 43//30 42//30 30//30
f 32//31 44//31 43//31 31//31
f 33//32 45//32 44//32 32//32
f 34//33 46//33 45//33 33//33
f 35//34 47//34 46//34 34//34
f 36//35 48//35 47//35 35//35
f 37//36 49//36 48//36 36//36
f 26//37 38//37 49//37 37//37
f 39//38 51//38 50//38 38//38
f 40//39 52//39 51//39 39//39
f 41//40 53//40 52//40 40//40
f 42//41 54//41 53//41 41//41
f 43//42 55//42 54//42 42//42
f 44//43 56//43 55//43 43//43
f 45//44 57//44 56//44 44//44
f 46//45 58//45 57//45 45//45
f 47//46 59//46 58//46 46//46
f 48//47 60//47 59//47 47//47
f 49//48 61//48 60//48 48//48
f 38//49 50//49 61//49 49//49
