# Blender 4.4.1
# www.blender.org
o Mountain_063
v 0.681755 0.000000 0.726829
v 0.681755 10.172724 0.726829
v 0.681755 10.172724 0.726829
v 0.681755 10.172724 0.726829
v 0.681755 10.172724 0.726829
v 0.681755 10.172724 0.726829
v 0.681755 10.172724 0.726829
v 0.681755 10.172724 0.726829
v 0.681755 10.172724 0.726829
v 0.681755 10.172724 0.726829
v 0.681755 10.172724 0.726829
v 0.681755 10.172724 0.726829
v 0.681755 10.172724 0.726829
v 7.759204 9.119855 0.726829
v 6.601234 8.803526 4.144443
v 4.302759 9.062060 6.998593
v 0.681755 8.682339 7.288320
v -2.838873 8.913830 6.824735
v -5.391155 9.019667 4.233026
v -5.996480 8.837377 0.726829
v -5.420774 8.747536 -2.796467
v -2.661282 9.129248 -5.063480
v 0.681755 9.061033 -6.144783
v 4.026053 8.676815 -5.065665
v 6.472509 9.032953 -2.616464
v 13.828388 6.985344 0.726829
v 12.424564 6.705151 7.506544
v 7.759283 6.950847 12.985467
v 0.681755 6.365675 13.615948
v -6.055056 6.349029 12.395329
v -10.901638 6.663248 7.414504
v -13.068561 6.751912 0.726829
v -10.324298 6.129598 -5.627518
v -6.571698 6.074838 -11.836520
v 0.681755 7.072164 -13.312277
v 7.030623 6.598843 -10.269732
v 11.464024 6.680886 -5.498317
v 24.424929 3.964163 0.726829
v 20.949158 3.524500 12.428221
v 10.533843 3.457698 17.791147
v 0.681755 4.160682 20.640799
v -11.228827 4.048826 21.356562
v -19.633352 3.817240 12.455762
v -19.279762 2.889737 0.726829
v -16.484825 3.306331 -9.184300
v -8.434300 3.499609 -15.062641
v 0.681755 3.909011 -21.222733
v 12.245923 3.014284 -19.302896
v 19.171770 4.128414 -9.948386
v 25.867809 0.405413 0.726829
v 27.618414 -0.267685 16.278717
v 15.146963 0.323241 25.781305
v 0.681755 -0.176748 28.075544
v -11.405596 0.989158 21.662735
v -27.618414 0.636037 17.065939
v -21.600185 -0.284418 0.726829
v -18.893654 0.625740 -10.575038
v -12.165720 -0.113312 -21.525650
v 0.681755 -0.203118 -28.075544
v 15.115146 -0.851723 -24.272537
v 23.913994 0.877872 -12.686310
vn -0.0000 1.0000 -0.0000
vn 0.1457 0.9794 0.1400
vn 0.1897 0.9798 0.0640
vn -0.0842 0.9717 0.2207
vn 0.0349 0.9746 0.2214
vn -0.1043 0.9842 0.1429
vn -0.1960 0.9804 -0.0171
vn -0.1958 0.9790 -0.0570
vn -0.1903 0.9795 -0.0667
vn -0.0315 0.9867 -0.1596
vn 0.1627 0.9740 -0.1576
vn 0.0698 0.9749 -0.2115
vn 0.1466 0.9858 -0.0821
vn 0.2995 0.9451 0.1305
vn 0.2654 0.9500 0.1643
vn -0.0541 0.9347 0.3513
vn -0.0413 0.9282 0.3697
vn -0.2384 0.9286 0.2844
vn -0.3146 0.9461 0.0769
vn -0.3236 0.9297 -0.1758
vn -0.3405 0.9126 -0.2264
vn -0.1544 0.9421 -0.2975
vn 0.1955 0.9448 -0.2631
vn 0.2337 0.9314 -0.2792
vn 0.3335 0.9282 -0.1652
vn 0.2806 0.9534 0.1112
vn 0.2502 0.9091 0.3331
vn 0.0915 0.9054 0.4146
vn -0.0139 0.9636 0.2671
vn -0.1796 0.9676 0.1772
vn -0.4099 0.9121 -0.0012
vn -0.4336 0.8870 -0.1589
vn -0.3324 0.8892 -0.3144
vn -0.2647 0.8745 -0.4064
vn 0.1605 0.9330 -0.3222
vn 0.1996 0.9498 -0.2410
vn 0.2609 0.9572 -0.1256
vn 0.6507 0.7559 0.0721
vn 0.2288 0.9194 0.3198
vn 0.0945 0.9067 0.4110
vn -0.1307 0.7183 0.6834
vn -0.3020 0.8015 0.5161
vn -0.5740 0.7982 -0.1829
vn -0.7503 0.6428 -0.1544
vn -0.3904 0.8429 -0.3702
vn -0.2607 0.8650 -0.4288
vn 0.1649 0.8357 -0.5239
vn 0.3786 0.8357 -0.3978
vn 0.6884 0.7007 -0.1874
s 0
f 3//1 2//1 1//1
f 4//1 3//1 1//1
f 5//1 4//1 1//1
f 6//1 5//1 1//1
f 7//1 6//1 1//1
f 8//1 7//1 1//1
f 9//1 8//1 1//1
f 10//1 9//1 1//1
f 11//1 10//1 1//1
f 12//1 11//1 1//1
f 13//1 12//1 1//1
f 2//1 13//1 1//1
f 3//2 15//2 14//2 2//2
f 4//3 16//3 15//3 3//3
f 5//4 17//4 16//4 4//4
f 6//5 18//5 17//5 5//5
f 7//6 19//6 18//6 6//6
f 8//7 20//7 19//7 7//7
f 9//8 21//8 20//8 8//8
f 10//9 22//9 21//9 9//9
f 11//10 23//10 22//10 10//10
f 12//11 24//11 23//11 11//11
f 13//12 25//12 24//12 12//12
f 2//13 14//13 25//13 13//13
f 15//14 27//14 26//14 14//14
f 16//15 28//15 27//15 15//15
f 17//16 29//16 28//16 16//16
f 18//17 30//17 29//17 17//17
f 19//18 31//18 30//18 18//18
f 20//19 32//19 31//19 19//19
f 21//20 33//20 32//20 20//20
f 22//21 34//21 33//21 21//21
f 23//22 35//22 34//22 22//22
f 24//23 36//23 35//23 23//23
f 25//24 37//24 36//24 24//24
f 14//25 26//25 37//25 25//25
f 27//26 39//26 38//26 26//26
f 28//27 40//27 39//27 27//27
f 29//28 41//28 40//28 28//28
f 30//29 42//29 41//29 29//29
f 31//30 43//30 42//30 30//30
f 32//31 44//31 43//31 31//31
f 33//32 45//32 44//32 32//32
f 34//33 46//33 45//33 33//33
f 35//34 47//34 46//34 34//34
f 36//35 48//35 47//35 35//35
f 37//36 49//36 48//36 36//36
f 26//37 38//37 49//37 37//37
f 39//38 51//38 50//38 38//38
f 40//39 52//39 51//39 39//39
f 41//40 53//40 52//40 40//40
f 42//41 54//41 53//41 41//41
f 43//42 55//42 54//42 42//42
f 44//43 56//43 55//43 43//43
f 45//44 57//44 56//44 44//44
f 46//45 58//45 57//45 45//45
f 47//46 59//46 58//46 46//46
f 48//47 60//47 59//47 47//47
f 49//48 61//48 60//48 48//48
f 38//49 50//49 61//49 49//49
