# Blender 4.4.1
# www.blender.org
o Mountain_024
v 0.260624 0.000000 2.056277
v 0.260624 12.199453 2.056277
v 0.260624 12.199453 2.056277
v 0.260624 12.199453 2.056277
v 0.260624 12.199453 2.056277
v 0.260624 12.199453 2.056277
v 0.260624 12.199453 2.056277
v 0.260624 12.199453 2.056277
v 0.260624 12.199453 2.056277
v 0.260624 12.199453 2.056277
v 0.260624 12.199453 2.056277
v 0.260624 12.199453 2.056277
v 0.260624 12.199453 2.056277
v 7.211387 10.611979 2.056277
v 6.391087 10.772751 5.595701
v 3.659040 10.701437 7.942505
v 0.260624 10.909661 8.919540
v -3.236388 10.641446 8.113280
v -5.731260 10.653208 5.515693
v -6.631950 10.533350 2.056277
v -5.607501 10.828378 -1.331687
v -3.342002 10.421814 -4.183655
v 0.260624 10.699804 -4.919600
v 3.970696 10.729252 -4.369757
v 6.430675 10.882399 -1.506004
v 15.336335 7.787031 2.056277
v 12.622115 8.333885 9.193187
v 7.311517 8.351892 14.268782
v 0.260624 7.372643 16.162138
v -7.396812 8.147737 15.319346
v -12.018842 8.374828 9.145830
v -14.764191 8.102878 2.056277
v -12.308937 7.423059 -5.200763
v -7.190468 7.487225 -10.849394
v 0.260624 8.462310 -13.489877
v 7.784385 7.430262 -10.975260
v 12.346828 8.481970 -4.921696
v 21.108292 5.185637 2.056277
v 19.374811 4.887066 13.091858
v 10.118396 5.027414 19.130438
v 0.260624 3.483343 25.957567
v -10.012390 4.087844 19.849661
v -17.190458 3.866142 12.131664
v -20.732229 4.959088 2.056277
v -19.733582 4.500862 -9.487384
v -10.441187 4.128539 -16.479805
v 0.260624 3.631910 -18.657768
v 11.170905 4.748485 -16.840883
v 21.100466 5.053259 -9.975612
v 29.317665 -0.973540 2.056277
v 22.708790 0.086942 15.016731
v 13.548628 -0.217419 25.071774
v 0.260624 -0.035172 29.076462
v -14.530260 -1.128533 27.674839
v -22.082682 -0.868960 14.956190
v -29.317665 0.472512 2.056277
v -19.759090 0.950518 -9.502111
v -12.957221 -0.640278 -20.837704
v 0.260624 1.026791 -29.076462
v 16.684649 -1.170579 -26.390966
v 27.925793 -0.480524 -13.916216
vn -0.0000 1.0000 -0.0000
vn 0.2226 0.9749 0.0073
vn 0.1256 0.9764 0.1759
vn 0.1126 0.9765 0.1835
vn -0.1171 0.9760 0.1834
vn -0.1601 0.9743 0.1582
vn -0.2349 0.9716 0.0275
vn -0.2349 0.9719 0.0136
vn -0.1007 0.9707 -0.2184
vn -0.1176 0.9709 -0.2087
vn 0.0234 0.9774 -0.2101
vn 0.1197 0.9806 -0.1552
vn 0.2226 0.9746 0.0252
vn 0.3333 0.9416 0.0479
vn 0.2163 0.9461 0.2411
vn 0.0389 0.9205 0.3889
vn -0.0144 0.9242 0.3816
vn -0.2218 0.9531 0.2059
vn -0.2946 0.9533 0.0664
vn -0.3302 0.9332 -0.1417
vn -0.2763 0.9203 -0.2771
vn -0.1901 0.9433 -0.2722
vn 0.1659 0.9391 -0.3009
vn 0.2281 0.9248 -0.3045
vn 0.3409 0.9394 -0.0359
vn 0.4108 0.9075 0.0881
vn 0.2897 0.8839 0.3671
vn 0.0857 0.9003 0.4267
vn -0.1132 0.8774 0.4662
vn -0.4735 0.7834 0.4025
vn -0.5096 0.8301 0.2264
vn -0.3760 0.9182 -0.1247
vn -0.2519 0.9169 -0.3095
vn -0.1706 0.8092 -0.5623
vn 0.1214 0.8374 -0.5329
vn 0.1896 0.9315 -0.3105
vn 0.3738 0.9270 -0.0315
vn 0.6557 0.7267 0.2049
vn 0.4541 0.7184 0.5269
vn 0.2481 0.7416 0.6233
vn -0.1850 0.8039 0.5652
vn -0.4723 0.8125 0.3419
vn -0.4898 0.8126 0.3159
vn -0.6513 0.6983 -0.2970
vn -0.6211 0.5048 -0.5995
vn -0.2199 0.8873 -0.4053
vn 0.0972 0.9248 -0.3679
vn 0.3362 0.8471 -0.4116
vn 0.6105 0.7918 -0.0203
s 0
f 3//1 2//1 1//1
f 4//1 3//1 1//1
f 5//1 4//1 1//1
f 6//1 5//1 1//1
f 7//1 6//1 1//1
f 8//1 7//1 1//1
f 9//1 8//1 1//1
f 10//1 9//1 1//1
f 11//1 10//1 1//1
f 12//1 11//1 1//1
f 13//1 12//1 1//1
f 2//1 13//1 1//1
f 3//2 15//2 14//2 2//2
f 4//3 16//3 15//3 3//3
f 5//4 17//4 16//4 4//4
f 6//5 18//5 17//5 5//5
f 7//6 19//6 18//6 6//6
f 8//7 20//7 19//7 7//7
f 9//8 21//8 20//8 8//8
f 10//9 22//9 21//9 9//9
f 11//10 23//10 22//10 10//10
f 12//11 24//11 23//11 11//11
f 13//12 25//12 24//12 12//12
f 2//13 14//13 25//13 13//13
f 15//14 27//14 26//14 14//14
f 16//15 28//15 27//15 15//15
f 17//16 29//16 28//16 16//16
f 18//17 30//17 29//17 17//17
f 19//18 31//18 30//18 18//18
f 20//19 32//19 31//19 19//19
f 21//20 33//20 32//20 20//20
f 22//21 34//21 33//21 21//21
f 23//22 35//22 34//22 22//22
f 24//23 36//23 35//23 23//23
f 25//24 37//24 36//24 24//24
f 14//25 26//25 37//25 25//25
f 27//26 39//26 38//26 26//26
f 28//27 40//27 39//27 27//27
f 29//28 41//28 40//28 28//28
f 30//29 42//29 41//29 29//29
f 31//30 43//30 42//30 30//30
f 32//31 44//31 43//31 31//31
f 33//32 45//32 44//32 32//32
f 34//33 46//33 45//33 33//33
f 35//34 47//34 46//34 34//34
f 36//35 48//35 47//35 35//35
f 37//36 49//36 48//36 36//36
f 26//37 38//37 49//37 37//37
f 39//38 51//38 50//38 38//38
f 40//39 52//39 51//39 39//39
f 41//40 53//40 52//40 40//40
f 42//41 54//41 53//41 41//41
f 43//42 55//42 54//42 42//42
f 44//43 56//43 55//43 43//43
f 45//44 57//44 56//44 44//44
f 46//45 58//45 57//45 45//45
f 47//46 59//46 58//46 46//46
f 48//47 60//47 59//47 47//47
f 49//48 61//48 60//48 48//48
f 38//49 50//49 61//49 49//49
