# Blender 4.4.1
# www.blender.org
o Mountain_021
v 0.092268 0.000000 1.465603
v 0.092268 13.670594 1.465603
v 0.092268 13.670594 1.465603
v 0.092268 13.670594 1.465603
v 0.092268 13.670594 1.465603
v 0.092268 13.670594 1.465603
v 0.092268 13.670594 1.465603
v 0.092268 13.670594 1.465603
v 0.092268 13.670594 1.465603
v 0.092268 13.670594 1.465603
v 0.092268 13.670594 1.465603
v 0.092268 13.670594 1.465603
v 0.092268 13.670594 1.465603
v 4.234214 11.659585 1.465603
v 3.415725 11.916987 3.384403
v 2.084558 12.036160 4.916352
v 0.092268 12.126974 5.392505
v -1.957527 11.701648 5.015951
v -3.446723 12.099501 3.508841
v -3.776403 12.271420 1.465603
v -3.382622 12.155200 -0.540625
v -1.953545 11.734129 -2.077848
v 0.092268 12.153926 -2.388295
v 2.047606 12.225896 -1.921143
v 3.653284 11.640071 -0.590350
v 8.590533 8.525593 1.465603
v 6.421288 9.127567 5.119665
v 4.156886 8.259139 8.505729
v 0.092268 8.646091 9.400356
v -3.910667 8.928746 8.398890
v -6.658074 8.502538 5.362915
v -7.278359 8.938352 1.465603
v -7.150501 8.466022 -2.716011
v -3.918045 8.213982 -5.480462
v 0.092268 8.488095 -7.122048
v 4.072908 8.677335 -5.429068
v 6.540844 9.426730 -2.257484
v 13.390000 4.899687 1.465603
v 11.784617 5.284790 8.216185
v 5.951885 4.425872 11.614758
v 0.092268 5.243003 13.173624
v -5.500533 3.925703 11.152618
v -9.911607 4.795468 7.241343
v -13.365636 4.133749 1.465603
v -11.258076 5.778465 -5.087521
v -6.730609 3.907328 -10.351967
v 0.092268 4.344883 -10.418375
v 6.718366 4.437148 -10.011135
v 10.658666 3.782330 -4.634909
v 14.187996 0.174455 1.465603
v 12.872195 0.335524 8.844098
v 7.983233 0.250694 15.133158
v 0.092268 0.745357 17.436066
v -6.938787 1.094859 13.643747
v -15.220299 -0.696853 10.306317
v -12.758975 -0.245972 1.465603
v -12.294310 -0.419896 -5.685790
v -9.001745 1.031306 -14.285689
v 0.092268 -1.363062 -17.436066
v 8.602543 0.954224 -13.274626
v 15.220299 -1.082850 -7.268569
vn -0.0000 1.0000 -0.0000
vn 0.4358 0.8976 0.0655
vn 0.3467 0.9092 0.2305
vn 0.1288 0.9229 0.3628
vn -0.2519 0.9007 0.3540
vn -0.1671 0.9000 0.4027
vn -0.3371 0.9321 0.1328
vn -0.3376 0.9336 -0.1204
vn -0.1632 0.9024 -0.3989
vn -0.2393 0.9035 -0.3556
vn 0.0532 0.9292 -0.3657
vn 0.4333 0.8918 -0.1302
vn 0.4330 0.8918 -0.1308
vn 0.5870 0.7862 0.1934
vn 0.4785 0.7458 0.4635
vn 0.2043 0.7351 0.6465
vn -0.1579 0.7740 0.6132
vn -0.4814 0.7556 0.4442
vn -0.6816 0.7089 0.1815
vn -0.6694 0.7321 -0.1261
vn -0.3970 0.7379 -0.5457
vn -0.2786 0.7522 -0.5971
vn 0.1919 0.7613 -0.6193
vn 0.4518 0.7777 -0.4370
vn 0.5682 0.8118 -0.1348
vn 0.5621 0.8173 0.1264
vn 0.3170 0.7572 0.5711
vn 0.2504 0.6991 0.6698
vn -0.2957 0.6201 0.7266
vn -0.5327 0.6088 0.5878
vn -0.6253 0.7405 0.2461
vn -0.5867 0.8091 -0.0338
vn -0.2965 0.8127 -0.5015
vn -0.1547 0.7128 -0.6841
vn 0.1208 0.6998 -0.7041
vn 0.5703 0.6967 -0.4353
vn 0.6382 0.6975 -0.3259
vn 0.9611 0.1997 0.1910
vn 0.5587 0.4938 0.6664
vn 0.2580 0.6780 0.6883
vn -0.3521 0.6707 0.6528
vn -0.3882 0.7083 0.5896
vn -0.8948 0.4431 0.0544
vn -0.9826 0.0500 -0.1791
vn -0.7513 0.4930 -0.4387
vn -0.0269 0.7895 -0.6132
vn 0.0787 0.7503 -0.6564
vn 0.5869 0.7178 -0.3746
vn 0.8372 0.5169 -0.1786
s 0
f 3//1 2//1 1//1
f 4//1 3//1 1//1
f 5//1 4//1 1//1
f 6//1 5//1 1//1
f 7//1 6//1 1//1
f 8//1 7//1 1//1
f 9//1 8//1 1//1
f 10//1 9//1 1//1
f 11//1 10//1 1//1
f 12//1 11//1 1//1
f 13//1 12//1 1//1
f 2//1 13//1 1//1
f 3//2 15//2 14//2 2//2
f 4//3 16//3 15//3 3//3
f 5//4 17//4 16//4 4//4
f 6//5 18//5 17//5 5//5
f 7//6 19//6 18//6 6//6
f 8//7 20//7 19//7 7//7
f 9//8 21//8 20//8 8//8
f 10//9 22//9 21//9 9//9
f 11//10 23//10 22//10 10//10
f 12//11 24//11 23//11 11//11
f 13//12 25//12 24//12 12//12
f 2//13 14//13 25//13 13//13
f 15//14 27//14 26//14 14//14
f 16//15 28//15 27//15 15//15
f 17//16 29//16 28//16 16//16
f 18//17 30//17 29//17 17//17
f 19//18 31//18 30//18 18//18
f 20//19 32//19 31//19 19//19
f 21//20 33//20 32//20 20//20
f 22//21 34//21 33//21 21//21
f 23//22 35//22 34//22 22//22
f 24//23 36//23 35//23 23//23
f 25//24 37//24 36//24 24//24
f 14//25 26//25 37//25 25//25
f 27//26 39//26 38//26 26//26
f 28//27 40//27 39//27 27//27
f 29//28 41//28 40//28 28//28
f 30//29 42//29 41//29 29//29
f 31//30 43//30 42//30 30//30
f 32//31 44//31 43//31 31//31
f 33//32 45//32 44//32 32//32
f 34//33 46//33 45//33 33//33
f 35//34 47//34 46//34 34//34
f 36//35 48//35 47//35 35//35
f 37//36 49//36 48//36 36//36
f 26//37 38//37 49//37 37//37
f 39//38 51//38 50//38 38//38
f 40//39 52//39 51//39 39//39
f 41//40 53//40 52//40 40//40
f 42//41 54//41 53//41 41//41
f 43//42 55//42 54//42 42//42
f 44//43 56//43 55//43 43//43
f 45//44 57//44 56//44 44//44
f 46//45 58//45 57//45 45//45
f 47//46 59//46 58//46 46//46
f 48//47 60//47 59//47 47//47
f 49//48 61//48 60//48 48//48
f 38//49 50//49 61//49 49//49
