# Blender 4.4.1
# www.blender.org
o Mountain_068
v 0.926680 0.000000 0.798687
v 0.926680 14.290243 0.798687
v 0.926680 14.290243 0.798687
v 0.926680 14.290243 0.798687
v 0.926680 14.290243 0.798687
v 0.926680 14.290243 0.798687
v 0.926680 14.290243 0.798687
v 0.926680 14.290243 0.798687
v 0.926680 14.290243 0.798687
v 0.926680 14.290243 0.798687
v 0.926680 14.290243 0.798687
v 0.926680 14.290243 0.798687
v 0.926680 14.290243 0.798687
v 5.991307 12.156468 0.798687
v 5.520671 12.762598 3.451029
v 3.520824 12.676369 5.291877
v 0.926680 12.703175 6.002899
v -1.719618 12.412214 5.382210
v -3.712321 12.296778 3.477015
v -4.289494 12.780618 0.798687
v -3.474772 12.677295 -1.742492
v -1.611826 12.565812 -3.598134
v 0.926680 12.614251 -4.696198
v 3.483677 12.650195 -3.630162
v 5.691479 12.200210 -1.952271
v 11.579734 9.013376 0.798687
v 10.479314 9.937593 6.313903
v 5.889512 9.553364 9.394566
v 0.926680 8.797320 10.390426
v -4.403982 8.884233 10.031663
v -8.903328 9.742951 6.474044
v -10.486814 9.916846 0.798687
v -8.935937 9.164259 -4.895497
v -4.580066 9.824993 -8.739277
v 0.926680 9.122134 -8.843498
v 6.659304 9.243409 -9.130509
v 9.193267 9.379572 -3.974029
v 17.693054 4.213065 0.798687
v 12.767955 5.150306 7.635251
v 9.541849 5.423882 15.720597
v 0.926680 4.788732 17.774088
v -7.427982 5.802114 15.269385
v -14.723894 4.291484 9.834550
v -16.096277 4.760130 0.798687
v -13.933456 4.795924 -7.780817
v -6.446708 4.331243 -11.972395
v 0.926680 4.403569 -13.418548
v 9.309904 5.821191 -13.721483
v 15.833192 4.912944 -7.807592
v 23.790367 0.071660 0.798687
v 17.770437 -0.799292 10.523435
v 12.360638 0.149050 20.602882
v 0.926680 -1.298662 19.131062
v -8.522829 -1.317301 17.165716
v -14.781656 1.096354 9.867899
v -23.790367 -0.656108 0.798687
v -19.479824 0.407024 -10.983013
v -8.568389 0.924322 -15.647253
v 0.926680 -1.425023 -20.602882
v 10.837409 0.300551 -16.367201
v 18.250870 -1.191103 -9.203439
vn -0.0000 1.0000 -0.0000
vn 0.3844 0.9124 -0.1403
vn 0.1792 0.9543 0.2393
vn 0.0895 0.9527 0.2905
vn -0.1710 0.9424 0.2874
vn -0.2710 0.9355 0.2268
vn -0.2707 0.9354 0.2273
vn -0.2757 0.9528 -0.1271
vn -0.1987 0.9460 -0.2563
vn -0.1430 0.9467 -0.2887
vn 0.1076 0.9509 -0.2900
vn 0.3152 0.9347 -0.1641
vn 0.3881 0.9212 -0.0277
vn 0.5046 0.8610 -0.0643
vn 0.2709 0.8540 0.4443
vn 0.0662 0.7776 0.6253
vn -0.0956 0.7825 0.6153
vn -0.2579 0.8679 0.4246
vn -0.3861 0.9064 0.1712
vn -0.4238 0.8803 -0.2132
vn -0.3565 0.8835 -0.3039
vn -0.0150 0.8325 -0.5538
vn 0.0383 0.8188 -0.5729
vn 0.4638 0.8394 -0.2832
vn 0.5211 0.8419 -0.1402
vn 0.7114 0.6576 0.2479
vn 0.5644 0.7209 0.4022
vn 0.0251 0.8626 0.5053
vn -0.0309 0.8746 0.4839
vn -0.3738 0.8214 0.4307
vn -0.6452 0.7466 0.1622
vn -0.6239 0.7554 -0.2003
vn -0.4235 0.6718 -0.6077
vn -0.0647 0.6136 -0.7870
vn -0.1076 0.7277 -0.6774
vn 0.4422 0.8442 -0.3029
vn 0.5616 0.8196 -0.1129
vn 0.5691 0.7328 0.3731
vn 0.6854 0.6719 0.2807
vn -0.0240 0.4766 0.8788
vn -0.2226 0.2505 0.9422
vn -0.6622 0.2086 0.7197
vn -0.6945 0.6265 0.3538
vn -0.5680 0.8116 -0.1368
vn -0.2763 0.7742 -0.5695
vn -0.1342 0.7677 -0.6267
vn 0.0486 0.6577 -0.7517
vn 0.6544 0.4367 -0.6173
vn 0.7124 0.6333 -0.3024
s 0
f 3//1 2//1 1//1
f 4//1 3//1 1//1
f 5//1 4//1 1//1
f 6//1 5//1 1//1
f 7//1 6//1 1//1
f 8//1 7//1 1//1
f 9//1 8//1 1//1
f 10//1 9//1 1//1
f 11//1 10//1 1//1
f 12//1 11//1 1//1
f 13//1 12//1 1//1
f 2//1 13//1 1//1
f 3//2 15//2 14//2 2//2
f 4//3 16//3 15//3 3//3
f 5//4 17//4 16//4 4//4
f 6//5 18//5 17//5 5//5
f 7//6 19//6 18//6 6//6
f 8//7 20//7 19//7 7//7
f 9//8 21//8 20//8 8//8
f 10//9 22//9 21//9 9//9
f 11//10 23//10 22//10 10//10
f 12//11 24//11 23//11 11//11
f 13//12 25//12 24//12 12//12
f 2//13 14//13 25//13 13//13
f 15//14 27//14 26//14 14//14
f 16//15 28//15 27//15 15//15
f 17//16 29//16 28//16 16//16
f 18//17 30//17 29//17 17//17
f 19//18 31//18 30//18 18//18
f 20//19 32//19 31//19 19//19
f 21//20 33//20 32//20 20//20
f 22//21 34//21 33//21 21//21
f 23//22 35//22 34//22 22//22
f 24//23 36//23 35//23 23//23
f 25//24 37//24 36//24 24//24
f 14//25 26//25 37//25 25//25
f 27//26 39//26 38//26 26//26
f 28//27 40//27 39//27 27//27
f 29//28 41//28 40//28 28//28
f 30//29 42//29 41//29 29//29
f 31//30 43//30 42//30 30//30
f 32//31 44//31 43//31 31//31
f 33//32 45//32 44//32 32//32
f 34//33 46//33 45//33 33//33
f 35//34 47//34 46//34 34//34
f 36//35 48//35 47//35 35//35
f 37//36 49//36 48//36 36//36
f 26//37 38//37 49//37 37//37
f 39//38 51//38 50//38 38//38
f 40//39 52//39 51//39 39//39
f 41//40 53//40 52//40 40//40
f 42//41 54//41 53//41 41//41
f 43//42 55//42 54//42 42//42
f 44//43 56//43 55//43 43//43
f 45//44 57//44 56//44 44//44
f 46//45 58//45 57//45 45//45
f 47//46 59//46 58//46 46//46
f 48//47 60//47 59//47 47//47
f 49//48 61//48 60//48 48//48
f 38//49 50//49 61//49 49//49
