# Blender 4.4.1
# www.blender.org
o Mountain_016
v 1.175892 0.000000 2.285308
v 1.175892 14.462282 2.285308
v 1.175892 14.462282 2.285308
v 1.175892 14.462282 2.285308
v 1.175892 14.462282 2.285308
v 1.175892 14.462282 2.285308
v 1.175892 14.462282 2.285308
v 1.175892 14.462282 2.285308
v 1.175892 14.462282 2.285308
v 1.175892 14.462282 2.285308
v 1.175892 14.462282 2.285308
v 1.175892 14.462282 2.285308
v 1.175892 14.462282 2.285308
v 7.941583 12.924667 2.285308
v 6.794610 12.843734 5.529276
v 4.599381 12.697053 8.214966
v 1.175892 12.921669 8.968276
v -2.116562 12.984975 7.988005
v -4.342593 12.970613 5.471406
v -5.830318 12.377773 2.285308
v -4.913409 12.639255 -1.230352
v -2.086303 12.729991 -3.364978
v 1.175892 12.954680 -4.213579
v 4.541713 12.853725 -3.544466
v 6.906251 12.678830 -1.023117
v 14.192424 9.004257 2.285308
v 12.804765 9.345156 8.999241
v 7.335053 10.045190 12.953289
v 1.175892 9.840423 15.597116
v -6.075811 9.162104 14.845625
v -10.223582 9.439518 8.866797
v -11.471018 8.837017 2.285308
v -9.868287 9.977853 -4.091052
v -5.626876 9.229893 -9.497432
v 1.175892 9.103040 -10.177138
v 7.711722 9.831212 -9.035082
v 12.773412 9.572692 -4.410524
v 22.380280 4.542313 2.285308
v 20.253189 6.080770 13.299590
v 11.648045 5.048353 20.423609
v 1.175892 5.708657 20.376024
v -7.872577 5.546690 17.957714
v -16.161837 5.973152 12.295249
v -19.168373 5.376388 2.285308
v -13.919572 4.057458 -6.430062
v -9.914047 6.034520 -16.923031
v 1.175892 5.642196 -18.818844
v 10.957032 5.811851 -14.656125
v 17.172789 5.518176 -6.950505
v 22.703495 0.016582 2.285308
v 23.197563 0.340833 14.999526
v 15.462800 0.337027 27.030960
v 1.175892 -0.035131 28.892412
v -9.574361 0.149377 20.905293
v -17.492702 0.085089 13.063626
v -23.197563 1.381088 2.285308
v -17.541805 0.905794 -8.521359
v -13.150009 0.885577 -22.527880
v 1.175892 -1.136688 -28.892412
v 12.406713 -1.015549 -17.167046
v 21.515514 0.076523 -9.457779
vn -0.0000 1.0000 -0.0000
vn 0.2205 0.9700 0.1021
vn 0.1685 0.9671 0.1906
vn 0.1126 0.9682 0.2232
vn -0.0481 0.9733 0.2244
vn -0.1762 0.9728 0.1503
vn -0.2849 0.9575 -0.0451
vn -0.2852 0.9585 -0.0031
vn -0.1771 0.9650 -0.1936
vn -0.1249 0.9665 -0.2242
vn 0.0739 0.9715 -0.2254
vn 0.2200 0.9655 -0.1394
vn 0.2194 0.9655 -0.1404
vn 0.4934 0.8637 0.1030
vn 0.3338 0.8898 0.3111
vn 0.1495 0.8968 0.4164
vn -0.1219 0.8976 0.4237
vn -0.3559 0.8869 0.2945
vn -0.5143 0.8567 0.0392
vn -0.5040 0.8637 -0.0059
vn -0.2843 0.8947 -0.3445
vn -0.0842 0.8623 -0.4994
vn 0.0381 0.8614 -0.5064
vn 0.3285 0.8999 -0.2868
vn 0.4807 0.8723 -0.0898
vn 0.4445 0.8958 -0.0068
vn 0.2645 0.8935 0.3628
vn 0.1111 0.8152 0.5684
vn -0.1677 0.7223 0.6709
vn -0.3703 0.8154 0.4449
vn -0.4426 0.8954 0.0488
vn -0.5682 0.7783 -0.2672
vn -0.5759 0.7820 -0.2383
vn -0.0273 0.9261 -0.3764
vn 0.0957 0.8903 -0.4452
vn 0.4517 0.8087 -0.3769
vn 0.5349 0.8329 -0.1418
vn 0.9501 0.3092 0.0411
vn 0.5145 0.7123 0.4774
vn 0.0506 0.8274 0.5593
vn -0.3313 0.7007 0.6318
vn -0.5839 0.3911 0.7113
vn -0.8099 0.4668 0.3551
vn -0.5713 0.7245 -0.3857
vn -0.6741 0.7180 -0.1737
vn -0.1144 0.8019 -0.5864
vn 0.4640 0.6276 -0.6251
vn 0.5883 0.5282 -0.6123
vn 0.8553 0.4603 -0.2380
s 0
f 3//1 2//1 1//1
f 4//1 3//1 1//1
f 5//1 4//1 1//1
f 6//1 5//1 1//1
f 7//1 6//1 1//1
f 8//1 7//1 1//1
f 9//1 8//1 1//1
f 10//1 9//1 1//1
f 11//1 10//1 1//1
f 12//1 11//1 1//1
f 13//1 12//1 1//1
f 2//1 13//1 1//1
f 3//2 15//2 14//2 2//2
f 4//3 16//3 15//3 3//3
f 5//4 17//4 16//4 4//4
f 6//5 18//5 17//5 5//5
f 7//6 19//6 18//6 6//6
f 8//7 20//7 19//7 7//7
f 9//8 21//8 20//8 8//8
f 10//9 22//9 21//9 9//9
f 11//10 23//10 22//10 10//10
f 12//11 24//11 23//11 11//11
f 13//12 25//12 24//12 12//12
f 2//13 14//13 25//13 13//13
f 15//14 27//14 26//14 14//14
f 16//15 28//15 27//15 15//15
f 17//16 29//16 28//16 16//16
f 18//17 30//17 29//17 17//17
f 19//18 31//18 30//18 18//18
f 20//19 32//19 31//19 19//19
f 21//20 33//20 32//20 20//20
f 22//21 34//21 33//21 21//21
f 23//22 35//22 34//22 22//22
f 24//23 36//23 35//23 23//23
f 25//24 37//24 36//24 24//24
f 14//25 26//25 37//25 25//25
f 27//26 39//26 38//26 26//26
f 28//27 40//27 39//27 27//27
f 29//28 41//28 40//28 28//28
f 30//29 42//29 41//29 29//29
f 31//30 43//30 42//30 30//30
f 32//31 44//31 43//31 31//31
f 33//32 45//32 44//32 32//32
f 34//33 46//33 45//33 33//33
f 35//34 47//34 46//34 34//34
f 36//35 48//35 47//35 35//35
f 37//36 49//36 48//36 36//36
f 26//37 38//37 49//37 37//37
f 39//38 51//38 50//38 38//38
f 40//39 52//39 51//39 39//39
f 41//40 53//40 52//40 40//40
f 42//41 54//41 53//41 41//41
f 43//42 55//42 54//42 42//42
f 44//43 56//43 55//43 43//43
f 45//44 57//44 56//44 44//44
f 46//45 58//45 57//45 45//45
f 47//46 59//46 58//46 46//46
f 48//47 60//47 59//47 47//47
f 49//48 61//48 60//48 48//48
f 38//49 50//49 61//49 49//49
