# Blender 4.4.1
# www.blender.org
o Mountain_061
v -0.860597 0.000000 1.427258
v -0.860597 18.793165 1.427258
v -0.860597 18.793165 1.427258
v -0.860597 18.793165 1.427258
v -0.860597 18.793165 1.427258
v -0.860597 18.793165 1.427258
v -0.860597 18.793165 1.427258
v -0.860597 18.793165 1.427258
v -0.860597 18.793165 1.427258
v -0.860597 18.793165 1.427258
v -0.860597 18.793165 1.427258
v -0.860597 18.793165 1.427258
v -0.860597 18.793165 1.427258
v 3.682360 16.081953 1.427258
v 3.448670 16.281563 3.915214
v 1.587126 16.429699 5.666838
v -0.860597 16.489525 5.997680
v -3.187379 16.866882 5.457362
v -4.848491 16.745111 3.729669
v -5.800411 16.134485 1.427258
v -4.797945 16.068640 -0.845971
v -3.199762 16.476582 -2.624296
v -0.860597 16.047094 -3.297266
v 1.590687 16.610699 -2.818491
v 3.132774 16.310669 -0.878316
v 8.151381 11.273852 1.427258
v 7.702466 11.615365 6.371144
v 4.104018 12.781170 10.026224
v -0.860597 12.413784 11.575774
v -5.844002 12.894885 10.058768
v -8.953025 11.788558 6.099423
v -9.558735 11.217888 1.427258
v -9.584768 12.650770 -3.609645
v -6.046924 11.913196 -7.555724
v -0.860597 11.380863 -7.626503
v 3.841245 13.068310 -6.716571
v 7.143302 11.570233 -3.193796
v 14.195699 5.798934 1.427258
v 12.972798 7.423668 9.413972
v 7.014698 5.650416 15.067668
v -0.860597 6.348950 14.325879
v -7.182306 6.099362 12.376779
v -13.501757 5.711489 8.725635
v -13.931487 6.704205 1.427258
v -14.904855 5.517702 -6.681198
v -7.410359 6.182339 -9.917263
v -0.860597 6.310780 -11.499626
v 5.909403 6.274266 -10.298727
v 11.396053 5.363257 -5.649123
v 20.654133 0.563588 1.427258
v 14.819056 -1.626243 10.479909
v 7.617254 -0.745960 16.111326
v -0.860597 1.815805 21.289524
v -8.892318 0.135993 15.338607
v -20.654133 1.317269 12.855062
v -17.456316 1.725343 1.427258
v -18.068430 1.809466 -8.507689
v -11.164104 0.668663 -16.418941
v -0.860597 0.728125 -21.289524
v 8.050920 0.508744 -14.007942
v 18.227619 -0.684195 -9.593328
vn -0.0000 1.0000 -0.0000
vn 0.5124 0.8585 -0.0208
vn 0.3483 0.8898 0.2949
vn 0.0824 0.8899 0.4486
vn 0.0403 0.8923 0.4497
vn -0.3252 0.9124 0.2484
vn -0.4736 0.8799 -0.0376
vn -0.4614 0.8573 -0.2283
vn -0.4652 0.8571 -0.2215
vn 0.0142 0.8645 -0.5025
vn -0.1001 0.8602 -0.5000
vn 0.4288 0.8799 -0.2047
vn 0.5121 0.8581 -0.0369
vn 0.7333 0.6797 0.0179
vn 0.5477 0.7500 0.3709
vn 0.1168 0.7983 0.5909
vn -0.0775 0.7918 0.6058
vn -0.5982 0.7229 0.3457
vn -0.7728 0.6312 0.0657
vn -0.7041 0.7091 0.0386
vn -0.4175 0.8053 -0.4210
vn 0.0201 0.7051 -0.7089
vn -0.0798 0.6947 -0.7149
vn 0.6249 0.7122 -0.3197
vn 0.7292 0.6749 -0.1128
vn 0.6540 0.7559 -0.0304
vn 0.4663 0.7119 0.5252
vn 0.0670 0.5182 0.8526
vn -0.2644 0.3773 0.8876
vn -0.5878 0.5100 0.6280
vn -0.7510 0.6544 0.0880
vn -0.7758 0.6270 0.0707
vn -0.4577 0.5371 -0.7086
vn -0.1031 0.5070 -0.8558
vn 0.0765 0.5400 -0.8382
vn 0.6423 0.5568 -0.5266
vn 0.7036 0.6700 -0.2370
vn 0.7992 0.4905 0.3473
vn 0.6296 0.2023 0.7502
vn 0.3190 0.5715 0.7560
vn -0.4296 0.6564 0.6202
vn -0.2123 0.6692 0.7121
vn -0.6685 0.7424 -0.0433
vn -0.7953 0.6054 0.0329
vn -0.3815 0.7606 -0.5253
vn -0.2074 0.8301 -0.5176
vn 0.3248 0.7487 -0.5779
vn 0.4269 0.6973 -0.5758
vn 0.5855 0.7740 -0.2411
s 0
f 3//1 2//1 1//1
f 4//1 3//1 1//1
f 5//1 4//1 1//1
f 6//1 5//1 1//1
f 7//1 6//1 1//1
f 8//1 7//1 1//1
f 9//1 8//1 1//1
f 10//1 9//1 1//1
f 11//1 10//1 1//1
f 12//1 11//1 1//1
f 13//1 12//1 1//1
f 2//1 13//1 1//1
f 3//2 15//2 14//2 2//2
f 4//3 16//3 15//3 3//3
f 5//4 17//4 16//4 4//4
f 6//5 18//5 17//5 5//5
f 7//6 19//6 18//6 6//6
f 8//7 20//7 19//7 7//7
f 9//8 21//8 20//8 8//8
f 10//9 22//9 21//9 9//9
f 11//10 23//10 22//10 10//10
f 12//11 24//11 23//11 11//11
f 13//12 25//12 24//12 12//12
f 2//13 14//13 25//13 13//13
f 15//14 27//14 26//14 14//14
f 16//15 28//15 27//15 15//15
f 17//16 29//16 28//16 16//16
f 18//17 30//17 29//17 17//17
f 19//18 31//18 30//18 18//18
f 20//19 32//19 31//19 19//19
f 21//20 33//20 32//20 20//20
f 22//21 34//21 33//21 21//21
f 23//22 35//22 34//22 22//22
f 24//23 36//23 35//23 23//23
f 25//24 37//24 36//24 24//24
f 14//25 26//25 37//25 25//25
f 27//26 39//26 38//26 26//26
f 28//27 40//27 39//27 27//27
f 29//28 41//28 40//28 28//28
f 30//29 42//29 41//29 29//29
f 31//30 43//30 42//30 30//30
f 32//31 44//31 43//31 31//31
f 33//32 45//32 44//32 32//32
f 34//33 46//33 45//33 33//33
f 35//34 47//34 46//34 34//34
f 36//35 48//35 47//35 35//35
f 37//36 49//36 48//36 36//36
f 26//37 38//37 49//37 37//37
f 39//38 51//38 50//38 38//38
f 40//39 52//39 51//39 39//39
f 41//40 53//40 52//40 40//40
f 42//41 54//41 53//41 41//41
f 43//42 55//42 54//42 42//42
f 44//43 56//43 55//43 43//43
f 45//44 57//44 56//44 44//44
f 46//45 58//45 57//45 45//45
f 47//46 59//46 58//46 46//46
f 48//47 60//47 59//47 47//47
f 49//48 61//48 60//48 48//48
f 38//49 50//49 61//49 49//49
