# Blender 4.4.1
# www.blender.org
o Mountain_015
v 0.597903 0.000000 0.946178
v 0.597903 14.130527 0.946178
v 0.597903 14.130527 0.946178
v 0.597903 14.130527 0.946178
v 0.597903 14.130527 0.946178
v 0.597903 14.130527 0.946178
v 0.597903 14.130527 0.946178
v 0.597903 14.130527 0.946178
v 0.597903 14.130527 0.946178
v 0.597903 14.130527 0.946178
v 0.597903 14.130527 0.946178
v 0.597903 14.130527 0.946178
v 0.597903 14.130527 0.946178
v 7.531794 12.242771 0.946178
v 6.833377 12.093074 4.546230
v 4.084806 12.422956 6.985671
v 0.597903 12.371541 7.837738
v -3.105746 12.331309 7.361087
v -5.633156 12.333688 4.543682
v -6.269798 12.337630 0.946178
v -5.815900 12.521964 -2.756834
v -2.957458 12.587793 -5.211889
v 0.597903 12.419539 -6.415934
v 4.027282 12.254366 -4.993680
v 6.549255 12.713322 -2.489837
v 16.217957 8.525632 0.946178
v 14.123258 8.472948 8.755045
v 7.652425 9.514703 13.164968
v 0.597903 9.810541 16.081196
v -6.797231 9.022099 13.754926
v -13.074511 8.968569 8.839950
v -14.835436 9.709414 0.946178
v -11.538195 9.392838 -6.060602
v -6.820097 9.190165 -11.902176
v 0.597903 8.919521 -13.866087
v 7.321327 9.187279 -10.699135
v 13.115328 9.456607 -6.280761
v 20.361025 3.900053 0.946178
v 16.593414 4.525095 10.181190
v 11.937143 5.046686 20.586317
v 0.597903 5.637868 22.709158
v -9.363918 4.626404 18.200558
v -16.814064 5.879606 10.998981
v -22.413780 4.131874 0.946178
v -19.803787 4.781304 -10.832744
v -11.040606 5.765883 -19.212313
v 0.597903 4.329497 -17.477999
v 10.085649 3.963858 -15.487079
v 19.813999 5.383361 -10.148240
v 24.151089 0.679794 0.946178
v 24.516071 -0.750785 14.755339
v 13.343634 1.027940 23.022430
v 0.597903 0.011010 24.588667
v -12.561679 0.892445 23.739243
v -26.598465 -0.511797 16.648008
v -29.269791 0.487593 0.946178
v -22.507812 -0.560235 -12.393913
v -11.722396 0.452777 -20.393208
v 0.597903 -0.563805 -24.588667
v 12.445094 1.267565 -19.573759
v 29.269791 1.163162 -15.607544
vn -0.0000 1.0000 -0.0000
vn 0.2616 0.9609 0.0907
vn 0.2360 0.9622 0.1358
vn 0.0461 0.9679 0.2470
vn -0.0423 0.9681 0.2471
vn -0.1838 0.9689 0.1657
vn -0.2523 0.9666 0.0457
vn -0.2526 0.9674 0.0172
vn -0.1554 0.9757 -0.1547
vn -0.0306 0.9736 -0.2263
vn 0.1394 0.9645 -0.2242
vn 0.0805 0.9629 -0.2576
vn 0.2623 0.9633 0.0569
vn 0.3903 0.9139 0.1118
vn 0.3176 0.9163 0.2439
vn 0.1367 0.9370 0.3215
vn -0.1538 0.9299 0.3341
vn -0.2655 0.9174 0.2963
vn -0.3177 0.9396 0.1272
vn -0.3441 0.9296 -0.1320
vn -0.3075 0.9044 -0.2957
vn -0.0845 0.9045 -0.4181
vn 0.1738 0.8978 -0.4046
vn 0.2260 0.9026 -0.3664
vn 0.4081 0.9122 -0.0364
vn 0.7497 0.6178 0.2371
vn 0.5412 0.7757 0.3246
vn 0.1723 0.8616 0.4774
vn -0.2948 0.7876 0.5411
vn -0.3820 0.7712 0.5092
vn -0.5736 0.7966 0.1906
vn -0.5044 0.8515 -0.1435
vn -0.3296 0.9069 -0.2626
vn 0.0637 0.7927 -0.6063
vn 0.2289 0.6694 -0.7067
vn 0.2643 0.7875 -0.5568
vn 0.6212 0.7834 -0.0205
vn 0.5549 0.8245 0.1108
vn 0.5199 0.7817 0.3445
vn 0.1301 0.4207 0.8978
vn -0.1755 0.6476 0.7415
vn -0.2932 0.8530 0.4318
vn -0.4797 0.8679 0.1288
vn -0.6410 0.7255 -0.2507
vn -0.6177 0.3743 -0.6916
vn -0.0151 0.6311 -0.7756
vn 0.1199 0.8334 -0.5396
vn 0.1240 0.8701 -0.4769
vn 0.5298 0.8353 0.1470
s 0
f 3//1 2//1 1//1
f 4//1 3//1 1//1
f 5//1 4//1 1//1
f 6//1 5//1 1//1
f 7//1 6//1 1//1
f 8//1 7//1 1//1
f 9//1 8//1 1//1
f 10//1 9//1 1//1
f 11//1 10//1 1//1
f 12//1 11//1 1//1
f 13//1 12//1 1//1
f 2//1 13//1 1//1
f 3//2 15//2 14//2 2//2
f 4//3 16//3 15//3 3//3
f 5//4 17//4 16//4 4//4
f 6//5 18//5 17//5 5//5
f 7//6 19//6 18//6 6//6
f 8//7 20//7 19//7 7//7
f 9//8 21//8 20//8 8//8
f 10//9 22//9 21//9 9//9
f 11//10 23//10 22//10 10//10
f 12//11 24//11 23//11 11//11
f 13//12 25//12 24//12 12//12
f 2//13 14//13 25//13 13//13
f 15//14 27//14 26//14 14//14
f 16//15 28//15 27//15 15//15
f 17//16 29//16 28//16 16//16
f 18//17 30//17 29//17 17//17
f 19//18 31//18 30//18 18//18
f 20//19 32//19 31//19 19//19
f 21//20 33//20 32//20 20//20
f 22//21 34//21 33//21 21//21
f 23//22 35//22 34//22 22//22
f 24//23 36//23 35//23 23//23
f 25//24 37//24 36//24 24//24
f 14//25 26//25 37//25 25//25
f 27//26 39//26 38//26 26//26
f 28//27 40//27 39//27 27//27
f 29//28 41//28 40//28 28//28
f 30//29 42//29 41//29 29//29
f 31//30 43//30 42//30 30//30
f 32//31 44//31 43//31 31//31
f 33//32 45//32 44//32 32//32
f 34//33 46//33 45//33 33//33
f 35//34 47//34 46//34 34//34
f 36//35 48//35 47//35 35//35
f 37//36 49//36 48//36 36//36
f 26//37 38//37 49//37 37//37
f 39//38 51//38 50//38 38//38
f 40//39 52//39 51//39 39//39
f 41//40 53//40 52//40 40//40
f 42//41 54//41 53//41 41//41
f 43//42 55//42 54//42 42//42
f 44//43 56//43 55//43 43//43
f 45//44 57//44 56//44 44//44
f 46//45 58//45 57//45 45//45
f 47//46 59//46 58//46 46//46
f 48//47 60//47 59//47 47//47
f 49//48 61//48 60//48 48//48
f 38//49 50//49 61//49 49//49
