# Blender 4.4.1
# www.blender.org
o Mountain_072
v -1.615269 0.000000 -0.669288
v -1.615269 23.110435 -0.669288
v -1.615269 23.110435 -0.669288
v -1.615269 23.110435 -0.669288
v -1.615269 23.110435 -0.669288
v -1.615269 23.110435 -0.669288
v -1.615269 23.110435 -0.669288
v -1.615269 23.110435 -0.669288
v -1.615269 23.110435 -0.669288
v -1.615269 23.110435 -0.669288
v -1.615269 23.110435 -0.669288
v -1.615269 23.110435 -0.669288
v -1.615269 23.110435 -0.669288
v 3.482784 20.128151 -0.669288
v 2.856355 20.439829 1.912405
v 0.884951 20.448910 3.661218
v -1.615269 20.444532 4.431568
v -4.174611 19.655346 3.763623
v -6.224765 20.333866 1.992006
v -6.572808 20.415716 -0.669288
v -6.150103 20.017950 -3.287476
v -4.329176 20.728868 -5.369915
v -1.615269 20.495165 -5.971050
v 0.925279 19.817783 -5.069646
v 2.848806 19.814295 -3.246623
v 9.491127 14.046691 -0.669288
v 8.192632 14.723318 4.993305
v 3.582220 13.792638 8.333026
v -1.615269 15.708110 9.580483
v -6.403874 14.822558 7.624820
v -11.422239 14.009343 4.992769
v -11.384833 16.046726 -0.669288
v -10.437354 15.046170 -5.762722
v -6.445680 14.656691 -9.035807
v -1.615269 15.985126 -10.706897
v 4.049156 15.117235 -10.480359
v 6.479191 15.664821 -5.342627
v 11.659131 9.474797 -0.669288
v 11.840963 9.374625 7.099671
v 6.613089 8.615979 13.582645
v -1.615269 7.789117 14.653932
v -9.035136 8.246982 12.182300
v -15.156563 9.018688 7.148782
v -15.342419 6.975955 -0.669288
v -14.774162 6.979703 -8.266580
v -9.600396 8.248008 -14.499934
v -1.615269 9.296050 -15.645760
v 6.588011 7.883085 -14.877787
v 10.958099 8.517060 -7.928526
v 22.609854 1.650072 -0.669288
v 19.867987 1.414080 11.734075
v 7.096311 0.691578 14.419610
v -1.615269 -0.410073 20.997818
v -11.952518 1.163503 17.235353
v -22.609854 -1.850212 11.451941
v -21.856621 0.375469 -0.669288
v -16.193676 -0.971080 -9.086136
v -11.638790 -1.280876 -18.030537
v -1.615269 -0.549659 -20.997818
v 7.476227 -0.140630 -16.416220
v 13.621581 2.161362 -9.466288
vn -0.0000 1.0000 -0.0000
vn 0.5048 0.8630 0.0183
vn 0.3194 0.8784 0.3555
vn 0.1398 0.8776 0.4586
vn -0.3667 0.8245 0.4309
vn -0.1884 0.8244 0.5338
vn -0.4757 0.8751 0.0891
vn -0.4673 0.8597 -0.2061
vn -0.4991 0.8544 -0.1447
vn -0.0208 0.8966 -0.4423
vn 0.3682 0.8338 -0.4113
vn 0.3824 0.8321 -0.4018
vn 0.4922 0.8413 -0.2235
vn 0.7078 0.7018 0.0811
vn 0.4002 0.6589 0.6369
vn 0.3395 0.6590 0.6712
vn -0.3791 0.6796 0.6280
vn -0.4065 0.6595 0.6323
vn -0.6856 0.6989 0.2035
vn -0.6609 0.7090 -0.2460
vn -0.5468 0.6261 -0.5559
vn -0.3065 0.6287 -0.7147
vn 0.2268 0.7549 -0.6154
vn 0.5377 0.7451 -0.3946
vn 0.6869 0.6924 -0.2209
vn 0.8570 0.5129 0.0492
vn 0.4520 0.6856 0.5706
vn 0.1812 0.6343 0.7515
vn -0.2987 0.5652 0.7690
vn -0.4463 0.6201 0.6452
vn -0.8767 0.4810 0.0095
vn -0.8830 0.4479 -0.1406
vn -0.6024 0.6009 -0.5253
vn -0.2763 0.6377 -0.7191
vn 0.1516 0.5694 -0.8079
vn 0.6986 0.5582 -0.4476
vn 0.8245 0.5179 -0.2279
vn 0.6234 0.7765 0.0921
vn 0.3687 0.4731 0.8002
vn 0.3415 0.3909 0.8547
vn -0.1995 0.6100 0.7669
vn -0.4860 0.6080 0.6278
vn -0.7829 0.6219 -0.0166
vn -0.8123 0.4629 -0.3549
vn -0.8147 0.2866 -0.5041
vn -0.2413 0.4253 -0.8723
vn 0.2949 0.3565 -0.8865
vn 0.7253 0.3106 -0.6144
vn 0.6379 0.6561 -0.4032
s 0
f 3//1 2//1 1//1
f 4//1 3//1 1//1
f 5//1 4//1 1//1
f 6//1 5//1 1//1
f 7//1 6//1 1//1
f 8//1 7//1 1//1
f 9//1 8//1 1//1
f 10//1 9//1 1//1
f 11//1 10//1 1//1
f 12//1 11//1 1//1
f 13//1 12//1 1//1
f 2//1 13//1 1//1
f 3//2 15//2 14//2 2//2
f 4//3 16//3 15//3 3//3
f 5//4 17//4 16//4 4//4
f 6//5 18//5 17//5 5//5
f 7//6 19//6 18//6 6//6
f 8//7 20//7 19//7 7//7
f 9//8 21//8 20//8 8//8
f 10//9 22//9 21//9 9//9
f 11//10 23//10 22//10 10//10
f 12//11 24//11 23//11 11//11
f 13//12 25//12 24//12 12//12
f 2//13 14//13 25//13 13//13
f 15//14 27//14 26//14 14//14
f 16//15 28//15 27//15 15//15
f 17//16 29//16 28//16 16//16
f 18//17 30//17 29//17 17//17
f 19//18 31//18 30//18 18//18
f 20//19 32//19 31//19 19//19
f 21//20 33//20 32//20 20//20
f 22//21 34//21 33//21 21//21
f 23//22 35//22 34//22 22//22
f 24//23 36//23 35//23 23//23
f 25//24 37//24 36//24 24//24
f 14//25 26//25 37//25 25//25
f 27//26 39//26 38//26 26//26
f 28//27 40//27 39//27 27//27
f 29//28 41//28 40//28 28//28
f 30//29 42//29 41//29 29//29
f 31//30 43//30 42//30 30//30
f 32//31 44//31 43//31 31//31
f 33//32 45//32 44//32 32//32
f 34//33 46//33 45//33 33//33
f 35//34 47//34 46//34 34//34
f 36//35 48//35 47//35 35//35
f 37//36 49//36 48//36 36//36
f 26//37 38//37 49//37 37//37
f 39//38 51//38 50//38 38//38
f 40//39 52//39 51//39 39//39
f 41//40 53//40 52//40 40//40
f 42//41 54//41 53//41 41//41
f 43//42 55//42 54//42 42//42
f 44//43 56//43 55//43 43//43
f 45//44 57//44 56//44 44//44
f 46//45 58//45 57//45 45//45
f 47//46 59//46 58//46 46//46
f 48//47 60//47 59//47 47//47
f 49//48 61//48 60//48 48//48
f 38//49 50//49 61//49 49//49
