# Blender 4.4.1
# www.blender.org
o Mountain_010
v -0.395927 0.000000 -1.215407
v -0.395927 22.587776 -1.215407
v -0.395927 22.587776 -1.215407
v -0.395927 22.587776 -1.215407
v -0.395927 22.587776 -1.215407
v -0.395927 22.587776 -1.215407
v -0.395927 22.587776 -1.215407
v -0.395927 22.587776 -1.215407
v -0.395927 22.587776 -1.215407
v -0.395927 22.587776 -1.215407
v -0.395927 22.587776 -1.215407
v -0.395927 22.587776 -1.215407
v -0.395927 22.587776 -1.215407
v 3.673248 19.857748 -1.215407
v 3.059298 19.594692 0.779468
v 1.769908 19.988464 2.535930
v -0.395927 19.871643 2.878015
v -2.555619 19.549248 2.525288
v -3.935460 20.093704 0.828143
v -4.663659 19.956430 -1.215407
v -4.097545 20.033974 -3.352537
v -2.503356 19.794111 -4.865582
v -0.395927 19.677799 -5.413967
v 1.644550 19.609123 -4.749618
v 3.073215 19.441517 -3.218318
v 8.621341 14.570780 -1.215407
v 6.379530 13.783132 2.696404
v 3.392256 15.379778 5.345917
v -0.395927 15.213636 6.400644
v -4.811413 15.468444 6.432439
v -6.900747 14.233078 2.540152
v -9.112997 13.768413 -1.215407
v -7.386661 13.838882 -5.251510
v -4.808289 15.214141 -8.857842
v -0.395927 13.846318 -10.003217
v 3.690622 14.400440 -8.293518
v 7.024343 14.008930 -5.499502
v 11.810647 7.187885 -1.215407
v 11.156874 7.743545 5.454605
v 5.874605 7.271030 9.645473
v -0.395927 7.811604 12.348402
v -7.227160 7.468808 10.616634
v -12.589263 9.557947 5.824418
v -12.667607 7.177191 -1.215407
v -10.766107 8.009624 -7.202633
v -7.471391 8.990265 -13.470470
v -0.395927 6.691419 -14.751789
v 5.345737 8.394923 -11.160261
v 11.561915 8.101378 -8.119271
v 13.525343 1.562587 -1.215407
v 15.952557 -0.970990 8.223393
v 8.751387 -1.026428 14.628204
v -0.395927 -1.593122 18.020658
v -8.465194 2.016696 12.760972
v -13.137012 -0.220782 6.140662
v -15.952557 -2.138294 -1.215407
v -12.169228 0.009067 -8.012726
v -7.797483 2.234046 -14.035278
v -0.395927 -2.131439 -16.939732
v 9.306588 1.532248 -18.020658
v 14.798852 1.316328 -9.988117
vn -0.0000 1.0000 -0.0000
vn 0.5364 0.7995 0.2705
vn 0.5576 0.7974 0.2306
vn 0.0423 0.8325 0.5524
vn -0.2099 0.8147 0.5406
vn -0.2891 0.8179 0.4974
vn -0.5205 0.8441 0.1288
vn -0.5218 0.8463 -0.1075
vn -0.3099 0.8329 -0.4585
vn -0.1023 0.8176 -0.5667
vn 0.2084 0.8038 -0.5571
vn 0.4943 0.7840 -0.3754
vn 0.5276 0.7863 -0.3215
vn 0.6845 0.5851 0.4350
vn 0.7124 0.5408 0.4472
vn 0.1607 0.5759 0.8016
vn -0.0436 0.6536 0.7556
vn -0.7179 0.5878 0.3729
vn -0.7786 0.5274 0.3400
vn -0.7936 0.5392 -0.2818
vn -0.6852 0.5896 -0.4277
vn -0.0525 0.6421 -0.7649
vn 0.2459 0.6040 -0.7581
vn 0.5672 0.6178 -0.5446
vn 0.6868 0.6425 -0.3399
vn 0.8141 0.5313 0.2344
vn 0.5639 0.5817 0.5861
vn 0.3085 0.5582 0.7702
vn -0.1282 0.5590 0.8192
vn -0.5397 0.6560 0.5276
vn -0.7735 0.6338 -0.0029
vn -0.8269 0.5016 -0.2541
vn -0.7647 0.5585 -0.3216
vn 0.0093 0.5720 -0.8202
vn 0.3172 0.5046 -0.8030
vn 0.4615 0.5577 -0.6899
vn 0.8471 0.5168 -0.1235
vn 0.9130 0.4047 -0.0508
vn 0.5322 0.5379 0.6538
vn 0.3118 0.5267 0.7908
vn -0.2907 0.4644 0.8366
vn -0.7384 0.1911 0.6467
vn -0.9709 0.1971 0.1363
vn -0.9033 0.2605 -0.3409
vn -0.8560 0.1465 -0.4958
vn -0.1985 0.1746 -0.9644
vn -0.0303 0.4937 -0.8691
vn 0.5444 0.6365 -0.5463
vn 0.9300 0.3596 0.0761
s 0
f 3//1 2//1 1//1
f 4//1 3//1 1//1
f 5//1 4//1 1//1
f 6//1 5//1 1//1
f 7//1 6//1 1//1
f 8//1 7//1 1//1
f 9//1 8//1 1//1
f 10//1 9//1 1//1
f 11//1 10//1 1//1
f 12//1 11//1 1//1
f 13//1 12//1 1//1
f 2//1 13//1 1//1
f 3//2 15//2 14//2 2//2
f 4//3 16//3 15//3 3//3
f 5//4 17//4 16//4 4//4
f 6//5 18//5 17//5 5//5
f 7//6 19//6 18//6 6//6
f 8//7 20//7 19//7 7//7
f 9//8 21//8 20//8 8//8
f 10//9 22//9 21//9 9//9
f 11//10 23//10 22//10 10//10
f 12//11 24//11 23//11 11//11
f 13//12 25//12 24//12 12//12
f 2//13 14//13 25//13 13//13
f 15//14 27//14 26//14 14//14
f 16//15 28//15 27//15 15//15
f 17//16 29//16 28//16 16//16
f 18//17 30//17 29//17 17//17
f 19//18 31//18 30//18 18//18
f 20//19 32//19 31//19 19//19
f 21//20 33//20 32//20 20//20
f 22//21 34//21 33//21 21//21
f 23//22 35//22 34//22 22//22
f 24//23 36//23 35//23 23//23
f 25//24 37//24 36//24 24//24
f 14//25 26//25 37//25 25//25
f 27//26 39//26 38//26 26//26
f 28//27 40//27 39//27 27//27
f 29//28 41//28 40//28 28//28
f 30//29 42//29 41//29 29//29
f 31//30 43//30 42//30 30//30
f 32//31 44//31 43//31 31//31
f 33//32 45//32 44//32 32//32
f 34//33 46//33 45//33 33//33
f 35//34 47//34 46//34 34//34
f 36//35 48//35 47//35 35//35
f 37//36 49//36 48//36 36//36
f 26//37 38//37 49//37 37//37
f 39//38 51//38 50//38 38//38
f 40//39 52//39 51//39 39//39
f 41//40 53//40 52//40 40//40
f 42//41 54//41 53//41 41//41
f 43//42 55//42 54//42 42//42
f 44//43 56//43 55//43 43//43
f 45//44 57//44 56//44 44//44
f 46//45 58//45 57//45 45//45
f 47//46 59//46 58//46 46//46
f 48//47 60//47 59//47 47//47
f 49//48 61//48 60//48 48//48
f 38//49 50//49 61//49 49//49
