# Blender 4.4.1
# www.blender.org
o Mountain_041
v 2.216484 0.000000 0.035734
v 2.216484 19.794605 0.035734
v 2.216484 19.794605 0.035734
v 2.216484 19.794605 0.035734
v 2.216484 19.794605 0.035734
v 2.216484 19.794605 0.035734
v 2.216484 19.794605 0.035734
v 2.216484 19.794605 0.035734
v 2.216484 19.794605 0.035734
v 2.216484 19.794605 0.035734
v 2.216484 19.794605 0.035734
v 2.216484 19.794605 0.035734
v 2.216484 19.794605 0.035734
v 7.376121 17.162628 0.035734
v 6.879304 17.410315 2.727814
v 4.900838 17.256296 4.685172
v 2.216484 17.364349 5.406015
v -0.324793 17.481222 4.437354
v -2.113589 17.746717 2.535702
v -3.042533 17.307047 0.035734
v -2.346085 17.283569 -2.598466
v -0.408039 17.638994 -4.510073
v 2.216484 17.771481 -5.015508
v 4.714289 16.933043 -4.290593
v 6.879373 17.588837 -2.656387
v 12.404213 12.784863 0.035734
v 11.547924 11.985631 5.423244
v 7.767773 13.562724 9.650849
v 2.216484 13.065624 11.318356
v -2.481968 12.096862 8.173692
v -6.190978 12.858025 4.889784
v -7.994364 12.950418 0.035734
v -6.274977 13.155460 -4.866813
v -2.812322 12.935265 -8.674414
v 2.216484 12.409269 -11.267661
v 7.899638 12.666950 -9.807777
v 12.130968 12.487883 -5.688396
v 15.947715 5.477144 0.035734
v 17.758348 6.653176 9.008834
v 9.171996 6.326527 12.083035
v 2.216484 7.082781 15.082174
v -4.564187 7.541429 11.780200
v -12.651308 6.519702 8.619658
v -15.141618 8.023404 0.035734
v -10.268970 7.538067 -7.172746
v -5.365571 6.397617 -13.096771
v 2.216484 6.585976 -15.074447
v 10.152906 7.420088 -13.710553
v 15.676948 6.011918 -7.735669
v 22.133722 1.680491 0.035734
v 22.759193 -1.368729 11.896073
v 14.734551 0.673278 21.717663
v 2.216484 -1.695424 17.862204
v -6.201577 0.876265 14.616242
v -15.770931 -0.250461 10.420773
v -22.759193 -1.644285 0.035734
v -16.896032 -0.333122 -10.998882
v -8.040459 1.143845 -17.729813
v 2.216484 -0.294131 -21.717663
v 11.319820 0.037273 -15.731709
v 20.676594 -0.197765 -10.622216
vn -0.0000 1.0000 -0.0000
vn 0.4544 0.8908 0.0019
vn 0.2655 0.9024 0.3394
vn 0.1458 0.9013 0.4079
vn -0.1145 0.9051 0.4096
vn -0.2313 0.9098 0.3446
vn -0.4276 0.9040 -0.0001
vn -0.4245 0.8974 -0.1202
vn -0.3745 0.9027 -0.2118
vn -0.1176 0.9219 -0.3692
vn 0.3869 0.8560 -0.3429
vn 0.1174 0.8581 -0.4998
vn 0.4537 0.8893 0.0571
vn 0.6788 0.7161 0.1626
vn 0.5588 0.7533 0.3469
vn 0.1256 0.8150 0.5657
vn -0.4187 0.6861 0.5949
vn -0.4589 0.6424 0.6138
vn -0.6706 0.7098 0.2156
vn -0.6521 0.7336 -0.1913
vn -0.5172 0.7143 -0.4715
vn -0.2257 0.7261 -0.6495
vn 0.2116 0.7838 -0.5839
vn 0.3796 0.7865 -0.4872
vn 0.6691 0.7415 -0.0498
vn 0.7992 0.5972 -0.0688
vn 0.4530 0.5931 0.6656
vn 0.3235 0.4295 0.8431
vn -0.4201 0.5744 0.7026
vn -0.3553 0.6976 0.6222
vn -0.5678 0.7764 0.2736
vn -0.6060 0.7161 -0.3464
vn -0.5559 0.6113 -0.5633
vn -0.2660 0.5717 -0.7762
vn 0.1197 0.5837 -0.8031
vn 0.6312 0.5759 -0.5195
vn 0.8873 0.4605 -0.0277
vn 0.7289 0.6842 -0.0237
vn 0.4409 0.7672 0.4659
vn -0.0861 0.6304 0.7714
vn -0.3097 0.3538 0.8826
vn -0.3920 0.4211 0.8179
vn -0.7547 0.5346 0.3802
vn -0.6795 0.6328 -0.3712
vn -0.4985 0.6908 -0.5237
vn -0.1854 0.6906 -0.6991
vn 0.3105 0.5120 -0.8009
vn 0.5540 0.4934 -0.6706
vn 0.6455 0.7549 -0.1156
s 0
f 3//1 2//1 1//1
f 4//1 3//1 1//1
f 5//1 4//1 1//1
f 6//1 5//1 1//1
f 7//1 6//1 1//1
f 8//1 7//1 1//1
f 9//1 8//1 1//1
f 10//1 9//1 1//1
f 11//1 10//1 1//1
f 12//1 11//1 1//1
f 13//1 12//1 1//1
f 2//1 13//1 1//1
f 3//2 15//2 14//2 2//2
f 4//3 16//3 15//3 3//3
f 5//4 17//4 16//4 4//4
f 6//5 18//5 17//5 5//5
f 7//6 19//6 18//6 6//6
f 8//7 20//7 19//7 7//7
f 9//8 21//8 20//8 8//8
f 10//9 22//9 21//9 9//9
f 11//10 23//10 22//10 10//10
f 12//11 24//11 23//11 11//11
f 13//12 25//12 24//12 12//12
f 2//13 14//13 25//13 13//13
f 15//14 27//14 26//14 14//14
f 16//15 28//15 27//15 15//15
f 17//16 29//16 28//16 16//16
f 18//17 30//17 29//17 17//17
f 19//18 31//18 30//18 18//18
f 20//19 32//19 31//19 19//19
f 21//20 33//20 32//20 20//20
f 22//21 34//21 33//21 21//21
f 23//22 35//22 34//22 22//22
f 24//23 36//23 35//23 23//23
f 25//24 37//24 36//24 24//24
f 14//25 26//25 37//25 25//25
f 27//26 39//26 38//26 26//26
f 28//27 40//27 39//27 27//27
f 29//28 41//28 40//28 28//28
f 30//29 42//29 41//29 29//29
f 31//30 43//30 42//30 30//30
f 32//31 44//31 43//31 31//31
f 33//32 45//32 44//32 32//32
f 34//33 46//33 45//33 33//33
f 35//34 47//34 46//34 34//34
f 36//35 48//35 47//35 35//35
f 37//36 49//36 48//36 36//36
f 26//37 38//37 49//37 37//37
f 39//38 51//38 50//38 38//38
f 40//39 52//39 51//39 39//39
f 41//40 53//40 52//40 40//40
f 42//41 54//41 53//41 41//41
f 43//42 55//42 54//42 42//42
f 44//43 56//43 55//43 43//43
f 45//44 57//44 56//44 44//44
f 46//45 58//45 57//45 45//45
f 47//46 59//46 58//46 46//46
f 48//47 60//47 59//47 47//47
f 49//48 61//48 60//48 48//48
f 38//49 50//49 61//49 49//49
