# Blender 4.4.1
# www.blender.org
o Mountain_007
v -0.397395 0.000000 0.450156
v -0.397395 16.184217 0.450156
v -0.397395 16.184217 0.450156
v -0.397395 16.184217 0.450156
v -0.397395 16.184217 0.450156
v -0.397395 16.184217 0.450156
v -0.397395 16.184217 0.450156
v -0.397395 16.184217 0.450156
v -0.397395 16.184217 0.450156
v -0.397395 16.184217 0.450156
v -0.397395 16.184217 0.450156
v -0.397395 16.184217 0.450156
v -0.397395 16.184217 0.450156
v 3.852170 14.403030 0.450156
v 3.403504 14.041686 2.644606
v 1.803472 14.259016 4.262169
v -0.397395 14.339968 4.869757
v -2.603161 14.434976 4.270655
v -4.206261 14.487629 2.649206
v -4.803350 14.006577 0.450156
v -4.135777 14.225582 -1.708200
v -2.619049 13.829521 -3.397862
v -0.397395 14.361454 -3.803281
v 1.703384 13.863529 -3.188500
v 3.378061 14.542725 -1.729604
v 8.341012 11.131429 0.450156
v 7.620992 10.068908 5.079574
v 4.227001 10.432855 8.459845
v -0.397395 10.861269 9.667333
v -4.599730 9.839415 7.728815
v -8.614977 9.880826 5.194579
v -9.892506 11.045092 0.450156
v -8.255946 11.238981 -4.086981
v -5.145619 10.955183 -7.774009
v -0.397395 10.932678 -8.001517
v 3.522861 10.521421 -6.339926
v 7.055864 10.741941 -3.852985
v 13.303368 5.877541 0.450156
v 11.975759 6.741127 7.593800
v 5.350893 5.026077 10.406484
v -0.397395 6.605041 11.621099
v -7.031003 6.680348 11.939902
v -10.736251 4.611911 6.419297
v -14.690302 6.666102 0.450156
v -11.009802 5.449636 -5.676920
v -6.207102 6.755619 -9.612552
v -0.397395 5.654355 -11.812493
v 5.329097 6.612383 -9.468419
v 9.651392 5.559724 -5.351514
v 18.156754 0.787006 0.450156
v 17.328583 -0.261774 10.684255
v 9.129047 -1.118255 16.950438
v -0.397395 -1.297904 17.228420
v -9.045204 -0.297414 15.428601
v -18.156754 -1.512524 10.703526
v -16.867491 -0.183260 0.450156
v -18.150938 1.150537 -9.799857
v -7.690400 0.601018 -12.181698
v -0.397395 1.546701 -17.228420
v 7.796465 -0.329706 -13.742026
v 12.778722 -1.223010 -7.157079
vn -0.0000 1.0000 -0.0000
vn 0.3767 0.8986 0.2250
vn 0.3667 0.8983 0.2420
vn 0.1389 0.9139 0.3814
vn -0.0647 0.9209 0.3843
vn -0.2517 0.9267 0.2790
vn -0.4418 0.8939 -0.0756
vn -0.4426 0.8955 -0.0460
vn -0.2261 0.8836 -0.4101
vn -0.2803 0.8823 -0.3781
vn 0.3161 0.8720 -0.3737
vn 0.0860 0.8618 -0.5000
vn 0.3864 0.9220 -0.0250
vn 0.5735 0.7767 0.2603
vn 0.4958 0.7676 0.4062
vn 0.2131 0.7858 0.5807
vn -0.3453 0.7113 0.6122
vn -0.4267 0.6834 0.5923
vn -0.5677 0.7901 0.2310
vn -0.5153 0.8478 -0.1250
vn -0.3415 0.8499 -0.4014
vn -0.1112 0.8161 -0.5672
vn 0.3346 0.7329 -0.5924
vn 0.3404 0.7139 -0.6120
vn 0.6124 0.7659 -0.1957
vn 0.6534 0.7464 0.1263
vn 0.3633 0.5943 0.7175
vn 0.2801 0.3872 0.8785
vn -0.1670 0.6621 0.7305
vn -0.6332 0.6311 0.4481
vn -0.6755 0.5472 0.4942
vn -0.7021 0.5849 -0.4061
vn -0.6471 0.4567 -0.6105
vn -0.1388 0.5185 -0.8437
vn 0.2730 0.6134 -0.7411
vn 0.5614 0.5748 -0.5953
vn 0.7178 0.5760 -0.3910
vn 0.7477 0.6565 0.0998
vn 0.2884 0.6882 0.6658
vn 0.1327 0.6686 0.7317
vn -0.0453 0.5255 0.8496
vn -0.5552 0.6821 0.4759
vn -0.7364 0.6279 0.2519
vn -0.7438 0.6602 -0.1041
vn -0.3088 0.6803 -0.6647
vn -0.3812 0.6014 -0.7021
vn 0.3259 0.6634 -0.6736
vn 0.6934 0.5087 -0.5103
vn 0.6606 0.5256 -0.5361
s 0
f 3//1 2//1 1//1
f 4//1 3//1 1//1
f 5//1 4//1 1//1
f 6//1 5//1 1//1
f 7//1 6//1 1//1
f 8//1 7//1 1//1
f 9//1 8//1 1//1
f 10//1 9//1 1//1
f 11//1 10//1 1//1
f 12//1 11//1 1//1
f 13//1 12//1 1//1
f 2//1 13//1 1//1
f 3//2 15//2 14//2 2//2
f 4//3 16//3 15//3 3//3
f 5//4 17//4 16//4 4//4
f 6//5 18//5 17//5 5//5
f 7//6 19//6 18//6 6//6
f 8//7 20//7 19//7 7//7
f 9//8 21//8 20//8 8//8
f 10//9 22//9 21//9 9//9
f 11//10 23//10 22//10 10//10
f 12//11 24//11 23//11 11//11
f 13//12 25//12 24//12 12//12
f 2//13 14//13 25//13 13//13
f 15//14 27//14 26//14 14//14
f 16//15 28//15 27//15 15//15
f 17//16 29//16 28//16 16//16
f 18//17 30//17 29//17 17//17
f 19//18 31//18 30//18 18//18
f 20//19 32//19 31//19 19//19
f 21//20 33//20 32//20 20//20
f 22//21 34//21 33//21 21//21
f 23//22 35//22 34//22 22//22
f 24//23 36//23 35//23 23//23
f 25//24 37//24 36//24 24//24
f 14//25 26//25 37//25 25//25
f 27//26 39//26 38//26 26//26
f 28//27 40//27 39//27 27//27
f 29//28 41//28 40//28 28//28
f 30//29 42//29 41//29 29//29
f 31//30 43//30 42//30 30//30
f 32//31 44//31 43//31 31//31
f 33//32 45//32 44//32 32//32
f 34//33 46//33 45//33 33//33
f 35//34 47//34 46//34 34//34
f 36//35 48//35 47//35 35//35
f 37//36 49//36 48//36 36//36
f 26//37 38//37 49//37 37//37
f 39//38 51//38 50//38 38//38
f 40//39 52//39 51//39 39//39
f 41//40 53//40 52//40 40//40
f 42//41 54//41 53//41 41//41
f 43//42 55//42 54//42 42//42
f 44//43 56//43 55//43 43//43
f 45//44 57//44 56//44 44//44
f 46//45 58//45 57//45 45//45
f 47//46 59//46 58//46 46//46
f 48//47 60//47 59//47 47//47
f 49//48 61//48 60//48 48//48
f 38//49 50//49 61//49 49//49
