# Blender 4.4.1
# www.blender.org
o Mountain_037
v -1.514771 0.000000 -2.604248
v -1.514771 10.690355 -2.604248
v -1.514771 10.690355 -2.604248
v -1.514771 10.690355 -2.604248
v -1.514771 10.690355 -2.604248
v -1.514771 10.690355 -2.604248
v -1.514771 10.690355 -2.604248
v -1.514771 10.690355 -2.604248
v -1.514771 10.690355 -2.604248
v -1.514771 10.690355 -2.604248
v -1.514771 10.690355 -2.604248
v -1.514771 10.690355 -2.604248
v -1.514771 10.690355 -2.604248
v 4.263113 9.614719 -2.604248
v 3.647945 9.616059 0.376447
v 1.414653 9.164744 2.469663
v -1.514771 9.524130 3.020455
v -4.372736 9.286616 2.345892
v -6.749705 9.542620 0.418143
v -7.179247 9.115953 -2.604248
v -6.847286 9.582155 -5.682977
v -4.569873 9.525178 -7.895840
v -1.514771 9.457648 -8.210598
v 1.317145 9.327368 -7.509270
v 3.345072 9.198522 -5.410079
v 10.360619 6.594097 -2.604248
v 8.739530 6.652741 3.316075
v 4.358127 7.156540 7.567909
v -1.514771 7.123220 8.336155
v -6.840055 6.999479 6.619415
v -12.055397 6.422710 3.481386
v -12.523465 6.679847 -2.604248
v -12.311914 7.036852 -8.837982
v -6.880948 7.076186 -11.898740
v -1.514771 6.791702 -13.231116
v 4.108603 7.287133 -12.344215
v 9.018858 7.300175 -8.685842
v 13.613314 4.335928 -2.604248
v 14.481693 3.315681 6.631315
v 7.008225 4.511038 12.158014
v -1.514771 3.450840 12.950912
v -11.326734 3.797375 14.390572
v -15.384675 3.747809 5.403545
v -18.970654 4.430441 -2.604248
v -14.627146 3.341696 -10.174682
v -10.432128 3.479886 -18.049564
v -1.514771 3.196755 -19.717588
v 6.918273 3.509301 -17.210707
v 14.370632 3.323756 -11.775689
v 26.566032 0.002676 -2.604248
v 21.445585 0.268953 10.651920
v 12.056240 0.834707 20.901432
v -1.514771 -1.006035 23.936050
v -13.559577 -0.469961 18.257969
v -19.084425 0.849189 7.539597
v -26.566032 -0.881324 -2.604248
v -20.966551 0.984808 -13.834739
v -13.830693 0.268381 -23.936050
v -1.514771 -0.555127 -23.605873
v 8.633982 1.006042 -20.182402
v 22.244513 -0.365001 -16.321676
vn -0.0000 1.0000 -0.0000
vn 0.1829 0.9824 0.0373
vn 0.0499 0.9640 0.2611
vn 0.1564 0.9671 0.2005
vn -0.1282 0.9711 0.2013
vn -0.0808 0.9702 0.2285
vn -0.2665 0.9589 -0.0975
vn -0.2660 0.9569 0.1162
vn -0.1188 0.9819 -0.1476
vn -0.0005 0.9767 -0.2147
vn 0.0976 0.9720 -0.2137
vn 0.2124 0.9662 -0.1459
vn 0.1793 0.9629 -0.2015
vn 0.4471 0.8882 0.1063
vn 0.2812 0.9162 0.2856
vn 0.0893 0.9260 0.3668
vn -0.1570 0.9026 0.4009
vn -0.2784 0.8900 0.3610
vn -0.4559 0.8896 0.0284
vn -0.4310 0.9007 0.0545
vn -0.2452 0.8996 -0.3614
vn -0.0575 0.8748 -0.4811
vn 0.0400 0.9060 -0.4213
vn 0.2131 0.9477 -0.2378
vn 0.3696 0.9270 -0.0637
vn 0.5052 0.8593 0.0796
vn 0.3629 0.8869 0.2859
vn -0.0012 0.8243 0.5661
vn 0.0040 0.8737 0.4864
vn -0.3749 0.8953 0.2405
vn -0.4144 0.8924 0.1787
vn -0.5252 0.8229 -0.2169
vn -0.4687 0.7877 -0.3998
vn -0.0659 0.8751 -0.4794
vn 0.0792 0.8449 -0.5291
vn 0.3432 0.8239 -0.4510
vn 0.5772 0.8157 -0.0385
vn 0.3292 0.9396 0.0937
vn 0.2958 0.9314 0.2122
vn -0.0527 0.9184 0.3921
vn -0.0618 0.8646 0.4986
vn -0.5744 0.7501 0.3277
vn -0.5301 0.8014 0.2770
vn -0.4337 0.8802 -0.1930
vn -0.3087 0.9243 -0.2243
vn 0.0058 0.8135 -0.5815
vn 0.1319 0.7487 -0.6497
vn 0.2458 0.8784 -0.4099
vn 0.3365 0.9354 -0.1088
s 0
f 3//1 2//1 1//1
f 4//1 3//1 1//1
f 5//1 4//1 1//1
f 6//1 5//1 1//1
f 7//1 6//1 1//1
f 8//1 7//1 1//1
f 9//1 8//1 1//1
f 10//1 9//1 1//1
f 11//1 10//1 1//1
f 12//1 11//1 1//1
f 13//1 12//1 1//1
f 2//1 13//1 1//1
f 3//2 15//2 14//2 2//2
f 4//3 16//3 15//3 3//3
f 5//4 17//4 16//4 4//4
f 6//5 18//5 17//5 5//5
f 7//6 19//6 18//6 6//6
f 8//7 20//7 19//7 7//7
f 9//8 21//8 20//8 8//8
f 10//9 22//9 21//9 9//9
f 11//10 23//10 22//10 10//10
f 12//11 24//11 23//11 11//11
f 13//12 25//12 24//12 12//12
f 2//13 14//13 25//13 13//13
f 15//14 27//14 26//14 14//14
f 16//15 28//15 27//15 15//15
f 17//16 29//16 28//16 16//16
f 18//17 30//17 29//17 17//17
f 19//18 31//18 30//18 18//18
f 20//19 32//19 31//19 19//19
f 21//20 33//20 32//20 20//20
f 22//21 34//21 33//21 21//21
f 23//22 35//22 34//22 22//22
f 24//23 36//23 35//23 23//23
f 25//24 37//24 36//24 24//24
f 14//25 26//25 37//25 25//25
f 27//26 39//26 38//26 26//26
f 28//27 40//27 39//27 27//27
f 29//28 41//28 40//28 28//28
f 30//29 42//29 41//29 29//29
f 31//30 43//30 42//30 30//30
f 32//31 44//31 43//31 31//31
f 33//32 45//32 44//32 32//32
f 34//33 46//33 45//33 33//33
f 35//34 47//34 46//34 34//34
f 36//35 48//35 47//35 35//35
f 37//36 49//36 48//36 36//36
f 26//37 38//37 49//37 37//37
f 39//38 51//38 50//38 38//38
f 40//39 52//39 51//39 39//39
f 41//40 53//40 52//40 40//40
f 42//41 54//41 53//41 41//41
f 43//42 55//42 54//42 42//42
f 44//43 56//43 55//43 43//43
f 45//44 57//44 56//44 44//44
f 46//45 58//45 57//45 45//45
f 47//46 59//46 58//46 46//46
f 48//47 60//47 59//47 47//47
f 49//48 61//48 60//48 48//48
f 38//49 50//49 61//49 49//49
