# Blender 4.4.1
# www.blender.org
o Mountain_038
v -1.307693 0.000000 -2.931909
v -1.307693 14.444947 -2.931909
v -1.307693 14.444947 -2.931909
v -1.307693 14.444947 -2.931909
v -1.307693 14.444947 -2.931909
v -1.307693 14.444947 -2.931909
v -1.307693 14.444947 -2.931909
v -1.307693 14.444947 -2.931909
v -1.307693 14.444947 -2.931909
v -1.307693 14.444947 -2.931909
v -1.307693 14.444947 -2.931909
v -1.307693 14.444947 -2.931909
v -1.307693 14.444947 -2.931909
v 6.016186 12.537681 -2.931909
v 5.035448 12.622430 0.730305
v 2.287727 12.714956 3.295543
v -1.307693 12.548296 4.409686
v -5.028854 12.633150 3.513331
v -7.308013 12.417787 0.532377
v -8.160576 12.830391 -2.931909
v -7.231745 12.473109 -6.352162
v -4.871021 12.814377 -9.103774
v -1.307693 12.825507 -10.472086
v 2.130936 12.947803 -8.887790
v 5.220663 12.904487 -6.701057
v 13.041727 9.084949 -2.931909
v 11.038585 8.972117 4.196218
v 5.744691 8.676058 9.283180
v -1.307693 9.165088 12.123168
v -8.227841 9.498955 9.054139
v -14.363544 9.473389 4.605890
v -15.758589 9.880704 -2.931909
v -14.474248 9.367715 -10.533623
v -8.427286 9.810251 -15.263406
v -1.307693 10.054120 -15.994390
v 5.908369 9.187098 -15.430494
v 11.729983 9.421236 -10.459215
v 20.364162 5.345760 -2.931909
v 14.844840 4.610218 6.393761
v 9.146209 4.639198 15.174780
v -1.307693 4.978928 20.755394
v -11.840605 5.307811 15.311628
v -17.489651 5.099448 6.410749
v -20.560404 5.777473 -2.931909
v -19.715052 5.545097 -13.559402
v -10.840010 5.666617 -19.442366
v -1.307693 5.487607 -27.332373
v 8.296233 4.875384 -19.566397
v 17.095114 4.366891 -13.556774
v 28.487858 0.614299 -2.931909
v 20.627087 -0.130920 9.732142
v 11.633286 0.553870 19.482527
v -1.307693 0.856546 30.508230
v -16.941980 -1.087577 24.147470
v -22.368174 -0.146187 9.227365
v -28.487858 0.068808 -2.931909
v -25.057034 0.840888 -16.643597
v -15.753132 1.299334 -27.952143
v -1.307693 -0.344925 -30.293070
v 14.613503 1.190994 -30.508230
v 24.248726 0.460881 -17.686914
vn -0.0000 1.0000 -0.0000
vn 0.2518 0.9667 0.0450
vn 0.1845 0.9693 0.1627
vn 0.0326 0.9677 0.2500
vn -0.0381 0.9675 0.2499
vn -0.2527 0.9596 0.1239
vn -0.2260 0.9592 0.1699
vn -0.2263 0.9605 -0.1618
vn -0.2597 0.9601 -0.1037
vn -0.0834 0.9743 -0.2093
vn 0.0619 0.9758 -0.2096
vn 0.1331 0.9766 -0.1687
vn 0.2518 0.9669 0.0410
vn 0.4487 0.8847 0.1264
vn 0.3323 0.8666 0.3723
vn 0.1868 0.8828 0.4311
vn -0.1191 0.9021 0.4148
vn -0.2774 0.9177 0.2844
vn -0.3363 0.9316 0.1381
vn -0.3395 0.9299 -0.1416
vn -0.2968 0.9252 -0.2366
vn -0.1032 0.9038 -0.4154
vn 0.1496 0.8883 -0.4341
vn 0.2694 0.8935 -0.3593
vn 0.4496 0.8928 -0.0283
vn 0.5275 0.8012 0.2825
vn 0.4762 0.7868 0.3926
vn 0.2490 0.8666 0.4324
vn -0.1850 0.8750 0.4474
vn -0.4843 0.7707 0.4140
vn -0.6870 0.6906 0.2261
vn -0.5971 0.7956 -0.1023
vn -0.3725 0.7933 -0.4815
vn -0.2351 0.8627 -0.4477
vn 0.2932 0.8481 -0.4414
vn 0.4093 0.7453 -0.5263
vn 0.5345 0.8291 -0.1642
vn 0.4717 0.8129 0.3417
vn 0.4997 0.7851 0.3659
vn 0.3296 0.8396 0.4318
vn -0.2457 0.8710 0.4254
vn -0.5662 0.7727 0.2870
vn -0.5870 0.7588 0.2824
vn -0.6022 0.7935 -0.0882
vn -0.3624 0.8622 -0.3541
vn -0.1983 0.7731 -0.6025
vn 0.1238 0.8442 -0.5216
vn 0.2840 0.9340 -0.2166
vn 0.4492 0.8767 -0.1720
s 0
f 3//1 2//1 1//1
f 4//1 3//1 1//1
f 5//1 4//1 1//1
f 6//1 5//1 1//1
f 7//1 6//1 1//1
f 8//1 7//1 1//1
f 9//1 8//1 1//1
f 10//1 9//1 1//1
f 11//1 10//1 1//1
f 12//1 11//1 1//1
f 13//1 12//1 1//1
f 2//1 13//1 1//1
f 3//2 15//2 14//2 2//2
f 4//3 16//3 15//3 3//3
f 5//4 17//4 16//4 4//4
f 6//5 18//5 17//5 5//5
f 7//6 19//6 18//6 6//6
f 8//7 20//7 19//7 7//7
f 9//8 21//8 20//8 8//8
f 10//9 22//9 21//9 9//9
f 11//10 23//10 22//10 10//10
f 12//11 24//11 23//11 11//11
f 13//12 25//12 24//12 12//12
f 2//13 14//13 25//13 13//13
f 15//14 27//14 26//14 14//14
f 16//15 28//15 27//15 15//15
f 17//16 29//16 28//16 16//16
f 18//17 30//17 29//17 17//17
f 19//18 31//18 30//18 18//18
f 20//19 32//19 31//19 19//19
f 21//20 33//20 32//20 20//20
f 22//21 34//21 33//21 21//21
f 23//22 35//22 34//22 22//22
f 24//23 36//23 35//23 23//23
f 25//24 37//24 36//24 24//24
f 14//25 26//25 37//25 25//25
f 27//26 39//26 38//26 26//26
f 28//27 40//27 39//27 27//27
f 29//28 41//28 40//28 28//28
f 30//29 42//29 41//29 29//29
f 31//30 43//30 42//30 30//30
f 32//31 44//31 43//31 31//31
f 33//32 45//32 44//32 32//32
f 34//33 46//33 45//33 33//33
f 35//34 47//34 46//34 34//34
f 36//35 48//35 47//35 35//35
f 37//36 49//36 48//36 36//36
f 26//37 38//37 49//37 37//37
f 39//38 51//38 50//38 38//38
f 40//39 52//39 51//39 39//39
f 41//40 53//40 52//40 40//40
f 42//41 54//41 53//41 41//41
f 43//42 55//42 54//42 42//42
f 44//43 56//43 55//43 43//43
f 45//44 57//44 56//44 44//44
f 46//45 58//45 57//45 45//45
f 47//46 59//46 58//46 46//46
f 48//47 60//47 59//47 47//47
f 49//48 61//48 60//48 48//48
f 38//49 50//49 61//49 49//49
