# Blender 4.4.1
# www.blender.org
o Mountain_054
v 3.643515 0.000000 -0.180352
v 3.643515 10.291297 -0.180352
v 3.643515 10.291297 -0.180352
v 3.643515 10.291297 -0.180352
v 3.643515 10.291297 -0.180352
v 3.643515 10.291297 -0.180352
v 3.643515 10.291297 -0.180352
v 3.643515 10.291297 -0.180352
v 3.643515 10.291297 -0.180352
v 3.643515 10.291297 -0.180352
v 3.643515 10.291297 -0.180352
v 3.643515 10.291297 -0.180352
v 3.643515 10.291297 -0.180352
v 9.773089 8.850250 -0.180352
v 9.214653 8.799524 3.036145
v 6.799614 9.258960 5.286171
v 3.643515 8.855370 6.060338
v 0.604843 8.756931 5.082783
v -2.079312 8.931325 3.123724
v -2.504843 9.173635 -0.180352
v -2.086783 8.764053 -3.488741
v 0.599554 8.969185 -5.452648
v 3.643515 8.809704 -6.620868
v 6.738539 8.880269 -5.541090
v 9.068329 8.930397 -3.312370
v 15.220589 7.041491 -0.180352
v 14.156482 6.293791 5.889312
v 10.251263 6.668610 11.264603
v 3.643515 6.865191 12.982563
v -3.265324 6.588789 11.786109
v -7.287642 7.004322 6.130755
v -8.097167 6.247186 -0.180352
v -7.625992 6.943150 -6.686805
v -3.291744 6.985811 -12.192574
v 3.643515 6.246691 -11.745440
v 10.174608 7.034447 -11.492537
v 15.575475 6.299816 -7.069272
v 21.549603 3.516625 -0.180352
v 20.211290 3.965893 9.385057
v 12.044190 3.833970 14.370044
v 3.643515 3.047735 17.969133
v -6.903574 3.512906 18.087742
v -12.476993 4.022209 9.126827
v -13.994410 4.084129 -0.180352
v -12.107705 3.614657 -9.274323
v -4.716883 3.409984 -14.660987
v 3.643515 3.391779 -20.737427
v 13.664672 3.069098 -17.537504
v 21.439825 3.486067 -10.455056
v 26.337742 0.621118 -0.180352
v 24.931099 -0.186665 12.110040
v 16.164822 0.725311 21.507187
v 3.643515 -0.284504 28.282967
v -6.693141 -0.729479 17.723261
v -14.085325 0.630336 10.055399
v -26.337742 -0.854634 -0.180352
v -16.774321 0.991968 -11.968595
v -7.378402 -0.902612 -19.270872
v 3.643515 0.329684 -28.282967
v 17.095295 0.828472 -23.479517
v 21.794518 0.270882 -10.659838
vn -0.0000 1.0000 -0.0000
vn 0.2285 0.9720 0.0550
vn 0.2313 0.9716 0.0499
vn -0.0694 0.9722 0.2237
vn -0.1032 0.9693 0.2230
vn -0.1008 0.9693 0.2244
vn -0.1780 0.9794 0.0948
vn -0.1770 0.9738 -0.1429
vn -0.1778 0.9738 -0.1415
vn -0.0350 0.9740 -0.2241
vn 0.0559 0.9730 -0.2238
vn 0.1445 0.9743 -0.1730
vn 0.2288 0.9731 -0.0266
vn 0.3466 0.9275 0.1403
vn 0.3532 0.9155 0.1926
vn 0.0615 0.9457 0.3193
vn -0.0943 0.9594 0.2660
vn -0.1811 0.9553 0.2335
vn -0.4090 0.9125 0.0037
vn -0.3902 0.9207 -0.0085
vn -0.2120 0.9628 -0.1674
vn 0.0564 0.9260 -0.3733
vn -0.0302 0.9254 -0.3777
vn 0.2454 0.9512 -0.1873
vn 0.3268 0.9422 -0.0736
vn 0.4074 0.9097 0.0800
vn 0.3051 0.8916 0.3346
vn 0.1820 0.7790 0.6001
vn -0.0226 0.8565 0.5157
vn -0.3308 0.9030 0.2743
vn -0.4161 0.9091 0.0215
vn -0.4560 0.8882 -0.0560
vn -0.4484 0.7451 -0.4937
vn -0.1308 0.8714 -0.4727
vn 0.0580 0.9142 -0.4012
vn 0.3111 0.8906 -0.3317
vn 0.4536 0.8906 -0.0336
vn 0.5773 0.8120 0.0858
vn 0.3342 0.8767 0.3459
vn 0.0819 0.9411 0.3280
vn -0.2910 0.7583 0.5834
vn -0.7647 0.1856 0.6171
vn -0.4790 0.8330 0.2768
vn -0.3818 0.9121 -0.1492
vn -0.2764 0.8200 -0.5013
vn -0.3775 0.8260 -0.4185
vn 0.1088 0.9342 -0.3396
vn 0.5497 0.7634 -0.3391
vn 0.7497 0.6369 -0.1798
s 0
f 3//1 2//1 1//1
f 4//1 3//1 1//1
f 5//1 4//1 1//1
f 6//1 5//1 1//1
f 7//1 6//1 1//1
f 8//1 7//1 1//1
f 9//1 8//1 1//1
f 10//1 9//1 1//1
f 11//1 10//1 1//1
f 12//1 11//1 1//1
f 13//1 12//1 1//1
f 2//1 13//1 1//1
f 3//2 15//2 14//2 2//2
f 4//3 16//3 15//3 3//3
f 5//4 17//4 16//4 4//4
f 6//5 18//5 17//5 5//5
f 7//6 19//6 18//6 6//6
f 8//7 20//7 19//7 7//7
f 9//8 21//8 20//8 8//8
f 10//9 22//9 21//9 9//9
f 11//10 23//10 22//10 10//10
f 12//11 24//11 23//11 11//11
f 13//12 25//12 24//12 12//12
f 2//13 14//13 25//13 13//13
f 15//14 27//14 26//14 14//14
f 16//15 28//15 27//15 15//15
f 17//16 29//16 28//16 16//16
f 18//17 30//17 29//17 17//17
f 19//18 31//18 30//18 18//18
f 20//19 32//19 31//19 19//19
f 21//20 33//20 32//20 20//20
f 22//21 34//21 33//21 21//21
f 23//22 35//22 34//22 22//22
f 24//23 36//23 35//23 23//23
f 25//24 37//24 36//24 24//24
f 14//25 26//25 37//25 25//25
f 27//26 39//26 38//26 26//26
f 28//27 40//27 39//27 27//27
f 29//28 41//28 40//28 28//28
f 30//29 42//29 41//29 29//29
f 31//30 43//30 42//30 30//30
f 32//31 44//31 43//31 31//31
f 33//32 45//32 44//32 32//32
f 34//33 46//33 45//33 33//33
f 35//34 47//34 46//34 34//34
f 36//35 48//35 47//35 35//35
f 37//36 49//36 48//36 36//36
f 26//37 38//37 49//37 37//37
f 39//38 51//38 50//38 38//38
f 40//39 52//39 51//39 39//39
f 41//40 53//40 52//40 40//40
f 42//41 54//41 53//41 41//41
f 43//42 55//42 54//42 42//42
f 44//43 56//43 55//43 43//43
f 45//44 57//44 56//44 44//44
f 46//45 58//45 57//45 45//45
f 47//46 59//46 58//46 46//46
f 48//47 60//47 59//47 47//47
f 49//48 61//48 60//48 48//48
f 38//49 50//49 61//49 49//49
