# Blender 4.4.1
# www.blender.org
o Mountain_005
v -1.717570 0.000000 -0.088439
v -1.717570 13.184764 -0.088439
v -1.717570 13.184764 -0.088439
v -1.717570 13.184764 -0.088439
v -1.717570 13.184764 -0.088439
v -1.717570 13.184764 -0.088439
v -1.717570 13.184764 -0.088439
v -1.717570 13.184764 -0.088439
v -1.717570 13.184764 -0.088439
v -1.717570 13.184764 -0.088439
v -1.717570 13.184764 -0.088439
v -1.717570 13.184764 -0.088439
v -1.717570 13.184764 -0.088439
v 2.788510 11.407350 -0.088439
v 2.351982 11.285137 2.261119
v 0.580608 11.606757 3.892123
v -1.717570 11.355831 4.519694
v -3.961595 11.504046 3.798326
v -5.573368 11.774104 2.137707
v -6.414944 11.408368 -0.088439
v -5.642515 11.608942 -2.354507
v -4.010296 11.831738 -4.059556
v -1.717570 11.346166 -4.435529
v 0.557320 11.310588 -4.028663
v 2.033945 11.256536 -2.254377
v 6.347516 8.457987 -0.088439
v 6.183971 8.248027 4.473518
v 2.519884 8.796113 7.251048
v -1.717570 8.462638 9.231030
v -6.363331 9.082163 7.958255
v -9.920072 8.688132 4.647278
v -10.962159 9.095028 -0.088439
v -9.357467 8.582001 -4.499335
v -6.327731 9.061727 -8.073471
v -1.717570 7.958160 -9.629375
v 2.461175 8.269587 -7.326238
v 6.424635 8.614494 -4.789343
v 10.864322 3.878088 -0.088439
v 10.574987 5.016025 7.008673
v 5.891366 4.621943 13.090626
v -1.717570 3.791242 13.320378
v -7.507267 4.486581 9.939611
v -12.731467 4.127307 6.270438
v -13.504380 5.534537 -0.088439
v -14.524168 4.769731 -7.482331
v -9.342849 5.609020 -13.295809
v -1.717570 4.165167 -14.216581
v 4.072874 5.127835 -10.117783
v 9.813503 4.920651 -6.745907
v 19.175232 -0.839898 -0.088439
v 14.323927 0.355421 9.173124
v 7.208671 -1.077875 15.372264
v -1.717570 -0.439558 16.734011
v -11.282930 0.943325 16.479252
v -16.173576 0.510708 8.257740
v -18.111977 1.173954 -0.088439
v -19.175232 0.132102 -10.167624
v -10.511622 -0.489110 -15.320184
v -1.717570 1.239855 -16.734011
v 6.895033 0.038490 -15.005904
v 16.823162 0.415743 -10.792935
vn -0.0000 1.0000 -0.0000
vn 0.3645 0.9240 0.1158
vn 0.3308 0.9270 0.1765
vn -0.0007 0.9295 0.3689
vn -0.0571 0.9280 0.3683
vn -0.1632 0.9364 0.3107
vn -0.3536 0.9352 -0.0199
vn -0.3535 0.9347 -0.0378
vn -0.2901 0.9445 -0.1543
vn 0.1301 0.9132 -0.3862
vn 0.0838 0.9178 -0.3882
vn 0.3276 0.9125 -0.2449
vn 0.3603 0.9135 -0.1891
vn 0.6103 0.7870 0.0908
vn 0.4439 0.8077 0.3880
vn 0.1448 0.8241 0.5476
vn -0.0496 0.8626 0.5034
vn -0.3587 0.8648 0.3513
vn -0.4857 0.8634 0.1365
vn -0.4904 0.8448 -0.2141
vn -0.4750 0.8236 -0.3099
vn 0.0333 0.8269 -0.5614
vn 0.2017 0.8021 -0.5621
vn 0.3207 0.8277 -0.4605
vn 0.5627 0.8249 -0.0548
vn 0.6644 0.7467 -0.0336
vn 0.4043 0.8380 0.3664
vn 0.0481 0.7539 0.6553
vn -0.2814 0.5499 0.7864
vn -0.5642 0.5018 0.6556
vn -0.7930 0.5672 0.2225
vn -0.6636 0.7395 -0.1129
vn -0.4607 0.8406 -0.2849
vn 0.0440 0.7971 -0.6023
vn 0.3031 0.7266 -0.6166
vn 0.3660 0.6965 -0.6173
vn 0.7242 0.6895 0.0107
vn 0.6035 0.7937 0.0764
vn 0.5638 0.5428 0.6225
vn 0.0770 0.5037 0.8605
vn -0.0361 0.7942 0.6066
vn -0.4457 0.8347 0.3236
vn -0.6580 0.7194 0.2226
vn -0.6983 0.7157 0.0092
vn -0.5185 0.5633 -0.6434
vn -0.1329 0.4593 -0.8783
vn 0.2767 0.7029 -0.6552
vn 0.2615 0.7876 -0.5579
vn 0.5180 0.8553 0.0117
s 0
f 3//1 2//1 1//1
f 4//1 3//1 1//1
f 5//1 4//1 1//1
f 6//1 5//1 1//1
f 7//1 6//1 1//1
f 8//1 7//1 1//1
f 9//1 8//1 1//1
f 10//1 9//1 1//1
f 11//1 10//1 1//1
f 12//1 11//1 1//1
f 13//1 12//1 1//1
f 2//1 13//1 1//1
f 3//2 15//2 14//2 2//2
f 4//3 16//3 15//3 3//3
f 5//4 17//4 16//4 4//4
f 6//5 18//5 17//5 5//5
f 7//6 19//6 18//6 6//6
f 8//7 20//7 19//7 7//7
f 9//8 21//8 20//8 8//8
f 10//9 22//9 21//9 9//9
f 11//10 23//10 22//10 10//10
f 12//11 24//11 23//11 11//11
f 13//12 25//12 24//12 12//12
f 2//13 14//13 25//13 13//13
f 15//14 27//14 26//14 14//14
f 16//15 28//15 27//15 15//15
f 17//16 29//16 28//16 16//16
f 18//17 30//17 29//17 17//17
f 19//18 31//18 30//18 18//18
f 20//19 32//19 31//19 19//19
f 21//20 33//20 32//20 20//20
f 22//21 34//21 33//21 21//21
f 23//22 35//22 34//22 22//22
f 24//23 36//23 35//23 23//23
f 25//24 37//24 36//24 24//24
f 14//25 26//25 37//25 25//25
f 27//26 39//26 38//26 26//26
f 28//27 40//27 39//27 27//27
f 29//28 41//28 40//28 28//28
f 30//29 42//29 41//29 29//29
f 31//30 43//30 42//30 30//30
f 32//31 44//31 43//31 31//31
f 33//32 45//32 44//32 32//32
f 34//33 46//33 45//33 33//33
f 35//34 47//34 46//34 34//34
f 36//35 48//35 47//35 35//35
f 37//36 49//36 48//36 36//36
f 26//37 38//37 49//37 37//37
f 39//38 51//38 50//38 38//38
f 40//39 52//39 51//39 39//39
f 41//40 53//40 52//40 40//40
f 42//41 54//41 53//41 41//41
f 43//42 55//42 54//42 42//42
f 44//43 56//43 55//43 43//43
f 45//44 57//44 56//44 44//44
f 46//45 58//45 57//45 45//45
f 47//46 59//46 58//46 46//46
f 48//47 60//47 59//47 47//47
f 49//48 61//48 60//48 48//48
f 38//49 50//49 61//49 49//49
