# Blender 4.4.1
# www.blender.org
o Mountain_004
v 0.188501 0.000000 -1.688778
v 0.188501 16.463778 -1.688778
v 0.188501 16.463778 -1.688778
v 0.188501 16.463778 -1.688778
v 0.188501 16.463778 -1.688778
v 0.188501 16.463778 -1.688778
v 0.188501 16.463778 -1.688778
v 0.188501 16.463778 -1.688778
v 0.188501 16.463778 -1.688778
v 0.188501 16.463778 -1.688778
v 0.188501 16.463778 -1.688778
v 0.188501 16.463778 -1.688778
v 0.188501 16.463778 -1.688778
v 4.474618 14.173637 -1.688778
v 3.950362 14.625513 0.483133
v 2.247196 14.494091 1.876985
v 0.188501 14.088493 2.675683
v -2.008928 14.788359 2.117282
v -3.355246 14.015349 0.357206
v -3.990287 14.551796 -1.688778
v -3.668778 14.320733 -3.915779
v -1.986721 14.056771 -5.456374
v 0.188501 14.510550 -6.028831
v 2.233166 14.630109 -5.230240
v 4.005992 14.488463 -3.892807
v 8.060697 11.439545 -1.688778
v 7.982063 10.391394 2.810837
v 4.386369 10.429864 5.582141
v 0.188501 10.381560 6.839123
v -4.368131 11.173632 6.203541
v -6.606128 11.401584 2.234103
v -8.560221 11.184130 -1.688778
v -7.493929 10.536741 -6.124231
v -4.269513 11.409299 -9.410285
v 0.188501 11.150366 -9.814848
v 4.479889 10.615785 -9.121679
v 7.470038 11.023310 -5.892775
v 12.077384 6.638820 -1.688778
v 12.351228 4.749477 5.333375
v 7.308205 5.137694 10.642910
v 0.188501 6.042712 10.952569
v -5.967892 4.606334 8.974408
v -12.041350 4.984523 5.372130
v -11.484677 6.505757 -1.688778
v -10.346386 6.709466 -7.771098
v -6.585375 5.217721 -13.421476
v 0.188501 6.876761 -12.587813
v 5.782641 6.313730 -11.378112
v 11.215463 6.407795 -8.055197
v 18.522842 0.480423 -1.688778
v 14.887505 0.964556 6.797696
v 7.319740 -0.916715 10.662890
v 0.188501 -0.638116 16.653589
v -8.607113 -0.088047 13.545672
v -14.747147 -0.245298 6.934322
v -18.522842 -0.557163 -1.688778
v -15.761769 -0.754316 -10.897671
v -7.482253 -1.249087 -14.974914
v 0.188501 -1.252713 -16.629478
v 8.828440 0.863326 -16.653589
v 13.083655 -0.933876 -9.133799
vn -0.0000 1.0000 -0.0000
vn 0.4701 0.8799 -0.0696
vn 0.2296 0.9020 0.3657
vn 0.0124 0.8783 0.4780
vn 0.1563 0.8675 0.4721
vn -0.5473 0.8353 0.0517
vn -0.3905 0.8535 0.3450
vn -0.4112 0.8987 -0.1526
vn -0.2451 0.8750 -0.4175
vn -0.2858 0.8739 -0.3933
vn 0.1064 0.9067 -0.4081
vn 0.2973 0.9071 -0.2980
vn 0.4711 0.8817 0.0258
vn 0.6484 0.7508 0.1257
vn 0.4229 0.7172 0.5540
vn 0.1674 0.7238 0.6694
vn 0.0451 0.7407 0.6703
vn -0.5649 0.7764 0.2795
vn -0.5409 0.7942 0.2771
vn -0.5966 0.7701 -0.2258
vn -0.4670 0.8015 -0.3736
vn -0.1103 0.8006 -0.5889
vn 0.2006 0.7352 -0.6475
vn 0.4446 0.7386 -0.5067
vn 0.6368 0.7621 -0.1173
vn 0.7527 0.6409 0.1506
vn 0.5103 0.6932 0.5089
vn 0.1493 0.7054 0.6929
vn -0.2297 0.5434 0.8075
vn -0.5292 0.5720 0.6267
vn -0.7631 0.6233 0.1711
vn -0.7945 0.5765 -0.1908
vn -0.6068 0.6045 -0.5162
vn -0.0366 0.5493 -0.8348
vn 0.2168 0.5182 -0.8274
vn 0.4729 0.5914 -0.6532
vn 0.7475 0.6489 -0.1424
vn 0.7089 0.6719 0.2145
vn 0.5474 0.2617 0.7949
vn 0.4006 0.3758 0.8356
vn -0.2722 0.6789 0.6819
vn -0.4894 0.6338 0.5990
vn -0.7546 0.6240 0.2030
vn -0.7261 0.6623 -0.1849
vn -0.5057 0.4718 -0.7223
vn -0.0941 0.3614 -0.9277
vn 0.0068 0.5668 -0.8239
vn 0.6762 0.5193 -0.5226
vn 0.7626 0.5022 -0.4077
s 0
f 3//1 2//1 1//1
f 4//1 3//1 1//1
f 5//1 4//1 1//1
f 6//1 5//1 1//1
f 7//1 6//1 1//1
f 8//1 7//1 1//1
f 9//1 8//1 1//1
f 10//1 9//1 1//1
f 11//1 10//1 1//1
f 12//1 11//1 1//1
f 13//1 12//1 1//1
f 2//1 13//1 1//1
f 3//2 15//2 14//2 2//2
f 4//3 16//3 15//3 3//3
f 5//4 17//4 16//4 4//4
f 6//5 18//5 17//5 5//5
f 7//6 19//6 18//6 6//6
f 8//7 20//7 19//7 7//7
f 9//8 21//8 20//8 8//8
f 10//9 22//9 21//9 9//9
f 11//10 23//10 22//10 10//10
f 12//11 24//11 23//11 11//11
f 13//12 25//12 24//12 12//12
f 2//13 14//13 25//13 13//13
f 15//14 27//14 26//14 14//14
f 16//15 28//15 27//15 15//15
f 17//16 29//16 28//16 16//16
f 18//17 30//17 29//17 17//17
f 19//18 31//18 30//18 18//18
f 20//19 32//19 31//19 19//19
f 21//20 33//20 32//20 20//20
f 22//21 34//21 33//21 21//21
f 23//22 35//22 34//22 22//22
f 24//23 36//23 35//23 23//23
f 25//24 37//24 36//24 24//24
f 14//25 26//25 37//25 25//25
f 27//26 39//26 38//26 26//26
f 28//27 40//27 39//27 27//27
f 29//28 41//28 40//28 28//28
f 30//29 42//29 41//29 29//29
f 31//30 43//30 42//30 30//30
f 32//31 44//31 43//31 31//31
f 33//32 45//32 44//32 32//32
f 34//33 46//33 45//33 33//33
f 35//34 47//34 46//34 34//34
f 36//35 48//35 47//35 35//35
f 37//36 49//36 48//36 36//36
f 26//37 38//37 49//37 37//37
f 39//38 51//38 50//38 38//38
f 40//39 52//39 51//39 39//39
f 41//40 53//40 52//40 40//40
f 42//41 54//41 53//41 41//41
f 43//42 55//42 54//42 42//42
f 44//43 56//43 55//43 43//43
f 45//44 57//44 56//44 44//44
f 46//45 58//45 57//45 45//45
f 47//46 59//46 58//46 46//46
f 48//47 60//47 59//47 47//47
f 49//48 61//48 60//48 48//48
f 38//49 50//49 61//49 49//49
