# Blender 4.4.1
# www.blender.org
o Mountain_020
v -0.377231 0.000000 1.766892
v -0.377231 14.582050 1.766892
v -0.377231 14.582050 1.766892
v -0.377231 14.582050 1.766892
v -0.377231 14.582050 1.766892
v -0.377231 14.582050 1.766892
v -0.377231 14.582050 1.766892
v -0.377231 14.582050 1.766892
v -0.377231 14.582050 1.766892
v -0.377231 14.582050 1.766892
v -0.377231 14.582050 1.766892
v -0.377231 14.582050 1.766892
v -0.377231 14.582050 1.766892
v 6.661409 13.020059 1.766892
v 5.919217 12.395235 5.402148
v 3.446985 12.542253 8.390628
v -0.377231 12.490921 9.218270
v -4.088808 12.510653 8.195530
v -6.984940 12.594531 5.581854
v -7.803741 12.577302 1.766892
v -6.629698 13.053705 -1.842971
v -3.911649 12.683716 -4.354900
v -0.377231 12.904707 -5.404321
v 3.182279 12.872659 -4.398361
v 6.085419 12.395535 -1.964321
v 14.181825 8.890918 1.766892
v 11.596357 9.688969 8.679847
v 6.218460 9.711738 13.190965
v -0.377231 10.138347 17.321463
v -7.577054 8.890153 14.237350
v -11.957216 9.256009 8.452600
v -15.679208 8.846774 1.766892
v -12.571638 9.982077 -5.273552
v -7.159917 9.825278 -9.981064
v -0.377231 8.891569 -13.600597
v 7.657240 8.905724 -12.149221
v 12.367332 8.709772 -5.591185
v 22.550575 4.979710 1.766892
v 19.891600 5.390881 13.469107
v 9.445601 4.917613 18.780537
v -0.377231 5.898079 24.935249
v -9.987179 4.236825 18.411808
v -20.817148 5.306656 13.567883
v -21.554276 6.123998 1.766892
v -18.320759 4.322928 -8.592809
v -10.613400 4.201355 -15.962671
v -0.377231 5.329479 -20.524929
v 10.947042 5.720923 -17.847326
v 19.709442 5.871678 -9.830154
v 30.730164 -0.578472 1.766892
v 25.137178 0.027772 16.497643
v 15.699748 -0.596283 29.613037
v -0.377231 1.160476 25.808483
v -17.664312 -0.014910 31.708994
v -21.787390 -0.001217 14.128053
v -30.730164 0.082495 1.766892
v -30.552670 1.419949 -15.654905
v -17.542925 -1.073289 -27.964962
v -0.377231 0.199425 -31.708994
v 13.462234 0.533534 -22.203766
v 27.619728 1.325371 -14.397161
vn -0.0000 1.0000 -0.0000
vn 0.2119 0.9550 0.2074
vn 0.2435 0.9576 0.1543
vn 0.0455 0.9618 0.2699
vn -0.0692 0.9605 0.2696
vn -0.1657 0.9626 0.2145
vn -0.2603 0.9642 0.0515
vn -0.2604 0.9646 0.0426
vn -0.0947 0.9650 -0.2446
vn -0.1275 0.9658 -0.2259
vn 0.0729 0.9711 -0.2271
vn 0.2565 0.9593 -0.1179
vn 0.2126 0.9579 -0.1931
vn 0.4325 0.8934 0.1218
vn 0.3058 0.9037 0.2996
vn 0.1905 0.9244 0.3304
vn -0.2276 0.9159 0.3306
vn -0.3485 0.8701 0.3485
vn -0.4486 0.8796 0.1583
vn -0.4337 0.9002 -0.0381
vn -0.2463 0.9063 -0.3435
vn -0.1268 0.8998 -0.4175
vn 0.0915 0.9006 -0.4250
vn 0.3728 0.8939 -0.2488
vn 0.4538 0.8764 -0.1615
vn 0.4268 0.9023 0.0616
vn 0.2595 0.8507 0.4571
vn 0.3606 0.8085 0.4651
vn -0.4141 0.7653 0.4927
vn -0.2522 0.8432 0.4748
vn -0.3776 0.9193 0.1114
vn -0.5273 0.8198 -0.2235
vn -0.4339 0.7568 -0.4888
vn -0.2565 0.8186 -0.5140
vn 0.0782 0.8876 -0.4540
vn 0.2823 0.9240 -0.2580
vn 0.3806 0.9229 -0.0589
vn 0.6015 0.7831 0.1576
vn 0.3252 0.8560 0.4019
vn 0.1378 0.7804 0.6099
vn -0.1025 0.8642 0.4926
vn -0.4214 0.8478 0.3219
vn -0.7024 0.6430 0.3054
vn -0.3677 0.9280 -0.0606
vn -0.1371 0.9528 -0.2709
vn -0.1878 0.9159 -0.3549
vn 0.2247 0.8282 -0.5135
vn 0.3163 0.8025 -0.5059
vn 0.5261 0.8500 -0.0272
s 0
f 3//1 2//1 1//1
f 4//1 3//1 1//1
f 5//1 4//1 1//1
f 6//1 5//1 1//1
f 7//1 6//1 1//1
f 8//1 7//1 1//1
f 9//1 8//1 1//1
f 10//1 9//1 1//1
f 11//1 10//1 1//1
f 12//1 11//1 1//1
f 13//1 12//1 1//1
f 2//1 13//1 1//1
f 3//2 15//2 14//2 2//2
f 4//3 16//3 15//3 3//3
f 5//4 17//4 16//4 4//4
f 6//5 18//5 17//5 5//5
f 7//6 19//6 18//6 6//6
f 8//7 20//7 19//7 7//7
f 9//8 21//8 20//8 8//8
f 10//9 22//9 21//9 9//9
f 11//10 23//10 22//10 10//10
f 12//11 24//11 23//11 11//11
f 13//12 25//12 24//12 12//12
f 2//13 14//13 25//13 13//13
f 15//14 27//14 26//14 14//14
f 16//15 28//15 27//15 15//15
f 17//16 29//16 28//16 16//16
f 18//17 30//17 29//17 17//17
f 19//18 31//18 30//18 18//18
f 20//19 32//19 31//19 19//19
f 21//20 33//20 32//20 20//20
f 22//21 34//21 33//21 21//21
f 23//22 35//22 34//22 22//22
f 24//23 36//23 35//23 23//23
f 25//24 37//24 36//24 24//24
f 14//25 26//25 37//25 25//25
f 27//26 39//26 38//26 26//26
f 28//27 40//27 39//27 27//27
f 29//28 41//28 40//28 28//28
f 30//29 42//29 41//29 29//29
f 31//30 43//30 42//30 30//30
f 32//31 44//31 43//31 31//31
f 33//32 45//32 44//32 32//32
f 34//33 46//33 45//33 33//33
f 35//34 47//34 46//34 34//34
f 36//35 48//35 47//35 35//35
f 37//36 49//36 48//36 36//36
f 26//37 38//37 49//37 37//37
f 39//38 51//38 50//38 38//38
f 40//39 52//39 51//39 39//39
f 41//40 53//40 52//40 40//40
f 42//41 54//41 53//41 41//41
f 43//42 55//42 54//42 42//42
f 44//43 56//43 55//43 43//43
f 45//44 57//44 56//44 44//44
f 46//45 58//45 57//45 45//45
f 47//46 59//46 58//46 46//46
f 48//47 60//47 59//47 47//47
f 49//48 61//48 60//48 48//48
f 38//49 50//49 61//49 49//49
