# Blender 4.4.1
# www.blender.org
o Mountain_006
v -2.039966 0.000000 -0.793316
v -2.039966 12.849815 -0.793316
v -2.039966 12.849815 -0.793316
v -2.039966 12.849815 -0.793316
v -2.039966 12.849815 -0.793316
v -2.039966 12.849815 -0.793316
v -2.039966 12.849815 -0.793316
v -2.039966 12.849815 -0.793316
v -2.039966 12.849815 -0.793316
v -2.039966 12.849815 -0.793316
v -2.039966 12.849815 -0.793316
v -2.039966 12.849815 -0.793316
v -2.039966 12.849815 -0.793316
v 4.593833 11.168794 -0.793316
v 3.916900 11.248883 2.645882
v 1.385194 11.477472 5.139234
v -2.039966 11.429914 5.658973
v -5.311879 11.522589 4.873804
v -7.760125 11.449538 2.509220
v -8.496605 11.114162 -0.793316
v -7.805394 11.564129 -4.121987
v -5.336529 11.017815 -6.503132
v -2.039966 11.144082 -7.418744
v 1.277149 11.271492 -6.538728
v 3.650247 11.129082 -4.078562
v 10.338010 8.560501 -0.793316
v 9.555658 7.964352 5.901421
v 4.923716 7.720315 11.268134
v -2.039966 8.570434 13.052631
v -9.050987 8.160333 11.350130
v -13.845680 8.718874 6.022717
v -16.509247 8.300717 -0.793316
v -12.412930 8.309664 -6.782150
v -8.758967 8.781777 -12.430969
v -2.039966 8.230014 -14.981102
v 4.594254 8.251373 -12.284122
v 9.900081 8.191044 -7.686905
v 18.679323 3.837406 -0.793316
v 14.950300 5.407992 9.016018
v 7.380510 4.875048 15.523427
v -2.039966 5.181633 19.896603
v -12.986361 5.196238 18.166395
v -18.569925 4.150235 8.750260
v -23.139034 5.003605 -0.793316
v -21.102776 3.609074 -11.799234
v -10.658129 4.756425 -15.720412
v -2.039966 5.462390 -23.093515
v 8.592874 4.376347 -19.209934
v 13.041571 4.761411 -9.500646
v 28.294308 -0.144744 -0.793316
v 22.597157 1.036785 13.430934
v 8.762809 0.761078 17.917637
v -2.039966 -0.321654 23.424517
v -13.368513 0.080096 18.828304
v -25.505836 0.751764 12.754711
v -24.954870 -1.082036 -0.793316
v -28.294308 0.307651 -15.951267
v -13.871484 1.060955 -21.286106
v -2.039966 -0.099843 -23.424517
v 9.860970 -0.628801 -21.406342
v 16.336334 0.782896 -11.402878
vn -0.0000 1.0000 -0.0000
vn 0.2456 0.9690 0.0258
vn 0.1975 0.9740 0.1113
vn 0.0190 0.9765 0.2149
vn -0.0239 0.9764 0.2149
vn -0.1607 0.9776 0.1362
vn -0.2594 0.9649 -0.0401
vn -0.2588 0.9629 0.0764
vn -0.0543 0.9595 -0.2765
vn -0.1057 0.9630 -0.2479
vn 0.0289 0.9680 -0.2492
vn 0.2086 0.9672 -0.1452
vn 0.2448 0.9661 -0.0820
vn 0.4326 0.8951 0.1079
vn 0.3489 0.8809 0.3198
vn 0.1585 0.9026 0.4002
vn -0.1201 0.9175 0.3792
vn -0.2604 0.9167 0.3030
vn -0.3548 0.9336 0.0497
vn -0.3999 0.9023 -0.1610
vn -0.3356 0.9042 -0.2643
vn -0.0773 0.9378 -0.3384
vn 0.1224 0.9174 -0.3786
vn 0.2881 0.9135 -0.2872
vn 0.3955 0.9140 -0.0904
vn 0.4543 0.8880 0.0718
vn 0.2845 0.8922 0.3508
vn 0.2262 0.8698 0.4385
vn -0.0960 0.9128 0.3969
vn -0.4365 0.8553 0.2790
vn -0.5108 0.8232 0.2477
vn -0.3955 0.8928 -0.2155
vn -0.3709 0.8357 -0.4050
vn -0.3001 0.8406 -0.4508
vn 0.1912 0.9156 -0.3536
vn 0.4508 0.8309 -0.3262
vn 0.5493 0.8149 -0.1850
vn 0.4219 0.9045 0.0619
vn 0.2730 0.7619 0.5874
vn 0.3568 0.5265 0.7717
vn -0.2483 0.3632 0.8980
vn -0.4778 0.7009 0.5296
vn -0.7115 0.6963 0.0942
vn -0.7290 0.6835 0.0362
vn -0.2186 0.8877 -0.4051
vn -0.3310 0.5860 -0.7396
vn 0.2620 0.2541 -0.9310
vn 0.7032 0.5581 -0.4405
vn 0.4574 0.8226 -0.3378
s 0
f 3//1 2//1 1//1
f 4//1 3//1 1//1
f 5//1 4//1 1//1
f 6//1 5//1 1//1
f 7//1 6//1 1//1
f 8//1 7//1 1//1
f 9//1 8//1 1//1
f 10//1 9//1 1//1
f 11//1 10//1 1//1
f 12//1 11//1 1//1
f 13//1 12//1 1//1
f 2//1 13//1 1//1
f 3//2 15//2 14//2 2//2
f 4//3 16//3 15//3 3//3
f 5//4 17//4 16//4 4//4
f 6//5 18//5 17//5 5//5
f 7//6 19//6 18//6 6//6
f 8//7 20//7 19//7 7//7
f 9//8 21//8 20//8 8//8
f 10//9 22//9 21//9 9//9
f 11//10 23//10 22//10 10//10
f 12//11 24//11 23//11 11//11
f 13//12 25//12 24//12 12//12
f 2//13 14//13 25//13 13//13
f 15//14 27//14 26//14 14//14
f 16//15 28//15 27//15 15//15
f 17//16 29//16 28//16 16//16
f 18//17 30//17 29//17 17//17
f 19//18 31//18 30//18 18//18
f 20//19 32//19 31//19 19//19
f 21//20 33//20 32//20 20//20
f 22//21 34//21 33//21 21//21
f 23//22 35//22 34//22 22//22
f 24//23 36//23 35//23 23//23
f 25//24 37//24 36//24 24//24
f 14//25 26//25 37//25 25//25
f 27//26 39//26 38//26 26//26
f 28//27 40//27 39//27 27//27
f 29//28 41//28 40//28 28//28
f 30//29 42//29 41//29 29//29
f 31//30 43//30 42//30 30//30
f 32//31 44//31 43//31 31//31
f 33//32 45//32 44//32 32//32
f 34//33 46//33 45//33 33//33
f 35//34 47//34 46//34 34//34
f 36//35 48//35 47//35 35//35
f 37//36 49//36 48//36 36//36
f 26//37 38//37 49//37 37//37
f 39//38 51//38 50//38 38//38
f 40//39 52//39 51//39 39//39
f 41//40 53//40 52//40 40//40
f 42//41 54//41 53//41 41//41
f 43//42 55//42 54//42 42//42
f 44//43 56//43 55//43 43//43
f 45//44 57//44 56//44 44//44
f 46//45 58//45 57//45 45//45
f 47//46 59//46 58//46 46//46
f 48//47 60//47 59//47 47//47
f 49//48 61//48 60//48 48//48
f 38//49 50//49 61//49 49//49
