# Blender 4.4.1
# www.blender.org
o Mountain_062
v 1.996604 0.000000 -1.000988
v 1.996604 18.628881 -1.000988
v 1.996604 18.628881 -1.000988
v 1.996604 18.628881 -1.000988
v 1.996604 18.628881 -1.000988
v 1.996604 18.628881 -1.000988
v 1.996604 18.628881 -1.000988
v 1.996604 18.628881 -1.000988
v 1.996604 18.628881 -1.000988
v 1.996604 18.628881 -1.000988
v 1.996604 18.628881 -1.000988
v 1.996604 18.628881 -1.000988
v 1.996604 18.628881 -1.000988
v 6.779239 16.143108 -1.000988
v 5.896431 16.336887 1.250578
v 4.401718 16.453964 3.164792
v 1.996604 16.474777 3.504959
v -0.365262 16.400927 3.089884
v -1.958960 16.134136 1.282758
v -2.599026 15.840178 -1.000988
v -2.154459 15.899736 -3.397605
v -0.243457 16.425426 -4.880887
v 1.996604 16.024769 -5.457566
v 4.213390 16.386551 -4.840574
v 6.132197 16.702480 -3.388674
v 10.753610 11.256745 -1.000988
v 10.362867 11.691354 3.829277
v 6.823803 11.567401 7.359967
v 1.996604 11.574935 7.645315
v -2.427237 11.946212 6.661329
v -6.226535 11.617579 3.746644
v -7.768018 11.260194 -1.000988
v -6.766063 11.853018 -6.060116
v -2.318533 11.933368 -8.475024
v 1.996604 12.480222 -10.255318
v 6.859534 12.637963 -9.423830
v 10.472661 11.148039 -5.894641
v 15.370119 7.518380 -1.000988
v 14.938210 7.706970 6.470851
v 9.127995 5.558872 11.350945
v 1.996604 5.850861 13.808696
v -4.861198 6.399420 10.877073
v -9.562603 6.825338 5.672723
v -10.089462 5.513765 -1.000988
v -9.901659 5.564253 -7.870453
v -4.291219 5.167765 -11.891817
v 1.996604 7.158758 -14.870715
v 8.912235 7.718590 -12.979214
v 15.591836 7.843781 -8.850199
v 19.547518 -0.038930 -1.000988
v 18.912014 0.329020 8.765129
v 10.903861 -1.718228 14.426834
v 1.996604 -0.429113 20.606125
v -7.490549 -1.139237 15.431243
v -13.607417 -0.911852 8.007998
v -19.547518 0.828036 -1.000988
v -14.076957 -0.042392 -10.281062
v -7.944940 0.731949 -18.220247
v 1.996604 1.589113 -20.606125
v 12.112592 -0.959936 -18.522392
v 15.027234 1.166639 -8.524226
vn -0.0000 1.0000 -0.0000
vn 0.4587 0.8825 0.1039
vn 0.3826 0.8910 0.2443
vn 0.0686 0.9001 0.4303
vn -0.1035 0.8974 0.4290
vn -0.4163 0.8776 0.2376
vn -0.5185 0.8544 0.0353
vn -0.5173 0.8525 -0.0748
vn -0.4296 0.8690 -0.2455
vn 0.0245 0.8631 -0.5044
vn -0.0005 0.8634 -0.5045
vn 0.1719 0.8907 -0.4209
vn 0.4596 0.8843 0.0826
vn 0.7368 0.6722 0.0729
vn 0.5154 0.7117 0.4774
vn 0.0675 0.6566 0.7512
vn -0.1266 0.6474 0.7515
vn -0.5138 0.6980 0.4988
vn -0.6681 0.7309 0.1396
vn -0.6510 0.7567 -0.0601
vn -0.4086 0.7256 -0.5536
vn -0.2457 0.7297 -0.6381
vn 0.0645 0.7966 -0.6011
vn 0.5376 0.7280 -0.4255
vn 0.7738 0.6306 -0.0596
vn 0.6426 0.7662 0.0042
vn 0.3916 0.6806 0.6192
vn 0.1830 0.6637 0.7253
vn -0.1876 0.6870 0.7020
vn -0.5316 0.6318 0.5641
vn -0.8710 0.4835 0.0871
vn -0.9048 0.4204 -0.0676
vn -0.4622 0.4795 -0.7459
vn -0.4485 0.5443 -0.7089
vn 0.1372 0.6344 -0.7607
vn 0.4488 0.7616 -0.4675
vn 0.5883 0.8086 0.0110
vn 0.8746 0.4833 0.0386
vn 0.4475 0.4572 0.7686
vn 0.4332 0.5670 0.7006
vn -0.3488 0.6336 0.6906
vn -0.6298 0.5309 0.5670
vn -0.6241 0.7305 0.2773
vn -0.5586 0.7952 -0.2361
vn -0.4769 0.7584 -0.4443
vn -0.3168 0.7750 -0.5468
vn 0.2452 0.6350 -0.7326
vn 0.7583 0.3226 -0.5664
vn 0.9422 0.2336 -0.2402
s 0
f 3//1 2//1 1//1
f 4//1 3//1 1//1
f 5//1 4//1 1//1
f 6//1 5//1 1//1
f 7//1 6//1 1//1
f 8//1 7//1 1//1
f 9//1 8//1 1//1
f 10//1 9//1 1//1
f 11//1 10//1 1//1
f 12//1 11//1 1//1
f 13//1 12//1 1//1
f 2//1 13//1 1//1
f 3//2 15//2 14//2 2//2
f 4//3 16//3 15//3 3//3
f 5//4 17//4 16//4 4//4
f 6//5 18//5 17//5 5//5
f 7//6 19//6 18//6 6//6
f 8//7 20//7 19//7 7//7
f 9//8 21//8 20//8 8//8
f 10//9 22//9 21//9 9//9
f 11//10 23//10 22//10 10//10
f 12//11 24//11 23//11 11//11
f 13//12 25//12 24//12 12//12
f 2//13 14//13 25//13 13//13
f 15//14 27//14 26//14 14//14
f 16//15 28//15 27//15 15//15
f 17//16 29//16 28//16 16//16
f 18//17 30//17 29//17 17//17
f 19//18 31//18 30//18 18//18
f 20//19 32//19 31//19 19//19
f 21//20 33//20 32//20 20//20
f 22//21 34//21 33//21 21//21
f 23//22 35//22 34//22 22//22
f 24//23 36//23 35//23 23//23
f 25//24 37//24 36//24 24//24
f 14//25 26//25 37//25 25//25
f 27//26 39//26 38//26 26//26
f 28//27 40//27 39//27 27//27
f 29//28 41//28 40//28 28//28
f 30//29 42//29 41//29 29//29
f 31//30 43//30 42//30 30//30
f 32//31 44//31 43//31 31//31
f 33//32 45//32 44//32 32//32
f 34//33 46//33 45//33 33//33
f 35//34 47//34 46//34 34//34
f 36//35 48//35 47//35 35//35
f 37//36 49//36 48//36 36//36
f 26//37 38//37 49//37 37//37
f 39//38 51//38 50//38 38//38
f 40//39 52//39 51//39 39//39
f 41//40 53//40 52//40 40//40
f 42//41 54//41 53//41 41//41
f 43//42 55//42 54//42 42//42
f 44//43 56//43 55//43 43//43
f 45//44 57//44 56//44 44//44
f 46//45 58//45 57//45 45//45
f 47//46 59//46 58//46 46//46
f 48//47 60//47 59//47 47//47
f 49//48 61//48 60//48 48//48
f 38//49 50//49 61//49 49//49
