# Blender 4.4.1
# www.blender.org
o Mountain_025
v -0.386535 0.000000 -0.475939
v -0.386535 19.037767 -0.475939
v -0.386535 19.037767 -0.475939
v -0.386535 19.037767 -0.475939
v -0.386535 19.037767 -0.475939
v -0.386535 19.037767 -0.475939
v -0.386535 19.037767 -0.475939
v -0.386535 19.037767 -0.475939
v -0.386535 19.037767 -0.475939
v -0.386535 19.037767 -0.475939
v -0.386535 19.037767 -0.475939
v -0.386535 19.037767 -0.475939
v -0.386535 19.037767 -0.475939
v 4.929086 16.786942 -0.475939
v 4.041510 16.211195 2.080594
v 2.236035 16.747566 4.066486
v -0.386535 17.010702 4.665663
v -3.066063 16.515034 4.165140
v -4.832819 17.033558 2.091124
v -5.831703 16.837811 -0.475939
v -4.888748 16.550070 -3.075292
v -2.953437 16.726828 -4.921943
v -0.386535 16.997976 -6.035842
v 2.309065 16.827192 -5.144854
v 4.108323 16.571907 -3.071046
v 9.219296 12.840536 -0.475939
v 9.308125 11.371951 5.121276
v 5.363631 12.587462 9.483641
v -0.386535 11.371125 10.364799
v -5.436328 12.887715 8.270559
v -9.230703 13.196011 4.630245
v -11.315677 12.161845 -0.475939
v -9.361404 12.018876 -5.657582
v -5.435912 12.243501 -9.221715
v -0.386535 12.924315 -11.478304
v 4.817079 11.549791 -9.488863
v 8.836864 12.615989 -5.801071
v 17.193607 6.313217 -0.475939
v 14.026921 6.983785 7.845674
v 7.101007 5.553253 12.492865
v -0.386535 8.066970 13.377194
v -8.692016 7.704674 13.909576
v -13.200759 7.275188 6.922357
v -18.201406 6.097790 -0.475939
v -12.740208 7.430480 -7.608335
v -9.311455 7.544580 -15.934354
v -0.386535 6.958036 -17.860416
v 7.966608 7.188553 -14.944007
v 14.333111 7.116147 -8.974330
v 25.093861 -0.915997 -0.475939
v 17.418383 -0.425399 9.803735
v 8.264218 0.792234 14.507606
v -0.386535 -1.180665 21.388060
v -11.975240 -1.057117 19.596287
v -19.045929 1.084761 10.297067
v -25.093861 0.654398 -0.475939
v -18.844803 1.315202 -11.132825
v -12.460154 1.433524 -21.388060
v -0.386535 -1.532148 -19.016981
v 8.657905 -0.918946 -16.141367
v 20.287838 1.001075 -12.412293
vn -0.0000 1.0000 -0.0000
vn 0.3689 0.8711 0.3242
vn 0.4546 0.8728 0.1776
vn 0.1744 0.9160 0.3612
vn -0.2339 0.9045 0.3566
vn -0.1857 0.9043 0.3843
vn -0.3736 0.9246 0.0749
vn -0.3644 0.9019 -0.2320
vn -0.3409 0.9002 -0.2711
vn -0.2413 0.9111 -0.3343
vn 0.1708 0.9250 -0.3394
vn 0.3729 0.9032 -0.2124
vn 0.3824 0.9030 -0.1958
vn 0.6116 0.7512 0.2483
vn 0.5528 0.7832 0.2846
vn 0.0302 0.7540 0.6562
vn -0.1261 0.7360 0.6651
vn -0.3850 0.7834 0.4880
vn -0.6279 0.7674 0.1294
vn -0.6150 0.7408 -0.2700
vn -0.4861 0.7354 -0.4720
vn -0.3449 0.7471 -0.5683
vn 0.3579 0.7192 -0.5955
vn 0.4217 0.7361 -0.5295
vn 0.6288 0.7653 -0.1380
vn 0.6187 0.7646 0.1807
vn 0.5045 0.5978 0.6230
vn 0.1627 0.5169 0.8404
vn -0.0194 0.7174 0.6964
vn -0.5748 0.6892 0.4412
vn -0.6873 0.6742 0.2702
vn -0.6504 0.6863 -0.3254
vn -0.5691 0.7529 -0.3306
vn -0.1814 0.7881 -0.5882
vn 0.2771 0.7593 -0.5887
vn 0.3883 0.7757 -0.4974
vn 0.6454 0.7544 -0.1198
vn 0.7088 0.5970 0.3758
vn 0.4508 0.4250 0.7849
vn 0.3744 0.5600 0.7391
vn -0.0573 0.6110 0.7896
vn -0.5849 0.6506 0.4843
vn -0.5993 0.7428 0.2987
vn -0.5865 0.7516 -0.3019
vn -0.6261 0.7102 -0.3218
vn 0.0863 0.3954 -0.9145
vn 0.3061 0.1462 -0.9407
vn 0.3891 0.4447 -0.8067
vn 0.6657 0.7305 -0.1525
s 0
f 3//1 2//1 1//1
f 4//1 3//1 1//1
f 5//1 4//1 1//1
f 6//1 5//1 1//1
f 7//1 6//1 1//1
f 8//1 7//1 1//1
f 9//1 8//1 1//1
f 10//1 9//1 1//1
f 11//1 10//1 1//1
f 12//1 11//1 1//1
f 13//1 12//1 1//1
f 2//1 13//1 1//1
f 3//2 15//2 14//2 2//2
f 4//3 16//3 15//3 3//3
f 5//4 17//4 16//4 4//4
f 6//5 18//5 17//5 5//5
f 7//6 19//6 18//6 6//6
f 8//7 20//7 19//7 7//7
f 9//8 21//8 20//8 8//8
f 10//9 22//9 21//9 9//9
f 11//10 23//10 22//10 10//10
f 12//11 24//11 23//11 11//11
f 13//12 25//12 24//12 12//12
f 2//13 14//13 25//13 13//13
f 15//14 27//14 26//14 14//14
f 16//15 28//15 27//15 15//15
f 17//16 29//16 28//16 16//16
f 18//17 30//17 29//17 17//17
f 19//18 31//18 30//18 18//18
f 20//19 32//19 31//19 19//19
f 21//20 33//20 32//20 20//20
f 22//21 34//21 33//21 21//21
f 23//22 35//22 34//22 22//22
f 24//23 36//23 35//23 23//23
f 25//24 37//24 36//24 24//24
f 14//25 26//25 37//25 25//25
f 27//26 39//26 38//26 26//26
f 28//27 40//27 39//27 27//27
f 29//28 41//28 40//28 28//28
f 30//29 42//29 41//29 29//29
f 31//30 43//30 42//30 30//30
f 32//31 44//31 43//31 31//31
f 33//32 45//32 44//32 32//32
f 34//33 46//33 45//33 33//33
f 35//34 47//34 46//34 34//34
f 36//35 48//35 47//35 35//35
f 37//36 49//36 48//36 36//36
f 26//37 38//37 49//37 37//37
f 39//38 51//38 50//38 38//38
f 40//39 52//39 51//39 39//39
f 41//40 53//40 52//40 40//40
f 42//41 54//41 53//41 41//41
f 43//42 55//42 54//42 42//42
f 44//43 56//43 55//43 43//43
f 45//44 57//44 56//44 44//44
f 46//45 58//45 57//45 45//45
f 47//46 59//46 58//46 46//46
f 48//47 60//47 59//47 47//47
f 49//48 61//48 60//48 48//48
f 38//49 50//49 61//49 49//49
