# Blender 4.4.1
# www.blender.org
o Mountain_036
v 0.959210 0.000000 -1.828229
v 0.959210 16.879677 -1.828229
v 0.959210 16.879677 -1.828229
v 0.959210 16.879677 -1.828229
v 0.959210 16.879677 -1.828229
v 0.959210 16.879677 -1.828229
v 0.959210 16.879677 -1.828229
v 0.959210 16.879677 -1.828229
v 0.959210 16.879677 -1.828229
v 0.959210 16.879677 -1.828229
v 0.959210 16.879677 -1.828229
v 0.959210 16.879677 -1.828229
v 0.959210 16.879677 -1.828229
v 5.604932 14.698134 -1.828229
v 4.729847 14.886714 0.348750
v 3.193403 14.734879 2.041507
v 0.959210 15.092814 2.779440
v -1.231660 14.499977 1.966470
v -2.927638 14.632581 0.415844
v -3.418617 15.190388 -1.828229
v -2.943911 14.645082 -4.081697
v -1.265280 15.184505 -5.681160
v 0.959210 14.661450 -6.281517
v 3.285469 14.711135 -5.857426
v 4.973367 14.861217 -4.145803
v 10.139235 10.428930 -1.828229
v 9.227408 11.631132 2.945418
v 5.269047 11.691063 5.636627
v 0.959210 10.738102 7.142118
v -3.778723 11.727025 6.378112
v -7.042140 10.941534 2.791353
v -9.000934 10.577325 -1.828229
v -6.578259 10.442364 -6.179989
v -3.896037 10.104457 -10.237764
v 0.959210 11.232050 -11.477476
v 5.288871 11.002392 -9.327421
v 8.898633 11.630754 -6.412056
v 13.148926 4.745576 -1.828229
v 12.225727 5.000472 4.676497
v 7.487245 6.124020 9.478659
v 0.959210 6.703630 10.680827
v -5.007532 5.662299 8.506472
v -12.293618 6.509155 5.823296
v -13.551188 6.657624 -1.828229
v -9.661649 6.740675 -7.960185
v -6.226667 6.109022 -14.274533
v 0.959210 6.157126 -17.089560
v 7.351215 6.500353 -12.899506
v 13.005193 4.848731 -8.782980
v 15.869643 0.914546 -1.828229
v 15.706060 1.070650 6.685869
v 9.722036 1.241774 13.349430
v 0.959210 -0.922583 18.984694
v -8.660336 0.345364 14.833313
v -11.674181 0.936547 5.465663
v -16.319607 -0.659039 -1.828229
v -11.861021 0.134800 -9.229993
v -6.835627 0.008108 -15.329284
v 0.959210 -1.517416 -17.934402
v 10.864500 -0.361621 -18.984694
v 16.319607 0.321160 -10.696557
vn -0.0000 1.0000 -0.0000
vn 0.4232 0.9013 0.0921
vn 0.2812 0.8989 0.3359
vn 0.2596 0.9004 0.3492
vn -0.3605 0.8697 0.3373
vn -0.2844 0.8775 0.3861
vn -0.3438 0.8909 0.2967
vn -0.3447 0.8932 -0.2888
vn -0.4264 0.8926 -0.1465
vn 0.0898 0.8915 -0.4441
vn 0.0620 0.8934 -0.4450
vn 0.2607 0.9049 -0.3365
vn 0.4245 0.9039 -0.0521
vn 0.6383 0.7697 0.0101
vn 0.3515 0.8167 0.4577
vn 0.1554 0.7434 0.6506
vn -0.0942 0.7859 0.6111
vn -0.4567 0.8237 0.3362
vn -0.5983 0.7660 0.2352
vn -0.6082 0.7170 -0.3406
vn -0.5809 0.6954 -0.4230
vn -0.2227 0.7635 -0.6061
vn 0.2460 0.7753 -0.5817
vn 0.3624 0.7580 -0.5424
vn 0.6586 0.7519 -0.0299
vn 0.8904 0.4467 0.0872
vn 0.5936 0.5304 0.6052
vn 0.1689 0.6249 0.7622
vn -0.2319 0.4973 0.8360
vn -0.4087 0.5933 0.6935
vn -0.6147 0.7749 0.1475
vn -0.6112 0.6989 -0.3714
vn -0.5748 0.7107 -0.4055
vn -0.2805 0.7322 -0.6206
vn 0.3659 0.6840 -0.6311
vn 0.5235 0.6031 -0.6018
vn 0.8636 0.5019 -0.0468
vn 0.7757 0.6299 0.0389
vn 0.5733 0.6784 0.4595
vn 0.2300 0.6996 0.6765
vn -0.2366 0.7563 0.6100
vn -0.6273 0.5014 0.5959
vn -0.9250 0.1445 0.3514
vn -0.8119 0.3334 -0.4792
vn -0.7866 0.2750 -0.5529
vn -0.3242 0.1433 -0.9351
vn 0.1285 0.4519 -0.8828
vn 0.5770 0.6719 -0.4643
vn 0.8105 0.5858 -0.0025
s 0
f 3//1 2//1 1//1
f 4//1 3//1 1//1
f 5//1 4//1 1//1
f 6//1 5//1 1//1
f 7//1 6//1 1//1
f 8//1 7//1 1//1
f 9//1 8//1 1//1
f 10//1 9//1 1//1
f 11//1 10//1 1//1
f 12//1 11//1 1//1
f 13//1 12//1 1//1
f 2//1 13//1 1//1
f 3//2 15//2 14//2 2//2
f 4//3 16//3 15//3 3//3
f 5//4 17//4 16//4 4//4
f 6//5 18//5 17//5 5//5
f 7//6 19//6 18//6 6//6
f 8//7 20//7 19//7 7//7
f 9//8 21//8 20//8 8//8
f 10//9 22//9 21//9 9//9
f 11//10 23//10 22//10 10//10
f 12//11 24//11 23//11 11//11
f 13//12 25//12 24//12 12//12
f 2//13 14//13 25//13 13//13
f 15//14 27//14 26//14 14//14
f 16//15 28//15 27//15 15//15
f 17//16 29//16 28//16 16//16
f 18//17 30//17 29//17 17//17
f 19//18 31//18 30//18 18//18
f 20//19 32//19 31//19 19//19
f 21//20 33//20 32//20 20//20
f 22//21 34//21 33//21 21//21
f 23//22 35//22 34//22 22//22
f 24//23 36//23 35//23 23//23
f 25//24 37//24 36//24 24//24
f 14//25 26//25 37//25 25//25
f 27//26 39//26 38//26 26//26
f 28//27 40//27 39//27 27//27
f 29//28 41//28 40//28 28//28
f 30//29 42//29 41//29 29//29
f 31//30 43//30 42//30 30//30
f 32//31 44//31 43//31 31//31
f 33//32 45//32 44//32 32//32
f 34//33 46//33 45//33 33//33
f 35//34 47//34 46//34 34//34
f 36//35 48//35 47//35 35//35
f 37//36 49//36 48//36 36//36
f 26//37 38//37 49//37 37//37
f 39//38 51//38 50//38 38//38
f 40//39 52//39 51//39 39//39
f 41//40 53//40 52//40 40//40
f 42//41 54//41 53//41 41//41
f 43//42 55//42 54//42 42//42
f 44//43 56//43 55//43 43//43
f 45//44 57//44 56//44 44//44
f 46//45 58//45 57//45 45//45
f 47//46 59//46 58//46 46//46
f 48//47 60//47 59//47 47//47
f 49//48 61//48 60//48 48//48
f 38//49 50//49 61//49 49//49
