# Blender 4.4.1
# www.blender.org
o Mountain_058
v -1.082441 0.000000 0.921158
v -1.082441 13.499778 0.921158
v -1.082441 13.499778 0.921158
v -1.082441 13.499778 0.921158
v -1.082441 13.499778 0.921158
v -1.082441 13.499778 0.921158
v -1.082441 13.499778 0.921158
v -1.082441 13.499778 0.921158
v -1.082441 13.499778 0.921158
v -1.082441 13.499778 0.921158
v -1.082441 13.499778 0.921158
v -1.082441 13.499778 0.921158
v -1.082441 13.499778 0.921158
v 2.758687 11.686272 0.921158
v 2.528228 11.518704 3.005779
v 0.857099 12.095204 4.280540
v -1.082441 11.678301 4.926908
v -3.122438 11.519219 4.454536
v -4.633747 11.852304 2.971506
v -5.028961 11.732289 0.921158
v -4.430759 11.982378 -1.011994
v -3.043250 11.879519 -2.475063
v -1.082441 11.481971 -3.172348
v 0.908749 12.011539 -2.527685
v 2.539480 11.892785 -1.169959
v 6.717378 9.317616 0.921158
v 6.291149 8.664890 5.178303
v 2.808264 8.311743 7.660057
v -1.082441 8.855371 8.339131
v -4.763107 9.117592 7.296258
v -7.633502 8.825721 4.703415
v -9.362127 8.397878 0.921158
v -7.950882 9.030122 -3.044338
v -5.066969 8.380147 -5.980247
v -1.082441 8.133558 -7.615849
v 2.794946 8.640283 -5.794672
v 6.537933 9.070285 -3.478467
v 10.320337 5.511477 0.921158
v 10.250772 4.017430 7.464392
v 4.614390 4.413293 10.788360
v -1.082441 3.735297 12.532959
v -7.282894 5.092467 11.660658
v -10.160278 4.745808 6.162250
v -14.385319 5.457775 0.921158
v -11.305723 4.114625 -4.981256
v -6.582907 5.558614 -8.605928
v -1.082441 4.410563 -12.200729
v 5.265636 5.125841 -10.074034
v 10.899039 4.933430 -5.996352
v 13.945620 0.211706 0.921158
v 15.460219 0.313473 10.472068
v 6.713790 -0.911829 14.424627
v -1.082441 0.780804 16.743166
v -7.665082 -0.757592 12.322627
v -12.268993 -0.747820 7.379717
v -15.460219 0.334579 0.921158
v -13.582786 0.633372 -6.295919
v -10.599581 -0.454902 -15.563011
v -1.082441 -0.795633 -16.743166
v 5.958080 1.322649 -11.273382
v 12.109063 -1.150907 -6.694960
vn -0.0000 1.0000 -0.0000
vn 0.4239 0.8979 0.1190
vn 0.4147 0.8996 0.1367
vn -0.0576 0.9088 0.4132
vn -0.1646 0.8979 0.4083
vn -0.1892 0.8991 0.3947
vn -0.4086 0.9124 0.0254
vn -0.4087 0.9126 -0.0084
vn -0.2459 0.9223 -0.2980
vn 0.0246 0.8967 -0.4420
vn -0.0950 0.8929 -0.4401
vn 0.2716 0.9307 -0.2448
vn 0.4265 0.9034 0.0445
vn 0.5211 0.8379 0.1623
vn 0.4002 0.7657 0.5035
vn 0.1665 0.7303 0.6625
vn -0.1478 0.7777 0.6110
vn -0.4324 0.7679 0.4726
vn -0.6259 0.7641 0.1562
vn -0.6083 0.7887 -0.0892
vn -0.3877 0.7692 -0.5080
vn -0.1603 0.7676 -0.6205
vn 0.1312 0.7630 -0.6329
vn 0.3192 0.7834 -0.5333
vn 0.5382 0.8420 -0.0383
vn 0.7116 0.6821 0.1683
vn 0.4019 0.6680 0.6263
vn 0.1795 0.6415 0.7458
vn -0.0281 0.6871 0.7260
vn -0.6273 0.6726 0.3925
vn -0.5795 0.7074 0.4047
vn -0.6049 0.7258 -0.3276
vn -0.5326 0.6529 -0.5385
vn -0.2356 0.7438 -0.6255
vn 0.1388 0.7857 -0.6028
vn 0.3418 0.7760 -0.5300
vn 0.7016 0.7121 -0.0272
vn 0.7144 0.6998 -0.0036
vn 0.2862 0.7073 0.6464
vn 0.2540 0.6985 0.6691
vn -0.3441 0.4660 0.8151
vn -0.7878 0.2651 0.5559
vn -0.7850 0.2977 0.5433
vn -0.8524 0.3860 -0.3528
vn -0.6136 0.7092 -0.3472
vn -0.1392 0.7327 -0.6662
vn 0.3333 0.5248 -0.7832
vn 0.6091 0.2610 -0.7489
vn 0.9095 0.3944 -0.1314
s 0
f 3//1 2//1 1//1
f 4//1 3//1 1//1
f 5//1 4//1 1//1
f 6//1 5//1 1//1
f 7//1 6//1 1//1
f 8//1 7//1 1//1
f 9//1 8//1 1//1
f 10//1 9//1 1//1
f 11//1 10//1 1//1
f 12//1 11//1 1//1
f 13//1 12//1 1//1
f 2//1 13//1 1//1
f 3//2 15//2 14//2 2//2
f 4//3 16//3 15//3 3//3
f 5//4 17//4 16//4 4//4
f 6//5 18//5 17//5 5//5
f 7//6 19//6 18//6 6//6
f 8//7 20//7 19//7 7//7
f 9//8 21//8 20//8 8//8
f 10//9 22//9 21//9 9//9
f 11//10 23//10 22//10 10//10
f 12//11 24//11 23//11 11//11
f 13//12 25//12 24//12 12//12
f 2//13 14//13 25//13 13//13
f 15//14 27//14 26//14 14//14
f 16//15 28//15 27//15 15//15
f 17//16 29//16 28//16 16//16
f 18//17 30//17 29//17 17//17
f 19//18 31//18 30//18 18//18
f 20//19 32//19 31//19 19//19
f 21//20 33//20 32//20 20//20
f 22//21 34//21 33//21 21//21
f 23//22 35//22 34//22 22//22
f 24//23 36//23 35//23 23//23
f 25//24 37//24 36//24 24//24
f 14//25 26//25 37//25 25//25
f 27//26 39//26 38//26 26//26
f 28//27 40//27 39//27 27//27
f 29//28 41//28 40//28 28//28
f 30//29 42//29 41//29 29//29
f 31//30 43//30 42//30 30//30
f 32//31 44//31 43//31 31//31
f 33//32 45//32 44//32 32//32
f 34//33 46//33 45//33 33//33
f 35//34 47//34 46//34 34//34
f 36//35 48//35 47//35 35//35
f 37//36 49//36 48//36 36//36
f 26//37 38//37 49//37 37//37
f 39//38 51//38 50//38 38//38
f 40//39 52//39 51//39 39//39
f 41//40 53//40 52//40 40//40
f 42//41 54//41 53//41 41//41
f 43//42 55//42 54//42 42//42
f 44//43 56//43 55//43 43//43
f 45//44 57//44 56//44 44//44
f 46//45 58//45 57//45 45//45
f 47//46 59//46 58//46 46//46
f 48//47 60//47 59//47 47//47
f 49//48 61//48 60//48 48//48
f 38//49 50//49 61//49 49//49
