# Blender 4.4.1
# www.blender.org
o Mountain_013
v 0.470260 0.000000 -1.352170
v 0.470260 11.830726 -1.352170
v 0.470260 11.830726 -1.352170
v 0.470260 11.830726 -1.352170
v 0.470260 11.830726 -1.352170
v 0.470260 11.830726 -1.352170
v 0.470260 11.830726 -1.352170
v 0.470260 11.830726 -1.352170
v 0.470260 11.830726 -1.352170
v 0.470260 11.830726 -1.352170
v 0.470260 11.830726 -1.352170
v 0.470260 11.830726 -1.352170
v 0.470260 11.830726 -1.352170
v 8.223619 10.183383 -1.352170
v 6.791105 10.086014 2.297172
v 4.172196 10.578053 5.059771
v 0.470260 10.334486 6.169754
v -3.247156 10.557250 5.086584
v -5.900644 10.578122 2.326074
v -7.105923 10.507966 -1.352170
v -5.858951 10.293076 -5.006341
v -3.259597 10.171263 -7.812472
v 0.470260 10.099614 -8.799248
v 4.175663 10.508290 -7.770115
v 6.744162 10.641200 -4.974408
v 15.820099 7.196959 -1.352170
v 14.519795 7.522413 6.759333
v 8.314813 7.457559 12.234994
v 0.470260 7.949575 14.763768
v -6.491538 7.658725 10.706018
v -12.360371 7.109993 6.055599
v -13.269562 7.450408 -1.352170
v -12.292796 7.597047 -8.720923
v -7.094820 7.666277 -14.455275
v 0.470260 7.781701 -15.657728
v 7.377900 8.228367 -13.316552
v 13.914806 7.410412 -9.114382
v 21.602339 4.729029 -1.352170
v 19.902628 4.516876 9.867113
v 10.914353 4.706775 16.737530
v 0.470260 4.454883 19.993145
v -12.240932 4.294982 20.664263
v -20.488758 4.546307 10.748526
v -23.006365 3.306428 -1.352170
v -18.628677 4.975312 -12.378947
v -11.584264 4.636524 -22.231218
v 0.470260 4.539343 -24.092709
v 11.860160 3.561732 -21.080055
v 20.460859 4.358928 -12.893747
v 34.144470 -0.833414 -1.352170
v 27.986166 -1.108372 14.534146
v 17.941685 -0.923044 28.909225
v 0.470260 -0.440831 22.576771
v -12.279385 0.450751 20.730864
v -24.270685 0.650624 12.932022
v -34.144470 0.882141 -1.352170
v -27.611317 -1.035706 -17.565077
v -12.200278 -0.692472 -23.298185
v 0.470260 0.383852 -28.909225
v 15.436547 -0.440688 -27.274538
v 22.776554 0.975146 -14.230715
vn -0.0000 1.0000 -0.0000
vn 0.2066 0.9725 0.1071
vn 0.2375 0.9700 0.0524
vn -0.0060 0.9808 0.1951
vn 0.0019 0.9808 0.1951
vn -0.1217 0.9847 0.1245
vn -0.1719 0.9844 0.0375
vn -0.1708 0.9785 -0.1158
vn -0.1385 0.9756 -0.1706
vn -0.0412 0.9732 -0.2262
vn -0.0445 0.9731 -0.2262
vn 0.1043 0.9843 -0.1426
vn 0.2077 0.9774 0.0387
vn 0.3252 0.9439 0.0573
vn 0.2444 0.9460 0.2127
vn 0.1150 0.9469 0.3004
vn -0.1564 0.9369 0.3126
vn -0.3109 0.9041 0.2931
vn -0.4322 0.8957 0.1043
vn -0.3931 0.9156 -0.0850
vn -0.2453 0.9418 -0.2297
vn -0.0655 0.9454 -0.3191
vn 0.0322 0.9399 -0.3400
vn 0.2620 0.9322 -0.2497
vn 0.3739 0.9257 -0.0566
vn 0.4257 0.9028 0.0608
vn 0.2977 0.8853 0.3574
vn 0.1693 0.8494 0.4999
vn -0.0869 0.9199 0.3825
vn -0.2127 0.9591 0.1866
vn -0.3473 0.9376 0.0178
vn -0.3839 0.9231 -0.0206
vn -0.2590 0.9406 -0.2197
vn -0.0551 0.9363 -0.3470
vn 0.1438 0.9044 -0.4018
vn 0.2770 0.8998 -0.3370
vn 0.3899 0.9182 -0.0690
vn 0.4461 0.8831 0.1452
vn 0.3419 0.8937 0.2905
vn -0.0593 0.7991 0.5983
vn -0.0358 0.2901 0.9563
vn -0.5730 0.4766 0.6667
vn -0.3691 0.9191 0.1382
vn -0.3496 0.9251 -0.1485
vn -0.4164 0.6832 -0.5998
vn -0.2658 0.5206 -0.8114
vn 0.1538 0.8172 -0.5555
vn 0.4503 0.7878 -0.4203
vn 0.4918 0.8470 -0.2020
s 0
f 3//1 2//1 1//1
f 4//1 3//1 1//1
f 5//1 4//1 1//1
f 6//1 5//1 1//1
f 7//1 6//1 1//1
f 8//1 7//1 1//1
f 9//1 8//1 1//1
f 10//1 9//1 1//1
f 11//1 10//1 1//1
f 12//1 11//1 1//1
f 13//1 12//1 1//1
f 2//1 13//1 1//1
f 3//2 15//2 14//2 2//2
f 4//3 16//3 15//3 3//3
f 5//4 17//4 16//4 4//4
f 6//5 18//5 17//5 5//5
f 7//6 19//6 18//6 6//6
f 8//7 20//7 19//7 7//7
f 9//8 21//8 20//8 8//8
f 10//9 22//9 21//9 9//9
f 11//10 23//10 22//10 10//10
f 12//11 24//11 23//11 11//11
f 13//12 25//12 24//12 12//12
f 2//13 14//13 25//13 13//13
f 15//14 27//14 26//14 14//14
f 16//15 28//15 27//15 15//15
f 17//16 29//16 28//16 16//16
f 18//17 30//17 29//17 17//17
f 19//18 31//18 30//18 18//18
f 20//19 32//19 31//19 19//19
f 21//20 33//20 32//20 20//20
f 22//21 34//21 33//21 21//21
f 23//22 35//22 34//22 22//22
f 24//23 36//23 35//23 23//23
f 25//24 37//24 36//24 24//24
f 14//25 26//25 37//25 25//25
f 27//26 39//26 38//26 26//26
f 28//27 40//27 39//27 27//27
f 29//28 41//28 40//28 28//28
f 30//29 42//29 41//29 29//29
f 31//30 43//30 42//30 30//30
f 32//31 44//31 43//31 31//31
f 33//32 45//32 44//32 32//32
f 34//33 46//33 45//33 33//33
f 35//34 47//34 46//34 34//34
f 36//35 48//35 47//35 35//35
f 37//36 49//36 48//36 36//36
f 26//37 38//37 49//37 37//37
f 39//38 51//38 50//38 38//38
f 40//39 52//39 51//39 39//39
f 41//40 53//40 52//40 40//40
f 42//41 54//41 53//41 41//41
f 43//42 55//42 54//42 42//42
f 44//43 56//43 55//43 43//43
f 45//44 57//44 56//44 44//44
f 46//45 58//45 57//45 45//45
f 47//46 59//46 58//46 46//46
f 48//47 60//47 59//47 47//47
f 49//48 61//48 60//48 48//48
f 38//49 50//49 61//49 49//49
