# Blender 4.4.1
# www.blender.org
o Mountain_026
v 1.804702 0.000000 -0.542767
v 1.804702 11.250197 -0.542767
v 1.804702 11.250197 -0.542767
v 1.804702 11.250197 -0.542767
v 1.804702 11.250197 -0.542767
v 1.804702 11.250197 -0.542767
v 1.804702 11.250197 -0.542767
v 1.804702 11.250197 -0.542767
v 1.804702 11.250197 -0.542767
v 1.804702 11.250197 -0.542767
v 1.804702 11.250197 -0.542767
v 1.804702 11.250197 -0.542767
v 1.804702 11.250197 -0.542767
v 7.016985 9.820056 -0.542767
v 6.062651 9.965239 1.915561
v 4.378869 9.836937 3.915820
v 1.804702 9.662133 4.531485
v -0.733291 9.565319 3.853167
v -2.434657 9.990847 1.904828
v -3.037936 9.992698 -0.542767
v -2.528370 9.992183 -3.044467
v -0.596441 9.908319 -4.701670
v 1.804702 9.789580 -5.618248
v 4.425546 9.778287 -5.082201
v 5.941780 9.674840 -2.931310
v 11.567711 6.725979 -0.542767
v 10.171423 7.647541 4.287762
v 6.503367 7.471497 7.595560
v 1.804702 6.990073 9.728288
v -3.397778 7.097542 8.468193
v -6.226666 7.141644 4.094146
v -8.390188 6.898043 -0.542767
v -7.432366 7.045626 -5.875791
v -2.994386 7.528967 -8.855032
v 1.804702 7.090213 -10.753082
v 7.201967 7.830068 -9.891104
v 10.207026 7.724217 -5.393850
v 16.196104 3.417190 -0.542767
v 16.566730 4.648714 7.980094
v 9.099892 3.484678 12.092872
v 1.804702 3.320629 15.507121
v -6.235811 4.094339 13.383811
v -9.915850 3.717849 6.224097
v -13.899763 3.162267 -0.542767
v -12.678044 3.530867 -8.904385
v -5.786515 3.181207 -13.691141
v 1.804702 4.216309 -17.798531
v 9.663758 3.132530 -14.155050
v 15.558235 3.802536 -8.483373
v 20.879568 0.106387 -0.542767
v 18.977385 -0.780478 9.371885
v 12.604060 0.293206 18.162270
v 1.804702 0.363752 17.897909
v -8.863594 -0.517560 17.935265
v -16.278790 -0.816396 9.897742
v -20.879568 -0.888959 -0.542767
v -17.063942 -0.860112 -11.436584
v -6.665929 -0.885922 -15.214331
v 1.804702 -0.675576 -18.162270
v 10.872287 0.052080 -16.248283
v 17.084644 0.457741 -9.364645
vn -0.0000 1.0000 -0.0000
vn 0.2643 0.9634 0.0457
vn 0.1716 0.9633 0.2063
vn 0.0066 0.9543 0.2987
vn -0.1155 0.9480 0.2967
vn -0.1077 0.9475 0.3010
vn -0.2508 0.9660 0.0626
vn -0.2510 0.9666 -0.0513
vn -0.1503 0.9629 -0.2239
vn -0.0579 0.9594 -0.2761
vn 0.0606 0.9592 -0.2760
vn 0.2758 0.9497 -0.1487
vn 0.2605 0.9495 -0.1750
vn 0.5209 0.8525 0.0432
vn 0.3091 0.8794 0.3621
vn 0.0997 0.8754 0.4729
vn -0.1085 0.8924 0.4380
vn -0.3691 0.8692 0.3290
vn -0.5082 0.8444 0.1697
vn -0.4905 0.8682 -0.0756
vn -0.3101 0.8840 -0.3499
vn -0.1094 0.8838 -0.4550
vn -0.0081 0.9050 -0.4253
vn 0.3198 0.9286 -0.1882
vn 0.4832 0.8735 -0.0596
vn 0.5186 0.8495 -0.0971
vn 0.2194 0.8480 0.4824
vn 0.2105 0.8087 0.5493
vn -0.0743 0.8548 0.5136
vn -0.5144 0.8150 0.2668
vn -0.5592 0.7917 0.2460
vn -0.5473 0.8351 -0.0556
vn -0.3341 0.8150 -0.4734
vn -0.2618 0.8508 -0.4556
vn 0.1968 0.8340 -0.5155
vn 0.4493 0.7796 -0.4364
vn 0.5859 0.8104 -0.0039
vn 0.7713 0.6344 0.0522
vn 0.4558 0.7404 0.4941
vn 0.0932 0.8234 0.5598
vn -0.0842 0.6893 0.7196
vn -0.5050 0.7962 0.3333
vn -0.4869 0.8474 0.2120
vn -0.5718 0.8096 -0.1329
vn -0.3534 0.5741 -0.7386
vn -0.4064 0.2263 -0.8852
vn 0.3014 0.3223 -0.8974
vn 0.5862 0.5323 -0.6108
vn 0.7115 0.6847 -0.1580
s 0
f 3//1 2//1 1//1
f 4//1 3//1 1//1
f 5//1 4//1 1//1
f 6//1 5//1 1//1
f 7//1 6//1 1//1
f 8//1 7//1 1//1
f 9//1 8//1 1//1
f 10//1 9//1 1//1
f 11//1 10//1 1//1
f 12//1 11//1 1//1
f 13//1 12//1 1//1
f 2//1 13//1 1//1
f 3//2 15//2 14//2 2//2
f 4//3 16//3 15//3 3//3
f 5//4 17//4 16//4 4//4
f 6//5 18//5 17//5 5//5
f 7//6 19//6 18//6 6//6
f 8//7 20//7 19//7 7//7
f 9//8 21//8 20//8 8//8
f 10//9 22//9 21//9 9//9
f 11//10 23//10 22//10 10//10
f 12//11 24//11 23//11 11//11
f 13//12 25//12 24//12 12//12
f 2//13 14//13 25//13 13//13
f 15//14 27//14 26//14 14//14
f 16//15 28//15 27//15 15//15
f 17//16 29//16 28//16 16//16
f 18//17 30//17 29//17 17//17
f 19//18 31//18 30//18 18//18
f 20//19 32//19 31//19 19//19
f 21//20 33//20 32//20 20//20
f 22//21 34//21 33//21 21//21
f 23//22 35//22 34//22 22//22
f 24//23 36//23 35//23 23//23
f 25//24 37//24 36//24 24//24
f 14//25 26//25 37//25 25//25
f 27//26 39//26 38//26 26//26
f 28//27 40//27 39//27 27//27
f 29//28 41//28 40//28 28//28
f 30//29 42//29 41//29 29//29
f 31//30 43//30 42//30 30//30
f 32//31 44//31 43//31 31//31
f 33//32 45//32 44//32 32//32
f 34//33 46//33 45//33 33//33
f 35//34 47//34 46//34 34//34
f 36//35 48//35 47//35 35//35
f 37//36 49//36 48//36 36//36
f 26//37 38//37 49//37 37//37
f 39//38 51//38 50//38 38//38
f 40//39 52//39 51//39 39//39
f 41//40 53//40 52//40 40//40
f 42//41 54//41 53//41 41//41
f 43//42 55//42 54//42 42//42
f 44//43 56//43 55//43 43//43
f 45//44 57//44 56//44 44//44
f 46//45 58//45 57//45 45//45
f 47//46 59//46 58//46 46//46
f 48//47 60//47 59//47 47//47
f 49//48 61//48 60//48 48//48
f 38//49 50//49 61//49 49//49
