# Blender 4.4.1
# www.blender.org
o Mountain_030
v -1.311955 0.000000 -0.701041
v -1.311955 11.211073 -0.701041
v -1.311955 11.211073 -0.701041
v -1.311955 11.211073 -0.701041
v -1.311955 11.211073 -0.701041
v -1.311955 11.211073 -0.701041
v -1.311955 11.211073 -0.701041
v -1.311955 11.211073 -0.701041
v -1.311955 11.211073 -0.701041
v -1.311955 11.211073 -0.701041
v -1.311955 11.211073 -0.701041
v -1.311955 11.211073 -0.701041
v -1.311955 11.211073 -0.701041
v 3.786238 9.700208 -0.701041
v 3.019242 10.035898 1.799577
v 1.089976 9.760727 3.459227
v -1.311955 9.816726 4.250240
v -3.669260 9.653175 3.381930
v -5.679689 9.638343 1.820672
v -6.036521 9.977665 -0.701041
v -5.687087 10.006660 -3.227024
v -3.857488 10.086778 -5.110032
v -1.311955 9.837528 -5.562203
v 1.076996 9.567173 -4.838826
v 2.744495 9.936144 -3.043033
v 8.423170 7.057726 -0.701041
v 6.512062 7.421662 3.816158
v 3.177748 7.381350 7.075355
v -1.311955 7.043079 9.840132
v -6.143850 7.377792 7.668047
v -9.435970 7.341724 3.989361
v -11.200045 7.095443 -0.701041
v -9.453987 7.166985 -5.401845
v -5.708730 6.962795 -8.316478
v -1.311955 7.516220 -9.917582
v 3.505766 7.628660 -9.045579
v 6.522358 7.508548 -5.224184
v 14.987937 3.866791 -0.701041
v 10.829531 3.602137 6.308849
v 6.121615 3.384023 12.174281
v -1.311955 4.504047 14.407470
v -9.419799 3.323872 13.342156
v -14.137626 3.531108 6.703863
v -17.648960 3.217021 -0.701041
v -12.375713 3.119767 -7.088705
v -8.647817 3.140895 -13.407125
v -1.311955 3.769736 -15.700904
v 6.205864 4.612533 -13.722287
v 11.563070 4.002368 -8.134440
v 22.102427 -0.062549 -0.701041
v 17.453974 -0.300863 10.133474
v 7.367949 0.610207 14.332995
v -1.311955 -0.468625 20.640280
v -10.934278 0.023346 15.965309
v -17.519056 0.004859 8.656134
v -22.102427 0.780250 -0.701041
v -20.289825 0.255693 -11.657920
v -9.767522 0.031697 -15.346511
v -1.311955 -0.719425 -19.801386
v 10.199969 0.357439 -20.640280
v 18.755922 0.528983 -12.287235
vn -0.0000 1.0000 -0.0000
vn 0.2839 0.9580 -0.0415
vn 0.1005 0.9561 0.2753
vn 0.1110 0.9566 0.2694
vn -0.1644 0.9495 0.2674
vn -0.1989 0.9484 0.2471
vn -0.2492 0.9545 0.1637
vn -0.2525 0.9673 -0.0238
vn -0.1868 0.9724 -0.1401
vn 0.0459 0.9613 -0.2716
vn 0.1878 0.9452 -0.2671
vn 0.1203 0.9445 -0.3058
vn 0.2840 0.9584 -0.0298
vn 0.5194 0.8469 0.1138
vn 0.3372 0.8450 0.4150
vn 0.1940 0.8741 0.4453
vn -0.1557 0.8948 0.4185
vn -0.3235 0.8909 0.3187
vn -0.4691 0.8704 0.1492
vn -0.5107 0.8489 -0.1363
vn -0.3884 0.7916 -0.4718
vn -0.1958 0.8179 -0.5410
vn 0.1121 0.9020 -0.4170
vn 0.3178 0.8978 -0.3048
vn 0.4886 0.8638 -0.1230
vn 0.4840 0.8393 0.2476
vn 0.4369 0.8018 0.4077
vn 0.2584 0.8349 0.4859
vn -0.1787 0.8523 0.4915
vn -0.4398 0.8249 0.3551
vn -0.5254 0.8292 0.1907
vn -0.5642 0.7435 -0.3589
vn -0.5093 0.7471 -0.4271
vn -0.2512 0.8250 -0.5063
vn 0.0574 0.8451 -0.5315
vn 0.4193 0.8545 -0.3068
vn 0.4621 0.8717 -0.1631
vn 0.4305 0.8709 0.2370
vn 0.3484 0.8191 0.4557
vn 0.3274 0.7180 0.6142
vn -0.2360 0.7299 0.6415
vn -0.5503 0.6999 0.4554
vn -0.5360 0.7962 0.2808
vn -0.3345 0.9269 -0.1699
vn -0.2770 0.8680 -0.4121
vn -0.3043 0.6198 -0.7233
vn -0.0405 0.7755 -0.6301
vn 0.3260 0.8975 -0.2971
vn 0.4290 0.8955 -0.1185
s 0
f 3//1 2//1 1//1
f 4//1 3//1 1//1
f 5//1 4//1 1//1
f 6//1 5//1 1//1
f 7//1 6//1 1//1
f 8//1 7//1 1//1
f 9//1 8//1 1//1
f 10//1 9//1 1//1
f 11//1 10//1 1//1
f 12//1 11//1 1//1
f 13//1 12//1 1//1
f 2//1 13//1 1//1
f 3//2 15//2 14//2 2//2
f 4//3 16//3 15//3 3//3
f 5//4 17//4 16//4 4//4
f 6//5 18//5 17//5 5//5
f 7//6 19//6 18//6 6//6
f 8//7 20//7 19//7 7//7
f 9//8 21//8 20//8 8//8
f 10//9 22//9 21//9 9//9
f 11//10 23//10 22//10 10//10
f 12//11 24//11 23//11 11//11
f 13//12 25//12 24//12 12//12
f 2//13 14//13 25//13 13//13
f 15//14 27//14 26//14 14//14
f 16//15 28//15 27//15 15//15
f 17//16 29//16 28//16 16//16
f 18//17 30//17 29//17 17//17
f 19//18 31//18 30//18 18//18
f 20//19 32//19 31//19 19//19
f 21//20 33//20 32//20 20//20
f 22//21 34//21 33//21 21//21
f 23//22 35//22 34//22 22//22
f 24//23 36//23 35//23 23//23
f 25//24 37//24 36//24 24//24
f 14//25 26//25 37//25 25//25
f 27//26 39//26 38//26 26//26
f 28//27 40//27 39//27 27//27
f 29//28 41//28 40//28 28//28
f 30//29 42//29 41//29 29//29
f 31//30 43//30 42//30 30//30
f 32//31 44//31 43//31 31//31
f 33//32 45//32 44//32 32//32
f 34//33 46//33 45//33 33//33
f 35//34 47//34 46//34 34//34
f 36//35 48//35 47//35 35//35
f 37//36 49//36 48//36 36//36
f 26//37 38//37 49//37 37//37
f 39//38 51//38 50//38 38//38
f 40//39 52//39 51//39 39//39
f 41//40 53//40 52//40 40//40
f 42//41 54//41 53//41 41//41
f 43//42 55//42 54//42 42//42
f 44//43 56//43 55//43 43//43
f 45//44 57//44 56//44 44//44
f 46//45 58//45 57//45 45//45
f 47//46 59//46 58//46 46//46
f 48//47 60//47 59//47 47//47
f 49//48 61//48 60//48 48//48
f 38//49 50//49 61//49 49//49
