# Blender 4.4.1
# www.blender.org
o Mountain_000
v 0.443896 0.000000 1.851278
v 0.443896 13.124950 1.851278
v 0.443896 13.124950 1.851278
v 0.443896 13.124950 1.851278
v 0.443896 13.124950 1.851278
v 0.443896 13.124950 1.851278
v 0.443896 13.124950 1.851278
v 0.443896 13.124950 1.851278
v 0.443896 13.124950 1.851278
v 0.443896 13.124950 1.851278
v 0.443896 13.124950 1.851278
v 0.443896 13.124950 1.851278
v 0.443896 13.124950 1.851278
v 5.391406 11.552402 1.851278
v 4.711850 11.635093 4.315382
v 2.843237 11.794812 6.007059
v 0.443896 11.518483 6.574561
v -2.025534 11.562110 6.128457
v -3.846658 11.535093 4.328431
v -4.435277 11.186280 1.851278
v -3.584212 11.346118 -0.474351
v -1.846326 11.308976 -2.115502
v 0.443896 11.338627 -2.739306
v 2.867014 11.395628 -2.345685
v 4.530920 11.293696 -0.508366
v 9.560951 9.057687 1.851278
v 8.970647 8.627813 6.774200
v 4.910775 8.785308 9.588140
v 0.443896 8.326365 10.770241
v -4.805582 8.668328 10.943640
v -7.931989 8.726885 6.687098
v -9.774543 8.846828 1.851278
v -7.388882 7.870463 -2.670978
v -4.160987 8.179741 -6.124613
v 0.443896 9.065896 -7.158684
v 5.585166 8.241345 -7.053662
v 8.982909 8.347597 -3.078723
v 16.571867 4.519035 1.851278
v 11.990012 4.101220 8.517431
v 7.747976 4.132944 14.502316
v 0.443896 5.383256 16.559351
v -6.511693 4.047460 13.898711
v -13.832616 4.618800 10.093826
v -12.139775 3.708434 1.851278
v -10.523721 4.850954 -4.480878
v -7.356586 4.446798 -11.659552
v 0.443896 4.366984 -10.614564
v 8.683396 4.657364 -12.419955
v 14.621802 5.310328 -6.334340
v 15.832080 0.579393 1.851278
v 18.210888 0.097047 12.109056
v 9.114702 0.370023 16.869555
v 0.443896 -0.171241 18.005024
v -8.941813 1.191262 18.107803
v -18.609339 -0.621101 12.851668
v -18.686028 -0.843536 1.851278
v -18.852982 0.972608 -9.289780
v -8.347857 0.364741 -13.376486
v 0.443896 -0.911293 -18.107803
v 11.010743 0.103370 -16.451036
v 18.852982 0.079678 -8.777212
vn -0.0000 1.0000 -0.0000
vn 0.3025 0.9518 0.0515
vn 0.2358 0.9568 0.1701
vn -0.0329 0.9462 0.3218
vn -0.0414 0.9459 0.3217
vn -0.2273 0.9496 0.2157
vn -0.3689 0.9285 -0.0431
vn -0.3683 0.9270 -0.0711
vn -0.2466 0.9272 -0.2821
vn -0.1102 0.9263 -0.3604
vn 0.0370 0.9313 -0.3624
vn 0.2937 0.9316 -0.2143
vn 0.2961 0.9317 -0.2101
vn 0.5156 0.8472 0.1284
vn 0.3713 0.8226 0.4306
vn 0.0710 0.7890 0.6103
vn 0.0213 0.8254 0.5641
vn -0.3854 0.8657 0.3193
vn -0.4519 0.8836 0.1226
vn -0.4546 0.8335 -0.3142
vn -0.4539 0.7963 -0.3999
vn -0.2280 0.8470 -0.4802
vn 0.1198 0.8686 -0.4808
vn 0.3871 0.8579 -0.3377
vn 0.4770 0.8540 -0.2076
vn 0.6032 0.7294 0.3226
vn 0.5320 0.6927 0.4870
vn 0.2014 0.8232 0.5308
vn -0.1885 0.7606 0.6212
vn -0.3835 0.7384 0.5547
vn -0.7509 0.6597 -0.0313
vn -0.7680 0.5787 -0.2743
vn -0.5023 0.8074 -0.3094
vn -0.0473 0.7369 -0.6743
vn -0.0596 0.7172 -0.6943
vn 0.3138 0.8796 -0.3575
vn 0.4946 0.8645 -0.0900
vn 0.7862 0.6032 0.1344
vn 0.4091 0.7724 0.4859
vn 0.1968 0.3959 0.8969
vn -0.1252 0.5782 0.8062
vn -0.3435 0.7693 0.5387
vn -0.6646 0.7405 -0.0994
vn -0.5151 0.8511 0.1014
vn -0.3431 0.8022 -0.4885
vn -0.0990 0.7032 -0.7040
vn -0.0575 0.7537 -0.6547
vn 0.4986 0.6854 -0.5307
vn 0.9380 0.3415 0.0587
s 0
f 3//1 2//1 1//1
f 4//1 3//1 1//1
f 5//1 4//1 1//1
f 6//1 5//1 1//1
f 7//1 6//1 1//1
f 8//1 7//1 1//1
f 9//1 8//1 1//1
f 10//1 9//1 1//1
f 11//1 10//1 1//1
f 12//1 11//1 1//1
f 13//1 12//1 1//1
f 2//1 13//1 1//1
f 3//2 15//2 14//2 2//2
f 4//3 16//3 15//3 3//3
f 5//4 17//4 16//4 4//4
f 6//5 18//5 17//5 5//5
f 7//6 19//6 18//6 6//6
f 8//7 20//7 19//7 7//7
f 9//8 21//8 20//8 8//8
f 10//9 22//9 21//9 9//9
f 11//10 23//10 22//10 10//10
f 12//11 24//11 23//11 11//11
f 13//12 25//12 24//12 12//12
f 2//13 14//13 25//13 13//13
f 15//14 27//14 26//14 14//14
f 16//15 28//15 27//15 15//15
f 17//16 29//16 28//16 16//16
f 18//17 30//17 29//17 17//17
f 19//18 31//18 30//18 18//18
f 20//19 32//19 31//19 19//19
f 21//20 33//20 32//20 20//20
f 22//21 34//21 33//21 21//21
f 23//22 35//22 34//22 22//22
f 24//23 36//23 35//23 23//23
f 25//24 37//24 36//24 24//24
f 14//25 26//25 37//25 25//25
f 27//26 39//26 38//26 26//26
f 28//27 40//27 39//27 27//27
f 29//28 41//28 40//28 28//28
f 30//29 42//29 41//29 29//29
f 31//30 43//30 42//30 30//30
f 32//31 44//31 43//31 31//31
f 33//32 45//32 44//32 32//32
f 34//33 46//33 45//33 33//33
f 35//34 47//34 46//34 34//34
f 36//35 48//35 47//35 35//35
f 37//36 49//36 48//36 36//36
f 26//37 38//37 49//37 37//37
f 39//38 51//38 50//38 38//38
f 40//39 52//39 51//39 39//39
f 41//40 53//40 52//40 40//40
f 42//41 54//41 53//41 41//41
f 43//42 55//42 54//42 42//42
f 44//43 56//43 55//43 43//43
f 45//44 57//44 56//44 44//44
f 46//45 58//45 57//45 45//45
f 47//46 59//46 58//46 46//46
f 48//47 60//47 59//47 47//47
f 49//48 61//48 60//48 48//48
f 38//49 50//49 61//49 49//49
