# Blender 4.4.1
# www.blender.org
o Mountain_049
v -0.601808 0.000000 1.716466
v -0.601808 23.609016 1.716466
v -0.601808 23.609016 1.716466
v -0.601808 23.609016 1.716466
v -0.601808 23.609016 1.716466
v -0.601808 23.609016 1.716466
v -0.601808 23.609016 1.716466
v -0.601808 23.609016 1.716466
v -0.601808 23.609016 1.716466
v -0.601808 23.609016 1.716466
v -0.601808 23.609016 1.716466
v -0.601808 23.609016 1.716466
v -0.601808 23.609016 1.716466
v 5.397129 20.724781 1.716466
v 5.044396 20.425392 4.976303
v 2.609479 20.647831 7.278578
v -0.601808 20.912539 7.779356
v -3.744312 20.196783 7.159442
v -6.147007 20.846853 4.917988
v -7.011364 20.743130 1.716466
v -6.038493 21.076183 -1.422406
v -3.750362 20.529675 -3.736991
v -0.601808 21.213728 -4.573097
v 2.581438 20.484083 -3.797078
v 5.108389 20.445978 -1.580318
v 10.796268 14.188038 1.716466
v 11.032311 14.905181 8.433427
v 5.995744 14.145025 13.143760
v -0.601808 14.887191 15.287345
v -6.387943 14.896366 11.738346
v -11.190504 14.910830 7.829852
v -13.593480 14.666109 1.716466
v -11.824244 15.480427 -4.762812
v -7.411218 14.236157 -10.077780
v -0.601808 14.878544 -10.378273
v 5.086614 14.851447 -8.136170
v 10.212605 16.119846 -4.527239
v 18.662306 9.696044 1.716466
v 14.602939 8.968469 10.494929
v 9.086716 9.994775 18.497478
v -0.601808 7.886027 19.902727
v -10.246577 9.366404 18.421698
v -14.989594 8.894641 10.023258
v -18.551500 8.284314 1.716466
v -18.250559 7.706263 -8.473045
v -10.366332 7.790529 -15.196187
v -0.601808 8.263715 -16.799723
v 9.821130 9.291409 -16.336592
v 17.417143 8.401411 -8.686780
v 22.428762 -2.136468 1.716466
v 25.524405 -0.462608 16.800442
v 10.604020 1.146869 21.125528
v -0.601808 1.625183 22.779646
v -11.147372 -0.770419 19.981918
v -18.627785 1.422139 12.123768
v -25.524405 -1.370555 1.716466
v -24.979057 0.715527 -12.357746
v -12.190047 1.436026 -18.354954
v -0.601808 0.188625 -22.779646
v 10.474089 -0.461316 -17.467550
v 22.287096 -0.220845 -11.498448
vn -0.0000 1.0000 -0.0000
vn 0.4297 0.8938 0.1286
vn 0.3449 0.8965 0.2781
vn 0.1374 0.9050 0.4025
vn -0.2770 0.8780 0.3905
vn -0.1791 0.8768 0.4463
vn -0.4069 0.9099 0.0804
vn -0.4080 0.9125 -0.0296
vn -0.1884 0.8978 -0.3982
vn -0.2852 0.8957 -0.3411
vn 0.2882 0.8949 -0.3408
vn 0.3038 0.8934 -0.3310
vn 0.4305 0.8954 -0.1134
vn 0.7297 0.6834 -0.0201
vn 0.4325 0.7384 0.5174
vn 0.2453 0.7377 0.6290
vn -0.3387 0.7224 0.6029
vn -0.4346 0.6862 0.5833
vn -0.6764 0.7057 0.2109
vn -0.6680 0.7371 -0.1025
vn -0.4011 0.7486 -0.5280
vn -0.1725 0.7083 -0.6845
vn 0.2932 0.6532 -0.6982
vn 0.3491 0.7123 -0.6090
vn 0.7250 0.6867 0.0527
vn 0.6491 0.7436 0.1607
vn 0.5580 0.6982 0.4485
vn 0.1016 0.6785 0.7275
vn -0.1640 0.6880 0.7070
vn -0.5742 0.7032 0.4193
vn -0.7602 0.5864 0.2797
vn -0.7653 0.6380 -0.0860
vn -0.4864 0.6695 -0.5614
vn -0.1290 0.6728 -0.7285
vn 0.0572 0.7763 -0.6278
vn 0.3925 0.7905 -0.4701
vn 0.6226 0.7816 -0.0385
vn 0.8213 0.5704 0.0105
vn 0.4614 0.6228 0.6318
vn 0.1089 0.3499 0.9304
vn -0.2114 0.2661 0.9405
vn -0.7425 0.3144 0.5915
vn -0.7800 0.5250 0.3405
vn -0.7734 0.6337 0.0124
vn -0.4282 0.6209 -0.6566
vn -0.2101 0.5419 -0.8137
vn 0.2352 0.3675 -0.8998
vn 0.5496 0.3299 -0.7675
vn 0.9182 0.3937 -0.0436
s 0
f 3//1 2//1 1//1
f 4//1 3//1 1//1
f 5//1 4//1 1//1
f 6//1 5//1 1//1
f 7//1 6//1 1//1
f 8//1 7//1 1//1
f 9//1 8//1 1//1
f 10//1 9//1 1//1
f 11//1 10//1 1//1
f 12//1 11//1 1//1
f 13//1 12//1 1//1
f 2//1 13//1 1//1
f 3//2 15//2 14//2 2//2
f 4//3 16//3 15//3 3//3
f 5//4 17//4 16//4 4//4
f 6//5 18//5 17//5 5//5
f 7//6 19//6 18//6 6//6
f 8//7 20//7 19//7 7//7
f 9//8 21//8 20//8 8//8
f 10//9 22//9 21//9 9//9
f 11//10 23//10 22//10 10//10
f 12//11 24//11 23//11 11//11
f 13//12 25//12 24//12 12//12
f 2//13 14//13 25//13 13//13
f 15//14 27//14 26//14 14//14
f 16//15 28//15 27//15 15//15
f 17//16 29//16 28//16 16//16
f 18//17 30//17 29//17 17//17
f 19//18 31//18 30//18 18//18
f 20//19 32//19 31//19 19//19
f 21//20 33//20 32//20 20//20
f 22//21 34//21 33//21 21//21
f 23//22 35//22 34//22 22//22
f 24//23 36//23 35//23 23//23
f 25//24 37//24 36//24 24//24
f 14//25 26//25 37//25 25//25
f 27//26 39//26 38//26 26//26
f 28//27 40//27 39//27 27//27
f 29//28 41//28 40//28 28//28
f 30//29 42//29 41//29 29//29
f 31//30 43//30 42//30 30//30
f 32//31 44//31 43//31 31//31
f 33//32 45//32 44//32 32//32
f 34//33 46//33 45//33 33//33
f 35//34 47//34 46//34 34//34
f 36//35 48//35 47//35 35//35
f 37//36 49//36 48//36 36//36
f 26//37 38//37 49//37 37//37
f 39//38 51//38 50//38 38//38
f 40//39 52//39 51//39 39//39
f 41//40 53//40 52//40 40//40
f 42//41 54//41 53//41 41//41
f 43//42 55//42 54//42 42//42
f 44//43 56//43 55//43 43//43
f 45//44 57//44 56//44 44//44
f 46//45 58//45 57//45 45//45
f 47//46 59//46 58//46 46//46
f 48//47 60//47 59//47 47//47
f 49//48 61//48 60//48 48//48
f 38//49 50//49 61//49 49//49
