# Blender 4.4.1
# www.blender.org
o Mountain_014
v -1.979983 0.000000 -0.617923
v -1.979983 20.092943 -0.617923
v -1.979983 20.092943 -0.617923
v -1.979983 20.092943 -0.617923
v -1.979983 20.092943 -0.617923
v -1.979983 20.092943 -0.617923
v -1.979983 20.092943 -0.617923
v -1.979983 20.092943 -0.617923
v -1.979983 20.092943 -0.617923
v -1.979983 20.092943 -0.617923
v -1.979983 20.092943 -0.617923
v -1.979983 20.092943 -0.617923
v -1.979983 20.092943 -0.617923
v 4.525735 17.367970 -0.617923
v 3.897954 17.426975 2.775706
v 1.323352 17.336637 5.103622
v -1.979983 17.282009 6.013137
v -5.315282 18.016361 5.158983
v -7.847580 17.216913 2.769735
v -8.701812 17.668560 -0.617923
v -7.586481 17.751949 -3.854836
v -5.312778 17.719912 -6.390492
v -1.979983 17.494225 -6.965517
v 1.414714 17.180014 -6.497712
v 3.930540 17.084208 -4.030365
v 11.443776 13.851203 -0.617923
v 9.315140 13.863123 5.903319
v 5.167869 12.943703 11.762520
v -1.979983 13.921155 11.873159
v -8.387279 13.282167 10.479837
v -14.428417 12.164122 6.569184
v -15.466952 13.059647 -0.617923
v -14.002985 13.866413 -7.559406
v -9.174125 12.336125 -13.078541
v -1.979983 12.337580 -14.923847
v 5.222670 13.987980 -13.093285
v 9.292321 12.979740 -7.125991
v 20.566025 8.435031 -0.617923
v 17.490694 8.177676 10.623477
v 6.520054 7.247027 14.104573
v -1.979983 8.497910 16.968437
v -11.303215 8.516312 15.530388
v -19.468363 7.023846 9.478998
v -24.537664 8.100267 -0.617923
v -19.078472 6.116345 -10.489740
v -10.789149 6.024971 -15.875846
v -1.979983 6.310605 -20.307098
v 7.049121 7.755346 -16.256790
v 16.790087 7.246483 -11.454828
v 27.335278 -1.304052 -0.617923
v 24.318068 1.595552 14.565265
v 13.048208 0.061407 25.411669
v -1.979983 0.680170 21.568146
v -13.594213 -1.444233 19.498514
v -23.374613 -1.012495 11.734272
v -26.016514 -1.062831 -0.617923
v -27.335278 1.824579 -15.256809
v -14.217057 0.895673 -21.813156
v -1.979983 0.617590 -22.003384
v 12.334692 -1.759642 -25.411669
v 17.523634 -0.776366 -11.878342
vn -0.0000 1.0000 -0.0000
vn 0.3857 0.9209 0.0553
vn 0.2424 0.9213 0.3039
vn 0.0918 0.9168 0.3886
vn 0.1022 0.9159 0.3882
vn -0.3881 0.9156 0.1050
vn -0.3320 0.9204 0.2064
vn -0.3378 0.9367 -0.0923
vn -0.2534 0.9374 -0.2390
vn -0.0027 0.9254 -0.3789
vn 0.1366 0.9168 -0.3753
vn 0.3050 0.9116 -0.2756
vn 0.3824 0.9129 -0.1426
vn 0.4700 0.8738 0.1244
vn 0.3360 0.8609 0.3820
vn 0.1242 0.8602 0.4946
vn -0.1212 0.8195 0.5601
vn -0.4580 0.8044 0.3784
vn -0.5364 0.8198 0.2005
vn -0.5288 0.8467 -0.0599
vn -0.3139 0.8414 -0.4400
vn -0.1115 0.8203 -0.5609
vn -0.0014 0.8673 -0.4979
vn 0.4431 0.8658 -0.2326
vn 0.4708 0.8518 -0.2295
vn 0.5022 0.8500 0.1589
vn 0.3237 0.6795 0.6585
vn 0.2310 0.5602 0.7955
vn -0.1505 0.7189 0.6787
vn -0.4662 0.7506 0.4682
vn -0.5211 0.8076 0.2763
vn -0.6024 0.7397 -0.2999
vn -0.5067 0.5209 -0.6870
vn -0.3128 0.5530 -0.7723
vn 0.1773 0.5805 -0.7948
vn 0.4836 0.7032 -0.5212
vn 0.4884 0.8312 -0.2656
vn 0.7509 0.6516 0.1080
vn 0.2458 0.8167 0.5221
vn 0.0300 0.7332 0.6793
vn -0.1913 0.4460 0.8743
vn -0.5649 0.4366 0.7002
vn -0.8911 0.3211 0.3208
vn -0.7862 0.6080 -0.1104
vn -0.2319 0.8417 -0.4876
vn -0.1712 0.6035 -0.7787
vn 0.0458 0.5907 -0.8056
vn 0.6543 0.5229 -0.5463
vn 0.7941 0.3473 -0.4987
s 0
f 3//1 2//1 1//1
f 4//1 3//1 1//1
f 5//1 4//1 1//1
f 6//1 5//1 1//1
f 7//1 6//1 1//1
f 8//1 7//1 1//1
f 9//1 8//1 1//1
f 10//1 9//1 1//1
f 11//1 10//1 1//1
f 12//1 11//1 1//1
f 13//1 12//1 1//1
f 2//1 13//1 1//1
f 3//2 15//2 14//2 2//2
f 4//3 16//3 15//3 3//3
f 5//4 17//4 16//4 4//4
f 6//5 18//5 17//5 5//5
f 7//6 19//6 18//6 6//6
f 8//7 20//7 19//7 7//7
f 9//8 21//8 20//8 8//8
f 10//9 22//9 21//9 9//9
f 11//10 23//10 22//10 10//10
f 12//11 24//11 23//11 11//11
f 13//12 25//12 24//12 12//12
f 2//13 14//13 25//13 13//13
f 15//14 27//14 26//14 14//14
f 16//15 28//15 27//15 15//15
f 17//16 29//16 28//16 16//16
f 18//17 30//17 29//17 17//17
f 19//18 31//18 30//18 18//18
f 20//19 32//19 31//19 19//19
f 21//20 33//20 32//20 20//20
f 22//21 34//21 33//21 21//21
f 23//22 35//22 34//22 22//22
f 24//23 36//23 35//23 23//23
f 25//24 37//24 36//24 24//24
f 14//25 26//25 37//25 25//25
f 27//26 39//26 38//26 26//26
f 28//27 40//27 39//27 27//27
f 29//28 41//28 40//28 28//28
f 30//29 42//29 41//29 29//29
f 31//30 43//30 42//30 30//30
f 32//31 44//31 43//31 31//31
f 33//32 45//32 44//32 32//32
f 34//33 46//33 45//33 33//33
f 35//34 47//34 46//34 34//34
f 36//35 48//35 47//35 35//35
f 37//36 49//36 48//36 36//36
f 26//37 38//37 49//37 37//37
f 39//38 51//38 50//38 38//38
f 40//39 52//39 51//39 39//39
f 41//40 53//40 52//40 40//40
f 42//41 54//41 53//41 41//41
f 43//42 55//42 54//42 42//42
f 44//43 56//43 55//43 43//43
f 45//44 57//44 56//44 44//44
f 46//45 58//45 57//45 45//45
f 47//46 59//46 58//46 46//46
f 48//47 60//47 59//47 47//47
f 49//48 61//48 60//48 48//48
f 38//49 50//49 61//49 49//49
