# Blender 4.4.1
# www.blender.org
o Mountain_003
v 0.217819 0.000000 -0.014801
v 0.217819 15.717501 -0.014801
v 0.217819 15.717501 -0.014801
v 0.217819 15.717501 -0.014801
v 0.217819 15.717501 -0.014801
v 0.217819 15.717501 -0.014801
v 0.217819 15.717501 -0.014801
v 0.217819 15.717501 -0.014801
v 0.217819 15.717501 -0.014801
v 0.217819 15.717501 -0.014801
v 0.217819 15.717501 -0.014801
v 0.217819 15.717501 -0.014801
v 0.217819 15.717501 -0.014801
v 5.192908 13.623292 -0.014801
v 4.605240 13.950176 2.518278
v 2.715147 13.536415 4.310699
v 0.217819 13.379071 4.747294
v -2.174451 13.733274 4.128732
v -4.182917 13.417109 2.525965
v -4.649991 13.854793 -0.014801
v -3.904281 13.907123 -2.394696
v -2.235709 13.551617 -4.264437
v 0.217819 13.364233 -5.001240
v 2.734337 13.965035 -4.373538
v 4.302566 13.693988 -2.373131
v 9.400919 10.880333 -0.014801
v 8.752415 9.453581 4.912650
v 4.881358 10.708023 8.062686
v 0.217819 10.634276 9.719328
v -4.856554 10.927370 8.774270
v -8.448581 10.867875 4.988747
v -10.370548 10.337586 -0.014801
v -8.659178 10.168036 -5.139938
v -5.016605 10.235767 -9.081090
v 0.217819 10.543490 -10.614524
v 5.102767 9.782034 -8.475780
v 8.291975 10.376894 -4.676417
v 16.121859 5.558901 -0.014801
v 13.458943 4.977270 7.629965
v 6.649029 5.003512 11.124382
v 0.217819 5.083627 13.705898
v -7.235620 4.656106 12.894935
v -11.509846 5.965946 6.756169
v -15.423766 4.481299 -0.014801
v -12.184660 5.609146 -7.175376
v -6.960817 4.817510 -12.448564
v 0.217819 6.463142 -14.391381
v 7.768312 5.969655 -13.092638
v 14.339049 6.134857 -8.167698
v 18.917397 -1.553216 -0.014801
v 16.217405 0.796799 9.222564
v 11.425746 1.425358 19.397898
v 0.217819 0.778066 18.988323
v -9.783017 0.324575 17.307156
v -14.889045 -0.881998 8.707150
v -18.917397 -1.480511 -0.014801
v -15.675437 0.563133 -9.190777
v -9.225986 -1.052932 -16.371950
v 0.217819 -1.170552 -19.397898
v 10.517661 -1.486981 -17.854652
v 16.504919 0.202416 -9.418163
vn -0.0000 1.0000 -0.0000
vn 0.3878 0.9213 -0.0289
vn 0.1533 0.9151 0.3729
vn 0.0205 0.8974 0.4407
vn 0.0189 0.8975 0.4407
vn -0.3362 0.9102 0.2418
vn -0.3486 0.9109 0.2210
vn -0.3559 0.9301 -0.0911
vn -0.1989 0.9148 -0.3514
vn -0.0590 0.9028 -0.4260
vn -0.1088 0.8990 -0.4243
vn 0.3626 0.9182 -0.1598
vn 0.3853 0.9152 -0.1180
vn 0.6041 0.7678 0.2133
vn 0.4774 0.7687 0.4257
vn 0.1224 0.8499 0.5125
vn -0.0281 0.8691 0.4938
vn -0.3590 0.8797 0.3118
vn -0.4876 0.8611 0.1438
vn -0.5263 0.8299 -0.1853
vn -0.3858 0.8343 -0.3939
vn -0.1526 0.8690 -0.4706
vn 0.2178 0.8161 -0.5353
vn 0.4728 0.7687 -0.4308
vn 0.5439 0.8137 -0.2051
vn 0.5869 0.7611 0.2762
vn 0.4593 0.6411 0.6148
vn 0.3007 0.5397 0.7864
vn -0.1194 0.5777 0.8074
vn -0.6002 0.5816 0.5490
vn -0.7479 0.6079 0.2667
vn -0.7252 0.6446 -0.2419
vn -0.5464 0.6102 -0.5737
vn -0.3011 0.6118 -0.7315
vn 0.2468 0.7439 -0.6211
vn 0.3405 0.8241 -0.4527
vn 0.5728 0.8102 -0.1247
vn 0.8612 0.4554 0.2259
vn 0.4341 0.8390 0.3282
vn 0.0329 0.8690 0.4938
vn -0.1296 0.7570 0.6404
vn -0.6718 0.6019 0.4318
vn -0.8035 0.4839 0.3468
vn -0.8069 0.5510 -0.2131
vn -0.5204 0.6032 -0.6044
vn -0.2839 0.5616 -0.7772
vn 0.1552 0.5566 -0.8162
vn 0.5950 0.5007 -0.6287
vn 0.9155 0.3645 -0.1704
s 0
f 3//1 2//1 1//1
f 4//1 3//1 1//1
f 5//1 4//1 1//1
f 6//1 5//1 1//1
f 7//1 6//1 1//1
f 8//1 7//1 1//1
f 9//1 8//1 1//1
f 10//1 9//1 1//1
f 11//1 10//1 1//1
f 12//1 11//1 1//1
f 13//1 12//1 1//1
f 2//1 13//1 1//1
f 3//2 15//2 14//2 2//2
f 4//3 16//3 15//3 3//3
f 5//4 17//4 16//4 4//4
f 6//5 18//5 17//5 5//5
f 7//6 19//6 18//6 6//6
f 8//7 20//7 19//7 7//7
f 9//8 21//8 20//8 8//8
f 10//9 22//9 21//9 9//9
f 11//10 23//10 22//10 10//10
f 12//11 24//11 23//11 11//11
f 13//12 25//12 24//12 12//12
f 2//13 14//13 25//13 13//13
f 15//14 27//14 26//14 14//14
f 16//15 28//15 27//15 15//15
f 17//16 29//16 28//16 16//16
f 18//17 30//17 29//17 17//17
f 19//18 31//18 30//18 18//18
f 20//19 32//19 31//19 19//19
f 21//20 33//20 32//20 20//20
f 22//21 34//21 33//21 21//21
f 23//22 35//22 34//22 22//22
f 24//23 36//23 35//23 23//23
f 25//24 37//24 36//24 24//24
f 14//25 26//25 37//25 25//25
f 27//26 39//26 38//26 26//26
f 28//27 40//27 39//27 27//27
f 29//28 41//28 40//28 28//28
f 30//29 42//29 41//29 29//29
f 31//30 43//30 42//30 30//30
f 32//31 44//31 43//31 31//31
f 33//32 45//32 44//32 32//32
f 34//33 46//33 45//33 33//33
f 35//34 47//34 46//34 34//34
f 36//35 48//35 47//35 35//35
f 37//36 49//36 48//36 36//36
f 26//37 38//37 49//37 37//37
f 39//38 51//38 50//38 38//38
f 40//39 52//39 51//39 39//39
f 41//40 53//40 52//40 40//40
f 42//41 54//41 53//41 41//41
f 43//42 55//42 54//42 42//42
f 44//43 56//43 55//43 43//43
f 45//44 57//44 56//44 44//44
f 46//45 58//45 57//45 45//45
f 47//46 59//46 58//46 46//46
f 48//47 60//47 59//47 47//47
f 49//48 61//48 60//48 48//48
f 38//49 50//49 61//49 49//49
