# Blender 4.4.1
# www.blender.org
o Mountain_027
v -2.122303 0.000000 -0.857038
v -2.122303 12.907716 -0.857038
v -2.122303 12.907716 -0.857038
v -2.122303 12.907716 -0.857038
v -2.122303 12.907716 -0.857038
v -2.122303 12.907716 -0.857038
v -2.122303 12.907716 -0.857038
v -2.122303 12.907716 -0.857038
v -2.122303 12.907716 -0.857038
v -2.122303 12.907716 -0.857038
v -2.122303 12.907716 -0.857038
v -2.122303 12.907716 -0.857038
v -2.122303 12.907716 -0.857038
v 3.261768 11.460893 -0.857038
v 2.516574 11.521426 1.821219
v 0.729195 11.081605 4.081900
v -2.122303 11.254053 4.674346
v -4.962142 11.538514 4.061709
v -6.784050 11.497525 1.834423
v -7.555680 11.230214 -0.857038
v -7.206519 11.146996 -3.792411
v -4.895903 11.520570 -5.661055
v -2.122303 11.390315 -6.636651
v 0.766665 11.044523 -5.860877
v 2.832582 11.009408 -3.717741
v 10.093490 7.904506 -0.857038
v 7.433579 8.461287 4.660053
v 3.828249 8.574414 9.449620
v -2.122303 8.188935 9.650202
v -7.574943 7.735959 8.587213
v -12.199977 8.781122 4.961310
v -14.407624 7.867410 -0.857038
v -12.658590 7.844540 -6.940166
v -7.634070 7.758103 -10.403699
v -2.122303 8.104373 -11.544630
v 3.718608 8.573814 -10.973791
v 8.116835 8.443086 -6.768606
v 15.040012 5.449190 -0.857038
v 13.199192 4.210833 7.988832
v 6.353031 4.912263 13.822670
v -2.122303 4.837011 13.932846
v -9.904429 4.225255 12.622003
v -17.472012 4.301012 8.005121
v -20.668476 4.636872 -0.857038
v -18.834372 3.661478 -10.505754
v -10.901394 3.859666 -16.062870
v -2.122303 5.205186 -19.452766
v 7.227504 3.700781 -17.051376
v 12.419832 4.022234 -9.252943
v 24.544041 -1.160789 -0.857038
v 15.159879 0.369980 9.120834
v 8.666162 -0.684109 17.829132
v -2.122303 0.777719 21.221029
v -13.111974 0.920550 18.177631
v -21.148960 -0.984325 10.128008
v -24.544041 0.395939 -0.857038
v -18.470959 -0.226302 -10.295938
v -13.601428 -1.290334 -20.739466
v -2.122303 0.269005 -19.629366
v 9.634853 -0.504439 -21.221029
v 17.380743 -0.756776 -12.117126
vn -0.0000 1.0000 -0.0000
vn 0.2592 0.9645 0.0503
vn 0.1219 0.9518 0.2815
vn 0.1167 0.9516 0.2845
vn 0.0342 0.9575 0.2863
vn -0.2057 0.9670 0.1504
vn -0.2950 0.9554 -0.0103
vn -0.2944 0.9537 -0.0621
vn -0.2580 0.9577 -0.1276
vn -0.0439 0.9663 -0.2537
vn 0.1809 0.9513 -0.2497
vn 0.2388 0.9470 -0.2147
vn 0.2549 0.9485 -0.1879
vn 0.4634 0.8771 0.1265
vn 0.3263 0.8993 0.2913
vn 0.0209 0.8828 0.4693
vn -0.1293 0.8202 0.5573
vn -0.2702 0.8542 0.4442
vn -0.4380 0.8985 0.0286
vn -0.4502 0.8855 -0.1152
vn -0.3333 0.8476 -0.4129
vn -0.1622 0.8182 -0.5516
vn 0.0622 0.8732 -0.4833
vn 0.2910 0.9172 -0.2723
vn 0.4266 0.8980 -0.1081
vn 0.4777 0.8576 0.1904
vn 0.4390 0.8192 0.3691
vn -0.0112 0.7753 0.6315
vn -0.1703 0.7830 0.5983
vn -0.3021 0.7768 0.5525
vn -0.5196 0.8396 0.1582
vn -0.4705 0.8673 -0.1622
vn -0.3067 0.8492 -0.4300
vn -0.2295 0.8912 -0.3912
vn 0.1483 0.8798 -0.4517
vn 0.4857 0.7771 -0.4004
vn 0.5419 0.8100 -0.2244
vn 0.6109 0.7085 0.3533
vn 0.5959 0.5751 0.5606
vn 0.1679 0.7660 0.6205
vn -0.1305 0.8738 0.4684
vn -0.4556 0.7678 0.4504
vn -0.7165 0.6332 0.2927
vn -0.8516 0.3581 -0.3828
vn -0.6818 0.4581 -0.5703
vn -0.1644 0.4631 -0.8709
vn 0.0823 0.4455 -0.8915
vn 0.5254 0.7482 -0.4052
vn 0.5484 0.7753 -0.3133
s 0
f 3//1 2//1 1//1
f 4//1 3//1 1//1
f 5//1 4//1 1//1
f 6//1 5//1 1//1
f 7//1 6//1 1//1
f 8//1 7//1 1//1
f 9//1 8//1 1//1
f 10//1 9//1 1//1
f 11//1 10//1 1//1
f 12//1 11//1 1//1
f 13//1 12//1 1//1
f 2//1 13//1 1//1
f 3//2 15//2 14//2 2//2
f 4//3 16//3 15//3 3//3
f 5//4 17//4 16//4 4//4
f 6//5 18//5 17//5 5//5
f 7//6 19//6 18//6 6//6
f 8//7 20//7 19//7 7//7
f 9//8 21//8 20//8 8//8
f 10//9 22//9 21//9 9//9
f 11//10 23//10 22//10 10//10
f 12//11 24//11 23//11 11//11
f 13//12 25//12 24//12 12//12
f 2//13 14//13 25//13 13//13
f 15//14 27//14 26//14 14//14
f 16//15 28//15 27//15 15//15
f 17//16 29//16 28//16 16//16
f 18//17 30//17 29//17 17//17
f 19//18 31//18 30//18 18//18
f 20//19 32//19 31//19 19//19
f 21//20 33//20 32//20 20//20
f 22//21 34//21 33//21 21//21
f 23//22 35//22 34//22 22//22
f 24//23 36//23 35//23 23//23
f 25//24 37//24 36//24 24//24
f 14//25 26//25 37//25 25//25
f 27//26 39//26 38//26 26//26
f 28//27 40//27 39//27 27//27
f 29//28 41//28 40//28 28//28
f 30//29 42//29 41//29 29//29
f 31//30 43//30 42//30 30//30
f 32//31 44//31 43//31 31//31
f 33//32 45//32 44//32 32//32
f 34//33 46//33 45//33 33//33
f 35//34 47//34 46//34 34//34
f 36//35 48//35 47//35 35//35
f 37//36 49//36 48//36 36//36
f 26//37 38//37 49//37 37//37
f 39//38 51//38 50//38 38//38
f 40//39 52//39 51//39 39//39
f 41//40 53//40 52//40 40//40
f 42//41 54//41 53//41 41//41
f 43//42 55//42 54//42 42//42
f 44//43 56//43 55//43 43//43
f 45//44 57//44 56//44 44//44
f 46//45 58//45 57//45 45//45
f 47//46 59//46 58//46 46//46
f 48//47 60//47 59//47 47//47
f 49//48 61//48 60//48 48//48
f 38//49 50//49 61//49 49//49
