# Blender 4.4.1
# www.blender.org
o Mountain_056
v 0.593167 0.000000 0.019589
v 0.593167 22.604023 0.019589
v 0.593167 22.604023 0.019589
v 0.593167 22.604023 0.019589
v 0.593167 22.604023 0.019589
v 0.593167 22.604023 0.019589
v 0.593167 22.604023 0.019589
v 0.593167 22.604023 0.019589
v 0.593167 22.604023 0.019589
v 0.593167 22.604023 0.019589
v 0.593167 22.604023 0.019589
v 0.593167 22.604023 0.019589
v 0.593167 22.604023 0.019589
v 6.638675 20.012922 0.019589
v 5.709176 19.353317 2.973318
v 3.546400 19.430901 5.134737
v 0.593167 19.865381 5.960902
v -2.211373 19.857910 4.877195
v -4.333859 19.751209 2.864209
v -5.511471 19.349363 0.019589
v -4.713597 19.416565 -3.044273
v -2.201420 20.102612 -4.820778
v 0.593167 20.010908 -5.702468
v 3.642783 19.715487 -5.262500
v 5.834203 19.899286 -3.006325
v 12.105755 13.583774 0.019589
v 11.499353 13.534677 6.316279
v 6.390820 14.420015 10.061419
v 0.593167 14.199504 12.607506
v -4.993296 13.741236 9.695627
v -8.761818 13.862192 5.420692
v -10.314025 14.059749 0.019589
v -8.742078 14.175570 -5.370117
v -5.169560 13.864532 -9.961748
v 0.593167 14.217381 -11.992503
v 5.909528 13.614330 -9.188619
v 10.539242 14.205515 -5.722779
v 17.747328 7.326272 0.019589
v 15.278359 9.033520 8.498089
v 8.399096 6.913776 13.539855
v 0.593167 8.213969 18.966824
v -8.195705 8.778033 15.242363
v -14.135664 6.617173 8.523284
v -14.699858 7.803010 0.019589
v -14.236474 7.868611 -8.542308
v -7.969833 7.019498 -14.811962
v 0.593167 7.139591 -19.635878
v 10.625195 8.515965 -17.356392
v 14.687093 8.107770 -8.117543
v 26.759096 -0.883307 0.019589
v 20.174328 -1.881069 11.324778
v 12.974284 -1.340613 21.464314
v 0.593167 -0.572762 27.901882
v -13.429699 1.274974 24.307907
v -20.052092 -0.344700 11.939135
v -26.759096 -0.218165 0.019589
v -15.686874 -0.159801 -9.379697
v -12.697218 -0.952762 -23.000034
v 0.593167 -2.257948 -27.901882
v 14.372705 -0.080532 -23.847271
v 21.729284 1.534758 -12.183354
vn -0.0000 1.0000 -0.0000
vn 0.3742 0.8730 0.3127
vn 0.3623 0.8712 0.3313
vn 0.2432 0.8809 0.4060
vn -0.1620 0.8962 0.4131
vn -0.3371 0.8896 0.3083
vn -0.4693 0.8803 0.0699
vn -0.4680 0.8778 -0.1026
vn -0.4022 0.8871 -0.2262
vn -0.0998 0.9063 -0.4107
vn 0.1462 0.9010 -0.4083
vn 0.2710 0.9018 -0.3367
vn 0.3902 0.9104 -0.1379
vn 0.7021 0.6916 0.1696
vn 0.4797 0.7411 0.4697
vn 0.2572 0.7410 0.6204
vn -0.3399 0.6959 0.6327
vn -0.5530 0.6513 0.5196
vn -0.7257 0.6505 0.2241
vn -0.7310 0.6552 -0.1907
vn -0.5599 0.6638 -0.4959
vn -0.2495 0.6986 -0.6705
vn 0.3344 0.6499 -0.6825
vn 0.4581 0.6261 -0.6309
vn 0.7379 0.6553 -0.1615
vn 0.7419 0.6658 0.0797
vn 0.4563 0.5498 0.6997
vn 0.4489 0.5691 0.6889
vn -0.2758 0.7433 0.6094
vn -0.5954 0.6989 0.3961
vn -0.7775 0.6030 0.1783
vn -0.7689 0.6309 -0.1040
vn -0.5209 0.6593 -0.5423
vn -0.3401 0.6650 -0.6649
vn 0.1498 0.8044 -0.5748
vn 0.5256 0.7658 -0.3706
vn 0.7521 0.6321 -0.1868
vn 0.7434 0.5878 0.3191
vn 0.5555 0.5983 0.5774
vn 0.4166 0.6935 0.5879
vn -0.1272 0.7536 0.6449
vn -0.6333 0.7240 0.2734
vn -0.5889 0.7656 0.2589
vn -0.6788 0.5939 -0.4319
vn -0.7592 0.5165 -0.3960
vn -0.2581 0.7005 -0.6653
vn 0.1056 0.6436 -0.7580
vn 0.6123 0.6962 -0.3747
vn 0.6509 0.7458 -0.1416
s 0
f 3//1 2//1 1//1
f 4//1 3//1 1//1
f 5//1 4//1 1//1
f 6//1 5//1 1//1
f 7//1 6//1 1//1
f 8//1 7//1 1//1
f 9//1 8//1 1//1
f 10//1 9//1 1//1
f 11//1 10//1 1//1
f 12//1 11//1 1//1
f 13//1 12//1 1//1
f 2//1 13//1 1//1
f 3//2 15//2 14//2 2//2
f 4//3 16//3 15//3 3//3
f 5//4 17//4 16//4 4//4
f 6//5 18//5 17//5 5//5
f 7//6 19//6 18//6 6//6
f 8//7 20//7 19//7 7//7
f 9//8 21//8 20//8 8//8
f 10//9 22//9 21//9 9//9
f 11//10 23//10 22//10 10//10
f 12//11 24//11 23//11 11//11
f 13//12 25//12 24//12 12//12
f 2//13 14//13 25//13 13//13
f 15//14 27//14 26//14 14//14
f 16//15 28//15 27//15 15//15
f 17//16 29//16 28//16 16//16
f 18//17 30//17 29//17 17//17
f 19//18 31//18 30//18 18//18
f 20//19 32//19 31//19 19//19
f 21//20 33//20 32//20 20//20
f 22//21 34//21 33//21 21//21
f 23//22 35//22 34//22 22//22
f 24//23 36//23 35//23 23//23
f 25//24 37//24 36//24 24//24
f 14//25 26//25 37//25 25//25
f 27//26 39//26 38//26 26//26
f 28//27 40//27 39//27 27//27
f 29//28 41//28 40//28 28//28
f 30//29 42//29 41//29 29//29
f 31//30 43//30 42//30 30//30
f 32//31 44//31 43//31 31//31
f 33//32 45//32 44//32 32//32
f 34//33 46//33 45//33 33//33
f 35//34 47//34 46//34 34//34
f 36//35 48//35 47//35 35//35
f 37//36 49//36 48//36 36//36
f 26//37 38//37 49//37 37//37
f 39//38 51//38 50//38 38//38
f 40//39 52//39 51//39 39//39
f 41//40 53//40 52//40 40//40
f 42//41 54//41 53//41 41//41
f 43//42 55//42 54//42 42//42
f 44//43 56//43 55//43 43//43
f 45//44 57//44 56//44 44//44
f 46//45 58//45 57//45 45//45
f 47//46 59//46 58//46 46//46
f 48//47 60//47 59//47 47//47
f 49//48 61//48 60//48 48//48
f 38//49 50//49 61//49 49//49
