# Blender 4.4.1
# www.blender.org
o Mountain_031
v -0.746047 0.000000 0.916588
v -0.746047 12.894837 0.916588
v -0.746047 12.894837 0.916588
v -0.746047 12.894837 0.916588
v -0.746047 12.894837 0.916588
v -0.746047 12.894837 0.916588
v -0.746047 12.894837 0.916588
v -0.746047 12.894837 0.916588
v -0.746047 12.894837 0.916588
v -0.746047 12.894837 0.916588
v -0.746047 12.894837 0.916588
v -0.746047 12.894837 0.916588
v -0.746047 12.894837 0.916588
v 3.159347 11.271448 0.916588
v 2.675865 11.284166 2.892229
v 1.138627 11.067385 4.180940
v -0.746047 11.375488 4.661738
v -2.644907 11.081118 4.205509
v -4.086007 11.423086 2.844914
v -4.507326 11.109125 0.916588
v -4.238049 11.424991 -1.099521
v -2.697699 11.269323 -2.463773
v -0.746047 11.064573 -2.880814
v 1.274400 10.975083 -2.582930
v 2.485853 11.330362 -0.949351
v 6.544950 8.502864 0.916588
v 5.402958 8.429014 4.466717
v 2.817160 8.024103 7.088244
v -0.746047 8.926715 8.237162
v -4.734287 8.417841 7.824421
v -6.867186 8.618926 4.450629
v -8.820114 8.056592 0.916588
v -6.958122 8.270322 -2.669955
v -5.041982 8.809454 -6.524190
v -0.746047 8.761822 -6.389172
v 3.243351 8.715726 -5.993253
v 6.461294 7.925619 -3.244573
v 11.547428 4.063925 0.916588
v 10.097124 4.215086 7.176895
v 5.037870 4.694628 10.934626
v -0.746047 4.297852 11.697268
v -5.923030 3.943670 9.883385
v -12.001926 4.527827 7.415173
v -12.195362 3.841567 0.916588
v -9.675442 4.472720 -4.238801
v -6.813771 3.627787 -9.593019
v -0.746047 4.525834 -11.814075
v 4.446679 4.485044 -8.077477
v 8.287070 4.719538 -4.298685
v 16.945333 1.023770 0.916588
v 14.289843 0.384864 9.597563
v 7.143980 -0.334292 14.582515
v -0.746047 0.076896 13.702076
v -7.720829 0.779622 12.997263
v -15.861509 -0.306287 9.643504
v -16.945333 0.622547 0.916588
v -15.709701 0.507303 -7.722682
v -7.308598 -0.944204 -10.450084
v -0.746047 -0.689841 -14.582515
v 8.198287 -0.558948 -14.575455
v 14.841974 -0.235597 -8.083161
vn -0.0000 1.0000 -0.0000
vn 0.3824 0.9198 0.0877
vn 0.1990 0.8996 0.3887
vn 0.2401 0.8995 0.3649
vn -0.2278 0.9023 0.3660
vn -0.1652 0.9009 0.4014
vn -0.4283 0.9021 -0.0533
vn -0.4274 0.9002 0.0840
vn -0.1984 0.9231 -0.3294
vn 0.0017 0.9008 -0.4342
vn 0.1034 0.8960 -0.4319
vn 0.2267 0.9032 -0.3646
vn 0.3816 0.9179 -0.1087
vn 0.6363 0.7463 0.1954
vn 0.4124 0.7261 0.5502
vn 0.3355 0.7598 0.5569
vn -0.1910 0.8255 0.5311
vn -0.4383 0.7936 0.4219
vn -0.6112 0.7789 0.1407
vn -0.6309 0.7574 -0.1684
vn -0.5395 0.7870 -0.2995
vn 0.0100 0.8449 -0.5348
vn 0.0805 0.8425 -0.5326
vn 0.4380 0.8233 -0.3610
vn 0.6093 0.7799 -0.1436
vn 0.6317 0.7583 0.1609
vn 0.4035 0.7823 0.4745
vn 0.1804 0.6920 0.6990
vn -0.2472 0.5258 0.8139
vn -0.3908 0.6630 0.6385
vn -0.6871 0.7243 0.0569
vn -0.7281 0.6135 -0.3057
vn -0.7241 0.5657 -0.3945
vn -0.1982 0.6768 -0.7090
vn 0.3155 0.6544 -0.6872
vn 0.6068 0.5059 -0.6131
vn 0.7058 0.6643 -0.2462
vn 0.5435 0.8207 0.1761
vn 0.4093 0.6955 0.5905
vn -0.0068 0.5203 0.8540
vn -0.1481 0.5875 0.7956
vn -0.3020 0.6679 0.6802
vn -0.6721 0.7374 0.0681
vn -0.5257 0.8433 -0.1116
vn -0.3649 0.6284 -0.6870
vn -0.4480 0.3304 -0.8307
vn 0.1800 0.6948 -0.6964
vn 0.3738 0.8237 -0.4263
vn 0.4927 0.8415 -0.2217
s 0
f 3//1 2//1 1//1
f 4//1 3//1 1//1
f 5//1 4//1 1//1
f 6//1 5//1 1//1
f 7//1 6//1 1//1
f 8//1 7//1 1//1
f 9//1 8//1 1//1
f 10//1 9//1 1//1
f 11//1 10//1 1//1
f 12//1 11//1 1//1
f 13//1 12//1 1//1
f 2//1 13//1 1//1
f 3//2 15//2 14//2 2//2
f 4//3 16//3 15//3 3//3
f 5//4 17//4 16//4 4//4
f 6//5 18//5 17//5 5//5
f 7//6 19//6 18//6 6//6
f 8//7 20//7 19//7 7//7
f 9//8 21//8 20//8 8//8
f 10//9 22//9 21//9 9//9
f 11//10 23//10 22//10 10//10
f 12//11 24//11 23//11 11//11
f 13//12 25//12 24//12 12//12
f 2//13 14//13 25//13 13//13
f 15//14 27//14 26//14 14//14
f 16//15 28//15 27//15 15//15
f 17//16 29//16 28//16 16//16
f 18//17 30//17 29//17 17//17
f 19//18 31//18 30//18 18//18
f 20//19 32//19 31//19 19//19
f 21//20 33//20 32//20 20//20
f 22//21 34//21 33//21 21//21
f 23//22 35//22 34//22 22//22
f 24//23 36//23 35//23 23//23
f 25//24 37//24 36//24 24//24
f 14//25 26//25 37//25 25//25
f 27//26 39//26 38//26 26//26
f 28//27 40//27 39//27 27//27
f 29//28 41//28 40//28 28//28
f 30//29 42//29 41//29 29//29
f 31//30 43//30 42//30 30//30
f 32//31 44//31 43//31 31//31
f 33//32 45//32 44//32 32//32
f 34//33 46//33 45//33 33//33
f 35//34 47//34 46//34 34//34
f 36//35 48//35 47//35 35//35
f 37//36 49//36 48//36 36//36
f 26//37 38//37 49//37 37//37
f 39//38 51//38 50//38 38//38
f 40//39 52//39 51//39 39//39
f 41//40 53//40 52//40 40//40
f 42//41 54//41 53//41 41//41
f 43//42 55//42 54//42 42//42
f 44//43 56//43 55//43 43//43
f 45//44 57//44 56//44 44//44
f 46//45 58//45 57//45 45//45
f 47//46 59//46 58//46 46//46
f 48//47 60//47 59//47 47//47
f 49//48 61//48 60//48 48//48
f 38//49 50//49 61//49 49//49
