# Blender 4.4.1
# www.blender.org
o Mountain_051
v 3.247718 0.000000 -2.635467
v 3.247718 20.734373 -2.635467
v 3.247718 20.734373 -2.635467
v 3.247718 20.734373 -2.635467
v 3.247718 20.734373 -2.635467
v 3.247718 20.734373 -2.635467
v 3.247718 20.734373 -2.635467
v 3.247718 20.734373 -2.635467
v 3.247718 20.734373 -2.635467
v 3.247718 20.734373 -2.635467
v 3.247718 20.734373 -2.635467
v 3.247718 20.734373 -2.635467
v 3.247718 20.734373 -2.635467
v 10.039238 18.039591 -2.635467
v 9.429775 17.949457 0.933746
v 6.624497 17.787834 3.213287
v 3.247718 18.629486 4.424070
v -0.392794 18.415401 3.670085
v -3.067807 18.335150 1.010803
v -4.006539 17.955343 -2.635467
v -2.842826 18.386383 -6.151844
v -0.191947 18.336926 -8.593141
v 3.247718 18.453102 -9.913775
v 6.665528 18.053932 -8.555287
v 9.157300 18.532787 -6.047366
v 18.597582 14.200573 -2.635467
v 14.782551 14.332791 4.024172
v 10.892139 13.708681 10.605060
v 3.247718 14.247232 11.817525
v -4.468615 12.778039 10.729613
v -9.451159 12.716851 4.696233
v -10.569284 13.256250 -2.635467
v -8.374206 12.551609 -9.345387
v -3.614105 14.330997 -14.520492
v 3.247718 13.856884 -15.652705
v 10.204320 14.274486 -14.684655
v 15.342194 13.763635 -9.618216
v 21.971870 7.931219 -2.635467
v 19.859009 8.392682 6.955066
v 14.714499 6.607531 17.225582
v 3.247718 6.116865 18.471546
v -8.454447 7.578276 17.633276
v -17.783888 6.591997 9.507136
v -19.020231 7.012999 -2.635467
v -14.561018 6.165830 -12.917345
v -6.658861 6.526162 -19.794165
v 3.247718 8.533856 -24.525944
v 13.406264 7.840102 -20.230585
v 21.329144 5.744022 -13.074783
v 27.303452 -0.732977 -2.635467
v 29.547781 0.774854 12.548882
v 18.546597 0.864429 23.862967
v 3.247718 -1.010902 28.219042
v -8.566309 -1.829799 17.827028
v -19.535013 -1.099579 10.518149
v -29.547781 2.059916 -2.635467
v -25.457695 1.937461 -19.208546
v -11.402159 1.029428 -28.009796
v 3.247718 -1.021554 -25.702303
v 18.018402 -0.818977 -28.219042
v 26.634323 -0.535356 -16.137730
vn -0.0000 1.0000 -0.0000
vn 0.3674 0.9260 0.0861
vn 0.2194 0.9163 0.3350
vn 0.3230 0.9069 0.2704
vn -0.1148 0.9520 0.2838
vn -0.2383 0.9480 0.2111
vn -0.3577 0.9338 -0.0052
vn -0.3577 0.9338 -0.0039
vn -0.2166 0.9426 -0.2543
vn -0.1455 0.9441 -0.2959
vn 0.2244 0.9299 -0.2915
vn 0.1551 0.9305 -0.3318
vn 0.3685 0.9288 0.0390
vn 0.4324 0.8828 0.1834
vn 0.3392 0.8793 0.3343
vn 0.2063 0.8737 0.4405
vn -0.2070 0.8304 0.5173
vn -0.4581 0.7985 0.3906
vn -0.5968 0.7929 0.1233
vn -0.6071 0.7636 -0.2198
vn -0.5241 0.7844 -0.3318
vn -0.1073 0.8150 -0.5695
vn 0.1214 0.8277 -0.5479
vn 0.3741 0.8490 -0.3732
vn 0.4632 0.8679 -0.1797
vn 0.7646 0.5910 0.2573
vn 0.5829 0.7000 0.4126
vn 0.0966 0.6676 0.7382
vn -0.0686 0.7214 0.6891
vn -0.4198 0.8319 0.3628
vn -0.5693 0.8149 0.1090
vn -0.5813 0.7577 -0.2968
vn -0.5688 0.6686 -0.4789
vn -0.2834 0.7326 -0.6188
vn 0.1951 0.7809 -0.5934
vn 0.5776 0.6634 -0.4757
vn 0.7776 0.5724 -0.2602
vn 0.7435 0.6663 -0.0569
vn 0.4412 0.8066 0.3934
vn 0.0574 0.7916 0.6084
vn -0.3670 0.4811 0.7961
vn -0.6018 0.1212 0.7894
vn -0.6478 0.6595 0.3814
vn -0.3532 0.9241 -0.1458
vn -0.2320 0.9050 -0.3566
vn -0.0814 0.5459 -0.8339
vn 0.0722 0.4628 -0.8835
vn 0.5743 0.6979 -0.4280
vn 0.8021 0.5900 -0.0930
s 0
f 3//1 2//1 1//1
f 4//1 3//1 1//1
f 5//1 4//1 1//1
f 6//1 5//1 1//1
f 7//1 6//1 1//1
f 8//1 7//1 1//1
f 9//1 8//1 1//1
f 10//1 9//1 1//1
f 11//1 10//1 1//1
f 12//1 11//1 1//1
f 13//1 12//1 1//1
f 2//1 13//1 1//1
f 3//2 15//2 14//2 2//2
f 4//3 16//3 15//3 3//3
f 5//4 17//4 16//4 4//4
f 6//5 18//5 17//5 5//5
f 7//6 19//6 18//6 6//6
f 8//7 20//7 19//7 7//7
f 9//8 21//8 20//8 8//8
f 10//9 22//9 21//9 9//9
f 11//10 23//10 22//10 10//10
f 12//11 24//11 23//11 11//11
f 13//12 25//12 24//12 12//12
f 2//13 14//13 25//13 13//13
f 15//14 27//14 26//14 14//14
f 16//15 28//15 27//15 15//15
f 17//16 29//16 28//16 16//16
f 18//17 30//17 29//17 17//17
f 19//18 31//18 30//18 18//18
f 20//19 32//19 31//19 19//19
f 21//20 33//20 32//20 20//20
f 22//21 34//21 33//21 21//21
f 23//22 35//22 34//22 22//22
f 24//23 36//23 35//23 23//23
f 25//24 37//24 36//24 24//24
f 14//25 26//25 37//25 25//25
f 27//26 39//26 38//26 26//26
f 28//27 40//27 39//27 27//27
f 29//28 41//28 40//28 28//28
f 30//29 42//29 41//29 29//29
f 31//30 43//30 42//30 30//30
f 32//31 44//31 43//31 31//31
f 33//32 45//32 44//32 32//32
f 34//33 46//33 45//33 33//33
f 35//34 47//34 46//34 34//34
f 36//35 48//35 47//35 35//35
f 37//36 49//36 48//36 36//36
f 26//37 38//37 49//37 37//37
f 39//38 51//38 50//38 38//38
f 40//39 52//39 51//39 39//39
f 41//40 53//40 52//40 40//40
f 42//41 54//41 53//41 41//41
f 43//42 55//42 54//42 42//42
f 44//43 56//43 55//43 43//43
f 45//44 57//44 56//44 44//44
f 46//45 58//45 57//45 45//45
f 47//46 59//46 58//46 46//46
f 48//47 60//47 59//47 47//47
f 49//48 61//48 60//48 48//48
f 38//49 50//49 61//49 49//49
