# Blender 4.4.1
# www.blender.org
o Mountain_008
v -0.075244 0.000000 0.689339
v -0.075244 13.409965 0.689339
v -0.075244 13.409965 0.689339
v -0.075244 13.409965 0.689339
v -0.075244 13.409965 0.689339
v -0.075244 13.409965 0.689339
v -0.075244 13.409965 0.689339
v -0.075244 13.409965 0.689339
v -0.075244 13.409965 0.689339
v -0.075244 13.409965 0.689339
v -0.075244 13.409965 0.689339
v -0.075244 13.409965 0.689339
v -0.075244 13.409965 0.689339
v 6.787198 11.751209 0.689339
v 5.870095 11.717792 4.121882
v 3.368138 11.742595 6.653452
v -0.075244 11.736293 7.127866
v -3.574709 11.427547 6.750589
v -6.042381 11.979779 4.134467
v -6.790098 11.705586 0.689339
v -6.147295 11.439253 -2.816361
v -3.418443 11.667753 -5.101251
v -0.075244 11.727194 -6.135835
v 3.412255 11.447745 -5.351188
v 5.484283 11.806333 -2.520456
v 12.161660 8.367124 0.689339
v 11.839213 8.733672 7.568154
v 6.390967 9.332120 11.889146
v -0.075244 8.606759 14.172196
v -6.917006 8.131326 12.539618
v -12.149169 9.141920 7.660222
v -13.880690 9.029504 0.689339
v -12.193411 8.286673 -6.307087
v -6.710803 8.304737 -10.803786
v -0.075244 8.606468 -12.279926
v 6.512653 8.125837 -10.721235
v 11.360338 8.890235 -5.912998
v 19.268175 4.001222 0.689339
v 19.542154 3.829228 12.015450
v 10.975839 3.881721 19.830378
v -0.075244 5.180274 18.357887
v -11.066016 4.813326 19.725912
v -17.935165 4.823818 11.000770
v -19.149376 3.940057 0.689339
v -16.719017 5.032519 -8.919948
v -10.880625 5.440352 -18.026129
v -0.075244 5.642118 -20.745192
v 10.278234 4.401524 -17.243410
v 17.740042 4.122113 -9.596322
v 28.407007 -0.739573 0.689339
v 19.498419 0.926289 11.990198
v 12.615791 0.704306 22.670858
v -0.075244 0.823966 28.285667
v -15.326368 1.272731 27.105059
v -26.242807 0.304603 15.797189
v -28.407007 -1.270584 0.689339
v -27.270203 0.883612 -15.011677
v -12.229634 -0.857122 -20.362682
v -0.075244 -0.512302 -28.285667
v 12.467113 -1.324621 -21.034662
v 26.569872 0.177873 -14.694226
vn -0.0000 1.0000 -0.0000
vn 0.2343 0.9695 0.0720
vn 0.1792 0.9694 0.1676
vn 0.0329 0.9673 0.2514
vn -0.1118 0.9618 0.2500
vn -0.0732 0.9596 0.2716
vn -0.2460 0.9690 -0.0237
vn -0.2443 0.9625 -0.1179
vn -0.2177 0.9622 -0.1638
vn -0.0910 0.9669 -0.2384
vn 0.1305 0.9626 -0.2373
vn 0.1457 0.9626 -0.2286
vn 0.2342 0.9690 -0.0784
vn 0.4824 0.8754 0.0297
vn 0.2978 0.9180 0.2620
vn 0.0443 0.9147 0.4018
vn -0.1482 0.8992 0.4116
vn -0.1981 0.8988 0.3909
vn -0.3726 0.9264 0.0543
vn -0.3620 0.9168 -0.1684
vn -0.2995 0.8951 -0.3301
vn -0.1437 0.8844 -0.4441
vn 0.1700 0.8788 -0.4459
vn 0.2612 0.8925 -0.3678
vn 0.4764 0.8778 -0.0504
vn 0.5322 0.8466 -0.0076
vn 0.3563 0.8600 0.3654
vn 0.0534 0.8153 0.5766
vn -0.0483 0.8667 0.4964
vn -0.3137 0.8844 0.3455
vn -0.6355 0.7695 0.0640
vn -0.6208 0.7718 -0.1377
vn -0.3438 0.9030 -0.2578
vn -0.1046 0.9410 -0.3218
vn 0.1994 0.9125 -0.3571
vn 0.3445 0.8611 -0.3740
vn 0.5519 0.8327 -0.0444
vn 0.6318 0.7511 0.1915
vn 0.6847 0.4465 0.5760
vn 0.1370 0.8607 0.4903
vn 0.0058 0.9092 0.4163
vn -0.3353 0.9071 0.2543
vn -0.4885 0.8723 -0.0195
vn -0.4399 0.8965 0.0530
vn -0.3162 0.7873 -0.5293
vn -0.3464 0.6057 -0.7163
vn 0.3616 0.6775 -0.6405
vn 0.2897 0.8054 -0.5171
vn 0.4305 0.9024 -0.0199
s 0
f 3//1 2//1 1//1
f 4//1 3//1 1//1
f 5//1 4//1 1//1
f 6//1 5//1 1//1
f 7//1 6//1 1//1
f 8//1 7//1 1//1
f 9//1 8//1 1//1
f 10//1 9//1 1//1
f 11//1 10//1 1//1
f 12//1 11//1 1//1
f 13//1 12//1 1//1
f 2//1 13//1 1//1
f 3//2 15//2 14//2 2//2
f 4//3 16//3 15//3 3//3
f 5//4 17//4 16//4 4//4
f 6//5 18//5 17//5 5//5
f 7//6 19//6 18//6 6//6
f 8//7 20//7 19//7 7//7
f 9//8 21//8 20//8 8//8
f 10//9 22//9 21//9 9//9
f 11//10 23//10 22//10 10//10
f 12//11 24//11 23//11 11//11
f 13//12 25//12 24//12 12//12
f 2//13 14//13 25//13 13//13
f 15//14 27//14 26//14 14//14
f 16//15 28//15 27//15 15//15
f 17//16 29//16 28//16 16//16
f 18//17 30//17 29//17 17//17
f 19//18 31//18 30//18 18//18
f 20//19 32//19 31//19 19//19
f 21//20 33//20 32//20 20//20
f 22//21 34//21 33//21 21//21
f 23//22 35//22 34//22 22//22
f 24//23 36//23 35//23 23//23
f 25//24 37//24 36//24 24//24
f 14//25 26//25 37//25 25//25
f 27//26 39//26 38//26 26//26
f 28//27 40//27 39//27 27//27
f 29//28 41//28 40//28 28//28
f 30//29 42//29 41//29 29//29
f 31//30 43//30 42//30 30//30
f 32//31 44//31 43//31 31//31
f 33//32 45//32 44//32 32//32
f 34//33 46//33 45//33 33//33
f 35//34 47//34 46//34 34//34
f 36//35 48//35 47//35 35//35
f 37//36 49//36 48//36 36//36
f 26//37 38//37 49//37 37//37
f 39//38 51//38 50//38 38//38
f 40//39 52//39 51//39 39//39
f 41//40 53//40 52//40 40//40
f 42//41 54//41 53//41 41//41
f 43//42 55//42 54//42 42//42
f 44//43 56//43 55//43 43//43
f 45//44 57//44 56//44 44//44
f 46//45 58//45 57//45 45//45
f 47//46 59//46 58//46 46//46
f 48//47 60//47 59//47 47//47
f 49//48 61//48 60//48 48//48
f 38//49 50//49 61//49 49//49
