# Blender 4.4.1
# www.blender.org
o Mountain_042
v 2.264616 0.000000 -2.793000
v 2.264616 18.091139 -2.793000
v 2.264616 18.091139 -2.793000
v 2.264616 18.091139 -2.793000
v 2.264616 18.091139 -2.793000
v 2.264616 18.091139 -2.793000
v 2.264616 18.091139 -2.793000
v 2.264616 18.091139 -2.793000
v 2.264616 18.091139 -2.793000
v 2.264616 18.091139 -2.793000
v 2.264616 18.091139 -2.793000
v 2.264616 18.091139 -2.793000
v 2.264616 18.091139 -2.793000
v 8.027891 15.950675 -2.793000
v 7.630959 15.660142 0.305260
v 5.138639 15.688225 2.184955
v 2.264616 15.801587 3.391743
v -0.747769 15.801915 2.424603
v -3.068230 15.758301 0.285920
v -4.029673 16.099506 -2.793000
v -2.836545 15.409423 -5.738157
v -0.871181 16.055367 -8.224360
v 2.264616 15.887373 -8.946722
v 5.141240 15.805469 -7.775459
v 7.303177 15.424161 -5.702015
v 15.479155 12.253783 -2.793000
v 12.945751 11.309280 3.373756
v 7.779346 11.705079 6.758792
v 2.264616 11.293058 10.087179
v -3.310320 11.298709 6.863072
v -8.903315 10.816093 3.654807
v -8.834738 11.106295 -2.793000
v -8.348680 11.063820 -8.920588
v -3.688335 12.251874 -13.103813
v 2.264616 12.058180 -14.252668
v 8.263616 12.236553 -13.183574
v 13.441208 11.410649 -9.245809
v 18.065418 5.377437 -2.793000
v 19.932775 5.402077 7.407716
v 11.279369 7.680028 12.821012
v 2.264616 5.629475 16.722609
v -6.599147 6.713932 12.559486
v -12.012344 6.976578 5.449806
v -14.947851 6.726649 -2.793000
v -14.566593 5.298535 -12.510503
v -5.861065 6.065826 -16.867092
v 2.264616 7.008571 -19.768766
v 11.973844 6.428850 -19.609877
v 17.333906 6.898551 -11.493259
v 26.088577 -1.283929 -2.793000
v 26.195864 -1.766191 11.023712
v 16.355444 -0.185179 21.613031
v 2.264616 1.670763 22.994034
v -10.650000 -1.660703 19.575769
v -22.062122 0.497232 11.252048
v -26.195864 -0.246814 -2.793000
v -22.064873 1.296613 -16.839636
v -8.975264 -0.842729 -22.261042
v 2.264616 0.558449 -22.994034
v 13.774960 0.988323 -22.729502
v 25.185455 0.847799 -16.026354
vn -0.0000 1.0000 -0.0000
vn 0.3451 0.9293 0.1314
vn 0.2409 0.9212 0.3056
vn 0.1798 0.9225 0.3415
vn -0.1107 0.9320 0.3450
vn -0.2571 0.9308 0.2600
vn -0.2958 0.9349 0.1960
vn -0.2851 0.9011 -0.3267
vn -0.4189 0.9029 -0.0966
vn -0.0272 0.9411 -0.3370
vn 0.1619 0.9290 -0.3327
vn 0.3606 0.9090 -0.2088
vn 0.3373 0.9081 -0.2484
vn 0.4692 0.8437 0.2609
vn 0.3730 0.7949 0.4786
vn 0.2637 0.7991 0.5403
vn -0.2755 0.7772 0.5657
vn -0.3930 0.7677 0.5061
vn -0.6592 0.7437 0.1111
vn -0.6297 0.7562 -0.1776
vn -0.5131 0.8088 -0.2874
vn -0.0876 0.8086 -0.5817
vn 0.1268 0.8331 -0.5383
vn 0.3998 0.8606 -0.3154
vn 0.4267 0.8683 -0.2530
vn 0.7885 0.6114 0.0664
vn 0.4076 0.8260 0.3892
vn 0.1489 0.8055 0.5736
vn -0.2391 0.7772 0.5821
vn -0.4530 0.7594 0.4670
vn -0.6459 0.7526 0.1281
vn -0.6131 0.7828 -0.1062
vn -0.4640 0.6771 -0.5711
vn -0.2427 0.6452 -0.7244
vn 0.0706 0.7489 -0.6589
vn 0.5162 0.7411 -0.4293
vn 0.8500 0.5098 -0.1326
vn 0.7006 0.7122 -0.0440
vn 0.5207 0.7417 0.4228
vn 0.1271 0.8006 0.5856
vn -0.2868 0.7442 0.6033
vn -0.3573 0.7811 0.5121
vn -0.5060 0.8538 0.1224
vn -0.4880 0.8684 -0.0884
vn -0.2250 0.7611 -0.6084
vn -0.2178 0.5645 -0.7962
vn 0.0209 0.4731 -0.8807
vn 0.4481 0.7249 -0.5232
vn 0.6369 0.7668 0.0802
s 0
f 3//1 2//1 1//1
f 4//1 3//1 1//1
f 5//1 4//1 1//1
f 6//1 5//1 1//1
f 7//1 6//1 1//1
f 8//1 7//1 1//1
f 9//1 8//1 1//1
f 10//1 9//1 1//1
f 11//1 10//1 1//1
f 12//1 11//1 1//1
f 13//1 12//1 1//1
f 2//1 13//1 1//1
f 3//2 15//2 14//2 2//2
f 4//3 16//3 15//3 3//3
f 5//4 17//4 16//4 4//4
f 6//5 18//5 17//5 5//5
f 7//6 19//6 18//6 6//6
f 8//7 20//7 19//7 7//7
f 9//8 21//8 20//8 8//8
f 10//9 22//9 21//9 9//9
f 11//10 23//10 22//10 10//10
f 12//11 24//11 23//11 11//11
f 13//12 25//12 24//12 12//12
f 2//13 14//13 25//13 13//13
f 15//14 27//14 26//14 14//14
f 16//15 28//15 27//15 15//15
f 17//16 29//16 28//16 16//16
f 18//17 30//17 29//17 17//17
f 19//18 31//18 30//18 18//18
f 20//19 32//19 31//19 19//19
f 21//20 33//20 32//20 20//20
f 22//21 34//21 33//21 21//21
f 23//22 35//22 34//22 22//22
f 24//23 36//23 35//23 23//23
f 25//24 37//24 36//24 24//24
f 14//25 26//25 37//25 25//25
f 27//26 39//26 38//26 26//26
f 28//27 40//27 39//27 27//27
f 29//28 41//28 40//28 28//28
f 30//29 42//29 41//29 29//29
f 31//30 43//30 42//30 30//30
f 32//31 44//31 43//31 31//31
f 33//32 45//32 44//32 32//32
f 34//33 46//33 45//33 33//33
f 35//34 47//34 46//34 34//34
f 36//35 48//35 47//35 35//35
f 37//36 49//36 48//36 36//36
f 26//37 38//37 49//37 37//37
f 39//38 51//38 50//38 38//38
f 40//39 52//39 51//39 39//39
f 41//40 53//40 52//40 40//40
f 42//41 54//41 53//41 41//41
f 43//42 55//42 54//42 42//42
f 44//43 56//43 55//43 43//43
f 45//44 57//44 56//44 44//44
f 46//45 58//45 57//45 45//45
f 47//46 59//46 58//46 46//46
f 48//47 60//47 59//47 47//47
f 49//48 61//48 60//48 48//48
f 38//49 50//49 61//49 49//49
