# Blender 4.4.1
# www.blender.org
o Mountain_043
v -0.125117 0.000000 -1.806806
v -0.125117 19.663897 -1.806806
v -0.125117 19.663897 -1.806806
v -0.125117 19.663897 -1.806806
v -0.125117 19.663897 -1.806806
v -0.125117 19.663897 -1.806806
v -0.125117 19.663897 -1.806806
v -0.125117 19.663897 -1.806806
v -0.125117 19.663897 -1.806806
v -0.125117 19.663897 -1.806806
v -0.125117 19.663897 -1.806806
v -0.125117 19.663897 -1.806806
v -0.125117 19.663897 -1.806806
v 4.923294 17.665224 -1.806806
v 4.390236 17.398275 0.800135
v 2.320666 17.173420 2.429415
v -0.125117 17.342358 3.427227
v -2.738751 16.986052 2.720141
v -4.436759 17.602522 0.682522
v -5.275744 17.032282 -1.806806
v -4.321652 16.787066 -4.229676
v -2.702242 17.090677 -6.270518
v -0.125117 16.773361 -6.738152
v 2.496770 16.974529 -6.348047
v 4.192428 17.197771 -4.299541
v 10.765224 12.928555 -1.806806
v 8.002938 12.696041 2.885929
v 4.532943 13.240043 6.261190
v -0.125117 12.993518 7.658796
v -5.554261 13.135221 7.596748
v -8.122602 11.871853 2.810544
v -10.298791 12.221234 -1.806806
v -8.717806 13.491357 -6.767797
v -4.788173 12.987613 -9.883456
v -0.125117 13.035338 -12.705788
v 4.655881 13.105045 -10.087736
v 9.264553 12.858431 -7.227934
v 14.990143 8.189376 -1.806806
v 12.868515 6.703218 5.695071
v 8.174271 7.720469 12.568155
v -0.125117 7.010184 14.527160
v -6.527056 8.231391 9.281679
v -14.398160 6.838924 6.433740
v -15.474463 8.175014 -1.806806
v -12.603692 7.428161 -9.011314
v -7.423729 7.281970 -14.448373
v -0.125117 5.684459 -18.923645
v 7.475943 8.251360 -14.972226
v 11.264947 6.772774 -8.382862
v 22.074560 0.581236 -1.806806
v 15.001006 -1.811709 6.926266
v 9.440672 -1.215216 14.761626
v -0.125117 1.559192 19.826139
v -10.679730 -0.553495 16.474321
v -14.613594 0.522239 6.558121
v -22.074560 -1.416025 -1.806806
v -15.365726 0.864185 -10.605975
v -10.528584 -0.042346 -19.826139
v -0.125117 0.159482 -18.361166
v 9.134007 0.133479 -17.844078
v 19.571133 -0.199363 -13.178441
vn -0.0000 1.0000 -0.0000
vn 0.3629 0.9166 0.1681
vn 0.2170 0.8911 0.3986
vn 0.2228 0.8911 0.3953
vn -0.2281 0.8900 0.3948
vn -0.1821 0.8888 0.4206
vn -0.4544 0.8894 -0.0506
vn -0.4393 0.8599 -0.2600
vn -0.4548 0.8596 -0.2330
vn 0.0145 0.8626 -0.5056
vn 0.0090 0.8627 -0.5057
vn 0.3048 0.8862 -0.3489
vn 0.3543 0.8948 -0.2717
vn 0.6288 0.7032 0.3320
vn 0.5048 0.6931 0.5146
vn 0.2180 0.7101 0.6695
vn -0.0825 0.7532 0.6526
vn -0.6451 0.6851 0.3384
vn -0.7110 0.6443 0.2817
vn -0.6311 0.7678 -0.1101
vn -0.4202 0.7688 -0.4820
vn -0.2365 0.7765 -0.5840
vn 0.2047 0.7920 -0.5752
vn 0.3984 0.7636 -0.5081
vn 0.5885 0.7783 -0.2188
vn 0.6640 0.6562 0.3584
vn 0.5906 0.7219 0.3605
vn 0.1085 0.7635 0.6366
vn -0.2647 0.6103 0.7467
vn -0.5425 0.6679 0.5095
vn -0.5538 0.7960 0.2444
vn -0.6997 0.6775 -0.2269
vn -0.5103 0.6247 -0.5910
vn -0.3387 0.6388 -0.6908
vn 0.2231 0.6837 -0.6949
vn 0.6659 0.5634 -0.4890
vn 0.7760 0.4888 -0.3986
vn 0.7245 0.4538 0.5188
vn 0.8050 0.2613 0.5326
vn 0.3709 0.4544 0.8099
vn -0.3626 0.6722 0.6455
vn -0.6519 0.4750 0.5911
vn -0.8347 0.3609 0.4160
vn -0.7693 0.4867 -0.4139
vn -0.6774 0.5380 -0.5016
vn -0.1266 0.3748 -0.9184
vn 0.2248 0.1891 -0.9559
vn 0.5274 0.6350 -0.5644
vn 0.6050 0.7374 -0.3002
s 0
f 3//1 2//1 1//1
f 4//1 3//1 1//1
f 5//1 4//1 1//1
f 6//1 5//1 1//1
f 7//1 6//1 1//1
f 8//1 7//1 1//1
f 9//1 8//1 1//1
f 10//1 9//1 1//1
f 11//1 10//1 1//1
f 12//1 11//1 1//1
f 13//1 12//1 1//1
f 2//1 13//1 1//1
f 3//2 15//2 14//2 2//2
f 4//3 16//3 15//3 3//3
f 5//4 17//4 16//4 4//4
f 6//5 18//5 17//5 5//5
f 7//6 19//6 18//6 6//6
f 8//7 20//7 19//7 7//7
f 9//8 21//8 20//8 8//8
f 10//9 22//9 21//9 9//9
f 11//10 23//10 22//10 10//10
f 12//11 24//11 23//11 11//11
f 13//12 25//12 24//12 12//12
f 2//13 14//13 25//13 13//13
f 15//14 27//14 26//14 14//14
f 16//15 28//15 27//15 15//15
f 17//16 29//16 28//16 16//16
f 18//17 30//17 29//17 17//17
f 19//18 31//18 30//18 18//18
f 20//19 32//19 31//19 19//19
f 21//20 33//20 32//20 20//20
f 22//21 34//21 33//21 21//21
f 23//22 35//22 34//22 22//22
f 24//23 36//23 35//23 23//23
f 25//24 37//24 36//24 24//24
f 14//25 26//25 37//25 25//25
f 27//26 39//26 38//26 26//26
f 28//27 40//27 39//27 27//27
f 29//28 41//28 40//28 28//28
f 30//29 42//29 41//29 29//29
f 31//30 43//30 42//30 30//30
f 32//31 44//31 43//31 31//31
f 33//32 45//32 44//32 32//32
f 34//33 46//33 45//33 33//33
f 35//34 47//34 46//34 34//34
f 36//35 48//35 47//35 35//35
f 37//36 49//36 48//36 36//36
f 26//37 38//37 49//37 37//37
f 39//38 51//38 50//38 38//38
f 40//39 52//39 51//39 39//39
f 41//40 53//40 52//40 40//40
f 42//41 54//41 53//41 41//41
f 43//42 55//42 54//42 42//42
f 44//43 56//43 55//43 43//43
f 45//44 57//44 56//44 44//44
f 46//45 58//45 57//45 45//45
f 47//46 59//46 58//46 46//46
f 48//47 60//47 59//47 47//47
f 49//48 61//48 60//48 48//48
f 38//49 50//49 61//49 49//49
