# Blender 4.4.1
# www.blender.org
o Mountain_040
v -0.088389 0.000000 -0.564015
v -0.088389 20.396185 -0.564015
v -0.088389 20.396185 -0.564015
v -0.088389 20.396185 -0.564015
v -0.088389 20.396185 -0.564015
v -0.088389 20.396185 -0.564015
v -0.088389 20.396185 -0.564015
v -0.088389 20.396185 -0.564015
v -0.088389 20.396185 -0.564015
v -0.088389 20.396185 -0.564015
v -0.088389 20.396185 -0.564015
v -0.088389 20.396185 -0.564015
v -0.088389 20.396185 -0.564015
v 5.168266 17.843658 -0.564015
v 4.383085 17.797615 2.017592
v 2.682268 17.557178 4.234904
v -0.088389 17.451212 4.633492
v -2.815094 18.129955 4.158777
v -4.870146 17.789322 2.196734
v -5.138818 17.828981 -0.564015
v -4.680361 17.530737 -3.215191
v -2.851864 18.083708 -5.350493
v -0.088389 18.127653 -5.878867
v 2.468205 18.225826 -4.992165
v 4.651483 18.293364 -3.300581
v 10.891064 12.435927 -0.564015
v 9.507992 13.102172 4.976459
v 5.440532 13.230619 9.012358
v -0.088389 14.066848 8.988885
v -5.589075 13.377356 8.963453
v -8.513833 13.117484 4.300418
v -9.730432 13.227015 -0.564015
v -9.564302 12.802577 -6.034936
v -5.472962 12.801888 -9.890369
v -0.088389 12.819709 -12.000355
v 4.887890 12.729495 -9.183184
v 8.763324 13.064943 -5.674553
v 13.993978 6.075596 -0.564015
v 12.751950 5.665437 6.849359
v 8.158449 7.191492 13.719929
v -0.088389 6.690534 13.942718
v -7.608772 6.051843 12.461670
v -14.708774 6.485397 7.877069
v -14.777643 5.836723 -0.564015
v -14.332318 6.655107 -8.787751
v -7.907415 6.016712 -14.106966
v -0.088389 7.685391 -16.331333
v 6.924821 5.783357 -12.711250
v 13.383554 6.166346 -8.342045
v 21.936373 0.378375 -0.564015
v 20.749313 0.813259 11.466638
v 11.009652 -0.765099 18.658358
v -0.088389 0.868464 23.338369
v -11.417845 0.136593 19.059177
v -21.936373 1.043236 12.049925
v -21.006655 -1.501994 -0.564015
v -20.754730 1.712011 -12.495732
v -10.558468 -0.181183 -18.698723
v -0.088389 0.857520 -23.338369
v 10.369476 -1.094483 -18.677568
v 16.250086 1.472997 -9.997038
vn -0.0000 1.0000 -0.0000
vn 0.4320 0.8897 0.1473
vn 0.3181 0.8850 0.3399
vn 0.0376 0.8694 0.4926
vn 0.1296 0.8627 0.4888
vn -0.3637 0.9042 0.2239
vn -0.4524 0.8900 0.0568
vn -0.4461 0.8776 -0.1759
vn -0.4537 0.8764 -0.1615
vn -0.0893 0.9160 -0.3910
vn 0.1003 0.9151 -0.3906
vn 0.2217 0.9201 -0.3229
vn 0.4359 0.8976 0.0652
vn 0.6591 0.7426 0.1192
vn 0.4580 0.7744 0.4364
vn 0.0964 0.7747 0.6250
vn -0.0409 0.7531 0.6566
vn -0.6027 0.6962 0.3899
vn -0.7213 0.6754 0.1537
vn -0.6790 0.7248 -0.1167
vn -0.5233 0.7234 -0.4504
vn -0.2191 0.7186 -0.6599
vn 0.3184 0.6909 -0.6491
vn 0.4690 0.6510 -0.5969
vn 0.7102 0.6890 -0.1446
vn 0.8861 0.4308 0.1710
vn 0.6975 0.5391 0.4721
vn 0.0260 0.5877 0.8087
vn -0.1500 0.5082 0.8481
vn -0.5313 0.6105 0.5874
vn -0.7731 0.6324 0.0491
vn -0.8076 0.5894 -0.0191
vn -0.4997 0.6098 -0.6152
vn -0.3183 0.5945 -0.7384
vn 0.4667 0.5362 -0.7033
vn 0.4858 0.5409 -0.6866
vn 0.8410 0.5200 -0.1496
vn 0.5373 0.8408 0.0661
vn 0.4638 0.7475 0.4755
vn 0.2087 0.7255 0.6558
vn -0.2243 0.8104 0.5413
vn -0.2923 0.7921 0.5358
vn -0.7040 0.6973 -0.1346
vn -0.7091 0.6958 0.1147
vn -0.3184 0.7193 -0.6174
vn -0.3473 0.6621 -0.6641
vn 0.4323 0.6748 -0.5981
vn 0.4734 0.6499 -0.5946
vn 0.6644 0.7219 -0.1933
s 0
f 3//1 2//1 1//1
f 4//1 3//1 1//1
f 5//1 4//1 1//1
f 6//1 5//1 1//1
f 7//1 6//1 1//1
f 8//1 7//1 1//1
f 9//1 8//1 1//1
f 10//1 9//1 1//1
f 11//1 10//1 1//1
f 12//1 11//1 1//1
f 13//1 12//1 1//1
f 2//1 13//1 1//1
f 3//2 15//2 14//2 2//2
f 4//3 16//3 15//3 3//3
f 5//4 17//4 16//4 4//4
f 6//5 18//5 17//5 5//5
f 7//6 19//6 18//6 6//6
f 8//7 20//7 19//7 7//7
f 9//8 21//8 20//8 8//8
f 10//9 22//9 21//9 9//9
f 11//10 23//10 22//10 10//10
f 12//11 24//11 23//11 11//11
f 13//12 25//12 24//12 12//12
f 2//13 14//13 25//13 13//13
f 15//14 27//14 26//14 14//14
f 16//15 28//15 27//15 15//15
f 17//16 29//16 28//16 16//16
f 18//17 30//17 29//17 17//17
f 19//18 31//18 30//18 18//18
f 20//19 32//19 31//19 19//19
f 21//20 33//20 32//20 20//20
f 22//21 34//21 33//21 21//21
f 23//22 35//22 34//22 22//22
f 24//23 36//23 35//23 23//23
f 25//24 37//24 36//24 24//24
f 14//25 26//25 37//25 25//25
f 27//26 39//26 38//26 26//26
f 28//27 40//27 39//27 27//27
f 29//28 41//28 40//28 28//28
f 30//29 42//29 41//29 29//29
f 31//30 43//30 42//30 30//30
f 32//31 44//31 43//31 31//31
f 33//32 45//32 44//32 32//32
f 34//33 46//33 45//33 33//33
f 35//34 47//34 46//34 34//34
f 36//35 48//35 47//35 35//35
f 37//36 49//36 48//36 36//36
f 26//37 38//37 49//37 37//37
f 39//38 51//38 50//38 38//38
f 40//39 52//39 51//39 39//39
f 41//40 53//40 52//40 40//40
f 42//41 54//41 53//41 41//41
f 43//42 55//42 54//42 42//42
f 44//43 56//43 55//43 43//43
f 45//44 57//44 56//44 44//44
f 46//45 58//45 57//45 45//45
f 47//46 59//46 58//46 46//46
f 48//47 60//47 59//47 47//47
f 49//48 61//48 60//48 48//48
f 38//49 50//49 61//49 49//49
