# Blender 4.4.1
# www.blender.org
o Mountain_033
v 0.024995 0.000000 -0.968592
v 0.024995 11.302132 -0.968592
v 0.024995 11.302132 -0.968592
v 0.024995 11.302132 -0.968592
v 0.024995 11.302132 -0.968592
v 0.024995 11.302132 -0.968592
v 0.024995 11.302132 -0.968592
v 0.024995 11.302132 -0.968592
v 0.024995 11.302132 -0.968592
v 0.024995 11.302132 -0.968592
v 0.024995 11.302132 -0.968592
v 0.024995 11.302132 -0.968592
v 0.024995 11.302132 -0.968592
v 4.759243 10.038692 -0.968592
v 4.095643 9.630695 1.381598
v 2.361333 9.957556 3.078065
v 0.024995 10.163647 3.708789
v -2.408405 10.097759 3.246181
v -4.025113 10.163100 1.369739
v -4.850702 9.765193 -0.968592
v -3.916182 9.932690 -3.244031
v -2.211137 10.058485 -4.841687
v 0.024995 9.912404 -5.639410
v 2.366057 9.829305 -5.023431
v 4.154369 9.705593 -3.352687
v 10.279133 7.530283 -0.968592
v 8.067919 7.520073 3.674992
v 4.248930 6.979313 6.347478
v 0.024995 7.108931 8.545019
v -4.761553 7.034636 7.321952
v -8.161424 7.009136 3.757839
v -9.283284 7.434034 -0.968592
v -7.865268 7.304835 -5.524037
v -4.384974 7.533073 -8.606881
v 0.024995 7.706689 -10.091438
v 4.499651 6.944431 -8.718925
v 7.534545 7.392000 -5.304233
v 12.924380 3.282833 -0.968592
v 11.347172 3.513287 5.568270
v 6.903667 3.759241 10.945618
v 0.024995 4.739584 11.582292
v -6.258250 4.479388 9.914308
v -10.956629 3.960500 5.371651
v -16.105640 4.553510 -0.968592
v -12.198561 4.335102 -8.025866
v -7.597489 3.622176 -14.171122
v 0.024995 4.076183 -15.273272
v 6.832434 4.284214 -12.759422
v 10.581315 4.493204 -7.063286
v 18.573151 0.293544 -0.968592
v 15.915089 -0.373747 8.205558
v 8.866261 0.136417 14.344931
v 0.024995 -0.547668 20.989592
v -7.538830 -0.856165 12.132337
v -18.573151 1.046841 9.769052
v -16.444202 0.171554 -0.968592
v -17.157631 -0.735681 -10.888986
v -10.386631 -0.327515 -19.002058
v 0.024995 -0.028269 -20.989592
v 10.272664 0.880735 -18.718075
v 15.468947 -0.482548 -9.885162
vn -0.0000 1.0000 -0.0000
vn 0.2507 0.9394 0.2339
vn 0.3090 0.9415 0.1345
vn 0.1479 0.9609 0.2339
vn -0.0711 0.9692 0.2359
vn -0.1690 0.9692 0.1794
vn -0.3002 0.9522 -0.0561
vn -0.3002 0.9524 -0.0532
vn -0.2327 0.9570 -0.1730
vn -0.0391 0.9577 -0.2850
vn 0.1084 0.9528 -0.2835
vn 0.2514 0.9472 -0.1989
vn 0.2528 0.9473 -0.1965
vn 0.3857 0.8979 0.2122
vn 0.3135 0.8417 0.4397
vn 0.2709 0.8013 0.5333
vn -0.1410 0.8332 0.5347
vn -0.4100 0.8273 0.3841
vn -0.5051 0.8512 0.1425
vn -0.4708 0.8681 -0.1573
vn -0.3754 0.8578 -0.3510
vn -0.1616 0.8731 -0.4600
vn 0.2419 0.8501 -0.4678
vn 0.3717 0.8350 -0.4057
vn 0.4132 0.8706 -0.2670
vn 0.7599 0.6018 0.2456
vn 0.4287 0.7726 0.4683
vn 0.2166 0.8221 0.5265
vn -0.1847 0.7635 0.6188
vn -0.5066 0.7311 0.4570
vn -0.4537 0.8266 0.3331
vn -0.4148 0.8837 -0.2167
vn -0.3751 0.8486 -0.3730
vn -0.1583 0.8299 -0.5351
vn 0.2172 0.8311 -0.5120
vn 0.4330 0.8168 -0.3813
vn 0.7150 0.6392 -0.2831
vn 0.5214 0.8375 0.1638
vn 0.4811 0.7640 0.4299
vn 0.2583 0.8111 0.5247
vn -0.4614 0.6797 0.5702
vn -0.2141 0.7412 0.6363
vn -0.6416 0.7604 0.1009
vn -0.8305 0.5233 -0.1909
vn -0.4910 0.7697 -0.4080
vn -0.1328 0.8044 -0.5791
vn 0.0902 0.8495 -0.5197
vn 0.5319 0.8048 -0.2635
vn 0.5619 0.8073 -0.1805
s 0
f 3//1 2//1 1//1
f 4//1 3//1 1//1
f 5//1 4//1 1//1
f 6//1 5//1 1//1
f 7//1 6//1 1//1
f 8//1 7//1 1//1
f 9//1 8//1 1//1
f 10//1 9//1 1//1
f 11//1 10//1 1//1
f 12//1 11//1 1//1
f 13//1 12//1 1//1
f 2//1 13//1 1//1
f 3//2 15//2 14//2 2//2
f 4//3 16//3 15//3 3//3
f 5//4 17//4 16//4 4//4
f 6//5 18//5 17//5 5//5
f 7//6 19//6 18//6 6//6
f 8//7 20//7 19//7 7//7
f 9//8 21//8 20//8 8//8
f 10//9 22//9 21//9 9//9
f 11//10 23//10 22//10 10//10
f 12//11 24//11 23//11 11//11
f 13//12 25//12 24//12 12//12
f 2//13 14//13 25//13 13//13
f 15//14 27//14 26//14 14//14
f 16//15 28//15 27//15 15//15
f 17//16 29//16 28//16 16//16
f 18//17 30//17 29//17 17//17
f 19//18 31//18 30//18 18//18
f 20//19 32//19 31//19 19//19
f 21//20 33//20 32//20 20//20
f 22//21 34//21 33//21 21//21
f 23//22 35//22 34//22 22//22
f 24//23 36//23 35//23 23//23
f 25//24 37//24 36//24 24//24
f 14//25 26//25 37//25 25//25
f 27//26 39//26 38//26 26//26
f 28//27 40//27 39//27 27//27
f 29//28 41//28 40//28 28//28
f 30//29 42//29 41//29 29//29
f 31//30 43//30 42//30 30//30
f 32//31 44//31 43//31 31//31
f 33//32 45//32 44//32 32//32
f 34//33 46//33 45//33 33//33
f 35//34 47//34 46//34 34//34
f 36//35 48//35 47//35 35//35
f 37//36 49//36 48//36 36//36
f 26//37 38//37 49//37 37//37
f 39//38 51//38 50//38 38//38
f 40//39 52//39 51//39 39//39
f 41//40 53//40 52//40 40//40
f 42//41 54//41 53//41 41//41
f 43//42 55//42 54//42 42//42
f 44//43 56//43 55//43 43//43
f 45//44 57//44 56//44 44//44
f 46//45 58//45 57//45 45//45
f 47//46 59//46 58//46 46//46
f 48//47 60//47 59//47 47//47
f 49//48 61//48 60//48 48//48
f 38//49 50//49 61//49 49//49
