# Blender 4.4.1
# www.blender.org
o Mountain_002
v -2.900486 0.000000 -0.879101
v -2.900486 23.065632 -0.879101
v -2.900486 23.065632 -0.879101
v -2.900486 23.065632 -0.879101
v -2.900486 23.065632 -0.879101
v -2.900486 23.065632 -0.879101
v -2.900486 23.065632 -0.879101
v -2.900486 23.065632 -0.879101
v -2.900486 23.065632 -0.879101
v -2.900486 23.065632 -0.879101
v -2.900486 23.065632 -0.879101
v -2.900486 23.065632 -0.879101
v -2.900486 23.065632 -0.879101
v 1.838574 20.649895 -0.879101
v 1.350582 19.712233 1.575254
v -0.546365 19.924877 3.198356
v -2.900486 20.495104 3.629858
v -5.305264 19.907894 3.286096
v -7.108463 20.242029 1.550376
v -7.610679 19.616938 -0.879101
v -6.834819 20.624256 -3.150589
v -5.368559 20.235006 -5.153928
v -2.900486 20.277584 -5.782351
v -0.611716 19.752768 -4.843367
v 1.129589 20.642565 -3.205866
v 7.150498 15.742682 -0.879101
v 5.972882 14.241972 4.243940
v 1.606344 13.994517 6.926958
v -2.900486 15.796730 9.141507
v -7.556149 15.189013 7.184744
v -10.550447 15.902246 3.537606
v -13.081438 16.009098 -0.879101
v -11.628971 15.790460 -5.918494
v -7.194057 15.456350 -8.315784
v -2.900486 15.904403 -10.049625
v 2.130806 15.750436 -9.593555
v 5.827961 14.372822 -5.918472
v 12.560122 6.728136 -0.879101
v 10.802353 9.324741 7.032237
v 3.623655 9.179405 10.421043
v -2.900486 7.410055 13.184896
v -10.647809 7.141587 12.539656
v -13.465587 7.022341 5.220663
v -16.400660 9.344669 -0.879101
v -16.953606 7.319871 -8.992674
v -10.319305 7.736967 -13.728873
v -2.900486 8.209365 -17.167139
v 5.154049 6.753207 -14.829965
v 11.165619 6.971959 -9.000171
v 19.588713 -1.081933 -0.879101
v 10.960520 -0.301866 7.123555
v 7.455983 -0.859530 17.058830
v -2.900486 0.052696 18.905159
v -11.953737 0.353310 14.801589
v -17.723425 0.963153 7.678927
v -18.095730 1.963232 -0.879101
v -19.588713 1.012258 -10.514052
v -13.307836 0.787131 -18.905159
v -2.900486 -1.983765 -18.826385
v 7.211898 -0.783309 -18.394264
v 12.311599 1.605438 -9.661802
vn -0.0000 1.0000 -0.0000
vn 0.4171 0.8183 0.3955
vn 0.4229 0.8194 0.3870
vn 0.2884 0.8318 0.4742
vn -0.2722 0.8359 0.4766
vn -0.2925 0.8357 0.4647
vn -0.5886 0.8039 -0.0852
vn -0.5837 0.7972 0.1542
vn -0.3092 0.8653 -0.3945
vn -0.1395 0.8608 -0.4895
vn 0.3731 0.8065 -0.4586
vn 0.1422 0.7984 -0.5851
vn 0.4497 0.8822 -0.1398
vn 0.6259 0.6918 0.3602
vn 0.4404 0.6239 0.6456
vn 0.4592 0.6340 0.6223
vn -0.3245 0.7063 0.6292
vn -0.4847 0.6700 0.5623
vn -0.6218 0.7520 0.2186
vn -0.6151 0.7817 -0.1031
vn -0.3933 0.6635 -0.6365
vn -0.2950 0.6370 -0.7122
vn 0.1906 0.7475 -0.6363
vn 0.5199 0.7156 -0.4665
vn 0.6693 0.6749 -0.3108
vn 0.7871 0.6038 0.1265
vn 0.3299 0.6648 0.6703
vn 0.3566 0.5037 0.7868
vn -0.2107 0.5149 0.8310
vn -0.7757 0.4565 0.4358
vn -0.7870 0.3692 0.4943
vn -0.8461 0.5128 -0.1453
vn -0.4419 0.5865 -0.6788
vn -0.3541 0.6321 -0.6893
vn 0.2367 0.6053 -0.7600
vn 0.6026 0.5834 -0.5444
vn 0.7986 0.5629 -0.2130
vn 0.8189 0.3400 0.4623
vn 0.7215 0.3507 0.5970
vn 0.1833 0.5958 0.7819
vn -0.2356 0.4940 0.8369
vn -0.7421 0.4896 0.4579
vn -0.8541 0.4314 0.2905
vn -0.9536 0.2949 0.0605
vn -0.6000 0.5487 -0.5823
vn -0.1226 0.3859 -0.9143
vn 0.1480 0.2953 -0.9439
vn 0.7043 0.3727 -0.6042
vn 0.7976 0.5109 -0.3206
s 0
f 3//1 2//1 1//1
f 4//1 3//1 1//1
f 5//1 4//1 1//1
f 6//1 5//1 1//1
f 7//1 6//1 1//1
f 8//1 7//1 1//1
f 9//1 8//1 1//1
f 10//1 9//1 1//1
f 11//1 10//1 1//1
f 12//1 11//1 1//1
f 13//1 12//1 1//1
f 2//1 13//1 1//1
f 3//2 15//2 14//2 2//2
f 4//3 16//3 15//3 3//3
f 5//4 17//4 16//4 4//4
f 6//5 18//5 17//5 5//5
f 7//6 19//6 18//6 6//6
f 8//7 20//7 19//7 7//7
f 9//8 21//8 20//8 8//8
f 10//9 22//9 21//9 9//9
f 11//10 23//10 22//10 10//10
f 12//11 24//11 23//11 11//11
f 13//12 25//12 24//12 12//12
f 2//13 14//13 25//13 13//13
f 15//14 27//14 26//14 14//14
f 16//15 28//15 27//15 15//15
f 17//16 29//16 28//16 16//16
f 18//17 30//17 29//17 17//17
f 19//18 31//18 30//18 18//18
f 20//19 32//19 31//19 19//19
f 21//20 33//20 32//20 20//20
f 22//21 34//21 33//21 21//21
f 23//22 35//22 34//22 22//22
f 24//23 36//23 35//23 23//23
f 25//24 37//24 36//24 24//24
f 14//25 26//25 37//25 25//25
f 27//26 39//26 38//26 26//26
f 28//27 40//27 39//27 27//27
f 29//28 41//28 40//28 28//28
f 30//29 42//29 41//29 29//29
f 31//30 43//30 42//30 30//30
f 32//31 44//31 43//31 31//31
f 33//32 45//32 44//32 32//32
f 34//33 46//33 45//33 33//33
f 35//34 47//34 46//34 34//34
f 36//35 48//35 47//35 35//35
f 37//36 49//36 48//36 36//36
f 26//37 38//37 49//37 37//37
f 39//38 51//38 50//38 38//38
f 40//39 52//39 51//39 39//39
f 41//40 53//40 52//40 40//40
f 42//41 54//41 53//41 41//41
f 43//42 55//42 54//42 42//42
f 44//43 56//43 55//43 43//43
f 45//44 57//44 56//44 44//44
f 46//45 58//45 57//45 45//45
f 47//46 59//46 58//46 46//46
f 48//47 60//47 59//47 47//47
f 49//48 61//48 60//48 48//48
f 38//49 50//49 61//49 49//49
