# Blender 4.4.1
# www.blender.org
o Mountain_028
v -1.601427 0.000000 1.159261
v -1.601427 10.759853 1.159261
v -1.601427 10.759853 1.159261
v -1.601427 10.759853 1.159261
v -1.601427 10.759853 1.159261
v -1.601427 10.759853 1.159261
v -1.601427 10.759853 1.159261
v -1.601427 10.759853 1.159261
v -1.601427 10.759853 1.159261
v -1.601427 10.759853 1.159261
v -1.601427 10.759853 1.159261
v -1.601427 10.759853 1.159261
v -1.601427 10.759853 1.159261
v 3.731057 9.357250 1.159261
v 2.807139 9.566274 3.704548
v 1.010257 9.203853 5.682830
v -1.601427 9.644393 6.228068
v -4.243960 9.462651 5.736261
v -6.149506 9.388244 3.785095
v -6.794973 9.660298 1.159261
v -5.867244 9.414241 -1.303609
v -4.165456 9.172007 -3.281768
v -1.601427 9.597152 -4.175827
v 0.950477 9.419354 -3.260767
v 3.012631 9.241209 -1.504667
v 8.784286 7.203680 1.159261
v 6.595593 6.834520 5.891813
v 3.613916 7.367445 10.192500
v -1.601427 6.831569 11.392735
v -7.204254 7.403184 10.863642
v -10.921270 6.712063 6.540075
v -12.774550 7.461913 1.159261
v -10.373084 6.561184 -3.905058
v -6.624743 7.170883 -7.541378
v -1.601427 6.739304 -9.573844
v 3.717136 7.343787 -8.052762
v 7.628979 7.424275 -4.169917
v 14.346229 3.288365 1.159261
v 12.176113 3.433123 9.113728
v 5.711451 4.049331 13.825537
v -1.601427 4.013360 18.711624
v -10.324673 3.777407 16.268366
v -15.658481 3.484451 9.275105
v -15.169401 3.532639 1.159261
v -14.805959 3.885132 -6.464379
v -9.654798 3.637935 -12.789585
v -1.601427 4.322118 -15.318855
v 5.574872 4.331660 -11.270453
v 12.909867 3.807809 -7.218839
v 14.965410 -0.763246 1.159261
v 17.315014 -0.645801 12.080673
v 9.646905 -0.729657 20.641943
v -1.601427 -0.536785 19.863901
v -13.214577 0.410155 21.273827
v -17.860514 0.545727 10.546449
v -18.225805 0.675775 1.159261
v -16.495680 0.792001 -7.439940
v -12.806026 0.785128 -18.247675
v -1.601427 0.131852 -21.273827
v 7.550400 0.611821 -14.692168
v 18.225805 -0.456995 -10.287997
vn -0.0000 1.0000 -0.0000
vn 0.2544 0.9670 0.0129
vn 0.1036 0.9574 0.2695
vn 0.2051 0.9559 0.2103
vn -0.1066 0.9711 0.2137
vn -0.2001 0.9669 0.1585
vn -0.2048 0.9672 0.1505
vn -0.2040 0.9635 -0.1731
vn -0.1562 0.9552 -0.2513
vn -0.2299 0.9509 -0.2072
vn 0.1429 0.9670 -0.2108
vn 0.2221 0.9613 -0.1633
vn 0.2528 0.9612 -0.1101
vn 0.4340 0.8773 0.2049
vn 0.3693 0.8931 0.2568
vn 0.0813 0.9067 0.4139
vn -0.0099 0.9049 0.4255
vn -0.3518 0.9136 0.2038
vn -0.3536 0.9077 0.2262
vn -0.3552 0.8879 -0.2924
vn -0.3483 0.8948 -0.2795
vn -0.1579 0.8977 -0.4114
vn 0.0799 0.9055 -0.4167
vn 0.2467 0.9376 -0.2451
vn 0.3616 0.9295 -0.0726
vn 0.5008 0.8451 0.1870
vn 0.4276 0.8370 0.3415
vn 0.1808 0.8724 0.4542
vn -0.0697 0.8967 0.4371
vn -0.4466 0.8487 0.2834
vn -0.6822 0.7226 0.1117
vn -0.6503 0.7395 -0.1737
vn -0.3891 0.8652 -0.3161
vn -0.1681 0.8856 -0.4330
vn 0.1735 0.8579 -0.4837
vn 0.3551 0.8151 -0.4577
vn 0.5579 0.8277 -0.0608
vn 0.8187 0.5740 -0.0158
vn 0.3953 0.8329 0.3875
vn 0.1640 0.6798 0.7149
vn -0.0183 0.6180 0.7860
vn -0.5641 0.7649 0.3109
vn -0.7404 0.6721 0.0016
vn -0.7726 0.6296 -0.0815
vn -0.5561 0.7757 -0.2985
vn -0.1430 0.8594 -0.4909
vn 0.3435 0.7523 -0.5622
vn 0.3307 0.7585 -0.5615
vn 0.8269 0.5535 0.0991
s 0
f 3//1 2//1 1//1
f 4//1 3//1 1//1
f 5//1 4//1 1//1
f 6//1 5//1 1//1
f 7//1 6//1 1//1
f 8//1 7//1 1//1
f 9//1 8//1 1//1
f 10//1 9//1 1//1
f 11//1 10//1 1//1
f 12//1 11//1 1//1
f 13//1 12//1 1//1
f 2//1 13//1 1//1
f 3//2 15//2 14//2 2//2
f 4//3 16//3 15//3 3//3
f 5//4 17//4 16//4 4//4
f 6//5 18//5 17//5 5//5
f 7//6 19//6 18//6 6//6
f 8//7 20//7 19//7 7//7
f 9//8 21//8 20//8 8//8
f 10//9 22//9 21//9 9//9
f 11//10 23//10 22//10 10//10
f 12//11 24//11 23//11 11//11
f 13//12 25//12 24//12 12//12
f 2//13 14//13 25//13 13//13
f 15//14 27//14 26//14 14//14
f 16//15 28//15 27//15 15//15
f 17//16 29//16 28//16 16//16
f 18//17 30//17 29//17 17//17
f 19//18 31//18 30//18 18//18
f 20//19 32//19 31//19 19//19
f 21//20 33//20 32//20 20//20
f 22//21 34//21 33//21 21//21
f 23//22 35//22 34//22 22//22
f 24//23 36//23 35//23 23//23
f 25//24 37//24 36//24 24//24
f 14//25 26//25 37//25 25//25
f 27//26 39//26 38//26 26//26
f 28//27 40//27 39//27 27//27
f 29//28 41//28 40//28 28//28
f 30//29 42//29 41//29 29//29
f 31//30 43//30 42//30 30//30
f 32//31 44//31 43//31 31//31
f 33//32 45//32 44//32 32//32
f 34//33 46//33 45//33 33//33
f 35//34 47//34 46//34 34//34
f 36//35 48//35 47//35 35//35
f 37//36 49//36 48//36 36//36
f 26//37 38//37 49//37 37//37
f 39//38 51//38 50//38 38//38
f 40//39 52//39 51//39 39//39
f 41//40 53//40 52//40 40//40
f 42//41 54//41 53//41 41//41
f 43//42 55//42 54//42 42//42
f 44//43 56//43 55//43 43//43
f 45//44 57//44 56//44 44//44
f 46//45 58//45 57//45 45//45
f 47//46 59//46 58//46 46//46
f 48//47 60//47 59//47 47//47
f 49//48 61//48 60//48 48//48
f 38//49 50//49 61//49 49//49
