# Blender 4.4.1
# www.blender.org
o Mountain_052
v -2.633475 0.000000 -1.246698
v -2.633475 13.644083 -1.246698
v -2.633475 13.644083 -1.246698
v -2.633475 13.644083 -1.246698
v -2.633475 13.644083 -1.246698
v -2.633475 13.644083 -1.246698
v -2.633475 13.644083 -1.246698
v -2.633475 13.644083 -1.246698
v -2.633475 13.644083 -1.246698
v -2.633475 13.644083 -1.246698
v -2.633475 13.644083 -1.246698
v -2.633475 13.644083 -1.246698
v -2.633475 13.644083 -1.246698
v 3.086662 12.179414 -1.246698
v 2.580107 12.142020 1.763364
v 0.197540 11.698860 3.656762
v -2.633475 11.621936 4.520020
v -5.525832 12.079082 3.763011
v -7.733627 12.276402 1.697876
v -8.813498 11.625299 -1.246698
v -7.692611 12.081173 -4.167593
v -5.592502 11.933789 -6.371883
v -2.633475 12.188859 -7.378497
v 0.218412 11.661310 -6.186310
v 2.688282 11.720715 -4.319216
v 8.433794 8.832093 -1.246698
v 7.165605 9.353511 4.410802
v 3.394910 8.934164 9.194771
v -2.633475 8.855667 11.725055
v -8.644210 8.706133 9.164201
v -12.030233 9.186178 4.178523
v -14.906528 9.348699 -1.246698
v -11.925785 9.067555 -6.611617
v -8.774425 8.675776 -11.883135
v -2.633475 9.435820 -13.314519
v 3.692792 8.347779 -12.204114
v 6.771965 9.271380 -6.676931
v 15.998009 4.687961 -1.246698
v 14.867676 4.974791 8.857595
v 4.938712 5.743429 11.868713
v -2.633475 5.704801 17.366827
v -11.056750 5.255875 13.342843
v -19.114260 5.718117 8.268487
v -20.782854 4.191271 -1.246698
v -15.946956 5.075975 -8.933241
v -11.052097 3.872344 -15.828181
v -2.633475 5.706856 -16.737356
v 5.940425 4.574994 -16.097130
v 11.277440 5.733767 -9.278169
v 24.539984 -1.121030 -1.246698
v 20.791275 -0.919773 12.277587
v 10.545381 -0.586871 21.579748
v -2.633475 0.420413 24.855598
v -12.688226 -0.024982 16.168642
v -22.609098 0.835982 10.286234
v -24.539984 0.504727 -1.246698
v -20.136562 0.451675 -11.352111
v -16.061543 0.034528 -24.504793
v -2.633475 1.051721 -24.855598
v 9.108467 0.172071 -21.584337
v 17.265873 0.699916 -12.735593
vn -0.0000 1.0000 -0.0000
vn 0.2477 0.9673 0.0537
vn 0.0835 0.9419 0.3255
vn 0.0750 0.9410 0.3300
vn 0.0624 0.9418 0.3303
vn -0.1271 0.9653 0.2281
vn -0.3091 0.9462 -0.0959
vn -0.3104 0.9502 0.0292
vn -0.1674 0.9602 -0.2237
vn -0.1603 0.9604 -0.2279
vn 0.2665 0.9378 -0.2226
vn 0.1837 0.9443 -0.2730
vn 0.2443 0.9540 -0.1741
vn 0.5136 0.8561 0.0574
vn 0.2628 0.8960 0.3579
vn 0.1250 0.9212 0.3685
vn -0.1216 0.9039 0.4101
vn -0.3584 0.8585 0.3668
vn -0.4255 0.8926 0.1490
vn -0.4129 0.8917 -0.1856
vn -0.3791 0.8650 -0.3287
vn -0.2086 0.8886 -0.4086
vn 0.2518 0.8906 -0.3788
vn 0.2991 0.8905 -0.3428
vn 0.4973 0.8589 -0.1225
vn 0.4810 0.8763 0.0283
vn 0.2978 0.8214 0.4865
vn 0.3114 0.7826 0.5390
vn -0.2597 0.8298 0.4940
vn -0.2829 0.8703 0.4033
vn -0.5332 0.8417 0.0853
vn -0.5996 0.7312 -0.3253
vn -0.5416 0.7093 -0.4512
vn -0.2327 0.6705 -0.7045
vn 0.1857 0.7140 -0.6751
vn 0.4383 0.7884 -0.4317
vn 0.5083 0.8485 -0.1474
vn 0.6094 0.7852 0.1096
vn 0.3316 0.8179 0.4702
vn 0.2449 0.8387 0.4865
vn -0.4476 0.6591 0.6043
vn -0.4041 0.5516 0.7297
vn -0.7531 0.6541 0.0710
vn -0.6438 0.7033 -0.3014
vn -0.4534 0.8489 -0.2715
vn -0.1413 0.8998 -0.4129
vn 0.1821 0.8375 -0.5152
vn 0.4044 0.8046 -0.4349
vn 0.5495 0.8062 -0.2192
s 0
f 3//1 2//1 1//1
f 4//1 3//1 1//1
f 5//1 4//1 1//1
f 6//1 5//1 1//1
f 7//1 6//1 1//1
f 8//1 7//1 1//1
f 9//1 8//1 1//1
f 10//1 9//1 1//1
f 11//1 10//1 1//1
f 12//1 11//1 1//1
f 13//1 12//1 1//1
f 2//1 13//1 1//1
f 3//2 15//2 14//2 2//2
f 4//3 16//3 15//3 3//3
f 5//4 17//4 16//4 4//4
f 6//5 18//5 17//5 5//5
f 7//6 19//6 18//6 6//6
f 8//7 20//7 19//7 7//7
f 9//8 21//8 20//8 8//8
f 10//9 22//9 21//9 9//9
f 11//10 23//10 22//10 10//10
f 12//11 24//11 23//11 11//11
f 13//12 25//12 24//12 12//12
f 2//13 14//13 25//13 13//13
f 15//14 27//14 26//14 14//14
f 16//15 28//15 27//15 15//15
f 17//16 29//16 28//16 16//16
f 18//17 30//17 29//17 17//17
f 19//18 31//18 30//18 18//18
f 20//19 32//19 31//19 19//19
f 21//20 33//20 32//20 20//20
f 22//21 34//21 33//21 21//21
f 23//22 35//22 34//22 22//22
f 24//23 36//23 35//23 23//23
f 25//24 37//24 36//24 24//24
f 14//25 26//25 37//25 25//25
f 27//26 39//26 38//26 26//26
f 28//27 40//27 39//27 27//27
f 29//28 41//28 40//28 28//28
f 30//29 42//29 41//29 29//29
f 31//30 43//30 42//30 30//30
f 32//31 44//31 43//31 31//31
f 33//32 45//32 44//32 32//32
f 34//33 46//33 45//33 33//33
f 35//34 47//34 46//34 34//34
f 36//35 48//35 47//35 35//35
f 37//36 49//36 48//36 36//36
f 26//37 38//37 49//37 37//37
f 39//38 51//38 50//38 38//38
f 40//39 52//39 51//39 39//39
f 41//40 53//40 52//40 40//40
f 42//41 54//41 53//41 41//41
f 43//42 55//42 54//42 42//42
f 44//43 56//43 55//43 43//43
f 45//44 57//44 56//44 44//44
f 46//45 58//45 57//45 45//45
f 47//46 59//46 58//46 46//46
f 48//47 60//47 59//47 47//47
f 49//48 61//48 60//48 48//48
f 38//49 50//49 61//49 49//49
