# Blender 4.4.1
# www.blender.org
o Mountain_019
v 2.195627 0.000000 -2.658098
v 2.195627 12.617437 -2.658098
v 2.195627 12.617437 -2.658098
v 2.195627 12.617437 -2.658098
v 2.195627 12.617437 -2.658098
v 2.195627 12.617437 -2.658098
v 2.195627 12.617437 -2.658098
v 2.195627 12.617437 -2.658098
v 2.195627 12.617437 -2.658098
v 2.195627 12.617437 -2.658098
v 2.195627 12.617437 -2.658098
v 2.195627 12.617437 -2.658098
v 2.195627 12.617437 -2.658098
v 8.961335 10.966894 -2.658098
v 8.084015 11.125742 0.741564
v 5.773483 11.131899 3.538929
v 2.195627 11.074901 4.712750
v -1.310698 10.813332 3.415036
v -3.771079 11.009346 0.786782
v -4.510934 10.951330 -2.658098
v -3.585659 10.810958 -5.995925
v -1.424973 11.332874 -8.929163
v 2.195627 11.037085 -9.681838
v 5.770416 10.987032 -8.849814
v 8.481693 11.033129 -6.287360
v 15.063624 7.564566 -2.658098
v 14.989320 7.894171 4.728344
v 8.899446 8.203952 8.953258
v 2.195627 8.102651 10.450089
v -5.164787 8.492023 10.090513
v -10.084158 7.668471 4.431639
v -10.760921 8.503622 -2.658098
v -10.749385 7.988513 -10.131905
v -5.277236 7.578130 -15.601477
v 2.195627 8.214986 -17.312832
v 9.903188 7.654851 -16.007984
v 15.157146 8.473634 -10.141435
v 21.977333 5.367178 -2.658098
v 20.158882 4.135586 7.712992
v 13.726046 4.306854 17.313171
v 2.195627 4.943836 21.522459
v -7.503278 5.010212 14.140899
v -16.523741 4.139473 8.149534
v -20.195669 4.673455 -2.658098
v -14.215089 3.739382 -12.132830
v -7.407478 3.867527 -19.291164
v 2.195627 4.139822 -20.933920
v 12.033966 4.495545 -19.698601
v 19.469044 4.808367 -12.630910
v 27.909134 -0.587107 -2.658098
v 29.995813 1.225124 13.392347
v 17.242407 -1.021444 23.403687
v 2.195627 0.720938 30.619390
v -14.195996 1.242783 25.733028
v -25.692402 -0.941543 13.443064
v -29.995813 -0.631686 -2.658098
v -24.178354 0.828920 -17.885124
v -13.312637 0.444726 -29.519199
v 2.195627 0.195382 -30.619390
v 14.936603 -0.216452 -24.726114
v 26.046371 0.337208 -16.428331
vn -0.0000 1.0000 -0.0000
vn 0.2370 0.9714 0.0158
vn 0.1683 0.9762 0.1369
vn 0.0515 0.9775 0.2046
vn -0.1472 0.9681 0.2026
vn -0.1423 0.9683 0.2055
vn -0.2409 0.9699 0.0354
vn -0.2397 0.9649 -0.1070
vn -0.2795 0.9595 -0.0352
vn 0.0341 0.9750 -0.2194
vn 0.0646 0.9736 -0.2191
vn 0.1461 0.9742 -0.1721
vn 0.2370 0.9714 -0.0136
vn 0.4544 0.8908 -0.0003
vn 0.2822 0.9123 0.2966
vn 0.1013 0.8908 0.4429
vn -0.0470 0.9240 0.3795
vn -0.3091 0.9287 0.2050
vn -0.3867 0.9144 0.1195
vn -0.3411 0.9360 -0.0863
vn -0.2967 0.9197 -0.2573
vn -0.1146 0.9139 -0.3894
vn 0.1171 0.9281 -0.3535
vn 0.2094 0.9327 -0.2935
vn 0.4376 0.8969 0.0635
vn 0.4222 0.9020 0.0908
vn 0.3533 0.8897 0.2891
vn 0.1250 0.9421 0.3110
vn -0.1473 0.9138 0.3785
vn -0.3866 0.8582 0.3377
vn -0.3834 0.9092 0.1627
vn -0.4873 0.8385 -0.2440
vn -0.4983 0.7080 -0.5004
vn -0.1735 0.6989 -0.6938
vn 0.1073 0.7222 -0.6833
vn 0.3986 0.7932 -0.4604
vn 0.4546 0.8896 -0.0450
vn 0.4965 0.8677 -0.0241
vn 0.2542 0.9038 0.3443
vn 0.2753 0.8412 0.4653
vn -0.1295 0.9384 0.3205
vn -0.3118 0.9300 0.1945
vn -0.4399 0.8840 0.1581
vn -0.3437 0.9279 -0.1444
vn -0.1905 0.9627 -0.1923
vn -0.0377 0.9408 -0.3369
vn 0.1532 0.8646 -0.4785
vn 0.3500 0.8113 -0.4682
vn 0.6185 0.7792 -0.1019
s 0
f 3//1 2//1 1//1
f 4//1 3//1 1//1
f 5//1 4//1 1//1
f 6//1 5//1 1//1
f 7//1 6//1 1//1
f 8//1 7//1 1//1
f 9//1 8//1 1//1
f 10//1 9//1 1//1
f 11//1 10//1 1//1
f 12//1 11//1 1//1
f 13//1 12//1 1//1
f 2//1 13//1 1//1
f 3//2 15//2 14//2 2//2
f 4//3 16//3 15//3 3//3
f 5//4 17//4 16//4 4//4
f 6//5 18//5 17//5 5//5
f 7//6 19//6 18//6 6//6
f 8//7 20//7 19//7 7//7
f 9//8 21//8 20//8 8//8
f 10//9 22//9 21//9 9//9
f 11//10 23//10 22//10 10//10
f 12//11 24//11 23//11 11//11
f 13//12 25//12 24//12 12//12
f 2//13 14//13 25//13 13//13
f 15//14 27//14 26//14 14//14
f 16//15 28//15 27//15 15//15
f 17//16 29//16 28//16 16//16
f 18//17 30//17 29//17 17//17
f 19//18 31//18 30//18 18//18
f 20//19 32//19 31//19 19//19
f 21//20 33//20 32//20 20//20
f 22//21 34//21 33//21 21//21
f 23//22 35//22 34//22 22//22
f 24//23 36//23 35//23 23//23
f 25//24 37//24 36//24 24//24
f 14//25 26//25 37//25 25//25
f 27//26 39//26 38//26 26//26
f 28//27 40//27 39//27 27//27
f 29//28 41//28 40//28 28//28
f 30//29 42//29 41//29 29//29
f 31//30 43//30 42//30 30//30
f 32//31 44//31 43//31 31//31
f 33//32 45//32 44//32 32//32
f 34//33 46//33 45//33 33//33
f 35//34 47//34 46//34 34//34
f 36//35 48//35 47//35 35//35
f 37//36 49//36 48//36 36//36
f 26//37 38//37 49//37 37//37
f 39//38 51//38 50//38 38//38
f 40//39 52//39 51//39 39//39
f 41//40 53//40 52//40 40//40
f 42//41 54//41 53//41 41//41
f 43//42 55//42 54//42 42//42
f 44//43 56//43 55//43 43//43
f 45//44 57//44 56//44 44//44
f 46//45 58//45 57//45 45//45
f 47//46 59//46 58//46 46//46
f 48//47 60//47 59//47 47//47
f 49//48 61//48 60//48 48//48
f 38//49 50//49 61//49 49//49
