# Blender 4.4.1
# www.blender.org
o Mountain_067
v 1.490824 0.000000 0.268322
v 1.490824 22.324646 0.268322
v 1.490824 22.324646 0.268322
v 1.490824 22.324646 0.268322
v 1.490824 22.324646 0.268322
v 1.490824 22.324646 0.268322
v 1.490824 22.324646 0.268322
v 1.490824 22.324646 0.268322
v 1.490824 22.324646 0.268322
v 1.490824 22.324646 0.268322
v 1.490824 22.324646 0.268322
v 1.490824 22.324646 0.268322
v 1.490824 22.324646 0.268322
v 8.491190 19.610909 0.268322
v 7.245065 19.316198 3.590534
v 5.057703 19.693657 6.446337
v 1.490824 19.015497 7.328654
v -1.915352 19.665501 6.167992
v -4.423774 19.373043 3.683117
v -5.425784 19.342690 0.268322
v -4.344204 18.981703 -3.100533
v -2.061383 19.183744 -5.884281
v 1.490824 19.089066 -6.469826
v 4.906911 19.070543 -5.648514
v 7.420849 19.147526 -3.155380
v 14.137242 14.403590 0.268322
v 12.518236 14.781371 6.635002
v 7.953866 14.198084 11.462639
v 1.490824 14.271717 13.394583
v -4.912166 15.127203 11.358625
v -9.425416 14.294557 6.570817
v -13.112559 13.676749 0.268322
v -10.005829 14.284261 -6.369274
v -5.154292 15.258852 -11.241356
v 1.490824 13.738662 -12.582191
v 7.699727 14.196270 -10.485813
v 13.911679 15.326905 -6.902862
v 19.913277 6.816379 0.268322
v 19.145119 8.377711 10.461033
v 11.026626 7.560135 16.784815
v 1.490824 8.828370 21.089613
v -9.425045 7.237965 19.175161
v -17.682867 9.102784 11.338258
v -19.033451 9.242742 0.268322
v -18.102131 7.452151 -11.043676
v -7.564772 6.511271 -15.416430
v 1.490824 6.670878 -17.297758
v 11.747246 8.719754 -17.496323
v 17.851194 8.421471 -9.177342
v 27.114269 2.127264 0.268322
v 27.426548 -0.293219 15.242319
v 14.014413 -0.062825 21.959814
v 1.490824 -1.126290 30.473064
v -10.283522 0.050185 20.662086
v -19.821692 1.190920 12.573108
v -29.843678 2.206823 0.268322
v -19.801678 1.431498 -12.024909
v -10.534690 0.921833 -20.560480
v 1.490824 0.898098 -30.473064
v 15.178817 -1.423472 -23.439976
v 29.843678 0.407185 -16.101206
vn -0.0000 1.0000 -0.0000
vn 0.3531 0.9109 0.2133
vn 0.3781 0.9102 0.1693
vn -0.0670 0.9034 0.4234
vn 0.0282 0.9051 0.4242
vn -0.3287 0.9175 0.2238
vn -0.3936 0.9130 0.1074
vn -0.3862 0.8958 -0.2200
vn -0.3737 0.8956 -0.2414
vn -0.0473 0.9004 -0.4324
vn 0.1083 0.8962 -0.4303
vn 0.2943 0.8989 -0.3245
vn 0.3515 0.9068 -0.2326
vn 0.6268 0.7584 0.1788
vn 0.4844 0.7528 0.4458
vn 0.1381 0.7452 0.6524
vn -0.0827 0.7796 0.6208
vn -0.5226 0.7597 0.3870
vn -0.5960 0.7674 0.2364
vn -0.5650 0.7961 -0.2169
vn -0.4821 0.8139 -0.3242
vn 0.0041 0.7770 -0.6295
vn 0.1634 0.7415 -0.6507
vn 0.2602 0.8047 -0.5336
vn 0.5890 0.8073 -0.0370
vn 0.7440 0.6675 0.0291
vn 0.4196 0.7094 0.5663
vn 0.2994 0.7336 0.6101
vn -0.1725 0.7712 0.6127
vn -0.3812 0.8067 0.4516
vn -0.5267 0.8401 0.1296
vn -0.5783 0.7952 -0.1825
vn -0.3964 0.6408 -0.6575
vn -0.1321 0.5010 -0.8553
vn -0.0189 0.6795 -0.7334
vn 0.4689 0.7032 -0.5344
vn 0.8282 0.5597 -0.0288
vn 0.6461 0.7623 0.0377
vn 0.3766 0.6586 0.6515
vn 0.3967 0.6246 0.6727
vn -0.4037 0.5043 0.7634
vn -0.6201 0.2567 0.7413
vn -0.6883 0.6265 0.3658
vn -0.6549 0.6557 -0.3757
vn -0.4273 0.5503 -0.7174
vn -0.2712 0.8370 -0.4752
vn 0.1827 0.7715 -0.6094
vn 0.3782 0.7272 -0.5728
vn 0.5546 0.8321 0.0106
s 0
f 3//1 2//1 1//1
f 4//1 3//1 1//1
f 5//1 4//1 1//1
f 6//1 5//1 1//1
f 7//1 6//1 1//1
f 8//1 7//1 1//1
f 9//1 8//1 1//1
f 10//1 9//1 1//1
f 11//1 10//1 1//1
f 12//1 11//1 1//1
f 13//1 12//1 1//1
f 2//1 13//1 1//1
f 3//2 15//2 14//2 2//2
f 4//3 16//3 15//3 3//3
f 5//4 17//4 16//4 4//4
f 6//5 18//5 17//5 5//5
f 7//6 19//6 18//6 6//6
f 8//7 20//7 19//7 7//7
f 9//8 21//8 20//8 8//8
f 10//9 22//9 21//9 9//9
f 11//10 23//10 22//10 10//10
f 12//11 24//11 23//11 11//11
f 13//12 25//12 24//12 12//12
f 2//13 14//13 25//13 13//13
f 15//14 27//14 26//14 14//14
f 16//15 28//15 27//15 15//15
f 17//16 29//16 28//16 16//16
f 18//17 30//17 29//17 17//17
f 19//18 31//18 30//18 18//18
f 20//19 32//19 31//19 19//19
f 21//20 33//20 32//20 20//20
f 22//21 34//21 33//21 21//21
f 23//22 35//22 34//22 22//22
f 24//23 36//23 35//23 23//23
f 25//24 37//24 36//24 24//24
f 14//25 26//25 37//25 25//25
f 27//26 39//26 38//26 26//26
f 28//27 40//27 39//27 27//27
f 29//28 41//28 40//28 28//28
f 30//29 42//29 41//29 29//29
f 31//30 43//30 42//30 30//30
f 32//31 44//31 43//31 31//31
f 33//32 45//32 44//32 32//32
f 34//33 46//33 45//33 33//33
f 35//34 47//34 46//34 34//34
f 36//35 48//35 47//35 35//35
f 37//36 49//36 48//36 36//36
f 26//37 38//37 49//37 37//37
f 39//38 51//38 50//38 38//38
f 40//39 52//39 51//39 39//39
f 41//40 53//40 52//40 40//40
f 42//41 54//41 53//41 41//41
f 43//42 55//42 54//42 42//42
f 44//43 56//43 55//43 43//43
f 45//44 57//44 56//44 44//44
f 46//45 58//45 57//45 45//45
f 47//46 59//46 58//46 46//46
f 48//47 60//47 59//47 47//47
f 49//48 61//48 60//48 48//48
f 38//49 50//49 61//49 49//49
