# Blender 4.4.1
# www.blender.org
o Mountain_035
v 0.970662 0.000000 -0.039657
v 0.970662 21.079947 -0.039657
v 0.970662 21.079947 -0.039657
v 0.970662 21.079947 -0.039657
v 0.970662 21.079947 -0.039657
v 0.970662 21.079947 -0.039657
v 0.970662 21.079947 -0.039657
v 0.970662 21.079947 -0.039657
v 0.970662 21.079947 -0.039657
v 0.970662 21.079947 -0.039657
v 0.970662 21.079947 -0.039657
v 0.970662 21.079947 -0.039657
v 0.970662 21.079947 -0.039657
v 6.356349 18.258461 -0.039657
v 5.785514 17.962418 2.740199
v 3.835116 18.467009 4.921723
v 0.970662 18.590952 5.313757
v -1.691064 18.853397 4.570587
v -3.955656 18.147503 2.804554
v -4.305699 18.585039 -0.039657
v -3.699377 18.094351 -2.735905
v -1.712300 18.044064 -4.686682
v 0.970662 17.927366 -5.687180
v 3.589374 18.743734 -4.575401
v 5.712361 18.546360 -2.777279
v 11.665947 12.761685 -0.039657
v 9.826725 12.765737 5.073393
v 6.589722 14.535287 9.692842
v 0.970662 13.890838 12.029094
v -4.034893 13.931823 8.630217
v -8.919049 14.241468 5.670170
v -9.185466 13.063540 -0.039657
v -9.452097 14.235347 -6.057240
v -4.799948 14.271106 -10.034647
v 0.970662 12.979832 -10.882747
v 6.667230 13.328077 -9.906404
v 9.783057 14.467439 -5.127497
v 17.364506 7.190495 -0.039657
v 14.352793 8.011151 7.686520
v 8.437643 6.397236 12.893534
v 0.970662 8.122974 15.674266
v -6.707622 8.435844 13.259521
v -15.062868 7.560512 9.217305
v -13.366067 6.297313 -0.039657
v -12.415568 6.639832 -7.768201
v -6.934336 5.809400 -13.731515
v 0.970662 7.005656 -17.187948
v 8.427167 5.866315 -12.954703
v 16.757580 8.260881 -9.154240
v 20.631924 0.931749 -0.039657
v 21.188354 0.164240 11.633034
v 11.454262 0.101478 18.118469
v 0.970662 0.216988 21.894087
v -10.503333 -0.747916 19.833885
v -19.114805 -1.642279 11.556693
v -21.188354 -1.826873 -0.039657
v -20.592480 -1.560868 -12.489142
v -11.646998 -1.256032 -21.894087
v 0.970662 -1.691651 -21.866446
v 12.260114 1.417835 -19.593561
v 21.185555 0.108863 -11.710732
vn -0.0000 1.0000 -0.0000
vn 0.4559 0.8703 0.1863
vn 0.4487 0.8711 0.1997
vn 0.0965 0.9026 0.4196
vn -0.0283 0.9064 0.4214
vn -0.4214 0.8877 0.1855
vn -0.4198 0.8879 0.1883
vn -0.4136 0.8748 -0.2522
vn -0.3401 0.8651 -0.3688
vn -0.1423 0.8643 -0.4825
vn -0.0651 0.8713 -0.4864
vn 0.3215 0.9045 -0.2803
vn 0.4640 0.8857 -0.0160
vn 0.7043 0.6682 0.2398
vn 0.6603 0.7011 0.2692
vn 0.1352 0.8074 0.5743
vn -0.2947 0.7437 0.6000
vn -0.3951 0.7468 0.5350
vn -0.6935 0.7203 -0.0124
vn -0.6669 0.7445 0.0322
vn -0.3490 0.8507 -0.3930
vn -0.0104 0.7720 -0.6355
vn 0.0720 0.7212 -0.6890
vn 0.4691 0.7414 -0.4798
vn 0.7075 0.7050 -0.0488
vn 0.6686 0.7143 0.2067
vn 0.6125 0.5561 0.5617
vn 0.3572 0.4503 0.8183
vn -0.3163 0.6092 0.7272
vn -0.3628 0.6861 0.6306
vn -0.8028 0.5715 -0.1699
vn -0.8955 0.4449 0.0045
vn -0.6185 0.4200 -0.6641
vn -0.2417 0.5765 -0.7805
vn 0.3324 0.5678 -0.7531
vn 0.3540 0.5983 -0.7188
vn 0.6844 0.7288 0.0225
vn 0.7957 0.5976 0.0991
vn 0.3925 0.6771 0.6225
vn 0.3217 0.6346 0.7027
vn -0.1992 0.6153 0.7627
vn -0.5300 0.5423 0.6520
vn -0.8262 0.5629 -0.0242
vn -0.7090 0.7044 -0.0331
vn -0.4549 0.7666 -0.4532
vn -0.1485 0.6509 -0.7445
vn 0.1790 0.6714 -0.7192
vn 0.3732 0.6940 -0.6157
vn 0.8823 0.4706 0.0033
s 0
f 3//1 2//1 1//1
f 4//1 3//1 1//1
f 5//1 4//1 1//1
f 6//1 5//1 1//1
f 7//1 6//1 1//1
f 8//1 7//1 1//1
f 9//1 8//1 1//1
f 10//1 9//1 1//1
f 11//1 10//1 1//1
f 12//1 11//1 1//1
f 13//1 12//1 1//1
f 2//1 13//1 1//1
f 3//2 15//2 14//2 2//2
f 4//3 16//3 15//3 3//3
f 5//4 17//4 16//4 4//4
f 6//5 18//5 17//5 5//5
f 7//6 19//6 18//6 6//6
f 8//7 20//7 19//7 7//7
f 9//8 21//8 20//8 8//8
f 10//9 22//9 21//9 9//9
f 11//10 23//10 22//10 10//10
f 12//11 24//11 23//11 11//11
f 13//12 25//12 24//12 12//12
f 2//13 14//13 25//13 13//13
f 15//14 27//14 26//14 14//14
f 16//15 28//15 27//15 15//15
f 17//16 29//16 28//16 16//16
f 18//17 30//17 29//17 17//17
f 19//18 31//18 30//18 18//18
f 20//19 32//19 31//19 19//19
f 21//20 33//20 32//20 20//20
f 22//21 34//21 33//21 21//21
f 23//22 35//22 34//22 22//22
f 24//23 36//23 35//23 23//23
f 25//24 37//24 36//24 24//24
f 14//25 26//25 37//25 25//25
f 27//26 39//26 38//26 26//26
f 28//27 40//27 39//27 27//27
f 29//28 41//28 40//28 28//28
f 30//29 42//29 41//29 29//29
f 31//30 43//30 42//30 30//30
f 32//31 44//31 43//31 31//31
f 33//32 45//32 44//32 32//32
f 34//33 46//33 45//33 33//33
f 35//34 47//34 46//34 34//34
f 36//35 48//35 47//35 35//35
f 37//36 49//36 48//36 36//36
f 26//37 38//37 49//37 37//37
f 39//38 51//38 50//38 38//38
f 40//39 52//39 51//39 39//39
f 41//40 53//40 52//40 40//40
f 42//41 54//41 53//41 41//41
f 43//42 55//42 54//42 42//42
f 44//43 56//43 55//43 43//43
f 45//44 57//44 56//44 44//44
f 46//45 58//45 57//45 45//45
f 47//46 59//46 58//46 46//46
f 48//47 60//47 59//47 47//47
f 49//48 61//48 60//48 48//48
f 38//49 50//49 61//49 49//49
