# Blender 4.4.1
# www.blender.org
o Mountain_071
v 0.370097 0.000000 2.982774
v 0.370097 21.063160 2.982774
v 0.370097 21.063160 2.982774
v 0.370097 21.063160 2.982774
v 0.370097 21.063160 2.982774
v 0.370097 21.063160 2.982774
v 0.370097 21.063160 2.982774
v 0.370097 21.063160 2.982774
v 0.370097 21.063160 2.982774
v 0.370097 21.063160 2.982774
v 0.370097 21.063160 2.982774
v 0.370097 21.063160 2.982774
v 0.370097 21.063160 2.982774
v 6.212485 18.835945 2.982774
v 5.241947 18.660341 5.795538
v 3.414815 18.754086 8.256381
v 0.370097 18.713381 8.937232
v -2.462533 18.918579 7.889033
v -4.716573 18.671144 5.919565
v -5.582704 18.883362 2.982774
v -4.627760 18.730785 0.097260
v -2.514715 18.283155 -2.013867
v 0.370097 18.357492 -3.089980
v 3.416656 18.719015 -2.294021
v 5.391426 18.123608 0.083709
v 12.357067 12.721021 2.982774
v 9.820786 13.885374 8.439132
v 6.231215 14.258059 13.134527
v 0.370097 14.396509 13.872551
v -5.549207 14.603959 13.235310
v -10.358404 12.746653 9.176877
v -10.405898 13.223841 2.982774
v -10.668410 12.903162 -3.390311
v -5.236046 13.328335 -6.727350
v 0.370097 12.940474 -7.781763
v 6.553052 13.106362 -7.726419
v 10.472566 13.102323 -2.849889
v 19.950022 7.857080 2.982774
v 13.961920 6.194167 10.830016
v 9.347506 5.927591 18.532101
v 0.370097 7.069256 22.469524
v -9.367994 8.700179 19.849644
v -13.169333 6.961180 10.799767
v -19.041882 8.810460 2.982774
v -14.287742 7.957895 -5.479933
v -8.441618 6.632895 -12.279563
v 0.370097 7.959016 -16.591232
v 9.484407 7.836780 -12.803675
v 16.706972 6.575992 -6.449325
v 26.840155 -2.072855 2.982774
v 23.552429 -0.881870 16.367100
v 10.494711 -0.424295 20.519119
v 0.370097 -0.470875 22.432364
v -11.180988 -1.712422 22.989841
v -19.666214 0.600235 14.550743
v -26.840155 -0.148061 2.982774
v -16.578104 0.976396 -6.802274
v -13.316345 1.779798 -20.722839
v 0.370097 -1.266018 -22.989841
v 11.294633 -0.769712 -15.939077
v 24.717440 -0.057734 -11.074171
vn -0.0000 1.0000 -0.0000
vn 0.3505 0.9194 0.1783
vn 0.3316 0.9195 0.2112
vn 0.0695 0.9279 0.3662
vn -0.0683 0.9280 0.3662
vn -0.3023 0.9251 0.2298
vn -0.3390 0.9259 0.1669
vn -0.3393 0.9267 -0.1613
vn -0.1965 0.9006 -0.3876
vn -0.1727 0.8997 -0.4009
vn -0.0021 0.9134 -0.4070
vn 0.4380 0.8878 -0.1415
vn 0.3382 0.8872 -0.3138
vn 0.6733 0.7117 0.2004
vn 0.5550 0.7442 0.3716
vn 0.1112 0.7551 0.6462
vn -0.0840 0.7755 0.6258
vn -0.5365 0.7620 0.3626
vn -0.7188 0.6841 0.1236
vn -0.7101 0.6985 -0.0888
vn -0.3940 0.7374 -0.5486
vn -0.1533 0.6856 -0.7117
vn 0.0287 0.6804 -0.7323
vn 0.5545 0.7352 -0.3898
vn 0.6544 0.7203 -0.2301
vn 0.6207 0.6605 0.4225
vn 0.7028 0.5422 0.4605
vn 0.2750 0.6706 0.6890
vn -0.0458 0.7594 0.6490
vn -0.7214 0.6227 0.3030
vn -0.5888 0.7195 0.3683
vn -0.5647 0.7916 -0.2336
vn -0.4722 0.6603 -0.5840
vn -0.2636 0.7764 -0.5724
vn 0.1405 0.8105 -0.5686
vn 0.5246 0.7299 -0.4382
vn 0.5791 0.7790 -0.2404
vn 0.6367 0.7128 0.2940
vn 0.4163 0.6745 0.6097
vn 0.2974 0.1567 0.9418
vn -0.0916 0.1786 0.9796
vn -0.6800 0.5404 0.4955
vn -0.5996 0.6676 0.4414
vn -0.6819 0.4775 -0.5540
vn -0.6752 0.6676 -0.3136
vn -0.1358 0.7407 -0.6580
vn 0.4154 0.4613 -0.7840
vn 0.3924 0.6054 -0.6924
vn 0.7158 0.6837 -0.1422
s 0
f 3//1 2//1 1//1
f 4//1 3//1 1//1
f 5//1 4//1 1//1
f 6//1 5//1 1//1
f 7//1 6//1 1//1
f 8//1 7//1 1//1
f 9//1 8//1 1//1
f 10//1 9//1 1//1
f 11//1 10//1 1//1
f 12//1 11//1 1//1
f 13//1 12//1 1//1
f 2//1 13//1 1//1
f 3//2 15//2 14//2 2//2
f 4//3 16//3 15//3 3//3
f 5//4 17//4 16//4 4//4
f 6//5 18//5 17//5 5//5
f 7//6 19//6 18//6 6//6
f 8//7 20//7 19//7 7//7
f 9//8 21//8 20//8 8//8
f 10//9 22//9 21//9 9//9
f 11//10 23//10 22//10 10//10
f 12//11 24//11 23//11 11//11
f 13//12 25//12 24//12 12//12
f 2//13 14//13 25//13 13//13
f 15//14 27//14 26//14 14//14
f 16//15 28//15 27//15 15//15
f 17//16 29//16 28//16 16//16
f 18//17 30//17 29//17 17//17
f 19//18 31//18 30//18 18//18
f 20//19 32//19 31//19 19//19
f 21//20 33//20 32//20 20//20
f 22//21 34//21 33//21 21//21
f 23//22 35//22 34//22 22//22
f 24//23 36//23 35//23 23//23
f 25//24 37//24 36//24 24//24
f 14//25 26//25 37//25 25//25
f 27//26 39//26 38//26 26//26
f 28//27 40//27 39//27 27//27
f 29//28 41//28 40//28 28//28
f 30//29 42//29 41//29 29//29
f 31//30 43//30 42//30 30//30
f 32//31 44//31 43//31 31//31
f 33//32 45//32 44//32 32//32
f 34//33 46//33 45//33 33//33
f 35//34 47//34 46//34 34//34
f 36//35 48//35 47//35 35//35
f 37//36 49//36 48//36 36//36
f 26//37 38//37 49//37 37//37
f 39//38 51//38 50//38 38//38
f 40//39 52//39 51//39 39//39
f 41//40 53//40 52//40 40//40
f 42//41 54//41 53//41 41//41
f 43//42 55//42 54//42 42//42
f 44//43 56//43 55//43 43//43
f 45//44 57//44 56//44 44//44
f 46//45 58//45 57//45 45//45
f 47//46 59//46 58//46 46//46
f 48//47 60//47 59//47 47//47
f 49//48 61//48 60//48 48//48
f 38//49 50//49 61//49 49//49
