# Blender 4.4.1
# www.blender.org
o Mountain_053
v 0.368855 0.000000 -0.898193
v 0.368855 15.964239 -0.898193
v 0.368855 15.964239 -0.898193
v 0.368855 15.964239 -0.898193
v 0.368855 15.964239 -0.898193
v 0.368855 15.964239 -0.898193
v 0.368855 15.964239 -0.898193
v 0.368855 15.964239 -0.898193
v 0.368855 15.964239 -0.898193
v 0.368855 15.964239 -0.898193
v 0.368855 15.964239 -0.898193
v 0.368855 15.964239 -0.898193
v 0.368855 15.964239 -0.898193
v 5.528671 14.097106 -0.898193
v 5.058144 13.771854 1.809169
v 2.991887 13.634873 3.645031
v 0.368855 13.660548 4.481557
v -2.363541 13.712924 3.834456
v -4.140532 13.883266 1.705303
v -4.784940 14.269440 -0.898193
v -4.194296 14.038321 -3.532730
v -2.307992 14.104613 -5.534629
v 0.368855 13.781189 -6.342674
v 3.183303 14.265121 -5.772958
v 4.880564 13.717342 -3.503029
v 11.656049 10.486141 -0.898193
v 10.375952 9.691566 4.879407
v 5.783727 9.531151 8.480639
v 0.368855 9.795979 9.033015
v -4.984432 10.626232 8.373974
v -9.632958 11.063649 4.876357
v -10.606115 10.298832 -0.898193
v -9.166695 11.076609 -6.403545
v -4.859244 10.597492 -9.953527
v 0.368855 10.152399 -12.063338
v 5.534494 9.721512 -9.845342
v 8.778018 9.700477 -5.753225
v 14.159380 6.721887 -0.898193
v 15.845898 4.898872 8.037481
v 8.795378 5.953734 13.696972
v 0.368855 5.897027 14.924708
v -8.399834 4.855014 14.289622
v -12.768847 5.507579 6.686863
v -15.638941 4.450087 -0.898193
v -12.203760 4.762839 -8.156996
v -8.188289 6.705954 -15.719601
v 0.368855 6.456743 -16.893888
v 8.641953 4.879976 -15.227619
v 14.632071 6.394584 -9.133064
v 18.016293 -1.571283 -0.898193
v 19.970230 0.680373 10.418667
v 13.187555 1.113079 21.304447
v 0.368855 0.306001 22.653368
v -10.620574 -0.668025 18.136059
v -18.167553 -0.044378 9.803807
v -21.926094 0.355988 -0.898193
v -19.592131 1.011141 -12.422673
v -10.334888 0.684196 -19.437618
v 0.368855 -0.249028 -22.653368
v 10.332378 -1.393644 -18.155521
v 21.926094 -0.264567 -13.344270
vn -0.0000 1.0000 -0.0000
vn 0.3353 0.9267 0.1696
vn 0.2350 0.9133 0.3326
vn 0.1333 0.9111 0.3901
vn -0.0754 0.9166 0.3925
vn -0.2583 0.9217 0.2893
vn -0.3052 0.9281 0.2132
vn -0.3088 0.9390 -0.1516
vn -0.2679 0.9377 -0.2214
vn -0.0002 0.9282 -0.3722
vn -0.0840 0.9249 -0.3708
vn 0.4053 0.9104 -0.0833
vn 0.3322 0.9180 -0.2165
vn 0.5045 0.8364 0.2145
vn 0.3516 0.8069 0.4747
vn 0.1347 0.7748 0.6176
vn -0.0109 0.7959 0.6054
vn -0.2637 0.8795 0.3962
vn -0.5018 0.8631 0.0579
vn -0.5249 0.8479 -0.0740
vn -0.3211 0.8482 -0.4213
vn -0.1228 0.8259 -0.5503
vn 0.2037 0.7752 -0.5980
vn 0.5832 0.7131 -0.3891
vn 0.5111 0.7789 -0.3633
vn 0.7080 0.6984 0.1047
vn 0.3951 0.8182 0.4177
vn 0.0822 0.8370 0.5411
vn -0.0686 0.7815 0.6202
vn -0.5471 0.6640 0.5096
vn -0.7929 0.5913 0.1474
vn -0.7888 0.5599 -0.2534
vn -0.6302 0.6754 -0.3830
vn -0.0921 0.8231 -0.5604
vn 0.2792 0.7768 -0.5644
vn 0.3395 0.8363 -0.4304
vn 0.5934 0.7855 -0.1758
vn 0.8456 0.5084 -0.1628
vn 0.4802 0.8134 0.3283
vn 0.0336 0.8308 0.5555
vn -0.2425 0.7226 0.6473
vn -0.5588 0.6815 0.4725
vn -0.5950 0.7815 0.1876
vn -0.4716 0.8762 -0.0997
vn -0.4983 0.7857 -0.3666
vn -0.1411 0.6065 -0.7825
vn 0.3397 0.5533 -0.7606
vn 0.3415 0.6248 -0.7021
vn 0.8117 0.5495 0.1980
s 0
f 3//1 2//1 1//1
f 4//1 3//1 1//1
f 5//1 4//1 1//1
f 6//1 5//1 1//1
f 7//1 6//1 1//1
f 8//1 7//1 1//1
f 9//1 8//1 1//1
f 10//1 9//1 1//1
f 11//1 10//1 1//1
f 12//1 11//1 1//1
f 13//1 12//1 1//1
f 2//1 13//1 1//1
f 3//2 15//2 14//2 2//2
f 4//3 16//3 15//3 3//3
f 5//4 17//4 16//4 4//4
f 6//5 18//5 17//5 5//5
f 7//6 19//6 18//6 6//6
f 8//7 20//7 19//7 7//7
f 9//8 21//8 20//8 8//8
f 10//9 22//9 21//9 9//9
f 11//10 23//10 22//10 10//10
f 12//11 24//11 23//11 11//11
f 13//12 25//12 24//12 12//12
f 2//13 14//13 25//13 13//13
f 15//14 27//14 26//14 14//14
f 16//15 28//15 27//15 15//15
f 17//16 29//16 28//16 16//16
f 18//17 30//17 29//17 17//17
f 19//18 31//18 30//18 18//18
f 20//19 32//19 31//19 19//19
f 21//20 33//20 32//20 20//20
f 22//21 34//21 33//21 21//21
f 23//22 35//22 34//22 22//22
f 24//23 36//23 35//23 23//23
f 25//24 37//24 36//24 24//24
f 14//25 26//25 37//25 25//25
f 27//26 39//26 38//26 26//26
f 28//27 40//27 39//27 27//27
f 29//28 41//28 40//28 28//28
f 30//29 42//29 41//29 29//29
f 31//30 43//30 42//30 30//30
f 32//31 44//31 43//31 31//31
f 33//32 45//32 44//32 32//32
f 34//33 46//33 45//33 33//33
f 35//34 47//34 46//34 34//34
f 36//35 48//35 47//35 35//35
f 37//36 49//36 48//36 36//36
f 26//37 38//37 49//37 37//37
f 39//38 51//38 50//38 38//38
f 40//39 52//39 51//39 39//39
f 41//40 53//40 52//40 40//40
f 42//41 54//41 53//41 41//41
f 43//42 55//42 54//42 42//42
f 44//43 56//43 55//43 43//43
f 45//44 57//44 56//44 44//44
f 46//45 58//45 57//45 45//45
f 47//46 59//46 58//46 46//46
f 48//47 60//47 59//47 47//47
f 49//48 61//48 60//48 48//48
f 38//49 50//49 61//49 49//49
