# Blender 4.4.1
# www.blender.org
o Mountain_065
v 1.571890 0.000000 -3.546669
v 1.571890 21.271006 -3.546669
v 1.571890 21.271006 -3.546669
v 1.571890 21.271006 -3.546669
v 1.571890 21.271006 -3.546669
v 1.571890 21.271006 -3.546669
v 1.571890 21.271006 -3.546669
v 1.571890 21.271006 -3.546669
v 1.571890 21.271006 -3.546669
v 1.571890 21.271006 -3.546669
v 1.571890 21.271006 -3.546669
v 1.571890 21.271006 -3.546669
v 1.571890 21.271006 -3.546669
v 7.233104 19.122929 -3.546669
v 6.781374 18.711456 -0.538972
v 4.674300 18.747171 1.826863
v 1.571890 18.116507 2.322873
v -1.314539 18.600033 1.452773
v -3.657038 19.095572 -0.527746
v -4.445103 18.479580 -3.546669
v -3.658994 18.926222 -6.566721
v -1.438302 18.907511 -8.760474
v 1.571890 18.771992 -9.689361
v 4.468501 18.775061 -8.563746
v 6.636241 18.207981 -6.470573
v 12.435377 13.727635 -3.546669
v 12.183310 13.771305 2.579837
v 6.932978 13.905808 5.739008
v 1.571890 13.269259 8.478385
v -4.645370 14.376668 7.221941
v -8.038301 13.716943 2.001778
v -10.623765 13.609449 -3.546669
v -8.839633 12.898540 -9.557765
v -3.837169 14.620299 -12.915433
v 1.571890 13.080298 -16.099400
v 7.869167 12.729021 -14.453873
v 11.951874 13.828032 -9.539556
v 21.016397 7.418591 -3.546669
v 17.056538 7.725399 5.393397
v 11.031595 8.380587 12.838021
v 1.571890 8.262279 12.227617
v -8.559691 8.723692 14.001745
v -12.350373 7.771284 4.491354
v -14.500279 7.629680 -3.546669
v -15.213580 6.252351 -13.237764
v -6.327858 6.517764 -17.229435
v 1.571890 7.654486 -19.518950
v 11.398829 5.971446 -20.567427
v 19.186115 7.474699 -13.716247
v 23.983877 0.189002 -3.546669
v 21.469780 1.894091 7.941383
v 11.054598 -0.848288 12.877863
v 1.571890 0.082715 24.390228
v -11.621794 0.677088 19.305462
v -18.505587 0.327878 8.045068
v -23.983877 0.096427 -3.546669
v -22.949047 -0.629123 -17.703838
v -10.462145 -1.234401 -24.390228
v 1.571890 1.360337 -23.450108
v 12.178321 -1.326997 -21.917545
v 20.456905 1.415066 -14.449938
vn -0.0000 1.0000 -0.0000
vn 0.3491 0.9200 0.1783
vn 0.3031 0.9179 0.2561
vn -0.1028 0.8762 0.4709
vn 0.0049 0.8808 0.4734
vn -0.1461 0.9051 0.3992
vn -0.4197 0.9046 -0.0750
vn -0.4207 0.9069 0.0246
vn -0.2594 0.9271 -0.2705
vn -0.0744 0.9237 -0.3758
vn 0.1439 0.9166 -0.3729
vn 0.4217 0.8851 -0.1969
vn 0.3333 0.8783 -0.3429
vn 0.6832 0.7256 0.0819
vn 0.4250 0.7237 0.5437
vn 0.1465 0.7290 0.6687
vn -0.0022 0.7962 0.6050
vn -0.5183 0.7582 0.3956
vn -0.6579 0.7267 0.1977
vn -0.6486 0.7327 -0.2060
vn -0.5265 0.7104 -0.4671
vn -0.1737 0.7353 -0.6551
vn 0.2209 0.7354 -0.6406
vn 0.4480 0.7679 -0.4579
vn 0.6501 0.7456 -0.1469
vn 0.6484 0.7434 0.1640
vn 0.4764 0.7552 0.4503
vn 0.0611 0.7276 0.6833
vn 0.0885 0.6833 0.7247
vn -0.6799 0.6871 0.2564
vn -0.7705 0.5829 0.2579
vn -0.7491 0.6481 -0.1373
vn -0.4352 0.6170 -0.6557
vn -0.3129 0.5141 -0.7986
vn 0.1081 0.6319 -0.7675
vn 0.3811 0.7438 -0.5490
vn 0.6101 0.7883 -0.0797
vn 0.8322 0.5119 0.2133
vn 0.5503 0.2962 0.7806
vn 0.4442 0.5147 0.7334
vn -0.0622 0.7366 0.6734
vn -0.7165 0.6148 0.3297
vn -0.6435 0.7280 0.2362
vn -0.6282 0.7742 -0.0767
vn -0.2962 0.7298 -0.6161
vn -0.1707 0.6411 -0.7482
vn 0.1001 0.3653 -0.9255
vn 0.6181 0.2129 -0.7567
vn 0.9265 0.3075 -0.2168
s 0
f 3//1 2//1 1//1
f 4//1 3//1 1//1
f 5//1 4//1 1//1
f 6//1 5//1 1//1
f 7//1 6//1 1//1
f 8//1 7//1 1//1
f 9//1 8//1 1//1
f 10//1 9//1 1//1
f 11//1 10//1 1//1
f 12//1 11//1 1//1
f 13//1 12//1 1//1
f 2//1 13//1 1//1
f 3//2 15//2 14//2 2//2
f 4//3 16//3 15//3 3//3
f 5//4 17//4 16//4 4//4
f 6//5 18//5 17//5 5//5
f 7//6 19//6 18//6 6//6
f 8//7 20//7 19//7 7//7
f 9//8 21//8 20//8 8//8
f 10//9 22//9 21//9 9//9
f 11//10 23//10 22//10 10//10
f 12//11 24//11 23//11 11//11
f 13//12 25//12 24//12 12//12
f 2//13 14//13 25//13 13//13
f 15//14 27//14 26//14 14//14
f 16//15 28//15 27//15 15//15
f 17//16 29//16 28//16 16//16
f 18//17 30//17 29//17 17//17
f 19//18 31//18 30//18 18//18
f 20//19 32//19 31//19 19//19
f 21//20 33//20 32//20 20//20
f 22//21 34//21 33//21 21//21
f 23//22 35//22 34//22 22//22
f 24//23 36//23 35//23 23//23
f 25//24 37//24 36//24 24//24
f 14//25 26//25 37//25 25//25
f 27//26 39//26 38//26 26//26
f 28//27 40//27 39//27 27//27
f 29//28 41//28 40//28 28//28
f 30//29 42//29 41//29 29//29
f 31//30 43//30 42//30 30//30
f 32//31 44//31 43//31 31//31
f 33//32 45//32 44//32 32//32
f 34//33 46//33 45//33 33//33
f 35//34 47//34 46//34 34//34
f 36//35 48//35 47//35 35//35
f 37//36 49//36 48//36 36//36
f 26//37 38//37 49//37 37//37
f 39//38 51//38 50//38 38//38
f 40//39 52//39 51//39 39//39
f 41//40 53//40 52//40 40//40
f 42//41 54//41 53//41 41//41
f 43//42 55//42 54//42 42//42
f 44//43 56//43 55//43 43//43
f 45//44 57//44 56//44 44//44
f 46//45 58//45 57//45 45//45
f 47//46 59//46 58//46 46//46
f 48//47 60//47 59//47 47//47
f 49//48 61//48 60//48 48//48
f 38//49 50//49 61//49 49//49
