# Blender 4.4.1
# www.blender.org
o Mountain_034
v -2.193892 0.000000 -0.795001
v -2.193892 21.308041 -0.795001
v -2.193892 21.308041 -0.795001
v -2.193892 21.308041 -0.795001
v -2.193892 21.308041 -0.795001
v -2.193892 21.308041 -0.795001
v -2.193892 21.308041 -0.795001
v -2.193892 21.308041 -0.795001
v -2.193892 21.308041 -0.795001
v -2.193892 21.308041 -0.795001
v -2.193892 21.308041 -0.795001
v -2.193892 21.308041 -0.795001
v -2.193892 21.308041 -0.795001
v 2.000652 18.289661 -0.795001
v 1.447389 18.179798 1.307294
v 0.078215 18.696136 3.140404
v -2.193892 18.534811 3.376031
v -4.441109 18.200529 3.097294
v -5.895631 18.277264 1.342199
v -6.640092 19.055218 -0.795001
v -5.913422 18.375410 -2.942472
v -4.335848 18.779287 -4.504977
v -2.193892 19.005192 -5.011967
v -0.107893 18.818781 -4.408057
v 1.734566 18.458303 -3.063097
v 6.521163 14.786603 -0.795001
v 5.451289 13.289570 3.618946
v 2.136218 14.775013 6.704970
v -2.193892 13.086339 8.307925
v -6.657753 14.053747 6.936633
v -9.983566 13.910849 3.702370
v -10.991796 14.071817 -0.795001
v -9.488826 13.448855 -5.006733
v -6.607037 14.423782 -8.438792
v -2.193892 13.488521 -9.449994
v 1.974184 13.355963 -8.014319
v 4.631511 14.446523 -4.735649
v 12.312439 6.969086 -0.795001
v 9.076430 5.896542 5.711923
v 5.205354 8.896630 12.020869
v -2.193892 5.899149 12.249855
v -8.624442 6.806200 10.343039
v -12.652067 5.893029 5.243030
v -14.831202 7.185952 -0.795001
v -13.775980 7.131668 -7.481923
v -8.098050 8.225940 -11.021302
v -2.193892 7.079269 -13.495673
v 3.906724 7.219523 -11.361578
v 8.292767 8.313581 -6.849476
v 18.191658 1.310764 -0.795001
v 14.093554 -0.917623 8.608561
v 7.413831 1.316021 15.846064
v -2.193892 1.506402 16.108484
v -9.838267 -0.896662 12.445446
v -18.191658 0.501717 8.441314
v -18.111221 0.523129 -0.795001
v -15.466992 -2.048148 -8.458229
v -9.373193 0.149032 -13.229915
v -2.193892 -1.694955 -16.108484
v 5.754478 0.917081 -14.561982
v 14.351195 -1.138657 -10.347311
vn -0.0000 1.0000 -0.0000
vn 0.5732 0.7965 0.1925
vn 0.5692 0.7974 0.2006
vn -0.0017 0.8327 0.5537
vn -0.1891 0.8177 0.5437
vn -0.4344 0.8093 0.3954
vn -0.4071 0.8035 0.4343
vn -0.4144 0.8179 -0.3991
vn -0.4892 0.8258 -0.2805
vn -0.2018 0.8596 -0.4694
vn 0.2122 0.8577 -0.4684
vn 0.4145 0.8434 -0.3418
vn 0.5841 0.8117 -0.0082
vn 0.6154 0.7159 0.3298
vn 0.6506 0.6770 0.3440
vn 0.0170 0.6737 0.7388
vn -0.1125 0.6845 0.7203
vn -0.5056 0.7203 0.4749
vn -0.6780 0.6815 0.2755
vn -0.6868 0.6262 -0.3691
vn -0.6427 0.6582 -0.3921
vn -0.1019 0.6569 -0.7470
vn 0.2752 0.6016 -0.7499
vn 0.5190 0.6077 -0.6011
vn 0.6610 0.7079 -0.2490
vn 0.7463 0.5193 0.4164
vn 0.7643 0.5620 0.3162
vn -0.0954 0.5605 0.8226
vn -0.1806 0.4656 0.8664
vn -0.7111 0.4027 0.5764
vn -0.8572 0.4069 0.3155
vn -0.8107 0.5410 -0.2239
vn -0.6108 0.5224 -0.5949
vn -0.1943 0.4744 -0.8586
vn 0.2803 0.5190 -0.8075
vn 0.5462 0.5357 -0.6440
vn 0.7379 0.5576 -0.3802
vn 0.6303 0.6495 0.4253
vn 0.7488 0.5492 0.3711
vn -0.0632 0.5307 0.8452
vn -0.3705 0.4403 0.8179
vn -0.4880 0.5319 0.6921
vn -0.7762 0.6101 0.1591
vn -0.9080 0.3028 -0.2895
vn -0.6039 0.2439 -0.7588
vn -0.3070 0.2832 -0.9086
vn 0.1662 0.3724 -0.9131
vn 0.4971 0.5387 -0.6802
vn 0.6783 0.6252 -0.3859
s 0
f 3//1 2//1 1//1
f 4//1 3//1 1//1
f 5//1 4//1 1//1
f 6//1 5//1 1//1
f 7//1 6//1 1//1
f 8//1 7//1 1//1
f 9//1 8//1 1//1
f 10//1 9//1 1//1
f 11//1 10//1 1//1
f 12//1 11//1 1//1
f 13//1 12//1 1//1
f 2//1 13//1 1//1
f 3//2 15//2 14//2 2//2
f 4//3 16//3 15//3 3//3
f 5//4 17//4 16//4 4//4
f 6//5 18//5 17//5 5//5
f 7//6 19//6 18//6 6//6
f 8//7 20//7 19//7 7//7
f 9//8 21//8 20//8 8//8
f 10//9 22//9 21//9 9//9
f 11//10 23//10 22//10 10//10
f 12//11 24//11 23//11 11//11
f 13//12 25//12 24//12 12//12
f 2//13 14//13 25//13 13//13
f 15//14 27//14 26//14 14//14
f 16//15 28//15 27//15 15//15
f 17//16 29//16 28//16 16//16
f 18//17 30//17 29//17 17//17
f 19//18 31//18 30//18 18//18
f 20//19 32//19 31//19 19//19
f 21//20 33//20 32//20 20//20
f 22//21 34//21 33//21 21//21
f 23//22 35//22 34//22 22//22
f 24//23 36//23 35//23 23//23
f 25//24 37//24 36//24 24//24
f 14//25 26//25 37//25 25//25
f 27//26 39//26 38//26 26//26
f 28//27 40//27 39//27 27//27
f 29//28 41//28 40//28 28//28
f 30//29 42//29 41//29 29//29
f 31//30 43//30 42//30 30//30
f 32//31 44//31 43//31 31//31
f 33//32 45//32 44//32 32//32
f 34//33 46//33 45//33 33//33
f 35//34 47//34 46//34 34//34
f 36//35 48//35 47//35 35//35
f 37//36 49//36 48//36 36//36
f 26//37 38//37 49//37 37//37
f 39//38 51//38 50//38 38//38
f 40//39 52//39 51//39 39//39
f 41//40 53//40 52//40 40//40
f 42//41 54//41 53//41 41//41
f 43//42 55//42 54//42 42//42
f 44//43 56//43 55//43 43//43
f 45//44 57//44 56//44 44//44
f 46//45 58//45 57//45 45//45
f 47//46 59//46 58//46 46//46
f 48//47 60//47 59//47 47//47
f 49//48 61//48 60//48 48//48
f 38//49 50//49 61//49 49//49
