# Blender 4.4.1
# www.blender.org
o Mountain_066
v -1.568164 0.000000 0.133278
v -1.568164 15.026913 0.133278
v -1.568164 15.026913 0.133278
v -1.568164 15.026913 0.133278
v -1.568164 15.026913 0.133278
v -1.568164 15.026913 0.133278
v -1.568164 15.026913 0.133278
v -1.568164 15.026913 0.133278
v -1.568164 15.026913 0.133278
v -1.568164 15.026913 0.133278
v -1.568164 15.026913 0.133278
v -1.568164 15.026913 0.133278
v -1.568164 15.026913 0.133278
v 2.961719 12.792343 0.133278
v 2.421958 12.831123 2.436976
v 0.626321 12.855516 3.934239
v -1.568164 12.822433 4.715485
v -3.880201 13.045478 4.137843
v -5.451622 12.978183 2.375394
v -6.296518 12.942503 0.133278
v -5.323805 13.056250 -2.035042
v -3.955123 13.057359 -4.001056
v -1.568164 13.468348 -4.246747
v 0.637975 13.320101 -3.687867
v 2.304644 13.389988 -2.102688
v 7.533199 9.757614 0.133278
v 6.646903 10.263177 4.876250
v 3.038994 9.875587 8.113110
v -1.568164 9.219332 9.976946
v -6.535545 9.548144 8.737034
v -9.221998 10.076692 4.552221
v -11.542125 9.761705 0.133278
v -9.616040 10.239483 -4.513165
v -6.107212 9.154452 -7.728582
v -1.568164 9.734481 -8.092316
v 2.677783 9.152643 -7.220919
v 6.138791 10.067863 -4.316334
v 10.277182 5.774750 0.133278
v 11.965961 5.734365 7.947209
v 4.757221 5.511667 11.089167
v -1.568164 4.552352 14.662409
v -9.406199 5.939406 13.709153
v -13.423704 4.761343 6.978078
v -14.952152 6.262203 0.133278
v -14.771342 5.974466 -7.489580
v -8.008620 6.073415 -11.021919
v -1.568164 5.055927 -15.383586
v 4.887784 4.342808 -11.048752
v 8.784786 5.784969 -5.844000
v 19.918291 -1.006463 0.133278
v 11.432061 0.731539 7.638962
v 7.749717 -0.021487 16.272322
v -1.568164 1.388987 21.105247
v -10.411147 0.026094 15.449774
v -18.823334 -0.061142 10.095554
v -19.918291 1.496544 0.133278
v -19.817163 0.594711 -10.402785
v -10.343613 0.349486 -15.066244
v -1.568164 0.739075 -21.105247
v 8.333417 0.608866 -17.016764
v 15.806242 -0.768698 -9.897840
vn -0.0000 1.0000 -0.0000
vn 0.4407 0.8933 0.0882
vn 0.2953 0.8930 0.3396
vn 0.1394 0.8923 0.4293
vn -0.0214 0.9009 0.4334
vn -0.3294 0.9079 0.2591
vn -0.3996 0.9065 0.1362
vn -0.3999 0.9071 -0.1318
vn -0.3408 0.9099 -0.2367
vn -0.1930 0.9244 -0.3289
vn 0.1466 0.9319 -0.3316
vn 0.2301 0.9311 -0.2830
vn 0.4398 0.8915 0.1090
vn 0.5285 0.8479 0.0415
vn 0.3047 0.8580 0.4136
vn 0.1280 0.8286 0.5451
vn -0.0798 0.8190 0.5682
vn -0.4290 0.8236 0.3710
vn -0.5142 0.8339 0.2004
vn -0.5010 0.8542 -0.1390
vn -0.3505 0.7943 -0.4961
vn -0.1623 0.7175 -0.6774
vn 0.2296 0.6953 -0.6811
vn 0.3655 0.7299 -0.5776
vn 0.5896 0.8045 -0.0717
vn 0.7369 0.6721 -0.0720
vn 0.3349 0.6965 0.6346
vn 0.2576 0.6531 0.7121
vn -0.0092 0.7607 0.6491
vn -0.5944 0.7373 0.3212
vn -0.6787 0.6693 0.3024
vn -0.6490 0.7542 -0.0998
vn -0.2978 0.7689 -0.5657
vn -0.2064 0.8064 -0.5541
vn 0.3633 0.7431 -0.5619
vn 0.4819 0.6213 -0.6179
vn 0.8021 0.5609 -0.2048
vn 0.7643 0.5835 0.2745
vn 0.6406 0.4405 0.6290
vn 0.3024 0.7990 0.5198
vn -0.2758 0.6603 0.6985
vn -0.5894 0.5976 0.5436
vn -0.6216 0.7478 0.2331
vn -0.7023 0.7096 -0.0574
vn -0.3375 0.6506 -0.6803
vn -0.3906 0.6869 -0.6129
vn 0.2912 0.8258 -0.4829
vn 0.4233 0.8154 -0.3949
vn 0.5842 0.7885 -0.1923
s 0
f 3//1 2//1 1//1
f 4//1 3//1 1//1
f 5//1 4//1 1//1
f 6//1 5//1 1//1
f 7//1 6//1 1//1
f 8//1 7//1 1//1
f 9//1 8//1 1//1
f 10//1 9//1 1//1
f 11//1 10//1 1//1
f 12//1 11//1 1//1
f 13//1 12//1 1//1
f 2//1 13//1 1//1
f 3//2 15//2 14//2 2//2
f 4//3 16//3 15//3 3//3
f 5//4 17//4 16//4 4//4
f 6//5 18//5 17//5 5//5
f 7//6 19//6 18//6 6//6
f 8//7 20//7 19//7 7//7
f 9//8 21//8 20//8 8//8
f 10//9 22//9 21//9 9//9
f 11//10 23//10 22//10 10//10
f 12//11 24//11 23//11 11//11
f 13//12 25//12 24//12 12//12
f 2//13 14//13 25//13 13//13
f 15//14 27//14 26//14 14//14
f 16//15 28//15 27//15 15//15
f 17//16 29//16 28//16 16//16
f 18//17 30//17 29//17 17//17
f 19//18 31//18 30//18 18//18
f 20//19 32//19 31//19 19//19
f 21//20 33//20 32//20 20//20
f 22//21 34//21 33//21 21//21
f 23//22 35//22 34//22 22//22
f 24//23 36//23 35//23 23//23
f 25//24 37//24 36//24 24//24
f 14//25 26//25 37//25 25//25
f 27//26 39//26 38//26 26//26
f 28//27 40//27 39//27 27//27
f 29//28 41//28 40//28 28//28
f 30//29 42//29 41//29 29//29
f 31//30 43//30 42//30 30//30
f 32//31 44//31 43//31 31//31
f 33//32 45//32 44//32 32//32
f 34//33 46//33 45//33 33//33
f 35//34 47//34 46//34 34//34
f 36//35 48//35 47//35 35//35
f 37//36 49//36 48//36 36//36
f 26//37 38//37 49//37 37//37
f 39//38 51//38 50//38 38//38
f 40//39 52//39 51//39 39//39
f 41//40 53//40 52//40 40//40
f 42//41 54//41 53//41 41//41
f 43//42 55//42 54//42 42//42
f 44//43 56//43 55//43 43//43
f 45//44 57//44 56//44 44//44
f 46//45 58//45 57//45 45//45
f 47//46 59//46 58//46 46//46
f 48//47 60//47 59//47 47//47
f 49//48 61//48 60//48 48//48
f 38//49 50//49 61//49 49//49
