# Blender 4.4.1
# www.blender.org
o Mountain_069
v -0.749758 0.000000 -2.228130
v -0.749758 17.712290 -2.228130
v -0.749758 17.712290 -2.228130
v -0.749758 17.712290 -2.228130
v -0.749758 17.712290 -2.228130
v -0.749758 17.712290 -2.228130
v -0.749758 17.712290 -2.228130
v -0.749758 17.712290 -2.228130
v -0.749758 17.712290 -2.228130
v -0.749758 17.712290 -2.228130
v -0.749758 17.712290 -2.228130
v -0.749758 17.712290 -2.228130
v -0.749758 17.712290 -2.228130
v 5.115021 15.119253 -2.228130
v 4.422597 15.860585 0.758131
v 2.458706 15.144215 3.329093
v -0.749758 15.699080 3.916928
v -3.908460 15.589731 3.242903
v -5.992502 15.073792 0.798770
v -7.078542 15.731565 -2.228130
v -6.134006 15.094183 -5.336727
v -3.736965 15.129479 -7.402124
v -0.749758 15.611067 -8.137759
v 2.165485 15.911269 -7.277478
v 4.800688 15.149621 -5.432681
v 12.086400 11.163801 -2.228130
v 10.305801 10.922792 4.154801
v 5.354895 11.561374 8.345439
v -0.749758 10.853401 9.892680
v -6.672183 10.838114 8.029811
v -10.421996 11.790198 3.356140
v -13.319576 10.782430 -2.228130
v -12.054708 10.746544 -8.755045
v -6.629260 11.470493 -12.411726
v -0.749758 10.815658 -15.310296
v 5.884093 10.606946 -13.718296
v 9.710674 10.825473 -8.267463
v 18.493137 5.479537 -2.228130
v 16.983294 5.901602 8.010053
v 9.502858 7.065409 15.529922
v -0.749758 5.329890 14.019938
v -8.867523 5.149695 11.832253
v -18.849949 5.828709 8.222021
v -19.773853 5.193838 -2.228130
v -18.694563 7.323359 -12.588568
v -11.033711 6.485477 -20.040459
v -0.749758 6.288802 -18.838360
v 8.717928 6.684546 -18.626644
v 13.502100 6.652239 -10.456444
v 21.818993 1.124952 -2.228130
v 19.192970 -1.403088 9.285810
v 13.548296 0.572928 22.536827
v -0.749758 1.100710 26.531221
v -14.043069 -1.500693 20.796560
v -17.752462 1.534221 7.588386
v -21.818993 0.552107 -2.228130
v -20.453606 -0.387546 -13.604152
v -14.092278 1.011535 -25.338053
v -0.749758 -1.532773 -26.531221
v 11.889191 1.628062 -24.119431
v 18.599291 -1.450824 -13.399308
vn -0.0000 1.0000 -0.0000
vn 0.4008 0.9066 -0.1321
vn 0.1267 0.9263 0.3549
vn 0.2161 0.9278 0.3040
vn -0.0988 0.9456 0.3098
vn -0.3829 0.9141 0.1335
vn -0.2849 0.9104 0.3001
vn -0.2871 0.9175 -0.2754
vn -0.2717 0.9145 -0.2997
vn -0.2282 0.9173 -0.3262
vn 0.0018 0.9422 -0.3350
vn 0.3554 0.9263 -0.1252
vn 0.4042 0.9142 -0.0310
vn 0.5480 0.8304 0.1003
vn 0.3967 0.8187 0.4151
vn 0.1206 0.8029 0.5838
vn -0.1855 0.7566 0.6270
vn -0.4521 0.7875 0.4188
vn -0.5603 0.7966 0.2268
vn -0.5634 0.8051 -0.1854
vn -0.3749 0.8355 -0.4017
vn -0.1995 0.8266 -0.5263
vn 0.1375 0.8131 -0.5657
vn 0.4852 0.7919 -0.3708
vn 0.5325 0.8266 -0.1825
vn 0.6093 0.7850 0.1121
vn 0.4224 0.8489 0.3177
vn -0.1067 0.7246 0.6809
vn -0.2311 0.5916 0.7724
vn -0.2893 0.7271 0.6227
vn -0.5994 0.7981 0.0611
vn -0.5712 0.8205 0.0224
vn -0.2985 0.8837 -0.3606
vn -0.0271 0.7659 -0.6423
vn 0.0694 0.7164 -0.6942
vn 0.5460 0.7586 -0.3556
vn 0.6338 0.7190 -0.2852
vn 0.8744 0.4380 0.2087
vn 0.7353 0.5613 0.3798
vn 0.0055 0.8769 0.4806
vn -0.2580 0.8855 0.3864
vn -0.5283 0.6301 0.5692
vn -0.9689 0.0863 0.2317
vn -0.9497 0.2999 -0.0904
vn -0.7067 0.4986 -0.5019
vn 0.0800 0.6871 -0.7221
vn -0.0311 0.7113 -0.7022
vn 0.6972 0.6422 -0.3185
vn 0.7344 0.5799 -0.3528
s 0
f 3//1 2//1 1//1
f 4//1 3//1 1//1
f 5//1 4//1 1//1
f 6//1 5//1 1//1
f 7//1 6//1 1//1
f 8//1 7//1 1//1
f 9//1 8//1 1//1
f 10//1 9//1 1//1
f 11//1 10//1 1//1
f 12//1 11//1 1//1
f 13//1 12//1 1//1
f 2//1 13//1 1//1
f 3//2 15//2 14//2 2//2
f 4//3 16//3 15//3 3//3
f 5//4 17//4 16//4 4//4
f 6//5 18//5 17//5 5//5
f 7//6 19//6 18//6 6//6
f 8//7 20//7 19//7 7//7
f 9//8 21//8 20//8 8//8
f 10//9 22//9 21//9 9//9
f 11//10 23//10 22//10 10//10
f 12//11 24//11 23//11 11//11
f 13//12 25//12 24//12 12//12
f 2//13 14//13 25//13 13//13
f 15//14 27//14 26//14 14//14
f 16//15 28//15 27//15 15//15
f 17//16 29//16 28//16 16//16
f 18//17 30//17 29//17 17//17
f 19//18 31//18 30//18 18//18
f 20//19 32//19 31//19 19//19
f 21//20 33//20 32//20 20//20
f 22//21 34//21 33//21 21//21
f 23//22 35//22 34//22 22//22
f 24//23 36//23 35//23 23//23
f 25//24 37//24 36//24 24//24
f 14//25 26//25 37//25 25//25
f 27//26 39//26 38//26 26//26
f 28//27 40//27 39//27 27//27
f 29//28 41//28 40//28 28//28
f 30//29 42//29 41//29 29//29
f 31//30 43//30 42//30 30//30
f 32//31 44//31 43//31 31//31
f 33//32 45//32 44//32 32//32
f 34//33 46//33 45//33 33//33
f 35//34 47//34 46//34 34//34
f 36//35 48//35 47//35 35//35
f 37//36 49//36 48//36 36//36
f 26//37 38//37 49//37 37//37
f 39//38 51//38 50//38 38//38
f 40//39 52//39 51//39 39//39
f 41//40 53//40 52//40 40//40
f 42//41 54//41 53//41 41//41
f 43//42 55//42 54//42 42//42
f 44//43 56//43 55//43 43//43
f 45//44 57//44 56//44 44//44
f 46//45 58//45 57//45 45//45
f 47//46 59//46 58//46 46//46
f 48//47 60//47 59//47 47//47
f 49//48 61//48 60//48 48//48
f 38//49 50//49 61//49 49//49
