# Blender 4.4.1
# www.blender.org
o Mountain_047
v 0.030815 0.000000 0.045018
v 0.030815 13.985106 0.045018
v 0.030815 13.985106 0.045018
v 0.030815 13.985106 0.045018
v 0.030815 13.985106 0.045018
v 0.030815 13.985106 0.045018
v 0.030815 13.985106 0.045018
v 0.030815 13.985106 0.045018
v 0.030815 13.985106 0.045018
v 0.030815 13.985106 0.045018
v 0.030815 13.985106 0.045018
v 0.030815 13.985106 0.045018
v 0.030815 13.985106 0.045018
v 5.132321 12.526746 0.045018
v 4.451102 12.275995 2.597072
v 2.658992 12.415447 4.597155
v 0.030815 12.017406 5.006221
v -2.512810 12.274633 4.450706
v -4.223494 12.465097 2.501245
v -5.289550 12.099854 0.045018
v -4.454015 12.211411 -2.544299
v -2.421449 11.889050 -4.202428
v 0.030815 12.555846 -4.980922
v 2.690909 12.217766 -4.562400
v 4.557791 12.511555 -2.568632
v 10.156454 9.029277 0.045018
v 9.282607 8.683655 5.386543
v 4.787010 8.729059 8.282990
v 0.030815 8.434684 11.359205
v -5.370142 9.153996 9.399750
v -9.002928 9.555759 5.260652
v -10.528995 9.007116 0.045018
v -9.232394 8.508608 -5.303098
v -5.130199 9.145881 -8.894119
v 0.030815 8.569112 -10.962233
v 4.724364 8.788445 -8.084447
v 9.622291 8.530863 -5.492623
v 13.915173 4.424629 0.045018
v 13.083060 5.766012 7.580736
v 7.419356 4.460680 12.842346
v 0.030815 5.816804 15.626572
v -7.723484 5.460447 13.475859
v -12.073397 4.050887 7.033388
v -16.584040 4.993211 0.045018
v -14.838836 5.587109 -8.539978
v -8.119865 4.484209 -14.072373
v 0.030815 5.296620 -16.258549
v 6.816677 5.069432 -11.708439
v 14.703335 3.879686 -8.426165
v 20.772955 -0.355182 0.045018
v 17.756693 -0.446648 10.279058
v 12.018876 -1.112046 20.808950
v 0.030815 -0.780051 17.792059
v -8.982165 1.110576 15.655958
v -18.611919 0.926978 10.808406
v -20.772955 0.089772 0.045018
v -18.167395 0.716895 -10.461723
v -8.675543 -0.110506 -15.034837
v 0.030815 0.891815 -17.058264
v 12.070859 -0.057288 -20.808950
v 16.520285 -0.384399 -9.475182
vn -0.0000 1.0000 -0.0000
vn 0.2711 0.9482 0.1655
vn 0.2668 0.9481 0.1729
vn -0.0831 0.9263 0.3674
vn 0.0135 0.9295 0.3686
vn -0.1892 0.9473 0.2586
vn -0.3340 0.9426 0.0048
vn -0.3332 0.9405 -0.0670
vn -0.1523 0.9184 -0.3653
vn -0.3290 0.9083 -0.2583
vn 0.1631 0.9490 -0.2699
vn 0.1481 0.9489 -0.2785
vn 0.2743 0.9594 -0.0659
vn 0.5435 0.8222 0.1692
vn 0.3898 0.7915 0.4707
vn 0.1836 0.8143 0.5507
vn -0.0519 0.8646 0.4997
vn -0.3203 0.8737 0.3661
vn -0.4994 0.8639 0.0658
vn -0.5178 0.8364 -0.1799
vn -0.3633 0.8536 -0.3734
vn -0.1925 0.8514 -0.4880
vn 0.2628 0.7871 -0.5580
vn 0.3466 0.7823 -0.5176
vn 0.5663 0.8142 -0.1283
vn 0.6994 0.7138 0.0375
vn 0.3252 0.7857 0.5263
vn 0.3207 0.7908 0.5213
vn -0.1551 0.8084 0.5678
vn -0.6389 0.6442 0.4206
vn -0.6459 0.6828 0.3415
vn -0.4878 0.8671 -0.1006
vn -0.3247 0.8433 -0.4282
vn -0.1923 0.8079 -0.5571
vn 0.3425 0.7768 -0.5285
vn 0.3466 0.7443 -0.5709
vn 0.7164 0.6966 -0.0389
vn 0.6752 0.7315 0.0948
vn 0.4719 0.7661 0.4363
vn 0.0475 0.6497 0.7587
vn -0.1961 0.3812 0.9035
vn -0.4347 0.7932 0.4263
vn -0.5384 0.8169 0.2072
vn -0.7721 0.6207 -0.1363
vn -0.4427 0.4226 -0.7908
vn -0.2577 0.2010 -0.9451
vn 0.0746 0.7379 -0.6708
vn 0.5188 0.7767 -0.3572
vn 0.7035 0.6930 -0.1576
s 0
f 3//1 2//1 1//1
f 4//1 3//1 1//1
f 5//1 4//1 1//1
f 6//1 5//1 1//1
f 7//1 6//1 1//1
f 8//1 7//1 1//1
f 9//1 8//1 1//1
f 10//1 9//1 1//1
f 11//1 10//1 1//1
f 12//1 11//1 1//1
f 13//1 12//1 1//1
f 2//1 13//1 1//1
f 3//2 15//2 14//2 2//2
f 4//3 16//3 15//3 3//3
f 5//4 17//4 16//4 4//4
f 6//5 18//5 17//5 5//5
f 7//6 19//6 18//6 6//6
f 8//7 20//7 19//7 7//7
f 9//8 21//8 20//8 8//8
f 10//9 22//9 21//9 9//9
f 11//10 23//10 22//10 10//10
f 12//11 24//11 23//11 11//11
f 13//12 25//12 24//12 12//12
f 2//13 14//13 25//13 13//13
f 15//14 27//14 26//14 14//14
f 16//15 28//15 27//15 15//15
f 17//16 29//16 28//16 16//16
f 18//17 30//17 29//17 17//17
f 19//18 31//18 30//18 18//18
f 20//19 32//19 31//19 19//19
f 21//20 33//20 32//20 20//20
f 22//21 34//21 33//21 21//21
f 23//22 35//22 34//22 22//22
f 24//23 36//23 35//23 23//23
f 25//24 37//24 36//24 24//24
f 14//25 26//25 37//25 25//25
f 27//26 39//26 38//26 26//26
f 28//27 40//27 39//27 27//27
f 29//28 41//28 40//28 28//28
f 30//29 42//29 41//29 29//29
f 31//30 43//30 42//30 30//30
f 32//31 44//31 43//31 31//31
f 33//32 45//32 44//32 32//32
f 34//33 46//33 45//33 33//33
f 35//34 47//34 46//34 34//34
f 36//35 48//35 47//35 35//35
f 37//36 49//36 48//36 36//36
f 26//37 38//37 49//37 37//37
f 39//38 51//38 50//38 38//38
f 40//39 52//39 51//39 39//39
f 41//40 53//40 52//40 40//40
f 42//41 54//41 53//41 41//41
f 43//42 55//42 54//42 42//42
f 44//43 56//43 55//43 43//43
f 45//44 57//44 56//44 44//44
f 46//45 58//45 57//45 45//45
f 47//46 59//46 58//46 46//46
f 48//47 60//47 59//47 47//47
f 49//48 61//48 60//48 48//48
f 38//49 50//49 61//49 49//49
