# Blender 4.4.1
# www.blender.org
o Mountain_032
v -1.279979 0.000000 0.151077
v -1.279979 18.091820 0.151077
v -1.279979 18.091820 0.151077
v -1.279979 18.091820 0.151077
v -1.279979 18.091820 0.151077
v -1.279979 18.091820 0.151077
v -1.279979 18.091820 0.151077
v -1.279979 18.091820 0.151077
v -1.279979 18.091820 0.151077
v -1.279979 18.091820 0.151077
v -1.279979 18.091820 0.151077
v -1.279979 18.091820 0.151077
v -1.279979 18.091820 0.151077
v 5.588573 16.151472 0.151077
v 4.623905 16.054514 3.559686
v 2.057270 16.010637 5.931362
v -1.279979 15.572044 6.634464
v -4.601783 15.684195 5.904610
v -7.120690 16.008598 3.523213
v -8.129076 15.523449 0.151077
v -7.361276 15.382833 -3.359961
v -4.497950 15.509510 -5.422612
v -1.279979 15.771886 -6.845025
v 1.928930 15.578658 -5.406916
v 4.287289 15.412200 -3.063187
v 11.830205 12.571851 0.151077
v 10.607577 11.733398 7.014360
v 5.714345 11.871741 12.265600
v -1.279979 12.274748 14.768106
v -8.178594 11.584985 12.099828
v -12.209229 11.979228 6.461082
v -15.516382 11.308243 0.151077
v -11.818480 11.875437 -5.933330
v -8.011537 11.209940 -11.508323
v -1.279979 10.856046 -12.382440
v 5.080420 10.791325 -10.865458
v 9.546382 12.594229 -6.099525
v 20.540052 5.942260 0.151077
v 15.605559 6.574440 9.899947
v 8.839099 6.983800 17.677834
v -1.279979 5.228642 17.676828
v -10.694727 7.235745 16.457899
v -20.884514 5.928603 11.469760
v -24.208916 5.734331 0.151077
v -19.270239 5.511849 -10.235605
v -12.643066 6.544118 -19.530367
v -1.279979 6.088823 -18.537182
v 7.597184 5.180391 -15.224621
v 15.077879 7.553937 -9.293137
v 28.813908 1.652541 0.151077
v 25.462442 1.133081 15.590821
v 12.542740 0.702657 24.092728
v -1.279979 0.228567 31.996235
v -16.149904 0.931632 25.906542
v -28.813908 -0.148901 16.047798
v -27.699591 0.314170 0.151077
v -20.130512 -1.388481 -10.732284
v -12.379163 0.483637 -19.073275
v -1.279979 0.640136 -31.996235
v 10.690883 -0.666753 -20.583063
v 26.200087 0.059718 -15.714546
vn -0.0000 1.0000 -0.0000
vn 0.2704 0.9571 0.1037
vn 0.1962 0.9532 0.2299
vn -0.0461 0.9311 0.3619
vn -0.0481 0.9310 0.3618
vn -0.1623 0.9401 0.2997
vn -0.3510 0.9359 -0.0297
vn -0.3488 0.9303 -0.1135
vn -0.2471 0.9257 -0.2862
vn -0.2116 0.9277 -0.3076
vn 0.1944 0.9311 -0.3087
vn 0.3045 0.9216 -0.2409
vn 0.2581 0.9135 -0.3146
vn 0.4966 0.8485 0.1830
vn 0.3801 0.8514 0.3614
vn 0.1295 0.8948 0.4272
vn -0.1877 0.8911 0.4131
vn -0.3809 0.8401 0.3863
vn -0.5244 0.8410 0.1333
vn -0.5049 0.8402 -0.1976
vn -0.3860 0.8332 -0.3959
vn -0.1293 0.7957 -0.5918
vn 0.2097 0.7622 -0.6125
vn 0.2855 0.8371 -0.4667
vn 0.4267 0.8752 -0.2279
vn 0.6052 0.7610 0.2338
vn 0.5045 0.7545 0.4197
vn 0.0722 0.5831 0.8092
vn -0.1502 0.5549 0.8182
vn -0.3829 0.8108 0.4427
vn -0.5186 0.8411 0.1538
vn -0.5283 0.8082 -0.2601
vn -0.4575 0.8369 -0.3004
vn 0.0406 0.8257 -0.5627
vn 0.2515 0.7182 -0.6488
vn 0.3263 0.6983 -0.6371
vn 0.5909 0.7788 -0.2106
vn 0.4341 0.8901 0.1388
vn 0.3477 0.8375 0.4215
vn 0.0720 0.8815 0.4667
vn -0.0267 0.9051 0.4243
vn -0.3526 0.8425 0.4073
vn -0.6953 0.7159 0.0635
vn -0.8084 0.3058 -0.5030
vn -0.7775 0.0377 -0.6277
vn -0.3254 0.7047 -0.6304
vn 0.3881 0.8169 -0.4266
vn 0.1918 0.7564 -0.6253
vn 0.4762 0.8662 -0.1513
s 0
f 3//1 2//1 1//1
f 4//1 3//1 1//1
f 5//1 4//1 1//1
f 6//1 5//1 1//1
f 7//1 6//1 1//1
f 8//1 7//1 1//1
f 9//1 8//1 1//1
f 10//1 9//1 1//1
f 11//1 10//1 1//1
f 12//1 11//1 1//1
f 13//1 12//1 1//1
f 2//1 13//1 1//1
f 3//2 15//2 14//2 2//2
f 4//3 16//3 15//3 3//3
f 5//4 17//4 16//4 4//4
f 6//5 18//5 17//5 5//5
f 7//6 19//6 18//6 6//6
f 8//7 20//7 19//7 7//7
f 9//8 21//8 20//8 8//8
f 10//9 22//9 21//9 9//9
f 11//10 23//10 22//10 10//10
f 12//11 24//11 23//11 11//11
f 13//12 25//12 24//12 12//12
f 2//13 14//13 25//13 13//13
f 15//14 27//14 26//14 14//14
f 16//15 28//15 27//15 15//15
f 17//16 29//16 28//16 16//16
f 18//17 30//17 29//17 17//17
f 19//18 31//18 30//18 18//18
f 20//19 32//19 31//19 19//19
f 21//20 33//20 32//20 20//20
f 22//21 34//21 33//21 21//21
f 23//22 35//22 34//22 22//22
f 24//23 36//23 35//23 23//23
f 25//24 37//24 36//24 24//24
f 14//25 26//25 37//25 25//25
f 27//26 39//26 38//26 26//26
f 28//27 40//27 39//27 27//27
f 29//28 41//28 40//28 28//28
f 30//29 42//29 41//29 29//29
f 31//30 43//30 42//30 30//30
f 32//31 44//31 43//31 31//31
f 33//32 45//32 44//32 32//32
f 34//33 46//33 45//33 33//33
f 35//34 47//34 46//34 34//34
f 36//35 48//35 47//35 35//35
f 37//36 49//36 48//36 36//36
f 26//37 38//37 49//37 37//37
f 39//38 51//38 50//38 38//38
f 40//39 52//39 51//39 39//39
f 41//40 53//40 52//40 40//40
f 42//41 54//41 53//41 41//41
f 43//42 55//42 54//42 42//42
f 44//43 56//43 55//43 43//43
f 45//44 57//44 56//44 44//44
f 46//45 58//45 57//45 45//45
f 47//46 59//46 58//46 46//46
f 48//47 60//47 59//47 47//47
f 49//48 61//48 60//48 48//48
f 38//49 50//49 61//49 49//49
