# Blender 4.4.1
# www.blender.org
o Mountain_045
v 2.100359 0.000000 -1.216084
v 2.100359 16.593864 -1.216084
v 2.100359 16.593864 -1.216084
v 2.100359 16.593864 -1.216084
v 2.100359 16.593864 -1.216084
v 2.100359 16.593864 -1.216084
v 2.100359 16.593864 -1.216084
v 2.100359 16.593864 -1.216084
v 2.100359 16.593864 -1.216084
v 2.100359 16.593864 -1.216084
v 2.100359 16.593864 -1.216084
v 2.100359 16.593864 -1.216084
v 2.100359 16.593864 -1.216084
v 6.526758 14.909699 -1.216084
v 6.205309 14.176531 1.153910
v 4.470804 14.510681 2.889647
v 2.100359 14.595614 3.588291
v -0.265512 14.336411 2.881725
v -1.955043 14.715587 1.125304
v -2.361157 14.376339 -1.216084
v -1.895362 14.844724 -3.523014
v -0.209388 14.228383 -5.216682
v 2.100359 14.108997 -5.827306
v 4.499004 14.138021 -5.370658
v 6.052944 14.742492 -3.498110
v 10.401392 10.778689 -1.216084
v 9.995924 11.221573 3.342423
v 6.971986 10.648129 7.221821
v 2.100359 10.824100 7.463765
v -2.030751 11.111670 5.939209
v -6.541533 10.117574 3.773315
v -6.680705 10.972039 -1.216084
v -5.179103 10.693499 -5.418883
v -2.298455 11.064407 -8.835052
v 2.100359 11.137391 -11.026408
v 6.242446 10.652110 -8.390389
v 10.459842 11.347988 -6.042433
v 15.442924 6.537314 -1.216084
v 13.530702 5.726963 5.383227
v 9.241379 6.712854 11.152524
v 2.100359 6.795123 10.747764
v -4.421678 4.652721 10.080415
v -9.527931 5.242820 5.497513
v -13.469893 5.921457 -1.216084
v -10.842937 6.531921 -8.688899
v -3.902699 6.763792 -11.613687
v 2.100359 4.707724 -15.919812
v 9.883892 6.250558 -14.697558
v 15.377241 4.847498 -8.881495
v 19.425892 0.395377 -1.216084
v 17.104586 -1.077714 7.446610
v 11.470620 -1.437009 15.013683
v 2.100359 -0.979992 18.627037
v -8.816949 -0.867419 17.693249
v -11.305408 -0.071375 6.523740
v -19.425892 0.265898 -1.216084
v -16.668495 -0.963128 -12.052287
v -7.951860 -0.911211 -18.627037
v 2.100359 -0.772086 -18.447289
v 11.915318 -0.739604 -18.216091
v 15.187794 -0.513658 -8.772118
vn -0.0000 1.0000 -0.0000
vn 0.3370 0.8856 0.3197
vn 0.3955 0.8908 0.2237
vn 0.1447 0.9136 0.3800
vn -0.2110 0.9025 0.3754
vn -0.1964 0.9023 0.3837
vn -0.4445 0.8943 -0.0525
vn -0.4432 0.8917 0.0916
vn -0.1278 0.8843 -0.4491
vn -0.0797 0.8775 -0.4729
vn 0.0794 0.8775 -0.4729
vn 0.1693 0.8881 -0.4272
vn 0.3521 0.9253 -0.1409
vn 0.6598 0.7447 0.1004
vn 0.4419 0.7986 0.4085
vn 0.1123 0.7444 0.6582
vn -0.2246 0.7139 0.6632
vn -0.4149 0.7315 0.5411
vn -0.6481 0.7548 0.1013
vn -0.6700 0.7198 -0.1815
vn -0.4961 0.7248 -0.4781
vn -0.2130 0.8249 -0.5236
vn 0.3120 0.7781 -0.5452
vn 0.2786 0.7421 -0.6097
vn 0.6729 0.7397 0.0025
vn 0.7211 0.6712 0.1719
vn 0.6149 0.6558 0.4380
vn 0.0044 0.6721 0.7405
vn -0.2601 0.5967 0.7591
vn -0.4870 0.5724 0.6597
vn -0.6477 0.6930 0.3167
vn -0.5559 0.8130 -0.1734
vn -0.3992 0.7348 -0.5484
vn -0.3497 0.5789 -0.7366
vn 0.1490 0.7346 -0.6619
vn 0.4538 0.7543 -0.4744
vn 0.7237 0.6873 -0.0621
vn 0.8024 0.5161 0.2998
vn 0.7148 0.4792 0.5094
vn 0.1714 0.6001 0.7814
vn -0.1466 0.7708 0.6199
vn -0.6481 0.6651 0.3710
vn -0.6437 0.5074 0.5729
vn -0.6956 0.6814 -0.2276
vn -0.3897 0.6791 -0.6220
vn -0.1288 0.6079 -0.7835
vn 0.0346 0.4406 -0.8970
vn 0.8468 0.2551 -0.4667
vn 0.9049 0.2955 -0.3063
s 0
f 3//1 2//1 1//1
f 4//1 3//1 1//1
f 5//1 4//1 1//1
f 6//1 5//1 1//1
f 7//1 6//1 1//1
f 8//1 7//1 1//1
f 9//1 8//1 1//1
f 10//1 9//1 1//1
f 11//1 10//1 1//1
f 12//1 11//1 1//1
f 13//1 12//1 1//1
f 2//1 13//1 1//1
f 3//2 15//2 14//2 2//2
f 4//3 16//3 15//3 3//3
f 5//4 17//4 16//4 4//4
f 6//5 18//5 17//5 5//5
f 7//6 19//6 18//6 6//6
f 8//7 20//7 19//7 7//7
f 9//8 21//8 20//8 8//8
f 10//9 22//9 21//9 9//9
f 11//10 23//10 22//10 10//10
f 12//11 24//11 23//11 11//11
f 13//12 25//12 24//12 12//12
f 2//13 14//13 25//13 13//13
f 15//14 27//14 26//14 14//14
f 16//15 28//15 27//15 15//15
f 17//16 29//16 28//16 16//16
f 18//17 30//17 29//17 17//17
f 19//18 31//18 30//18 18//18
f 20//19 32//19 31//19 19//19
f 21//20 33//20 32//20 20//20
f 22//21 34//21 33//21 21//21
f 23//22 35//22 34//22 22//22
f 24//23 36//23 35//23 23//23
f 25//24 37//24 36//24 24//24
f 14//25 26//25 37//25 25//25
f 27//26 39//26 38//26 26//26
f 28//27 40//27 39//27 27//27
f 29//28 41//28 40//28 28//28
f 30//29 42//29 41//29 29//29
f 31//30 43//30 42//30 30//30
f 32//31 44//31 43//31 31//31
f 33//32 45//32 44//32 32//32
f 34//33 46//33 45//33 33//33
f 35//34 47//34 46//34 34//34
f 36//35 48//35 47//35 35//35
f 37//36 49//36 48//36 36//36
f 26//37 38//37 49//37 37//37
f 39//38 51//38 50//38 38//38
f 40//39 52//39 51//39 39//39
f 41//40 53//40 52//40 40//40
f 42//41 54//41 53//41 41//41
f 43//42 55//42 54//42 42//42
f 44//43 56//43 55//43 43//43
f 45//44 57//44 56//44 44//44
f 46//45 58//45 57//45 45//45
f 47//46 59//46 58//46 46//46
f 48//47 60//47 59//47 47//47
f 49//48 61//48 60//48 48//48
f 38//49 50//49 61//49 49//49
