# Blender 4.4.1
# www.blender.org
o Mountain_064
v 0.011640 0.000000 -0.080699
v 0.011640 12.004260 -0.080699
v 0.011640 12.004260 -0.080699
v 0.011640 12.004260 -0.080699
v 0.011640 12.004260 -0.080699
v 0.011640 12.004260 -0.080699
v 0.011640 12.004260 -0.080699
v 0.011640 12.004260 -0.080699
v 0.011640 12.004260 -0.080699
v 0.011640 12.004260 -0.080699
v 0.011640 12.004260 -0.080699
v 0.011640 12.004260 -0.080699
v 0.011640 12.004260 -0.080699
v 4.612526 10.335894 -0.080699
v 3.798699 10.489504 2.105760
v 2.341483 10.277506 3.954706
v 0.011640 10.524461 4.237602
v -2.279639 10.257906 3.887913
v -3.943920 10.726972 2.203045
v -4.663402 10.663587 -0.080699
v -3.908561 10.590150 -2.344028
v -2.201570 10.634239 -3.914091
v 0.011640 10.432693 -4.668003
v 2.284251 10.540881 -4.016977
v 4.030990 10.688862 -2.401271
v 8.479151 7.298778 -0.080699
v 7.133787 7.266906 4.031274
v 4.708814 8.284952 8.055044
v 0.011640 7.299277 9.320884
v -4.351350 8.184260 7.476222
v -8.455531 7.852446 4.807825
v -8.058138 7.234189 -0.080699
v -7.805884 8.176804 -4.594149
v -4.899991 7.543608 -8.587894
v 0.011640 7.975352 -8.801816
v 4.758993 7.783823 -8.303354
v 7.931649 7.426565 -4.653318
v 13.034011 4.276216 -0.080699
v 11.517404 3.567499 6.562157
v 7.627121 4.814470 13.109700
v 0.011640 4.127648 13.363242
v -6.915292 3.569605 11.917100
v -12.209311 4.749782 6.975070
v -14.251618 4.385312 -0.080699
v -10.964193 5.090181 -6.417600
v -5.951310 5.101910 -10.408833
v 0.011640 4.168159 -14.358298
v 7.396810 4.198307 -12.872187
v 12.368085 3.985261 -7.214695
v 21.387810 -0.400595 -0.080699
v 17.572245 -0.694775 10.057920
v 9.808850 0.745269 16.888567
v 0.011640 -1.074222 19.282469
v -10.261595 -0.770625 17.713066
v -15.435271 -0.259753 8.837580
v -21.387810 0.382336 -0.080699
v -17.677094 1.178970 -10.293295
v -9.123323 -0.390354 -15.902920
v 0.011640 1.177172 -19.282469
v 9.898683 -0.261541 -17.205559
v 15.709054 -0.520889 -9.143605
vn -0.0000 1.0000 -0.0000
vn 0.3403 0.9384 0.0607
vn 0.2149 0.9366 0.2767
vn 0.1383 0.9369 0.3211
vn -0.1575 0.9342 0.3201
vn -0.0961 0.9303 0.3539
vn -0.2752 0.9595 0.0601
vn -0.2736 0.9541 -0.1222
vn -0.2204 0.9519 -0.2129
vn -0.0242 0.9457 -0.3240
vn 0.0478 0.9449 -0.3237
vn 0.1608 0.9518 -0.2610
vn 0.3403 0.9385 0.0575
vn 0.6131 0.7655 0.1954
vn 0.5154 0.8262 0.2273
vn 0.0166 0.8712 0.4907
vn -0.0865 0.8592 0.5043
vn -0.2805 0.8729 0.3992
vn -0.6318 0.7738 -0.0452
vn -0.6266 0.7793 0.0068
vn -0.3352 0.8666 -0.3696
vn -0.0968 0.8553 -0.5091
vn 0.0928 0.8585 -0.5044
vn 0.4194 0.8339 -0.3587
vn 0.6209 0.7825 -0.0471
vn 0.5513 0.8094 0.2024
vn 0.5866 0.7893 0.1813
vn -0.0353 0.8017 0.5967
vn -0.1647 0.7510 0.6395
vn -0.3663 0.7598 0.5371
vn -0.5134 0.8581 0.0001
vn -0.5292 0.8473 -0.0440
vn -0.4739 0.7070 -0.5250
vn -0.2008 0.7614 -0.6163
vn 0.1039 0.8160 -0.5687
vn 0.4580 0.8169 -0.3507
vn 0.5690 0.8193 -0.0704
vn 0.4800 0.8533 0.2035
vn 0.5313 0.7907 0.3040
vn 0.0010 0.7230 0.6909
vn -0.1180 0.7862 0.6066
vn -0.4974 0.7316 0.4663
vn -0.5919 0.7444 0.3092
vn -0.4675 0.8760 -0.1182
vn -0.2755 0.8082 -0.5205
vn -0.2981 0.7826 -0.5465
vn 0.1851 0.7894 -0.5853
vn 0.5842 0.6849 -0.4355
vn 0.5736 0.7818 -0.2445
s 0
f 3//1 2//1 1//1
f 4//1 3//1 1//1
f 5//1 4//1 1//1
f 6//1 5//1 1//1
f 7//1 6//1 1//1
f 8//1 7//1 1//1
f 9//1 8//1 1//1
f 10//1 9//1 1//1
f 11//1 10//1 1//1
f 12//1 11//1 1//1
f 13//1 12//1 1//1
f 2//1 13//1 1//1
f 3//2 15//2 14//2 2//2
f 4//3 16//3 15//3 3//3
f 5//4 17//4 16//4 4//4
f 6//5 18//5 17//5 5//5
f 7//6 19//6 18//6 6//6
f 8//7 20//7 19//7 7//7
f 9//8 21//8 20//8 8//8
f 10//9 22//9 21//9 9//9
f 11//10 23//10 22//10 10//10
f 12//11 24//11 23//11 11//11
f 13//12 25//12 24//12 12//12
f 2//13 14//13 25//13 13//13
f 15//14 27//14 26//14 14//14
f 16//15 28//15 27//15 15//15
f 17//16 29//16 28//16 16//16
f 18//17 30//17 29//17 17//17
f 19//18 31//18 30//18 18//18
f 20//19 32//19 31//19 19//19
f 21//20 33//20 32//20 20//20
f 22//21 34//21 33//21 21//21
f 23//22 35//22 34//22 22//22
f 24//23 36//23 35//23 23//23
f 25//24 37//24 36//24 24//24
f 14//25 26//25 37//25 25//25
f 27//26 39//26 38//26 26//26
f 28//27 40//27 39//27 27//27
f 29//28 41//28 40//28 28//28
f 30//29 42//29 41//29 29//29
f 31//30 43//30 42//30 30//30
f 32//31 44//31 43//31 31//31
f 33//32 45//32 44//32 32//32
f 34//33 46//33 45//33 33//33
f 35//34 47//34 46//34 34//34
f 36//35 48//35 47//35 35//35
f 37//36 49//36 48//36 36//36
f 26//37 38//37 49//37 37//37
f 39//38 51//38 50//38 38//38
f 40//39 52//39 51//39 39//39
f 41//40 53//40 52//40 40//40
f 42//41 54//41 53//41 41//41
f 43//42 55//42 54//42 42//42
f 44//43 56//43 55//43 43//43
f 45//44 57//44 56//44 44//44
f 46//45 58//45 57//45 45//45
f 47//46 59//46 58//46 46//46
f 48//47 60//47 59//47 47//47
f 49//48 61//48 60//48 48//48
f 38//49 50//49 61//49 49//49
