# Blender 4.4.1
# www.blender.org
o Mountain_017
v -0.817650 0.000000 -1.363526
v -0.817650 15.222722 -1.363526
v -0.817650 15.222722 -1.363526
v -0.817650 15.222722 -1.363526
v -0.817650 15.222722 -1.363526
v -0.817650 15.222722 -1.363526
v -0.817650 15.222722 -1.363526
v -0.817650 15.222722 -1.363526
v -0.817650 15.222722 -1.363526
v -0.817650 15.222722 -1.363526
v -0.817650 15.222722 -1.363526
v -0.817650 15.222722 -1.363526
v -0.817650 15.222722 -1.363526
v 4.613544 13.614863 -1.363526
v 3.707789 12.974753 1.249238
v 1.690044 13.643810 2.979929
v -0.817650 13.368221 4.084009
v -3.314490 13.646232 2.961127
v -5.270045 13.671123 1.207065
v -6.101605 13.511882 -1.363526
v -5.450702 13.242472 -4.038420
v -3.326024 13.062961 -5.708156
v -0.817650 13.574596 -6.465938
v 1.772498 13.621692 -5.849796
v 3.642567 13.514436 -3.938634
v 8.904645 10.584273 -1.363526
v 8.662230 9.841884 4.109685
v 4.917646 9.161282 8.570300
v -0.817650 10.356232 8.981376
v -5.889006 10.250177 7.420319
v -10.716155 9.683431 4.351378
v -11.867565 9.124640 -1.363526
v -9.479433 10.590527 -6.364408
v -6.046167 9.621182 -10.419583
v -0.817650 9.736931 -12.764596
v 4.608973 10.085263 -10.762712
v 7.503650 10.021243 -6.167831
v 16.302624 5.821888 -1.363526
v 11.085516 4.545719 5.508770
v 7.538870 5.641025 13.110393
v -0.817650 4.916676 15.481420
v -7.747730 4.205433 10.639724
v -13.644488 5.015409 6.042052
v -15.447293 4.496138 -1.363526
v -13.150966 5.218463 -8.484169
v -8.804230 5.125301 -15.196687
v -0.817650 5.001701 -14.845160
v 6.080637 5.559148 -13.311711
v 12.075179 5.073225 -8.807204
v 18.391190 -0.341599 -1.363526
v 14.314114 1.221277 7.372802
v 11.357172 1.455819 19.723885
v -0.817650 -1.005970 20.193048
v -10.794559 -1.099568 15.916986
v -17.520382 -0.020934 8.279800
v -18.110674 -0.198881 -1.363526
v -18.391190 -0.048008 -11.509614
v -9.521382 -0.755961 -16.438831
v -0.817650 0.380671 -20.193048
v 10.052186 -0.926917 -20.190636
v 14.475780 -0.594727 -10.193192
vn -0.0000 1.0000 -0.0000
vn 0.2693 0.9097 0.3162
vn 0.3931 0.9135 0.1051
vn 0.0378 0.9460 0.3220
vn -0.0395 0.9459 0.3220
vn -0.1971 0.9522 0.2333
vn -0.3078 0.9506 0.0407
vn -0.3036 0.9378 -0.1683
vn -0.1934 0.9185 -0.3449
vn -0.2758 0.9147 -0.2954
vn 0.0557 0.9501 -0.3069
vn 0.2517 0.9483 -0.1931
vn 0.2809 0.9490 -0.1429
vn 0.4950 0.8420 0.2143
vn 0.3974 0.8391 0.3714
vn 0.1898 0.8255 0.5315
vn -0.1673 0.8343 0.5253
vn -0.3655 0.8303 0.4207
vn -0.5843 0.8085 0.0698
vn -0.5657 0.8190 -0.0963
vn -0.2908 0.8435 -0.4516
vn -0.2626 0.8335 -0.4862
vn 0.1289 0.8432 -0.5220
vn 0.4876 0.8059 -0.3359
vn 0.5619 0.7881 -0.2515
vn 0.6315 0.6707 0.3889
vn 0.6677 0.6391 0.3816
vn 0.1452 0.7848 0.6025
vn -0.3988 0.6292 0.6672
vn -0.4837 0.5340 0.6935
vn -0.8006 0.5845 0.1322
vn -0.7750 0.6024 -0.1908
vn -0.5541 0.6883 -0.4683
vn -0.1173 0.6146 -0.7801
vn 0.2126 0.4637 -0.8601
vn 0.5667 0.6434 -0.5147
vn 0.5483 0.7667 -0.3341
vn 0.7463 0.5037 0.4351
vn 0.6279 0.7629 0.1538
vn -0.0225 0.7421 0.6699
vn -0.3766 0.6707 0.6390
vn -0.4390 0.7017 0.5612
vn -0.8167 0.5698 0.0913
vn -0.7733 0.6313 -0.0584
vn -0.5392 0.5366 -0.6491
vn -0.2001 0.5305 -0.8237
vn 0.0882 0.7514 -0.6539
vn 0.6309 0.6344 -0.4465
vn 0.8240 0.3635 -0.4347
s 0
f 3//1 2//1 1//1
f 4//1 3//1 1//1
f 5//1 4//1 1//1
f 6//1 5//1 1//1
f 7//1 6//1 1//1
f 8//1 7//1 1//1
f 9//1 8//1 1//1
f 10//1 9//1 1//1
f 11//1 10//1 1//1
f 12//1 11//1 1//1
f 13//1 12//1 1//1
f 2//1 13//1 1//1
f 3//2 15//2 14//2 2//2
f 4//3 16//3 15//3 3//3
f 5//4 17//4 16//4 4//4
f 6//5 18//5 17//5 5//5
f 7//6 19//6 18//6 6//6
f 8//7 20//7 19//7 7//7
f 9//8 21//8 20//8 8//8
f 10//9 22//9 21//9 9//9
f 11//10 23//10 22//10 10//10
f 12//11 24//11 23//11 11//11
f 13//12 25//12 24//12 12//12
f 2//13 14//13 25//13 13//13
f 15//14 27//14 26//14 14//14
f 16//15 28//15 27//15 15//15
f 17//16 29//16 28//16 16//16
f 18//17 30//17 29//17 17//17
f 19//18 31//18 30//18 18//18
f 20//19 32//19 31//19 19//19
f 21//20 33//20 32//20 20//20
f 22//21 34//21 33//21 21//21
f 23//22 35//22 34//22 22//22
f 24//23 36//23 35//23 23//23
f 25//24 37//24 36//24 24//24
f 14//25 26//25 37//25 25//25
f 27//26 39//26 38//26 26//26
f 28//27 40//27 39//27 27//27
f 29//28 41//28 40//28 28//28
f 30//29 42//29 41//29 29//29
f 31//30 43//30 42//30 30//30
f 32//31 44//31 43//31 31//31
f 33//32 45//32 44//32 32//32
f 34//33 46//33 45//33 33//33
f 35//34 47//34 46//34 34//34
f 36//35 48//35 47//35 35//35
f 37//36 49//36 48//36 36//36
f 26//37 38//37 49//37 37//37
f 39//38 51//38 50//38 38//38
f 40//39 52//39 51//39 39//39
f 41//40 53//40 52//40 40//40
f 42//41 54//41 53//41 41//41
f 43//42 55//42 54//42 42//42
f 44//43 56//43 55//43 43//43
f 45//44 57//44 56//44 44//44
f 46//45 58//45 57//45 45//45
f 47//46 59//46 58//46 46//46
f 48//47 60//47 59//47 47//47
f 49//48 61//48 60//48 48//48
f 38//49 50//49 61//49 49//49
