# Blender 4.4.1
# www.blender.org
o Mountain_022
v -0.347788 0.000000 -1.298133
v -0.347788 22.897842 -1.298133
v -0.347788 22.897842 -1.298133
v -0.347788 22.897842 -1.298133
v -0.347788 22.897842 -1.298133
v -0.347788 22.897842 -1.298133
v -0.347788 22.897842 -1.298133
v -0.347788 22.897842 -1.298133
v -0.347788 22.897842 -1.298133
v -0.347788 22.897842 -1.298133
v -0.347788 22.897842 -1.298133
v -0.347788 22.897842 -1.298133
v -0.347788 22.897842 -1.298133
v 3.785783 19.641094 -1.298133
v 3.082783 19.996748 0.682508
v 1.682477 20.076740 2.218390
v -0.347788 19.700886 2.991163
v -2.357927 19.766571 2.183530
v -3.762576 19.643618 0.673396
v -4.522899 20.409288 -1.298133
v -3.967382 19.509338 -3.387907
v -2.466058 19.838453 -4.967085
v -0.347788 19.747349 -5.229427
v 1.672073 20.051022 -4.796634
v 3.264815 19.761028 -3.383870
v 8.654396 13.728511 -1.298133
v 6.615877 14.692783 2.722340
v 3.954429 14.229448 6.153525
v -0.347788 15.498090 6.837335
v -4.151351 13.684719 5.289831
v -7.916294 15.907207 3.071546
v -7.940031 15.543374 -1.298133
v -7.265800 15.100585 -5.292249
v -4.565246 14.990736 -8.602985
v -0.347788 15.518355 -9.100410
v 3.359048 13.804967 -7.718562
v 7.323126 14.672702 -5.726937
v 10.579387 9.416569 -1.298133
v 11.353543 7.446686 5.457633
v 4.956998 7.891287 7.890026
v -0.347788 8.279025 9.773641
v -7.089406 7.664612 10.378692
v -9.493731 8.654534 3.982280
v -11.437335 7.045399 -1.298133
v -9.997442 7.269129 -6.869364
v -7.203281 6.426929 -13.172195
v -0.347788 7.152110 -14.034321
v 5.422562 7.722979 -11.292672
v 10.463273 6.517363 -7.539902
v 14.603348 -1.661302 -1.298133
v 12.144105 1.761542 5.914065
v 7.934558 0.598799 13.047311
v -0.347788 1.350268 17.078934
v -10.150281 1.291052 15.680284
v -13.746443 0.203872 6.437584
v -16.642714 1.889883 -1.298133
v -14.560213 -0.511166 -9.503680
v -7.495578 -0.829463 -13.678470
v -0.347788 1.812432 -15.850822
v 8.763261 -2.021462 -17.078934
v 16.642714 0.134787 -11.107603
vn -0.0000 1.0000 -0.0000
vn 0.6170 0.7831 0.0784
vn 0.4607 0.8030 0.3782
vn 0.0788 0.7993 0.5957
vn -0.2092 0.7841 0.5844
vn -0.4993 0.7675 0.4020
vn -0.4522 0.7586 0.4690
vn -0.4568 0.7664 -0.4515
vn -0.5296 0.7764 -0.3417
vn -0.0438 0.7796 -0.6248
vn 0.0167 0.7802 -0.6253
vn 0.4760 0.7963 -0.3732
vn 0.6152 0.7808 -0.1088
vn 0.7627 0.6103 0.2142
vn 0.5975 0.5976 0.5347
vn 0.2575 0.6273 0.7350
vn -0.4502 0.5526 0.7013
vn -0.2954 0.5971 0.7458
vn -0.7254 0.6754 0.1325
vn -0.7481 0.5999 -0.2836
vn -0.5976 0.6386 -0.4848
vn -0.1345 0.6498 -0.7481
vn 0.3722 0.5465 -0.7502
vn 0.3964 0.5443 -0.7393
vn 0.7599 0.6404 -0.1115
vn 0.8414 0.5199 0.1472
vn 0.4843 0.4514 0.7495
vn 0.2965 0.3307 0.8960
vn -0.1974 0.5398 0.8183
vn -0.6125 0.4891 0.6210
vn -0.9417 0.3108 0.1284
vn -0.9068 0.3661 -0.2088
vn -0.7647 0.4303 -0.4797
vn -0.1611 0.5021 -0.8497
vn 0.3945 0.5075 -0.7661
vn 0.4899 0.4594 -0.7409
vn 0.8987 0.3933 -0.1940
vn 0.9569 0.2772 0.0866
vn 0.5775 0.4596 0.6748
vn 0.3462 0.6583 0.6684
vn -0.0627 0.6941 0.7172
vn -0.7850 0.5431 0.2978
vn -0.7616 0.5812 0.2866
vn -0.7361 0.6139 -0.2852
vn -0.6619 0.3519 -0.6618
vn -0.2497 0.1812 -0.9512
vn 0.1915 0.4753 -0.8587
vn 0.4368 0.6302 -0.6419
vn 0.8674 0.4926 0.0701
s 0
f 3//1 2//1 1//1
f 4//1 3//1 1//1
f 5//1 4//1 1//1
f 6//1 5//1 1//1
f 7//1 6//1 1//1
f 8//1 7//1 1//1
f 9//1 8//1 1//1
f 10//1 9//1 1//1
f 11//1 10//1 1//1
f 12//1 11//1 1//1
f 13//1 12//1 1//1
f 2//1 13//1 1//1
f 3//2 15//2 14//2 2//2
f 4//3 16//3 15//3 3//3
f 5//4 17//4 16//4 4//4
f 6//5 18//5 17//5 5//5
f 7//6 19//6 18//6 6//6
f 8//7 20//7 19//7 7//7
f 9//8 21//8 20//8 8//8
f 10//9 22//9 21//9 9//9
f 11//10 23//10 22//10 10//10
f 12//11 24//11 23//11 11//11
f 13//12 25//12 24//12 12//12
f 2//13 14//13 25//13 13//13
f 15//14 27//14 26//14 14//14
f 16//15 28//15 27//15 15//15
f 17//16 29//16 28//16 16//16
f 18//17 30//17 29//17 17//17
f 19//18 31//18 30//18 18//18
f 20//19 32//19 31//19 19//19
f 21//20 33//20 32//20 20//20
f 22//21 34//21 33//21 21//21
f 23//22 35//22 34//22 22//22
f 24//23 36//23 35//23 23//23
f 25//24 37//24 36//24 24//24
f 14//25 26//25 37//25 25//25
f 27//26 39//26 38//26 26//26
f 28//27 40//27 39//27 27//27
f 29//28 41//28 40//28 28//28
f 30//29 42//29 41//29 29//29
f 31//30 43//30 42//30 30//30
f 32//31 44//31 43//31 31//31
f 33//32 45//32 44//32 32//32
f 34//33 46//33 45//33 33//33
f 35//34 47//34 46//34 34//34
f 36//35 48//35 47//35 35//35
f 37//36 49//36 48//36 36//36
f 26//37 38//37 49//37 37//37
f 39//38 51//38 50//38 38//38
f 40//39 52//39 51//39 39//39
f 41//40 53//40 52//40 40//40
f 42//41 54//41 53//41 41//41
f 43//42 55//42 54//42 42//42
f 44//43 56//43 55//43 43//43
f 45//44 57//44 56//44 44//44
f 46//45 58//45 57//45 45//45
f 47//46 59//46 58//46 46//46
f 48//47 60//47 59//47 47//47
f 49//48 61//48 60//48 48//48
f 38//49 50//49 61//49 49//49
