# Blender 4.4.1
# www.blender.org
o Mountain_055
v -0.032944 0.000000 -0.055818
v -0.032944 14.260522 -0.055818
v -0.032944 14.260522 -0.055818
v -0.032944 14.260522 -0.055818
v -0.032944 14.260522 -0.055818
v -0.032944 14.260522 -0.055818
v -0.032944 14.260522 -0.055818
v -0.032944 14.260522 -0.055818
v -0.032944 14.260522 -0.055818
v -0.032944 14.260522 -0.055818
v -0.032944 14.260522 -0.055818
v -0.032944 14.260522 -0.055818
v -0.032944 14.260522 -0.055818
v 5.667211 12.187627 -0.055818
v 5.038682 12.493170 2.872287
v 2.954954 12.235548 5.119372
v -0.032944 12.689440 5.495169
v -2.972910 12.293526 5.036353
v -5.216768 12.639464 2.937064
v -6.142684 12.200191 -0.055818
v -4.856412 12.387387 -2.840649
v -2.982956 12.374193 -5.165389
v -0.032944 12.585597 -5.618364
v 2.770765 12.333898 -4.911983
v 5.132061 12.444550 -3.037835
v 12.744610 9.654165 -0.055818
v 11.044951 9.312211 6.340008
v 6.252582 9.400836 10.831032
v -0.032944 9.354924 11.673837
v -5.684595 8.911403 9.733129
v -10.698701 9.525060 6.102060
v -12.086864 9.524342 -0.055818
v -10.163630 8.858778 -5.904773
v -5.658389 9.336129 -9.799375
v -0.032944 9.020826 -12.460254
v 5.324667 9.520476 -9.335473
v 10.720904 8.622501 -6.264555
v 15.149565 5.829093 -0.055818
v 14.995716 4.882882 8.620983
v 8.363441 5.054204 14.487147
v -0.032944 5.038566 17.884977
v -8.496152 4.492564 14.602888
v -15.164112 4.834236 8.680166
v -17.196875 5.920060 -0.055818
v -15.121943 6.010408 -8.767456
v -9.620946 4.237270 -16.662724
v -0.032944 5.449709 -15.578784
v 7.734468 5.435536 -13.509369
v 16.753147 4.181038 -9.747272
v 20.592564 -0.075993 -0.055818
v 22.138962 1.266533 12.745138
v 11.010113 1.288643 19.071318
v -0.032944 -0.260626 24.195421
v -9.917944 0.204681 17.065506
v -16.503727 -0.988812 9.453593
v -22.138962 1.400441 -0.055818
v -18.626694 -0.040142 -10.790925
v -13.042274 -1.020655 -22.588638
v -0.032944 -1.287294 -24.195421
v 13.456681 1.109632 -23.420532
v 17.852995 0.910178 -10.382269
vn -0.0000 1.0000 -0.0000
vn 0.3417 0.9395 -0.0247
vn 0.1741 0.9470 0.2700
vn 0.1776 0.9469 0.2680
vn -0.1696 0.9483 0.2684
vn -0.1275 0.9477 0.2925
vn -0.3193 0.9468 -0.0402
vn -0.3184 0.9443 -0.0836
vn -0.2487 0.9465 -0.2058
vn -0.1122 0.9515 -0.2865
vn 0.1566 0.9457 -0.2848
vn 0.1738 0.9457 -0.2748
vn 0.3417 0.9396 0.0196
vn 0.3765 0.9213 0.0976
vn 0.2814 0.9082 0.3099
vn 0.0968 0.8942 0.4371
vn -0.2157 0.8539 0.4736
vn -0.2446 0.8571 0.4533
vn -0.4361 0.8974 0.0671
vn -0.4283 0.8794 -0.2079
vn -0.3868 0.8601 -0.3326
vn -0.1581 0.8714 -0.4645
vn 0.1856 0.8725 -0.4519
vn 0.3347 0.8586 -0.3884
vn 0.4020 0.8963 -0.1875
vn 0.7635 0.6287 0.1476
vn 0.4917 0.6947 0.5249
vn 0.1780 0.7580 0.6274
vn -0.2610 0.7892 0.5559
vn -0.3821 0.7484 0.5421
vn -0.6113 0.7667 0.1963
vn -0.4970 0.8509 -0.1701
vn -0.3431 0.8566 -0.3853
vn -0.1104 0.7716 -0.6264
vn 0.2370 0.7081 -0.6651
vn 0.3531 0.7940 -0.4948
vn 0.6624 0.7357 -0.1415
vn 0.6137 0.7877 -0.0543
vn 0.2897 0.8657 0.4082
vn 0.1995 0.7765 0.5977
vn -0.3749 0.6555 0.6556
vn -0.6712 0.3859 0.6330
vn -0.7635 0.4948 0.4151
vn -0.7313 0.6330 -0.2541
vn -0.6011 0.6721 -0.4324
vn -0.0470 0.7760 -0.6290
vn -0.0264 0.8547 -0.5185
vn 0.4651 0.8331 -0.2993
vn 0.8103 0.5823 -0.0652
s 0
f 3//1 2//1 1//1
f 4//1 3//1 1//1
f 5//1 4//1 1//1
f 6//1 5//1 1//1
f 7//1 6//1 1//1
f 8//1 7//1 1//1
f 9//1 8//1 1//1
f 10//1 9//1 1//1
f 11//1 10//1 1//1
f 12//1 11//1 1//1
f 13//1 12//1 1//1
f 2//1 13//1 1//1
f 3//2 15//2 14//2 2//2
f 4//3 16//3 15//3 3//3
f 5//4 17//4 16//4 4//4
f 6//5 18//5 17//5 5//5
f 7//6 19//6 18//6 6//6
f 8//7 20//7 19//7 7//7
f 9//8 21//8 20//8 8//8
f 10//9 22//9 21//9 9//9
f 11//10 23//10 22//10 10//10
f 12//11 24//11 23//11 11//11
f 13//12 25//12 24//12 12//12
f 2//13 14//13 25//13 13//13
f 15//14 27//14 26//14 14//14
f 16//15 28//15 27//15 15//15
f 17//16 29//16 28//16 16//16
f 18//17 30//17 29//17 17//17
f 19//18 31//18 30//18 18//18
f 20//19 32//19 31//19 19//19
f 21//20 33//20 32//20 20//20
f 22//21 34//21 33//21 21//21
f 23//22 35//22 34//22 22//22
f 24//23 36//23 35//23 23//23
f 25//24 37//24 36//24 24//24
f 14//25 26//25 37//25 25//25
f 27//26 39//26 38//26 26//26
f 28//27 40//27 39//27 27//27
f 29//28 41//28 40//28 28//28
f 30//29 42//29 41//29 29//29
f 31//30 43//30 42//30 30//30
f 32//31 44//31 43//31 31//31
f 33//32 45//32 44//32 32//32
f 34//33 46//33 45//33 33//33
f 35//34 47//34 46//34 34//34
f 36//35 48//35 47//35 35//35
f 37//36 49//36 48//36 36//36
f 26//37 38//37 49//37 37//37
f 39//38 51//38 50//38 38//38
f 40//39 52//39 51//39 39//39
f 41//40 53//40 52//40 40//40
f 42//41 54//41 53//41 41//41
f 43//42 55//42 54//42 42//42
f 44//43 56//43 55//43 43//43
f 45//44 57//44 56//44 44//44
f 46//45 58//45 57//45 45//45
f 47//46 59//46 58//46 46//46
f 48//47 60//47 59//47 47//47
f 49//48 61//48 60//48 48//48
f 38//49 50//49 61//49 49//49
