# Blender 4.4.1
# www.blender.org
o Mountain_060
v 0.367624 0.000000 0.942693
v 0.367624 18.119352 0.942693
v 0.367624 18.119352 0.942693
v 0.367624 18.119352 0.942693
v 0.367624 18.119352 0.942693
v 0.367624 18.119352 0.942693
v 0.367624 18.119352 0.942693
v 0.367624 18.119352 0.942693
v 0.367624 18.119352 0.942693
v 0.367624 18.119352 0.942693
v 0.367624 18.119352 0.942693
v 0.367624 18.119352 0.942693
v 0.367624 18.119352 0.942693
v 5.443297 16.256098 0.942693
v 4.709112 16.135647 3.449252
v 3.091536 15.709318 5.660646
v 0.367624 16.022728 6.171665
v -2.242703 16.106876 5.463912
v -4.214878 15.696868 3.588402
v -4.652642 16.112959 0.942693
v -4.390433 15.540689 -1.804373
v -2.387479 15.700646 -3.829286
v 0.367624 15.947751 -4.397347
v 3.031845 16.186874 -3.671873
v 5.152174 15.586452 -1.819668
v 10.680204 11.775689 0.942693
v 8.929158 11.004072 5.885697
v 5.712510 11.625380 10.200306
v 0.367624 10.976174 12.318254
v -4.486790 11.809058 9.350785
v -7.908523 12.055695 5.720928
v -10.151554 11.145500 0.942693
v -7.976878 12.552111 -3.875008
v -4.676045 11.229479 -7.793199
v 0.367624 10.934025 -9.936971
v 5.172633 11.746773 -7.379827
v 8.899003 12.364961 -3.982901
v 15.759494 5.418344 0.942693
v 12.464252 6.449564 7.926684
v 8.223423 5.178428 14.549335
v 0.367624 7.344424 18.916653
v -6.661886 5.550547 13.118162
v -13.049806 6.920355 8.689250
v -15.327504 6.632360 0.942693
v -15.132777 6.588283 -8.006468
v -7.545639 6.852854 -12.763480
v 0.367624 5.011767 -13.806684
v 7.427403 5.165401 -11.285203
v 13.649612 7.186422 -6.725667
v 21.672089 1.486883 0.942693
v 21.399130 -0.144214 13.085238
v 11.231886 0.859911 19.760145
v 0.367624 1.380673 20.240202
v -9.991298 0.725921 18.884871
v -19.439705 -0.734020 12.378459
v -21.672089 1.123345 0.942693
v -15.520662 -0.909103 -8.230413
v -11.862326 0.845246 -20.240202
v 0.367624 1.488806 -19.787983
v 9.575810 0.248653 -15.006353
v 17.851404 1.615113 -9.151572
vn -0.0000 1.0000 -0.0000
vn 0.3410 0.9289 0.1445
vn 0.2222 0.9143 0.3388
vn 0.1739 0.9140 0.3665
vn -0.0708 0.9258 0.3712
vn -0.3704 0.9091 0.1908
vn -0.3634 0.9092 0.2031
vn -0.3618 0.9052 -0.2231
vn -0.3380 0.9037 -0.2629
vn -0.1587 0.9146 -0.3719
vn 0.0194 0.9262 -0.3766
vn 0.3914 0.9072 -0.1540
vn 0.3332 0.9077 -0.2552
vn 0.6414 0.7067 0.2986
vn 0.5664 0.7217 0.3980
vn 0.1687 0.7694 0.6160
vn -0.2231 0.7377 0.6372
vn -0.4998 0.7287 0.4681
vn -0.6485 0.7384 0.1850
vn -0.6381 0.7603 -0.1217
vn -0.4166 0.7471 -0.5180
vn -0.2252 0.7162 -0.6605
vn 0.1982 0.7080 -0.6779
vn 0.4519 0.7348 -0.5058
vn 0.6164 0.7679 -0.1742
vn 0.7232 0.6257 0.2924
vn 0.6316 0.6186 0.4674
vn 0.3693 0.7244 0.5822
vn -0.4666 0.6868 0.5573
vn -0.4182 0.6460 0.6386
vn -0.6485 0.7436 0.1629
vn -0.6404 0.7673 -0.0343
vn -0.3377 0.7848 -0.5196
vn -0.0745 0.6614 -0.7463
vn 0.2929 0.5424 -0.7874
vn 0.3850 0.6172 -0.6861
vn 0.7442 0.6594 -0.1065
vn 0.5438 0.8295 0.1275
vn 0.3791 0.8208 0.4272
vn 0.2816 0.5720 0.7704
vn -0.3773 0.5871 0.7162
vn -0.3913 0.7297 0.5607
vn -0.6709 0.7095 0.2158
vn -0.8323 0.4367 -0.3415
vn -0.7425 0.5078 -0.4369
vn 0.0311 0.8110 -0.5843
vn 0.3119 0.7500 -0.5833
vn 0.3549 0.6233 -0.6968
vn 0.6596 0.7382 -0.1414
s 0
f 3//1 2//1 1//1
f 4//1 3//1 1//1
f 5//1 4//1 1//1
f 6//1 5//1 1//1
f 7//1 6//1 1//1
f 8//1 7//1 1//1
f 9//1 8//1 1//1
f 10//1 9//1 1//1
f 11//1 10//1 1//1
f 12//1 11//1 1//1
f 13//1 12//1 1//1
f 2//1 13//1 1//1
f 3//2 15//2 14//2 2//2
f 4//3 16//3 15//3 3//3
f 5//4 17//4 16//4 4//4
f 6//5 18//5 17//5 5//5
f 7//6 19//6 18//6 6//6
f 8//7 20//7 19//7 7//7
f 9//8 21//8 20//8 8//8
f 10//9 22//9 21//9 9//9
f 11//10 23//10 22//10 10//10
f 12//11 24//11 23//11 11//11
f 13//12 25//12 24//12 12//12
f 2//13 14//13 25//13 13//13
f 15//14 27//14 26//14 14//14
f 16//15 28//15 27//15 15//15
f 17//16 29//16 28//16 16//16
f 18//17 30//17 29//17 17//17
f 19//18 31//18 30//18 18//18
f 20//19 32//19 31//19 19//19
f 21//20 33//20 32//20 20//20
f 22//21 34//21 33//21 21//21
f 23//22 35//22 34//22 22//22
f 24//23 36//23 35//23 23//23
f 25//24 37//24 36//24 24//24
f 14//25 26//25 37//25 25//25
f 27//26 39//26 38//26 26//26
f 28//27 40//27 39//27 27//27
f 29//28 41//28 40//28 28//28
f 30//29 42//29 41//29 29//29
f 31//30 43//30 42//30 30//30
f 32//31 44//31 43//31 31//31
f 33//32 45//32 44//32 32//32
f 34//33 46//33 45//33 33//33
f 35//34 47//34 46//34 34//34
f 36//35 48//35 47//35 35//35
f 37//36 49//36 48//36 36//36
f 26//37 38//37 49//37 37//37
f 39//38 51//38 50//38 38//38
f 40//39 52//39 51//39 39//39
f 41//40 53//40 52//40 40//40
f 42//41 54//41 53//41 41//41
f 43//42 55//42 54//42 42//42
f 44//43 56//43 55//43 43//43
f 45//44 57//44 56//44 44//44
f 46//45 58//45 57//45 45//45
f 47//46 59//46 58//46 46//46
f 48//47 60//47 59//47 47//47
f 49//48 61//48 60//48 48//48
f 38//49 50//49 61//49 49//49
