# Blender 4.4.1
# www.blender.org
o Mountain_048
v -1.937871 0.000000 0.136879
v -1.937871 21.404037 0.136879
v -1.937871 21.404037 0.136879
v -1.937871 21.404037 0.136879
v -1.937871 21.404037 0.136879
v -1.937871 21.404037 0.136879
v -1.937871 21.404037 0.136879
v -1.937871 21.404037 0.136879
v -1.937871 21.404037 0.136879
v -1.937871 21.404037 0.136879
v -1.937871 21.404037 0.136879
v -1.937871 21.404037 0.136879
v -1.937871 21.404037 0.136879
v 1.806326 19.157871 0.136879
v 1.297810 18.569643 2.005000
v -0.087882 19.098675 3.341153
v -1.937871 19.208830 4.165184
v -3.837443 18.365261 3.427036
v -5.279077 18.973131 2.065925
v -5.696118 18.803699 0.136879
v -5.144927 18.812151 -1.714716
v -3.773046 18.425663 -3.041738
v -1.937871 18.495075 -3.601973
v 0.068531 18.768265 -3.338310
v 1.561347 18.299046 -1.883395
v 5.336512 13.845547 0.136879
v 5.021763 13.550744 4.155025
v 1.988941 13.707428 6.938316
v -1.937871 13.153455 8.558944
v -5.683704 13.578896 6.624853
v -8.238016 13.253424 3.774270
v -9.056133 14.873835 0.136879
v -8.116860 13.002487 -3.430562
v -5.514800 14.397939 -6.058545
v -1.937871 13.958854 -7.894746
v 1.565525 13.468665 -5.931181
v 4.230571 13.373408 -3.424473
v 9.984233 6.898136 0.136879
v 9.516933 7.321772 6.750313
v 3.942502 6.829372 10.321982
v -1.937871 6.502519 12.944276
v -6.977471 8.596711 8.865723
v -11.887717 8.076827 5.881425
v -12.397915 9.102911 0.136879
v -11.935741 6.234070 -5.635395
v -7.617110 8.010743 -9.699853
v -1.937871 6.356701 -9.995780
v 3.676383 7.792451 -9.587293
v 6.887534 8.867146 -4.958471
v 16.443100 -1.863391 0.136879
v 13.966373 -0.690787 9.319198
v 6.070901 2.100427 14.008479
v -1.937871 1.447380 13.239750
v -10.348598 -0.948120 14.704687
v -16.443100 0.350678 8.511477
v -15.967925 1.239263 0.136879
v -16.070711 -0.427072 -8.022721
v -9.578960 0.441631 -13.097877
v -1.937871 -0.066212 -14.704687
v 5.095421 1.147254 -12.045139
v 9.330832 -1.067249 -6.369110
vn -0.0000 1.0000 -0.0000
vn 0.4760 0.7934 0.3794
vn 0.5496 0.7955 0.2550
vn 0.2565 0.8487 0.4625
vn -0.4990 0.7609 0.4147
vn -0.2265 0.7772 0.5870
vn -0.5683 0.8213 0.0507
vn -0.5613 0.8113 -0.1634
vn -0.3112 0.7765 -0.5479
vn -0.2124 0.7713 -0.6001
vn -0.0268 0.7890 -0.6138
vn 0.5345 0.7928 -0.2927
vn 0.4731 0.7887 -0.3926
vn 0.7823 0.5905 0.1980
vn 0.5859 0.6167 0.5258
vn 0.2782 0.5832 0.7632
vn -0.3851 0.5725 0.7239
vn -0.5886 0.5471 0.5951
vn -0.7672 0.5583 0.3158
vn -0.7383 0.5490 -0.3918
vn -0.6519 0.5589 -0.5125
vn -0.2675 0.6564 -0.7054
vn 0.3260 0.5750 -0.7504
vn 0.6328 0.4977 -0.5932
vn 0.7896 0.5258 -0.3165
vn 0.8155 0.5763 0.0530
vn 0.4826 0.5488 0.6826
vn 0.3035 0.5071 0.8067
vn -0.3935 0.4877 0.7793
vn -0.5552 0.5407 0.6320
vn -0.7877 0.5547 0.2680
vn -0.7753 0.5086 -0.3745
vn -0.7029 0.5281 -0.4765
vn -0.1213 0.3925 -0.9117
vn 0.1884 0.4157 -0.8898
vn 0.5952 0.5683 -0.5682
vn 0.7890 0.5420 -0.2893
vn 0.8273 0.5531 0.0983
vn 0.4967 0.5754 0.6498
vn 0.0944 0.3928 0.9148
vn -0.1824 0.4164 0.8907
vn -0.5088 0.5559 0.6573
vn -0.8803 0.4699 0.0659
vn -0.8565 0.4839 -0.1796
vn -0.6251 0.5086 -0.5922
vn -0.0411 0.5052 -0.8620
vn 0.1082 0.4870 -0.8667
vn 0.7870 0.3081 -0.5346
vn 0.7350 0.3917 -0.5534
s 0
f 3//1 2//1 1//1
f 4//1 3//1 1//1
f 5//1 4//1 1//1
f 6//1 5//1 1//1
f 7//1 6//1 1//1
f 8//1 7//1 1//1
f 9//1 8//1 1//1
f 10//1 9//1 1//1
f 11//1 10//1 1//1
f 12//1 11//1 1//1
f 13//1 12//1 1//1
f 2//1 13//1 1//1
f 3//2 15//2 14//2 2//2
f 4//3 16//3 15//3 3//3
f 5//4 17//4 16//4 4//4
f 6//5 18//5 17//5 5//5
f 7//6 19//6 18//6 6//6
f 8//7 20//7 19//7 7//7
f 9//8 21//8 20//8 8//8
f 10//9 22//9 21//9 9//9
f 11//10 23//10 22//10 10//10
f 12//11 24//11 23//11 11//11
f 13//12 25//12 24//12 12//12
f 2//13 14//13 25//13 13//13
f 15//14 27//14 26//14 14//14
f 16//15 28//15 27//15 15//15
f 17//16 29//16 28//16 16//16
f 18//17 30//17 29//17 17//17
f 19//18 31//18 30//18 18//18
f 20//19 32//19 31//19 19//19
f 21//20 33//20 32//20 20//20
f 22//21 34//21 33//21 21//21
f 23//22 35//22 34//22 22//22
f 24//23 36//23 35//23 23//23
f 25//24 37//24 36//24 24//24
f 14//25 26//25 37//25 25//25
f 27//26 39//26 38//26 26//26
f 28//27 40//27 39//27 27//27
f 29//28 41//28 40//28 28//28
f 30//29 42//29 41//29 29//29
f 31//30 43//30 42//30 30//30
f 32//31 44//31 43//31 31//31
f 33//32 45//32 44//32 32//32
f 34//33 46//33 45//33 33//33
f 35//34 47//34 46//34 34//34
f 36//35 48//35 47//35 35//35
f 37//36 49//36 48//36 36//36
f 26//37 38//37 49//37 37//37
f 39//38 51//38 50//38 38//38
f 40//39 52//39 51//39 39//39
f 41//40 53//40 52//40 40//40
f 42//41 54//41 53//41 41//41
f 43//42 55//42 54//42 42//42
f 44//43 56//43 55//43 43//43
f 45//44 57//44 56//44 44//44
f 46//45 58//45 57//45 45//45
f 47//46 59//46 58//46 46//46
f 48//47 60//47 59//47 47//47
f 49//48 61//48 60//48 48//48
f 38//49 50//49 61//49 49//49
