# Merged route mesh - Route_East_Merged
o Route_East_Merged
v 348.719578 0.1 7.478849
v 348.980863 0.1 -7.518876
v 350.130422 0.1 -7.498849
v 349.869137 0.1 7.498876
v 347.171194 0.1 7.419352
v 347.764932 0.1 -7.568892
v 349.14680599999997 0.1 -7.5141519999999993
v 348.553068 0.1 7.4740920000000006
v 345.494294 0.1 7.333961
v 346.26155 0.1 -7.6464039999999995
v 347.851706 0.1 -7.564961
v 347.08445 0.1 7.415404
v 343.681219 0.1 7.231718
v 344.526375 0.1 -7.7444539999999993
v 346.300781 0.1 -7.6443179999999993
v 345.455625 0.1 7.331854
v 341.740785 0.1 7.120517
v 342.598592 0.1 -7.854934
v 344.533215 0.1 -7.744117
v 343.675408 0.1 7.231334
v 339.68818600000003 0.1 7.0081190000000007
v 340.509005 0.1 -7.9694059999999993
v 342.579814 0.1 -7.855919
v 341.758995 0.1 7.121606
v 337.544415 0.1 6.90204
v 338.286624 0.1 -8.079587
v 340.469585 0.1 -7.97144
v 339.727376 0.1 7.010187
v 335.33168099999995 0.1 6.809877
v 335.95723899999996 0.1 -8.177073
v 338.228319 0.1 -8.082277
v 337.602761 0.1 6.9046730000000007
v 333.07368399999996 0.1 6.739278
v 333.545149 0.1 -8.25331
v 335.880316 0.1 -8.179878
v 335.40885099999997 0.1 6.81271
v 330.79529 0.1 6.69758
v 331.073488 0.1 -8.29984
v 333.44871 0.1 -8.25578
v 333.17051200000003 0.1 6.74164
v 328.521441 0.1 6.692233
v 328.563316 0.1 -8.307709
v 330.954559 0.1 -8.301033
v 330.912684 0.1 6.698909
v 326.281217 0.1 6.72997
v 326.037551 0.1 -8.26805
v 328.420783 0.1 -8.30677
v 328.664449 0.1 6.69125
v 324.10204699999997 0.1 6.817312
v 323.51476399999996 0.1 -8.171187
v 325.865953 0.1 -8.263312
v 326.453236 0.1 6.725187
v 322.01407 0.1 6.959943
v 321.012818 0.1 -8.0066019999999991
v 323.30793 0.1 -8.160143
v 324.309182 0.1 6.8064019999999994
v 320.049675 0.1 7.161872
v 318.547321 0.1 -7.762703
v 320.76232500000003 0.1 -7.985672
v 322.264679 0.1 6.938903
v 318.244284 0.1 7.425187
v 316.130854 0.1 -7.42518
v 318.241716 0.1 -7.725587
v 320.355146 0.1 7.12478
v 316.86060200000003 0.1 7.7717540000000005
v 313.49267100000003 0.1 -6.8452589999999995
v 315.503398 0.1 -7.308554
v 318.871329 0.1 7.308459
v 315.713412 0.1 8.221681
v 310.757288 0.1 -5.935892
v 312.69858800000003 0.1 -6.615481
v 317.654712 0.1 7.5420919999999994
v 314.44465799999995 0.1 8.829602
v 308.251448 0.1 -4.8321749999999994
v 310.139342 0.1 -5.688002
v 316.33255199999996 0.1 7.973775
v 313.04025900000005 0.1 9.6008129999999987
v 305.953232 0.1 -3.619401
v 307.803741 0.1 -4.611413
v 314.89076800000004 0.1 8.608801
v 311.501901 0.1 10.524552
v 303.832952 0.1 -2.3668089999999995
v 305.662099 0.1 -3.454952
v 313.331048 0.1 9.436409
v 309.829952 0.1 11.576293
v 301.85824099999996 0.1 -1.1300750000000006
v 303.68204799999995 0.1 -2.274293
v 311.653759 0.1 10.432075000000001
v 308.01869500000004 0.1 12.721964
v 300.00081700000004 0.1 0.044675999999999938
v 301.835305 0.1 -1.115564
v 309.853183 0.1 11.561724000000002
v 306.056308 0.1 13.920933
v 298.240502 0.1 1.1180749999999993
v 300.101692 0.1 -0.018133000000000621
v 307.917498 0.1 12.784725
v 303.925048 0.1 15.126763
v 296.565037 0.1 2.056558
v 298.468952 0.1 0.98443699999999978
v 305.828963 0.1 14.054642000000001
v 301.599115 0.1 16.285997000000002
v 294.964223 0.1 2.833182
v 296.92688499999997 0.1 1.8652029999999993
v 303.56177699999995 0.1 15.318017999999999
v 299.055621 0.1 17.336549
v 293.43294899999995 0.1 3.4302350000000006
v 295.470379 0.1 2.6064510000000007
v 301.093051 0.1 16.512765
v 296.274306 0.1 18.205671000000002
v 291.957474 0.1 3.8402630000000011
v 294.085694 0.1 3.2007290000000008
v 298.402526 0.1 17.566137
v 293.251413 0.1 18.81204
v 290.51155600000004 0.1 4.06439
v 292.74658700000003 0.1 3.6491600000000011
v 295.486444 0.1 18.396810000000002
v 290.001986 0.1 19.073729
v 289.044149 0.1 4.104342
v 291.402014 0.1 3.9534710000000004
v 292.359851 0.1 18.922858
v 286.56627999999995 0.1 18.921388
v 287.48700099999996 0.1 3.9496709999999995
v 289.98372 0.1 4.103212
v 289.062999 0.1 19.074929
v 282.99079700000004 0.1 18.308617
v 285.759607 0.1 3.5663750000000007
v 288.411203 0.1 4.064383
v 285.642393 0.1 18.806625
v 279.023525 0.1 16.99426
v 284.05129400000004 0.1 2.8619720000000006
v 286.888475 0.1 3.87134
v 281.860706 0.1 18.003628
v 275.011005 0.1 14.964739999999999
v 282.010223 0.1 1.6978279999999994
v 285.036995 0.1 3.2946599999999995
v 278.037777 0.1 16.561571999999998
v 271.21326300000004 0.1 12.519604000000001
v 279.424408 0.1 -0.033368999999999538
v 282.616737 0.1 2.0547960000000005
v 274.405592 0.1 14.607769000000001
v 267.504752 0.1 9.774426
v 276.465393 0.1 -2.254993
v 279.799248 0.1 0.22837400000000052
v 270.83860699999997 0.1 12.257793
v 263.82611 0.1 6.816125
v 273.240543 0.1 -4.861565
v 276.69189 0.1 -2.0791250000000003
v 267.277457 0.1 9.598565
v 260.15731200000005 0.1 3.728519
v 269.819881 0.1 -7.744701
v 273.364688 0.1 -4.759319
v 263.70211900000004 0.1 6.7139010000000008
v 256.49915000000004 0.1 0.59858399999999978
v 266.25061500000004 0.1 -10.799177
v 269.86485 0.1 -7.7069839999999994
v 260.113385 0.1 3.6907770000000006
v 252.864913 0.1 -2.4825720000000002
v 262.56545700000004 0.1 -13.923703
v 266.22508700000003 0.1 -10.820827999999999
v 256.524543 0.1 0.62030299999999983
v 249.278838 0.1 -5.420242
v 258.78817 0.1 -17.020784
v 262.469162 0.1 -14.003358
v 252.95982999999998 0.1 -2.4028160000000005
v 245.77655099999998 0.1 -8.116716
v 254.935127 0.1 -19.99613
v 258.613449 0.1 -17.160284
v 249.454873 0.1 -5.28087
v 242.400962 0.1 -10.471910999999999
v 251.007419 0.1 -22.757225
v 254.659038 0.1 -20.199089
v 246.052581 0.1 -7.9137749999999993
v 239.213767 0.1 -12.386398000000002
v 246.99335 0.1 -25.211298
v 250.594233 0.1 -23.027002000000003
v 242.81465 0.1 -10.202102000000002
v 236.29762300000002 0.1 -13.768083999999998
v 242.85626100000002 0.1 -27.258240999999998
v 246.382377 0.1 -25.543916
v 239.823739 0.1 -12.053759
v 233.766832 0.1 -14.549896999999998
v 238.531853 0.1 -28.772927
v 241.959168 0.1 -27.624703
v 237.194147 0.1 -13.401672999999999
v 231.75346800000003 0.1 -14.727215
v 233.93605100000002 0.1 -29.567577
v 237.240532 0.1 -29.081584999999997
v 235.057949 0.1 -14.241222999999998
v 230.33173299999999 0.1 -14.402762
v 229.04265099999998 0.1 -29.347268999999997
v 232.200267 0.1 -29.619638
v 233.489349 0.1 -14.675130999999999
v 229.43621100000001 0.1 -13.707751
v 223.909033 0.1 -27.652295
v 226.923789 0.1 -28.847248999999998
v 232.45096700000002 0.1 -14.902705000000001
v 228.202633 0.1 -12.503439999999998
v 219.33676400000002 0.1 -24.602876
v 222.23936700000002 0.1 -26.72976
v 231.105236 0.1 -14.630323999999998
v 226.37347599999998 0.1 -10.435775999999999
v 215.554051 0.1 -20.825193
v 218.360524 0.1 -23.747824
v 229.179949 0.1 -13.358407
v 224.204904 0.1 -7.5060639999999994
v 212.268732 0.1 -16.590545
v 214.995096 0.1 -20.172736
v 226.931268 0.1 -11.088255
v 221.867627 0.1 -3.86224
v 209.282096 0.1 -12.023392
v 211.944373 0.1 -16.12896
v 224.52990400000002 0.1 -7.967808
v 219.443354 0.1 0.32194300000000009
v 206.478434 0.1 -7.221984
v 209.092646 0.1 -11.714742999999999
v 222.057566 0.1 -4.1708159999999994
v 216.96624699999998 0.1 4.879457
v 203.791584 0.1 -2.29189
v 206.373753 0.1 -7.0356570000000005
v 219.54841599999997 0.1 0.13568999999999987
v 214.444746 0.1 9.655003
v 201.181107 0.1 2.6495859999999998
v 203.747254 0.1 -2.209003
v 217.010893 0.1 4.796414
v 211.871353 0.1 14.504399
v 198.6205 0.1 7.4748269999999994
v 201.186647 0.1 2.637601
v 214.4375 0.1 9.667173
v 209.23058400000002 0.1 19.292617
v 196.097247 0.1 12.045863
v 198.679416 0.1 7.3661829999999995
v 211.81275300000001 0.1 14.612936999999999
v 206.492312 0.1 23.895129
v 193.607476 0.1 16.215219
v 196.221688 0.1 11.829271000000002
v 209.106524 0.1 19.509181
v 203.610087 0.1 28.198566
v 191.165636 0.1 19.823866000000002
v 193.827913 0.1 15.867834000000002
v 206.27236399999998 0.1 24.242534
v 200.506187 0.1 32.101521
v 188.817449 0.1 22.70081
v 191.543813 0.1 19.310879
v 203.232551 0.1 28.711589999999998
v 197.04215100000002 0.1 35.505557
v 186.66737700000002 0.1 24.672088000000002
v 189.473849 0.1 21.984443
v 199.848623 0.1 32.817912
v 192.982465 0.1 38.263411
v 184.922932 0.1 25.612564
v 187.825535 0.1 23.763389
v 195.885068 0.1 36.414236
v 188.027085 0.1 40.015525
v 183.84815899999998 0.1 25.609395
v 186.862915 0.1 24.734875
v 191.041841 0.1 39.141005
v 182.3923 0.1 40.13055
v 183.208112 0.1 25.152752
v 186.3457 0.1 25.32365
v 185.529888 0.1 40.301448
v 177.124258 0.1 38.62762
v 181.97600100000002 0.1 24.43394
v 185.22574200000003 0.1 25.54478
v 180.373999 0.1 39.738459999999996
v 172.467384 0.1 36.111059000000004
v 179.94074500000002 0.1 23.105333
v 183.286616 0.1 25.027941000000002
v 175.813255 0.1 38.033667
v 168.237173 0.1 32.971153
v 177.318847 0.1 21.032846
v 180.74482700000002 0.1 23.639046999999998
v 171.66315300000002 0.1 35.577354
v 164.25266599999998 0.1 29.398683
v 174.32326799999998 0.1 18.281895
v 177.813334 0.1 21.443517
v 167.742732 0.1 32.560305
v 160.409016 0.1 25.516880999999998
v 171.090853 0.1 14.986052
v 174.628984 0.1 18.574919
v 163.947147 0.1 29.105748
v 156.655668 0.1 21.436274
v 167.704157 0.1 11.290787000000002
v 171.27433200000002 0.1 15.178726000000001
v 160.225843 0.1 25.324213
v 152.973464 0.1 17.270633
v 164.214339 0.1 7.338729
v 167.800536 0.1 11.397566999999999
v 156.559661 0.1 21.329470999999998
v 149.361755 0.1 13.139821
v 160.654048 0.1 3.2664159999999995
v 164.240245 0.1 7.367979
v 152.947952 0.1 17.241384
v 145.832549 0.1 9.170004
v 157.04327600000002 0.1 -0.79591700000000021
v 160.61345100000003 0.1 3.220196
v 149.402724 0.1 13.186117
v 142.408204 0.1 5.493556
v 153.389664 0.1 -4.724446
v 156.927796 0.1 -0.92195599999999978
v 145.946336 0.1 9.296046
v 139.12812399999999 0.1 2.2495179999999997
v 149.68981 0.1 -8.401811
v 153.179876 0.1 -4.9411179999999995
v 142.61819 0.1 5.7102109999999993
v 136.05077599999998 0.1 -0.41681100000000004
v 145.915244 0.1 -11.716912
v 149.341224 0.1 -8.7261890000000015
v 139.476756 0.1 2.573912
v 133.274555 0.1 -2.358792
v 141.999574 0.1 -14.560186999999999
v 145.345445 0.1 -12.167608000000001
v 136.620426 0.1 0.033786999999999345
v 130.9652 0.1 -3.4518710000000006
v 137.809059 0.1 -16.799589
v 141.0588 0.1 -15.133329
v 134.214941 0.1 -1.7856110000000003
v 129.371636 0.1 -3.6765629999999989
v 133.128776 0.1 -18.198405
v 136.26636399999998 0.1 -17.386637
v 132.509224 0.1 -2.8647949999999991
v 128.34269899999998 0.1 -3.3904130000000006
v 128.10452899999999 0.1 -18.388521
v 131.131301 0.1 -18.436587000000003
v 131.369471 0.1 -3.438479000000001
v 127.176656 0.1 -2.8673729999999997
v 123.399897 0.1 -17.384125
v 126.335344 0.1 -18.147827
v 130.112103 0.1 -3.631075
v 125.702089 0.1 -1.9927790000000005
v 119.162572 0.1 -15.492212000000002
v 122.017911 0.1 -16.875421000000003
v 128.557428 0.1 -3.3759880000000004
v 123.881013 0.1 -0.64617600000000053
v 115.410542 0.1 -13.025639
v 118.196987 0.1 -14.932224
v 126.667458 0.1 -2.5527610000000003
v 121.792394 0.1 1.1976130000000005
v 112.042839 0.1 -10.201781
v 114.77160599999999 0.1 -12.535613
v 124.52116099999999 0.1 -1.1362189999999996
v 119.520906 0.1 3.4833610000000004
v 108.94878899999999 0.1 -7.157613
v 111.63109399999999 0.1 -9.822561
v 122.203211 0.1 0.81841300000000006
v 117.12678700000001 0.1 6.119049
v 106.048156 0.1 -3.993516
v 108.695213 0.1 -6.893449
v 119.773844 0.1 3.219116
v 114.64193999999999 0.1 9.002262
v 103.287036 0.1 -0.79907400000000006
v 105.91006 0.1 -3.837862
v 117.26496399999999 0.1 5.963474
v 112.077754 0.1 12.030622999999999
v 100.63203999999999 0.1 2.3354889999999995
v 103.242246 0.1 -0.7460230000000001
v 114.68796 0.1 8.949111
v 109.427972 0.1 15.106228000000002
v 98.063423 0.1 5.316079
v 100.672028 0.1 2.2879720000000008
v 112.036577 0.1 12.078121000000001
v 106.676161 0.1 18.13624
v 95.579622 0.1 8.0433309999999985
v 98.197839 0.1 5.1647599999999994
v 109.294378 0.1 15.257669
v 103.78589600000001 0.1 21.032127
v 93.191658 0.1 10.413177000000001
v 95.830704 0.1 7.780273
v 106.424942 0.1 18.399223
v 100.700559 0.1 23.706490000000002
v 90.934752 0.1 12.321017000000001
v 93.605841 0.1 10.029910000000001
v 103.371648 0.1 21.415383000000002
v 97.332226999999989 0.1 26.061051
v 88.874425 0.1 13.672929
v 91.588773 0.1 11.819749000000002
v 100.04657499999999 0.1 24.207871
v 93.560258 0.1 27.956910999999998
v 87.10872 0.1 14.415211
v 89.877542 0.1 13.096089
v 96.32908 0.1 26.637788999999998
v 89.271367 0.1 29.162793
v 85.728721999999991 0.1 14.587140999999999
v 88.563233 0.1 13.898207
v 92.105878 0.1 28.473859
v 84.763012 0.1 29.465995
v 84.285419 0.1 14.4736
v 87.261188 0.1 14.378805
v 87.738781 0.1 29.3712
v 80.511435 0.1 29.059286
v 82.21808 0.1 14.156690000000001
v 85.377565 0.1 14.518514000000001
v 83.67092000000001 0.1 29.421110000000002
v 76.37414 0.1 28.15368
v 79.745911 0.1 13.537553
v 83.050660000000008 0.1 14.29992
v 79.678889 0.1 28.916047
v 72.333912000000012 0.1 26.872719
v 76.962929 0.1 12.604847000000001
v 80.374488 0.1 13.711681000000002
v 75.745471000000009 0.1 27.979553000000003
v 68.377493 0.1 25.304913
v 73.959588 0.1 11.382262
v 77.439507 0.1 12.777487
v 71.857412000000011 0.1 26.700138
v 64.503577 0.1 23.520093000000003
v 70.813797000000008 0.1 9.9119660000000014
v 74.323623 0.1 11.539507
v 68.013403 0.1 25.147634000000004
v 60.72265 0.1 21.57945
v 67.592268 0.1 8.2449699999999986
v 71.093550000000008 0.1 10.04875
v 64.223932 0.1 23.38323
v 57.053742 0.1 19.540562
v 64.352573 0.1 6.4360950000000008
v 67.806858 0.1 8.360038
v 60.508027000000006 0.1 21.464505
v 53.522574000000006 0.1 17.459455000000002
v 61.145991 0.1 4.5411150000000005
v 64.514826 0.1 6.5291450000000006
v 56.891409 0.1 19.447485
v 50.159805 0.1 15.392357
v 58.018860999999994 0.1 2.616003
v 61.263794999999995 0.1 4.612043
v 53.404739 0.1 17.388397
v 47.000271 0.1 13.396374000000002
v 55.013348 0.1 0.7160510000000011
v 58.095929 0.1 2.6640260000000007
v 50.082851999999995 0.1 15.344349000000001
v 44.082891 0.1 11.529917999999999
v 52.167134 0.1 -1.1051520000000004
v 55.048909 0.1 0.73868199999999984
v 46.964666 0.1 13.373752
v 41.452443 0.1 9.854068
v 49.51244 0.1 -2.7964840000000004
v 52.154956999999996 0.1 -1.1128680000000006
v 44.09496 0.1 11.537683999999999
v 39.163424 0.1 8.434329
v 47.071968 0.1 -4.3114519999999992
v 49.436776 0.1 -2.844129
v 41.528232 0.1 9.901652
v 37.290255 0.1 7.344987
v 44.8479 0.1 -5.611941
v 46.896545 0.1 -4.4169870000000007
v 39.3389 0.1 8.539941
v 35.959556 0.1 6.677234
v 42.790413 0.1 -6.677143
v 44.484444 0.1 -5.810634
v 37.653587 0.1 7.543743
vn 0 1 0
f 4//1 3//1 2//1 1//1
f 8//2 7//2 6//2 5//2
f 12//3 11//3 10//3 9//3
f 16//4 15//4 14//4 13//4
f 20//5 19//5 18//5 17//5
f 24//6 23//6 22//6 21//6
f 28//7 27//7 26//7 25//7
f 32//8 31//8 30//8 29//8
f 36//9 35//9 34//9 33//9
f 40//10 39//10 38//10 37//10
f 44//11 43//11 42//11 41//11
f 48//12 47//12 46//12 45//12
f 52//13 51//13 50//13 49//13
f 56//14 55//14 54//14 53//14
f 60//15 59//15 58//15 57//15
f 64//16 63//16 62//16 61//16
f 68//17 67//17 66//17 65//17
f 72//18 71//18 70//18 69//18
f 76//19 75//19 74//19 73//19
f 80//20 79//20 78//20 77//20
f 84//21 83//21 82//21 81//21
f 88//22 87//22 86//22 85//22
f 92//23 91//23 90//23 89//23
f 96//24 95//24 94//24 93//24
f 100//25 99//25 98//25 97//25
f 104//26 103//26 102//26 101//26
f 108//27 107//27 106//27 105//27
f 112//28 111//28 110//28 109//28
f 116//29 115//29 114//29 113//29
f 120//30 119//30 118//30 117//30
f 124//31 123//31 122//31 121//31
f 128//32 127//32 126//32 125//32
f 132//33 131//33 130//33 129//33
f 136//34 135//34 134//34 133//34
f 140//35 139//35 138//35 137//35
f 144//36 143//36 142//36 141//36
f 148//37 147//37 146//37 145//37
f 152//38 151//38 150//38 149//38
f 156//39 155//39 154//39 153//39
f 160//40 159//40 158//40 157//40
f 164//41 163//41 162//41 161//41
f 168//42 167//42 166//42 165//42
f 172//43 171//43 170//43 169//43
f 176//44 175//44 174//44 173//44
f 180//45 179//45 178//45 177//45
f 184//46 183//46 182//46 181//46
f 188//47 187//47 186//47 185//47
f 192//48 191//48 190//48 189//48
f 196//49 195//49 194//49 193//49
f 200//50 199//50 198//50 197//50
f 204//51 203//51 202//51 201//51
f 208//52 207//52 206//52 205//52
f 212//53 211//53 210//53 209//53
f 216//54 215//54 214//54 213//54
f 220//55 219//55 218//55 217//55
f 224//56 223//56 222//56 221//56
f 228//57 227//57 226//57 225//57
f 232//58 231//58 230//58 229//58
f 236//59 235//59 234//59 233//59
f 240//60 239//60 238//60 237//60
f 244//61 243//61 242//61 241//61
f 248//62 247//62 246//62 245//62
f 252//63 251//63 250//63 249//63
f 256//64 255//64 254//64 253//64
f 260//65 259//65 258//65 257//65
f 264//66 263//66 262//66 261//66
f 268//67 267//67 266//67 265//67
f 272//68 271//68 270//68 269//68
f 276//69 275//69 274//69 273//69
f 280//70 279//70 278//70 277//70
f 284//71 283//71 282//71 281//71
f 288//72 287//72 286//72 285//72
f 292//73 291//73 290//73 289//73
f 296//74 295//74 294//74 293//74
f 300//75 299//75 298//75 297//75
f 304//76 303//76 302//76 301//76
f 308//77 307//77 306//77 305//77
f 312//78 311//78 310//78 309//78
f 316//79 315//79 314//79 313//79
f 320//80 319//80 318//80 317//80
f 324//81 323//81 322//81 321//81
f 328//82 327//82 326//82 325//82
f 332//83 331//83 330//83 329//83
f 336//84 335//84 334//84 333//84
f 340//85 339//85 338//85 337//85
f 344//86 343//86 342//86 341//86
f 348//87 347//87 346//87 345//87
f 352//88 351//88 350//88 349//88
f 356//89 355//89 354//89 353//89
f 360//90 359//90 358//90 357//90
f 364//91 363//91 362//91 361//91
f 368//92 367//92 366//92 365//92
f 372//93 371//93 370//93 369//93
f 376//94 375//94 374//94 373//94
f 380//95 379//95 378//95 377//95
f 384//96 383//96 382//96 381//96
f 388//97 387//97 386//97 385//97
f 392//98 391//98 390//98 389//98
f 396//99 395//99 394//99 393//99
f 400//100 399//100 398//100 397//100
f 404//101 403//101 402//101 401//101
f 408//102 407//102 406//102 405//102
f 412//103 411//103 410//103 409//103
f 416//104 415//104 414//104 413//104
f 420//105 419//105 418//105 417//105
f 424//106 423//106 422//106 421//106
f 428//107 427//107 426//107 425//107
f 432//108 431//108 430//108 429//108
f 436//109 435//109 434//109 433//109
f 440//110 439//110 438//110 437//110
f 444//111 443//111 442//111 441//111
f 448//112 447//112 446//112 445//112
