# Merged route mesh - Route_South_Merged
o Route_South_Merged
v -7.537468 0.1 348.663553
v 7.457414 0.1 348.271701
v 7.4974680000000005 0.1 349.804447
v -7.4974139999999991 0.1 350.19629899999995
v -7.636335 0.1 347.069618
v 7.337254 0.1 346.179883
v 7.4467349999999994 0.1 348.022382
v -7.526854 0.1 348.91211699999997
v -7.790408 0.1 345.079399
v 7.16552 0.1 343.930392
v 7.3284080000000005 0.1 346.050601
v -7.62752 0.1 347.199608
v -7.986008 0.1 342.771676
v 6.9605369999999995 0.1 341.506449
v 7.1608079999999994 0.1 343.872324
v -7.785737 0.1 345.13755100000003
v -8.206784 0.1 340.201295
v 6.73815 0.1 338.91720699999996
v 6.959784 0.1 341.49670499999996
v -7.98515 0.1 342.780793
v -8.436074 0.1 337.41292599999997
v 6.5134989999999995 0.1 336.183996
v 6.740474 0.1 338.945074
v -8.209099 0.1 340.17400399999997
v -8.657024 0.1 334.44350000000003
v 6.301731 0.1 333.331886
v 6.5180240000000005 0.1 336.2425
v -8.440731 0.1 337.35411400000004
v -8.852538 0.1 331.327606
v 6.118148 0.1 330.390288
v 6.307738 0.1 333.418394
v -8.662948 0.1 334.355712
v -9.005703 0.1 328.099603
v 5.9776370000000005 0.1 327.392841
v 6.124503 0.1 330.506397
v -8.8588370000000012 0.1 331.213159
v -9.099258 0.1 324.78712299999995
v 5.8949390000000008 0.1 324.369915
v 5.983058 0.1 327.536877
v -9.011139 0.1 327.95408499999996
v -9.11541 0.1 321.42224500000003
v 5.884458 0.1 321.35943100000003
v 5.89781 0.1 324.547755
v -9.102058 0.1 324.610569
v -9.035854 0.1 318.03046
v 5.959693 0.1 318.39589700000005
v 5.882254 0.1 321.57354000000004
v -9.113293 0.1 321.208103
v -8.840955000000001 0.1 314.6375
v 6.133205 0.1 315.517582
v 5.9489550000000007 0.1 318.6525
v -9.025205 0.1 317.77241799999996
v -8.509279 0.1 311.269068
v 6.4157620000000009 0.1 312.766782
v 6.108679 0.1 315.826932
v -8.816362 0.1 314.329218
v -8.016767999999999 0.1 307.944564
v 6.815106 0.1 310.184097
v 6.3691679999999993 0.1 313.137436
v -8.462706 0.1 310.897903
v -7.3347299999999995 0.1 304.683994
v 7.334745 0.1 307.815523
v 6.73393 0.1 310.630006
v -7.9355449999999994 0.1 307.498477
v -6.2018220000000008 0.1 301.164063
v 8.014985 0.1 305.94761700000004
v 7.108422 0.1 308.64193700000004
v -7.108385 0.1 303.858383
v -4.505366 0.1 297.592859
v 8.927401 0.1 304.26824799999997
v 7.622966 0.1 306.893141
v -5.809801 0.1 300.217752
v -2.493153 0.1 294.343549
v 10.175564 0.1 302.374963
v 8.545353 0.1 304.94645099999997
v -4.1233640000000005 0.1 296.915037
v -0.29382999999999981 0.1 291.35035799999997
v 11.744118 0.1 300.299539
v 9.86023 0.1 302.833642
v -2.1777180000000005 0.1 293.884461
v 1.9967049999999995 0.1 288.550115
v 13.584361999999999 0.1 298.075144
v 11.518895 0.1 300.587885
v -0.068762000000000434 0.1 291.062856
v 4.299898 0.1 285.89091
v 15.631052 0.1 295.71969
v 13.456102000000001 0.1 298.22709000000003
v 2.124948 0.1 288.39831000000004
v 6.543547 0.1 283.336764
v 17.812187 0.1 293.237154
v 15.599853 0.1 295.75523599999997
v 4.331213 0.1 285.854846
v 8.657078 0.1 280.866352
v 20.053942 0.1 290.618863
v 17.876322000000002 0.1 293.16364799999997
v 6.479458 0.1 283.411137
v 10.570673 0.1 278.467928
v 22.281935 0.1 287.840563
v 20.211127 0.1 290.428072
v 8.499865 0.1 281.055437
v 12.217020999999999 0.1 276.146966
v 24.419278 0.1 284.87077899999997
v 22.527379 0.1 287.51703399999997
v 10.325122 0.1 278.793221
v 13.536484999999999 0.1 273.914413
v 26.381607000000002 0.1 281.660564
v 24.740715 0.1 284.381587
v 11.895593 0.1 276.635436
v 14.485719 0.1 271.793335
v 28.068067999999997 0.1 278.158852
v 26.750280999999998 0.1 280.970665
v 13.167931999999999 0.1 274.605148
v 15.048165 0.1 269.796167
v 29.350619 0.1 274.317208
v 28.428035 0.1 277.235833
v 14.125581 0.1 272.71479200000005
v 15.237385999999999 0.1 267.904947
v 30.072099 0.1 270.125595
v 29.616813999999998 0.1 273.167053
v 14.782100999999999 0.1 270.946405
v 15.073265 0.1 266.033137
v 30.068021 0.1 265.63655
v 30.152135 0.1 268.816863
v 15.157379 0.1 269.21345
v 14.532983999999999 0.1 264.031705
v 29.217005 0.1 260.969105
v 29.912616 0.1 264.304295
v 15.228594999999999 0.1 267.366895
v 13.464886999999997 0.1 261.977683
v 27.214297 0.1 255.98154200000002
v 28.749713 0.1 259.502317
v 15.000302999999999 0.1 265.498458
v 11.628803 0.1 259.412442
v 24.131662 0.1 251.12519300000002
v 26.590997 0.1 254.83555800000002
v 14.088138 0.1 263.122807
v 8.886178000000001 0.1 256.202411
v 20.396162 0.1 246.583666
v 23.635222 0.1 250.459589
v 12.125238 0.1 260.078334
v 5.3681900000000011 0.1 252.58172399999998
v 16.165022 0.1 242.168827
v 20.03961 0.1 246.186276
v 9.2427780000000013 0.1 256.599173
v 1.2433400000000008 0.1 248.685918
v 11.557939000000001 0.1 237.795141
v 15.923860000000001 0.1 241.930082
v 5.609261 0.1 252.82085899999998
v -3.3208219999999997 0.1 244.59436200000002
v 6.696163 0.1 233.429236
v 11.409222 0.1 237.657638
v 1.3922370000000002 0.1 248.822764
v -8.164795 0.1 240.3605
v 1.707995 0.1 229.067671
v 6.6239950000000007 0.1 233.3655
v -3.248795 0.1 244.658329
v -13.135729 0.1 236.021158
v -3.270618 0.1 224.721619
v 1.704129 0.1 229.064842
v -8.160982 0.1 240.364381
v -18.08702 0.1 231.60172699999998
v -8.097877 0.1 220.411687
v -3.2085800000000004 0.1 224.776273
v -13.197723 0.1 235.96631299999999
v -22.877513 0.1 227.120386
v -12.62654 0.1 216.16969899999998
v -7.966887 0.1 220.531614
v -18.21786 0.1 231.482301
v -27.371508 0.1 222.582219
v -16.704304 0.1 212.03656800000002
v -12.418492 0.1 216.371781
v -23.085696 0.1 226.917432
v -31.437711 0.1 217.977571
v -20.173666 0.1 208.071952
v -16.405889000000002 0.1 212.356429
v -27.669934 0.1 222.262048
v -34.946589 0.1 213.267533
v -22.875756 0.1 204.36275799999999
v -19.770211 0.1 208.572467
v -31.841044 0.1 217.477242
v -37.756183 0.1 208.365445
v -24.664535 0.1 201.043647
v -22.365417 0.1 205.154555
v -35.457065 0.1 212.476353
v -39.663678 0.1 203.118332
v -25.454017 0.1 198.313592
v -24.105522 0.1 202.301668
v -38.315183 0.1 207.10640800000002
v -40.296237 0.1 197.36962599999998
v -25.328840999999997 0.1 196.38116399999998
v -25.075162999999996 0.1 200.222374
v -40.042559 0.1 201.210836
v -39.029218 0.1 191.17749799999999
v -24.561003000000003 0.1 195.136126
v -25.578382 0.1 198.854502
v -40.046597000000006 0.1 194.895874
v -35.923305 0.1 185.57149600000002
v -23.164842999999998 0.1 193.45956600000002
v -25.415895 0.1 197.100504
v -38.174357 0.1 189.212434
v -31.737585000000003 0.1 180.847413
v -20.733529 0.1 191.041077
v -24.042015 0.1 194.612587
v -35.046071 0.1 184.41892299999998
v -26.862363 0.1 176.684927
v -17.229354999999998 0.1 188.182979
v -21.419037 0.1 191.693073
v -31.052045 0.1 180.195021
v -21.477783000000002 0.1 172.85136999999997
v -12.824779000000001 0.1 185.103943
v -17.719417 0.1 188.56063
v -26.372421000000003 0.1 176.308057
v -15.721161 0.1 169.217807
v -7.7346840000000006 0.1 181.9149
v -13.158039 0.1 185.326193
v -21.144516 0.1 172.6291
v -9.735025 0.1 165.715985
v -2.169142 0.1 178.668106
v -7.9449749999999995 0.1 182.042015
v -15.510857999999999 0.1 169.089894
v -3.6739990000000002 0.1 162.30927
v 3.6740709999999996 0.1 175.38619300000002
v -2.2780009999999997 0.1 178.73073000000002
v -9.626071 0.1 165.653807
v 2.295878 0.1 158.97594
v 9.608194000000001 0.1 172.072887
v 3.656122 0.1 175.39606
v -3.656194 0.1 162.299113
v 7.99894 0.1 155.707807
v 15.456893 0.1 168.722372
v 9.68106 0.1 172.032193
v 2.2231069999999997 0.1 159.017628
v 13.248824 0.1 152.505007
v 21.053731 0.1 165.314512
v 15.630376 0.1 168.61899300000002
v 7.825469 0.1 155.80948800000002
v 17.84702 0.1 149.38898600000002
v 26.244818000000002 0.1 161.81786300000002
v 21.35018 0.1 165.125014
v 12.952382 0.1 152.696137
v 21.579404999999998 0.1 146.40542299999998
v 30.891676999999998 0.1 158.16474399999998
v 26.701995 0.1 161.482577
v 17.389723 0.1 149.723256
v 24.218413 0.1 143.66786
v 34.869674 0.1 154.229615
v 31.561187 0.1 157.56614
v 20.909926000000002 0.1 147.00438499999998
v 25.562373 0.1 141.413722
v 38.027879999999996 0.1 149.75705
v 35.776827 0.1 153.12027799999998
v 23.31132 0.1 144.77695
v 25.627628 0.1 140.036805
v 39.997352000000006 0.1 144.339253
v 38.979972000000004 0.1 147.737195
v 24.610248000000002 0.1 143.434747
v 25.079288999999996 0.1 139.31118700000002
v 40.038433 0.1 138.20482800000002
v 40.292111 0.1 141.634813
v 25.332966999999996 0.1 142.741172
v 24.22478 0.1 138.03638800000002
v 38.195925 0.1 132.576798
v 39.54442 0.1 136.027612
v 25.573275 0.1 141.48720200000002
v 22.660809 0.1 135.984712
v 35.161673 0.1 127.69445300000001
v 37.460791 0.1 131.161288
v 24.959927 0.1 139.451547
v 20.211209 0.1 133.357221
v 31.400046 0.1 123.366728
v 34.505591 0.1 126.844779
v 23.316754 0.1 136.835272
v 16.945675 0.1 130.384051
v 27.130148000000002 0.1 119.37149000000001
v 30.897925 0.1 122.85594900000001
v 20.713452 0.1 133.86851000000001
v 13.019511 0.1 127.209273
v 22.484676999999998 0.1 115.572666
v 26.770488999999998 0.1 119.058727
v 17.305323 0.1 130.695334
v 8.6021840000000012 0.1 123.91591700000001
v 17.582563 0.1 111.90122600000001
v 22.242216 0.1 115.384083
v 13.261837 0.1 127.398774
v 3.8583740000000004 0.1 120.54691600000001
v 12.547929 0.1 108.320238
v 17.437226 0.1 111.795084
v 8.747671 0.1 124.02176200000001
v -1.05567 0.1 117.128
v 7.512523 0.1 104.815972
v 12.487269999999999 0.1 108.278
v 3.9190769999999997 0.1 120.590028
v -5.9912550000000007 0.1 113.669156
v 2.616054 0.1 101.38444
v 7.532055 0.1 104.82884399999999
v -1.075254 0.1 117.11355999999999
v -10.807210999999999 0.1 110.174026
v -1.994247 0.1 98.036
v 2.7188109999999996 0.1 101.45797400000001
v -6.094153 0.1 113.596
v -15.370288 0.1 106.631417
v -6.1628330000000009 0.1 94.789846
v -1.7969120000000007 0.1 98.184583
v -11.004367 0.1 110.026154
v -19.55711 0.1 103.012007
v -9.7252780000000012 0.1 91.683499
v -5.8506900000000011 0.1 95.046193
v -15.682522 0.1 106.374701
v -23.253168 0.1 99.254615
v -12.507292 0.1 88.789142
v -9.2682320000000011 0.1 92.11498499999999
v -20.014108 0.1 102.580458
v -26.342905000000002 0.1 95.233254
v -14.33623 0.1 86.242159
v -11.876895 0.1 89.526346
v -23.88357 0.1 98.517441
v -28.651618999999997 0.1 90.713687999999991
v -15.098396999999999 0.1 84.286386999999991
v -13.562980999999999 0.1 87.524112
v -27.116203 0.1 93.951413
v -29.907059 0.1 85.781515
v -15.234151 0.1 82.666108000000008
v -14.538540999999999 0.1 85.942285000000012
v -29.211448999999998 0.1 89.057692
v -30.152439 0.1 81.027824
v -15.157074999999999 0.1 80.654922
v -15.072961 0.1 84.037376000000009
v -30.068325 0.1 84.410278
v -29.635296 0.1 76.404126
v -14.76362 0.1 78.361984
v -15.218903999999998 0.1 81.820274
v -30.09058 0.1 79.862416
v -28.529581 0.1 71.969569
v -14.024035 0.1 75.789146
v -14.946618999999998 0.1 79.292831
v -29.452165 0.1 75.473254000000011
v -26.982692 0.1 67.730334
v -12.935520999999998 0.1 72.991227
v -14.253307999999999 0.1 76.509865999999988
v -28.300479 0.1 71.248972999999992
v -25.109997 0.1 63.676294
v -11.526311 0.1 70.038955
v -13.167203 0.1 73.542106
v -26.750889 0.1 67.179445
v -23.005547999999997 0.1 59.799994000000005
v -9.846953 0.1 67.00078400000001
v -11.738852 0.1 70.458006000000012
v -24.897447 0.1 63.257216000000007
v -20.751123 0.1 56.102183000000004
v -7.959869 0.1 63.936965
v -10.030677 0.1 67.317817
v -22.821931 0.1 59.483035
v -18.42273 0.1 52.59193
v -5.9330500000000006 0.1 60.89903
v -8.1106699999999989 0.1 64.17307
v -20.60035 0.1 55.86597
v -16.094512 0.1 49.28602
v -3.8365539999999996 0.1 57.931392
v -6.048888 0.1 61.068180000000005
v -18.306846 0.1 52.422808
v -13.84088 0.1 46.207588
v -1.7401710000000001 0.1 55.071719
v -3.91512 0.1 58.040812
v -16.015829 0.1 49.176681
v -11.738322 0.1 43.386349
v 0.28819000000000017 0.1 52.350893
v -1.777278 0.1 55.121851
v -13.80379 0.1 46.157307
v -9.867206 0.1 40.861118999999995
v 2.1846950000000005 0.1 49.7915
v 0.30080599999999968 0.1 52.333881
v -11.751095 0.1 43.403499999999994
v -8.31496 0.1 38.684983
v 3.8929709999999997 0.1 47.400854
v 2.2627599999999997 0.1 49.684217000000004
v -9.945171 0.1 40.968346000000004
v -7.182803 0.1 36.94307
v 5.369639 0.1 45.155026
v 4.065203 0.1 47.14893
v -8.487239 0.1 38.936974
v -6.59502 0.1 35.803451
v 6.594983 0.1 42.946546000000005
v 5.6884200000000007 0.1 44.620549000000004
v -7.5015829999999992 0.1 37.477454
vn 0 1 0
f 4//1 3//1 2//1 1//1
f 8//2 7//2 6//2 5//2
f 12//3 11//3 10//3 9//3
f 16//4 15//4 14//4 13//4
f 20//5 19//5 18//5 17//5
f 24//6 23//6 22//6 21//6
f 28//7 27//7 26//7 25//7
f 32//8 31//8 30//8 29//8
f 36//9 35//9 34//9 33//9
f 40//10 39//10 38//10 37//10
f 44//11 43//11 42//11 41//11
f 48//12 47//12 46//12 45//12
f 52//13 51//13 50//13 49//13
f 56//14 55//14 54//14 53//14
f 60//15 59//15 58//15 57//15
f 64//16 63//16 62//16 61//16
f 68//17 67//17 66//17 65//17
f 72//18 71//18 70//18 69//18
f 76//19 75//19 74//19 73//19
f 80//20 79//20 78//20 77//20
f 84//21 83//21 82//21 81//21
f 88//22 87//22 86//22 85//22
f 92//23 91//23 90//23 89//23
f 96//24 95//24 94//24 93//24
f 100//25 99//25 98//25 97//25
f 104//26 103//26 102//26 101//26
f 108//27 107//27 106//27 105//27
f 112//28 111//28 110//28 109//28
f 116//29 115//29 114//29 113//29
f 120//30 119//30 118//30 117//30
f 124//31 123//31 122//31 121//31
f 128//32 127//32 126//32 125//32
f 132//33 131//33 130//33 129//33
f 136//34 135//34 134//34 133//34
f 140//35 139//35 138//35 137//35
f 144//36 143//36 142//36 141//36
f 148//37 147//37 146//37 145//37
f 152//38 151//38 150//38 149//38
f 156//39 155//39 154//39 153//39
f 160//40 159//40 158//40 157//40
f 164//41 163//41 162//41 161//41
f 168//42 167//42 166//42 165//42
f 172//43 171//43 170//43 169//43
f 176//44 175//44 174//44 173//44
f 180//45 179//45 178//45 177//45
f 184//46 183//46 182//46 181//46
f 188//47 187//47 186//47 185//47
f 192//48 191//48 190//48 189//48
f 196//49 195//49 194//49 193//49
f 200//50 199//50 198//50 197//50
f 204//51 203//51 202//51 201//51
f 208//52 207//52 206//52 205//52
f 212//53 211//53 210//53 209//53
f 216//54 215//54 214//54 213//54
f 220//55 219//55 218//55 217//55
f 224//56 223//56 222//56 221//56
f 228//57 227//57 226//57 225//57
f 232//58 231//58 230//58 229//58
f 236//59 235//59 234//59 233//59
f 240//60 239//60 238//60 237//60
f 244//61 243//61 242//61 241//61
f 248//62 247//62 246//62 245//62
f 252//63 251//63 250//63 249//63
f 256//64 255//64 254//64 253//64
f 260//65 259//65 258//65 257//65
f 264//66 263//66 262//66 261//66
f 268//67 267//67 266//67 265//67
f 272//68 271//68 270//68 269//68
f 276//69 275//69 274//69 273//69
f 280//70 279//70 278//70 277//70
f 284//71 283//71 282//71 281//71
f 288//72 287//72 286//72 285//72
f 292//73 291//73 290//73 289//73
f 296//74 295//74 294//74 293//74
f 300//75 299//75 298//75 297//75
f 304//76 303//76 302//76 301//76
f 308//77 307//77 306//77 305//77
f 312//78 311//78 310//78 309//78
f 316//79 315//79 314//79 313//79
f 320//80 319//80 318//80 317//80
f 324//81 323//81 322//81 321//81
f 328//82 327//82 326//82 325//82
f 332//83 331//83 330//83 329//83
f 336//84 335//84 334//84 333//84
f 340//85 339//85 338//85 337//85
f 344//86 343//86 342//86 341//86
f 348//87 347//87 346//87 345//87
f 352//88 351//88 350//88 349//88
f 356//89 355//89 354//89 353//89
f 360//90 359//90 358//90 357//90
f 364//91 363//91 362//91 361//91
f 368//92 367//92 366//92 365//92
f 372//93 371//93 370//93 369//93
f 376//94 375//94 374//94 373//94
f 380//95 379//95 378//95 377//95
f 384//96 383//96 382//96 381//96
