# Merged route mesh - Route_SouthEast_Merged
o Route_SouthEast_Merged
v 342.39714000000004 0.1 353.00374200000005
v 353.00374200000005 0.1 342.39714000000004
v 355.30286 0.1 344.696258
v 344.696258 0.1 355.30286
v 339.633825 0.1 350.240427
v 350.240427 0.1 339.633825
v 353.00417500000003 0.1 342.397573
v 342.397573 0.1 353.00417500000003
v 336.45354299999997 0.1 347.060144
v 347.060144 0.1 336.45354299999997
v 350.240457 0.1 339.633856
v 339.633856 0.1 350.240457
v 332.90429300000005 0.1 343.510894
v 343.510894 0.1 332.90429300000005
v 347.059707 0.1 336.45310600000005
v 336.45310600000005 0.1 347.059707
v 329.035075 0.1 339.641677
v 339.641677 0.1 329.035075
v 343.51092500000004 0.1 332.90432300000003
v 332.90432300000003 0.1 343.51092500000004
v 324.893891 0.1 335.50049199999995
v 335.50049199999995 0.1 324.893891
v 339.64210899999995 0.1 329.035508
v 329.035508 0.1 339.64210899999995
v 320.527738 0.1 331.134341
v 331.134341 0.1 320.527738
v 335.500262 0.1 324.893659
v 324.893659 0.1 335.500262
v 315.985619 0.1 326.592221
v 326.592221 0.1 315.985619
v 331.134381 0.1 320.527779
v 320.527779 0.1 331.134381
v 311.315532 0.1 321.922134
v 321.922134 0.1 311.315532
v 326.592468 0.1 315.985866
v 315.985866 0.1 326.592468
v 306.564477 0.1 317.17108
v 317.17108 0.1 306.564477
v 321.921523 0.1 311.31492
v 311.31492 0.1 321.921523
v 301.78245599999997 0.1 312.389058
v 312.389058 0.1 301.78245599999997
v 317.171544 0.1 306.564942
v 306.564942 0.1 317.171544
v 297.016467 0.1 307.623069
v 307.623069 0.1 297.016467
v 312.389533 0.1 301.78293099999996
v 301.78293099999996 0.1 312.389533
v 292.31351 0.1 302.920112
v 302.920112 0.1 292.31351
v 307.62249 0.1 297.015888
v 297.015888 0.1 307.62249
v 287.723587 0.1 298.330188
v 298.330188 0.1 287.723587
v 302.920413 0.1 292.313812
v 292.313812 0.1 302.920413
v 283.293695 0.1 293.900297
v 293.900297 0.1 283.293695
v 298.330305 0.1 287.723703
v 287.723703 0.1 298.330305
v 279.07183599999996 0.1 289.67843899999997
v 289.67843899999997 0.1 279.07183599999996
v 293.900164 0.1 283.293561
v 283.293561 0.1 293.900164
v 274.969918 0.1 285.57652
v 285.57652 0.1 274.969918
v 289.678082 0.1 279.07148
v 279.07148 0.1 289.678082
v 270.868918 0.1 281.47552
v 281.47552 0.1 270.868918
v 285.577082 0.1 274.97048
v 274.97048 0.1 285.577082
v 266.766918 0.1 277.37352
v 277.37352 0.1 266.766918
v 281.475082 0.1 270.86848
v 270.86848 0.1 281.475082
v 262.665918 0.1 273.27252
v 273.27252 0.1 262.665918
v 277.374082 0.1 266.76748
v 266.76748 0.1 277.374082
v 258.563918 0.1 269.17052
v 269.17052 0.1 258.563918
v 273.272082 0.1 262.66548
v 262.66548 0.1 273.272082
v 254.46191799999997 0.1 265.06852
v 265.06852 0.1 254.46191799999997
v 269.170082 0.1 258.56347999999997
v 258.56347999999997 0.1 269.170082
v 250.36091799999997 0.1 260.96752
v 260.96752 0.1 250.36091799999997
v 265.069082 0.1 254.46247999999997
v 254.46247999999997 0.1 265.069082
v 246.258918 0.1 256.86552
v 256.86552 0.1 246.258918
v 260.967082 0.1 250.36048
v 250.36048 0.1 260.967082
v 242.157918 0.1 252.76452
v 252.76452 0.1 242.157918
v 256.866082 0.1 246.25948
v 246.25948 0.1 256.866082
v 238.055918 0.1 248.66252
v 248.66252 0.1 238.055918
v 252.764082 0.1 242.15748
v 242.15748 0.1 252.764082
v 233.954918 0.1 244.56152
v 244.56152 0.1 233.954918
v 248.663082 0.1 238.05648
v 238.05648 0.1 248.663082
v 229.852918 0.1 240.45952
v 240.45952 0.1 229.852918
v 244.561082 0.1 233.95448
v 233.95448 0.1 244.561082
v 225.75091799999998 0.1 236.35752
v 236.35752 0.1 225.75091799999998
v 240.459082 0.1 229.85247999999999
v 229.85247999999999 0.1 240.459082
v 221.64991799999999 0.1 232.25652
v 232.25652 0.1 221.64991799999999
v 236.358082 0.1 225.75148
v 225.75148 0.1 236.358082
v 217.54791799999998 0.1 228.15452
v 228.15452 0.1 217.54791799999998
v 232.256082 0.1 221.64947999999998
v 221.64947999999998 0.1 232.256082
v 213.44691799999998 0.1 224.05352
v 224.05352 0.1 213.44691799999998
v 228.155082 0.1 217.54847999999998
v 217.54847999999998 0.1 228.155082
v 209.344918 0.1 219.95152000000002
v 219.95152000000002 0.1 209.344918
v 224.05308200000002 0.1 213.44648
v 213.44648 0.1 224.05308200000002
v 205.243918 0.1 215.85052000000002
v 215.85052000000002 0.1 205.243918
v 219.95208200000002 0.1 209.34548
v 209.34548 0.1 219.95208200000002
v 201.141918 0.1 211.74852
v 211.74852 0.1 201.141918
v 215.85008200000001 0.1 205.24348
v 205.24348 0.1 215.85008200000001
v 197.040918 0.1 207.64752000000001
v 207.64752000000001 0.1 197.040918
v 211.74908200000002 0.1 201.14248
v 201.14248 0.1 211.74908200000002
v 192.938918 0.1 203.54552
v 203.54552 0.1 192.938918
v 207.647082 0.1 197.04048
v 197.04048 0.1 207.647082
v 188.836918 0.1 199.44352
v 199.44352 0.1 188.836918
v 203.545082 0.1 192.93848
v 192.93848 0.1 203.545082
v 184.735918 0.1 195.34252
v 195.34252 0.1 184.735918
v 199.444082 0.1 188.83748
v 188.83748 0.1 199.444082
v 180.633918 0.1 191.24052
v 191.24052 0.1 180.633918
v 195.342082 0.1 184.73548
v 184.73548 0.1 195.342082
v 176.532918 0.1 187.13952
v 187.13952 0.1 176.532918
v 191.241082 0.1 180.63448
v 180.63448 0.1 191.241082
v 172.430918 0.1 183.03752
v 183.03752 0.1 172.430918
v 187.139082 0.1 176.53248
v 176.53248 0.1 187.139082
v 168.329918 0.1 178.93652
v 178.93652 0.1 168.329918
v 183.038082 0.1 172.43148
v 172.43148 0.1 183.038082
v 164.227918 0.1 174.83452
v 174.83452 0.1 164.227918
v 178.936082 0.1 168.32948
v 168.32948 0.1 178.936082
v 160.12591799999998 0.1 170.73252
v 170.73252 0.1 160.12591799999998
v 174.834082 0.1 164.22747999999999
v 164.22747999999999 0.1 174.834082
v 156.02491799999999 0.1 166.63152
v 166.63152 0.1 156.02491799999999
v 170.733082 0.1 160.12648
v 160.12648 0.1 170.733082
v 151.92291799999998 0.1 162.52952
v 162.52952 0.1 151.92291799999998
v 166.631082 0.1 156.02447999999998
v 156.02447999999998 0.1 166.631082
v 147.82191799999998 0.1 158.42852
v 158.42852 0.1 147.82191799999998
v 162.530082 0.1 151.92347999999998
v 151.92347999999998 0.1 162.530082
v 143.71191199999998 0.1 154.318514
v 154.318514 0.1 143.71191199999998
v 158.428088 0.1 147.821486
v 147.821486 0.1 158.428088
v 139.58897000000002 0.1 150.195571
v 150.195571 0.1 139.58897000000002
v 154.31903 0.1 143.71242900000001
v 143.71242900000001 0.1 154.31903
v 135.45462899999998 0.1 146.061231
v 146.061231 0.1 135.45462899999998
v 150.195371 0.1 139.58876899999998
v 139.58876899999998 0.1 150.195371
v 131.312891 0.1 141.91949200000002
v 141.91949200000002 0.1 131.312891
v 146.06110900000002 0.1 135.454508
v 135.454508 0.1 146.06110900000002
v 127.16675500000001 0.1 137.773356
v 137.773356 0.1 127.16675500000001
v 141.91924500000002 0.1 131.312644
v 131.312644 0.1 141.91924500000002
v 123.02022 0.1 133.626822
v 133.626822 0.1 123.02022
v 137.77378 0.1 127.16717799999999
v 127.16717799999999 0.1 137.77378
v 118.87528900000001 0.1 129.48189
v 129.48189 0.1 118.87528900000001
v 133.626711 0.1 123.02011
v 123.02011 0.1 133.626711
v 114.735959 0.1 125.34256099999999
v 125.34256099999999 0.1 114.735959
v 129.48204099999998 0.1 118.875439
v 118.875439 0.1 129.48204099999998
v 110.605231 0.1 121.211833
v 121.211833 0.1 110.605231
v 125.342769 0.1 114.73616700000001
v 114.73616700000001 0.1 125.342769
v 106.486106 0.1 117.092708
v 117.092708 0.1 106.486106
v 121.211894 0.1 110.605292
v 110.605292 0.1 121.211894
v 102.38158299999999 0.1 112.98818399999999
v 112.98818399999999 0.1 102.38158299999999
v 117.092417 0.1 106.485816
v 106.485816 0.1 117.092417
v 98.295662 0.1 108.90226299999999
v 108.90226299999999 0.1 98.295662
v 112.988338 0.1 102.381737
v 102.381737 0.1 112.988338
v 94.230343 0.1 104.836945
v 104.836945 0.1 94.230343
v 108.901657 0.1 98.295055
v 98.295055 0.1 108.901657
v 90.190426 0.1 100.797028
v 100.797028 0.1 90.190426
v 104.837174 0.1 94.230572000000009
v 94.230572000000009 0.1 104.837174
v 86.178112 0.1 96.784713
v 96.784713 0.1 86.178112
v 100.797088 0.1 90.190487
v 90.190487 0.1 100.797088
v 82.19669900000001 0.1 92.803301
v 92.803301 0.1 82.19669900000001
v 96.784701 0.1 86.178099
v 86.178099 0.1 96.784701
v 78.136279 0.1 88.742881000000011
v 88.742881000000011 0.1 78.136279
v 92.803321000000011 0.1 82.196719
v 82.196719 0.1 92.803321000000011
v 73.912368 0.1 84.51897000000001
v 84.51897000000001 0.1 73.912368
v 88.742832 0.1 78.13623
v 78.13623 0.1 88.742832
v 69.566786000000008 0.1 80.173387
v 80.173387 0.1 69.566786000000008
v 84.519014 0.1 73.912413
v 73.912413 0.1 84.519014
v 65.141031 0.1 75.747634
v 75.747634 0.1 65.141031
v 80.173369000000008 0.1 69.566766
v 69.566766 0.1 80.173369000000008
v 60.676804999999995 0.1 71.283407
v 71.283407 0.1 60.676804999999995
v 75.74759499999999 0.1 65.140993
v 65.140993 0.1 75.74759499999999
v 56.215906999999994 0.1 66.82251
v 66.82251 0.1 56.215906999999994
v 71.283492999999993 0.1 60.67689
v 60.67689 0.1 71.283492999999993
v 51.799738000000005 0.1 62.40634
v 62.40634 0.1 51.799738000000005
v 66.822462 0.1 56.215860000000006
v 56.215860000000006 0.1 66.822462
v 47.470096 0.1 58.076699000000005
v 58.076699000000005 0.1 47.470096
v 62.406304000000006 0.1 51.799701
v 51.799701 0.1 62.406304000000006
v 43.268684 0.1 53.875285
v 53.875285 0.1 43.268684
v 58.076716 0.1 47.470115
v 47.470115 0.1 58.076716
v 39.237099 0.1 49.8437
v 49.8437 0.1 39.237099
v 53.875300999999993 0.1 43.268699999999995
v 43.268699999999995 0.1 53.875300999999993
v 35.416942 0.1 46.023544
v 46.023544 0.1 35.416942
v 49.843658 0.1 39.237055999999995
v 39.237055999999995 0.1 49.843658
v 31.850012999999997 0.1 42.456616
v 42.456616 0.1 31.850012999999997
v 46.023587 0.1 35.416984
v 35.416984 0.1 46.023587
v 28.577814000000004 0.1 39.184415
v 39.184415 0.1 28.577814000000004
v 42.456586 0.1 31.849985000000004
v 31.849985000000004 0.1 42.456586
v 25.642142 0.1 36.248743
v 36.248743 0.1 25.642142
v 39.184458 0.1 28.577856999999998
v 28.577856999999998 0.1 39.184458
v 23.084498 0.1 33.6911
v 33.6911 0.1 23.084498
v 36.248702 0.1 25.6421
v 25.6421 0.1 36.248702
v 20.946683 0.1 31.553285
v 31.553285 0.1 20.946683
v 33.691117 0.1 23.084515
v 23.084515 0.1 33.691117
vn 0 1 0
f 4//1 3//1 2//1 1//1
f 8//2 7//2 6//2 5//2
f 12//3 11//3 10//3 9//3
f 16//4 15//4 14//4 13//4
f 20//5 19//5 18//5 17//5
f 24//6 23//6 22//6 21//6
f 28//7 27//7 26//7 25//7
f 32//8 31//8 30//8 29//8
f 36//9 35//9 34//9 33//9
f 40//10 39//10 38//10 37//10
f 44//11 43//11 42//11 41//11
f 48//12 47//12 46//12 45//12
f 52//13 51//13 50//13 49//13
f 56//14 55//14 54//14 53//14
f 60//15 59//15 58//15 57//15
f 64//16 63//16 62//16 61//16
f 68//17 67//17 66//17 65//17
f 72//18 71//18 70//18 69//18
f 76//19 75//19 74//19 73//19
f 80//20 79//20 78//20 77//20
f 84//21 83//21 82//21 81//21
f 88//22 87//22 86//22 85//22
f 92//23 91//23 90//23 89//23
f 96//24 95//24 94//24 93//24
f 100//25 99//25 98//25 97//25
f 104//26 103//26 102//26 101//26
f 108//27 107//27 106//27 105//27
f 112//28 111//28 110//28 109//28
f 116//29 115//29 114//29 113//29
f 120//30 119//30 118//30 117//30
f 124//31 123//31 122//31 121//31
f 128//32 127//32 126//32 125//32
f 132//33 131//33 130//33 129//33
f 136//34 135//34 134//34 133//34
f 140//35 139//35 138//35 137//35
f 144//36 143//36 142//36 141//36
f 148//37 147//37 146//37 145//37
f 152//38 151//38 150//38 149//38
f 156//39 155//39 154//39 153//39
f 160//40 159//40 158//40 157//40
f 164//41 163//41 162//41 161//41
f 168//42 167//42 166//42 165//42
f 172//43 171//43 170//43 169//43
f 176//44 175//44 174//44 173//44
f 180//45 179//45 178//45 177//45
f 184//46 183//46 182//46 181//46
f 188//47 187//47 186//47 185//47
f 192//48 191//48 190//48 189//48
f 196//49 195//49 194//49 193//49
f 200//50 199//50 198//50 197//50
f 204//51 203//51 202//51 201//51
f 208//52 207//52 206//52 205//52
f 212//53 211//53 210//53 209//53
f 216//54 215//54 214//54 213//54
f 220//55 219//55 218//55 217//55
f 224//56 223//56 222//56 221//56
f 228//57 227//57 226//57 225//57
f 232//58 231//58 230//58 229//58
f 236//59 235//59 234//59 233//59
f 240//60 239//60 238//60 237//60
f 244//61 243//61 242//61 241//61
f 248//62 247//62 246//62 245//62
f 252//63 251//63 250//63 249//63
f 256//64 255//64 254//64 253//64
f 260//65 259//65 258//65 257//65
f 264//66 263//66 262//66 261//66
f 268//67 267//67 266//67 265//67
f 272//68 271//68 270//68 269//68
f 276//69 275//69 274//69 273//69
f 280//70 279//70 278//70 277//70
f 284//71 283//71 282//71 281//71
f 288//72 287//72 286//72 285//72
f 292//73 291//73 290//73 289//73
f 296//74 295//74 294//74 293//74
f 300//75 299//75 298//75 297//75
f 304//76 303//76 302//76 301//76
f 308//77 307//77 306//77 305//77
f 312//78 311//78 310//78 309//78
f 316//79 315//79 314//79 313//79
f 320//80 319//80 318//80 317//80
