# Merged route mesh - Route_North_Merged
o Route_North_Merged
v 7.5 0.1 -348.890248
v -7.5 0.1 -348.890248
v -7.5 0.1 -349.999752
v 7.5 0.1 -349.999752
v 7.5 0.1 -347.61780400000004
v -7.5 0.1 -347.61780400000004
v -7.5 0.1 -348.890196
v 7.5 0.1 -348.890196
v 7.5 0.1 -346.19136599999996
v -7.5 0.1 -346.19136599999996
v -7.5 0.1 -347.618634
v 7.5 0.1 -347.618634
v 7.5 0.1 -344.616933
v -7.5 0.1 -344.616933
v -7.5 0.1 -346.191067
v 7.5 0.1 -346.191067
v 7.5 0.1 -342.903505
v -7.5 0.1 -342.903505
v -7.5 0.1 -344.616495
v 7.5 0.1 -344.616495
v 7.5 0.1 -341.060083
v -7.5 0.1 -341.060083
v -7.5 0.1 -342.90391700000004
v 7.5 0.1 -342.90391700000004
v 7.5 0.1 -339.093666
v -7.5 0.1 -339.093666
v -7.5 0.1 -341.060334
v 7.5 0.1 -341.060334
v 7.5 0.1 -337.011255
v -7.5 0.1 -337.011255
v -7.5 0.1 -339.09274500000004
v 7.5 0.1 -339.09274500000004
v 7.5 0.1 -334.823849
v -7.5 0.1 -334.823849
v -7.5 0.1 -337.012151
v 7.5 0.1 -337.012151
v 7.5 0.1 -332.536449
v -7.5 0.1 -332.536449
v -7.5 0.1 -334.823551
v 7.5 0.1 -334.823551
v 7.5 0.1 -330.158054
v -7.5 0.1 -330.158054
v -7.5 0.1 -332.53594599999997
v 7.5 0.1 -332.53594599999997
v 7.5 0.1 -327.697665
v -7.5 0.1 -327.697665
v -7.5 0.1 -330.158335
v 7.5 0.1 -330.158335
v 7.5 0.1 -325.162281
v -7.5 0.1 -325.162281
v -7.5 0.1 -327.697719
v 7.5 0.1 -327.697719
v 7.5 0.1 -322.55990199999997
v -7.5 0.1 -322.55990199999997
v -7.5 0.1 -325.162098
v 7.5 0.1 -325.162098
v 7.5 0.1 -319.89952900000003
v -7.5 0.1 -319.89952900000003
v -7.5 0.1 -322.560471
v 7.5 0.1 -322.560471
v 7.5 0.1 -317.187161
v -7.5 0.1 -317.187161
v -7.5 0.1 -319.898839
v 7.5 0.1 -319.898839
v 7.5 0.1 -314.43046400000003
v -7.5 0.1 -314.43046400000003
v -7.5 0.1 -317.187536
v 7.5 0.1 -317.187536
v 7.5 0.1 -311.622096
v -7.5 0.1 -311.622096
v -7.5 0.1 -314.429904
v 7.5 0.1 -314.429904
v 7.5 0.1 -308.75572300000005
v -7.5 0.1 -308.75572300000005
v -7.5 0.1 -311.622277
v 7.5 0.1 -311.622277
v 7.5 0.1 -305.822344
v -7.5 0.1 -305.822344
v -7.5 0.1 -308.755656
v 7.5 0.1 -308.755656
v 7.5 0.1 -302.81496000000004
v -7.5 0.1 -302.81496000000004
v -7.5 0.1 -305.82304
v 7.5 0.1 -305.82304
v 7.5 0.1 -299.723571
v -7.5 0.1 -299.723571
v -7.5 0.1 -302.814429
v 7.5 0.1 -302.814429
v 7.5 0.1 -296.542176
v -7.5 0.1 -296.542176
v -7.5 0.1 -299.723824
v 7.5 0.1 -299.723824
v 7.5 0.1 -293.261776
v -7.5 0.1 -293.261776
v -7.5 0.1 -296.542224
v 7.5 0.1 -296.542224
v 7.5 0.1 -289.87437
v -7.5 0.1 -289.87437
v -7.5 0.1 -293.26162999999997
v 7.5 0.1 -293.26162999999997
v 7.5 0.1 -286.371959
v -7.5 0.1 -286.371959
v -7.5 0.1 -289.874041
v 7.5 0.1 -289.874041
v 7.5 0.1 -282.747542
v -7.5 0.1 -282.747542
v -7.5 0.1 -286.372458
v 7.5 0.1 -286.372458
v 7.5 0.1 -278.99212
v -7.5 0.1 -278.99212
v -7.5 0.1 -282.74788
v 7.5 0.1 -282.74788
v 7.5 0.1 -275.09669199999996
v -7.5 0.1 -275.09669199999996
v -7.5 0.1 -278.991308
v 7.5 0.1 -278.991308
v 7.5 0.1 -271.05525900000004
v -7.5 0.1 -271.05525900000004
v -7.5 0.1 -275.096741
v 7.5 0.1 -275.096741
v 7.5 0.1 -266.858821
v -7.5 0.1 -266.858821
v -7.5 0.1 -271.055179
v 7.5 0.1 -271.055179
v 7.5 0.1 -262.500377
v -7.5 0.1 -262.500377
v -7.5 0.1 -266.859623
v 7.5 0.1 -266.859623
v 7.5 0.1 -257.91222300000004
v -7.5 0.1 -257.91222300000004
v -7.5 0.1 -262.499777
v 7.5 0.1 -262.499777
v 7.5 0.1 -253.05770800000002
v -7.5 0.1 -253.05770800000002
v -7.5 0.1 -257.91229200000004
v 7.5 0.1 -257.91229200000004
v 7.5 0.1 -247.96821500000001
v -7.5 0.1 -247.96821500000001
v -7.5 0.1 -253.057785
v 7.5 0.1 -253.057785
v 7.5 0.1 -242.675745
v -7.5 0.1 -242.675745
v -7.5 0.1 -247.968255
v 7.5 0.1 -247.968255
v 7.5 0.1 -237.21229499999998
v -7.5 0.1 -237.21229499999998
v -7.5 0.1 -242.675705
v 7.5 0.1 -242.675705
v 7.5 0.1 -231.609868
v -7.5 0.1 -231.609868
v -7.5 0.1 -237.212132
v 7.5 0.1 -237.212132
v 7.5 0.1 -225.901462
v -7.5 0.1 -225.901462
v -7.5 0.1 -231.610538
v 7.5 0.1 -231.610538
v 7.5 0.1 -220.117078
v -7.5 0.1 -220.117078
v -7.5 0.1 -225.90092199999998
v 7.5 0.1 -225.90092199999998
v 7.5 0.1 -214.290716
v -7.5 0.1 -214.290716
v -7.5 0.1 -220.117284
v 7.5 0.1 -220.117284
v 7.5 0.1 -208.45337500000002
v -7.5 0.1 -208.45337500000002
v -7.5 0.1 -214.290625
v 7.5 0.1 -214.290625
v 7.5 0.1 -202.637056
v -7.5 0.1 -202.637056
v -7.5 0.1 -208.45294399999997
v 7.5 0.1 -208.45294399999997
v 7.5 0.1 -196.874759
v -7.5 0.1 -196.874759
v -7.5 0.1 -202.637241
v 7.5 0.1 -202.637241
v 7.5 0.1 -191.197484
v -7.5 0.1 -191.197484
v -7.5 0.1 -196.874516
v 7.5 0.1 -196.874516
v 7.5 0.1 -185.63823
v -7.5 0.1 -185.63823
v -7.5 0.1 -191.19777000000002
v 7.5 0.1 -191.19777000000002
v 7.5 0.1 -180.22799799999999
v -7.5 0.1 -180.22799799999999
v -7.5 0.1 -185.638002
v 7.5 0.1 -185.638002
v 7.5 0.1 -174.999788
v -7.5 0.1 -174.999788
v -7.5 0.1 -180.228212
v 7.5 0.1 -180.228212
v 7.5 0.1 -169.882196
v -7.5 0.1 -169.882196
v -7.5 0.1 -174.999804
v 7.5 0.1 -174.999804
v 7.5 0.1 -164.787145
v -7.5 0.1 -164.787145
v -7.5 0.1 -169.882855
v 7.5 0.1 -169.882855
v 7.5 0.1 -159.717496
v -7.5 0.1 -159.717496
v -7.5 0.1 -164.786504
v 7.5 0.1 -164.786504
v 7.5 0.1 -154.680251
v -7.5 0.1 -154.680251
v -7.5 0.1 -159.71774900000003
v 7.5 0.1 -159.71774900000003
v 7.5 0.1 -149.67940900000002
v -7.5 0.1 -149.67940900000002
v -7.5 0.1 -154.680591
v 7.5 0.1 -154.680591
v 7.5 0.1 -144.71897
v -7.5 0.1 -144.71897
v -7.5 0.1 -149.67903
v 7.5 0.1 -149.67903
v 7.5 0.1 -139.804934
v -7.5 0.1 -139.804934
v -7.5 0.1 -144.719066
v 7.5 0.1 -144.719066
v 7.5 0.1 -134.94130199999998
v -7.5 0.1 -134.94130199999998
v -7.5 0.1 -139.804698
v 7.5 0.1 -139.804698
v 7.5 0.1 -130.134073
v -7.5 0.1 -130.134073
v -7.5 0.1 -134.94192700000002
v 7.5 0.1 -134.94192700000002
v 7.5 0.1 -125.38624700000001
v -7.5 0.1 -125.38624700000001
v -7.5 0.1 -130.133753
v 7.5 0.1 -130.133753
v 7.5 0.1 -120.703825
v -7.5 0.1 -120.703825
v -7.5 0.1 -125.38617500000001
v 7.5 0.1 -125.38617500000001
v 7.5 0.1 -116.090806
v -7.5 0.1 -116.090806
v -7.5 0.1 -120.70319400000001
v 7.5 0.1 -120.70319400000001
v 7.5 0.1 -111.55418999999999
v -7.5 0.1 -111.55418999999999
v -7.5 0.1 -116.09181
v 7.5 0.1 -116.09181
v 7.5 0.1 -107.095977
v -7.5 0.1 -107.095977
v -7.5 0.1 -111.554023
v 7.5 0.1 -111.554023
v 7.5 0.1 -102.72216800000001
v -7.5 0.1 -102.72216800000001
v -7.5 0.1 -107.095832
v 7.5 0.1 -107.095832
v 7.5 0.1 -98.437761
v -7.5 0.1 -98.437761
v -7.5 0.1 -102.722239
v 7.5 0.1 -102.722239
v 7.5 0.1 -94.157298
v -7.5 0.1 -94.157298
v -7.5 0.1 -98.437502
v 7.5 0.1 -98.437502
v 7.5 0.1 -89.813521
v -7.5 0.1 -89.813521
v -7.5 0.1 -94.157279
v 7.5 0.1 -94.157279
v 7.5 0.1 -85.436665
v -7.5 0.1 -85.436665
v -7.5 0.1 -89.813535
v 7.5 0.1 -89.813535
v 7.5 0.1 -81.05713
v -7.5 0.1 -81.05713
v -7.5 0.1 -85.436669999999992
v 7.5 0.1 -85.436669999999992
v 7.5 0.1 -76.70531600000001
v -7.5 0.1 -76.70531600000001
v -7.5 0.1 -81.057084
v 7.5 0.1 -81.057084
v 7.5 0.1 -72.411822
v -7.5 0.1 -72.411822
v -7.5 0.1 -76.705378
v 7.5 0.1 -76.705378
v 7.5 0.1 -68.206949
v -7.5 0.1 -68.206949
v -7.5 0.1 -72.411851
v 7.5 0.1 -72.411851
v 7.5 0.1 -64.121096
v -7.5 0.1 -64.121096
v -7.5 0.1 -68.206904000000009
v 7.5 0.1 -68.206904000000009
v 7.5 0.1 -60.184864
v -7.5 0.1 -60.184864
v -7.5 0.1 -64.121135999999993
v 7.5 0.1 -64.121135999999993
v 7.5 0.1 -52.882661999999996
v -7.5 0.1 -52.882661999999996
v -7.5 0.1 -56.428538
v 7.5 0.1 -56.428538
v 7.5 0.1 -49.577592
v -7.5 0.1 -49.577592
v -7.5 0.1 -52.882608
v 7.5 0.1 -52.882608
v 7.5 0.1 -46.543943
v -7.5 0.1 -46.543943
v -7.5 0.1 -49.577657
v 7.5 0.1 -49.577657
v 7.5 0.1 -43.811914
v -7.5 0.1 -43.811914
v -7.5 0.1 -46.543886
v 7.5 0.1 -46.543886
v 7.5 0.1 -41.412206
v -7.5 0.1 -41.412206
v -7.5 0.1 -43.811994
v 7.5 0.1 -43.811994
v 7.5 0.1 -39.375019
v -7.5 0.1 -39.375019
v -7.5 0.1 -41.412181
v 7.5 0.1 -41.412181
vn 0 1 0
f 4//1 3//1 2//1 1//1
f 8//2 7//2 6//2 5//2
f 12//3 11//3 10//3 9//3
f 16//4 15//4 14//4 13//4
f 20//5 19//5 18//5 17//5
f 24//6 23//6 22//6 21//6
f 28//7 27//7 26//7 25//7
f 32//8 31//8 30//8 29//8
f 36//9 35//9 34//9 33//9
f 40//10 39//10 38//10 37//10
f 44//11 43//11 42//11 41//11
f 48//12 47//12 46//12 45//12
f 52//13 51//13 50//13 49//13
f 56//14 55//14 54//14 53//14
f 60//15 59//15 58//15 57//15
f 64//16 63//16 62//16 61//16
f 68//17 67//17 66//17 65//17
f 72//18 71//18 70//18 69//18
f 76//19 75//19 74//19 73//19
f 80//20 79//20 78//20 77//20
f 84//21 83//21 82//21 81//21
f 88//22 87//22 86//22 85//22
f 92//23 91//23 90//23 89//23
f 96//24 95//24 94//24 93//24
f 100//25 99//25 98//25 97//25
f 104//26 103//26 102//26 101//26
f 108//27 107//27 106//27 105//27
f 112//28 111//28 110//28 109//28
f 116//29 115//29 114//29 113//29
f 120//30 119//30 118//30 117//30
f 124//31 123//31 122//31 121//31
f 128//32 127//32 126//32 125//32
f 132//33 131//33 130//33 129//33
f 136//34 135//34 134//34 133//34
f 140//35 139//35 138//35 137//35
f 144//36 143//36 142//36 141//36
f 148//37 147//37 146//37 145//37
f 152//38 151//38 150//38 149//38
f 156//39 155//39 154//39 153//39
f 160//40 159//40 158//40 157//40
f 164//41 163//41 162//41 161//41
f 168//42 167//42 166//42 165//42
f 172//43 171//43 170//43 169//43
f 176//44 175//44 174//44 173//44
f 180//45 179//45 178//45 177//45
f 184//46 183//46 182//46 181//46
f 188//47 187//47 186//47 185//47
f 192//48 191//48 190//48 189//48
f 196//49 195//49 194//49 193//49
f 200//50 199//50 198//50 197//50
f 204//51 203//51 202//51 201//51
f 208//52 207//52 206//52 205//52
f 212//53 211//53 210//53 209//53
f 216//54 215//54 214//54 213//54
f 220//55 219//55 218//55 217//55
f 224//56 223//56 222//56 221//56
f 228//57 227//57 226//57 225//57
f 232//58 231//58 230//58 229//58
f 236//59 235//59 234//59 233//59
f 240//60 239//60 238//60 237//60
f 244//61 243//61 242//61 241//61
f 248//62 247//62 246//62 245//62
f 252//63 251//63 250//63 249//63
f 256//64 255//64 254//64 253//64
f 260//65 259//65 258//65 257//65
f 264//66 263//66 262//66 261//66
f 268//67 267//67 266//67 265//67
f 272//68 271//68 270//68 269//68
f 276//69 275//69 274//69 273//69
f 280//70 279//70 278//70 277//70
f 284//71 283//71 282//71 281//71
f 288//72 287//72 286//72 285//72
f 292//73 291//73 290//73 289//73
f 296//74 295//74 294//74 293//74
f 300//75 299//75 298//75 297//75
f 304//76 303//76 302//76 301//76
f 308//77 307//77 306//77 305//77
f 312//78 311//78 310//78 309//78
f 316//79 315//79 314//79 313//79
