# Merged route mesh - Route_NorthEast_Merged
o Route_NorthEast_Merged
v 351.763761 0.1 -342.1828
v 343.51704 0.1 -354.712428
v 345.876239 0.1 -356.2652
v 354.12296 0.1 -343.735572
v 348.791444 0.1 -340.25622400000003
v 340.634585 0.1 -352.844536
v 343.56255600000003 0.1 -354.741776
v 351.719415 0.1 -342.15346400000004
v 345.343484 0.1 -338.039415
v 337.231872 0.1 -350.656932
v 340.656516 0.1 -352.858585
v 348.768128 0.1 -340.24106800000004
v 341.485213 0.1 -335.566829
v 333.39356599999996 0.1 -348.19716
v 337.24278699999996 0.1 -350.66317100000003
v 345.334434 0.1 -338.03284
v 337.281363 0.1 -332.87564499999996
v 329.192939 0.1 -345.508039
v 333.39463700000005 0.1 -348.198355
v 341.483061 0.1 -335.56596099999996
v 332.80389199999996 0.1 -330.004545
v 324.70603 0.1 -342.63089
v 329.188108 0.1 -345.505455
v 337.28596999999996 0.1 -332.87910999999997
v 328.12385800000004 0.1 -326.99194
v 320.005781 0.1 -339.605299
v 324.696142 0.1 -342.62406
v 332.81421900000004 0.1 -330.010701
v 323.312967 0.1 -323.87867900000003
v 315.164487 0.1 -336.472419
v 319.99103299999996 0.1 -339.595321
v 328.13951299999997 0.1 -327.00158100000004
v 318.44239 0.1 -320.704924
v 310.252978 0.1 -333.272087
v 315.14361 0.1 -336.459076
v 323.333022 0.1 -323.891913
v 313.585711 0.1 -317.51113599999996
v 305.343667 0.1 -330.043842
v 310.226289 0.1 -333.254864
v 318.46833300000003 0.1 -320.722158
v 308.81698400000005 0.1 -314.33812
v 300.508503 0.1 -326.82688
v 305.311016 0.1 -330.02188
v 313.619497 0.1 -317.53312
v 304.207862 0.1 -311.227153
v 295.815831 0.1 -323.659924
v 300.466138 0.1 -326.79884699999997
v 308.858169 0.1 -314.36607599999996
v 299.834886 0.1 -308.220234
v 291.337112 0.1 -320.58097200000003
v 295.763114 0.1 -323.62376600000005
v 304.26088799999997 0.1 -311.263028
v 295.77299 0.1 -305.361562
v 287.13941 0.1 -317.62782899999996
v 291.26901000000004 0.1 -320.53443799999997
v 299.90259000000003 0.1 -308.268171
v 292.10148300000003 0.1 -302.694477
v 283.289416 0.1 -314.83315300000004
v 287.050517 0.1 -317.56352300000003
v 295.862584 0.1 -305.424847
v 288.902014 0.1 -300.270508
v 279.847482 0.1 -312.229415
v 283.16798600000004 0.1 -314.743492
v 292.22251800000004 0.1 -302.784585
v 286.135045 0.1 -298.047352
v 276.750979 0.1 -309.749459
v 279.682955 0.1 -312.10064800000004
v 289.067021 0.1 -300.398541
v 283.646502 0.1 -295.919618
v 273.910551 0.1 -307.330632
v 276.575498 0.1 -309.604382
v 286.311449 0.1 -298.193368
v 281.387137 0.1 -293.86590600000005
v 271.308901 0.1 -304.975772
v 273.738863 0.1 -307.180094
v 283.817099 0.1 -296.07022800000004
v 279.321748 0.1 -291.87316699999997
v 268.92123200000003 0.1 -302.681927
v 271.148252 0.1 -304.824833
v 281.548768 0.1 -294.016073
v 277.410767 0.1 -289.927819
v 266.719112 0.1 -300.448681
v 268.775233 0.1 -302.538181
v 279.46688800000004 0.1 -292.017319
v 275.61767 0.1 -288.013081
v 264.677063 0.1 -298.274813
v 266.59433 0.1 -300.318919
v 277.534937 0.1 -290.057187
v 273.905395 0.1 -286.113652
v 262.76815 0.1 -296.161626
v 264.57860500000004 0.1 -298.16834800000004
v 275.71585000000005 0.1 -288.120374
v 272.237695 0.1 -284.212655
v 260.964618 0.1 -294.107996
v 262.700305 0.1 -296.085345
v 273.973382 0.1 -286.190004
v 270.579378 0.1 -282.29571300000003
v 259.237659 0.1 -292.112301
v 260.93062199999997 0.1 -294.068287
v 272.272341 0.1 -284.25169900000003
v 268.895455 0.1 -280.351929
v 257.556263 0.1 -290.171437
v 259.238545 0.1 -292.114071
v 270.577737 0.1 -282.294563
v 267.155223 0.1 -278.371569
v 255.891133 0.1 -288.277137
v 257.594777 0.1 -290.214431
v 268.858867 0.1 -280.30886300000003
v 265.324364 0.1 -276.349264
v 254.20658600000002 0.1 -286.418772
v 255.963636 0.1 -288.35873599999996
v 267.081414 0.1 -278.289228
v 263.375039 0.1 -274.28367199999997
v 252.470462 0.1 -284.583683
v 254.312961 0.1 -286.534328
v 265.217538 0.1 -276.234317
v 261.278904 0.1 -272.173659
v 250.64710399999998 0.1 -282.755003
v 252.60709599999998 0.1 -284.72434100000004
v 263.238896 0.1 -274.14299700000004
v 259.007973 0.1 -270.020165
v 248.6985 0.1 -280.915795
v 250.80802699999998 0.1 -282.911835
v 261.1175 0.1 -272.016205
v 256.537253 0.1 -267.825021
v 246.58764 0.1 -279.05022499999995
v 248.878747 0.1 -281.08097899999996
v 258.82836 0.1 -269.855775
v 253.83291200000002 0.1 -265.622113
v 244.383093 0.1 -277.271187
v 246.837088 0.1 -279.261887
v 256.286907 0.1 -267.612813
v 250.984375 0.1 -263.517985
v 242.09947799999998 0.1 -275.603456
v 244.66562499999998 0.1 -277.490015
v 253.550522 0.1 -265.40454400000004
v 248.09097000000003 0.1 -261.547603
v 239.668753 0.1 -273.959947
v 242.33103 0.1 -275.766397
v 250.75324700000002 0.1 -263.35405299999996
v 245.172933 0.1 -259.68180800000005
v 237.102681 0.1 -272.325818
v 239.84506699999997 0.1 -274.076192
v 247.91531899999998 0.1 -261.432182
v 242.24705300000002 0.1 -257.888533
v 234.414474 0.1 -270.681137
v 237.220947 0.1 -272.399467
v 245.053526 0.1 -259.60686300000003
v 239.331466 0.1 -256.141255
v 231.621996 0.1 -269.008426
v 234.476534 0.1 -270.718745
v 242.186004 0.1 -257.851574
v 236.43922899999998 0.1 -254.41212299999998
v 228.74018999999998 0.1 -267.285536
v 231.626771 0.1 -269.01187699999997
v 239.32581 0.1 -256.138464
v 233.586646 0.1 -252.67491499999997
v 225.78875100000002 0.1 -265.48868899999997
v 228.69135400000002 0.1 -267.25508499999995
v 236.489249 0.1 -254.44131099999998
v 230.785363 0.1 -250.90788899999998
v 222.784034 0.1 -263.595629
v 225.686637 0.1 -265.426111
v 233.687966 0.1 -252.73837099999997
v 228.05029000000002 0.1 -249.08654999999996
v 219.747129 0.1 -261.578848
v 222.63371 0.1 -263.49744999999996
v 230.93687100000002 0.1 -251.00515199999998
v 225.391382 0.1 -247.191328
v 216.69608 0.1 -259.413918
v 219.55061800000001 0.1 -261.444672
v 228.24592 0.1 -249.222082
v 222.821369 0.1 -245.199155
v 213.654158 0.1 -257.071907
v 216.46063099999998 0.1 -259.23884499999997
v 225.627842 0.1 -247.366093
v 220.347482 0.1 -243.089895
v 210.642133 0.1 -254.526949
v 213.384518 0.1 -256.854105
v 223.08986700000003 0.1 -245.41705100000001
v 217.979323 0.1 -240.840664
v 207.686399 0.1 -251.75193
v 210.34867699999998 0.1 -254.26333599999998
v 220.64160099999998 0.1 -243.35207
v 215.72197500000001 0.1 -238.43007500000002
v 204.811878 0.1 -248.72423700000002
v 207.378025 0.1 -251.443925
v 218.28812200000002 0.1 -241.149763
v 213.580431 0.1 -235.830547
v 202.045574 0.1 -245.41945
v 204.49956899999998 0.1 -248.371453
v 216.034426 0.1 -238.78255
v 211.631888 0.1 -232.992681
v 199.33095 0.1 -241.57678900000002
v 201.66211199999998 0.1 -244.91731900000002
v 213.96304999999998 0.1 -236.333211
v 209.745932 0.1 -229.69879500000002
v 196.77905800000002 0.1 -237.239363
v 198.99806800000002 0.1 -241.055205
v 211.964942 0.1 -233.51463700000002
v 207.83668699999998 0.1 -225.881311
v 194.442434 0.1 -232.633645
v 196.565313 0.1 -236.844689
v 209.959566 0.1 -230.092355
v 205.932626 0.1 -221.646651
v 192.260604 0.1 -227.81721000000002
v 194.303374 0.1 -232.34334900000002
v 207.975396 0.1 -226.17279
v 204.043376 0.1 -217.092168
v 190.19194099999999 0.1 -222.84870899999999
v 192.170624 0.1 -227.609832
v 206.022059 0.1 -221.853291
v 202.16864999999999 0.1 -212.312428
v 188.206732 0.1 -217.795571
v 190.13735 0.1 -222.711572
v 204.099268 0.1 -217.228429
v 200.298617 0.1 -207.396926
v 186.278808 0.1 -212.730305
v 188.177383 0.1 -217.721074
v 202.197192 0.1 -212.387695
v 198.42315100000002 0.1 -202.428805
v 184.390296 0.1 -207.727767
v 186.272849 0.1 -212.71319499999998
v 200.30570400000002 0.1 -207.414233
v 196.524798 0.1 -197.488225
v 182.522649 0.1 -202.867797
v 184.405202 0.1 -207.76777499999997
v 198.407351 0.1 -202.38820299999998
v 194.585848 0.1 -192.65226900000002
v 180.663577 0.1 -198.235311
v 182.56215200000003 0.1 -202.969731
v 196.48442300000002 0.1 -197.38668900000002
v 192.584457 0.1 -187.991327
v 178.804925 0.1 -193.917919
v 180.735543 0.1 -198.406673
v 194.515075 0.1 -192.480081
v 190.48944 0.1 -183.5729
v 176.941877 0.1 -190.01211999999998
v 178.92056000000002 0.1 -194.1751
v 192.46812300000002 0.1 -187.73588
v 188.26165799999998 0.1 -179.45192300000002
v 175.08357199999998 0.1 -186.616981
v 177.126342 0.1 -190.374077
v 190.304428 0.1 -183.209019
v 185.84181999999998 0.1 -175.68055
v 173.259301 0.1 -183.846347
v 175.38218 0.1 -187.11745
v 187.964699 0.1 -178.951653
v 183.130049 0.1 -172.301738
v 171.532942 0.1 -181.81526
v 173.751951 0.1 -184.520262
v 185.349058 0.1 -175.00674
v 179.965137 0.1 -169.378076
v 170.035702 0.1 -180.621132
v 172.366863 0.1 -182.679924
v 182.296298 0.1 -171.436868
v 176.097035 0.1 -167.074368
v 168.99497 0.1 -180.28651
v 171.448965 0.1 -181.605632
v 178.55103 0.1 -168.39349
v 171.696875 0.1 -165.77642899999998
v 168.262979 0.1 -180.378085
v 170.829125 0.1 -180.981571
v 174.263021 0.1 -166.37991499999998
v 167.272727 0.1 -165.59314700000002
v 167.362996 0.1 -180.59287500000002
v 170.025273 0.1 -180.576853
v 169.935004 0.1 -165.577125
v 163.127369 0.1 -166.273697
v 166.022245 0.1 -180.991702
v 168.764631 0.1 -180.452303
v 165.869755 0.1 -165.734298
v 159.326329 0.1 -167.50816500000002
v 164.211198 0.1 -181.690479
v 167.017671 0.1 -180.723835
v 162.132802 0.1 -166.54152100000002
v 155.810728 0.1 -169.06935
v 162.01873400000002 0.1 -182.72440999999998
v 164.87327200000001 0.1 -181.42665
v 158.665266 0.1 -167.77159
v 152.51039 0.1 -170.806291
v 159.545029 0.1 -184.054454
v 162.43161 0.1 -182.521709
v 155.396971 0.1 -169.27354599999998
v 149.38178499999998 0.1 -172.602524
v 156.86761199999998 0.1 -185.601077
v 159.770215 0.1 -183.929476
v 152.284388 0.1 -170.93092299999998
v 146.40863000000002 0.1 -174.358386
v 154.036767 0.1 -187.273939
v 156.93937 0.1 -185.559614
v 149.31123300000002 0.1 -172.644061
v 143.595256 0.1 -175.975767
v 151.076163 0.1 -188.977152
v 153.962744 0.1 -187.31623299999998
v 146.48183699999998 0.1 -174.31484799999998
v 140.971288 0.1 -177.359433
v 147.990174 0.1 -190.61595
v 150.844712 0.1 -189.104567
v 143.82582599999998 0.1 -175.84805
v 138.59135 0.1 -178.41700500000002
v 144.75817800000002 0.1 -192.090711
v 147.56465 0.1 -190.824995
v 141.397822 0.1 -177.15128900000002
v 136.538273 0.1 -179.07048500000002
v 141.327341 0.1 -193.285435
v 144.069727 0.1 -192.361515
v 139.280659 0.1 -178.146565
v 134.923011 0.1 -179.285921
v 137.616712 0.1 -194.042071
v 140.278989 0.1 -193.55607899999998
v 137.585288 0.1 -178.799929
v 133.844381 0.1 -179.117283
v 133.563473 0.1 -194.11465199999998
v 136.129619 0.1 -194.162717
v 136.410527 0.1 -179.165348
v 133.247999 0.1 -178.708903
v 129.252006 0.1 -193.166844
v 131.70600100000001 0.1 -193.84509699999998
v 135.701994 0.1 -179.38715599999998
v 132.16508 0.1 -178.012959
v 125.471623 0.1 -191.43673099999998
v 127.90292 0.1 -192.64904099999998
v 134.596377 0.1 -179.225269
v 130.313167 0.1 -176.808467
v 122.338119 0.1 -189.512744
v 124.830833 0.1 -191.07753300000002
v 132.805881 0.1 -178.37325600000003
v 128.277141 0.1 -175.261327
v 119.314761 0.1 -187.28945
v 121.84485900000001 0.1 -189.17467299999998
v 130.807239 0.1 -177.14655
v 126.124825 0.1 -173.399591
v 116.379726 0.1 -184.80279399999998
v 118.923175 0.1 -186.976409
v 128.668274 0.1 -175.573206
v 123.911941 0.1 -171.260018
v 113.52729000000001 0.1 -182.08402
v 116.06005900000001 0.1 -184.513982
v 126.44471 0.1 -173.68998
v 121.683554 0.1 -168.87671699999999
v 110.76039200000001 0.1 -179.157016
v 113.258446 0.1 -181.811283
v 124.181608 0.1 -171.530984
v 119.477336 0.1 -166.290461
v 108.087356 0.1 -176.051012
v 110.526664 0.1 -178.897539
v 121.91664399999999 0.1 -169.136988
v 117.328758 0.1 -163.537147
v 105.522713 0.1 -172.790109
v 107.879242 0.1 -175.796853
v 119.685287 0.1 -166.543891
v 115.26948300000001 0.1 -160.656763
v 103.08279900000001 0.1 -169.402318
v 105.332517 0.1 -172.537237
v 117.519201 0.1 -163.791682
v 113.32925900000001 0.1 -157.685591
v 100.78586700000001 0.1 -165.911361
v 102.904741 0.1 -169.142409
v 115.448133 0.1 -160.91663899999998
v 111.53545700000001 0.1 -154.662541
v 98.650546 0.1 -162.34232400000002
v 100.614543 0.1 -165.637459
v 113.499454 0.1 -157.957676
v 109.917346 0.1 -151.629629
v 96.69956599999999 0.1 -158.721192
v 98.484653999999992 0.1 -162.048371
v 111.702434 0.1 -154.956808
v 108.499138 0.1 -148.627602
v 94.952716 0.1 -155.06922
v 96.53486199999999 0.1 -158.396398
v 110.081284 0.1 -151.95478
v 107.30672200000001 0.1 -145.700777
v 93.434106 0.1 -151.40608699999999
v 94.789278 0.1 -154.701223
v 108.661894 0.1 -148.995913
v 106.363651 0.1 -142.897167
v 92.169585000000012 0.1 -147.747784
v 93.273749000000009 0.1 -150.97883299999998
v 107.467815 0.1 -146.12821599999998
v 105.68823099999999 0.1 -140.269874
v 91.186844 0.1 -144.105207
v 92.015969 0.1 -147.240126
v 106.51735599999999 0.1 -143.40479299999998
v 105.42931100000001 0.1 -137.986243
v 90.569762000000011 0.1 -140.034114
v 91.007689 0.1 -143.21175699999998
v 105.867238 0.1 -141.163886
v 105.510202 0.1 -135.674236
v 90.510279000000011 0.1 -135.626542
v 90.499598 0.1 -138.98576400000002
v 105.499521 0.1 -139.03345800000002
v 105.85837599999999 0.1 -132.98106199999998
v 90.952626999999993 0.1 -131.30218
v 90.557424 0.1 -134.810938
v 105.463173 0.1 -136.48981999999998
v 106.479201 0.1 -129.967985
v 91.763036 0.1 -127.063764
v 91.047399 0.1 -130.69001500000002
v 105.763564 0.1 -133.594236
v 107.348445 0.1 -126.70411299999999
v 92.837739 0.1 -122.904187
v 91.865755000000007 0.1 -126.615887
v 106.376461 0.1 -130.41581299999999
v 108.422382 0.1 -123.25408700000001
v 94.091864 0.1 -118.82280700000001
v 92.927618 0.1 -122.587913
v 107.258136 0.1 -127.019193
v 109.64813199999999 0.1 -119.67547
v 95.452287 0.1 -114.830062
v 94.159868 0.1 -118.61653
v 108.355713 0.1 -123.461938
v 110.96456099999999 0.1 -116.012906
v 96.847945 0.1 -110.941307
v 95.491439 0.1 -114.71709399999999
v 109.608055 0.1 -119.788693
v 112.312293 0.1 -112.304922
v 98.214213 0.1 -107.182015
v 96.857706999999991 0.1 -110.915078
v 110.95578699999999 0.1 -116.03798499999999
v 113.62687500000001 0.1 -108.583163
v 99.483545 0.1 -103.58654200000001
v 98.191125 0.1 -107.244837
v 112.334455 0.1 -112.241458
v 114.845949 0.1 -104.870571
v 100.592297 0.1 -100.197946
v 99.428051 0.1 -103.749429
v 113.681703 0.1 -108.422054
v 115.904124 0.1 -101.17513
v 101.477861 0.1 -97.066242
v 100.505876 0.1 -100.47887
v 114.93213899999999 0.1 -104.587758
v 116.730485 0.1 -97.496092
v 102.08315200000001 0.1 -94.262578
v 101.36751500000001 0.1 -97.504308000000009
v 116.014848 0.1 -100.73782200000001
v 117.239968 0.1 -93.807856
v 102.365234 0.1 -91.873356
v 101.970032 0.1 -94.912144
v 116.844766 0.1 -96.846644
v 117.313287 0.1 -90.06537
v 102.313394 0.1 -90.008228
v 102.30271300000001 0.1 -92.81203
v 117.30260600000001 0.1 -92.869171999999992
v 116.76571799999999 0.1 -86.224148
v 101.984355 0.1 -88.775878
v 102.422282 0.1 -91.312652
v 117.203645 0.1 -88.760922
v 115.601959 0.1 -82.689741
v 101.51293299999999 0.1 -87.837493
v 102.330041 0.1 -90.073859
v 116.419067 0.1 -84.926107
v 114.058473 0.1 -79.701688
v 100.914208 0.1 -86.928603
v 101.985527 0.1 -88.877112
v 115.12979200000001 0.1 -81.650197
v 112.12362399999999 0.1 -77.043642999999989
v 100.236071 0.1 -86.191655
v 101.542376 0.1 -87.889157
v 113.429929 0.1 -78.741144999999989
v 109.892511 0.1 -74.763049
v 99.423425 0.1 -85.505406000000008
v 100.945489 0.1 -86.988751000000008
v 111.414575 0.1 -76.246394
v 107.477614 0.1 -72.856904
v 98.401789000000008 0.1 -84.799658000000008
v 100.12038600000001 0.1 -86.105696000000009
v 109.196211 0.1 -74.162942
v 104.97201700000001 0.1 -71.273573000000013
v 97.116079 0.1 -84.051846000000012
v 99.011983 0.1 -85.217427
v 106.86792100000001 0.1 -72.439154
v 102.434572 0.1 -69.938508
v 95.545442999999992 0.1 -83.262918
v 97.599427999999989 0.1 -84.324891999999991
v 104.488557 0.1 -71.000481999999991
v 99.896453999999991 0.1 -68.77595
v 93.697306 0.1 -82.435033
v 95.890146 0.1 -83.43025
v 102.089294 0.1 -69.771166999999991
v 97.373520000000013 0.1 -67.718962
v 91.595211 0.1 -81.561329
v 93.90768 0.1 -82.526637999999991
v 99.685989 0.1 -68.684271
v 94.874639 0.1 -66.711383
v 89.268489 0.1 -80.624365
v 91.68136100000001 0.1 -81.596617
v 97.287511000000009 0.1 -67.683635
v 92.407084 0.1 -65.706137
v 86.747867 0.1 -79.597619
v 89.241916 0.1 -80.613662999999988
v 94.901133 0.1 -66.722180999999992
v 89.978761999999989 0.1 -64.662798999999993
v 84.064237999999989 0.1 -78.447514
v 86.620238 0.1 -79.544201
v 92.534762 0.1 -65.759486
v 87.597473999999991 0.1 -63.546082
v 81.248001 0.1 -77.135938
v 83.846726 0.1 -78.350118
v 90.196198999999993 0.1 -64.760262
v 85.270542999999989 0.1 -62.323475
v 78.330434 0.1 -75.621403
v 80.952657 0.1 -76.989925
v 87.892766 0.1 -63.691997
v 83.003517 0.1 -60.964084
v 75.344588 0.1 -73.861401
v 77.971083000000007 0.1 -75.421116
v 85.630012000000008 0.1 -62.523799
v 80.799133000000012 0.1 -59.436225
v 72.325925000000012 0.1 -71.813817
v 74.937467 0.1 -73.601575
v 83.410675 0.1 -61.223983000000004
v 78.28605 0.1 -57.557325999999996
v 69.326945999999992 0.1 -69.58789
v 72.08295 0.1 -71.640273999999991
v 81.042054000000007 0.1 -59.60971
v 75.294007 0.1 -55.291796
v 66.239803999999992 0.1 -67.25095
v 69.279393 0.1 -69.552204
v 78.333596 0.1 -57.59305
v 72.055287 0.1 -52.809747
v 62.931607 0.1 -64.715983999999992
v 66.205113 0.1 -67.224453
v 75.328793 0.1 -55.318216
v 68.62376 0.1 -50.156013
v 59.447483999999996 0.1 -62.02176
v 62.90524 0.1 -64.695787
v 72.081516 0.1 -52.83004
v 65.051873 0.1 -47.373898000000004
v 55.834788 0.1 -59.207974
v 59.427127 0.1 -62.005902
v 68.644212 0.1 -50.171826
v 61.390697 0.1 -44.506337
v 52.141449 0.1 -56.315291
v 55.818703 0.1 -59.195463000000004
v 65.067951 0.1 -47.386509000000004
v 57.690935999999994 0.1 -41.595561
v 48.416163 0.1 -53.384478
v 52.128664 0.1 -56.305239
v 61.403437 0.1 -44.516322
v 54.002943 0.1 -38.683852
v 44.707975000000005 0.1 -50.456855000000004
v 48.406057000000004 0.1 -53.376548
v 57.701025 0.1 -41.603545
v 50.37683 0.1 -35.813016
v 41.066175 0.1 -47.573615
v 44.70017 0.1 -50.450584
v 54.010825 0.1 -38.689985
v 46.862429 0.1 -33.02512
v 37.540130999999995 0.1 -44.776493
v 41.060370999999996 0.1 -47.56908
v 50.382669 0.1 -35.817707
v 43.509407999999993 0.1 -30.361610000000002
v 34.179373 0.1 -42.106840000000005
v 37.536192 0.1 -44.773390000000006
v 46.866226999999995 0.1 -33.02816
v 40.367458 0.1 -27.864192
v 31.033812 0.1 -39.606553
v 34.177542 0.1 -42.105408
v 43.511188000000004 0.1 -30.363047
v 37.48592 0.1 -25.574177000000002
v 28.153505999999997 0.1 -37.317518
v 31.03448 0.1 -39.607023
v 40.366893999999995 0.1 -27.863682
v 34.913511 0.1 -23.532646
v 25.588739 0.1 -35.282056
v 28.157289 0.1 -37.320554
v 37.482061 0.1 -25.571144
v 32.698393 0.1 -21.779912000000003
v 23.390948 0.1 -33.543054
v 25.597407 0.1 -35.288888
v 34.904852 0.1 -23.525746
v 30.886539000000003 0.1 -20.354877000000002
v 21.61356 0.1 -32.145208
v 23.408261 0.1 -33.556723
v 32.68124 0.1 -21.766392
vn 0 1 0
f 4//1 3//1 2//1 1//1
f 8//2 7//2 6//2 5//2
f 12//3 11//3 10//3 9//3
f 16//4 15//4 14//4 13//4
f 20//5 19//5 18//5 17//5
f 24//6 23//6 22//6 21//6
f 28//7 27//7 26//7 25//7
f 32//8 31//8 30//8 29//8
f 36//9 35//9 34//9 33//9
f 40//10 39//10 38//10 37//10
f 44//11 43//11 42//11 41//11
f 48//12 47//12 46//12 45//12
f 52//13 51//13 50//13 49//13
f 56//14 55//14 54//14 53//14
f 60//15 59//15 58//15 57//15
f 64//16 63//16 62//16 61//16
f 68//17 67//17 66//17 65//17
f 72//18 71//18 70//18 69//18
f 76//19 75//19 74//19 73//19
f 80//20 79//20 78//20 77//20
f 84//21 83//21 82//21 81//21
f 88//22 87//22 86//22 85//22
f 92//23 91//23 90//23 89//23
f 96//24 95//24 94//24 93//24
f 100//25 99//25 98//25 97//25
f 104//26 103//26 102//26 101//26
f 108//27 107//27 106//27 105//27
f 112//28 111//28 110//28 109//28
f 116//29 115//29 114//29 113//29
f 120//30 119//30 118//30 117//30
f 124//31 123//31 122//31 121//31
f 128//32 127//32 126//32 125//32
f 132//33 131//33 130//33 129//33
f 136//34 135//34 134//34 133//34
f 140//35 139//35 138//35 137//35
f 144//36 143//36 142//36 141//36
f 148//37 147//37 146//37 145//37
f 152//38 151//38 150//38 149//38
f 156//39 155//39 154//39 153//39
f 160//40 159//40 158//40 157//40
f 164//41 163//41 162//41 161//41
f 168//42 167//42 166//42 165//42
f 172//43 171//43 170//43 169//43
f 176//44 175//44 174//44 173//44
f 180//45 179//45 178//45 177//45
f 184//46 183//46 182//46 181//46
f 188//47 187//47 186//47 185//47
f 192//48 191//48 190//48 189//48
f 196//49 195//49 194//49 193//49
f 200//50 199//50 198//50 197//50
f 204//51 203//51 202//51 201//51
f 208//52 207//52 206//52 205//52
f 212//53 211//53 210//53 209//53
f 216//54 215//54 214//54 213//54
f 220//55 219//55 218//55 217//55
f 224//56 223//56 222//56 221//56
f 228//57 227//57 226//57 225//57
f 232//58 231//58 230//58 229//58
f 236//59 235//59 234//59 233//59
f 240//60 239//60 238//60 237//60
f 244//61 243//61 242//61 241//61
f 248//62 247//62 246//62 245//62
f 252//63 251//63 250//63 249//63
f 256//64 255//64 254//64 253//64
f 260//65 259//65 258//65 257//65
f 264//66 263//66 262//66 261//66
f 268//67 267//67 266//67 265//67
f 272//68 271//68 270//68 269//68
f 276//69 275//69 274//69 273//69
f 280//70 279//70 278//70 277//70
f 284//71 283//71 282//71 281//71
f 288//72 287//72 286//72 285//72
f 292//73 291//73 290//73 289//73
f 296//74 295//74 294//74 293//74
f 300//75 299//75 298//75 297//75
f 304//76 303//76 302//76 301//76
f 308//77 307//77 306//77 305//77
f 312//78 311//78 310//78 309//78
f 316//79 315//79 314//79 313//79
f 320//80 319//80 318//80 317//80
f 324//81 323//81 322//81 321//81
f 328//82 327//82 326//82 325//82
f 332//83 331//83 330//83 329//83
f 336//84 335//84 334//84 333//84
f 340//85 339//85 338//85 337//85
f 344//86 343//86 342//86 341//86
f 348//87 347//87 346//87 345//87
f 352//88 351//88 350//88 349//88
f 356//89 355//89 354//89 353//89
f 360//90 359//90 358//90 357//90
f 364//91 363//91 362//91 361//91
f 368//92 367//92 366//92 365//92
f 372//93 371//93 370//93 369//93
f 376//94 375//94 374//94 373//94
f 380//95 379//95 378//95 377//95
f 384//96 383//96 382//96 381//96
f 388//97 387//97 386//97 385//97
f 392//98 391//98 390//98 389//98
f 396//99 395//99 394//99 393//99
f 400//100 399//100 398//100 397//100
f 404//101 403//101 402//101 401//101
f 408//102 407//102 406//102 405//102
f 412//103 411//103 410//103 409//103
f 416//104 415//104 414//104 413//104
f 420//105 419//105 418//105 417//105
f 424//106 423//106 422//106 421//106
f 428//107 427//107 426//107 425//107
f 432//108 431//108 430//108 429//108
f 436//109 435//109 434//109 433//109
f 440//110 439//110 438//110 437//110
f 444//111 443//111 442//111 441//111
f 448//112 447//112 446//112 445//112
f 452//113 451//113 450//113 449//113
f 456//114 455//114 454//114 453//114
f 460//115 459//115 458//115 457//115
f 464//116 463//116 462//116 461//116
f 468//117 467//117 466//117 465//117
f 472//118 471//118 470//118 469//118
f 476//119 475//119 474//119 473//119
f 480//120 479//120 478//120 477//120
f 484//121 483//121 482//121 481//121
f 488//122 487//122 486//122 485//122
f 492//123 491//123 490//123 489//123
f 496//124 495//124 494//124 493//124
f 500//125 499//125 498//125 497//125
f 504//126 503//126 502//126 501//126
f 508//127 507//127 506//127 505//127
f 512//128 511//128 510//128 509//128
f 516//129 515//129 514//129 513//129
f 520//130 519//130 518//130 517//130
f 524//131 523//131 522//131 521//131
f 528//132 527//132 526//132 525//132
f 532//133 531//133 530//133 529//133
f 536//134 535//134 534//134 533//134
f 540//135 539//135 538//135 537//135
f 544//136 543//136 542//136 541//136
f 548//137 547//137 546//137 545//137
f 552//138 551//138 550//138 549//138
f 556//139 555//139 554//139 553//139
f 560//140 559//140 558//140 557//140
f 564//141 563//141 562//141 561//141
f 568//142 567//142 566//142 565//142
f 572//143 571//143 570//143 569//143
f 576//144 575//144 574//144 573//144
