# Merged route mesh - Route_West_Merged
o Route_West_Merged
v -351.75705700000003 0.1 -7.397137
v -345.94338400000004 0.1 6.430414
v -347.092943 0.1 6.913737
v -352.906616 0.1 -6.9138139999999995
v -350.987507 0.1 -7.840618
v -343.948619 0.1 5.405289
v -345.330493 0.1 6.139618
v -352.369381 0.1 -7.106289
v -349.686261 0.1 -8.616093
v -342.069583 0.1 4.306222
v -343.659739 0.1 5.243493
v -351.276417 0.1 -7.678822
v -348.035064 0.1 -9.6341820000000009
v -340.17253 0.1 3.1400339999999995
v -341.946936 0.1 4.232182
v -349.80947 0.1 -8.542034
v -346.120528 0.1 -10.820998
v -338.218848 0.1 1.9290390000000004
v -340.153472 0.1 3.127998
v -348.055152 0.1 -9.6220390000000009
v -343.99190200000004 0.1 -12.114070000000002
v -336.205289 0.1 0.7065639999999993
v -338.276098 0.1 1.96427
v -346.06271100000004 0.1 -10.856364
v -341.68345 0.1 -13.456899
v -334.14759 0.1 -0.48728800000000039
v -336.33055 0.1 0.78109899999999932
v -343.86641000000003 0.1 -12.188512
v -339.218457 0.1 -14.796777
v -332.07046299999996 0.1 -1.609426
v -334.34154299999994 0.1 -0.37842299999999973
v -341.489537 0.1 -13.565774000000001
v -336.612604 0.1 -16.082097
v -330.00622899999996 0.1 -2.6152560000000005
v -332.341396 0.1 -1.469703
v -338.947771 0.1 -14.936544
v -333.87426700000003 0.1 -17.260511
v -327.994512 0.1 -3.4609279999999991
v -330.369733 0.1 -2.4488889999999994
v -336.24948800000004 0.1 -16.248472
v -331.002907 0.1 -18.276029
v -326.08185 0.1 -4.10623
v -328.473093 0.1 -3.2757709999999998
v -333.39415 0.1 -17.44557
v -327.992777 0.1 -19.064467
v -324.325991 0.1 -4.519547
v -326.709223 0.1 -3.9187330000000005
v -330.376009 0.1 -18.463653
v -324.829474 0.1 -19.545222
v -322.787338 0.1 -4.684883
v -325.13852599999996 0.1 -4.361778
v -327.180662 0.1 -19.222117
v -321.504718 0.1 -19.61246
v -321.52217 0.1 -4.6124699999999992
v -323.817282 0.1 -4.6151399999999994
v -323.79983 0.1 -19.61513
v -318.04166200000003 0.1 -19.129886
v -320.555334 0.1 -4.3420040000000011
v -322.770338 0.1 -4.7185140000000008
v -320.256666 0.1 -19.506396000000002
v -314.534217 0.1 -17.952457000000003
v -319.84092 0.1 -3.9225270000000005
v -321.951783 0.1 -4.720943
v -316.64508 0.1 -18.750873
v -310.956859 0.1 -15.778789
v -319.35638700000004 0.1 -3.3510830000000009
v -321.38714100000004 0.1 -4.7236110000000009
v -312.987613 0.1 -17.151317
v -307.848832 0.1 -12.856682
v -318.473127 0.1 -2.2678019999999997
v -320.46916799999997 0.1 -4.2705179999999991
v -309.844873 0.1 -14.859397999999999
v -305.266994 0.1 -9.624669
v -317.11566799999997 0.1 -0.42635699999999943
v -319.08500599999996 0.1 -2.9631309999999997
v -307.236332 0.1 -12.161443
v -302.968866 0.1 -6.163459
v -315.512489 0.1 2.06196
v -317.463134 0.1 -0.912741
v -304.919511 0.1 -9.13816
v -300.827218 0.1 -2.521059
v -313.77481800000004 0.1 5.052557
v -315.714782 0.1 1.736059
v -302.767182 0.1 -5.837557
v -298.774706 0.1 1.2446260000000002
v -311.952 0.1 8.4111380000000011
v -313.889294 0.1 4.848974
v -300.712 0.1 -2.317538
v -296.775777 0.1 5.061731
v -310.065588 0.1 12.01737
v -312.008223 0.1 8.305669
v -298.718412 0.1 1.3500300000000003
v -294.809529 0.1 8.847109
v -308.120485 0.1 15.762197
v -310.07647099999997 0.1 11.997091000000001
v -296.765515 0.1 5.082003
v -292.863835 0.1 12.508658
v -306.110817 0.1 19.545523
v -308.088165 0.1 15.823142
v -294.841183 0.1 8.7862770000000019
v -290.936803 0.1 15.946112
v -304.024476 0.1 23.275014
v -306.03119699999996 0.1 19.691488
v -292.94352399999997 0.1 12.362586
v -289.035441 0.1 19.051393
v -301.838453 0.1 26.866948
v -303.882559 0.1 23.518407
v -291.079547 0.1 15.702852
v -287.18129899999997 0.1 21.706728000000002
v -299.513201 0.1 30.246297
v -301.602701 0.1 27.228872
v -289.270799 0.1 18.689303000000002
v -285.425833 0.1 23.785946
v -296.983261 0.1 33.347633
v -299.126167 0.1 30.757454
v -287.568739 0.1 21.195767
v -283.86994899999996 0.1 25.162283000000002
v -294.129728 0.1 36.10472
v -296.334051 0.1 34.037917
v -286.07427199999995 0.1 23.095480000000002
v -282.698837 0.1 25.753846
v -290.753412 0.1 38.407851
v -293.027163 0.1 36.960554
v -284.972588 0.1 24.306548999999997
v -282.146912 0.1 25.651257
v -286.603899 0.1 39.973802
v -288.955088 0.1 39.242143
v -284.49810099999996 0.1 24.919598
v -281.799286 0.1 25.366279000000002
v -282.122773 0.1 40.362792000000006
v -284.536714 0.1 40.310721
v -284.213227 0.1 25.314208000000004
v -280.971695 0.1 25.019478999999997
v -278.03764 0.1 39.729724
v -280.494305 0.1 40.219721
v -283.42836 0.1 25.509476
v -279.73337399999997 0.1 24.412358
v -274.277236 0.1 38.384851
v -276.776626 0.1 39.360842000000005
v -282.232764 0.1 25.388349
v -278.092673 0.1 23.429486999999998
v -270.833213 0.1 36.555806
v -273.37532699999997 0.1 37.961712999999996
v -280.63478699999996 0.1 24.835394
v -276.13187899999997 0.1 22.035593
v -267.62528199999997 0.1 34.39026
v -270.210121 0.1 36.170007
v -278.716718 0.1 23.81534
v -273.929254 0.1 20.253991
v -264.571183 0.1 31.976897
v -267.198746 0.1 34.074409
v -276.556817 0.1 22.351503
v -271.54564200000004 0.1 18.135616
v -261.61406900000003 0.1 29.376784
v -264.284358 0.1 31.735984000000002
v -274.215931 0.1 20.494816
v -269.01984699999997 0.1 15.741325
v -258.71513999999996 0.1 26.641463
v -261.428153 0.1 29.206275
v -271.73286 0.1 18.306137
v -266.374154 0.1 13.133751
v -255.84810899999997 0.1 23.820301999999998
v -258.603846 0.1 26.534648999999998
v -269.129891 0.1 15.848098
v -263.624903 0.1 10.374843
v -253.000635 0.1 20.963749
v -255.799097 0.1 23.771557
v -266.423365 0.1 13.182651
v -260.778442 0.1 7.5245400000000009
v -250.164371 0.1 18.123668000000002
v -253.005558 0.1 20.96886
v -263.619629 0.1 10.369732
v -257.837762 0.1 4.641202
v -247.338327 0.1 15.353899
v -250.222238 0.1 18.180398
v -260.721673 0.1 7.467701
v -254.799195 0.1 1.7817730000000003
v -244.524169 0.1 12.709895
v -247.450805 0.1 15.461627
v -257.725831 0.1 4.5335050000000008
v -251.65540199999998 0.1 -0.99801600000000068
v -241.72923799999998 0.1 10.247929
v -244.698598 0.1 12.868815999999999
v -254.624762 0.1 1.622871
v -248.39381 0.1 -3.6424730000000003
v -238.966105 0.1 8.024506
v -241.97819 0.1 10.458473
v -251.40589500000002 0.1 -1.2085060000000003
v -244.995716 0.1 -6.094517
v -236.25347399999998 0.1 6.094545
v -239.308284 0.1 8.285517
v -248.050526 0.1 -3.903545
v -241.83344200000002 0.1 -8.343314
v -233.14097 0.1 3.8812879999999996
v -236.278558 0.1 6.1123140000000005
v -244.97103 0.1 -6.1122879999999995
v -238.860638 0.1 -10.680659
v -229.615622 0.1 1.1316089999999996
v -232.865362 0.1 3.6750589999999996
v -242.110378 0.1 -8.137209
v -235.68892 0.1 -13.323717
v -226.095209 0.1 -1.7928580000000007
v -229.44108 0.1 0.9909169999999996
v -239.03479099999998 0.1 -10.539942
v -232.36169900000002 0.1 -16.192046
v -222.570321 0.1 -4.828557
v -225.996301 0.1 -1.8765539999999996
v -235.787679 0.1 -13.240043
v -228.909547 0.1 -19.207241
v -219.042386 0.1 -7.909493
v -222.532453 0.1 -4.861359
v -232.399614 0.1 -16.159107
v -225.355199 0.1 -22.293666
v -215.520669 0.1 -10.967501
v -219.058801 0.1 -7.895334
v -228.893331 0.1 -19.221499
v -221.714453 0.1 -25.37753
v -212.01937199999998 0.1 -13.931771000000001
v -215.58954699999998 0.1 -10.907670000000001
v -225.284628 0.1 -22.353429000000002
v -218.00070000000002 0.1 -28.387249
v -208.561103 0.1 -16.72989
v -212.1473 0.1 -13.825951
v -221.58689700000002 0.1 -25.48331
v -214.218387 0.1 -31.252553
v -205.171416 0.1 -19.287924
v -208.757613 0.1 -16.576247000000002
v -217.804584 0.1 -28.540876
v -210.365431 0.1 -33.903673
v -201.884394 0.1 -21.531446
v -205.454569 0.1 -19.084127
v -213.935606 0.1 -31.456354
v -206.429556 0.1 -36.269259
v -198.744312 0.1 -23.387604
v -202.282444 0.1 -21.276741
v -209.96768799999998 0.1 -34.158395999999996
v -202.38489 0.1 -38.271642
v -195.809043 0.1 -24.789867
v -199.29911 0.1 -23.087558
v -205.87495700000002 0.1 -36.569333
v -198.190045 0.1 -39.816737999999994
v -193.151975 0.1 -25.688118999999997
v -196.57795499999997 0.1 -24.466461999999996
v -201.61602499999998 0.1 -38.595080999999993
v -193.795371 0.1 -40.775821
v -190.854758 0.1 -26.066886
v -194.200629 0.1 -25.397979
v -197.14124199999998 0.1 -40.106914
v -189.176805 0.1 -40.96474
v -188.973455 0.1 -25.966119
v -192.22319499999998 0.1 -25.922059999999995
v -192.42654499999998 0.1 -40.920680999999995
v -184.409296 0.1 -40.155174
v -187.465116 0.1 -25.469741
v -190.602704 0.1 -26.122626
v -187.546884 0.1 -40.808059
v -179.37380199999998 0.1 -37.812272
v -186.43141599999998 0.1 -24.576332999999998
v -189.466198 0.1 -26.194528
v -182.408584 0.1 -39.430467
v -174.891571 0.1 -34.038924
v -184.999085 0.1 -22.955685000000003
v -187.956429 0.1 -25.652676
v -177.848915 0.1 -36.735915
v -171.19693900000001 0.1 -29.56244
v -182.917145 0.1 -20.200989999999997
v -185.805061 0.1 -23.81656
v -174.084855 0.1 -33.17801
v -167.93155000000002 0.1 -24.578471
v -180.52995 0.1 -16.437197
v -183.35645 0.1 -20.811129
v -170.75805 0.1 -28.952403
v -164.907339 0.1 -19.188981
v -178.007567 0.1 -11.882542999999998
v -180.78066099999998 0.1 -16.854619
v -167.680433 0.1 -24.161057
v -162.033222 0.1 -13.502259
v -175.427078 0.1 -6.749138
v -178.154778 0.1 -12.159141
v -164.760922 0.1 -18.912262
v -159.26002699999998 0.1 -7.644928
v -172.819658 0.1 -1.231159
v -175.509973 0.1 -6.918872
v -161.95034199999998 0.1 -13.332641
v -156.560643 0.1 -1.7579230000000001
v -170.196416 0.1 4.492329
v -172.857357 0.1 -1.312877
v -159.221584 0.1 -7.563129
v -153.920526 0.1 4.006254
v -167.557894 0.1 10.253028
v -170.197474 0.1 4.490546
v -156.560106 0.1 -1.7562280000000001
v -151.33144 0.1 9.485735
v -164.894331 0.1 15.892605
v -167.52056 0.1 10.333065
v -153.95766899999998 0.1 3.926195
v -148.79609299999998 0.1 14.508109
v -162.18902 0.1 21.263072
v -164.809907 0.1 16.066691
v -151.41698 0.1 9.3117279999999987
v -146.328413 0.1 18.886967000000002
v -159.408029 0.1 26.230238
v -162.031587 0.1 21.557233
v -148.95197100000001 0.1 14.213962000000002
v -143.97519599999998 0.1 22.415347
v -156.49256499999998 0.1 30.680664
v -159.126804 0.1 26.691253
v -146.609435 0.1 18.425936
v -141.848299 0.1 24.858311
v -153.31476999999998 0.1 34.528888
v -155.96770099999998 0.1 31.383288999999998
v -144.50123 0.1 21.712712
v -140.219818 0.1 25.976391999999997
v -149.584547 0.1 37.693979
v -152.26418199999998 0.1 35.552408
v -142.899453 0.1 23.834820999999998
v -139.64706099999998 0.1 25.75594
v -144.728591 0.1 39.868986
v -147.442939 0.1 38.89166
v -142.36140899999998 0.1 24.778613999999997
v -140.18077300000002 0.1 25.091593999999997
v -138.78089 0.1 40.026128
v -141.487227 0.1 40.279805999999994
v -142.88711 0.1 25.345271999999998
v -140.21668799999998 0.1 24.522021
v -133.429575 0.1 37.898683
v -136.087312 0.1 39.247179
v -142.87442499999997 0.1 25.870517
v -139.149291 0.1 23.273647
v -129.256356 0.1 34.548835
v -131.876709 0.1 36.847953000000004
v -141.769644 0.1 25.572765
v -137.36488300000002 0.1 20.997432
v -125.85293200000001 0.1 30.613823
v -128.447117 0.1 33.719368
v -139.959068 0.1 24.102977
v -135.21821 0.1 17.801351
v -122.84055899999998 0.1 26.274472000000003
v -125.41978999999999 0.1 30.042249
v -137.797441 0.1 21.569128
v -132.882799 0.1 13.888957999999999
v -120.025709 0.1 21.615229
v -122.601201 0.1 25.901042
v -135.458291 0.1 18.174771
v -130.431115 0.1 9.456213
v -117.311916 0.1 16.728534
v -119.894885 0.1 21.388187000000002
v -133.014084 0.1 14.115866
v -127.89016699999999 0.1 4.680028
v -114.64817099999999 0.1 11.726274
v -117.249833 0.1 16.615572
v -130.491829 0.1 9.569326
v -125.267793 0.1 -0.278524
v -112.00863799999999 0.1 6.735377
v -114.64020699999999 0.1 11.710124
v -127.899362 0.1 4.696223
v -122.55480200000001 0.1 -5.269935
v -109.376506 0.1 1.894735
v -112.049198 0.1 6.8107349999999993
v -125.22749400000001 0.1 -0.35393500000000011
v -119.733323 0.1 -10.154803000000001
v -106.747648 0.1 -2.646655
v -109.47267699999999 0.1 2.066403
v -122.45835199999999 0.1 -5.441745
v -116.772428 0.1 -14.803702000000001
v -104.13099 0.1 -6.729419
v -106.919572 0.1 -2.3634980000000008
v -119.56101000000001 0.1 -10.437781000000001
v -113.61999999999999 0.1 -19.098648
v -101.55664999999999 0.1 -10.18374
v -104.42 0.1 -6.309152000000001
v -116.48335 0.1 -15.224060000000001
v -110.184848 0.1 -22.929711
v -99.093819000000011 0.1 -12.830748
v -102.043152 0.1 -9.5916889999999988
v -113.134181 0.1 -19.690652
v -106.303726 0.1 -26.175366
v -96.881742 0.1 -14.503768999999998
v -99.928274 0.1 -12.044433999999999
v -109.350258 0.1 -23.716031
v -101.719518 0.1 -28.618786
v -95.155536 0.1 -15.131229999999999
v -98.310482000000007 0.1 -13.595813999999999
v -104.874464 0.1 -27.08337
v -96.570775 0.1 -29.916559
v -93.546243 0.1 -15.224651
v -96.925225000000012 0.1 -14.529041
v -99.949757 0.1 -29.220948999999997
v -91.555298000000008 0.1 -30.152793
v -91.212051 0.1 -15.156721000000001
v -94.886902 0.1 -15.072607000000001
v -95.230149000000011 0.1 -30.068679
v -86.601296 0.1 -29.649283
v -88.333459 0.1 -14.749633
v -92.249704 0.1 -15.204916999999998
v -90.517541 0.1 -30.104567
v -81.718941 0.1 -28.594121
v -85.009494 0.1 -13.959495
v -89.112659000000008 0.1 -14.882079
v -85.822106 0.1 -29.516704999999998
v -76.900631 0.1 -27.120511999999998
v -81.356758 0.1 -12.797700999999998
v -85.592368999999991 0.1 -14.115488
v -81.136242 0.1 -28.438299
v -72.148519000000007 0.1 -25.328097
v -77.481698000000009 0.1 -11.308211
v -81.795281 0.1 -12.949103000000001
v -76.462102 0.1 -26.968989
v -67.479236 0.1 -23.300671
v -73.476683000000008 0.1 -9.5518299999999989
v -77.813764 0.1 -11.443729
v -71.816317 0.1 -25.19257
v -62.921419 0.1 -21.114543
v -69.422275 0.1 -7.5964480000000005
v -73.728381 0.1 -9.667257
v -67.227525 0.1 -23.185352
v -58.512327 0.1 -18.843049
v -65.390015999999989 0.1 -5.5127310000000005
v -69.610672999999991 0.1 -7.690351
v -62.732983999999995 0.1 -21.020668999999998
v -54.295991 0.1 -16.558913
v -61.445074999999996 0.1 -3.372153
v -65.525809 0.1 -5.584487
v -58.376725 0.1 -18.771247
v -50.321400000000004 0.1 -14.335325000000001
v -57.646863 0.1 -1.2457250000000002
v -61.5332 0.1 -3.420675
v -54.207737 0.1 -16.510275
v -46.643322999999995 0.1 -12.246972
v -54.05001 0.1 0.79684000000000044
v -57.687477 0.1 -1.2686279999999996
v -50.280789999999996 0.1 -14.312439999999999
v -43.323023 0.1 -10.370992999999999
v -50.702055 0.1 2.6884820000000005
v -54.036177 0.1 0.80459299999999967
v -46.657145 0.1 -12.254882
v -40.433327 0.1 -8.788909
v -47.63917 0.1 4.36692
v -50.615473 0.1 2.736709
v -43.40963 0.1 -10.41912
v -38.071391999999996 0.1 -7.591231
v -44.872997999999995 0.1 5.778067
v -47.437008 0.1 4.473631
v -40.635402 0.1 -8.895667
v -36.399122 0.1 -6.8843689999999995
v -42.350833 0.1 6.8843320000000006
v -44.448078 0.1 5.977769
v -38.496367 0.1 -7.790932
vn 0 1 0
f 4//1 3//1 2//1 1//1
f 8//2 7//2 6//2 5//2
f 12//3 11//3 10//3 9//3
f 16//4 15//4 14//4 13//4
f 20//5 19//5 18//5 17//5
f 24//6 23//6 22//6 21//6
f 28//7 27//7 26//7 25//7
f 32//8 31//8 30//8 29//8
f 36//9 35//9 34//9 33//9
f 40//10 39//10 38//10 37//10
f 44//11 43//11 42//11 41//11
f 48//12 47//12 46//12 45//12
f 52//13 51//13 50//13 49//13
f 56//14 55//14 54//14 53//14
f 60//15 59//15 58//15 57//15
f 64//16 63//16 62//16 61//16
f 68//17 67//17 66//17 65//17
f 72//18 71//18 70//18 69//18
f 76//19 75//19 74//19 73//19
f 80//20 79//20 78//20 77//20
f 84//21 83//21 82//21 81//21
f 88//22 87//22 86//22 85//22
f 92//23 91//23 90//23 89//23
f 96//24 95//24 94//24 93//24
f 100//25 99//25 98//25 97//25
f 104//26 103//26 102//26 101//26
f 108//27 107//27 106//27 105//27
f 112//28 111//28 110//28 109//28
f 116//29 115//29 114//29 113//29
f 120//30 119//30 118//30 117//30
f 124//31 123//31 122//31 121//31
f 128//32 127//32 126//32 125//32
f 132//33 131//33 130//33 129//33
f 136//34 135//34 134//34 133//34
f 140//35 139//35 138//35 137//35
f 144//36 143//36 142//36 141//36
f 148//37 147//37 146//37 145//37
f 152//38 151//38 150//38 149//38
f 156//39 155//39 154//39 153//39
f 160//40 159//40 158//40 157//40
f 164//41 163//41 162//41 161//41
f 168//42 167//42 166//42 165//42
f 172//43 171//43 170//43 169//43
f 176//44 175//44 174//44 173//44
f 180//45 179//45 178//45 177//45
f 184//46 183//46 182//46 181//46
f 188//47 187//47 186//47 185//47
f 192//48 191//48 190//48 189//48
f 196//49 195//49 194//49 193//49
f 200//50 199//50 198//50 197//50
f 204//51 203//51 202//51 201//51
f 208//52 207//52 206//52 205//52
f 212//53 211//53 210//53 209//53
f 216//54 215//54 214//54 213//54
f 220//55 219//55 218//55 217//55
f 224//56 223//56 222//56 221//56
f 228//57 227//57 226//57 225//57
f 232//58 231//58 230//58 229//58
f 236//59 235//59 234//59 233//59
f 240//60 239//60 238//60 237//60
f 244//61 243//61 242//61 241//61
f 248//62 247//62 246//62 245//62
f 252//63 251//63 250//63 249//63
f 256//64 255//64 254//64 253//64
f 260//65 259//65 258//65 257//65
f 264//66 263//66 262//66 261//66
f 268//67 267//67 266//67 265//67
f 272//68 271//68 270//68 269//68
f 276//69 275//69 274//69 273//69
f 280//70 279//70 278//70 277//70
f 284//71 283//71 282//71 281//71
f 288//72 287//72 286//72 285//72
f 292//73 291//73 290//73 289//73
f 296//74 295//74 294//74 293//74
f 300//75 299//75 298//75 297//75
f 304//76 303//76 302//76 301//76
f 308//77 307//77 306//77 305//77
f 312//78 311//78 310//78 309//78
f 316//79 315//79 314//79 313//79
f 320//80 319//80 318//80 317//80
f 324//81 323//81 322//81 321//81
f 328//82 327//82 326//82 325//82
f 332//83 331//83 330//83 329//83
f 336//84 335//84 334//84 333//84
f 340//85 339//85 338//85 337//85
f 344//86 343//86 342//86 341//86
f 348//87 347//87 346//87 345//87
f 352//88 351//88 350//88 349//88
f 356//89 355//89 354//89 353//89
f 360//90 359//90 358//90 357//90
f 364//91 363//91 362//91 361//91
f 368//92 367//92 366//92 365//92
f 372//93 371//93 370//93 369//93
f 376//94 375//94 374//94 373//94
f 380//95 379//95 378//95 377//95
f 384//96 383//96 382//96 381//96
f 388//97 387//97 386//97 385//97
f 392//98 391//98 390//98 389//98
f 396//99 395//99 394//99 393//99
f 400//100 399//100 398//100 397//100
f 404//101 403//101 402//101 401//101
f 408//102 407//102 406//102 405//102
f 412//103 411//103 410//103 409//103
f 416//104 415//104 414//104 413//104
f 420//105 419//105 418//105 417//105
f 424//106 423//106 422//106 421//106
f 428//107 427//107 426//107 425//107
f 432//108 431//108 430//108 429//108
f 436//109 435//109 434//109 433//109
f 440//110 439//110 438//110 437//110
f 444//111 443//111 442//111 441//111
f 448//112 447//112 446//112 445//112
